<?xml version="1.0" encoding="UTF-8"?>
<svg xmlns="http://www.w3.org/2000/svg" onmouseup="{ if(window.parent.document.onmouseup) window.parent.document.onmouseup(arguments[0]);}" viewBox="0 0 199.34 281.17"><defs><style>.cls-1{fill:#d7d7d7;}.cls-2{fill:#ffc589;}.cls-3,.cls-7,.cls-8,.cls-9{stroke:#000;}.cls-3{stroke-width:2.52px;}.cls-4{fill:#c9f5ff;}.cls-5{fill:#332518;}.cls-6{fill:#4ecdf4;}.cls-7{fill:none;stroke-width:2px;}.cls-8{stroke-width:1.91px;}.cls-9{stroke-width:0.63px;}.cls-10{fill:#fff;}.cls-11{fill:#be1e2d;}</style></defs><g data-name="Layer 2" id="Layer_2"><g data-name="event flowchart jp" id="event_flowchart_jp"><path data-cppathid="10000" transform="translate(-4.86)" d="M175.63,274.32c0,3.79-20.41,6.85-45.59,6.85s-45.58-3.06-45.58-6.85,20.41-6.85,45.58-6.85S175.63,270.54,175.63,274.32Z" class="cls-1"/><path data-cppathid="10001" transform="translate(-4.86)" d="M77.48,76.06c-1.24-3.42-2-5.84-2-5.84s2.28-9.59-.35-7.4-2.49,7.31-2.49,7.31-3.1-10.32-5.08-10.67,1,6.28,1,6.28S64.86,60.52,64,60.07,66.25,66,66.25,66s-4.44-3.12-4.9-2.28,7.28,8.61,8.74,11.92c.29.66.77,2.28,1.42,4.44C74.12,88.68,79.3,81.05,77.48,76.06Z" class="cls-2"/><path data-cppathid="10002" transform="translate(-4.86)" d="M133,70.54c.71-3.57,1-6.07,1-6.07s-3.73-9.13-.79-7.37S136.84,64,136.84,64s1.47-10.68,3.38-11.33,0,6.35,0,6.35,2.83-5.73,3.59-6.3-1.31,6.17-1.31,6.17,3.92-3.77,4.5-3-5.87,9.62-6.81,13.12c-.18.7-.41,2.37-.72,4.61C138.25,82.49,132,75.75,133,70.54Z" class="cls-2"/><path data-cppathid="10003" transform="translate(-4.86)" d="M120.29,145.58c-.51,2.93.84,5.61,3,6h0c2.17.38,4.35-1.69,4.86-4.61l13.71-78.24L132.3,67Z"/><path data-cppathid="10004" transform="translate(-4.86)" d="M117.72,141.21s16.17,21,18.44,51.66c.14,1.87,0,9.27,0,9.27L109,207.6s0-1.53,0-2.26c0-21,.74-44.83.74-44.83s1.71-25,4-23.84S117.72,141.21,117.72,141.21Z" class="cls-3"/><path data-cppathid="10005" transform="translate(-4.86)" d="M132.16,200.09s.19,2.89.25,4.35c1.1,28.19-6.76,58.62-6.76,58.62s6.51,2.17,7.6,4.35-15.2,1.08-15.2,1.08,3.26-39.08,2.18-47.77-8.69,45.6-10.86,48.86-10.32,6.51-10.32,6.51,1.63-6.51,3.26-9.22,5.75-40.91,6-61.35v-1.63Z"/><path data-cppathid="10006" transform="translate(-4.86)" d="M117,142.55s12.92,26.26,15.1,55.57c.13,1.79.28,5.42.28,5.42l-23.71,2.52s0-1.46,0-2.17c0-20.08.71-42.88.71-42.88s1.63-23.88,3.8-22.8S117,142.55,117,142.55Z" class="cls-4"/><path data-cppathid="10007" transform="translate(-4.86)" d="M125,196.54l-17.09,11.61s0-1.56,0-2.31c0-21.31.66-45.51.66-45.51s.81-13.41,2-20.28C118.21,140.92,125,196.54,125,196.54Z" class="cls-3"/><path data-cppathid="10008" transform="translate(-4.86)" d="M125.77,132.35s0,0,.54-1.29c.07-.16,4.45-13.12,4.45-13.12s-4.5,1.86-15.38,4c-7.67,1.53-15.32-11.45-10.92-9.6,11.52,4.86,28.27-2.47,28.27-2.47s.15.55.19.36c1.77-8.88,2.19-18.74-1.69-26.11C122.14,66.88,94,51.42,85.76,70.52s.91,31.82,7.28,43.64S111.5,141.37,117,142.05C121.83,142.66,125.77,132.35,125.77,132.35Z" class="cls-2"/><path data-cppathid="10009" transform="translate(-4.86)" d="M89.05,65.94s12.59,2.66,15.62,6.3,2.61,4.44,2.65,4.61c1.6-4.08-1.3-6.06-1.3-6.06,8.74,1.45,12,1.35,21.66-1.3-6.73.76-9.47-.09-9.47-.09s6.34-.85,8.71-5.49a38.38,38.38,0,0,1-10.32,2l11.08-4.22a55.82,55.82,0,0,1-16.9-.69,36.64,36.64,0,0,0-17.49.66C90.87,62.3,89.05,65.94,89.05,65.94Z" class="cls-5"/><path data-cppathid="10010" transform="translate(-4.86)" d="M89.05,65.94s1.82,10.3,1.82,13.33S83,90.18,83,90.18,78.74,80.48,80.56,75,89.05,65.94,89.05,65.94Z" class="cls-5"/><polygon data-cppathid="10011" points="112.66 144.93 114.59 144.07 115.18 150.42 112.66 144.93" class="cls-6"/><polygon data-cppathid="10012" points="115.18 150.42 121.9 169.88 121.81 179.82 116.52 170.94 115.18 150.42" class="cls-6"/><path data-cppathid="10013" transform="translate(-4.86)" d="M93.36,89.43c2.28,7.2,3.79,9.85,3.79,9.85l20.45-3.79-.76-10.6,5.68,9.47,13.64-2.27L134.65,80" class="cls-7"/><path data-cppathid="10014" transform="translate(-4.86)" d="M134.65,80.91s-33.08-.34-52.9,16.6c0,0,.12,2,.12,3.11,0,.9,1-2,1.77-3,5.18-6.92,29.42-16.49,51-15.8C134.9,81,134.65,80.91,134.65,80.91Z" class="cls-8"/><path data-cppathid="10015" transform="translate(-4.86)" d="M113.81,91.75c0,2-1,3.63-2.14,3.63s-2.13-1.63-2.13-3.63,1-3.63,2.13-3.63S113.81,89.74,113.81,91.75Z" class="cls-9"/><path data-cppathid="10016" transform="translate(-4.86)" d="M111,90A1.07,1.07,0,1,1,110,89,1.07,1.07,0,0,1,111,90Z" class="cls-10"/><path data-cppathid="10017" transform="translate(-4.86)" d="M123.9,89.62c0,1.66-.79,3-1.76,3s-1.76-1.33-1.76-3,.79-3,1.76-3S123.9,88,123.9,89.62Z" class="cls-9"/><path data-cppathid="10018" transform="translate(-4.86)" d="M122,88.34a1.07,1.07,0,1,1-1.07-1.07A1.07,1.07,0,0,1,122,88.34Z" class="cls-10"/><path data-cppathid="10019" transform="translate(-4.86)" d="M103.72,150.22c1.2,2.72,3.81,4.2,5.83,3.31h0c2-.89,2.68-3.81,1.48-6.53L79,74.31,70.1,78.23Z"/><g data-name="backlog refinement jp" id="backlog_refinement_jp"><path data-cppathid="10020" transform="translate(-4.86)" d="M204.12,41.1a6.5,6.5,0,0,1-5.38,7.45L18.13,77.66a6.49,6.49,0,0,1-7.44-5.38L4.94,36.64a6.5,6.5,0,0,1,5.38-7.45L190.92.08a6.5,6.5,0,0,1,7.45,5.38Z" class="cls-11"/><path data-cppathid="10021" transform="translate(-4.86)" d="M71.3,39.82A4.47,4.47,0,0,0,70,38.9q1-1.74,1.41-2.64a12.52,12.52,0,0,0,1-2.81A29.27,29.27,0,0,0,73,29.16l1.76.29a33.58,33.58,0,0,1-1.31,6A18.22,18.22,0,0,1,71.3,39.82Zm5.46-10.88,1.18-1a49.86,49.86,0,0,1,3.53,4.24A18.52,18.52,0,0,1,83,34.46l1.1,2.1-1.5.94c-.53-1.23-1-2.2-1.42-2.94a19,19,0,0,0-1.47-2c-.16-.23-.56-.74-1.2-1.55S77.27,29.49,76.76,28.94Zm4.87-.47-.63.86-2-1.39.62-.86a8.42,8.42,0,0,1,1,.6A6.84,6.84,0,0,1,81.63,28.47Zm-1.41-2,.61-.92a19.56,19.56,0,0,1,2,1.26l-.61.92A19.56,19.56,0,0,0,80.22,26.42Z" class="cls-10"/><path data-cppathid="10022" transform="translate(-4.86)" d="M84.52,30.35l1.08-.81c.27.38.58.78.92,1.21s.71.91,1.09,1.44L86.47,33A19.68,19.68,0,0,0,84.52,30.35Zm3.71,8.45a3.56,3.56,0,0,0-.94-1.11,14.08,14.08,0,0,0,3.2-2.17,8,8,0,0,0,1.78-2.69,20.93,20.93,0,0,0,1-5l1.5.27a29.34,29.34,0,0,1-1,4.72,9.47,9.47,0,0,1-1.68,2.93A11.82,11.82,0,0,1,88.23,38.8Zm-.71-9.89,1.15-.75c.77,1.14,1.36,2.06,1.77,2.75l-1.08.75A27,27,0,0,0,87.52,28.91Z" class="cls-10"/><path data-cppathid="10023" transform="translate(-4.86)" d="M102.23,22.74l-.73,2.15,4.62-.75.23-.16,1.16.89c-.6,2.33-1,3.72-1.17,4.17A9.82,9.82,0,0,1,105,31.61a11.57,11.57,0,0,1-2.26,2.45,20.58,20.58,0,0,1-3.45,2.14,4,4,0,0,0-1.16-1.27,23.16,23.16,0,0,0,3.09-1.7,8.88,8.88,0,0,0,2.13-2,12.09,12.09,0,0,0,1.43-2.51,23.63,23.63,0,0,0,.83-3.11l-4.56.73a20,20,0,0,1-1.4,2.7,15.56,15.56,0,0,1-1.77,2.37c-.25-.21-.42-.35-.52-.42a2.94,2.94,0,0,0-.83-.44,12.72,12.72,0,0,0,1.43-1.75c.27-.42.63-1.05,1.09-1.88a20.61,20.61,0,0,0,.89-2.36,16.84,16.84,0,0,0,.54-2.11Z" class="cls-10"/><path data-cppathid="10024" transform="translate(-4.86)" d="M111,33.36l-1.72-10.67L119.73,21l1.71,10.55-1.67.27-.16-1L112.45,32l.18,1.12Zm8.41-3.95-1.08-6.72-7.16,1.15,1.08,6.73Z" class="cls-10"/><path data-cppathid="10025" transform="translate(-4.86)" d="M127.74,20.78l4.57-.73.23-.1,1.14.76a24.78,24.78,0,0,1-1.19,4.37A12.49,12.49,0,0,1,131,27.86a14.37,14.37,0,0,1-2.34,2.34,13.2,13.2,0,0,1-3.17,2,6.27,6.27,0,0,1-.35-.58l-.8-.69a18.35,18.35,0,0,0,3-1.63,8.75,8.75,0,0,0,2.14-2.05A11.28,11.28,0,0,0,131,24.76c.3-1,.59-2.08.86-3.31l-4.57.74a20.9,20.9,0,0,1-3.1,5.12,1.81,1.81,0,0,0-.64-.47c-.41-.18-.71-.3-.89-.36a16.46,16.46,0,0,0,2.44-3.37,24.83,24.83,0,0,0,1.58-4.68l1.71.35q0,.13-.09.24a2.79,2.79,0,0,0-.13.37c-.06.18-.11.36-.16.56S127.85,20.43,127.74,20.78Zm4.18-1.94.62-.86c1,.61,1.65,1,2,1.27l-.62.86C133.56,19.87,132.91,19.45,131.92,18.84Zm3.85-1.25-.73.94c-1-.76-1.7-1.2-1.93-1.33l.56-.85A22.29,22.29,0,0,1,135.77,17.59Z" class="cls-10"/><path data-cppathid="10026" transform="translate(-4.86)" d="M58.12,57.81,56.87,50l1.66-.27,1.26,7.77ZM61,62.48a6.72,6.72,0,0,0-1-1.35,13.27,13.27,0,0,0,2.39-1.27,3.91,3.91,0,0,0,1.3-1.35,3.68,3.68,0,0,0,.69-1.63,16,16,0,0,0-.25-3.51l-.81-5.06,1.6-.25.89,5.49a9.26,9.26,0,0,1-.36,5.25Q64.42,60.78,61,62.48Z" class="cls-10"/><path data-cppathid="10027" transform="translate(-4.86)" d="M67.33,49l10.25-1.65.17-.09L79,48c-.4,2-.69,3.32-.87,4.06A12.78,12.78,0,0,1,76.78,55a14,14,0,0,1-2.21,2.77,17.12,17.12,0,0,1-3.82,2.64,3.55,3.55,0,0,0-.37-.77,5.66,5.66,0,0,0-.55-.67,14.59,14.59,0,0,0,3.1-2,12.16,12.16,0,0,0,2.72-3.16,17.15,17.15,0,0,0,1.49-4.93l-9.57,1.54Z" class="cls-10"/><path data-cppathid="10028" transform="translate(-4.86)" d="M80.88,50.54l-.21-1.3,9-1.44,1,.91-1.83,2.38c-.36.44-.89,1-1.61,1.78l-.53-.48a12.25,12.25,0,0,1,0,2.9,5.68,5.68,0,0,1-.95,2,7.48,7.48,0,0,1-2.3,1.83,3.24,3.24,0,0,0-.21-.35,2.46,2.46,0,0,1-.22-.34,5.48,5.48,0,0,1-.58-.48,6.57,6.57,0,0,0,1.85-1.12,3.33,3.33,0,0,0,.73-.94,3.14,3.14,0,0,0,.3-1.25,6,6,0,0,0-.08-1.7L85,51.39l1.48-.24.1.62c.11-.14.75-1,2-2.47Z" class="cls-10"/><path data-cppathid="10029" transform="translate(-4.86)" d="M101,45.64,99.94,47l1.41,8.76-1.67.27-1.2-7.47A24.17,24.17,0,0,1,95.9,51c-1.12.9-2,1.54-2.6,1.94a5.25,5.25,0,0,0-1-1.36A23.23,23.23,0,0,0,95.82,49a22.48,22.48,0,0,0,2.92-3.07,28.93,28.93,0,0,0,2.71-4l1.55,1Z" class="cls-10"/><path data-cppathid="10030" transform="translate(-4.86)" d="M109.79,44.1l-.91,1.48c-1-.68-1.74-1.11-2.11-1.31a2.89,2.89,0,0,0-.48-.27l-.76-.35c-.27-.12-.5-.24-.68-.33l.78-1.4a13.44,13.44,0,0,1,1.33.55l.79.38C108.67,43.38,109.35,43.79,109.79,44.1Zm6.4-1.09a4.06,4.06,0,0,0,.6.54,2.61,2.61,0,0,0,.76.44A32,32,0,0,1,115,48a28.61,28.61,0,0,1-3.08,3.29,42.67,42.67,0,0,1-4.4,3.3L106.34,53a17.68,17.68,0,0,0,2.88-1.73A25.81,25.81,0,0,0,112,48.94,23.09,23.09,0,0,0,116.19,43Z" class="cls-10"/><path data-cppathid="10031" transform="translate(-4.86)" d="M127.22,43.89A38.31,38.31,0,0,1,131,45.82l-1,1.56L128,46.1l-1.32-.73A18.39,18.39,0,0,1,125.23,48a10.86,10.86,0,0,1-1.58,2c-.33.35-1.18,1.1-2.56,2.25A7.3,7.3,0,0,0,119.83,51a18.09,18.09,0,0,0,2.31-1.76,12.22,12.22,0,0,0,1.71-1.93,12.84,12.84,0,0,0,1.42-2.63,29.41,29.41,0,0,0-4.12-1.17l.53-1.42,4.12,1.18a19.63,19.63,0,0,0,.54-2.12c.19-.92.35-1.89.48-2.92l1.76.28A43.92,43.92,0,0,1,127.22,43.89Z" class="cls-10"/><path data-cppathid="10032" transform="translate(-4.86)" d="M136.44,39.81l-.9,1.47c-1-.67-1.74-1.11-2.11-1.3a3.65,3.65,0,0,0-.49-.27l-.75-.36L131.5,39l.79-1.39a12,12,0,0,1,1.32.54l.79.38Q135.8,39.35,136.44,39.81Zm6.41-1.1a2.83,2.83,0,0,0,.59.54,2.93,2.93,0,0,0,.77.45,35,35,0,0,1-2.59,4,29.48,29.48,0,0,1-3.08,3.28,42.87,42.87,0,0,1-4.41,3.3L133,48.66a18.94,18.94,0,0,0,2.89-1.73,26.91,26.91,0,0,0,2.73-2.28A22.72,22.72,0,0,0,140.85,42,24.16,24.16,0,0,0,142.85,38.71Z" class="cls-10"/><path data-cppathid="10033" transform="translate(-4.86)" d="M147.46,48.48l-2.21-13.7L147,34.5l.71,4.38c1.95.36,3.22.62,3.79.78s1.62.5,3.41,1.1l-.68,1.69c-1-.46-2.12-.88-3.24-1.25a23.1,23.1,0,0,0-3-.65l1.23,7.65Z" class="cls-10"/></g></g></g></svg>