<?xml version="1.0" encoding="UTF-8"?>
<svg xmlns="http://www.w3.org/2000/svg" onmouseup="{ if(window.parent.document.onmouseup) window.parent.document.onmouseup(arguments[0]);}" viewBox="0 0 759.16 229.77" xmlns:xlink="http://www.w3.org/1999/xlink"><defs><style>.cls-1,.cls-12,.cls-14,.cls-17,.cls-18,.cls-19,.cls-2,.cls-3,.cls-4,.cls-8{fill:none;}.cls-2{stroke:#53c90e;}.cls-10,.cls-12,.cls-13,.cls-14,.cls-15,.cls-16,.cls-19,.cls-2,.cls-3,.cls-4,.cls-8,.cls-9{stroke-miterlimit:10;}.cls-19,.cls-2,.cls-3{stroke-width:9px;}.cls-3{stroke:#ffbd03;}.cls-4,.cls-8{stroke:#848484;}.cls-10,.cls-12,.cls-13,.cls-14,.cls-15,.cls-16,.cls-4,.cls-9{stroke-width:3px;}.cls-5{fill:#848484;}.cls-20,.cls-6,.cls-7{font-size:26.82px;font-family:FranklinGothicCondensed, Franklin Gothic;}.cls-6{fill:#ffbd03;}.cls-7{fill:#53c90e;}.cls-8{stroke-width:2px;}.cls-15,.cls-16,.cls-9{fill:#c1ad76;}.cls-9{stroke:#c18500;}.cls-10{fill:#fff;}.cls-10,.cls-14{stroke:#595958;}.cls-11{clip-path:url(#clip-path);}.cls-12{stroke:#13d313;}.cls-13{fill:#c18500;stroke:#595959;}.cls-15,.cls-18{stroke:#e80505;}.cls-16{stroke:#020202;}.cls-17{stroke:#231f20;}.cls-17,.cls-18{stroke-linecap:round;stroke-linejoin:round;stroke-width:6px;}.cls-19{stroke:#15cece;}.cls-20{fill:#15cece;}.cls-21{clip-path:url(#clip-path-2);}</style><clipPath id="clip-path"><rect data-cppathid="10000" rx="4.02" height="44.74" width="75.18" y="23.64" x="669.68" class="cls-1"/></clipPath><clipPath id="clip-path-2"><rect data-cppathid="10001" rx="4.02" height="44.74" width="75.18" y="25.23" x="14.3" class="cls-1"/></clipPath></defs><g data-name="Layer 2" id="Layer_2"><g data-name="Layer 11 copy" id="Layer_11_copy"><rect data-cppathid="10002" rx="4.47" height="132.92" width="397.68" y="19.72" x="170.31" class="cls-2"/><rect data-cppathid="10003" rx="4.47" height="78.39" width="133.68" y="74.38" x="387.35" class="cls-3"/><line data-cppathid="10004" y2="152.48" x2="126.77" y1="152.48" x1="149.4" class="cls-4"/><polygon data-cppathid="10005" points="149.4 148.13 156.05 152.5 149.4 156.84 149.4 148.13" class="cls-5"/><text data-cppathid="10006" transform="translate(395.05 100.86)" class="cls-6">n=2</text><text data-cppathid="10007" transform="translate(177.28 45.99)" class="cls-7">n=3</text><path data-cppathid="10008" d="M170.17,131.72V23.43a3.71,3.71,0,0,1,3.71-3.71h181" class="cls-4"/><path data-cppathid="10009" d="M398,19.86h166.2a3.71,3.71,0,0,1,3.71,3.71V154.86" class="cls-4"/><path data-cppathid="10010" d="M605,174.75v33.39a3.71,3.71,0,0,1-3.71,3.71H513" class="cls-4"/><path data-cppathid="10011" d="M441,211.11H354.18a3.71,3.71,0,0,1-3.71-3.71V156.2" class="cls-4"/><line data-cppathid="10012" y2="152.48" x2="180.19" y1="152.48" x1="206.28" class="cls-4"/><line data-cppathid="10013" y2="152.48" x2="230.83" y1="152.48" x1="253.46" class="cls-4"/><line data-cppathid="10014" y2="152.48" x2="313.7" y1="152.48" x1="369.02" class="cls-4"/><line data-cppathid="10015" y2="152.62" x2="399.1" y1="152.62" x1="415.5" class="cls-4"/><line data-cppathid="10016" y2="152.48" x2="484.3" y1="152.48" x1="584.32" class="cls-4"/><line data-cppathid="10017" y2="152.48" x2="616.64" y1="152.48" x1="634.77" class="cls-4"/><path data-cppathid="10018" d="M309.66,74.62h37.1a3.71,3.71,0,0,1,3.71,3.71v71.2" class="cls-4"/><path data-cppathid="10019" d="M217.29,132.09V78A3.71,3.71,0,0,1,221,74.25h46" class="cls-4"/><path data-cppathid="10020" d="M480.31,74.81h37.1a3.71,3.71,0,0,1,3.71,3.71v71.19" class="cls-4"/><path data-cppathid="10021" d="M387.94,132.28V78.15a3.71,3.71,0,0,1,3.71-3.71h46" class="cls-4"/><polygon data-cppathid="10022" points="174.53 130.61 170.16 137.26 165.82 130.61 174.53 130.61" class="cls-5"/><polygon data-cppathid="10023" points="221.65 130.61 217.27 137.26 212.93 130.61 221.65 130.61" class="cls-5"/><polygon data-cppathid="10024" points="392.29 128.95 387.92 135.6 383.58 128.95 392.29 128.95" class="cls-5"/><polygon data-cppathid="10025" points="399.09 24.13 392.44 19.76 399.09 15.42 399.09 24.13" class="cls-5"/><polygon data-cppathid="10026" points="309.66 78.79 303.01 74.42 309.66 70.08 309.66 78.79" class="cls-5"/><polygon data-cppathid="10027" points="297.77 92.21 264.2 74.16 297.77 56.29 297.77 92.21" class="cls-4"/><polygon data-cppathid="10028" points="468.87 92.77 435.31 74.72 468.87 56.85 468.87 92.77" class="cls-4"/><polygon data-cppathid="10029" points="389.13 38.42 355.56 20.37 389.13 2.5 389.13 38.42" class="cls-4"/><polygon data-cppathid="10030" points="480.31 79.16 473.66 74.79 480.31 70.45 480.31 79.16" class="cls-5"/><polygon data-cppathid="10031" points="600.6 175.08 604.97 168.43 609.31 175.08 600.6 175.08" class="cls-5"/><polygon data-cppathid="10032" points="632.5 148.13 639.16 152.5 632.5 156.84 632.5 148.13" class="cls-5"/><polygon data-cppathid="10033" points="584.32 148.13 590.97 152.5 584.32 156.84 584.32 148.13" class="cls-5"/><polygon data-cppathid="10034" points="412.79 148.13 419.44 152.5 412.79 156.84 412.79 148.13" class="cls-5"/><polygon data-cppathid="10035" points="440.99 206.75 447.64 211.12 440.99 215.47 440.99 206.75" class="cls-5"/><polygon data-cppathid="10036" points="365.69 148.13 372.34 152.5 365.69 156.84 365.69 148.13" class="cls-5"/><polygon data-cppathid="10037" points="242.14 148.13 248.8 152.5 242.14 156.84 242.14 148.13" class="cls-5"/><polygon data-cppathid="10038" points="196.7 148.13 203.35 152.5 196.7 156.84 196.7 148.13" class="cls-5"/><path data-cppathid="10039" d="M354.67,152.64a3.71,3.71,0,1,1-3.71-3.71A3.71,3.71,0,0,1,354.67,152.64Z" class="cls-5"/><path data-cppathid="10040" d="M524.83,152.64a3.71,3.71,0,1,1-3.71-3.71A3.71,3.71,0,0,1,524.83,152.64Z" class="cls-5"/><path data-cppathid="10041" d="M571.57,152.64a3.71,3.71,0,1,1-3.71-3.71A3.71,3.71,0,0,1,571.57,152.64Z" class="cls-5"/><path data-cppathid="10042" d="M180.19,152.18a10.95,10.95,0,1,1-10.94-10.94A10.94,10.94,0,0,1,180.19,152.18Z" class="cls-4"/><path data-cppathid="10043" d="M228.23,152.18a10.94,10.94,0,1,1-10.94-10.94A10.94,10.94,0,0,1,228.23,152.18Z" class="cls-4"/><path data-cppathid="10044" d="M398.88,152.18a10.94,10.94,0,1,1-10.94-10.94A10.94,10.94,0,0,1,398.88,152.18Z" class="cls-4"/><circle data-cppathid="10045" transform="translate(127.02 553.3) rotate(-54.07)" r="10.94" cy="152.18" cx="605.7" class="cls-4"/><line data-cppathid="10046" y2="157.58" x2="169.25" y1="147.55" x1="169.25" class="cls-4"/><line data-cppathid="10047" y2="152.18" x2="174.35" y1="152.18" x1="164.32" class="cls-8"/><line data-cppathid="10048" y2="157.58" x2="217.29" y1="147.55" x1="217.29" class="cls-8"/><line data-cppathid="10049" y2="152.18" x2="222.39" y1="152.18" x1="212.36" class="cls-4"/><line data-cppathid="10050" y2="157.58" x2="387.94" y1="147.55" x1="387.94" class="cls-8"/><line data-cppathid="10051" y2="152.18" x2="393.04" y1="152.18" x1="383.01" class="cls-4"/><line data-cppathid="10052" y2="157.58" x2="605.7" y1="147.55" x1="605.7" class="cls-4"/><line data-cppathid="10053" y2="152.18" x2="610.81" y1="152.18" x1="600.78" class="cls-8"/><rect data-cppathid="10054" rx="3.71" height="32.84" width="60.25" y="135.6" x="253.46" class="cls-4"/><rect data-cppathid="10055" rx="3.71" height="32.84" width="60.24" y="135.6" x="424.06" class="cls-4"/><rect data-cppathid="10056" rx="3.71" height="32.84" width="60.25" y="195.43" x="450.19" class="cls-4"/></g><g data-name="Layer 11 copy 2" id="Layer_11_copy_2"><rect data-cppathid="10057" rx="4.47" height="132.92" width="397.68" y="19.72" x="170.31" class="cls-2"/><rect data-cppathid="10058" rx="4.47" height="78.39" width="133.68" y="74.38" x="387.35" class="cls-3"/><line data-cppathid="10059" y2="152.48" x2="126.77" y1="152.48" x1="149.4" class="cls-4"/><polygon data-cppathid="10060" points="149.4 148.13 156.05 152.5 149.4 156.84 149.4 148.13" class="cls-5"/><text data-cppathid="10061" transform="translate(395.05 100.86)" class="cls-6">n=2</text><text data-cppathid="10062" transform="translate(177.28 45.99)" class="cls-7">n=3</text><rect data-cppathid="10063" rx="4.16" height="143.76" width="100.79" y="14.9" x="656.88" class="cls-9"/><rect data-cppathid="10064" rx="4.16" height="46.26" width="77.72" y="22.88" x="668.57" class="cls-10"/><g class="cls-11"><path data-cppathid="10065" d="M664.06,45.62s14.53,6.58,18.38-4,7.73-6.92,9.12,3c2.09,15,4.75,18.81,9.44,2.62s5.93-7.78,7.57,2.17,7.78,5.75,12-3.81c3.3-7.42,7.46-12,8.23,10.39s4.85-3.18,5.67-8.75,2,2.43,7.11,2.51,16.33,0,16.33,0" class="cls-12"/></g><path data-cppathid="10066" d="M731.3,98.19a23.06,23.06,0,1,1-23.06-23A23.05,23.05,0,0,1,731.3,98.19Z" class="cls-13"/><line data-cppathid="10067" y2="98.19" x2="708.24" y1="86.64" x1="688.29" class="cls-14"/><path data-cppathid="10068" d="M734.48,143.35a6.54,6.54,0,1,0,6.54-6.53A6.54,6.54,0,0,0,734.48,143.35Z" class="cls-15"/><path data-cppathid="10069" d="M668.82,143.13a6.54,6.54,0,1,0,6.53-6.54A6.53,6.53,0,0,0,668.82,143.13Z" class="cls-16"/><path data-cppathid="10070" d="M675.45,144c0,45.12-90.22,52.06-106.74,8.23" class="cls-17"/><path data-cppathid="10071" d="M740.65,144c-6,96.34-199.39,119.21-220,8.23" class="cls-18"/><path data-cppathid="10072" d="M170.17,131.72V23.43a3.71,3.71,0,0,1,3.71-3.71h181" class="cls-4"/><path data-cppathid="10073" d="M398,19.86h166.2a3.71,3.71,0,0,1,3.71,3.71V154.86" class="cls-4"/><path data-cppathid="10074" d="M605,174.75v33.39a3.71,3.71,0,0,1-3.71,3.71H513" class="cls-4"/><path data-cppathid="10075" d="M441,211.11H354.18a3.71,3.71,0,0,1-3.71-3.71V156.2" class="cls-4"/><line data-cppathid="10076" y2="152.48" x2="180.19" y1="152.48" x1="206.28" class="cls-4"/><line data-cppathid="10077" y2="152.48" x2="230.83" y1="152.48" x1="253.46" class="cls-4"/><line data-cppathid="10078" y2="152.48" x2="313.7" y1="152.48" x1="369.02" class="cls-4"/><line data-cppathid="10079" y2="152.62" x2="399.1" y1="152.62" x1="415.5" class="cls-4"/><line data-cppathid="10080" y2="152.48" x2="484.3" y1="152.48" x1="584.32" class="cls-4"/><line data-cppathid="10081" y2="152.48" x2="616.64" y1="152.48" x1="634.77" class="cls-4"/><path data-cppathid="10082" d="M309.66,74.62h37.1a3.71,3.71,0,0,1,3.71,3.71v71.2" class="cls-4"/><path data-cppathid="10083" d="M217.29,132.09V78A3.71,3.71,0,0,1,221,74.25h46" class="cls-4"/><path data-cppathid="10084" d="M480.31,74.81h37.1a3.71,3.71,0,0,1,3.71,3.71v71.19" class="cls-4"/><path data-cppathid="10085" d="M387.94,132.28V78.15a3.71,3.71,0,0,1,3.71-3.71h46" class="cls-4"/><polygon data-cppathid="10086" points="174.53 130.61 170.16 137.26 165.82 130.61 174.53 130.61" class="cls-5"/><polygon data-cppathid="10087" points="221.65 130.61 217.27 137.26 212.93 130.61 221.65 130.61" class="cls-5"/><polygon data-cppathid="10088" points="392.29 128.95 387.92 135.6 383.58 128.95 392.29 128.95" class="cls-5"/><polygon data-cppathid="10089" points="399.09 24.13 392.44 19.76 399.09 15.42 399.09 24.13" class="cls-5"/><polygon data-cppathid="10090" points="309.66 78.79 303.01 74.42 309.66 70.08 309.66 78.79" class="cls-5"/><polygon data-cppathid="10091" points="297.77 92.21 264.2 74.16 297.77 56.29 297.77 92.21" class="cls-4"/><polygon data-cppathid="10092" points="468.87 92.77 435.31 74.72 468.87 56.85 468.87 92.77" class="cls-4"/><polygon data-cppathid="10093" points="389.13 38.42 355.56 20.37 389.13 2.5 389.13 38.42" class="cls-4"/><polygon data-cppathid="10094" points="480.31 79.16 473.66 74.79 480.31 70.45 480.31 79.16" class="cls-5"/><polygon data-cppathid="10095" points="600.6 175.08 604.97 168.43 609.31 175.08 600.6 175.08" class="cls-5"/><polygon data-cppathid="10096" points="632.5 148.13 639.16 152.5 632.5 156.84 632.5 148.13" class="cls-5"/><polygon data-cppathid="10097" points="584.32 148.13 590.97 152.5 584.32 156.84 584.32 148.13" class="cls-5"/><polygon data-cppathid="10098" points="412.79 148.13 419.44 152.5 412.79 156.84 412.79 148.13" class="cls-5"/><polygon data-cppathid="10099" points="440.99 206.75 447.64 211.12 440.99 215.47 440.99 206.75" class="cls-5"/><polygon data-cppathid="10100" points="365.69 148.13 372.34 152.5 365.69 156.84 365.69 148.13" class="cls-5"/><polygon data-cppathid="10101" points="242.14 148.13 248.8 152.5 242.14 156.84 242.14 148.13" class="cls-5"/><polygon data-cppathid="10102" points="196.7 148.13 203.35 152.5 196.7 156.84 196.7 148.13" class="cls-5"/><path data-cppathid="10103" d="M354.67,152.64a3.71,3.71,0,1,1-3.71-3.71A3.71,3.71,0,0,1,354.67,152.64Z" class="cls-5"/><path data-cppathid="10104" d="M524.83,152.64a3.71,3.71,0,1,1-3.71-3.71A3.71,3.71,0,0,1,524.83,152.64Z" class="cls-5"/><path data-cppathid="10105" d="M571.57,152.64a3.71,3.71,0,1,1-3.71-3.71A3.71,3.71,0,0,1,571.57,152.64Z" class="cls-5"/><path data-cppathid="10106" d="M180.19,152.18a10.95,10.95,0,1,1-10.94-10.94A10.94,10.94,0,0,1,180.19,152.18Z" class="cls-4"/><path data-cppathid="10107" d="M228.23,152.18a10.94,10.94,0,1,1-10.94-10.94A10.94,10.94,0,0,1,228.23,152.18Z" class="cls-4"/><path data-cppathid="10108" d="M398.88,152.18a10.94,10.94,0,1,1-10.94-10.94A10.94,10.94,0,0,1,398.88,152.18Z" class="cls-4"/><circle data-cppathid="10109" transform="translate(127.02 553.3) rotate(-54.07)" r="10.94" cy="152.18" cx="605.7" class="cls-4"/><line data-cppathid="10110" y2="157.58" x2="169.25" y1="147.55" x1="169.25" class="cls-4"/><line data-cppathid="10111" y2="152.18" x2="174.35" y1="152.18" x1="164.32" class="cls-8"/><line data-cppathid="10112" y2="157.58" x2="217.29" y1="147.55" x1="217.29" class="cls-8"/><line data-cppathid="10113" y2="152.18" x2="222.39" y1="152.18" x1="212.36" class="cls-4"/><line data-cppathid="10114" y2="157.58" x2="387.94" y1="147.55" x1="387.94" class="cls-8"/><line data-cppathid="10115" y2="152.18" x2="393.04" y1="152.18" x1="383.01" class="cls-4"/><line data-cppathid="10116" y2="157.58" x2="605.7" y1="147.55" x1="605.7" class="cls-4"/><line data-cppathid="10117" y2="152.18" x2="610.81" y1="152.18" x1="600.78" class="cls-8"/><rect data-cppathid="10118" rx="3.71" height="32.84" width="60.25" y="135.6" x="253.46" class="cls-4"/><rect data-cppathid="10119" rx="3.71" height="32.84" width="60.24" y="135.6" x="424.06" class="cls-4"/><rect data-cppathid="10120" rx="3.71" height="32.84" width="60.25" y="195.43" x="450.19" class="cls-4"/></g><g data-name="Layer 11 copy 3" id="Layer_11_copy_3"><rect data-cppathid="10121" rx="4.47" height="132.92" width="397.68" y="19.72" x="170.31" class="cls-2"/><rect data-cppathid="10122" rx="4.47" height="78.39" width="133.68" y="74.38" x="217.29" class="cls-19"/><rect data-cppathid="10123" rx="4.47" height="78.39" width="133.68" y="74.38" x="387.35" class="cls-3"/><line data-cppathid="10124" y2="152.48" x2="126.77" y1="152.48" x1="149.4" class="cls-4"/><polygon data-cppathid="10125" points="149.4 148.13 156.05 152.5 149.4 156.84 149.4 148.13" class="cls-5"/><text data-cppathid="10126" transform="translate(395.05 100.86)" class="cls-6">n=2</text><text data-cppathid="10127" transform="translate(224.45 100.86)" class="cls-20">n=1</text><text data-cppathid="10128" transform="translate(177.28 45.99)" class="cls-7">n=3</text><rect data-cppathid="10129" rx="4.16" height="143.76" width="100.79" y="16.5" x="1.5" class="cls-9"/><rect data-cppathid="10130" rx="4.16" height="46.26" width="77.72" y="24.47" x="13.19" class="cls-10"/><g class="cls-21"><path data-cppathid="10131" d="M7.07,45.75s14.78,6.7,18.7-4,7.86-7,9.27,3.06C37.17,60,39.87,63.9,44.65,47.42s6-7.91,7.69,2.21,7.92,5.85,12.25-3.88C68,38.21,72.18,33.5,73,56.33s4.93-3.24,5.77-8.91,2,2.47,7.23,2.56,16.61,0,16.61,0" class="cls-12"/></g><path data-cppathid="10132" d="M75.92,99.79A23.06,23.06,0,1,1,52.87,76.73,23.06,23.06,0,0,1,75.92,99.79Z" class="cls-13"/><line data-cppathid="10133" y2="99.79" x2="52.87" y1="88.24" x1="32.91" class="cls-14"/><rect data-cppathid="10134" rx="4.16" height="143.76" width="100.79" y="14.9" x="656.88" class="cls-9"/><rect data-cppathid="10135" rx="4.16" height="46.26" width="77.72" y="22.88" x="668.57" class="cls-10"/><g class="cls-11"><path data-cppathid="10136" d="M664.06,45.62s14.53,6.58,18.38-4,7.73-6.92,9.12,3c2.09,15,4.75,18.81,9.44,2.62s5.93-7.78,7.57,2.17,7.78,5.75,12-3.81c3.3-7.42,7.46-12,8.23,10.39s4.85-3.18,5.67-8.75,2,2.43,7.11,2.51,16.33,0,16.33,0" class="cls-12"/></g><path data-cppathid="10137" d="M731.3,98.19a23.06,23.06,0,1,1-23.06-23A23.05,23.05,0,0,1,731.3,98.19Z" class="cls-13"/><line data-cppathid="10138" y2="98.19" x2="708.24" y1="86.64" x1="688.29" class="cls-14"/><path data-cppathid="10139" d="M26.36,143.77a6.54,6.54,0,1,1-6.54-6.53A6.54,6.54,0,0,1,26.36,143.77Z" class="cls-15"/><path data-cppathid="10140" d="M92,143.55A6.54,6.54,0,1,1,85.48,137,6.54,6.54,0,0,1,92,143.55Z" class="cls-16"/><path data-cppathid="10141" d="M734.48,143.35a6.54,6.54,0,1,0,6.54-6.53A6.54,6.54,0,0,0,734.48,143.35Z" class="cls-15"/><path data-cppathid="10142" d="M668.82,143.13a6.54,6.54,0,1,0,6.53-6.54A6.53,6.53,0,0,0,668.82,143.13Z" class="cls-16"/><path data-cppathid="10143" d="M85.5,144c0,45.12,67.23,52.06,83.75,8.23" class="cls-17"/><path data-cppathid="10144" d="M20.3,144c6.06,96.34,176.4,119.21,197,8.23" class="cls-18"/><path data-cppathid="10145" d="M675.45,144c0,45.12-90.22,52.06-106.74,8.23" class="cls-17"/><path data-cppathid="10146" d="M740.65,144c-6,96.34-199.39,119.21-220,8.23" class="cls-18"/><path data-cppathid="10147" d="M170.17,131.72V23.43a3.71,3.71,0,0,1,3.71-3.71h181" class="cls-4"/><path data-cppathid="10148" d="M398,19.86h166.2a3.71,3.71,0,0,1,3.71,3.71V154.86" class="cls-4"/><path data-cppathid="10149" d="M605,174.75v33.39a3.71,3.71,0,0,1-3.71,3.71H513" class="cls-4"/><path data-cppathid="10150" d="M441,211.11H354.18a3.71,3.71,0,0,1-3.71-3.71V156.2" class="cls-4"/><line data-cppathid="10151" y2="152.48" x2="180.19" y1="152.48" x1="206.28" class="cls-4"/><line data-cppathid="10152" y2="152.48" x2="230.83" y1="152.48" x1="253.46" class="cls-4"/><line data-cppathid="10153" y2="152.48" x2="313.7" y1="152.48" x1="369.02" class="cls-4"/><line data-cppathid="10154" y2="152.62" x2="399.1" y1="152.62" x1="415.5" class="cls-4"/><line data-cppathid="10155" y2="152.48" x2="484.3" y1="152.48" x1="584.32" class="cls-4"/><line data-cppathid="10156" y2="152.48" x2="616.64" y1="152.48" x1="634.77" class="cls-4"/><path data-cppathid="10157" d="M309.66,74.62h37.1a3.71,3.71,0,0,1,3.71,3.71v71.2" class="cls-4"/><path data-cppathid="10158" d="M217.29,132.09V78A3.71,3.71,0,0,1,221,74.25h46" class="cls-4"/><path data-cppathid="10159" d="M480.31,74.81h37.1a3.71,3.71,0,0,1,3.71,3.71v71.19" class="cls-4"/><path data-cppathid="10160" d="M387.94,132.28V78.15a3.71,3.71,0,0,1,3.71-3.71h46" class="cls-4"/><polygon data-cppathid="10161" points="174.53 130.61 170.16 137.26 165.82 130.61 174.53 130.61" class="cls-5"/><polygon data-cppathid="10162" points="221.65 130.61 217.27 137.26 212.93 130.61 221.65 130.61" class="cls-5"/><polygon data-cppathid="10163" points="392.29 128.95 387.92 135.6 383.58 128.95 392.29 128.95" class="cls-5"/><polygon data-cppathid="10164" points="399.09 24.13 392.44 19.76 399.09 15.42 399.09 24.13" class="cls-5"/><polygon data-cppathid="10165" points="309.66 78.79 303.01 74.42 309.66 70.08 309.66 78.79" class="cls-5"/><polygon data-cppathid="10166" points="297.77 92.21 264.2 74.16 297.77 56.29 297.77 92.21" class="cls-4"/><polygon data-cppathid="10167" points="468.87 92.77 435.31 74.72 468.87 56.85 468.87 92.77" class="cls-4"/><polygon data-cppathid="10168" points="389.13 38.42 355.56 20.37 389.13 2.5 389.13 38.42" class="cls-4"/><polygon data-cppathid="10169" points="480.31 79.16 473.66 74.79 480.31 70.45 480.31 79.16" class="cls-5"/><polygon data-cppathid="10170" points="600.6 175.08 604.97 168.43 609.31 175.08 600.6 175.08" class="cls-5"/><polygon data-cppathid="10171" points="632.5 148.13 639.16 152.5 632.5 156.84 632.5 148.13" class="cls-5"/><polygon data-cppathid="10172" points="584.32 148.13 590.97 152.5 584.32 156.84 584.32 148.13" class="cls-5"/><polygon data-cppathid="10173" points="412.79 148.13 419.44 152.5 412.79 156.84 412.79 148.13" class="cls-5"/><polygon data-cppathid="10174" points="440.99 206.75 447.64 211.12 440.99 215.47 440.99 206.75" class="cls-5"/><polygon data-cppathid="10175" points="365.69 148.13 372.34 152.5 365.69 156.84 365.69 148.13" class="cls-5"/><polygon data-cppathid="10176" points="242.14 148.13 248.8 152.5 242.14 156.84 242.14 148.13" class="cls-5"/><polygon data-cppathid="10177" points="196.7 148.13 203.35 152.5 196.7 156.84 196.7 148.13" class="cls-5"/><path data-cppathid="10178" d="M354.67,152.64a3.71,3.71,0,1,1-3.71-3.71A3.71,3.71,0,0,1,354.67,152.64Z" class="cls-5"/><path data-cppathid="10179" d="M524.83,152.64a3.71,3.71,0,1,1-3.71-3.71A3.71,3.71,0,0,1,524.83,152.64Z" class="cls-5"/><path data-cppathid="10180" d="M571.57,152.64a3.71,3.71,0,1,1-3.71-3.71A3.71,3.71,0,0,1,571.57,152.64Z" class="cls-5"/><path data-cppathid="10181" d="M180.19,152.18a10.95,10.95,0,1,1-10.94-10.94A10.94,10.94,0,0,1,180.19,152.18Z" class="cls-4"/><path data-cppathid="10182" d="M228.23,152.18a10.94,10.94,0,1,1-10.94-10.94A10.94,10.94,0,0,1,228.23,152.18Z" class="cls-4"/><path data-cppathid="10183" d="M398.88,152.18a10.94,10.94,0,1,1-10.94-10.94A10.94,10.94,0,0,1,398.88,152.18Z" class="cls-4"/><circle data-cppathid="10184" transform="translate(127.02 553.3) rotate(-54.07)" r="10.94" cy="152.18" cx="605.7" class="cls-4"/><line data-cppathid="10185" y2="157.58" x2="169.25" y1="147.55" x1="169.25" class="cls-4"/><line data-cppathid="10186" y2="152.18" x2="174.35" y1="152.18" x1="164.32" class="cls-8"/><line data-cppathid="10187" y2="157.58" x2="217.29" y1="147.55" x1="217.29" class="cls-8"/><line data-cppathid="10188" y2="152.18" x2="222.39" y1="152.18" x1="212.36" class="cls-4"/><line data-cppathid="10189" y2="157.58" x2="387.94" y1="147.55" x1="387.94" class="cls-8"/><line data-cppathid="10190" y2="152.18" x2="393.04" y1="152.18" x1="383.01" class="cls-4"/><line data-cppathid="10191" y2="157.58" x2="605.7" y1="147.55" x1="605.7" class="cls-4"/><line data-cppathid="10192" y2="152.18" x2="610.81" y1="152.18" x1="600.78" class="cls-8"/><rect data-cppathid="10193" rx="3.71" height="32.84" width="60.25" y="135.6" x="253.46" class="cls-4"/><rect data-cppathid="10194" rx="3.71" height="32.84" width="60.24" y="135.6" x="424.06" class="cls-4"/><rect data-cppathid="10195" rx="3.71" height="32.84" width="60.25" y="195.43" x="450.19" class="cls-4"/></g></g></svg>