<?xml version="1.0" encoding="UTF-8"?>
<svg xmlns="http://www.w3.org/2000/svg" onmouseup="{ if(window.parent.document.onmouseup) window.parent.document.onmouseup(arguments[0]);}" viewBox="0 0 632.39 229.77" xmlns:xlink="http://www.w3.org/1999/xlink"><defs><style>.cls-1,.cls-12,.cls-14,.cls-17,.cls-18,.cls-2,.cls-3,.cls-4,.cls-8{fill:none;}.cls-2{stroke:#53c90e;}.cls-10,.cls-12,.cls-13,.cls-14,.cls-15,.cls-16,.cls-2,.cls-3,.cls-4,.cls-8,.cls-9{stroke-miterlimit:10;}.cls-2,.cls-3{stroke-width:9px;}.cls-3{stroke:#ffbd03;}.cls-4,.cls-8{stroke:#848484;}.cls-10,.cls-12,.cls-13,.cls-14,.cls-15,.cls-16,.cls-4,.cls-9{stroke-width:3px;}.cls-5{fill:#848484;}.cls-6,.cls-7{font-size:26.82px;font-family:FranklinGothicCondensed, Franklin Gothic;}.cls-6{fill:#ffbd03;}.cls-7{fill:#53c90e;}.cls-8{stroke-width:2px;}.cls-15,.cls-16,.cls-9{fill:#c1ad76;}.cls-9{stroke:#c18500;}.cls-10{fill:#fff;}.cls-10,.cls-14{stroke:#595958;}.cls-11{clip-path:url(#clip-path);}.cls-12{stroke:#13d313;}.cls-13{fill:#c18500;stroke:#595959;}.cls-15,.cls-18{stroke:#e80505;}.cls-16{stroke:#020202;}.cls-17{stroke:#231f20;}.cls-17,.cls-18{stroke-linecap:round;stroke-linejoin:round;stroke-width:6px;}</style><clipPath id="clip-path"><rect data-cppathid="10000" rx="4.02" height="44.74" width="75.18" y="23.64" x="542.91" class="cls-1"/></clipPath></defs><g data-name="Layer 2" id="Layer_2"><g data-name="Layer 11 copy" id="Layer_11_copy"><rect data-cppathid="10001" rx="4.47" height="132.92" width="397.68" y="19.72" x="43.54" class="cls-2"/><rect data-cppathid="10002" rx="4.47" height="78.39" width="133.68" y="74.38" x="260.58" class="cls-3"/><line data-cppathid="10003" y2="152.48" y1="152.48" x1="22.63" class="cls-4"/><polygon data-cppathid="10004" points="22.63 148.13 29.28 152.5 22.63 156.84 22.63 148.13" class="cls-5"/><text data-cppathid="10005" transform="translate(268.28 100.86)" class="cls-6">n=2</text><text data-cppathid="10006" transform="translate(50.51 45.99)" class="cls-7">n=3</text><path data-cppathid="10007" d="M43.4,131.72V23.43a3.71,3.71,0,0,1,3.71-3.71h181" class="cls-4"/><path data-cppathid="10008" d="M271.18,19.86h166.2a3.71,3.71,0,0,1,3.71,3.71V154.86" class="cls-4"/><path data-cppathid="10009" d="M478.19,174.75v33.39a3.71,3.71,0,0,1-3.71,3.71H386.19" class="cls-4"/><path data-cppathid="10010" d="M314.22,211.11H227.41a3.71,3.71,0,0,1-3.71-3.71V156.2" class="cls-4"/><line data-cppathid="10011" y2="152.48" x2="53.42" y1="152.48" x1="79.51" class="cls-4"/><line data-cppathid="10012" y2="152.48" x2="104.06" y1="152.48" x1="126.69" class="cls-4"/><line data-cppathid="10013" y2="152.48" x2="186.93" y1="152.48" x1="242.25" class="cls-4"/><line data-cppathid="10014" y2="152.62" x2="272.33" y1="152.62" x1="288.73" class="cls-4"/><line data-cppathid="10015" y2="152.48" x2="357.53" y1="152.48" x1="457.55" class="cls-4"/><line data-cppathid="10016" y2="152.48" x2="489.87" y1="152.48" x1="508" class="cls-4"/><path data-cppathid="10017" d="M182.89,74.62H220a3.71,3.71,0,0,1,3.71,3.71v71.2" class="cls-4"/><path data-cppathid="10018" d="M90.52,132.09V78a3.71,3.71,0,0,1,3.71-3.71h46" class="cls-4"/><path data-cppathid="10019" d="M353.54,74.81h37.1a3.71,3.71,0,0,1,3.71,3.71v71.19" class="cls-4"/><path data-cppathid="10020" d="M261.17,132.28V78.15a3.71,3.71,0,0,1,3.71-3.71h46" class="cls-4"/><polygon data-cppathid="10021" points="47.76 130.61 43.39 137.26 39.05 130.61 47.76 130.61" class="cls-5"/><polygon data-cppathid="10022" points="94.88 130.61 90.5 137.26 86.16 130.61 94.88 130.61" class="cls-5"/><polygon data-cppathid="10023" points="265.52 128.95 261.15 135.6 256.81 128.95 265.52 128.95" class="cls-5"/><polygon data-cppathid="10024" points="272.32 24.13 265.67 19.76 272.32 15.42 272.32 24.13" class="cls-5"/><polygon data-cppathid="10025" points="182.89 78.79 176.24 74.42 182.89 70.08 182.89 78.79" class="cls-5"/><polygon data-cppathid="10026" points="171 92.21 137.43 74.16 171 56.29 171 92.21" class="cls-4"/><polygon data-cppathid="10027" points="342.11 92.77 308.54 74.72 342.11 56.85 342.11 92.77" class="cls-4"/><polygon data-cppathid="10028" points="262.36 38.42 228.79 20.37 262.36 2.5 262.36 38.42" class="cls-4"/><polygon data-cppathid="10029" points="353.54 79.16 346.89 74.79 353.54 70.45 353.54 79.16" class="cls-5"/><polygon data-cppathid="10030" points="473.83 175.08 478.2 168.43 482.54 175.08 473.83 175.08" class="cls-5"/><polygon data-cppathid="10031" points="505.74 148.13 512.39 152.5 505.74 156.84 505.74 148.13" class="cls-5"/><polygon data-cppathid="10032" points="457.55 148.13 464.2 152.5 457.55 156.84 457.55 148.13" class="cls-5"/><polygon data-cppathid="10033" points="286.02 148.13 292.68 152.5 286.02 156.84 286.02 148.13" class="cls-5"/><polygon data-cppathid="10034" points="314.22 206.75 320.87 211.12 314.22 215.47 314.22 206.75" class="cls-5"/><polygon data-cppathid="10035" points="238.92 148.13 245.57 152.5 238.92 156.84 238.92 148.13" class="cls-5"/><polygon data-cppathid="10036" points="115.37 148.13 122.03 152.5 115.37 156.84 115.37 148.13" class="cls-5"/><polygon data-cppathid="10037" points="69.93 148.13 76.58 152.5 69.93 156.84 69.93 148.13" class="cls-5"/><path data-cppathid="10038" d="M227.9,152.64a3.71,3.71,0,1,1-3.71-3.71A3.71,3.71,0,0,1,227.9,152.64Z" class="cls-5"/><path data-cppathid="10039" d="M398.06,152.64a3.71,3.71,0,1,1-3.71-3.71A3.71,3.71,0,0,1,398.06,152.64Z" class="cls-5"/><path data-cppathid="10040" d="M444.8,152.64a3.71,3.71,0,1,1-3.71-3.71A3.71,3.71,0,0,1,444.8,152.64Z" class="cls-5"/><path data-cppathid="10041" d="M53.42,152.18a10.94,10.94,0,1,1-10.94-10.94A10.94,10.94,0,0,1,53.42,152.18Z" class="cls-4"/><path data-cppathid="10042" d="M101.46,152.18a10.94,10.94,0,1,1-10.94-10.94A10.94,10.94,0,0,1,101.46,152.18Z" class="cls-4"/><path data-cppathid="10043" d="M272.11,152.18a10.94,10.94,0,1,1-10.94-10.94A10.94,10.94,0,0,1,272.11,152.18Z" class="cls-4"/><circle data-cppathid="10044" transform="translate(74.65 450.66) rotate(-54.07)" r="10.94" cy="152.18" cx="478.93" class="cls-4"/><line data-cppathid="10045" y2="157.58" x2="42.48" y1="147.55" x1="42.48" class="cls-4"/><line data-cppathid="10046" y2="152.18" x2="47.58" y1="152.18" x1="37.55" class="cls-8"/><line data-cppathid="10047" y2="157.58" x2="90.52" y1="147.55" x1="90.52" class="cls-8"/><line data-cppathid="10048" y2="152.18" x2="95.62" y1="152.18" x1="85.59" class="cls-4"/><line data-cppathid="10049" y2="157.58" x2="261.17" y1="147.55" x1="261.17" class="cls-8"/><line data-cppathid="10050" y2="152.18" x2="266.27" y1="152.18" x1="256.24" class="cls-4"/><line data-cppathid="10051" y2="157.58" x2="478.94" y1="147.55" x1="478.94" class="cls-4"/><line data-cppathid="10052" y2="152.18" x2="484.04" y1="152.18" x1="474.01" class="cls-8"/><rect data-cppathid="10053" rx="3.71" height="32.84" width="60.25" y="135.6" x="126.69" class="cls-4"/><rect data-cppathid="10054" rx="3.71" height="32.84" width="60.24" y="135.6" x="297.29" class="cls-4"/><rect data-cppathid="10055" rx="3.71" height="32.84" width="60.25" y="195.43" x="323.42" class="cls-4"/></g><g data-name="Layer 11 copy 2" id="Layer_11_copy_2"><rect data-cppathid="10056" rx="4.47" height="132.92" width="397.68" y="19.72" x="43.54" class="cls-2"/><rect data-cppathid="10057" rx="4.47" height="78.39" width="133.68" y="74.38" x="260.58" class="cls-3"/><line data-cppathid="10058" y2="152.48" y1="152.48" x1="22.63" class="cls-4"/><polygon data-cppathid="10059" points="22.63 148.13 29.28 152.5 22.63 156.84 22.63 148.13" class="cls-5"/><text data-cppathid="10060" transform="translate(268.28 100.86)" class="cls-6">n=2</text><text data-cppathid="10061" transform="translate(50.51 45.99)" class="cls-7">n=3</text><rect data-cppathid="10062" rx="4.16" height="143.76" width="100.79" y="14.9" x="530.11" class="cls-9"/><rect data-cppathid="10063" rx="4.16" height="46.26" width="77.72" y="22.88" x="541.8" class="cls-10"/><g class="cls-11"><path data-cppathid="10064" d="M537.29,45.62s14.53,6.58,18.38-4,7.73-6.92,9.12,3c2.09,15,4.75,18.81,9.44,2.62s5.93-7.78,7.57,2.17,7.78,5.75,12-3.81c3.3-7.42,7.46-12,8.23,10.39s4.85-3.18,5.67-8.75,2,2.43,7.11,2.51,16.34,0,16.34,0" class="cls-12"/></g><path data-cppathid="10065" d="M604.53,98.19a23.06,23.06,0,1,1-23.06-23A23.05,23.05,0,0,1,604.53,98.19Z" class="cls-13"/><line data-cppathid="10066" y2="98.19" x2="581.47" y1="86.64" x1="561.52" class="cls-14"/><path data-cppathid="10067" d="M607.71,143.35a6.54,6.54,0,1,0,6.54-6.53A6.54,6.54,0,0,0,607.71,143.35Z" class="cls-15"/><path data-cppathid="10068" d="M542.05,143.13a6.54,6.54,0,1,0,6.54-6.54A6.53,6.53,0,0,0,542.05,143.13Z" class="cls-16"/><path data-cppathid="10069" d="M548.69,144c0,45.12-90.23,52.06-106.75,8.23" class="cls-17"/><path data-cppathid="10070" d="M613.88,144c-6,96.34-199.39,119.21-220,8.23" class="cls-18"/><path data-cppathid="10071" d="M43.4,131.72V23.43a3.71,3.71,0,0,1,3.71-3.71h181" class="cls-4"/><path data-cppathid="10072" d="M271.18,19.86h166.2a3.71,3.71,0,0,1,3.71,3.71V154.86" class="cls-4"/><path data-cppathid="10073" d="M478.19,174.75v33.39a3.71,3.71,0,0,1-3.71,3.71H386.19" class="cls-4"/><path data-cppathid="10074" d="M314.22,211.11H227.41a3.71,3.71,0,0,1-3.71-3.71V156.2" class="cls-4"/><line data-cppathid="10075" y2="152.48" x2="53.42" y1="152.48" x1="79.51" class="cls-4"/><line data-cppathid="10076" y2="152.48" x2="104.06" y1="152.48" x1="126.69" class="cls-4"/><line data-cppathid="10077" y2="152.48" x2="186.93" y1="152.48" x1="242.25" class="cls-4"/><line data-cppathid="10078" y2="152.62" x2="272.33" y1="152.62" x1="288.73" class="cls-4"/><line data-cppathid="10079" y2="152.48" x2="357.53" y1="152.48" x1="457.55" class="cls-4"/><line data-cppathid="10080" y2="152.48" x2="489.87" y1="152.48" x1="508" class="cls-4"/><path data-cppathid="10081" d="M182.89,74.62H220a3.71,3.71,0,0,1,3.71,3.71v71.2" class="cls-4"/><path data-cppathid="10082" d="M90.52,132.09V78a3.71,3.71,0,0,1,3.71-3.71h46" class="cls-4"/><path data-cppathid="10083" d="M353.54,74.81h37.1a3.71,3.71,0,0,1,3.71,3.71v71.19" class="cls-4"/><path data-cppathid="10084" d="M261.17,132.28V78.15a3.71,3.71,0,0,1,3.71-3.71h46" class="cls-4"/><polygon data-cppathid="10085" points="47.76 130.61 43.39 137.26 39.05 130.61 47.76 130.61" class="cls-5"/><polygon data-cppathid="10086" points="94.88 130.61 90.5 137.26 86.16 130.61 94.88 130.61" class="cls-5"/><polygon data-cppathid="10087" points="265.52 128.95 261.15 135.6 256.81 128.95 265.52 128.95" class="cls-5"/><polygon data-cppathid="10088" points="272.32 24.13 265.67 19.76 272.32 15.42 272.32 24.13" class="cls-5"/><polygon data-cppathid="10089" points="182.89 78.79 176.24 74.42 182.89 70.08 182.89 78.79" class="cls-5"/><polygon data-cppathid="10090" points="171 92.21 137.43 74.16 171 56.29 171 92.21" class="cls-4"/><polygon data-cppathid="10091" points="342.11 92.77 308.54 74.72 342.11 56.85 342.11 92.77" class="cls-4"/><polygon data-cppathid="10092" points="262.36 38.42 228.79 20.37 262.36 2.5 262.36 38.42" class="cls-4"/><polygon data-cppathid="10093" points="353.54 79.16 346.89 74.79 353.54 70.45 353.54 79.16" class="cls-5"/><polygon data-cppathid="10094" points="473.83 175.08 478.2 168.43 482.54 175.08 473.83 175.08" class="cls-5"/><polygon data-cppathid="10095" points="505.74 148.13 512.39 152.5 505.74 156.84 505.74 148.13" class="cls-5"/><polygon data-cppathid="10096" points="457.55 148.13 464.2 152.5 457.55 156.84 457.55 148.13" class="cls-5"/><polygon data-cppathid="10097" points="286.02 148.13 292.68 152.5 286.02 156.84 286.02 148.13" class="cls-5"/><polygon data-cppathid="10098" points="314.22 206.75 320.87 211.12 314.22 215.47 314.22 206.75" class="cls-5"/><polygon data-cppathid="10099" points="238.92 148.13 245.57 152.5 238.92 156.84 238.92 148.13" class="cls-5"/><polygon data-cppathid="10100" points="115.37 148.13 122.03 152.5 115.37 156.84 115.37 148.13" class="cls-5"/><polygon data-cppathid="10101" points="69.93 148.13 76.58 152.5 69.93 156.84 69.93 148.13" class="cls-5"/><path data-cppathid="10102" d="M227.9,152.64a3.71,3.71,0,1,1-3.71-3.71A3.71,3.71,0,0,1,227.9,152.64Z" class="cls-5"/><path data-cppathid="10103" d="M398.06,152.64a3.71,3.71,0,1,1-3.71-3.71A3.71,3.71,0,0,1,398.06,152.64Z" class="cls-5"/><path data-cppathid="10104" d="M444.8,152.64a3.71,3.71,0,1,1-3.71-3.71A3.71,3.71,0,0,1,444.8,152.64Z" class="cls-5"/><path data-cppathid="10105" d="M53.42,152.18a10.94,10.94,0,1,1-10.94-10.94A10.94,10.94,0,0,1,53.42,152.18Z" class="cls-4"/><path data-cppathid="10106" d="M101.46,152.18a10.94,10.94,0,1,1-10.94-10.94A10.94,10.94,0,0,1,101.46,152.18Z" class="cls-4"/><path data-cppathid="10107" d="M272.11,152.18a10.94,10.94,0,1,1-10.94-10.94A10.94,10.94,0,0,1,272.11,152.18Z" class="cls-4"/><circle data-cppathid="10108" transform="translate(74.65 450.66) rotate(-54.07)" r="10.94" cy="152.18" cx="478.93" class="cls-4"/><line data-cppathid="10109" y2="157.58" x2="42.48" y1="147.55" x1="42.48" class="cls-4"/><line data-cppathid="10110" y2="152.18" x2="47.58" y1="152.18" x1="37.55" class="cls-8"/><line data-cppathid="10111" y2="157.58" x2="90.52" y1="147.55" x1="90.52" class="cls-8"/><line data-cppathid="10112" y2="152.18" x2="95.62" y1="152.18" x1="85.59" class="cls-4"/><line data-cppathid="10113" y2="157.58" x2="261.17" y1="147.55" x1="261.17" class="cls-8"/><line data-cppathid="10114" y2="152.18" x2="266.27" y1="152.18" x1="256.24" class="cls-4"/><line data-cppathid="10115" y2="157.58" x2="478.94" y1="147.55" x1="478.94" class="cls-4"/><line data-cppathid="10116" y2="152.18" x2="484.04" y1="152.18" x1="474.01" class="cls-8"/><rect data-cppathid="10117" rx="3.71" height="32.84" width="60.25" y="135.6" x="126.69" class="cls-4"/><rect data-cppathid="10118" rx="3.71" height="32.84" width="60.24" y="135.6" x="297.29" class="cls-4"/><rect data-cppathid="10119" rx="3.71" height="32.84" width="60.25" y="195.43" x="323.42" class="cls-4"/></g></g></svg>