<?xml version="1.0" encoding="UTF-8"?>
<svg xmlns="http://www.w3.org/2000/svg" onmouseup="{ if(window.parent.document.onmouseup) window.parent.document.onmouseup(arguments[0]);}" viewBox="0 0 68.54 60.03"><defs><style>.cls-1{fill:#1b75bb;}</style></defs><g data-name="Layer 2" id="Layer_2"><g id="team"><path data-cppathid="10000" transform="translate(-2.16 -1.25)" d="M5.23,21.58a.7.7,0,0,1-.79.79H3a.7.7,0,0,1-.79-.79v-19A.7.7,0,0,1,3,1.78H4.44a.67.67,0,0,1,.74.48h5.74a.7.7,0,0,1,.79.79v8a.7.7,0,0,1-.79.79H9.43a.85.85,0,0,1-.5-.14H5.23ZM8.64,3.7H5.23V6.36H8.64ZM5.23,10.25H8.64V7.8H5.23Zm5,10.89a.74.74,0,0,1-.88.7L7.9,21.72c-.56,0-.8-.34-.7-.89l.41-2.21h-1c-.53,0-.79-.24-.79-.72s.26-.72.79-.72H7.87l.46-2.54H7.08c-.53,0-.79-.24-.79-.72s.26-.72.79-.72H17.14c.52,0,.79.24.79.72s-.27.72-.79.72h-.72v2.54h1c.53,0,.79.24.79.72s-.26.72-.79.72h-1v2.43a.7.7,0,0,1-.8.79H14.14a.7.7,0,0,1-.8-.79V18.62H10.68Zm1.16-6.28-.44,2.32h2.4V14.64H11.4S11.39,14.76,11.38,14.86Zm7,7.1c-.45-.05-.67-.25-.67-.6a.45.45,0,0,1,0-.11.93.93,0,0,1,0-.13v0c.16-.48.36-.7.62-.65l.38.07v-9H15.31a.72.72,0,0,1-.67.31H13.15a.7.7,0,0,1-.79-.79V2.57a.7.7,0,0,1,.79-.79h1.49a.72.72,0,0,1,.67.31H21a.7.7,0,0,1,.8.79V21.62q0,.87-.84.75Zm.38-18.43H15.43V6.26h3.31Zm-3.31,6.55h3.31V7.7H15.43Z" class="cls-1"/><path data-cppathid="10001" transform="translate(-2.16 -1.25)" d="M27.86,12.5a.77.77,0,0,1-.64.34.92.92,0,0,1-.44-.1L26,12.41c-.32-.13-.48-.32-.48-.58a.71.71,0,0,1,.24-.5l2.79-3.15L26.54,6a.72.72,0,0,1-.24-.53c0-.22.16-.4.48-.55l.8-.33a.85.85,0,0,1,.43-.1.8.8,0,0,1,.65.34l1.46,1.65L32.64,3.6H27.86c-.52,0-.79-.24-.79-.72s.27-.72.79-.72h7.9c.45,0,.67.16.67.48a.75.75,0,0,1-.24.5Zm1,9.51-.1,0h-.11a.78.78,0,0,1-.75-.57l0-.16a.92.92,0,0,1,0-.16c0-.3.2-.51.6-.62a4.49,4.49,0,0,0,2.26-1.31,5.73,5.73,0,0,0,1.19-2.84h-4.1c-.53,0-.79-.24-.79-.72s.26-.72.79-.72h4.32c.08-.83.13-1.83.14-3v-.1H30.67c-.53,0-.79-.24-.79-.72s.26-.72.79-.72H41.09c.53,0,.79.24.79.72s-.26.72-.79.72H39.82v3.1h4.34c.53,0,.79.24.79.72s-.26.72-.79.72H39.82v4H42.5V18.86a.71.71,0,0,1,.8-.79h1.48a.71.71,0,0,1,.8.79v2.19a.7.7,0,0,1-.8.79H37.54a.7.7,0,0,1-.8-.79V16.37H34.92a8.13,8.13,0,0,1-1.09,2.81,5.5,5.5,0,0,1-2,1.77A11.06,11.06,0,0,1,28.82,22Zm6.48-9.77a26,26,0,0,1-.16,2.69h1.6v-3.1H35.26A1.62,1.62,0,0,1,35.3,12.24Zm11-1.34a.9.9,0,0,1,.26.52c0,.24-.16.44-.48.58l-.69.31a1.35,1.35,0,0,1-.46.12.86.86,0,0,1-.65-.31L36.86,4.58a.9.9,0,0,1-.26-.52c0-.24.16-.44.48-.58l.7-.31a1.25,1.25,0,0,1,.45-.12.86.86,0,0,1,.65.31l1,1,2.16-2a.83.83,0,0,1,1.11-.14l.6.31a.63.63,0,0,1,.43.55.75.75,0,0,1-.29.53L41.38,5.9l1,1.06,2-1.9A.86.86,0,0,1,45,4.8a1.29,1.29,0,0,1,.48.12l.65.31c.29.15.43.33.43.55a.85.85,0,0,1-.29.56l-2.33,2.2Z" class="cls-1"/><path data-cppathid="10002" transform="translate(-2.16 -1.25)" d="M52.3,16.94a.85.85,0,0,1-.58.24,1,1,0,0,1-.5-.14l-.53-.29c-.29-.17-.43-.37-.43-.57a.66.66,0,0,1,.31-.53l4.82-4h-5.3c-.53,0-.79-.24-.79-.72s.26-.72.79-.72h7l1.34-1.13V6.55h-7.1c-.53,0-.79-.24-.79-.72s.26-.72.79-.72h7.1V2a.7.7,0,0,1,.8-.79h1.48a.7.7,0,0,1,.8.79V5.11h1.65L67,2a.85.85,0,0,1,.58-.24,1,1,0,0,1,.5.14l.53.29a.68.68,0,0,1,.43.58.66.66,0,0,1-.31.52L66.48,5.11h2.21c.53,0,.79.24.79.72s-.26.72-.79.72H64.75L61.54,9.24v.94h8.37c.53,0,.79.24.79.72s-.26.72-.79.72H58.68l-1.9,1.58H68.57a.7.7,0,0,1,.79.79v7.68a.7.7,0,0,1-.79.79H67.08a.68.68,0,0,1-.77-.62H56.42a.7.7,0,0,1-.76.53H54.17a.7.7,0,0,1-.79-.79V16Zm14-2.3H56.45v2.18h9.84ZM56.45,20.4h9.84V18.26H56.45Z" class="cls-1"/><path data-cppathid="10003" transform="translate(-2.16 -1.25)" d="M33.46,54.46c-.08-.54-.17-1-.2-1.42-.11-1.29-.23-2.59-.27-3.88-.09-3-.27-6-.14-9,.16-3.67.38-7.34.87-11,.09-.66.1-1.33.18-2a3.68,3.68,0,0,1,.24-1,1,1,0,0,1,1-.66,1,1,0,0,1,1,.65,2.9,2.9,0,0,1,.21.78,16.55,16.55,0,0,1,0,4,112.82,112.82,0,0,0-.54,16.13q.15,2.77.33,5.55a.93.93,0,0,0,.18.52l.17-.48a4.46,4.46,0,0,1,.32-.74,1.44,1.44,0,0,1,1.53-.68,1.41,1.41,0,0,1,1.14,1.22,2.81,2.81,0,0,1,0,1A13.61,13.61,0,0,1,39,55a30.7,30.7,0,0,0-1.16,4.43,3.45,3.45,0,0,1-.25.83,1.64,1.64,0,0,1-2.34.81,3.1,3.1,0,0,1-.81-.63c-.69-.75-1.36-1.53-2-2.32-.52-.6-1-1.21-1.52-1.82a4.39,4.39,0,0,1-.47-.66,1.49,1.49,0,0,1,2.19-1.92c.17.12.32.28.49.42Z" class="cls-1"/></g></g></svg>