<?xml version="1.0" encoding="UTF-8"?>
<svg xmlns="http://www.w3.org/2000/svg" onmouseup="{ if(window.parent.document.onmouseup) window.parent.document.onmouseup(arguments[0]);}" viewBox="0 0 27.67 58.4"><defs><style>.cls-1{fill:#1b75bb;}</style></defs><g data-name="Layer 2" id="Layer_2"><g id="Michael"><path data-cppathid="10000" transform="translate(-1.2 -2.88)" d="M9.14,17.66c-.14.32-.32.48-.52.48s-.39-.16-.53-.48L3.84,8.4V20.33a.7.7,0,0,1-.79.79H2a.7.7,0,0,1-.79-.79V3.67A.7.7,0,0,1,2,2.88H2.9a1,1,0,0,1,.94.6l4.73,9.89,4.7-9.89a1,1,0,0,1,.94-.6h.91a.7.7,0,0,1,.79.79V20.33a.7.7,0,0,1-.79.79H14.06a.7.7,0,0,1-.79-.79V8.47Z" class="cls-1"/><path data-cppathid="10001" transform="translate(-1.2 -2.88)" d="M17.54,15.82a.76.76,0,0,1,.22-.6.81.81,0,0,1,.6-.24H19.8a.76.76,0,0,1,.56.22.93.93,0,0,1,.26.62A6.49,6.49,0,0,0,21.29,19a2.33,2.33,0,0,0,2.11.92,1.88,1.88,0,0,0,1.88-1.16,10.57,10.57,0,0,0,.52-4V3.7a.82.82,0,0,1,.82-.82h1.44a.82.82,0,0,1,.81.82V14.81c0,.56,0,1.14-.07,1.74a7.52,7.52,0,0,1-.35,1.76,4.38,4.38,0,0,1-.86,1.55A4,4,0,0,1,26,21a7,7,0,0,1-2.58.41,8.07,8.07,0,0,1-2.86-.44,4.2,4.2,0,0,1-1.76-1.22,4.69,4.69,0,0,1-.91-1.76A9.49,9.49,0,0,1,17.54,15.82Z" class="cls-1"/><path data-cppathid="10002" transform="translate(-1.2 -2.88)" d="M13,54.46c-.08-.54-.17-1-.21-1.42-.1-1.29-.22-2.58-.26-3.88-.09-3-.28-6-.14-9,.16-3.67.38-7.34.87-11,.08-.66.09-1.33.17-2a4.09,4.09,0,0,1,.24-1,1,1,0,0,1,1-.66,1,1,0,0,1,1,.65,2.91,2.91,0,0,1,.22.78,16.55,16.55,0,0,1,0,4,114.29,114.29,0,0,0-.53,16.13c.09,1.85.21,3.7.32,5.55a1,1,0,0,0,.19.52l.17-.48a5.47,5.47,0,0,1,.31-.74,1.45,1.45,0,0,1,2.68.54,3.09,3.09,0,0,1,0,1,13.06,13.06,0,0,1-.4,1.52,30.73,30.73,0,0,0-1.17,4.43,3.31,3.31,0,0,1-.24.83,1.65,1.65,0,0,1-2.35.81,2.9,2.9,0,0,1-.8-.63c-.69-.75-1.36-1.53-2-2.31l-1.51-1.83a3.78,3.78,0,0,1-.47-.66,1.48,1.48,0,0,1,2.18-1.92,4.93,4.93,0,0,1,.49.42Z" class="cls-1"/></g></g></svg>