<?xml version="1.0" encoding="UTF-8"?>
<svg xmlns="http://www.w3.org/2000/svg" onmouseup="{ if(window.parent.document.onmouseup) window.parent.document.onmouseup(arguments[0]);}" viewBox="0 0 198.52 361.46"><defs><style>.cls-1{fill:#fcc388;}.cls-2{fill:#e33d3c;}.cls-3{fill:#253d54;}.cls-4{fill:#80583a;}.cls-5{fill:#ad2526;}.cls-11,.cls-14,.cls-16,.cls-6,.cls-9{stroke:#000;}.cls-6{stroke-width:0.6px;}.cls-7{fill:#fff;}.cls-8{fill:#f2797a;}.cls-11,.cls-14,.cls-16,.cls-9{fill:none;}.cls-9{stroke-width:1.06px;}.cls-10{fill:#686868;}.cls-11{stroke-width:0.3px;}.cls-12{fill:#919191;}.cls-13{fill:#afafb0;}.cls-14{stroke-width:0.89px;}.cls-15{fill:#c5c4c4;}.cls-16{stroke-width:0.67px;}</style></defs><title/><g data-name="Layer 2" id="Layer_2"><g id="scrumMaster"><path data-cppathid="10000" d="M154.1,171.45c1.45.08,23.59,20.27,24,25.39.58,7.46-30.8,26.89-29.4,30.31s-17.15-5.35-10.93-12.27,11.43-14,18.17-17.28L135.56,175Z" class="cls-1"/><path data-cppathid="10001" d="M146,218.16s13.78,6,12,11,3.21-10.11,6.89-9.65S163,234.7,160.2,234.7s-18.38,1.84-23.89-6.89-.46-17,1.83-19.29S146,218.16,146,218.16Z" class="cls-1"/><path data-cppathid="10002" d="M136.3,195.47q-1.43-1.62-2.81-3.23c-23.27-27.05-7.65-50.4.34-44.89,2.77,1.91,13.37,12.48,26.21,26C158,180.78,148.88,192,136.3,195.47Z" class="cls-2"/><path data-cppathid="10003" d="M43.14,248.14S52.5,335,48.42,340.47s-8.33,15.61-6.29,20.21,34.64-12.27,40.25-16.86,7.8-63.85,7.8-69.36,17.46-1.38,17.46-1.38,2.71,66.15,3.22,69.36,30.55,9.65,37.68,8.27S144,337.39,144,337.39s7.66-96.6,5.62-101.66-104.9-2.29-104.9-2.29Z" class="cls-3"/><path data-cppathid="10004" d="M109.37,76.5c-1-6.69,6.7-19.92,15.55-23.77,10.25-4.45,15.41-3.4,19.06,4.77,3.41,7.63,5.47,11.48,15.84,11.7,8.65.19,17.67-16.59,8.53-19.94-3.3-1.21-12,3.89-11.47,8.32.31,2.91,6.5,3.27,8.09.39-2.63,1.45-3.4,6.45-9.49,3-3.71-2.13-.75-8.26,1.57-11.48C168,34.37,181.34,47.57,176.63,62c-6.3,19.24-27.19,27.84-41,30.14S110.34,83.2,109.37,76.5Z" class="cls-4"/><path data-cppathid="10005" d="M147.44,97.17S131.93,23.08,88.11,24.64,29.7,71.67,37,114a411.3,411.3,0,0,1,5,42.54c1.36,20.75,3.89,35,3.89,35l95.81-18.18-5.54-12.52-.92-10.11s9.09-32.83,5.66-32.44c-18.38,2-20.42,1.29-35.83,1.29-37.22,0-31.65-15.92-31.65-15.92Z" class="cls-1"/><path data-cppathid="10006" d="M40.07,152c88.28,14.35,97.76-7.73,97.76-7.73l3.77,19.06s12,13.12,24.41,64.57c-32.19,30.63-129.7,14.78-129.7,14.78S39.53,160.17,40.07,152Z" class="cls-5"/><path data-cppathid="10007" d="M111.66,76.69c0,3.68-1.75,6.66-3.91,6.66s-3.93-3-3.93-6.66S105.58,70,107.75,70,111.66,73,111.66,76.69Z" class="cls-6"/><path data-cppathid="10008" d="M122.64,75.91c0,3-1.45,5.49-3.22,5.49s-3.23-2.46-3.23-5.49,1.45-5.49,3.23-5.49S122.64,72.88,122.64,75.91Z" class="cls-6"/><path data-cppathid="10009" d="M109,72.55a2,2,0,1,1-2-2A2,2,0,0,1,109,72.55Z" class="cls-7"/><path data-cppathid="10010" d="M120.7,72.55a2,2,0,1,1-2-2A2,2,0,0,1,120.7,72.55Z" class="cls-7"/><path data-cppathid="10011" d="M91.38,31.32S51.58,85.75,34.47,95.4c-9-29.86,5.34-64.54,43.86-72.12,20.5-4,26.57-5.58,41.93,11.48C132.46,48.32,91.38,31.32,91.38,31.32Z" class="cls-4"/><path data-cppathid="10012" d="M33.13,91.81S4.78,50.15,45.67,20.75c37.55-27,65.77,1.67,66.46,6.89C112.13,27.64,40.08,22.46,33.13,91.81Z" class="cls-2"/><path data-cppathid="10013" d="M66.62,38.13S94.74,1,113.19.09s30.35,5,31.74,10.54-30.82,17-30.82,17S86,26.87,66.62,38.13Z" class="cls-8"/><path data-cppathid="10014" d="M42,80.94c-5.63-3.17-18.8,0-24.05,7.4-6.07,8.57-6.26,14,.09,20.27,5.92,5.86,8.84,9.16,6.82,19.41-1.68,8.53-18.24,11.84-19.21,1.76-.35-3.63,5.95-10.44,9.7-8.5,2.48,1.28,1.47,7.46-1.38,8.07,1.82-2.1,6.35-1.2,4.6-8.33-1.06-4.34-7-3.47-10.35-2.25C-7.23,124.47,1.42,142,15,142.11c18.12.18,30.08-17.46,35-30.26S47.65,84.11,42,80.94Z" class="cls-4"/><path data-cppathid="10015" d="M21.32,177.85c-1.38.46-17.48,25.73-16.54,30.78,1.38,7.35,36.75,17.92,36.29,21.59s15.16-9.64,7.35-14.7-14.69-10.56-22-11.94l13.79-27.1Z" class="cls-1"/><path data-cppathid="10016" d="M8.63,183.41c.76-1.22,1.52-2.44,2.28-3.63,19.1-30.14,46-22,43-12.74-1,3.2-8,16.42-17.22,32.64C29,199.89,15.6,194.45,8.63,183.41Z" class="cls-2"/><path data-cppathid="10017" d="M42.91,227.47s-13.78,6-11.94,11-3.22-10.11-6.89-9.65S25.92,244,28.67,244s18.38,1.84,23.89-6.89.46-17-1.84-19.29S42.91,227.47,42.91,227.47Z" class="cls-1"/><path data-cppathid="10018" d="M42,152.59s91.5,39.65,129.07-3.06c0,0-14.23-5.24-34-2.91" class="cls-9"/><polygon data-cppathid="10019" points="179.81 162.64 187.66 155.49 183.62 151.09 175.76 154.14 179.81 162.64" class="cls-10"/><polyline data-cppathid="10020" points="197.78 150.61 192.33 155.15 193.01 157.53" class="cls-11"/><path data-cppathid="10021" d="M171.06,149.53s-3.22-.91-4.88,3.36c-.59,4.28,4,10.26,10.27,10.58,7.05.37,6.05-7.29,6.05-7.29l10.49,2,.2-.18-.86-2.81Z" class="cls-12"/><path data-cppathid="10022" d="M175,144s-7.6,4-8.75,8.26a6,6,0,0,0-.11.61c1.66-4.27,4.88-3.36,4.88-3.36l21.27,5.62.86,2.81,5.33-4.78-.71-3.17Z" class="cls-13"/><line data-cppathid="10023" y2="150.86" x2="180.98" y1="147.58" x1="184.8" class="cls-14"/><polygon data-cppathid="10024" points="192.33 155.15 193.19 157.96 198.52 153.18 197.81 150.01 192.33 155.15" class="cls-15"/><line data-cppathid="10025" y2="155.65" x2="194.06" y1="152.42" x1="197.28" class="cls-16"/></g></g></svg>