<?xml version="1.0" encoding="UTF-8"?>
<svg xmlns="http://www.w3.org/2000/svg" onmouseup="{ if(window.parent.document.onmouseup) window.parent.document.onmouseup(arguments[0]);}" viewBox="0 0 724.08 344.82"><defs><style>.cls-1{fill:#fff;}.cls-2,.cls-3,.cls-4,.cls-6{fill:#275da6;}.cls-2{opacity:0.12;}.cls-3{opacity:0.16;}.cls-4{stroke:#0c3f77;stroke-miterlimit:10;stroke-width:3px;}.cls-5{fill:#0c3f77;}</style></defs><g data-name="Layer 2" id="Layer_2"><g data-name="jp calendar" id="jp_calendar"><rect data-cppathid="10000" height="295.85" width="720.48" y="48.96" x="1.5" class="cls-1"/><rect data-cppathid="10001" height="300.21" width="60" y="44.61" x="1.27" class="cls-2"/><rect data-cppathid="10002" height="300.21" width="60" y="44.61" x="61.45" class="cls-3"/><rect data-cppathid="10003" height="300.21" width="60" y="44.61" x="121.45" class="cls-2"/><rect data-cppathid="10004" height="300.21" width="60" y="44.61" x="181.62" class="cls-3"/><rect data-cppathid="10005" height="300.21" width="60" y="44.61" x="241.6" class="cls-2"/><rect data-cppathid="10006" height="300.21" width="60" y="44.61" x="301.78" class="cls-3"/><rect data-cppathid="10007" height="300.21" width="60" y="44.61" x="361.78" class="cls-2"/><rect data-cppathid="10008" height="300.21" width="60" y="44.61" x="421.96" class="cls-3"/><rect data-cppathid="10009" height="300.21" width="60" y="44.61" x="481.62" class="cls-2"/><rect data-cppathid="10010" height="300.21" width="60" y="44.61" x="541.8" class="cls-3"/><rect data-cppathid="10011" height="300.21" width="60" y="44.61" x="601.8" class="cls-2"/><rect data-cppathid="10012" height="300.21" width="60" y="44.61" x="661.98" class="cls-3"/><path data-cppathid="10013" transform="translate(0 -1.12)" d="M1.5,69.62V50.08a5,5,0,0,1,5-5H717.58a5,5,0,0,1,5,5V69.62" class="cls-4"/><polygon data-cppathid="10014" points="340.17 43.97 346.06 35 351.91 43.97 340.17 43.97" class="cls-5"/><path data-cppathid="10015" transform="translate(0 -1.12)" d="M327.59,12.35h-.07l-3.86,2-.77-3.61,5.22-2.69h4V30.8h-4.55Z" class="cls-6"/><path data-cppathid="10016" transform="translate(0 -1.12)" d="M369.8,23.45v2.31H356.71v8h-2.38v-8h-16.6V23.45h5.89V13.82h10.71V8.08h-9a32.37,32.37,0,0,1-5.61,7.07,13.91,13.91,0,0,0-1.89-1.54c3.26-2.8,6.34-7.63,8.16-12.49l3,.94a.66.66,0,0,1-.81.32,33.34,33.34,0,0,1-1.57,3.39h21.56V8.08H356.71v5.74h10.64v2.24H356.71v7.39Zm-23.8,0h8.33V16.06H346Z" class="cls-6"/><path data-cppathid="10017" transform="translate(0 -1.12)" d="M24.06,55.2h1.13v8.28H26.7v1.15H22.06V63.48h1.62V57.09A5.65,5.65,0,0,1,22,58.41V57A6.22,6.22,0,0,0,24.06,55.2Z" class="cls-1"/><path data-cppathid="10018" transform="translate(0 -1.12)" d="M38.66,53.56V64.43c0,.73-.2,1-.72,1.22a11.74,11.74,0,0,1-3,.17,5.41,5.41,0,0,0-.4-1c.67,0,1.31,0,1.82,0,1.21,0,1.3,0,1.3-.44V61.31H30.75a8.06,8.06,0,0,1-2.58,4.54,3.32,3.32,0,0,0-.7-.7c2.41-2.05,2.64-5,2.64-7.27V53.56Zm-7.59,4.32a18.29,18.29,0,0,1-.16,2.52h6.77V57.88Zm6.61-3.39H31.07V57h6.61Z" class="cls-1"/><path data-cppathid="10019" transform="translate(0 -1.12)" d="M83.46,58.29,82.07,58a3.69,3.69,0,0,1,1-2.14,2.77,2.77,0,0,1,2-.73,2.68,2.68,0,0,1,2.05.77,2.72,2.72,0,0,1,.75,2,4.06,4.06,0,0,1-1.07,2.65,19.34,19.34,0,0,1-3.09,2.75h4.21l-.06,1.35H82.07V63.29a23.81,23.81,0,0,0,3.46-3.4A3.5,3.5,0,0,0,86.28,58a1.76,1.76,0,0,0-.35-1.12,1.17,1.17,0,0,0-1-.43C84.12,56.41,83.62,57,83.46,58.29Z" class="cls-1"/><path data-cppathid="10020" transform="translate(0 -1.12)" d="M99.84,53.56V64.43c0,.73-.2,1-.72,1.22a11.74,11.74,0,0,1-3,.17,4.84,4.84,0,0,0-.41-1c.68,0,1.32,0,1.83,0,1.21,0,1.3,0,1.3-.44V61.31H91.92a8,8,0,0,1-2.57,4.54,3.32,3.32,0,0,0-.7-.7c2.41-2.05,2.64-5,2.64-7.27V53.56Zm-7.59,4.32a18.29,18.29,0,0,1-.16,2.52h6.77V57.88Zm6.61-3.39H92.25V57h6.61Z" class="cls-1"/><path data-cppathid="10021" transform="translate(0 -1.12)" d="M141.61,57.7l-1.3-.3a2.77,2.77,0,0,1,2.88-2.27,2.86,2.86,0,0,1,2,.67,2.4,2.4,0,0,1,.72,1.84,2.13,2.13,0,0,1-1.45,2.09A2.13,2.13,0,0,1,146.18,62a2.6,2.6,0,0,1-.84,2.05,3.23,3.23,0,0,1-2.18.74,3.48,3.48,0,0,1-2-.59,2.76,2.76,0,0,1-1.06-1.91l1.33-.32c.22,1.07.78,1.6,1.67,1.6a1.53,1.53,0,0,0,1.05-.4,1.62,1.62,0,0,0,.45-1.27,1.58,1.58,0,0,0-.41-1.12,2,2,0,0,0-1.48-.43h-.59V59.22h.59a3.12,3.12,0,0,0,.92-.1,1.07,1.07,0,0,0,.55-.45,1.53,1.53,0,0,0,.23-.89,1.56,1.56,0,0,0-.34-1.07,1.17,1.17,0,0,0-.95-.4C142.33,56.31,141.84,56.77,141.61,57.7Z" class="cls-1"/><path data-cppathid="10022" transform="translate(0 -1.12)" d="M158,53.56V64.43c0,.73-.2,1-.72,1.22a11.78,11.78,0,0,1-3,.17,4.84,4.84,0,0,0-.41-1c.67,0,1.32,0,1.82,0,1.22,0,1.31,0,1.31-.44V61.31H150.1a8,8,0,0,1-2.57,4.54,3.37,3.37,0,0,0-.71-.7c2.41-2.05,2.65-5,2.65-7.27V53.56Zm-7.6,4.32a18.14,18.14,0,0,1-.15,2.52H157V57.88ZM157,54.49h-6.62V57H157Z" class="cls-1"/><path data-cppathid="10023" transform="translate(0 -1.12)" d="M206.76,55.13h1.77v6.08h1.17V62.4h-1.17v2.23H207V62.4h-3.64V61.27Zm.35,6.14V56.48l-2.5,4.79Z" class="cls-1"/><path data-cppathid="10024" transform="translate(0 -1.12)" d="M221.2,53.56V64.43c0,.73-.2,1-.72,1.22a11.78,11.78,0,0,1-3,.17,4.84,4.84,0,0,0-.41-1c.67,0,1.32,0,1.82,0,1.22,0,1.31,0,1.31-.44V61.31h-6.94a8,8,0,0,1-2.58,4.54,3.32,3.32,0,0,0-.7-.7c2.41-2.05,2.65-5,2.65-7.27V53.56Zm-7.6,4.32a18.14,18.14,0,0,1-.15,2.52h6.77V57.88Zm6.62-3.39H213.6V57h6.62Z" class="cls-1"/><path data-cppathid="10025" transform="translate(0 -1.12)" d="M263.39,55.3h4.85l-.14,1.35h-3.55l-.13,2.59a2,2,0,0,1,1.72-.87,2.33,2.33,0,0,1,1.87.82,4,4,0,0,1-.14,4.74,3,3,0,0,1-2.23.87,3,3,0,0,1-1.9-.61,2.7,2.7,0,0,1-1-1.8l1.37-.33c.21,1,.74,1.46,1.58,1.46,1,0,1.54-.66,1.54-2a2.25,2.25,0,0,0-.38-1.39,1.31,1.31,0,0,0-1.12-.5,1.48,1.48,0,0,0-1.46,1l-1.17-.25Z" class="cls-1"/><path data-cppathid="10026" transform="translate(0 -1.12)" d="M280.37,53.56V64.43c0,.73-.19,1-.71,1.22a11.83,11.83,0,0,1-3,.17,4.84,4.84,0,0,0-.41-1c.67,0,1.32,0,1.82,0,1.22,0,1.3,0,1.3-.44V61.31h-6.93a8,8,0,0,1-2.58,4.54,3.32,3.32,0,0,0-.7-.7c2.41-2.05,2.65-5,2.65-7.27V53.56Zm-7.59,4.32a19.84,19.84,0,0,1-.15,2.52h6.76V57.88Zm6.61-3.39h-6.61V57h6.61Z" class="cls-1"/><path data-cppathid="10027" transform="translate(0 -1.12)" d="M332,57.39l-1.28.4c-.22-1-.7-1.47-1.43-1.47a1.37,1.37,0,0,0-1.29.91A7.13,7.13,0,0,0,327.5,60a2,2,0,0,1,2-1.39,2.36,2.36,0,0,1,1.81.83,3.69,3.69,0,0,1-.05,4.5,2.87,2.87,0,0,1-4.32-.26,5.8,5.8,0,0,1-.85-3.5,6.71,6.71,0,0,1,.86-3.75,2.65,2.65,0,0,1,2.33-1.3,2.73,2.73,0,0,1,1.69.54A2.89,2.89,0,0,1,332,57.39Zm-1.41,4.3a2.33,2.33,0,0,0-.37-1.41,1.21,1.21,0,0,0-1-.47,1.31,1.31,0,0,0-1.13.54,2.29,2.29,0,0,0-.39,1.35,2.23,2.23,0,0,0,.4,1.37,1.31,1.31,0,0,0,1.09.53C330.08,63.6,330.55,63,330.55,61.69Z" class="cls-1"/><path data-cppathid="10028" transform="translate(0 -1.12)" d="M343.55,53.56V64.43c0,.73-.19,1-.71,1.22a11.83,11.83,0,0,1-3,.17,5.47,5.47,0,0,0-.41-1c.67,0,1.32,0,1.82,0,1.22,0,1.3,0,1.3-.44V61.31h-6.93a8,8,0,0,1-2.58,4.54,3.32,3.32,0,0,0-.7-.7c2.41-2.05,2.65-5,2.65-7.27V53.56ZM336,57.88a19.84,19.84,0,0,1-.15,2.52h6.76V57.88Zm6.61-3.39H336V57h6.61Z" class="cls-1"/><path data-cppathid="10029" transform="translate(0 -1.12)" d="M386.61,55.3H392v1.09a11.41,11.41,0,0,0-1.86,3.69,15.07,15.07,0,0,0-.69,4.55h-1.64a13,13,0,0,1,2.81-8h-4.13Z" class="cls-1"/><path data-cppathid="10030" transform="translate(0 -1.12)" d="M403.73,53.56V64.43c0,.73-.19,1-.71,1.22a11.83,11.83,0,0,1-3,.17,5.47,5.47,0,0,0-.41-1c.67,0,1.32,0,1.82,0,1.22,0,1.3,0,1.3-.44V61.31h-6.93a8,8,0,0,1-2.58,4.54,3.32,3.32,0,0,0-.7-.7c2.41-2.05,2.65-5,2.65-7.27V53.56Zm-7.59,4.32A19.84,19.84,0,0,1,396,60.4h6.76V57.88Zm6.61-3.39h-6.61V57h6.61Z" class="cls-1"/><path data-cppathid="10031" transform="translate(0 -1.12)" d="M447.62,59.58a2.68,2.68,0,0,1,1.75,2.49,2.56,2.56,0,0,1-.85,1.95,3.31,3.31,0,0,1-2.34.78,3.24,3.24,0,0,1-2.25-.7,2.37,2.37,0,0,1-.78-1.84,2.52,2.52,0,0,1,1.74-2.37,2.5,2.5,0,0,1-1.42-2.21,2.45,2.45,0,0,1,.75-1.82,2.9,2.9,0,0,1,2.12-.73,2.86,2.86,0,0,1,2,.66,2.28,2.28,0,0,1-.74,3.79Zm-1.63.88c-1,.41-1.44,1-1.44,1.7a1.43,1.43,0,0,0,.47,1.13,1.84,1.84,0,0,0,1.23.4,1.73,1.73,0,0,0,1.15-.38,1.24,1.24,0,0,0,.47-1,1.44,1.44,0,0,0-.38-1A4.39,4.39,0,0,0,446,60.46Zm.47-1.37c.85-.42,1.27-.94,1.27-1.56a1.26,1.26,0,0,0-.38-1,1.37,1.37,0,0,0-1-.38,1.44,1.44,0,0,0-1,.35,1.19,1.19,0,0,0-.39.92Q445,58.54,446.46,59.09Z" class="cls-1"/><path data-cppathid="10032" transform="translate(0 -1.12)" d="M460.91,53.56V64.43c0,.73-.19,1-.71,1.22a11.87,11.87,0,0,1-3,.17,5.41,5.41,0,0,0-.4-1c.67,0,1.31,0,1.82,0,1.22,0,1.3,0,1.3-.44V61.31H453a8.06,8.06,0,0,1-2.58,4.54,3.32,3.32,0,0,0-.7-.7c2.41-2.05,2.65-5,2.65-7.27V53.56Zm-7.59,4.32a18.29,18.29,0,0,1-.16,2.52h6.77V57.88Zm6.61-3.39h-6.61V57h6.61Z" class="cls-1"/><path data-cppathid="10033" transform="translate(0 -1.12)" d="M501.47,62.76l1.34-.4c.2.83.64,1.24,1.32,1.24a1.28,1.28,0,0,0,1.24-.91,7.37,7.37,0,0,0,.41-2.6,2,2,0,0,1-1.9,1.23,2.33,2.33,0,0,1-1.82-.84,3.21,3.21,0,0,1-.75-2.22A3.29,3.29,0,0,1,502.1,56a2.74,2.74,0,0,1,2.12-.87q3,0,3,4.41,0,5.26-3.19,5.26a2.61,2.61,0,0,1-1.61-.46A3.13,3.13,0,0,1,501.47,62.76Zm4.18-4.58a2.26,2.26,0,0,0-.38-1.34,1.23,1.23,0,0,0-1-.52,1.27,1.27,0,0,0-1,.49,2.14,2.14,0,0,0-.4,1.4,2.17,2.17,0,0,0,.37,1.34,1.24,1.24,0,0,0,1.05.49,1.21,1.21,0,0,0,1-.54A2.33,2.33,0,0,0,505.65,58.18Z" class="cls-1"/><path data-cppathid="10034" transform="translate(0 -1.12)" d="M519.09,53.56V64.43c0,.73-.19,1-.71,1.22a11.87,11.87,0,0,1-3,.17,5.41,5.41,0,0,0-.4-1c.67,0,1.31,0,1.82,0,1.22,0,1.3,0,1.3-.44V61.31h-6.93a8.06,8.06,0,0,1-2.58,4.54,3.32,3.32,0,0,0-.7-.7c2.41-2.05,2.65-5,2.65-7.27V53.56Zm-7.59,4.32a19.84,19.84,0,0,1-.15,2.52h6.76V57.88Zm6.61-3.39H511.5V57h6.61Z" class="cls-1"/><path data-cppathid="10035" transform="translate(0 -1.12)" d="M563.67,55.2h1.13v8.28h1.52v1.15h-4.65V63.48h1.62V57.09a5.6,5.6,0,0,1-1.66,1.32V57A6.28,6.28,0,0,0,563.67,55.2Z" class="cls-1"/><path data-cppathid="10036" transform="translate(0 -1.12)" d="M573.34,59.85a7,7,0,0,1-.77,3.78,2.55,2.55,0,0,1-2.27,1.17q-3,0-3-4.72a7,7,0,0,1,.78-3.79,2.56,2.56,0,0,1,2.26-1.16Q573.35,55.13,573.34,59.85Zm-1.59.11a8,8,0,0,0-.36-2.88,1.19,1.19,0,0,0-1.09-.82,1.18,1.18,0,0,0-1.08.81,7.93,7.93,0,0,0-.37,2.89,7.05,7.05,0,0,0,.41,3,1.18,1.18,0,0,0,1,.73,1.15,1.15,0,0,0,1.09-.83A7.94,7.94,0,0,0,571.75,60Z" class="cls-1"/><path data-cppathid="10037" transform="translate(0 -1.12)" d="M585,53.56V64.43c0,.73-.2,1-.72,1.22a11.74,11.74,0,0,1-3,.17,4.84,4.84,0,0,0-.41-1c.68,0,1.32,0,1.82,0,1.22,0,1.31,0,1.31-.44V61.31H577a8,8,0,0,1-2.57,4.54,3.32,3.32,0,0,0-.7-.7c2.41-2.05,2.64-5,2.64-7.27V53.56Zm-7.59,4.32a18.29,18.29,0,0,1-.16,2.52H584V57.88ZM584,54.49h-6.61V57H584Z" class="cls-1"/><path data-cppathid="10038" transform="translate(0 -1.12)" d="M623.85,55.2H625v8.28h1.52v1.15h-4.65V63.48h1.62V57.09a5.6,5.6,0,0,1-1.66,1.32V57A6.32,6.32,0,0,0,623.85,55.2Z" class="cls-1"/><path data-cppathid="10039" transform="translate(0 -1.12)" d="M630.33,55.2h1.12v8.28H633v1.15h-4.65V63.48h1.62V57.09a5.6,5.6,0,0,1-1.66,1.32V57A6.32,6.32,0,0,0,630.33,55.2Z" class="cls-1"/><path data-cppathid="10040" transform="translate(0 -1.12)" d="M644.93,53.56V64.43c0,.73-.2,1-.72,1.22a11.78,11.78,0,0,1-3,.17,4.84,4.84,0,0,0-.41-1c.68,0,1.32,0,1.82,0,1.22,0,1.31,0,1.31-.44V61.31H637a8,8,0,0,1-2.57,4.54,3.37,3.37,0,0,0-.71-.7c2.41-2.05,2.65-5,2.65-7.27V53.56Zm-7.6,4.32a18.14,18.14,0,0,1-.15,2.52H644V57.88ZM644,54.49h-6.62V57H644Z" class="cls-1"/><path data-cppathid="10041" transform="translate(0 -1.12)" d="M683,55.2h1.13v8.28h1.51v1.15H681V63.48h1.62V57.09A5.47,5.47,0,0,1,681,58.41V57A6.22,6.22,0,0,0,683,55.2Z" class="cls-1"/><path data-cppathid="10042" transform="translate(0 -1.12)" d="M688.32,58.29l-1.4-.29a3.76,3.76,0,0,1,1-2.14,2.73,2.73,0,0,1,2-.73,2.69,2.69,0,0,1,2.06.77,2.72,2.72,0,0,1,.75,2,4,4,0,0,1-1.08,2.65,18.49,18.49,0,0,1-3.09,2.75h4.22l-.07,1.35h-5.79V63.29a24,24,0,0,0,3.47-3.4,3.48,3.48,0,0,0,.74-1.93,1.71,1.71,0,0,0-.35-1.12,1.15,1.15,0,0,0-.95-.43C689,56.41,688.48,57,688.32,58.29Z" class="cls-1"/><path data-cppathid="10043" transform="translate(0 -1.12)" d="M704.7,53.56V64.43c0,.73-.2,1-.72,1.22a11.78,11.78,0,0,1-3,.17,4.84,4.84,0,0,0-.41-1c.67,0,1.32,0,1.82,0,1.22,0,1.31,0,1.31-.44V61.31h-6.94a8,8,0,0,1-2.58,4.54,3.32,3.32,0,0,0-.7-.7c2.41-2.05,2.65-5,2.65-7.27V53.56Zm-7.6,4.32A18.14,18.14,0,0,1,697,60.4h6.77V57.88Zm6.62-3.39H697.1V57h6.62Z" class="cls-1"/></g></g></svg>