<?xml version="1.0" encoding="UTF-8"?>
<svg xmlns="http://www.w3.org/2000/svg" onmouseup="{ if(window.parent.document.onmouseup) window.parent.document.onmouseup(arguments[0]);}" viewBox="0 0 725.05 232.74"><defs><style>.cls-1{fill:#ed6343;stroke:#993c29;}.cls-1,.cls-2,.cls-3,.cls-4,.cls-5,.cls-6,.cls-7{stroke-miterlimit:10;}.cls-1,.cls-2,.cls-3,.cls-4,.cls-5,.cls-6{stroke-width:3px;}.cls-2{fill:#ffd400;stroke:#ba6e00;}.cls-3{fill:#36c136;stroke:#21601c;}.cls-4{fill:#87f4f1;stroke:#16a6d8;}.cls-5{fill:#eaa0ea;stroke:#b749b7;}.cls-6{fill:#b272d3;stroke:#602d7a;}.cls-7{fill:none;stroke:#275da6;stroke-width:2px;}.cls-8{fill:#275da6;}.cls-9{fill:#231f20;}</style></defs><g data-name="Layer 2" id="Layer_2"><g data-name="waterfall jp" id="waterfall_jp"><rect data-cppathid="10000" rx="4.56" height="47.57" width="112.52" y="1.5" x="1.5" class="cls-1"/><rect data-cppathid="10001" rx="4.56" height="47.57" width="112.52" y="39.69" x="123.05" class="cls-2"/><rect data-cppathid="10002" rx="4.56" height="47.57" width="112.52" y="74.88" x="245.12" class="cls-3"/><rect data-cppathid="10003" rx="4.56" height="47.57" width="112.52" y="110.67" x="365.55" class="cls-4"/><rect data-cppathid="10004" rx="4.56" height="47.57" width="112.52" y="146.67" x="487.29" class="cls-5"/><rect data-cppathid="10005" rx="4.56" height="47.57" width="112.52" y="183.67" x="611.03" class="cls-6"/><path data-cppathid="10006" d="M122.3,4h13a15,15,0,0,1,15,15v9.59" class="cls-7"/><polygon data-cppathid="10007" points="156.19 23.8 150.3 32.77 144.45 23.8 156.19 23.8" class="cls-8"/><path data-cppathid="10008" d="M246.12,39.57h13a15,15,0,0,1,15,15v9.59" class="cls-7"/><polygon data-cppathid="10009" points="280 59.37 274.11 68.34 268.26 59.37 280 59.37" class="cls-8"/><path data-cppathid="10010" d="M365.91,76.35h13a15,15,0,0,1,15,15v9.59" class="cls-7"/><polygon data-cppathid="10011" points="399.79 96.15 393.9 105.12 388.05 96.15 399.79 96.15" class="cls-8"/><path data-cppathid="10012" d="M488.08,112.55h13a15,15,0,0,1,15,15v9.59" class="cls-7"/><polygon data-cppathid="10013" points="521.96 132.35 516.07 141.32 510.22 132.35 521.96 132.35" class="cls-8"/><path data-cppathid="10014" d="M609.25,148.61h13a15,15,0,0,1,15,15v9.59" class="cls-7"/><polygon data-cppathid="10015" points="643.14 168.41 637.25 177.38 631.39 168.41 643.14 168.41" class="cls-8"/><path data-cppathid="10016" d="M30.08,20.14c.15-.26.19-.32.35-.64H28.27c-.81,0-1.31,0-1.85.06,0-.53.06-.91.06-1.71v-1c0-.82,0-1.27-.06-1.78.52.05,1,.06,1.82.06h1.65v-.62H27.41c-.75,0-1.35,0-1.94.08V12.4a17.56,17.56,0,0,0,2.15.1H37.84A16,16,0,0,0,40,12.4v2.23c-.59-.05-1.17-.08-1.92-.08H35.49v.62h1.65A18.13,18.13,0,0,0,39,15.11a15.27,15.27,0,0,0-.07,1.76v.94c0,.88,0,1.33,0,1.75a16,16,0,0,0-1.81-.06H33.09c-.1.16-.16.3-.22.4l-.13.24H38A14.49,14.49,0,0,0,40,20.06v2.17A17,17,0,0,0,38,22.14H37a6.76,6.76,0,0,1-1.12,1.74c1.55.47,2.16.69,3.68,1.28l-1.46,2a36.31,36.31,0,0,0-4.16-1.73c-1.87,1-4,1.42-7.41,1.58a8.12,8.12,0,0,0-.91-2.14h1.09a15.22,15.22,0,0,0,4.11-.43c-1.68-.43-2.1-.53-3.58-.85.7-.69,1-1,1.39-1.45H27.38a17.31,17.31,0,0,0-1.94.09V20.06a15.55,15.55,0,0,0,1.94.08Zm-1.23-3.35v1.1h1v-1.1Zm2.48,5.35c-.14.17-.21.24-.42.46,1.91.42,1.91.42,2.45.58a4.15,4.15,0,0,0,.87-1Zm.83-7h1.06v-.62H32.16Zm0,2.72h1.06v-1.1H32.16Zm3.33,0h1.09v-1.1H35.49Z" class="cls-9"/><path data-cppathid="10017" d="M49.94,16.66a11.93,11.93,0,0,0,1.12,2.39,11.7,11.7,0,0,0,2.13-2.26l2,1.54-.94.94a21.86,21.86,0,0,1-1.86,1.57,12,12,0,0,0,3.84,2.83,9.79,9.79,0,0,0-1.47,2.42,14,14,0,0,1-2.74-2.24,12,12,0,0,1-2.25-3.17c0,.75,0,1.22,0,1.57v2.94a1.59,1.59,0,0,1-.71,1.56A4.1,4.1,0,0,1,47.2,27c-.67,0-1,0-1.79-.05a7,7,0,0,0-.61-2.35,16.82,16.82,0,0,0,2.07.16c.4,0,.51-.08.51-.38V22.26A37.78,37.78,0,0,1,43.54,25a9.92,9.92,0,0,0-1,.7l-1.18-2.48A20.77,20.77,0,0,0,46.53,20l.85,2.08V16.66H43.2a14.54,14.54,0,0,0-1.87.1V14.34a15.06,15.06,0,0,0,2,.1h4v-.58a11.4,11.4,0,0,0-.1-1.79h2.64a14.38,14.38,0,0,0-.09,1.82v.55H52a10,10,0,0,0-1.49-1.28l1.87-1.24a13.7,13.7,0,0,1,2,1.64L53,14.44h.86a15.46,15.46,0,0,0,2-.1v2.42a15,15,0,0,0-2-.1Zm-5.68.05a14.32,14.32,0,0,1,2.17,2.74L44.3,20.9a14.83,14.83,0,0,0-2-2.93Z" class="cls-9"/><path data-cppathid="10018" d="M61.6,19.43a7.4,7.4,0,0,0-1.09.07v-.9a14.88,14.88,0,0,1-2,1.78,9.82,9.82,0,0,0-1.64-2.26,12,12,0,0,0,4-4.56,5.09,5.09,0,0,0,.56-1.49l2.62,1a5.47,5.47,0,0,0-.41.81,21.37,21.37,0,0,1-2,3.37h6a15.56,15.56,0,0,1-2.06-3.52c-.1-.25-.21-.47-.31-.69l2.39-.92a6.24,6.24,0,0,0,.65,1.48,11.26,11.26,0,0,0,4.13,4.27,12.37,12.37,0,0,0-1.61,2.45,15.64,15.64,0,0,1-1.37-1.1c0,3.21-.24,5.39-.64,6.25s-1.2,1.24-3.18,1.24l-1.14,0a8.4,8.4,0,0,0-.69-2.56,12.7,12.7,0,0,0,1.7.14c.83,0,1-.11,1.19-.78a21.65,21.65,0,0,0,.27-4H64.59a8.89,8.89,0,0,1-5.41,7.62,9.82,9.82,0,0,0-1.58-2.18,6.79,6.79,0,0,0,3.73-2.94,5.29,5.29,0,0,0,.69-2.5Z" class="cls-9"/><path data-cppathid="10019" d="M75.25,13.59a9.15,9.15,0,0,0-.1-1.6H77.7a10.16,10.16,0,0,0-.1,1.6v1.1h.7a6.08,6.08,0,0,0,1-.08V17a6.11,6.11,0,0,0-1-.07h-.64a7.81,7.81,0,0,0,1.81,2.37,10.52,10.52,0,0,0-.93,2.26,8.88,8.88,0,0,1-1-1.5c0,.35,0,1,0,1.76v3.26a16,16,0,0,0,.1,2H75.17a18.55,18.55,0,0,0,.09-2v-1.9c0-.93,0-.93,0-1.84a10.77,10.77,0,0,1-1.43,2.57,12.15,12.15,0,0,0-1-2.61,11.17,11.17,0,0,0,2.21-4.37h-.56a6.19,6.19,0,0,0-1.15.08v-2.4a5.62,5.62,0,0,0,1.2.08h.69Zm10.93,3.23a16.82,16.82,0,0,0,1.94-.09v2.49a18,18,0,0,0-2-.09H86V25a17.67,17.67,0,0,0,.1,2.05H83.44a18,18,0,0,0,.1-2.05V19.13H82.15a18,18,0,0,1-.9,5.33,8.27,8.27,0,0,1-1.49,2.64,10.14,10.14,0,0,0-2.06-1.83,7,7,0,0,0,1.68-3.57,26.39,26.39,0,0,0,.35-5.45,21.42,21.42,0,0,0-.1-3.14H80a21.9,21.9,0,0,0,5-.73,5.69,5.69,0,0,0,1.22-.47l1.67,2.29-.18,0-.38.1a27.41,27.41,0,0,1-5.18.93v1.53Z" class="cls-9"/><path data-cppathid="10020" d="M162.11,57.66a7.75,7.75,0,0,0,1.3.08H167c.66,0,.94,0,1.3-.05v2.13a7.48,7.48,0,0,0-1.27,0h-3.6a9.11,9.11,0,0,0-1.3.07Zm6.29,4a6,6,0,0,0,1,.06A14.84,14.84,0,0,0,168,60.6v1.49a7.72,7.72,0,0,0-.93,0h-3.47a8,8,0,0,0-1,0V60.28a6.23,6.23,0,0,0,1,0h3.47a5,5,0,0,0,.88,0,2.58,2.58,0,0,0,.86-1,6.69,6.69,0,0,0,.44-2.8,5.69,5.69,0,0,0-.07-.94,9.93,9.93,0,0,0,1.27.06h3a10.92,10.92,0,0,0,1.33-.06c0,.33-.05.67-.05,1.18v2.24c0,.16.07.2.32.2.42,0,.44,0,.47-1.78a9.33,9.33,0,0,0,1.82.72c-.14,2.77-.41,3.15-2.22,3.15a5.09,5.09,0,0,1-2.15-.22c-.3-.15-.4-.39-.4-1V57.77h-1.09A5.33,5.33,0,0,1,170,61.72h4.32a8,8,0,0,0,1.06,0l1.12,1.08c-.11.23-.11.23-.32.76a12.79,12.79,0,0,1-1.9,3.31,11,11,0,0,0,3.09,1,12.85,12.85,0,0,0-1.06,2.4,14.36,14.36,0,0,1-3.91-1.65A13,13,0,0,1,169,70.21a8.77,8.77,0,0,0-1-1.73v.3a7,7,0,0,0,0,1.17h-2.2v-.43h-1.1v.66h-2.29c.05-.55.08-1.08.08-1.59V66a9.18,9.18,0,0,0-.06-1.2c.38,0,.65,0,1.18,0h3.4a4.52,4.52,0,0,0,1,0,9.61,9.61,0,0,0,0,1.06v2a10,10,0,0,0,2.43-1,19.6,19.6,0,0,1-1.76-2.14l1.75-.88h-.72a9.66,9.66,0,0,0-1.32.06Zm-5.81-6.27a13.69,13.69,0,0,0,1.46.06h2.48a13.69,13.69,0,0,0,1.46-.06v1.87c-.48,0-.77,0-1.46,0h-2.48c-.64,0-1,0-1.46,0Zm0,7.17a7.84,7.84,0,0,0,1,0h3.47a7.12,7.12,0,0,0,.93,0v1.81a6.16,6.16,0,0,0-1,0h-3.48a5.6,5.6,0,0,0-.92,0Zm2.09,5.09h1.15v-1h-1.15Zm6.18-3.73a8.39,8.39,0,0,0,1.38,1.61,6.74,6.74,0,0,0,1.13-1.61Z" class="cls-9"/><path data-cppathid="10021" d="M185.11,59.85c-.26,0-.55,0-1.17,0h-4.4a12.63,12.63,0,0,0-1.32.06V57.72a7,7,0,0,0,1.32.08h4.4a9,9,0,0,0,1.31-.06v2a17.67,17.67,0,0,0,1.89.08h.7V57.24a14,14,0,0,0-.09-2.05h2.7a13.65,13.65,0,0,0-.09,2.05V59.8h.75a16.91,16.91,0,0,0,2-.09V62.2c-.72-.06-1.28-.09-2-.09h-.73v5.58a21,21,0,0,0,.11,2.55h-2.74a19.92,19.92,0,0,0,.11-2.55V62.11h-.68c-.71,0-1.43,0-2,.09Zm-4,10.39h-2.35a13,13,0,0,0,.07-1.52V66.09a8.71,8.71,0,0,0-.07-1.18,10.7,10.7,0,0,0,1.15,0h3.94a6,6,0,0,0,1,0c0,.34,0,.71,0,1.19v2.5A13.14,13.14,0,0,0,184.8,70h-2.33V69.6h-1.4ZM178.8,55.45a11.53,11.53,0,0,0,1.47.06h2.95a11.27,11.27,0,0,0,1.46-.06v1.87c-.4,0-.79,0-1.46,0h-2.95c-.67,0-1.05,0-1.47,0Zm0,4.87a8.57,8.57,0,0,0,1,0h4a6.93,6.93,0,0,0,.91,0v1.82a7.45,7.45,0,0,0-.91,0h-4c-.48,0-.7,0-1,0Zm0,2.28c.28,0,.48,0,1,0h3.94a5.74,5.74,0,0,0,.93,0v1.83a8,8,0,0,0-1,0h-3.94a8.18,8.18,0,0,0-.93,0ZM181,67.69h1.47v-1H181Z" class="cls-9"/><path data-cppathid="10022" d="M280.31,103.59a22.4,22.4,0,0,0-2.74.1v-2.92a16.76,16.76,0,0,0,2.79.13h6.4V94.64h-6.21c-1.47,0-2.08,0-2.75.08V91.81a17,17,0,0,0,2.8.14h7.34c.87,0,1.32,0,1.78,0,0,.56-.05.84-.05,1.64v8.35a23.84,23.84,0,0,0,.1,2.64h-3v-.94Z" class="cls-9"/><path data-cppathid="10023" d="M292.28,96.31a23.07,23.07,0,0,0,3.28.14h7.65a26.75,26.75,0,0,0,3.28-.14V99.4a30.57,30.57,0,0,0-3.3-.1h-7.62c-1.79,0-2.32,0-3.29.1Z" class="cls-9"/><path data-cppathid="10024" d="M309.78,104.9c.06-.67.08-1.13.1-2.45V93.14a16.41,16.41,0,0,0-.12-2.32h3.09a18.36,18.36,0,0,0-.08,2.33v2.2a33.63,33.63,0,0,1,7.29,3.33l-1.52,2.72a30,30,0,0,0-5.05-2.79,4.55,4.55,0,0,1-.57-.24.37.37,0,0,1-.15-.08v4.16a20.63,20.63,0,0,0,.1,2.45ZM317,91.71A11.8,11.8,0,0,1,318.6,94l-1.52.74a11,11,0,0,0-1.58-2.34Zm2.12-1A11.28,11.28,0,0,1,320.75,93l-1.48.72a12.24,12.24,0,0,0-1.57-2.29Z" class="cls-9"/><path data-cppathid="10025" d="M408.36,135.54a19.12,19.12,0,0,1-.53,4.91l-1.63-.85a14.43,14.43,0,0,0,.54-4.29Zm-2-2.87a9.4,9.4,0,0,0,1.16.06h.37l.37-.51a18.42,18.42,0,0,0-2-2.4l1.06-2,.45.48a11.24,11.24,0,0,0,1-2.39l2.08.77a3.77,3.77,0,0,0-.3.56,26.41,26.41,0,0,1-1.44,2.58c.17.22.19.24.4.49a15.27,15.27,0,0,0,1.44-2.67l1.82,1c-.22.34-.25.37-.65,1-.26.4-.63,1-1.17,1.76l1.53-.53a22.86,22.86,0,0,1,.77,2.4v-2.05c.52.05,1.12.08,1.86.08h.66v-1.25h-1a15.67,15.67,0,0,0-1.89.08v-2.35a13.68,13.68,0,0,0,1.91.1h1v-.61a10.54,10.54,0,0,0-.08-1.12h2.54a6.66,6.66,0,0,0-.1,1.15V128h1.36a14.1,14.1,0,0,0,1.93-.1v2.35c-.58,0-1.16-.08-1.93-.08h-1.36v1.25h1.06c.74,0,1.35,0,1.86-.08v2.32c-.5,0-1.12-.08-1.81-.08H415c-.61,0-.95,0-1.73.07.08.32.08.32.17.77.36,0,.82,0,1.41,0h4.39c.73,0,1.17,0,1.53-.05a14.12,14.12,0,0,0-.06,1.57v3.41a17.45,17.45,0,0,0,.08,1.84H418.3v-.67h-2.67v.69h-2.42a15.17,15.17,0,0,0,.06-1.61V136c0-.66,0-1,0-1.26l-1.44.51c-.05-.29-.08-.4-.12-.61a8,8,0,0,1-.83.06v4.79a10.09,10.09,0,0,0,.1,1.78h-2.36a10.3,10.3,0,0,0,.1-1.78v-4.63l-.51,0-1.67.13Zm3.68,0c.59,0,.73,0,1.21-.08-.11-.37-.14-.46-.36-1.1C410.44,132.13,410.34,132.25,410,132.7Zm2.59,2.56a40,40,0,0,1,.3,4.1l-1.52.24v-.7a24.88,24.88,0,0,0-.19-3.33Zm3,3h2.67v-1.74h-2.67Z" class="cls-9"/><path data-cppathid="10026" d="M425.42,131.92a16.35,16.35,0,0,1-2.15,1,8.39,8.39,0,0,0-1.2-2.35,12.56,12.56,0,0,0,3.71-1.83,9.37,9.37,0,0,0,2.66-2.57h2.61a9.24,9.24,0,0,0,2.74,2.51,13.39,13.39,0,0,0,3.76,1.78,8.88,8.88,0,0,0-1.12,2.51,15.58,15.58,0,0,1-2.16-1v.88a13.28,13.28,0,0,0-1.54-.06H426.9a14.07,14.07,0,0,0-1.48.06Zm-1.4,9.2a12.47,12.47,0,0,0,.1-1.79v-4a15.34,15.34,0,0,0-.08-1.7c.37,0,.83,0,1.54,0H434c.7,0,1.17,0,1.55,0a11.23,11.23,0,0,0-.08,1.7v4a10.85,10.85,0,0,0,.09,1.78H433v-.66H426.6v.66Zm2.58-2.88H433V136H426.6Zm5.54-7.68a12.76,12.76,0,0,1-2.35-2.21,11.55,11.55,0,0,1-2.26,2.21Z" class="cls-9"/><path data-cppathid="10027" d="M531.15,169.71a8.17,8.17,0,0,1-1.15,4.13,8,8,0,0,1-4.29,3.25,7.32,7.32,0,0,0-1.87-2.53c2.93-.86,4.19-2.29,4.32-4.85h-3.28a22.56,22.56,0,0,0-2.42.08V167.1a13.72,13.72,0,0,0,2.47.13h8.91a17.27,17.27,0,0,0,2.55-.11v2.67a21.27,21.27,0,0,0-2.5-.08ZM524.09,163a13.77,13.77,0,0,0,2.49.13h5.6a13.87,13.87,0,0,0,2.56-.13v2.7a20.77,20.77,0,0,0-2.51-.08h-5.7a21.92,21.92,0,0,0-2.44.08Z" class="cls-9"/><path data-cppathid="10028" d="M549.12,176.75a25.62,25.62,0,0,0-4.59-4.54,17.39,17.39,0,0,1-5.89,4.38,8.52,8.52,0,0,0-1.79-2.53,15,15,0,0,0,5.18-3.23,12.79,12.79,0,0,0,3.22-4.71l-4.16.07a18.12,18.12,0,0,0-2.55.16l-.08-2.85a12,12,0,0,0,1.68.11h.9l5.47-.08a3,3,0,0,0,1.29-.18l1.4,1.44a2.54,2.54,0,0,0-.57.94,18.66,18.66,0,0,1-2.36,4.33,37,37,0,0,1,5.09,4.33Z" class="cls-9"/><path data-cppathid="10029" d="M554.29,176.69a24.45,24.45,0,0,0,.09-2.45v-9.32a14.77,14.77,0,0,0-.11-2.32h3.09a21.89,21.89,0,0,0-.08,2.34v2.19a33.91,33.91,0,0,1,7.28,3.33L563,173.18a29.56,29.56,0,0,0-5-2.78,5,5,0,0,1-.72-.32v4.16a21.81,21.81,0,0,0,.1,2.45Z" class="cls-9"/><path data-cppathid="10030" d="M642.82,199.94a17.87,17.87,0,0,0-.08,2.14v3.19a19.51,19.51,0,0,0,.08,2.29h-3.11a16.54,16.54,0,0,0,.1-2.34v-3.17a15.92,15.92,0,0,0-.1-2.11Zm7.44,0c-.06.9-.08,1.14-.08,2.16V204a20.65,20.65,0,0,1-.37,4.66,6.58,6.58,0,0,1-3.33,4.07,13.76,13.76,0,0,1-3.33,1.31,7.41,7.41,0,0,0-1.63-2.74,10.16,10.16,0,0,0,3.17-1,4.09,4.09,0,0,0,2.38-3.1,26.2,26.2,0,0,0,.18-3.39v-1.67a15.34,15.34,0,0,0-.1-2.19Z" class="cls-9"/><path data-cppathid="10031" d="M656.82,199.94a17.87,17.87,0,0,0-.08,2.14v3.19a19.51,19.51,0,0,0,.08,2.29h-3.11a16.54,16.54,0,0,0,.1-2.34v-3.17a15.92,15.92,0,0,0-.1-2.11Zm7.44,0c-.06.9-.08,1.14-.08,2.16V204a20.65,20.65,0,0,1-.37,4.66,6.58,6.58,0,0,1-3.33,4.07,13.76,13.76,0,0,1-3.33,1.31,7.41,7.41,0,0,0-1.63-2.74,10.16,10.16,0,0,0,3.17-1,4.09,4.09,0,0,0,2.38-3.1,26.2,26.2,0,0,0,.18-3.39v-1.67a15.34,15.34,0,0,0-.1-2.19Z" class="cls-9"/><path data-cppathid="10032" d="M666.86,205.09a21.34,21.34,0,0,0,3.28.15h7.66a24.7,24.7,0,0,0,3.28-.15v3.09a31.58,31.58,0,0,0-3.3-.09h-7.62c-1.79,0-2.32,0-3.3.09Z" class="cls-9"/><path data-cppathid="10033" d="M693.84,213.75a25.62,25.62,0,0,0-4.59-4.54,17.39,17.39,0,0,1-5.89,4.38,8.52,8.52,0,0,0-1.79-2.53,15,15,0,0,0,5.18-3.23,12.79,12.79,0,0,0,3.22-4.71l-4.16.07a18.12,18.12,0,0,0-2.55.16l-.08-2.85a12,12,0,0,0,1.68.11h.9l5.47-.08a3,3,0,0,0,1.28-.18l1.41,1.44a2.54,2.54,0,0,0-.57.94,18.66,18.66,0,0,1-2.36,4.33,37,37,0,0,1,5.09,4.33Z" class="cls-9"/></g></g></svg>