<?xml version="1.0" encoding="UTF-8"?>
<svg xmlns="http://www.w3.org/2000/svg" onmouseup="{ if(window.parent.document.onmouseup) window.parent.document.onmouseup(arguments[0]);}" viewBox="0 0 852.08 301.71"><defs><style>.cls-1,.cls-2,.cls-3,.cls-4{fill:#2760a6;}.cls-1{opacity:0.12;}.cls-2{opacity:0.16;}.cls-3{opacity:0.09;}.cls-4{stroke:#0c3f77;stroke-miterlimit:10;stroke-width:3px;}.cls-5{fill:#fff;}</style></defs><g data-name="Layer 2" id="Layer_2"><g data-name="Layer 14 copy" id="Layer_14_copy"><g data-name="Sprint Calendar jp" id="Sprint_Calendar_jp"><rect data-cppathid="10000" height="300.21" width="271" y="1.5" x="2.8" class="cls-1"/><rect data-cppathid="10001" height="300.21" width="283" y="1.5" x="273.8" class="cls-2"/><rect data-cppathid="10002" height="300.21" width="293.18" y="1.5" x="556.8" class="cls-3"/><path data-cppathid="10003" d="M1.5,26V6.5a5,5,0,0,1,5-5H845.58a5,5,0,0,1,5,5V26" class="cls-4"/><path data-cppathid="10004" d="M144.62,21.45H139v-1.4H141V12.28a5.33,5.33,0,0,1-.77.8,8,8,0,0,1-1.24.82V12.15a10.45,10.45,0,0,0,1.36-.94A7.76,7.76,0,0,0,141.41,10h1.38V20.05h1.83Z" class="cls-5"/><path data-cppathid="10005" d="M159.31,8V21.21c0,.88-.24,1.27-.87,1.48a14.38,14.38,0,0,1-3.62.2,6,6,0,0,0-.49-1.2c.81,0,1.6,0,2.21,0,1.48,0,1.58,0,1.58-.53V17.42h-8.41a9.78,9.78,0,0,1-3.13,5.51,4,4,0,0,0-.85-.85c2.92-2.49,3.21-6,3.21-8.83V8Zm-9.21,5.23a23.28,23.28,0,0,1-.19,3.06h8.21V13.25Zm8-4.11h-8v3h8Z" class="cls-5"/><path data-cppathid="10006" d="M415.06,13.39a6.4,6.4,0,0,1,1-2.39,3,3,0,0,1,2.65-1.1,3.23,3.23,0,0,1,2.54,1,3.47,3.47,0,0,1,.86,2.37,5,5,0,0,1-1,2.87,18.79,18.79,0,0,1-4,3.69h5.12l-.07,1.65h-7.06V19.82c.76-.65,1.55-1.36,2.38-2.14a14.68,14.68,0,0,0,1.75-1.88,6.17,6.17,0,0,0,.75-1.28,3,3,0,0,0,.24-1.16A2.39,2.39,0,0,0,419.8,12a1.37,1.37,0,0,0-1.22-.57,1.49,1.49,0,0,0-1.22.57,3.44,3.44,0,0,0-.6,1.73Z" class="cls-5"/><path data-cppathid="10007" d="M436.65,8V21.21c0,.88-.23,1.27-.86,1.48a14.38,14.38,0,0,1-3.62.2,6.67,6.67,0,0,0-.5-1.2c.82,0,1.6,0,2.21,0,1.48,0,1.58,0,1.58-.53V17.42h-8.41a9.72,9.72,0,0,1-3.13,5.51,3.81,3.81,0,0,0-.85-.85c2.93-2.49,3.21-6,3.21-8.83V8Zm-9.21,5.23a21.67,21.67,0,0,1-.19,3.06h8.21V13.25Zm8-4.11h-8v3h8Z" class="cls-5"/><path data-cppathid="10008" d="M675.43,12.66a3.86,3.86,0,0,1,1.28-2.07,4,4,0,0,1,4.63.1,2.8,2.8,0,0,1,.91,2.26,2.4,2.4,0,0,1-.49,1.66,4.24,4.24,0,0,1-1.28.87,3.78,3.78,0,0,1,.83.33,2.1,2.1,0,0,1,.68.63,2.54,2.54,0,0,1,.45.92,3.76,3.76,0,0,1,.11.91,3.08,3.08,0,0,1-1,2.5,4,4,0,0,1-2.65.88,5.09,5.09,0,0,1-1.53-.24,2.81,2.81,0,0,1-1.26-.78,3.23,3.23,0,0,1-.66-1,5.39,5.39,0,0,1-.27-1l1.61-.4a2.89,2.89,0,0,0,.71,1.48,1.81,1.81,0,0,0,1.31.46,1.91,1.91,0,0,0,1.3-.47,2,2,0,0,0,.52-1.52,1.85,1.85,0,0,0-.52-1.44,2.6,2.6,0,0,0-1.77-.48h-.72V14.87h.94a3.58,3.58,0,0,0,.7-.06,1.47,1.47,0,0,0,.58-.28,1.35,1.35,0,0,0,.44-.6,2.37,2.37,0,0,0,.13-.81,2,2,0,0,0-.39-1.27,1.4,1.4,0,0,0-1.17-.5,1.46,1.46,0,0,0-1.24.5A3.47,3.47,0,0,0,677,13Z" class="cls-5"/><path data-cppathid="10009" d="M696.92,8V21.21c0,.88-.24,1.27-.87,1.48a14.38,14.38,0,0,1-3.62.2,6.6,6.6,0,0,0-.49-1.2c.81,0,1.6,0,2.21,0,1.48,0,1.58,0,1.58-.53V17.42h-8.42a9.7,9.7,0,0,1-3.12,5.51,4,4,0,0,0-.85-.85c2.92-2.49,3.21-6,3.21-8.83V8Zm-9.21,5.23a23.28,23.28,0,0,1-.19,3.06h8.21V13.25Zm8-4.11h-8v3h8Z" class="cls-5"/><path data-cppathid="10010" d="M702.09,19.32v2.13H700.2V19.32Z" class="cls-5"/><path data-cppathid="10011" d="M706.15,19.32v2.13h-1.89V19.32Z" class="cls-5"/><path data-cppathid="10012" d="M710.21,19.32v2.13h-1.88V19.32Z" class="cls-5"/></g></g></g></svg>