<?xml version="1.0" encoding="UTF-8"?>
<svg xmlns="http://www.w3.org/2000/svg" onmouseup="{ if(window.parent.document.onmouseup) window.parent.document.onmouseup(arguments[0]);}" viewBox="0 0 750.72 279.29" xmlns:xlink="http://www.w3.org/1999/xlink"><defs><style>.cls-1{isolation:isolate;}.cls-2{fill:#d7d7d7;}.cls-3{fill:url(#linear-gradient);}.cls-15,.cls-39,.cls-4,.cls-47,.cls-61,.cls-63{fill:none;}.cls-4,.cls-9{stroke:#7f0e03;}.cls-10,.cls-11,.cls-14,.cls-15,.cls-39,.cls-4,.cls-67,.cls-9{stroke-miterlimit:10;}.cls-11,.cls-15,.cls-39,.cls-4{stroke-width:3px;}.cls-5{fill:#c69c6d;}.cls-16,.cls-40,.cls-6{opacity:0.09;mix-blend-mode:overlay;}.cls-6{fill:url(#linear-gradient-2);}.cls-7{fill:#231f20;}.cls-10,.cls-11,.cls-8{fill:#fff;}.cls-9{fill:#7f0e03;stroke-width:11px;}.cls-10,.cls-11,.cls-12,.cls-13,.cls-17,.cls-19,.cls-20,.cls-21,.cls-22,.cls-23,.cls-24,.cls-25,.cls-27,.cls-28,.cls-29,.cls-30,.cls-31,.cls-32,.cls-33,.cls-34,.cls-35,.cls-36,.cls-9{fill-rule:evenodd;}.cls-10,.cls-11{stroke:#1f1a17;}.cls-10,.cls-43,.cls-44,.cls-45,.cls-46,.cls-47{stroke-width:2px;}.cls-12{fill:#1f1a17;}.cls-13{fill:#171717;}.cls-14{stroke:#7d02aa;fill:url(#linear-gradient-3);}.cls-15{stroke:#5c1f7c;}.cls-16{fill:url(#linear-gradient-4);}.cls-17,.cls-18{fill:#502672;stroke:#502672;stroke-width:9px;}.cls-19{fill:url(#linear-gradient-5);}.cls-20{fill:url(#linear-gradient-6);}.cls-21{fill:url(#linear-gradient-7);}.cls-22{fill:url(#GradientFill_37);}.cls-23{fill:url(#linear-gradient-8);}.cls-24{fill:url(#linear-gradient-9);}.cls-25,.cls-26{fill:#6f6054;}.cls-27{fill:url(#GradientFill_41);}.cls-28{fill:url(#GradientFill_41-2);}.cls-29{fill:url(#GradientFill_35);}.cls-30{fill:url(#GradientFill_35-2);}.cls-31{fill:url(#GradientFill_42);}.cls-32{fill:url(#GradientFill_43);}.cls-33{fill:url(#GradientFill_44);}.cls-34{fill:url(#GradientFill_44-2);}.cls-35{fill:url(#linear-gradient-10);}.cls-36{fill:url(#GradientFill_46);}.cls-37{fill:#5a097f;}.cls-38{fill:url(#linear-gradient-11);}.cls-39,.cls-42{stroke:#d86c00;}.cls-40{fill:url(#linear-gradient-12);}.cls-41{fill:#c66a05;}.cls-42{fill:#d86c00;stroke-linecap:round;stroke-linejoin:round;stroke-width:10px;}.cls-43,.cls-44,.cls-45,.cls-46,.cls-47{stroke:#b28732;}.cls-43{fill:url(#linear-gradient-13);}.cls-44{fill:url(#linear-gradient-14);}.cls-45{fill:url(#linear-gradient-15);}.cls-46{fill:url(#linear-gradient-16);}.cls-48{fill:#322612;}.cls-49{fill:#363b35;}.cls-50{fill:#292d27;opacity:0.59;}.cls-51{fill:#fcc388;}.cls-52{fill:#ddb23a;}.cls-52,.cls-61{stroke:#7b5120;stroke-width:1.05px;}.cls-53{fill:#eba061;}.cls-54{fill:#7d7c66;}.cls-55{fill:#545147;}.cls-56{fill:#fcc287;}.cls-57,.cls-58{stroke:#000;}.cls-57{stroke-width:0.66px;}.cls-58{stroke-width:0.86px;}.cls-59{fill:#7b5120;}.cls-60{fill:#ffcc52;}.cls-62{fill:#555e53;}.cls-63{stroke:#2e332d;stroke-width:3.15px;}.cls-64{fill:#dae2d6;}.cls-65{fill:#2e332d;}.cls-66{fill:#738070;}.cls-67{fill:#684d1e;stroke:#322612;}</style><linearGradient gradientUnits="userSpaceOnUse" y2="28.17" x2="612.25" y1="258.94" x1="612.25" id="linear-gradient"><stop stop-color="#8c0000" offset="0"/><stop stop-color="#a1170e" offset="0.11"/><stop stop-color="#b32a1a" offset="0.24"/><stop stop-color="#bf3823" offset="0.39"/><stop stop-color="#c74028" offset="0.58"/><stop stop-color="#c94229" offset="0.92"/><stop stop-color="#8c0000" offset="1"/></linearGradient><linearGradient gradientUnits="userSpaceOnUse" y2="62.85" x2="515.87" y1="142.75" x1="614.53" id="linear-gradient-2"><stop stop-color="#fff" offset="0"/><stop stop-opacity="0.91" stop-color="#fff" offset="0.05"/><stop stop-opacity="0.67" stop-color="#fff" offset="0.2"/><stop stop-opacity="0.47" stop-color="#fff" offset="0.35"/><stop stop-opacity="0.3" stop-color="#fff" offset="0.5"/><stop stop-opacity="0.17" stop-color="#fff" offset="0.64"/><stop stop-opacity="0.08" stop-color="#fff" offset="0.77"/><stop stop-opacity="0.02" stop-color="#fff" offset="0.9"/><stop stop-opacity="0" stop-color="#fff" offset="1"/></linearGradient><linearGradient gradientUnits="userSpaceOnUse" y2="28.43" x2="87.36" y1="259.2" x1="87.36" id="linear-gradient-3"><stop stop-color="#40005c" offset="0"/><stop stop-color="#480a64" offset="0.03"/><stop stop-color="#60287c" offset="0.12"/><stop stop-color="#74428f" offset="0.22"/><stop stop-color="#84559e" offset="0.33"/><stop stop-color="#8f63a9" offset="0.46"/><stop stop-color="#956baf" offset="0.62"/><stop stop-color="#976db1" offset="0.92"/><stop stop-color="#663082" offset="1"/></linearGradient><linearGradient xlink:href="#linear-gradient-2" y2="63.83" x2="-7.2" y1="143.72" x1="91.46" id="linear-gradient-4"/><linearGradient gradientUnits="userSpaceOnUse" y2="207.43" x2="22.85" y1="-5.81" x1="316.35" id="linear-gradient-5"><stop stop-color="#9b8a7a" offset="0"/><stop stop-color="#9b8a7a" offset="0.06"/><stop stop-color="#804f36" offset="0.95"/></linearGradient><linearGradient gradientUnits="userSpaceOnUse" y2="180.05" x2="94.56" y1="123.94" x1="75.24" id="linear-gradient-6"><stop stop-color="#804f36" offset="0.13"/><stop stop-color="#9b8a7a" offset="0.73"/><stop stop-color="#804f36" offset="1"/></linearGradient><linearGradient xlink:href="#linear-gradient-6" y2="187.86" x2="87.74" y1="103.95" x1="116.63" id="linear-gradient-7"/><linearGradient gradientUnits="userSpaceOnUse" y2="132.25" x2="109.78" y1="133.03" x1="65.01" id="GradientFill_37"><stop stop-color="#6f6054" offset="0"/><stop stop-color="#a1a190" offset="1"/></linearGradient><linearGradient gradientUnits="userSpaceOnUse" y2="160.49" x2="53.78" y1="84.46" x1="138.22" id="linear-gradient-8"><stop stop-color="#804f36" offset="0.36"/><stop stop-color="#9b8a7a" offset="0.82"/><stop stop-color="#804f36" offset="1"/></linearGradient><linearGradient xlink:href="#linear-gradient-8" y2="171.96" x2="100.94" y1="66.94" x1="262.65" id="linear-gradient-9"/><linearGradient gradientUnits="userSpaceOnUse" y2="144.89" x2="101.03" y1="148.31" x1="94.32" id="GradientFill_41"><stop stop-color="#6b372c" offset="0"/><stop stop-color="#d2953b" offset="0.36"/><stop stop-color="#c68538" offset="0.78"/><stop stop-color="#74342f" offset="1"/></linearGradient><linearGradient xlink:href="#GradientFill_41" y2="145.34" x2="104.59" y1="148.31" x1="98.75" id="GradientFill_41-2"/><linearGradient gradientUnits="userSpaceOnUse" y2="148.02" x2="96.23" y1="146.86" x1="95.81" id="GradientFill_35"><stop stop-color="#73635b" offset="0"/><stop stop-color="#9b8a7a" offset="0.47"/><stop stop-color="#9b8a7a" offset="1"/></linearGradient><linearGradient xlink:href="#GradientFill_35" y2="146.63" x2="103.4" y1="145.48" x1="102.98" id="GradientFill_35-2"/><linearGradient gradientUnits="userSpaceOnUse" y2="-781.77" x2="1786.99" y1="624.83" x1="-750.59" id="GradientFill_42"><stop stop-color="#73635b" offset="0"/><stop stop-color="#54514e" offset="0.18"/><stop stop-color="#9b8a7a" offset="0.66"/><stop stop-color="#9b8a7a" offset="1"/></linearGradient><linearGradient gradientUnits="userSpaceOnUse" y2="123.36" x2="173.52" y1="195.9" x1="90.08" id="GradientFill_43"><stop stop-color="#73635b" offset="0"/><stop stop-color="#9b8a7a" offset="0.41"/><stop stop-color="#9b8a7a" offset="1"/></linearGradient><linearGradient gradientUnits="userSpaceOnUse" y2="2907.03" x2="1422.77" y1="-2632" x1="-1278.79" id="GradientFill_44"><stop stop-color="#73635b" offset="0"/><stop stop-color="#9b8a7a" offset="0.66"/><stop stop-color="#9b8a7a" offset="1"/></linearGradient><linearGradient xlink:href="#GradientFill_44" y2="164.76" x2="130.9" y1="157.76" x1="127.49" id="GradientFill_44-2"/><linearGradient gradientUnits="userSpaceOnUse" y2="167.62" x2="1.74" y1="157.33" x1="148.91" id="linear-gradient-10"><stop stop-color="#5c008b" offset="0.01"/><stop stop-color="#5f0c8c" offset="0.02"/><stop stop-color="#65228e" offset="0.04"/><stop stop-color="#69338f" offset="0.08"/><stop stop-color="#6c3e90" offset="0.11"/><stop stop-color="#6e4591" offset="0.17"/><stop stop-color="#6e4791" offset="0.32"/><stop stop-color="#1c0054" offset="1"/></linearGradient><linearGradient gradientUnits="userSpaceOnUse" y2="162.77" x2="36.61" y1="158.56" x1="84.77" id="GradientFill_46"><stop stop-color="#73635b" offset="0"/><stop stop-color="#87776c" offset="0.33"/><stop stop-color="#9b8a7a" offset="0.74"/><stop stop-color="#5a5a57" offset="1"/></linearGradient><linearGradient gradientUnits="userSpaceOnUse" y2="28.15" x2="349.69" y1="258.93" x1="349.69" id="linear-gradient-11"><stop stop-color="#d06b00" offset="0"/><stop stop-color="#da7d00" offset="0.06"/><stop stop-color="#e79600" offset="0.17"/><stop stop-color="#f2a900" offset="0.29"/><stop stop-color="#f9b700" offset="0.43"/><stop stop-color="#febf00" offset="0.6"/><stop stop-color="#ffc100" offset="0.92"/><stop stop-color="#d06b00" offset="1"/></linearGradient><linearGradient xlink:href="#linear-gradient-2" y2="62.85" x2="254.77" y1="142.75" x1="353.43" id="linear-gradient-12"/><linearGradient gradientUnits="userSpaceOnUse" y2="149.42" x2="389.47" y1="149.42" x1="327.04" id="linear-gradient-13"><stop stop-color="#ebd04f" offset="0"/><stop stop-color="#fff0a2" offset="1"/></linearGradient><linearGradient xlink:href="#linear-gradient-13" y2="154.94" x2="360.27" y1="154.94" x1="318.4" id="linear-gradient-14"/><linearGradient gradientUnits="userSpaceOnUse" gradientTransform="matrix(0.91, 0.48, -0.52, 0.98, 618.3, -2866.77)" y2="2490.73" x2="1156.53" y1="2490.73" x1="1130.83" id="linear-gradient-15"><stop stop-color="#ffd073" offset="0"/><stop stop-color="#fff0a2" offset="1"/></linearGradient><linearGradient xlink:href="#linear-gradient-15" gradientTransform="matrix(1, 0, 0, 1, 0, 0)" y2="127.35" x2="360.79" y1="127.35" x1="339.52" id="linear-gradient-16"/></defs><g class="cls-1"><g data-name="Layer 2" id="Layer_2"><g data-name="Layer 7 copy" id="Layer_7_copy"><path data-cppathid="10000" d="M750.72,258.2c0,3.76-50.7,6.81-113.24,6.81S524.23,262,524.23,258.2s50.7-6.8,113.25-6.8S750.72,254.44,750.72,258.2Z" class="cls-2"/><rect data-cppathid="10001" height="230.77" width="166.81" y="28.17" x="528.85" class="cls-3"/><rect data-cppathid="10002" height="218.36" width="154.17" y="33.99" x="534.85" class="cls-4"/><path data-cppathid="10003" d="M611.18,191.69a4.2,4.2,0,0,0,.67.07l.06-.11C611.68,191.67,611.44,191.69,611.18,191.69Z" class="cls-5"/><path data-cppathid="10004" d="M602.7,185.39a2.11,2.11,0,0,1,0-.26s0,0,0,0Z"/><path data-cppathid="10005" d="M625.41,190.4h0Z"/><path data-cppathid="10006" d="M625.53,190.5c-.06-.1,0,0,0-.11A.3.3,0,0,1,625.53,190.5Z"/><path data-cppathid="10007" d="M623.92,194.69h0Z"/><path data-cppathid="10008" d="M610.79,192l-.07,0Z"/><path data-cppathid="10009" d="M621.26,194.31s0,0,0-.05S621.25,194.3,621.26,194.31Z"/><path data-cppathid="10010" d="M607,191.58l.13,0Z"/><path data-cppathid="10011" d="M604.86,192l-.21.07Z"/><path data-cppathid="10012" d="M603.76,191.93c.19,0,.62,0,.57.07s-.06,0-.15.08-.39-.08-.42-.14Z"/><path data-cppathid="10013" d="M602.22,192.34a.82.82,0,0,1,.53-.18C601.91,192.38,603.27,192.17,602.22,192.34Z"/><path data-cppathid="10014" d="M601.27,197v0Z"/><path data-cppathid="10015" d="M603.1,104.84C565.24,151.81,537,238.49,537,238.49V36.77H679.42S641.49,57.21,603.1,104.84Z" class="cls-6"/><path data-cppathid="10016" d="M578.4,78.52c-.5.49-1,.93-1.52,1.39a28.41,28.41,0,0,1-10.27,5.71c-.25.06-.37,0-.37-.19s0-.15.16-.25a48.15,48.15,0,0,0,8.49-7.28,29.86,29.86,0,0,0,5.3-7.23,3.14,3.14,0,0,0,.5-1.21c0-.31-.12-.43-.47-.71a6.05,6.05,0,0,0-.68-.5.31.31,0,0,1-.21-.27c0-.1.06-.19.21-.25a4.55,4.55,0,0,1,1.65-.34,5.09,5.09,0,0,1,2.38,1c1.06.71,1.89,1.36,1.89,2.26,0,.38-.18.65-.68.84s-.62.43-1.36,1.33c-1,1.24-2,2.45-3,3.6a5.25,5.25,0,0,1,.65.5c.71.59,1.09.93,1.09,1.27a1,1,0,0,1-.22.68c-.19.28-.16.37-.16,1.36,0,4.56.22,8,.22,10.36,0,1.64-.68,2.23-1.77,2.23-.8,0-1.3-.34-1.82-1.45a6.92,6.92,0,0,1-.72-2.45,2.38,2.38,0,0,1,.31-1.21,2.91,2.91,0,0,0,.28-1.27c.09-1.83.13-4.53.13-7.54Z" class="cls-7"/><path data-cppathid="10017" d="M597.3,75.45a3.46,3.46,0,0,1,2.7-1.34,5.93,5.93,0,0,1,3.32,1.28c2.35,1.51,5.86,4.06,8.28,5.58.37.24.68.43,1,.62a3.92,3.92,0,0,1,1.33,1,5.14,5.14,0,0,1,1.55,3.19,1.72,1.72,0,0,1-1.86,1.8c-1,0-2.14-.74-3.41-2.11a113.5,113.5,0,0,0-9-8.46c-.68-.59-1-.72-1.3-.72s-.59.22-1,.9c-.59,1-1.49,2.58-2.45,4.38-.37.71-.5,1.27-.72,1.67a1.54,1.54,0,0,1-1.36.68,4.87,4.87,0,0,1-2.54-1c-.87-.56-1.77-1.43-1.77-2.29a3.35,3.35,0,0,1,0-.5c0-.25.16-.34.31-.34a.51.51,0,0,1,.25.09,2.66,2.66,0,0,0,1.52.68c.31,0,1.11-.68,1.95-1.73C595.35,77.49,596.44,76.35,597.3,75.45Zm12.75-3a2.1,2.1,0,0,1,1.18,1.74A1.32,1.32,0,0,1,610,75.54c-.44,0-.81-.19-1.18-.84a6.63,6.63,0,0,0-2.45-2.63c-.16-.06-.22-.16-.22-.25s.09-.19.31-.19A6.76,6.76,0,0,1,610.05,72.41Zm0-3a6,6,0,0,1,2.63.5A2.07,2.07,0,0,1,614,71.7a1.18,1.18,0,0,1-1.09,1.3c-.4,0-.71-.13-1.21-.84a6.19,6.19,0,0,0-2.57-2.26c-.16-.06-.22-.16-.22-.25s.09-.16.28-.19S609.8,69.43,610.08,69.43Z" class="cls-7"/><path data-cppathid="10018" d="M618.29,73.28c0-.13.09-.19.28-.22a9.78,9.78,0,0,1,5.55.87,3.63,3.63,0,0,1,2.26,3,2.05,2.05,0,0,1-2.23,2.29c-1,0-1.67-.65-2.2-1.89a7.25,7.25,0,0,0-3.41-3.81C618.38,73.49,618.29,73.4,618.29,73.28Zm7,16.06c-.59.52-.87.71-1.3.71a5,5,0,0,1-2.83-1.67A4.85,4.85,0,0,1,619.69,86a4.21,4.21,0,0,1,.34-1.43c.09-.18.15-.28.24-.28s.19.1.28.22a4.39,4.39,0,0,0,.75.84,1.78,1.78,0,0,0,1.12.52,12.28,12.28,0,0,0,3.13-1.36,44.83,44.83,0,0,0,8.83-6.7,59.84,59.84,0,0,0,7.13-8.15.31.31,0,0,1,.22-.13c.09,0,.16.07.16.19a.94.94,0,0,1-.07.31,28.87,28.87,0,0,1-5.58,10,39.81,39.81,0,0,1-9,8A14.15,14.15,0,0,0,625.3,89.34Z" class="cls-7"/><path data-cppathid="10019" d="M650.59,85.09c0,1.43.16,3.47.16,5s-.74,2.3-1.83,2.3c-.74,0-1.3-.53-1.74-1.37a5.71,5.71,0,0,1-.8-2.45,2.9,2.9,0,0,1,.31-1.27,4.22,4.22,0,0,0,.22-1.64c.06-2.42.09-5.15.21-7.82,0-1.76,0-3.62,0-5.55s-.09-2.2-.59-2.63a3.45,3.45,0,0,0-1-.65c-.15-.1-.25-.19-.25-.28s.1-.19.22-.28a3.78,3.78,0,0,1,1.77-.65,5.47,5.47,0,0,1,2.6,1c.93.62,1.55,1.15,1.55,1.89,0,.28,0,.44-.4.72s-.47.55-.53,1.64c-.06,1.3-.06,2.6,0,3.78a10.75,10.75,0,0,1,5.95,1.49c1.31.9,2.36,1.89,2.36,3.5a2.08,2.08,0,0,1-2.08,2.3c-1.05,0-1.79-.62-2.32-1.89a8,8,0,0,0-3.91-4.47C650.5,80.25,650.56,82.55,650.59,85.09Z" class="cls-7"/><path data-cppathid="10020" d="M577.42,75.7c-.5.5-1,.93-1.52,1.4a28.2,28.2,0,0,1-10.26,5.7c-.25.06-.37,0-.37-.18s0-.16.15-.25a48.69,48.69,0,0,0,8.5-7.29,30.27,30.27,0,0,0,5.3-7.22,3.14,3.14,0,0,0,.49-1.21c0-.31-.12-.44-.46-.71a5.76,5.76,0,0,0-.68-.5.31.31,0,0,1-.22-.28c0-.09.06-.19.22-.25a4.72,4.72,0,0,1,1.64-.34,5,5,0,0,1,2.39,1.06c1,.71,1.89,1.36,1.89,2.26,0,.37-.19.65-.68.84s-.62.43-1.37,1.33c-1,1.24-2,2.45-3,3.6a7.33,7.33,0,0,1,.65.49c.71.59,1.08.93,1.08,1.27a1.05,1.05,0,0,1-.21.69c-.19.27-.16.37-.16,1.36,0,4.56.22,8,.22,10.36,0,1.64-.69,2.23-1.77,2.23-.81,0-1.3-.34-1.83-1.46a7,7,0,0,1-.71-2.45,2.32,2.32,0,0,1,.31-1.21,3.18,3.18,0,0,0,.28-1.27c.09-1.83.12-4.53.12-7.53Z" class="cls-8"/><path data-cppathid="10021" d="M596.33,72.63A3.43,3.43,0,0,1,599,71.3a5.89,5.89,0,0,1,3.31,1.27c2.36,1.52,5.86,4.06,8.28,5.58.38.25.69.44,1,.62a4.44,4.44,0,0,1,1.33,1,5.23,5.23,0,0,1,1.55,3.2,1.73,1.73,0,0,1-1.86,1.8c-1,0-2.14-.75-3.41-2.11a117.23,117.23,0,0,0-9-8.47c-.68-.59-1-.71-1.3-.71s-.59.22-1,.9c-.59,1-1.49,2.57-2.45,4.37-.37.71-.49,1.27-.71,1.68a1.58,1.58,0,0,1-1.36.68,5,5,0,0,1-2.55-1c-.86-.56-1.76-1.43-1.76-2.3a3.23,3.23,0,0,1,0-.49c0-.25.15-.35.31-.35a.58.58,0,0,1,.25.1,2.67,2.67,0,0,0,1.52.68c.3,0,1.11-.68,2-1.74C594.38,74.68,595.46,73.53,596.33,72.63Zm12.74-3a2.1,2.1,0,0,1,1.18,1.74,1.32,1.32,0,0,1-1.21,1.4c-.43,0-.8-.19-1.18-.84a6.59,6.59,0,0,0-2.45-2.64c-.15-.06-.21-.15-.21-.24s.09-.19.31-.19A6.8,6.8,0,0,1,609.07,69.59Zm0-3a6.06,6.06,0,0,1,2.64.49,2.08,2.08,0,0,1,1.3,1.77,1.17,1.17,0,0,1-1.08,1.3c-.41,0-.72-.12-1.21-.83a6.25,6.25,0,0,0-2.58-2.27c-.15-.06-.21-.15-.21-.25s.09-.15.28-.18S608.83,66.62,609.1,66.62Z" class="cls-8"/><path data-cppathid="10022" d="M617.32,70.46c0-.12.09-.18.27-.21a8.37,8.37,0,0,1,1.34-.1,9.61,9.61,0,0,1,4.22,1,3.65,3.65,0,0,1,2.26,3,2.06,2.06,0,0,1-2.23,2.3c-1,0-1.68-.65-2.2-1.89a7.28,7.28,0,0,0-3.42-3.82C617.41,70.68,617.32,70.59,617.32,70.46Zm7,16.06c-.59.53-.86.72-1.3.72a5,5,0,0,1-2.82-1.68,4.81,4.81,0,0,1-1.49-2.42,4.11,4.11,0,0,1,.34-1.42c.1-.19.16-.28.25-.28s.19.09.28.22a4.31,4.31,0,0,0,.74.83,1.82,1.82,0,0,0,1.12.53,12.35,12.35,0,0,0,3.13-1.36,45.28,45.28,0,0,0,8.84-6.7,60,60,0,0,0,7.13-8.16.26.26,0,0,1,.22-.12c.09,0,.15.06.15.19a1,1,0,0,1-.06.31,28.9,28.9,0,0,1-5.58,10,40.09,40.09,0,0,1-9,8A16.13,16.13,0,0,0,624.32,86.52Z" class="cls-8"/><path data-cppathid="10023" d="M649.62,82.28c0,1.42.16,3.47.16,5S649,89.56,648,89.56c-.75,0-1.31-.53-1.74-1.36a5.82,5.82,0,0,1-.81-2.45,3,3,0,0,1,.31-1.27,4.09,4.09,0,0,0,.22-1.65c.06-2.41.09-5.14.22-7.81,0-1.77,0-3.63,0-5.55s-.1-2.2-.59-2.64a4.28,4.28,0,0,0-1-.65c-.16-.09-.25-.18-.25-.28s.09-.18.22-.27A3.67,3.67,0,0,1,646.3,65a5.54,5.54,0,0,1,2.61,1c.93.62,1.55,1.15,1.55,1.89,0,.28,0,.43-.41.71s-.46.56-.52,1.65c-.06,1.3-.06,2.6,0,3.78a10.69,10.69,0,0,1,6,1.49c1.3.9,2.36,1.89,2.36,3.5a2.08,2.08,0,0,1-2.08,2.29c-1.06,0-1.8-.62-2.33-1.89A8,8,0,0,0,649.5,75C649.53,77.44,649.59,79.73,649.62,82.28Z" class="cls-8"/><path data-cppathid="10024" d="M597.26,116.52l38.52.56a2,2,0,0,1,2,2l-.87,59.5a2,2,0,0,1-2,2L596.34,180a2,2,0,0,1-2-2l.87-59.5A2,2,0,0,1,597.26,116.52Z" class="cls-9"/><path data-cppathid="10025" d="M590.46,132.17,623,128.3a1.68,1.68,0,0,1,1.88,1.48l6,50.2a1.71,1.71,0,0,1-1.48,1.88l-32.5,3.88a1.7,1.7,0,0,1-1.88-1.48l-6-50.2A1.71,1.71,0,0,1,590.46,132.17Z" class="cls-9"/><path data-cppathid="10026" d="M579.43,145.55l27.18-18.22a1.7,1.7,0,0,1,2.35.46l28.15,42a1.7,1.7,0,0,1-.46,2.35l-27.19,18.22a1.7,1.7,0,0,1-2.35-.46L579,147.9A1.71,1.71,0,0,1,579.43,145.55Z" class="cls-9"/><path data-cppathid="10027" d="M579.43,145.55l27.19-18.22a1.69,1.69,0,0,1,2.34.46l28.15,42a1.7,1.7,0,0,1-.46,2.35l-27.19,18.22a1.7,1.7,0,0,1-2.35-.46L579,147.9A1.7,1.7,0,0,1,579.43,145.55Z" class="cls-10"/><path data-cppathid="10028" d="M590.46,132.17,623,128.3a1.68,1.68,0,0,1,1.88,1.48l6,50.2a1.69,1.69,0,0,1-1.47,1.88l-32.5,3.88a1.7,1.7,0,0,1-1.88-1.48l-6-50.2A1.71,1.71,0,0,1,590.46,132.17Z" class="cls-10"/><path data-cppathid="10029" d="M597.26,116.52l38.52.56a2,2,0,0,1,2,2l-.87,59.5a2,2,0,0,1-2,2L596.34,180a2,2,0,0,1-2-2l.87-59.5A2,2,0,0,1,597.26,116.52Z" class="cls-11"/><path data-cppathid="10030" d="M599.51,125.74h.35l1.67-5.19H602c.5,1.73,1,3.48,1.51,5.22h.36v.58l-1.75,0v-.57h.79l-.36-1.24-1.7,0-.41,1.26h.7v.58l-1.64,0v-.57Zm2.25-4-.71,2.2,1.35,0Z" class="cls-12"/><path data-cppathid="10031" d="M631.29,169.92h-.35l-1.67,5.19h-.49l-1.51-5.21-.36,0v-.58l1.75,0v.58l-.79,0,.36,1.24,1.7,0,.41-1.26h-.69v-.58l1.65,0v.58Zm-2.25,4,.71-2.21-1.35,0Z" class="cls-12"/><path data-cppathid="10032" d="M604,130.1c-.09-.27-1.86-2.92-2-3.2v0h0v0c-.19.27-2,2.87-2.13,3.13a1.27,1.27,0,0,0,.12,1.14,1.29,1.29,0,0,0,.8.5,1,1,0,0,0,.45-.06,1.11,1.11,0,0,0,.48-1,3.06,3.06,0,0,1-.35,1.52,1,1,0,0,1-.08.11l.65,0c.14,0,.64,0,.64,0a.63.63,0,0,1-.07-.12,3.08,3.08,0,0,1-.31-1.52,1.11,1.11,0,0,0,.45,1,1.32,1.32,0,0,0,.45.08,1.29,1.29,0,0,0,.81-.49A1.21,1.21,0,0,0,604,130.1Z" class="cls-13"/><path data-cppathid="10033" d="M626.83,151.21c-.44-1.38-9.55-15-10.53-16.49v-.14l0,.07,0-.07v.14c-1,1.43-10.52,14.81-11,16.18s-.79,4.22.62,5.83,3,2.6,4.1,2.61a5.52,5.52,0,0,0,2.35-.31c1.13-.69,2.29-2.1,2.45-5,0,0,.13,5-1.82,7.82a3.88,3.88,0,0,1-.39.6s2.6-.18,3.34-.17,3.33.26,3.33.26a3.54,3.54,0,0,1-.38-.61c-1.86-2.91-1.59-7.86-1.59-7.86.07,2.9,1.19,4.34,2.31,5.06a5.62,5.62,0,0,0,2.33.39c1.12,0,2.73-.92,4.18-2.49S627.3,152.67,626.83,151.21Z" class="cls-13"/><path data-cppathid="10034" d="M627.22,165.53c.09.27,1.85,2.91,2,3.2v0c.2-.28,2-2.87,2.13-3.14a1.22,1.22,0,0,0-.12-1.13,1.3,1.3,0,0,0-.79-.51,1.24,1.24,0,0,0-.46.06,1.12,1.12,0,0,0-.47,1,3,3,0,0,1,.35-1.51.36.36,0,0,1,.08-.12s-.51,0-.65,0-.64,0-.64,0,0,.08.07.12a3.06,3.06,0,0,1,.3,1.53,1.12,1.12,0,0,0-.44-1,1.06,1.06,0,0,0-.45-.07,1.35,1.35,0,0,0-.82.48A1.26,1.26,0,0,0,627.22,165.53Z" class="cls-13"/><path data-cppathid="10035" d="M551.72,270.24c0,5-26.94,9.05-60.18,9.05s-60.19-4.05-60.19-9.05,26.95-9,60.19-9S551.72,265.25,551.72,270.24Z" class="cls-2"/><path data-cppathid="10036" d="M226.49,259c0,3.76-50.7,6.81-113.25,6.81S0,262.72,0,259s50.7-6.8,113.24-6.8S226.49,255.2,226.49,259Z" class="cls-2"/><rect data-cppathid="10037" height="230.77" width="166.81" y="28.43" x="3.96" class="cls-14"/><rect data-cppathid="10038" height="218.36" width="154.17" y="34.25" x="9.96" class="cls-15"/><path data-cppathid="10039" d="M80,105.81c-37.86,47-66.11,133.66-66.11,133.66V37.74H156.36S118.42,58.18,80,105.81Z" class="cls-16"/><path data-cppathid="10040" d="M60.69,147.71h0s-12,.6-19,7.56-6.86,11.8-4.54,16.64,6,9.19,12.71,10.9,17.46,2.83,31.08.61,40.75-11.61,40.75-11.61,13.85-4.44,14.68-7.61,0-4.09-2.67-5-11.5-1.66-11.5-1.66-6.36-1.26-7.11-1.47a8,8,0,0,1-1.36-.54c.06.89.09,1.55.09,1.55l.41,3.33s-15.94,7.07-26.74,8.17-23.91-1-26.83-3.93-1.72-7.06-1.72-7.06S60,152.3,60.69,147.71Z" class="cls-17"/><path data-cppathid="10041" d="M59,157.59s2.47-12.51,2.47-15.74a30.14,30.14,0,0,1,1.16-7.37,9,9,0,0,1,1.56-3.38c1.47-1.46,4-3.57,13.17-4.33s16,1.56,18.26,1.66,5.14,2,6.81,2.22,5.35.45,6.25.91,1-.46,2.17,6.05,2,12.61,2.43,13.82a39,39,0,0,1,.6,5.65l.4,3.33s-15.94,7.07-26.73,8.17-23.91-1-26.84-3.93S59,157.59,59,157.59Z" class="cls-17"/><path data-cppathid="10042" d="M109.83,133c.24.82.52,2.21.94,4.57,1.16,6.51,2,12.61,2.42,13.82a39,39,0,0,1,.6,5.65l.41,3.33a142,142,0,0,1-19,6.69,6.48,6.48,0,0,1,3.34-2.65,33.57,33.57,0,0,0,9.48-4.74c2-1.72,2-4.44,1.11-7.06s-.3-6.77-1-11.41-2.93-2.21-6-2.11c-1.84.06-7,.89-10.06.9a3.47,3.47,0,0,1-2.65-.8s3.63-.41,9.08-1.21S109.83,133,109.83,133Z" class="cls-17"/><path data-cppathid="10043" d="M95.28,129s-5.8-.91-8.07-1a69.78,69.78,0,0,0-7.77-.51c-3.58.1-10.84,1.77-12.41,3.13-6.22,5.42,2.63,6.84,5.82,7a64.67,64.67,0,0,0,13.4-.89c6.86-1.21,18.77-3.27,19.62-4.08s-3-.81-4.54-1.57A23.85,23.85,0,0,0,95.28,129Z" class="cls-17"/><path data-cppathid="10044" d="M95.41,129.1s-5.73-.87-8-1a69.27,69.27,0,0,0-7.68-.48c-3.53.09-10.71,1.69-12.25,3-6.15,5.2,2.59,6.56,5.74,6.71a65.29,65.29,0,0,0,13.24-.86c6.78-1.16,18.54-3.14,19.39-3.92s-3-.77-4.49-1.5A24,24,0,0,0,95.41,129.1Z" class="cls-17"/><path data-cppathid="10045" d="M122.11,171.67c2.39-.8,13.49-4.64,14.23-7.47.83-3.18,0-4.09-2.67-5s-11.5-1.66-11.5-1.66-6.36-1.26-7.11-1.47a8,8,0,0,1-1.36-.54c.06.89.09,1.55.09,1.55l.41,3.33s-15.94,7.07-26.74,8.17c-1.63.17-3.31.27-5,.29a72.91,72.91,0,0,0,25,4A83.05,83.05,0,0,0,122.11,171.67Z" class="cls-17"/><path data-cppathid="10046" d="M36.36,162.77A22.67,22.67,0,0,0,44,167c5.55,1.61,11.6-.71,14.12-1.51a6.06,6.06,0,0,0,2.14-1.23,7.73,7.73,0,0,1-1.33-6.64s1.05-5.29,1.78-9.88h0s-12,.6-19,7.56A21.43,21.43,0,0,0,36.36,162.77Z" class="cls-17"/><path data-cppathid="10047" d="M97,148.44A1.23,1.23,0,1,0,96,147.22,1.16,1.16,0,0,0,97,148.44Z" class="cls-17"/><path data-cppathid="10048" d="M104.2,147.05a1.22,1.22,0,1,0-1.07-1.22A1.15,1.15,0,0,0,104.2,147.05Z" class="cls-17"/><path data-cppathid="10049" d="M97.09,148.44a1.24,1.24,0,1,0-1-1.22A1.13,1.13,0,0,0,97.09,148.44Z" class="cls-17"/><path data-cppathid="10050" d="M104.26,147.05a1.24,1.24,0,1,0-1-1.22A1.12,1.12,0,0,0,104.26,147.05Z" class="cls-17"/><path data-cppathid="10051" d="M97.09,147.86a.58.58,0,0,0,.53-.64.59.59,0,0,0-.53-.65.6.6,0,0,0-.53.65A.59.59,0,0,0,97.09,147.86Z" class="cls-17"/><ellipse data-cppathid="10052" ry="0.64" rx="0.53" cy="145.83" cx="104.26" class="cls-18"/><path data-cppathid="10053" d="M60.69,147.71c-3.08.33-12.65,1.22-19,7.56s-6.86,11.8-4.54,16.64,6,9.19,12.71,10.9,17.46,2.83,31.08.61,40.75-11.61,40.75-11.61,13.85-4.44,14.68-7.61,0-4.09-2.67-5A43.25,43.25,0,0,0,127,158c2.81.86,3.79,1.06,5.31,2.12s1.81,2.62-.31,4.79-16.09,7.57-32.33,11.61-28.6,5.19-38,4.84-15.48-3.84-17.8-6a15.66,15.66,0,0,1-4.39-10.8c.15-4,5-9.13,8.48-11.4s9-3.28,12.46-3.95C60.53,148.67,60.6,148.28,60.69,147.71Z" class="cls-17"/><path data-cppathid="10054" d="M136.66,162c-.07-1.52-1-2.17-3-2.83A43.25,43.25,0,0,0,127,158c2.81.86,3.79,1.06,5.31,2.12s1.81,2.62-.31,4.79a13.21,13.21,0,0,1-3.38,2h0C131,165.85,135.63,164.71,136.66,162Z" class="cls-17"/><path data-cppathid="10055" d="M60.69,147.71c-.28,0-1.66.16-2,.21-6.1,1.85-9.33,3.17-11.93,4.85-4.43,2.87-8.6,7.61-8.76,11.78a16.13,16.13,0,0,0,4.54,11.14c2.39,2.25,8.69,5.84,18.38,6.21s22.46-.84,39.23-5,31.21-9.74,33.39-12,1.88-3.85.32-4.95a9.79,9.79,0,0,0-2.71-1.34c-1.27-.22-2.74-.41-4.11-.58,2.81.86,3.79,1.06,5.31,2.12s1.81,2.62-.31,4.79-16.09,7.57-32.33,11.61-28.6,5.19-38,4.84-15.48-3.84-17.8-6a15.66,15.66,0,0,1-4.39-10.8c.15-4,5-9.13,8.48-11.4s9-3.28,12.46-3.95C60.53,148.67,60.6,148.28,60.69,147.71Z" class="cls-17"/><path data-cppathid="10056" d="M133.87,164.51c1.78-2,1.42-3.52-.05-4.55a9.79,9.79,0,0,0-2.71-1.34c-1.27-.22-2.74-.41-4.11-.58,2.81.86,3.79,1.06,5.31,2.12s1.81,2.62-.31,4.79a13.21,13.21,0,0,1-3.38,2h0C128.92,166.84,131.75,165.64,133.87,164.51Z" class="cls-17"/><path data-cppathid="10057" d="M59.33,155.84s6.14,5.28,13.4,6.19c4.43.55,11.89.06,17.8-.64,8.66-1,15.19-4.17,23.06-8a43.68,43.68,0,0,1,1.06,5.54,2.76,2.76,0,0,1-.45,1.51,90.46,90.46,0,0,1-23.69,8.17c-7.65,1.51-15.43.47-20.91-.38-4.34-.67-7.23-.86-10.48-5.12C57.56,161,58.78,158.15,59.33,155.84Z" class="cls-17"/><path data-cppathid="10058" d="M59.41,163.44c-.1-.11-.19-.24-.29-.36-1.12-1.46-.81-3.36-.34-5.16a1.87,1.87,0,0,1,1,3A2.85,2.85,0,0,0,59.41,163.44Z" class="cls-17"/><path data-cppathid="10059" d="M59.61,147.93h0s-12,.59-19,7.56-6.86,11.8-4.54,16.64,6,9.18,12.72,10.9,17.45,2.82,31.07.6S120.59,172,120.59,172s13.85-4.44,14.68-7.62,0-4.08-2.67-5-11.51-1.66-11.51-1.66-6.35-1.27-7.11-1.47a7.92,7.92,0,0,1-1.35-.54c.06.89.09,1.55.09,1.55l.4,3.33s-15.94,7.06-26.73,8.17-23.91-1-26.84-3.93-1.71-7.06-1.71-7.06S58.88,152.52,59.61,147.93Z" class="cls-19"/><path data-cppathid="10060" d="M57.91,157.81s2.47-12.51,2.47-15.74a29.64,29.64,0,0,1,1.17-7.37,9,9,0,0,1,1.56-3.38c1.46-1.46,4-3.57,13.16-4.33s16,1.56,18.27,1.66,5.14,2,6.8,2.22,5.35.45,6.26.91,1-.46,2.17,6.05,2,12.61,2.42,13.82a38.83,38.83,0,0,1,.6,5.65l.41,3.33s-15.94,7.06-26.74,8.17-23.91-1-26.83-3.93S57.91,157.81,57.91,157.81Z" class="cls-20"/><path data-cppathid="10061" d="M108.76,133.25c.23.83.51,2.22.93,4.58,1.16,6.51,2,12.61,2.43,13.82a38.83,38.83,0,0,1,.6,5.65l.4,3.33a142.22,142.22,0,0,1-19,6.69,6.44,6.44,0,0,1,3.34-2.65,33.7,33.7,0,0,0,9.48-4.74c2-1.72,2-4.44,1.11-7.07s-.3-6.76-1-11.4-2.93-2.22-5.95-2.12c-1.85.07-7,.9-10.06.91a3.44,3.44,0,0,1-2.65-.81s3.63-.4,9.08-1.2S108.75,133.26,108.76,133.25Z" class="cls-21"/><path data-cppathid="10062" d="M94.21,129.26s-5.8-.91-8.07-1a69.78,69.78,0,0,0-7.77-.51c-3.58.1-10.85,1.77-12.41,3.13-6.22,5.42,2.63,6.84,5.81,7A64.77,64.77,0,0,0,85.18,137c6.86-1.21,18.76-3.28,19.62-4.08s-3-.81-4.54-1.57A24,24,0,0,0,94.21,129.26Z" class="cls-22"/><path data-cppathid="10063" d="M94.34,129.32s-5.73-.87-8-1a71.17,71.17,0,0,0-7.67-.49c-3.54.1-10.71,1.7-12.26,3-6.14,5.2,2.6,6.56,5.74,6.71a66.07,66.07,0,0,0,13.25-.86c6.77-1.16,18.53-3.14,19.38-3.92s-3-.77-4.48-1.5A24.29,24.29,0,0,0,94.34,129.32Z" class="cls-23"/><path data-cppathid="10064" d="M121,171.88c2.39-.79,13.49-4.63,14.23-7.47.83-3.17,0-4.08-2.67-5s-11.51-1.66-11.51-1.66-6.35-1.27-7.11-1.47a7.92,7.92,0,0,1-1.35-.54c.06.89.09,1.55.09,1.55l.4,3.33s-15.94,7.06-26.73,8.17c-1.63.17-3.32.27-5,.29a72.91,72.91,0,0,0,25,4A83.19,83.19,0,0,0,121,171.88Z" class="cls-24"/><path data-cppathid="10065" d="M96,148.66a1.23,1.23,0,1,0-1.07-1.22A1.16,1.16,0,0,0,96,148.66Z" class="cls-25"/><ellipse data-cppathid="10066" ry="1.22" rx="1.07" cy="146.05" cx="103.12" class="cls-26"/><path data-cppathid="10067" d="M96,148.66a1.24,1.24,0,1,0-1-1.22A1.13,1.13,0,0,0,96,148.66Z" class="cls-27"/><path data-cppathid="10068" d="M103.19,147.27a1.24,1.24,0,1,0-1-1.22A1.12,1.12,0,0,0,103.19,147.27Z" class="cls-28"/><path data-cppathid="10069" d="M96,148.08a.66.66,0,1,0-.54-.64A.6.6,0,0,0,96,148.08Z" class="cls-29"/><path data-cppathid="10070" d="M103.19,146.7a.66.66,0,1,0-.54-.65A.6.6,0,0,0,103.19,146.7Z" class="cls-30"/><path data-cppathid="10071" d="M59.61,147.93c-3.07.32-12.65,1.21-19,7.56s-6.86,11.8-4.54,16.64,6,9.18,12.72,10.9,17.45,2.82,31.07.6S120.59,172,120.59,172s13.85-4.44,14.68-7.62,0-4.08-2.67-5a43.64,43.64,0,0,0-6.68-1.16c2.82.86,3.8,1.06,5.31,2.12s1.82,2.62-.3,4.79-16.09,7.57-32.33,11.6-28.61,5.2-38,4.85-15.49-3.84-17.81-6a15.66,15.66,0,0,1-4.39-10.79c.16-4,5-9.13,8.48-11.4s9-3.28,12.47-3.95C59.46,148.89,59.52,148.5,59.61,147.93Z" class="cls-31"/><path data-cppathid="10072" d="M135.58,162.24c-.06-1.51-1-2.16-3-2.82a43.64,43.64,0,0,0-6.68-1.16c2.82.86,3.8,1.06,5.31,2.12s1.82,2.62-.3,4.79a13.63,13.63,0,0,1-3.39,2h0C129.94,166.07,134.55,164.93,135.58,162.24Z" class="cls-32"/><path data-cppathid="10073" d="M59.61,147.93c-.28,0-1.66.16-2,.21-6.1,1.85-9.34,3.17-11.94,4.85-4.43,2.87-8.6,7.61-8.75,11.78a16.12,16.12,0,0,0,4.53,11.14c2.4,2.24,8.7,5.84,18.39,6.2s22.45-.83,39.23-5,31.2-9.74,33.39-12,1.88-3.85.31-4.95a9.39,9.39,0,0,0-2.71-1.34c-1.26-.22-2.73-.41-4.11-.58,2.82.86,3.8,1.06,5.31,2.12s1.82,2.62-.3,4.79-16.09,7.57-32.33,11.6-28.61,5.2-38,4.85-15.49-3.84-17.81-6a15.66,15.66,0,0,1-4.39-10.79c.16-4,5-9.13,8.48-11.4s9-3.28,12.47-3.95C59.46,148.89,59.52,148.5,59.61,147.93Z" class="cls-33"/><path data-cppathid="10074" d="M132.8,164.73c1.78-2,1.41-3.52-.06-4.55a9.39,9.39,0,0,0-2.71-1.34c-1.26-.22-2.73-.41-4.11-.58,2.82.86,3.8,1.06,5.31,2.12s1.82,2.62-.3,4.79a13.63,13.63,0,0,1-3.39,2h0C127.84,167.06,130.67,165.86,132.8,164.73Z" class="cls-34"/><path data-cppathid="10075" d="M58.25,156.06s6.15,5.28,13.41,6.19c4.43.55,11.89.05,17.79-.65,8.67-1,15.19-4.16,23.07-8a43.68,43.68,0,0,1,1.06,5.54,2.71,2.71,0,0,1-.46,1.51,90.41,90.41,0,0,1-23.68,8.17c-7.66,1.51-15.43.47-20.91-.38-4.34-.67-7.24-.86-10.48-5.12C56.49,161.26,57.7,158.37,58.25,156.06Z" class="cls-35"/><path data-cppathid="10076" d="M58.33,163.66l-.28-.36c-1.12-1.46-.81-3.36-.35-5.16a1.87,1.87,0,0,1,1,3A2.91,2.91,0,0,0,58.33,163.66Z" class="cls-36"/><path data-cppathid="10077" d="M64.72,65.53c4.15,1.4,4.49,1.62,4.49,2.11s-.28.53-1.21.59a22.82,22.82,0,0,1-9.73,6.2l-.22-.25a18.74,18.74,0,0,0,5.77-6.82,5,5,0,0,0,.62-1.67ZM62.55,81.32a31,31,0,0,1-4.28,2.94L58.05,84a30.36,30.36,0,0,0,5.71-9.17c.52-1.4.68-1.9.59-2.39l.27-.16c4.07,1.3,4.56,1.58,4.56,2.08,0,.34-.28.53-1.14.62a21.86,21.86,0,0,1-2.8,3.78c1.56.25,2,.47,2,.84s-.22.53-1.15.84V93.22c0,1.24-1,1.58-2.63,1.58-1,0-1.15,0-1.15-1l.25-9.27ZM87.66,90.8A6.36,6.36,0,0,0,85.31,94c-.16.52-.28.65-.56.65a5.12,5.12,0,0,1-1.3-.22,16.51,16.51,0,0,1-6.8-3.56c-2.85,2.17-6.35,3.31-10.72,3.9l-.1-.31a21.19,21.19,0,0,0,8.93-5.73,18.25,18.25,0,0,1-2.85-7.6c-1.15,0-2.32.09-3.84.22l-.28-1.06c2.45.19,4,.25,5.89.25h5c1-1.27,1.43-1.7,1.74-1.7A4.71,4.71,0,0,1,82.27,80C83.79,81.28,84,81.5,84,81.87s-.21.5-1.39.9a22.15,22.15,0,0,1-3.47,5.74,28.34,28.34,0,0,0,8.49,2ZM75.54,68.26c-.09.16-.31.25-.71.34v1.18c0,5.49-2.42,7.91-7.17,9.74l-.18-.34C70.64,76.6,71.1,74,71.1,69c0-1.71-.06-2.24-.31-2.64l.25-.19c2.89.72,4,1.18,4.41,1.52h1.82c1.25-1.58,1.62-1.89,1.9-1.89s.83.28,1.89,1.12,1.39,1.18,1.39,1.46-.18.46-1,1v4.37c0,.43.09.46.62.46a3.1,3.1,0,0,0,2.36-.77,11.36,11.36,0,0,0,1.67-3.13l.31.06c-.06,1.64-.09,2.42-.09,2.79a1.15,1.15,0,0,0,.46,1,1.44,1.44,0,0,1,.68,1.12A1.75,1.75,0,0,1,86.33,77c-.59.35-2.14.66-4.68.66-3.29,0-4.06-.66-4.06-2.14l.09-4.19v-3ZM72.41,81.13a12.69,12.69,0,0,0,1.83,3.5,11.35,11.35,0,0,0,2.07,2.14A18.42,18.42,0,0,0,79,81.13Z" class="cls-37"/><path data-cppathid="10078" d="M99.72,78.49h1.58c1.39-1.79,1.64-2.07,1.86-2.07s.4.06,1.39.86c1.18,1,1.34,1.15,1.34,1.4s-.16.37-.65.37H99.72v3h3c1.42-1.93,1.73-2.2,2-2.2s.53.12,1.49.93c1.18,1,1.33,1.21,1.33,1.45s-.15.38-.65.38H95.78a54.18,54.18,0,0,0-6.26.24l-.28-1a58,58,0,0,0,6.54.25h.59v-3c-2.05,0-3.5.1-4.9.25l-.28-1c1.58.15,3,.21,5.18.24V75.77a45.93,45.93,0,0,0-5.49.24l-.19-.71a1.47,1.47,0,0,1-1.58-1.52,2.1,2.1,0,0,1,1-1.77,3.69,3.69,0,0,0,1.61-3.69l.28-.06a5.57,5.57,0,0,1,.87,1.8H96.4V67.77a5,5,0,0,0-.25-2l.22-.22c3.75.53,4.71.84,4.71,1.34s-.28.59-1.18.9v2.26h3.32c1.12-1.36,1.37-1.61,1.61-1.61s.59.21,1.77,1.49c1,1.08,1.24,1.48,1.24,1.89s-.46.59-2,.65c-.56.25-1.12.46-1.71.68a7.18,7.18,0,0,1,1.15.84c1.18,1,1.33,1.15,1.33,1.39s-.15.38-.65.38H99.72ZM95.25,93.35c0,1-.93,1.39-2.45,1.39-.86,0-1-.15-1-1L92,88.6v-2A5.83,5.83,0,0,0,91.62,84l.22-.22a16.56,16.56,0,0,1,4,1.49h4.75c1.14-1.52,1.45-1.8,1.73-1.8s.56.16,1.8,1.25c1,.93,1.43,1.33,1.43,1.61s-.22.56-1.18,1v1.06l.18,4.21c0,1.24-1,1.68-2.57,1.68-.9,0-1-.13-1-.9V92.32H95.25ZM102,75.21c.72-1,1.15-1.49,1.4-1.77-.34.12-.72.22-1.09.34l-.18-.22a12.11,12.11,0,0,0,1.42-2.94H93a13.05,13.05,0,0,1,.12,1.67,2.92,2.92,0,0,1-1.42,2.76c1.55.13,3.1.16,4.65.16V74A4.54,4.54,0,0,0,96,71.67l.21-.21c4,.52,4.62.74,4.62,1.24,0,.34-.31.55-1.14.83v1.68ZM101,91.76v-6H96c-.1.19-.28.31-.72.47v5.48Zm7.31-14.6V72a4.5,4.5,0,0,0-.34-2.32l.22-.25c4.06.53,4.56.77,4.56,1.27,0,.34-.31.56-1.15.84v5.7l.16,8.9c0,1.21-1.09,1.61-2.64,1.61-.87,0-1-.09-1-1.08Zm9.21,14.29c0,2.11-2.48,3.35-4.68,3.35-.87,0-.93-.12-1.08-.8-.34-1.68-.78-2.3-3.2-2.92v-.34a25.32,25.32,0,0,0,3.85-.15c.84-.1,1.27-.35,1.27-1.27V68.85a6.54,6.54,0,0,0-.37-2.88l.21-.25c3.85.46,4.87.84,4.87,1.3s-.25.65-1.18.93v9.27Z" class="cls-37"/><path data-cppathid="10079" d="M64.74,62.72c4.15,1.39,4.49,1.61,4.49,2.11,0,.34-.27.52-1.2.59a23,23,0,0,1-9.74,6.2l-.22-.25a18.82,18.82,0,0,0,5.77-6.82,4.7,4.7,0,0,0,.62-1.68ZM62.57,78.5a30.24,30.24,0,0,1-4.28,3l-.22-.25A30.27,30.27,0,0,0,63.78,72c.53-1.39.68-1.89.59-2.39l.28-.15c4.06,1.3,4.55,1.58,4.55,2.08,0,.34-.27.52-1.14.62A22.33,22.33,0,0,1,65.27,76c1.55.25,2,.46,2,.84s-.22.52-1.15.83V90.41c0,1.24-1,1.58-2.63,1.58-1,0-1.15,0-1.15-1l.25-9.27ZM87.68,88a6.38,6.38,0,0,0-2.35,3.22c-.16.53-.28.65-.56.65a5.55,5.55,0,0,1-1.3-.21,16.53,16.53,0,0,1-6.79-3.57C73.82,90.25,70.32,91.4,66,92l-.09-.31a21.27,21.27,0,0,0,8.93-5.74,18.09,18.09,0,0,1-2.86-7.59c-1.14,0-2.32.09-3.84.21l-.28-1c2.45.19,4,.25,5.89.25h5c1-1.27,1.43-1.71,1.74-1.71a4.78,4.78,0,0,1,1.86,1.15c1.52,1.27,1.77,1.49,1.77,1.86s-.22.5-1.4.9a22.26,22.26,0,0,1-3.47,5.73,28.11,28.11,0,0,0,8.49,2ZM75.56,65.45c-.09.15-.31.25-.71.34V67c0,5.48-2.42,7.9-7.16,9.73l-.19-.34c3.16-2.57,3.63-5.18,3.63-10.17,0-1.7-.07-2.23-.31-2.63l.24-.19c2.89.71,4,1.18,4.41,1.52H77.3C78.54,63.31,78.91,63,79.19,63s.83.28,1.89,1.11,1.39,1.18,1.39,1.46-.18.47-1,1V70.9c0,.44.09.47.62.47a3.06,3.06,0,0,0,2.36-.78,11,11,0,0,0,1.67-3.13l.31.07c-.06,1.64-.09,2.41-.09,2.79a1.16,1.16,0,0,0,.46,1,1.42,1.42,0,0,1,.69,1.11,1.77,1.77,0,0,1-1.12,1.71,11.33,11.33,0,0,1-4.68.65c-3.29,0-4.06-.65-4.06-2.14l.09-4.18v-3ZM72.43,78.32a12.84,12.84,0,0,0,1.83,3.5A11.39,11.39,0,0,0,76.34,84,18.87,18.87,0,0,0,79,78.32Z" class="cls-8"/><path data-cppathid="10080" d="M99.74,75.68h1.58c1.4-1.8,1.64-2.08,1.86-2.08s.4.06,1.4.87c1.17,1,1.33,1.15,1.33,1.4s-.16.37-.65.37H99.74v2.94h3c1.42-1.92,1.73-2.2,2-2.2s.53.13,1.49.93c1.18,1,1.33,1.21,1.33,1.46s-.15.37-.65.37H95.8a51.5,51.5,0,0,0-6.26.25l-.28-1a61,61,0,0,0,6.54.24h.59V76.24a48.8,48.8,0,0,0-4.9.25l-.28-1.06c1.58.16,3,.22,5.18.25V73a43.63,43.63,0,0,0-5.49.25l-.18-.71A1.47,1.47,0,0,1,89.14,71a2.08,2.08,0,0,1,1-1.77,3.7,3.7,0,0,0,1.61-3.69l.28-.06a5.47,5.47,0,0,1,.87,1.8h3.53V65a4.88,4.88,0,0,0-.25-2l.22-.22c3.75.53,4.71.84,4.71,1.33s-.28.59-1.17.9v2.27h3.31c1.12-1.37,1.37-1.62,1.61-1.62s.59.22,1.77,1.49c1,1.09,1.24,1.49,1.24,1.89s-.46.59-2,.65c-.56.25-1.12.47-1.71.69a7.54,7.54,0,0,1,1.15.83c1.18,1,1.33,1.15,1.33,1.4s-.15.37-.65.37H99.74ZM95.27,90.53c0,1-.93,1.4-2.45,1.4-.86,0-1-.16-1-1.06L92,85.79V83.74a6,6,0,0,0-.34-2.57l.21-.22a16.56,16.56,0,0,1,4,1.49h4.75c1.14-1.52,1.45-1.8,1.73-1.8s.56.16,1.8,1.24c1.06.93,1.43,1.33,1.43,1.61s-.22.56-1.18,1.06v1l.19,4.22c0,1.24-1,1.67-2.58,1.67-.9,0-1-.12-1-.9V89.51H95.27ZM102,72.39c.72-1,1.15-1.49,1.4-1.76-.34.12-.71.21-1.09.34l-.18-.22a12.18,12.18,0,0,0,1.42-3H93a13.21,13.21,0,0,1,.13,1.68,3,3,0,0,1-1.43,2.76c1.55.12,3.1.15,4.65.15V71.18a4.5,4.5,0,0,0-.34-2.32l.22-.22c4,.53,4.62.75,4.62,1.24s-.31.56-1.15.84v1.67ZM101,89V83H96c-.1.18-.28.31-.72.46V89Zm7.32-14.6V69.17a4.66,4.66,0,0,0-.34-2.33l.21-.25c4.06.53,4.56.78,4.56,1.28,0,.34-.31.55-1.15.83v5.71l.16,8.9c0,1.21-1.09,1.61-2.64,1.61-.87,0-1-.09-1-1.09Zm9.21,14.29c0,2.11-2.49,3.35-4.69,3.35-.86,0-.93-.13-1.08-.81-.34-1.67-.78-2.29-3.2-2.91v-.34a24,24,0,0,0,3.85-.16c.84-.09,1.27-.34,1.27-1.27V66a6.57,6.57,0,0,0-.37-2.89l.22-.25c3.84.47,4.86.84,4.86,1.31s-.24.65-1.17.93v9.27Z" class="cls-8"/><path data-cppathid="10081" d="M575.58,184.3c0-.25.13-.15.15-.18C575.68,184.34,575.65,184,575.58,184.3Z" class="cls-5"/><polygon data-cppathid="10082" points="577.92 174.76 577.74 174.7 577.94 174.69 577.92 174.76" class="cls-5"/><polygon data-cppathid="10083" points="577.92 174.76 577.94 174.69 577.74 174.7 577.92 174.76" class="cls-5"/><path data-cppathid="10084" d="M575.58,184.3c.07-.29.1,0,.15-.18C575.71,184.15,575.59,184.05,575.58,184.3Z" class="cls-5"/><path data-cppathid="10085" d="M572.61,165.68s0,0,0,0Z"/><polygon data-cppathid="10086" points="577.74 174.7 577.94 174.69 577.92 174.76 577.74 174.7"/><path data-cppathid="10087" d="M575.58,184.3c0-.25.13-.15.15-.18C575.68,184.34,575.65,184,575.58,184.3Z"/><path data-cppathid="10088" d="M575.12,185.25l0,0Z"/><path data-cppathid="10089" d="M575.16,185.59s0-.05,0-.07S575.2,185.6,575.16,185.59Z"/><path data-cppathid="10090" d="M486,257.93c0,3.76-50.7,6.8-113.24,6.8s-113.24-3-113.24-6.8,50.7-6.81,113.24-6.81S486,254.17,486,257.93Z" class="cls-2"/><rect data-cppathid="10091" height="230.78" width="166.81" y="28.15" x="266.29" class="cls-38"/><rect data-cppathid="10092" height="218.36" width="154.17" y="33.97" x="272.29" class="cls-39"/><path data-cppathid="10093" d="M342,104.84c-37.86,47-66.11,133.65-66.11,133.65V36.77H418.32S380.38,57.21,342,104.84Z" class="cls-40"/><path data-cppathid="10094" d="M308.48,65.23c4.18,1.18,4.9,1.55,4.9,2.08,0,.31-.22.59-1.31.74a40.8,40.8,0,0,1-2.76,5.86c1.62.28,2.08.5,2.08.87s-.21.53-1.14.84V93c0,1.24-1,1.58-2.55,1.58-1,0-1.21-.06-1.21-1.11l.25-10.17V77.63a22.23,22.23,0,0,1-4,3.79l-.25-.25A37.15,37.15,0,0,0,308.11,67a5,5,0,0,0,.09-1.64Zm9.39,7.69a21.94,21.94,0,0,1-6.42,6.39l-.18-.22a32.31,32.31,0,0,0,5.08-10.91,6.69,6.69,0,0,0,.34-2.64l.25-.18c4.44,1.11,5,1.51,5,2.07s-.44.72-1.52.87a35.88,35.88,0,0,1-2.21,4.06h8c1.83-2.51,2.14-2.88,2.45-2.88s.68.22,1.83,1.21S332,72.11,332,72.46s-.19.46-.74.46h-7.76c-.06.47-.31.71-.93,1v5.43h2.86c1.67-2.24,2-2.61,2.29-2.61s.68.25,1.67,1.12c1.18,1,1.4,1.24,1.4,1.58s-.19.47-.68.47h-7.54l.13,6.35h2.73c1.67-2.23,2-2.6,2.29-2.6s.62.15,1.64,1.08,1.43,1.27,1.43,1.62-.19.46-.68.46h-7.41l.12,6c0,1.11-.8,1.73-3,1.73-1.05,0-1.2-.12-1.2-1.18l.24-13.17V72.92Z" class="cls-41"/><path data-cppathid="10095" d="M348.1,65.32c4,.47,5.08.78,5.14,1.24,2.79.1,4.47,1.34,4.47,3a1.7,1.7,0,0,1-1.8,1.92c-.77,0-1.39-.53-1.52-1.64a3.66,3.66,0,0,0-1.3-2.79,2.7,2.7,0,0,1-1.09.56c0,1.67.07,3.22.16,4.68h4.49c1.49-2,2.08-2.76,2.36-2.76s.65.18,1.95,1.27,1.52,1.4,1.52,1.67-.15.38-.65.38h-9.64a41.75,41.75,0,0,0,1.61,9.73,32.12,32.12,0,0,0,2-5.24,9.11,9.11,0,0,0,.46-2.23l.28-.12c3.94,1.73,4.5,2.29,4.5,2.79s-.47.65-1.55.68A31.78,31.78,0,0,1,355.35,86c1.18,1.83,2.92,3.29,3.6,3.29a1,1,0,0,0,.9-.49,29.42,29.42,0,0,0,2.57-4l.28.16a40.51,40.51,0,0,0-.93,4.28,2.81,2.81,0,0,0,.44,1.7,3.45,3.45,0,0,1,.49,1.65c0,1.14-.8,1.8-2.14,1.8-2.32,0-5.52-2.21-7.75-5.4a24,24,0,0,1-9.55,4.87l-.12-.28a26.11,26.11,0,0,0,8.28-7.1,31.38,31.38,0,0,1-1.9-6,54.5,54.5,0,0,1-1-7.65h-7.72a1.83,1.83,0,0,1-.68.4v5.12h3.1c1.27-1.55,1.52-1.8,1.86-1.8s.8.18,1.89,1.18,1.36,1.39,1.36,1.73-.24.53-1.14.93a54.56,54.56,0,0,1-.65,6.51c-.47,2.2-1.12,3.29-2.17,4a4.25,4.25,0,0,1-3,.78c-.53,0-.68-.13-.78-.75a3,3,0,0,0-2.07-2.63,14.66,14.66,0,0,1-4.75,6l-.25-.25c2.64-4.24,2.95-8.46,2.95-16.34V74.44c0-2.11-.06-2.91-.37-3.47l.21-.22c3.2.74,4.22,1.18,4.5,1.49h7.66c-.06-1.27-.13-2.61-.16-4a7.93,7.93,0,0,0-.4-2.7Zm-8,13.55a26.65,26.65,0,0,1-1.43,9,22.28,22.28,0,0,0,2.26.13c1.12,0,1.74-.22,2.08-1.58a49.88,49.88,0,0,0,.65-7.51Z" class="cls-41"/><path data-cppathid="10096" d="M385.05,74c-.06.44-.28.62-.77.72a16.76,16.76,0,0,1-9.62,12.55l-.18-.21A23.18,23.18,0,0,0,380.93,74h-.25A23.44,23.44,0,0,1,376,78.78l-.22-.22a22.32,22.32,0,0,0,2.08-4.24h-3.72V80c1.27-.4,2.51-.87,3.81-1.39l.15.24a31.83,31.83,0,0,1-4,3.32v1.43l.18,9c0,1.61-1.3,2-2.79,2-1,0-1.11-.12-1.11-1.18l.27-9c-1.05.68-2.1,1.33-3.1,1.92a2.5,2.5,0,0,1-1,.41.67.67,0,0,1-.65-.44,38,38,0,0,1-1.39-3.66l.15-.28a18,18,0,0,0,2.73-.4c1.15-.25,2.23-.5,3.29-.81V74.32h-2a27.56,27.56,0,0,1-3.53,6.1l-.31-.18a49.89,49.89,0,0,0,1.82-10.85,4.82,4.82,0,0,0-.15-1.59l.25-.18a22.8,22.8,0,0,1,3.94,1.3V68a5.43,5.43,0,0,0-.35-2.42l.22-.18c3.82.46,4.71.83,4.71,1.27s-.31.62-1.17,1v6.14h.09c1.49-2.11,1.71-2.39,1.95-2.39s.5.16,1.49,1c.28.25.5.44.65.59a39.52,39.52,0,0,0,1.46-5.86,6.06,6.06,0,0,0,.06-1.64l.25-.19c4.46,1.27,5.18,1.65,5.18,2.17s-.59.69-1.52.78a26.09,26.09,0,0,1-2.7,5.18h7.38c1.18-1.71,1.58-2,1.83-2s.71.16,2.17,1.36,1.49,1.4,1.49,1.71-.28.65-1.27,1.15a78.61,78.61,0,0,1-1,13.58,7.07,7.07,0,0,1-1.9,4,6.38,6.38,0,0,1-3.72,1.3c-.49,0-.62-.09-.77-.71-.4-1.46-1.12-2.27-3.44-2.89v-.34a25.79,25.79,0,0,0,3.9-.09c1.21-.16,1.74-.56,2.08-2.08A72.59,72.59,0,0,0,389,74.66l-.19,0c-1.73,9.7-5.86,15.07-13.8,18.11l-.18-.22C380.31,88.8,384.25,82,385.33,74Zm-14.32-.21V69.94a4.37,4.37,0,0,1-.56.22c-.37,1.24-.78,2.45-1.24,3.6Z" class="cls-41"/><path data-cppathid="10097" d="M308.5,62.42c4.19,1.17,4.9,1.55,4.9,2.07,0,.31-.22.59-1.3.75a43.63,43.63,0,0,1-2.76,5.86c1.61.28,2.07.49,2.07.87s-.21.52-1.14.83V90.14c0,1.24-1,1.58-2.55,1.58-1,0-1.2-.07-1.2-1.12l.24-10.17V74.82a22.54,22.54,0,0,1-4,3.78l-.25-.25a37.09,37.09,0,0,0,5.65-14.14,4.93,4.93,0,0,0,.09-1.64Zm9.39,7.69a22.11,22.11,0,0,1-6.41,6.38l-.19-.21a32.36,32.36,0,0,0,5.08-10.92,6.94,6.94,0,0,0,.35-2.63l.24-.19c4.44,1.12,5,1.52,5,2.08s-.44.71-1.52.87a36.75,36.75,0,0,1-2.2,4.06h8c1.83-2.51,2.14-2.89,2.45-2.89s.69.22,1.83,1.21C331.82,69,332,69.3,332,69.64s-.19.47-.74.47h-7.75c-.07.46-.31.71-.94,1v5.42h2.86c1.67-2.23,2-2.6,2.29-2.6s.68.25,1.68,1.11c1.17,1,1.39,1.24,1.39,1.59s-.18.46-.68.46h-7.54l.13,6.36h2.73c1.67-2.24,2-2.61,2.29-2.61s.62.16,1.65,1.09,1.42,1.27,1.42,1.61-.18.47-.68.47h-7.41l.12,6c0,1.12-.8,1.74-3,1.74-1.06,0-1.21-.13-1.21-1.18l.24-13.18V70.11Z" class="cls-8"/><path data-cppathid="10098" d="M348.12,62.51c4,.46,5.08.77,5.15,1.24,2.79.09,4.46,1.33,4.46,3a1.7,1.7,0,0,1-1.8,1.92c-.77,0-1.39-.53-1.52-1.65a3.68,3.68,0,0,0-1.3-2.79,2.59,2.59,0,0,1-1.08.56c0,1.68.06,3.23.15,4.68h4.5c1.48-2,2.07-2.76,2.35-2.76s.65.19,2,1.28,1.52,1.39,1.52,1.67-.16.37-.66.37h-9.64a41.75,41.75,0,0,0,1.61,9.74,32.12,32.12,0,0,0,2-5.24,9.11,9.11,0,0,0,.46-2.23l.28-.13c3.94,1.74,4.5,2.3,4.5,2.79s-.47.65-1.55.68a31.65,31.65,0,0,1-4.16,7.6c1.18,1.83,2.92,3.29,3.6,3.29a1,1,0,0,0,.9-.5,29.3,29.3,0,0,0,2.57-4l.28.16a40.58,40.58,0,0,0-.93,4.27,2.83,2.83,0,0,0,.44,1.71,3.38,3.38,0,0,1,.49,1.64c0,1.15-.8,1.8-2.14,1.8-2.32,0-5.52-2.2-7.75-5.39A23.84,23.84,0,0,1,343.28,91l-.12-.28a25.87,25.87,0,0,0,8.28-7.1,30.56,30.56,0,0,1-1.89-6,53,53,0,0,1-1-7.66H340.8a1.59,1.59,0,0,1-.68.4V75.5h3.1c1.27-1.55,1.52-1.8,1.86-1.8s.81.19,1.89,1.18,1.37,1.4,1.37,1.74-.25.52-1.15.93a52.76,52.76,0,0,1-.65,6.51c-.47,2.2-1.12,3.29-2.17,4a4.25,4.25,0,0,1-3,.77c-.53,0-.68-.12-.78-.74a3,3,0,0,0-2.07-2.64,14.6,14.6,0,0,1-4.75,6l-.24-.25c2.63-4.25,2.94-8.46,2.94-16.34V71.63c0-2.11-.06-2.92-.37-3.48l.22-.21c3.19.74,4.21,1.17,4.49,1.48h7.66c-.06-1.27-.12-2.6-.15-4a8.14,8.14,0,0,0-.41-2.69Zm-8,13.55a26.4,26.4,0,0,1-1.43,9c1,.09,1.68.12,2.27.12,1.11,0,1.73-.21,2.07-1.58a49.72,49.72,0,0,0,.65-7.5Z" class="cls-8"/><path data-cppathid="10099" d="M385.07,71.16c-.06.43-.28.62-.77.71-1.24,6-4.37,10-9.61,12.56l-.19-.22a23.19,23.19,0,0,0,6.45-13h-.25A23.7,23.7,0,0,1,376,76l-.22-.22a22.42,22.42,0,0,0,2.08-4.25h-3.72v5.71c1.27-.41,2.51-.87,3.81-1.4l.16.25a33.56,33.56,0,0,1-4,3.32V80.8l.18,9c0,1.62-1.3,2-2.79,2-1,0-1.11-.13-1.11-1.18l.28-9c-1.06.68-2.11,1.33-3.1,1.92a2.5,2.5,0,0,1-1,.4.67.67,0,0,1-.65-.43,39.09,39.09,0,0,1-1.39-3.66l.15-.28a19.36,19.36,0,0,0,2.73-.4c1.15-.25,2.23-.5,3.29-.81V71.5h-2a27.23,27.23,0,0,1-3.53,6.11l-.31-.19a50.5,50.5,0,0,0,1.83-10.85,4.76,4.76,0,0,0-.16-1.58l.25-.19a22.46,22.46,0,0,1,3.94,1.31v-.93a5.46,5.46,0,0,0-.34-2.42l.21-.19c3.82.47,4.72.84,4.72,1.27s-.31.62-1.18,1v6.14h.09c1.49-2.11,1.71-2.38,1.95-2.38s.5.15,1.49,1c.28.25.5.43.65.59a39.52,39.52,0,0,0,1.46-5.86,5.75,5.75,0,0,0,.06-1.65l.25-.18c4.47,1.27,5.18,1.64,5.18,2.17s-.59.68-1.52.77a24.83,24.83,0,0,1-2.7,5.18h7.38c1.18-1.7,1.58-2,1.83-2s.71.15,2.17,1.36,1.49,1.4,1.49,1.71-.28.65-1.27,1.14a78.52,78.52,0,0,1-1,13.58,7,7,0,0,1-1.89,4,6.37,6.37,0,0,1-3.73,1.3c-.49,0-.61-.09-.77-.71-.4-1.46-1.12-2.26-3.44-2.88v-.34a24.52,24.52,0,0,0,3.91-.1c1.21-.15,1.73-.55,2.07-2.07A72.72,72.72,0,0,0,389,71.84c-.06,0-.12,0-.19,0C387.09,81.58,383,86.94,375,90l-.19-.22c5.49-3.78,9.43-10.57,10.51-18.6Zm-14.32-.22V67.13c-.16.06-.34.15-.56.22-.37,1.24-.78,2.45-1.24,3.59Z" class="cls-8"/><path data-cppathid="10100" d="M347.76,117.17s6.35.43,21.38,8.81a140.92,140.92,0,0,1,20.33,13.51l-22.1,42.91s-16.84-11-25-10.62c-9.74.42-15.33,4.3-15.33,4.3Z" class="cls-42"/><path data-cppathid="10101" d="M318.4,179.32s8.17-33,13.31-44.91,5.64-13.26,5.64-13.26L353,133.29l7.26-.92s-10.5,16-12.51,25.27c-2.23,10.34,1.7,28.53,1.7,28.53s-8.34,5-17.26,2.72C319.26,185.65,318.4,179.32,318.4,179.32Z" class="cls-42"/><path data-cppathid="10102" d="M360.27,132.37c-2.85,4.56-10.53,5.78-17.16,2.74s-9.7-9.2-6.85-13.75,10.52-5.79,17.15-2.75S363.11,127.82,360.27,132.37Z" class="cls-42"/><path data-cppathid="10103" d="M360.39,124.92c2.75,9.46-9.4,8.64-15.43,6.53-4.82-1.69-6.81-4.9-4.45-7.16,1.9-1.82,6.56-2.19,10.42-.84,3.08,1.08,4.36,3.13,2.84,4.58-1.21,1.16-4.19,1.4-6.66.54-2-.69-2.79-2-1.82-2.93.77-.75,2.68-.9,4.26-.35,1.27.45,1.79,1.29,1.17,1.88a3,3,0,0,1-2.73.22c-.81-.28-1.14-.82-.75-1.2" class="cls-42"/><path data-cppathid="10104" d="M337.66,153.24h9.42" class="cls-42"/><path data-cppathid="10105" d="M339.54,157c0-.57,2.66-1,5.95-1" class="cls-42"/><path data-cppathid="10106" d="M347.76,116.8s6.35.43,21.38,8.81a140.92,140.92,0,0,1,20.33,13.51L367.37,182s-16.84-11-25-10.62c-9.74.42-15.33,4.3-15.33,4.3Z" class="cls-43"/><path data-cppathid="10107" d="M318.4,179s8.17-33,13.31-44.91,5.64-13.26,5.64-13.26L353,132.92l7.26-.92s-10.5,16-12.51,25.27c-2.23,10.34,1.7,28.53,1.7,28.53s-8.34,5-17.26,2.72C319.26,185.28,318.4,179,318.4,179Z" class="cls-44"/><path data-cppathid="10108" d="M360.27,132c-2.85,4.56-10.53,5.78-17.16,2.74s-9.7-9.2-6.85-13.75,10.52-5.79,17.15-2.75S363.11,127.44,360.27,132Z" class="cls-45"/><path data-cppathid="10109" d="M360.39,124.55c2.75,9.46-9.4,8.64-15.43,6.53-4.82-1.69-6.81-4.9-4.45-7.16,1.9-1.82,6.56-2.19,10.42-.84,3.08,1.08,4.36,3.13,2.84,4.58-1.21,1.16-4.19,1.4-6.66.54-2-.69-2.79-2-1.82-2.93.77-.75,2.68-.9,4.26-.35,1.27.45,1.79,1.29,1.17,1.88A3,3,0,0,1,348,127c-.81-.28-1.14-.82-.75-1.2" class="cls-46"/><path data-cppathid="10110" d="M337.66,152.87h9.42" class="cls-47"/><path data-cppathid="10111" d="M339.54,156.65c0-.57,2.66-1,5.95-1" class="cls-47"/><path data-cppathid="10112" d="M452.8,186.85s-.28,3.46-.36,5.21c-1.66,33.86,10.21,70.41,10.21,70.41s-9.49,5.21-11.13,7.82,22.62-1.3,22.62-1.3-4.92-46.94-3.28-57.37,8.19,54.46,11.47,58.37,21.41,3.88,21.41,3.88-6.93-6.29-9.39-9.55-5.1-46.41-5.42-71c0-.66,0-2,0-2Z" class="cls-48"/><path data-cppathid="10113" d="M454.53,64.5S426.78,43,434.68,27.43c5.44-10.69,30.6,12.9,38.91,15.65s46-11.79,59.88-5.81c17.88,7.69,31.18,45.06-16.59,46.54C466.23,85.38,454.53,64.5,454.53,64.5Z" class="cls-49"/><path data-cppathid="10114" d="M448,55a42.41,42.41,0,0,0,5.79,5.43,12.26,12.26,0,0,0,1.29-2.59c1.12-3.06,1.22-6.57,1.28-9.8.06-3.57-.37-11.38-5.47-8.69a.29.29,0,0,0-.12.1c-3.92,1.08-4.67,8.67-5.69,12.34A23.81,23.81,0,0,0,448,55Z" class="cls-50"/><path data-cppathid="10115" d="M523.8,52.72c1.65,3.74,3.87,7,5.41,10.77,1.26,3.13,2.84,9.18,1.55,12.68-1.51,4.07-4.2,6.23-7.37,8.12-1.72-.05-3.54-.17-5.47-.37a23.91,23.91,0,0,1,.75-8.83C520,69,521.47,63,521.06,56.79,521,55.63,522.86,53.19,523.8,52.72Z" class="cls-50"/><path data-cppathid="10116" d="M421.54,126.85s-4.33-2.84-4.63-5.08-7.17-10-7.17-10-10.33-5.15-9.2-2.32,7.71,5.31,7.71,5.31,1.35,3.73,1.64,4.18-4.48-6.42-5.52-4.48,2.39,7,4.33,7.91-.45,8.36,8.21,7.91" class="cls-51"/><path data-cppathid="10117" d="M476.74,130s4.57-6.73-.67-7.28S445,130,441.12,129.47c-16.74-2.15-23-6.8-23-6.8l-2.62,9c16.8,8.43,14.93,5.36,22.86,7.55C447.64,141.77,476.74,130,476.74,130Z" class="cls-52"/><polygon data-cppathid="10118" points="481.15 112.55 481.6 115.54 471.58 127.93 473.93 115.36 481.15 112.55" class="cls-53"/><path data-cppathid="10119" d="M452.47,56.69c2,1.18-1.58,10.81-1.17,14.15.15-.48.35-.91.48-1.47.2.77.8,1.68,1,2.52.12-.14.4-.85.68-.82.05,1,.44,2,.5,3,.16-.49.3-1,.45-1.49.79,2,.54,4.17,2.08,5.68.67-3.2,5.63-26.79-2.68-21.5" class="cls-54"/><path data-cppathid="10120" d="M457.2,39.72c-2.79,2-6,4.42-6.46,7.39.76-.44,2.1-.8,2.88-1.28a16.4,16.4,0,0,0-2.68,8,.68.68,0,0,0,.35-.44,7.37,7.37,0,0,1,.17,3.9c.25-.11.56-.44.82-.52-.32,2.23-.14,7.36,1.21,9.2,2.28-2.79,3.21-6.16,5.36-9.06,2.42-3.26,5.24-6.34,7.59-9.64,1.23-1.73,4.79-7.58,2.37-8.87-2.7-1.43-3.72.26-6.73,0Z" class="cls-55"/><path data-cppathid="10121" d="M474.22,122.22l-2.79,5.71,2.46-12.32s-18.32,34.11-21.68,69.32c-.2,2.15-.42,6.49-.42,6.49l36.58,3s0-1.76,0-2.6c0-24.13-1.09-51.51-1.09-51.51s-2.06-25.11-5.41-23.8C480.88,116.92,474.22,122.22,474.22,122.22Z" class="cls-52"/><path data-cppathid="10122" d="M466,106.31s0,0-.67-1.47c-.09-.18-1.59-6.42-1.59-6.42s23.06,4.69,26.3-11.77c-8.56-.48-30,3.09-30.06,2.86-2.33-10.1-5.76-35.13-1.29-43.5,10.48-19.63,43.19-30.7,54.3-9.33,13.51,26,3.51,37.1-3.84,50.53s-25.16,28.27-31.72,29C471.61,116.92,466,106.31,466,106.31Z" class="cls-56"/><path data-cppathid="10123" d="M469.67,67.52c.05,2.28-1.06,4.13-2.48,4.12s-2.59-1.85-2.65-4.13,1.07-4.13,2.48-4.13S469.62,65.24,469.67,67.52Z" class="cls-57"/><path data-cppathid="10124" d="M470.31,67.08a1.41,1.41,0,0,1-1.46,1.4,1.49,1.49,0,0,1-1.51-1.41,1.4,1.4,0,0,1,1.45-1.4A1.49,1.49,0,0,1,470.31,67.08Z" class="cls-8"/><path data-cppathid="10125" d="M483.65,69.18c-.86,2.28-2.72,3.72-4.14,3.21s-1.89-2.76-1-5,2.71-3.72,4.14-3.21S484.51,66.9,483.65,69.18Z" class="cls-58"/><path data-cppathid="10126" d="M484.55,68a1.49,1.49,0,0,1-1.92.83,1.43,1.43,0,0,1-.91-1.84,1.49,1.49,0,0,1,1.91-.83A1.44,1.44,0,0,1,484.55,68Z" class="cls-8"/><path data-cppathid="10127" d="M483.36,193.68h0Z" class="cls-56"/><path data-cppathid="10128" d="M513.85,74.54s7.21-4.58,6.1,3.69-11.11,8.42-11.11,8.42" class="cls-56"/><path data-cppathid="10129" d="M509.59,70.78c3.27,2,.3,8.51-1,11.39a16.15,16.15,0,0,0,3.57-3.7c.52.15.09.41.44.75.31,0,.43-.47.72-.32-1.09,1.36-2.26,3-3.35,4.44,1.52-2.08,3.64-3.43,5.19-5.6a.63.63,0,0,0,.09.53A15.51,15.51,0,0,1,516.87,76c.09.06,0,.88.08,1.09a11.37,11.37,0,0,0,1.69-1.93c.08.14-.13.94,0,1,1.58-2.67,3-9.09-.2-10.46-4.07-1.73-7.46,3.36-8.37,5.93" class="cls-54"/><path data-cppathid="10130" d="M509.88,74.07a12.53,12.53,0,0,0,1.54-2.39,9.1,9.1,0,0,0,.12,3.42c.61-.5.79-1.33,1.31-1.95.06,1.11-.17,2.15-.18,3.24.94-1.66,2.56-3.07,3.48-4.67a5.39,5.39,0,0,1,0,3c.55-.7.93-1.81,1.93-2,0,.62-.16,1.2-.13,1.82a6.33,6.33,0,0,1,.87-1.35c0,.34,0,.73,0,1.08,1.79-3,3.14-10.12-2.69-8.32-2.3.71-2.8,2.15-4.06,3.89-.91,1.25-3.2,2.85-2.21,4.32" class="cls-55"/><path data-cppathid="10131" d="M511.32,51.4c-1-5.2-3.93-11.82-9.76-13.07C495.52,37,489.73,41,484.32,42c-5.22,1-29.79,12.85-34.68-3.71C459,44,461.81,34.2,465,33.53c1.71-.36,4.23-2.91,5.59-3.92,5.44-4,8.27-7.93,15.1-9.2,10.66-2,24.72-5.91,26.43,13,3.87-6,11.45,7.51,11.16,10.37-.24,2.37-2.07,4.28-2.1,6.77,0,2.89,1.65,5,2.79,7.56A13.56,13.56,0,0,0,520,57c.17.39.59.5.8.87-.57,1.94,1.44,3.72,2.07,5.73a13.08,13.08,0,0,1-.47,8c-1.7,4.34-.73-2-6.09-2.06.48-3.63-7.83,7.4-9.69,8.44a19.07,19.07,0,0,1,.25-2.42l-.76-.16C508.87,69.17,503.9,65,504,58c.66.54,5.1-.39,5.74.62,2-2.09,1.45-4.71,2.08-7.26" class="cls-55"/><polygon data-cppathid="10132" points="474 115.39 465.83 119.2 465.05 130.06 471.88 121.1 474 115.39" class="cls-59"/><polygon data-cppathid="10133" points="465.83 119 471.47 127.82 473.78 115.65 465.83 119" class="cls-60"/><path data-cppathid="10134" d="M471.47,127.82s-16.5,53.29-11.35,64.26" class="cls-61"/><path data-cppathid="10135" d="M405.71,118.49s.45,8.36,4.78,7.76S405.71,118.49,405.71,118.49Z" class="cls-51"/><path data-cppathid="10136" d="M473.45,43.82c6.44,1.4,31.8-7.84,47.32-9.19-1.54-12.8-8.21-31-12.31-31.85-6.7-1.38-9.2,2.83-12.18,1.84-2.67-.89-.42-3.4-4.51-4.53-6.88-1.9-30.45,25.76-34.27,34.82C464.26,38.89,470,43.07,473.45,43.82Z" class="cls-62"/><path data-cppathid="10137" d="M460.35,29.77s31.91-7,58.29,7.64" class="cls-63"/><circle data-cppathid="10138" r="1.52" cy="37.24" cx="518.17" class="cls-64"/><circle data-cppathid="10139" r="1.52" cy="35.55" cx="513.52" class="cls-64"/><circle data-cppathid="10140" r="1.52" cy="33.86" cx="508.88" class="cls-64"/><circle data-cppathid="10141" r="1.52" cy="32.17" cx="504.24" class="cls-64"/><circle data-cppathid="10142" r="1.52" cy="30.49" cx="499.6" class="cls-64"/><circle data-cppathid="10143" r="1.52" cy="29.68" cx="494.75" class="cls-64"/><circle data-cppathid="10144" r="1.52" cy="29.17" cx="489.84" class="cls-64"/><circle data-cppathid="10145" r="1.52" cy="28.66" cx="484.93" class="cls-64"/><circle data-cppathid="10146" r="1.52" cy="28.16" cx="480.01" class="cls-64"/><circle data-cppathid="10147" r="1.52" cy="28.37" cx="475.08" class="cls-64"/><circle data-cppathid="10148" r="1.52" cy="28.66" cx="470.15" class="cls-64"/><circle data-cppathid="10149" r="1.52" cy="28.99" cx="465.22" class="cls-64"/><circle data-cppathid="10150" r="1.52" cy="29.77" cx="460.35" class="cls-64"/><path data-cppathid="10151" d="M483.4,28.42A2.44,2.44,0,1,1,481,26,2.45,2.45,0,0,1,483.4,28.42Z" class="cls-64"/><path data-cppathid="10152" d="M482.29,28.42A1.33,1.33,0,1,1,481,27.07,1.35,1.35,0,0,1,482.29,28.42Z" class="cls-65"/><path data-cppathid="10153" d="M501.71,37.92s17.9,4.88,23,16.11S530,37,530,37,522.1,31.07,501.71,37.92Z" class="cls-49"/><path data-cppathid="10154" d="M531.2,37.75c-7.54-2.27-18.06-1.8-29.9,1.63-9.94,2.89-20.22,5.87-27.85,5.15-6.66-.63-13.66-6.36-20.42-11.89-7.55-6.17-13.32-7.65-17.52-4.06-1.94,1.66-2.22,8.45-2.64,4.21-.2-2-.2-4.74,1.27-5.95,6-4.86,12.18-3.4,20.58,3.48,6.46,5.29,13.13,10.75,19,11.3,7.14.68,17.17-2.24,26.87-5,12.25-3.56,23.31-3,32.06.19C537,38.38,534.19,38.65,531.2,37.75Z" class="cls-66"/><rect data-cppathid="10155" height="6.09" width="37.47" y="188.37" x="451.44" class="cls-67"/><path data-cppathid="10156" d="M550.05,133.13a8,8,0,0,0-5.8-1.31s6.26-5,5.75-7-5.41,2.63-5.41,2.63,3.31-5,3.38-6-4.52,3.79-4.52,3.79,1-5.2.07-5.42-4.93,9.47-7.39,11.8c-.48.47-1.78,1.37-3.51,2.6-6.89,4.89,2.31,7.9,6.17,4.77,2.63-2.15,4.57-3.52,4.57-3.52S553.17,135.11,550.05,133.13Z" class="cls-56"/><polygon data-cppathid="10157" points="474.08 122.22 479.45 134.46 484.83 118.64 482.74 114.16 474.08 122.22" class="cls-60"/><path data-cppathid="10158" d="M459.12,191.55c0,2.6,1.78,4.71,4,4.71s4-2.11,4-4.71-1.78-4.7-4-4.7S459.12,189,459.12,191.55Z" class="cls-67"/><path data-cppathid="10159" d="M484.36,135.8s-4-4.86.68-7.28c6.5-3.37,5.88,8.81,25.21,9.63,16.85.73,25.08-9.66,25.08-9.66l5.07,9c-5.5,7.77-22,11.81-34.95,9.51C490.22,144.27,484.36,135.8,484.36,135.8Z" class="cls-52"/></g></g></g></svg>