<?xml version="1.0" encoding="UTF-8"?>
<svg xmlns="http://www.w3.org/2000/svg" onmouseup="{ if(window.parent.document.onmouseup) window.parent.document.onmouseup(arguments[0]);}" viewBox="0 0 215.13 56.04"><defs><style>.cls-1{fill:#6209a8;}.cls-2{fill:#231f20;}.cls-3{fill:#fff;}</style></defs><g data-name="Layer 2" id="Layer_2"><g id="roles"><polygon data-cppathid="10000" points="0 56.04 215.13 56.04 215.13 7.77 0 0 0 56.04" class="cls-1"/><path data-cppathid="10001" d="M55.89,27.91A19.1,19.1,0,0,1,51,28.6c-.12,0-.18-.06-.18-.14A.17.17,0,0,1,51,28.3a27,27,0,0,0,4.41-1.65,18.33,18.33,0,0,0,2.26-1.23c.36-.24.68-.46.68-.57a.76.76,0,0,0-.26-.46,2,2,0,0,0-.28-.24.24.24,0,0,1-.12-.18c0-.06,0-.1.16-.14a3.79,3.79,0,0,1,.74-.1,4.24,4.24,0,0,1,1.74.66c.76.44,1.2.87,1.2,1.33s-.12.48-.62.56a4.12,4.12,0,0,0-.83.23,18,18,0,0,1-2.13.8,3.22,3.22,0,0,1,.77.4c.58.39.9.55.9,1.05a1.26,1.26,0,0,1-.1.42,1.66,1.66,0,0,0-.12.45c0,.08,0,.16,0,.24.4-.06.84-.12,1.27-.2a1.5,1.5,0,0,0,.9-.34,1.64,1.64,0,0,1,.91-.29,5.08,5.08,0,0,1,1.57.37c.71.28,1.13.62,1.13,1.14s-.28.73-.87.73a11.32,11.32,0,0,1-1.33-.16,14.18,14.18,0,0,0-2.33,0c-.43,0-.89.06-1.35.12a9.86,9.86,0,0,1-2.6,6.3,9.5,9.5,0,0,1-5,2.56,1.38,1.38,0,0,1-.26,0,.13.13,0,0,1-.14-.12.16.16,0,0,1,.1-.14,10.18,10.18,0,0,0,3.9-3.33,10.53,10.53,0,0,0,1.73-5c-.64.12-1.31.26-1.95.42a6.26,6.26,0,0,0-1.37.47c-.36.22-.52.34-.78.34a2.11,2.11,0,0,1-1.33-.67c-.39-.36-.89-.9-.89-1.25a2.1,2.1,0,0,1,.06-.48c0-.12.08-.16.14-.16a.36.36,0,0,1,.18.08,3.05,3.05,0,0,0,.73.42,1.82,1.82,0,0,0,.74.16,11.82,11.82,0,0,0,1.37-.16c1.25-.22,2.26-.4,3.22-.54,0-.36,0-.74,0-1.11a1.53,1.53,0,0,0-.3-1,1.11,1.11,0,0,0-.3-.25Z" class="cls-2"/><path data-cppathid="10002" d="M78.36,30.75c.71,0,1.23-.08,1.89-.1a6.89,6.89,0,0,1,2,.14c.8.19,1.16.61,1.16,1.19s-.38.85-1.34.87-2.08,0-3.53,0c-1,0-2.31,0-3.34.1s-2.56.18-3.77.32a4.67,4.67,0,0,0-1.3.3,1.43,1.43,0,0,1-.75.18,2.25,2.25,0,0,1-1.51-.84,2.56,2.56,0,0,1-1-1.73,1.46,1.46,0,0,1,.06-.49c0-.1.1-.18.15-.18s.08,0,.16.08a3.9,3.9,0,0,0,.9.57,2.45,2.45,0,0,0,1,.16c.3,0,1,0,1.47-.06,1.81-.1,3.2-.24,4.49-.32Z" class="cls-2"/><path data-cppathid="10003" d="M96,34.74A64,64,0,0,1,89.66,37a5,5,0,0,0-1.27.48c-.32.24-.48.38-.8.38s-.85-.34-1.41-.92a2.77,2.77,0,0,1-.87-1.55,2.73,2.73,0,0,1,.16-.75c.06-.14.12-.22.22-.22s.13.06.21.16a6.14,6.14,0,0,0,.64.54,1.12,1.12,0,0,0,.56.2,53.75,53.75,0,0,0,3-6.78,7.09,7.09,0,0,0,.45-1.71c0-.22-.1-.3-.33-.46l-.5-.31c-.12,0-.18-.12-.18-.18s.08-.18.2-.24a2.42,2.42,0,0,1,1-.28,3.86,3.86,0,0,1,1.61.74c.64.41,1.19.91,1.19,1.39a1.21,1.21,0,0,1-.43.81,6.19,6.19,0,0,0-.62.92,59.6,59.6,0,0,1-3.83,5.86L88.9,35c1.77-.32,4.22-.92,6.6-1.43-.14-.26-.3-.5-.44-.72a6.39,6.39,0,0,0-1.51-1.63.21.21,0,0,1-.1-.18c0-.08.08-.15.22-.14a7.3,7.3,0,0,1,4,1.85A4.3,4.3,0,0,1,99,35.49c0,1.1-.58,1.53-1.33,1.53s-1.1-.19-1.51-1.74Z" class="cls-2"/><path data-cppathid="10004" d="M109.25,22.62a10.53,10.53,0,0,0-4.91,9.08,10.55,10.55,0,0,0,4.91,9.08l-.46.59c-3.6-2.54-5.27-5.64-5.27-9.67s1.67-7.13,5.27-9.68Z" class="cls-2"/><path data-cppathid="10005" d="M114,40.12c0,.66-.62.9-1.77.9-.52,0-.61,0-.61-.58l.15-10.69V24a4.43,4.43,0,0,0-.15-1.37l.13-.14a10.28,10.28,0,0,1,2.57.91h2.28c.68-.89.88-1.07,1-1.07s.46.2,1,.66.85.73.85.95-.2.38-.63.58V26l.12,2.84c0,.75-.72.95-1.61.95-.54,0-.62-.1-.62-.57v-.54H114Zm2.76-14.38v-2h-2.36a.74.74,0,0,1-.4.3v1.71ZM114,28.32h2.76V26.1H114Zm3.1,3c-.6,0-1.19.06-1.83.12l-.2-.63c1.39.13,2.53.13,3.8.13h3.39c1-1.31,1.1-1.43,1.28-1.43s.29.06.93.66.77.7.77.87-.09.26-.39.26h-1.65c0,.26-.2.4-.56.48v2.52H123c.81-1.23,1-1.51,1.21-1.51s.38.12.94.64a4.71,4.71,0,0,1,.65.69V28.68h-3v.24c0,.61-.67.85-1.65.85-.48,0-.57-.14-.57-.61l.12-3.24v-2a3.74,3.74,0,0,0-.16-1.27l.13-.14a17.4,17.4,0,0,1,2.43.85h2.42c.74-1,1.1-1.17,1.25-1.17s.44.12,1.24.76.81.73.81.95-.18.38-.64.6V29l.18,10.09c0,1.37-1.19,1.93-2.76,1.93-.34,0-.36,0-.45-.52-.14-.65-.58-1.29-1.95-1.65v-.2a8.76,8.76,0,0,0,2.08-.08c.36-.06.54-.2.54-.83V34.58a.6.6,0,0,1-.32.06h-2.8l.16,5.09c0,.87-.56,1-1.61,1-.63,0-.75-.08-.75-.62l.08-5.5h-1.36a6.78,6.78,0,0,1-.93,3.12,7.48,7.48,0,0,1-4.07,3l-.12-.18a7.07,7.07,0,0,0,2.48-2.84,7.36,7.36,0,0,0,.56-3.1c-.88,0-1.71.06-2.62.14l-.2-.64c1,.1,1.93.14,2.84.14Zm2.66,0a.62.62,0,0,1-.54.48v1.29c0,.44,0,.86,0,1.23h1.34v-3Zm6-7.55h-2.62a.74.74,0,0,1-.4.3v1.71h3Zm0,2.37h-3v2.22h3Z" class="cls-2"/><path data-cppathid="10006" d="M143.11,31c0,.3-.2.46-.56.58v2.48h2.23c.95-1.31,1.33-1.76,1.51-1.76s.42.11,1.25.81,1,.89,1,1.07-.1.24-.41.24h-5.55v3.34c0,.58.06.67,1.22.67,1.76,0,2.14-.12,2.8-.77A8,8,0,0,0,148,35.36l.2,0a20.4,20.4,0,0,0-.18,2.11.91.91,0,0,0,.28.78,1.18,1.18,0,0,1,.39.81,1.23,1.23,0,0,1-.71,1.15c-.52.3-1.67.46-4.47.46-3,0-3.4-.38-3.4-2.19l.08-4.09h-1.89a7,7,0,0,1-2.48,4.89,10.28,10.28,0,0,1-5.17,1.77l-.06-.2a8,8,0,0,0,4-2.58,7.33,7.33,0,0,0,1.33-3.88c-2,0-3.78,0-4.79.16l-.18-.68c1.13.12,2.9.16,5,.16,0-.24,0-.49,0-.75V31.08c-.56,0-1.06.06-1.45.1l-.1-.35a17.32,17.32,0,0,1-3.86,1.68l-.07-.18a14.12,14.12,0,0,0,3.85-3.27,1.29,1.29,0,0,1-.4.06c-.58,0-.93-.3-1-1a2.74,2.74,0,0,0-1.31-2.24l.06-.16c2.08.06,3.53.83,3.53,2.13v.1a12.92,12.92,0,0,0,1.59-3.48h-2a27,27,0,0,0-3,.16l-.18-.68a23,23,0,0,0,3.16.16h1.8c.82-1,1.1-1.21,1.28-1.21s.41.12,1.33.93c.75.66,1,.92,1,1.15s-.36.42-1,.52a11.85,11.85,0,0,1-4.31,5.09c1.09.1,2.52.12,4.35.12H141c.92-1.24,1.3-1.61,1.46-1.61s.31,0,1.11.71,1,.84,1,1-.1.23-.42.23Zm-4.19,0c0,.34-.22.48-.58.58v1.65a5.7,5.7,0,0,1,0,.83h1.87V31Zm4.51-8.56c2,1.17,2.26,1.53,2.26,1.77s-.26.38-.93.34a18.58,18.58,0,0,1-2.37,1.15,10.31,10.31,0,0,0,1.79,1.51,11.41,11.41,0,0,0,1.25-1.91,2.26,2.26,0,0,0,.28-.77l.2-.08c2.13,1.23,2.38,1.55,2.38,1.83s-.25.41-1,.33a17.1,17.1,0,0,1-2.38,1,14.16,14.16,0,0,0,4.51,1.47v.22a3.92,3.92,0,0,0-1.85,2c-.16.28-.24.4-.42.4a1.63,1.63,0,0,1-.61-.18,11.57,11.57,0,0,1-6.38-9.12l.2-.06a10.5,10.5,0,0,0,1.51,2.72,15.43,15.43,0,0,0,1-1.78,2.31,2.31,0,0,0,.28-.78Z" class="cls-2"/><path data-cppathid="10007" d="M155.36,29.18c-2,0-3.83,0-4.86.15l-.18-.67c1.15.12,2.94.16,5,.16h1.55V25.7h-.37c-1.63,0-3.42,0-4.46.16l-.17-.68c1.15.12,2.94.16,4.63.16h.37V24a3.67,3.67,0,0,0-.24-1.61l.14-.14c2.61.34,3.3.52,3.3.9,0,.22-.14.35-.79.53v1.67h.2c1-1.37,1.27-1.57,1.47-1.57s.41.16,1.15.76c.28.24.47.41.59.53.26-.37.5-.75.72-1.11a3.1,3.1,0,0,0,.46-1.35l.17-.1c2.57,1.29,2.91,1.65,2.91,2s-.26.36-1,.4a46,46,0,0,1-3.3,3.95h2.67c1-1.31,1.33-1.77,1.51-1.77s.41.12,1.25.82,1,.89,1,1.07-.1.24-.42.24h-6.31a33.23,33.23,0,0,1-3.28,3H163c.78-1,1-1.12,1.17-1.12s.46.12,1.26.72,1,.89,1,1.11-.18.38-.74.64v2.3l.18,3.9c0,.75-.77,1.19-1.85,1.19-.71,0-.79-.1-.79-.7v-.49h-5.48v.21c0,.7-.46,1.12-1.85,1.12-.52,0-.66-.08-.66-.72l.16-4.73v-1a28.67,28.67,0,0,1-4.82,2.07l-.12-.18a30.5,30.5,0,0,0,4.94-3.36,5.34,5.34,0,0,0-.21-1.85l.13-.14c.78.2,1.35.36,1.77.5.86-.79,1.65-1.63,2.45-2.48Zm7.85,3.35h-4.63c-.28.22-.55.42-.85.62v2.54h5.48Zm-5.48,3.52v3.32h5.48V36.05Zm2.1-7.23a37.6,37.6,0,0,0,2.47-3.12h-3v3.12Z" class="cls-2"/><path data-cppathid="10008" d="M170.87,22c3.6,2.55,5.27,5.65,5.27,9.68s-1.67,7.13-5.27,9.67l-.45-.59a10.85,10.85,0,0,0,0-18.16Z" class="cls-2"/><path data-cppathid="10009" d="M54.89,26.77a19.1,19.1,0,0,1-4.88.69c-.12,0-.18-.06-.18-.14a.17.17,0,0,1,.14-.16,27,27,0,0,0,4.41-1.65,18.33,18.33,0,0,0,2.26-1.23c.36-.24.68-.45.68-.57a.76.76,0,0,0-.26-.46,2,2,0,0,0-.28-.24.24.24,0,0,1-.12-.18c0-.06,0-.1.16-.14a3.79,3.79,0,0,1,.74-.1,4.24,4.24,0,0,1,1.74.66c.76.44,1.2.87,1.2,1.33s-.12.48-.62.56a4.12,4.12,0,0,0-.83.23,18,18,0,0,1-2.13.8,3.22,3.22,0,0,1,.77.4c.58.39.9.55.9,1.05a1.26,1.26,0,0,1-.1.42,1.66,1.66,0,0,0-.12.45c0,.08,0,.16,0,.24.4-.06.84-.12,1.27-.2a1.56,1.56,0,0,0,.9-.33,1.57,1.57,0,0,1,.91-.3,4.86,4.86,0,0,1,1.57.38c.71.27,1.13.61,1.13,1.13s-.28.73-.87.73A11.32,11.32,0,0,1,61.93,30a14.18,14.18,0,0,0-2.33,0c-.43,0-.89.06-1.35.12a9.86,9.86,0,0,1-2.6,6.3,9.5,9.5,0,0,1-5,2.56,1.38,1.38,0,0,1-.26,0,.13.13,0,0,1-.14-.12s0-.09.1-.13a10.28,10.28,0,0,0,3.9-3.34,10.53,10.53,0,0,0,1.73-5c-.64.12-1.31.26-1.95.42a5.77,5.77,0,0,0-1.37.48c-.36.21-.52.33-.78.33a2.11,2.11,0,0,1-1.33-.67c-.39-.36-.89-.9-.89-1.25a2.1,2.1,0,0,1,.06-.48c0-.12.08-.16.14-.16a.36.36,0,0,1,.18.08,3.05,3.05,0,0,0,.73.42,1.82,1.82,0,0,0,.74.16,11.82,11.82,0,0,0,1.37-.16c1.25-.22,2.26-.4,3.22-.54,0-.36,0-.73,0-1.11a1.53,1.53,0,0,0-.3-1,1.11,1.11,0,0,0-.3-.25Z" class="cls-3"/><path data-cppathid="10010" d="M77.36,29.61c.71,0,1.23-.08,1.89-.1a6.89,6.89,0,0,1,2,.14c.8.19,1.16.61,1.16,1.19s-.38.85-1.34.87-2.08,0-3.53,0c-1,0-2.31,0-3.34.1s-2.56.18-3.77.32a4.67,4.67,0,0,0-1.3.3,1.43,1.43,0,0,1-.75.18,2.25,2.25,0,0,1-1.51-.84,2.56,2.56,0,0,1-1-1.73,1.49,1.49,0,0,1,.06-.49c0-.1.1-.18.15-.18s.08,0,.16.08a3.9,3.9,0,0,0,.9.57,2.45,2.45,0,0,0,1,.16c.3,0,1,0,1.47-.06,1.81-.1,3.2-.24,4.49-.32Z" class="cls-3"/><path data-cppathid="10011" d="M95,33.6a64,64,0,0,1-6.34,2.26,5,5,0,0,0-1.27.48c-.32.24-.48.38-.8.38s-.85-.34-1.41-.92a2.77,2.77,0,0,1-.87-1.55,2.73,2.73,0,0,1,.16-.75c.06-.14.12-.22.22-.22s.13.06.21.16a6.14,6.14,0,0,0,.64.54,1.12,1.12,0,0,0,.56.2,53.75,53.75,0,0,0,3-6.78,7.09,7.09,0,0,0,.45-1.71c0-.22-.1-.3-.33-.45l-.5-.32c-.12,0-.18-.12-.18-.18s.08-.18.2-.24a2.42,2.42,0,0,1,1-.28,3.86,3.86,0,0,1,1.61.74c.64.41,1.19.91,1.19,1.39a1.21,1.21,0,0,1-.43.81,6.19,6.19,0,0,0-.62.92,59.6,59.6,0,0,1-3.83,5.86l.25-.06c1.77-.32,4.22-.92,6.6-1.43-.14-.26-.3-.5-.44-.72a6.39,6.39,0,0,0-1.51-1.63.21.21,0,0,1-.1-.18c0-.08.08-.15.22-.13a7.23,7.23,0,0,1,4,1.84A4.3,4.3,0,0,1,98,34.35c0,1.1-.58,1.53-1.33,1.53s-1.1-.19-1.51-1.74Z" class="cls-3"/><path data-cppathid="10012" d="M108.25,21.48a10.53,10.53,0,0,0-4.91,9.08,10.53,10.53,0,0,0,4.91,9.08l-.46.6c-3.6-2.55-5.27-5.65-5.27-9.68s1.67-7.13,5.27-9.68Z" class="cls-3"/><path data-cppathid="10013" d="M113,39c0,.66-.62.9-1.77.9-.52,0-.61,0-.61-.58l.15-10.69V22.83a4.43,4.43,0,0,0-.15-1.37l.13-.14a9.65,9.65,0,0,1,2.57.92h2.28c.68-.9.88-1.08,1-1.08s.46.2,1,.66.85.73.85.95-.2.38-.63.58v1.51L118,27.7c0,.75-.72.95-1.61.95-.54,0-.62-.1-.62-.57v-.54H113Zm2.76-14.38v-2h-2.36a.74.74,0,0,1-.4.3V24.6ZM113,27.18h2.76V25H113Zm3.1,3c-.6,0-1.19.06-1.83.12l-.2-.63a35.58,35.58,0,0,0,3.8.14h3.39c1-1.32,1.1-1.44,1.28-1.44s.29.06.93.66.77.7.77.87-.09.26-.39.26h-1.65c0,.26-.2.4-.56.48v2.52H122c.81-1.23,1-1.51,1.21-1.51s.38.12.94.64a5.31,5.31,0,0,1,.65.69V27.54h-3v.24c0,.61-.67.85-1.65.85-.48,0-.57-.14-.57-.61l.12-3.24v-2a3.74,3.74,0,0,0-.16-1.27l.13-.14a15.5,15.5,0,0,1,2.43.86h2.42c.74-1,1.1-1.18,1.25-1.18s.44.12,1.24.76.81.73.81.95-.18.38-.64.6v4.51L127.31,38c0,1.37-1.19,1.93-2.76,1.93-.34,0-.36,0-.45-.52-.14-.65-.58-1.29-1.95-1.65v-.2a8.76,8.76,0,0,0,2.08-.08c.36-.06.54-.2.54-.83V33.44a.6.6,0,0,1-.32.06h-2.8l.16,5.09c0,.87-.56,1-1.61,1-.63,0-.75-.08-.75-.62l.08-5.5h-1.36a6.78,6.78,0,0,1-.93,3.12,7.48,7.48,0,0,1-4.07,3l-.12-.18a7.07,7.07,0,0,0,2.48-2.84,7.36,7.36,0,0,0,.56-3.1c-.88,0-1.71.06-2.62.14l-.2-.64c1,.1,1.93.14,2.84.14Zm2.66,0a.62.62,0,0,1-.54.48v1.29c0,.44,0,.86,0,1.23h1.34v-3Zm6-7.55h-2.62a.74.74,0,0,1-.4.3V24.6h3Zm0,2.37h-3v2.22h3Z" class="cls-3"/><path data-cppathid="10014" d="M142.11,29.88c0,.3-.2.46-.56.58v2.48h2.23c.95-1.31,1.33-1.76,1.51-1.76s.42.11,1.25.81,1,.89,1,1.07-.1.24-.41.24h-5.55v3.34c0,.58.06.67,1.22.67,1.76,0,2.14-.11,2.8-.77A8,8,0,0,0,147,34.22l.2.06a20.08,20.08,0,0,0-.18,2.1.91.91,0,0,0,.28.78,1.18,1.18,0,0,1,.39.81,1.23,1.23,0,0,1-.71,1.15c-.52.3-1.67.46-4.47.46-3,0-3.4-.38-3.4-2.19l.08-4.09h-1.89a7,7,0,0,1-2.48,4.89A10.28,10.28,0,0,1,129.63,40l-.06-.2a8,8,0,0,0,4-2.58,7.33,7.33,0,0,0,1.33-3.88c-2,0-3.78,0-4.79.16l-.18-.67c1.13.11,2.9.15,5,.15,0-.23,0-.49,0-.75V29.94c-.56,0-1.06.06-1.45.1l-.1-.35a17.32,17.32,0,0,1-3.86,1.68l-.07-.17a14.33,14.33,0,0,0,3.85-3.28,1.29,1.29,0,0,1-.4.06c-.58,0-.93-.3-1-1a2.74,2.74,0,0,0-1.31-2.24l.06-.16c2.08.06,3.53.83,3.53,2.13v.1a12.92,12.92,0,0,0,1.59-3.48h-2a27,27,0,0,0-3,.16l-.18-.68a23,23,0,0,0,3.16.16h1.8c.82-1,1.1-1.21,1.28-1.21s.41.12,1.33.93c.75.66,1,.92,1,1.16s-.36.41-1,.51a11.85,11.85,0,0,1-4.31,5.09c1.09.1,2.52.12,4.35.12H140c.92-1.24,1.3-1.61,1.46-1.61s.31,0,1.11.71,1,.84,1,1-.1.23-.42.23Zm-4.19,0c0,.34-.22.48-.58.58v1.65a5.7,5.7,0,0,1,0,.83h1.87V29.88Zm4.51-8.56c2,1.17,2.26,1.53,2.26,1.77s-.26.38-.93.34a18.58,18.58,0,0,1-2.37,1.15,10.31,10.31,0,0,0,1.79,1.51,11.41,11.41,0,0,0,1.25-1.91,2.26,2.26,0,0,0,.28-.77l.2-.08c2.13,1.23,2.38,1.55,2.38,1.83s-.25.41-1,.33a17.1,17.1,0,0,1-2.38,1A14.16,14.16,0,0,0,148.45,28v.22a3.92,3.92,0,0,0-1.85,2c-.16.28-.24.4-.42.4a1.63,1.63,0,0,1-.61-.18,11.57,11.57,0,0,1-6.38-9.12l.2-.06A10.34,10.34,0,0,0,140.9,24a15.43,15.43,0,0,0,1-1.78,2.31,2.31,0,0,0,.28-.78Z" class="cls-3"/><path data-cppathid="10015" d="M154.36,28c-2,0-3.83,0-4.86.16l-.18-.68c1.15.12,2.94.16,5,.16h1.55V24.56h-.37c-1.63,0-3.42,0-4.46.16l-.17-.68c1.15.12,2.94.16,4.63.16h.37V22.85a3.67,3.67,0,0,0-.24-1.61l.14-.14c2.61.34,3.3.52,3.3.9,0,.22-.14.35-.79.53V24.2h.2c1-1.37,1.27-1.57,1.47-1.57s.41.16,1.15.76c.28.24.47.42.59.53.26-.37.5-.75.72-1.11a3.1,3.1,0,0,0,.46-1.35l.17-.1c2.57,1.29,2.91,1.65,2.91,2s-.26.36-1,.4a46,46,0,0,1-3.3,3.95h2.67c1-1.31,1.33-1.77,1.51-1.77s.41.12,1.25.82,1,.89,1,1.07-.1.24-.42.24h-6.31A33.23,33.23,0,0,1,158,31H162c.78-1,1-1.12,1.17-1.12s.46.12,1.26.72,1,.89,1,1.11-.18.38-.74.64v2.3l.18,3.9c0,.75-.77,1.19-1.85,1.19-.71,0-.79-.1-.79-.7v-.49h-5.48v.21c0,.7-.46,1.12-1.85,1.12-.52,0-.66-.08-.66-.72l.16-4.73v-1a28.67,28.67,0,0,1-4.82,2.07l-.12-.18A30.5,30.5,0,0,0,154.38,32a5.34,5.34,0,0,0-.21-1.85l.13-.14c.78.2,1.35.36,1.77.5.86-.79,1.65-1.63,2.45-2.48Zm7.85,3.35h-4.63c-.28.22-.55.42-.85.62v2.54h5.48Zm-5.48,3.52v3.32h5.48V34.91Zm2.1-7.23a37.6,37.6,0,0,0,2.47-3.12h-3v3.12Z" class="cls-3"/><path data-cppathid="10016" d="M169.87,20.88c3.6,2.55,5.27,5.65,5.27,9.68s-1.67,7.13-5.27,9.68l-.45-.6a10.56,10.56,0,0,0,4.91-9.08,10.56,10.56,0,0,0-4.91-9.08Z" class="cls-3"/></g></g></svg>