<?xml version="1.0" encoding="UTF-8"?>
<svg xmlns="http://www.w3.org/2000/svg" onmouseup="{ if(window.parent.document.onmouseup) window.parent.document.onmouseup(arguments[0]);}" viewBox="0 0 233.13 60.73"><defs><style>.cls-1{fill:#6209a8;}.cls-2{fill:#2c0651;}.cls-3{fill:#fff;}</style></defs><g data-name="Layer 2" id="Layer_2"><g id="roles"><polygon data-cppathid="10000" points="233.13 60.73 0 60.73 0 8.42 233.13 0 233.13 60.73" class="cls-1"/><path data-cppathid="10001" d="M61.49,39a15.68,15.68,0,0,1-7.36,3c-.13,0-.22-.07-.22-.13s0-.13.15-.17a21.5,21.5,0,0,0,6.2-4.12,19.15,19.15,0,0,0,4.52-6.39A4.82,4.82,0,0,0,65.21,30c0-.11-.06-.16-.19-.16a1.66,1.66,0,0,0-.28.05c-.71.17-1.79.47-2.45.71a4.85,4.85,0,0,0-1.08.58,1.51,1.51,0,0,1-.88.37A2.26,2.26,0,0,1,59,30.72c-.51-.54-1-1-1-1.53a1.84,1.84,0,0,1,.09-.56c0-.15.1-.21.17-.21a.36.36,0,0,1,.26.13,4,4,0,0,0,.64.41,2.11,2.11,0,0,0,.84.23A6.26,6.26,0,0,0,61.21,29c.95-.17,2.26-.43,3.06-.6.47-.11.45-.11.86-.56a.84.84,0,0,1,.67-.28,4.53,4.53,0,0,1,1.76.77c.82.56,1.49,1.08,1.49,1.68,0,.43-.24.5-.67.69s-.54.37-.88,1a28,28,0,0,1-1.92,3,8,8,0,0,1,3.32,1.14,3.27,3.27,0,0,1,1.83,2.71,1.39,1.39,0,0,1-1.47,1.49c-.86,0-1.23-.43-1.76-1.68a7.22,7.22,0,0,0-2.31-3.14A19.42,19.42,0,0,1,61.49,39Z" class="cls-2"/><path data-cppathid="10002" d="M83.17,29c.4-.06.43-.13.68-.52a.86.86,0,0,1,.61-.28,4.27,4.27,0,0,1,1.66.84c.73.54,1.18,1,1.18,1.51a.76.76,0,0,1-.52.62c-.41.18-.49.35-.77.91a20.26,20.26,0,0,1-5.64,7.58,18,18,0,0,1-7.22,3.49,2,2,0,0,1-.32.06c-.11,0-.17-.06-.17-.13a.17.17,0,0,1,.11-.17,24.13,24.13,0,0,0,6.35-4.76,21,21,0,0,0,4.26-6.72,4.92,4.92,0,0,0,.26-1c0-.1,0-.13-.17-.13a3.7,3.7,0,0,0-.56.11c-.22.09-.52.17-.74.24a1.84,1.84,0,0,1-.71.19,2.16,2.16,0,0,1-1-.32,15.57,15.57,0,0,1-2,2.52,12.14,12.14,0,0,1-4.26,3c-.15.06-.26,0-.26-.11a.22.22,0,0,1,.09-.18,27.14,27.14,0,0,0,2.92-3.74,24.6,24.6,0,0,0,2.11-4.16,3.8,3.8,0,0,0,.33-1.16.55.55,0,0,0-.28-.49,3.52,3.52,0,0,0-.41-.22c-.11,0-.18-.11-.18-.17s.07-.13.16-.2a2.06,2.06,0,0,1,.94-.32,4.69,4.69,0,0,1,1.73.75c.64.44,1,.8,1,1.36,0,.32-.13.43-.41.71a3,3,0,0,0-.65,1c0,.09-.11.19-.15.3C81.64,29.41,82.54,29.17,83.17,29Z" class="cls-2"/><path data-cppathid="10003" d="M99.18,32.33c0-.17,0-.17-.19-.17a6.53,6.53,0,0,0-.86.15c-.82.2-1.94.48-2.8.76a4.91,4.91,0,0,0-1.53.66,1.33,1.33,0,0,1-.91.39,2.26,2.26,0,0,1-1.4-.73c-.43-.39-.9-.93-.9-1.25a2.22,2.22,0,0,1,0-.51c0-.18.09-.24.17-.24a.29.29,0,0,1,.2.08,2.76,2.76,0,0,0,.62.37,1.94,1.94,0,0,0,.8.19,10.42,10.42,0,0,0,1.7-.25c1.33-.28,2.6-.59,3.9-.84.68-.18.75-.15,1-.48a.78.78,0,0,1,.73-.39,4,4,0,0,1,1.66.76c.71.47,1.44,1.05,1.44,1.59a.69.69,0,0,1-.45.58c-.5.2-.54.37-.78,1.06a14.93,14.93,0,0,1-4.56,6.46,14.8,14.8,0,0,1-5.9,2.65,3.18,3.18,0,0,1-.43.06c-.13,0-.22-.06-.22-.15s0-.15.18-.22a15.37,15.37,0,0,0,4.93-3.66,16,16,0,0,0,3.25-5.7A6.5,6.5,0,0,0,99.18,32.33ZM91.6,27.25c0-.15.07-.21.15-.21a.35.35,0,0,1,.17.06c.24.15.46.26.63.35a1.94,1.94,0,0,0,.84.17,10.06,10.06,0,0,0,1.31-.19c.63-.13,1.59-.39,2.26-.59a1.72,1.72,0,0,0,.8-.47c.21-.19.41-.21.84-.21a4.14,4.14,0,0,1,1.44.23c.52.2.8.52.8.93,0,.58-.48.8-1.19,1-1.09.26-2.92.6-4.11.88a7.68,7.68,0,0,1-1.57.22,2.45,2.45,0,0,1-1.62-.8,2.39,2.39,0,0,1-.75-1.12Z" class="cls-2"/><path data-cppathid="10004" d="M117.24,37.39a71.38,71.38,0,0,1-6.87,2.46,5.3,5.3,0,0,0-1.38.52c-.34.25-.51.41-.86.41s-.92-.37-1.53-1a3,3,0,0,1-.94-1.68,2.84,2.84,0,0,1,.17-.82c.06-.15.13-.24.23-.24a.38.38,0,0,1,.24.17,6.85,6.85,0,0,0,.69.58,1.11,1.11,0,0,0,.6.22,56.31,56.31,0,0,0,3.23-7.34,7.6,7.6,0,0,0,.5-1.85c0-.24-.11-.33-.37-.5l-.54-.34c-.13,0-.19-.13-.19-.2s.09-.19.22-.26a2.64,2.64,0,0,1,1.09-.3,4.24,4.24,0,0,1,1.75.8c.69.45,1.29,1,1.29,1.51a1.29,1.29,0,0,1-.47.88,6.41,6.41,0,0,0-.67,1,64.8,64.8,0,0,1-4.16,6.35l.28-.06c1.92-.35,4.57-1,7.15-1.55-.15-.28-.32-.54-.47-.78a7.12,7.12,0,0,0-1.64-1.76.23.23,0,0,1-.11-.2c0-.08.09-.17.24-.15a7.76,7.76,0,0,1,4.28,2,4.65,4.65,0,0,1,1.51,3c0,1.19-.62,1.66-1.44,1.66s-1.19-.21-1.64-1.89Z" class="cls-2"/><path data-cppathid="10005" d="M134.46,32a2.36,2.36,0,0,0,.26-.62c0-.11-.05-.13-.24-.13a8.91,8.91,0,0,0-1.12.15c-1.68.26-4,.75-5.66,1.16a3.91,3.91,0,0,0-1.51.63,1.07,1.07,0,0,1-.86.34,2.46,2.46,0,0,1-1.59-.82c-.48-.47-1.08-1.09-1.08-1.65a1.77,1.77,0,0,1,.07-.5c0-.17.1-.24.19-.24a.31.31,0,0,1,.21.09,4.48,4.48,0,0,0,.8.54,2.16,2.16,0,0,0,.88.26c.33,0,1.17-.13,1.92-.24,2.26-.35,4.71-.75,7-1.08a1.35,1.35,0,0,0,1.12-.51,1.14,1.14,0,0,1,.77-.26,5.2,5.2,0,0,1,2.05,1.27c.77.71,1.4,1.29,1.4,1.85s-.26.67-.91.77a2.36,2.36,0,0,0-1.46.69,33.87,33.87,0,0,1-4.2,2.39,3,3,0,0,1,1.4,2.22,1.42,1.42,0,0,1-1.46,1.62c-.8,0-1.12-.41-1.62-1.53a7,7,0,0,0-3.21-3.6.17.17,0,0,1-.1-.15c0-.09.06-.15.17-.15a8.35,8.35,0,0,1,4.09,1.1A22.24,22.24,0,0,0,134.46,32Z" class="cls-2"/><path data-cppathid="10006" d="M146.88,39a15.67,15.67,0,0,1-7.37,3c-.12,0-.21-.07-.21-.13s0-.13.15-.17a21.5,21.5,0,0,0,6.2-4.12,19.15,19.15,0,0,0,4.52-6.39A5.28,5.28,0,0,0,150.6,30c0-.11-.06-.16-.19-.16a1.66,1.66,0,0,0-.28.05c-.71.17-1.79.47-2.46.71a4.78,4.78,0,0,0-1.07.58,1.51,1.51,0,0,1-.88.37,2.26,2.26,0,0,1-1.32-.78c-.51-.54-1-1-1-1.53a1.84,1.84,0,0,1,.09-.56c0-.15.1-.21.17-.21a.38.38,0,0,1,.26.13,4,4,0,0,0,.64.41,2.11,2.11,0,0,0,.84.23A6.26,6.26,0,0,0,146.6,29c1-.17,2.26-.43,3.06-.6.47-.11.45-.11.86-.56a.82.82,0,0,1,.66-.28,4.5,4.5,0,0,1,1.77.77c.82.56,1.49,1.08,1.49,1.68,0,.43-.24.5-.67.69s-.54.37-.89,1a26.5,26.5,0,0,1-1.91,3,8,8,0,0,1,3.31,1.14,3.27,3.27,0,0,1,1.83,2.71,1.38,1.38,0,0,1-1.46,1.49c-.86,0-1.23-.43-1.77-1.68a7.2,7.2,0,0,0-2.3-3.14A19.42,19.42,0,0,1,146.88,39Z" class="cls-2"/><path data-cppathid="10007" d="M159.88,36.25a.27.27,0,0,1-.13,0,.15.15,0,0,1-.15-.15.28.28,0,0,1,.08-.18,20.42,20.42,0,0,0,2.8-3.94,20.07,20.07,0,0,0,1.88-4.19,3.79,3.79,0,0,0,.21-1,.57.57,0,0,0-.24-.54,1.88,1.88,0,0,0-.43-.28c-.08,0-.15-.1-.15-.17a.27.27,0,0,1,.15-.19,2.43,2.43,0,0,1,1-.24,3.23,3.23,0,0,1,1.61.69c.6.43.93.75.93,1.12a1,1,0,0,1-.31.58,4.9,4.9,0,0,0-.49,1,1.5,1.5,0,0,1-.11.22,12.88,12.88,0,0,0,2-.5,1.15,1.15,0,0,0,.8-.52.79.79,0,0,1,.65-.28,5,5,0,0,1,1.48.78c.58.47,1.19.9,1.19,1.46a.6.6,0,0,1-.46.54c-.41.13-.47.3-.73.82-.6,1.2-1.23,2.41-1.91,3.53a3.89,3.89,0,0,1,2.08,2.84c0,.91-.47,1.53-1.37,1.53-.61,0-.93-.34-1.4-1.33a4.82,4.82,0,0,0-.69-1,16.07,16.07,0,0,1-2,2.14,16.23,16.23,0,0,1-7.75,4l-.26,0c-.11,0-.17,0-.17-.13a.2.2,0,0,1,.13-.17,24,24,0,0,0,6.56-4.91,21.07,21.07,0,0,0,1.94-2.49,8.81,8.81,0,0,0-3.1-1.88A12.62,12.62,0,0,1,159.88,36.25Zm7.66-2.43a19.36,19.36,0,0,0,1.36-3.12,4.94,4.94,0,0,0,.19-.84c0-.11,0-.13-.13-.13a5,5,0,0,0-.66.17,10.1,10.1,0,0,0-1,.33,2.5,2.5,0,0,1-.74.23,1.24,1.24,0,0,1-.66-.26A15.18,15.18,0,0,1,164,32.9,18.87,18.87,0,0,1,167.54,33.82Z" class="cls-2"/><path data-cppathid="10008" d="M188,33.07c.77,0,1.33-.09,2.05-.11a7.77,7.77,0,0,1,2.19.15c.86.22,1.25.67,1.25,1.29s-.41.93-1.44,1c-1.19,0-2.26,0-3.83,0-1,0-2.5,0-3.62.11s-2.78.19-4.09.34a4.73,4.73,0,0,0-1.4.33,1.62,1.62,0,0,1-.82.19,2.46,2.46,0,0,1-1.64-.91,2.78,2.78,0,0,1-1.05-1.87,1.82,1.82,0,0,1,.06-.54c.05-.1.11-.19.18-.19s.08,0,.17.09a4.58,4.58,0,0,0,1,.62,2.67,2.67,0,0,0,1.07.17c.33,0,1.08,0,1.6-.06,2-.11,3.46-.26,4.86-.35Z" class="cls-2"/><path data-cppathid="10009" d="M60.49,37.56a15.57,15.57,0,0,1-7.36,3c-.13,0-.22-.06-.22-.12s0-.13.15-.18a21.47,21.47,0,0,0,6.2-4.11,19.15,19.15,0,0,0,4.52-6.39,4.73,4.73,0,0,0,.43-1.19c0-.11-.06-.15-.19-.15a1.57,1.57,0,0,0-.28,0c-.71.18-1.79.48-2.45.71a4.51,4.51,0,0,0-1.08.59,1.5,1.5,0,0,1-.88.36A2.24,2.24,0,0,1,58,29.32c-.51-.54-1-1-1-1.53a1.8,1.8,0,0,1,.09-.56c0-.15.1-.22.17-.22a.4.4,0,0,1,.26.13,3,3,0,0,0,.64.41,2,2,0,0,0,.84.24,6.26,6.26,0,0,0,1.21-.15c.95-.17,2.26-.43,3.06-.6.47-.11.45-.11.86-.56a.84.84,0,0,1,.67-.28,4.53,4.53,0,0,1,1.76.77c.82.56,1.49,1.08,1.49,1.68,0,.43-.24.49-.67.69s-.54.37-.88,1a28,28,0,0,1-1.92,3,8,8,0,0,1,3.32,1.14,3.26,3.26,0,0,1,1.83,2.71,1.39,1.39,0,0,1-1.47,1.49c-.86,0-1.23-.44-1.76-1.68a7.19,7.19,0,0,0-2.31-3.15A19.13,19.13,0,0,1,60.49,37.56Z" class="cls-3"/><path data-cppathid="10010" d="M82.17,27.62c.4-.07.43-.13.68-.52a.86.86,0,0,1,.61-.28,4.27,4.27,0,0,1,1.66.84c.73.54,1.18,1,1.18,1.51,0,.3-.28.51-.52.62-.41.17-.49.35-.77.91a20.22,20.22,0,0,1-5.64,7.57,17.69,17.69,0,0,1-7.22,3.49,2.06,2.06,0,0,1-.32.07c-.11,0-.17-.07-.17-.13a.18.18,0,0,1,.11-.18,23.87,23.87,0,0,0,6.35-4.75,21,21,0,0,0,4.26-6.72,4.92,4.92,0,0,0,.26-1c0-.11,0-.13-.17-.13a3.7,3.7,0,0,0-.56.11l-.74.24a2,2,0,0,1-.71.19,2.28,2.28,0,0,1-1-.32,15.57,15.57,0,0,1-2,2.52,12,12,0,0,1-4.26,3c-.15.07-.26,0-.26-.11s0-.1.09-.17a27.14,27.14,0,0,0,2.92-3.74,25,25,0,0,0,2.11-4.16,3.8,3.8,0,0,0,.33-1.16.56.56,0,0,0-.28-.5,3.73,3.73,0,0,0-.41-.21c-.11-.05-.18-.11-.18-.18s.07-.12.16-.19a2.06,2.06,0,0,1,.94-.32,4.53,4.53,0,0,1,1.73.75c.64.43,1,.8,1,1.36,0,.32-.13.43-.41.71a2.77,2.77,0,0,0-.65,1,2.79,2.79,0,0,0-.15.3C80.64,28,81.54,27.77,82.17,27.62Z" class="cls-3"/><path data-cppathid="10011" d="M98.18,30.93c0-.17,0-.17-.19-.17a6.53,6.53,0,0,0-.86.15c-.82.19-1.94.47-2.8.75a5.21,5.21,0,0,0-1.53.67,1.33,1.33,0,0,1-.91.39,2.26,2.26,0,0,1-1.4-.73c-.43-.39-.9-.93-.9-1.25a2.31,2.31,0,0,1,0-.52c0-.17.09-.24.17-.24a.3.3,0,0,1,.2.09,3.82,3.82,0,0,0,.62.37,1.94,1.94,0,0,0,.8.19,9.54,9.54,0,0,0,1.7-.26c1.33-.28,2.6-.58,3.9-.84.68-.17.75-.15,1-.47a.78.78,0,0,1,.73-.39,4.05,4.05,0,0,1,1.66.75c.71.48,1.44,1.06,1.44,1.6a.69.69,0,0,1-.45.58c-.5.19-.54.37-.78,1a14.81,14.81,0,0,1-4.56,6.46,14.53,14.53,0,0,1-5.9,2.65,3.21,3.21,0,0,1-.43.07c-.13,0-.22-.07-.22-.15a.26.26,0,0,1,.18-.22,15.37,15.37,0,0,0,4.93-3.66,16.08,16.08,0,0,0,3.25-5.71A6.22,6.22,0,0,0,98.18,30.93ZM90.6,25.85c0-.15.07-.21.15-.21a.35.35,0,0,1,.17.06,6,6,0,0,0,.63.34,2,2,0,0,0,.84.18A8.76,8.76,0,0,0,93.7,26c.63-.13,1.59-.38,2.26-.58a1.72,1.72,0,0,0,.8-.47c.21-.2.41-.22.84-.22A4.13,4.13,0,0,1,99,25a1,1,0,0,1,.8.93c0,.58-.48.79-1.19,1-1.09.26-2.92.61-4.11.89A7.53,7.53,0,0,1,93,28a2.48,2.48,0,0,1-1.62-.79,2.44,2.44,0,0,1-.75-1.12Z" class="cls-3"/><path data-cppathid="10012" d="M116.24,36a71.38,71.38,0,0,1-6.87,2.46A5.68,5.68,0,0,0,108,39c-.34.26-.51.41-.86.41s-.92-.36-1.53-1a3,3,0,0,1-.94-1.68,2.84,2.84,0,0,1,.17-.82c.06-.15.13-.23.23-.23a.35.35,0,0,1,.24.17,6.85,6.85,0,0,0,.69.58,1.3,1.3,0,0,0,.6.22,56.43,56.43,0,0,0,3.23-7.35,7.38,7.38,0,0,0,.5-1.85c0-.23-.11-.32-.37-.49s-.32-.22-.54-.35-.19-.13-.19-.19.09-.19.22-.26a2.64,2.64,0,0,1,1.09-.3,4.24,4.24,0,0,1,1.75.8c.69.45,1.29,1,1.29,1.5a1.31,1.31,0,0,1-.47.89,6.41,6.41,0,0,0-.67,1,64.8,64.8,0,0,1-4.16,6.35l.28-.07c1.92-.34,4.57-1,7.15-1.55-.15-.28-.32-.54-.47-.77a7.16,7.16,0,0,0-1.64-1.77.22.22,0,0,1-.11-.19c0-.09.09-.17.24-.15a7.76,7.76,0,0,1,4.28,2,4.6,4.6,0,0,1,1.51,3c0,1.18-.62,1.66-1.44,1.66s-1.19-.22-1.64-1.9Z" class="cls-3"/><path data-cppathid="10013" d="M133.46,30.61a2.54,2.54,0,0,0,.26-.63c0-.1-.05-.12-.24-.12a8.91,8.91,0,0,0-1.12.15c-1.68.25-4,.75-5.66,1.16a3.94,3.94,0,0,0-1.51.62,1.08,1.08,0,0,1-.86.35,2.46,2.46,0,0,1-1.59-.82c-.48-.47-1.08-1.1-1.08-1.66a1.76,1.76,0,0,1,.07-.49c0-.18.1-.24.19-.24a.31.31,0,0,1,.21.09,4.34,4.34,0,0,0,.8.53,2,2,0,0,0,.88.26c.33,0,1.17-.13,1.92-.23,2.26-.35,4.71-.76,7-1.08a1.39,1.39,0,0,0,1.12-.52,1.19,1.19,0,0,1,.77-.26A5.2,5.2,0,0,1,136.69,29c.77.72,1.4,1.3,1.4,1.86s-.26.66-.91.77a2.36,2.36,0,0,0-1.46.69,35.2,35.2,0,0,1-4.2,2.39,3,3,0,0,1,1.4,2.22,1.41,1.41,0,0,1-1.46,1.61c-.8,0-1.12-.41-1.62-1.53a6.94,6.94,0,0,0-3.21-3.59.17.17,0,0,1-.1-.15c0-.09.06-.15.17-.15a8.47,8.47,0,0,1,4.09,1.09A22.2,22.2,0,0,0,133.46,30.61Z" class="cls-3"/><path data-cppathid="10014" d="M145.88,37.56a15.57,15.57,0,0,1-7.37,3c-.12,0-.21-.06-.21-.12s0-.13.15-.18a21.47,21.47,0,0,0,6.2-4.11,19.15,19.15,0,0,0,4.52-6.39,5.16,5.16,0,0,0,.43-1.19c0-.11-.06-.15-.19-.15a1.57,1.57,0,0,0-.28,0c-.71.18-1.79.48-2.46.71a4.44,4.44,0,0,0-1.07.59,1.5,1.5,0,0,1-.88.36,2.24,2.24,0,0,1-1.32-.77c-.51-.54-1-1-1-1.53a1.8,1.8,0,0,1,.09-.56c0-.15.1-.22.17-.22a.43.43,0,0,1,.26.13,3,3,0,0,0,.64.41,2,2,0,0,0,.84.24,6.26,6.26,0,0,0,1.21-.15c1-.17,2.26-.43,3.06-.6.47-.11.45-.11.86-.56a.82.82,0,0,1,.66-.28A4.5,4.5,0,0,1,152,27c.82.56,1.49,1.08,1.49,1.68,0,.43-.24.49-.67.69s-.54.37-.89,1a26.5,26.5,0,0,1-1.91,3,8,8,0,0,1,3.31,1.14,3.26,3.26,0,0,1,1.83,2.71,1.39,1.39,0,0,1-1.46,1.49c-.86,0-1.23-.44-1.77-1.68a7.17,7.17,0,0,0-2.3-3.15A19.13,19.13,0,0,1,145.88,37.56Z" class="cls-3"/><path data-cppathid="10015" d="M158.88,34.85a.38.38,0,0,1-.13,0,.14.14,0,0,1-.15-.15.26.26,0,0,1,.08-.17,20.73,20.73,0,0,0,2.8-3.94,19.92,19.92,0,0,0,1.88-4.2,3.74,3.74,0,0,0,.21-1,.57.57,0,0,0-.24-.54,1.59,1.59,0,0,0-.43-.28c-.08,0-.15-.11-.15-.17a.29.29,0,0,1,.15-.2,2.41,2.41,0,0,1,1-.23,3.14,3.14,0,0,1,1.61.69c.6.43.93.75.93,1.12a1,1,0,0,1-.31.58,4.64,4.64,0,0,0-.49,1,1.06,1.06,0,0,1-.11.21,12.71,12.71,0,0,0,2-.49,1.15,1.15,0,0,0,.8-.52.76.76,0,0,1,.65-.28,4.72,4.72,0,0,1,1.48.78c.58.47,1.19.9,1.19,1.46a.61.61,0,0,1-.46.54c-.41.13-.47.3-.73.82-.6,1.2-1.23,2.41-1.91,3.53a3.87,3.87,0,0,1,2.08,2.84,1.34,1.34,0,0,1-1.37,1.53c-.61,0-.93-.35-1.4-1.34a4.76,4.76,0,0,0-.69-1,15.38,15.38,0,0,1-2,2.13,16.15,16.15,0,0,1-7.75,4l-.26,0c-.11,0-.17,0-.17-.13a.2.2,0,0,1,.13-.17,24,24,0,0,0,6.56-4.91,22,22,0,0,0,1.94-2.5,8.79,8.79,0,0,0-3.1-1.87A12.62,12.62,0,0,1,158.88,34.85Zm7.66-2.43a19.76,19.76,0,0,0,1.36-3.12,5.16,5.16,0,0,0,.19-.84c0-.11,0-.13-.13-.13a3.77,3.77,0,0,0-.66.17,7.85,7.85,0,0,0-1,.32,2.29,2.29,0,0,1-.74.24,1.33,1.33,0,0,1-.66-.26A15.1,15.1,0,0,1,163,31.49,19.7,19.7,0,0,1,166.54,32.42Z" class="cls-3"/><path data-cppathid="10016" d="M187,31.66c.77,0,1.33-.08,2.05-.1a7.41,7.41,0,0,1,2.19.15c.86.21,1.25.66,1.25,1.29s-.41.92-1.44,1c-1.19,0-2.26,0-3.83,0-1,0-2.5,0-3.62.1s-2.78.2-4.09.35a5,5,0,0,0-1.4.32,1.55,1.55,0,0,1-.82.2,2.46,2.46,0,0,1-1.64-.91,2.78,2.78,0,0,1-1.05-1.87,1.79,1.79,0,0,1,.06-.54c.05-.11.11-.19.18-.19s.08,0,.17.08a4.28,4.28,0,0,0,1,.63,2.67,2.67,0,0,0,1.07.17c.33,0,1.08,0,1.6-.07,2-.1,3.46-.25,4.86-.34C184.67,31.79,185.83,31.73,187,31.66Z" class="cls-3"/></g></g></svg>