<?xml version="1.0" encoding="UTF-8"?>
<svg xmlns="http://www.w3.org/2000/svg" onmouseup="{ if(window.parent.document.onmouseup) window.parent.document.onmouseup(arguments[0]);}" viewBox="0 0 233.13 60.73"><defs><style>.cls-1{fill:#6209a8;}.cls-2{fill:#2c0651;}.cls-3{fill:#fff;}</style></defs><g data-name="Layer 2" id="Layer_2"><g id="roles"><polygon data-cppathid="10000" points="233.13 60.73 0 60.73 0 8.42 233.13 0 233.13 60.73" class="cls-1"/><path data-cppathid="10001" d="M49.66,29.92c0-.17,0-.17-.15-.17a8.06,8.06,0,0,0-1,.2c-1,.21-2.11.45-3,.73a5.36,5.36,0,0,0-1.33.56,1.69,1.69,0,0,1-.95.38,2.39,2.39,0,0,1-1.53-.81,2.75,2.75,0,0,1-.93-1.53,2.77,2.77,0,0,1,.07-.52c0-.15.11-.21.19-.21a.36.36,0,0,1,.22.1,4.77,4.77,0,0,0,.8.48,1.89,1.89,0,0,0,.86.19,11.21,11.21,0,0,0,1.35-.15c1.34-.21,2.87-.5,4.09-.75.89-.18,1-.26,1.34-.61a.79.79,0,0,1,.6-.3,3.77,3.77,0,0,1,1.77.82c.69.47,1.31,1,1.31,1.55,0,.24,0,.39-.37.65-.51.34-.53.47-.75,1.12A17.31,17.31,0,0,1,47,39.59a15,15,0,0,1-6.87,3.06,2.31,2.31,0,0,1-.32,0c-.11,0-.15,0-.15-.13a.2.2,0,0,1,.13-.15,17.92,17.92,0,0,0,5.75-4.33,19.71,19.71,0,0,0,3.83-7A6,6,0,0,0,49.66,29.92ZM54.5,28.2a2,2,0,1,1,2-2A2,2,0,0,1,54.5,28.2Zm0-.82a1.2,1.2,0,1,0-1.2-1.2A1.2,1.2,0,0,0,54.5,27.38Z" class="cls-2"/><path data-cppathid="10002" d="M61.15,39.48c0,.78-.39,1.14-.9,1.14A1.42,1.42,0,0,1,59,39.87a3.62,3.62,0,0,1-.56-1.64,4.25,4.25,0,0,1,0-.62,4.44,4.44,0,0,0,0-.8c-.08-1.42-.23-3.31-.51-5.1-.13-.77-.24-1.18-.48-1.4a1.52,1.52,0,0,0-.51-.32c-.11,0-.17-.09-.17-.15a.31.31,0,0,1,.12-.22,1.24,1.24,0,0,1,.8-.36,6,6,0,0,1,1.85.56,2.29,2.29,0,0,1,.54.36c1.75-.3,3.64-.64,5.25-.88.54-.06.54-.11.93-.52a1,1,0,0,1,.69-.28,4.42,4.42,0,0,1,1.74,1C69.38,30,70,30.55,70,31.07a.87.87,0,0,1-.47.86c-.41.32-.41.45-.61,1.16-.25,1-.45,2.07-.73,3.44a3.26,3.26,0,0,1,.63.18c.6.25.94.62.94,1s-.17.78-.88.78c-.43,0-.86-.13-1.36-.18-.23,0-.51,0-.88,0s-.73,0-1.2,0a35.72,35.72,0,0,0-4.33.59C61.13,39.16,61.15,39.33,61.15,39.48Zm4.13-2.73c.2,0,.39-.07.56-.09.11-1.61.22-3,.28-4.5,0-.45,0-.82,0-1s0-.39-.35-.39a5.27,5.27,0,0,0-.56,0c-1.4.15-3.16.52-4.89.84,0,.35.09.69.11,1s.07.79.11,1.2.11,1,.17,1.51.15,1.36.22,2C62.44,37.12,63.82,36.9,65.28,36.75Z" class="cls-2"/><path data-cppathid="10003" d="M73.87,36.36a.28.28,0,0,1-.13,0,.15.15,0,0,1-.15-.15.25.25,0,0,1,.09-.17,21.18,21.18,0,0,0,2.8-3.94,19.89,19.89,0,0,0,1.87-4.2,3.74,3.74,0,0,0,.21-1,.59.59,0,0,0-.23-.54,2.47,2.47,0,0,0-.43-.28.22.22,0,0,1-.15-.17.23.23,0,0,1,.15-.19,2.25,2.25,0,0,1,1-.24,3.08,3.08,0,0,1,1.61.69c.61.43.93.75.93,1.12a1.05,1.05,0,0,1-.3.58,4.23,4.23,0,0,0-.5,1,1,1,0,0,1-.1.21,13,13,0,0,0,2-.49,1.15,1.15,0,0,0,.79-.52.77.77,0,0,1,.65-.28,4.73,4.73,0,0,1,1.49.78c.58.47,1.18.9,1.18,1.46a.61.61,0,0,1-.45.54c-.41.13-.48.3-.73.82-.61,1.2-1.23,2.41-1.92,3.53a3.89,3.89,0,0,1,2.09,2.84,1.35,1.35,0,0,1-1.38,1.53c-.6,0-.93-.35-1.4-1.34a4.42,4.42,0,0,0-.69-1,14.79,14.79,0,0,1-2,2.13,16.11,16.11,0,0,1-7.75,4,1.66,1.66,0,0,1-.26,0c-.1,0-.17,0-.17-.13a.2.2,0,0,1,.13-.17,23.86,23.86,0,0,0,6.57-4.91,21.09,21.09,0,0,0,1.93-2.5,8.7,8.7,0,0,0-3.1-1.87A12.49,12.49,0,0,1,73.87,36.36Zm7.67-2.43a19.72,19.72,0,0,0,1.35-3.12,4.44,4.44,0,0,0,.2-.84c0-.11,0-.13-.13-.13a4.68,4.68,0,0,0-.67.17c-.3.09-.65.19-1,.32a2.33,2.33,0,0,1-.73.24,1.36,1.36,0,0,1-.67-.26A14.61,14.61,0,0,1,78,33,20,20,0,0,1,81.54,33.93Zm6.09-7.6a1.47,1.47,0,0,1,.82,1.2.92.92,0,0,1-.84,1c-.3,0-.56-.13-.82-.58a4.68,4.68,0,0,0-1.7-1.83c-.11,0-.15-.11-.15-.17s.06-.13.21-.13A4.66,4.66,0,0,1,87.63,26.33Zm0-2.07a4.1,4.1,0,0,1,1.83.35,1.43,1.43,0,0,1,.9,1.22.82.82,0,0,1-.75.91c-.28,0-.49-.09-.84-.58A4.31,4.31,0,0,0,87,24.58c-.1,0-.15-.1-.15-.17s.07-.11.2-.13S87.46,24.26,87.65,24.26Z" class="cls-2"/><path data-cppathid="10004" d="M99.7,29c.41-.06.43-.13.69-.52a.86.86,0,0,1,.61-.28,4.18,4.18,0,0,1,1.65.84c.74.54,1.19,1,1.19,1.51a.76.76,0,0,1-.52.62c-.41.18-.49.35-.77.91a20.28,20.28,0,0,1-5.65,7.58,17.7,17.7,0,0,1-7.21,3.48,1.43,1.43,0,0,1-.32.07c-.11,0-.17-.07-.17-.13a.18.18,0,0,1,.1-.17,24,24,0,0,0,6.36-4.76,21,21,0,0,0,4.26-6.72,4.92,4.92,0,0,0,.26-1c0-.1-.05-.13-.18-.13a3.82,3.82,0,0,0-.55.11c-.22.09-.52.17-.74.24a1.89,1.89,0,0,1-.71.19,2.12,2.12,0,0,1-1-.32,16.14,16.14,0,0,1-2,2.52,12,12,0,0,1-4.26,3c-.16.07-.26,0-.26-.1a.24.24,0,0,1,.08-.18,26.47,26.47,0,0,0,2.93-3.74,24.6,24.6,0,0,0,2.11-4.16,3.76,3.76,0,0,0,.32-1.16.53.53,0,0,0-.28-.49,2.64,2.64,0,0,0-.4-.22c-.11,0-.18-.11-.18-.17s.07-.13.15-.2a2.13,2.13,0,0,1,1-.32,4.66,4.66,0,0,1,1.72.75c.65.44,1,.8,1,1.36,0,.32-.13.43-.41.71a3.2,3.2,0,0,0-.64,1c0,.09-.11.19-.15.3C98.17,29.41,99.08,29.17,99.7,29Z" class="cls-2"/><path data-cppathid="10005" d="M111.39,37.65c0,1,.11,2.41.11,3.47s-.52,1.59-1.27,1.59a1.42,1.42,0,0,1-1.21-.94,4,4,0,0,1-.56-1.71,2,2,0,0,1,.22-.88,2.86,2.86,0,0,0,.15-1.14c0-1.68.06-3.57.15-5.42,0-1.23,0-2.52,0-3.86s-.06-1.53-.41-1.83a2.72,2.72,0,0,0-.71-.45c-.11-.07-.17-.13-.17-.19s.06-.13.15-.2a2.58,2.58,0,0,1,1.23-.45,3.78,3.78,0,0,1,1.8.71c.65.43,1.08.8,1.08,1.31,0,.2,0,.3-.28.5s-.32.39-.36,1.14,0,1.81,0,2.63a7.38,7.38,0,0,1,4.14,1,3,3,0,0,1,1.63,2.43,1.44,1.44,0,0,1-1.44,1.6c-.73,0-1.25-.43-1.61-1.32a5.61,5.61,0,0,0-2.72-3.1C111.33,34.29,111.37,35.89,111.39,37.65Z" class="cls-2"/><path data-cppathid="10006" d="M124.3,39.91a15.79,15.79,0,0,1-5.64,3,.83.83,0,0,1-.26,0c-.1,0-.15,0-.15-.11s.07-.13.15-.19a23.5,23.5,0,0,0,4.7-3.9,17.38,17.38,0,0,0,3.21-4.56,4.12,4.12,0,0,0,.32-.91.69.69,0,0,0-.11-.3.7.7,0,0,1-.08-.3c0-.22.08-.35.36-.35a4.49,4.49,0,0,1,1.57.69c.61.39.91.76.91,1.12a.83.83,0,0,1-.28.63,3.31,3.31,0,0,0-.56.71A17.85,17.85,0,0,1,124.3,39.91ZM132,37.78c.06,1.06.17,2,.17,2.22a2.53,2.53,0,0,1-.75,1.85,1.91,1.91,0,0,1-1.34.67c-.6,0-.77-.28-1.1-1A2.34,2.34,0,0,0,128,40.3c-.33-.24-.76-.56-1.42-1-.11-.06-.15-.13-.15-.19s.08-.17.21-.15a16.41,16.41,0,0,0,2.37.26c.47,0,.56-.07.58-.71,0-1.38,0-4-.15-6.87a29.94,29.94,0,0,0-3.34.6,7,7,0,0,0-1.74.6c-.41.26-.58.41-1,.41a2.37,2.37,0,0,1-1.46-.79c-.45-.46-1-1-1-1.47a2.51,2.51,0,0,1,0-.52c0-.15.09-.21.17-.21a.44.44,0,0,1,.22.11,6.23,6.23,0,0,0,.8.47,2,2,0,0,0,.9.22,12.21,12.21,0,0,0,1.66-.2c1.74-.3,3.23-.49,4.61-.66,0-.8-.09-1.64-.16-2.67,0-.65-.1-.91-.47-1.15A2.86,2.86,0,0,0,128,26c-.11,0-.15-.1-.15-.17a.28.28,0,0,1,.13-.21,1.83,1.83,0,0,1,1.16-.48,4.92,4.92,0,0,1,1.81.54c.64.32,1.12.69,1.12,1.18a1,1,0,0,1-.22.61c-.21.17-.24.43-.24,1s0,1,0,1.55c.43-.07.84-.11,1.23-.15.56-.07.65-.09.93-.31a1,1,0,0,1,.66-.19,5,5,0,0,1,1.85.45c.63.33.93.56.93,1.1s-.21.75-.88.75a12.43,12.43,0,0,1-1.55-.17,9.11,9.11,0,0,0-1.77-.08c-.43,0-.9,0-1.35.06C131.71,33.61,131.86,36,132,37.78Z" class="cls-2"/><path data-cppathid="10007" d="M151.53,33.07c.78,0,1.34-.09,2.05-.11a7.84,7.84,0,0,1,2.2.15c.86.22,1.24.67,1.24,1.29s-.4.93-1.44,1-2.26,0-3.83,0c-1,0-2.5,0-3.62.11s-2.77.19-4.09.34a5.11,5.11,0,0,0-1.4.32,1.55,1.55,0,0,1-.82.2,2.44,2.44,0,0,1-1.63-.91,2.8,2.8,0,0,1-1.06-1.87,1.57,1.57,0,0,1,.07-.54c0-.1.11-.19.17-.19a.27.27,0,0,1,.17.09,4.84,4.84,0,0,0,1,.62,2.69,2.69,0,0,0,1.08.17c.32,0,1.07,0,1.59-.06,2-.11,3.47-.26,4.87-.35Z" class="cls-2"/><path data-cppathid="10008" d="M165.83,27.88c-.05-.88-.07-1.1-.52-1.34a4.18,4.18,0,0,0-.65-.3c-.13,0-.19-.11-.19-.17a.32.32,0,0,1,.17-.22,3.07,3.07,0,0,1,1.38-.53,3.81,3.81,0,0,1,1.57.51c.8.48,1.27.8,1.27,1.29a.89.89,0,0,1-.15.5,1.81,1.81,0,0,0-.21.9c-.07.76-.11,1.53-.15,2.33l1.42-.15a1.12,1.12,0,0,0,.94-.37,1.27,1.27,0,0,1,.87-.28,6.17,6.17,0,0,1,2,.58c.64.31,1,.63,1,1.19s-.26.75-.82.75a8.57,8.57,0,0,1-1.62-.17,12,12,0,0,0-2.58-.13c-.34,0-.8,0-1.29.09-.24,3-.91,5.83-3.15,8a10.81,10.81,0,0,1-5.29,2.86,2.17,2.17,0,0,1-.35.07.16.16,0,0,1-.17-.13.19.19,0,0,1,.13-.17,12,12,0,0,0,4.07-3.64,13.54,13.54,0,0,0,2.24-6.68c-.84.15-1.66.35-2.35.5a2.72,2.72,0,0,0-1.05.47,1.3,1.3,0,0,1-.84.32,2.62,2.62,0,0,1-1.47-.79c-.58-.5-1-1.1-1-1.44a3.24,3.24,0,0,1,0-.59c0-.15.09-.21.17-.21a.33.33,0,0,1,.22.09,4.56,4.56,0,0,0,.84.49,2.13,2.13,0,0,0,1,.26,16.05,16.05,0,0,0,1.68-.2c1-.17,1.95-.32,2.95-.47C165.85,30.1,165.87,29,165.83,27.88Z" class="cls-2"/><path data-cppathid="10009" d="M188.88,33.07c.77,0,1.33-.09,2.05-.11a7.77,7.77,0,0,1,2.19.15c.86.22,1.25.67,1.25,1.29s-.41.93-1.44,1c-1.19,0-2.26,0-3.83,0-1,0-2.5,0-3.62.11s-2.78.19-4.09.34a5,5,0,0,0-1.4.32,1.55,1.55,0,0,1-.82.2,2.46,2.46,0,0,1-1.64-.91,2.78,2.78,0,0,1-1.05-1.87,1.82,1.82,0,0,1,.06-.54c.05-.1.11-.19.18-.19s.08,0,.17.09a4.58,4.58,0,0,0,1,.62,2.67,2.67,0,0,0,1.07.17c.33,0,1.08,0,1.6-.06,2-.11,3.46-.26,4.86-.35Z" class="cls-2"/><path data-cppathid="10010" d="M48.66,28.52c0-.17,0-.17-.15-.17a10.1,10.1,0,0,0-1,.19c-1,.22-2.11.45-3,.73a5.21,5.21,0,0,0-1.33.56,1.64,1.64,0,0,1-.95.39,2.41,2.41,0,0,1-1.53-.82,2.64,2.64,0,0,1-.93-1.53,2.58,2.58,0,0,1,.07-.51c0-.15.11-.22.19-.22a.33.33,0,0,1,.22.11,4.33,4.33,0,0,0,.79.47,2,2,0,0,0,.87.2c.23,0,.79-.07,1.35-.15,1.34-.22,2.87-.5,4.09-.76.89-.17,1-.26,1.34-.6a.74.74,0,0,1,.6-.3,3.81,3.81,0,0,1,1.77.82c.68.47,1.31,1,1.31,1.55,0,.23,0,.38-.37.64-.51.35-.54.48-.75,1.12a17.35,17.35,0,0,1-5.19,8,15,15,0,0,1-6.87,3.05,1.48,1.48,0,0,1-.32,0c-.11,0-.15,0-.15-.13a.2.2,0,0,1,.13-.15,18.06,18.06,0,0,0,5.75-4.33,19.75,19.75,0,0,0,3.83-7A5.93,5.93,0,0,0,48.66,28.52ZM53.5,26.8a2,2,0,1,1,2-2A2,2,0,0,1,53.5,26.8Zm0-.82a1.2,1.2,0,1,0,0-2.39,1.2,1.2,0,0,0,0,2.39Z" class="cls-3"/><path data-cppathid="10011" d="M60.15,38.08c0,.77-.39,1.14-.9,1.14A1.41,1.41,0,0,1,58,38.47a3.62,3.62,0,0,1-.56-1.64,4.25,4.25,0,0,1,0-.62,4.41,4.41,0,0,0,0-.8c-.08-1.42-.23-3.32-.51-5.1-.13-.78-.24-1.19-.48-1.4a1.72,1.72,0,0,0-.51-.33c-.11,0-.18-.08-.18-.15a.31.31,0,0,1,.13-.21,1.2,1.2,0,0,1,.8-.37,6,6,0,0,1,1.85.56,2.28,2.28,0,0,1,.54.37c1.74-.3,3.64-.65,5.25-.88.54-.07.54-.11.93-.52a.92.92,0,0,1,.69-.28,4.3,4.3,0,0,1,1.74,1c.73.52,1.36,1.05,1.36,1.57a.88.88,0,0,1-.47.86c-.41.32-.41.45-.61,1.16-.26,1-.45,2.07-.73,3.45a3,3,0,0,1,.62.17c.61.26,1,.63,1,1.06s-.17.77-.88.77c-.43,0-.86-.13-1.36-.17-.23,0-.51,0-.88,0s-.73,0-1.21,0a37.92,37.92,0,0,0-4.32.58C60.13,37.76,60.15,37.93,60.15,38.08Zm4.13-2.74.56-.08c.11-1.62.22-3,.28-4.5,0-.45,0-.82,0-1.06s0-.38-.34-.38a5.27,5.27,0,0,0-.56,0c-1.4.15-3.16.52-4.89.84,0,.34.09.69.11,1s.07.8.11,1.21.11,1,.17,1.51.15,1.35.22,2C61.44,35.71,62.82,35.5,64.28,35.34Z" class="cls-3"/><path data-cppathid="10012" d="M72.87,35a.33.33,0,0,1-.13,0,.14.14,0,0,1-.15-.15.24.24,0,0,1,.09-.17,21.52,21.52,0,0,0,2.8-3.94,20.12,20.12,0,0,0,1.87-4.2,3.74,3.74,0,0,0,.21-1,.59.59,0,0,0-.23-.54,1.68,1.68,0,0,0-.43-.28c-.09-.05-.15-.11-.15-.18a.25.25,0,0,1,.15-.19,2.39,2.39,0,0,1,1-.24,3.2,3.2,0,0,1,1.61.69c.61.43.93.76.93,1.12a1,1,0,0,1-.3.58,4.44,4.44,0,0,0-.5,1,.76.76,0,0,1-.11.22,11.91,11.91,0,0,0,2-.5,1.17,1.17,0,0,0,.79-.51.77.77,0,0,1,.65-.28,4.85,4.85,0,0,1,1.49.77c.58.48,1.18.91,1.18,1.47a.59.59,0,0,1-.45.53c-.41.13-.48.31-.73.82-.61,1.21-1.23,2.41-1.92,3.53a3.9,3.9,0,0,1,2.09,2.84,1.35,1.35,0,0,1-1.38,1.53c-.6,0-.93-.34-1.4-1.33a4.21,4.21,0,0,0-.69-1,15.92,15.92,0,0,1-2,2.13,16.14,16.14,0,0,1-7.75,4,1.91,1.91,0,0,1-.26.05c-.11,0-.17-.05-.17-.13a.21.21,0,0,1,.13-.18,23.64,23.64,0,0,0,6.57-4.9A21.93,21.93,0,0,0,79.67,34a8.56,8.56,0,0,0-3.1-1.87A12.49,12.49,0,0,1,72.87,35Zm7.67-2.44a19.33,19.33,0,0,0,1.35-3.12,4,4,0,0,0,.19-.84c0-.1,0-.13-.12-.13a3.8,3.8,0,0,0-.67.18,8.44,8.44,0,0,0-1,.32,2.33,2.33,0,0,1-.73.24,1.36,1.36,0,0,1-.67-.26A14.61,14.61,0,0,1,77,31.6,20,20,0,0,1,80.54,32.52Zm6.09-7.6a1.48,1.48,0,0,1,.82,1.21.92.92,0,0,1-.84,1c-.3,0-.56-.13-.82-.58a4.61,4.61,0,0,0-1.7-1.83c-.11-.05-.15-.11-.15-.18s.06-.12.21-.12A4.67,4.67,0,0,1,86.63,24.92Zm0-2.06a4.26,4.26,0,0,1,1.83.34,1.43,1.43,0,0,1,.9,1.23.81.81,0,0,1-.75.9c-.28,0-.49-.08-.84-.58A4.27,4.27,0,0,0,86,23.18a.21.21,0,0,1-.15-.17c0-.07.07-.11.2-.13S86.46,22.86,86.65,22.86Z" class="cls-3"/><path data-cppathid="10013" d="M98.7,27.62c.41-.07.43-.13.69-.52a.86.86,0,0,1,.6-.28,4.07,4.07,0,0,1,1.66.84c.73.54,1.19,1,1.19,1.51,0,.3-.28.51-.52.62-.41.17-.5.34-.78.9a20.08,20.08,0,0,1-5.64,7.58,17.65,17.65,0,0,1-7.21,3.49,2.71,2.71,0,0,1-.32.07c-.11,0-.17-.07-.17-.13a.19.19,0,0,1,.1-.18,23.56,23.56,0,0,0,6.35-4.75,21,21,0,0,0,4.27-6.72,4.92,4.92,0,0,0,.26-1c0-.11-.05-.13-.18-.13a4.27,4.27,0,0,0-.56.11c-.21.08-.51.17-.73.23a1.92,1.92,0,0,1-.71.2,2.24,2.24,0,0,1-1-.32,15.62,15.62,0,0,1-2,2.51,11.93,11.93,0,0,1-4.27,3c-.15.07-.25,0-.25-.11a.22.22,0,0,1,.08-.17,26,26,0,0,0,2.93-3.75,24.88,24.88,0,0,0,2.11-4.15,3.84,3.84,0,0,0,.32-1.16.54.54,0,0,0-.28-.5,2.49,2.49,0,0,0-.41-.21c-.1-.05-.17-.11-.17-.18s.07-.13.15-.19a2.13,2.13,0,0,1,1-.32,4.5,4.5,0,0,1,1.72.75c.65.43,1,.8,1,1.36,0,.32-.13.43-.41.71a2.94,2.94,0,0,0-.64,1,1.68,1.68,0,0,0-.15.3C97.17,28,98.08,27.77,98.7,27.62Z" class="cls-3"/><path data-cppathid="10014" d="M110.39,36.25c0,1,.11,2.41.11,3.46s-.52,1.6-1.27,1.6c-.52,0-.91-.37-1.21-1a4,4,0,0,1-.56-1.7,2,2,0,0,1,.22-.88,2.86,2.86,0,0,0,.15-1.14c0-1.68.06-3.58.15-5.43,0-1.23,0-2.52,0-3.85s-.06-1.53-.41-1.83a2.48,2.48,0,0,0-.71-.45c-.11-.07-.17-.13-.17-.2s.06-.13.15-.19a2.58,2.58,0,0,1,1.23-.45,3.68,3.68,0,0,1,1.8.71c.65.43,1.08.79,1.08,1.31,0,.19,0,.3-.28.49s-.32.39-.37,1.15,0,1.8,0,2.62a7.49,7.49,0,0,1,4.14,1A3,3,0,0,1,116.07,34a1.44,1.44,0,0,1-1.44,1.59c-.73,0-1.25-.43-1.61-1.31a5.58,5.58,0,0,0-2.72-3.1C110.32,32.89,110.37,34.48,110.39,36.25Z" class="cls-3"/><path data-cppathid="10015" d="M123.3,38.51a15.93,15.93,0,0,1-5.64,3,.83.83,0,0,1-.26,0c-.1,0-.15,0-.15-.1s.07-.13.15-.2a23.8,23.8,0,0,0,4.7-3.89,17.49,17.49,0,0,0,3.21-4.57,4,4,0,0,0,.32-.9.65.65,0,0,0-.11-.3.8.8,0,0,1-.09-.3c0-.22.09-.35.37-.35a4.49,4.49,0,0,1,1.57.69c.61.39.91.75.91,1.12a.79.79,0,0,1-.28.62,3.89,3.89,0,0,0-.56.71A17.88,17.88,0,0,1,123.3,38.51ZM131,36.38c.06,1,.17,2,.17,2.22a2.54,2.54,0,0,1-.75,1.85,2,2,0,0,1-1.34.67c-.6,0-.77-.29-1.1-1A2.37,2.37,0,0,0,127,38.9c-.33-.24-.76-.56-1.42-1-.11-.07-.16-.13-.16-.2s.09-.17.22-.15a15,15,0,0,0,2.37.26c.47,0,.56-.06.58-.71,0-1.38,0-4-.15-6.87a30.07,30.07,0,0,0-3.34.61,6.63,6.63,0,0,0-1.74.6c-.41.26-.58.41-1,.41a2.34,2.34,0,0,1-1.46-.8c-.46-.45-1-1-1-1.46a2.46,2.46,0,0,1,0-.52c0-.15.09-.21.17-.21a.5.5,0,0,1,.22.1,6,6,0,0,0,.79.48,2,2,0,0,0,.91.21,13.87,13.87,0,0,0,1.66-.19c1.74-.3,3.23-.5,4.6-.67,0-.8-.08-1.64-.15-2.67,0-.64-.1-.9-.47-1.14a2.6,2.6,0,0,0-.75-.43c-.11,0-.15-.11-.15-.17a.31.31,0,0,1,.12-.22,1.92,1.92,0,0,1,1.17-.47,4.92,4.92,0,0,1,1.81.54c.64.32,1.12.69,1.12,1.18a1,1,0,0,1-.22.6c-.22.18-.24.43-.24,1s0,1,0,1.55l1.23-.15c.56-.06.65-.08.92-.3a1.06,1.06,0,0,1,.67-.19,5,5,0,0,1,1.85.45c.63.32.93.56.93,1.1s-.22.75-.88.75a14.7,14.7,0,0,1-1.55-.17A9.07,9.07,0,0,0,132,30a12.78,12.78,0,0,0-1.36.07C130.71,32.2,130.86,34.63,131,36.38Z" class="cls-3"/><path data-cppathid="10016" d="M150.53,31.66c.78,0,1.34-.08,2.05-.1a7.15,7.15,0,0,1,2.2.15c.86.21,1.24.66,1.24,1.29s-.41.92-1.44,1c-1.18,0-2.26,0-3.83,0-1,0-2.5,0-3.62.1s-2.78.2-4.09.35a5.11,5.11,0,0,0-1.4.32,1.62,1.62,0,0,1-.82.19,2.42,2.42,0,0,1-1.63-.9,2.8,2.8,0,0,1-1.06-1.87,1.52,1.52,0,0,1,.07-.54c0-.11.1-.2.17-.2a.34.34,0,0,1,.17.09,4.28,4.28,0,0,0,1,.63,2.69,2.69,0,0,0,1.08.17c.32,0,1.07,0,1.59-.07,2-.1,3.47-.26,4.87-.34C148.23,31.79,149.39,31.73,150.53,31.66Z" class="cls-3"/><path data-cppathid="10017" d="M164.83,26.47c-.05-.88-.07-1.09-.52-1.33a3.74,3.74,0,0,0-.65-.3c-.13-.05-.19-.11-.19-.17a.29.29,0,0,1,.17-.22,3,3,0,0,1,1.38-.54,3.86,3.86,0,0,1,1.57.52c.8.47,1.27.8,1.27,1.29a.91.91,0,0,1-.15.5,1.7,1.7,0,0,0-.21.9c-.07.75-.11,1.53-.16,2.33.5-.07,1-.11,1.43-.16a1.12,1.12,0,0,0,.94-.36,1.21,1.21,0,0,1,.86-.28,6.15,6.15,0,0,1,2,.58c.64.3,1,.62,1,1.18s-.26.76-.82.76a9.48,9.48,0,0,1-1.62-.17,11.36,11.36,0,0,0-2.58-.13l-1.29.08c-.24,2.95-.91,5.84-3.15,8.05a10.87,10.87,0,0,1-5.29,2.87,2.14,2.14,0,0,1-.35.06c-.11,0-.17-.06-.17-.13a.2.2,0,0,1,.13-.17A11.92,11.92,0,0,0,162.48,38a13.5,13.5,0,0,0,2.24-6.67c-.84.15-1.66.34-2.35.49a2.74,2.74,0,0,0-1.05.48,1.36,1.36,0,0,1-.84.32,2.64,2.64,0,0,1-1.47-.8,2.72,2.72,0,0,1-1-1.44,3.14,3.14,0,0,1,0-.58c0-.15.09-.22.17-.22a.4.4,0,0,1,.22.09,4.18,4.18,0,0,0,.84.5,2.09,2.09,0,0,0,.94.25,15.08,15.08,0,0,0,1.68-.19c1-.17,2-.32,3-.47C164.85,28.69,164.87,27.59,164.83,26.47Z" class="cls-3"/><path data-cppathid="10018" d="M187.88,31.66c.77,0,1.33-.08,2-.1a7.15,7.15,0,0,1,2.2.15c.86.21,1.25.66,1.25,1.29s-.41.92-1.44,1c-1.19,0-2.26,0-3.84,0-1,0-2.49,0-3.61.1s-2.78.2-4.09.35a5,5,0,0,0-1.4.32,1.64,1.64,0,0,1-.82.19,2.44,2.44,0,0,1-1.64-.9,2.78,2.78,0,0,1-1.05-1.87,1.75,1.75,0,0,1,.06-.54c.05-.11.11-.2.17-.2s.09,0,.18.09a4.28,4.28,0,0,0,1,.63,2.67,2.67,0,0,0,1.07.17c.32,0,1.08,0,1.6-.07,1.95-.1,3.46-.26,4.86-.34C185.58,31.79,186.74,31.73,187.88,31.66Z" class="cls-3"/></g></g></svg>