<?xml version="1.0" encoding="UTF-8"?>
<svg xmlns="http://www.w3.org/2000/svg" onmouseup="{ if(window.parent.document.onmouseup) window.parent.document.onmouseup(arguments[0]);}" viewBox="0 0 318.39 279.29" xmlns:xlink="http://www.w3.org/1999/xlink"><defs><style>.cls-1{isolation:isolate;}.cls-2{fill:#d7d7d7;}.cls-3{fill:#c69c6d;}.cls-4{fill:url(#linear-gradient);}.cls-14,.cls-28,.cls-30,.cls-5{fill:none;}.cls-5,.cls-9{stroke:#d86c00;}.cls-34,.cls-5{stroke-miterlimit:10;}.cls-5{stroke-width:3px;}.cls-6{opacity:0.09;mix-blend-mode:overlay;fill:url(#linear-gradient-2);}.cls-7{fill:#c66a05;}.cls-8{fill:#fff;}.cls-9{fill:#d86c00;stroke-linecap:round;stroke-linejoin:round;stroke-width:10px;}.cls-10,.cls-11,.cls-12,.cls-13,.cls-14{stroke:#b28732;stroke-width:2px;}.cls-10{fill:url(#linear-gradient-3);}.cls-11{fill:url(#linear-gradient-4);}.cls-12{fill:url(#linear-gradient-5);}.cls-13{fill:url(#linear-gradient-6);}.cls-15{fill:#322612;}.cls-16{fill:#363b35;}.cls-17{fill:#292d27;opacity:0.59;}.cls-18{fill:#fcc388;}.cls-19{fill:#ddb23a;}.cls-19,.cls-28{stroke:#7b5120;stroke-width:1.05px;}.cls-20{fill:#eba061;}.cls-21{fill:#7d7c66;}.cls-22{fill:#545147;}.cls-23{fill:#fcc287;}.cls-24,.cls-25{stroke:#000;}.cls-24{stroke-width:0.66px;}.cls-25{stroke-width:0.86px;}.cls-26{fill:#7b5120;}.cls-27{fill:#ffcc52;}.cls-29{fill:#555e53;}.cls-30{stroke:#2e332d;stroke-width:3.15px;}.cls-31{fill:#dae2d6;}.cls-32{fill:#2e332d;}.cls-33{fill:#738070;}.cls-34{fill:#684d1e;stroke:#322612;}</style><linearGradient gradientUnits="userSpaceOnUse" y2="28.15" x2="90.14" y1="258.93" x1="90.14" id="linear-gradient"><stop stop-color="#d06b00" offset="0"/><stop stop-color="#da7d00" offset="0.06"/><stop stop-color="#e79600" offset="0.17"/><stop stop-color="#f2a900" offset="0.29"/><stop stop-color="#f9b700" offset="0.43"/><stop stop-color="#febf00" offset="0.6"/><stop stop-color="#ffc100" offset="0.92"/><stop stop-color="#d06b00" offset="1"/></linearGradient><linearGradient gradientUnits="userSpaceOnUse" y2="62.85" x2="-4.78" y1="142.75" x1="93.88" id="linear-gradient-2"><stop stop-color="#fff" offset="0"/><stop stop-opacity="0.91" stop-color="#fff" offset="0.05"/><stop stop-opacity="0.67" stop-color="#fff" offset="0.2"/><stop stop-opacity="0.47" stop-color="#fff" offset="0.35"/><stop stop-opacity="0.3" stop-color="#fff" offset="0.5"/><stop stop-opacity="0.17" stop-color="#fff" offset="0.64"/><stop stop-opacity="0.08" stop-color="#fff" offset="0.77"/><stop stop-opacity="0.02" stop-color="#fff" offset="0.9"/><stop stop-opacity="0" stop-color="#fff" offset="1"/></linearGradient><linearGradient gradientUnits="userSpaceOnUse" y2="149.42" x2="129.92" y1="149.42" x1="67.5" id="linear-gradient-3"><stop stop-color="#ebd04f" offset="0"/><stop stop-color="#fff0a2" offset="1"/></linearGradient><linearGradient xlink:href="#linear-gradient-3" y2="154.94" x2="100.72" y1="154.94" x1="58.85" id="linear-gradient-4"/><linearGradient gradientUnits="userSpaceOnUse" gradientTransform="matrix(0.91, 0.48, -0.52, 0.98, 593.78, -2740.97)" y2="2490.73" x2="896.98" y1="2490.73" x1="871.28" id="linear-gradient-5"><stop stop-color="#ffd073" offset="0"/><stop stop-color="#fff0a2" offset="1"/></linearGradient><linearGradient xlink:href="#linear-gradient-5" gradientTransform="matrix(1, 0, 0, 1, 0, 0)" y2="127.35" x2="101.24" y1="127.35" x1="79.97" id="linear-gradient-6"/></defs><g class="cls-1"><g data-name="Layer 2" id="Layer_2"><g data-name="Layer 7 jp" id="Layer_7_jp"><path data-cppathid="10000" d="M292.18,270.24c0,5-26.95,9.05-60.19,9.05s-60.18-4.05-60.18-9.05,26.94-9,60.18-9S292.18,265.25,292.18,270.24Z" class="cls-2"/><path data-cppathid="10001" d="M316,184.3c0-.25.13-.15.16-.18C316.13,184.34,316.1,184,316,184.3Z" class="cls-3"/><polygon data-cppathid="10002" points="318.37 174.76 318.19 174.7 318.39 174.69 318.37 174.76" class="cls-3"/><polygon data-cppathid="10003" points="318.37 174.76 318.39 174.69 318.19 174.7 318.37 174.76" class="cls-3"/><path data-cppathid="10004" d="M316,184.3c.07-.29.1,0,.16-.18C316.16,184.15,316,184.05,316,184.3Z" class="cls-3"/><path data-cppathid="10005" d="M313.06,165.68v0Z"/><polygon data-cppathid="10006" points="318.19 174.7 318.39 174.69 318.37 174.76 318.19 174.7"/><path data-cppathid="10007" d="M316,184.3c0-.25.13-.15.16-.18C316.13,184.34,316.1,184,316,184.3Z"/><path data-cppathid="10008" d="M315.57,185.25l0,0Z"/><path data-cppathid="10009" d="M315.62,185.59s0-.05,0-.07S315.66,185.6,315.62,185.59Z"/><path data-cppathid="10010" d="M226.49,257.93c0,3.76-50.7,6.8-113.25,6.8S0,261.69,0,257.93s50.7-6.81,113.24-6.81S226.49,254.17,226.49,257.93Z" class="cls-2"/><rect data-cppathid="10011" height="230.78" width="166.81" y="28.15" x="6.74" class="cls-4"/><rect data-cppathid="10012" height="218.36" width="154.17" y="33.97" x="12.74" class="cls-5"/><path data-cppathid="10013" d="M82.45,104.84c-37.86,47-66.11,133.65-66.11,133.65V36.77H158.78S120.84,57.21,82.45,104.84Z" class="cls-6"/><path data-cppathid="10014" d="M48.93,65.23c4.19,1.18,4.9,1.55,4.9,2.08,0,.31-.22.59-1.3.74a43.06,43.06,0,0,1-2.76,5.86c1.61.28,2.08.5,2.08.87s-.22.53-1.15.84V93c0,1.24-1,1.58-2.54,1.58-1,0-1.21-.06-1.21-1.11l.24-10.17V77.63a21.9,21.9,0,0,1-4,3.79l-.24-.25A37.29,37.29,0,0,0,48.56,67a5,5,0,0,0,.09-1.64Zm9.4,7.69a22.06,22.06,0,0,1-6.42,6.39l-.19-.22a32.15,32.15,0,0,0,5.09-10.91,7.11,7.11,0,0,0,.34-2.64l.25-.18c4.43,1.11,5,1.51,5,2.07s-.44.72-1.52.87a35.86,35.86,0,0,1-2.2,4.06h8c1.83-2.51,2.14-2.88,2.45-2.88s.68.22,1.82,1.21c1.31,1.11,1.46,1.42,1.46,1.77s-.18.46-.74.46H63.91c-.07.47-.31.71-.93,1v5.43h2.85c1.67-2.24,2-2.61,2.29-2.61s.69.25,1.68,1.12c1.18,1,1.39,1.24,1.39,1.58s-.18.47-.68.47H63l.12,6.35h2.73c1.67-2.23,2-2.6,2.29-2.6s.62.15,1.65,1.08,1.42,1.27,1.42,1.62-.18.46-.68.46H63.1l.12,6c0,1.11-.8,1.73-3,1.73-1.06,0-1.21-.12-1.21-1.18l.25-13.17V72.92Z" class="cls-7"/><path data-cppathid="10015" d="M88.55,65.32c4,.47,5.09.78,5.15,1.24,2.79.1,4.46,1.34,4.46,3a1.7,1.7,0,0,1-1.8,1.92c-.77,0-1.39-.53-1.52-1.64A3.66,3.66,0,0,0,93.54,67a2.65,2.65,0,0,1-1.08.56c0,1.67.06,3.22.15,4.68h4.5c1.49-2,2.08-2.76,2.35-2.76s.66.18,2,1.27,1.52,1.4,1.52,1.67-.16.38-.65.38H92.64a41.25,41.25,0,0,0,1.62,9.73,33.06,33.06,0,0,0,2-5.24,9.19,9.19,0,0,0,.47-2.23l.28-.12c3.93,1.73,4.49,2.29,4.49,2.79s-.46.65-1.55.68A32.11,32.11,0,0,1,95.81,86c1.17,1.83,2.91,3.29,3.59,3.29a1,1,0,0,0,.9-.49,30.44,30.44,0,0,0,2.58-4l.27.16a43.56,43.56,0,0,0-.93,4.28,2.89,2.89,0,0,0,.44,1.7,3.34,3.34,0,0,1,.49,1.65c0,1.14-.8,1.8-2.13,1.8-2.33,0-5.52-2.21-7.76-5.4a24,24,0,0,1-9.55,4.87l-.12-.28a25.89,25.89,0,0,0,8.28-7.1,30.66,30.66,0,0,1-1.89-6,53.08,53.08,0,0,1-1-7.65H81.23a1.83,1.83,0,0,1-.68.4v5.12h3.1c1.27-1.55,1.52-1.8,1.86-1.8s.81.18,1.89,1.18,1.37,1.39,1.37,1.73-.25.53-1.15.93A52.55,52.55,0,0,1,87,86.87c-.47,2.2-1.12,3.29-2.17,4a4.25,4.25,0,0,1-3,.78c-.53,0-.68-.13-.77-.75a3,3,0,0,0-2.08-2.63,14.58,14.58,0,0,1-4.75,6L74,94c2.63-4.24,2.94-8.46,2.94-16.34V74.44c0-2.11-.06-2.91-.37-3.47l.22-.22c3.19.74,4.21,1.18,4.49,1.49h7.66c-.06-1.27-.12-2.61-.15-4a7.9,7.9,0,0,0-.41-2.7Zm-8,13.55a26.4,26.4,0,0,1-1.43,9,22.59,22.59,0,0,0,2.27.13c1.11,0,1.73-.22,2.07-1.58a51,51,0,0,0,.66-7.51Z" class="cls-7"/><path data-cppathid="10016" d="M125.5,74c-.06.44-.28.62-.77.72a16.75,16.75,0,0,1-9.61,12.55l-.19-.21A23.12,23.12,0,0,0,121.38,74h-.25a23.44,23.44,0,0,1-4.68,4.81l-.22-.22a22.32,22.32,0,0,0,2.08-4.24h-3.72V80c1.27-.4,2.51-.87,3.81-1.39l.16.24a32.62,32.62,0,0,1-4,3.32v1.43l.19,9c0,1.61-1.31,2-2.8,2-1,0-1.11-.12-1.11-1.18l.28-9c-1.06.68-2.11,1.33-3.1,1.92a2.62,2.62,0,0,1-1,.41.69.69,0,0,1-.66-.44A38,38,0,0,1,105,82.56l.15-.28a18,18,0,0,0,2.73-.4c1.15-.25,2.23-.5,3.29-.81V74.32h-2a27.17,27.17,0,0,1-3.53,6.1l-.31-.18a50.5,50.5,0,0,0,1.83-10.85A4.85,4.85,0,0,0,107,67.8l.25-.18a22.8,22.8,0,0,1,3.94,1.3V68a5.46,5.46,0,0,0-.34-2.42l.22-.18c3.81.46,4.71.83,4.71,1.27s-.31.62-1.18,1v6.14h.09c1.49-2.11,1.71-2.39,2-2.39s.49.16,1.48,1l.66.59a39.48,39.48,0,0,0,1.45-5.86,5.35,5.35,0,0,0,.06-1.64l.25-.19c4.47,1.27,5.18,1.65,5.18,2.17s-.59.69-1.52.78a25.08,25.08,0,0,1-2.7,5.18h7.38c1.18-1.71,1.58-2,1.83-2s.72.16,2.17,1.36,1.49,1.4,1.49,1.71-.28.65-1.27,1.15a78.61,78.61,0,0,1-1,13.58,7.06,7.06,0,0,1-1.89,4,6.43,6.43,0,0,1-3.72,1.3c-.5,0-.62-.09-.78-.71-.4-1.46-1.11-2.27-3.44-2.89v-.34a26,26,0,0,0,3.91-.09c1.21-.16,1.73-.56,2.07-2.08a72.59,72.59,0,0,0,1.15-13.7c-.06,0-.12,0-.19,0-1.73,9.7-5.85,15.07-13.79,18.11l-.19-.22C120.76,88.8,124.7,82,125.78,74Zm-14.32-.21V69.94a3.85,3.85,0,0,1-.56.22c-.37,1.24-.77,2.45-1.24,3.6Z" class="cls-7"/><path data-cppathid="10017" d="M49,62.42c4.19,1.17,4.9,1.55,4.9,2.07,0,.31-.22.59-1.3.75a43.63,43.63,0,0,1-2.76,5.86c1.61.28,2.08.49,2.08.87s-.22.52-1.15.83V90.14c0,1.24-1,1.58-2.54,1.58-1,0-1.21-.07-1.21-1.12l.25-10.17V74.82a22.88,22.88,0,0,1-4,3.78l-.25-.25a37.22,37.22,0,0,0,5.64-14.14,4.68,4.68,0,0,0,.09-1.64Zm9.4,7.69a22.14,22.14,0,0,1-6.42,6.38l-.19-.21a32.19,32.19,0,0,0,5.09-10.92,7.08,7.08,0,0,0,.34-2.63l.25-.19c4.43,1.12,5,1.52,5,2.08s-.43.71-1.52.87a36.75,36.75,0,0,1-2.2,4.06h8c1.83-2.51,2.14-2.89,2.45-2.89s.68.22,1.83,1.21,1.45,1.43,1.45,1.77-.18.47-.74.47H63.93c-.06.46-.31.71-.93,1v5.42h2.85c1.67-2.23,2.05-2.6,2.29-2.6s.69.25,1.68,1.11c1.18,1,1.39,1.24,1.39,1.59s-.18.46-.68.46H63l.12,6.36h2.73c1.67-2.24,2.05-2.61,2.29-2.61s.63.16,1.65,1.09,1.42,1.27,1.42,1.61S71,84,70.53,84H63.12l.13,6c0,1.12-.81,1.74-3,1.74-1.05,0-1.21-.13-1.21-1.18l.25-13.18V70.11Z" class="cls-8"/><path data-cppathid="10018" d="M88.57,62.51c4,.46,5.09.77,5.15,1.24,2.79.09,4.46,1.33,4.46,3a1.7,1.7,0,0,1-1.79,1.92c-.78,0-1.4-.53-1.52-1.65a3.72,3.72,0,0,0-1.31-2.79,2.47,2.47,0,0,1-1.08.56c0,1.68.06,3.23.15,4.68h4.5c1.49-2,2.08-2.76,2.36-2.76s.65.19,2,1.28S103,69.33,103,69.61s-.16.37-.65.37H92.66a41.24,41.24,0,0,0,1.62,9.74,33.06,33.06,0,0,0,2-5.24,9.19,9.19,0,0,0,.47-2.23l.28-.13c3.93,1.74,4.49,2.3,4.49,2.79s-.46.65-1.55.68a31.63,31.63,0,0,1-4.15,7.6C97,85,98.74,86.48,99.42,86.48a1,1,0,0,0,.9-.5,30.31,30.31,0,0,0,2.58-4l.28.16a40.58,40.58,0,0,0-.93,4.27,2.88,2.88,0,0,0,.43,1.71,3.28,3.28,0,0,1,.5,1.64c0,1.15-.81,1.8-2.14,1.8-2.33,0-5.52-2.2-7.76-5.39A23.84,23.84,0,0,1,83.73,91l-.12-.28a25.77,25.77,0,0,0,8.28-7.1,30.56,30.56,0,0,1-1.89-6A51.65,51.65,0,0,1,89,70H81.25a1.59,1.59,0,0,1-.68.4V75.5h3.1c1.27-1.55,1.52-1.8,1.86-1.8s.81.19,1.89,1.18,1.37,1.4,1.37,1.74-.25.52-1.15.93A52.76,52.76,0,0,1,87,84.06c-.46,2.2-1.12,3.29-2.17,4a4.25,4.25,0,0,1-3,.77c-.52,0-.68-.12-.77-.74A3,3,0,0,0,79,85.45a14.66,14.66,0,0,1-4.74,6L74,91.19c2.63-4.25,2.94-8.46,2.94-16.34V71.63c0-2.11-.06-2.92-.37-3.48l.22-.21c3.19.74,4.22,1.17,4.49,1.48h7.66c-.06-1.27-.12-2.6-.15-4a7.88,7.88,0,0,0-.41-2.69Zm-8,13.55a26.64,26.64,0,0,1-1.42,9c1,.09,1.67.12,2.26.12,1.11,0,1.73-.21,2.08-1.58a51.09,51.09,0,0,0,.65-7.5Z" class="cls-8"/><path data-cppathid="10019" d="M125.52,71.16c-.06.43-.27.62-.77.71-1.24,6-4.37,10-9.61,12.56l-.19-.22a23.06,23.06,0,0,0,6.45-13h-.25A23.7,23.7,0,0,1,116.47,76l-.22-.22a22.42,22.42,0,0,0,2.08-4.25h-3.72v5.71c1.27-.41,2.51-.87,3.81-1.4l.16.25a32.78,32.78,0,0,1-4,3.32V80.8l.19,9c0,1.62-1.31,2-2.79,2-1,0-1.12-.13-1.12-1.18l.28-9c-1,.68-2.11,1.33-3.1,1.92a2.53,2.53,0,0,1-1,.4.66.66,0,0,1-.65-.43,36.44,36.44,0,0,1-1.4-3.66l.16-.28a19.45,19.45,0,0,0,2.72-.4c1.15-.25,2.24-.5,3.29-.81V71.5h-2a27.28,27.28,0,0,1-3.54,6.11l-.31-.19a50.5,50.5,0,0,0,1.83-10.85A4.76,4.76,0,0,0,107,65l.25-.19a22.14,22.14,0,0,1,3.94,1.31v-.93a5.46,5.46,0,0,0-.34-2.42l.22-.19c3.81.47,4.71.84,4.71,1.27s-.31.62-1.18,1v6.14h.09c1.49-2.11,1.71-2.38,2-2.38s.49.15,1.49,1c.27.25.49.43.65.59a39.48,39.48,0,0,0,1.45-5.86,5.76,5.76,0,0,0,.07-1.65l.24-.18c4.47,1.27,5.18,1.64,5.18,2.17s-.59.68-1.52.77a25.29,25.29,0,0,1-2.69,5.18h7.38c1.17-1.7,1.58-2,1.82-2s.72.15,2.18,1.36,1.48,1.4,1.48,1.71-.28.65-1.27,1.14a78.52,78.52,0,0,1-1,13.58,7,7,0,0,1-1.89,4,6.36,6.36,0,0,1-3.72,1.3c-.5,0-.62-.09-.78-.71-.4-1.46-1.11-2.26-3.44-2.88v-.34a24.47,24.47,0,0,0,3.91-.1c1.21-.15,1.73-.55,2.08-2.07a73,73,0,0,0,1.14-13.71c-.06,0-.12,0-.18,0-1.74,9.71-5.86,15.07-13.8,18.11l-.19-.22c5.49-3.78,9.43-10.57,10.51-18.6Zm-14.32-.22V67.13c-.15.06-.34.15-.56.22a37.83,37.83,0,0,1-1.24,3.59Z" class="cls-8"/><path data-cppathid="10020" d="M88.22,117.17s6.34.43,21.37,8.81a140.92,140.92,0,0,1,20.33,13.51l-22.1,42.91s-16.84-11-25-10.62c-9.74.42-15.32,4.3-15.32,4.3Z" class="cls-9"/><path data-cppathid="10021" d="M58.85,179.32s8.17-33,13.31-44.91,5.64-13.26,5.64-13.26l15.66,12.14,7.26-.92s-10.49,16-12.5,25.27C86,168,89.91,186.17,89.91,186.17s-8.34,5-17.26,2.72C59.71,185.65,58.85,179.32,58.85,179.32Z" class="cls-9"/><path data-cppathid="10022" d="M100.72,132.37c-2.85,4.56-10.52,5.78-17.16,2.74s-9.69-9.2-6.85-13.75,10.53-5.79,17.16-2.75S103.57,127.82,100.72,132.37Z" class="cls-9"/><path data-cppathid="10023" d="M100.85,124.92c2.74,9.46-9.41,8.64-15.43,6.53-4.83-1.69-6.82-4.9-4.45-7.16,1.89-1.82,6.55-2.19,10.41-.84,3.09,1.08,4.36,3.13,2.85,4.58-1.21,1.16-4.2,1.4-6.67.54-2-.69-2.79-2-1.82-2.93.78-.75,2.69-.9,4.27-.35,1.26.45,1.78,1.29,1.16,1.88a3,3,0,0,1-2.73.22c-.81-.28-1.14-.82-.74-1.2" class="cls-9"/><path data-cppathid="10024" d="M78.12,153.24h9.41" class="cls-9"/><path data-cppathid="10025" d="M80,157c0-.57,2.66-1,6-1" class="cls-9"/><path data-cppathid="10026" d="M88.22,116.8s6.34.43,21.37,8.81a140.92,140.92,0,0,1,20.33,13.51L107.82,182s-16.84-11-25-10.62c-9.74.42-15.32,4.3-15.32,4.3Z" class="cls-10"/><path data-cppathid="10027" d="M58.85,179S67,146,72.16,134s5.64-13.26,5.64-13.26l15.66,12.14,7.26-.92s-10.49,16-12.5,25.27C86,167.61,89.91,185.8,89.91,185.8s-8.34,5-17.26,2.72C59.71,185.28,58.85,179,58.85,179Z" class="cls-11"/><path data-cppathid="10028" d="M100.72,132c-2.85,4.56-10.52,5.78-17.16,2.74s-9.69-9.2-6.85-13.75,10.53-5.79,17.16-2.75S103.57,127.44,100.72,132Z" class="cls-12"/><path data-cppathid="10029" d="M100.85,124.55c2.74,9.46-9.41,8.64-15.43,6.53-4.83-1.69-6.82-4.9-4.45-7.16,1.89-1.82,6.55-2.19,10.41-.84,3.09,1.08,4.36,3.13,2.85,4.58-1.21,1.16-4.2,1.4-6.67.54-2-.69-2.79-2-1.82-2.93.78-.75,2.69-.9,4.27-.35,1.26.45,1.78,1.29,1.16,1.88a3,3,0,0,1-2.73.22c-.81-.28-1.14-.82-.74-1.2" class="cls-13"/><path data-cppathid="10030" d="M78.12,152.87h9.41" class="cls-14"/><path data-cppathid="10031" d="M80,156.65c0-.57,2.66-1,6-1" class="cls-14"/><path data-cppathid="10032" d="M193.26,186.85s-.28,3.46-.36,5.21c-1.66,33.86,10.21,70.41,10.21,70.41s-9.5,5.21-11.14,7.82,22.62-1.3,22.62-1.3-4.92-46.94-3.28-57.37,8.19,54.46,11.47,58.37,21.42,3.88,21.42,3.88-6.94-6.29-9.4-9.55-5.1-46.41-5.42-71c0-.66,0-2,0-2Z" class="cls-15"/><path data-cppathid="10033" d="M195,64.5S167.23,43,175.14,27.43c5.43-10.69,30.59,12.9,38.9,15.65s46-11.79,59.88-5.81C291.8,45,305.11,82.33,257.33,83.81,206.68,85.38,195,64.5,195,64.5Z" class="cls-16"/><path data-cppathid="10034" d="M188.42,55a42.2,42.2,0,0,0,5.8,5.43,13.3,13.3,0,0,0,1.29-2.59c1.12-3.06,1.22-6.57,1.27-9.8.06-3.57-.37-11.38-5.47-8.69a.29.29,0,0,0-.12.1c-3.92,1.08-4.66,8.67-5.68,12.34A23.67,23.67,0,0,0,188.42,55Z" class="cls-17"/><path data-cppathid="10035" d="M264.25,52.72c1.65,3.74,3.87,7,5.41,10.77,1.27,3.13,2.84,9.18,1.55,12.68-1.5,4.07-4.19,6.23-7.37,8.12-1.72-.05-3.54-.17-5.47-.37a24.12,24.12,0,0,1,.75-8.83c1.34-6.06,2.81-12.05,2.39-18.3C261.43,55.63,263.31,53.19,264.25,52.72Z" class="cls-17"/><path data-cppathid="10036" d="M162,126.85s-4.33-2.84-4.63-5.08-7.16-10-7.16-10-10.34-5.15-9.21-2.32,7.71,5.31,7.71,5.31,1.35,3.73,1.64,4.18-4.47-6.42-5.52-4.48,2.39,7,4.33,7.91-.45,8.36,8.21,7.91" class="cls-18"/><path data-cppathid="10037" d="M217.2,130s4.57-6.73-.67-7.28-31.06,7.27-35,6.77c-16.73-2.15-23-6.8-23-6.8l-2.61,9c16.79,8.43,14.92,5.36,22.85,7.55C188.1,141.77,217.2,130,217.2,130Z" class="cls-19"/><polygon data-cppathid="10038" points="221.6 112.55 222.05 115.54 212.03 127.93 214.38 115.36 221.6 112.55" class="cls-20"/><path data-cppathid="10039" d="M192.92,56.69c2,1.18-1.58,10.81-1.16,14.15.15-.48.34-.91.47-1.47.2.77.81,1.68,1,2.52.13-.14.4-.85.68-.82.05,1,.44,2,.5,3,.17-.49.3-1,.45-1.49.8,2,.54,4.17,2.08,5.68.67-3.2,5.64-26.79-2.67-21.5" class="cls-21"/><path data-cppathid="10040" d="M197.66,39.72c-2.8,2-6,4.42-6.47,7.39.76-.44,2.1-.8,2.89-1.28a16.3,16.3,0,0,0-2.68,8,.75.75,0,0,0,.35-.44,7.58,7.58,0,0,1,.17,3.9c.24-.11.55-.44.81-.52-.32,2.23-.13,7.36,1.21,9.2,2.28-2.79,3.21-6.16,5.36-9.06,2.42-3.26,5.24-6.34,7.6-9.64,1.23-1.73,4.79-7.58,2.36-8.87-2.7-1.43-3.72.26-6.72,0Z" class="cls-22"/><path data-cppathid="10041" d="M214.68,122.22l-2.8,5.71,2.46-12.32S196,149.72,192.66,184.93c-.2,2.15-.42,6.49-.42,6.49l36.58,3s0-1.76,0-2.6c0-24.13-1.1-51.51-1.1-51.51s-2-25.11-5.41-23.8C221.33,116.92,214.68,122.22,214.68,122.22Z" class="cls-19"/><path data-cppathid="10042" d="M206.44,106.31s0,0-.68-1.47c-.08-.18-1.58-6.42-1.58-6.42s23.06,4.69,26.29-11.77c-8.56-.48-30,3.09-30.06,2.86-2.33-10.1-5.76-35.13-1.29-43.5,10.48-19.63,43.19-30.7,54.3-9.33,13.51,26,3.51,37.1-3.83,50.53s-25.17,28.27-31.73,29C212.06,116.92,206.44,106.31,206.44,106.31Z" class="cls-23"/><path data-cppathid="10043" d="M210.12,67.52c0,2.28-1.06,4.13-2.47,4.12s-2.6-1.85-2.65-4.13,1.06-4.13,2.47-4.13S210.07,65.24,210.12,67.52Z" class="cls-24"/><path data-cppathid="10044" d="M210.76,67.08a1.41,1.41,0,0,1-1.46,1.4,1.49,1.49,0,0,1-1.51-1.41,1.41,1.41,0,0,1,1.45-1.4A1.49,1.49,0,0,1,210.76,67.08Z" class="cls-8"/><path data-cppathid="10045" d="M224.1,69.18c-.86,2.28-2.71,3.72-4.14,3.21s-1.89-2.76-1-5,2.71-3.72,4.14-3.21S225,66.9,224.1,69.18Z" class="cls-25"/><path data-cppathid="10046" d="M225,68a1.51,1.51,0,0,1-1.93.83,1.44,1.44,0,0,1-.91-1.84,1.49,1.49,0,0,1,1.92-.83A1.45,1.45,0,0,1,225,68Z" class="cls-8"/><path data-cppathid="10047" d="M223.81,193.68h0Z" class="cls-23"/><path data-cppathid="10048" d="M254.3,74.54s7.21-4.58,6.1,3.69-11.11,8.42-11.11,8.42" class="cls-23"/><path data-cppathid="10049" d="M250,70.78c3.27,2,.3,8.51-1,11.39a15.75,15.75,0,0,0,3.57-3.7c.52.15.09.41.44.75.31,0,.43-.47.72-.32-1.08,1.36-2.26,3-3.34,4.44,1.51-2.08,3.64-3.43,5.18-5.6a.63.63,0,0,0,.09.53A14.88,14.88,0,0,1,257.33,76c.08.06-.06.88.08,1.09a11.35,11.35,0,0,0,1.68-1.93c.08.14-.13.94,0,1,1.58-2.67,3-9.09-.2-10.46-4.07-1.73-7.46,3.36-8.36,5.93" class="cls-21"/><path data-cppathid="10050" d="M250.33,74.07a12.06,12.06,0,0,0,1.54-2.39A9.31,9.31,0,0,0,252,75.1c.61-.5.79-1.33,1.31-1.95.07,1.11-.17,2.15-.18,3.24.95-1.66,2.56-3.07,3.49-4.67a5.39,5.39,0,0,1,0,3c.56-.7.93-1.81,1.93-2,0,.62-.16,1.2-.13,1.82a6.33,6.33,0,0,1,.87-1.35c0,.34.06.73,0,1.08,1.79-3,3.15-10.12-2.69-8.32-2.3.71-2.8,2.15-4.06,3.89-.9,1.25-3.2,2.85-2.2,4.32" class="cls-22"/><path data-cppathid="10051" d="M251.78,51.4c-1-5.2-3.93-11.82-9.77-13.07C236,37,230.19,41,224.77,42c-5.22,1-29.79,12.85-34.67-3.71,9.34,5.73,12.16-4.11,15.3-4.78,1.71-.36,4.23-2.91,5.59-3.92,5.44-4,8.28-7.93,15.11-9.2,10.65-2,24.71-5.91,26.43,13,3.86-6,11.44,7.51,11.16,10.37-.24,2.37-2.07,4.28-2.1,6.77,0,2.89,1.64,5,2.78,7.56A13.47,13.47,0,0,0,260.43,57c.17.39.59.5.8.87-.57,1.94,1.44,3.72,2.07,5.73a13,13,0,0,1-.47,8c-1.7,4.34-.73-2-6.09-2.06.48-3.63-7.83,7.4-9.69,8.44a19.07,19.07,0,0,1,.25-2.42l-.75-.16c2.77-6.29-2.2-10.5-2.15-17.42.67.54,5.1-.39,5.74.62,2-2.09,1.45-4.71,2.08-7.26" class="cls-22"/><polygon data-cppathid="10052" points="214.46 115.39 206.28 119.2 205.5 130.06 212.33 121.1 214.46 115.39" class="cls-26"/><polygon data-cppathid="10053" points="206.28 119 211.92 127.82 214.23 115.65 206.28 119" class="cls-27"/><path data-cppathid="10054" d="M211.92,127.82s-16.49,53.29-11.35,64.26" class="cls-28"/><path data-cppathid="10055" d="M146.17,118.49s.45,8.36,4.77,7.76S146.17,118.49,146.17,118.49Z" class="cls-18"/><path data-cppathid="10056" d="M213.9,43.82c6.44,1.4,31.81-7.84,47.32-9.19-1.54-12.8-8.21-31-12.31-31.85-6.69-1.38-9.2,2.83-12.18,1.84-2.67-.89-.42-3.4-4.51-4.53-6.88-1.9-30.45,25.76-34.27,34.82C204.72,38.89,210.41,43.07,213.9,43.82Z" class="cls-29"/><path data-cppathid="10057" d="M200.8,29.77s31.92-7,58.29,7.64" class="cls-30"/><circle data-cppathid="10058" r="1.52" cy="37.24" cx="258.62" class="cls-31"/><circle data-cppathid="10059" r="1.52" cy="35.55" cx="253.98" class="cls-31"/><circle data-cppathid="10060" r="1.52" cy="33.86" cx="249.33" class="cls-31"/><circle data-cppathid="10061" r="1.52" cy="32.17" cx="244.69" class="cls-31"/><circle data-cppathid="10062" r="1.52" cy="30.49" cx="240.05" class="cls-31"/><circle data-cppathid="10063" r="1.52" cy="29.68" cx="235.21" class="cls-31"/><circle data-cppathid="10064" r="1.52" cy="29.17" cx="230.29" class="cls-31"/><circle data-cppathid="10065" r="1.52" cy="28.66" cx="225.38" class="cls-31"/><circle data-cppathid="10066" r="1.52" cy="28.16" cx="220.46" class="cls-31"/><circle data-cppathid="10067" r="1.52" cy="28.37" cx="215.53" class="cls-31"/><circle data-cppathid="10068" r="1.52" cy="28.66" cx="210.6" class="cls-31"/><circle data-cppathid="10069" r="1.52" cy="28.99" cx="205.68" class="cls-31"/><circle data-cppathid="10070" r="1.52" cy="29.77" cx="200.8" class="cls-31"/><path data-cppathid="10071" d="M223.85,28.42A2.44,2.44,0,1,1,221.41,26,2.45,2.45,0,0,1,223.85,28.42Z" class="cls-31"/><path data-cppathid="10072" d="M222.74,28.42a1.33,1.33,0,1,1-1.33-1.35A1.34,1.34,0,0,1,222.74,28.42Z" class="cls-32"/><path data-cppathid="10073" d="M242.16,37.92s17.91,4.88,23,16.11S270.5,37,270.5,37,262.56,31.07,242.16,37.92Z" class="cls-16"/><path data-cppathid="10074" d="M271.66,37.75c-7.54-2.27-18.06-1.8-29.91,1.63-9.94,2.89-20.22,5.87-27.85,5.15-6.66-.63-13.65-6.36-20.41-11.89C185.94,26.47,180.16,25,176,28.58c-1.93,1.66-2.22,8.45-2.64,4.21-.2-2-.2-4.74,1.27-5.95,6-4.86,12.18-3.4,20.58,3.48,6.46,5.29,13.14,10.75,19,11.3,7.14.68,17.17-2.24,26.88-5,12.25-3.56,23.31-3,32.05.19C277.49,38.38,274.64,38.65,271.66,37.75Z" class="cls-33"/><rect data-cppathid="10075" height="6.09" width="37.47" y="188.37" x="191.89" class="cls-34"/><path data-cppathid="10076" d="M290.51,133.13a8,8,0,0,0-5.81-1.31s6.26-5,5.76-7-5.41,2.63-5.41,2.63,3.3-5,3.37-6-4.52,3.79-4.52,3.79,1-5.2.07-5.42-4.93,9.47-7.38,11.8c-.49.47-1.79,1.37-3.52,2.6-6.89,4.89,2.31,7.9,6.17,4.77,2.64-2.15,4.57-3.52,4.57-3.52S293.62,135.11,290.51,133.13Z" class="cls-23"/><polygon data-cppathid="10077" points="214.53 122.22 219.9 134.46 225.28 118.64 223.19 114.16 214.53 122.22" class="cls-27"/><path data-cppathid="10078" d="M199.58,191.55c0,2.6,1.78,4.71,4,4.71s4-2.11,4-4.71-1.78-4.7-4-4.7S199.58,189,199.58,191.55Z" class="cls-34"/><path data-cppathid="10079" d="M224.82,135.8s-4-4.86.67-7.28c6.5-3.37,5.88,8.81,25.21,9.63,16.86.73,25.09-9.66,25.09-9.66l5.06,9c-5.5,7.77-22,11.81-34.94,9.51C230.67,144.27,224.82,135.8,224.82,135.8Z" class="cls-19"/><path data-cppathid="10080" d="M44.06,205.84a9.84,9.84,0,0,0,0,16.46l-.42.54c-3.26-2.31-4.77-5.12-4.77-8.77s1.51-6.46,4.77-8.77Z" class="cls-7"/><path data-cppathid="10081" d="M52.69,213.89a11.57,11.57,0,0,1-2,4.59,7.81,7.81,0,0,1-4.09,2.9.78.78,0,0,1-.23.05c-.08,0-.11,0-.11-.09a.19.19,0,0,1,.07-.14,11.24,11.24,0,0,0,2.94-3.48,12,12,0,0,0,1.35-4.1,6.66,6.66,0,0,0,.1-1c0-.38,0-.5-.28-.65l-.38-.16c-.11,0-.16-.09-.16-.14a.24.24,0,0,1,.12-.18,1.74,1.74,0,0,1,.94-.29,2.65,2.65,0,0,1,1.29.47c.53.3.83.5.87.83a7.59,7.59,0,0,0,1.62-2.31,2.5,2.5,0,0,0,.29-.66c0-.15-.06-.18-.38-.13a40.73,40.73,0,0,0-4.54.81,4.92,4.92,0,0,0-1.48.45,1.65,1.65,0,0,1-.91.34,1.78,1.78,0,0,1-1.16-.57c-.37-.35-.88-.89-.88-1.3a1.77,1.77,0,0,1,.06-.49c0-.1.09-.16.16-.16a.23.23,0,0,1,.16.07,4.54,4.54,0,0,0,.72.47,1.5,1.5,0,0,0,.72.16,11.06,11.06,0,0,0,1.59-.18l5.09-.7c.47-.05.43,0,.74-.32a1.06,1.06,0,0,1,.63-.24,5.23,5.23,0,0,1,1.71.94c.74.56,1.3,1.17,1.3,1.67,0,.33-.29.51-.65.53a1.83,1.83,0,0,0-1.14.37,18.92,18.92,0,0,1-3.85,2A2.62,2.62,0,0,0,52.69,213.89Z" class="cls-7"/><path data-cppathid="10082" d="M69.18,213.2c.65,0,1.12-.07,1.71-.09a6.68,6.68,0,0,1,1.84.13c.72.18,1,.56,1,1.08s-.34.78-1.2.79-1.89,0-3.21,0c-.86,0-2.09,0-3,.09s-2.32.16-3.42.29a4.38,4.38,0,0,0-1.17.27,1.38,1.38,0,0,1-.69.16,2,2,0,0,1-1.37-.75,2.38,2.38,0,0,1-.88-1.57,1.27,1.27,0,0,1,.06-.45c0-.09.09-.16.14-.16s.07,0,.14.07a3.51,3.51,0,0,0,.81.52,2.19,2.19,0,0,0,.9.15c.27,0,.91,0,1.34-.06,1.64-.09,2.9-.21,4.07-.29Z" class="cls-7"/><path data-cppathid="10083" d="M80.14,210.63a16.91,16.91,0,0,1-4.42.63c-.11,0-.17,0-.17-.13a.15.15,0,0,1,.13-.14,26.66,26.66,0,0,0,4-1.49,17.79,17.79,0,0,0,2-1.12c.32-.22.61-.41.61-.52a.7.7,0,0,0-.23-.42,2.8,2.8,0,0,0-.26-.21.22.22,0,0,1-.1-.16c0-.06,0-.09.14-.13a3,3,0,0,1,.67-.09,4,4,0,0,1,1.58.59c.69.4,1.08.8,1.08,1.21s-.11.43-.56.5a4.65,4.65,0,0,0-.75.22,16.36,16.36,0,0,1-1.93.72,3,3,0,0,1,.7.36c.53.36.81.5.81,1a1,1,0,0,1-.09.38,1.43,1.43,0,0,0-.1.42c0,.07,0,.14,0,.21l1.15-.18a1.38,1.38,0,0,0,.81-.3,1.42,1.42,0,0,1,.83-.27,4.32,4.32,0,0,1,1.42.34c.65.25,1,.56,1,1s-.25.66-.8.66a10.84,10.84,0,0,1-1.2-.14,13.84,13.84,0,0,0-2.11,0c-.39,0-.81.06-1.22.11a9,9,0,0,1-2.36,5.71,8.71,8.71,0,0,1-4.54,2.32,1.11,1.11,0,0,1-.23,0,.13.13,0,0,1-.13-.11.15.15,0,0,1,.09-.13,9.21,9.21,0,0,0,3.53-3,9.52,9.52,0,0,0,1.57-4.52c-.58.11-1.19.23-1.77.37a5.44,5.44,0,0,0-1.24.44,1.3,1.3,0,0,1-.7.3,1.88,1.88,0,0,1-1.21-.61c-.36-.32-.81-.81-.81-1.13a2.37,2.37,0,0,1,0-.44c0-.1.08-.14.13-.14a.37.37,0,0,1,.16.07,2.84,2.84,0,0,0,.67.38,1.64,1.64,0,0,0,.67.14,11.1,11.1,0,0,0,1.24-.14c1.13-.2,2-.36,2.91-.49,0-.32,0-.66,0-1a1.4,1.4,0,0,0-.27-.94.78.78,0,0,0-.27-.23Z" class="cls-7"/><path data-cppathid="10084" d="M98,210.4c0-.15,0-.15-.13-.15a8.46,8.46,0,0,0-.84.16c-.81.18-1.77.38-2.52.62a4.43,4.43,0,0,0-1.12.46,1.38,1.38,0,0,1-.79.33,2,2,0,0,1-1.28-.69,2.28,2.28,0,0,1-.78-1.27,1.92,1.92,0,0,1,.06-.44c0-.12.09-.18.16-.18a.31.31,0,0,1,.18.09,4.14,4.14,0,0,0,.67.4,1.52,1.52,0,0,0,.72.16,10.13,10.13,0,0,0,1.13-.12c1.12-.18,2.4-.42,3.42-.63.74-.15.85-.22,1.12-.51a.63.63,0,0,1,.5-.25,3.2,3.2,0,0,1,1.48.68c.58.4,1.1.85,1.1,1.3,0,.2,0,.32-.31.54-.43.29-.45.4-.63.94a14.37,14.37,0,0,1-4.34,6.64A12.52,12.52,0,0,1,90.08,221l-.27,0c-.09,0-.13,0-.13-.1a.17.17,0,0,1,.11-.13,15.14,15.14,0,0,0,4.81-3.62,16.53,16.53,0,0,0,3.2-5.85A5.34,5.34,0,0,0,98,210.4Z" class="cls-7"/><path data-cppathid="10085" d="M110.15,213.31a1.81,1.81,0,0,0,.2-.47,0,0,0,0,0,0-.05.73.73,0,0,0-.18,0l-.78.11a23.22,23.22,0,0,0-2.56.48,3.08,3.08,0,0,0-1.17.38,1.19,1.19,0,0,1-.63.22,1.34,1.34,0,0,1-.88-.45c-.43-.38-.66-.72-.66-1a1.54,1.54,0,0,1,0-.38c0-.13.09-.16.15-.16a.27.27,0,0,1,.18.07,2.93,2.93,0,0,0,.52.32,1.1,1.1,0,0,0,.5.13,11.06,11.06,0,0,0,1.19-.13c.94-.12,1.89-.29,2.83-.39.48-.08.83-.11,1.06-.15s.2,0,.38-.21a.75.75,0,0,1,.5-.18,3.59,3.59,0,0,1,1.32.7c.61.45,1,.92,1,1.28s-.22.43-.54.45a1,1,0,0,0-.65.18,6,6,0,0,0-.56.34,12.64,12.64,0,0,1-2.45,1.22,1.93,1.93,0,0,0-.14.47,8.29,8.29,0,0,1-1.51,3.41,5.63,5.63,0,0,1-3,2.16l-.2.05c-.09,0-.16-.05-.16-.13a.19.19,0,0,1,.07-.14l.31-.25a8.76,8.76,0,0,0,2.88-5.48,4.25,4.25,0,0,0,0-.61c0-.29,0-.34-.2-.43l-.25-.11c-.12,0-.16-.05-.16-.12a.24.24,0,0,1,.11-.19,1.43,1.43,0,0,1,.74-.25,2.08,2.08,0,0,1,1,.34c.41.24.59.4.65.58A5.59,5.59,0,0,0,110.15,213.31Z" class="cls-7"/><path data-cppathid="10086" d="M122.93,209.82c.34,0,.36-.11.58-.43a.7.7,0,0,1,.5-.24,3.44,3.44,0,0,1,1.39.71c.61.45,1,.84,1,1.26,0,.25-.24.43-.43.52-.35.14-.42.29-.65.75a17,17,0,0,1-4.72,6.34,14.83,14.83,0,0,1-6,2.92l-.27,0c-.09,0-.15,0-.15-.1a.16.16,0,0,1,.09-.15,19.7,19.7,0,0,0,5.32-4,17.44,17.44,0,0,0,3.56-5.62,4.18,4.18,0,0,0,.22-.81c0-.09,0-.1-.15-.1a2.68,2.68,0,0,0-.46.09c-.18.07-.44.14-.62.19a1.62,1.62,0,0,1-.59.17,1.84,1.84,0,0,1-.85-.27,13,13,0,0,1-1.67,2.1,10,10,0,0,1-3.57,2.54c-.12.06-.21,0-.21-.09a.19.19,0,0,1,.07-.14,21.43,21.43,0,0,0,2.45-3.14,20.54,20.54,0,0,0,1.76-3.47,3.1,3.1,0,0,0,.27-1,.47.47,0,0,0-.23-.42l-.34-.18c-.09,0-.15-.09-.15-.14s.06-.11.13-.16a1.62,1.62,0,0,1,.79-.27,3.82,3.82,0,0,1,1.44.63c.54.36.83.66.83,1.13,0,.27-.11.36-.34.6a2.41,2.41,0,0,0-.54.81c0,.07-.09.16-.13.25C121.65,210.14,122.41,210,122.93,209.82Z" class="cls-7"/><path data-cppathid="10087" d="M132.71,217c0,.83.08,2,.08,2.9s-.43,1.33-1.06,1.33c-.43,0-.75-.3-1-.79a3.34,3.34,0,0,1-.46-1.42,1.68,1.68,0,0,1,.18-.74,2.61,2.61,0,0,0,.12-1c0-1.4.06-3,.13-4.53,0-1,0-2.11,0-3.23s-.06-1.28-.35-1.53a2.14,2.14,0,0,0-.59-.37c-.09-.06-.14-.11-.14-.17s.05-.1.12-.16a2.18,2.18,0,0,1,1-.38,3.19,3.19,0,0,1,1.51.6c.54.36.9.66.9,1.1,0,.16,0,.25-.23.41s-.27.32-.31,1,0,1.52,0,2.2a6.28,6.28,0,0,1,3.46.86,2.5,2.5,0,0,1,1.37,2,1.2,1.2,0,0,1-1.21,1.33c-.61,0-1-.36-1.35-1.1a4.66,4.66,0,0,0-2.27-2.59C132.65,214.23,132.69,215.56,132.71,217Z" class="cls-7"/><path data-cppathid="10088" d="M139.58,205.3c3.26,2.31,4.77,5.11,4.77,8.77s-1.51,6.46-4.77,8.77l-.42-.54a9.84,9.84,0,0,0,0-16.46Z" class="cls-7"/><path data-cppathid="10089" d="M43.06,205.27a9.84,9.84,0,0,0,0,16.46l-.42.54c-3.26-2.31-4.77-5.11-4.77-8.77s1.51-6.46,4.77-8.77Z" class="cls-8"/><path data-cppathid="10090" d="M51.69,213.32a11.51,11.51,0,0,1-2,4.59,7.81,7.81,0,0,1-4.09,2.9.78.78,0,0,1-.23.05c-.08,0-.11,0-.11-.08a.21.21,0,0,1,.07-.15,11.31,11.31,0,0,0,2.94-3.47,12.12,12.12,0,0,0,1.35-4.11,6.65,6.65,0,0,0,.1-1c0-.38,0-.51-.28-.65-.09,0-.22-.11-.38-.17s-.16-.09-.16-.14a.24.24,0,0,1,.12-.18,1.74,1.74,0,0,1,.94-.29,2.65,2.65,0,0,1,1.29.47c.53.31.83.5.87.83a7.47,7.47,0,0,0,1.62-2.31,2.37,2.37,0,0,0,.29-.66c0-.15-.06-.18-.38-.13a43.17,43.17,0,0,0-4.54.81,4.92,4.92,0,0,0-1.48.45,1.65,1.65,0,0,1-.91.34,1.78,1.78,0,0,1-1.16-.57c-.37-.34-.88-.88-.88-1.3a1.77,1.77,0,0,1,.06-.49c0-.1.09-.16.16-.16a.23.23,0,0,1,.16.07,4.54,4.54,0,0,0,.72.47,1.52,1.52,0,0,0,.72.17,11.06,11.06,0,0,0,1.59-.18c1.67-.24,3.43-.49,5.09-.71.47,0,.43,0,.74-.32a1,1,0,0,1,.63-.23,5.16,5.16,0,0,1,1.71.93c.74.56,1.3,1.17,1.3,1.68,0,.32-.29.5-.65.52a1.9,1.9,0,0,0-1.14.38,19.37,19.37,0,0,1-3.85,2A2.62,2.62,0,0,0,51.69,213.32Z" class="cls-8"/><path data-cppathid="10091" d="M68.18,212.64c.65,0,1.12-.08,1.71-.09a6.24,6.24,0,0,1,1.84.12c.72.18,1,.56,1,1.08s-.34.78-1.2.79-1.89,0-3.21,0c-.86,0-2.09,0-3,.1s-2.32.16-3.42.28a4.38,4.38,0,0,0-1.17.27,1.31,1.31,0,0,1-.69.17,2,2,0,0,1-1.37-.76,2.38,2.38,0,0,1-.88-1.57,1.27,1.27,0,0,1,.06-.45c0-.09.09-.16.14-.16s.07,0,.14.07A3.59,3.59,0,0,0,59,213a2.35,2.35,0,0,0,.9.14c.27,0,.91,0,1.34,0,1.64-.09,2.9-.22,4.07-.29C66.26,212.74,67.23,212.69,68.18,212.64Z" class="cls-8"/><path data-cppathid="10092" d="M79.14,210.06a16.91,16.91,0,0,1-4.42.63c-.11,0-.17-.05-.17-.12a.16.16,0,0,1,.13-.15,25.61,25.61,0,0,0,4-1.49,17.79,17.79,0,0,0,2-1.12c.32-.21.61-.41.61-.52a.7.7,0,0,0-.23-.42,2.8,2.8,0,0,0-.26-.21.21.21,0,0,1-.1-.16c0-.06,0-.09.14-.13a3.65,3.65,0,0,1,.67-.09,4,4,0,0,1,1.58.59c.69.4,1.08.8,1.08,1.21s-.11.43-.56.51a3.88,3.88,0,0,0-.75.21,16.36,16.36,0,0,1-1.93.72,3.47,3.47,0,0,1,.7.36c.53.36.81.51.81,1a1,1,0,0,1-.09.37,1.43,1.43,0,0,0-.1.42c0,.07,0,.14,0,.21.36-.05.75-.1,1.15-.18a1.32,1.32,0,0,0,.81-.3,1.49,1.49,0,0,1,.83-.27,4.32,4.32,0,0,1,1.42.34c.65.25,1,.56,1,1s-.25.66-.8.66a10.84,10.84,0,0,1-1.2-.14,13.84,13.84,0,0,0-2.11,0c-.39,0-.81.06-1.22.11a9,9,0,0,1-2.36,5.71,8.71,8.71,0,0,1-4.54,2.32,1.11,1.11,0,0,1-.23,0,.13.13,0,0,1-.13-.11.15.15,0,0,1,.09-.13,9.21,9.21,0,0,0,3.53-3,9.52,9.52,0,0,0,1.57-4.52c-.58.11-1.19.23-1.77.38a5,5,0,0,0-1.24.43,1.3,1.3,0,0,1-.7.3,1.84,1.84,0,0,1-1.21-.61c-.36-.32-.81-.81-.81-1.13a2.18,2.18,0,0,1,0-.43c0-.11.08-.15.13-.15a.37.37,0,0,1,.16.07,2.84,2.84,0,0,0,.67.38,1.64,1.64,0,0,0,.67.15,11.56,11.56,0,0,0,1.24-.15c1.13-.2,2-.36,2.91-.48,0-.33,0-.67,0-1a1.4,1.4,0,0,0-.27-.94.78.78,0,0,0-.27-.23Z" class="cls-8"/><path data-cppathid="10093" d="M97,209.83c0-.15,0-.15-.13-.15a6.55,6.55,0,0,0-.84.17c-.81.18-1.77.37-2.52.61a4.14,4.14,0,0,0-1.12.47,1.43,1.43,0,0,1-.79.32,2.06,2.06,0,0,1-1.28-.68,2.3,2.3,0,0,1-.78-1.28,1.77,1.77,0,0,1,.06-.43c0-.13.09-.18.16-.18a.26.26,0,0,1,.18.09,4.8,4.8,0,0,0,.67.39,1.52,1.52,0,0,0,.72.16,10.13,10.13,0,0,0,1.13-.12c1.12-.18,2.4-.42,3.42-.63.74-.15.85-.22,1.12-.51a.63.63,0,0,1,.5-.25,3.14,3.14,0,0,1,1.48.69c.58.39,1.1.84,1.1,1.29,0,.2,0,.33-.31.54-.43.29-.45.4-.63.94a14.37,14.37,0,0,1-4.34,6.64,12.52,12.52,0,0,1-5.74,2.56,1.76,1.76,0,0,1-.27,0c-.09,0-.13,0-.13-.11s0-.09.11-.13a15.14,15.14,0,0,0,4.81-3.62,16.44,16.44,0,0,0,3.2-5.85A5.16,5.16,0,0,0,97,209.83Z" class="cls-8"/><path data-cppathid="10094" d="M109.15,212.74a2.05,2.05,0,0,0,.2-.46s0-.06,0-.06a.73.73,0,0,0-.18,0l-.78.11a26,26,0,0,0-2.56.48,3.27,3.27,0,0,0-1.17.38,1.19,1.19,0,0,1-.63.22,1.34,1.34,0,0,1-.88-.45c-.43-.38-.66-.72-.66-1a1.54,1.54,0,0,1,0-.38c0-.13.09-.16.15-.16a.34.34,0,0,1,.18.07,2.93,2.93,0,0,0,.52.32,1.1,1.1,0,0,0,.5.13,11.06,11.06,0,0,0,1.19-.13c.94-.12,1.89-.28,2.83-.39l1.06-.15c.2,0,.2,0,.38-.21a.75.75,0,0,1,.5-.18,3.59,3.59,0,0,1,1.32.7c.61.45,1,.92,1,1.28s-.22.43-.54.45a1.08,1.08,0,0,0-.65.18c-.2.11-.34.2-.56.34a12.73,12.73,0,0,1-2.45,1.23,2,2,0,0,0-.14.46,8.29,8.29,0,0,1-1.51,3.41,5.63,5.63,0,0,1-3,2.16l-.2,0c-.09,0-.16,0-.16-.13a.19.19,0,0,1,.07-.14l.31-.25a8.33,8.33,0,0,0,1.85-2.31,8.57,8.57,0,0,0,1-3.16,4.41,4.41,0,0,0,0-.62c0-.28,0-.34-.2-.43l-.25-.11c-.12,0-.16-.05-.16-.12a.21.21,0,0,1,.11-.18,1.35,1.35,0,0,1,.74-.26,2,2,0,0,1,1,.35c.41.23.59.39.65.57A5.59,5.59,0,0,0,109.15,212.74Z" class="cls-8"/><path data-cppathid="10095" d="M121.93,209.25c.34-.05.36-.11.58-.43a.68.68,0,0,1,.5-.23,3.39,3.39,0,0,1,1.39.7c.61.45,1,.84,1,1.26,0,.25-.24.43-.43.52-.35.14-.42.29-.65.76a17,17,0,0,1-4.72,6.33,14.83,14.83,0,0,1-6,2.92l-.27,0c-.09,0-.15,0-.15-.1a.16.16,0,0,1,.09-.15,19.7,19.7,0,0,0,5.32-4,17.51,17.51,0,0,0,3.56-5.61,4.6,4.6,0,0,0,.22-.81c0-.09,0-.11-.15-.11a2.68,2.68,0,0,0-.46.09c-.18.07-.44.14-.62.2a1.58,1.58,0,0,1-.59.16,1.84,1.84,0,0,1-.85-.27,12.62,12.62,0,0,1-1.67,2.1,10,10,0,0,1-3.57,2.54c-.12.06-.21,0-.21-.09a.19.19,0,0,1,.07-.14,21.89,21.89,0,0,0,2.45-3.13,21,21,0,0,0,1.76-3.48,3.1,3.1,0,0,0,.27-1,.47.47,0,0,0-.23-.42l-.34-.18c-.09,0-.15-.08-.15-.14s.06-.11.13-.16a1.73,1.73,0,0,1,.79-.27,3.82,3.82,0,0,1,1.44.63c.54.36.83.67.83,1.13,0,.27-.11.36-.34.6a2.41,2.41,0,0,0-.54.81c0,.07-.09.16-.13.25A17.44,17.44,0,0,0,121.93,209.25Z" class="cls-8"/><path data-cppathid="10096" d="M131.71,216.47c0,.83.08,2,.08,2.9s-.43,1.33-1.06,1.33c-.43,0-.75-.3-1-.79a3.34,3.34,0,0,1-.46-1.42,1.71,1.71,0,0,1,.18-.74,2.55,2.55,0,0,0,.12-.95c0-1.41.06-3,.13-4.54,0-1,0-2.11,0-3.23s-.06-1.27-.35-1.52a2.15,2.15,0,0,0-.59-.38c-.09-.06-.14-.11-.14-.17s.05-.1.12-.16a2.27,2.27,0,0,1,1-.37,3.16,3.16,0,0,1,1.51.59c.54.36.9.67.9,1.1,0,.16,0,.25-.23.41s-.27.33-.31,1,0,1.51,0,2.19a6.2,6.2,0,0,1,3.46.87,2.47,2.47,0,0,1,1.37,2,1.2,1.2,0,0,1-1.21,1.33c-.61,0-1-.36-1.35-1.09a4.65,4.65,0,0,0-2.27-2.6C131.65,213.66,131.69,215,131.71,216.47Z" class="cls-8"/><path data-cppathid="10097" d="M138.58,204.73c3.26,2.31,4.77,5.12,4.77,8.77s-1.51,6.46-4.77,8.77l-.42-.54a9.84,9.84,0,0,0,0-16.46Z" class="cls-8"/></g></g></g></svg>