<?xml version="1.0" encoding="UTF-8"?>
<svg xmlns="http://www.w3.org/2000/svg" onmouseup="{ if(window.parent.document.onmouseup) window.parent.document.onmouseup(arguments[0]);}" viewBox="0 0 422.75 422.13" xmlns:xlink="http://www.w3.org/1999/xlink"><defs><style>.cls-1{fill:#606060;}.cls-2{stroke:#545454;stroke-linecap:round;stroke-linejoin:round;stroke-width:3px;fill:url(#linear-gradient);}.cls-3{fill:#231f20;}.cls-4{fill:#fff;}.cls-5,.cls-6,.cls-7{fill:#50a1d3;}.cls-6{opacity:0.68;}.cls-7{opacity:0.32;}.cls-8{fill:#d7d7d7;}.cls-14,.cls-15,.cls-16,.cls-9{stroke:#000;}.cls-9{stroke-width:2.52px;}.cls-10{fill:#ffc589;}.cls-11{fill:#c9f5ff;}.cls-12{fill:#332518;}.cls-13{fill:#4ecdf4;}.cls-14{fill:none;stroke-width:2px;}.cls-15{stroke-width:1.91px;}.cls-16{stroke-width:0.63px;}</style><linearGradient gradientUnits="userSpaceOnUse" y2="75.67" x2="79.75" y1="408.71" x1="79.75" id="linear-gradient"><stop stop-color="#5ed000" offset="0"/><stop stop-color="#ff0f00" offset="1"/></linearGradient></defs><g data-name="Layer 2" id="Layer_2"><g data-name="Product Backlog jp" id="Product_Backlog_jp"><path data-cppathid="10000" transform="translate(-1.77 -0.05)" d="M1.77,4.26H16.4l.13-.07,1.57,1.2a.5.5,0,0,1-.28.2C16,14.24,12,18.75,4.92,21.41a9.81,9.81,0,0,0-1-1.35c6.69-2.46,10.55-6.74,12-14.21H1.77ZM19.29.14a2.52,2.52,0,1,1-2.53,2.53A2.52,2.52,0,0,1,19.29.14ZM21,2.67A1.75,1.75,0,0,0,19.29.9,1.77,1.77,0,1,0,21,2.67Z" class="cls-1"/><path data-cppathid="10001" transform="translate(-1.77 -0.05)" d="M40.84,4.63V19.8H39.19V18.35H26.52v1.5H24.91V4.63ZM39.19,16.81V6.17H26.52V16.81Z" class="cls-1"/><path data-cppathid="10002" transform="translate(-1.77 -0.05)" d="M61.78,5.48c0,.14-.14.18-.28.25a30.61,30.61,0,0,1-3.33,7.59c1,.57,2.2,1.29,3,1.88l-1,1.5a35,35,0,0,0-3.06-2,20.94,20.94,0,0,1-8.26,6.9A4.8,4.8,0,0,0,47.7,20.4a20.66,20.66,0,0,0,8.07-6.51,38.34,38.34,0,0,0-5.15-2.41l.9-1.27a46.36,46.36,0,0,1,5.22,2.35A24,24,0,0,0,59.5,6.47H51.91a24.2,24.2,0,0,1-5.17,6.27,12.66,12.66,0,0,0-1.29-1,23.24,23.24,0,0,0,7-10.26l2.14.62a.55.55,0,0,1-.64.3,26.53,26.53,0,0,1-1.18,2.56h7.45l.21-.07ZM59.66.9a17.41,17.41,0,0,1,3.06,3.22l-.88.71a18.8,18.8,0,0,0-3-3.22ZM62.6.05a18.69,18.69,0,0,1,3.13,3.17l-.9.69a17.24,17.24,0,0,0-3-3.15Z" class="cls-1"/><path data-cppathid="10003" transform="translate(-1.77 -0.05)" d="M83.69,5.85a1.5,1.5,0,0,1-.34.32c-2.41,7.45-6.19,12.23-12.53,15.45a6.32,6.32,0,0,0-1.18-1.27A21.55,21.55,0,0,0,81.3,6.74H73.09a23.42,23.42,0,0,1-5.15,5.68,9.14,9.14,0,0,0-1.31-1.06A23.36,23.36,0,0,0,74,1.38L76.15,2c-.09.23-.37.29-.66.29-.46,1-.95,2-1.48,2.9h8.1l.27-.14Z" class="cls-1"/><path data-cppathid="10004" transform="translate(-1.77 -0.05)" d="M100.09,13.71A81.14,81.14,0,0,0,92,10v11.5H90.3v-20l2.32.13c0,.26-.21.42-.6.49V8.81l.35-.48A79,79,0,0,1,101,12.17Z" class="cls-1"/><path data-cppathid="10005" transform="translate(-1.77 -0.05)" d="M112.15,5.06a.61.61,0,0,1-.6.35c-.92,5.52-2.83,11.34-5.52,14.74a7.1,7.1,0,0,0-1.54-.83c2.58-3.13,4.6-9,5.33-14.74Zm11.56,15A77.83,77.83,0,0,0,117.6,5.2l1.49-.71a73.28,73.28,0,0,1,6.3,14.85ZM120.38,1.52a16.39,16.39,0,0,1,2.8,3.41l-.87.64a18.28,18.28,0,0,0-2.8-3.4Zm3-1.19a18.46,18.46,0,0,1,2.82,3.38l-.89.66A18.89,18.89,0,0,0,122.54,1Z" class="cls-1"/><path data-cppathid="10006" transform="translate(-1.77 -0.05)" d="M130.55,7.64a24.46,24.46,0,0,1,1.72,4.94l-1.28.35A25.9,25.9,0,0,0,129.31,8Zm13.73.16c-.05.21-.28.25-.49.23-1.79,6.71-5.17,10.83-10.74,13.08a6.06,6.06,0,0,0-.89-1.05c5.49-2.17,8.64-5.94,10.32-12.79Zm-8.14-1.26a31.59,31.59,0,0,1,1.08,5.21l-1.36.26a27.68,27.68,0,0,0-1.08-5.18Z" class="cls-1"/><path data-cppathid="10007" transform="translate(-1.77 -0.05)" d="M164.19,5.85a1.5,1.5,0,0,1-.34.32c-2.41,7.45-6.19,12.23-12.53,15.45a6.32,6.32,0,0,0-1.18-1.27A21.55,21.55,0,0,0,161.8,6.74h-8.21a23.42,23.42,0,0,1-5.15,5.68,9.14,9.14,0,0,0-1.31-1.06,23.36,23.36,0,0,0,7.34-10l2.18.63c-.09.23-.37.29-.66.29-.46,1-1,2-1.48,2.9h8.1l.27-.14Z" class="cls-1"/><path data-cppathid="10008" transform="translate(-1.77 -0.05)" d="M184.83,4.63V19.8h-1.66V18.35H170.5v1.5h-1.61V4.63Zm-1.66,12.18V6.17H170.5V16.81Z" class="cls-1"/><path data-cppathid="10009" transform="translate(-1.77 -0.05)" d="M205.71,6.05a1.17,1.17,0,0,1-.35.35c-2.43,7.61-6.2,12.21-12.44,15.38a5.27,5.27,0,0,0-1.17-1.26A21.33,21.33,0,0,0,203.32,7H195.2a22.82,22.82,0,0,1-5.08,5.61,7.2,7.2,0,0,0-1.29-1,22.89,22.89,0,0,0,7.29-10.07l2.16.59c-.07.23-.34.33-.64.3a33.54,33.54,0,0,1-1.52,3.06h8l.28-.14ZM202.86.76a17.56,17.56,0,0,1,3,3.27l-.85.73a16.55,16.55,0,0,0-3-3.26ZM206.19.1a16.69,16.69,0,0,1,3,3.26l-.86.71a16.56,16.56,0,0,0-3-3.24Z" class="cls-1"/><polygon data-cppathid="10010" points="121.75 118.19 141.27 118.19 79.75 75.67 18.23 118.19 37.75 118.19 37.75 366.19 18.23 366.19 79.75 408.71 141.27 366.19 121.75 366.19 121.75 118.19" class="cls-2"/><path data-cppathid="10011" transform="translate(-1.77 -0.05)" d="M49.51,109.12A20.5,20.5,0,0,1,47.62,112a9.16,9.16,0,0,0-.59-1.17,24.61,24.61,0,0,0,4-8.12l1.42.45c0,.12-.18.2-.41.2a37.48,37.48,0,0,1-1.39,3.56l.42.13c0,.12-.13.2-.35.23v12.06H49.51Zm12.16,5.38.84.43a.58.58,0,0,1-.19.17,8.16,8.16,0,0,1-3,2.32,23.47,23.47,0,0,0,5,1,4.09,4.09,0,0,0-.68,1A20.56,20.56,0,0,1,58,118a24.14,24.14,0,0,1-5.78,1.35,4.26,4.26,0,0,0-.61-.91,27.67,27.67,0,0,0,5.15-1,8.56,8.56,0,0,1-2-1.55A16.85,16.85,0,0,1,52.45,117a3.26,3.26,0,0,0-.72-.76,12.59,12.59,0,0,0,4.41-2.57c-.54-.13-.7-.43-.7-1.08v-1.19l1.35.09c0,.11-.11.2-.34.21v.89c0,.32.1.39.75.39h2.33c.45,0,.54-.09.61-.84a3.94,3.94,0,0,0,.84.28c-.09,1-.39,1.32-1.29,1.32h-2a.75.75,0,0,1-.31.11c-.23.23-.5.48-.79.72h4.84Zm-7.85-9.11H57a8.85,8.85,0,0,0,.27-1H52.45v-.95H63.94v.95H58.52c-.09.29-.22.65-.35,1h4.22V110h1.74v2.45H63v-1.62H58.1a7.09,7.09,0,0,1,1.3,1l-.74.55A8,8,0,0,0,56.73,111l.18-.12H53.06v1.62H52V110h1.84Zm1.35,6.48a7,7,0,0,1-2,2.07l-.77-.65a5.45,5.45,0,0,0,1.94-1.87ZM61.25,107v-.83H54.93V107Zm0,1.53v-.85H54.93v.85ZM54.93,110h6.32v-.85H54.93Zm.69,5.37a7.68,7.68,0,0,0,2.43,1.54,8.76,8.76,0,0,0,2.56-1.54ZM62.91,114a10.7,10.7,0,0,0-2.12-2.16l.81-.47a10.6,10.6,0,0,1,2.16,2.11Z" class="cls-3"/><path data-cppathid="10012" transform="translate(-1.77 -0.05)" d="M72.25,112.09c0,.12-.14.21-.38.23-.47,3.17-1.35,5.67-5.56,7a4.07,4.07,0,0,0-.74-1c3.92-1.12,4.79-3.35,5.1-6.39Zm4.5,5.15c0,.54.13.63.85.63h2.45c.7,0,.82-.38.9-2.79a3.4,3.4,0,0,0,1.11.5c-.14,2.76-.48,3.44-1.91,3.44H77.47c-1.55,0-1.94-.38-1.94-1.8v-5.53H65.79V110.5h7.38v-3.81H69.26a13.64,13.64,0,0,1-1.64,2.84,7,7,0,0,0-1-.57,15.92,15.92,0,0,0,2.64-5.91l1.53.36c0,.13-.16.18-.39.18a19.47,19.47,0,0,1-.63,1.93h3.44V102.6l1.58.09c0,.14-.12.23-.36.25v2.58H80.5v1.17H74.39v3.81h7.4v1.19h-5Z" class="cls-3"/><path data-cppathid="10013" transform="translate(-1.77 -0.05)" d="M85.39,110.5c0,3.35-.15,6.29-1.39,8.77a5.23,5.23,0,0,0-.83-.72c1.07-2.3,1.19-5,1.19-8v-7.25l1.37.09c0,.11-.11.2-.34.23Zm1.46,6.2V104.54l1.24.09c0,.11-.09.18-.31.22V116.7Zm2.5-13.51,1.37.09c0,.11-.11.2-.34.24V118.7h-1ZM95,117a.59.59,0,0,1-.34.12,11.49,11.49,0,0,1-3.37,2.23,5.78,5.78,0,0,0-.77-.81,11.1,11.1,0,0,0,3.33-2.17Zm-3-10.55h2.61c.15-.58.31-1.28.42-1.88H91.26v-1.08h8.91v1.08H96.26c-.12.54-.32,1.24-.52,1.88h3.82v9.47H92Zm6.38,2.84v-1.89H93.13v1.89Zm0,2.81V110.2H93.13v1.89Zm0,2.86V113H93.13V115Zm1.1,4.43a20.39,20.39,0,0,0-3-2.38l.9-.61a18.35,18.35,0,0,1,3.06,2.31Z" class="cls-3"/><path data-cppathid="10014" transform="translate(-1.77 -0.05)" d="M103.86,109a21.36,21.36,0,0,1-2.2,3,9.13,9.13,0,0,0-.63-1.13,23.88,23.88,0,0,0,4.5-8.1l1.44.48c-.07.13-.2.18-.41.16a32.61,32.61,0,0,1-1.66,3.73l.49.13c0,.11-.13.2-.36.21v11.94h-1.17Zm2.28,8.33h12.08v1.17H106.14Zm.45-11.05h4.85v-3.6l1.56.09c0,.14-.1.21-.36.25v3.26h5.12v1.17H106.59Zm2.51,2.39a45.9,45.9,0,0,1,1.53,7.42l-1.21.25a46.12,46.12,0,0,0-1.42-7.47Zm7.56.31a.42.42,0,0,1-.42.21,59.66,59.66,0,0,1-2,7.26s-1-.32-1-.34a52.64,52.64,0,0,0,1.93-7.55Z" class="cls-3"/><path data-cppathid="10015" transform="translate(-1.77 -0.05)" d="M83.3,121.36h7.44v1.08H74.82v-1.08h7.26v-1.78l1.58.11c0,.13-.11.22-.36.25Zm6.68,7.1v6.35c0,.71-.16,1.08-.72,1.28a11.64,11.64,0,0,1-3.11.2,5.25,5.25,0,0,0-.4-1.15l1.89,0c1,0,1.14,0,1.14-.37v-5.28H76.87v6.81H75.69v-7.87ZM77.9,123.52h9.8v3.73H77.9Zm8.57,2.81v-1.89h-7.4v1.89Zm-.2,8.27H80.4v1H79.31v-4.79h7Zm-1.1-2.92H80.4v2h4.77Z" class="cls-3"/><path data-cppathid="10016" transform="translate(-1.77 -0.05)" d="M48.51,108.12A20.5,20.5,0,0,1,46.62,111a9.16,9.16,0,0,0-.59-1.17,24.61,24.61,0,0,0,4-8.12l1.42.45c0,.12-.18.2-.41.2a37.48,37.48,0,0,1-1.39,3.56l.42.13c0,.12-.13.2-.35.23v12.06H48.51Zm12.16,5.38.84.43a.58.58,0,0,1-.19.17,8.16,8.16,0,0,1-3,2.32,23.47,23.47,0,0,0,5,1,4.09,4.09,0,0,0-.68,1A20.56,20.56,0,0,1,57,117a24.14,24.14,0,0,1-5.78,1.35,4.26,4.26,0,0,0-.61-.91,27.67,27.67,0,0,0,5.15-1,8.56,8.56,0,0,1-2-1.55A16.85,16.85,0,0,1,51.45,116a3.26,3.26,0,0,0-.72-.76,12.59,12.59,0,0,0,4.41-2.57c-.54-.13-.7-.43-.7-1.08v-1.19l1.35.09c0,.11-.11.2-.34.21v.89c0,.32.1.39.75.39h2.33c.45,0,.54-.09.61-.84a3.94,3.94,0,0,0,.84.28c-.09,1-.39,1.32-1.29,1.32h-2a.75.75,0,0,1-.31.11c-.23.23-.5.48-.79.72h4.84Zm-7.85-9.11H56a8.85,8.85,0,0,0,.27-1H51.45v-.95H62.94v.95H57.52c-.09.29-.22.65-.35,1h4.22V109h1.74v2.45H62v-1.62H57.1a7.09,7.09,0,0,1,1.3,1l-.74.55A8,8,0,0,0,55.73,110l.18-.12H52.06v1.62H51V109h1.84Zm1.35,6.48a7,7,0,0,1-2,2.07l-.77-.65a5.45,5.45,0,0,0,1.94-1.87ZM60.25,106v-.83H53.93V106Zm0,1.53v-.85H53.93v.85ZM53.93,109h6.32v-.85H53.93Zm.69,5.37a7.68,7.68,0,0,0,2.43,1.54,8.76,8.76,0,0,0,2.56-1.54ZM61.91,113a10.7,10.7,0,0,0-2.12-2.16l.81-.47a10.6,10.6,0,0,1,2.16,2.11Z" class="cls-4"/><path data-cppathid="10017" transform="translate(-1.77 -0.05)" d="M71.25,111.09c0,.12-.14.21-.38.23-.47,3.17-1.35,5.67-5.56,7a4.07,4.07,0,0,0-.74-1c3.92-1.12,4.79-3.35,5.1-6.39Zm4.5,5.15c0,.54.13.63.85.63h2.45c.7,0,.82-.38.9-2.79a3.4,3.4,0,0,0,1.11.5c-.14,2.76-.48,3.44-1.91,3.44H76.47c-1.55,0-1.94-.38-1.94-1.8v-5.53H64.79V109.5h7.38v-3.81H68.26a13.64,13.64,0,0,1-1.64,2.84,7,7,0,0,0-1-.57,15.92,15.92,0,0,0,2.64-5.91l1.53.36c0,.13-.16.18-.39.18a19.47,19.47,0,0,1-.63,1.93h3.44V101.6l1.58.09c0,.14-.12.23-.36.25v2.58H79.5v1.17H73.39v3.81h7.4v1.19h-5Z" class="cls-4"/><path data-cppathid="10018" transform="translate(-1.77 -0.05)" d="M84.39,109.5c0,3.35-.15,6.29-1.39,8.77a5.23,5.23,0,0,0-.83-.72c1.07-2.3,1.19-5,1.19-8v-7.25l1.37.09c0,.11-.11.2-.34.23Zm1.46,6.2V103.54l1.24.09c0,.11-.09.18-.31.22V115.7Zm2.5-13.51,1.37.09c0,.11-.11.2-.34.24V117.7h-1ZM94,116a.59.59,0,0,1-.34.12,11.49,11.49,0,0,1-3.37,2.23,5.78,5.78,0,0,0-.77-.81,11.1,11.1,0,0,0,3.33-2.17Zm-3-10.55h2.61c.15-.58.31-1.28.42-1.88H90.26v-1.08h8.91v1.08H95.26c-.12.54-.32,1.24-.52,1.88h3.82v9.47H91Zm6.38,2.84v-1.89H92.13v1.89Zm0,2.81V109.2H92.13v1.89Zm0,2.86V112H92.13V114Zm1.1,4.43a20.39,20.39,0,0,0-3-2.38l.9-.61a18.35,18.35,0,0,1,3.06,2.31Z" class="cls-4"/><path data-cppathid="10019" transform="translate(-1.77 -0.05)" d="M102.86,108a21.36,21.36,0,0,1-2.2,3,9.13,9.13,0,0,0-.63-1.13,23.88,23.88,0,0,0,4.5-8.1l1.44.48c-.07.13-.2.18-.41.16a32.61,32.61,0,0,1-1.66,3.73l.49.13c0,.11-.13.2-.36.21v11.94h-1.17Zm2.28,8.33h12.08v1.17H105.14Zm.45-11.05h4.85v-3.6l1.56.09c0,.14-.1.21-.36.25v3.26h5.12v1.17H105.59Zm2.51,2.39a45.9,45.9,0,0,1,1.53,7.42l-1.21.25a46.12,46.12,0,0,0-1.42-7.47Zm7.56.31a.42.42,0,0,1-.42.21,59.66,59.66,0,0,1-2,7.26s-1-.32-1-.34a52.64,52.64,0,0,0,1.93-7.55Z" class="cls-4"/><path data-cppathid="10020" transform="translate(-1.77 -0.05)" d="M82.3,120.36h7.44v1.08H73.82v-1.08h7.26v-1.78l1.58.11c0,.13-.11.22-.36.25Zm6.68,7.1v6.35c0,.71-.16,1.08-.72,1.28a11.64,11.64,0,0,1-3.11.2,5.25,5.25,0,0,0-.4-1.15l1.89,0c1,0,1.14,0,1.14-.37v-5.28H75.87v6.81H74.69v-7.87ZM76.9,122.52h9.8v3.73H76.9Zm8.57,2.81v-1.89h-7.4v1.89Zm-.2,8.27H79.4v1H78.31v-4.79h7Zm-1.1-2.92H79.4v2h4.77Z" class="cls-4"/><rect data-cppathid="10021" rx="5.67" height="42.85" width="171" y="124.11" x="251.75" class="cls-5"/><rect data-cppathid="10022" rx="5.67" height="42.85" width="171" y="76.35" x="251.75" class="cls-5"/><rect data-cppathid="10023" rx="5.67" height="42.85" width="171" y="171.88" x="251.75" class="cls-5"/><rect data-cppathid="10024" rx="5.67" height="42.85" width="171" y="219.65" x="251.75" class="cls-5"/><rect data-cppathid="10025" rx="5.67" height="42.85" width="171" y="267.41" x="251.75" class="cls-5"/><rect data-cppathid="10026" rx="4.75" height="35.89" width="143.25" y="318.18" x="264.02" class="cls-6"/><rect data-cppathid="10027" rx="3.89" height="29.43" width="117.46" y="362.94" x="276.34" class="cls-7"/><path data-cppathid="10028" transform="translate(-1.77 -0.05)" d="M263.68,87.55h7.63l.07,0,.82.63a.33.33,0,0,1-.15.1c-1,4.51-3.06,6.86-6.73,8.26a5.46,5.46,0,0,0-.53-.71,9.11,9.11,0,0,0,6.28-7.41h-7.39Zm9.14-2.15a1.32,1.32,0,1,1-1.32,1.32A1.32,1.32,0,0,1,272.82,85.4Zm.91,1.32a.92.92,0,1,0-1.83,0,.93.93,0,0,0,.92.92A.92.92,0,0,0,273.73,86.72Z" class="cls-4"/><path data-cppathid="10029" transform="translate(-1.77 -0.05)" d="M284.06,87.74v7.92h-.86V94.9h-6.61v.78h-.84V87.74Zm-.86,6.36V88.54h-6.61V94.1Z" class="cls-4"/><path data-cppathid="10030" transform="translate(-1.77 -0.05)" d="M295,88.18c0,.08-.07.1-.14.14a15.77,15.77,0,0,1-1.74,4c.52.3,1.15.67,1.6,1l-.51.78a16.77,16.77,0,0,0-1.59-1,10.87,10.87,0,0,1-4.31,3.6,2.44,2.44,0,0,0-.65-.63,10.71,10.71,0,0,0,4.21-3.4,20.82,20.82,0,0,0-2.68-1.26l.47-.66a24.72,24.72,0,0,1,2.72,1.23,12.88,12.88,0,0,0,1.44-3.18h-4a12.71,12.71,0,0,1-2.7,3.27,7.86,7.86,0,0,0-.67-.54,12.09,12.09,0,0,0,3.66-5.35l1.11.33a.28.28,0,0,1-.33.15,13.35,13.35,0,0,1-.62,1.34h3.89l.11,0Zm-1.1-2.38a8.69,8.69,0,0,1,1.6,1.68l-.46.37a9.83,9.83,0,0,0-1.57-1.68Zm1.54-.45A9.79,9.79,0,0,1,297.05,87l-.47.36A8.71,8.71,0,0,0,295,85.73Z" class="cls-4"/><path data-cppathid="10031" transform="translate(-1.77 -0.05)" d="M306.42,88.38a.69.69,0,0,1-.18.16C305,92.43,303,94.92,299.7,96.6a3.1,3.1,0,0,0-.61-.66,11.22,11.22,0,0,0,6.08-7.1h-4.28a12.33,12.33,0,0,1-2.68,3,5.08,5.08,0,0,0-.69-.56,12.23,12.23,0,0,0,3.83-5.2l1.14.32a.35.35,0,0,1-.35.16,16.42,16.42,0,0,1-.77,1.51h4.22l.15-.07Z" class="cls-4"/><path data-cppathid="10032" transform="translate(-1.77 -0.05)" d="M315,92.48a44.77,44.77,0,0,0-4.21-2v6h-.9V86.1l1.21.07c0,.13-.11.21-.31.25v3.5l.18-.25a43,43,0,0,1,4.51,2Z" class="cls-4"/><path data-cppathid="10033" transform="translate(-1.77 -0.05)" d="M321.27,88a.33.33,0,0,1-.31.18,18.18,18.18,0,0,1-2.88,7.69,3.71,3.71,0,0,0-.81-.44c1.35-1.63,2.4-4.67,2.79-7.68Zm6,7.79A40,40,0,0,0,324.11,88l.78-.37a38.77,38.77,0,0,1,3.29,7.75Zm-1.74-9.64A8.85,8.85,0,0,1,327,87.9l-.46.33a9.74,9.74,0,0,0-1.46-1.77Zm1.59-.62a10.25,10.25,0,0,1,1.47,1.76l-.47.35a9.67,9.67,0,0,0-1.46-1.77Z" class="cls-4"/><path data-cppathid="10034" transform="translate(-1.77 -0.05)" d="M330.87,89.31a13.24,13.24,0,0,1,.9,2.58l-.67.18a13.91,13.91,0,0,0-.88-2.56Zm7.16.09a.21.21,0,0,1-.25.11c-.94,3.51-2.7,5.65-5.6,6.83a3.93,3.93,0,0,0-.47-.55c2.86-1.13,4.51-3.1,5.38-6.67Zm-4.25-.66a16.09,16.09,0,0,1,.57,2.72l-.71.13a14.6,14.6,0,0,0-.56-2.7Z" class="cls-4"/><path data-cppathid="10035" transform="translate(-1.77 -0.05)" d="M348.42,88.38a.69.69,0,0,1-.18.16c-1.26,3.89-3.22,6.38-6.53,8.06a3.46,3.46,0,0,0-.62-.66,11.22,11.22,0,0,0,6.08-7.1h-4.28a12.33,12.33,0,0,1-2.68,3,5.08,5.08,0,0,0-.69-.56,12.23,12.23,0,0,0,3.83-5.2l1.14.32c-.05.12-.19.16-.35.16a16.42,16.42,0,0,1-.77,1.51h4.22l.15-.07Z" class="cls-4"/><path data-cppathid="10036" transform="translate(-1.77 -0.05)" d="M359.19,87.74v7.92h-.87V94.9h-6.61v.78h-.84V87.74Zm-.87,6.36V88.54h-6.61V94.1Z" class="cls-4"/><path data-cppathid="10037" transform="translate(-1.77 -0.05)" d="M370.08,88.48a.52.52,0,0,1-.18.18c-1.27,4-3.24,6.37-6.49,8a2.68,2.68,0,0,0-.61-.66,11.11,11.11,0,0,0,6-7.07H364.6A11.83,11.83,0,0,1,362,91.89a3.68,3.68,0,0,0-.67-.54,12,12,0,0,0,3.8-5.25l1.13.31c0,.12-.18.17-.34.15a17,17,0,0,1-.79,1.6h4.17l.15-.07Zm-1.49-2.75a8.63,8.63,0,0,1,1.58,1.7l-.45.38a8.55,8.55,0,0,0-1.55-1.7Zm1.74-.35a8,8,0,0,1,1.57,1.7l-.44.37a8.43,8.43,0,0,0-1.55-1.69Z" class="cls-4"/><path data-cppathid="10038" transform="translate(-1.77 -0.05)" d="M382.54,87.19a.38.38,0,0,1-.16.11,10.33,10.33,0,0,1-2.84,3.83,6.2,6.2,0,0,0-.73-.49,7.15,7.15,0,0,0,2.38-3h-8.58v-.82h9l.13-.06Zm-4.68,2.18c0,.1-.12.18-.28.2-.34,2.84-1.32,5.53-3.79,7a5.88,5.88,0,0,0-.7-.55c2.44-1.34,3.32-3.85,3.61-6.74Z" class="cls-4"/><path data-cppathid="10039" transform="translate(-1.77 -0.05)" d="M392.29,86.86a.28.28,0,0,1-.23.1h-.12a28.63,28.63,0,0,1-3.41,2.86l.28.14a.29.29,0,0,1-.26.15v6.44h-.88V90.38a33.59,33.59,0,0,1-4.57,2.67,3.83,3.83,0,0,0-.5-.66,30.18,30.18,0,0,0,8.79-6.2Z" class="cls-4"/><path data-cppathid="10040" transform="translate(-1.77 -0.05)" d="M403.31,90.81h-4.06l.21.06a.27.27,0,0,1-.24.14,6.54,6.54,0,0,1-3.71,5.49,5.31,5.31,0,0,0-.64-.6,5.69,5.69,0,0,0,3.46-5.09h-4.66V90h9.64Zm-1.19-3.38h-7.36v-.81h7.36Z" class="cls-4"/><path data-cppathid="10041" transform="translate(-1.77 -0.05)" d="M414,96.23c-.18-.41-.39-.84-.63-1.27-2.5.26-6.6.52-8.43.61a.33.33,0,0,1-.23.24l-.33-1.08c.36,0,.8,0,1.26,0,.79-2.3,1.93-5.88,2.59-8.28l1.17.31a.35.35,0,0,1-.35.17c-.66,2.2-1.69,5.42-2.52,7.77,2-.09,4.83-.29,6.42-.43a20.51,20.51,0,0,0-2.14-2.93l.72-.41a23.7,23.7,0,0,1,3.31,5Z" class="cls-4"/><path data-cppathid="10042" transform="translate(-1.77 -0.05)" d="M330.41,102.81a7.58,7.58,0,0,0,0,11v.06h-.72a7.93,7.93,0,0,1,0-11.15h.72Z" class="cls-4"/><path data-cppathid="10043" transform="translate(-1.77 -0.05)" d="M331.61,103.86a12.26,12.26,0,0,1,2.08-.18c2.95,0,3.19,1.9,3.19,2.62,0,2.15-1.72,2.91-3.34,2.91a3.89,3.89,0,0,1-.93-.08v3.75h-1Zm1,4.44a3.72,3.72,0,0,0,1,.1c1.44,0,2.31-.72,2.31-2s-.93-1.88-2.18-1.88a6.12,6.12,0,0,0-1.09.09Z" class="cls-4"/><path data-cppathid="10044" transform="translate(-1.77 -0.05)" d="M342,108a2.33,2.33,0,0,1,1.88,2.3,2.4,2.4,0,0,1-.73,1.8,4.12,4.12,0,0,1-3,.87,15.11,15.11,0,0,1-1.7-.1v-9a9.81,9.81,0,0,1,2-.2,3.52,3.52,0,0,1,2.41.68,2,2,0,0,1,.69,1.58,2.18,2.18,0,0,1-1.55,2Zm-1.45-.34c1.21,0,2-.69,2-1.63h0c0-1.08-.79-1.55-2-1.55a4.08,4.08,0,0,0-1,.09v3.1Zm-1.07,4.45a5,5,0,0,0,1,.06c1.26,0,2.39-.49,2.39-1.87s-1.19-1.87-2.4-1.87h-1Z" class="cls-4"/><path data-cppathid="10045" transform="translate(-1.77 -0.05)" d="M345.41,103.74h1v9.14h-1Z" class="cls-4"/><path data-cppathid="10046" transform="translate(-1.77 -0.05)" d="M347.62,113.84a7.58,7.58,0,0,0,0-11v-.06h.72a7.93,7.93,0,0,1,0,11.15h-.72Z" class="cls-4"/><rect data-cppathid="10047" rx="2.77" height="20.96" width="83.64" y="401.17" x="292.06" class="cls-7"/><path data-cppathid="10048" transform="translate(-1.77 -0.05)" d="M235.74,381c0,3.78-20.41,6.85-45.59,6.85s-45.59-3.07-45.59-6.85,20.41-6.85,45.59-6.85S235.74,377.16,235.74,381Z" class="cls-8"/><path data-cppathid="10049" transform="translate(-1.77 -0.05)" d="M177.82,247.84s16.17,21,18.44,51.65c.14,1.87,0,9.28,0,9.28l-27.14,5.46s0-1.53,0-2.26c0-21,.74-44.83.74-44.83s1.7-25,4-23.84S177.82,247.84,177.82,247.84Z" class="cls-9"/><path data-cppathid="10050" transform="translate(-1.77 -0.05)" d="M194,288.53c-1.58,2.1-2.77,3.49-2.77,3.49s-6.71,2.38-4.35,3.11,5.42-1.36,5.42-1.36-5.05,5.94-4.48,7.27,3.44-3,3.44-3-1.73,4.28-1.67,5,2.69-3.67,2.69-3.67-.14,3.93.55,3.87,2.36-7.79,3.8-10c.28-.44,1.08-1.36,2.13-2.61C203,285.62,196.29,285.47,194,288.53Z" class="cls-10"/><path data-cppathid="10051" transform="translate(-1.77 -0.05)" d="M186.41,252.21s-4.61-1.2-6.89,2.29,24.78,16.22,23.38,19c-7.07,14-8.86,15.57-8.86,15.57l2.11,3.36s8.57-10.63,13.59-16.29S186.41,252.21,186.41,252.21Z" class="cls-9"/><path data-cppathid="10052" transform="translate(-1.77 -0.05)" d="M133.82,264.11c-2.14-1.53-3.56-2.68-3.56-2.68s-2.55-6.65-3.23-4.27,1.5,5.38,1.5,5.38-6.06-4.9-7.38-4.29,3.12,3.35,3.12,3.35-4.32-1.61-5-1.54,3.73,2.6,3.73,2.6-3.92,0-3.85.64,7.85,2.17,10.07,3.55c.45.28,1.39,1,2.66,2.07C137,273,136.93,266.34,133.82,264.11Z" class="cls-10"/><path data-cppathid="10053" transform="translate(-1.77 -0.05)" d="M169.93,255.62s1.08-4.64-2.46-6.83S151.88,274,149.08,272.65c-14.13-6.72-15.78-8.46-15.78-8.46L130,266.38s10.84,8.29,16.63,13.17S169.93,255.62,169.93,255.62Z" class="cls-9"/><path data-cppathid="10054" transform="translate(-1.77 -0.05)" d="M192.27,306.72s.19,2.89.24,4.34c1.1,28.2-6.75,58.63-6.75,58.63s6.51,2.17,7.6,4.34-15.2,1.09-15.2,1.09,3.25-39.08,2.17-47.77-8.69,45.6-10.86,48.86-10.31,6.51-10.31,6.51,1.63-6.51,3.26-9.23,5.74-40.9,6-61.34c0-.55,0-1.63,0-1.63Z"/><path data-cppathid="10055" transform="translate(-1.77 -0.05)" d="M177.07,249.18s12.93,26.26,15.1,55.57c.13,1.79.28,5.41.28,5.41l-23.7,2.53s0-1.47,0-2.17c0-20.08.7-42.88.7-42.88s1.63-23.89,3.8-22.8S177.07,249.18,177.07,249.18Z" class="cls-11"/><path data-cppathid="10056" transform="translate(-1.77 -0.05)" d="M185.12,303.17,168,314.78s0-1.56,0-2.31c0-21.32.67-45.51.67-45.51s.8-13.41,2-20.28C178.31,247.55,185.12,303.17,185.12,303.17Z" class="cls-9"/><path data-cppathid="10057" transform="translate(-1.77 -0.05)" d="M185.88,239s0,0,.53-1.29c.07-.17,4.46-13.12,4.46-13.12s-4.51,1.86-15.38,4c-7.67,1.53-15.33-11.45-10.92-9.6,11.52,4.85,28.27-2.47,28.27-2.47s.15.55.19.35c1.76-8.88,2.18-18.73-1.7-26.1-9.09-17.28-37.28-32.74-45.46-13.64s.91,31.82,7.27,43.64,18.46,27.2,24,27.89C181.94,249.29,185.88,239,185.88,239Z" class="cls-10"/><path data-cppathid="10058" transform="translate(-1.77 -0.05)" d="M149.15,172.56s12.59,2.67,15.62,6.31,2.62,4.44,2.65,4.61c1.61-4.08-1.29-6.06-1.29-6.06,8.74,1.45,12,1.35,21.65-1.3-6.72.76-9.47-.09-9.47-.09s6.35-.85,8.71-5.5a38.38,38.38,0,0,1-10.32,2l11.08-4.21a55.75,55.75,0,0,1-16.89-.69,36.54,36.54,0,0,0-17.5.66C151,168.93,149.15,172.56,149.15,172.56Z" class="cls-12"/><path data-cppathid="10059" transform="translate(-1.77 -0.05)" d="M149.15,172.56S151,182.87,151,185.9s-7.88,10.91-7.88,10.91-4.24-9.7-2.42-15.15S149.15,172.56,149.15,172.56Z" class="cls-12"/><polygon data-cppathid="10060" points="175.85 251.51 177.78 250.65 178.37 256.99 175.85 251.51" class="cls-13"/><polygon data-cppathid="10061" points="178.37 256.99 185.09 276.45 185.01 286.4 179.71 277.52 178.37 256.99" class="cls-13"/><path data-cppathid="10062" transform="translate(-1.77 -0.05)" d="M153.47,196.06c2.27,7.2,3.78,9.85,3.78,9.85l20.46-3.79-.76-10.6,5.68,9.46,13.63-2.27-1.51-12.12" class="cls-14"/><path data-cppathid="10063" transform="translate(-1.77 -0.05)" d="M194.75,187.54s-33.08-.35-52.9,16.6c0,0,.13,2,.13,3.11,0,.9,1-2,1.77-3,5.17-6.91,29.41-16.48,51-15.79C195,187.65,194.75,187.54,194.75,187.54Z" class="cls-15"/><path data-cppathid="10064" transform="translate(-1.77 -0.05)" d="M173.91,198.38c0,2-1,3.63-2.13,3.63s-2.14-1.63-2.14-3.63,1-3.64,2.14-3.64S173.91,196.37,173.91,198.38Z" class="cls-16"/><path data-cppathid="10065" transform="translate(-1.77 -0.05)" d="M171.14,196.67a1.07,1.07,0,1,1-1.07-1.07A1.07,1.07,0,0,1,171.14,196.67Z" class="cls-4"/><path data-cppathid="10066" transform="translate(-1.77 -0.05)" d="M184,196.25c0,1.66-.79,3-1.76,3s-1.76-1.33-1.76-3,.79-3,1.76-3S184,194.6,184,196.25Z" class="cls-16"/><path data-cppathid="10067" transform="translate(-1.77 -0.05)" d="M182.08,195A1.07,1.07,0,1,1,181,193.9,1.07,1.07,0,0,1,182.08,195Z" class="cls-4"/><path data-cppathid="10068" transform="translate(-1.77 -0.05)" d="M48.29,348.49a22.44,22.44,0,0,1-1.89,2.88,10.76,10.76,0,0,0-.6-1.17,24.51,24.51,0,0,0,4-8.12l1.43.45c-.06.12-.18.19-.42.19a34.2,34.2,0,0,1-1.38,3.57l.41.13c0,.12-.13.19-.34.23v12.06H48.29Zm12.15,5.38.85.43a.54.54,0,0,1-.2.16,8.07,8.07,0,0,1-3,2.33,23.47,23.47,0,0,0,5,.95,4.09,4.09,0,0,0-.68,1,21.22,21.22,0,0,1-5.67-1.41A24.87,24.87,0,0,1,51,358.71a5.17,5.17,0,0,0-.61-.91,27.67,27.67,0,0,0,5.15-1,8.69,8.69,0,0,1-2.06-1.55,17.47,17.47,0,0,1-2.25,1.12,2.9,2.9,0,0,0-.72-.76A12.65,12.65,0,0,0,54.91,353c-.54-.13-.7-.44-.7-1.09v-1.18l1.35.09c0,.1-.11.19-.34.21v.88c0,.33.11.4.76.4H58.3c.45,0,.54-.09.61-.84a4.24,4.24,0,0,0,.85.28c-.09,1.05-.4,1.32-1.3,1.32h-2a.65.65,0,0,1-.31.11c-.23.23-.5.48-.79.72h4.85Zm-7.85-9.11h3.19a10.11,10.11,0,0,0,.27-1H51.22v-.95H62.71v.95H57.29c-.09.29-.22.65-.34,1h4.21v4.61h1.75v2.45H61.79V350.2H56.88a7.84,7.84,0,0,1,1.29,1l-.74.56a8,8,0,0,0-1.92-1.44l.18-.12H51.83v1.62H50.75v-2.45h1.84Zm1.35,6.48a7,7,0,0,1-2,2.07l-.77-.65a5.45,5.45,0,0,0,1.94-1.87ZM60,346.32v-.82H53.71v.82Zm0,1.54V347H53.71v.85Zm-6.32,1.51H60v-.85H53.71Zm.68,5.36a7.52,7.52,0,0,0,2.43,1.55,8.43,8.43,0,0,0,2.56-1.55Zm7.29-1.38a10.7,10.7,0,0,0-2.12-2.16l.81-.47a10.58,10.58,0,0,1,2.16,2.1Z" class="cls-3"/><path data-cppathid="10069" transform="translate(-1.77 -0.05)" d="M71,351.46c0,.12-.14.21-.37.23-.47,3.17-1.36,5.67-5.57,7a4,4,0,0,0-.74-1c3.93-1.12,4.79-3.35,5.1-6.39Zm4.5,5.15c0,.54.13.63.85.63h2.45c.7,0,.83-.38.9-2.79a3.36,3.36,0,0,0,1.12.5c-.15,2.75-.49,3.44-1.91,3.44H76.24c-1.54,0-1.94-.38-1.94-1.8v-5.53H64.56v-1.19h7.38v-3.81H68a13.18,13.18,0,0,1-1.63,2.84,7.61,7.61,0,0,0-1.05-.58,15.83,15.83,0,0,0,2.65-5.9l1.53.36c-.06.12-.16.18-.4.18-.16.57-.36,1.24-.63,1.93h3.44V342l1.59.09c0,.14-.13.23-.36.25v2.58h6.1v1.17h-6.1v3.81h7.4v1.19h-5Z" class="cls-3"/><path data-cppathid="10070" transform="translate(-1.77 -0.05)" d="M84.16,349.87c0,3.35-.14,6.29-1.38,8.77a5.17,5.17,0,0,0-.83-.72c1.06-2.3,1.19-5,1.19-8.05v-7.25l1.36.09c0,.1-.1.19-.34.23Zm1.46,6.2V343.91l1.24.09c0,.11-.09.18-.3.22v11.85Zm2.5-13.51,1.37.09c0,.11-.11.2-.34.24v15.17h-1Zm5.66,13.79a.58.58,0,0,1-.35.13,11.56,11.56,0,0,1-3.36,2.23,5.88,5.88,0,0,0-.78-.81,10.81,10.81,0,0,0,3.33-2.18Zm-3-10.55H93.4c.14-.57.3-1.28.41-1.87H90v-1.08h8.91v1.08H95c-.13.54-.33,1.24-.53,1.87h3.82v9.47H90.79Zm6.37,2.85v-1.89H91.9v1.89Zm0,2.81v-1.89H91.9v1.89Zm0,2.86v-1.93H91.9v1.93Zm1.1,4.43a18.71,18.71,0,0,0-3-2.38l.91-.61a19.82,19.82,0,0,1,3.06,2.3Z" class="cls-3"/><path data-cppathid="10071" transform="translate(-1.77 -0.05)" d="M102.63,348.32a20.18,20.18,0,0,1-2.2,3,7.48,7.48,0,0,0-.63-1.13,23.94,23.94,0,0,0,4.5-8.11l1.44.49c-.07.13-.19.18-.41.16a33.4,33.4,0,0,1-1.66,3.73l.49.13c0,.1-.13.19-.36.21v11.94h-1.17Zm2.29,8.34H117v1.17H104.92Zm.45-11.06h4.84V342l1.57.09c0,.15-.11.22-.36.26v3.25h5.11v1.18H105.37Zm2.5,2.4a44.85,44.85,0,0,1,1.53,7.42l-1.21.25a45.06,45.06,0,0,0-1.42-7.47Zm7.56.31c0,.12-.2.21-.41.21a61.53,61.53,0,0,1-2,7.26l-1-.34a54.37,54.37,0,0,0,1.92-7.55Z" class="cls-3"/><path data-cppathid="10072" transform="translate(-1.77 -0.05)" d="M75.43,365.38a21.5,21.5,0,0,1-2.05,2.95,10.46,10.46,0,0,0-.63-1.13A24.39,24.39,0,0,0,77,359.08l1.43.46c0,.13-.18.2-.4.18a32.91,32.91,0,0,1-1.51,3.57l.41.13c0,.1-.12.19-.36.23v12.06H75.43Zm14.48,1.13H85.69c.56,4.05,1.72,7.24,2.92,7.26.42,0,.6-.76.67-2.54a3.23,3.23,0,0,0,1,.63C90,374.27,89.6,375,88.5,375c-2,0-3.38-3.73-4-8.47H80.27v4.95c1.39-.23,2.94-.52,4.47-.79l.05,1c-2.28.49-4.64,1-6.19,1.28a.33.33,0,0,1-.23.25l-.53-1.37c.38,0,.8-.12,1.25-.2V360.93l.7.23a47.09,47.09,0,0,0,8.26-1.58l1,1a.31.31,0,0,1-.2.05h-.16c-.83.25-1.91.48-3.08.72a.48.48,0,0,1-.33.14,33.85,33.85,0,0,0,.24,3.93h4.34Zm-11.53,8.68v-1.1h7.87v1.1Zm1.89-9.79h4.09c-.14-1.23-.21-2.52-.25-3.8-1.26.2-2.59.38-3.84.52Z" class="cls-3"/><path data-cppathid="10073" transform="translate(-1.77 -0.05)" d="M47.29,347.49a22.44,22.44,0,0,1-1.89,2.88,10.76,10.76,0,0,0-.6-1.17,24.51,24.51,0,0,0,4-8.12l1.43.45c-.06.12-.18.19-.42.19a34.2,34.2,0,0,1-1.38,3.57l.41.13c0,.12-.13.19-.34.23v12.06H47.29Zm12.15,5.38.85.43a.54.54,0,0,1-.2.16,8.07,8.07,0,0,1-3,2.33,23.47,23.47,0,0,0,5,.95,4.09,4.09,0,0,0-.68,1,21.22,21.22,0,0,1-5.67-1.41A24.87,24.87,0,0,1,50,357.71a5.17,5.17,0,0,0-.61-.91,27.67,27.67,0,0,0,5.15-1,8.69,8.69,0,0,1-2.06-1.55,17.47,17.47,0,0,1-2.25,1.12,2.9,2.9,0,0,0-.72-.76A12.65,12.65,0,0,0,53.91,352c-.54-.13-.7-.44-.7-1.09v-1.18l1.35.09c0,.1-.11.19-.34.21v.88c0,.33.11.4.76.4H57.3c.45,0,.54-.09.61-.84a4.24,4.24,0,0,0,.85.28c-.09,1.05-.4,1.32-1.3,1.32h-2a.65.65,0,0,1-.31.11c-.23.23-.5.48-.79.72h4.85Zm-7.85-9.11h3.19a10.11,10.11,0,0,0,.27-1H50.22v-.95H61.71v.95H56.29c-.09.29-.22.65-.34,1h4.21v4.61h1.75v2.45H60.79V349.2H55.88a7.84,7.84,0,0,1,1.29,1l-.74.56a8,8,0,0,0-1.92-1.44l.18-.12H50.83v1.62H49.75v-2.45h1.84Zm1.35,6.48a7,7,0,0,1-2,2.07l-.77-.65a5.45,5.45,0,0,0,1.94-1.87ZM59,345.32v-.82H52.71v.82Zm0,1.54V346H52.71v.85Zm-6.32,1.51H59v-.85H52.71Zm.68,5.36a7.52,7.52,0,0,0,2.43,1.55,8.43,8.43,0,0,0,2.56-1.55Zm7.29-1.38a10.7,10.7,0,0,0-2.12-2.16l.81-.47a10.58,10.58,0,0,1,2.16,2.1Z" class="cls-4"/><path data-cppathid="10074" transform="translate(-1.77 -0.05)" d="M70,350.46c0,.12-.14.21-.37.23-.47,3.17-1.36,5.67-5.57,7a4,4,0,0,0-.74-1c3.93-1.12,4.79-3.35,5.1-6.39Zm4.5,5.15c0,.54.13.63.85.63h2.45c.7,0,.83-.38.9-2.79a3.36,3.36,0,0,0,1.12.5c-.15,2.75-.49,3.44-1.91,3.44H75.24c-1.54,0-1.94-.38-1.94-1.8v-5.53H63.56v-1.19h7.38v-3.81H67a13.18,13.18,0,0,1-1.63,2.84,7.61,7.61,0,0,0-1.05-.58,15.83,15.83,0,0,0,2.65-5.9l1.53.36c-.06.12-.16.18-.4.18-.16.57-.36,1.24-.63,1.93h3.44V341l1.59.09c0,.14-.13.23-.36.25v2.58h6.1v1.17h-6.1v3.81h7.4v1.19h-5Z" class="cls-4"/><path data-cppathid="10075" transform="translate(-1.77 -0.05)" d="M83.16,348.87c0,3.35-.14,6.29-1.38,8.77a5.17,5.17,0,0,0-.83-.72c1.06-2.3,1.19-5,1.19-8.05v-7.25l1.36.09c0,.1-.1.19-.34.23Zm1.46,6.2V342.91l1.24.09c0,.11-.09.18-.3.22v11.85Zm2.5-13.51,1.37.09c0,.11-.11.2-.34.24v15.17h-1Zm5.66,13.79a.58.58,0,0,1-.35.13,11.56,11.56,0,0,1-3.36,2.23,5.88,5.88,0,0,0-.78-.81,10.81,10.81,0,0,0,3.33-2.18Zm-3-10.55H92.4c.14-.57.3-1.28.41-1.87H89v-1.08h8.91v1.08H94c-.13.54-.33,1.24-.53,1.87h3.82v9.47H89.79Zm6.37,2.85v-1.89H90.9v1.89Zm0,2.81v-1.89H90.9v1.89Zm0,2.86v-1.93H90.9v1.93Zm1.1,4.43a18.71,18.71,0,0,0-3-2.38l.91-.61a19.82,19.82,0,0,1,3.06,2.3Z" class="cls-4"/><path data-cppathid="10076" transform="translate(-1.77 -0.05)" d="M101.63,347.32a20.18,20.18,0,0,1-2.2,3,7.48,7.48,0,0,0-.63-1.13,23.94,23.94,0,0,0,4.5-8.11l1.44.49c-.07.13-.19.18-.41.16a33.4,33.4,0,0,1-1.66,3.73l.49.13c0,.1-.13.19-.36.21v11.94h-1.17Zm2.29,8.34H116v1.17H103.92Zm.45-11.06h4.84V341l1.57.09c0,.15-.11.22-.36.26v3.25h5.11v1.18H104.37Zm2.5,2.4a44.85,44.85,0,0,1,1.53,7.42l-1.21.25a45.06,45.06,0,0,0-1.42-7.47Zm7.56.31c0,.12-.2.21-.41.21a61.53,61.53,0,0,1-2,7.26l-1-.34a54.37,54.37,0,0,0,1.92-7.55Z" class="cls-4"/><path data-cppathid="10077" transform="translate(-1.77 -0.05)" d="M74.43,364.38a21.5,21.5,0,0,1-2.05,2.95,10.46,10.46,0,0,0-.63-1.13A24.39,24.39,0,0,0,76,358.08l1.43.46c0,.13-.18.2-.4.18a32.91,32.91,0,0,1-1.51,3.57l.41.13c0,.1-.12.19-.36.23v12.06H74.43Zm14.48,1.13H84.69c.56,4.05,1.72,7.24,2.92,7.26.42,0,.6-.76.67-2.54a3.23,3.23,0,0,0,1,.63C89,373.27,88.6,374,87.5,374c-2,0-3.38-3.73-4-8.47H79.27v4.95c1.39-.23,2.94-.52,4.47-.79l.05,1c-2.28.49-4.64,1-6.19,1.28a.33.33,0,0,1-.23.25l-.53-1.37c.38,0,.8-.12,1.25-.2V359.93l.7.23a47.09,47.09,0,0,0,8.26-1.58l1,1a.31.31,0,0,1-.2.05h-.16c-.83.25-1.91.48-3.08.72a.48.48,0,0,1-.33.14,33.85,33.85,0,0,0,.24,3.93h4.34Zm-11.53,8.68v-1.1h7.87v1.1Zm1.89-9.79h4.09c-.14-1.23-.21-2.52-.25-3.8-1.26.2-2.59.38-3.84.52Z" class="cls-4"/><path data-cppathid="10078" transform="translate(-1.77 -0.05)" d="M262.08,132.75h7.62l.07,0,.82.63a.3.3,0,0,1-.14.1c-1,4.51-3.06,6.86-6.73,8.25a5.22,5.22,0,0,0-.54-.7,9.09,9.09,0,0,0,6.28-7.41h-7.38Zm9.13-2.15a1.32,1.32,0,1,1-1.32,1.32A1.32,1.32,0,0,1,271.21,130.6Zm.91,1.32a.9.9,0,0,0-.91-.92.92.92,0,0,0-.92.92.93.93,0,0,0,.92.92A.92.92,0,0,0,272.12,131.92Z" class="cls-4"/><path data-cppathid="10079" transform="translate(-1.77 -0.05)" d="M282.46,132.94v7.91h-.87v-.75H275v.78h-.84v-7.94Zm-.87,6.36v-5.56H275v5.56Z" class="cls-4"/><path data-cppathid="10080" transform="translate(-1.77 -0.05)" d="M293.38,133.38c0,.08-.07.1-.15.14a15.75,15.75,0,0,1-1.73,3.95c.51.3,1.15.67,1.59,1l-.5.78a15.75,15.75,0,0,0-1.6-1,10.84,10.84,0,0,1-4.3,3.6,2.6,2.6,0,0,0-.65-.63,10.78,10.78,0,0,0,4.21-3.4,20.93,20.93,0,0,0-2.69-1.26l.47-.66a24.72,24.72,0,0,1,2.72,1.23,12.52,12.52,0,0,0,1.44-3.18h-4a12.32,12.32,0,0,1-2.7,3.27,7.86,7.86,0,0,0-.67-.54,12.09,12.09,0,0,0,3.66-5.35l1.12.33a.3.3,0,0,1-.34.15,13.24,13.24,0,0,1-.61,1.34h3.88l.11,0ZM292.27,131a8.69,8.69,0,0,1,1.6,1.68l-.46.37a9.45,9.45,0,0,0-1.57-1.68Zm1.54-.45a9.79,9.79,0,0,1,1.63,1.66l-.47.36a8.74,8.74,0,0,0-1.58-1.65Z" class="cls-4"/><path data-cppathid="10081" transform="translate(-1.77 -0.05)" d="M304.81,133.58a.47.47,0,0,1-.18.16c-1.25,3.89-3.22,6.38-6.53,8.06a3.39,3.39,0,0,0-.61-.66,11.27,11.27,0,0,0,6.08-7.1h-4.28a12.37,12.37,0,0,1-2.69,3,5,5,0,0,0-.68-.56,12.13,12.13,0,0,0,3.82-5.2l1.14.32c-.05.12-.19.16-.35.16a16.42,16.42,0,0,1-.77,1.51H304l.14-.07Z" class="cls-4"/><path data-cppathid="10082" transform="translate(-1.77 -0.05)" d="M313.37,137.68a43.62,43.62,0,0,0-4.21-2v6h-.9V131.3l1.21.07c0,.13-.1.21-.31.25v3.5l.18-.25a43,43,0,0,1,4.51,2Z" class="cls-4"/><path data-cppathid="10083" transform="translate(-1.77 -0.05)" d="M319.66,133.17a.31.31,0,0,1-.31.18,18,18,0,0,1-2.88,7.69,3.64,3.64,0,0,0-.8-.44,16.34,16.34,0,0,0,2.78-7.68Zm6,7.79a40,40,0,0,0-3.19-7.72l.78-.37a38.19,38.19,0,0,1,3.29,7.75ZM324,131.32a8.78,8.78,0,0,1,1.46,1.78l-.46.33a9.35,9.35,0,0,0-1.46-1.77Zm1.58-.62a9.41,9.41,0,0,1,1.47,1.76l-.46.35a9.73,9.73,0,0,0-1.47-1.77Z" class="cls-4"/><path data-cppathid="10084" transform="translate(-1.77 -0.05)" d="M329.26,134.51a12.61,12.61,0,0,1,.9,2.58l-.67.18a13.2,13.2,0,0,0-.88-2.56Zm7.16.08c0,.11-.14.14-.25.12-.93,3.51-2.7,5.65-5.6,6.83a3.35,3.35,0,0,0-.47-.55c2.87-1.13,4.51-3.1,5.39-6.67Zm-4.24-.65a16,16,0,0,1,.56,2.72l-.71.13a14.6,14.6,0,0,0-.56-2.7Z" class="cls-4"/><path data-cppathid="10085" transform="translate(-1.77 -0.05)" d="M346.82,133.58a.69.69,0,0,1-.18.16c-1.26,3.89-3.23,6.38-6.54,8.06a3.1,3.1,0,0,0-.61-.66,11.27,11.27,0,0,0,6.08-7.1h-4.28a12.37,12.37,0,0,1-2.69,3,5,5,0,0,0-.68-.56,12.13,12.13,0,0,0,3.82-5.2l1.14.32c-.05.12-.19.16-.35.16-.24.53-.49,1-.76,1.51H346l.14-.07Z" class="cls-4"/><path data-cppathid="10086" transform="translate(-1.77 -0.05)" d="M357.58,132.94v7.91h-.86v-.75h-6.61v.78h-.84v-7.94Zm-.86,6.36v-5.56h-6.61v5.56Z" class="cls-4"/><path data-cppathid="10087" transform="translate(-1.77 -0.05)" d="M368.47,133.68a.52.52,0,0,1-.18.18c-1.27,4-3.23,6.37-6.48,8a3.13,3.13,0,0,0-.61-.66,11.13,11.13,0,0,0,6-7.07H363a11.83,11.83,0,0,1-2.65,2.93,3.36,3.36,0,0,0-.67-.54,11.9,11.9,0,0,0,3.8-5.25l1.13.31c0,.12-.18.17-.33.15a17,17,0,0,1-.8,1.6h4.18l.14-.07ZM367,130.92a9.23,9.23,0,0,1,1.57,1.71l-.44.38a8.55,8.55,0,0,0-1.55-1.7Zm1.74-.34a8.59,8.59,0,0,1,1.57,1.7l-.45.37a8.67,8.67,0,0,0-1.54-1.69Z" class="cls-4"/><path data-cppathid="10088" transform="translate(-1.77 -0.05)" d="M380.93,132.39c0,.05-.1.08-.15.11a10.25,10.25,0,0,1-2.85,3.83,5.47,5.47,0,0,0-.73-.49,7.26,7.26,0,0,0,2.39-3H371v-.82h9l.14-.06Zm-4.68,2.18c0,.1-.12.18-.27.2-.35,2.83-1.32,5.53-3.79,7a6,6,0,0,0-.71-.55c2.45-1.34,3.32-3.85,3.61-6.74Z" class="cls-4"/><path data-cppathid="10089" transform="translate(-1.77 -0.05)" d="M390.69,132.06a.28.28,0,0,1-.23.1h-.12a30.62,30.62,0,0,1-3.42,2.86l.29.14a.31.31,0,0,1-.27.15v6.44h-.87v-6.16a34.21,34.21,0,0,1-4.57,2.67,5.21,5.21,0,0,0-.5-.66,30.32,30.32,0,0,0,8.79-6.2Z" class="cls-4"/><path data-cppathid="10090" transform="translate(-1.77 -0.05)" d="M401.7,136h-4.05l.2.06a.25.25,0,0,1-.24.14,6.5,6.5,0,0,1-3.7,5.48,7.64,7.64,0,0,0-.65-.59,5.69,5.69,0,0,0,3.46-5.09h-4.66v-.8h9.64Zm-1.19-3.38h-7.36v-.81h7.36Z" class="cls-4"/><path data-cppathid="10091" transform="translate(-1.77 -0.05)" d="M412.35,141.43c-.18-.41-.4-.84-.64-1.27-2.49.26-6.6.52-8.43.61a.33.33,0,0,1-.23.24l-.32-1.08c.36,0,.79,0,1.26-.05.79-2.3,1.93-5.88,2.59-8.28l1.16.31a.35.35,0,0,1-.35.17c-.66,2.2-1.69,5.42-2.52,7.77,2-.09,4.84-.29,6.42-.43a19.73,19.73,0,0,0-2.13-2.93l.72-.41a24.51,24.51,0,0,1,3.31,5Z" class="cls-4"/><path data-cppathid="10092" transform="translate(-1.77 -0.05)" d="M328.8,148a7.6,7.6,0,0,0,0,11v.06h-.72a7.93,7.93,0,0,1,0-11.15h.72Z" class="cls-4"/><path data-cppathid="10093" transform="translate(-1.77 -0.05)" d="M330,149.06a12.13,12.13,0,0,1,2.07-.18c2.95,0,3.19,1.9,3.19,2.62,0,2.15-1.71,2.91-3.33,2.91a3.92,3.92,0,0,1-.94-.08v3.75h-1Zm1,4.44a3.72,3.72,0,0,0,1,.1c1.44,0,2.32-.72,2.32-2s-.94-1.88-2.19-1.88a6.12,6.12,0,0,0-1.09.09Z" class="cls-4"/><path data-cppathid="10094" transform="translate(-1.77 -0.05)" d="M340.36,153.19a2.32,2.32,0,0,1,1.88,2.3,2.4,2.4,0,0,1-.73,1.8,4.11,4.11,0,0,1-3,.86,15.28,15.28,0,0,1-1.69-.09v-9a9.62,9.62,0,0,1,2-.2,3.55,3.55,0,0,1,2.42.68,2,2,0,0,1,.68,1.58,2.17,2.17,0,0,1-1.55,2Zm-1.45-.34c1.21,0,2-.69,2-1.63h0c0-1.08-.79-1.55-2-1.55a4.08,4.08,0,0,0-1,.09v3.1Zm-1.07,4.45a5,5,0,0,0,1,.06c1.26,0,2.39-.49,2.39-1.87s-1.19-1.87-2.4-1.87h-1Z" class="cls-4"/><path data-cppathid="10095" transform="translate(-1.77 -0.05)" d="M343.81,148.94h1v9.14h-1Z" class="cls-4"/><path data-cppathid="10096" transform="translate(-1.77 -0.05)" d="M346,159a7.6,7.6,0,0,0,0-11V148h.72a7.93,7.93,0,0,1,0,11.15H346Z" class="cls-4"/><path data-cppathid="10097" transform="translate(-1.77 -0.05)" d="M263.68,182.61h7.63l.07,0,.82.63a.35.35,0,0,1-.15.11c-1,4.5-3.06,6.86-6.73,8.25a5.46,5.46,0,0,0-.53-.71,9.08,9.08,0,0,0,6.28-7.41h-7.39Zm9.14-2.15a1.32,1.32,0,1,1-1.32,1.32A1.32,1.32,0,0,1,272.82,180.46Zm.91,1.32a.92.92,0,1,0-1.83,0,.92.92,0,1,0,1.83,0Z" class="cls-4"/><path data-cppathid="10098" transform="translate(-1.77 -0.05)" d="M284.06,182.8v7.92h-.86V190h-6.61v.78h-.84V182.8Zm-.86,6.36v-5.55h-6.61v5.55Z" class="cls-4"/><path data-cppathid="10099" transform="translate(-1.77 -0.05)" d="M295,183.25c0,.07-.07.09-.14.13a16,16,0,0,1-1.74,4c.52.3,1.15.67,1.6,1l-.51.78a16.71,16.71,0,0,0-1.59-1,11,11,0,0,1-4.31,3.6,2.33,2.33,0,0,0-.65-.64,10.77,10.77,0,0,0,4.21-3.39,18.45,18.45,0,0,0-2.68-1.26l.47-.66a22.86,22.86,0,0,1,2.72,1.22,12.88,12.88,0,0,0,1.44-3.18h-4a12.77,12.77,0,0,1-2.7,3.28,5.26,5.26,0,0,0-.67-.54,12.15,12.15,0,0,0,3.66-5.35l1.11.32a.3.3,0,0,1-.33.16,13.21,13.21,0,0,1-.62,1.33h3.89l.11,0Zm-1.1-2.39a8.69,8.69,0,0,1,1.6,1.68l-.46.37a9.83,9.83,0,0,0-1.57-1.68Zm1.54-.44a9.75,9.75,0,0,1,1.63,1.65l-.47.36a9,9,0,0,0-1.58-1.64Z" class="cls-4"/><path data-cppathid="10100" transform="translate(-1.77 -0.05)" d="M306.42,183.44a1,1,0,0,1-.18.17c-1.26,3.88-3.23,6.38-6.54,8.06a2.88,2.88,0,0,0-.61-.66,11.26,11.26,0,0,0,6.08-7.1h-4.28a12.48,12.48,0,0,1-2.68,3,4.38,4.38,0,0,0-.69-.55,12.27,12.27,0,0,0,3.83-5.21l1.14.33c-.05.12-.2.15-.35.15a16.42,16.42,0,0,1-.77,1.51h4.22l.15-.07Z" class="cls-4"/><path data-cppathid="10101" transform="translate(-1.77 -0.05)" d="M315,187.54a44.77,44.77,0,0,0-4.21-2v6h-.9V181.16l1.21.07c0,.13-.11.22-.31.25V185l.18-.25a43,43,0,0,1,4.51,2Z" class="cls-4"/><path data-cppathid="10102" transform="translate(-1.77 -0.05)" d="M321.27,183a.31.31,0,0,1-.31.18,18.18,18.18,0,0,1-2.88,7.69,3.3,3.3,0,0,0-.81-.43c1.35-1.64,2.4-4.68,2.79-7.69Zm6,7.8a40.06,40.06,0,0,0-3.19-7.73l.78-.37a39,39,0,0,1,3.29,7.75Zm-1.74-9.65A8.85,8.85,0,0,1,327,183l-.46.33a9.74,9.74,0,0,0-1.46-1.77Zm1.59-.62a10.25,10.25,0,0,1,1.47,1.76l-.47.35a9.29,9.29,0,0,0-1.46-1.76Z" class="cls-4"/><path data-cppathid="10103" transform="translate(-1.77 -0.05)" d="M330.87,184.37a13.47,13.47,0,0,1,.9,2.58l-.67.18a13.82,13.82,0,0,0-.88-2.55Zm7.16.09c0,.1-.15.13-.25.12-.94,3.5-2.7,5.65-5.6,6.82a3.93,3.93,0,0,0-.47-.55c2.86-1.13,4.51-3.09,5.38-6.67Zm-4.25-.66a16.09,16.09,0,0,1,.57,2.72l-.71.13a14.6,14.6,0,0,0-.56-2.7Z" class="cls-4"/><path data-cppathid="10104" transform="translate(-1.77 -0.05)" d="M348.42,183.44a1,1,0,0,1-.18.17c-1.26,3.88-3.22,6.38-6.53,8.06a3.19,3.19,0,0,0-.62-.66,11.26,11.26,0,0,0,6.08-7.1h-4.28a12.48,12.48,0,0,1-2.68,3,4.38,4.38,0,0,0-.69-.55,12.27,12.27,0,0,0,3.83-5.21l1.14.33c-.05.12-.19.15-.35.15a16.42,16.42,0,0,1-.77,1.51h4.22l.15-.07Z" class="cls-4"/><path data-cppathid="10105" transform="translate(-1.77 -0.05)" d="M359.19,182.8v7.92h-.87V190h-6.61v.78h-.84V182.8Zm-.87,6.36v-5.55h-6.61v5.55Z" class="cls-4"/><path data-cppathid="10106" transform="translate(-1.77 -0.05)" d="M370.08,183.55a.77.77,0,0,1-.18.18c-1.27,4-3.24,6.36-6.49,8a2.86,2.86,0,0,0-.61-.66,11.11,11.11,0,0,0,6-7.07H364.6A11.83,11.83,0,0,1,362,187a4.15,4.15,0,0,0-.67-.54,12,12,0,0,0,3.8-5.25l1.13.31c0,.12-.18.17-.34.16a16.81,16.81,0,0,1-.79,1.59h4.17l.15-.07Zm-1.49-2.76a8.63,8.63,0,0,1,1.58,1.7l-.45.38a8.55,8.55,0,0,0-1.55-1.7Zm1.74-.35a8.28,8.28,0,0,1,1.57,1.7l-.44.37a8.43,8.43,0,0,0-1.55-1.69Z" class="cls-4"/><path data-cppathid="10107" transform="translate(-1.77 -0.05)" d="M382.54,182.25a.38.38,0,0,1-.16.11,10.37,10.37,0,0,1-2.84,3.84,5.23,5.23,0,0,0-.73-.5,7.15,7.15,0,0,0,2.38-3h-8.58v-.82h9l.13-.06Zm-4.68,2.18c0,.1-.12.18-.28.21-.34,2.83-1.32,5.53-3.79,7a5.88,5.88,0,0,0-.7-.55c2.44-1.34,3.32-3.85,3.61-6.74Z" class="cls-4"/><path data-cppathid="10108" transform="translate(-1.77 -0.05)" d="M392.29,181.93a.27.27,0,0,1-.23.09h-.12a28.69,28.69,0,0,1-3.41,2.87,1.49,1.49,0,0,1,.28.13.29.29,0,0,1-.26.15v6.44h-.88v-6.16a33.59,33.59,0,0,1-4.57,2.67,3.42,3.42,0,0,0-.5-.65,30.56,30.56,0,0,0,8.79-6.2Z" class="cls-4"/><path data-cppathid="10109" transform="translate(-1.77 -0.05)" d="M403.31,185.87h-4.06l.21.06a.29.29,0,0,1-.24.15,6.52,6.52,0,0,1-3.71,5.48,5.31,5.31,0,0,0-.64-.6,5.69,5.69,0,0,0,3.46-5.09h-4.66v-.8h9.64Zm-1.19-3.38h-7.36v-.8h7.36Z" class="cls-4"/><path data-cppathid="10110" transform="translate(-1.77 -0.05)" d="M414,191.29c-.18-.4-.39-.84-.63-1.27-2.5.27-6.6.52-8.43.61a.33.33,0,0,1-.23.24l-.33-1.08,1.26,0c.79-2.31,1.93-5.89,2.59-8.29l1.17.31a.35.35,0,0,1-.35.17c-.66,2.21-1.69,5.42-2.52,7.77,2-.08,4.83-.29,6.42-.43a21.7,21.7,0,0,0-2.14-2.93l.72-.41a23.7,23.7,0,0,1,3.31,5Z" class="cls-4"/><path data-cppathid="10111" transform="translate(-1.77 -0.05)" d="M330.41,197.87a7.58,7.58,0,0,0,0,11V209h-.72a7.94,7.94,0,0,1,0-11.16h.72Z" class="cls-4"/><path data-cppathid="10112" transform="translate(-1.77 -0.05)" d="M331.61,198.93a11.3,11.3,0,0,1,2.08-.18c2.95,0,3.19,1.89,3.19,2.61,0,2.15-1.72,2.92-3.34,2.92a3.86,3.86,0,0,1-.93-.09V208h-1Zm1,4.43a3.33,3.33,0,0,0,1,.1c1.44,0,2.31-.72,2.31-2s-.93-1.88-2.18-1.88a5.13,5.13,0,0,0-1.09.1Z" class="cls-4"/><path data-cppathid="10113" transform="translate(-1.77 -0.05)" d="M342,203.05a2.35,2.35,0,0,1,1.88,2.3,2.38,2.38,0,0,1-.73,1.8,4.12,4.12,0,0,1-3,.87,15.11,15.11,0,0,1-1.7-.1v-9a9.88,9.88,0,0,1,2-.19,3.52,3.52,0,0,1,2.41.67,2,2,0,0,1,.69,1.58,2.2,2.2,0,0,1-1.55,2Zm-1.45-.33c1.21,0,2-.7,2-1.63v0c0-1.08-.79-1.54-2-1.54a4.25,4.25,0,0,0-1,.08v3.11Zm-1.07,4.45a6,6,0,0,0,1,.06c1.26,0,2.39-.5,2.39-1.88s-1.19-1.87-2.4-1.87h-1Z" class="cls-4"/><path data-cppathid="10114" transform="translate(-1.77 -0.05)" d="M345.41,198.81h1V208h-1Z" class="cls-4"/><path data-cppathid="10115" transform="translate(-1.77 -0.05)" d="M347.62,208.9a7.58,7.58,0,0,0,0-11v-.06h.72a7.94,7.94,0,0,1,0,11.16h-.72Z" class="cls-4"/><path data-cppathid="10116" transform="translate(-1.77 -0.05)" d="M264.36,228.17H272l.07,0,.82.63a.31.31,0,0,1-.14.11c-1,4.51-3.06,6.86-6.73,8.25a4.74,4.74,0,0,0-.54-.71,9.06,9.06,0,0,0,6.28-7.41h-7.38Zm9.13-2.15a1.32,1.32,0,1,1-1.32,1.32A1.32,1.32,0,0,1,273.49,226Zm.92,1.32a.92.92,0,0,0-1.84,0,.92.92,0,1,0,1.84,0Z" class="cls-4"/><path data-cppathid="10117" transform="translate(-1.77 -0.05)" d="M284.74,228.36v7.92h-.86v-.76h-6.61v.78h-.84v-7.94Zm-.86,6.36v-5.55h-6.61v5.55Z" class="cls-4"/><path data-cppathid="10118" transform="translate(-1.77 -0.05)" d="M295.66,228.81c0,.07-.07.09-.15.13a16,16,0,0,1-1.73,4c.51.3,1.15.67,1.59,1l-.5.78a15.7,15.7,0,0,0-1.6-1,11,11,0,0,1-4.3,3.6,2.47,2.47,0,0,0-.65-.64,10.84,10.84,0,0,0,4.21-3.39,18.55,18.55,0,0,0-2.69-1.26l.47-.66A22.86,22.86,0,0,1,293,232.5a12.52,12.52,0,0,0,1.44-3.18h-4a12.37,12.37,0,0,1-2.7,3.28,5.26,5.26,0,0,0-.67-.54,12.15,12.15,0,0,0,3.66-5.35l1.12.32a.32.32,0,0,1-.34.16,13.09,13.09,0,0,1-.61,1.33h3.88l.11,0Zm-1.11-2.39a8.69,8.69,0,0,1,1.6,1.68l-.46.37a9.45,9.45,0,0,0-1.57-1.68Zm1.54-.44a9.75,9.75,0,0,1,1.63,1.65l-.47.36a8.69,8.69,0,0,0-1.58-1.64Z" class="cls-4"/><path data-cppathid="10119" transform="translate(-1.77 -0.05)" d="M307.09,229a.69.69,0,0,1-.17.17c-1.26,3.88-3.23,6.38-6.54,8.06a3.13,3.13,0,0,0-.61-.66,11.32,11.32,0,0,0,6.08-7.1h-4.28a12.52,12.52,0,0,1-2.69,3,4.29,4.29,0,0,0-.68-.55,12.17,12.17,0,0,0,3.82-5.21l1.14.32c-.05.12-.19.16-.35.16a16.42,16.42,0,0,1-.77,1.51h4.23l.14-.07Z" class="cls-4"/><path data-cppathid="10120" transform="translate(-1.77 -0.05)" d="M315.65,233.1a41.29,41.29,0,0,0-4.21-1.95v6h-.9V226.72l1.21.07c0,.13-.1.22-.31.25v3.5l.18-.25a43,43,0,0,1,4.51,2Z" class="cls-4"/><path data-cppathid="10121" transform="translate(-1.77 -0.05)" d="M321.94,228.59c0,.1-.13.17-.31.18a18,18,0,0,1-2.88,7.69,3.24,3.24,0,0,0-.8-.43,16.38,16.38,0,0,0,2.78-7.69Zm6,7.8a40.06,40.06,0,0,0-3.19-7.73l.78-.37a38.43,38.43,0,0,1,3.29,7.75Zm-1.73-9.65a8.46,8.46,0,0,1,1.46,1.78l-.46.33a9.35,9.35,0,0,0-1.46-1.77Zm1.58-.62a9.41,9.41,0,0,1,1.47,1.76l-.46.35a9.35,9.35,0,0,0-1.47-1.76Z" class="cls-4"/><path data-cppathid="10122" transform="translate(-1.77 -0.05)" d="M331.54,229.93a12.82,12.82,0,0,1,.9,2.58l-.67.18a13.12,13.12,0,0,0-.88-2.55Zm7.16.09c0,.11-.14.13-.25.12-.93,3.5-2.7,5.65-5.6,6.82a3.35,3.35,0,0,0-.47-.55c2.87-1.13,4.51-3.1,5.39-6.67Zm-4.24-.66a16,16,0,0,1,.56,2.72l-.71.13a14.6,14.6,0,0,0-.56-2.7Z" class="cls-4"/><path data-cppathid="10123" transform="translate(-1.77 -0.05)" d="M349.1,229a1,1,0,0,1-.18.17c-1.26,3.88-3.23,6.38-6.54,8.06a2.88,2.88,0,0,0-.61-.66,11.32,11.32,0,0,0,6.08-7.1h-4.28a12.52,12.52,0,0,1-2.69,3,4.29,4.29,0,0,0-.68-.55,12.17,12.17,0,0,0,3.82-5.21l1.14.32c-.05.12-.19.16-.35.16-.24.53-.49,1-.76,1.51h4.22l.14-.07Z" class="cls-4"/><path data-cppathid="10124" transform="translate(-1.77 -0.05)" d="M359.86,228.36v7.92H359v-.76h-6.61v.78h-.84v-7.94Zm-.86,6.36v-5.55h-6.61v5.55Z" class="cls-4"/><path data-cppathid="10125" transform="translate(-1.77 -0.05)" d="M370.75,229.11a.58.58,0,0,1-.17.18c-1.28,4-3.24,6.36-6.49,8a2.88,2.88,0,0,0-.61-.66,11.11,11.11,0,0,0,6-7.06h-4.24a12,12,0,0,1-2.65,2.92A3.76,3.76,0,0,0,362,232a11.9,11.9,0,0,0,3.8-5.25l1.13.31c0,.12-.18.17-.33.16a16.85,16.85,0,0,1-.8,1.59h4.18l.14-.07Zm-1.48-2.76a8.88,8.88,0,0,1,1.57,1.7l-.44.38a8.55,8.55,0,0,0-1.55-1.7ZM371,226a8.88,8.88,0,0,1,1.57,1.7l-.45.37a8.67,8.67,0,0,0-1.54-1.69Z" class="cls-4"/><path data-cppathid="10126" transform="translate(-1.77 -0.05)" d="M383.21,227.81c0,.05-.09.08-.15.11a10.36,10.36,0,0,1-2.85,3.84,4.7,4.7,0,0,0-.73-.5,7.26,7.26,0,0,0,2.39-3h-8.59v-.82h9l.14-.06ZM378.53,230c0,.1-.12.18-.27.21-.35,2.83-1.32,5.53-3.79,7a6,6,0,0,0-.71-.55c2.45-1.34,3.32-3.85,3.61-6.74Z" class="cls-4"/><path data-cppathid="10127" transform="translate(-1.77 -0.05)" d="M393,227.49a.27.27,0,0,1-.23.09h-.12a29.63,29.63,0,0,1-3.42,2.87,1.63,1.63,0,0,1,.29.13.34.34,0,0,1-.27.16v6.44h-.87V231a35.33,35.33,0,0,1-4.57,2.68,4.09,4.09,0,0,0-.5-.66,30.53,30.53,0,0,0,8.79-6.21Z" class="cls-4"/><path data-cppathid="10128" transform="translate(-1.77 -0.05)" d="M404,231.43h-4.05l.2.06c0,.07-.11.13-.24.15a6.51,6.51,0,0,1-3.7,5.48,6.33,6.33,0,0,0-.65-.6,5.69,5.69,0,0,0,3.46-5.09h-4.66v-.8H404Zm-1.19-3.38h-7.36v-.8h7.36Z" class="cls-4"/><path data-cppathid="10129" transform="translate(-1.77 -0.05)" d="M414.63,236.85c-.18-.4-.4-.84-.64-1.27-2.49.27-6.6.52-8.43.61a.33.33,0,0,1-.23.24l-.32-1.08,1.26,0c.79-2.31,1.93-5.89,2.59-8.29l1.16.31a.35.35,0,0,1-.35.17c-.66,2.21-1.69,5.42-2.52,7.77,2-.08,4.84-.29,6.42-.43a20.83,20.83,0,0,0-2.13-2.93l.72-.41a24.09,24.09,0,0,1,3.31,5Z" class="cls-4"/><path data-cppathid="10130" transform="translate(-1.77 -0.05)" d="M331.08,243.43a7.61,7.61,0,0,0,0,11v.05h-.72a7.93,7.93,0,0,1,0-11.15h.72Z" class="cls-4"/><path data-cppathid="10131" transform="translate(-1.77 -0.05)" d="M332.29,244.49a11.18,11.18,0,0,1,2.07-.18c2.95,0,3.19,1.89,3.19,2.61,0,2.15-1.71,2.92-3.33,2.92a3.9,3.9,0,0,1-.94-.09v3.76h-1Zm1,4.43a3.37,3.37,0,0,0,1,.1c1.44,0,2.32-.72,2.32-2s-.94-1.88-2.18-1.88a5.16,5.16,0,0,0-1.1.1Z" class="cls-4"/><path data-cppathid="10132" transform="translate(-1.77 -0.05)" d="M342.64,248.61a2.34,2.34,0,0,1,1.88,2.3,2.38,2.38,0,0,1-.73,1.8,4.11,4.11,0,0,1-3,.87,14.74,14.74,0,0,1-1.69-.1v-9a9.7,9.7,0,0,1,2-.19,3.55,3.55,0,0,1,2.42.67,2,2,0,0,1,.68,1.58,2.19,2.19,0,0,1-1.55,2Zm-1.45-.33c1.21,0,2-.7,2-1.63v0c0-1.08-.79-1.54-2-1.54a4.31,4.31,0,0,0-1,.08v3.11Zm-1.07,4.45a6,6,0,0,0,1,.06c1.26,0,2.39-.5,2.39-1.88s-1.19-1.87-2.4-1.87h-1Z" class="cls-4"/><path data-cppathid="10133" transform="translate(-1.77 -0.05)" d="M346.09,244.37h1v9.14h-1Z" class="cls-4"/><path data-cppathid="10134" transform="translate(-1.77 -0.05)" d="M348.3,254.47a7.61,7.61,0,0,0,0-11v-.06H349a7.93,7.93,0,0,1,0,11.15h-.72Z" class="cls-4"/><path data-cppathid="10135" transform="translate(-1.77 -0.05)" d="M265.15,275.25h7.63l.07,0,.82.63a.28.28,0,0,1-.15.1c-1,4.51-3.06,6.86-6.73,8.25a6.12,6.12,0,0,0-.53-.7,9.11,9.11,0,0,0,6.28-7.41h-7.39Zm9.14-2.15a1.32,1.32,0,1,1-1.32,1.32A1.32,1.32,0,0,1,274.29,273.1Zm.91,1.32a.92.92,0,1,0-1.83,0,.93.93,0,0,0,.92.92A.92.92,0,0,0,275.2,274.42Z" class="cls-4"/><path data-cppathid="10136" transform="translate(-1.77 -0.05)" d="M285.53,275.44v7.91h-.86v-.75h-6.61v.78h-.84v-7.94Zm-.86,6.36v-5.56h-6.61v5.56Z" class="cls-4"/><path data-cppathid="10137" transform="translate(-1.77 -0.05)" d="M296.45,275.88c0,.08-.07.1-.14.14a15.77,15.77,0,0,1-1.74,4c.52.3,1.15.68,1.6,1l-.51.78a16.77,16.77,0,0,0-1.59-1,10.87,10.87,0,0,1-4.31,3.6,2.44,2.44,0,0,0-.65-.63,10.71,10.71,0,0,0,4.21-3.4,20.82,20.82,0,0,0-2.68-1.26l.47-.66a24.72,24.72,0,0,1,2.72,1.23,12.88,12.88,0,0,0,1.44-3.18h-4a12.71,12.71,0,0,1-2.7,3.27,7.86,7.86,0,0,0-.67-.54,12.09,12.09,0,0,0,3.66-5.35l1.11.33a.28.28,0,0,1-.33.15c-.17.44-.39.9-.61,1.34h3.88l.11,0Zm-1.1-2.38a8.69,8.69,0,0,1,1.6,1.68l-.46.37a9.83,9.83,0,0,0-1.57-1.68Zm1.54-.45a9.79,9.79,0,0,1,1.63,1.66l-.47.36a8.71,8.71,0,0,0-1.58-1.64Z" class="cls-4"/><path data-cppathid="10138" transform="translate(-1.77 -0.05)" d="M307.89,276.08a.69.69,0,0,1-.18.16c-1.26,3.89-3.23,6.38-6.54,8.06a3.1,3.1,0,0,0-.61-.66,11.22,11.22,0,0,0,6.08-7.1h-4.28a12.33,12.33,0,0,1-2.68,3A5.08,5.08,0,0,0,299,279a12.23,12.23,0,0,0,3.83-5.2l1.14.32c0,.12-.19.16-.35.16a16.42,16.42,0,0,1-.77,1.51h4.22l.15-.07Z" class="cls-4"/><path data-cppathid="10139" transform="translate(-1.77 -0.05)" d="M316.45,280.18a44.77,44.77,0,0,0-4.21-2v6h-.9V273.8l1.21.07c0,.13-.11.21-.31.25v3.5l.18-.25a43,43,0,0,1,4.51,2Z" class="cls-4"/><path data-cppathid="10140" transform="translate(-1.77 -0.05)" d="M322.74,275.67a.33.33,0,0,1-.31.18,18.18,18.18,0,0,1-2.88,7.69,3.71,3.71,0,0,0-.81-.44c1.35-1.63,2.4-4.67,2.79-7.68Zm6,7.79a40,40,0,0,0-3.19-7.72l.78-.37a38.77,38.77,0,0,1,3.29,7.75ZM327,273.82a8.85,8.85,0,0,1,1.47,1.78l-.46.33a9.74,9.74,0,0,0-1.46-1.77Zm1.59-.62a10.25,10.25,0,0,1,1.47,1.76l-.47.35a9.67,9.67,0,0,0-1.46-1.77Z" class="cls-4"/><path data-cppathid="10141" transform="translate(-1.77 -0.05)" d="M332.34,277a13.24,13.24,0,0,1,.9,2.58l-.67.18a13.91,13.91,0,0,0-.88-2.56Zm7.16.09c0,.1-.15.13-.25.11-.94,3.51-2.7,5.65-5.6,6.83a3.93,3.93,0,0,0-.47-.55c2.86-1.13,4.51-3.1,5.38-6.67Zm-4.25-.66a16.09,16.09,0,0,1,.57,2.72l-.71.13a14.6,14.6,0,0,0-.56-2.7Z" class="cls-4"/><path data-cppathid="10142" transform="translate(-1.77 -0.05)" d="M349.89,276.08a.69.69,0,0,1-.18.16c-1.26,3.89-3.22,6.38-6.53,8.06a3.46,3.46,0,0,0-.62-.66,11.26,11.26,0,0,0,6.09-7.1h-4.29a12.33,12.33,0,0,1-2.68,3A5.08,5.08,0,0,0,341,279a12.23,12.23,0,0,0,3.83-5.2l1.14.32c0,.12-.19.16-.35.16a16.42,16.42,0,0,1-.77,1.51h4.22l.15-.07Z" class="cls-4"/><path data-cppathid="10143" transform="translate(-1.77 -0.05)" d="M360.66,275.44v7.91h-.87v-.75h-6.61v.78h-.84v-7.94Zm-.87,6.36v-5.56h-6.61v5.56Z" class="cls-4"/><path data-cppathid="10144" transform="translate(-1.77 -0.05)" d="M371.55,276.18a.62.62,0,0,1-.18.18c-1.27,4-3.24,6.37-6.49,8a2.68,2.68,0,0,0-.61-.66,11.11,11.11,0,0,0,6-7.07h-4.23a11.83,11.83,0,0,1-2.65,2.93,3.68,3.68,0,0,0-.67-.54,12,12,0,0,0,3.8-5.25l1.13.31c0,.12-.18.17-.34.15a17,17,0,0,1-.79,1.6h4.17l.15-.07Zm-1.49-2.75a8.28,8.28,0,0,1,1.57,1.7l-.44.38a8.55,8.55,0,0,0-1.55-1.7Zm1.74-.35a8,8,0,0,1,1.57,1.7l-.44.37a8.43,8.43,0,0,0-1.55-1.69Z" class="cls-4"/><path data-cppathid="10145" transform="translate(-1.77 -0.05)" d="M384,274.89a.38.38,0,0,1-.16.11,10.33,10.33,0,0,1-2.84,3.83,6.2,6.2,0,0,0-.73-.49,7.15,7.15,0,0,0,2.38-3h-8.58v-.82h9l.13-.06Zm-4.68,2.18c0,.1-.12.18-.28.2-.34,2.83-1.32,5.53-3.79,7a5.88,5.88,0,0,0-.7-.55c2.44-1.34,3.32-3.85,3.61-6.74Z" class="cls-4"/><path data-cppathid="10146" transform="translate(-1.77 -0.05)" d="M393.76,274.56a.28.28,0,0,1-.23.1h-.12a28.63,28.63,0,0,1-3.41,2.86l.28.14a.29.29,0,0,1-.26.15v6.44h-.88v-6.16a33.59,33.59,0,0,1-4.57,2.67,3.83,3.83,0,0,0-.5-.66,30.32,30.32,0,0,0,8.79-6.2Z" class="cls-4"/><path data-cppathid="10147" transform="translate(-1.77 -0.05)" d="M404.78,278.51h-4.06l.21.06a.27.27,0,0,1-.24.14,6.51,6.51,0,0,1-3.71,5.48,5.46,5.46,0,0,0-.65-.59,5.69,5.69,0,0,0,3.47-5.09h-4.66v-.8h9.64Zm-1.19-3.38h-7.36v-.81h7.36Z" class="cls-4"/><path data-cppathid="10148" transform="translate(-1.77 -0.05)" d="M415.42,283.93c-.18-.41-.39-.84-.63-1.27-2.5.26-6.6.52-8.43.61a.33.33,0,0,1-.23.24l-.33-1.08c.36,0,.8,0,1.26-.05.79-2.3,1.93-5.88,2.59-8.28l1.17.31a.35.35,0,0,1-.35.17c-.66,2.2-1.69,5.42-2.52,7.77,2-.09,4.83-.29,6.42-.43a20.51,20.51,0,0,0-2.14-2.93l.72-.41a23.7,23.7,0,0,1,3.31,5Z" class="cls-4"/><path data-cppathid="10149" transform="translate(-1.77 -0.05)" d="M331.88,290.51a7.58,7.58,0,0,0,0,11v.06h-.72a7.93,7.93,0,0,1,0-11.15h.72Z" class="cls-4"/><path data-cppathid="10150" transform="translate(-1.77 -0.05)" d="M333.08,291.56a12.26,12.26,0,0,1,2.08-.18c2.95,0,3.19,1.9,3.19,2.62,0,2.15-1.72,2.91-3.33,2.91a3.92,3.92,0,0,1-.94-.08v3.75h-1Zm1,4.44a3.72,3.72,0,0,0,1,.1c1.44,0,2.31-.72,2.31-2s-.93-1.88-2.18-1.88a6.12,6.12,0,0,0-1.09.09Z" class="cls-4"/><path data-cppathid="10151" transform="translate(-1.77 -0.05)" d="M343.44,295.69a2.33,2.33,0,0,1,1.88,2.3,2.4,2.4,0,0,1-.73,1.8,4.12,4.12,0,0,1-3,.86,15.66,15.66,0,0,1-1.7-.09v-9a9.81,9.81,0,0,1,2-.2,3.52,3.52,0,0,1,2.41.68,2,2,0,0,1,.69,1.58,2.18,2.18,0,0,1-1.55,2Zm-1.45-.34c1.21,0,2-.69,2-1.63h0c0-1.08-.79-1.55-2-1.55a4.08,4.08,0,0,0-1,.09v3.1Zm-1.07,4.45a5,5,0,0,0,1,.06c1.26,0,2.39-.49,2.39-1.87s-1.19-1.87-2.4-1.87h-1Z" class="cls-4"/><path data-cppathid="10152" transform="translate(-1.77 -0.05)" d="M346.88,291.44h1v9.14h-1Z" class="cls-4"/><path data-cppathid="10153" transform="translate(-1.77 -0.05)" d="M349.09,301.54a7.58,7.58,0,0,0,0-11v-.06h.72a7.93,7.93,0,0,1,0,11.15h-.72Z" class="cls-4"/><path data-cppathid="10154" transform="translate(-1.77 -0.05)" d="M276.91,326.43h6.36l.06,0,.68.52a.23.23,0,0,1-.12.09c-.81,3.75-2.55,5.71-5.61,6.87a4.37,4.37,0,0,0-.45-.59,7.57,7.57,0,0,0,5.24-6.17h-6.16Zm7.62-1.79a1.1,1.1,0,1,1-1.1,1.1A1.09,1.09,0,0,1,284.53,324.64Zm.76,1.1a.76.76,0,0,0-.76-.77.77.77,0,1,0,.76.77Z" class="cls-4"/><path data-cppathid="10155" transform="translate(-1.77 -0.05)" d="M293.9,326.59v6.59h-.72v-.63h-5.51v.65H287v-6.61Zm-.72,5.29v-4.62h-5.51v4.62Z" class="cls-4"/><path data-cppathid="10156" transform="translate(-1.77 -0.05)" d="M303,327c0,.06-.06.08-.12.11a13.29,13.29,0,0,1-1.45,3.29c.43.25,1,.56,1.33.82l-.42.65A14.48,14.48,0,0,0,301,331a9.11,9.11,0,0,1-3.59,3,2.1,2.1,0,0,0-.54-.53,9,9,0,0,0,3.51-2.83,16.67,16.67,0,0,0-2.24-1.05l.39-.54a17.79,17.79,0,0,1,2.27,1,10.35,10.35,0,0,0,1.2-2.64h-3.3a10.44,10.44,0,0,1-2.25,2.72,5.24,5.24,0,0,0-.56-.45,10.09,10.09,0,0,0,3.05-4.45l.93.27a.25.25,0,0,1-.28.13,11,11,0,0,1-.51,1.11h3.24l.09,0Zm-.92-2a7.58,7.58,0,0,1,1.33,1.4l-.38.31a8.14,8.14,0,0,0-1.31-1.4Zm1.28-.37a8,8,0,0,1,1.36,1.38l-.39.3a7.39,7.39,0,0,0-1.32-1.37Z" class="cls-4"/><path data-cppathid="10157" transform="translate(-1.77 -0.05)" d="M312.53,327.12a.67.67,0,0,1-.15.14,10.5,10.5,0,0,1-5.45,6.71,2.6,2.6,0,0,0-.51-.55,9.4,9.4,0,0,0,5.07-5.91h-3.57a10.4,10.4,0,0,1-2.24,2.46,3.94,3.94,0,0,0-.57-.46,10.07,10.07,0,0,0,3.19-4.33l.95.27c0,.1-.16.13-.29.13-.2.44-.41.86-.64,1.26h3.52l.12-.06Z" class="cls-4"/><path data-cppathid="10158" transform="translate(-1.77 -0.05)" d="M319.66,330.53a36.12,36.12,0,0,0-3.51-1.63v5h-.75v-8.68l1,.06c0,.11-.09.18-.26.21v2.91l.15-.21a34.76,34.76,0,0,1,3.76,1.67Z" class="cls-4"/><path data-cppathid="10159" transform="translate(-1.77 -0.05)" d="M324.9,326.78c0,.08-.11.14-.26.15a15.1,15.1,0,0,1-2.4,6.4,3.07,3.07,0,0,0-.67-.36,13.66,13.66,0,0,0,2.32-6.4Zm5,6.49a33.73,33.73,0,0,0-2.66-6.43l.65-.31a31.86,31.86,0,0,1,2.74,6.45Zm-1.45-8a7.15,7.15,0,0,1,1.22,1.48l-.38.28a8.07,8.07,0,0,0-1.22-1.48Zm1.32-.52a8.2,8.2,0,0,1,1.23,1.47l-.39.29a8,8,0,0,0-1.22-1.47Z" class="cls-4"/><path data-cppathid="10160" transform="translate(-1.77 -0.05)" d="M332.9,327.9a10.74,10.74,0,0,1,.75,2.14l-.56.15a11.22,11.22,0,0,0-.73-2.13Zm6,.07c0,.09-.12.11-.21.09-.78,2.92-2.25,4.71-4.67,5.69a2.72,2.72,0,0,0-.39-.46c2.39-.94,3.76-2.58,4.49-5.55Zm-3.54-.55a13.58,13.58,0,0,1,.47,2.26l-.59.11a11.79,11.79,0,0,0-.47-2.24Z" class="cls-4"/><path data-cppathid="10161" transform="translate(-1.77 -0.05)" d="M347.53,327.12a.67.67,0,0,1-.15.14,10.5,10.5,0,0,1-5.45,6.71,2.6,2.6,0,0,0-.51-.55,9.4,9.4,0,0,0,5.07-5.91h-3.57a10.4,10.4,0,0,1-2.24,2.46,3.94,3.94,0,0,0-.57-.46,10.07,10.07,0,0,0,3.19-4.33l.95.27c0,.1-.16.13-.29.13-.2.44-.41.86-.64,1.26h3.52l.12-.06Z" class="cls-4"/><path data-cppathid="10162" transform="translate(-1.77 -0.05)" d="M356.5,326.59v6.59h-.72v-.63h-5.51v.65h-.7v-6.61Zm-.72,5.29v-4.62h-5.51v4.62Z" class="cls-4"/><path data-cppathid="10163" transform="translate(-1.77 -0.05)" d="M365.58,327.21a.54.54,0,0,1-.15.15A10.34,10.34,0,0,1,360,334a2.37,2.37,0,0,0-.51-.55,9.27,9.27,0,0,0,5-5.88H361A10,10,0,0,1,358.8,330a3.24,3.24,0,0,0-.56-.45,9.93,9.93,0,0,0,3.17-4.37l.94.26c0,.1-.15.14-.28.13-.2.45-.43.93-.66,1.33h3.48l.12-.06Zm-1.24-2.3a7.51,7.51,0,0,1,1.31,1.42l-.37.32a7.18,7.18,0,0,0-1.29-1.42Zm1.45-.29A7.22,7.22,0,0,1,367.1,326l-.37.31a7.08,7.08,0,0,0-1.29-1.41Z" class="cls-4"/><path data-cppathid="10164" transform="translate(-1.77 -0.05)" d="M376,326.13a.25.25,0,0,1-.13.09,8.53,8.53,0,0,1-2.37,3.19,4.33,4.33,0,0,0-.61-.41,6,6,0,0,0,2-2.47h-7.16v-.68h7.54l.11-.05Zm-3.9,1.81a.23.23,0,0,1-.23.17c-.29,2.36-1.1,4.61-3.16,5.8a4.83,4.83,0,0,0-.59-.46c2-1.12,2.77-3.21,3-5.61Z" class="cls-4"/><path data-cppathid="10165" transform="translate(-1.77 -0.05)" d="M384.09,325.86a.23.23,0,0,1-.19.08h-.1a23.32,23.32,0,0,1-2.85,2.38l.24.12a.28.28,0,0,1-.22.13v5.36h-.73v-5.14a28.79,28.79,0,0,1-3.81,2.23,3.64,3.64,0,0,0-.42-.55,25.36,25.36,0,0,0,7.33-5.16Z" class="cls-4"/><path data-cppathid="10166" transform="translate(-1.77 -0.05)" d="M393.27,329.15h-3.38l.17,0a.22.22,0,0,1-.2.12,5.43,5.43,0,0,1-3.09,4.57,5.31,5.31,0,0,0-.54-.5,4.75,4.75,0,0,0,2.89-4.23h-3.89v-.67h8Zm-1-2.82h-6.14v-.67h6.14Z" class="cls-4"/><path data-cppathid="10167" transform="translate(-1.77 -0.05)" d="M402.14,333.66c-.15-.34-.33-.7-.53-1.06-2.08.22-5.5.43-7,.51a.28.28,0,0,1-.19.2l-.27-.9,1.05,0c.66-1.92,1.61-4.9,2.16-6.9l1,.26a.29.29,0,0,1-.29.14c-.55,1.84-1.41,4.51-2.1,6.47,1.66-.07,4-.24,5.35-.36a17.24,17.24,0,0,0-1.78-2.44l.6-.34a19.86,19.86,0,0,1,2.76,4.14Z" class="cls-4"/><path data-cppathid="10168" transform="translate(-1.77 -0.05)" d="M332.52,338a6.32,6.32,0,0,0,0,9.19v.05h-.6a6.6,6.6,0,0,1,0-9.29h.6Z" class="cls-4"/><path data-cppathid="10169" transform="translate(-1.77 -0.05)" d="M333.52,338.86a9.65,9.65,0,0,1,1.73-.15c2.46,0,2.66,1.58,2.66,2.18,0,1.78-1.43,2.42-2.78,2.42a3.14,3.14,0,0,1-.78-.07v3.13h-.83Zm.83,3.69a3,3,0,0,0,.8.08c1.2,0,1.93-.6,1.93-1.69s-.78-1.56-1.82-1.56a4.41,4.41,0,0,0-.91.08Z" class="cls-4"/><path data-cppathid="10170" transform="translate(-1.77 -0.05)" d="M342.15,342.29a2,2,0,0,1,1.57,1.92,2,2,0,0,1-.61,1.5,3.44,3.44,0,0,1-2.48.72,13.44,13.44,0,0,1-1.41-.08v-7.48a8.26,8.26,0,0,1,1.64-.16,3,3,0,0,1,2,.56,1.67,1.67,0,0,1,.57,1.32,1.81,1.81,0,0,1-1.29,1.67Zm-1.21-.27c1,0,1.66-.58,1.66-1.36h0c0-.9-.66-1.29-1.7-1.29a3.58,3.58,0,0,0-.85.07V342Zm-.89,3.7a4.33,4.33,0,0,0,.81,0c1.05,0,2-.41,2-1.56s-1-1.56-2-1.56h-.8Z" class="cls-4"/><path data-cppathid="10171" transform="translate(-1.77 -0.05)" d="M345,338.76h.83v7.61H345Z" class="cls-4"/><path data-cppathid="10172" transform="translate(-1.77 -0.05)" d="M346.86,347.17a6.32,6.32,0,0,0,0-9.19v-.05h.6a6.6,6.6,0,0,1,0,9.29h-.6Z" class="cls-4"/><path data-cppathid="10173" transform="translate(-1.77 -0.05)" d="M288.26,368.21h5.09l0,0,.54.41a.16.16,0,0,1-.09.07c-.65,3-2,4.58-4.49,5.5a4.17,4.17,0,0,0-.36-.47,6,6,0,0,0,4.19-4.94h-4.93Zm6.1-1.43a.88.88,0,1,1-.88.88A.87.87,0,0,1,294.36,366.78Zm.6.88a.61.61,0,0,0-.6-.62.62.62,0,1,0,0,1.23A.6.6,0,0,0,295,367.66Z" class="cls-4"/><path data-cppathid="10174" transform="translate(-1.77 -0.05)" d="M301.85,368.34v5.27h-.57v-.5h-4.41v.52h-.56v-5.29Zm-.57,4.23v-3.7h-4.41v3.7Z" class="cls-4"/><path data-cppathid="10175" transform="translate(-1.77 -0.05)" d="M309.13,368.63c0,.05-.05.07-.09.09a10.93,10.93,0,0,1-1.16,2.64c.34.2.76.45,1.06.66l-.34.51a10.74,10.74,0,0,0-1.06-.68,7.28,7.28,0,0,1-2.87,2.4,1.76,1.76,0,0,0-.43-.43,7.21,7.21,0,0,0,2.81-2.26,13.79,13.79,0,0,0-1.8-.84l.32-.44a16.73,16.73,0,0,1,1.81.82,8.63,8.63,0,0,0,1-2.12H305.7a8.39,8.39,0,0,1-1.8,2.18,4,4,0,0,0-.44-.36,8.16,8.16,0,0,0,2.43-3.57l.75.22c0,.09-.13.11-.23.1a8.7,8.7,0,0,1-.4.89h2.59l.07,0ZM308.4,367a6.52,6.52,0,0,1,1.06,1.12l-.3.25a6.85,6.85,0,0,0-1.05-1.12Zm1-.29a6,6,0,0,1,1.09,1.1l-.31.24a6.44,6.44,0,0,0-1.06-1.1Z" class="cls-4"/><path data-cppathid="10176" transform="translate(-1.77 -0.05)" d="M316.76,368.76l-.12.11a8.4,8.4,0,0,1-4.36,5.38,2.1,2.1,0,0,0-.41-.44,7.54,7.54,0,0,0,4.06-4.74h-2.86a8.17,8.17,0,0,1-1.79,2,3,3,0,0,0-.46-.37,8.06,8.06,0,0,0,2.55-3.47l.76.22c0,.08-.12.1-.23.1-.16.35-.33.69-.51,1h2.81l.1-.05Z" class="cls-4"/><path data-cppathid="10177" transform="translate(-1.77 -0.05)" d="M322.46,371.49c-.81-.43-1.93-.95-2.81-1.3v4h-.59v-6.95l.8.05c0,.09-.07.14-.21.17v2.33l.12-.17a28.52,28.52,0,0,1,3,1.34Z" class="cls-4"/><path data-cppathid="10178" transform="translate(-1.77 -0.05)" d="M326.65,368.49c0,.06-.08.11-.2.12a12.1,12.1,0,0,1-1.92,5.12,2.51,2.51,0,0,0-.54-.28,10.93,10.93,0,0,0,1.86-5.13Zm4,5.2a27.57,27.57,0,0,0-2.13-5.15l.52-.25a26.11,26.11,0,0,1,2.19,5.16Zm-1.16-6.43a5.78,5.78,0,0,1,1,1.18l-.3.22a7.14,7.14,0,0,0-1-1.18Zm1.05-.42a7,7,0,0,1,1,1.18l-.32.23a6.68,6.68,0,0,0-1-1.18Z" class="cls-4"/><path data-cppathid="10179" transform="translate(-1.77 -0.05)" d="M333.06,369.39a8.08,8.08,0,0,1,.59,1.71l-.44.12a9.32,9.32,0,0,0-.59-1.7Zm4.77.05a.14.14,0,0,1-.17.08,6.14,6.14,0,0,1-3.73,4.55,2.64,2.64,0,0,0-.31-.37,5.67,5.67,0,0,0,3.59-4.44ZM335,369a10.14,10.14,0,0,1,.37,1.82l-.47.08a10.48,10.48,0,0,0-.37-1.8Z" class="cls-4"/><path data-cppathid="10180" transform="translate(-1.77 -0.05)" d="M344.76,368.76a.43.43,0,0,1-.12.11,8.4,8.4,0,0,1-4.36,5.38,2.1,2.1,0,0,0-.41-.44,7.54,7.54,0,0,0,4.06-4.74h-2.86a8.17,8.17,0,0,1-1.79,2,3,3,0,0,0-.46-.37,8.16,8.16,0,0,0,2.56-3.47l.76.22c0,.08-.13.1-.24.1a10.6,10.6,0,0,1-.51,1h2.82l.09-.05Z" class="cls-4"/><path data-cppathid="10181" transform="translate(-1.77 -0.05)" d="M351.93,368.34v5.27h-.57v-.5H347v.52h-.56v-5.29Zm-.57,4.23v-3.7H347v3.7Z" class="cls-4"/><path data-cppathid="10182" transform="translate(-1.77 -0.05)" d="M359.2,368.83a.34.34,0,0,1-.12.12,8.25,8.25,0,0,1-4.33,5.35,2.08,2.08,0,0,0-.41-.44,7.39,7.39,0,0,0,4-4.71h-2.83a7.91,7.91,0,0,1-1.76,2,3.38,3.38,0,0,0-.45-.36,7.89,7.89,0,0,0,2.53-3.5l.76.21c0,.08-.12.11-.23.1a10.65,10.65,0,0,1-.53,1.07h2.79l.09-.05Zm-1-1.84a6.43,6.43,0,0,1,1,1.14l-.29.26a5.81,5.81,0,0,0-1-1.14Zm1.16-.23a6.11,6.11,0,0,1,1,1.14l-.29.25a5.73,5.73,0,0,0-1-1.13Z" class="cls-4"/><path data-cppathid="10183" transform="translate(-1.77 -0.05)" d="M367.5,368a.18.18,0,0,1-.1.07,7,7,0,0,1-1.9,2.56,3.49,3.49,0,0,0-.49-.33,4.73,4.73,0,0,0,1.59-2h-5.72v-.54h6l.09,0Zm-3.12,1.45c0,.07-.08.12-.18.14-.23,1.89-.88,3.69-2.53,4.64a3.66,3.66,0,0,0-.47-.37c1.63-.9,2.21-2.57,2.41-4.49Z" class="cls-4"/><path data-cppathid="10184" transform="translate(-1.77 -0.05)" d="M374,367.75a.18.18,0,0,1-.15.07h-.08a19,19,0,0,1-2.28,1.91,1.29,1.29,0,0,1,.2.09.21.21,0,0,1-.18.1v4.3h-.58V370.1a23.37,23.37,0,0,1-3.05,1.78,2.36,2.36,0,0,0-.34-.44,20.42,20.42,0,0,0,5.87-4.13Z" class="cls-4"/><path data-cppathid="10185" transform="translate(-1.77 -0.05)" d="M381.35,370.38h-2.7l.13,0c0,.05-.07.09-.16.1a4.32,4.32,0,0,1-2.47,3.65,5.76,5.76,0,0,0-.43-.4,3.79,3.79,0,0,0,2.31-3.39h-3.11v-.53h6.43Zm-.79-2.25h-4.91v-.54h4.91Z" class="cls-4"/><path data-cppathid="10186" transform="translate(-1.77 -0.05)" d="M388.44,374c-.12-.27-.26-.56-.42-.85-1.66.18-4.4.34-5.62.41a.22.22,0,0,1-.15.16L382,373l.84,0c.53-1.54,1.29-3.93,1.73-5.53l.77.21c0,.07-.11.11-.23.11-.44,1.47-1.13,3.62-1.68,5.18,1.33-.05,3.23-.19,4.28-.29a14,14,0,0,0-1.42-1.95l.48-.27a15.56,15.56,0,0,1,2.2,3.31Z" class="cls-4"/><path data-cppathid="10187" transform="translate(-1.77 -0.05)" d="M332.75,378.05a5.08,5.08,0,0,0,0,7.36v0h-.48a5.29,5.29,0,0,1,0-7.44h.48Z" class="cls-4"/><path data-cppathid="10188" transform="translate(-1.77 -0.05)" d="M333.55,378.75a8.15,8.15,0,0,1,1.39-.12c2,0,2.12,1.27,2.12,1.75a2,2,0,0,1-2.22,1.94,2.37,2.37,0,0,1-.62-.06v2.51h-.67Zm.67,3a2.27,2.27,0,0,0,.64.07c.95,0,1.54-.48,1.54-1.36s-.63-1.25-1.46-1.25a3.68,3.68,0,0,0-.72.06Z" class="cls-4"/><path data-cppathid="10189" transform="translate(-1.77 -0.05)" d="M340.45,381.5a1.57,1.57,0,0,1,1.26,1.54,1.61,1.61,0,0,1-.49,1.2,2.74,2.74,0,0,1-2,.57c-.5,0-.88,0-1.13-.06v-6a6.81,6.81,0,0,1,1.31-.13,2.4,2.4,0,0,1,1.61.45,1.34,1.34,0,0,1,.46,1.06,1.45,1.45,0,0,1-1,1.34Zm-1-.22c.8,0,1.32-.46,1.32-1.09h0c0-.71-.52-1-1.36-1a2.81,2.81,0,0,0-.67.06v2.07Zm-.71,3a3.53,3.53,0,0,0,.64,0c.84,0,1.59-.33,1.59-1.25s-.79-1.25-1.6-1.25h-.63Z" class="cls-4"/><path data-cppathid="10190" transform="translate(-1.77 -0.05)" d="M342.75,378.67h.66v6.1h-.66Z" class="cls-4"/><path data-cppathid="10191" transform="translate(-1.77 -0.05)" d="M344.22,385.41a5.05,5.05,0,0,0,0-7.36v0h.48a5.29,5.29,0,0,1,0,7.44h-.48Z" class="cls-4"/><path data-cppathid="10192" transform="translate(-1.77 -0.05)" d="M298.82,404.46h3.81l0,0,.41.31a.2.2,0,0,1-.07.06,5,5,0,0,1-3.37,4.12,1.82,1.82,0,0,0-.27-.35,4.53,4.53,0,0,0,3.14-3.71h-3.69Zm4.57-1.08a.66.66,0,1,1-.66.66A.67.67,0,0,1,303.39,403.38Zm.46.66a.46.46,0,1,0-.46.47A.47.47,0,0,0,303.85,404Z" class="cls-4"/><path data-cppathid="10193" transform="translate(-1.77 -0.05)" d="M309,404.55v4h-.43v-.38h-3.3v.39h-.42v-4Zm-.43,3.18V405h-3.3v2.77Z" class="cls-4"/><path data-cppathid="10194" transform="translate(-1.77 -0.05)" d="M314.47,404.78s0,0-.07.06a7.92,7.92,0,0,1-.87,2c.26.15.58.34.8.49l-.25.39a9.1,9.1,0,0,0-.8-.51,5.5,5.5,0,0,1-2.15,1.8,1.12,1.12,0,0,0-.33-.32,5.45,5.45,0,0,0,2.11-1.7,10.84,10.84,0,0,0-1.35-.63l.24-.33a11.43,11.43,0,0,1,1.36.61,6,6,0,0,0,.72-1.59h-2a6.2,6.2,0,0,1-1.35,1.64,3.37,3.37,0,0,0-.34-.27,6.09,6.09,0,0,0,1.83-2.67l.56.16c0,.06-.09.08-.17.08a6.42,6.42,0,0,1-.3.66h1.94l.05,0Zm-.55-1.2a4.5,4.5,0,0,1,.8.84l-.23.19a4.76,4.76,0,0,0-.79-.84Zm.77-.22a4.86,4.86,0,0,1,.81.83l-.23.18a4.07,4.07,0,0,0-.79-.82Z" class="cls-4"/><path data-cppathid="10195" transform="translate(-1.77 -0.05)" d="M320.19,404.87l-.09.09a6.29,6.29,0,0,1-3.27,4,1.32,1.32,0,0,0-.3-.33,5.69,5.69,0,0,0,3-3.55h-2.14a6.09,6.09,0,0,1-1.35,1.48,2,2,0,0,0-.34-.28,6,6,0,0,0,1.91-2.6l.57.16c0,.06-.09.08-.17.08-.12.26-.25.51-.38.75h2.11l.07,0Z" class="cls-4"/><path data-cppathid="10196" transform="translate(-1.77 -0.05)" d="M324.47,406.92a21.35,21.35,0,0,0-2.11-1v3h-.45v-5.21l.61,0c0,.06,0,.11-.16.12v1.76l.09-.13a20.28,20.28,0,0,1,2.26,1Z" class="cls-4"/><path data-cppathid="10197" transform="translate(-1.77 -0.05)" d="M327.61,404.67q0,.07-.15.09A9.07,9.07,0,0,1,326,408.6a1.9,1.9,0,0,0-.4-.21,8.21,8.21,0,0,0,1.39-3.85Zm3,3.9A20.69,20.69,0,0,0,329,404.7l.39-.18a19,19,0,0,1,1.64,3.87Zm-.87-4.83a4.2,4.2,0,0,1,.73.89l-.22.17a4.73,4.73,0,0,0-.74-.89Zm.79-.31a4.94,4.94,0,0,1,.74.88l-.23.18a4.38,4.38,0,0,0-.74-.88Z" class="cls-4"/><path data-cppathid="10198" transform="translate(-1.77 -0.05)" d="M332.42,405.34a6.35,6.35,0,0,1,.44,1.29l-.33.09a6.71,6.71,0,0,0-.44-1.28Zm3.58,0a.1.1,0,0,1-.13.06,4.6,4.6,0,0,1-2.8,3.41,1.94,1.94,0,0,0-.23-.27,4.27,4.27,0,0,0,2.69-3.34Zm-2.13-.33a7.65,7.65,0,0,1,.28,1.36l-.35.07a7.73,7.73,0,0,0-.28-1.35Z" class="cls-4"/><path data-cppathid="10199" transform="translate(-1.77 -0.05)" d="M341.19,404.87l-.09.09a6.29,6.29,0,0,1-3.27,4,1.32,1.32,0,0,0-.3-.33,5.69,5.69,0,0,0,3-3.55h-2.14a6.09,6.09,0,0,1-1.35,1.48,2,2,0,0,0-.34-.28,6,6,0,0,0,1.91-2.6l.57.16c0,.06-.09.08-.17.08-.12.26-.25.51-.38.75h2.11l.07,0Z" class="cls-4"/><path data-cppathid="10200" transform="translate(-1.77 -0.05)" d="M346.57,404.55v4h-.43v-.38h-3.3v.39h-.42v-4Zm-.43,3.18V405h-3.3v2.77Z" class="cls-4"/><path data-cppathid="10201" transform="translate(-1.77 -0.05)" d="M352,404.93a.38.38,0,0,1-.09.09,6.24,6.24,0,0,1-3.24,4,1.58,1.58,0,0,0-.31-.33,5.56,5.56,0,0,0,3-3.53h-2.12a5.92,5.92,0,0,1-1.33,1.46,1.49,1.49,0,0,0-.33-.27,6,6,0,0,0,1.9-2.63l.56.16c0,.06-.09.08-.17.08a6.45,6.45,0,0,1-.39.79h2.09l.07,0Zm-.74-1.38a4.12,4.12,0,0,1,.78.85l-.22.19a4.12,4.12,0,0,0-.77-.85Zm.87-.18a4.39,4.39,0,0,1,.78.85l-.22.19a4.36,4.36,0,0,0-.77-.85Z" class="cls-4"/><path data-cppathid="10202" transform="translate(-1.77 -0.05)" d="M358.25,404.28l-.08.05a5.05,5.05,0,0,1-1.42,1.92,1.81,1.81,0,0,0-.37-.24,3.76,3.76,0,0,0,1.2-1.49h-4.3v-.41h4.52l.07,0Zm-2.34,1.09c0,.05-.06.09-.14.1a4.35,4.35,0,0,1-1.89,3.48,3.76,3.76,0,0,0-.36-.28,3.94,3.94,0,0,0,1.81-3.37Z" class="cls-4"/><path data-cppathid="10203" transform="translate(-1.77 -0.05)" d="M363.13,404.12a.15.15,0,0,1-.12,0H363a13.62,13.62,0,0,1-1.71,1.43l.15.07a.15.15,0,0,1-.13.07V409h-.44v-3.09a17.51,17.51,0,0,1-2.29,1.34,1.59,1.59,0,0,0-.25-.33,15.19,15.19,0,0,0,4.4-3.1Z" class="cls-4"/><path data-cppathid="10204" transform="translate(-1.77 -0.05)" d="M368.63,406.09h-2l.1,0a.12.12,0,0,1-.12.07,3.25,3.25,0,0,1-1.85,2.74c-.08-.08-.23-.22-.33-.3a2.86,2.86,0,0,0,1.74-2.54h-2.34v-.4h4.82ZM368,404.4h-3.68V404H368Z" class="cls-4"/><path data-cppathid="10205" transform="translate(-1.77 -0.05)" d="M374,408.8c-.09-.2-.2-.42-.32-.64-1.25.14-3.3.26-4.22.31a.15.15,0,0,1-.11.12l-.16-.54.63,0c.39-1.16,1-2.95,1.29-4.15l.58.16s-.08.08-.17.08c-.33,1.11-.85,2.71-1.26,3.89,1,0,2.42-.15,3.21-.22a10.38,10.38,0,0,0-1.07-1.46l.36-.2a11.67,11.67,0,0,1,1.66,2.48Z" class="cls-4"/><path data-cppathid="10206" transform="translate(-1.77 -0.05)" d="M332.18,412.59a3.62,3.62,0,0,0-1.18,2.76,3.59,3.59,0,0,0,1.18,2.75v0h-.36a4,4,0,0,1,0-5.58h.36Z" class="cls-4"/><path data-cppathid="10207" transform="translate(-1.77 -0.05)" d="M332.79,413.12a5.53,5.53,0,0,1,1-.09c1.48,0,1.6.94,1.6,1.3a1.47,1.47,0,0,1-1.67,1.46,2.29,2.29,0,0,1-.47,0v1.88h-.49Zm.49,2.22a2.21,2.21,0,0,0,.48,0c.72,0,1.16-.36,1.16-1s-.47-.94-1.09-.94a2.32,2.32,0,0,0-.55.05Z" class="cls-4"/><path data-cppathid="10208" transform="translate(-1.77 -0.05)" d="M338,415.18a1.16,1.16,0,0,1,.94,1.15,1.19,1.19,0,0,1-.36.9,2.08,2.08,0,0,1-1.49.43,7.19,7.19,0,0,1-.84-.05v-4.49a5.28,5.28,0,0,1,1-.09,1.79,1.79,0,0,1,1.21.33,1,1,0,0,1,.34.79,1.1,1.1,0,0,1-.78,1Zm-.72-.17c.6,0,1-.35,1-.81h0c0-.54-.39-.77-1-.77a1.91,1.91,0,0,0-.51,0V415Zm-.54,2.23a3.1,3.1,0,0,0,.49,0c.63,0,1.19-.25,1.19-.94s-.59-.93-1.2-.93h-.48Z" class="cls-4"/><path data-cppathid="10209" transform="translate(-1.77 -0.05)" d="M339.69,413.06h.49v4.57h-.49Z" class="cls-4"/><path data-cppathid="10210" transform="translate(-1.77 -0.05)" d="M340.79,418.1a3.78,3.78,0,0,0,0-5.51v0h.36a4,4,0,0,1,0,5.58h-.36Z" class="cls-4"/></g></g></svg>