<?xml version="1.0" encoding="UTF-8"?>
<svg xmlns="http://www.w3.org/2000/svg" onmouseup="{ if(window.parent.document.onmouseup) window.parent.document.onmouseup(arguments[0]);}" viewBox="0 0 171 186.14"><defs><style>.cls-1{fill:#50a1d3;}.cls-2{fill:#fff;}</style></defs><g data-name="Layer 2" id="Layer_2"><g data-name="Product Backlog jp" id="Product_Backlog_jp"><rect data-cppathid="10000" rx="5.67" height="42.85" width="171" y="47.77" class="cls-1"/><rect data-cppathid="10001" rx="5.67" height="42.85" width="171" class="cls-1"/><rect data-cppathid="10002" rx="5.67" height="42.85" width="171" y="95.53" class="cls-1"/><rect data-cppathid="10003" rx="5.67" height="42.85" width="171" y="143.3" class="cls-1"/><path data-cppathid="10004" transform="translate(-6.11)" d="M16.27,11.15H23.9l.07,0,.81.62a.27.27,0,0,1-.14.11c-1,4.51-3.06,6.86-6.73,8.25a4.74,4.74,0,0,0-.54-.71A9.07,9.07,0,0,0,23.66,12H16.27ZM25.41,9a1.32,1.32,0,1,1-1.32,1.32A1.32,1.32,0,0,1,25.41,9Zm.91,1.32a.92.92,0,0,0-.91-.92.93.93,0,1,0,.91.92Z" class="cls-2"/><path data-cppathid="10005" transform="translate(-6.11)" d="M36.65,11.34v7.92h-.86V18.5H29.18v.78h-.84V11.34Zm-.86,6.36V12.15H29.18V17.7Z" class="cls-2"/><path data-cppathid="10006" transform="translate(-6.11)" d="M47.57,11.79c0,.07-.07.09-.14.13a15.84,15.84,0,0,1-1.74,4c.52.3,1.15.67,1.6,1l-.51.78a16.71,16.71,0,0,0-1.59-1,11.11,11.11,0,0,1-4.31,3.6,2.33,2.33,0,0,0-.65-.64,10.75,10.75,0,0,0,4.21-3.39,20.13,20.13,0,0,0-2.68-1.26l.46-.66A23,23,0,0,1,45,15.48a12.34,12.34,0,0,0,1.43-3.18h-4a12.77,12.77,0,0,1-2.7,3.28,6.07,6.07,0,0,0-.67-.54,12.05,12.05,0,0,0,3.65-5.35l1.12.32a.3.3,0,0,1-.33.16,13.21,13.21,0,0,1-.62,1.33h3.89l.11,0ZM46.47,9.4a8.94,8.94,0,0,1,1.59,1.68l-.45.37A9.83,9.83,0,0,0,46,9.77ZM48,9a9.46,9.46,0,0,1,1.64,1.65l-.47.36a9.08,9.08,0,0,0-1.59-1.64Z" class="cls-2"/><path data-cppathid="10007" transform="translate(-6.11)" d="M59,12a1,1,0,0,1-.18.17c-1.26,3.88-3.23,6.38-6.54,8.06a2.88,2.88,0,0,0-.61-.66,11.29,11.29,0,0,0,6.08-7.1H53.48a12.33,12.33,0,0,1-2.69,3,4.29,4.29,0,0,0-.68-.55,12.27,12.27,0,0,0,3.83-5.21l1.14.33c0,.12-.2.15-.35.15A16.42,16.42,0,0,1,54,11.64h4.22l.15-.07Z" class="cls-2"/><path data-cppathid="10008" transform="translate(-6.11)" d="M67.57,16.08a43.38,43.38,0,0,0-4.21-1.95v6h-.9V9.7l1.21.07c0,.13-.11.22-.31.25v3.51l.18-.26a42,42,0,0,1,4.5,2Z" class="cls-2"/><path data-cppathid="10009" transform="translate(-6.11)" d="M73.86,11.57a.33.33,0,0,1-.32.18,18.18,18.18,0,0,1-2.87,7.69,3.68,3.68,0,0,0-.81-.43c1.35-1.63,2.4-4.68,2.78-7.69Zm6,7.8a40.7,40.7,0,0,0-3.19-7.73l.78-.37A38.39,38.39,0,0,1,80.76,19ZM78.15,9.72a8.72,8.72,0,0,1,1.46,1.78l-.45.33a10.08,10.08,0,0,0-1.47-1.77Zm1.58-.62a9.88,9.88,0,0,1,1.48,1.76l-.47.35a9.68,9.68,0,0,0-1.46-1.76Z" class="cls-2"/><path data-cppathid="10010" transform="translate(-6.11)" d="M83.46,12.91a13.71,13.71,0,0,1,.9,2.58l-.68.18a13.28,13.28,0,0,0-.87-2.55Zm7.16.09c0,.11-.15.13-.25.12-.94,3.5-2.7,5.65-5.61,6.82a3.27,3.27,0,0,0-.46-.55c2.86-1.13,4.51-3.09,5.38-6.67Zm-4.25-.66a16,16,0,0,1,.56,2.72l-.7.13a14,14,0,0,0-.57-2.7Z" class="cls-2"/><path data-cppathid="10011" transform="translate(-6.11)" d="M101,12a1,1,0,0,1-.18.17c-1.26,3.88-3.23,6.38-6.54,8.06a2.88,2.88,0,0,0-.61-.66,11.29,11.29,0,0,0,6.08-7.1H95.48a12.13,12.13,0,0,1-2.69,3,3.88,3.88,0,0,0-.68-.55,12.27,12.27,0,0,0,3.83-5.21l1.14.33c0,.12-.2.15-.35.15A16.42,16.42,0,0,1,96,11.64h4.22l.15-.07Z" class="cls-2"/><path data-cppathid="10012" transform="translate(-6.11)" d="M111.77,11.34v7.92h-.86V18.5H104.3v.78h-.84V11.34Zm-.86,6.36V12.15H104.3V17.7Z" class="cls-2"/><path data-cppathid="10013" transform="translate(-6.11)" d="M122.67,12.09a.77.77,0,0,1-.18.18c-1.27,4-3.24,6.37-6.49,8a2.86,2.86,0,0,0-.61-.66,11.11,11.11,0,0,0,6-7.06h-4.23a12,12,0,0,1-2.65,2.92,5.43,5.43,0,0,0-.67-.54,12,12,0,0,0,3.8-5.25l1.13.31c0,.12-.18.17-.34.16-.24.54-.52,1.11-.79,1.59h4.17l.15-.07Zm-1.49-2.76a8.54,8.54,0,0,1,1.57,1.7l-.44.39a8.6,8.6,0,0,0-1.55-1.71ZM122.92,9a8.85,8.85,0,0,1,1.57,1.7l-.44.38a8.47,8.47,0,0,0-1.55-1.7Z" class="cls-2"/><path data-cppathid="10014" transform="translate(-6.11)" d="M135.12,10.79a.25.25,0,0,1-.15.11,10.37,10.37,0,0,1-2.84,3.84,5.17,5.17,0,0,0-.73-.49,7.24,7.24,0,0,0,2.38-3h-8.59v-.81h9.05l.13-.06ZM130.45,13c0,.1-.12.18-.28.21-.35,2.83-1.32,5.53-3.79,7a6,6,0,0,0-.71-.55c2.45-1.34,3.33-3.85,3.61-6.74Z" class="cls-2"/><path data-cppathid="10015" transform="translate(-6.11)" d="M144.88,10.47a.27.27,0,0,1-.23.09h-.12a28,28,0,0,1-3.42,2.87,2.93,2.93,0,0,1,.29.13.32.32,0,0,1-.26.16v6.44h-.88V14a34.66,34.66,0,0,1-4.57,2.68,3.58,3.58,0,0,0-.5-.66A30.51,30.51,0,0,0,144,9.8Z" class="cls-2"/><path data-cppathid="10016" transform="translate(-6.11)" d="M155.9,14.41h-4.06l.21.06a.26.26,0,0,1-.24.15,6.52,6.52,0,0,1-3.71,5.48,4.76,4.76,0,0,0-.65-.6,5.7,5.7,0,0,0,3.47-5.09h-4.67v-.8h9.65ZM154.71,11h-7.37v-.8h7.37Z" class="cls-2"/><path data-cppathid="10017" transform="translate(-6.11)" d="M166.54,19.83c-.18-.4-.4-.83-.63-1.27-2.5.27-6.6.52-8.44.61a.35.35,0,0,1-.22.25l-.33-1.08,1.26-.05C159,16,160.11,12.4,160.77,10l1.17.31a.35.35,0,0,1-.35.17c-.66,2.21-1.69,5.42-2.52,7.77,2-.08,4.83-.29,6.42-.43a21.7,21.7,0,0,0-2.14-2.93l.72-.4a23.39,23.39,0,0,1,3.31,5Z" class="cls-2"/><path data-cppathid="10018" transform="translate(-6.11)" d="M83,26.41a7.59,7.59,0,0,0,0,11v.06h-.72a7.94,7.94,0,0,1,0-11.16H83Z" class="cls-2"/><path data-cppathid="10019" transform="translate(-6.11)" d="M84.2,27.47a11.3,11.3,0,0,1,2.08-.18c3,0,3.19,1.89,3.19,2.61,0,2.15-1.72,2.92-3.34,2.92a3.81,3.81,0,0,1-.93-.09v3.76h-1Zm1,4.44a3.72,3.72,0,0,0,1,.09c1.44,0,2.31-.72,2.31-2s-.93-1.88-2.18-1.88a5.05,5.05,0,0,0-1.09.1Z" class="cls-2"/><path data-cppathid="10020" transform="translate(-6.11)" d="M94.56,31.59a2.35,2.35,0,0,1,1.88,2.31,2.42,2.42,0,0,1-.73,1.8,4.18,4.18,0,0,1-3,.86,14.9,14.9,0,0,1-1.69-.1v-9a9.88,9.88,0,0,1,2-.19,3.52,3.52,0,0,1,2.41.67,2,2,0,0,1,.68,1.58,2.19,2.19,0,0,1-1.54,2Zm-1.46-.33c1.22,0,2-.7,2-1.63v0c0-1.07-.8-1.54-2-1.54a4.25,4.25,0,0,0-1,.08v3.11ZM92,35.71a5,5,0,0,0,1,.06c1.26,0,2.39-.49,2.39-1.87S94.21,32,93,32H92Z" class="cls-2"/><path data-cppathid="10021" transform="translate(-6.11)" d="M98,27.35h1v9.14H98Z" class="cls-2"/><path data-cppathid="10022" transform="translate(-6.11)" d="M100.21,37.45a7.25,7.25,0,0,0,2.37-5.52,7.22,7.22,0,0,0-2.37-5.52v-.06h.72a7.94,7.94,0,0,1,0,11.16h-.72Z" class="cls-2"/><path data-cppathid="10023" transform="translate(-6.11)" d="M14.66,56.35h7.63l.07,0,.82.63a.3.3,0,0,1-.15.11c-1,4.51-3.05,6.86-6.72,8.25a6.61,6.61,0,0,0-.54-.71,9.06,9.06,0,0,0,6.28-7.41H14.66ZM23.8,54.2a1.32,1.32,0,1,1-1.32,1.32A1.32,1.32,0,0,1,23.8,54.2Zm.91,1.32a.91.91,0,0,0-.91-.92.93.93,0,1,0,.91.92Z" class="cls-2"/><path data-cppathid="10024" transform="translate(-6.11)" d="M35.05,56.54v7.92h-.87V63.7H27.57v.78h-.84V56.54Zm-.87,6.36V57.35H27.57V62.9Z" class="cls-2"/><path data-cppathid="10025" transform="translate(-6.11)" d="M46,57c0,.07-.08.09-.15.13a15.84,15.84,0,0,1-1.74,4c.52.3,1.15.67,1.6,1l-.51.78a16.71,16.71,0,0,0-1.59-1,11,11,0,0,1-4.31,3.6,2.43,2.43,0,0,0-.64-.64,10.83,10.83,0,0,0,4.21-3.39,19.05,19.05,0,0,0-2.69-1.26l.47-.66a22.86,22.86,0,0,1,2.72,1.22,12.36,12.36,0,0,0,1.44-3.18h-4a12.57,12.57,0,0,1-2.7,3.28,5.26,5.26,0,0,0-.67-.54,12.15,12.15,0,0,0,3.66-5.35l1.11.32c0,.13-.19.17-.33.16-.17.43-.39.9-.61,1.33h3.88l.11,0ZM44.86,54.6a8.69,8.69,0,0,1,1.6,1.68l-.46.37A9.45,9.45,0,0,0,44.43,55Zm1.54-.44A9.75,9.75,0,0,1,48,55.81l-.47.36A9,9,0,0,0,46,54.53Z" class="cls-2"/><path data-cppathid="10026" transform="translate(-6.11)" d="M57.4,57.18a1,1,0,0,1-.18.17C56,61.23,54,63.73,50.69,65.41a3.19,3.19,0,0,0-.62-.66,11.31,11.31,0,0,0,6.09-7.1H51.87a12.29,12.29,0,0,1-2.68,3,4.38,4.38,0,0,0-.69-.55,12.27,12.27,0,0,0,3.83-5.21l1.14.33c0,.12-.19.15-.35.15a16.42,16.42,0,0,1-.77,1.51h4.22l.15-.07Z" class="cls-2"/><path data-cppathid="10027" transform="translate(-6.11)" d="M66,61.28a41.29,41.29,0,0,0-4.21-2v6h-.9V54.9l1.21.07c0,.13-.11.22-.31.25v3.51l.18-.26a43,43,0,0,1,4.51,2Z" class="cls-2"/><path data-cppathid="10028" transform="translate(-6.11)" d="M72.25,56.77a.31.31,0,0,1-.31.18,18.18,18.18,0,0,1-2.88,7.69,3.43,3.43,0,0,0-.8-.43c1.34-1.63,2.39-4.68,2.78-7.69Zm6,7.8a40.06,40.06,0,0,0-3.19-7.73l.78-.37a39,39,0,0,1,3.29,7.75Zm-1.74-9.65A9.13,9.13,0,0,1,78,56.7l-.46.33a10.48,10.48,0,0,0-1.46-1.77Zm1.59-.62a9.41,9.41,0,0,1,1.47,1.76l-.47.35a9.29,9.29,0,0,0-1.46-1.76Z" class="cls-2"/><path data-cppathid="10029" transform="translate(-6.11)" d="M81.85,58.11a13,13,0,0,1,.9,2.58l-.67.18a14.08,14.08,0,0,0-.88-2.55ZM89,58.2c0,.11-.14.13-.25.12-.94,3.5-2.7,5.65-5.6,6.82a3.35,3.35,0,0,0-.47-.55c2.87-1.13,4.51-3.09,5.39-6.67Zm-4.25-.66a16.09,16.09,0,0,1,.57,2.72l-.71.13a14.77,14.77,0,0,0-.56-2.7Z" class="cls-2"/><path data-cppathid="10030" transform="translate(-6.11)" d="M99.4,57.18a.74.74,0,0,1-.18.17C98,61.23,96,63.73,92.69,65.41a3.13,3.13,0,0,0-.61-.66,11.32,11.32,0,0,0,6.08-7.1H93.87a12.29,12.29,0,0,1-2.68,3,4.38,4.38,0,0,0-.69-.55,12.27,12.27,0,0,0,3.83-5.21l1.14.33c0,.12-.19.15-.35.15a16.42,16.42,0,0,1-.77,1.51h4.23l.14-.07Z" class="cls-2"/><path data-cppathid="10031" transform="translate(-6.11)" d="M110.17,56.54v7.92h-.87V63.7h-6.6v.78h-.84V56.54Zm-.87,6.36V57.35h-6.6V62.9Z" class="cls-2"/><path data-cppathid="10032" transform="translate(-6.11)" d="M121.06,57.29a.62.62,0,0,1-.18.18c-1.27,4-3.24,6.36-6.49,8a2.86,2.86,0,0,0-.61-.66,11.1,11.1,0,0,0,6-7.06h-4.24a11.79,11.79,0,0,1-2.65,2.92,3.76,3.76,0,0,0-.67-.54,11.9,11.9,0,0,0,3.8-5.25l1.13.31c0,.12-.18.17-.34.16a16.81,16.81,0,0,1-.79,1.59h4.18l.14-.07Zm-1.48-2.76a9.18,9.18,0,0,1,1.57,1.7l-.45.38a8.78,8.78,0,0,0-1.54-1.7Zm1.73-.35a8.92,8.92,0,0,1,1.58,1.7l-.45.38a8.47,8.47,0,0,0-1.55-1.7Z" class="cls-2"/><path data-cppathid="10033" transform="translate(-6.11)" d="M133.52,56a.27.27,0,0,1-.16.11,10.37,10.37,0,0,1-2.84,3.84,5.17,5.17,0,0,0-.73-.49,7.35,7.35,0,0,0,2.39-3h-8.59v-.81h9l.13-.06Zm-4.68,2.18c0,.1-.12.18-.27.21-.35,2.83-1.32,5.53-3.79,6.95a6,6,0,0,0-.71-.55c2.44-1.34,3.32-3.85,3.61-6.74Z" class="cls-2"/><path data-cppathid="10034" transform="translate(-6.11)" d="M143.27,55.67a.25.25,0,0,1-.22.09h-.12a29.63,29.63,0,0,1-3.42,2.87,2.61,2.61,0,0,1,.28.13.32.32,0,0,1-.26.16v6.44h-.87V59.18a36,36,0,0,1-4.57,2.68,3.63,3.63,0,0,0-.51-.66,30.37,30.37,0,0,0,8.79-6.2Z" class="cls-2"/><path data-cppathid="10035" transform="translate(-6.11)" d="M154.29,59.61h-4l.2.06c0,.08-.11.14-.24.15a6.5,6.5,0,0,1-3.71,5.48,5.31,5.31,0,0,0-.64-.6,5.69,5.69,0,0,0,3.46-5.09h-4.66v-.8h9.64Zm-1.19-3.38h-7.36v-.8h7.36Z" class="cls-2"/><path data-cppathid="10036" transform="translate(-6.11)" d="M164.93,65c-.18-.4-.39-.84-.63-1.27-2.5.27-6.6.52-8.43.61a.33.33,0,0,1-.23.24l-.32-1.07,1.26,0c.79-2.31,1.93-5.89,2.59-8.29l1.16.31a.35.35,0,0,1-.35.17c-.66,2.21-1.69,5.42-2.52,7.77,2-.08,4.84-.29,6.42-.43a21.7,21.7,0,0,0-2.14-2.93l.72-.4a23.39,23.39,0,0,1,3.31,5Z" class="cls-2"/><path data-cppathid="10037" transform="translate(-6.11)" d="M81.39,71.61a7.61,7.61,0,0,0,0,11v.06h-.72a7.94,7.94,0,0,1,0-11.16h.72Z" class="cls-2"/><path data-cppathid="10038" transform="translate(-6.11)" d="M82.6,72.67a11.1,11.1,0,0,1,2.07-.18c3,0,3.19,1.89,3.19,2.61,0,2.15-1.71,2.92-3.33,2.92a3.9,3.9,0,0,1-.94-.09v3.76h-1Zm1,4.43a3.33,3.33,0,0,0,1,.1c1.44,0,2.32-.72,2.32-2s-.94-1.88-2.19-1.88a5.13,5.13,0,0,0-1.09.1Z" class="cls-2"/><path data-cppathid="10039" transform="translate(-6.11)" d="M93,76.79a2.35,2.35,0,0,1,1.88,2.31,2.42,2.42,0,0,1-.73,1.8,4.15,4.15,0,0,1-3,.86,14.74,14.74,0,0,1-1.69-.1v-9a9.7,9.7,0,0,1,2-.19,3.52,3.52,0,0,1,2.41.67,2,2,0,0,1,.69,1.58,2.2,2.2,0,0,1-1.55,2Zm-1.45-.33c1.21,0,2-.7,2-1.63v0c0-1.08-.79-1.54-2-1.54a4.25,4.25,0,0,0-1,.08v3.11Zm-1.07,4.45a5,5,0,0,0,1,.06c1.26,0,2.39-.49,2.39-1.87s-1.19-1.87-2.4-1.87h-1Z" class="cls-2"/><path data-cppathid="10040" transform="translate(-6.11)" d="M96.4,72.55h1v9.14h-1Z" class="cls-2"/><path data-cppathid="10041" transform="translate(-6.11)" d="M98.6,82.65a7.59,7.59,0,0,0,0-11v-.06h.72a7.94,7.94,0,0,1,0,11.16H98.6Z" class="cls-2"/><path data-cppathid="10042" transform="translate(-6.11)" d="M16.27,106.21H23.9l.07,0,.81.62a.23.23,0,0,1-.14.11c-1,4.51-3.06,6.86-6.73,8.25a4.74,4.74,0,0,0-.54-.71A9.07,9.07,0,0,0,23.66,107H16.27Zm9.14-2.14a1.31,1.31,0,1,1-1.32,1.32A1.31,1.31,0,0,1,25.41,104.07Zm.91,1.32a.92.92,0,0,0-.91-.93.93.93,0,1,0,0,1.85A.92.92,0,0,0,26.32,105.39Z" class="cls-2"/><path data-cppathid="10043" transform="translate(-6.11)" d="M36.65,106.41v7.91h-.86v-.75H29.18v.78h-.84v-7.94Zm-.86,6.35v-5.55H29.18v5.55Z" class="cls-2"/><path data-cppathid="10044" transform="translate(-6.11)" d="M47.57,106.85c0,.07-.07.09-.14.13a15.84,15.84,0,0,1-1.74,4c.52.3,1.15.67,1.6,1l-.51.78a18.92,18.92,0,0,0-1.59-1,11,11,0,0,1-4.31,3.6,2.48,2.48,0,0,0-.65-.64,10.75,10.75,0,0,0,4.21-3.39A20.13,20.13,0,0,0,41.76,110l.46-.66A23,23,0,0,1,45,110.54a12.19,12.19,0,0,0,1.43-3.18h-4a12.6,12.6,0,0,1-2.7,3.28,7.51,7.51,0,0,0-.67-.54,12.05,12.05,0,0,0,3.65-5.35l1.12.32c0,.14-.19.17-.33.16a13.21,13.21,0,0,1-.62,1.33h3.89l.11,0Zm-1.1-2.39a9.59,9.59,0,0,1,1.59,1.68l-.45.37A9.83,9.83,0,0,0,46,104.83ZM48,104a9.46,9.46,0,0,1,1.64,1.65l-.47.36a9.08,9.08,0,0,0-1.59-1.64Z" class="cls-2"/><path data-cppathid="10045" transform="translate(-6.11)" d="M59,107a1,1,0,0,1-.18.17c-1.26,3.89-3.23,6.38-6.54,8.06a2.88,2.88,0,0,0-.61-.66,11.24,11.24,0,0,0,6.08-7.1H53.48a12.33,12.33,0,0,1-2.69,3,4.92,4.92,0,0,0-.68-.55,12.21,12.21,0,0,0,3.83-5.21l1.14.33c0,.12-.2.15-.35.15a16.61,16.61,0,0,1-.77,1.52h4.22l.15-.08Z" class="cls-2"/><path data-cppathid="10046" transform="translate(-6.11)" d="M67.57,111.14a43.38,43.38,0,0,0-4.21-2v6h-.9V104.76l1.21.07c0,.14-.11.22-.31.26v3.5l.18-.25a40,40,0,0,1,4.5,2Z" class="cls-2"/><path data-cppathid="10047" transform="translate(-6.11)" d="M73.86,106.63a.33.33,0,0,1-.32.18c-.48,2.88-1.47,5.92-2.87,7.69a3.68,3.68,0,0,0-.81-.43c1.35-1.63,2.4-4.68,2.78-7.69Zm6,7.8a40.36,40.36,0,0,0-3.19-7.72l.78-.38a38.39,38.39,0,0,1,3.28,7.75Zm-1.74-9.64a8.42,8.42,0,0,1,1.46,1.77l-.45.34a9.79,9.79,0,0,0-1.47-1.78Zm1.58-.63a10.3,10.3,0,0,1,1.48,1.77l-.47.34a10,10,0,0,0-1.46-1.76Z" class="cls-2"/><path data-cppathid="10048" transform="translate(-6.11)" d="M83.46,108a13.24,13.24,0,0,1,.9,2.58l-.68.17a13.28,13.28,0,0,0-.87-2.55Zm7.16.08c0,.11-.15.13-.25.12-.94,3.5-2.7,5.65-5.61,6.82a3.73,3.73,0,0,0-.46-.55c2.86-1.12,4.51-3.09,5.38-6.67Zm-4.25-.66a16.25,16.25,0,0,1,.56,2.72l-.7.14a13.72,13.72,0,0,0-.57-2.7Z" class="cls-2"/><path data-cppathid="10049" transform="translate(-6.11)" d="M101,107a1,1,0,0,1-.18.17c-1.26,3.89-3.23,6.38-6.54,8.06a2.88,2.88,0,0,0-.61-.66,11.24,11.24,0,0,0,6.08-7.1H95.48a12.13,12.13,0,0,1-2.69,3,4.39,4.39,0,0,0-.68-.55,12.21,12.21,0,0,0,3.83-5.21l1.14.33c0,.12-.2.15-.35.15a16.61,16.61,0,0,1-.77,1.52h4.22l.15-.08Z" class="cls-2"/><path data-cppathid="10050" transform="translate(-6.11)" d="M111.77,106.41v7.91h-.86v-.75H104.3v.78h-.84v-7.94Zm-.86,6.35v-5.55H104.3v5.55Z" class="cls-2"/><path data-cppathid="10051" transform="translate(-6.11)" d="M122.67,107.15a.77.77,0,0,1-.18.18c-1.27,4-3.24,6.37-6.49,8a2.86,2.86,0,0,0-.61-.66,11.11,11.11,0,0,0,6-7.06h-4.23a12,12,0,0,1-2.65,2.93,4.05,4.05,0,0,0-.67-.54,12,12,0,0,0,3.8-5.26l1.13.31c0,.12-.18.17-.34.16-.24.54-.52,1.12-.79,1.6h4.17l.15-.08Zm-1.49-2.76a8.82,8.82,0,0,1,1.57,1.7l-.44.39a8.89,8.89,0,0,0-1.55-1.71Zm1.74-.35a8.61,8.61,0,0,1,1.57,1.71l-.44.37a8.17,8.17,0,0,0-1.55-1.69Z" class="cls-2"/><path data-cppathid="10052" transform="translate(-6.11)" d="M135.12,105.85a.25.25,0,0,1-.15.11,10.29,10.29,0,0,1-2.84,3.84,5.17,5.17,0,0,0-.73-.49,7.24,7.24,0,0,0,2.38-3h-8.59v-.81h9.05l.13-.06ZM130.45,108c0,.09-.12.18-.28.2-.35,2.83-1.32,5.53-3.79,7a5.12,5.12,0,0,0-.71-.55c2.45-1.35,3.33-3.85,3.61-6.75Z" class="cls-2"/><path data-cppathid="10053" transform="translate(-6.11)" d="M144.88,105.53a.28.28,0,0,1-.23.1.3.3,0,0,1-.12,0,28,28,0,0,1-3.42,2.87l.29.13a.3.3,0,0,1-.26.16v6.44h-.88V109a33.6,33.6,0,0,1-4.57,2.68,4.41,4.41,0,0,0-.5-.66,30.51,30.51,0,0,0,8.79-6.2Z" class="cls-2"/><path data-cppathid="10054" transform="translate(-6.11)" d="M155.9,109.48h-4.06l.21.06a.27.27,0,0,1-.24.14,6.52,6.52,0,0,1-3.71,5.48,5.49,5.49,0,0,0-.65-.6,5.7,5.7,0,0,0,3.47-5.08h-4.67v-.81h9.65Zm-1.19-3.39h-7.37v-.8h7.37Z" class="cls-2"/><path data-cppathid="10055" transform="translate(-6.11)" d="M166.54,114.9c-.18-.41-.4-.84-.63-1.27-2.5.26-6.6.51-8.44.61a.33.33,0,0,1-.22.24l-.33-1.08,1.26-.05c.79-2.3,1.93-5.89,2.59-8.29l1.17.31a.35.35,0,0,1-.35.17c-.66,2.21-1.69,5.42-2.52,7.77,2-.08,4.83-.28,6.42-.43a21,21,0,0,0-2.14-2.92l.72-.41a23.91,23.91,0,0,1,3.31,5Z" class="cls-2"/><path data-cppathid="10056" transform="translate(-6.11)" d="M83,121.48a7.58,7.58,0,0,0,0,11v.06h-.72a7.94,7.94,0,0,1,0-11.16H83Z" class="cls-2"/><path data-cppathid="10057" transform="translate(-6.11)" d="M84.2,122.53a11.3,11.3,0,0,1,2.08-.18c3,0,3.19,1.89,3.19,2.61,0,2.15-1.72,2.92-3.34,2.92a3.84,3.84,0,0,1-.93-.08v3.75h-1Zm1,4.44a3.72,3.72,0,0,0,1,.09c1.44,0,2.31-.72,2.31-2s-.93-1.89-2.18-1.89a5.05,5.05,0,0,0-1.09.1Z" class="cls-2"/><path data-cppathid="10058" transform="translate(-6.11)" d="M94.56,126.66a2.33,2.33,0,0,1,1.88,2.3,2.42,2.42,0,0,1-.73,1.8,4.13,4.13,0,0,1-3,.86,14.9,14.9,0,0,1-1.69-.1v-9a9.88,9.88,0,0,1,2-.19,3.58,3.58,0,0,1,2.41.67,2,2,0,0,1,.68,1.58,2.19,2.19,0,0,1-1.54,2Zm-1.46-.34c1.22,0,2-.7,2-1.63h0c0-1.08-.8-1.55-2-1.55a4.87,4.87,0,0,0-1,.08v3.11ZM92,130.77a5,5,0,0,0,1,.06c1.26,0,2.39-.49,2.39-1.87s-1.19-1.87-2.4-1.87H92Z" class="cls-2"/><path data-cppathid="10059" transform="translate(-6.11)" d="M98,122.41h1v9.14H98Z" class="cls-2"/><path data-cppathid="10060" transform="translate(-6.11)" d="M100.21,132.51a7.6,7.6,0,0,0,0-11v-.07h.72a7.94,7.94,0,0,1,0,11.16h-.72Z" class="cls-2"/><path data-cppathid="10061" transform="translate(-6.11)" d="M16.94,151.77h7.63l.07,0,.82.62a.25.25,0,0,1-.15.11c-1,4.51-3,6.86-6.72,8.25a7.79,7.79,0,0,0-.54-.71,9.06,9.06,0,0,0,6.28-7.41H16.94Zm9.14-2.14A1.31,1.31,0,1,1,24.76,151,1.31,1.31,0,0,1,26.08,149.63ZM27,151a.91.91,0,0,0-.91-.93.93.93,0,0,0,0,1.85A.92.92,0,0,0,27,151Z" class="cls-2"/><path data-cppathid="10062" transform="translate(-6.11)" d="M37.33,152v7.91h-.87v-.75H29.85v.77H29V152Zm-.87,6.35v-5.55H29.85v5.55Z" class="cls-2"/><path data-cppathid="10063" transform="translate(-6.11)" d="M48.25,152.41c0,.07-.08.1-.15.13a15.84,15.84,0,0,1-1.74,4c.52.3,1.15.67,1.6,1l-.5.78c-.44-.33-1.1-.73-1.6-1a10.88,10.88,0,0,1-4.31,3.6,2.59,2.59,0,0,0-.64-.64,10.83,10.83,0,0,0,4.21-3.39,20.24,20.24,0,0,0-2.69-1.26l.47-.66a22.86,22.86,0,0,1,2.72,1.22,12.3,12.3,0,0,0,1.44-3.17h-4a12.51,12.51,0,0,1-2.7,3.27,6.31,6.31,0,0,0-.67-.54,12.15,12.15,0,0,0,3.66-5.35l1.11.32c0,.14-.19.17-.33.16a13.09,13.09,0,0,1-.61,1.33h3.88l.11,0ZM47.14,150a9.3,9.3,0,0,1,1.6,1.68l-.46.37a9.45,9.45,0,0,0-1.57-1.68Zm1.54-.44a9.75,9.75,0,0,1,1.63,1.65l-.47.36A9,9,0,0,0,48.26,150Z" class="cls-2"/><path data-cppathid="10064" transform="translate(-6.11)" d="M59.68,152.6a1,1,0,0,1-.18.17c-1.26,3.88-3.22,6.38-6.53,8.06a3.19,3.19,0,0,0-.62-.66,11.26,11.26,0,0,0,6.09-7.1H54.15a12.29,12.29,0,0,1-2.68,3,5,5,0,0,0-.69-.55,12.21,12.21,0,0,0,3.83-5.21l1.14.33c0,.12-.19.15-.35.15a16.61,16.61,0,0,1-.77,1.52h4.22l.15-.08Z" class="cls-2"/><path data-cppathid="10065" transform="translate(-6.11)" d="M68.24,156.7A41.29,41.29,0,0,0,64,154.75v6h-.9V150.32l1.21.07c0,.14-.11.22-.31.26v3.5l.18-.25a41,41,0,0,1,4.51,2Z" class="cls-2"/><path data-cppathid="10066" transform="translate(-6.11)" d="M74.53,152.19a.31.31,0,0,1-.31.18,18.13,18.13,0,0,1-2.88,7.69,3.84,3.84,0,0,0-.8-.43c1.34-1.63,2.39-4.68,2.78-7.69Zm6,7.8a39.73,39.73,0,0,0-3.19-7.72l.78-.38a39,39,0,0,1,3.29,7.75Zm-1.74-9.64a8.8,8.8,0,0,1,1.47,1.77l-.46.34a9.73,9.73,0,0,0-1.46-1.78Zm1.59-.63a9.79,9.79,0,0,1,1.47,1.77l-.47.34A9.23,9.23,0,0,0,80,150.07Z" class="cls-2"/><path data-cppathid="10067" transform="translate(-6.11)" d="M84.13,153.54a12.61,12.61,0,0,1,.9,2.58l-.67.18a13.91,13.91,0,0,0-.88-2.56Zm7.16.08c0,.11-.14.13-.25.12-.94,3.5-2.7,5.65-5.6,6.82A3.83,3.83,0,0,0,85,160c2.87-1.12,4.51-3.09,5.39-6.66ZM87,153a16.3,16.3,0,0,1,.57,2.72l-.71.14a14.43,14.43,0,0,0-.56-2.7Z" class="cls-2"/><path data-cppathid="10068" transform="translate(-6.11)" d="M101.68,152.6a.59.59,0,0,1-.18.17c-1.26,3.88-3.22,6.38-6.53,8.06a3.13,3.13,0,0,0-.61-.66,11.27,11.27,0,0,0,6.08-7.1H96.15a12.08,12.08,0,0,1-2.68,3,5,5,0,0,0-.69-.55,12.12,12.12,0,0,0,3.83-5.21l1.14.33c0,.12-.19.15-.35.15a16.61,16.61,0,0,1-.77,1.52h4.23l.14-.08Z" class="cls-2"/><path data-cppathid="10069" transform="translate(-6.11)" d="M112.45,152v7.91h-.87v-.75H105v.77h-.84V152Zm-.87,6.35v-5.55H105v5.55Z" class="cls-2"/><path data-cppathid="10070" transform="translate(-6.11)" d="M123.34,152.71a.62.62,0,0,1-.18.18c-1.27,4-3.24,6.37-6.49,8a2.86,2.86,0,0,0-.61-.66,11.1,11.1,0,0,0,6-7.06h-4.24a11.83,11.83,0,0,1-2.65,2.93,3.36,3.36,0,0,0-.67-.54,11.93,11.93,0,0,0,3.8-5.26l1.13.31c0,.12-.18.17-.34.16a17,17,0,0,1-.79,1.6h4.18l.14-.08ZM121.86,150a9.51,9.51,0,0,1,1.57,1.7L123,152a8.83,8.83,0,0,0-1.54-1.71Zm1.73-.35a8.67,8.67,0,0,1,1.58,1.71l-.45.37a8.17,8.17,0,0,0-1.55-1.69Z" class="cls-2"/><path data-cppathid="10071" transform="translate(-6.11)" d="M135.8,151.41a.27.27,0,0,1-.16.11,10.18,10.18,0,0,1-2.84,3.84,4.65,4.65,0,0,0-.73-.49,7.35,7.35,0,0,0,2.39-3h-8.59v-.81h9L135,151Zm-4.68,2.19a.29.29,0,0,1-.27.2c-.35,2.83-1.32,5.53-3.79,7a6.06,6.06,0,0,0-.71-.56c2.44-1.34,3.32-3.85,3.61-6.74Z" class="cls-2"/><path data-cppathid="10072" transform="translate(-6.11)" d="M145.55,151.09a.26.26,0,0,1-.22.1.25.25,0,0,1-.12,0,29.63,29.63,0,0,1-3.42,2.87l.29.13a.33.33,0,0,1-.27.16v6.44h-.87V154.6a34.22,34.22,0,0,1-4.57,2.68,4.49,4.49,0,0,0-.51-.66,30.37,30.37,0,0,0,8.79-6.2Z" class="cls-2"/><path data-cppathid="10073" transform="translate(-6.11)" d="M156.57,155h-4l.2.06a.25.25,0,0,1-.24.14,6.5,6.5,0,0,1-3.71,5.48,6.25,6.25,0,0,0-.64-.6,5.69,5.69,0,0,0,3.46-5.08h-4.66v-.81h9.64Zm-1.19-3.39H148v-.8h7.36Z" class="cls-2"/><path data-cppathid="10074" transform="translate(-6.11)" d="M167.21,160.46c-.18-.41-.39-.84-.63-1.27-2.5.26-6.6.51-8.43.61a.35.35,0,0,1-.23.24L157.6,159l1.26-.05c.79-2.3,1.93-5.89,2.59-8.29l1.16.31a.35.35,0,0,1-.35.17c-.66,2.21-1.69,5.42-2.52,7.77,2-.08,4.84-.28,6.42-.43a20.19,20.19,0,0,0-2.14-2.92l.72-.41a23.91,23.91,0,0,1,3.31,5Z" class="cls-2"/><path data-cppathid="10075" transform="translate(-6.11)" d="M83.67,167a7.61,7.61,0,0,0,0,11v.06H83A7.93,7.93,0,0,1,83,167h.72Z" class="cls-2"/><path data-cppathid="10076" transform="translate(-6.11)" d="M84.88,168.09a11.1,11.1,0,0,1,2.07-.18c3,0,3.19,1.9,3.19,2.61,0,2.15-1.71,2.92-3.33,2.92a3.45,3.45,0,0,1-.94-.09v3.76h-1Zm1,4.44a3.77,3.77,0,0,0,1,.09c1.44,0,2.32-.72,2.32-2s-.94-1.89-2.19-1.89a5.13,5.13,0,0,0-1.09.1Z" class="cls-2"/><path data-cppathid="10077" transform="translate(-6.11)" d="M95.23,172.22a2.33,2.33,0,0,1,1.88,2.3,2.42,2.42,0,0,1-.73,1.8,4.11,4.11,0,0,1-3,.86c-.76,0-1.32-.06-1.69-.09v-9a9.7,9.7,0,0,1,2-.19,3.58,3.58,0,0,1,2.41.67,2,2,0,0,1,.69,1.58,2.19,2.19,0,0,1-1.55,2Zm-1.45-.34c1.21,0,2-.7,2-1.63h0c0-1.08-.79-1.55-2-1.55a4.87,4.87,0,0,0-1,.08v3.11Zm-1.07,4.45a5,5,0,0,0,1,.06c1.26,0,2.39-.49,2.39-1.87s-1.19-1.87-2.4-1.87h-1Z" class="cls-2"/><path data-cppathid="10078" transform="translate(-6.11)" d="M98.68,168h1v9.14h-1Z" class="cls-2"/><path data-cppathid="10079" transform="translate(-6.11)" d="M100.88,178.07a7.59,7.59,0,0,0,0-11V167h.72a7.93,7.93,0,0,1,0,11.15h-.72Z" class="cls-2"/></g></g></svg>