<?xml version="1.0" encoding="UTF-8"?>
<svg xmlns="http://www.w3.org/2000/svg" onmouseup="{ if(window.parent.document.onmouseup) window.parent.document.onmouseup(arguments[0]);}" viewBox="0 0 156.27 188.71" xmlns:xlink="http://www.w3.org/1999/xlink"><defs><style>.cls-1{isolation:isolate;}.cls-2{fill:#ff1200;}.cls-10,.cls-11,.cls-12,.cls-13,.cls-14,.cls-15,.cls-16,.cls-3,.cls-4,.cls-5,.cls-7,.cls-8,.cls-9{stroke:#a39d9d;}.cls-3{fill:url(#linear-gradient);}.cls-4{fill:#f9ec93;mix-blend-mode:darken;}.cls-5{fill:url(#linear-gradient-2);}.cls-6{fill:#d16d00;}.cls-7{fill:url(#linear-gradient-3);}.cls-8{fill:url(#linear-gradient-4);}.cls-9{fill:url(#linear-gradient-5);}.cls-10{fill:url(#linear-gradient-6);}.cls-11{fill:url(#linear-gradient-7);}.cls-12{fill:url(#linear-gradient-8);}.cls-13{fill:url(#linear-gradient-9);}.cls-14{fill:url(#linear-gradient-10);}.cls-15{fill:url(#linear-gradient-11);}.cls-16{fill:url(#linear-gradient-12);}</style><linearGradient gradientUnits="userSpaceOnUse" gradientTransform="translate(5.73 39.17) rotate(-8.29)" y2="4.1" x2="17.22" y1="45.41" x1="17.22" id="linear-gradient"><stop stop-color="#dbdbdb" offset="0"/><stop stop-color="#e8e8e8" offset="0.13"/><stop stop-color="#f9f9f9" offset="0.36"/><stop stop-color="#fff" offset="0.53"/><stop stop-color="#fdfdfd" offset="0.74"/><stop stop-color="#f5f5f5" offset="0.83"/><stop stop-color="#e8e8e8" offset="0.91"/><stop stop-color="#d6d6d6" offset="0.97"/><stop stop-color="#cbcbcb" offset="1"/></linearGradient><linearGradient gradientUnits="userSpaceOnUse" gradientTransform="translate(-8.26 10.67) rotate(-11.71)" y2="67.51" x2="34.33" y1="72.52" x1="36.41" id="linear-gradient-2"><stop stop-color="#dbdbdb" offset="0.02"/><stop stop-color="#e7e7e7" offset="0.23"/><stop stop-color="#fff" offset="0.53"/><stop stop-color="#f8f8f8" offset="0.65"/><stop stop-color="#e5e5e5" offset="0.83"/><stop stop-color="#cbcbcb" offset="1"/></linearGradient><linearGradient xlink:href="#linear-gradient" gradientTransform="translate(-5.95 21.53) rotate(2.69)" y2="11.66" x2="86.47" y1="52.97" x1="86.47" id="linear-gradient-3"/><linearGradient xlink:href="#linear-gradient" gradientTransform="translate(-5.95 21.53) rotate(2.69)" y2="67.02" x2="37.89" y1="108.33" x1="37.89" id="linear-gradient-4"/><linearGradient xlink:href="#linear-gradient" gradientTransform="translate(-1.72 1.79) rotate(14.67)" y2="66.96" x2="105.98" y1="108.27" x1="105.98" id="linear-gradient-5"/><linearGradient xlink:href="#linear-gradient" y2="107.8" x2="4.05" y1="149.11" x1="4.05" id="linear-gradient-6"/><linearGradient xlink:href="#linear-gradient-2" y2="170.24" x2="14.99" y1="175.26" x1="17.07" id="linear-gradient-7"/><linearGradient xlink:href="#linear-gradient" gradientTransform="translate(-5.95 21.53) rotate(2.69)" y2="115.97" x2="93.3" y1="157.29" x1="93.3" id="linear-gradient-8"/><linearGradient xlink:href="#linear-gradient" gradientTransform="translate(-1.23 34.63) rotate(-3.1)" y2="114.76" x2="126.82" y1="156.07" x1="126.82" id="linear-gradient-9"/><linearGradient xlink:href="#linear-gradient-2" gradientTransform="translate(-12.29 5.28) rotate(-6.52)" y2="184.18" x2="136.86" y1="189.2" x1="138.95" id="linear-gradient-10"/><linearGradient xlink:href="#linear-gradient" gradientTransform="translate(-1.23 34.63) rotate(-3.1)" y2="63.22" x2="122.44" y1="104.53" x1="122.44" id="linear-gradient-11"/><linearGradient xlink:href="#linear-gradient-2" gradientTransform="translate(-12.29 5.28) rotate(-6.52)" y2="132.47" x2="135.57" y1="137.48" x1="137.66" id="linear-gradient-12"/></defs><g class="cls-1"><g data-name="Layer 2" id="Layer_2"><g data-name="Sprint Backlog jp" id="Sprint_Backlog_jp"><path data-cppathid="10000" transform="translate(0 -0.9)" d="M12.85,4.76V1.17H15V4.76h6.83v1.8H15V9.7h8.63v1.89H16.09A24.12,24.12,0,0,0,24.71,19a5.77,5.77,0,0,0-1.61,1.79,38.84,38.84,0,0,1-4.41-3.23A29.39,29.39,0,0,1,15,13.66v8.17H12.85V13.75a47.58,47.58,0,0,1-3.77,3.86,36.91,36.91,0,0,1-4.22,2.87A6.2,6.2,0,0,0,3.51,18.6a26.39,26.39,0,0,0,4.58-3,52,52,0,0,0,4-4H4.5V9.7h8.35V6.56H6.39V4.76Z" class="cls-2"/><path data-cppathid="10001" transform="translate(0 -0.9)" d="M41.15,3.5h5.13V5.21H38.19V6.29H45V7.82H38.19V9h9.07V10.6H35.05a.57.57,0,0,1-.14.27,1.74,1.74,0,0,0-.22.36c-.13.24-.24.48-.36.72H44.84v9.88H42.68V21H35v.9H33V14.29a26.18,26.18,0,0,1-2.25,2.87,25.18,25.18,0,0,1-2.6,2.25,13.35,13.35,0,0,0-1.44-1.8,22.58,22.58,0,0,0,3.5-3,15.55,15.55,0,0,0,2.52-4H27.32V9h8.8V7.82H29.65V6.29h6.47V5.21h-8V3.5h5.3L32.17,1.89,33.7.9c.42.54.78,1,1.08,1.3a4.64,4.64,0,0,1,.62.85l-.89.45h4.31A17.06,17.06,0,0,0,40.44.9l1.88.9a8.47,8.47,0,0,1-.58.85A9.91,9.91,0,0,0,41.15,3.5Zm1.53,11.14V13.48H35v1.16Zm0,2.34V15.9H35V17Zm0,2.52V18.33H35V19.5Z" class="cls-2"/><path data-cppathid="10002" transform="translate(0 -0.9)" d="M68.83,3.59l-7.64.9V7.55h7.64V9.43H61.19v3.24h9.07v2H61.19V20a1.41,1.41,0,0,1-.72,1.25,14.64,14.64,0,0,1-3.59.72,5.62,5.62,0,0,0-.81-2.24h2.69a.37.37,0,0,0,.27-.09.52.52,0,0,0,.18-.36V14.64H50.32v-2h8.89V9.43H51.58V7.55h7.63V4.67c-2.75.24-5.12.42-7.09.54q-.27-.72-.81-2A80.33,80.33,0,0,0,67.48,1.62Z" class="cls-2"/><path data-cppathid="10003" transform="translate(0 -0.9)" d="M83.38,21.2a9.44,9.44,0,0,0-1-2.06,17,17,0,0,0,4-1.26A6.58,6.58,0,0,0,89,15.54a6.76,6.76,0,0,0,1-3.77,6.37,6.37,0,0,0-1.62-4.58A6.62,6.62,0,0,0,83.74,5.3a43.44,43.44,0,0,1-2.16,8.27,15.59,15.59,0,0,1-3,4.94,2.05,2.05,0,0,1-1.71.81,3,3,0,0,1-2.42-1.44,8.18,8.18,0,0,1-1.44-4.94,8.77,8.77,0,0,1,2.87-6.65,10.6,10.6,0,0,1,7.55-2.7,10.43,10.43,0,0,1,4.58,1.08,6.63,6.63,0,0,1,2.43,1.62,7.51,7.51,0,0,1,1.44,2.42,11.17,11.17,0,0,1,.45,3,9,9,0,0,1-1.26,4.76,8.35,8.35,0,0,1-3.42,3.15A12.68,12.68,0,0,1,83.38,21.2ZM81.58,5.48a8.34,8.34,0,0,0-4.94,2.7,7.62,7.62,0,0,0-1.52,4.67,6.13,6.13,0,0,0,.8,3.32A1.28,1.28,0,0,0,77,17a.78.78,0,0,0,.63-.36,14.74,14.74,0,0,0,2.16-4.13A34.68,34.68,0,0,0,81.58,5.48Z" class="cls-2"/><path data-cppathid="10004" transform="translate(0 -0.9)" d="M104.49,5.12h6.74l.18-.09,1.17,1.26-2.43,5.12a17.56,17.56,0,0,1-2,2.79,20.87,20.87,0,0,1-2.79,3,27.39,27.39,0,0,1-3.86,2.7,35.15,35.15,0,0,1-4.22,1.88,9,9,0,0,0-.54-1.08,5.79,5.79,0,0,0-.9-.89A25.64,25.64,0,0,0,101,17.52a25.42,25.42,0,0,0,4.13-3.06,38.44,38.44,0,0,0-4.22-3.23l1.35-1.53q2.59,1.71,4.31,3.06,1.08-1.53,1.71-2.61A18,18,0,0,0,109.71,7h-6.38c-1.08,1.5-1.8,2.48-2.16,3a19.82,19.82,0,0,1-1.8,1.62,15.8,15.8,0,0,1-3.14,2.34A5.11,5.11,0,0,0,94.79,12,20.23,20.23,0,0,0,98.3,9.61,12.94,12.94,0,0,0,101,6.47,26.54,26.54,0,0,0,103.24,2l2.42.81Z" class="cls-2"/><path data-cppathid="10005" transform="translate(0 -0.9)" d="M117,4.13h12.31l.27-.09,1.53,1.53-2.43,4.22A25.05,25.05,0,0,1,127.14,12c1.85,1.8,3.14,3.08,3.86,3.86q.72.72,3.14,3.69l-2.06,1.61a29.53,29.53,0,0,0-2.16-3q-2.16-2.52-4.13-4.49a37.33,37.33,0,0,1-4.49,4.22,28.22,28.22,0,0,1-5,3.05,13.21,13.21,0,0,0-.71-1.16,1.81,1.81,0,0,1-.32-.41,1.68,1.68,0,0,0-.58-.49,28.07,28.07,0,0,0,7.72-4.76,33.64,33.64,0,0,0,5.75-7.91H117Z" class="cls-2"/><path data-cppathid="10006" transform="translate(0 -0.9)" d="M146.09,2.88l-1.53,2.87h6.74l.36-.18L153.1,7.1q-2.07,4.76-2.6,5.66A14.93,14.93,0,0,1,148,16.08a17.06,17.06,0,0,1-3.77,3,30.14,30.14,0,0,1-5.4,2.24,5.87,5.87,0,0,0-1.34-2.06,33,33,0,0,0,4.76-1.71,12.53,12.53,0,0,0,3.5-2.43,17,17,0,0,0,2.61-3.23,36.6,36.6,0,0,0,1.89-4.22h-6.65a28,28,0,0,1-2.61,3.5,21.25,21.25,0,0,1-3.05,3q-.45-.54-.63-.72a4.41,4.41,0,0,0-1.08-.81,19.35,19.35,0,0,0,2.43-2.16c.47-.54,1.13-1.35,2-2.42a27.61,27.61,0,0,0,1.8-3.15A22.07,22.07,0,0,0,143.67,2Z" class="cls-2"/><path data-cppathid="10007" transform="translate(0 -0.9)" d="M11.1,84.27c-1.09.16-5.11-4.51-6.63-15S.78,44,.78,44l44.77-6.52s1.9,10.29,3.5,21.26c1,7,.11,10.25-5.77,14.66C33.28,80.94,11.1,84.27,11.1,84.27Z" class="cls-3"/><path data-cppathid="10008" transform="translate(0 -0.9)" d="M10.89,84.58c-1.1.16-5.12-4.51-6.64-15L.57,44.33l44.76-6.52s1.91,10.29,3.51,21.27c1,7,.1,10.24-5.77,14.65C33.06,81.24,10.89,84.58,10.89,84.58Z" class="cls-4"/><path data-cppathid="10009" transform="translate(0 -0.9)" d="M31.41,79.26a13.59,13.59,0,0,0,6.31-4.46,10,10,0,0,0,2.12-5.53,19.32,19.32,0,0,0,6.45-1.34,5.77,5.77,0,0,0,3.34-3.3s-1.27,5.17-5.16,8C39.48,76.34,31.41,79.26,31.41,79.26Z" class="cls-5"/><path data-cppathid="10010" transform="translate(0 -0.9)" d="M31.62,79.26a13.59,13.59,0,0,0,6.32-4.46,10,10,0,0,0,2.11-5.53,19.6,19.6,0,0,0,6.45-1.34,5.75,5.75,0,0,0,3.34-3.3s-1.27,5.16-5.16,8C39.69,76.34,31.62,79.26,31.62,79.26Z" class="cls-4"/><path data-cppathid="10011" transform="translate(0 -0.9)" d="M9.91,63.47a.12.12,0,0,1-.08,0,.1.1,0,0,1-.11-.08.24.24,0,0,1,0-.12,13.47,13.47,0,0,0,1.43-2.8A12.55,12.55,0,0,0,12,57.63a2.51,2.51,0,0,0,0-.68.41.41,0,0,0-.2-.33,1.86,1.86,0,0,0-.31-.14c-.06,0-.11,0-.11-.09a.15.15,0,0,1,.08-.14,1.48,1.48,0,0,1,.63-.25,2,2,0,0,1,1.1.29c.43.22.67.4.7.64a.67.67,0,0,1-.14.4,3.3,3.3,0,0,0-.23.67.33.33,0,0,1-.05.15,8.46,8.46,0,0,0,1.25-.51c.28-.12.29-.14.46-.41a.5.5,0,0,1,.39-.24,3,3,0,0,1,1,.36c.42.25.85.47.9.83a.39.39,0,0,1-.24.39c-.25.12-.28.24-.39.6-.28.83-.57,1.67-.91,2.45a2.52,2.52,0,0,1,1.61,1.63.88.88,0,0,1-.74,1.12c-.39,0-.63-.14-1-.73a2.92,2.92,0,0,0-.53-.59,10.23,10.23,0,0,1-1.07,1.56,10.49,10.49,0,0,1-4.61,3.3L9.48,68c-.07,0-.12,0-.13-.07a.14.14,0,0,1,.07-.12A15.52,15.52,0,0,0,13.19,64a14.38,14.38,0,0,0,1-1.79A5.89,5.89,0,0,0,12,61.29,8,8,0,0,1,9.91,63.47Zm4.71-2.28a12.74,12.74,0,0,0,.58-2.14,3.26,3.26,0,0,0,.05-.56c0-.07,0-.08-.1-.07a3.32,3.32,0,0,0-.41.17l-.6.3a1.3,1.3,0,0,1-.45.22.77.77,0,0,1-.45-.1,9.57,9.57,0,0,1-1,1.91A12.28,12.28,0,0,1,14.62,61.19Z" class="cls-6"/><path data-cppathid="10012" transform="translate(0 -0.9)" d="M24.52,63.13a10.17,10.17,0,0,1-4.46,2.6c-.08,0-.14,0-.15-.06s0-.09.08-.13a13.83,13.83,0,0,0,3.61-3.23,12.53,12.53,0,0,0,2.31-4.54,3.48,3.48,0,0,0,.16-.8c0-.07-.05-.09-.14-.08l-.17.06c-.44.17-1.11.47-1.51.68a2.82,2.82,0,0,0-.64.48,1,1,0,0,1-.54.32,1.5,1.5,0,0,1-.92-.38c-.38-.3-.74-.56-.79-.89a1.51,1.51,0,0,1,0-.37c0-.1.05-.14.09-.15a.22.22,0,0,1,.18.06,2.87,2.87,0,0,0,.45.2,1.25,1.25,0,0,0,.57.07,3.75,3.75,0,0,0,.76-.21l1.91-.67c.3-.11.28-.11.5-.44a.54.54,0,0,1,.41-.24,3,3,0,0,1,1.21.33c.58.28,1,.55,1.11.94s-.11.34-.36.51-.32.28-.48.73a15.82,15.82,0,0,1-.95,2.13,5.28,5.28,0,0,1,2.24.43,2.12,2.12,0,0,1,1.44,1.57.91.91,0,0,1-.81,1.1c-.55.08-.83-.16-1.29-.92a4.69,4.69,0,0,0-1.78-1.81A12.12,12.12,0,0,1,24.52,63.13Z" class="cls-6"/><path data-cppathid="10013" transform="translate(0 -0.9)" d="M37.54,54.69c.26-.08.27-.12.4-.4a.52.52,0,0,1,.36-.23,2.68,2.68,0,0,1,1.14.38c.53.28.86.54.91.86a.48.48,0,0,1-.28.45c-.24.15-.28.27-.41.66a13.14,13.14,0,0,1-2.92,5.4,11.54,11.54,0,0,1-4.32,2.93l-.2.07c-.07,0-.12,0-.12-.07a.11.11,0,0,1,0-.12A15.43,15.43,0,0,0,35.79,61a13.69,13.69,0,0,0,2.12-4.72,2.93,2.93,0,0,0,.07-.65c0-.07,0-.08-.12-.07a2.38,2.38,0,0,0-.35.12,4.66,4.66,0,0,1-.45.22,1.21,1.21,0,0,1-.44.2,1.43,1.43,0,0,1-.68-.12,10.36,10.36,0,0,1-1,1.81,7.76,7.76,0,0,1-2.46,2.36c-.09,0-.17,0-.18,0a.16.16,0,0,1,0-.12,17.09,17.09,0,0,0,1.53-2.68,15.48,15.48,0,0,0,1-2.88,2.18,2.18,0,0,0,.1-.77.38.38,0,0,0-.22-.3l-.29-.1c-.07,0-.12-.05-.13-.09a.23.23,0,0,1,.08-.14,1.4,1.4,0,0,1,.58-.3,2.9,2.9,0,0,1,1.18.33c.46.21.71.42.77.78,0,.2,0,.29-.2.49a1.84,1.84,0,0,0-.32.69.93.93,0,0,0-.07.2C36.59,55.08,37.15,54.85,37.54,54.69Z" class="cls-6"/><path data-cppathid="10014" transform="translate(0 -0.9)" d="M59.37,77.64c-1.11-.06-4.17-5.4-3.67-16s1.2-25.53,1.2-25.53l45.19,2.13s-.09,10.46-.61,21.54c-.34,7.1-.46,17.29-.46,17.29Z" class="cls-7"/><path data-cppathid="10015" transform="translate(0 -0.9)" d="M59.09,77.89c-1.1,0-4.16-5.4-3.66-15.94s1.2-25.53,1.2-25.53l45.19,2.13s-.09,10.46-.61,21.54c-.34,7.1-.46,17.29-.46,17.29Z" class="cls-4"/><path data-cppathid="10016" transform="translate(0 -0.9)" d="M61.84,56.86a.11.11,0,0,1-.08,0,.08.08,0,0,1-.09-.1.14.14,0,0,1,.06-.11,13.59,13.59,0,0,0,1.94-2.47A13.08,13.08,0,0,0,65,51.53a2,2,0,0,0,.17-.67.35.35,0,0,0-.13-.35,1.26,1.26,0,0,0-.27-.2c-.06,0-.1-.07-.1-.12a.21.21,0,0,1,.11-.12,1.52,1.52,0,0,1,.66-.12,2,2,0,0,1,1,.5c.38.3.58.51.57.75a.66.66,0,0,1-.22.37,3.34,3.34,0,0,0-.35.62.42.42,0,0,1-.07.13,7.68,7.68,0,0,0,1.31-.26.76.76,0,0,0,.54-.31.47.47,0,0,1,.42-.16,2.84,2.84,0,0,1,.95.55c.36.32.74.62.72,1a.38.38,0,0,1-.31.33c-.27.07-.32.18-.5.51-.43.77-.87,1.53-1.35,2.24a2.55,2.55,0,0,1,1.27,1.91c0,.59-.36,1-.95,1-.39,0-.59-.25-.87-.91a3,3,0,0,0-.41-.68,10.42,10.42,0,0,1-1.34,1.32,10.54,10.54,0,0,1-5.16,2.37l-.17,0c-.07,0-.11,0-.11-.09s0-.08.09-.11A15.25,15.25,0,0,0,65,58a13.28,13.28,0,0,0,1.34-1.56,5.87,5.87,0,0,0-2-1.31A8.12,8.12,0,0,1,61.84,56.86Zm5.06-1.34a12.68,12.68,0,0,0,1-2A4.27,4.27,0,0,0,68,53c0-.07,0-.09-.08-.09a4.31,4.31,0,0,0-.44.09c-.2,0-.43.11-.64.18a1.28,1.28,0,0,1-.48.13.88.88,0,0,1-.43-.18,9.9,9.9,0,0,1-1.33,1.69A11.52,11.52,0,0,1,66.9,55.52Z" class="cls-6"/><path data-cppathid="10017" transform="translate(0 -0.9)" d="M76.25,59.31A10.14,10.14,0,0,1,71.37,61c-.08,0-.13,0-.13-.09s0-.08.1-.1a13.9,13.9,0,0,0,4.16-2.49,12.43,12.43,0,0,0,3.13-4,3.81,3.81,0,0,0,.32-.76c0-.07,0-.1-.12-.1l-.19,0c-.46.09-1.17.25-1.61.38a3,3,0,0,0-.72.35,1,1,0,0,1-.59.21,1.46,1.46,0,0,1-.83-.55c-.31-.36-.62-.68-.61-1a1.48,1.48,0,0,1,.08-.36c0-.1.07-.14.12-.14a.28.28,0,0,1,.16.1,2,2,0,0,0,.41.28,1.29,1.29,0,0,0,.53.18,4.29,4.29,0,0,0,.79-.06c.62-.08,1.49-.21,2-.3.31,0,.3,0,.58-.33a.55.55,0,0,1,.44-.16,2.8,2.8,0,0,1,1.12.55c.52.39.93.75.92,1.14s-.17.31-.46.43-.36.22-.61.63A18,18,0,0,1,79,56.72a5.4,5.4,0,0,1,2.12.84,2.15,2.15,0,0,1,1.1,1.82.9.9,0,0,1-1,.92c-.56,0-.79-.31-1.1-1.14a4.61,4.61,0,0,0-1.4-2.11A12.84,12.84,0,0,1,76.25,59.31Z" class="cls-6"/><path data-cppathid="10018" transform="translate(0 -0.9)" d="M90.64,53.51c.27,0,.28-.07.46-.31a.53.53,0,0,1,.4-.16,2.55,2.55,0,0,1,1.06.59c.45.37.73.7.72,1s-.2.32-.36.39-.33.21-.53.56a13.09,13.09,0,0,1-3.9,4.75,11.54,11.54,0,0,1-4.79,2l-.21,0a.1.1,0,0,1-.11-.09.13.13,0,0,1,.07-.11,15.34,15.34,0,0,0,4.28-2.9,13.68,13.68,0,0,0,3-4.23,3.41,3.41,0,0,0,.19-.62c0-.07,0-.09-.11-.09l-.36,0a3.92,3.92,0,0,1-.49.13,1,1,0,0,1-1.11-.13A10.08,10.08,0,0,1,87.45,56a7.74,7.74,0,0,1-2.86,1.84c-.1,0-.17,0-.17-.07s0-.07.06-.11a17.71,17.71,0,0,0,2-2.35A16.57,16.57,0,0,0,88,52.69a2.54,2.54,0,0,0,.25-.75.38.38,0,0,0-.17-.33l-.26-.15c-.07,0-.11-.08-.11-.12a.24.24,0,0,1,.11-.12,1.26,1.26,0,0,1,.62-.18,3,3,0,0,1,1.1.54c.41.3.62.55.6.91s-.1.28-.29.45a2.33,2.33,0,0,0-.45.61c0,.06-.07.12-.1.19A13.49,13.49,0,0,0,90.64,53.51Z" class="cls-6"/><path data-cppathid="10019" transform="translate(0 -0.9)" d="M8.23,130.65c-1.1-.05-4.16-5.4-3.66-15.94s1.2-25.53,1.2-25.53L51,91.31s-.09,10.46-.61,21.54c-.34,7.1-.46,17.29-.46,17.29Z" class="cls-8"/><path data-cppathid="10020" transform="translate(0 -0.9)" d="M8,130.91c-1.1,0-4.16-5.4-3.66-16S5.5,89.44,5.5,89.44l45.19,2.12s-.09,10.47-.61,21.55c-.34,7.1-.46,17.29-.46,17.29Z" class="cls-4"/><path data-cppathid="10021" transform="translate(0 -0.9)" d="M11.18,109.18a.16.16,0,0,1-.09,0,.09.09,0,0,1-.09-.11.18.18,0,0,1,.06-.1A14,14,0,0,0,13,106.52a13.08,13.08,0,0,0,1.34-2.67,2.39,2.39,0,0,0,.18-.67.39.39,0,0,0-.14-.35,1.26,1.26,0,0,0-.27-.2c-.06,0-.1-.07-.1-.12a.21.21,0,0,1,.11-.12,1.52,1.52,0,0,1,.66-.12,2,2,0,0,1,1,.5c.38.3.58.52.57.75a.66.66,0,0,1-.22.37,3.34,3.34,0,0,0-.35.62.42.42,0,0,1-.07.13,7.68,7.68,0,0,0,1.31-.26.76.76,0,0,0,.54-.31.47.47,0,0,1,.42-.16,3,3,0,0,1,.95.55c.36.32.74.62.72,1a.38.38,0,0,1-.31.33c-.27.07-.32.18-.5.51-.43.77-.87,1.53-1.35,2.24a2.52,2.52,0,0,1,1.27,1.91c0,.59-.36,1-.94,1-.4,0-.6-.25-.87-.91a3.05,3.05,0,0,0-.42-.68,10.82,10.82,0,0,1-6.5,3.69l-.17,0c-.07,0-.11,0-.11-.09a.19.19,0,0,1,.09-.11,15.29,15.29,0,0,0,4.42-3,14.25,14.25,0,0,0,1.34-1.57,5.87,5.87,0,0,0-2-1.31A8.2,8.2,0,0,1,11.18,109.18Zm5.05-1.34a12.68,12.68,0,0,0,1-2,2.84,2.84,0,0,0,.15-.54c0-.07,0-.09-.08-.09a4.31,4.31,0,0,0-.44.09l-.64.18a1.23,1.23,0,0,1-.48.13.82.82,0,0,1-.43-.18A9.43,9.43,0,0,1,14,107.13,12.23,12.23,0,0,1,16.23,107.84Z" class="cls-6"/><path data-cppathid="10022" transform="translate(0 -0.9)" d="M25.58,111.63a10.14,10.14,0,0,1-4.87,1.7c-.09,0-.14,0-.14-.09s0-.08.11-.1a14.05,14.05,0,0,0,4.15-2.49,12.4,12.4,0,0,0,3.13-4,3.48,3.48,0,0,0,.32-.76c0-.07,0-.1-.12-.11l-.18,0c-.47.09-1.18.26-1.62.39a3,3,0,0,0-.72.35,1,1,0,0,1-.58.21,1.48,1.48,0,0,1-.83-.55c-.32-.36-.63-.69-.61-1a1,1,0,0,1,.07-.36c0-.1.08-.14.12-.14a.26.26,0,0,1,.16.09,2.48,2.48,0,0,0,.41.29,1.28,1.28,0,0,0,.54.18,4.4,4.4,0,0,0,.79-.06c.62-.08,1.48-.21,2-.3.31-.06.3-.06.58-.34a.55.55,0,0,1,.44-.16,2.94,2.94,0,0,1,1.12.56c.52.39.94.74.92,1.14s-.17.31-.46.42-.36.22-.6.63A16.8,16.8,0,0,1,28.37,109a5.25,5.25,0,0,1,2.12.84,2.15,2.15,0,0,1,1.11,1.82.9.9,0,0,1-1,.92c-.56,0-.79-.32-1.1-1.14a4.7,4.7,0,0,0-1.4-2.12A12.31,12.31,0,0,1,25.58,111.63Z" class="cls-6"/><path data-cppathid="10023" transform="translate(0 -0.9)" d="M40,105.83c.27,0,.29-.08.47-.32a.51.51,0,0,1,.4-.16,2.8,2.8,0,0,1,1,.59c.46.38.74.7.72,1a.5.5,0,0,1-.35.39c-.28.1-.34.21-.54.56a13.21,13.21,0,0,1-3.89,4.76,11.56,11.56,0,0,1-4.8,2,.82.82,0,0,1-.21,0c-.07,0-.11,0-.11-.08a.11.11,0,0,1,.08-.11,15.51,15.51,0,0,0,4.27-2.9,13.56,13.56,0,0,0,3-4.24,2.76,2.76,0,0,0,.19-.62c0-.07,0-.08-.1-.09l-.37,0-.48.14a1.28,1.28,0,0,1-.47.1,1.45,1.45,0,0,1-.65-.24,10.15,10.15,0,0,1-1.38,1.58,7.87,7.87,0,0,1-2.86,1.84c-.1,0-.17,0-.17-.08a.17.17,0,0,1,.07-.11,17.65,17.65,0,0,0,2-2.34,15.53,15.53,0,0,0,1.5-2.64,2.45,2.45,0,0,0,.25-.75.38.38,0,0,0-.17-.33l-.26-.15c-.07,0-.11-.07-.11-.12a.24.24,0,0,1,.11-.12,1.38,1.38,0,0,1,.62-.18,3,3,0,0,1,1.1.54c.41.3.62.55.6.92,0,.21-.1.27-.29.45a1.87,1.87,0,0,0-.44.61,1.6,1.6,0,0,0-.11.19C39,106,39.56,105.9,40,105.83Z" class="cls-6"/><path data-cppathid="10024" transform="translate(0 -0.9)" d="M55.41,128.66c-1.07-.28-2.95-6.15-.27-16.36l6.47-24.72L105.37,99s-2.26,10.22-5.07,21c-1.8,6.88-4,16.82-4,16.82Z" class="cls-9"/><path data-cppathid="10025" transform="translate(0 -0.9)" d="M55.09,128.85c-1.07-.28-3-6.14-.27-16.36l6.47-24.72,43.76,11.46s-2.26,10.21-5.07,20.94c-1.8,6.88-4,16.82-4,16.82Z" class="cls-4"/><path data-cppathid="10026" transform="translate(0 -0.9)" d="M62.21,108.76a.14.14,0,0,1-.09,0,.1.1,0,0,1-.07-.12.16.16,0,0,1,.08-.09,14.09,14.09,0,0,0,2.41-2,13,13,0,0,0,1.87-2.34,2.45,2.45,0,0,0,.31-.61.39.39,0,0,0-.06-.38,1.24,1.24,0,0,0-.23-.25.16.16,0,0,1-.06-.13.18.18,0,0,1,.13-.1,1.49,1.49,0,0,1,.67,0,2,2,0,0,1,.9.7c.31.37.46.63.4.86s-.16.22-.28.31a3.06,3.06,0,0,0-.48.53.38.38,0,0,1-.1.12,8.19,8.19,0,0,0,1.34,0,.76.76,0,0,0,.59-.2A.54.54,0,0,1,70,105a3.36,3.36,0,0,1,.81.74c.29.39.6.76.5,1.11a.38.38,0,0,1-.37.27c-.28,0-.35.11-.59.39-.58.66-1.17,1.32-1.79,1.91a2.5,2.5,0,0,1,.84,2.13.87.87,0,0,1-1.12.74c-.38-.1-.52-.37-.66-1.07a2.68,2.68,0,0,0-.26-.75,10.37,10.37,0,0,1-1.59,1,10.51,10.51,0,0,1-5.54,1.25l-.17,0c-.06,0-.1,0-.08-.11a.12.12,0,0,1,.11-.08,15.89,15.89,0,0,0,4.94-2,14.35,14.35,0,0,0,1.63-1.25A5.63,5.63,0,0,0,65,107.59,8,8,0,0,1,62.21,108.76Zm5.22-.26a12.29,12.29,0,0,0,1.37-1.75,2.38,2.38,0,0,0,.26-.49c0-.07,0-.09-.06-.1a2.07,2.07,0,0,0-.45,0c-.2,0-.43,0-.66,0a1.88,1.88,0,0,1-.5,0A.94.94,0,0,1,67,106a9.44,9.44,0,0,1-1.65,1.38A12.7,12.7,0,0,1,67.43,108.5Z" class="cls-6"/><path data-cppathid="10027" transform="translate(0 -0.9)" d="M75.79,114.15a10.19,10.19,0,0,1-5.12.65c-.08,0-.12-.07-.11-.12s0-.07.12-.08A14,14,0,0,0,75.26,113a12.65,12.65,0,0,0,3.9-3.29,3.64,3.64,0,0,0,.47-.67c0-.07,0-.1-.1-.13h-.19c-.47,0-1.2,0-1.66,0a2.9,2.9,0,0,0-.77.19,1,1,0,0,1-.62.08,1.42,1.42,0,0,1-.69-.7c-.24-.43-.47-.81-.39-1.13a1.07,1.07,0,0,1,.15-.34c0-.09.1-.12.14-.11a.29.29,0,0,1,.14.13,2.47,2.47,0,0,0,.34.36,1.36,1.36,0,0,0,.49.29,4.86,4.86,0,0,0,.78.1l2,.13c.31,0,.3,0,.63-.21a.56.56,0,0,1,.47-.07,2.89,2.89,0,0,1,1,.78c.42.49.76.92.66,1.3s-.23.27-.53.32-.4.15-.73.5a16.87,16.87,0,0,1-1.7,1.59,5.29,5.29,0,0,1,1.9,1.27,2.12,2.12,0,0,1,.7,2,.9.9,0,0,1-1.16.7c-.55-.14-.71-.48-.84-1.35a4.72,4.72,0,0,0-.93-2.36A12.36,12.36,0,0,1,75.79,114.15Z" class="cls-6"/><path data-cppathid="10028" transform="translate(0 -0.9)" d="M91.07,111.46c.27,0,.3,0,.52-.22a.53.53,0,0,1,.43-.07,2.66,2.66,0,0,1,.9.8c.37.46.58.83.5,1.14a.51.51,0,0,1-.43.31c-.28,0-.37.14-.64.44a13,13,0,0,1-4.79,3.84,11.64,11.64,0,0,1-5.12,1h-.21c-.07,0-.1-.07-.09-.11a.12.12,0,0,1,.1-.09,15.6,15.6,0,0,0,4.78-2A13.62,13.62,0,0,0,90.81,113a2.89,2.89,0,0,0,.32-.56c0-.07,0-.09-.09-.12l-.37,0c-.15,0-.35,0-.5,0a1.29,1.29,0,0,1-.48,0,1.39,1.39,0,0,1-.58-.37,10.15,10.15,0,0,1-1.67,1.26,7.88,7.88,0,0,1-3.19,1.21c-.1,0-.16-.06-.14-.11a.15.15,0,0,1,.08-.1,17.69,17.69,0,0,0,2.46-1.87,16.22,16.22,0,0,0,2-2.27,2.56,2.56,0,0,0,.4-.68.39.39,0,0,0-.1-.36,2.65,2.65,0,0,0-.22-.2.15.15,0,0,1-.08-.14s.06-.07.13-.09a1.36,1.36,0,0,1,.65,0,3,3,0,0,1,1,.76c.33.38.49.66.4,1s-.16.25-.38.38a2,2,0,0,0-.56.51l-.15.16C90.05,111.45,90.66,111.45,91.07,111.46Z" class="cls-6"/><path data-cppathid="10029" transform="translate(0 -0.9)" d="M13,188.8c-1.1.16-5.11-4.51-6.63-15S2.7,148.55,2.7,148.55L47.47,142s1.9,10.29,3.5,21.26c1,7,.11,10.25-5.77,14.66C35.19,185.46,13,188.8,13,188.8Z" class="cls-10"/><path data-cppathid="10030" transform="translate(0 -0.9)" d="M12.8,189.1c-1.09.16-5.11-4.51-6.63-15s-3.69-25.28-3.69-25.28l44.77-6.52s1.9,10.28,3.5,21.26c1,7,.11,10.25-5.77,14.66C35,185.77,12.8,189.1,12.8,189.1Z" class="cls-4"/><path data-cppathid="10031" transform="translate(0 -0.9)" d="M33.32,183.79a13.59,13.59,0,0,0,6.32-4.46,10,10,0,0,0,2.12-5.54,19.51,19.51,0,0,0,6.45-1.33,5.79,5.79,0,0,0,3.34-3.31s-1.28,5.17-5.16,8C41.39,180.86,33.32,183.79,33.32,183.79Z" class="cls-11"/><path data-cppathid="10032" transform="translate(0 -0.9)" d="M33.54,183.79a13.65,13.65,0,0,0,6.31-4.47A10,10,0,0,0,42,173.79a19.32,19.32,0,0,0,6.45-1.34,5.77,5.77,0,0,0,3.34-3.3s-1.27,5.17-5.16,8C41.61,180.86,33.54,183.79,33.54,183.79Z" class="cls-4"/><path data-cppathid="10033" transform="translate(0 -0.9)" d="M12.1,166.11a.12.12,0,0,1-.08,0,.09.09,0,0,1-.11-.08.17.17,0,0,1,0-.12,13.47,13.47,0,0,0,1.43-2.8,12.9,12.9,0,0,0,.81-2.88,2.64,2.64,0,0,0,.05-.68.39.39,0,0,0-.21-.33,1.42,1.42,0,0,0-.3-.14c-.06,0-.11-.05-.11-.09a.14.14,0,0,1,.08-.14,1.45,1.45,0,0,1,.62-.25,2.14,2.14,0,0,1,1.11.29c.43.22.67.4.7.64a.65.65,0,0,1-.14.4,3.3,3.3,0,0,0-.23.67.53.53,0,0,1,0,.15,8.46,8.46,0,0,0,1.25-.51.76.76,0,0,0,.46-.4.48.48,0,0,1,.39-.25,3.52,3.52,0,0,1,1,.36c.42.26.85.47.9.84a.37.37,0,0,1-.24.38c-.25.12-.28.24-.4.6-.27.83-.56,1.67-.9,2.45a2.51,2.51,0,0,1,1.61,1.64.87.87,0,0,1-.74,1.11c-.39.06-.63-.13-1-.73a2.68,2.68,0,0,0-.54-.58,9.86,9.86,0,0,1-1.06,1.55,10.5,10.5,0,0,1-4.61,3.31l-.16.05c-.07,0-.12,0-.13-.07a.14.14,0,0,1,.07-.12,15.52,15.52,0,0,0,3.77-3.78,14.38,14.38,0,0,0,1-1.79,5.77,5.77,0,0,0-2.17-.91A8.26,8.26,0,0,1,12.1,166.11Zm4.71-2.28a12.74,12.74,0,0,0,.58-2.14,2.39,2.39,0,0,0,0-.56c0-.07,0-.08-.09-.07a2.18,2.18,0,0,0-.42.18c-.18.08-.39.18-.59.29a1.39,1.39,0,0,1-.45.22.77.77,0,0,1-.45-.1,9.83,9.83,0,0,1-1,1.91A12.37,12.37,0,0,1,16.81,163.83Z" class="cls-6"/><path data-cppathid="10034" transform="translate(0 -0.9)" d="M26.71,165.77a10.17,10.17,0,0,1-4.46,2.6c-.09,0-.15,0-.15-.06s0-.09.08-.13a13.93,13.93,0,0,0,3.6-3.22,12.52,12.52,0,0,0,2.32-4.55,3.39,3.39,0,0,0,.16-.8c0-.07-.05-.09-.14-.08l-.17.06c-.44.17-1.11.47-1.52.68a3.82,3.82,0,0,0-.64.48.91.91,0,0,1-.53.32,1.44,1.44,0,0,1-.92-.38c-.38-.3-.74-.55-.79-.89a1.13,1.13,0,0,1,0-.37c0-.1.05-.14.09-.15a.22.22,0,0,1,.18.06,2.51,2.51,0,0,0,.45.2,1.41,1.41,0,0,0,.57.08,5.85,5.85,0,0,0,.76-.21c.59-.2,1.41-.49,1.91-.68.29-.11.28-.11.5-.44a.57.57,0,0,1,.41-.24,2.89,2.89,0,0,1,1.2.33c.58.28,1.06.55,1.12.94s-.11.34-.37.51-.31.28-.47.73A16.53,16.53,0,0,1,29,162.7a5.33,5.33,0,0,1,2.24.42,2.15,2.15,0,0,1,1.44,1.58.91.91,0,0,1-.81,1.09c-.55.08-.83-.16-1.29-.92a4.66,4.66,0,0,0-1.78-1.8A13,13,0,0,1,26.71,165.77Z" class="cls-6"/><path data-cppathid="10035" transform="translate(0 -0.9)" d="M39.73,157.33c.26-.08.26-.12.39-.39a.54.54,0,0,1,.37-.24,2.68,2.68,0,0,1,1.14.38c.52.28.86.54.91.86a.52.52,0,0,1-.28.45c-.25.15-.28.27-.41.66a13.25,13.25,0,0,1-2.92,5.41,11.64,11.64,0,0,1-4.32,2.92l-.2.07a.11.11,0,0,1-.13-.07.14.14,0,0,1,.06-.12A15.25,15.25,0,0,0,38,163.6a13.53,13.53,0,0,0,2.12-4.72,2.93,2.93,0,0,0,.07-.65c0-.07,0-.08-.12-.07a2.34,2.34,0,0,0-.35.13l-.45.22a1.36,1.36,0,0,1-.44.19,1.4,1.4,0,0,1-.68-.12,9.83,9.83,0,0,1-1.06,1.81,7.66,7.66,0,0,1-2.46,2.36c-.09.05-.16,0-.17-.05s0-.07,0-.12A17.09,17.09,0,0,0,36,159.9,15.38,15.38,0,0,0,37,157a2.53,2.53,0,0,0,.1-.78.37.37,0,0,0-.23-.3l-.28-.1a.15.15,0,0,1-.13-.09.23.23,0,0,1,.08-.14,1.35,1.35,0,0,1,.58-.3,2.9,2.9,0,0,1,1.18.33c.46.21.71.42.76.78,0,.2,0,.29-.19.49a2,2,0,0,0-.33.69c0,.06-.05.13-.07.21C38.78,157.72,39.34,157.49,39.73,157.33Z" class="cls-6"/><path data-cppathid="10036" transform="translate(0 -0.9)" d="M61.28,182.16c-1.1,0-4.16-5.4-3.66-15.95s1.2-25.52,1.2-25.52L104,142.81s-.09,10.46-.62,21.54c-.33,7.11-.45,17.29-.45,17.29Z" class="cls-12"/><path data-cppathid="10037" transform="translate(0 -0.9)" d="M61,182.42c-1.11,0-4.16-5.4-3.67-15.95l1.21-25.53,45.18,2.13s-.09,10.46-.61,21.54c-.33,7.1-.45,17.29-.45,17.29Z" class="cls-4"/><path data-cppathid="10038" transform="translate(0 -0.9)" d="M65.49,162s-.06,0-.09,0a.08.08,0,0,1-.09-.1.14.14,0,0,1,.06-.11,13.59,13.59,0,0,0,1.94-2.47,13.08,13.08,0,0,0,1.34-2.67,2.39,2.39,0,0,0,.18-.67.37.37,0,0,0-.14-.35,1.26,1.26,0,0,0-.27-.2c-.06,0-.1-.07-.09-.12a.16.16,0,0,1,.1-.12,1.52,1.52,0,0,1,.66-.12,2,2,0,0,1,1,.5c.38.29.58.51.57.75a.7.7,0,0,1-.21.37,2.88,2.88,0,0,0-.36.62.42.42,0,0,1-.07.13,7.68,7.68,0,0,0,1.31-.26.76.76,0,0,0,.54-.31.48.48,0,0,1,.43-.16,2.93,2.93,0,0,1,.94.55c.36.32.74.62.72,1a.38.38,0,0,1-.31.33c-.27.07-.32.18-.5.51-.43.77-.87,1.53-1.35,2.24a2.55,2.55,0,0,1,1.27,1.91.88.88,0,0,1-.95,1c-.39,0-.59-.25-.86-.91a2.84,2.84,0,0,0-.42-.68,11,11,0,0,1-6.5,3.69l-.17,0c-.07,0-.11,0-.11-.09s0-.08.09-.11a15.31,15.31,0,0,0,4.42-3,14.15,14.15,0,0,0,1.34-1.56,5.87,5.87,0,0,0-2-1.31A8.2,8.2,0,0,1,65.49,162Zm5.05-1.34a12.68,12.68,0,0,0,1-2,3.05,3.05,0,0,0,.15-.54c0-.07,0-.09-.08-.09s-.31.06-.44.09l-.64.18a1.23,1.23,0,0,1-.48.13.85.85,0,0,1-.43-.19,9.16,9.16,0,0,1-1.33,1.7A11.52,11.52,0,0,1,70.54,160.66Z" class="cls-6"/><path data-cppathid="10039" transform="translate(0 -0.9)" d="M79.89,164.45a10.14,10.14,0,0,1-4.88,1.7c-.08,0-.13-.05-.13-.09s0-.08.1-.1a13.78,13.78,0,0,0,4.16-2.49,12.53,12.53,0,0,0,3.13-4,3.29,3.29,0,0,0,.32-.76c0-.07,0-.1-.12-.1a.68.68,0,0,0-.19,0c-.46.09-1.17.25-1.61.38a3,3,0,0,0-.72.35.94.94,0,0,1-.58.21,1.43,1.43,0,0,1-.83-.55c-.32-.36-.63-.68-.61-1a1.08,1.08,0,0,1,.07-.36c0-.1.07-.14.12-.14a.28.28,0,0,1,.16.1,2.3,2.3,0,0,0,.41.28,1.28,1.28,0,0,0,.54.18A4.4,4.4,0,0,0,80,158c.62-.08,1.48-.21,2-.3.31-.05.3-.05.58-.33a.55.55,0,0,1,.44-.16,2.74,2.74,0,0,1,1.12.55c.52.39.94.75.92,1.14s-.17.31-.46.43-.36.22-.6.63a16.67,16.67,0,0,1-1.34,1.91,5.4,5.4,0,0,1,2.12.84,2.15,2.15,0,0,1,1.1,1.82.89.89,0,0,1-1,.92c-.56,0-.79-.31-1.1-1.14a4.61,4.61,0,0,0-1.4-2.11A12.84,12.84,0,0,1,79.89,164.45Z" class="cls-6"/><path data-cppathid="10040" transform="translate(0 -0.9)" d="M94.28,158.65c.27,0,.29-.07.47-.31a.57.57,0,0,1,.4-.17,2.72,2.72,0,0,1,1,.6c.46.37.74.69.72,1s-.2.32-.36.39-.33.2-.53.56a13.09,13.09,0,0,1-3.9,4.75,11.61,11.61,0,0,1-4.79,2l-.21,0a.1.1,0,0,1-.11-.09.12.12,0,0,1,.08-.11,15.44,15.44,0,0,0,4.27-2.9,13.51,13.51,0,0,0,3-4.23,2.76,2.76,0,0,0,.19-.62c0-.07,0-.09-.1-.09l-.37.05a4.27,4.27,0,0,1-.48.13,1.51,1.51,0,0,1-.47.11,1.45,1.45,0,0,1-.65-.24,10.08,10.08,0,0,1-1.38,1.57A7.74,7.74,0,0,1,88.23,163c-.1,0-.17,0-.17-.07a.2.2,0,0,1,.06-.12,17,17,0,0,0,2-2.34,16.57,16.57,0,0,0,1.5-2.63,2.54,2.54,0,0,0,.25-.75.38.38,0,0,0-.17-.33l-.26-.15c-.07,0-.11-.08-.11-.12a.24.24,0,0,1,.11-.12,1.29,1.29,0,0,1,.62-.18,3,3,0,0,1,1.1.54c.41.3.62.55.6.91s-.09.28-.28.45a2,2,0,0,0-.45.61c0,.06-.08.12-.11.19A13,13,0,0,0,94.28,158.65Z" class="cls-6"/><path data-cppathid="10041" transform="translate(0 -0.9)" d="M115.44,184.61c-1.1.06-4.68-5-5.25-15.49l-1.38-25.52L154,141.16s1,10.41,1.56,21.49c.39,7.1-.82,10.22-7.07,14.07C137.82,183.3,115.44,184.61,115.44,184.61Z" class="cls-13"/><path data-cppathid="10042" transform="translate(0 -0.9)" d="M115.2,184.9c-1.11.06-4.69-5-5.26-15.5l-1.38-25.52,45.18-2.44s1,10.42,1.56,21.49c.38,7.1-.82,10.22-7.07,14.08C137.58,183.58,115.2,184.9,115.2,184.9Z" class="cls-4"/><path data-cppathid="10043" transform="translate(0 -0.9)" d="M136.11,181.46a13.58,13.58,0,0,0,6.7-3.87,10.1,10.1,0,0,0,2.61-5.32,19.37,19.37,0,0,0,6.54-.75,5.75,5.75,0,0,0,3.63-3s-1.74,5-5.87,7.53C144.42,179.28,136.11,181.46,136.11,181.46Z" class="cls-14"/><path data-cppathid="10044" transform="translate(0 -0.9)" d="M136.33,181.48a13.66,13.66,0,0,0,6.69-3.87,10,10,0,0,0,2.61-5.32,19.37,19.37,0,0,0,6.54-.75,5.77,5.77,0,0,0,3.63-3s-1.74,5-5.87,7.53C144.63,179.29,136.33,181.48,136.33,181.48Z" class="cls-4"/><path data-cppathid="10045" transform="translate(0 -0.9)" d="M117.59,161.94s0,0-.08,0a.09.09,0,0,1-.1-.09s0-.07,0-.12a14.27,14.27,0,0,0,1.68-2.66,13.55,13.55,0,0,0,1.07-2.79,2.37,2.37,0,0,0,.1-.68.39.39,0,0,0-.17-.34,1.48,1.48,0,0,0-.29-.17c-.06,0-.11-.06-.11-.1a.17.17,0,0,1,.09-.13,1.36,1.36,0,0,1,.65-.19,2,2,0,0,1,1.08.39c.4.26.62.45.64.69a.73.73,0,0,1-.18.39,3,3,0,0,0-.29.65.42.42,0,0,1-.06.14,8,8,0,0,0,1.28-.39.77.77,0,0,0,.5-.36.49.49,0,0,1,.41-.21,3,3,0,0,1,1,.45c.39.29.8.55.82.91a.4.4,0,0,1-.28.37c-.26.1-.3.21-.44.55-.36.81-.72,1.61-1.13,2.37a2.51,2.51,0,0,1,1.46,1.77.87.87,0,0,1-.84,1c-.39,0-.61-.19-1-.82A2.84,2.84,0,0,0,123,162a9.94,9.94,0,0,1-1.2,1.45,10.52,10.52,0,0,1-4.89,2.88l-.17,0c-.07,0-.11,0-.11-.07a.12.12,0,0,1,.07-.12,15.48,15.48,0,0,0,4.1-3.42,15,15,0,0,0,1.17-1.69A5.74,5.74,0,0,0,119.9,160,8.27,8.27,0,0,1,117.59,161.94Zm4.9-1.85a13.25,13.25,0,0,0,.77-2.08,2.93,2.93,0,0,0,.09-.55c0-.07,0-.08-.08-.08a3.18,3.18,0,0,0-.43.13,6.19,6.19,0,0,0-.62.25,1.8,1.8,0,0,1-.47.18.85.85,0,0,1-.44-.15,10.36,10.36,0,0,1-1.15,1.82A12.2,12.2,0,0,1,122.49,160.09Z" class="cls-6"/><path data-cppathid="10046" transform="translate(0 -0.9)" d="M132.17,162.92a10.2,10.2,0,0,1-4.68,2.18c-.08,0-.14,0-.14-.07a.13.13,0,0,1,.09-.12,13.8,13.8,0,0,0,3.88-2.89,12.55,12.55,0,0,0,2.72-4.31,3.69,3.69,0,0,0,.24-.79c0-.07-.05-.09-.14-.09l-.18,0c-.45.14-1.14.37-1.57.55a3.25,3.25,0,0,0-.67.41,1,1,0,0,1-.57.27,1.44,1.44,0,0,1-.88-.45c-.35-.34-.69-.63-.71-1a1.3,1.3,0,0,1,0-.37c0-.1.06-.14.1-.15a.29.29,0,0,1,.18.08,1.78,1.78,0,0,0,.43.24,1.2,1.2,0,0,0,.55.13,3.92,3.92,0,0,0,.78-.14c.61-.15,1.46-.36,2-.5.3-.09.29-.09.54-.4a.56.56,0,0,1,.42-.2,2.91,2.91,0,0,1,1.17.44c.56.34,1,.65,1,1s-.14.33-.41.47-.34.26-.54.69a16.74,16.74,0,0,1-1.14,2,5.36,5.36,0,0,1,2.2.62,2.13,2.13,0,0,1,1.28,1.7.9.9,0,0,1-.9,1c-.56,0-.81-.24-1.2-1a4.6,4.6,0,0,0-1.61-2A12.13,12.13,0,0,1,132.17,162.92Z" class="cls-6"/><path data-cppathid="10047" transform="translate(0 -0.9)" d="M145.9,155.69c.26-.05.28-.1.43-.36a.55.55,0,0,1,.38-.2,2.68,2.68,0,0,1,1.11.49c.49.32.8.61.82.93a.51.51,0,0,1-.31.43c-.26.12-.31.24-.47.61a13.15,13.15,0,0,1-3.4,5.12,11.47,11.47,0,0,1-4.57,2.52l-.2.06c-.07,0-.12,0-.12-.08a.13.13,0,0,1,.06-.12,15.25,15.25,0,0,0,4-3.31,13.69,13.69,0,0,0,2.54-4.52,2.81,2.81,0,0,0,.13-.63c0-.07,0-.09-.12-.08a1.9,1.9,0,0,0-.36.09l-.46.18a1.37,1.37,0,0,1-.46.15,1.4,1.4,0,0,1-.67-.18A9.69,9.69,0,0,1,143,158.5a7.64,7.64,0,0,1-2.66,2.12c-.1,0-.17,0-.17-.06s0-.07,0-.11a17.83,17.83,0,0,0,1.77-2.54,16.39,16.39,0,0,0,1.22-2.77,2.39,2.39,0,0,0,.17-.77.36.36,0,0,0-.2-.31,1.72,1.72,0,0,0-.27-.13c-.07,0-.12-.06-.12-.1a.21.21,0,0,1,.09-.13,1.34,1.34,0,0,1,.61-.25,3.09,3.09,0,0,1,1.14.43c.44.26.67.48.69.85,0,.21-.07.28-.24.47a1.94,1.94,0,0,0-.38.66.93.93,0,0,0-.09.2C144.92,156,145.5,155.81,145.9,155.69Z" class="cls-6"/><path data-cppathid="10048" transform="translate(0 -0.9)" d="M108.29,133.39c-1.1.06-4.68-5-5.25-15.5l-1.38-25.52,45.17-2.44s1,10.42,1.56,21.49c.39,7.1-.82,10.22-7.07,14.08C130.68,132.07,108.29,133.39,108.29,133.39Z" class="cls-15"/><path data-cppathid="10049" transform="translate(0 -0.9)" d="M108.05,133.67c-1.11.06-4.69-5-5.26-15.5l-1.38-25.51,45.18-2.45s1,10.42,1.56,21.5c.38,7.09-.82,10.21-7.07,14.07C130.43,132.35,108.05,133.67,108.05,133.67Z" class="cls-4"/><path data-cppathid="10050" transform="translate(0 -0.9)" d="M129,130.23a13.57,13.57,0,0,0,6.69-3.87,10.07,10.07,0,0,0,2.61-5.32,19.37,19.37,0,0,0,6.54-.75,5.75,5.75,0,0,0,3.63-3s-1.74,5-5.87,7.53C137.27,128.05,129,130.23,129,130.23Z" class="cls-16"/><path data-cppathid="10051" transform="translate(0 -0.9)" d="M129.18,130.25a13.57,13.57,0,0,0,6.69-3.87,10,10,0,0,0,2.61-5.32,19.44,19.44,0,0,0,6.55-.75,5.77,5.77,0,0,0,3.62-3s-1.73,5-5.86,7.53C137.48,128.07,129.18,130.25,129.18,130.25Z" class="cls-4"/><path data-cppathid="10052" transform="translate(0 -0.9)" d="M109.44,112.15s0,0-.08,0a.09.09,0,0,1-.1-.1s0-.07,0-.11a14.27,14.27,0,0,0,1.68-2.66,13.77,13.77,0,0,0,1.07-2.79,2.37,2.37,0,0,0,.1-.68.39.39,0,0,0-.17-.34,1.85,1.85,0,0,0-.29-.17c-.06,0-.11-.06-.11-.11a.19.19,0,0,1,.09-.13,1.63,1.63,0,0,1,.65-.19,2.17,2.17,0,0,1,1.08.39c.4.26.62.46.64.7a.73.73,0,0,1-.18.39,3,3,0,0,0-.29.65.53.53,0,0,1-.06.14,8,8,0,0,0,1.28-.39.75.75,0,0,0,.5-.37.51.51,0,0,1,.41-.2,3,3,0,0,1,1,.45c.39.29.8.55.82.91a.39.39,0,0,1-.28.36c-.26.1-.3.22-.44.56-.36.81-.72,1.61-1.13,2.36a2.54,2.54,0,0,1,1.46,1.78.87.87,0,0,1-.84,1c-.39,0-.61-.19-1-.82a2.84,2.84,0,0,0-.48-.63,9.94,9.94,0,0,1-1.2,1.45,10.42,10.42,0,0,1-4.89,2.87l-.17,0c-.07,0-.11,0-.12-.08a.14.14,0,0,1,.08-.11,15.64,15.64,0,0,0,4.1-3.42,15.92,15.92,0,0,0,1.17-1.69,5.74,5.74,0,0,0-2.08-1.11A8.27,8.27,0,0,1,109.44,112.15Zm4.9-1.86a12.77,12.77,0,0,0,.77-2.07,2.93,2.93,0,0,0,.09-.55c0-.07,0-.09-.09-.08a2.34,2.34,0,0,0-.42.13,5.36,5.36,0,0,0-.62.25,1.8,1.8,0,0,1-.47.18,1,1,0,0,1-.44-.15,10.36,10.36,0,0,1-1.15,1.82A13,13,0,0,1,114.34,110.29Z" class="cls-6"/><path data-cppathid="10053" transform="translate(0 -0.9)" d="M124,113.12a10.12,10.12,0,0,1-4.68,2.19c-.08,0-.14,0-.14-.07a.12.12,0,0,1,.09-.12,14,14,0,0,0,3.88-2.89,12.55,12.55,0,0,0,2.72-4.31,3.69,3.69,0,0,0,.24-.79c0-.07,0-.09-.14-.09a.74.74,0,0,0-.18,0c-.45.14-1.14.37-1.57.55a3.62,3.62,0,0,0-.68.41.9.9,0,0,1-.56.27,1.46,1.46,0,0,1-.88-.46c-.35-.33-.69-.62-.71-.95a1.3,1.3,0,0,1,0-.37c0-.1.06-.14.1-.15a.29.29,0,0,1,.18.08,2.22,2.22,0,0,0,.43.24,1.2,1.2,0,0,0,.55.13,5.24,5.24,0,0,0,.78-.14l2-.5c.3-.09.29-.09.54-.4a.56.56,0,0,1,.42-.2,2.91,2.91,0,0,1,1.17.44c.55.33,1,.65,1,1s-.14.33-.41.47-.34.25-.54.69a16.74,16.74,0,0,1-1.14,2,5.21,5.21,0,0,1,2.2.62,2.13,2.13,0,0,1,1.28,1.7.91.91,0,0,1-.9,1c-.56,0-.81-.24-1.2-1a4.6,4.6,0,0,0-1.61-2A12.63,12.63,0,0,1,124,113.12Z" class="cls-6"/><path data-cppathid="10054" transform="translate(0 -0.9)" d="M137.75,105.9c.26-.06.28-.1.43-.36a.52.52,0,0,1,.38-.2,2.76,2.76,0,0,1,1.11.48c.49.33.8.62.82.94a.51.51,0,0,1-.31.43c-.26.12-.31.24-.47.61a13.22,13.22,0,0,1-3.4,5.12,11.59,11.59,0,0,1-4.57,2.52.84.84,0,0,1-.2,0c-.07,0-.12,0-.12-.07a.13.13,0,0,1,.06-.12,15.45,15.45,0,0,0,4-3.31,13.79,13.79,0,0,0,2.54-4.52,2.88,2.88,0,0,0,.13-.64c0-.07,0-.08-.12-.07a1.9,1.9,0,0,0-.36.09l-.46.18a1.37,1.37,0,0,1-.46.15A1.4,1.4,0,0,1,136,107a9.69,9.69,0,0,1-1.21,1.71,7.73,7.73,0,0,1-2.66,2.12c-.1,0-.17,0-.17-.06s0-.07.05-.11a17.83,17.83,0,0,0,1.77-2.54,16.14,16.14,0,0,0,1.22-2.78,2.28,2.28,0,0,0,.17-.76.35.35,0,0,0-.2-.31,1.72,1.72,0,0,0-.27-.13c-.07,0-.12-.06-.12-.1s0-.09.09-.14a1.45,1.45,0,0,1,.6-.24,3.07,3.07,0,0,1,1.15.43c.43.26.67.48.69.85,0,.21-.07.28-.24.47a2,2,0,0,0-.38.65,1,1,0,0,0-.09.21C136.77,106.21,137.35,106,137.75,105.9Z" class="cls-6"/></g></g></g></svg>