<?xml version="1.0" encoding="UTF-8"?>
<svg xmlns="http://www.w3.org/2000/svg" onmouseup="{ if(window.parent.document.onmouseup) window.parent.document.onmouseup(arguments[0]);}" viewBox="0 0 148.32 86.2" xmlns:xlink="http://www.w3.org/1999/xlink"><defs><style>.cls-1{isolation:isolate;}.cls-2{fill:#06c106;}.cls-3,.cls-4,.cls-6,.cls-7,.cls-8{stroke:#a39d9d;}.cls-3{fill:url(#linear-gradient);}.cls-4{fill:#f9ec93;mix-blend-mode:darken;}.cls-5{fill:#d16d00;}.cls-6{fill:url(#linear-gradient-2);}.cls-7{fill:url(#linear-gradient-3);}.cls-8{fill:url(#linear-gradient-4);}</style><linearGradient gradientUnits="userSpaceOnUse" gradientTransform="translate(-6.27 39.06) rotate(2.69)" y2="-1.01" x2="35.01" y1="40.3" x1="35.01" id="linear-gradient"><stop stop-color="#dbdbdb" offset="0"/><stop stop-color="#e8e8e8" offset="0.13"/><stop stop-color="#f9f9f9" offset="0.36"/><stop stop-color="#fff" offset="0.53"/><stop stop-color="#fdfdfd" offset="0.74"/><stop stop-color="#f5f5f5" offset="0.83"/><stop stop-color="#e8e8e8" offset="0.91"/><stop stop-color="#d6d6d6" offset="0.97"/><stop stop-color="#cbcbcb" offset="1"/></linearGradient><linearGradient xlink:href="#linear-gradient" gradientTransform="translate(-13.36 96.24) rotate(14.67)" y2="-76.29" x2="80.54" y1="-34.98" x1="80.54" id="linear-gradient-2"/><linearGradient xlink:href="#linear-gradient" gradientTransform="translate(-1.9 14.5) rotate(-3.1)" y2="32.85" x2="124.76" y1="74.17" x1="124.76" id="linear-gradient-3"/><linearGradient gradientUnits="userSpaceOnUse" gradientTransform="translate(-14.94 -37.02) rotate(-6.52)" y2="124.55" x2="139.15" y1="129.57" x1="141.24" id="linear-gradient-4"><stop stop-color="#dbdbdb" offset="0.02"/><stop stop-color="#e7e7e7" offset="0.23"/><stop stop-color="#fff" offset="0.53"/><stop stop-color="#f8f8f8" offset="0.65"/><stop stop-color="#e5e5e5" offset="0.83"/><stop stop-color="#cbcbcb" offset="1"/></linearGradient></defs><g class="cls-1"><g data-name="Layer 2" id="Layer_2"><g data-name="tasks completed jp" id="tasks_completed_jp"><path data-cppathid="10000" transform="translate(-0.81 -0.81)" d="M7.46,11.14,6.92,9.79,8.62,9a29,29,0,0,1,1.53,3.78l-1.79.72L8,12.67l-1.44.18v9.07h-2v-8.8l-3.23.36L1,11.41h1.8A26,26,0,0,0,4.31,8.8C3.53,8.27,2.37,7.52.81,6.56l.9-1.8.9.54c.18-.42.35-.81.53-1.17L4.58.81l1.89,1L4.22,6.29l1,.81L7.28,3.32,9.07,4.49,5.12,11.32ZM2.79,20.3l-2-.53A31,31,0,0,0,2,14.55l1.79.36A37.69,37.69,0,0,1,2.79,20.3Zm7-1.52L8,19.05a22.1,22.1,0,0,1-.81-4.23L9,14.55Q9.43,17.16,9.79,18.78ZM15.36,1.71l-.9,1.79h4.68l.18-.18,1.34,1.17q-.27.45-.54,1c-.17.36-.39.73-.62,1.12s-.39.65-.45.77L17.16,9.88a16.83,16.83,0,0,0,2.16,1.35,26.33,26.33,0,0,0,3,1.53,4.77,4.77,0,0,0-.63.9,2.81,2.81,0,0,0-.45,1.16c-.84-.41-1.85-1-3.05-1.7q-1.89-1.35-2.43-1.8c-1,1-1.79,1.74-2.51,2.34.06,0-.81.6-2.61,1.79a11.68,11.68,0,0,0-1.44-1.79A25.18,25.18,0,0,0,14.29,10,15.66,15.66,0,0,1,12.22,7.1,13.06,13.06,0,0,1,10.69,9,10.47,10.47,0,0,0,9,7.64a38.83,38.83,0,0,0,2.52-3A26.94,26.94,0,0,0,13.39.9Zm5,18.5L19.5,22q-1.17-.45-3.33-1.17c-.84-.3-2.66-.78-5.48-1.43l.72-1.89c2.39.54,3.8.87,4.22,1A30.57,30.57,0,0,1,20.39,20.21ZM18,5.21H13.39l-.09.27a7.93,7.93,0,0,0,1.08,1.8,6,6,0,0,0,1.25,1.26A8.36,8.36,0,0,0,16.89,7Q17,6.83,18,5.21Zm-4.58,9.61,1-1.52A19.32,19.32,0,0,1,18.06,15l-1.17,1.8C15.09,15.72,13.93,15.06,13.39,14.82Z" class="cls-2"/><path data-cppathid="10001" transform="translate(-0.81 -0.81)" d="M31,5.84l.62-.27.81,1.35L30.82,8.18V9.52A23.87,23.87,0,0,1,35,7.1a8.4,8.4,0,0,1,2.78-.54,5.86,5.86,0,0,1,4.32,1.71,6.4,6.4,0,0,1,1.61,4.58,6.54,6.54,0,0,1-1.07,3.68,6.71,6.71,0,0,1-3.06,2.7,17.68,17.68,0,0,1-5.84,1.43A6.5,6.5,0,0,0,33,18.51c3,0,5.15-.54,6.47-1.62a4.7,4.7,0,0,0,2-4,4.6,4.6,0,0,0-1.08-3.24,3.66,3.66,0,0,0-2.7-1.07c-1.79,0-4.1,1-6.91,3.14q0,4.41.18,9.61l-2.25.09V13.66l-2,2.24a3.41,3.41,0,0,1-.49.72c-.21.24-.49.6-.85,1.08L23.63,16c.84-.84,2.51-2.45,5-4.85,0-.9,0-1.92.09-3.05-.72.12-1.21.19-1.48.22l-1.17.14a10.9,10.9,0,0,1-1.21.09V6.38a29.07,29.07,0,0,0,3.86-.09c.06-.54.1-1.26.13-2.16s.05-1.7.05-2.42l2.43.18L31.09,4A12.2,12.2,0,0,0,31,5.84Z" class="cls-2"/><path data-cppathid="10002" transform="translate(-0.81 -0.81)" d="M50,21a3.88,3.88,0,0,0-.13-1c-.09-.33-.17-.64-.23-.94,3.54,0,6-.51,7.37-1.53a4.3,4.3,0,0,0,2-3.59,3.93,3.93,0,0,0-.81-2.7,3.17,3.17,0,0,0-2.34-.9,14.49,14.49,0,0,0-1.7.18q-.27,0-7.73,1.53l-.45-2c.24-.06,1-.18,2.2-.36a23,23,0,0,1,2.29-.27l4.22-.81h1.17a5.11,5.11,0,0,1,3.78,1.44A5.39,5.39,0,0,1,61,14a5.61,5.61,0,0,1-2.15,4.49C57,20,54,20.84,50,21Z" class="cls-2"/><path data-cppathid="10003" transform="translate(-0.81 -0.81)" d="M71.25,5.93a43.94,43.94,0,0,0,4.94-1.08l.09,2.07a41.89,41.89,0,0,1-5.66,1,92.56,92.56,0,0,1-5.3,13.38l-2-.9q1.35-2.68,2.52-5.3c.29-.83.68-1.9,1.16-3.19S68,9.34,68.37,8.09a31.5,31.5,0,0,1-3.86.09l.09-2.07A37.89,37.89,0,0,0,69,6.2c.36-1.2.72-2.64,1.08-4.31l2.33.72c-.18.6-.36,1.15-.53,1.66S71.48,5.33,71.25,5.93Zm-.36,9.25,2,.18A6.27,6.27,0,0,0,73,17a5.52,5.52,0,0,0,.54,1,3.16,3.16,0,0,0,1.35.54,14.1,14.1,0,0,0,3.77.36,32.74,32.74,0,0,0,4.32-.36v2.15q-3.06.27-3.69.27a19.46,19.46,0,0,1-4.85-.45,4.78,4.78,0,0,1-2.34-1.16,3.91,3.91,0,0,1-1-1.53A8.12,8.12,0,0,1,70.89,15.18ZM82.12,8.45,82,10.51q-1.71-.09-3.24-.09a12.44,12.44,0,0,0-1.7.09l-1.31.09c-.75.06-1.66.18-2.74.36l-.36-2c1-.18,1.9-.29,2.65-.36s1.22-.08,1.4-.08A53.81,53.81,0,0,1,82.12,8.45Z" class="cls-2"/><path data-cppathid="10004" transform="translate(-0.81 -0.81)" d="M94.61,5.12h6.73l.18-.09,1.17,1.26-2.42,5.12a17.72,17.72,0,0,1-2,2.79,20.87,20.87,0,0,1-2.79,3,26.83,26.83,0,0,1-3.86,2.7,35.15,35.15,0,0,1-4.22,1.88,9,9,0,0,0-.54-1.08,5.79,5.79,0,0,0-.9-.89,25.37,25.37,0,0,0,5.12-2.25,25.42,25.42,0,0,0,4.13-3.06A38.44,38.44,0,0,0,91,11.23L92.36,9.7c1.74,1.14,3.17,2.16,4.31,3.06q1.08-1.53,1.71-2.61A18,18,0,0,0,99.82,7H93.44c-1.08,1.5-1.8,2.48-2.16,3a19.82,19.82,0,0,1-1.8,1.62,15.8,15.8,0,0,1-3.14,2.34A5.11,5.11,0,0,0,84.9,12a20.23,20.23,0,0,0,3.51-2.43A12.94,12.94,0,0,0,91.1,6.47,26.54,26.54,0,0,0,93.35,2l2.42.81C95.41,3.5,95,4.28,94.61,5.12Z" class="cls-2"/><path data-cppathid="10005" transform="translate(-0.81 -0.81)" d="M107.09,4.13H119.4l.27-.09,1.53,1.53-2.43,4.22A25.05,25.05,0,0,1,117.25,12c1.85,1.8,3.14,3.08,3.86,3.86q.72.72,3.14,3.69l-2.06,1.61a29.53,29.53,0,0,0-2.16-3q-2.16-2.52-4.13-4.49a37.33,37.33,0,0,1-4.49,4.22,28.51,28.51,0,0,1-5,3.05c-.13-.24-.36-.63-.72-1.16a2.15,2.15,0,0,1-.32-.41,1.68,1.68,0,0,0-.58-.49,28.07,28.07,0,0,0,7.72-4.76,33.64,33.64,0,0,0,5.75-7.91H107.09Z" class="cls-2"/><path data-cppathid="10006" transform="translate(-0.81 -0.81)" d="M136.2,2.88l-1.52,2.87h6.73l.36-.18,1.44,1.53q-2.07,4.76-2.6,5.66a14.93,14.93,0,0,1-2.52,3.32,17.06,17.06,0,0,1-3.77,3,30.36,30.36,0,0,1-5.39,2.24,5.9,5.9,0,0,0-1.35-2.06,33,33,0,0,0,4.76-1.71,12.53,12.53,0,0,0,3.5-2.43,17,17,0,0,0,2.61-3.23,36.6,36.6,0,0,0,1.89-4.22h-6.65a28,28,0,0,1-2.61,3.5,21.25,21.25,0,0,1-3.05,3q-.45-.54-.63-.72a4.41,4.41,0,0,0-1.08-.81,19.35,19.35,0,0,0,2.43-2.16c.47-.54,1.13-1.35,2-2.42a27.61,27.61,0,0,0,1.8-3.15A22.07,22.07,0,0,0,133.78,2Z" class="cls-2"/><path data-cppathid="10007" transform="translate(-0.81 -0.81)" d="M8.24,80.08c-1.1,0-4.16-5.4-3.66-15.94s1.2-25.53,1.2-25.53L51,40.74s-.09,10.46-.61,21.54c-.34,7.1-.46,17.29-.46,17.29Z" class="cls-3"/><path data-cppathid="10008" transform="translate(-0.81 -0.81)" d="M8,80.34c-1.1,0-4.16-5.4-3.67-16L5.51,38.87,50.7,41s-.1,10.47-.62,21.54c-.33,7.11-.45,17.29-.45,17.29Z" class="cls-4"/><path data-cppathid="10009" transform="translate(-0.81 -0.81)" d="M12.33,59a.16.16,0,0,1-.09,0,.09.09,0,0,1-.09-.1.17.17,0,0,1,.06-.11,14,14,0,0,0,1.94-2.48,12.83,12.83,0,0,0,1.34-2.67,2.44,2.44,0,0,0,.18-.66.4.4,0,0,0-.14-.36,1.72,1.72,0,0,0-.27-.2c-.06,0-.1-.07-.09-.11a.14.14,0,0,1,.1-.12,1.54,1.54,0,0,1,.66-.13,2,2,0,0,1,1,.5c.38.3.58.52.57.76a.74.74,0,0,1-.21.37,2.8,2.8,0,0,0-.36.61.61.61,0,0,1-.07.14,8.81,8.81,0,0,0,1.31-.26.77.77,0,0,0,.54-.32.54.54,0,0,1,.43-.16,3.41,3.41,0,0,1,.94.55c.36.33.74.63.72,1a.41.41,0,0,1-.31.34c-.27.07-.31.18-.5.5-.43.77-.87,1.53-1.35,2.24a2.55,2.55,0,0,1,1.27,1.91c0,.59-.36,1-.94.95-.4,0-.6-.25-.87-.91a3.05,3.05,0,0,0-.42-.68,10.82,10.82,0,0,1-6.5,3.69l-.17,0c-.07,0-.11,0-.11-.09s0-.08.09-.11a15.29,15.29,0,0,0,4.42-3,14.25,14.25,0,0,0,1.34-1.57,5.87,5.87,0,0,0-2-1.31A8,8,0,0,1,12.33,59Zm5-1.34a12.68,12.68,0,0,0,1-2,2.84,2.84,0,0,0,.15-.54c0-.07,0-.08-.08-.09a3.13,3.13,0,0,0-.44.1,4.45,4.45,0,0,0-.64.18,1.74,1.74,0,0,1-.48.13,1,1,0,0,1-.43-.19,9.85,9.85,0,0,1-1.32,1.69A12.37,12.37,0,0,1,17.38,57.64Z" class="cls-5"/><path data-cppathid="10010" transform="translate(-0.81 -0.81)" d="M26.73,61.43a10.25,10.25,0,0,1-4.87,1.71c-.09,0-.14,0-.14-.09s0-.09.1-.11A14,14,0,0,0,26,60.46a12.46,12.46,0,0,0,3.13-4,3.12,3.12,0,0,0,.32-.76c0-.07,0-.1-.12-.1l-.19,0c-.46.09-1.17.25-1.61.39a3,3,0,0,0-.72.34.94.94,0,0,1-.58.21,1.44,1.44,0,0,1-.83-.54c-.32-.37-.63-.69-.61-1a1.13,1.13,0,0,1,.07-.36c0-.09.08-.13.12-.13a.22.22,0,0,1,.16.09,2.3,2.3,0,0,0,.41.28,1.09,1.09,0,0,0,.54.18,3.62,3.62,0,0,0,.79-.06l2-.29c.31-.06.3-.06.58-.34a.55.55,0,0,1,.44-.16,2.94,2.94,0,0,1,1.12.56c.52.38.94.74.92,1.13s-.17.32-.46.43-.36.22-.6.63a16.67,16.67,0,0,1-1.34,1.91,5.4,5.4,0,0,1,2.12.85,2.15,2.15,0,0,1,1.11,1.82.91.91,0,0,1-1,.92c-.56,0-.79-.32-1.1-1.15a4.67,4.67,0,0,0-1.4-2.11A12.56,12.56,0,0,1,26.73,61.43Z" class="cls-5"/><path data-cppathid="10011" transform="translate(-0.81 -0.81)" d="M41.12,55.64c.27,0,.29-.08.46-.32a.55.55,0,0,1,.41-.16,2.8,2.8,0,0,1,1,.59c.46.38.74.7.72,1a.5.5,0,0,1-.35.39c-.28.1-.34.21-.54.56A13.3,13.3,0,0,1,39,62.48a11.56,11.56,0,0,1-4.8,2l-.21,0a.1.1,0,0,1-.11-.09.12.12,0,0,1,.08-.11,15.4,15.4,0,0,0,4.27-2.89,13.56,13.56,0,0,0,3-4.24,2.76,2.76,0,0,0,.19-.62c0-.07,0-.08-.1-.09l-.37.05-.48.14a1.24,1.24,0,0,1-.47.1,1.45,1.45,0,0,1-.65-.24,10.08,10.08,0,0,1-1.38,1.57A7.77,7.77,0,0,1,35.07,60c-.1,0-.17,0-.17-.08a.2.2,0,0,1,.06-.11,16.53,16.53,0,0,0,2-2.35,15.06,15.06,0,0,0,1.5-2.63,2.45,2.45,0,0,0,.25-.75.38.38,0,0,0-.17-.33,2.32,2.32,0,0,0-.26-.15c-.07,0-.11-.07-.1-.12s0-.08.1-.12a1.41,1.41,0,0,1,.62-.18,3,3,0,0,1,1.1.54c.41.3.62.55.6.92,0,.21-.09.27-.28.44a2,2,0,0,0-.45.61c0,.06-.08.13-.11.2C40.12,55.84,40.71,55.71,41.12,55.64Z" class="cls-5"/><path data-cppathid="10012" transform="translate(-0.81 -0.81)" d="M55.42,78.09c-1.07-.28-3-6.15-.28-16.36S61.62,37,61.62,37l43.76,11.46s-2.26,10.22-5.07,20.95c-1.8,6.88-4,16.82-4,16.82Z" class="cls-6"/><path data-cppathid="10013" transform="translate(-0.81 -0.81)" d="M55.1,78.28c-1.07-.28-3-6.15-.28-16.36S61.29,37.2,61.29,37.2l43.77,11.46S102.8,58.87,100,69.6c-1.8,6.88-4,16.82-4,16.82Z" class="cls-4"/><path data-cppathid="10014" transform="translate(-0.81 -0.81)" d="M64.61,58.06s-.07,0-.09,0a.09.09,0,0,1-.07-.12.14.14,0,0,1,.08-.1,13.61,13.61,0,0,0,2.41-2,13,13,0,0,0,1.87-2.34,2.86,2.86,0,0,0,.31-.61.41.41,0,0,0-.06-.38,1.64,1.64,0,0,0-.23-.25.14.14,0,0,1-.07-.13.19.19,0,0,1,.13-.1,1.52,1.52,0,0,1,.68,0,2,2,0,0,1,.9.7c.31.37.46.63.4.86s-.16.21-.29.31a3.48,3.48,0,0,0-.47.53.53.53,0,0,1-.1.12,8.17,8.17,0,0,0,1.34,0,.78.78,0,0,0,.59-.2.53.53,0,0,1,.45-.07,3.15,3.15,0,0,1,.81.74c.28.39.59.76.5,1.11a.4.4,0,0,1-.37.27c-.28,0-.35.11-.6.39-.58.66-1.17,1.32-1.79,1.91a2.52,2.52,0,0,1,.85,2.13.87.87,0,0,1-1.12.73c-.38-.09-.52-.36-.66-1.07a2.83,2.83,0,0,0-.27-.75,9.24,9.24,0,0,1-1.58,1,10.6,10.6,0,0,1-5.54,1.25l-.17,0c-.07,0-.1-.05-.09-.11s0-.07.11-.09a15.61,15.61,0,0,0,5-2,15.38,15.38,0,0,0,1.63-1.26,5.9,5.9,0,0,0-1.65-1.69A7.81,7.81,0,0,1,64.61,58.06Zm5.22-.27a12.36,12.36,0,0,0,1.37-1.74,3.48,3.48,0,0,0,.26-.49c0-.07,0-.09-.06-.11a3.33,3.33,0,0,0-.45,0c-.2,0-.44,0-.66,0a1.47,1.47,0,0,1-.5,0,.77.77,0,0,1-.38-.27,9.9,9.9,0,0,1-1.65,1.38A12.65,12.65,0,0,1,69.83,57.79Z" class="cls-5"/><path data-cppathid="10015" transform="translate(-0.81 -0.81)" d="M78.19,63.44a10.19,10.19,0,0,1-5.12.66c-.08,0-.13-.08-.12-.12s0-.07.13-.08a13.85,13.85,0,0,0,4.58-1.57,12.49,12.49,0,0,0,3.9-3.28,3.1,3.1,0,0,0,.46-.67c0-.07,0-.11-.09-.13l-.19,0c-.47,0-1.2,0-1.66.05a2.8,2.8,0,0,0-.77.19,1,1,0,0,1-.62.08,1.47,1.47,0,0,1-.7-.7c-.23-.43-.47-.81-.38-1.13a1.29,1.29,0,0,1,.14-.34c.06-.09.11-.12.15-.11a.29.29,0,0,1,.14.13,2.47,2.47,0,0,0,.34.36,1.36,1.36,0,0,0,.49.29,4.55,4.55,0,0,0,.78.1c.63.05,1.49.1,2,.12.32,0,.31,0,.64-.21a.57.57,0,0,1,.46-.06,2.9,2.9,0,0,1,1,.78c.42.48.76.92.66,1.3s-.23.27-.54.32-.4.14-.72.49a16,16,0,0,1-1.71,1.6,5.23,5.23,0,0,1,1.9,1.26,2.13,2.13,0,0,1,.71,2,.91.91,0,0,1-1.17.7c-.54-.15-.7-.48-.83-1.35a4.64,4.64,0,0,0-.94-2.36A12.46,12.46,0,0,1,78.19,63.44Z" class="cls-5"/><path data-cppathid="10016" transform="translate(-0.81 -0.81)" d="M93.47,60.75c.27,0,.29,0,.52-.21a.52.52,0,0,1,.43-.07,2.75,2.75,0,0,1,.9.8c.37.46.58.83.5,1.14a.51.51,0,0,1-.43.31c-.29,0-.37.13-.64.44A13.14,13.14,0,0,1,90,67a11.56,11.56,0,0,1-5.11,1,.78.78,0,0,1-.22,0,.09.09,0,0,1-.08-.11.12.12,0,0,1,.09-.09,15.63,15.63,0,0,0,4.79-1.94,13.72,13.72,0,0,0,3.78-3.53,3.34,3.34,0,0,0,.33-.57c0-.06,0-.09-.09-.11l-.37,0c-.15,0-.35,0-.5,0a1.29,1.29,0,0,1-.48,0,1.33,1.33,0,0,1-.58-.37,10.23,10.23,0,0,1-1.68,1.26,7.78,7.78,0,0,1-3.18,1.21c-.11,0-.16-.06-.15-.11a.17.17,0,0,1,.09-.1,18.3,18.3,0,0,0,2.46-1.87,16.22,16.22,0,0,0,2-2.27,2.27,2.27,0,0,0,.39-.68.35.35,0,0,0-.09-.36l-.22-.2c-.06,0-.09-.1-.08-.14s.06-.07.12-.09a1.37,1.37,0,0,1,.65,0,2.81,2.81,0,0,1,1,.76c.34.37.5.66.4,1s-.15.25-.37.38a2,2,0,0,0-.57.51,1.14,1.14,0,0,0-.14.16A11.57,11.57,0,0,0,93.47,60.75Z" class="cls-5"/><path data-cppathid="10017" transform="translate(-0.81 -0.81)" d="M108.3,82.81c-1.1.06-4.68-5-5.25-15.49L101.67,41.8l45.17-2.44s1,10.42,1.56,21.49c.39,7.1-.82,10.22-7.07,14.08C130.68,81.5,108.3,82.81,108.3,82.81Z" class="cls-7"/><path data-cppathid="10018" transform="translate(-0.81 -0.81)" d="M108.06,83.1c-1.11.06-4.69-5-5.26-15.5l-1.38-25.52,45.17-2.44s1,10.42,1.57,21.49c.38,7.1-.82,10.22-7.07,14.08C130.44,81.78,108.06,83.1,108.06,83.1Z" class="cls-4"/><path data-cppathid="10019" transform="translate(-0.81 -0.81)" d="M129,79.66a13.58,13.58,0,0,0,6.7-3.87,10.07,10.07,0,0,0,2.61-5.32,19.37,19.37,0,0,0,6.54-.75,5.75,5.75,0,0,0,3.63-3s-1.74,5-5.87,7.53C137.28,77.48,129,79.66,129,79.66Z" class="cls-8"/><path data-cppathid="10020" transform="translate(-0.81 -0.81)" d="M129.19,79.68a13.57,13.57,0,0,0,6.69-3.87,10,10,0,0,0,2.61-5.32,19.37,19.37,0,0,0,6.54-.75,5.77,5.77,0,0,0,3.63-3s-1.74,5-5.87,7.53C137.49,77.5,129.19,79.68,129.19,79.68Z" class="cls-4"/><path data-cppathid="10021" transform="translate(-0.81 -0.81)" d="M110.64,60.62a.18.18,0,0,1-.09,0,.1.1,0,0,1-.1-.1.17.17,0,0,1,0-.11,13.77,13.77,0,0,0,1.68-2.66A13.2,13.2,0,0,0,113.25,55a2.37,2.37,0,0,0,.1-.68.35.35,0,0,0-.17-.34,1.23,1.23,0,0,0-.29-.17.13.13,0,0,1-.1-.11.16.16,0,0,1,.09-.13,1.58,1.58,0,0,1,.65-.19,2.11,2.11,0,0,1,1.07.39c.41.26.63.46.64.7a.65.65,0,0,1-.17.39,2.57,2.57,0,0,0-.29.65,1.47,1.47,0,0,1-.06.14,8.33,8.33,0,0,0,1.28-.39.77.77,0,0,0,.5-.37.51.51,0,0,1,.41-.2,3.08,3.08,0,0,1,1,.45c.39.29.8.55.82.91a.39.39,0,0,1-.27.36c-.26.1-.3.22-.45.56-.35.81-.71,1.61-1.12,2.36a2.57,2.57,0,0,1,1.46,1.78.88.88,0,0,1-.85,1c-.39,0-.61-.19-.95-.82a2.89,2.89,0,0,0-.49-.63,9.88,9.88,0,0,1-1.19,1.45A10.5,10.5,0,0,1,110,65a.73.73,0,0,1-.16,0c-.07,0-.12,0-.12-.08a.12.12,0,0,1,.08-.11,15.59,15.59,0,0,0,4.09-3.42A13.43,13.43,0,0,0,115,59.76a5.66,5.66,0,0,0-2.08-1.11A8,8,0,0,1,110.64,60.62Zm4.89-1.85a11.9,11.9,0,0,0,.77-2.07,3.1,3.1,0,0,0,.1-.55c0-.07,0-.09-.09-.08a2.4,2.4,0,0,0-.43.13,6,6,0,0,0-.61.25,1.94,1.94,0,0,1-.47.18,1,1,0,0,1-.45-.15,9.76,9.76,0,0,1-1.14,1.82A12.72,12.72,0,0,1,115.53,58.77Z" class="cls-5"/><path data-cppathid="10022" transform="translate(-0.81 -0.81)" d="M125.22,61.6a10.12,10.12,0,0,1-4.68,2.19.13.13,0,0,1-.15-.07s0-.09.1-.12a14.14,14.14,0,0,0,3.88-2.89,12.67,12.67,0,0,0,2.71-4.31,3.19,3.19,0,0,0,.24-.79c0-.07,0-.09-.13-.09a.65.65,0,0,0-.18,0c-.46.14-1.14.37-1.57.55a3.07,3.07,0,0,0-.68.41.93.93,0,0,1-.56.27,1.43,1.43,0,0,1-.88-.46c-.36-.33-.69-.62-.71-.95a1.25,1.25,0,0,1,0-.37c0-.1.07-.14.11-.15a.29.29,0,0,1,.17.08,2.24,2.24,0,0,0,.44.24,1.2,1.2,0,0,0,.55.13,5.24,5.24,0,0,0,.78-.14l2-.5c.31-.09.29-.09.54-.4a.57.57,0,0,1,.43-.2,3,3,0,0,1,1.17.44c.55.33,1,.65,1,1s-.13.33-.41.47-.33.25-.53.69a18.2,18.2,0,0,1-1.14,2,5.16,5.16,0,0,1,2.19.62,2.14,2.14,0,0,1,1.29,1.7.91.91,0,0,1-.9,1c-.56,0-.81-.24-1.21-1a4.6,4.6,0,0,0-1.61-2A12.59,12.59,0,0,1,125.22,61.6Z" class="cls-5"/><path data-cppathid="10023" transform="translate(-0.81 -0.81)" d="M139,54.38c.26-.06.27-.1.43-.36a.5.5,0,0,1,.38-.2,2.74,2.74,0,0,1,1.1.48c.5.33.81.62.83.94a.52.52,0,0,1-.32.43c-.26.12-.31.24-.47.61a13.11,13.11,0,0,1-3.4,5.12,11.62,11.62,0,0,1-4.56,2.52l-.21,0c-.07,0-.11,0-.11-.07a.1.1,0,0,1,.06-.12,15.62,15.62,0,0,0,4-3.31A13.59,13.59,0,0,0,139.17,56a3.79,3.79,0,0,0,.14-.64c0-.07,0-.08-.12-.07a1.72,1.72,0,0,0-.36.09l-.47.18a1.49,1.49,0,0,1-.45.15,1.38,1.38,0,0,1-.67-.18A10.24,10.24,0,0,1,136,57.19a7.76,7.76,0,0,1-2.67,2.12c-.09,0-.17,0-.17-.06a.14.14,0,0,1,.05-.11A17.83,17.83,0,0,0,135,56.6a16.18,16.18,0,0,0,1.23-2.78,2.56,2.56,0,0,0,.17-.76.35.35,0,0,0-.2-.31,2.61,2.61,0,0,0-.28-.13c-.07,0-.11-.06-.11-.1s0-.09.09-.14a1.4,1.4,0,0,1,.6-.24,3.07,3.07,0,0,1,1.15.43c.43.26.67.48.69.85,0,.21-.07.28-.24.47a1.94,1.94,0,0,0-.39.65c0,.06-.06.13-.09.21C138,54.69,138.55,54.5,139,54.38Z" class="cls-5"/></g></g></g></svg>