<?xml version="1.0" encoding="UTF-8"?>
<svg xmlns="http://www.w3.org/2000/svg" onmouseup="{ if(window.parent.document.onmouseup) window.parent.document.onmouseup(arguments[0]);}" viewBox="0 0 155.41 139.98" xmlns:xlink="http://www.w3.org/1999/xlink"><defs><style>.cls-1{isolation:isolate;}.cls-10,.cls-11,.cls-12,.cls-13,.cls-2,.cls-3,.cls-4,.cls-7,.cls-8,.cls-9{stroke:#a39d9d;}.cls-2{fill:url(#linear-gradient);}.cls-3{fill:#f9ec93;mix-blend-mode:darken;}.cls-4{fill:url(#linear-gradient-2);}.cls-5{fill:#d16d00;}.cls-6{fill:#ff9700;}.cls-7{fill:url(#linear-gradient-3);}.cls-8{fill:url(#linear-gradient-4);}.cls-9{fill:url(#linear-gradient-5);}.cls-10{fill:url(#linear-gradient-6);}.cls-11{fill:url(#linear-gradient-7);}.cls-12{fill:url(#linear-gradient-8);}.cls-13{fill:url(#linear-gradient-9);}</style><linearGradient gradientUnits="userSpaceOnUse" gradientTransform="translate(3.54 12.88) rotate(-8.29)" y2="31.73" x2="15.41" y1="73.04" x1="15.41" id="linear-gradient"><stop stop-color="#dbdbdb" offset="0"/><stop stop-color="#e8e8e8" offset="0.13"/><stop stop-color="#f9f9f9" offset="0.36"/><stop stop-color="#fff" offset="0.53"/><stop stop-color="#fdfdfd" offset="0.74"/><stop stop-color="#f5f5f5" offset="0.83"/><stop stop-color="#e8e8e8" offset="0.91"/><stop stop-color="#d6d6d6" offset="0.97"/><stop stop-color="#cbcbcb" offset="1"/></linearGradient><linearGradient gradientUnits="userSpaceOnUse" gradientTransform="translate(-12.46 -26.32) rotate(-11.71)" y2="105.87" x2="30.67" y1="110.88" x1="32.75" id="linear-gradient-2"><stop stop-color="#dbdbdb" offset="0.02"/><stop stop-color="#e7e7e7" offset="0.23"/><stop stop-color="#fff" offset="0.53"/><stop stop-color="#f8f8f8" offset="0.65"/><stop stop-color="#e5e5e5" offset="0.83"/><stop stop-color="#cbcbcb" offset="1"/></linearGradient><linearGradient xlink:href="#linear-gradient" gradientTransform="translate(-6.06 30.11) rotate(2.69)" y2="4.37" x2="87.29" y1="45.68" x1="87.29" id="linear-gradient-3"/><linearGradient xlink:href="#linear-gradient" gradientTransform="translate(-1.61 24.78) rotate(-3.1)" y2="21.52" x2="131.38" y1="62.84" x1="131.38" id="linear-gradient-4"/><linearGradient xlink:href="#linear-gradient-2" gradientTransform="translate(-13.7 -15.41) rotate(-6.52)" y2="102.28" x2="146.78" y1="107.29" x1="148.86" id="linear-gradient-5"/><linearGradient xlink:href="#linear-gradient" gradientTransform="translate(-6.06 30.11) rotate(2.69)" y2="61.66" x2="39.68" y1="102.97" x1="39.68" id="linear-gradient-6"/><linearGradient xlink:href="#linear-gradient" gradientTransform="translate(-7.16 48.04) rotate(14.67)" y2="23.54" x2="102.24" y1="64.86" x1="102.24" id="linear-gradient-7"/><linearGradient xlink:href="#linear-gradient" gradientTransform="translate(-1.61 24.78) rotate(-3.1)" y2="76.47" x2="124.05" y1="117.79" x1="124.05" id="linear-gradient-8"/><linearGradient xlink:href="#linear-gradient-2" gradientTransform="translate(-13.7 -15.41) rotate(-6.52)" y2="156.69" x2="136.18" y1="161.7" x1="138.26" id="linear-gradient-9"/></defs><g class="cls-1"><g data-name="Layer 2" id="Layer_2"><g data-name="tasks in progress jp" id="tasks_in_progress_jp"><path data-cppathid="10000" transform="translate(0 -0.9)" d="M11.1,85.6c-1.09.16-5.11-4.51-6.63-15S.78,45.35.78,45.35l44.77-6.52s1.9,10.29,3.5,21.26c1,7,.11,10.25-5.77,14.66C33.28,82.26,11.1,85.6,11.1,85.6Z" class="cls-2"/><path data-cppathid="10001" transform="translate(0 -0.9)" d="M10.89,85.9c-1.1.16-5.12-4.51-6.64-15L.57,45.66l44.76-6.53s1.91,10.29,3.51,21.27c1,7,.1,10.24-5.77,14.66C33.06,82.56,10.89,85.9,10.89,85.9Z" class="cls-3"/><path data-cppathid="10002" transform="translate(0 -0.9)" d="M31.41,80.59a13.59,13.59,0,0,0,6.31-4.46,10,10,0,0,0,2.12-5.54,19.32,19.32,0,0,0,6.45-1.34A5.77,5.77,0,0,0,49.63,66s-1.27,5.17-5.16,8C39.48,77.66,31.41,80.59,31.41,80.59Z" class="cls-4"/><path data-cppathid="10003" transform="translate(0 -0.9)" d="M31.62,80.58a13.59,13.59,0,0,0,6.32-4.46,10,10,0,0,0,2.11-5.53,19.6,19.6,0,0,0,6.45-1.34A5.73,5.73,0,0,0,49.84,66s-1.27,5.16-5.16,8C39.69,77.66,31.62,80.58,31.62,80.58Z" class="cls-3"/><path data-cppathid="10004" transform="translate(0 -0.9)" d="M9.91,64.79a.12.12,0,0,1-.08,0,.09.09,0,0,1-.11-.08.24.24,0,0,1,0-.12,13.47,13.47,0,0,0,1.43-2.8A12.41,12.41,0,0,0,12,59a2.51,2.51,0,0,0,0-.68.39.39,0,0,0-.21-.33,1.42,1.42,0,0,0-.3-.14c-.06,0-.11,0-.11-.09a.16.16,0,0,1,.08-.14,1.48,1.48,0,0,1,.63-.25,2.11,2.11,0,0,1,1.1.29c.43.22.67.4.7.64a.65.65,0,0,1-.14.4,3.3,3.3,0,0,0-.23.67.33.33,0,0,1-.05.15A8.46,8.46,0,0,0,14.77,59a.73.73,0,0,0,.46-.4.5.5,0,0,1,.39-.25,3.52,3.52,0,0,1,1,.36c.42.26.85.48.9.84a.37.37,0,0,1-.24.38c-.25.13-.28.24-.39.6-.28.83-.57,1.67-.91,2.45a2.51,2.51,0,0,1,1.61,1.64.87.87,0,0,1-.74,1.11c-.39.06-.63-.13-1-.73a2.63,2.63,0,0,0-.53-.58,10.65,10.65,0,0,1-1.07,1.55,10.5,10.5,0,0,1-4.61,3.31l-.16.05c-.07,0-.12,0-.13-.07a.14.14,0,0,1,.07-.12,15.52,15.52,0,0,0,3.77-3.78,14.38,14.38,0,0,0,1-1.79A5.71,5.71,0,0,0,12,62.62,8.11,8.11,0,0,1,9.91,64.79Zm4.71-2.28a12.74,12.74,0,0,0,.58-2.14,3.26,3.26,0,0,0,.05-.56c0-.07,0-.08-.1-.07a2.14,2.14,0,0,0-.41.18,6.53,6.53,0,0,0-.6.29,1.59,1.59,0,0,1-.45.23.88.88,0,0,1-.45-.11,9.3,9.3,0,0,1-1,1.91A12.28,12.28,0,0,1,14.62,62.51Z" class="cls-5"/><path data-cppathid="10005" transform="translate(0 -0.9)" d="M24.52,64.45a10.17,10.17,0,0,1-4.46,2.6.12.12,0,0,1-.15-.06s0-.09.08-.12a14.19,14.19,0,0,0,3.61-3.23,12.65,12.65,0,0,0,2.31-4.55,3.39,3.39,0,0,0,.16-.8c0-.07-.05-.09-.14-.08l-.17.06a14.8,14.8,0,0,0-1.51.69,2.79,2.79,0,0,0-.64.47,1,1,0,0,1-.54.32,1.44,1.44,0,0,1-.92-.38c-.38-.29-.74-.55-.79-.89a1.43,1.43,0,0,1,0-.36c0-.11.05-.15.09-.16a.22.22,0,0,1,.18.06,2.54,2.54,0,0,0,.46.2,1.34,1.34,0,0,0,.56.08,4.57,4.57,0,0,0,.76-.21c.59-.2,1.42-.49,1.91-.68.3-.11.28-.11.5-.44a.57.57,0,0,1,.41-.24,3,3,0,0,1,1.21.33c.58.28,1,.55,1.11.94s-.11.34-.36.51-.32.28-.48.73a16.53,16.53,0,0,1-.95,2.14A5.29,5.29,0,0,1,29,61.8a2.15,2.15,0,0,1,1.44,1.58.9.9,0,0,1-.81,1.09c-.55.08-.83-.16-1.29-.92a4.66,4.66,0,0,0-1.78-1.8A12.29,12.29,0,0,1,24.52,64.45Z" class="cls-5"/><path data-cppathid="10006" transform="translate(0 -0.9)" d="M37.54,56c.26-.08.27-.12.4-.39a.5.5,0,0,1,.36-.24,2.68,2.68,0,0,1,1.14.38c.53.28.86.54.91.86a.48.48,0,0,1-.28.45c-.24.15-.28.27-.41.66a13.25,13.25,0,0,1-2.92,5.41,11.64,11.64,0,0,1-4.32,2.92l-.2.07c-.07,0-.12,0-.12-.07a.11.11,0,0,1,0-.12,15.25,15.25,0,0,0,3.64-3.66,13.53,13.53,0,0,0,2.12-4.72,2.93,2.93,0,0,0,.07-.65c0-.07,0-.08-.12-.07a2.34,2.34,0,0,0-.35.13l-.45.22a1.36,1.36,0,0,1-.44.19,1.54,1.54,0,0,1-.68-.11,11.15,11.15,0,0,1-1,1.81,7.84,7.84,0,0,1-2.46,2.35c-.09.06-.17,0-.18,0a.13.13,0,0,1,0-.11,17.65,17.65,0,0,0,1.53-2.69,15.38,15.38,0,0,0,1-2.87,2.26,2.26,0,0,0,.1-.78.38.38,0,0,0-.22-.3l-.29-.1a.15.15,0,0,1-.13-.09.23.23,0,0,1,.08-.14,1.4,1.4,0,0,1,.58-.3,2.9,2.9,0,0,1,1.18.33c.46.21.71.42.77.78,0,.2,0,.29-.2.49a1.84,1.84,0,0,0-.32.69,1,1,0,0,0-.07.21C36.59,56.41,37.15,56.17,37.54,56Z" class="cls-5"/><path data-cppathid="10007" transform="translate(0 -0.9)" d="M18.51,3.5h5.12V5.21H15.54V6.29h6.83V7.82H15.54V9h9.08V10.6H12.4a.57.57,0,0,1-.14.27,2.32,2.32,0,0,0-.22.36l-.36.72H22.19v9.88H20V21H12.31v.9h-2V14.29a27.83,27.83,0,0,1-2.24,2.87,24.31,24.31,0,0,1-2.61,2.25A13.35,13.35,0,0,0,4,17.61a23.19,23.19,0,0,0,3.51-3,15.84,15.84,0,0,0,2.51-4H4.67V9h8.81V7.82H7V6.29h6.47V5.21h-8V3.5h5.3L9.52,1.89l1.53-1c.42.54.78,1,1.08,1.3a4.33,4.33,0,0,1,.63.85l-.9.45h4.31A17.06,17.06,0,0,0,17.79.9l1.88.9a7.08,7.08,0,0,1-.58.85A9.8,9.8,0,0,0,18.51,3.5ZM20,14.64V13.48H12.31v1.16ZM20,17V15.9H12.31V17Zm0,2.52V18.33H12.31V19.5Z" class="cls-6"/><path data-cppathid="10008" transform="translate(0 -0.9)" d="M46.18,3.59l-7.64.9V7.55h7.64V9.43H38.54v3.24h9.08v2H38.54V20a1.41,1.41,0,0,1-.72,1.25,14.52,14.52,0,0,1-3.59.72,5.62,5.62,0,0,0-.81-2.24h2.7a.37.37,0,0,0,.27-.09.56.56,0,0,0,.18-.36V14.64h-8.9v-2h8.9V9.43H28.93V7.55h7.64V4.67q-4.14.36-7.1.54-.27-.72-.81-2A80.33,80.33,0,0,0,44.83,1.62Z" class="cls-6"/><path data-cppathid="10009" transform="translate(0 -0.9)" d="M59.3,5.3V1.35h2.15v4h7.82v9.88H67.11V14H61.45v7.9H59.3V14H53.91v1.43H51.75V5.3Zm0,6.83V7.28H53.91v4.85Zm7.81,0V7.28H61.45v4.85Z" class="cls-6"/><path data-cppathid="10010" transform="translate(0 -0.9)" d="M83.73,21.2a9.93,9.93,0,0,0-1-2.06,17,17,0,0,0,4-1.26,6.51,6.51,0,0,0,2.6-2.34,6.76,6.76,0,0,0,1-3.77,6.37,6.37,0,0,0-1.62-4.58A6.6,6.6,0,0,0,84.09,5.3a43.6,43.6,0,0,1-2.15,8.27,15.77,15.77,0,0,1-3,4.94,2.05,2.05,0,0,1-1.71.81,3,3,0,0,1-2.42-1.44,8.18,8.18,0,0,1-1.44-4.94,8.75,8.75,0,0,1,2.88-6.65A11.25,11.25,0,0,1,88.41,4.67a6.67,6.67,0,0,1,2.42,1.62,7.51,7.51,0,0,1,1.44,2.42,11.17,11.17,0,0,1,.45,3,9,9,0,0,1-1.26,4.76,8.38,8.38,0,0,1-3.41,3.15A12.74,12.74,0,0,1,83.73,21.2ZM81.94,5.48A8.28,8.28,0,0,0,77,8.18a7.63,7.63,0,0,0-1.53,4.67,6,6,0,0,0,.81,3.32c.3.54.65.81,1.07.81a.78.78,0,0,0,.63-.36,14.74,14.74,0,0,0,2.16-4.13A35.38,35.38,0,0,0,81.94,5.48Z" class="cls-6"/><path data-cppathid="10011" transform="translate(0 -0.9)" d="M104.85,5.12h6.74l.17-.09,1.17,1.26-2.42,5.12a17.72,17.72,0,0,1-2,2.79,21.31,21.31,0,0,1-2.78,3,27.51,27.51,0,0,1-3.87,2.7,34.44,34.44,0,0,1-4.22,1.88,9,9,0,0,0-.54-1.08,5.79,5.79,0,0,0-.9-.89,25.37,25.37,0,0,0,5.12-2.25,25.89,25.89,0,0,0,4.14-3.06,39.37,39.37,0,0,0-4.23-3.23L102.6,9.7c1.74,1.14,3.17,2.16,4.31,3.06q1.08-1.53,1.71-2.61A18,18,0,0,0,110.06,7h-6.38c-1.08,1.5-1.8,2.48-2.16,3a21.3,21.3,0,0,1-1.79,1.62,15.85,15.85,0,0,1-3.15,2.34A5.11,5.11,0,0,0,95.14,12a20.23,20.23,0,0,0,3.51-2.43,12.94,12.94,0,0,0,2.69-3.14A26.54,26.54,0,0,0,103.59,2l2.42.81C105.66,3.5,105.26,4.28,104.85,5.12Z" class="cls-6"/><path data-cppathid="10012" transform="translate(0 -0.9)" d="M117.34,4.13h12.3l.27-.09,1.53,1.53L129,9.79A25.05,25.05,0,0,1,127.49,12c1.85,1.8,3.14,3.08,3.86,3.86q.72.72,3.15,3.69l-2.07,1.61a29.53,29.53,0,0,0-2.16-3q-2.15-2.52-4.13-4.49a36.58,36.58,0,0,1-4.49,4.22,28.51,28.51,0,0,1-5,3.05,11.69,11.69,0,0,0-.72-1.16,2.15,2.15,0,0,1-.32-.41,1.68,1.68,0,0,0-.58-.49,28.29,28.29,0,0,0,7.73-4.76,34.21,34.21,0,0,0,5.75-7.91H117.34Z" class="cls-6"/><path data-cppathid="10013" transform="translate(0 -0.9)" d="M146.44,2.88l-1.52,2.87h6.74l.35-.18,1.44,1.53c-1.38,3.17-2.24,5.06-2.6,5.66a14.63,14.63,0,0,1-2.52,3.32,16.83,16.83,0,0,1-3.77,3,30.36,30.36,0,0,1-5.39,2.24,5.76,5.76,0,0,0-1.35-2.06,32.57,32.57,0,0,0,4.76-1.71,12.59,12.59,0,0,0,3.51-2.43,17.38,17.38,0,0,0,2.6-3.23,36.6,36.6,0,0,0,1.89-4.22h-6.65a28,28,0,0,1-2.61,3.5,20.73,20.73,0,0,1-3,3q-.45-.54-.63-.72a4.41,4.41,0,0,0-1.08-.81A19.35,19.35,0,0,0,139,10.42c.48-.54,1.13-1.35,2-2.42a27.61,27.61,0,0,0,1.8-3.15A22.07,22.07,0,0,0,144,2Z" class="cls-6"/><path data-cppathid="10014" transform="translate(0 -0.9)" d="M60.42,79c-1.1,0-4.16-5.4-3.66-15.95S58,37.5,58,37.5l45.19,2.12s-.09,10.47-.61,21.55c-.34,7.1-.46,17.29-.46,17.29Z" class="cls-7"/><path data-cppathid="10015" transform="translate(0 -0.9)" d="M60.15,79.23c-1.1,0-4.16-5.4-3.66-16s1.2-25.52,1.2-25.52l45.19,2.12s-.09,10.46-.62,21.54c-.33,7.11-.45,17.29-.45,17.29Z" class="cls-3"/><path data-cppathid="10016" transform="translate(0 -0.9)" d="M114.58,81.43c-1.1,0-4.68-5-5.25-15.5L108,40.41,153.12,38s1,10.42,1.56,21.49c.39,7.1-.82,10.22-7.07,14.08C137,80.11,114.58,81.43,114.58,81.43Z" class="cls-8"/><path data-cppathid="10017" transform="translate(0 -0.9)" d="M114.34,81.71c-1.11.06-4.69-5-5.26-15.5L107.7,40.7l45.18-2.45s1,10.42,1.56,21.49c.39,7.1-.82,10.22-7.07,14.08C136.72,80.39,114.34,81.71,114.34,81.71Z" class="cls-3"/><path data-cppathid="10018" transform="translate(0 -0.9)" d="M135.26,78.27A13.57,13.57,0,0,0,142,74.4a10.07,10.07,0,0,0,2.61-5.32,19.37,19.37,0,0,0,6.54-.75,5.75,5.75,0,0,0,3.63-3s-1.74,5-5.87,7.53C143.56,76.09,135.26,78.27,135.26,78.27Z" class="cls-9"/><path data-cppathid="10019" transform="translate(0 -0.9)" d="M135.47,78.29a13.66,13.66,0,0,0,6.69-3.87,10,10,0,0,0,2.61-5.32,19.44,19.44,0,0,0,6.55-.75,5.77,5.77,0,0,0,3.62-3s-1.73,5-5.86,7.53C143.77,76.11,135.47,78.29,135.47,78.29Z" class="cls-3"/><path data-cppathid="10020" transform="translate(0 -0.9)" d="M10.17,134c-1.11-.06-4.16-5.4-3.67-16S7.7,92.48,7.7,92.48l45.19,2.13s-.09,10.46-.61,21.54c-.33,7.1-.46,17.29-.46,17.29Z" class="cls-10"/><path data-cppathid="10021" transform="translate(0 -0.9)" d="M9.9,134.21c-1.11-.05-4.16-5.4-3.67-15.94s1.2-25.53,1.2-25.53l45.19,2.13s-.09,10.46-.61,21.54c-.33,7.1-.46,17.29-.46,17.29Z" class="cls-3"/><path data-cppathid="10022" transform="translate(0 -0.9)" d="M13.11,112.49l-.08,0a.1.1,0,0,1-.1-.1.17.17,0,0,1,.06-.11,13.23,13.23,0,0,0,1.94-2.48,12.86,12.86,0,0,0,1.35-2.67,2.73,2.73,0,0,0,.17-.66.38.38,0,0,0-.14-.36,1.35,1.35,0,0,0-.27-.2s-.09-.07-.09-.11a.17.17,0,0,1,.1-.12,1.56,1.56,0,0,1,.67-.13,2.09,2.09,0,0,1,1,.5c.37.3.58.52.56.76s-.11.24-.21.37a2.78,2.78,0,0,0-.35.61,1,1,0,0,1-.08.14,8.91,8.91,0,0,0,1.32-.26.75.75,0,0,0,.53-.32.54.54,0,0,1,.43-.16,3.27,3.27,0,0,1,.94.55c.36.33.74.62.73,1a.38.38,0,0,1-.31.33c-.27.08-.32.19-.5.51-.43.77-.88,1.53-1.36,2.24a2.52,2.52,0,0,1,1.27,1.91c0,.59-.35,1-.94,1-.39,0-.59-.25-.87-.91a2.72,2.72,0,0,0-.42-.68,9.83,9.83,0,0,1-1.33,1.33A10.57,10.57,0,0,1,12,116.79a.59.59,0,0,1-.17,0c-.07,0-.11,0-.11-.08a.11.11,0,0,1,.09-.11,15.8,15.8,0,0,0,4.42-3,14.16,14.16,0,0,0,1.33-1.57,5.67,5.67,0,0,0-2-1.31A8,8,0,0,1,13.11,112.49Zm5.06-1.35a12.63,12.63,0,0,0,1-2,3,3,0,0,0,.16-.54c0-.07,0-.08-.08-.09a2.61,2.61,0,0,0-.44.1,4.12,4.12,0,0,0-.64.18,1.88,1.88,0,0,1-.49.13.89.89,0,0,1-.42-.19,9.9,9.9,0,0,1-1.33,1.69A12.47,12.47,0,0,1,18.17,111.14Z" class="cls-5"/><path data-cppathid="10023" transform="translate(0 -0.9)" d="M27.52,114.93a10.25,10.25,0,0,1-4.88,1.71c-.08,0-.14,0-.13-.09s0-.09.1-.11A14,14,0,0,0,26.76,114a12.6,12.6,0,0,0,3.14-4,3,3,0,0,0,.31-.76c0-.07,0-.1-.12-.1a.62.62,0,0,0-.18,0c-.47.09-1.18.25-1.62.38a2.93,2.93,0,0,0-.71.35A1,1,0,0,1,27,110a1.49,1.49,0,0,1-.83-.54c-.32-.37-.62-.69-.61-1a1.41,1.41,0,0,1,.07-.36c0-.1.08-.14.12-.14a.31.31,0,0,1,.17.1,2,2,0,0,0,.4.28,1.24,1.24,0,0,0,.54.18,4.34,4.34,0,0,0,.79-.06c.62-.08,1.48-.21,2-.3.31,0,.29,0,.57-.34a.63.63,0,0,1,.44-.16,3,3,0,0,1,1.13.56c.51.39.93.75.91,1.14s-.17.31-.45.43-.36.22-.61.63a16.67,16.67,0,0,1-1.34,1.91,5.34,5.34,0,0,1,2.12.84A2.14,2.14,0,0,1,33.53,115a.9.9,0,0,1-1,.92c-.56,0-.78-.31-1.09-1.14a4.7,4.7,0,0,0-1.4-2.12A12.58,12.58,0,0,1,27.52,114.93Z" class="cls-5"/><path data-cppathid="10024" transform="translate(0 -0.9)" d="M41.91,109.13c.26,0,.28-.07.46-.32a.52.52,0,0,1,.4-.16,2.72,2.72,0,0,1,1,.6c.46.37.74.69.73,1a.5.5,0,0,1-.36.39c-.27.1-.33.21-.53.57a13.17,13.17,0,0,1-3.9,4.75A11.52,11.52,0,0,1,35,118l-.22,0c-.07,0-.1,0-.1-.09a.13.13,0,0,1,.07-.11A15.71,15.71,0,0,0,39,115a13.77,13.77,0,0,0,3-4.23,3.12,3.12,0,0,0,.2-.63c0-.07,0-.08-.11-.09a3.58,3.58,0,0,0-.37.06c-.14,0-.34.09-.48.13a1.24,1.24,0,0,1-.47.1,1.34,1.34,0,0,1-.64-.24,9.71,9.71,0,0,1-1.38,1.58,7.82,7.82,0,0,1-2.87,1.84c-.1,0-.16,0-.16-.08a.15.15,0,0,1,.06-.11,17.74,17.74,0,0,0,2-2.34,17,17,0,0,0,1.5-2.64,2.44,2.44,0,0,0,.24-.74.34.34,0,0,0-.17-.33,1.85,1.85,0,0,0-.25-.16C39,107,39,107,39,107s.05-.08.1-.12a1.3,1.3,0,0,1,.63-.18,2.92,2.92,0,0,1,1.1.54c.4.3.61.55.6.91,0,.21-.1.27-.29.45a1.83,1.83,0,0,0-.45.61,1.6,1.6,0,0,0-.11.19C40.9,109.33,41.5,109.21,41.91,109.13Z" class="cls-5"/><path data-cppathid="10025" transform="translate(0 -0.9)" d="M57.35,132c-1.08-.28-3-6.15-.28-16.36l6.47-24.72,43.77,11.45s-2.26,10.22-5.07,21c-1.8,6.88-4,16.82-4,16.82Z" class="cls-11"/><path data-cppathid="10026" transform="translate(0 -0.9)" d="M57,132.16c-1.07-.28-3-6.15-.28-16.37l6.47-24.72L107,102.53s-2.26,10.22-5.07,21c-1.8,6.88-4,16.81-4,16.81Z" class="cls-3"/><path data-cppathid="10027" transform="translate(0 -0.9)" d="M64.14,112.07a.27.27,0,0,1-.09,0A.1.1,0,0,1,64,112a.25.25,0,0,1,.09-.09,13.65,13.65,0,0,0,2.41-2,12.91,12.91,0,0,0,1.87-2.33,2.34,2.34,0,0,0,.3-.62.36.36,0,0,0-.06-.38.94.94,0,0,0-.22-.24.16.16,0,0,1-.07-.14.17.17,0,0,1,.13-.09,1.54,1.54,0,0,1,.68,0,2.12,2.12,0,0,1,.9.7c.31.37.46.63.4.86s-.16.22-.29.32a2.7,2.7,0,0,0-.47.53l-.1.11a8.17,8.17,0,0,0,1.34,0,.79.79,0,0,0,.58-.19.5.5,0,0,1,.46-.07,3.09,3.09,0,0,1,.8.73c.29.39.6.76.51,1.12a.39.39,0,0,1-.37.26c-.28,0-.35.11-.6.39-.58.66-1.17,1.32-1.79,1.91a2.53,2.53,0,0,1,.85,2.14.88.88,0,0,1-1.12.73c-.38-.1-.53-.37-.66-1.07a3.07,3.07,0,0,0-.27-.75,10.35,10.35,0,0,1-1.58,1,10.5,10.5,0,0,1-5.54,1.24H62c-.07,0-.1-.06-.09-.11a.12.12,0,0,1,.11-.09,15.24,15.24,0,0,0,4.94-2,13.28,13.28,0,0,0,1.63-1.25,5.51,5.51,0,0,0-1.64-1.69A8.24,8.24,0,0,1,64.14,112.07Zm5.23-.27a13,13,0,0,0,1.37-1.74,3.5,3.5,0,0,0,.26-.5c0-.07,0-.09-.06-.1a2.23,2.23,0,0,0-.45,0,5,5,0,0,0-.66,0,1.53,1.53,0,0,1-.5,0,.8.8,0,0,1-.38-.28,9.37,9.37,0,0,1-1.65,1.38A12.7,12.7,0,0,1,69.37,111.8Z" class="cls-5"/><path data-cppathid="10028" transform="translate(0 -0.9)" d="M77.73,117.45a10.08,10.08,0,0,1-5.12.65c-.09,0-.13-.07-.12-.11a.14.14,0,0,1,.13-.09,13.94,13.94,0,0,0,4.57-1.56,12.27,12.27,0,0,0,3.9-3.28,3,3,0,0,0,.47-.68c0-.06,0-.1-.1-.12a.5.5,0,0,0-.18,0c-.48,0-1.2,0-1.66,0a2.87,2.87,0,0,0-.78.19.92.92,0,0,1-.61.08,1.43,1.43,0,0,1-.7-.7c-.24-.42-.47-.8-.38-1.13a1.29,1.29,0,0,1,.14-.34c0-.09.1-.12.14-.1a.22.22,0,0,1,.15.12,1.72,1.72,0,0,0,.34.36,1.23,1.23,0,0,0,.49.29,4.33,4.33,0,0,0,.78.11c.62,0,1.49.1,2,.12.32,0,.3,0,.64-.21a.57.57,0,0,1,.46-.07,3.14,3.14,0,0,1,1,.78c.42.49.75.92.65,1.3s-.23.28-.53.33-.4.14-.72.49A17,17,0,0,1,81,115.49a5.21,5.21,0,0,1,1.9,1.27,2.14,2.14,0,0,1,.71,2,.91.91,0,0,1-1.17.69c-.54-.14-.7-.47-.84-1.35a4.55,4.55,0,0,0-.93-2.36A12.5,12.5,0,0,1,77.73,117.45Z" class="cls-5"/><path data-cppathid="10029" transform="translate(0 -0.9)" d="M93,114.76c.27,0,.29,0,.52-.21a.51.51,0,0,1,.42-.08,2.78,2.78,0,0,1,.91.8c.37.46.58.83.49,1.15a.51.51,0,0,1-.42.3c-.29,0-.37.14-.64.44a13.12,13.12,0,0,1-4.8,3.84,11.48,11.48,0,0,1-5.11,1h-.22c-.07,0-.1-.07-.09-.11a.13.13,0,0,1,.1-.09,15.5,15.5,0,0,0,4.78-2,13.47,13.47,0,0,0,3.79-3.53,3.75,3.75,0,0,0,.33-.56c0-.07,0-.09-.09-.11a2.62,2.62,0,0,0-.37,0,4.32,4.32,0,0,1-.5,0,1.31,1.31,0,0,1-.48,0,1.55,1.55,0,0,1-.58-.37,10.19,10.19,0,0,1-1.68,1.25,7.78,7.78,0,0,1-3.18,1.21c-.11,0-.16-.06-.15-.11s0-.06.08-.09a17.85,17.85,0,0,0,2.47-1.88,16.22,16.22,0,0,0,2-2.27,2.27,2.27,0,0,0,.39-.68.34.34,0,0,0-.09-.35,2.75,2.75,0,0,0-.23-.21.14.14,0,0,1-.07-.13s.06-.07.12-.1a1.37,1.37,0,0,1,.65-.05,3,3,0,0,1,1,.76c.34.38.49.67.4,1s-.15.25-.37.38a2,2,0,0,0-.57.5s-.1.11-.14.17C92,114.75,92.59,114.75,93,114.76Z" class="cls-5"/><path data-cppathid="10030" transform="translate(0 -0.9)" d="M110.23,136.69c-1.11.06-4.69-5-5.26-15.5l-1.38-25.52,45.18-2.44s1,10.42,1.56,21.49c.38,7.1-.82,10.22-7.07,14.08C132.61,135.37,110.23,136.69,110.23,136.69Z" class="cls-12"/><path data-cppathid="10031" transform="translate(0 -0.9)" d="M110,137c-1.1.06-4.68-4.95-5.25-15.5L103.35,96l45.17-2.45s1,10.42,1.56,21.5c.39,7.1-.82,10.21-7.07,14.07C132.37,135.65,110,137,110,137Z" class="cls-3"/><path data-cppathid="10032" transform="translate(0 -0.9)" d="M130.9,133.54a13.62,13.62,0,0,0,6.69-3.87,10,10,0,0,0,2.61-5.33,19.3,19.3,0,0,0,6.55-.74,5.77,5.77,0,0,0,3.62-3s-1.73,5-5.86,7.53C139.2,131.35,130.9,133.54,130.9,133.54Z" class="cls-13"/><path data-cppathid="10033" transform="translate(0 -0.9)" d="M131.11,133.55a13.58,13.58,0,0,0,6.7-3.87,10.07,10.07,0,0,0,2.61-5.32,19.39,19.39,0,0,0,6.54-.75,5.77,5.77,0,0,0,3.62-3s-1.73,5-5.86,7.53C139.42,131.37,131.11,133.55,131.11,133.55Z" class="cls-3"/><path data-cppathid="10034" transform="translate(0 -0.9)" d="M111.38,115.45l-.09,0a.1.1,0,0,1-.1-.09.19.19,0,0,1,0-.12,13.77,13.77,0,0,0,1.68-2.66,13,13,0,0,0,1.07-2.79,2.37,2.37,0,0,0,.1-.68.37.37,0,0,0-.17-.34,1.23,1.23,0,0,0-.29-.17c-.06,0-.1-.06-.1-.1s0-.1.09-.13a1.33,1.33,0,0,1,.65-.19,2,2,0,0,1,1.07.39c.41.26.63.45.64.69a.61.61,0,0,1-.18.39,3.18,3.18,0,0,0-.28.65.84.84,0,0,1-.06.14,8.67,8.67,0,0,0,1.28-.39.77.77,0,0,0,.5-.37.51.51,0,0,1,.41-.2,3.08,3.08,0,0,1,1,.45c.39.29.8.55.82.91a.4.4,0,0,1-.27.37c-.27.09-.3.21-.45.55-.35.81-.71,1.61-1.12,2.37a2.54,2.54,0,0,1,1.46,1.77.88.88,0,0,1-.85,1c-.39,0-.61-.19-1-.82a2.89,2.89,0,0,0-.49-.63A9.88,9.88,0,0,1,115.6,117a10.6,10.6,0,0,1-4.9,2.88l-.16,0c-.07,0-.12,0-.12-.07a.12.12,0,0,1,.08-.12,15.59,15.59,0,0,0,4.09-3.42,13.76,13.76,0,0,0,1.17-1.69,5.74,5.74,0,0,0-2.08-1.11A8.23,8.23,0,0,1,111.38,115.45Zm4.89-1.85a13.25,13.25,0,0,0,.77-2.08,3.1,3.1,0,0,0,.1-.55c0-.07,0-.08-.09-.08a2.59,2.59,0,0,0-.43.14,4.9,4.9,0,0,0-.62.24,1.76,1.76,0,0,1-.46.18.79.79,0,0,1-.45-.15,9.31,9.31,0,0,1-1.15,1.82A12,12,0,0,1,116.27,113.6Z" class="cls-5"/><path data-cppathid="10035" transform="translate(0 -0.9)" d="M126,116.43a10.32,10.32,0,0,1-4.68,2.19c-.09,0-.15,0-.15-.08a.15.15,0,0,1,.09-.12,13.85,13.85,0,0,0,3.89-2.89,12.58,12.58,0,0,0,2.71-4.31,3.19,3.19,0,0,0,.24-.79c0-.07-.05-.09-.13-.09l-.18,0c-.46.14-1.15.37-1.57.55a3.07,3.07,0,0,0-.68.41.93.93,0,0,1-.56.27,1.41,1.41,0,0,1-.88-.45c-.36-.34-.69-.63-.71-1a1.25,1.25,0,0,1,0-.37c0-.1.07-.14.11-.14a.22.22,0,0,1,.17.07,2,2,0,0,0,.43.24,1.27,1.27,0,0,0,.56.13,4.18,4.18,0,0,0,.78-.14l2-.5c.3-.09.29-.09.54-.4a.56.56,0,0,1,.42-.2,2.94,2.94,0,0,1,1.18.44c.55.34,1,.65,1,1s-.13.33-.41.47-.33.26-.53.69a19.93,19.93,0,0,1-1.14,2,5.31,5.31,0,0,1,2.19.62,2.14,2.14,0,0,1,1.29,1.7.91.91,0,0,1-.9,1c-.56,0-.82-.24-1.21-1a4.6,4.6,0,0,0-1.61-2A12.37,12.37,0,0,1,126,116.43Z" class="cls-5"/><path data-cppathid="10036" transform="translate(0 -0.9)" d="M139.68,109.2c.27,0,.28-.1.44-.36a.53.53,0,0,1,.38-.2,2.65,2.65,0,0,1,1.1.49c.5.32.81.61.82.93s-.16.35-.31.43-.31.24-.47.61a13,13,0,0,1-3.4,5.12,11.38,11.38,0,0,1-4.56,2.52l-.21.06a.11.11,0,0,1-.12-.08.12.12,0,0,1,.07-.12,15.42,15.42,0,0,0,4-3.31,13.72,13.72,0,0,0,2.53-4.51,4,4,0,0,0,.14-.64c0-.07,0-.09-.12-.08a1.72,1.72,0,0,0-.36.09l-.47.18a1.25,1.25,0,0,1-.45.15,1.38,1.38,0,0,1-.67-.18,10.86,10.86,0,0,1-1.21,1.71,7.76,7.76,0,0,1-2.67,2.12c-.09.05-.17,0-.17-.06a.14.14,0,0,1,0-.11,17.83,17.83,0,0,0,1.77-2.54,16.42,16.42,0,0,0,1.23-2.77,2.65,2.65,0,0,0,.16-.77.34.34,0,0,0-.19-.31,2.61,2.61,0,0,0-.28-.13.16.16,0,0,1-.12-.1.19.19,0,0,1,.1-.13,1.31,1.31,0,0,1,.6-.25,3,3,0,0,1,1.14.43c.44.26.68.49.7.85s-.07.28-.24.47a1.76,1.76,0,0,0-.39.66,2,2,0,0,0-.09.2C138.71,109.51,139.29,109.32,139.68,109.2Z" class="cls-5"/><path data-cppathid="10037" transform="translate(0 -0.9)" d="M65.68,59a.13.13,0,0,1-.08,0,.1.1,0,0,1-.1-.1.16.16,0,0,1,.07-.11,13.94,13.94,0,0,0,1.93-2.48,12.39,12.39,0,0,0,1.35-2.67A2.32,2.32,0,0,0,69,53a.4.4,0,0,0-.13-.36,1.46,1.46,0,0,0-.28-.2s-.09-.07-.09-.11a.15.15,0,0,1,.11-.12,1.54,1.54,0,0,1,.66-.13,2,2,0,0,1,1,.5c.38.3.58.52.57.76a.69.69,0,0,1-.22.37,2.78,2.78,0,0,0-.35.61l-.08.14a8.67,8.67,0,0,0,1.32-.26.75.75,0,0,0,.53-.32.56.56,0,0,1,.43-.16,3.27,3.27,0,0,1,.94.55c.37.33.75.63.73,1a.41.41,0,0,1-.31.34c-.27.07-.32.18-.5.5-.43.77-.87,1.53-1.36,2.24a2.52,2.52,0,0,1,1.27,1.91.87.87,0,0,1-.94.95c-.39,0-.59-.25-.87-.91a3,3,0,0,0-.41-.68,10.82,10.82,0,0,1-6.5,3.69l-.17,0c-.07,0-.11,0-.11-.09s0-.08.09-.11a15.57,15.57,0,0,0,4.42-3,14.16,14.16,0,0,0,1.33-1.57,5.73,5.73,0,0,0-1.95-1.31A8,8,0,0,1,65.68,59Zm5.06-1.34a13.62,13.62,0,0,0,1-2,3.86,3.86,0,0,0,.15-.54c0-.07,0-.08-.08-.09a2.85,2.85,0,0,0-.44.1,4.12,4.12,0,0,0-.64.18,1.94,1.94,0,0,1-.48.13.87.87,0,0,1-.43-.19,9.9,9.9,0,0,1-1.33,1.69A12.47,12.47,0,0,1,70.74,57.64Z" class="cls-5"/><path data-cppathid="10038" transform="translate(0 -0.9)" d="M80.09,61.43a10.25,10.25,0,0,1-4.88,1.71c-.08,0-.14,0-.13-.09s0-.09.1-.11a14.09,14.09,0,0,0,4.16-2.48,12.6,12.6,0,0,0,3.13-4,3.58,3.58,0,0,0,.32-.76c0-.07,0-.1-.12-.1l-.19,0c-.46.09-1.17.25-1.61.39a2.81,2.81,0,0,0-.72.34,1,1,0,0,1-.59.21,1.44,1.44,0,0,1-.83-.54c-.31-.37-.62-.69-.61-1a1.59,1.59,0,0,1,.08-.36c0-.09.07-.13.11-.13a.22.22,0,0,1,.17.09,2,2,0,0,0,.41.28,1.05,1.05,0,0,0,.53.18,3.55,3.55,0,0,0,.79-.06l2-.29c.31-.06.29-.06.57-.34a.58.58,0,0,1,.45-.16,3,3,0,0,1,1.12.56c.52.38.93.74.91,1.13s-.17.32-.45.43-.36.22-.61.63a18,18,0,0,1-1.33,1.91,5.4,5.4,0,0,1,2.12.85,2.12,2.12,0,0,1,1.1,1.82.91.91,0,0,1-1,.92c-.55,0-.78-.32-1.09-1.15a4.67,4.67,0,0,0-1.4-2.11A12.84,12.84,0,0,1,80.09,61.43Z" class="cls-5"/><path data-cppathid="10039" transform="translate(0 -0.9)" d="M94.48,55.64c.27,0,.28-.08.46-.32a.52.52,0,0,1,.4-.16,2.8,2.8,0,0,1,1,.59c.46.38.74.7.73,1a.5.5,0,0,1-.36.39c-.27.1-.33.21-.53.56a13.21,13.21,0,0,1-3.9,4.76,11.52,11.52,0,0,1-4.79,2l-.21,0c-.08,0-.12,0-.11-.09a.13.13,0,0,1,.07-.11,15.45,15.45,0,0,0,4.28-2.89,13.7,13.7,0,0,0,3-4.24,2.88,2.88,0,0,0,.2-.62c0-.07,0-.08-.11-.09l-.36.05-.49.14a1.2,1.2,0,0,1-.46.1,1.45,1.45,0,0,1-.65-.24,10.08,10.08,0,0,1-1.38,1.57A7.72,7.72,0,0,1,88.42,60c-.1,0-.16,0-.16-.08a.15.15,0,0,1,.06-.11,17.2,17.2,0,0,0,2-2.35,15.73,15.73,0,0,0,1.5-2.63,2.17,2.17,0,0,0,.24-.75.35.35,0,0,0-.16-.33l-.26-.15c-.07,0-.11-.07-.11-.12s0-.08.11-.12a1.35,1.35,0,0,1,.62-.18,3.09,3.09,0,0,1,1.1.54c.4.3.62.55.6.92,0,.21-.1.27-.29.44a2.33,2.33,0,0,0-.45.61l-.11.2C93.47,55.84,94.07,55.71,94.48,55.64Z" class="cls-5"/><path data-cppathid="10040" transform="translate(0 -0.9)" d="M115.07,59.15l-.08,0a.11.11,0,0,1-.11-.1.17.17,0,0,1,.05-.11,13.31,13.31,0,0,0,1.68-2.66,12.68,12.68,0,0,0,1.07-2.79,2.94,2.94,0,0,0,.11-.68.38.38,0,0,0-.18-.34,1.23,1.23,0,0,0-.29-.17s-.1-.06-.1-.11a.19.19,0,0,1,.09-.13,1.58,1.58,0,0,1,.65-.19,2.11,2.11,0,0,1,1.07.39c.41.26.63.46.64.7a.65.65,0,0,1-.17.39,2.57,2.57,0,0,0-.29.65,1.47,1.47,0,0,1-.06.14,8.33,8.33,0,0,0,1.28-.39.77.77,0,0,0,.5-.37.51.51,0,0,1,.41-.2,3,3,0,0,1,1,.45c.4.29.8.55.82.91a.38.38,0,0,1-.27.36c-.26.1-.3.22-.45.56-.35.81-.71,1.61-1.12,2.36a2.54,2.54,0,0,1,1.46,1.78.88.88,0,0,1-.84,1c-.39,0-.62-.19-1-.82a2.84,2.84,0,0,0-.48-.63,10.63,10.63,0,0,1-1.2,1.45,10.45,10.45,0,0,1-4.9,2.87l-.16,0c-.07,0-.11,0-.12-.08a.14.14,0,0,1,.08-.11A15.59,15.59,0,0,0,118.28,60a13.43,13.43,0,0,0,1.17-1.69,5.66,5.66,0,0,0-2.08-1.11A8.23,8.23,0,0,1,115.07,59.15ZM120,57.29a11.14,11.14,0,0,0,.77-2.07,2.39,2.39,0,0,0,.1-.55c0-.07,0-.09-.09-.08a2.66,2.66,0,0,0-.43.13,6,6,0,0,0-.61.25,1.8,1.8,0,0,1-.47.18,1,1,0,0,1-.44-.15,10.36,10.36,0,0,1-1.15,1.82A12.72,12.72,0,0,1,120,57.29Z" class="cls-5"/><path data-cppathid="10041" transform="translate(0 -0.9)" d="M129.65,60.12A10.12,10.12,0,0,1,125,62.31c-.08,0-.14,0-.14-.07s0-.09.09-.12a14,14,0,0,0,3.88-2.89,12.37,12.37,0,0,0,2.71-4.31,3.19,3.19,0,0,0,.24-.79c0-.07,0-.09-.13-.09a.65.65,0,0,0-.18,0c-.45.14-1.14.37-1.57.55a3.07,3.07,0,0,0-.68.41.9.9,0,0,1-.56.27,1.46,1.46,0,0,1-.88-.46c-.35-.33-.69-.62-.71-1a1.3,1.3,0,0,1,0-.37c0-.1.06-.14.1-.15a.27.27,0,0,1,.17.08,2.24,2.24,0,0,0,.44.24,1.2,1.2,0,0,0,.55.13,5.24,5.24,0,0,0,.78-.14l2-.5c.31-.09.29-.09.54-.4a.58.58,0,0,1,.43-.2,3,3,0,0,1,1.17.44c.55.33,1,.65,1,1s-.14.33-.41.47-.34.25-.54.69a16.74,16.74,0,0,1-1.14,2,5.12,5.12,0,0,1,2.19.62,2.14,2.14,0,0,1,1.29,1.7.91.91,0,0,1-.9,1c-.56,0-.81-.24-1.21-1a4.59,4.59,0,0,0-1.6-2A13,13,0,0,1,129.65,60.12Z" class="cls-5"/><path data-cppathid="10042" transform="translate(0 -0.9)" d="M143.38,52.9c.26-.06.27-.1.43-.36a.52.52,0,0,1,.38-.2,2.82,2.82,0,0,1,1.11.48c.49.33.8.62.82.94a.51.51,0,0,1-.31.43c-.26.12-.31.24-.48.61a13.11,13.11,0,0,1-3.4,5.12,11.48,11.48,0,0,1-4.56,2.52.8.8,0,0,1-.21.05c-.07,0-.11,0-.11-.07a.12.12,0,0,1,.06-.12,15.45,15.45,0,0,0,4-3.31,13.59,13.59,0,0,0,2.53-4.52,3.79,3.79,0,0,0,.14-.64c0-.07,0-.08-.12-.07a1.72,1.72,0,0,0-.36.09l-.47.18a1.49,1.49,0,0,1-.45.15,1.4,1.4,0,0,1-.67-.18,10.24,10.24,0,0,1-1.21,1.71,7.82,7.82,0,0,1-2.66,2.12c-.1.05-.17,0-.18-.06a.14.14,0,0,1,0-.11,17.05,17.05,0,0,0,1.77-2.54,16.18,16.18,0,0,0,1.23-2.78,2.56,2.56,0,0,0,.17-.76.35.35,0,0,0-.2-.31l-.27-.13c-.07,0-.12-.06-.12-.1s0-.09.09-.14a1.4,1.4,0,0,1,.6-.24,3.07,3.07,0,0,1,1.15.43c.43.26.67.48.69.85,0,.21-.07.28-.24.47a2.13,2.13,0,0,0-.39.65c0,.06-.06.13-.08.21C142.4,53.21,143,53,143.38,52.9Z" class="cls-5"/></g></g></g></svg>