<?xml version="1.0" encoding="UTF-8"?>
<svg xmlns="http://www.w3.org/2000/svg" onmouseup="{ if(window.parent.document.onmouseup) window.parent.document.onmouseup(arguments[0]);}" viewBox="0 0 226.49 236.84" xmlns:xlink="http://www.w3.org/1999/xlink"><defs><style>.cls-1{isolation:isolate;}.cls-2{fill:#d7d7d7;}.cls-3{fill:url(#linear-gradient);}.cls-4{fill:none;}.cls-4,.cls-9{stroke:#7f0e03;}.cls-10,.cls-11,.cls-4,.cls-9{stroke-miterlimit:10;}.cls-11,.cls-4{stroke-width:3px;}.cls-5{fill:#c69c6d;}.cls-6{opacity:0.09;mix-blend-mode:overlay;fill:url(#linear-gradient-2);}.cls-7{fill:#231f20;}.cls-10,.cls-11,.cls-8{fill:#fff;}.cls-9{fill:#7f0e03;stroke-width:11px;}.cls-10,.cls-11,.cls-12,.cls-13,.cls-9{fill-rule:evenodd;}.cls-10,.cls-11{stroke:#1f1a17;}.cls-10{stroke-width:2px;}.cls-12{fill:#1f1a17;}.cls-13{fill:#171717;}</style><linearGradient gradientUnits="userSpaceOnUse" x2="88.01" y1="230.77" x1="88.01" id="linear-gradient"><stop stop-color="#8c0000" offset="0"/><stop stop-color="#a1170e" offset="0.11"/><stop stop-color="#b32a1a" offset="0.24"/><stop stop-color="#bf3823" offset="0.39"/><stop stop-color="#c74028" offset="0.58"/><stop stop-color="#c94229" offset="0.92"/><stop stop-color="#8c0000" offset="1"/></linearGradient><linearGradient gradientUnits="userSpaceOnUse" y2="34.68" x2="-8.37" y1="114.58" x1="90.29" id="linear-gradient-2"><stop stop-color="#fff" offset="0"/><stop stop-opacity="0.91" stop-color="#fff" offset="0.05"/><stop stop-opacity="0.67" stop-color="#fff" offset="0.2"/><stop stop-opacity="0.47" stop-color="#fff" offset="0.35"/><stop stop-opacity="0.3" stop-color="#fff" offset="0.5"/><stop stop-opacity="0.17" stop-color="#fff" offset="0.64"/><stop stop-opacity="0.08" stop-color="#fff" offset="0.77"/><stop stop-opacity="0.02" stop-color="#fff" offset="0.9"/><stop stop-opacity="0" stop-color="#fff" offset="1"/></linearGradient></defs><g class="cls-1"><g data-name="Layer 2" id="Layer_2"><g data-name="roles meetings events placards jp" id="roles_meetings_events_placards_jp"><g data-name="events placard jp" id="events_placard_jp"><path data-cppathid="10000" d="M226.49,230c0,3.76-50.7,6.81-113.25,6.81S0,233.79,0,230s50.7-6.81,113.24-6.81S226.49,226.27,226.49,230Z" class="cls-2"/><rect data-cppathid="10001" height="230.77" width="166.81" x="4.61" class="cls-3"/><rect data-cppathid="10002" height="218.36" width="154.17" y="5.82" x="10.61" class="cls-4"/><path data-cppathid="10003" d="M86.94,163.52a4.31,4.31,0,0,0,.67.07l.07-.11Z" class="cls-5"/><path data-cppathid="10004" d="M78.46,157.22a2.46,2.46,0,0,0,0-.26l0,0Z"/><path data-cppathid="10005" d="M101.17,162.23h0Z"/><path data-cppathid="10006" d="M101.3,162.33c-.06-.1,0,0,0-.11A.25.25,0,0,1,101.3,162.33Z"/><path data-cppathid="10007" d="M99.69,166.52h0Z"/><path data-cppathid="10008" d="M86.55,163.8l-.07,0Z"/><path data-cppathid="10009" d="M97,166.14s0,0,0,0S97,166.12,97,166.14Z"/><path data-cppathid="10010" d="M82.71,163.41s.07,0,.14,0Z"/><path data-cppathid="10011" d="M80.63,163.87l-.22.07Z"/><path data-cppathid="10012" d="M79.53,163.76c.18,0,.62,0,.56.07s0,0-.14.08-.4-.08-.42-.14Z"/><path data-cppathid="10013" d="M78,164.17a.88.88,0,0,1,.53-.18C77.68,164.21,79,164,78,164.17Z"/><path data-cppathid="10014" d="M77,168.84v0Z"/><path data-cppathid="10015" d="M78.86,76.67c-37.85,47-66.1,133.65-66.1,133.65V8.59H155.19S117.25,29,78.86,76.67Z" class="cls-6"/><path data-cppathid="10016" d="M54.16,50.35c-.49.49-1,.93-1.52,1.39a28.37,28.37,0,0,1-10.26,5.71c-.25.06-.37,0-.37-.19s0-.15.15-.25a48.21,48.21,0,0,0,8.5-7.28A30.32,30.32,0,0,0,56,42.5a3.14,3.14,0,0,0,.5-1.21c0-.31-.13-.43-.47-.71a7.17,7.17,0,0,0-.68-.5.3.3,0,0,1-.22-.28c0-.09.06-.18.22-.24A4.5,4.5,0,0,1,57,39.22a5.07,5.07,0,0,1,2.39,1.05c1,.71,1.89,1.36,1.89,2.26,0,.38-.19.65-.68.84s-.62.43-1.37,1.33c-1,1.24-2,2.45-3,3.6a7.35,7.35,0,0,1,.65.5c.71.59,1.08.93,1.08,1.27a1,1,0,0,1-.21.68c-.19.28-.16.37-.16,1.36,0,4.56.22,8,.22,10.36,0,1.64-.68,2.23-1.77,2.23-.81,0-1.3-.34-1.83-1.45a7.1,7.1,0,0,1-.71-2.45,2.29,2.29,0,0,1,.31-1.21A3.23,3.23,0,0,0,54,58.31c.09-1.82.12-4.52.12-7.53Z" class="cls-7"/><path data-cppathid="10017" d="M73.07,47.28a3.41,3.41,0,0,1,2.7-1.34,6,6,0,0,1,3.31,1.27c2.36,1.52,5.86,4.07,8.28,5.59.38.24.69.43,1,.62a4.12,4.12,0,0,1,1.33,1,5.19,5.19,0,0,1,1.55,3.19,1.72,1.72,0,0,1-1.86,1.8c-1,0-2.14-.74-3.41-2.11a117.09,117.09,0,0,0-9-8.46c-.68-.59-1-.72-1.3-.72s-.59.22-1,.9c-.59,1-1.49,2.58-2.45,4.37-.37.72-.49,1.28-.71,1.68a1.58,1.58,0,0,1-1.36.68,4.9,4.9,0,0,1-2.55-1c-.86-.56-1.76-1.43-1.76-2.29a3.35,3.35,0,0,1,0-.5c0-.25.15-.34.31-.34a.54.54,0,0,1,.25.09,2.61,2.61,0,0,0,1.52.68c.3,0,1.11-.68,2-1.73C71.12,49.32,72.2,48.18,73.07,47.28Zm12.74-3A2.08,2.08,0,0,1,87,46a1.32,1.32,0,0,1-1.21,1.4c-.43,0-.8-.19-1.18-.84a6.56,6.56,0,0,0-2.45-2.63c-.15-.07-.21-.16-.21-.25s.09-.19.31-.19A6.69,6.69,0,0,1,85.81,44.24Zm0-3a6,6,0,0,1,2.64.5,2.06,2.06,0,0,1,1.3,1.77,1.18,1.18,0,0,1-1.08,1.3c-.41,0-.72-.13-1.21-.84a6.15,6.15,0,0,0-2.58-2.26.28.28,0,0,1-.21-.25c0-.09.09-.16.28-.19S85.57,41.26,85.84,41.26Z" class="cls-7"/><path data-cppathid="10018" d="M94.06,45.11c0-.13.09-.19.27-.22a9.73,9.73,0,0,1,1.34-.09,9.61,9.61,0,0,1,4.22,1,3.63,3.63,0,0,1,2.26,3,2.05,2.05,0,0,1-2.23,2.29c-1,0-1.68-.65-2.2-1.89a7.23,7.23,0,0,0-3.42-3.81C94.15,45.32,94.06,45.23,94.06,45.11Zm7,16.06c-.59.52-.86.71-1.3.71a5.06,5.06,0,0,1-2.82-1.67,4.81,4.81,0,0,1-1.49-2.42,4.46,4.46,0,0,1,.34-1.43c.1-.18.16-.28.25-.28s.19.1.28.22a4.77,4.77,0,0,0,.74.84,1.86,1.86,0,0,0,1.12.52,12,12,0,0,0,3.13-1.36,44.89,44.89,0,0,0,8.84-6.7,59.84,59.84,0,0,0,7.13-8.15.25.25,0,0,1,.22-.13c.09,0,.15.07.15.19a1,1,0,0,1-.06.31,28.9,28.9,0,0,1-5.58,10,39.84,39.84,0,0,1-9,8A15,15,0,0,0,101.06,61.17Z" class="cls-7"/><path data-cppathid="10019" d="M126.36,56.92c0,1.43.16,3.47.16,5s-.75,2.3-1.83,2.3c-.75,0-1.31-.53-1.74-1.37a5.73,5.73,0,0,1-.81-2.45,3,3,0,0,1,.31-1.27,4,4,0,0,0,.22-1.64c.06-2.42.09-5.15.22-7.82,0-1.76,0-3.62,0-5.55s-.09-2.2-.59-2.63a3.74,3.74,0,0,0-1-.65c-.16-.1-.25-.19-.25-.28s.09-.19.22-.28a3.75,3.75,0,0,1,1.76-.65,5.5,5.5,0,0,1,2.61,1c.93.62,1.55,1.15,1.55,1.89,0,.28,0,.44-.41.72s-.46.55-.52,1.64c-.06,1.3-.06,2.6,0,3.78a10.77,10.77,0,0,1,6,1.49c1.3.9,2.36,1.89,2.36,3.5a2.08,2.08,0,0,1-2.08,2.3c-1.05,0-1.8-.62-2.33-1.89a8.07,8.07,0,0,0-3.9-4.47C126.27,52.08,126.33,54.38,126.36,56.92Z" class="cls-7"/><path data-cppathid="10020" d="M53.19,47.53c-.5.5-1,.93-1.52,1.4a28.24,28.24,0,0,1-10.27,5.7c-.24.06-.37,0-.37-.18s0-.16.16-.25a48.27,48.27,0,0,0,8.49-7.29A30,30,0,0,0,55,39.69a3.2,3.2,0,0,0,.5-1.21c0-.31-.12-.44-.47-.71a5,5,0,0,0-.68-.5.32.32,0,0,1-.21-.28.28.28,0,0,1,.21-.25A4.55,4.55,0,0,1,56,36.4a5,5,0,0,1,2.38,1.06c1.06.71,1.89,1.36,1.89,2.26,0,.37-.18.65-.68.84S59,41,58.21,41.89c-1,1.24-2,2.45-3,3.6a5.24,5.24,0,0,1,.65.49c.72.59,1.09.93,1.09,1.27a1,1,0,0,1-.22.69c-.19.27-.15.37-.15,1.36,0,4.56.21,8,.21,10.36,0,1.64-.68,2.23-1.77,2.23-.8,0-1.3-.34-1.82-1.46A6.86,6.86,0,0,1,52.47,58a2.42,2.42,0,0,1,.31-1.21,2.88,2.88,0,0,0,.28-1.27c.1-1.83.13-4.53.13-7.53Z" class="cls-8"/><path data-cppathid="10021" d="M72.09,44.46a3.46,3.46,0,0,1,2.7-1.33,5.92,5.92,0,0,1,3.32,1.27C80.47,45.92,84,48.46,86.39,50a10.73,10.73,0,0,0,1,.62,4.18,4.18,0,0,1,1.34,1,5.23,5.23,0,0,1,1.55,3.2,1.74,1.74,0,0,1-1.87,1.8c-1,0-2.13-.75-3.41-2.11a113.63,113.63,0,0,0-9-8.47c-.68-.59-1-.71-1.3-.71s-.59.22-1,.9c-.59,1-1.49,2.57-2.45,4.37-.37.71-.5,1.27-.71,1.68a1.59,1.59,0,0,1-1.37.68,5,5,0,0,1-2.54-1c-.87-.56-1.77-1.43-1.77-2.3a3.23,3.23,0,0,1,0-.49c0-.25.16-.35.31-.35a.54.54,0,0,1,.25.1,2.73,2.73,0,0,0,1.52.68c.31,0,1.12-.68,1.95-1.74C70.14,46.51,71.23,45.36,72.09,44.46Zm12.75-3A2.13,2.13,0,0,1,86,43.16a1.32,1.32,0,0,1-1.21,1.4c-.44,0-.81-.19-1.18-.84a6.53,6.53,0,0,0-2.45-2.64C81,41,81,40.93,81,40.83s.1-.18.31-.18A6.86,6.86,0,0,1,84.84,41.42Zm0-3a6,6,0,0,1,2.63.49,2.09,2.09,0,0,1,1.31,1.77A1.18,1.18,0,0,1,87.72,42c-.4,0-.71-.12-1.21-.83a6.29,6.29,0,0,0-2.57-2.27c-.16-.06-.22-.15-.22-.25s.1-.15.28-.18S84.59,38.45,84.87,38.45Z" class="cls-8"/><path data-cppathid="10022" d="M93.08,42.29c0-.12.09-.18.28-.21a8.24,8.24,0,0,1,1.33-.1,9.61,9.61,0,0,1,4.22,1,3.65,3.65,0,0,1,2.26,3,2.06,2.06,0,0,1-2.23,2.3c-1,0-1.67-.65-2.2-1.9a7.32,7.32,0,0,0-3.41-3.81C93.17,42.51,93.08,42.42,93.08,42.29Zm7,16.06c-.59.53-.87.72-1.3.72A5,5,0,0,1,96,57.39,4.81,4.81,0,0,1,94.48,55a4.11,4.11,0,0,1,.34-1.42c.09-.19.15-.28.25-.28s.18.09.27.22a4,4,0,0,0,.75.83,1.79,1.79,0,0,0,1.12.53,12.65,12.65,0,0,0,3.13-1.36,44.93,44.93,0,0,0,8.83-6.7,60.68,60.68,0,0,0,7.14-8.16.26.26,0,0,1,.21-.12c.1,0,.16.06.16.19a1,1,0,0,1-.06.31A28.93,28.93,0,0,1,111,49a39.87,39.87,0,0,1-9,8A15.16,15.16,0,0,0,100.09,58.35Z" class="cls-8"/><path data-cppathid="10023" d="M125.39,54.11c0,1.42.15,3.47.15,5s-.74,2.29-1.83,2.29c-.74,0-1.3-.53-1.73-1.36a5.68,5.68,0,0,1-.81-2.45,2.86,2.86,0,0,1,.31-1.27,4.09,4.09,0,0,0,.22-1.65c.06-2.41.09-5.14.21-7.81,0-1.77,0-3.63,0-5.55s-.09-2.2-.59-2.64a3.91,3.91,0,0,0-1-.65c-.15-.09-.25-.18-.25-.28s.1-.18.22-.27a3.7,3.7,0,0,1,1.77-.66,5.51,5.51,0,0,1,2.6,1c.93.62,1.55,1.14,1.55,1.89,0,.28,0,.43-.4.71s-.47.56-.53,1.65c-.06,1.3-.06,2.6,0,3.78a10.7,10.7,0,0,1,6,1.49c1.3.9,2.35,1.89,2.35,3.5a2.08,2.08,0,0,1-2.08,2.29c-1.05,0-1.79-.62-2.32-1.89a8,8,0,0,0-3.91-4.46C125.29,49.27,125.35,51.56,125.39,54.11Z" class="cls-8"/><path data-cppathid="10024" d="M73,88.35l38.51.56a2,2,0,0,1,2,2l-.86,59.5a2,2,0,0,1-2,2l-38.52-.56a2,2,0,0,1-2-2L71,90.31A2,2,0,0,1,73,88.35Z" class="cls-9"/><path data-cppathid="10025" d="M66.22,104l32.5-3.88a1.7,1.7,0,0,1,1.88,1.48l6,50.21a1.69,1.69,0,0,1-1.48,1.88l-32.49,3.88a1.71,1.71,0,0,1-1.89-1.48l-6-50.2A1.71,1.71,0,0,1,66.22,104Z" class="cls-9"/><path data-cppathid="10026" d="M55.2,117.38,82.38,99.16a1.7,1.7,0,0,1,2.35.46l28.15,42a1.69,1.69,0,0,1-.47,2.35L85.23,162.19a1.7,1.7,0,0,1-2.35-.46l-28.15-42A1.69,1.69,0,0,1,55.2,117.38Z" class="cls-9"/><path data-cppathid="10027" d="M55.19,117.38,82.38,99.16a1.7,1.7,0,0,1,2.35.46l28.15,42a1.69,1.69,0,0,1-.47,2.35L85.23,162.19a1.7,1.7,0,0,1-2.35-.46l-28.15-42A1.7,1.7,0,0,1,55.19,117.38Z" class="cls-10"/><path data-cppathid="10028" d="M66.22,104l32.5-3.88a1.7,1.7,0,0,1,1.88,1.48l6,50.21a1.69,1.69,0,0,1-1.48,1.88l-32.5,3.88a1.7,1.7,0,0,1-1.88-1.48l-6-50.2A1.71,1.71,0,0,1,66.22,104Z" class="cls-10"/><path data-cppathid="10029" d="M73,88.35l38.51.56a2,2,0,0,1,2,2l-.86,59.5a2,2,0,0,1-2,2l-38.52-.56a2,2,0,0,1-2-2L71,90.31A2,2,0,0,1,73,88.35Z" class="cls-11"/><path data-cppathid="10030" d="M75.28,97.57h.34l1.68-5.19h.49c.5,1.73,1,3.48,1.51,5.22h.36v.58l-1.75,0v-.57h.79l-.36-1.24-1.71,0-.4,1.26h.7l0,.58-1.64,0v-.57Zm2.25-4-.71,2.21,1.35,0Z" class="cls-12"/><path data-cppathid="10031" d="M107.05,141.75h-.34L105,146.93h-.5c-.5-1.72-1-3.47-1.5-5.2l-.37,0v-.58l1.75,0v.58l-.78,0L104,143l1.7,0,.41-1.26h-.7v-.58l1.64,0v.58Zm-2.24,4,.71-2.2-1.36,0Z" class="cls-12"/><path data-cppathid="10032" d="M79.71,101.92c-.09-.26-1.85-2.91-2-3.19v0h0v0c-.2.27-2,2.87-2.13,3.13a1.2,1.2,0,0,0,.91,1.64,1,1,0,0,0,.46-.06,1.13,1.13,0,0,0,.48-1A3.12,3.12,0,0,1,77,104l-.07.11.64,0c.15,0,.65.05.65.05a.35.35,0,0,1-.07-.12,3,3,0,0,1-.31-1.52,1.09,1.09,0,0,0,.45,1,1.28,1.28,0,0,0,.45.08,1.31,1.31,0,0,0,.81-.49A1.25,1.25,0,0,0,79.71,101.92Z" class="cls-13"/><path data-cppathid="10033" d="M102.6,123c-.45-1.38-9.56-15-10.53-16.49v-.14s0,0,0,.07a.78.78,0,0,1,0-.07v.14c-1,1.43-10.52,14.8-11,16.18s-.79,4.22.62,5.83,3,2.6,4.11,2.61a5.49,5.49,0,0,0,2.34-.31c1.14-.69,2.3-2.1,2.46-5,0,0,.13,5-1.82,7.81a6.48,6.48,0,0,1-.39.61s2.59-.19,3.33-.17,3.33.26,3.33.26a3.52,3.52,0,0,1-.37-.61C92.71,130.85,93,125.9,93,125.9c.07,2.9,1.19,4.34,2.31,5.06a5.57,5.57,0,0,0,2.33.39c1.11,0,2.72-.92,4.18-2.49S103.06,124.5,102.6,123Z" class="cls-13"/><path data-cppathid="10034" d="M103,137.36c.08.27,1.85,2.91,2,3.2v0c.2-.28,2-2.88,2.14-3.14a1.25,1.25,0,0,0-.12-1.13,1.29,1.29,0,0,0-.8-.51,1.2,1.2,0,0,0-.45.06,1.12,1.12,0,0,0-.48,1,3.07,3.07,0,0,1,.36-1.51.35.35,0,0,1,.07-.12s-.5,0-.65,0-.64-.05-.64-.05a.47.47,0,0,1,.07.12,3.12,3.12,0,0,1,.31,1.53,1.1,1.1,0,0,0-.45-1,1,1,0,0,0-.45-.07,1.26,1.26,0,0,0-.81.48A1.23,1.23,0,0,0,103,137.36Z" class="cls-13"/></g></g></g></g></svg>