<?xml version="1.0" encoding="UTF-8"?>
<svg xmlns="http://www.w3.org/2000/svg" onmouseup="{ if(window.parent.document.onmouseup) window.parent.document.onmouseup(arguments[0]);}" viewBox="0 0 256.44 414.99"><defs><style>.cls-1,.cls-4{fill:none;stroke:#5b5b5b;}.cls-1{stroke-miterlimit:10;stroke-width:4px;}.cls-2{fill:#be1e2d;}.cls-3{fill:#fff;}.cls-4{stroke-linecap:round;stroke-linejoin:round;stroke-width:5px;}</style></defs><g data-name="Layer 2" id="Layer_2"><g data-name="event flowchart jp" id="event_flowchart_jp"><rect data-cppathid="10000" rx="62.36" height="410.99" width="152.48" y="2" x="2" class="cls-1"/><rect data-cppathid="10001" rx="6.5" height="49.09" width="195.92" y="37.45" x="60.52" class="cls-2"/><rect data-cppathid="10002" rx="6.5" height="49.09" width="195.92" y="132.01" x="60.52" class="cls-2"/><rect data-cppathid="10003" rx="6.5" height="49.09" width="195.92" y="227.11" x="60.52" class="cls-2"/><rect data-cppathid="10004" rx="6.5" height="49.09" width="195.92" y="318.51" x="60.52" class="cls-2"/><path data-cppathid="10005" d="M81.11,57.87h8.56l.19-.06,1.06,1.06-1.69,2.94a17.85,17.85,0,0,1-1.06,1.5c1.29,1.25,2.19,2.15,2.69,2.69.33.33,1.06,1.18,2.18,2.56l-1.43,1.12a23.92,23.92,0,0,0-1.5-2.06c-1-1.16-2-2.21-2.88-3.12a25,25,0,0,1-3.12,2.93,19.65,19.65,0,0,1-3.5,2.13,9.33,9.33,0,0,0-.5-.81,1.23,1.23,0,0,1-.22-.29,1.39,1.39,0,0,0-.41-.34,19.55,19.55,0,0,0,5.38-3.31,23.63,23.63,0,0,0,4-5.5H81.11Z" class="cls-3"/><path data-cppathid="10006" d="M94.54,58.18h10.38l.19-.12,1.12,1.06a27.11,27.11,0,0,1-2.12,4.94,13.54,13.54,0,0,1-2.75,3.19,16.89,16.89,0,0,1-5,2.68,5.2,5.2,0,0,0-.38-.81,1.26,1.26,0,0,0-.19-.28c-.08-.1-.21-.24-.37-.41a16.64,16.64,0,0,0,3.37-1.37,10.18,10.18,0,0,0,2.32-1.75,13.07,13.07,0,0,0,1.81-2.44,34.15,34.15,0,0,0,1.37-3.19H94.54Zm12.19-3a1.7,1.7,0,0,1,1.25.5,1.65,1.65,0,0,1,.5,1.19,1.7,1.7,0,0,1-.5,1.25,1.67,1.67,0,0,1-1.25.5,1.61,1.61,0,0,1-1.19-.5,1.7,1.7,0,0,1-.5-1.25,1.71,1.71,0,0,1,1.69-1.69Zm0,.82a.75.75,0,0,0-.56.25.88.88,0,0,0-.31.62.9.9,0,0,0,.31.63.78.78,0,0,0,.56.25.85.85,0,0,0,.88-.88.85.85,0,0,0-.88-.87Z" class="cls-3"/><path data-cppathid="10007" d="M109.67,65.12V57.25h1.69v7.87Zm2.06,5.06a7,7,0,0,0-.81-1.5,13.06,13.06,0,0,0,2.56-.87,4,4,0,0,0,1.5-1.13,3.55,3.55,0,0,0,.94-1.5,16.06,16.06,0,0,0,.31-3.5V56.56h1.63v5.56a9.17,9.17,0,0,1-1.19,5.13C115.83,68.46,114.19,69.43,111.73,70.18Z" class="cls-3"/><path data-cppathid="10008" d="M131.23,59.75a3.4,3.4,0,0,0,.5.62,2.38,2.38,0,0,0,.69.56,33.66,33.66,0,0,1-3.19,3.5,28.79,28.79,0,0,1-3.56,2.75,43.82,43.82,0,0,1-4.88,2.57L119.92,68A18.8,18.8,0,0,0,123,66.75a26.87,26.87,0,0,0,3.07-1.82,22.1,22.1,0,0,0,2.62-2.25A23.18,23.18,0,0,0,131.23,59.75Zm-6.5.06-1.12,1.31c-.92-.83-1.55-1.37-1.88-1.62a3,3,0,0,0-.44-.35l-.68-.47c-.25-.16-.46-.31-.63-.43L121,57a13,13,0,0,1,1.22.75l.72.5A21,21,0,0,1,124.73,59.81Z" class="cls-3"/><path data-cppathid="10009" d="M134.23,70.12V56.25H136v4.43c1.88.67,3.08,1.13,3.63,1.38s1.52.75,3.18,1.62l-.93,1.57a34.08,34.08,0,0,0-3-1.75A22.81,22.81,0,0,0,136,62.37v7.75Z" class="cls-3"/><path data-cppathid="10010" d="M144.17,58.18h10.37l.19-.12,1.13,1.06a27.07,27.07,0,0,1-2.13,4.94A13.54,13.54,0,0,1,151,67.25a16.76,16.76,0,0,1-5,2.68,5.27,5.27,0,0,0-.37-.81,2.79,2.79,0,0,0-.19-.28c-.09-.1-.21-.24-.38-.41a16.77,16.77,0,0,0,3.38-1.37,10.35,10.35,0,0,0,2.31-1.75,12.64,12.64,0,0,0,1.81-2.44c.29-.54.75-1.6,1.38-3.19h-9.75Zm12.19-3a1.72,1.72,0,0,1,1.25.5,1.65,1.65,0,0,1,.5,1.19,1.7,1.7,0,0,1-.5,1.25,1.68,1.68,0,0,1-1.25.5,1.59,1.59,0,0,1-1.19-.5,1.67,1.67,0,0,1-.5-1.25,1.61,1.61,0,0,1,.5-1.19A1.63,1.63,0,0,1,156.36,55.18Zm0,.82a.78.78,0,0,0-.57.25.88.88,0,0,0-.31.62.9.9,0,0,0,.31.63.82.82,0,0,0,.57.25.87.87,0,0,0,.62-.25.85.85,0,0,0,.25-.63.81.81,0,0,0-.25-.62A.83.83,0,0,0,156.36,56Z" class="cls-3"/><path data-cppathid="10011" d="M159,60.62h10.88l.31-.06.88.81a27.7,27.7,0,0,1-2.32,4.31,11.17,11.17,0,0,1-2.5,2.38A16.12,16.12,0,0,1,161,70.18a8.59,8.59,0,0,0-.25-.93,5.67,5.67,0,0,0-.5-.69,12.6,12.6,0,0,0,4.13-1.19A8.78,8.78,0,0,0,167,65.31,14,14,0,0,0,169,62.06H159Zm1.5-2.19V57h8.69v1.43Z" class="cls-3"/><path data-cppathid="10012" d="M184,59.75a3.4,3.4,0,0,0,.5.62,2.38,2.38,0,0,0,.69.56,33.66,33.66,0,0,1-3.19,3.5,28.79,28.79,0,0,1-3.56,2.75,43.82,43.82,0,0,1-4.88,2.57L172.67,68a18.8,18.8,0,0,0,3.12-1.25,26.87,26.87,0,0,0,3.07-1.82,22.1,22.1,0,0,0,2.62-2.25A23.18,23.18,0,0,0,184,59.75Zm-6.5.06-1.12,1.31c-.92-.83-1.55-1.37-1.88-1.62a3,3,0,0,0-.44-.35l-.68-.47c-.25-.16-.46-.31-.63-.43l1-1.25a13,13,0,0,1,1.22.75l.72.5A21,21,0,0,1,177.48,59.81Z" class="cls-3"/><path data-cppathid="10013" d="M186.48,67.75V66.18h13.69v1.57Zm1.81-7.5V58.68h9.94v1.57Z" class="cls-3"/><path data-cppathid="10014" d="M213,59.75a3.4,3.4,0,0,0,.5.62,2.38,2.38,0,0,0,.69.56,33.66,33.66,0,0,1-3.19,3.5,28.79,28.79,0,0,1-3.56,2.75,43.82,43.82,0,0,1-4.88,2.57L201.67,68a18.8,18.8,0,0,0,3.12-1.25,26.87,26.87,0,0,0,3.07-1.82,22.1,22.1,0,0,0,2.62-2.25A23.18,23.18,0,0,0,213,59.75Zm-6.5.06-1.12,1.31c-.92-.83-1.55-1.37-1.88-1.62a3,3,0,0,0-.44-.35l-.68-.47c-.25-.16-.46-.31-.63-.43l1-1.25a13,13,0,0,1,1.22.75l.72.5A21,21,0,0,1,206.48,59.81Z" class="cls-3"/><path data-cppathid="10015" d="M221.36,59.12H226l.25-.06,1,.94a25.73,25.73,0,0,1-1.87,4.12,12.78,12.78,0,0,1-1.94,2.5,14.21,14.21,0,0,1-2.69,1.94A13.25,13.25,0,0,1,217.29,70c-.08-.17-.16-.38-.25-.63l-.68-.81a17.9,17.9,0,0,0,3.25-1.13A8.67,8.67,0,0,0,222,65.75a11.45,11.45,0,0,0,1.88-2.19c.46-.92.91-2,1.37-3.13h-4.62A21.24,21.24,0,0,1,216.79,65a1.7,1.7,0,0,0-.56-.57c-.37-.25-.65-.41-.81-.5A16.53,16.53,0,0,0,218.36,61a26.35,26.35,0,0,0,2.31-4.38l1.62.63a2,2,0,0,1-.12.21c0,.07-.11.18-.19.35s-.17.34-.25.53S221.52,58.79,221.36,59.12Zm4.43-1.25.75-.75c.88.75,1.46,1.27,1.75,1.56l-.75.75C227.25,59.14,226.67,58.62,225.79,57.87Zm4-.62-.87.81c-.92-.92-1.48-1.46-1.69-1.63l.69-.75A23.77,23.77,0,0,1,229.79,57.25Z" class="cls-3"/><path data-cppathid="10016" d="M97.73,247.28h8.56l.19-.06,1.06,1.06-1.68,2.94c-.17.29-.53.79-1.07,1.5,1.29,1.25,2.19,2.15,2.69,2.69.33.33,1.06,1.18,2.19,2.56l-1.44,1.12a20.29,20.29,0,0,0-1.5-2.06c-1-1.16-2-2.21-2.87-3.12a25.61,25.61,0,0,1-3.13,2.93,19.3,19.3,0,0,1-3.5,2.13,7.32,7.32,0,0,0-.5-.81,1.93,1.93,0,0,1-.22-.28,1.2,1.2,0,0,0-.4-.35,19.48,19.48,0,0,0,5.37-3.31,23.63,23.63,0,0,0,4-5.5H97.73Z" class="cls-3"/><path data-cppathid="10017" d="M111.17,247.59h10.37l.19-.12,1.13,1.06a27.07,27.07,0,0,1-2.13,4.94,13.54,13.54,0,0,1-2.75,3.19,16.76,16.76,0,0,1-5,2.68,5.27,5.27,0,0,0-.37-.81,2.79,2.79,0,0,0-.19-.28c-.09-.1-.21-.24-.38-.41a16.77,16.77,0,0,0,3.38-1.37,10.35,10.35,0,0,0,2.31-1.75,12.64,12.64,0,0,0,1.81-2.44c.29-.54.75-1.6,1.38-3.19h-9.75Zm12.19-3a1.72,1.72,0,0,1,1.25.5,1.65,1.65,0,0,1,.5,1.19,1.7,1.7,0,0,1-.5,1.25,1.68,1.68,0,0,1-1.25.5,1.59,1.59,0,0,1-1.19-.5,1.67,1.67,0,0,1-.5-1.25,1.61,1.61,0,0,1,.5-1.19A1.63,1.63,0,0,1,123.36,244.59Zm0,.82a.78.78,0,0,0-.57.25.88.88,0,0,0-.31.62.9.9,0,0,0,.31.63.82.82,0,0,0,.57.25.87.87,0,0,0,.62-.25.85.85,0,0,0,.25-.63.81.81,0,0,0-.25-.62A.83.83,0,0,0,123.36,245.41Z" class="cls-3"/><path data-cppathid="10018" d="M126.29,254.53v-7.87H128v7.87Zm2.07,5.06a6.67,6.67,0,0,0-.82-1.5,13.23,13.23,0,0,0,2.57-.87,4,4,0,0,0,1.5-1.13,3.52,3.52,0,0,0,.93-1.5,16,16,0,0,0,.32-3.5V246h1.62v5.56a9.17,9.17,0,0,1-1.19,5.13C132.46,257.87,130.81,258.84,128.36,259.59Z" class="cls-3"/><path data-cppathid="10019" d="M147.86,249.16a3,3,0,0,0,.5.62,2.31,2.31,0,0,0,.68.56,32.73,32.73,0,0,1-3.18,3.5,28.2,28.2,0,0,1-3.57,2.75,43.62,43.62,0,0,1-4.87,2.57l-.88-1.75a19,19,0,0,0,3.13-1.25,26.53,26.53,0,0,0,3.06-1.82,22.21,22.21,0,0,0,2.63-2.25A24,24,0,0,0,147.86,249.16Zm-6.5.06-1.13,1.31c-.92-.83-1.54-1.37-1.87-1.62a3.69,3.69,0,0,0-.44-.35l-.69-.47c-.25-.16-.46-.31-.62-.43l1-1.25a12.81,12.81,0,0,1,1.21.75l.72.5A21.48,21.48,0,0,1,141.36,249.22Z" class="cls-3"/><path data-cppathid="10020" d="M150.86,259.53V245.66h1.75v4.43c1.87.67,3.08,1.13,3.62,1.38s1.52.75,3.19,1.62l-.94,1.57a34.08,34.08,0,0,0-3-1.75,22.56,22.56,0,0,0-2.87-1.13v7.75Z" class="cls-3"/><path data-cppathid="10021" d="M161.17,257.53V246.28h1.69v10.31a21.13,21.13,0,0,0,4.43-2.56,23.28,23.28,0,0,0,4.13-4.37,7.41,7.41,0,0,0,1.12,1.12,25.77,25.77,0,0,1-4.06,4.31,34.17,34.17,0,0,1-5.12,3.19,4.53,4.53,0,0,0-1.13.63L161,257.84Z" class="cls-3"/><path data-cppathid="10022" d="M174,256.66V246.22h1.63v4.62a29.08,29.08,0,0,0,7-1.81l.87,1.44a28.62,28.62,0,0,1-3.43.94q-2,.43-4.44.81v4a.76.76,0,0,0,.37.75,7.87,7.87,0,0,0,2.69.31c2.17,0,4-.06,5.38-.19v1.57c-2.5.08-3.61.12-3.32.12a27.23,27.23,0,0,1-5.12-.31c-.67-.13-1.09-.33-1.25-.63A1.61,1.61,0,0,1,174,256.66Zm9.38-7.88-1.69-1.56.69-.75,1.81,1.56Zm.44-3.81,1.81,1.56-.81.81-1.75-1.56Z" class="cls-3"/><path data-cppathid="10023" d="M195.36,251l-.57,6.25h3v1.44H186.54v-1.44h6.69l.44-4.94h-5.75V251Z" class="cls-3"/><path data-cppathid="10024" d="M212.17,253.22H199.48v-1.56h12.69Z" class="cls-3"/><path data-cppathid="10025" d="M67.76,339.19h8.56l.19-.07,1.06,1.07-1.68,2.93a14,14,0,0,1-1.07,1.5c1.3,1.26,2.19,2.15,2.69,2.69.33.34,1.06,1.19,2.19,2.57L78.26,351a20.29,20.29,0,0,0-1.5-2.06c-1-1.17-2-2.21-2.87-3.13a25.09,25.09,0,0,1-3.13,2.94,20.5,20.5,0,0,1-3.5,2.13,8.22,8.22,0,0,0-.5-.82,2.09,2.09,0,0,1-.22-.28,1.2,1.2,0,0,0-.4-.34,19.26,19.26,0,0,0,5.37-3.32,23.42,23.42,0,0,0,4-5.5H67.76Z" class="cls-3"/><path data-cppathid="10026" d="M81.2,339.5H91.57l.19-.12,1.13,1.06a27.38,27.38,0,0,1-2.13,4.94A13.49,13.49,0,0,1,88,348.56a16.55,16.55,0,0,1-5,2.69,4.86,4.86,0,0,0-.37-.81,2,2,0,0,0-.19-.28,4.05,4.05,0,0,0-.38-.41,18,18,0,0,0,3.38-1.37,10.4,10.4,0,0,0,2.31-1.76,12.54,12.54,0,0,0,1.81-2.43A34.61,34.61,0,0,0,91,341H81.2Zm12.19-3a1.72,1.72,0,0,1,1.25.5,1.63,1.63,0,0,1,.5,1.19,1.71,1.71,0,0,1-1.75,1.75,1.63,1.63,0,0,1-1.19-.5,1.72,1.72,0,0,1-.5-1.25,1.71,1.71,0,0,1,1.69-1.69Zm0,.81a.82.82,0,0,0-.57.25.94.94,0,0,0-.31.63.92.92,0,0,0,.31.62.78.78,0,0,0,.57.25.83.83,0,0,0,.62-.25.81.81,0,0,0,.25-.62.85.85,0,0,0-.25-.63A.87.87,0,0,0,93.39,337.31Z" class="cls-3"/><path data-cppathid="10027" d="M96.32,346.44v-7.88H98v7.88Zm2.07,5.06a6.67,6.67,0,0,0-.82-1.5,12.42,12.42,0,0,0,2.57-.88,3.9,3.9,0,0,0,1.5-1.12,3.65,3.65,0,0,0,.93-1.5,16,16,0,0,0,.32-3.5v-5.12h1.62v5.56a9,9,0,0,1-1.19,5.12C102.49,349.77,100.84,350.75,98.39,351.5Z" class="cls-3"/><path data-cppathid="10028" d="M117.89,341.06a3.06,3.06,0,0,0,.5.63,2.67,2.67,0,0,0,.68.56,33.77,33.77,0,0,1-3.18,3.5,29.16,29.16,0,0,1-3.57,2.75,42,42,0,0,1-4.87,2.56l-.88-1.75a18.13,18.13,0,0,0,3.13-1.25,25.92,25.92,0,0,0,3.06-1.81,24.26,24.26,0,0,0,2.63-2.25A24.91,24.91,0,0,0,117.89,341.06Zm-6.5.06-1.13,1.32c-.92-.84-1.54-1.38-1.87-1.63a5.54,5.54,0,0,0-.44-.34l-.69-.47c-.25-.17-.46-.31-.62-.44l1-1.25c.45.25.86.5,1.22.75l.71.5C110.41,340.23,111,340.75,111.39,341.12Z" class="cls-3"/><path data-cppathid="10029" d="M120.89,351.44V337.56h1.75V342c1.87.67,3.08,1.12,3.62,1.38s1.52.74,3.19,1.62l-.94,1.56c-1-.62-2-1.21-3-1.75a22.79,22.79,0,0,0-2.87-1.12v7.75Z" class="cls-3"/><path data-cppathid="10030" d="M131.2,349.44V338.19h1.69V348.5a22,22,0,0,0,4.43-2.56,23.34,23.34,0,0,0,4.13-4.38,7.48,7.48,0,0,0,1.12,1.13,25.75,25.75,0,0,1-4.06,4.31,34.17,34.17,0,0,1-5.12,3.19,4.25,4.25,0,0,0-1.13.62l-1.19-1.06Z" class="cls-3"/><path data-cppathid="10031" d="M144.39,351.44V337.56h1.75V342c1.87.67,3.08,1.12,3.62,1.38s1.52.74,3.19,1.62l-.94,1.56c-1-.62-2-1.21-3-1.75a22.79,22.79,0,0,0-2.87-1.12v7.75Z" class="cls-3"/><path data-cppathid="10032" d="M154.82,350.19V339.38h10.63v10.68h-1.69v-1h-7.25v1.13Zm8.94-2.57v-6.81h-7.25v6.81Z" class="cls-3"/><path data-cppathid="10033" d="M169.14,339.19h8.56l.19-.07,1.06,1.07-1.69,2.93a15,15,0,0,1-1.06,1.5c1.29,1.26,2.19,2.15,2.69,2.69.33.34,1.06,1.19,2.18,2.57L179.64,351a23.92,23.92,0,0,0-1.5-2.06q-1.5-1.76-2.88-3.13a24.48,24.48,0,0,1-3.12,2.94,20.9,20.9,0,0,1-3.5,2.13c-.09-.17-.25-.44-.5-.82a1.18,1.18,0,0,1-.22-.28,1.15,1.15,0,0,0-.41-.34,19.32,19.32,0,0,0,5.38-3.32,23.42,23.42,0,0,0,4-5.5h-7.75Z" class="cls-3"/><path data-cppathid="10034" d="M190.82,342.38l5.5,6.06L195,349.62q-5.94-7-6.75-7.81c-.17-.16-.29-.25-.37-.25a.5.5,0,0,0-.32.19l-3.87,4.81-1.25-1.18,3.06-3.57a15.18,15.18,0,0,1,1.69-1.69,1.14,1.14,0,0,1,.56-.18,2,2,0,0,1,.88.18C189.26,340.75,190,341.5,190.82,342.38Zm2.32-4.13a1.63,1.63,0,0,1,1.18.5,1.59,1.59,0,0,1,.5,1.19,1.68,1.68,0,0,1-.5,1.25,1.63,1.63,0,0,1-1.18.5,1.7,1.7,0,0,1-1.25-.5,1.68,1.68,0,0,1-.5-1.25,1.59,1.59,0,0,1,.5-1.19A1.7,1.7,0,0,1,193.14,338.25Zm0,.81a.89.89,0,0,0-.63.25.85.85,0,0,0-.25.63.81.81,0,0,0,.25.62.85.85,0,0,0,.63.25.83.83,0,0,0,.62-.25.81.81,0,0,0,.25-.62.85.85,0,0,0-.25-.63A.87.87,0,0,0,193.14,339.06Z" class="cls-3"/><path data-cppathid="10035" d="M204.76,338.31l-1.06,2h4.69l.25-.12,1,1.06c-1,2.21-1.57,3.52-1.82,3.94a10.12,10.12,0,0,1-1.75,2.31,11.64,11.64,0,0,1-2.62,2.06,19.89,19.89,0,0,1-3.75,1.56,4,4,0,0,0-.94-1.43,22.43,22.43,0,0,0,3.31-1.19,8.75,8.75,0,0,0,2.44-1.69,11.92,11.92,0,0,0,1.81-2.25,24.55,24.55,0,0,0,1.32-2.94H203a19.57,19.57,0,0,1-1.81,2.44,14.17,14.17,0,0,1-2.13,2.06l-.43-.5a3.6,3.6,0,0,0-.75-.56,12.46,12.46,0,0,0,1.68-1.5c.34-.37.8-.94,1.38-1.68a19.88,19.88,0,0,0,1.25-2.19,16.8,16.8,0,0,0,.87-2Z" class="cls-3"/><path data-cppathid="10036" d="M211.07,343.62v-1.43h13.82v1.43h-5.75a14.65,14.65,0,0,1-.69,3.82,6.65,6.65,0,0,1-1.56,2.25,12.22,12.22,0,0,1-3.5,2l-.38-.88-.5-.62a9.31,9.31,0,0,0,3-1.44,4,4,0,0,0,1.38-1.81,10.39,10.39,0,0,0,.56-3.32Zm2.32-3.62v-1.44h9.31V340Z" class="cls-3"/><path data-cppathid="10037" d="M232.89,344.75v7h-1.44v-5.87a21.51,21.51,0,0,1-4.56,2.74c0-.16-.1-.32-.16-.46a3.08,3.08,0,0,0-.16-.35l-.37-.5a19.1,19.1,0,0,0,4.62-2.62,24,24,0,0,0,3.75-3.69l1.19.94C234.59,343.1,233.64,344,232.89,344.75Z" class="cls-3"/><path data-cppathid="10038" d="M237.26,339.44h10.38l.12-.06,1.13,1.06L248,343a14.67,14.67,0,0,1-2.19,3.88,11.82,11.82,0,0,1-3.12,2.74,15.68,15.68,0,0,1-3.75,1.63l-.38-.87a1.29,1.29,0,0,0-.19-.29,4.18,4.18,0,0,0-.31-.34,14.19,14.19,0,0,0,3.63-1.37,11.4,11.4,0,0,0,3-2.82,15.91,15.91,0,0,0,2.31-4.62h-9.69Zm12.56-.19-.62.69a3.36,3.36,0,0,0-.63-.6l-1-.84.63-.69A16.2,16.2,0,0,1,249.82,339.25Zm-1.06-1.87.75-.76a17.4,17.4,0,0,1,1.63,1.44l-.75.69A11.27,11.27,0,0,0,248.76,337.38Z" class="cls-3"/><path data-cppathid="10039" d="M103.79,154.67V153.3h13.88v1.37h-5.88a11.8,11.8,0,0,1-.56,3.82,6.27,6.27,0,0,1-1.56,2.25,12.47,12.47,0,0,1-3.63,2c-.16-.42-.29-.73-.37-.94l-.5-.63a10,10,0,0,0,3.12-1.37,4.37,4.37,0,0,0,1.44-1.81,14.63,14.63,0,0,0,.44-3.32Zm2.25-3.62v-1.44h8.82v1.44Zm9.13-1.38.75-.75c.54.54,1,1.09,1.5,1.63l-.75.69C116.46,151,116,150.46,115.17,149.67Zm1.25-1.18.75-.69c.66.66,1.16,1.19,1.5,1.56l-.81.75Q116.92,149,116.42,148.49Z" class="cls-3"/><path data-cppathid="10040" d="M128.92,152.3l-1.31,1.19v8.87h-1.69V154.8a25,25,0,0,1-2.94,2c-1.25.71-2.21,1.21-2.87,1.5a4.89,4.89,0,0,0-.82-1.5,23.33,23.33,0,0,0,3.94-2.06,22.75,22.75,0,0,0,3.38-2.57,30.63,30.63,0,0,0,3.31-3.5l1.37,1.19Z" class="cls-3"/><path data-cppathid="10041" d="M133.23,157.49v-7.88h1.69v7.88Zm2.06,5.06a6.22,6.22,0,0,0-.81-1.5,13.6,13.6,0,0,0,2.56-.88,3.85,3.85,0,0,0,1.5-1.12,3.67,3.67,0,0,0,.94-1.5,16.19,16.19,0,0,0,.31-3.5v-5.13h1.63v5.57a9.14,9.14,0,0,1-1.19,5.12Q139,161.42,135.29,162.55Z" class="cls-3"/><path data-cppathid="10042" d="M156.36,156.17H143.67v-1.56h12.69Z" class="cls-3"/><path data-cppathid="10043" d="M159.79,150.24h8.57l.18-.07,1.07,1.07-1.69,2.93a17.85,17.85,0,0,1-1.06,1.5c1.29,1.25,2.18,2.15,2.68,2.69.34.33,1.07,1.19,2.19,2.56l-1.44,1.13a19.22,19.22,0,0,0-1.5-2.06c-1-1.17-2-2.21-2.87-3.13a25.09,25.09,0,0,1-3.13,2.94,19.45,19.45,0,0,1-3.5,2.12c-.08-.16-.25-.43-.5-.81a2.09,2.09,0,0,1-.22-.28,1.1,1.1,0,0,0-.4-.34,19.34,19.34,0,0,0,5.37-3.32,23.14,23.14,0,0,0,4-5.5h-7.75Z" class="cls-3"/><path data-cppathid="10044" d="M180,149.36l-1.06,2h4.69l.25-.12,1,1.06c-1,2.21-1.56,3.52-1.81,3.94a10.75,10.75,0,0,1-1.75,2.31,11.7,11.7,0,0,1-2.63,2.06,19.89,19.89,0,0,1-3.75,1.56,4,4,0,0,0-.94-1.43,23.74,23.74,0,0,0,3.32-1.19,8.7,8.7,0,0,0,2.43-1.69,11.92,11.92,0,0,0,1.82-2.25,24.91,24.91,0,0,0,1.31-2.94h-4.63a18.62,18.62,0,0,1-1.81,2.44,15.05,15.05,0,0,1-2.12,2.06c-.21-.25-.36-.41-.44-.5a3.06,3.06,0,0,0-.75-.56,13.32,13.32,0,0,0,1.69-1.5c.33-.37.79-.94,1.37-1.69a18.48,18.48,0,0,0,1.25-2.18,15.82,15.82,0,0,0,.88-2Z" class="cls-3"/><path data-cppathid="10045" d="M186.48,153h10.88l.31-.07.87.82a27.46,27.46,0,0,1-2.31,4.31,11.58,11.58,0,0,1-2.5,2.37,15.9,15.9,0,0,1-5.25,2.13,9.27,9.27,0,0,0-.25-.94,8.09,8.09,0,0,0-.5-.69,12.62,12.62,0,0,0,4.13-1.18,9.1,9.1,0,0,0,2.62-2.07,14.11,14.11,0,0,0,1.94-3.25h-9.94Zm1.5-2.19v-1.44h8.69v1.44Z" class="cls-3"/><path data-cppathid="10046" d="M206.61,160.74l-6.38.87-.25-1.87,1.75-.13A98.66,98.66,0,0,0,206,149.17l1.81.69q-.18.63-2.43,5.56c-.5,1.13-1.13,2.5-1.88,4.13,2.63-.21,4.81-.46,6.56-.75q-1.18-1.81-2.68-3.81l1.31-.88a36,36,0,0,1,2.62,3.56c.25.42.9,1.54,1.94,3.38l-1.62.81a8.25,8.25,0,0,0-.88-1.81C210.15,160.17,208.77,160.4,206.61,160.74Z" class="cls-3"/><polyline data-cppathid="10047" points="137.92 4.63 140.85 23.35 121.66 24.15" class="cls-4"/><polyline data-cppathid="10048" points="118.33 103.53 121.25 122.25 102.06 123.05" class="cls-4"/><polyline data-cppathid="10049" points="166.8 116.18 154.58 129.83 142.23 115.95" class="cls-4"/><polyline data-cppathid="10050" points="166.79 211.55 154.57 225.2 142.22 211.32" class="cls-4"/><polyline data-cppathid="10051" points="166.79 302.69 154.57 316.34 142.22 302.47" class="cls-4"/><path data-cppathid="10052" d="M154.48,184a18,18,0,0,1-18,18h-88a18,18,0,0,1-18-18V127a18,18,0,0,1,18-18H100a18,18,0,0,1,13.7,6.33l6.54,6.92" class="cls-1"/></g></g></svg>