<?xml version="1.0" encoding="UTF-8"?>
<svg xmlns="http://www.w3.org/2000/svg" onmouseup="{ if(window.parent.document.onmouseup) window.parent.document.onmouseup(arguments[0]);}" viewBox="0 0 632.63 335.96"><defs><style>.cls-1{fill:#fff;}.cls-2{fill:#eaae4e;opacity:0.26;}.cls-3,.cls-4{fill:#f7c161;}.cls-3{opacity:0.16;}.cls-4{opacity:0.09;}.cls-5,.cls-8{fill:#009103;}.cls-5{stroke:#21601c;stroke-width:3px;}.cls-12,.cls-13,.cls-5{stroke-miterlimit:10;}.cls-6{fill:#21601c;}.cls-12,.cls-13,.cls-7{fill:none;}.cls-9{fill:#6e2016;}.cls-10{fill:#3c0f0b;}.cls-11{opacity:0.25;}.cls-12,.cls-13{stroke:#009103;}.cls-13{stroke-dasharray:2.02 2.02 2.02 2.02 2.02 2.02;}</style></defs><g data-name="Layer 2" id="Layer_2"><g data-name="two weeks jp" id="two_weeks_jp"><g data-name="printer paper" id="printer_paper"><rect data-cppathid="10000" height="277.47" width="598.33" y="57.46" x="32.74" class="cls-1"/><rect data-cppathid="10001" height="279.22" width="60" y="56.75" x="571.23" class="cls-2"/><rect data-cppathid="10002" height="279.22" width="60" y="56.75" x="510.88" class="cls-3"/><rect data-cppathid="10003" height="279.22" width="60" y="56.75" x="331.93" class="cls-2"/><rect data-cppathid="10004" height="279.22" width="57.78" y="56.75" x="392.44" class="cls-3"/><rect data-cppathid="10005" height="279.22" width="60" y="56.75" x="450.59" class="cls-2"/><rect data-cppathid="10006" height="279.22" width="60" y="56.75" x="92.47" class="cls-2"/><rect data-cppathid="10007" height="279.22" width="57.78" y="56.75" x="213.44" class="cls-2"/><rect data-cppathid="10008" height="279.22" width="60" y="56.75" x="271.33" class="cls-4"/><rect data-cppathid="10009" height="279.22" width="60" y="56.75" x="152.97" class="cls-4"/><rect data-cppathid="10010" height="279.22" width="60" y="56.59" x="32.18" class="cls-4"/></g><path data-cppathid="10011" transform="translate(-6.28)" d="M39.33,81V61.46a5,5,0,0,1,5-5H632.41a5,5,0,0,1,5,5V81" class="cls-5"/><polygon data-cppathid="10012" points="326.09 56.46 331.98 47.49 337.83 56.46 326.09 56.46" class="cls-6"/><rect data-cppathid="10013" height="46.49" width="158.4" x="252.13" class="cls-7"/><path data-cppathid="10014" transform="translate(-6.28)" d="M293.17,34.87V32.09h26.76v2.78ZM296,17V14.17H317V17Z" class="cls-8"/><path data-cppathid="10015" transform="translate(-6.28)" d="M323.81,24.58V22h6.66V32.69a11,11,0,0,0,3.27,1.58,9.6,9.6,0,0,0,3.39.72,48.37,48.37,0,0,0,5.45.25h9.32a5.71,5.71,0,0,0-.61,1.57,3,3,0,0,0-.12,1.09H340.76a32.38,32.38,0,0,1-4.48-.36,9.42,9.42,0,0,1-3.27-.85,13.47,13.47,0,0,1-3.39-1.7l-4.72,3.88-1.7-3q3.15-1.81,4.12-2.54V24.58ZM325,13.44l1.57-2.3a43.78,43.78,0,0,1,4.6,3.15l-1.69,2.3a19,19,0,0,0-1.64-1.21C326.93,14.73,326,14.09,325,13.44Zm8.35,9.2V11.5h17.08V30.27a9,9,0,0,1-.25,2.54c-.16.49-.4.77-.72.85a20.54,20.54,0,0,1-3.51.85c-.17-1.13-.25-1.65-.25-1.58-.08-.16-.32-.6-.72-1.33h2.66a.69.69,0,0,0,.12-.48V13.8h-12q0,10.05-.24,13.69a20,20,0,0,1-1.94,6.29l-2.42-1.57a25.3,25.3,0,0,0,1.7-4.6A20.31,20.31,0,0,0,333.37,22.64Zm7-6.3V14.53h2.54v1.81h3.51v2.18h-3.51v1.82h4.12V22.4H336.64V20.34h3.76V18.52h-3.27V16.34ZM337.13,32V24H346v6.54h-6.3V32Zm6.29-3.76V26.15h-3.75v2.06Z" class="cls-8"/><path data-cppathid="10016" transform="translate(-6.28)" d="M356.14,38.14V11.38h11v9.69H359V38.14Zm8.35-22.89V13.68H359v1.57Zm0,3.52v-1.7H359v1.7ZM362.56,36.2V23.13h11.38V34.75h-8.72V36.2Zm8.71-8.35v-2.3h-6v2.3Zm0,4.6V30h-6v2.42Zm-1.45-11.38V11.38h11V35.24a2.16,2.16,0,0,1-.73,1.93,10.35,10.35,0,0,1-4.11,1,12.08,12.08,0,0,0-1.09-2.78h2.54c.08,0,.2-.08.36-.25a.47.47,0,0,0,.12-.36V21.07Zm8.11-5.82V13.68h-5.32v1.57Zm0,3.52v-1.7h-5.32v1.7Z" class="cls-8"/><g id="days"><rect data-cppathid="10017" height="17.19" width="17.14" y="60.51" x="56.58" class="cls-7"/><path data-cppathid="10018" transform="translate(-6.28)" d="M67.25,63.23H76V75a2.84,2.84,0,0,1-.13.87,1.09,1.09,0,0,1-.69.44,6.73,6.73,0,0,1-1.93.31,11.36,11.36,0,0,0-.5-1.56h1.5a.24.24,0,0,0,.18-.06.49.49,0,0,0,.07-.31v-3h-6a13.6,13.6,0,0,1-.94,3.06,9,9,0,0,1-1.38,2.06A9.19,9.19,0,0,0,65,75.73a10,10,0,0,0,1.12-1.57,9.65,9.65,0,0,0,.69-1.81,9.34,9.34,0,0,0,.37-2.12C67.22,69.43,67.25,67.1,67.25,63.23ZM68.81,68l-.13,2.31H74.5V68Zm5.69-1.25V64.6H68.81v2.19Z" class="cls-1"/><path data-cppathid="10019" transform="translate(-6.28)" d="M67.25,60.94H76V72.76a2.84,2.84,0,0,1-.13.87c-.08.17-.31.31-.69.44a7.1,7.1,0,0,1-1.93.31,11.36,11.36,0,0,0-.5-1.56h1.5a.24.24,0,0,0,.18-.06.53.53,0,0,0,.07-.32v-3h-6a13.87,13.87,0,0,1-.94,3.07,9.16,9.16,0,0,1-1.38,2.06A9.33,9.33,0,0,0,65,73.44a10,10,0,0,0,1.12-1.56,9.92,9.92,0,0,0,.69-1.81,9.33,9.33,0,0,0,.37-2.13C67.22,67.15,67.25,64.82,67.25,60.94Zm1.56,4.82-.13,2.31H74.5V65.76Zm5.69-1.25V62.32H68.81v2.19Z" class="cls-1"/><rect data-cppathid="10020" height="20.62" width="16" y="62.94" x="113.83" class="cls-7"/><path data-cppathid="10021" transform="translate(-6.28)" d="M128.67,68.5c.54,1.25.88,2,1,2.19a23.47,23.47,0,0,0,1.56,2.13,8.14,8.14,0,0,0,1.82,1.56,16.7,16.7,0,0,0,2.31,1.19,3.6,3.6,0,0,0-.69.62l-.44.88a16.53,16.53,0,0,1-3.75-2.82,11.61,11.61,0,0,1-2.37-3.5,9.59,9.59,0,0,1-1.5,2.75,8.36,8.36,0,0,1-1.75,1.75,25.76,25.76,0,0,1-3.06,1.69,7.55,7.55,0,0,0-1-1.31,10.14,10.14,0,0,0,2.81-1.38,9.06,9.06,0,0,0,2.12-2.06,6.82,6.82,0,0,0,1.13-2.56,39.79,39.79,0,0,0,.37-6.75h1.69l-.06,3.31C128.86,66.48,128.8,67.25,128.67,68.5Zm-4.81-2.81,1.44.56a14,14,0,0,1-1.94,4.44L122.11,70a17.51,17.51,0,0,0,1-1.93A13.84,13.84,0,0,0,123.86,65.69Zm7,4.88-1.13-1c1.42-1.75,2.46-3.09,3.13-4l1.19,1.06C132.92,68,131.86,69.36,130.86,70.57Z" class="cls-1"/><path data-cppathid="10022" transform="translate(-6.28)" d="M128.67,68.5c.54,1.25.88,2,1,2.19a23.47,23.47,0,0,0,1.56,2.13,8.14,8.14,0,0,0,1.82,1.56,16.7,16.7,0,0,0,2.31,1.19,3.6,3.6,0,0,0-.69.62l-.44.88a16.53,16.53,0,0,1-3.75-2.82,11.61,11.61,0,0,1-2.37-3.5,9.59,9.59,0,0,1-1.5,2.75,8.36,8.36,0,0,1-1.75,1.75,25.76,25.76,0,0,1-3.06,1.69,7.55,7.55,0,0,0-1-1.31,10.14,10.14,0,0,0,2.81-1.38,9.06,9.06,0,0,0,2.12-2.06,6.82,6.82,0,0,0,1.13-2.56,39.79,39.79,0,0,0,.37-6.75h1.69l-.06,3.31C128.86,66.48,128.8,67.25,128.67,68.5Zm-4.81-2.81,1.44.56a14,14,0,0,1-1.94,4.44L122.11,70a17.51,17.51,0,0,0,1-1.93A13.84,13.84,0,0,0,123.86,65.69Zm7,4.88-1.13-1c1.42-1.75,2.46-3.09,3.13-4l1.19,1.06C132.92,68,131.86,69.36,130.86,70.57Z" class="cls-1"/><rect data-cppathid="10023" height="20.62" width="17.7" y="58.8" x="173.15" class="cls-7"/><path data-cppathid="10024" transform="translate(-6.28)" d="M181.6,66.42h3.81l.25-.13,1,.63a33.15,33.15,0,0,1-1.31,4.19,12,12,0,0,1-1.19,2.06,31.44,31.44,0,0,1-2.19,2.5,6.12,6.12,0,0,0-1.06-1.06,14.58,14.58,0,0,0,2.75-3.25A12.11,12.11,0,0,0,185,67.73H181.6ZM187.53,75V62.54H189v2.63a8.55,8.55,0,0,0,.31,1.06,11.07,11.07,0,0,0,.94,2.19Q192,67,193.47,65.67l1.13,1.25-2.32,1.75-1.43,1a13.93,13.93,0,0,0,2,2.5,11.12,11.12,0,0,0,2.75,1.94,1.8,1.8,0,0,0-.57.56,5.39,5.39,0,0,0-.56.75A14,14,0,0,1,192.6,74a9.36,9.36,0,0,1-1.5-1.62q-.25-.32-.69-.81L189,68.92v6.19a2.86,2.86,0,0,1-.12.87.64.64,0,0,1-.57.44,13.08,13.08,0,0,1-1.93.44,5.08,5.08,0,0,0-.57-1.57h1.57q.12,0,.12-.06A.25.25,0,0,0,187.53,75Z" class="cls-1"/><path data-cppathid="10025" transform="translate(-6.28)" d="M181.6,62.42h3.81l.25-.12,1,.62a33.15,33.15,0,0,1-1.31,4.19,11.67,11.67,0,0,1-1.19,2.06,29.67,29.67,0,0,1-2.19,2.5,6.5,6.5,0,0,0-1.06-1.06,14.36,14.36,0,0,0,2.75-3.25A12,12,0,0,0,185,63.73H181.6Zm5.93,8.63V58.55H189v2.62a8.55,8.55,0,0,0,.31,1.06,11.07,11.07,0,0,0,.94,2.19c1.17-.92,2.25-1.83,3.25-2.75l1.13,1.25-2.32,1.75-1.43,1a13.58,13.58,0,0,0,2,2.5,10.87,10.87,0,0,0,2.75,1.94,1.91,1.91,0,0,0-.57.56,7.07,7.07,0,0,0-.56.75,13.07,13.07,0,0,1-1.87-1.37,9.87,9.87,0,0,1-1.5-1.63q-.25-.32-.69-.81L189,64.92v6.19a2.86,2.86,0,0,1-.12.87.64.64,0,0,1-.57.44,13.08,13.08,0,0,1-1.93.44,5,5,0,0,0-.57-1.56h1.57c.08,0,.12,0,.12-.07A.24.24,0,0,0,187.53,71.05Z" class="cls-1"/><rect data-cppathid="10026" height="17.19" width="27.14" y="60.51" x="228.76" class="cls-7"/><path data-cppathid="10027" transform="translate(-6.28)" d="M247.74,65.61V62.48h1.5v3.13h5.87v1.5h-5a9.32,9.32,0,0,0,1,2,17.39,17.39,0,0,0,1.94,2.18A19,19,0,0,0,256,73.61l-.69.68a2.28,2.28,0,0,0-.44.69,24.07,24.07,0,0,1-4.19-4.06,17.3,17.3,0,0,1-1.43-2.38v8.38h-1.5V68.73a24,24,0,0,1-2.57,3.44,38.53,38.53,0,0,1-3,2.75,6.24,6.24,0,0,0-1-1.38,18.79,18.79,0,0,0,3.25-2.75,20.39,20.39,0,0,0,2.69-3.68h-5.19v-1.5Z" class="cls-1"/><path data-cppathid="10028" transform="translate(-6.28)" d="M247.74,63.32V60.2h1.5v3.12h5.87v1.5h-5a8.87,8.87,0,0,0,1,2A16.85,16.85,0,0,0,253.05,69,18.37,18.37,0,0,0,256,71.32l-.69.69a2.28,2.28,0,0,0-.44.69,21.45,21.45,0,0,1-2.44-2.13,19.76,19.76,0,0,1-1.75-1.93,18,18,0,0,1-1.43-2.38v8.38h-1.5V66.45a24,24,0,0,1-2.57,3.44,38.53,38.53,0,0,1-3,2.75,6,6,0,0,0-1-1.38,18.79,18.79,0,0,0,3.25-2.75,20.12,20.12,0,0,0,2.69-3.69h-5.19v-1.5Z" class="cls-1"/><rect data-cppathid="10029" height="17.19" width="26.62" y="60.51" x="288.02" class="cls-7"/><path data-cppathid="10030" transform="translate(-6.28)" d="M308.11,71.26v4.1h6.47v1h-13.9v-1H307v-4.1H301.4v-1H307V68.06h-3.44v-.92A22.71,22.71,0,0,1,300.83,69a5.89,5.89,0,0,0-.68-.85A18.66,18.66,0,0,0,307,61.91l1.57.1a.4.4,0,0,1-.32.24,20.48,20.48,0,0,0,6.92,5.66,5.52,5.52,0,0,0-.72,1A22.7,22.7,0,0,1,307.55,63a18.43,18.43,0,0,1-3.92,4h8.05v1h-3.57V70.3h5.71v1Zm-3.78,3.82a11.28,11.28,0,0,0-1.5-3l.88-.34a10.82,10.82,0,0,1,1.57,3Zm8.23-2.88a.33.33,0,0,1-.35.13,24.86,24.86,0,0,1-1.84,2.79l-.8-.4a19.67,19.67,0,0,0,1.79-3Z" class="cls-1"/><path data-cppathid="10031" transform="translate(-6.28)" d="M308.11,69.06v4.1h6.47v1h-13.9v-1H307v-4.1H301.4v-1H307V65.86h-3.44V65a22.62,22.62,0,0,1-2.72,1.82,6.42,6.42,0,0,0-.68-.84A18.66,18.66,0,0,0,307,59.72l1.57.09a.37.37,0,0,1-.32.24,20.39,20.39,0,0,0,6.92,5.67,5.45,5.45,0,0,0-.72.94,22.53,22.53,0,0,1-6.87-5.82,18.65,18.65,0,0,1-3.92,4h8.05v1h-3.57V68.1h5.71v1Zm-3.78,3.83a11.33,11.33,0,0,0-1.5-3l.88-.33a10.54,10.54,0,0,1,1.57,3ZM312.56,70a.36.36,0,0,1-.35.13,24.75,24.75,0,0,1-1.84,2.78l-.8-.4a19.57,19.57,0,0,0,1.79-3Z" class="cls-1"/><path data-cppathid="10032" transform="translate(-6.28)" d="M362.79,61.64h8.75V73.46a2.86,2.86,0,0,1-.12.87,1.2,1.2,0,0,1-.69.44,7.18,7.18,0,0,1-1.94.31,9.15,9.15,0,0,0-.5-1.56h1.5a.27.27,0,0,0,.19-.06.55.55,0,0,0,.06-.32v-3h-6a13.36,13.36,0,0,1-.94,3.07,9.11,9.11,0,0,1-1.37,2.06,9.35,9.35,0,0,0-1.19-1.13,10.84,10.84,0,0,0,1.13-1.56,9.2,9.2,0,0,0,.68-1.81,9.35,9.35,0,0,0,.38-2.13Q362.79,67.45,362.79,61.64Zm1.56,4.82-.12,2.31H370V66.46ZM370,65.21V63h-5.69v2.19Z" class="cls-1"/><path data-cppathid="10033" transform="translate(-6.28)" d="M424.22,66.92c.54,1.25.87,2,1,2.19a23.15,23.15,0,0,0,1.56,2.12,7.61,7.61,0,0,0,1.81,1.56A15.65,15.65,0,0,0,430.9,74a3.37,3.37,0,0,0-.68.63l-.44.87A16.22,16.22,0,0,1,426,72.67a12,12,0,0,1-2.38-3.5,9.26,9.26,0,0,1-1.5,2.75,8.37,8.37,0,0,1-1.75,1.75,24.22,24.22,0,0,1-3.06,1.69,7.55,7.55,0,0,0-1-1.32,10,10,0,0,0,2.81-1.37,9.12,9.12,0,0,0,2.13-2.06A6.85,6.85,0,0,0,422.4,68a39.31,39.31,0,0,0,.38-6.75h1.69l-.07,3.32Q424.4,65,424.22,66.92Zm-4.82-2.81,1.44.56a13.74,13.74,0,0,1-1.94,4.44l-1.25-.69a17.5,17.5,0,0,0,1-1.94A13.4,13.4,0,0,0,419.4,64.11Zm7,4.87-1.12-1c1.41-1.75,2.46-3.08,3.12-4L429.59,65C428.47,66.46,427.4,67.77,426.4,69Z" class="cls-1"/><path data-cppathid="10034" transform="translate(-6.28)" d="M477.14,64.83H481l.25-.12,1,.62a31,31,0,0,1-1.31,4.19,11.32,11.32,0,0,1-1.19,2.06,30.86,30.86,0,0,1-2.18,2.5A6.64,6.64,0,0,0,476.45,73a13.86,13.86,0,0,0,2.75-3.25,12.28,12.28,0,0,0,1.32-3.62h-3.38Zm5.94,8.63V61h1.44v2.62a6.84,6.84,0,0,0,.31,1.07,10.13,10.13,0,0,0,.94,2.18c1.16-.91,2.25-1.83,3.25-2.75l1.12,1.25-2.31,1.75-1.44,1a13.65,13.65,0,0,0,2,2.5,11,11,0,0,0,2.75,1.94,1.86,1.86,0,0,0-.56.56,5.89,5.89,0,0,0-.56.75,13.14,13.14,0,0,1-1.88-1.37,9.87,9.87,0,0,1-1.5-1.63q-.24-.3-.69-.81l-1.43-2.69v6.19a2.59,2.59,0,0,1-.13.88.62.62,0,0,1-.56.43,12,12,0,0,1-1.94.44,5,5,0,0,0-.56-1.56h1.56c.09,0,.13,0,.13-.06A.27.27,0,0,0,483.08,73.46Z" class="cls-1"/><path data-cppathid="10035" transform="translate(-6.28)" d="M543.28,64V60.9h1.5V64h5.88v1.5h-5a8.67,8.67,0,0,0,1,2,16.83,16.83,0,0,0,1.93,2.19A18.37,18.37,0,0,0,551.53,72l-.69.69a2.27,2.27,0,0,0-.43.69A21.56,21.56,0,0,1,548,71.27a17.87,17.87,0,0,1-1.75-1.94A16.06,16.06,0,0,1,544.78,67v8.37h-1.5V67.15a23.85,23.85,0,0,1-2.56,3.43,36.63,36.63,0,0,1-3,2.75,6.85,6.85,0,0,0-1-1.37A19.65,19.65,0,0,0,540,69.21a20.6,20.6,0,0,0,2.69-3.69h-5.19V64Z" class="cls-1"/><path data-cppathid="10036" transform="translate(-6.28)" d="M603.65,69.67v4.1h6.47v1H596.23v-1h6.3v-4.1H597v-1h5.58V66.47h-3.44v-.91a23.11,23.11,0,0,1-2.72,1.83,6.57,6.57,0,0,0-.67-.85,18.82,18.82,0,0,0,6.82-6.21l1.57.09a.38.38,0,0,1-.32.24,20.36,20.36,0,0,0,6.91,5.67,6,6,0,0,0-.72.94,22.65,22.65,0,0,1-6.87-5.82,18.42,18.42,0,0,1-3.92,4h8.05v1h-3.57v2.24h5.72v1Zm-3.77,3.83a10.91,10.91,0,0,0-1.51-3l.88-.34a10.17,10.17,0,0,1,1.57,3Zm8.22-2.88c0,.1-.17.14-.35.13a23.45,23.45,0,0,1-1.84,2.78l-.8-.4a18.81,18.81,0,0,0,1.79-3Z" class="cls-1"/></g><g id="times"><path data-cppathid="10037" transform="translate(-6.28)" d="M14.06,123.72a4,4,0,0,0,.91-.11,3.52,3.52,0,0,0,1.69-1,6.19,6.19,0,0,0,1.45-3.5h0a2.59,2.59,0,0,1-2,1c-1.53,0-2.67-1.42-2.67-3.67s1.21-4.18,3.11-4.18c2.11,0,3.1,2.25,3.1,5A9.33,9.33,0,0,1,17.93,123a4.76,4.76,0,0,1-2.85,1.86,4,4,0,0,1-1,.12Zm.74-7.33c0,1.8.68,2.68,1.67,2.68A1.73,1.73,0,0,0,18,118a1.77,1.77,0,0,0,.12-.78c0-2.61-.75-3.73-1.73-3.73C15.64,113.46,14.78,114.26,14.8,116.39Z" class="cls-8"/><path data-cppathid="10038" transform="translate(-6.28)" d="M23.5,123.61a9.15,9.15,0,0,0,.06,1.21H22.8l-.06-.56h0a1.2,1.2,0,0,1-1.07.65c-.7,0-1.25-.59-1.25-1.52,0-1.34,1.06-1.92,2.26-1.93v-.17c0-.71-.18-1.2-.84-1.2a1.49,1.49,0,0,0-.88.28l-.19-.6a2.35,2.35,0,0,1,1.24-.35c1.07,0,1.52.7,1.52,1.88Zm-.82-1.55c-.44,0-1.47.09-1.47,1.25,0,.7.35.94.65.94s.68-.27.78-.8a1.65,1.65,0,0,0,0-.31Z" class="cls-8"/><path data-cppathid="10039" transform="translate(-6.28)" d="M24.7,120.87c0-.62,0-.94,0-1.37h.73l.05.66h0a1.33,1.33,0,0,1,1.2-.74,1.1,1.1,0,0,1,1.11.82h0a1.54,1.54,0,0,1,.53-.61,1.31,1.31,0,0,1,.74-.21c.71,0,1.27.52,1.27,1.88v3.52H29.5v-3.33c0-.69-.1-1.36-.75-1.36-.35,0-.66.29-.78.8a2.23,2.23,0,0,0,0,.47v3.42H27.1v-3.48c0-.59-.1-1.21-.74-1.21-.35,0-.69.29-.79.87a3,3,0,0,0,0,.45v3.37H24.7Z" class="cls-8"/><path data-cppathid="10040" transform="translate(-6.28)" d="M15.46,93.3a3.52,3.52,0,0,1-1.61-2.83,2.89,2.89,0,0,1,2.86-3.08,2.71,2.71,0,0,1,2.66,2.91,3.53,3.53,0,0,1-1.65,2.93v0a4,4,0,0,1,2,3.38,3.18,3.18,0,0,1-3.18,3.4,3,3,0,0,1-3.07-3.15,4.23,4.23,0,0,1,2-3.55Zm2.79,3.42a3.28,3.28,0,0,0-1.76-2.85,3.3,3.3,0,0,0-1.6,2.77c0,1.37.63,2.32,1.69,2.32S18.25,98.28,18.25,96.72Zm-3-6.34a2.71,2.71,0,0,0,1.52,2.37A2.81,2.81,0,0,0,18,90.47c0-1.2-.48-2-1.37-2S15.25,89.25,15.25,90.38Z" class="cls-8"/><path data-cppathid="10041" transform="translate(-6.28)" d="M23.63,98.68a11.39,11.39,0,0,0,.05,1.21h-.75l-.06-.56h0a1.2,1.2,0,0,1-1.07.65c-.7,0-1.25-.59-1.25-1.52,0-1.34,1.06-1.92,2.26-1.93v-.17c0-.71-.18-1.2-.84-1.2a1.47,1.47,0,0,0-.88.28l-.19-.6a2.35,2.35,0,0,1,1.24-.35c1.07,0,1.52.69,1.52,1.88Zm-.83-1.55c-.44,0-1.46.09-1.46,1.24,0,.71.35.95.65.95s.68-.27.78-.8a1.63,1.63,0,0,0,0-.31Z" class="cls-8"/><path data-cppathid="10042" transform="translate(-6.28)" d="M24.83,95.94c0-.62,0-.94,0-1.37h.74l0,.66h0a1.33,1.33,0,0,1,1.2-.74,1.1,1.1,0,0,1,1.11.82h0a1.54,1.54,0,0,1,.53-.61,1.3,1.3,0,0,1,.73-.21c.72,0,1.28.52,1.28,1.88v3.52h-.84V96.56c0-.69-.09-1.36-.74-1.36-.36,0-.66.29-.78.8a2.23,2.23,0,0,0,0,.47v3.42h-.83V96.41c0-.59-.1-1.21-.74-1.21-.35,0-.69.29-.79.86a3.15,3.15,0,0,0,0,.46v3.37h-.83Z" class="cls-8"/><path data-cppathid="10043" transform="translate(-6.28)" d="M9,138.89H9l-2,1.18-.28-1.14,2.6-1.52h1.2v12.34H9Z" class="cls-8"/><path data-cppathid="10044" transform="translate(-6.28)" d="M19.59,143.56c0,4.5-1.43,6.35-3.21,6.35s-3.08-2.28-3.08-6.31,1.23-6.35,3.25-6.35S19.59,139.63,19.59,143.56Zm-4.83,0c0,3,.5,5.07,1.71,5.07s1.65-2.11,1.65-5.07-.47-5.07-1.65-5.07S14.76,140.6,14.76,143.58Z" class="cls-8"/><path data-cppathid="10045" transform="translate(-6.28)" d="M23.5,148.54a9.15,9.15,0,0,0,.06,1.21H22.8l-.06-.56h0a1.2,1.2,0,0,1-1.07.65,1.34,1.34,0,0,1-1.25-1.51c0-1.35,1.06-1.93,2.26-1.94v-.17c0-.71-.18-1.2-.84-1.2a1.49,1.49,0,0,0-.88.28l-.19-.59a2.25,2.25,0,0,1,1.24-.36c1.07,0,1.52.7,1.52,1.88ZM22.68,147c-.44,0-1.47.09-1.47,1.25,0,.7.35.94.65.94s.68-.27.78-.8a1.65,1.65,0,0,0,0-.31Z" class="cls-8"/><path data-cppathid="10046" transform="translate(-6.28)" d="M24.7,145.81c0-.63,0-.95,0-1.38h.73l.05.66h0a1.33,1.33,0,0,1,1.2-.74,1.1,1.1,0,0,1,1.11.82h0a1.54,1.54,0,0,1,.53-.61,1.31,1.31,0,0,1,.74-.21c.71,0,1.27.52,1.27,1.88v3.52H29.5v-3.33c0-.69-.1-1.36-.75-1.36-.35,0-.66.29-.78.8a2.23,2.23,0,0,0,0,.47v3.42H27.1v-3.48c0-.59-.1-1.21-.74-1.21-.35,0-.69.29-.79.87a3,3,0,0,0,0,.45v3.37H24.7Z" class="cls-8"/><path data-cppathid="10047" transform="translate(-6.28)" d="M9,163.82H9L7,165l-.28-1.14,2.6-1.52h1.2v12.35H9Z" class="cls-8"/><path data-cppathid="10048" transform="translate(-6.28)" d="M16.36,163.82h0L14.27,165,14,163.86l2.61-1.52h1.19v12.35H16.36Z" class="cls-8"/><path data-cppathid="10049" transform="translate(-6.28)" d="M23.5,173.48a9.34,9.34,0,0,0,.06,1.21H22.8l-.06-.57h0a1.2,1.2,0,0,1-1.07.65,1.34,1.34,0,0,1-1.25-1.51c0-1.35,1.06-1.93,2.26-1.94v-.17c0-.71-.18-1.19-.84-1.19a1.48,1.48,0,0,0-.88.27l-.19-.59a2.25,2.25,0,0,1,1.24-.36c1.07,0,1.52.7,1.52,1.89Zm-.82-1.56c-.44,0-1.47.09-1.47,1.25,0,.7.35.94.65.94s.68-.27.78-.8a1.65,1.65,0,0,0,0-.31Z" class="cls-8"/><path data-cppathid="10050" transform="translate(-6.28)" d="M24.7,170.74c0-.63,0-1,0-1.38h.73l.05.66h0a1.33,1.33,0,0,1,1.2-.74,1.1,1.1,0,0,1,1.11.82h0a1.54,1.54,0,0,1,.53-.61,1.31,1.31,0,0,1,.74-.21c.71,0,1.27.52,1.27,1.89v3.52H29.5v-3.34c0-.69-.1-1.36-.75-1.36-.35,0-.66.3-.78.8a2.23,2.23,0,0,0,0,.47v3.43H27.1V171.2c0-.58-.1-1.21-.74-1.21-.35,0-.69.3-.79.87a3,3,0,0,0,0,.45v3.38H24.7Z" class="cls-8"/><path data-cppathid="10051" transform="translate(-6.28)" d="M8.66,188.75h0l-2,1.18-.29-1.14,2.61-1.52h1.19v12.35H8.66Z" class="cls-8"/><path data-cppathid="10052" transform="translate(-6.28)" d="M13,199.62v-1l1-1.41c1.49-2,3.21-4.37,3.21-6.68,0-1.37-.58-2.21-1.74-2.21a3.05,3.05,0,0,0-1.79.68l-.36-1.1a3.82,3.82,0,0,1,2.41-.83c2,0,2.93,1.52,2.93,3.38,0,2.32-1.5,4.56-3,6.65l-.82,1.14v0H19v1.29Z" class="cls-8"/><path data-cppathid="10053" transform="translate(-6.28)" d="M20.3,196c0-.81,0-1.28,0-1.66H21l.05.68h0a1.24,1.24,0,0,1,1.13-.75c.94,0,1.54,1,1.54,2.72,0,2-.81,2.77-1.65,2.77a1,1,0,0,1-.93-.62h0v2.64H20.3Zm.84,1.72a2.06,2.06,0,0,0,0,.44c.16.76.55.89.78.89.7,0,.94-1,.94-2s-.27-2-.95-2c-.39,0-.74.48-.78,1a2.54,2.54,0,0,0,0,.41Z" class="cls-8"/><path data-cppathid="10054" transform="translate(-6.28)" d="M24.7,195.67c0-.63,0-.95,0-1.38h.73l.05.66h0a1.32,1.32,0,0,1,1.2-.73,1.1,1.1,0,0,1,1.11.81h0a1.69,1.69,0,0,1,.53-.61,1.3,1.3,0,0,1,.74-.2c.71,0,1.27.51,1.27,1.88v3.52H29.5v-3.34c0-.69-.1-1.36-.75-1.36-.35,0-.66.3-.78.8a2.27,2.27,0,0,0,0,.48v3.42H27.1v-3.49c0-.58-.1-1.21-.74-1.21-.35,0-.69.3-.79.87a3.09,3.09,0,0,0,0,.45v3.38H24.7Z" class="cls-8"/><path data-cppathid="10055" transform="translate(-6.28)" d="M16,213.68h0l-2,1.18-.28-1.14,2.6-1.52h1.2v12.35H16Z" class="cls-8"/><path data-cppathid="10056" transform="translate(-6.28)" d="M20.3,220.88c0-.81,0-1.28-.05-1.66H21l.05.69h0a1.23,1.23,0,0,1,1.13-.76c.94,0,1.54,1,1.54,2.72,0,2-.81,2.77-1.65,2.77a1,1,0,0,1-.93-.62h0v2.64H20.3Zm.84,1.72a2.06,2.06,0,0,0,0,.44c.16.76.55.89.78.89.7,0,.94-1,.94-2s-.27-2-.95-2c-.39,0-.74.47-.78,1a2.54,2.54,0,0,0,0,.41Z" class="cls-8"/><path data-cppathid="10057" transform="translate(-6.28)" d="M24.7,220.6c0-.63,0-.95-.05-1.38h.74l.05.66h0a1.32,1.32,0,0,1,1.2-.73,1.1,1.1,0,0,1,1.11.81h0a1.69,1.69,0,0,1,.53-.61,1.3,1.3,0,0,1,.74-.2c.71,0,1.27.51,1.27,1.88v3.52H29.5v-3.34c0-.69-.1-1.36-.75-1.36-.36,0-.66.3-.78.8a2.33,2.33,0,0,0,0,.48v3.42H27.1v-3.49c0-.58-.1-1.21-.74-1.21-.35,0-.69.3-.79.87a2.89,2.89,0,0,0,0,.45v3.38H24.7Z" class="cls-8"/><path data-cppathid="10058" transform="translate(-6.28)" d="M13,249.48v-.95l1-1.41c1.49-2.05,3.21-4.37,3.21-6.68,0-1.37-.58-2.21-1.74-2.21a3,3,0,0,0-1.79.69l-.36-1.1a3.77,3.77,0,0,1,2.41-.84c2,0,2.93,1.52,2.93,3.38,0,2.32-1.5,4.56-3,6.65l-.82,1.14v0H19v1.29Z" class="cls-8"/><path data-cppathid="10059" transform="translate(-6.28)" d="M20.3,245.82c0-.82,0-1.29-.05-1.67H21l.05.69h0a1.25,1.25,0,0,1,1.13-.76c.94,0,1.54,1,1.54,2.73,0,2-.81,2.76-1.65,2.76a1,1,0,0,1-.93-.62h0v2.64H20.3Zm.84,1.71a2,2,0,0,0,0,.44c.16.76.55.89.78.89.7,0,.94-1,.94-2s-.27-2-.95-2c-.39,0-.74.48-.78,1a2.54,2.54,0,0,0,0,.41Z" class="cls-8"/><path data-cppathid="10060" transform="translate(-6.28)" d="M24.7,245.53c0-.63,0-.95-.05-1.38h.74l.05.66h0a1.34,1.34,0,0,1,1.2-.73,1.1,1.1,0,0,1,1.11.81h0a1.57,1.57,0,0,1,.53-.6,1.24,1.24,0,0,1,.74-.21c.71,0,1.27.51,1.27,1.88v3.52H29.5v-3.33c0-.7-.1-1.37-.75-1.37-.36,0-.66.3-.78.8a2.33,2.33,0,0,0,0,.48v3.42H27.1V246c0-.58-.1-1.21-.74-1.21-.35,0-.69.3-.79.87a3,3,0,0,0,0,.45v3.38H24.7Z" class="cls-8"/><path data-cppathid="10061" transform="translate(-6.28)" d="M13.26,272.83a3.5,3.5,0,0,0,1.76.52,2.16,2.16,0,0,0,2.15-2.45,2.35,2.35,0,0,0-2.49-2.57h-.34v-1.1h.28a2.22,2.22,0,0,0,2.23-2.2c0-1.26-.67-1.9-1.64-1.9a2.74,2.74,0,0,0-1.54.58l-.32-1.1a3.77,3.77,0,0,1,2.22-.7,2.64,2.64,0,0,1,2.74,2.85,3.1,3.1,0,0,1-1.84,2.89v0a3.07,3.07,0,0,1,2.16,3.24,3.41,3.41,0,0,1-3.53,3.64,4.2,4.2,0,0,1-2.17-.57Z" class="cls-8"/><path data-cppathid="10062" transform="translate(-6.28)" d="M20.3,270.75c0-.82,0-1.29-.05-1.67H21l.05.69h0A1.25,1.25,0,0,1,22.2,269c.94,0,1.54,1,1.54,2.73,0,2-.81,2.76-1.65,2.76a1,1,0,0,1-.93-.62h0v2.64H20.3Zm.84,1.71a2,2,0,0,0,0,.44c.16.76.55.89.78.89.7,0,.94-1,.94-2s-.27-2-.95-2c-.39,0-.74.48-.78,1a2.63,2.63,0,0,0,0,.41Z" class="cls-8"/><path data-cppathid="10063" transform="translate(-6.28)" d="M24.7,270.46c0-.63,0-.95-.05-1.38h.74l.05.67h0a1.33,1.33,0,0,1,1.2-.74,1.1,1.1,0,0,1,1.11.81h0a1.57,1.57,0,0,1,.53-.6,1.24,1.24,0,0,1,.74-.21c.71,0,1.27.52,1.27,1.88v3.52H29.5v-3.33c0-.7-.1-1.37-.75-1.37-.36,0-.66.3-.78.81a2.17,2.17,0,0,0,0,.47v3.42H27.1v-3.49c0-.58-.1-1.21-.74-1.21-.35,0-.69.3-.79.87a3,3,0,0,0,0,.45v3.38H24.7Z" class="cls-8"/><path data-cppathid="10064" transform="translate(-6.28)" d="M16.85,299.34v-3.42H12.74v-1l4-7.94h1.43v7.73h1.33v1.2H18.18v3.42Zm0-4.62v-3.47c0-.86,0-1.62.11-2.43h-.08c-.41,1-.68,1.55-1,2.31l-1.71,3.56v0Z" class="cls-8"/><path data-cppathid="10065" transform="translate(-6.28)" d="M20.3,295.68c0-.82,0-1.29-.05-1.66H21l.05.68h0a1.25,1.25,0,0,1,1.13-.76c.94,0,1.54,1,1.54,2.73,0,2-.81,2.76-1.65,2.76a1,1,0,0,1-.93-.62h0v2.64H20.3Zm.84,1.71a2,2,0,0,0,0,.44c.16.76.55.89.78.89.7,0,.94-1,.94-2s-.27-2-.95-2c-.39,0-.74.47-.78.95a2.63,2.63,0,0,0,0,.41Z" class="cls-8"/><path data-cppathid="10066" transform="translate(-6.28)" d="M24.7,295.39c0-.63,0-.94-.05-1.37h.74l.05.66h0a1.33,1.33,0,0,1,1.2-.74,1.1,1.1,0,0,1,1.11.81h0a1.57,1.57,0,0,1,.53-.6,1.24,1.24,0,0,1,.74-.21c.71,0,1.27.52,1.27,1.88v3.52H29.5V296c0-.7-.1-1.37-.75-1.37-.36,0-.66.3-.78.81a2.17,2.17,0,0,0,0,.47v3.42H27.1v-3.49c0-.58-.1-1.21-.74-1.21-.35,0-.69.3-.79.87a3,3,0,0,0,0,.45v3.38H24.7Z" class="cls-8"/><path data-cppathid="10067" transform="translate(-6.28)" d="M18.84,313.21H15.53L15,316.5a1.64,1.64,0,0,1,.45,0,3.68,3.68,0,0,1,2.34.93,3.72,3.72,0,0,1,1.05,2.82c0,2.46-1.54,4.21-3.73,4.21a4.08,4.08,0,0,1-2.11-.55l.33-1.14a3.78,3.78,0,0,0,1.73.48c1.25,0,2.33-1,2.33-2.85a2.52,2.52,0,0,0-2.79-2.78,5.65,5.65,0,0,0-1,.06l.78-5.72h4.41Z" class="cls-8"/><path data-cppathid="10068" transform="translate(-6.28)" d="M20.43,320.61c0-.82,0-1.29-.05-1.66h.75l.05.68h0a1.25,1.25,0,0,1,1.13-.76c.94,0,1.54,1,1.54,2.73,0,2-.81,2.76-1.65,2.76a1,1,0,0,1-.93-.62h0v2.64h-.83Zm.83,1.71a1.52,1.52,0,0,0,0,.44c.16.76.55.89.78.89.7,0,.93-1,.93-2s-.26-2-.94-2c-.39,0-.74.48-.78,1a1.78,1.78,0,0,0,0,.41Z" class="cls-8"/><path data-cppathid="10069" transform="translate(-6.28)" d="M24.83,320.32c0-.63,0-.95,0-1.37h.74l0,.66h0a1.32,1.32,0,0,1,1.2-.74,1.1,1.1,0,0,1,1.11.81h0a1.57,1.57,0,0,1,.53-.6,1.23,1.23,0,0,1,.73-.21c.72,0,1.28.52,1.28,1.88v3.52h-.84v-3.33c0-.7-.09-1.37-.74-1.37-.36,0-.66.3-.79.81a3.18,3.18,0,0,0,0,.47v3.42h-.83v-3.49c0-.58-.1-1.21-.74-1.21-.35,0-.69.3-.79.87a2.09,2.09,0,0,0,0,.45v3.38h-.83Z" class="cls-8"/></g><g id="events"><g data-name="Sprint Planning" id="Sprint_Planning"><rect data-cppathid="10070" rx="5" height="96.95" width="53.15" y="104.05" x="35.6" class="cls-9"/><rect data-cppathid="10071" height="6.5" width="53.07" y="102.85" x="35.6" class="cls-10"/><rect data-cppathid="10072" height="67.51" width="53.07" y="118.18" x="35.6" class="cls-7"/><path data-cppathid="10073" transform="translate(-6.28)" d="M47.84,135.3h5.88l.13-.05.73.73-1.16,2a10.05,10.05,0,0,1-.73,1c.89.86,1.51,1.48,1.85,1.85s.73.82,1.5,1.76l-1,.78A13.56,13.56,0,0,0,54,142c-.68-.8-1.34-1.52-2-2.15a16.48,16.48,0,0,1-2.15,2,13.48,13.48,0,0,1-2.41,1.46,5.52,5.52,0,0,0-.34-.56.7.7,0,0,1-.15-.19.89.89,0,0,0-.28-.24,13.68,13.68,0,0,0,3.7-2.27,16.82,16.82,0,0,0,2.75-3.79H47.84Z" class="cls-1"/><path data-cppathid="10074" transform="translate(-6.28)" d="M57.08,135.51h7.13l.13-.09.77.74a18.45,18.45,0,0,1-1.46,3.39,9.44,9.44,0,0,1-1.89,2.19,11.43,11.43,0,0,1-3.44,1.85,2.69,2.69,0,0,0-.26-.56.92.92,0,0,0-.13-.19,2.55,2.55,0,0,0-.25-.28,12.13,12.13,0,0,0,2.32-.95,6.93,6.93,0,0,0,1.59-1.2,8.71,8.71,0,0,0,1.24-1.68,23.76,23.76,0,0,0,1-2.19h-6.7Zm8.37-2.06a1.15,1.15,0,0,1,.86.34,1.12,1.12,0,0,1,.35.82,1.18,1.18,0,0,1-.35.86,1.15,1.15,0,0,1-.86.34,1.1,1.1,0,0,1-.81-.34,1.18,1.18,0,0,1-.35-.86,1.12,1.12,0,0,1,.35-.82A1.1,1.1,0,0,1,65.45,133.45Zm0,.56a.5.5,0,0,0-.38.17.53.53,0,0,0,0,.86.53.53,0,0,0,.38.17.6.6,0,0,0,.61-.6.57.57,0,0,0-.18-.43A.54.54,0,0,0,65.45,134Z" class="cls-1"/><path data-cppathid="10075" transform="translate(-6.28)" d="M67.47,140.28v-5.41h1.16v5.41Zm1.42,3.48a4.43,4.43,0,0,0-.56-1,9.12,9.12,0,0,0,1.76-.6,2.65,2.65,0,0,0,1-.78,2.41,2.41,0,0,0,.64-1,11.27,11.27,0,0,0,.22-2.4v-3.53H73.1v3.83a6.32,6.32,0,0,1-.81,3.52A6.22,6.22,0,0,1,68.89,143.76Z" class="cls-1"/><path data-cppathid="10076" transform="translate(-6.28)" d="M82.3,136.58a1.89,1.89,0,0,0,.34.43,1.66,1.66,0,0,0,.47.39,22.33,22.33,0,0,1-2.19,2.41,19.33,19.33,0,0,1-2.45,1.89,29.53,29.53,0,0,1-3.35,1.76l-.6-1.2a13.05,13.05,0,0,0,2.15-.86,18.52,18.52,0,0,0,2.1-1.25,15.2,15.2,0,0,0,1.81-1.55A16.54,16.54,0,0,0,82.3,136.58Zm-4.47,0-.77.9c-.63-.57-1.06-.95-1.29-1.12l-.3-.23-.48-.33-.43-.3.69-.86a9.66,9.66,0,0,1,.84.52l.49.34A15.28,15.28,0,0,1,77.83,136.63Z" class="cls-1"/><path data-cppathid="10077" transform="translate(-6.28)" d="M84.36,143.72v-9.54h1.2v3c1.29.46,2.12.77,2.5.94s1,.52,2.19,1.12l-.65,1.08c-.66-.43-1.34-.83-2.06-1.21a16.58,16.58,0,0,0-2-.77v5.33Z" class="cls-1"/><path data-cppathid="10078" transform="translate(-6.28)" d="M47.11,147.09h5.18l.1-.06.56.53A13.71,13.71,0,0,1,51.89,150a7,7,0,0,1-1.38,1.59A8.44,8.44,0,0,1,48,153a2.35,2.35,0,0,0-.18-.41l-.1-.14a1.59,1.59,0,0,0-.19-.2,8.52,8.52,0,0,0,1.69-.69,5.08,5.08,0,0,0,1.16-.88,6,6,0,0,0,.9-1.22,15.73,15.73,0,0,0,.69-1.59H47.11Zm6.09-1.5a.85.85,0,0,1,.88.84.89.89,0,0,1-.25.63.85.85,0,0,1-.63.25.78.78,0,0,1-.59-.25.85.85,0,0,1-.25-.63.81.81,0,0,1,.25-.59A.78.78,0,0,1,53.2,145.59Zm0,.41a.39.39,0,0,0-.28.12.39.39,0,0,0,0,.63.39.39,0,0,0,.28.12.41.41,0,0,0,.31-.12.42.42,0,0,0,.13-.32.43.43,0,0,0-.44-.43Z" class="cls-1"/><path data-cppathid="10079" transform="translate(-6.28)" d="M54.54,148.31H60l.16,0,.44.4a14.66,14.66,0,0,1-1.16,2.16A5.7,5.7,0,0,1,58.17,152a8,8,0,0,1-2.63,1.06c0-.1-.06-.26-.12-.47,0,0-.11-.15-.25-.34a6.17,6.17,0,0,0,2.06-.6,4.31,4.31,0,0,0,1.31-1,6.58,6.58,0,0,0,1-1.62h-5Zm.75-1.09v-.72h4.35v.72Z" class="cls-1"/><path data-cppathid="10080" transform="translate(-6.28)" d="M67,147.87a1.79,1.79,0,0,0,.25.31,1.4,1.4,0,0,0,.35.29,17.82,17.82,0,0,1-1.6,1.75,15.56,15.56,0,0,1-1.78,1.37,20.37,20.37,0,0,1-2.44,1.28l-.43-.87a9.08,9.08,0,0,0,1.56-.63,12.41,12.41,0,0,0,1.53-.9,11.21,11.21,0,0,0,1.31-1.13A11.57,11.57,0,0,0,67,147.87Zm-3.25,0-.56.66c-.46-.42-.77-.69-.94-.81a1.3,1.3,0,0,0-.22-.17,3.33,3.33,0,0,0-.34-.24l-.31-.22.5-.62a6.53,6.53,0,0,1,.61.37,3.6,3.6,0,0,0,.36.25C63.27,147.46,63.58,147.72,63.76,147.9Z" class="cls-1"/><path data-cppathid="10081" transform="translate(-6.28)" d="M68.26,151.87v-.78h6.85v.78Zm.91-3.75v-.78h5v.78Z" class="cls-1"/><path data-cppathid="10082" transform="translate(-6.28)" d="M81.51,147.87a1.79,1.79,0,0,0,.25.31,1.4,1.4,0,0,0,.35.29,17.82,17.82,0,0,1-1.6,1.75,15.56,15.56,0,0,1-1.78,1.37,20.37,20.37,0,0,1-2.44,1.28l-.43-.87a9.08,9.08,0,0,0,1.56-.63,12.41,12.41,0,0,0,1.53-.9,11.21,11.21,0,0,0,1.31-1.13A11.57,11.57,0,0,0,81.51,147.87Zm-3.25,0-.56.66c-.46-.42-.77-.69-.94-.81a1.3,1.3,0,0,0-.22-.17,3.33,3.33,0,0,0-.34-.24l-.31-.22.5-.62a6.53,6.53,0,0,1,.61.37,3.6,3.6,0,0,0,.36.25C77.77,147.46,78.08,147.72,78.26,147.9Z" class="cls-1"/><path data-cppathid="10083" transform="translate(-6.28)" d="M85.7,147.56H88l.13,0,.5.47a13.49,13.49,0,0,1-.94,2.06,6.16,6.16,0,0,1-1,1.25,6.86,6.86,0,0,1-1.34,1,6.7,6.7,0,0,1-1.72.72l-.13-.32-.34-.4a10.2,10.2,0,0,0,1.63-.56,4.3,4.3,0,0,0,1.21-.85,5.1,5.1,0,0,0,.94-1.09q.34-.69.69-1.56H85.36a10.74,10.74,0,0,1-1.94,2.28c-.13-.17-.22-.26-.28-.28a3.74,3.74,0,0,0-.41-.25,7.8,7.8,0,0,0,1.47-1.47,13.13,13.13,0,0,0,1.16-2.19l.81.31-.06.11a1.53,1.53,0,0,0-.1.17l-.12.27Zm2.22-.63.37-.37c.44.37.73.64.88.78l-.38.38C88.65,147.57,88.36,147.31,87.92,146.93Zm2-.31-.44.41q-.69-.69-.84-.81l.34-.38C89.46,146.22,89.77,146.48,89.92,146.62Z" class="cls-1"/><path data-cppathid="10084" transform="translate(-6.28)" d="M53.6,167.13v-.43h5.77v.43h-3v3.28h-.53v-.74l-2.13.41-.08-.59.53-.07v-2.29Zm.87-.71v-1.73h4v1.73Zm1.37,1.17v-.46H54.72v.46Zm0,.84V168H54.72v.43Zm0,.78v-.38H54.72v.54Zm2-3.83v-.3H55v.3Zm0,.63v-.27H55V166Zm-1.29,1.55h2.16l.07-.05.44.38a10.35,10.35,0,0,1-.54.92,1.3,1.3,0,0,1-.35.45,3.72,3.72,0,0,0,1.11.61l-.08.09-.07.09s-.08.13-.2.33a5.27,5.27,0,0,1-1.17-.73,4,4,0,0,1-1.22.76,2.15,2.15,0,0,0-.28-.54,3.76,3.76,0,0,0,.61-.25c.22-.14.4-.25.54-.36a3.08,3.08,0,0,1-.41-.63,2.74,2.74,0,0,1-.2-.58H56.6Zm1.4,1.35a5,5,0,0,0,.53-.86h-.94A2.49,2.49,0,0,0,58,168.91Z" class="cls-1"/><path data-cppathid="10085" transform="translate(-6.28)" d="M61.22,167.54v-2.79h3.83v.55H61.8v.49h3v.45h-3v.43h3v.44h-3v.43h4V168H63.46a3,3,0,0,0,.5.81,11.16,11.16,0,0,0,1-.68l.44.4-1,.66a6.45,6.45,0,0,0,.74.44,4,4,0,0,0,.86.27l-.25.26a.78.78,0,0,0-.13.28,3.73,3.73,0,0,1-1.24-.59,2.68,2.68,0,0,1-.86-.76A3.36,3.36,0,0,1,63,168H61.8v1.6c.26,0,.73-.08,1.43-.2V170l-1.3.2c-.49.09-1,.16-1.6.21l-.12-.56c.62-.05,1-.09,1-.1V168H60.08v-.48Z" class="cls-1"/><path data-cppathid="10086" transform="translate(-6.28)" d="M70.23,167.79v.48h-.68v1.5H69v-1.5H66.6v-.48L69,164.85h.59v2.94Zm-1.27,0v-2.16l-1.72,2.16Z" class="cls-1"/><path data-cppathid="10087" transform="translate(-6.28)" d="M71.15,169.65V165H73v4.42h-.56v-.35h-.74v.56Zm1.27-2.85v-1.22h-.74v1.22Zm0,1.75v-1.22h-.74v1.22Zm2.16-3.22v-.76h.63v.76H76.4v.53H75.21v.74h1.58v.53H76v.66h.66v.51H76v1.37a.48.48,0,0,1-.13.36,1.94,1.94,0,0,1-.89.3,2.41,2.41,0,0,0-.2-.61h.53l.08,0s0,0,0-.11V168.3H73.18v-.51h2.23v-.66H73.08v-.53h1.5v-.74H73.33v-.53Zm-1.12,3.43.35-.36a6.19,6.19,0,0,1,.77.74l-.38.38C73.89,169.18,73.64,168.93,73.46,168.76Z" class="cls-1"/><path data-cppathid="10088" transform="translate(-6.28)" d="M77.72,170.33v-5.61H80v2H78.33v3.58Zm1.76-4.8v-.33H78.33v.33Zm0,.74v-.36H78.33v.36Zm-.41,3.65v-2.74h2.39v2.44H79.63v.3Zm1.83-1.75v-.48H79.63v.48Zm0,1v-.51H79.63v.51Zm-.31-2.39v-2H82.9v5a.48.48,0,0,1-.15.41,2.28,2.28,0,0,1-.86.2,2.42,2.42,0,0,0-.23-.58h.53a.15.15,0,0,0,.08-.05.11.11,0,0,0,0-.08v-2.87Zm1.7-1.22v-.33H81.18v.33Zm0,.74v-.36H81.18v.36Z" class="cls-1"/></g><g data-name="Backlog Refinement" id="Backlog_Refinement"><path data-cppathid="10089" transform="translate(-6.28)" d="M514.07,275.35a4.92,4.92,0,0,1-5,4.84H465.92a4.92,4.92,0,0,1-5-4.84V210.5a4.93,4.93,0,0,1,5-4.85h43.15a4.93,4.93,0,0,1,5,4.85Z" class="cls-9"/><rect data-cppathid="10090" height="6.5" width="53.07" y="204.45" x="454.64" class="cls-10"/><rect data-cppathid="10091" height="71.21" width="52.81" y="211.4" x="454.64" class="cls-7"/><path data-cppathid="10092" transform="translate(-6.28)" d="M464.64,238.87a3.08,3.08,0,0,0-.82-.77c.57-.72,1-1.26,1.25-1.63a9.36,9.36,0,0,0,1-1.81,20.79,20.79,0,0,0,.9-2.83l1.16.38a22.73,22.73,0,0,1-1.55,4A12.59,12.59,0,0,1,464.64,238.87Zm4.9-6.79.9-.51a34.41,34.41,0,0,1,1.93,3.26,15.94,15.94,0,0,1,.78,1.68l.51,1.55-1.12.47c-.23-.89-.44-1.61-.64-2.15a13.89,13.89,0,0,0-.77-1.55c-.09-.17-.3-.56-.65-1.18S469.82,232.51,469.54,232.08Zm3.35.22-.52.51-1.2-1.16.52-.51a5.06,5.06,0,0,1,.62.51A5.34,5.34,0,0,1,472.89,232.3Zm-.73-1.55.51-.56a12.65,12.65,0,0,1,1.21,1.08l-.52.56A10.91,10.91,0,0,0,472.16,230.75Z" class="cls-1"/><path data-cppathid="10093" transform="translate(-6.28)" d="M474.65,233.89l.82-.43c.14.29.3.59.49.92s.38.7.58,1.1l-.86.43A14.1,14.1,0,0,0,474.65,233.89Zm1.59,6.14a2.43,2.43,0,0,0-.52-.86,9.27,9.27,0,0,0,2.41-1.11,5.6,5.6,0,0,0,1.5-1.64,13.53,13.53,0,0,0,1.21-3.26l1,.34a18.82,18.82,0,0,1-1.21,3.09,6.56,6.56,0,0,1-1.46,1.81A7.91,7.91,0,0,1,476.24,240Zm.6-6.79.86-.38c.4.86.7,1.54.9,2.06l-.81.39A19.25,19.25,0,0,0,476.84,233.24Z" class="cls-1"/><path data-cppathid="10094" transform="translate(-6.28)" d="M487.5,230.67l-.73,1.37H490l.17-.09.69.73c-.66,1.52-1.08,2.43-1.25,2.71a7,7,0,0,1-1.2,1.59,8.12,8.12,0,0,1-1.8,1.42,13.44,13.44,0,0,1-2.58,1.07,2.8,2.8,0,0,0-.65-1,15.68,15.68,0,0,0,2.28-.82,6.11,6.11,0,0,0,1.68-1.16,8.29,8.29,0,0,0,1.24-1.55,16.4,16.4,0,0,0,.9-2h-3.18a13.55,13.55,0,0,1-1.24,1.68,10.52,10.52,0,0,1-1.46,1.42l-.3-.35a2.39,2.39,0,0,0-.52-.38,8.7,8.7,0,0,0,1.16-1c.23-.25.55-.64.95-1.16a14.24,14.24,0,0,0,.86-1.5,14.54,14.54,0,0,0,.6-1.37Z" class="cls-1"/><path data-cppathid="10095" transform="translate(-6.28)" d="M492.27,238.83V231.4h7.3v7.34h-1.16v-.68h-5v.77Zm6.14-1.76v-4.69h-5v4.69Z" class="cls-1"/><path data-cppathid="10096" transform="translate(-6.28)" d="M505,232.13h3.18l.17,0,.69.65a17.07,17.07,0,0,1-1.29,2.83,8.59,8.59,0,0,1-1.33,1.72,9.23,9.23,0,0,1-1.85,1.33,8.73,8.73,0,0,1-2.36,1,3.11,3.11,0,0,1-.18-.43l-.47-.56a11.86,11.86,0,0,0,2.24-.77,6,6,0,0,0,1.67-1.16,7.44,7.44,0,0,0,1.29-1.5c.32-.63.63-1.35.95-2.15h-3.18a14.79,14.79,0,0,1-2.67,3.14,1.23,1.23,0,0,0-.38-.39l-.56-.35a11.25,11.25,0,0,0,2-2,18.47,18.47,0,0,0,1.59-3l1.11.43-.08.15s-.07.12-.13.23-.12.24-.17.37Zm3.05-.86.52-.52c.6.52,1,.87,1.2,1.08l-.52.51C509.08,232.14,508.68,231.78,508.08,231.27Zm2.75-.43-.6.56c-.63-.63-1-1-1.16-1.12l.47-.52Q510.53,230.54,510.83,230.84Z" class="cls-1"/><path data-cppathid="10097" transform="translate(-6.28)" d="M465.94,245.56v-3.45h.74v3.45Zm.91,2.21a3.32,3.32,0,0,0-.36-.65,5.79,5.79,0,0,0,1.12-.39,1.76,1.76,0,0,0,.66-.49,1.66,1.66,0,0,0,.41-.66,7.2,7.2,0,0,0,.13-1.53v-2.24h.71v2.43a4.07,4.07,0,0,1-.51,2.25A4,4,0,0,1,466.85,247.77Z" class="cls-1"/><path data-cppathid="10098" transform="translate(-6.28)" d="M470.54,242.38h4.54l.08,0,.46.41c-.31.82-.53,1.38-.65,1.69a6.16,6.16,0,0,1-.77,1.18,6.4,6.4,0,0,1-1.15,1,7.1,7.1,0,0,1-1.83.87,2.44,2.44,0,0,0-.11-.35,1.72,1.72,0,0,0-.19-.33,6.26,6.26,0,0,0,1.48-.63,5.11,5.11,0,0,0,1.39-1.18,7.29,7.29,0,0,0,1-2h-4.23Z" class="cls-1"/><path data-cppathid="10099" transform="translate(-6.28)" d="M476.28,244v-.58h4l.39.47-1,.9c-.18.17-.46.38-.82.66l-.19-.25a5.6,5.6,0,0,1-.19,1.26,2.54,2.54,0,0,1-.55.79,3.21,3.21,0,0,1-1.12.63,1.11,1.11,0,0,0-.07-.16,1.22,1.22,0,0,1-.07-.17l-.22-.24a2.91,2.91,0,0,0,.88-.36,1.47,1.47,0,0,0,.38-.35,1.57,1.57,0,0,0,.22-.52,3.1,3.1,0,0,0,.08-.74v-.69h.66v.28c0-.06.39-.37,1-.93Z" class="cls-1"/><path data-cppathid="10100" transform="translate(-6.28)" d="M485.33,243.29l-.57.52v3.88H484v-3.31a11.65,11.65,0,0,1-1.29.88,11.11,11.11,0,0,1-1.26.65,2.36,2.36,0,0,0-.35-.65,10.61,10.61,0,0,0,1.72-.91,9.14,9.14,0,0,0,1.48-1.12,14.49,14.49,0,0,0,1.45-1.53l.6.52Z" class="cls-1"/><path data-cppathid="10101" transform="translate(-6.28)" d="M492.06,243.21a1.24,1.24,0,0,0,.21.27,1.28,1.28,0,0,0,.31.24,17,17,0,0,1-1.4,1.54,13.22,13.22,0,0,1-1.56,1.2,20.81,20.81,0,0,1-2.13,1.12l-.38-.77a8.22,8.22,0,0,0,1.36-.54,10.32,10.32,0,0,0,1.34-.8,8.48,8.48,0,0,0,1.15-1A11.1,11.1,0,0,0,492.06,243.21Zm-2.85,0-.49.58c-.4-.37-.67-.6-.82-.71a1.25,1.25,0,0,0-.19-.15l-.3-.21-.28-.19.44-.55a4.91,4.91,0,0,1,.53.33l.32.22C488.78,242.84,489.05,243.07,489.21,243.23Z" class="cls-1"/><path data-cppathid="10102" transform="translate(-6.28)" d="M496.76,244.35a18.42,18.42,0,0,1,1.48,1.1l-.55.6-.74-.68-.52-.41a7.45,7.45,0,0,1-.82,1,4.46,4.46,0,0,1-.82.74c-.16.13-.58.39-1.26.8a3.35,3.35,0,0,0-.46-.61,7.16,7.16,0,0,0,1.12-.6,5.3,5.3,0,0,0,.87-.71,5.71,5.71,0,0,0,.8-1,13.62,13.62,0,0,0-1.7-.79l.33-.57,1.7.79c.2-.42.32-.71.38-.88.14-.38.28-.79.41-1.23l.74.25A19.82,19.82,0,0,1,496.76,244.35Z" class="cls-1"/><path data-cppathid="10103" transform="translate(-6.28)" d="M503.87,243.21a1.31,1.31,0,0,0,.22.27,1,1,0,0,0,.3.24,15.63,15.63,0,0,1-1.4,1.54,12.29,12.29,0,0,1-1.55,1.2,22.15,22.15,0,0,1-2.14,1.12l-.38-.77a8.81,8.81,0,0,0,1.37-.54,11.08,11.08,0,0,0,1.34-.8,8.38,8.38,0,0,0,1.14-1A10.2,10.2,0,0,0,503.87,243.21Zm-2.85,0-.49.58c-.4-.37-.67-.6-.82-.71a.88.88,0,0,0-.19-.15l-.3-.21-.27-.19.43-.55q.3.17.54.33l.31.22A9.13,9.13,0,0,1,501,243.23Z" class="cls-1"/><path data-cppathid="10104" transform="translate(-6.28)" d="M505.18,247.74v-6.07H506v2c.82.29,1.35.49,1.58.6s.67.32,1.4.71l-.41.68a14.17,14.17,0,0,0-1.32-.76,10.65,10.65,0,0,0-1.25-.5v3.39Z" class="cls-1"/><path data-cppathid="10105" transform="translate(-6.28)" d="M471.37,261.1v-.47h6.21v.47h-3.23v3.53h-.57v-.8l-2.3.44-.08-.63a3.31,3.31,0,0,0,.57-.08V261.1Zm.93-.77v-1.86h4.32v1.86Zm1.48,1.26v-.49h-1.21v.49Zm0,.9V262h-1.21v.46Zm0,.85v-.41h-1.21v.57Zm2.21-4.13v-.33h-3.12v.33Zm0,.69v-.31h-3.12v.31Zm-1.39,1.66h2.32l.08-.05.47.41a9.53,9.53,0,0,1-.58,1,1.51,1.51,0,0,1-.38.5,4.33,4.33,0,0,0,1.2.65l-.09.1a.31.31,0,0,0-.07.09s-.09.14-.22.36a5.72,5.72,0,0,1-1.26-.79,4.43,4.43,0,0,1-1.31.82,2.15,2.15,0,0,0-.3-.58,3.84,3.84,0,0,0,.66-.27l.57-.38a4.27,4.27,0,0,1-.44-.69,4,4,0,0,1-.22-.63h-.43Zm1.5,1.45a4.67,4.67,0,0,0,.58-.93h-1A2.81,2.81,0,0,0,476.1,263Z" class="cls-1"/><path data-cppathid="10106" transform="translate(-6.28)" d="M479.57,261.54v-3h4.13v.6h-3.5v.52h3.23v.49H480.2v.47h3.23v.46H480.2v.47h4.35v.52H482a3.26,3.26,0,0,0,.55.87,12.83,12.83,0,0,0,1.12-.74l.46.44-1.12.71a6,6,0,0,0,.79.47,5.64,5.64,0,0,0,.93.3l-.27.27a1,1,0,0,0-.14.3,4.12,4.12,0,0,1-1.34-.63,2.89,2.89,0,0,1-.93-.82,4,4,0,0,1-.6-1.17H480.2v1.72c.28,0,.79-.09,1.53-.22v.57l-1.39.22c-.53.09-1.1.17-1.72.22l-.14-.6a10.13,10.13,0,0,0,1.09-.11v-1.8h-1.23v-.52Z" class="cls-1"/><path data-cppathid="10107" transform="translate(-6.28)" d="M486.25,263.37H489v.57h-3.42v-.57a1.43,1.43,0,0,1,.19-.71,3.4,3.4,0,0,1,.41-.69,5,5,0,0,1,.93-.79,4.89,4.89,0,0,0,.93-.85,1.13,1.13,0,0,0,.16-.54.77.77,0,0,0-.24-.55,1.2,1.2,0,0,0-.74-.22,1.19,1.19,0,0,0-.66.16.52.52,0,0,0-.22.41h-.62a1,1,0,0,1,.41-.79,1.72,1.72,0,0,1,1.12-.33,1.76,1.76,0,0,1,1.26.36,1.3,1.3,0,0,1,.38,1,1.46,1.46,0,0,1-.25.82,5.79,5.79,0,0,1-1.17,1c-.82.57-1.23,1.11-1.23,1.64Z" class="cls-1"/><path data-cppathid="10108" transform="translate(-6.28)" d="M490.27,263.81v-5h2v4.76h-.6v-.39h-.79v.61Zm1.36-3.07v-1.31h-.79v1.31Zm0,1.89v-1.31h-.79v1.31Zm2.33-3.47v-.82h.68v.82h1.29v.57h-1.29v.79h1.7v.58h-.85v.71h.71v.55h-.71v1.47a.55.55,0,0,1-.14.39,2.17,2.17,0,0,1-1,.32,2.71,2.71,0,0,0-.21-.65h.57a.1.1,0,0,0,.08,0,.14.14,0,0,0,0-.11v-1.39h-2.41v-.55h2.41v-.71h-2.52v-.58H494v-.79h-1.34v-.57Zm-1.21,3.69.39-.38a7,7,0,0,1,.82.79l-.41.41A10.8,10.8,0,0,0,492.75,262.85Z" class="cls-1"/><path data-cppathid="10109" transform="translate(-6.28)" d="M497.35,264.54v-6h2.49v2.19H498v3.85Zm1.88-5.16V259H498v.36Zm0,.79v-.38H498v.38Zm-.43,3.94v-3h2.57v2.63h-2v.33Zm2-1.89v-.52H499.4v.52Zm0,1v-.55H499.4v.55Zm-.33-2.57V258.5h2.49v5.39a.5.5,0,0,1-.17.44,2.4,2.4,0,0,1-.93.21,2.94,2.94,0,0,0-.24-.62h.57s0,0,.08-.06a.1.1,0,0,0,0-.08v-3.09Zm1.83-1.31V259h-1.2v.36Zm0,.79v-.38h-1.2v.38Z" class="cls-1"/></g><g data-name="Sprint Review" id="Sprint_Review"><path data-cppathid="10110" transform="translate(-6.28)" d="M634.65,174.5a4.93,4.93,0,0,1-5,4.85H586.5a4.93,4.93,0,0,1-5-4.85v-65a4.94,4.94,0,0,1,5-4.86h43.15a4.94,4.94,0,0,1,5,4.86Z" class="cls-9"/><rect data-cppathid="10111" height="6.5" width="53.07" y="103.45" x="575.22" class="cls-10"/><rect data-cppathid="10112" height="67.51" width="48.79" y="111.88" x="577.84" class="cls-7"/><path data-cppathid="10113" transform="translate(-6.28)" d="M587.94,127.2h5.89l.13,0,.73.73-1.16,2c-.12.2-.36.54-.73,1,.88.86,1.5,1.47,1.84,1.84s.73.82,1.51,1.77l-1,.77a14.8,14.8,0,0,0-1-1.42c-.69-.8-1.35-1.52-2-2.15a16.48,16.48,0,0,1-2.15,2,13.41,13.41,0,0,1-2.4,1.46c-.06-.11-.18-.3-.35-.56a.7.7,0,0,1-.15-.19.69.69,0,0,0-.28-.23,13.45,13.45,0,0,0,3.7-2.28,16.2,16.2,0,0,0,2.75-3.78h-5.33Z" class="cls-1"/><path data-cppathid="10114" transform="translate(-6.28)" d="M597.18,127.41h7.13l.13-.08.77.73a18.45,18.45,0,0,1-1.46,3.39,9,9,0,0,1-1.89,2.19,11.43,11.43,0,0,1-3.44,1.85,3.82,3.82,0,0,0-.25-.56,1.62,1.62,0,0,0-.13-.19l-.26-.28a11.27,11.27,0,0,0,2.32-1,6.93,6.93,0,0,0,1.59-1.2,8.92,8.92,0,0,0,1.25-1.67c.2-.38.51-1.11.94-2.2h-6.7Zm8.38-2.06a1.21,1.21,0,0,1,.86.34,1.13,1.13,0,0,1,.34.82,1.16,1.16,0,0,1-1.2,1.2,1.11,1.11,0,0,1-.82-.34,1.17,1.17,0,0,1-.34-.86,1.13,1.13,0,0,1,.34-.82A1.15,1.15,0,0,1,605.56,125.35Zm0,.56a.54.54,0,0,0-.39.17.55.55,0,0,0,0,.86.5.5,0,0,0,.39.17.57.57,0,0,0,.43-.17.6.6,0,0,0,.17-.43.58.58,0,0,0-.6-.6Z" class="cls-1"/><path data-cppathid="10115" transform="translate(-6.28)" d="M607.58,132.18v-5.41h1.16v5.41Zm1.41,3.48a4.76,4.76,0,0,0-.55-1,9.39,9.39,0,0,0,1.76-.6,2.77,2.77,0,0,0,1-.77,2.53,2.53,0,0,0,.64-1,10.75,10.75,0,0,0,.22-2.41V126.3h1.12v3.82a6.29,6.29,0,0,1-.82,3.52A6.18,6.18,0,0,1,609,135.66Z" class="cls-1"/><path data-cppathid="10116" transform="translate(-6.28)" d="M622.4,128.49a3,3,0,0,0,.34.43,1.93,1.93,0,0,0,.48.38,24.69,24.69,0,0,1-2.19,2.41,20.88,20.88,0,0,1-2.45,1.89,30.41,30.41,0,0,1-3.35,1.76l-.61-1.2a12.69,12.69,0,0,0,2.15-.86,18,18,0,0,0,2.11-1.25,15.15,15.15,0,0,0,1.8-1.54A16.41,16.41,0,0,0,622.4,128.49Zm-4.47,0-.77.9q-.95-.85-1.29-1.11a2.55,2.55,0,0,0-.3-.24l-.47-.32-.43-.3.68-.86a7.74,7.74,0,0,1,.84.51l.5.35C617.26,127.92,617.67,128.27,617.93,128.53Z" class="cls-1"/><path data-cppathid="10117" transform="translate(-6.28)" d="M624.46,135.62v-9.54h1.21v3c1.29.46,2.12.78,2.49,1s1,.51,2.19,1.11l-.64,1.08a23.29,23.29,0,0,0-2.07-1.2,16.06,16.06,0,0,0-2-.78v5.33Z" class="cls-1"/><path data-cppathid="10118" transform="translate(-6.28)" d="M595.8,144v-5.62h.85v5.15a10.8,10.8,0,0,0,2.22-1.28,11.84,11.84,0,0,0,2.06-2.19,3.35,3.35,0,0,0,.56.57,13.45,13.45,0,0,1-2,2.15,17.73,17.73,0,0,1-2.56,1.6,2.11,2.11,0,0,0-.57.31l-.59-.53Z" class="cls-1"/><path data-cppathid="10119" transform="translate(-6.28)" d="M602.24,143.52v-5.21h.81v2.31a14.65,14.65,0,0,0,3.5-.91l.44.72a13.27,13.27,0,0,1-1.72.47c-.67.15-1.4.28-2.22.41v2a.38.38,0,0,0,.19.37,3.77,3.77,0,0,0,1.34.16c1.09,0,2,0,2.69-.1v.78l-1.65.07a14.1,14.1,0,0,1-2.57-.16.87.87,0,0,1-.62-.31A.8.8,0,0,1,602.24,143.52Zm4.69-3.93-.85-.78.35-.38.9.78Zm.22-1.91.9.78-.4.41-.88-.78Z" class="cls-1"/><path data-cppathid="10120" transform="translate(-6.28)" d="M612.9,140.68l-.28,3.13h1.5v.71h-5.63v-.71h3.34l.22-2.47h-2.87v-.66Z" class="cls-1"/><path data-cppathid="10121" transform="translate(-6.28)" d="M621.3,141.81H615V141h6.34Z" class="cls-1"/><path data-cppathid="10122" transform="translate(-6.28)" d="M593.71,162.63v-.43h5.76v.43h-3v3.28h-.53v-.74l-2.13.41-.08-.58a5.2,5.2,0,0,0,.54-.08v-2.29Zm.86-.71V160.2h4v1.72Zm1.37,1.17v-.46h-1.12v.46Zm0,.84v-.43h-1.12v.43Zm0,.79v-.39h-1.12v.54Zm2.06-3.84v-.3h-2.9v.3Zm0,.64v-.28h-2.9v.28Zm-1.3,1.55h2.16l.08-.06.43.39c-.26.47-.43.77-.53.91a1.5,1.5,0,0,1-.36.46,4.14,4.14,0,0,0,1.12.61l-.09.08-.07.09-.2.33a4.93,4.93,0,0,1-1.17-.73,3.83,3.83,0,0,1-1.22.76,2.41,2.41,0,0,0-.27-.53,4.39,4.39,0,0,0,.61-.26l.53-.35a3.56,3.56,0,0,1-.41-.64,3.15,3.15,0,0,1-.2-.58h-.41Zm1.4,1.34a5,5,0,0,0,.53-.86h-.94A2.6,2.6,0,0,0,598.1,164.41Z" class="cls-1"/><path data-cppathid="10123" transform="translate(-6.28)" d="M601.32,163v-2.79h3.84v.56h-3.25v.48h3v.46h-3v.43h3v.43h-3V163h4v.48h-2.38a2.82,2.82,0,0,0,.51.81c.42-.25.77-.48,1-.68l.43.41-1,.66a5.47,5.47,0,0,0,.73.43,4.23,4.23,0,0,0,.87.28l-.26.25a.74.74,0,0,0-.12.28,3.67,3.67,0,0,1-1.25-.58,2.71,2.71,0,0,1-.86-.77,3.36,3.36,0,0,1-.56-1.09h-1.14v1.6a13.62,13.62,0,0,0,1.42-.2v.53l-1.3.21c-.49.08-1,.15-1.59.2l-.13-.56c.62-.05,1-.09,1-.1v-1.68h-1.14V163Z" class="cls-1"/><path data-cppathid="10124" transform="translate(-6.28)" d="M607.52,164.74h2.56v.53h-3.17v-.53a1.37,1.37,0,0,1,.18-.66,3.09,3.09,0,0,1,.38-.63,4.49,4.49,0,0,1,.86-.74,4.43,4.43,0,0,0,.86-.79,1,1,0,0,0,.16-.5.71.71,0,0,0-.23-.51,1.13,1.13,0,0,0-.69-.21,1,1,0,0,0-.61.16.46.46,0,0,0-.2.38H607a1,1,0,0,1,.38-.74,2.09,2.09,0,0,1,2.21,0,1.21,1.21,0,0,1,.35.89,1.33,1.33,0,0,1-.23.76,5.55,5.55,0,0,1-1.09.91c-.76.53-1.14,1-1.14,1.52Z" class="cls-1"/><path data-cppathid="10125" transform="translate(-6.28)" d="M611.25,165.15v-4.62h1.83v4.41h-.56v-.35h-.74v.56Zm1.27-2.85v-1.22h-.74v1.22Zm0,1.76v-1.22h-.74v1.22Zm2.16-3.23v-.76h.63v.76h1.2v.53h-1.2v.74h1.58v.53h-.79v.66h.66v.51h-.66v1.37a.47.47,0,0,1-.13.36,1.77,1.77,0,0,1-.88.3,3.17,3.17,0,0,0-.21-.61h.54l.07,0a.13.13,0,0,0,0-.1v-1.3h-2.24v-.51h2.24v-.66h-2.34v-.53h1.5v-.74h-1.24v-.53Zm-1.12,3.43.36-.36a6.79,6.79,0,0,1,.76.74l-.38.38C614,164.68,613.75,164.43,613.56,164.26Z" class="cls-1"/><path data-cppathid="10126" transform="translate(-6.28)" d="M617.83,165.83v-5.61h2.31v2h-1.7v3.58Zm1.75-4.8v-.33h-1.14V161Zm0,.74v-.35h-1.14v.35Zm-.41,3.66v-2.75h2.39v2.44h-1.83v.31Zm1.83-1.76v-.48h-1.27v.48Zm0,1v-.51h-1.27v.51Zm-.3-2.39v-2H623v5a.44.44,0,0,1-.16.41,2.23,2.23,0,0,1-.86.2,2.6,2.6,0,0,0-.23-.58h.54l.07-.05a.1.1,0,0,0,0-.08v-2.87Zm1.7-1.22v-.33h-1.12V161Zm0,.74v-.35h-1.12v.35Z" class="cls-1"/></g><g data-name="Sprint Retrospective" id="Sprint_Retrospective"><path data-cppathid="10127" transform="translate(-6.28)" d="M634.08,263.34c0,2.24-2.23,4.05-5,4.05H585.94c-2.76,0-5-1.81-5-4.05V209.21c0-2.24,2.24-4.05,5-4.05h43.14c2.77,0,5,1.81,5,4.05Z" class="cls-9"/><rect data-cppathid="10128" height="6.5" width="53.07" y="203.97" x="574.66" class="cls-10"/><rect data-cppathid="10129" height="47.73" width="53.19" y="213.18" x="574.53" class="cls-7"/><path data-cppathid="10130" transform="translate(-6.28)" d="M586.83,222.21h5.89l.13-.05.73.73-1.16,2a11.71,11.71,0,0,1-.73,1c.88.85,1.5,1.47,1.84,1.84s.73.82,1.51,1.76l-1,.78a13.63,13.63,0,0,0-1-1.42c-.69-.8-1.35-1.52-2-2.15a16.48,16.48,0,0,1-2.15,2,13.41,13.41,0,0,1-2.4,1.46c-.06-.11-.18-.3-.35-.56a.7.7,0,0,1-.15-.19.78.78,0,0,0-.28-.24,13.2,13.2,0,0,0,3.7-2.27,16.65,16.65,0,0,0,2.75-3.78h-5.33Z" class="cls-1"/><path data-cppathid="10131" transform="translate(-6.28)" d="M596.07,222.42h7.13l.13-.08.77.73a18.45,18.45,0,0,1-1.46,3.39,9,9,0,0,1-1.89,2.19,11.43,11.43,0,0,1-3.44,1.85,3.39,3.39,0,0,0-.25-.56,1.62,1.62,0,0,0-.13-.19l-.26-.28a11.86,11.86,0,0,0,2.32-.95,6.93,6.93,0,0,0,1.59-1.2,8.7,8.7,0,0,0,1.25-1.68c.2-.37.51-1.1.94-2.19h-6.7Zm8.38-2.06a1.17,1.17,0,0,1,.86.34,1.13,1.13,0,0,1,.34.82,1.16,1.16,0,0,1-1.2,1.2,1.11,1.11,0,0,1-.82-.34,1.17,1.17,0,0,1-.34-.86,1.13,1.13,0,0,1,.34-.82A1.11,1.11,0,0,1,604.45,220.36Zm0,.56a.54.54,0,0,0-.39.17.55.55,0,0,0,0,.86.54.54,0,0,0,.39.17.6.6,0,1,0,0-1.2Z" class="cls-1"/><path data-cppathid="10132" transform="translate(-6.28)" d="M606.47,227.19v-5.41h1.16v5.41Zm1.41,3.48a4.76,4.76,0,0,0-.55-1,9.39,9.39,0,0,0,1.76-.6,2.77,2.77,0,0,0,1-.77,2.5,2.5,0,0,0,.64-1,10.66,10.66,0,0,0,.22-2.4V221.3h1.12v3.83a6.29,6.29,0,0,1-.82,3.52A6.18,6.18,0,0,1,607.88,230.67Z" class="cls-1"/><path data-cppathid="10133" transform="translate(-6.28)" d="M621.29,223.5a3,3,0,0,0,.34.43,1.93,1.93,0,0,0,.48.38,24.69,24.69,0,0,1-2.19,2.41,20.88,20.88,0,0,1-2.45,1.89,30.61,30.61,0,0,1-3.36,1.76l-.6-1.2a12.69,12.69,0,0,0,2.15-.86,18,18,0,0,0,2.11-1.25,15.15,15.15,0,0,0,1.8-1.54A17.33,17.33,0,0,0,621.29,223.5Zm-4.47,0-.77.9c-.63-.57-1.06-.94-1.29-1.12l-.3-.23-.47-.32c-.18-.12-.32-.22-.43-.31l.68-.85a7.74,7.74,0,0,1,.84.51c.24.17.41.29.5.34C616.15,222.92,616.56,223.28,616.82,223.54Z" class="cls-1"/><path data-cppathid="10134" transform="translate(-6.28)" d="M623.35,230.63v-9.54h1.21v3c1.29.46,2.12.77,2.49,1s1,.51,2.19,1.11l-.64,1.08c-.66-.43-1.35-.83-2.07-1.21a18.19,18.19,0,0,0-2-.77v5.33Z" class="cls-1"/><path data-cppathid="10135" transform="translate(-6.28)" d="M583.27,237.23v-4.57H584v4.19a8.76,8.76,0,0,0,1.8-1,9.33,9.33,0,0,0,1.68-1.78,2.86,2.86,0,0,0,.46.46,11.44,11.44,0,0,1-1.65,1.75,14,14,0,0,1-2.09,1.29,1.78,1.78,0,0,0-.45.26l-.49-.43Z" class="cls-1"/><path data-cppathid="10136" transform="translate(-6.28)" d="M588.62,238v-5.63h.71v1.8c.77.27,1.26.46,1.48.56s.61.3,1.29.66l-.38.63c-.39-.25-.8-.49-1.22-.71a8.64,8.64,0,0,0-1.17-.46V238Z" class="cls-1"/><path data-cppathid="10137" transform="translate(-6.28)" d="M592.86,237.53v-4.39h4.32v4.34h-.69v-.4h-2.94v.45Zm3.63-1v-2.76h-2.94v2.76Z" class="cls-1"/><path data-cppathid="10138" transform="translate(-6.28)" d="M598.68,233.07h3.48l.07,0,.43.43-.68,1.2c-.07.11-.21.32-.43.6.52.51.89.88,1.09,1.1s.43.48.89,1l-.59.45a8.59,8.59,0,0,0-.61-.83c-.4-.48-.79-.9-1.16-1.27A11.58,11.58,0,0,1,599.9,237a7.75,7.75,0,0,1-1.43.86c0-.06-.1-.17-.2-.33l-.09-.11a.46.46,0,0,0-.16-.14,8,8,0,0,0,2.18-1.35,9.38,9.38,0,0,0,1.63-2.23h-3.15Z" class="cls-1"/><path data-cppathid="10139" transform="translate(-6.28)" d="M607.49,234.36l2.23,2.46-.53.49c-1.61-1.92-2.52-3-2.74-3.18s-.12-.1-.16-.1-.07,0-.12.08l-1.58,1.95-.5-.48,1.24-1.45a4.74,4.74,0,0,1,.69-.68.46.46,0,0,1,.22-.08.8.8,0,0,1,.36.08C606.85,233.7,607.15,234,607.49,234.36Zm.94-1.68a.7.7,0,0,1,.68.69.73.73,0,0,1-.2.51.7.7,0,0,1-1.19-.51.62.62,0,0,1,.2-.48A.66.66,0,0,1,608.43,232.68Zm0,.33a.36.36,0,0,0-.26.11.36.36,0,0,0,0,.5.36.36,0,0,0,.26.11.34.34,0,0,0,.25-.11.36.36,0,0,0,0-.5A.34.34,0,0,0,608.43,233Z" class="cls-1"/><path data-cppathid="10140" transform="translate(-6.28)" d="M613.15,232.71l-.43.81h1.9l.1-.05.41.43c-.39.9-.63,1.43-.74,1.6a3.84,3.84,0,0,1-.71.94,4.91,4.91,0,0,1-1.06.84,9.05,9.05,0,0,1-1.53.64,1.62,1.62,0,0,0-.38-.59,10,10,0,0,0,1.35-.48,3.64,3.64,0,0,0,1-.69,4.58,4.58,0,0,0,.73-.91,10,10,0,0,0,.54-1.19h-1.88a8,8,0,0,1-.74,1,5.78,5.78,0,0,1-.86.83,2.36,2.36,0,0,0-.18-.2,1.6,1.6,0,0,0-.3-.23,5.7,5.7,0,0,0,.68-.61c.14-.15.32-.38.56-.68a8.73,8.73,0,0,0,.51-.89,8.13,8.13,0,0,0,.35-.81Z" class="cls-1"/><path data-cppathid="10141" transform="translate(-6.28)" d="M615.71,234.87v-.59h5.62v.59H619a5.67,5.67,0,0,1-.28,1.55,2.77,2.77,0,0,1-.63.91,4.85,4.85,0,0,1-1.43.81l-.15-.35-.2-.26a3.56,3.56,0,0,0,1.22-.58,1.66,1.66,0,0,0,.56-.74,4.41,4.41,0,0,0,.22-1.34Zm.94-1.47v-.59h3.79v.59Z" class="cls-1"/><path data-cppathid="10142" transform="translate(-6.28)" d="M624.58,235.33v2.84H624v-2.39a8.71,8.71,0,0,1-1.85,1.12,1.07,1.07,0,0,0-.07-.19.64.64,0,0,0-.06-.14l-.15-.2a8,8,0,0,0,1.88-1.07,9.71,9.71,0,0,0,1.52-1.5l.48.38C625.27,234.66,624.88,235,624.58,235.33Z" class="cls-1"/><path data-cppathid="10143" transform="translate(-6.28)" d="M626.35,233.17h4.22l0,0,.46.43-.39,1a6.1,6.1,0,0,1-.88,1.58,5,5,0,0,1-1.27,1.12A6.88,6.88,0,0,1,627,238l-.15-.36a.59.59,0,0,0-.08-.11.75.75,0,0,0-.12-.14,6,6,0,0,0,1.47-.56,4.69,4.69,0,0,0,1.22-1.14,6.53,6.53,0,0,0,.94-1.88h-3.94Zm5.11-.08-.26.28a1.45,1.45,0,0,0-.25-.24l-.41-.34.26-.28A6.22,6.22,0,0,1,631.46,233.09Zm-.44-.76.31-.31a7.89,7.89,0,0,1,.66.59l-.3.28A3.89,3.89,0,0,0,631,232.33Z" class="cls-1"/><path data-cppathid="10144" transform="translate(-6.28)" d="M589.44,250.44V250h5.76v.43h-3v3.28h-.53V253l-2.13.41-.08-.59a3.43,3.43,0,0,0,.53-.07v-2.29Zm.86-.71V248h4v1.72Zm1.37,1.17v-.46h-1.12v.46Zm0,.84v-.43h-1.12v.43Zm0,.79v-.39h-1.12v.54Zm2.06-3.84v-.3h-2.9v.3Zm0,.64v-.28h-2.9v.28Zm-1.3,1.54h2.16l.08-.05.43.39a8.86,8.86,0,0,1-.54.91,1.37,1.37,0,0,1-.35.46,4.14,4.14,0,0,0,1.12.61l-.09.08-.07.09-.2.33a4.93,4.93,0,0,1-1.17-.73,3.83,3.83,0,0,1-1.22.76,2.12,2.12,0,0,0-.28-.53,4.6,4.6,0,0,0,.61-.26c.22-.13.4-.25.54-.35a3.33,3.33,0,0,1-.41-.64,2.55,2.55,0,0,1-.2-.58h-.41Zm1.4,1.35a5,5,0,0,0,.53-.86h-.94A2.41,2.41,0,0,0,593.83,252.22Z" class="cls-1"/><path data-cppathid="10145" transform="translate(-6.28)" d="M597.05,250.85v-2.79h3.84v.56h-3.25v.48h3v.45h-3V250h3v.43h-3v.43h4v.48h-2.38a3,3,0,0,0,.5.81c.43-.25.77-.48,1.05-.68l.43.41-1,.66a5.47,5.47,0,0,0,.73.43,4,4,0,0,0,.87.28l-.26.25a.78.78,0,0,0-.13.28,3.71,3.71,0,0,1-1.24-.58,2.71,2.71,0,0,1-.86-.77,3.36,3.36,0,0,1-.56-1.09h-1.14v1.6a14,14,0,0,0,1.42-.2v.53l-1.3.2c-.49.09-1,.16-1.6.21l-.12-.56c.62-.05,1-.09,1-.1v-1.68h-1.14v-.48Z" class="cls-1"/><path data-cppathid="10146" transform="translate(-6.28)" d="M604,248.16h.59v4.92H604v-4.31l-1,.4v-.55Z" class="cls-1"/><path data-cppathid="10147" transform="translate(-6.28)" d="M607,253.08v-.83h.84v.83Z" class="cls-1"/><path data-cppathid="10148" transform="translate(-6.28)" d="M609.82,250.54h-.45v-2.38h2.54v.51h-2V250h.15a2.4,2.4,0,0,1,1.55.4,1.42,1.42,0,0,1,.48,1.15,1.78,1.78,0,0,1-.43,1.19,1.5,1.5,0,0,1-1.17.46,1.67,1.67,0,0,1-1.06-.31.87.87,0,0,1-.38-.71h.58a.42.42,0,0,0,.2.36,1.15,1.15,0,0,0,.64.17,1,1,0,0,0,.71-.28,1.2,1.2,0,0,0,.3-.81,1.05,1.05,0,0,0-.35-.84A2.25,2.25,0,0,0,609.82,250.54Z" class="cls-1"/><path data-cppathid="10149" transform="translate(-6.28)" d="M613.3,253v-4.62h1.83v4.41h-.56v-.35h-.73V253Zm1.27-2.85v-1.22h-.73v1.22Zm0,1.76v-1.22h-.73v1.22Zm2.16-3.23v-.76h.63v.76h1.2v.53h-1.2v.74h1.58v.53h-.79v.66h.66v.51h-.66V253a.48.48,0,0,1-.13.36,1.77,1.77,0,0,1-.88.3,3.17,3.17,0,0,0-.21-.61h.54l.07,0a.13.13,0,0,0,0-.1v-1.3h-2.24v-.51h2.24v-.66h-2.34v-.53h1.5v-.74h-1.24v-.53Zm-1.12,3.43.36-.36a6.79,6.79,0,0,1,.76.74l-.38.38C616,252.49,615.8,252.24,615.61,252.07Z" class="cls-1"/><path data-cppathid="10150" transform="translate(-6.28)" d="M619.88,253.64V248h2.31v2h-1.7v3.58Zm1.75-4.8v-.33h-1.14v.33Zm0,.74v-.36h-1.14v.36Zm-.41,3.66v-2.75h2.39v2.44h-1.83v.31Zm1.83-1.76V251h-1.27v.48Zm0,1v-.51h-1.27v.51Zm-.3-2.39v-2h2.31v5a.46.46,0,0,1-.15.41,2.36,2.36,0,0,1-.87.2,2.19,2.19,0,0,0-.23-.58h.54l.07-.05a.1.1,0,0,0,0-.08v-2.87Zm1.7-1.22v-.33h-1.12v.33Zm0,.74v-.36h-1.12v.36Z" class="cls-1"/></g></g><g data-name="green lines" id="green_lines"><line data-cppathid="10151" y2="334.93" x2="331.96" y1="51.98" x1="331.96" class="cls-5"/><g class="cls-11"><line data-cppathid="10152" y2="103.69" x2="4.91" y1="103.69" x1="3.91" class="cls-12"/><line data-cppathid="10153" y2="103.69" x2="22.11" y1="103.69" x1="6.93" class="cls-13"/><line data-cppathid="10154" y2="103.69" x2="629.05" y1="103.69" x1="23.12" class="cls-13"/><line data-cppathid="10155" y2="103.69" x2="631.06" y1="103.69" x1="630.06" class="cls-12"/></g><g class="cls-11"><line data-cppathid="10156" y2="130.69" x2="4.91" y1="130.69" x1="3.91" class="cls-12"/><line data-cppathid="10157" y2="130.69" x2="22.11" y1="130.69" x1="6.93" class="cls-13"/><line data-cppathid="10158" y2="130.69" x2="629.05" y1="130.69" x1="23.12" class="cls-13"/><line data-cppathid="10159" y2="130.69" x2="631.06" y1="130.69" x1="630.06" class="cls-12"/></g><g class="cls-11"><line data-cppathid="10160" y2="155.19" x2="4.91" y1="155.19" x1="3.91" class="cls-12"/><line data-cppathid="10161" y2="155.19" x2="22.11" y1="155.19" x1="6.93" class="cls-13"/><line data-cppathid="10162" y2="155.19" x2="629.05" y1="155.19" x1="23.12" class="cls-13"/><line data-cppathid="10163" y2="155.19" x2="631.06" y1="155.19" x1="630.06" class="cls-12"/></g><g class="cls-11"><line data-cppathid="10164" y2="179.35" x2="4.91" y1="179.35" x1="3.91" class="cls-12"/><line data-cppathid="10165" y2="179.35" x2="22.11" y1="179.35" x1="6.93" class="cls-13"/><line data-cppathid="10166" y2="179.35" x2="629.05" y1="179.35" x1="23.12" class="cls-13"/><line data-cppathid="10167" y2="179.35" x2="631.06" y1="179.35" x1="630.06" class="cls-12"/></g><g class="cls-11"><line data-cppathid="10168" y2="204.19" x2="4.91" y1="204.19" x1="3.91" class="cls-12"/><line data-cppathid="10169" y2="204.19" x2="22.11" y1="204.19" x1="6.93" class="cls-13"/><line data-cppathid="10170" y2="204.19" x2="629.05" y1="204.19" x1="23.12" class="cls-13"/><line data-cppathid="10171" y2="204.19" x2="631.06" y1="204.19" x1="630.06" class="cls-12"/></g><g class="cls-11"><line data-cppathid="10172" y2="230.19" x2="4.91" y1="230.19" x1="3.91" class="cls-12"/><line data-cppathid="10173" y2="230.19" x2="22.11" y1="230.19" x1="6.93" class="cls-13"/><line data-cppathid="10174" y2="230.19" x2="629.05" y1="230.19" x1="23.12" class="cls-13"/><line data-cppathid="10175" y2="230.19" x2="631.06" y1="230.19" x1="630.06" class="cls-12"/></g><g class="cls-11"><line data-cppathid="10176" y2="254.69" x2="4.91" y1="254.69" x1="3.91" class="cls-12"/><line data-cppathid="10177" y2="254.69" x2="22.11" y1="254.69" x1="6.93" class="cls-13"/><line data-cppathid="10178" y2="254.69" x2="629.05" y1="254.69" x1="23.12" class="cls-13"/><line data-cppathid="10179" y2="254.69" x2="631.06" y1="254.69" x1="630.06" class="cls-12"/></g><g class="cls-11"><line data-cppathid="10180" y2="280.19" x2="4.91" y1="280.19" x1="3.91" class="cls-12"/><line data-cppathid="10181" y2="280.19" x2="22.11" y1="280.19" x1="6.93" class="cls-13"/><line data-cppathid="10182" y2="280.19" x2="629.05" y1="280.19" x1="23.12" class="cls-13"/><line data-cppathid="10183" y2="280.19" x2="631.06" y1="280.19" x1="630.06" class="cls-12"/></g><g class="cls-11"><line data-cppathid="10184" y2="306.7" x2="4.91" y1="306.7" x1="3.91" class="cls-12"/><line data-cppathid="10185" y2="306.7" x2="22.11" y1="306.7" x1="6.93" class="cls-13"/><line data-cppathid="10186" y2="306.7" x2="629.05" y1="306.7" x1="23.12" class="cls-13"/><line data-cppathid="10187" y2="306.7" x2="631.06" y1="306.7" x1="630.06" class="cls-12"/></g></g></g></g></svg>