<?xml version="1.0" encoding="UTF-8"?>
<svg xmlns="http://www.w3.org/2000/svg" onmouseup="{ if(window.parent.document.onmouseup) window.parent.document.onmouseup(arguments[0]);}" viewBox="0 0 104.02 297.56" xmlns:xlink="http://www.w3.org/1999/xlink"><defs><style>.cls-1{fill:none;}.cls-2{fill:#7a4e06;}.cls-3{fill:#aa6f07;}.cls-13,.cls-4{fill:#c9c9c9;}.cls-4,.cls-7{stroke:#c9c9c9;}.cls-5{fill:#f4901e;stroke:#f4901e;stroke-width:0.61px;}.cls-6{fill:#ffc589;}.cls-7{fill:#e3e3e3;}.cls-8{stroke:#000;stroke-width:0.59px;}.cls-9{fill:#fff;}.cls-10{fill:#252551;}.cls-11{fill:#7a3c7c;}.cls-12{fill:#9e7149;}.cls-14{fill:#42210b;}.cls-15{fill:#bf278c;}.cls-16{fill:#9e549e;}.cls-17{isolation:isolate;}.cls-18{clip-path:url(#clip-path);}.cls-19{fill:#c3996d;}.cls-20{fill:red;}.cls-21{fill:#39b24a;}.cls-22{fill:#f9eb21;}.cls-23{fill:#2e318f;}</style><clipPath id="clip-path"><polygon data-cppathid="10000" points="47.8 100.93 19.63 91.71 30.38 84.18 58.55 93.4 47.8 100.93" class="cls-1"/></clipPath></defs><g data-name="Layer 2" id="Layer_2"><g data-name="Sprint Planning jp" id="Sprint_Planning_jp"><path data-cppathid="10001" d="M101.18,274.71c.53,2.24-.15,4.33-1.52,4.65h0c-1.36.32-2.9-1.24-3.43-3.49L37.6,27.08c-.53-2.25.15-4.33,1.52-4.65h0c1.37-.32,2.9,1.24,3.43,3.49Z" class="cls-2"/><path data-cppathid="10002" d="M69.63,292.41a4.18,4.18,0,0,1-3.11,5h0a4.17,4.17,0,0,1-5-3.11L.11,33.86a4.19,4.19,0,0,1,3.12-5h0a4.18,4.18,0,0,1,5,3.11Z" class="cls-3"/><path data-cppathid="10003" d="M46.22,47.72a2.78,2.78,0,0,1-2.29,3.19l-29.2,4.8a2.77,2.77,0,0,1-3.18-2.29h0a2.76,2.76,0,0,1,2.28-3.18L43,45.44a2.77,2.77,0,0,1,3.19,2.28Z" class="cls-3"/><path data-cppathid="10004" d="M56.11,89.69a2.78,2.78,0,0,1-2.29,3.19l-29.2,4.8a2.77,2.77,0,0,1-3.18-2.29h0a2.76,2.76,0,0,1,2.29-3.18l29.19-4.8a2.77,2.77,0,0,1,3.19,2.28Z" class="cls-3"/><path data-cppathid="10005" d="M66.48,133.54a2.77,2.77,0,0,1-2,3.35l-28.74,7a2.76,2.76,0,0,1-3.35-2h0a2.76,2.76,0,0,1,2-3.35l28.74-7a2.76,2.76,0,0,1,3.35,2Z" class="cls-3"/><path data-cppathid="10006" d="M77,178A2.76,2.76,0,0,1,75,181.46L46.59,189.6a2.76,2.76,0,0,1-3.42-1.91h0a2.77,2.77,0,0,1,1.9-3.42l28.45-8.14A2.77,2.77,0,0,1,77,178Z" class="cls-3"/><path data-cppathid="10007" d="M88.4,227.08a2.79,2.79,0,0,1-1.65,3.56L59,240.81a2.76,2.76,0,0,1-3.55-1.65h0a2.76,2.76,0,0,1,1.64-3.55l27.79-10.18a2.79,2.79,0,0,1,3.56,1.65Z" class="cls-3"/><path data-cppathid="10008" d="M33.49,107.85s9.08-3.24,15.72-3.08-2.1-22.37-2.1-22.37l-8.76-.49Z" class="cls-4"/><path data-cppathid="10009" d="M53,25.15s1.51,3.63-3.32,4.85c0,0,.93,4.17-4.26,3.92,0,0,0,4.64-4.53,3.36,0,0-1.73,4.29-6.69.92,0,0-4.74,0-6.48-3.47,0,0-5.37-2.6-6.61.26,0,0,.79-5.5,2.22-6.29,0,0,3.94,3.39,4.64,5,0,0,5.79-1.41,6.72,2.76,0,0,3.33-2.45,5.38-.64,0,0,1.11-4.2,4.3-3.19,0,0,0-4.08,3.14-4,0,0-1.11-3.83,1.4-5C48.89,23.66,54.72,21.57,53,25.15Z" class="cls-5"/><path data-cppathid="10010" d="M34.82,63.51s-.2-3.81-2.86-5.43-2.86-3.91-3.32-4.77-4,.86-.49,5.73.13,6.53.13,6.53l-2.39,1.91s2.56,1.57,4.65,1.28,4.93,4.81,7.56,6.1,10.29-4.18,10.26-4.51-6.07-2-6.07-2Z" class="cls-6"/><path data-cppathid="10011" d="M35.46,62.88s-2,6.3-4,6.7c3.19,3.59,6.78,7.34,6.78,7.34L42,71.42l-1.36-5Z" class="cls-7"/><path data-cppathid="10012" d="M36,41s8-31.43,25.1-30.83S83.9,28.28,81,44.6c-.76,4.37-1.46,10.83-2.08,18C77.28,82.1,70.4,82,70.4,82L42.32,80.91l1.76-18.66-.69-5s-2.68-10.78-3.25-12,9.11,4.26,17.51-.12c9.6-5,6.85-7.84,6.85-7.84s-8.76,4.92-15.61,4.92A70,70,0,0,1,36,41Z" class="cls-6"/><path data-cppathid="10013" d="M56.22,26.7c0,1.42.64,2.57,1.42,2.57s1.43-1.15,1.43-2.57-.64-2.57-1.43-2.57S56.22,25.29,56.22,26.7Z" class="cls-8"/><path data-cppathid="10014" d="M50.17,25.53c0,1.17.53,2.12,1.18,2.12s1.17-.95,1.17-2.12-.52-2.11-1.17-2.11S50.17,24.36,50.17,25.53Z" class="cls-8"/><path data-cppathid="10015" d="M58.07,25.5a.72.72,0,1,0,.72-.76A.74.74,0,0,0,58.07,25.5Z" class="cls-9"/><path data-cppathid="10016" d="M51.46,24.67a.73.73,0,0,0,.75.71.73.73,0,0,0,.67-.79.71.71,0,1,0-1.42.08Z" class="cls-9"/><path data-cppathid="10017" d="M37.74,85.9s2,12.44,11.5,13.76c6.17.86,18.24.15,19.91,2.13,2.33,2.77,10.46-11.46,10.46-11.46s-31.46-13.92-39.12-8.5" class="cls-10"/><path data-cppathid="10018" d="M42.93,96,42,133.55s-3.86,1.13-5.45,3.76c6,1.44,14.11-2,14.11-2s4.68-35.19,5.43-38.65S42.93,96,42.93,96Z" class="cls-10"/><path data-cppathid="10019" d="M59.27,95.07l-2.66,33.51c-2.76,1.7-3.72,1.78-5.15,5.21a16.07,16.07,0,0,0,14.87-3.6s5.85-32.67,6.35-33.69S60,94.61,60,94.61" class="cls-10"/><path data-cppathid="10020" d="M80,57c-37.36,7.29-37-.52-37-.52s-6.64,24.16-5.37,29.75C45.57,85.14,80,91.2,80,91.2S80.69,62.57,80,57Z" class="cls-11"/><path data-cppathid="10021" d="M58.24,13s4.81,12.43,20.28,21c0,0-3,2.49.64,5.85,0,0-2.79,3.23,1.9,5.47,0,0-2.16,4.1,2.41,5.1,0,0,0,2.77,5.94,2.15,0,0,4.18,2.24,7.35,0,0,0,6,.25,5.7,3.36,0,0,1.9-5.22,1-6.59,0,0-5.07,1.12-6.47,2.24,0,0-4.44-4-7.22-.75a6.21,6.21,0,0,0-4.93-1.28C86,44.62,86,45.3,82.58,44.66c0,0,1.9-3.61-.89-5,0,0,2.79-2.86,1.14-5.09,3.17-1,3.33-5.5-.12-12.69-5.33-11.06-15.34-12.56-17-12.18s-11.54-7.59-19,8C50.5,19.54,58.24,13,58.24,13Z" class="cls-5"/><path data-cppathid="10022" d="M75,6.22C72.7,5,69.33,1,60,.64,56.41.5,51.57,1,48.6,3.14,45.37,5.46,44,10.45,47.73,13c6.92,4.79,16.86.31,24.32,4.53,4,2.24,5.5,6.83,10.25,7.41,4,.51,7.76-2.95,8.38-7.17C91.61,11.49,80.49,6.08,75,6.22" class="cls-8"/><polygon data-cppathid="10023" points="78.92 2.87 76.73 0.56 75.03 5.91 78.92 2.87" class="cls-8"/><path data-cppathid="10024" d="M23.79,57.92C28.06,64.29,35,73.14,35.59,72.76s-4.93-10.21-9.18-16.59a34.81,34.81,0,0,0-5.47-6.76l-1.31.87A35.43,35.43,0,0,0,23.79,57.92Z" class="cls-12"/><path data-cppathid="10025" d="M20.87,53A5.54,5.54,0,0,0,22,52.46a5,5,0,0,0,1-.85,19.79,19.79,0,0,0-2.07-2.2l-1.31.87A21.75,21.75,0,0,0,20.87,53Z" class="cls-13"/><path data-cppathid="10026" d="M20.53,50.21c1.37-.91.93-2.41-.44-3.49s-3.39-1.56-3.49-2.4C15.73,45.85,17.91,52,20.53,50.21Z" class="cls-14"/><path data-cppathid="10027" d="M20,46.66c-1.26-1-3.3-1.52-3.4-2.34-.42.73-.13,2.52.57,4,.2-.26.37-.55.74-.53a1.76,1.76,0,0,0,.94,0A2.88,2.88,0,0,0,20,46.66Z" class="cls-15"/><path data-cppathid="10028" d="M28.78,60.17c.4,1.14-.88,1.92-.6,1.85,1.19-.3,2.75.65.75,2.39,3.38-.23.54,2.19.54,2.19s-2.48.64-2.85.8c-1,.44-2.2-1.27-1.52-1.75a2.27,2.27,0,0,1-.65-2.4,1.59,1.59,0,0,1-.57-1.91C24.1,60.5,28.43,59.19,28.78,60.17Z" class="cls-6"/><path data-cppathid="10029" d="M80.67,49.65c1.33.66,0,2.75-.17,3.89s1.63,2.92,1,4.05-22.21,6.32-32.43,4.54-7.46-4.7-7.3-5.51S40.3,53.7,41,52.89s3.88,1.82,7.78,1.94C64.29,55.32,79.05,48.84,80.67,49.65Z" class="cls-16"/><path data-cppathid="10030" d="M56.83,58.4S50.35,92,51,110.77c0,0,28.17,2.51,35.34-4.42,0,0-5.51-22.17-5.19-27.2s.33-21.56.33-21.56Z" class="cls-7"/><polygon data-cppathid="10031" points="82.45 52.24 84.07 59.54 60.4 65.69 56.83 58.4 82.45 52.24" class="cls-7"/><path data-cppathid="10032" d="M45.81,57.92s-7.14,40.37-6,52.2L33,108.82s6.32-45.39,8.27-48.47S45.81,57.92,45.81,57.92Z" class="cls-7"/><polygon data-cppathid="10033" points="45.81 57.91 41.92 64.4 36.73 60.02 40.14 55.48 45.81 57.91" class="cls-7"/><path data-cppathid="10034" d="M51.51,97.54a10,10,0,0,1-2-2.47c-.72-1.36,4.22-4.31,4.22-1.92S51.51,97.54,51.51,97.54Z" class="cls-11"/><path data-cppathid="10035" d="M70.33,65.71c-.43,1.35-4.14,13.17-4.3,16S55.5,87.49,51,90.92c0,0-4-1.83-5.66-1.28s-1.84-.72-2.79-.72-1.92,2.32.79,2.8a8.45,8.45,0,0,1-4.62,1.43c-2.87.08-1.36,1.68-.32,1.76,0,0-.48,1.11,1.59,1.27a4,4,0,0,0,3.2.48s5.34.48,8.21-.64c1.42-.55,19.38-3.67,20.66-6.14s6.14-18.42,5.42-21.14S71.77,61.25,70.33,65.71Z" class="cls-6"/><path data-cppathid="10036" d="M73.82,62.68s5.47,1.29,4.66,6.76S74.39,90.3,72.84,91.5,51.2,97.94,51.2,97.94s2.86-5.63-.49-7.64c3.76-2.82,12.74-6.77,13.88-7.41S68.27,61,73.82,62.68Z" class="cls-7"/><path data-cppathid="10037" d="M40.93,91.66c-.58-.4-.27-1,.67-1.28a3.6,3.6,0,0,1,2.76.16c.57.4.26,1-.69,1.29a3.55,3.55,0,0,1-2.74-.17m14.5-1.58a6.19,6.19,0,0,0-4.8-.49c-2.07.59-4.35.64-5.14.09-.45-.31-.41-.83.44-1.55.15-.13.2-.24.18-.35s0-.67,0-.67a25.64,25.64,0,0,0-8,1c-3.79,1.18-12.63,3.51-14.35,6.47-.24.42-.06.85,0,1.29A3.05,3.05,0,0,0,25,97.73l.25.19c5.86,4.1,24-1.08,30.23-6.07a1.11,1.11,0,0,0,.51-.94c0-.31,0-.24,0-.7" class="cls-12"/><g class="cls-17"><g class="cls-18"><path data-cppathid="10038" d="M52,96.4a1.13,1.13,0,0,1-.27.13c-.38.14-.86.25-1.28.36a2.41,2.41,0,0,1-1.26.07c-1-.27-.54-1-.2-1.34l0,0a1.88,1.88,0,0,1,2-.15c.63.29,1.38.66.94,1m-9.44-.14c-.15-.17-.22-.33,0-.46l.19-.09a1.08,1.08,0,0,1,.91-.16,2.66,2.66,0,0,1,1,.6c.48.34,1.45.22,1.9.55s.47.5.18.7a.46.46,0,0,1-.14.07,4.3,4.3,0,0,1-1.83.25,4.5,4.5,0,0,1-.83-.15c-.44-.12-.89-.15-1.36-.23s-.93-.35-.92-.61a.31.31,0,0,1,.15-.23,2,2,0,0,1,.8-.24m3.09-4.47s0,0,0-.06l.11-.06c.3-.14,1.27-.59,1.7-.22a1,1,0,0,0,1,.4.91.91,0,0,1,1,.53l.09.08-.07.08,0,0a1.05,1.05,0,0,1-.3.14.35.35,0,0,1-.17.21,2.23,2.23,0,0,1-1.74.21c-.33-.13-.41-.66-.89-.56a2,2,0,0,1-1.1,0c-.39-.13-.17-.37.11-.57l.29-.18m-5.91,4.28a.84.84,0,0,1-.23.12,3.27,3.27,0,0,1-2.06-.09A5.58,5.58,0,0,0,35.83,96a2.13,2.13,0,0,1-.94-.3c-.69-.37-1.06-.91-.63-1.21a2,2,0,0,1,1.08-.22l0,0a2,2,0,0,1,1.47-.13c.81.27.28,1,1.38,1a2.66,2.66,0,0,1,1.5.26c.28.27.29.52,0,.71M33,94.21l0,0a1.17,1.17,0,0,1-1.16-.09h-.14c-.14,0-.31,0-.35-.09a.21.21,0,0,1,.06-.3.81.81,0,0,1,.51-.1,1.86,1.86,0,0,1,.33,0h.13c.51.06,1,.3.65.51m10.77-3.29a1.23,1.23,0,0,1-.84.23,1.5,1.5,0,0,1-.48-.17c-.64-.36-1.27-.09-1.93,0a1.83,1.83,0,0,1-1.61-.46c-.21-.31.33-.5-.43-.82-.35-.16-.48-.29-.56-.5a.24.24,0,0,1,.13-.29,3.16,3.16,0,0,1,1.39-.33.31.31,0,0,1,.27.08c1.66-.64,2.52.4,4,.79.81.21.7.68.5,1a1.68,1.68,0,0,1-.46.49m-8.23,1.4a3.57,3.57,0,0,1-2.75.16c-1-.31-1.25-.88-.68-1.28A3.57,3.57,0,0,1,34.85,91c.94.31,1.25.89.68,1.29m-8.35-5.89c-1,.67-.92,1.67.8,2.31,1.89.71,2.82,1.71,2,2.26a5.55,5.55,0,0,1-3.19.37,1.85,1.85,0,0,0-1.13.21c-.78.55.11,2,3.88,3.31,4.91,1.69,16.92,6.41,23.54,2.31l.27-.18c5.87-4.11-10.8-10.3-22.8-11.28a5.36,5.36,0,0,0-3.4.69" class="cls-19"/><path data-cppathid="10039" d="M38,88.91a.24.24,0,0,0-.13.29c.08.21.21.34.56.5.76.32.22.51.43.82a1.83,1.83,0,0,0,1.61.46c.66-.09,1.29-.36,1.93,0a1.5,1.5,0,0,0,.48.17,1.23,1.23,0,0,0,.84-.23,1.68,1.68,0,0,0,.46-.49c.2-.3.31-.77-.5-1-1.5-.39-2.36-1.43-4-.79a.31.31,0,0,0-.27-.08,3.16,3.16,0,0,0-1.39.33" class="cls-15"/><path data-cppathid="10040" d="M34.26,94.51c-.43.3-.06.84.63,1.21a2.13,2.13,0,0,0,.94.3,5.58,5.58,0,0,1,1.62.08,3.27,3.27,0,0,0,2.06.09.84.84,0,0,0,.23-.12c.27-.19.26-.44,0-.71a2.66,2.66,0,0,0-1.5-.26c-1.1,0-.57-.69-1.38-1a2,2,0,0,0-1.47.13l0,0a2,2,0,0,0-1.08.22" class="cls-20"/><path data-cppathid="10041" d="M31.37,93.76a.21.21,0,0,0-.06.3c0,.07.21.11.35.09h.14a1.17,1.17,0,0,0,1.16.09l0,0c.31-.21-.14-.45-.65-.51h-.13a1.86,1.86,0,0,0-.33,0,.81.81,0,0,0-.51.1" class="cls-20"/><path data-cppathid="10042" d="M42.52,95.8c-.18.13-.11.29,0,.46a2,2,0,0,0-.8.24.31.31,0,0,0-.15.23c0,.26.35.51.92.61s.92.11,1.36.23a4.5,4.5,0,0,0,.83.15,4.3,4.3,0,0,0,1.83-.25.46.46,0,0,0,.14-.07c.29-.2.12-.47-.18-.7s-1.42-.21-1.9-.55a2.66,2.66,0,0,0-1-.6,1.08,1.08,0,0,0-.91.16l-.19.09" class="cls-21"/><path data-cppathid="10043" d="M49,95.58l0,0c-.34.36-.82,1.07.2,1.34a2.41,2.41,0,0,0,1.26-.07c.42-.11.9-.22,1.28-.36A1.13,1.13,0,0,0,52,96.4c.44-.31-.31-.68-.94-1a1.88,1.88,0,0,0-2,.15" class="cls-22"/><path data-cppathid="10044" d="M45.68,91.73s0,0,0,.06l-.29.18c-.28.2-.5.44-.11.57a2,2,0,0,0,1.1,0c.48-.1.56.43.89.56A2.23,2.23,0,0,0,49,92.92a.35.35,0,0,0,.17-.21,1.05,1.05,0,0,0,.3-.14l0,0,.07-.08-.09-.08a.91.91,0,0,0-1-.53,1,1,0,0,1-1-.4c-.43-.37-1.4.08-1.7.22l-.11.06" class="cls-23"/></g></g><path data-cppathid="10045" d="M44.27,90c-.36-.54-1.1-3.58-2.13-3.16s-1.82,3.59-.3,4.38a2.13,2.13,0,0,0,2.61-.61Z" class="cls-6"/><path data-cppathid="10046" d="M53.28,79.27c0,.21.33.35.53.35a3.28,3.28,0,0,0,2.9-1.27,1.38,1.38,0,0,0,.13-1.14c-.24-.6,1.4-1,1.77-1.2s2.33-.93,2.1-1.69-.91-.95-1.58-1.13c.63-.79,1.35-1.35,1.17-2.46a1,1,0,0,0-.39-.52,3.79,3.79,0,0,1-1.24-1.59c-.82-1.36-1.91-1.45-3.25-.79-.22-.21-.77-.28-.84,0-.51,2.1-.54,4.23-.91,6.35A14.76,14.76,0,0,0,53.28,79.27Z" class="cls-15"/><path data-cppathid="10047" d="M75.24,97.29c1.09,2.31,4.94.22,5.49,3s2.12,1.74,4.34,1.87c.22,0,.58,0,.53-.36-.84-5.12-3.11-9.89-3.48-15.1a.26.26,0,0,0-.07-.16c.16-.31-.43-.64-.75-.44-1.24.79-2.41,1.14-3,2.57s1.11,2.4-.43,3.83C76.65,93.63,74.28,95.29,75.24,97.29Z" class="cls-15"/><path data-cppathid="10048" d="M70.39,100.36a1.44,1.44,0,0,0,2.15.77,3.21,3.21,0,0,0,1.31-2c.1-1.07-1.28-1-2-.82A2,2,0,0,0,70.39,100.36Z" class="cls-15"/><path data-cppathid="10049" d="M65.18,81.72c.86.19,2.51.89,2.87-.4s-.24-2.4.64-3.51a5.22,5.22,0,0,0,.78-1.33c.74-1.81,1.81-5.48-1.24-5.42-.23-.21-.74-.26-.84,0A104.69,104.69,0,0,0,64.8,81.3C64.74,81.51,65,81.68,65.18,81.72Z" class="cls-15"/><path data-cppathid="10050" d="M39.65,77.07c.15,0,.35-.14.31-.32a3.09,3.09,0,0,1,0-1.21.94.94,0,0,0,.85-.32A2.05,2.05,0,0,0,41,73.77a5.36,5.36,0,0,0,.65-.93,3.33,3.33,0,0,0,0-2.73,2.46,2.46,0,0,0-1.43-1.94.44.44,0,0,0-.61.1c-.23,0-.44.07-.4.31.14.92-.5,3.93-.89,6.36C38.08,76.2,38.58,77.14,39.65,77.07Zm.43-7A7.21,7.21,0,0,1,40,71.16l-.06,0c0-.21.05-.42.07-.62S40.05,70.19,40.08,70Z" class="cls-15"/><path data-cppathid="10051" d="M47.45,4A7.93,7.93,0,0,1,48.52,3C51.59.81,56.33.48,58.88.48c.37,0,.74,0,1.09,0a26,26,0,0,1,6.9,1.11l-.16.15c.29-.06.93.2.78.39a4.65,4.65,0,0,1-1.92,1.6c-1.32.5-2.45-.59-3.91.13-.35.18-.69.34-1,.49l-.1.14a7,7,0,0,1-2.66.78,7,7,0,0,1-1.11-.13c0,.09-.13.14-.36.09-1.42-.27-3-1-4.44-.69A16.88,16.88,0,0,1,49.74,5c-.58.06-2.15,0-1.64-.85L47.92,4Z" class="cls-15"/><path data-cppathid="10052" d="M51.73,6.27c.18,0,.46.24.39.46A1.89,1.89,0,0,0,52,7l.19.29a.28.28,0,0,1-.12.46,10.19,10.19,0,0,0-1.6.92c-.5.24-1.35.44-1.66-.2C48.1,6.92,50.64,6.06,51.73,6.27Z" class="cls-15"/></g></g></svg>