<?xml version="1.0" encoding="UTF-8"?>
<svg xmlns="http://www.w3.org/2000/svg" onmouseup="{ if(window.parent.document.onmouseup) window.parent.document.onmouseup(arguments[0]);}" viewBox="0 0 96.97 152.64" xmlns:xlink="http://www.w3.org/1999/xlink"><defs><style>.cls-1{fill:none;}.cls-2{fill:#d7d7d7;}.cls-12,.cls-3{fill:#c9c9c9;}.cls-3,.cls-6{stroke:#c9c9c9;}.cls-4{fill:#f4901e;stroke:#f4901e;stroke-width:0.61px;}.cls-5{fill:#ffc589;}.cls-6{fill:#e3e3e3;}.cls-7{stroke:#000;stroke-width:0.59px;}.cls-8{fill:#fff;}.cls-9{fill:#252551;}.cls-10{fill:#7a3c7c;}.cls-11{fill:#9e7149;}.cls-13{fill:#42210b;}.cls-14{fill:#bf278c;}.cls-15{fill:#9e549e;}.cls-16{isolation:isolate;}.cls-17{clip-path:url(#clip-path);}.cls-18{fill:#c3996d;}.cls-19{fill:red;}.cls-20{fill:#39b24a;}.cls-21{fill:#f9eb21;}.cls-22{fill:#2e318f;}</style><clipPath id="clip-path"><polygon data-cppathid="10000" points="34.76 111.69 3.56 101.48 15.47 93.14 46.67 103.35 34.76 111.69" class="cls-1"/></clipPath></defs><g data-name="Layer 2" id="Layer_2"><g data-name="Sprint Planning jp" id="Sprint_Planning_jp"><g data-name="jp copy 2" id="jp_copy_2"><path data-cppathid="10001" d="M96.15,146c0,3.67-19.8,6.64-44.22,6.64s-44.22-3-44.22-6.64,19.8-6.65,44.22-6.65S96.15,142.33,96.15,146Z" class="cls-2"/><path data-cppathid="10002" d="M18.92,119.35s10-3.59,17.41-3.41S34,91.17,34,91.17l-9.69-.54Z" class="cls-3"/><path data-cppathid="10003" d="M40.5,27.79s1.67,4-3.67,5.37c0,0,1,4.61-4.72,4.34,0,0,0,5.13-5,3.71,0,0-1.92,4.76-7.4,1,0,0-5.26,0-7.18-3.85,0,0-5.94-2.88-7.32.29,0,0,.88-6.09,2.46-7,0,0,4.36,3.75,5.14,5.57,0,0,6.41-1.56,7.43,3.05,0,0,3.69-2.71,6-.71,0,0,1.23-4.65,4.77-3.53,0,0,0-4.52,3.47-4.39,0,0-1.23-4.25,1.55-5.57C36,26.14,42.43,23.83,40.5,27.79Z" class="cls-4"/><path data-cppathid="10004" d="M20.39,70.26s-.22-4.22-3.17-6S14.06,59.91,13.55,59s-4.43,1-.54,6.35.14,7.23.14,7.23l-2.64,2.11s2.83,1.74,5.14,1.42S21.11,81.4,24,82.83s11.39-4.63,11.36-5-6.71-2.19-6.71-2.19Z" class="cls-5"/><path data-cppathid="10005" d="M21.1,69.56s-2.21,7-4.42,7.42c3.53,4,7.51,8.12,7.51,8.12L28.34,79l-1.5-5.48Z" class="cls-6"/><path data-cppathid="10006" d="M21.66,45.31s8.85-34.8,27.8-34.13S74.73,31.26,71.57,49.32c-.85,4.83-1.62,12-2.3,19.89-1.87,21.63-9.49,21.55-9.49,21.55L28.7,89.53l1.94-20.67-.76-5.48s-3-11.94-3.6-13.28S36.37,54.82,45.66,50c10.64-5.55,7.59-8.68,7.59-8.68S43.55,46.74,36,46.74A77.51,77.51,0,0,1,21.66,45.31Z" class="cls-5"/><path data-cppathid="10007" d="M44.08,29.5c0,1.58.71,2.85,1.58,2.85s1.58-1.27,1.58-2.85-.71-2.84-1.58-2.84S44.08,27.94,44.08,29.5Z" class="cls-7"/><path data-cppathid="10008" d="M37.39,28.21c0,1.29.58,2.34,1.3,2.34S40,29.5,40,28.21s-.58-2.34-1.3-2.34S37.39,26.92,37.39,28.21Z" class="cls-7"/><path data-cppathid="10009" d="M46.14,28.17a.79.79,0,1,0,.79-.84A.82.82,0,0,0,46.14,28.17Z" class="cls-8"/><path data-cppathid="10010" d="M38.81,27.25a.79.79,0,1,0,.74-.88A.82.82,0,0,0,38.81,27.25Z" class="cls-8"/><path data-cppathid="10011" d="M23.62,95s2.25,13.78,12.74,15.24c6.83,1,20.19.17,22,2.36C61,115.71,70,99.94,70,99.94s-34.84-15.41-43.31-9.4" class="cls-9"/><path data-cppathid="10012" d="M29.37,106.24l2.29,36s-4.27,1.24-6,4.16c6.62,1.59,15.62-2.25,15.62-2.25s1.86-33.43,2.69-37.26S29.37,106.24,29.37,106.24Z" class="cls-9"/><path data-cppathid="10013" d="M47.46,105.2,49,144.51c-3.06,1.88-4.12,2-5.71,5.77a17.78,17.78,0,0,0,16.46-4s2.06-38.39,2.61-39.52-14-2.09-14-2.09" class="cls-9"/><path data-cppathid="10014" d="M70.41,63.08c-41.36,8.08-41-.58-41-.58s-7.35,26.76-5.94,32.94c8.83-1.23,47,5.48,47,5.48S71.18,69.21,70.41,63.08Z" class="cls-10"/><path data-cppathid="10015" d="M46.32,14.28s5.33,13.77,22.46,23.26c0,0-3.37,2.76.7,6.47,0,0-3.09,3.58,2.1,6.06,0,0-2.38,4.54,2.67,5.64,0,0,0,3.08,6.58,2.39,0,0,4.63,2.48,8.14,0,0,0,6.59.27,6.31,3.72,0,0,2.11-5.79,1.13-7.3,0,0-5.62,1.24-7.16,2.48,0,0-4.92-4.41-8-.83a6.89,6.89,0,0,0-5.45-1.42c1.29-5.41,1.26-4.65-2.53-5.37,0,0,2.1-4-1-5.5,0,0,3.09-3.17,1.27-5.65,3.5-1.09,3.69-6.09-.14-14-5.9-12.25-17-13.9-18.81-13.49S41.83,2.3,33.54,19.51C37.76,21.58,46.32,14.28,46.32,14.28Z" class="cls-4"/><path data-cppathid="10016" d="M64.84,6.83C62.34,5.47,58.6,1,48.24.65,44.3.5,38.94,1,35.65,3.41c-3.58,2.58-5.07,8.1-1,10.94,7.67,5.31,18.67.35,26.93,5C66,21.85,67.7,26.93,73,27.58c4.49.55,8.59-3.27,9.28-7.94,1-7-11.29-13-17.4-12.81" class="cls-7"/><polygon data-cppathid="10017" points="69.22 3.12 66.8 0.56 64.91 6.49 69.22 3.12" class="cls-7"/><path data-cppathid="10018" d="M8.18,64.07c4.72,7.05,12.43,16.85,13.07,16.42S15.79,69.2,11.08,62.13a39.11,39.11,0,0,0-6-7.49l-1.45,1A38.87,38.87,0,0,0,8.18,64.07Z" class="cls-11"/><path data-cppathid="10019" d="M5,58.66A5.74,5.74,0,0,0,6.24,58a5.53,5.53,0,0,0,1.08-.94A23.31,23.31,0,0,0,5,54.64l-1.45,1A23.53,23.53,0,0,0,5,58.66Z" class="cls-12"/><path data-cppathid="10020" d="M4.57,55.53c1.51-1,1-2.67-.48-3.87S.33,49.94.22,49C-.75,50.7,1.67,57.47,4.57,55.53Z" class="cls-13"/><path data-cppathid="10021" d="M4,51.59C2.59,50.54.33,49.91.22,49c-.47.81-.15,2.78.63,4.41.22-.29.41-.61.82-.59a2,2,0,0,0,1,0A3.27,3.27,0,0,0,4,51.59Z" class="cls-14"/><path data-cppathid="10022" d="M13.7,66.56c.45,1.26-1,2.12-.66,2,1.32-.33,3.05.71.83,2.64,3.74-.26.6,2.43.6,2.43s-2.75.71-3.16.88c-1.13.49-2.43-1.4-1.68-1.94A2.5,2.5,0,0,1,8.91,70a1.77,1.77,0,0,1-.63-2.12C8.53,66.92,13.32,65.47,13.7,66.56Z" class="cls-5"/><path data-cppathid="10023" d="M71.15,54.91c1.48.74,0,3.05-.18,4.3s1.8,3.24,1.08,4.49-24.59,7-35.9,5-8.26-5.21-8.08-6.11-1.62-3.23-.9-4.12,4.31,2,8.62,2.15C53,61.19,69.36,54,71.15,54.91Z" class="cls-15"/><path data-cppathid="10024" d="M44.76,64.6s-7.18,37.16-6.46,58c0,0,31.19,2.78,39.13-4.89,0,0-6.1-24.55-5.74-30.12s.36-23.87.36-23.87Z" class="cls-6"/><polygon data-cppathid="10025" points="73.13 57.78 74.92 65.86 48.71 72.67 44.76 64.6 73.13 57.78" class="cls-6"/><path data-cppathid="10026" d="M32.56,64.06s-7.9,44.7-6.64,57.8l-7.54-1.44s7-50.26,9.15-53.67S32.56,64.06,32.56,64.06Z" class="cls-6"/><polygon data-cppathid="10027" points="32.56 64.06 28.25 71.24 22.51 66.39 26.28 61.37 32.56 64.06" class="cls-6"/><path data-cppathid="10028" d="M38.87,107.93a11.39,11.39,0,0,1-2.21-2.74c-.79-1.5,4.68-4.77,4.68-2.11S38.87,107.93,38.87,107.93Z" class="cls-10"/><path data-cppathid="10029" d="M59.71,72.69c-.48,1.49-4.59,14.58-4.77,17.76S43.29,96.8,38.25,100.6c0,0-4.42-2-6.27-1.41s-2-.8-3.09-.8-2.12,2.57.88,3.1a9.36,9.36,0,0,1-5.12,1.59c-3.18.08-1.5,1.85-.35,1.94,0,0-.53,1.23,1.76,1.41a4.38,4.38,0,0,0,3.54.53s5.91.53,9.09-.71c1.57-.61,21.46-4.06,22.88-6.8s6.8-20.4,6-23.4S61.3,67.75,59.71,72.69Z" class="cls-5"/><path data-cppathid="10030" d="M63.57,69.34s6.06,1.42,5.16,7.49-4.52,23.08-6.24,24.42-24,7.13-24,7.13,3.16-6.24-.54-8.47c4.15-3.12,14.1-7.49,15.37-8.2S57.42,67.47,63.57,69.34Z" class="cls-6"/><path data-cppathid="10031" d="M27.15,101.42c-.63-.44-.3-1.07.75-1.42a4,4,0,0,1,3.05.18c.63.45.3,1.08-.76,1.43a3.92,3.92,0,0,1-3-.19m16.06-1.75a6.83,6.83,0,0,0-5.31-.54c-2.3.65-4.82.71-5.69.1-.5-.35-.46-.92.49-1.72.15-.14.22-.26.2-.38s0-.75,0-.75A28.55,28.55,0,0,0,24,97.45c-4.2,1.3-14,3.89-15.89,7.17-.27.46-.06.93,0,1.42a3.43,3.43,0,0,0,1.45,2.1l.28.21c6.49,4.55,26.55-1.2,33.47-6.72a1.19,1.19,0,0,0,.56-1c0-.34,0-.26,0-.77" class="cls-11"/><g class="cls-16"><g class="cls-17"><path data-cppathid="10032" d="M39.4,106.67a1.54,1.54,0,0,1-.29.15c-.43.15-.94.28-1.41.4a3,3,0,0,1-1.4.08c-1.14-.31-.6-1.09-.22-1.49l0,0a2.09,2.09,0,0,1,2.25-.16c.7.32,1.53.73,1,1.07M29,106.52c-.17-.19-.25-.37-.05-.51a1,1,0,0,1,.21-.1,1.19,1.19,0,0,1,1-.17,2.81,2.81,0,0,1,1.1.65c.52.39,1.61.25,2.09.61s.52.55.21.78l-.16.08a4.83,4.83,0,0,1-2,.27,3.76,3.76,0,0,1-.91-.17c-.5-.13-1-.16-1.51-.25s-1-.38-1-.67a.37.37,0,0,1,.17-.26,2.18,2.18,0,0,1,.89-.26m3.42-5s0,0,0-.06l.13-.08c.33-.16,1.41-.65,1.86-.24a1.12,1.12,0,0,0,1.12.45,1,1,0,0,1,1.09.59l.09.07-.08.1,0,0a1.14,1.14,0,0,1-.33.15.39.39,0,0,1-.18.22,2.47,2.47,0,0,1-1.93.24c-.37-.15-.46-.73-1-.62a2.17,2.17,0,0,1-1.21,0c-.43-.15-.19-.41.12-.63a1.87,1.87,0,0,1,.32-.2m-6.54,4.74a1.26,1.26,0,0,1-.26.13,3.74,3.74,0,0,1-2.28-.09,5.76,5.76,0,0,0-1.79-.1,2.32,2.32,0,0,1-1-.33c-.77-.41-1.18-1-.71-1.34a2.17,2.17,0,0,1,1.2-.24h0l0,0a2.25,2.25,0,0,1,1.63-.14c.91.3.31,1,1.53,1.06a2.94,2.94,0,0,1,1.66.29c.32.3.33.58,0,.79m-7.48-2.06,0,0a1.33,1.33,0,0,1-.64.12,1.2,1.2,0,0,1-.66-.22h-.15c-.15,0-.34,0-.38-.09a.22.22,0,0,1,.06-.33,1,1,0,0,1,.57-.11,1.45,1.45,0,0,1,.35,0h.15c.57.07,1.06.33.72.57m11.92-3.64a1.41,1.41,0,0,1-.93.25,1.27,1.27,0,0,1-.51-.19c-.73-.4-1.42-.1-2.15,0a2,2,0,0,1-1.79-.51c-.22-.34.36-.55-.47-.91-.39-.17-.53-.32-.62-.54s0-.24.14-.33A3.54,3.54,0,0,1,25.5,98a.35.35,0,0,1,.29.08c1.84-.71,2.79.44,4.45.87.9.24.79.76.56,1.1a2.29,2.29,0,0,1-.52.54m-9.11,1.54a3.92,3.92,0,0,1-3,.18c-1.05-.34-1.38-1-.75-1.42a4,4,0,0,1,3-.18c1,.34,1.38,1,.75,1.42m-9.25-6.52c-1.06.74-1,1.85.9,2.56,2.09.79,3.12,1.9,2.25,2.5-.5.36-1.63.54-3.54.41a1.93,1.93,0,0,0-1.25.24c-.86.6.12,2.23,4.29,3.66,5.44,1.87,18.74,7.1,26.07,2.56.11-.07.21-.13.3-.2C47.44,102.81,29,96,15.7,94.87a6,6,0,0,0-3.78.76" class="cls-18"/><path data-cppathid="10033" d="M24,98.38c-.13.09-.19.2-.14.33s.23.37.62.54c.83.36.25.57.47.91a2,2,0,0,0,1.79.51c.73-.1,1.42-.4,2.15,0a1.27,1.27,0,0,0,.51.19,1.41,1.41,0,0,0,.93-.25,2.29,2.29,0,0,0,.52-.54c.23-.34.34-.86-.56-1.1-1.66-.43-2.61-1.58-4.45-.87A.35.35,0,0,0,25.5,98a3.54,3.54,0,0,0-1.55.36" class="cls-14"/><path data-cppathid="10034" d="M19.76,104.58c-.47.33-.06.93.71,1.34a2.32,2.32,0,0,0,1,.33,5.76,5.76,0,0,1,1.79.1,3.74,3.74,0,0,0,2.28.09,1.26,1.26,0,0,0,.26-.13c.3-.21.29-.49,0-.79a2.94,2.94,0,0,0-1.66-.29c-1.22,0-.62-.76-1.53-1.06a2.25,2.25,0,0,0-1.63.14l0,0h0a2.17,2.17,0,0,0-1.2.24" class="cls-19"/><path data-cppathid="10035" d="M16.57,103.75a.22.22,0,0,0-.06.33c0,.08.23.12.38.09H17a1.2,1.2,0,0,0,.66.22,1.33,1.33,0,0,0,.64-.12l0,0c.34-.24-.15-.5-.72-.57h-.15a1.45,1.45,0,0,0-.35,0,1,1,0,0,0-.57.11" class="cls-19"/><path data-cppathid="10036" d="M28.91,106c-.2.14-.12.32.05.51a2.18,2.18,0,0,0-.89.26.37.37,0,0,0-.17.26c0,.29.39.56,1,.67s1,.12,1.51.25a3.76,3.76,0,0,0,.91.17,4.83,4.83,0,0,0,2-.27l.16-.08c.31-.23.13-.53-.21-.78s-1.57-.22-2.09-.61a2.81,2.81,0,0,0-1.1-.65,1.19,1.19,0,0,0-1,.17,1,1,0,0,0-.21.1" class="cls-20"/><path data-cppathid="10037" d="M36.12,105.76l0,0c-.38.4-.92,1.18.22,1.49a3,3,0,0,0,1.4-.08c.47-.12,1-.25,1.41-.4a1.54,1.54,0,0,0,.29-.15c.5-.34-.33-.75-1-1.07a2.09,2.09,0,0,0-2.25.16" class="cls-21"/><path data-cppathid="10038" d="M32.41,101.51s0,0,0,.06a1.87,1.87,0,0,0-.32.2c-.31.22-.55.48-.12.63a2.17,2.17,0,0,0,1.21,0c.53-.11.62.47,1,.62a2.47,2.47,0,0,0,1.93-.24.39.39,0,0,0,.18-.22,1.14,1.14,0,0,0,.33-.15l0,0,.08-.1-.09-.07a1,1,0,0,0-1.09-.59,1.12,1.12,0,0,1-1.12-.45c-.45-.41-1.53.08-1.86.24l-.13.08" class="cls-22"/></g></g><path data-cppathid="10039" d="M30.85,99.58c-.4-.61-1.21-4-2.35-3.5s-2,4-.34,4.85a2.38,2.38,0,0,0,2.9-.68Z" class="cls-5"/><path data-cppathid="10040" d="M40.83,87.7c0,.24.37.39.58.39a3.58,3.58,0,0,0,3.21-1.41,1.51,1.51,0,0,0,.16-1.26c-.28-.66,1.54-1.12,1.95-1.32s2.58-1,2.32-1.87-1-1.06-1.74-1.26c.69-.87,1.5-1.49,1.29-2.72a1.06,1.06,0,0,0-.43-.58,4.08,4.08,0,0,1-1.37-1.76c-.91-1.5-2.11-1.6-3.6-.87-.25-.24-.85-.31-.93,0-.57,2.33-.59,4.69-1,7A16.18,16.18,0,0,0,40.83,87.7Z" class="cls-14"/><path data-cppathid="10041" d="M65.14,107.66c1.22,2.56,5.48.23,6.09,3.33s2.33,1.93,4.79,2.07c.25,0,.65-.06.59-.39-.93-5.68-3.44-11-3.85-16.73a.37.37,0,0,0-.08-.18c.18-.33-.47-.71-.83-.48-1.38.87-2.66,1.26-3.33,2.84s1.23,2.66-.48,4.25C66.71,103.61,64.08,105.44,65.14,107.66Z" class="cls-14"/><path data-cppathid="10042" d="M59.77,111.06a1.6,1.6,0,0,0,2.39.84,3.47,3.47,0,0,0,1.44-2.21c.11-1.18-1.41-1.15-2.19-.9A2.16,2.16,0,0,0,59.77,111.06Z" class="cls-14"/><path data-cppathid="10043" d="M54,90.42c.94.21,2.78,1,3.17-.45s-.26-2.66.71-3.89a6.34,6.34,0,0,0,.87-1.46c.82-2,2-6.07-1.38-6-.25-.22-.82-.29-.93,0A115.58,115.58,0,0,0,53.58,90C53.52,90.19,53.82,90.37,54,90.42Z" class="cls-14"/><path data-cppathid="10044" d="M25.74,85.27c.16,0,.39-.16.35-.35a3.56,3.56,0,0,1,0-1.34,1.09,1.09,0,0,0,.95-.36,2.32,2.32,0,0,0,.16-1.61,5.61,5.61,0,0,0,.72-1,3.66,3.66,0,0,0,0-3,2.77,2.77,0,0,0-1.58-2.15.5.5,0,0,0-.68.12c-.26,0-.48.08-.44.34.16,1-.55,4.35-1,7C24,84.3,24.56,85.35,25.74,85.27Zm.48-7.8a7.69,7.69,0,0,1-.13,1.26l-.07,0,.09-.69C26.15,77.83,26.18,77.65,26.22,77.47Z" class="cls-14"/><path data-cppathid="10045" d="M34.38,4.32a7.71,7.71,0,0,1,1.18-1C39,.83,44.2.47,47,.47c.41,0,.82,0,1.21,0a29.29,29.29,0,0,1,7.64,1.23l-.18.17c.32-.07,1,.22.86.43a5.11,5.11,0,0,1-2.12,1.77c-1.47.55-2.72-.66-4.33.15-.39.19-.76.38-1.13.53l-.12.16a7.51,7.51,0,0,1-2.93.86,8.55,8.55,0,0,1-1.24-.13c0,.09-.14.15-.4.1C42.73,5.46,41,4.62,39.38,5a20.71,20.71,0,0,1-2.47.48c-.64.06-2.38,0-1.81-1l-.2-.19Z" class="cls-14"/><path data-cppathid="10046" d="M39.12,6.88c.19,0,.5.27.42.51s-.08.18-.12.28l.22.32a.31.31,0,0,1-.14.51,12.42,12.42,0,0,0-1.77,1c-.55.28-1.5.5-1.84-.22C35.1,7.61,37.91,6.65,39.12,6.88Z" class="cls-14"/></g></g></g></svg>