<?xml version="1.0" encoding="UTF-8"?>
<svg xmlns="http://www.w3.org/2000/svg" onmouseup="{ if(window.parent.document.onmouseup) window.parent.document.onmouseup(arguments[0]);}" viewBox="0 0 468.16 346.19"><defs><style>.cls-1{fill:#d7d7d7;opacity:0.38;}.cls-2{fill:#6b6b6b;}.cls-3{fill:#50a1d3;}.cls-4{fill:#fff;}.cls-5{fill:#1d739e;}</style></defs><g data-name="Layer 2" id="Layer_2"><g data-name="sprint planning 2" id="sprint_planning_2"><g data-name="Sprint Backlog" id="Sprint_Backlog"><path data-cppathid="10000" transform="translate(0 -0.28)" d="M468.16,337.93c0,4.72-5,8.55-11.12,8.55H11.12C5,346.48,0,342.65,0,337.93V52.12c0-4.72,5-8.54,11.12-8.54H457c6.14,0,11.12,3.82,11.12,8.54Z" class="cls-1"/><path data-cppathid="10001" transform="translate(0 -0.28)" d="M143.91,4.31h12.85l.28-.09,1.59,1.59-2.53,4.41a24.15,24.15,0,0,1-1.59,2.25c1.93,1.87,3.28,3.22,4,4q.75.75,3.28,3.84L159.66,22a29.88,29.88,0,0,0-2.25-3.09c-1.5-1.75-2.94-3.32-4.31-4.69a37.39,37.39,0,0,1-4.69,4.41,29.42,29.42,0,0,1-5.25,3.18,12.11,12.11,0,0,0-.75-1.22,2.36,2.36,0,0,1-.33-.42,1.76,1.76,0,0,0-.61-.51,29.37,29.37,0,0,0,8.07-5,35.48,35.48,0,0,0,6-8.25H143.91Z" class="cls-2"/><path data-cppathid="10002" transform="translate(0 -0.28)" d="M164.07,4.78h15.56l.28-.19,1.69,1.6a39.67,39.67,0,0,1-3.19,7.4,20.1,20.1,0,0,1-4.12,4.79,25.33,25.33,0,0,1-7.5,4,7.46,7.46,0,0,0-.57-1.22,1.8,1.8,0,0,0-.28-.42,6.43,6.43,0,0,0-.56-.61,25.7,25.7,0,0,0,5.06-2.07,15.16,15.16,0,0,0,3.47-2.62,19,19,0,0,0,2.72-3.66A49.8,49.8,0,0,0,178.69,7H164.07ZM182.35.28a2.53,2.53,0,0,1,1.87.75A2.43,2.43,0,0,1,185,2.81a2.56,2.56,0,0,1-2.62,2.63,2.43,2.43,0,0,1-1.78-.75,2.56,2.56,0,0,1-.75-1.88A2.43,2.43,0,0,1,180.57,1,2.43,2.43,0,0,1,182.35.28Zm0,1.22a1.17,1.17,0,0,0-.84.38,1.31,1.31,0,0,0-.47.93,1.31,1.31,0,0,0,.47.94,1.16,1.16,0,0,0,.84.37,1.28,1.28,0,0,0,.94-.37,1.27,1.27,0,0,0,.37-.94,1.24,1.24,0,0,0-.37-.93A1.29,1.29,0,0,0,182.35,1.5Z" class="cls-2"/><path data-cppathid="10003" transform="translate(0 -0.28)" d="M186.76,15.19V3.38h2.53V15.19Zm3.09,7.59a10.13,10.13,0,0,0-1.22-2.25,19.82,19.82,0,0,0,3.84-1.31,5.92,5.92,0,0,0,2.25-1.69,5.46,5.46,0,0,0,1.41-2.25A24.4,24.4,0,0,0,196.6,10V2.34H199v8.35c0,3.37-.6,5.94-1.78,7.69S193.54,21.66,189.85,22.78Z" class="cls-2"/><path data-cppathid="10004" transform="translate(0 -0.28)" d="M219.1,7.12a4.83,4.83,0,0,0,.75.94,4.07,4.07,0,0,0,1,.85,51.64,51.64,0,0,1-4.78,5.25,44.28,44.28,0,0,1-5.34,4.12,66.68,66.68,0,0,1-7.32,3.84l-1.31-2.62a26.87,26.87,0,0,0,4.69-1.88,41.59,41.59,0,0,0,4.59-2.71,35.42,35.42,0,0,0,3.94-3.38A35.82,35.82,0,0,0,219.1,7.12Zm-9.75.1-1.69,2c-1.37-1.25-2.31-2.07-2.81-2.44a4.86,4.86,0,0,0-.66-.52l-1-.7-.94-.65L203.72,3a20.42,20.42,0,0,1,1.83,1.12l1.08.76A35.82,35.82,0,0,1,209.35,7.22Z" class="cls-2"/><path data-cppathid="10005" transform="translate(0 -0.28)" d="M223.6,22.69V1.88h2.62V8.53q4.23,1.5,5.44,2.06,1,.48,4.78,2.44L235,15.38q-2.16-1.41-4.5-2.63a35.28,35.28,0,0,0-4.32-1.69V22.69Z" class="cls-2"/><path data-cppathid="10006" transform="translate(0 -0.28)" d="M239.72,20.91a6.33,6.33,0,0,0-1.78-1.69q1.88-2.34,2.72-3.56a20.08,20.08,0,0,0,2.16-3.94,43.49,43.49,0,0,0,2-6.19l2.53.85A49.2,49.2,0,0,1,243.94,15,27.66,27.66,0,0,1,239.72,20.91ZM250.41,6.09l2-1.12a74.53,74.53,0,0,1,4.22,7.12,30.75,30.75,0,0,1,1.69,3.66l1.12,3.37-2.44,1c-.5-1.94-1-3.5-1.4-4.69a28.74,28.74,0,0,0-1.69-3.38c-.19-.37-.66-1.23-1.41-2.57S251,7,250.41,6.09Zm7.31.47L256.6,7.69,254,5.16,255.1,4a11.43,11.43,0,0,1,1.36,1.13A10.09,10.09,0,0,1,257.72,6.56Zm-1.59-3.37L257.26,2a28,28,0,0,1,2.62,2.34l-1.12,1.22A28.64,28.64,0,0,0,256.13,3.19Z" class="cls-2"/><path data-cppathid="10007" transform="translate(0 -0.28)" d="M261.57,10l1.78-.94c.31.63.67,1.3,1.08,2s.83,1.51,1.26,2.39l-1.87.94A32.39,32.39,0,0,0,261.57,10ZM265,23.44a5.38,5.38,0,0,0-1.13-1.88,20.56,20.56,0,0,0,5.25-2.44,12.13,12.13,0,0,0,3.28-3.56,31,31,0,0,0,2.63-7.12l2.15.75a42.76,42.76,0,0,1-2.62,6.75,14.48,14.48,0,0,1-3.19,3.94A17.72,17.72,0,0,1,265,23.44Zm1.31-14.82,1.87-.84q1.32,2.82,2,4.5l-1.78.84A38.55,38.55,0,0,0,266.35,8.62Z" class="cls-2"/><path data-cppathid="10008" transform="translate(0 -0.28)" d="M289.6,3,288,6h7l.37-.19,1.5,1.6c-1.44,3.31-2.34,5.28-2.72,5.9a15.16,15.16,0,0,1-2.62,3.47,17.82,17.82,0,0,1-3.94,3.1A31.18,31.18,0,0,1,282,22.22a6.41,6.41,0,0,0-1.41-2.16,33.49,33.49,0,0,0,5-1.78,13.09,13.09,0,0,0,3.65-2.53,17.76,17.76,0,0,0,2.72-3.37,37.9,37.9,0,0,0,2-4.41H287a29.58,29.58,0,0,1-2.71,3.65,21.66,21.66,0,0,1-3.19,3.1,8.58,8.58,0,0,0-.66-.75,4.5,4.5,0,0,0-1.12-.85,20.37,20.37,0,0,0,2.53-2.24c.5-.57,1.19-1.41,2.06-2.54a28.25,28.25,0,0,0,1.88-3.28,23,23,0,0,0,1.31-3Z" class="cls-2"/><path data-cppathid="10009" transform="translate(0 -0.28)" d="M300,20.81V4.59h15.93v16h-2.53v-1.5H302.54v1.69ZM313.41,17V6.75H302.54V17Z" class="cls-2"/><path data-cppathid="10010" transform="translate(0 -0.28)" d="M327.85,6.19h6.94l.37-.1,1.5,1.41a38.08,38.08,0,0,1-2.81,6.19,18.85,18.85,0,0,1-2.91,3.75,21.13,21.13,0,0,1-4,2.9,19.36,19.36,0,0,1-5.15,2.16,7,7,0,0,1-.38-.94l-1-1.22a27.62,27.62,0,0,0,4.87-1.68,13.17,13.17,0,0,0,3.66-2.54,15.93,15.93,0,0,0,2.81-3.28q1-2.05,2.07-4.68h-6.94A31.88,31.88,0,0,1,321,15c-.38-.5-.66-.78-.85-.84a11.06,11.06,0,0,0-1.22-.75A24.32,24.32,0,0,0,323.35,9a38.26,38.26,0,0,0,3.47-6.56l2.44.94c-.07.12-.13.23-.19.32s-.16.27-.28.52-.25.51-.38.8S328.1,5.69,327.85,6.19Zm6.66-1.88,1.12-1.12c1.31,1.12,2.19,1.9,2.63,2.34l-1.13,1.13C336.69,6.22,335.82,5.44,334.51,4.31Zm6-.93-1.32,1.21c-1.37-1.37-2.22-2.18-2.53-2.43l1-1.13C339.13,2.16,340.07,2.94,340.51,3.38Z" class="cls-2"/><rect data-cppathid="10011" rx="5.67" height="42.85" width="171" y="135.54" x="21.19" class="cls-3"/><rect data-cppathid="10012" rx="5.67" height="42.85" width="171" y="87.78" x="21.19" class="cls-3"/><rect data-cppathid="10013" rx="5.67" height="42.85" width="171" y="183.31" x="21.19" class="cls-3"/><rect data-cppathid="10014" rx="5.67" height="42.85" width="171" y="231.08" x="21.19" class="cls-3"/><path data-cppathid="10015" transform="translate(0 -0.28)" d="M31.36,99.21H39l.07,0,.82.63a.31.31,0,0,1-.14.11c-1,4.51-3.06,6.86-6.73,8.25a4.74,4.74,0,0,0-.54-.71A9.06,9.06,0,0,0,38.74,100H31.36Zm9.13-2.15a1.32,1.32,0,1,1-1.32,1.32A1.32,1.32,0,0,1,40.49,97.06Zm.92,1.32a.92.92,0,1,0-1.84,0,.92.92,0,1,0,1.84,0Z" class="cls-4"/><path data-cppathid="10016" transform="translate(0 -0.28)" d="M51.74,99.4v7.92h-.87v-.76h-6.6v.78h-.84V99.4Zm-.87,6.36v-5.55h-6.6v5.55Z" class="cls-4"/><path data-cppathid="10017" transform="translate(0 -0.28)" d="M62.66,99.85c0,.07-.07.09-.15.13a16,16,0,0,1-1.73,4c.51.3,1.15.67,1.59,1l-.5.78a15.7,15.7,0,0,0-1.6-1,11,11,0,0,1-4.3,3.6,2.47,2.47,0,0,0-.65-.64,10.84,10.84,0,0,0,4.21-3.39A18.55,18.55,0,0,0,56.84,103l.47-.66A22.86,22.86,0,0,1,60,103.54a12.52,12.52,0,0,0,1.44-3.18h-4a12.37,12.37,0,0,1-2.7,3.28,5.26,5.26,0,0,0-.67-.54,12.15,12.15,0,0,0,3.66-5.35l1.12.32a.32.32,0,0,1-.34.16A13.09,13.09,0,0,1,58,99.56h3.88l.11,0Zm-1.11-2.39a8.69,8.69,0,0,1,1.6,1.68l-.46.37a9.45,9.45,0,0,0-1.57-1.68ZM63.09,97a9.75,9.75,0,0,1,1.63,1.65l-.47.36a8.69,8.69,0,0,0-1.58-1.64Z" class="cls-4"/><path data-cppathid="10018" transform="translate(0 -0.28)" d="M74.09,100a.59.59,0,0,1-.18.17c-1.25,3.88-3.22,6.38-6.53,8.06a3.13,3.13,0,0,0-.61-.66,11.32,11.32,0,0,0,6.08-7.1H68.57a12.52,12.52,0,0,1-2.69,3,4.29,4.29,0,0,0-.68-.55A12.17,12.17,0,0,0,69,97.71l1.14.33c0,.12-.19.15-.35.15A16.42,16.42,0,0,1,69,99.7h4.23l.14-.07Z" class="cls-4"/><path data-cppathid="10019" transform="translate(0 -0.28)" d="M82.65,104.14a41.29,41.29,0,0,0-4.21-2v6h-.9V97.76l1.21.07c0,.13-.1.22-.31.25v3.5l.18-.25a43,43,0,0,1,4.51,2Z" class="cls-4"/><path data-cppathid="10020" transform="translate(0 -0.28)" d="M88.94,99.63c0,.1-.13.17-.31.18a18,18,0,0,1-2.88,7.69,3.24,3.24,0,0,0-.8-.43,16.38,16.38,0,0,0,2.78-7.69Zm6,7.8a40.06,40.06,0,0,0-3.19-7.73l.78-.37a38.43,38.43,0,0,1,3.29,7.75Zm-1.73-9.65a8.78,8.78,0,0,1,1.46,1.78l-.46.33a9.35,9.35,0,0,0-1.46-1.77Zm1.58-.62a9.41,9.41,0,0,1,1.47,1.76l-.46.35a9.35,9.35,0,0,0-1.47-1.76Z" class="cls-4"/><path data-cppathid="10021" transform="translate(0 -0.28)" d="M98.54,101a13,13,0,0,1,.9,2.58l-.67.18a13.12,13.12,0,0,0-.88-2.55Zm7.16.09c0,.11-.14.13-.25.12-.93,3.5-2.7,5.65-5.6,6.82a3.35,3.35,0,0,0-.47-.55c2.87-1.13,4.51-3.09,5.39-6.67Zm-4.24-.66a16,16,0,0,1,.56,2.72l-.71.13a14.6,14.6,0,0,0-.56-2.7Z" class="cls-4"/><path data-cppathid="10022" transform="translate(0 -0.28)" d="M116.1,100a1,1,0,0,1-.18.17c-1.26,3.88-3.23,6.38-6.54,8.06a2.88,2.88,0,0,0-.61-.66,11.32,11.32,0,0,0,6.08-7.1h-4.28a12.52,12.52,0,0,1-2.69,3,4.29,4.29,0,0,0-.68-.55A12.17,12.17,0,0,0,111,97.71l1.14.33c0,.12-.19.15-.35.15-.24.53-.49,1-.76,1.51h4.22l.14-.07Z" class="cls-4"/><path data-cppathid="10023" transform="translate(0 -0.28)" d="M126.86,99.4v7.92H126v-.76h-6.61v.78h-.84V99.4Zm-.86,6.36v-5.55h-6.61v5.55Z" class="cls-4"/><path data-cppathid="10024" transform="translate(0 -0.28)" d="M137.75,100.15a.58.58,0,0,1-.17.18c-1.28,4-3.24,6.36-6.49,8a3.39,3.39,0,0,0-.61-.66,11.11,11.11,0,0,0,6-7.06h-4.24a11.79,11.79,0,0,1-2.65,2.92A3.76,3.76,0,0,0,129,103a11.9,11.9,0,0,0,3.8-5.25l1.13.31c0,.12-.18.17-.33.16a16.85,16.85,0,0,1-.8,1.59h4.18l.14-.07Zm-1.48-2.76a8.88,8.88,0,0,1,1.57,1.7l-.44.38a8.55,8.55,0,0,0-1.55-1.7ZM138,97a8.88,8.88,0,0,1,1.57,1.7l-.45.37a8.67,8.67,0,0,0-1.54-1.69Z" class="cls-4"/><path data-cppathid="10025" transform="translate(0 -0.28)" d="M150.21,98.85c0,.05-.09.08-.15.11a10.28,10.28,0,0,1-2.85,3.84,4.7,4.7,0,0,0-.73-.5,7.26,7.26,0,0,0,2.39-3h-8.59v-.82h9l.14-.05ZM145.53,101c0,.1-.12.18-.27.21-.35,2.83-1.32,5.53-3.79,7a6,6,0,0,0-.71-.55c2.45-1.34,3.32-3.85,3.61-6.74Z" class="cls-4"/><path data-cppathid="10026" transform="translate(0 -0.28)" d="M160,98.53a.27.27,0,0,1-.23.09h-.12a29.63,29.63,0,0,1-3.42,2.87,1.63,1.63,0,0,1,.29.13.34.34,0,0,1-.27.16v6.44h-.87V102a35.33,35.33,0,0,1-4.57,2.68,4.09,4.09,0,0,0-.5-.66,30.7,30.7,0,0,0,8.79-6.2Z" class="cls-4"/><path data-cppathid="10027" transform="translate(0 -0.28)" d="M171,102.47h-4l.2.06c0,.07-.11.13-.24.15a6.51,6.51,0,0,1-3.7,5.48,6.33,6.33,0,0,0-.65-.6,5.69,5.69,0,0,0,3.46-5.09h-4.66v-.8H171Zm-1.19-3.38h-7.36v-.8h7.36Z" class="cls-4"/><path data-cppathid="10028" transform="translate(0 -0.28)" d="M181.63,107.89c-.18-.4-.4-.84-.64-1.27-2.49.27-6.6.52-8.43.61a.33.33,0,0,1-.23.24l-.32-1.08,1.26,0c.79-2.31,1.93-5.89,2.59-8.29l1.16.31a.35.35,0,0,1-.35.17c-.66,2.21-1.69,5.42-2.52,7.77,2-.08,4.84-.29,6.42-.43a20.83,20.83,0,0,0-2.13-2.93l.72-.41a24.51,24.51,0,0,1,3.31,5Z" class="cls-4"/><path data-cppathid="10029" transform="translate(0 -0.28)" d="M98.08,114.47a7.61,7.61,0,0,0,0,11v.06h-.72a7.94,7.94,0,0,1,0-11.16h.72Z" class="cls-4"/><path data-cppathid="10030" transform="translate(0 -0.28)" d="M99.29,115.53a11.18,11.18,0,0,1,2.07-.18c3,0,3.19,1.89,3.19,2.61,0,2.15-1.71,2.92-3.33,2.92a3.9,3.9,0,0,1-.94-.09v3.76h-1Zm1,4.43a3.33,3.33,0,0,0,1,.1c1.44,0,2.32-.72,2.32-2s-.94-1.88-2.19-1.88a5.13,5.13,0,0,0-1.09.1Z" class="cls-4"/><path data-cppathid="10031" transform="translate(0 -0.28)" d="M109.64,119.65a2.34,2.34,0,0,1,1.88,2.3,2.38,2.38,0,0,1-.73,1.8,4.11,4.11,0,0,1-3,.87,14.74,14.74,0,0,1-1.69-.1v-9a9.7,9.7,0,0,1,2-.19,3.55,3.55,0,0,1,2.42.67,2,2,0,0,1,.68,1.58,2.19,2.19,0,0,1-1.55,2Zm-1.45-.33c1.21,0,2-.7,2-1.63v0c0-1.08-.79-1.54-2-1.54a4.31,4.31,0,0,0-1,.08v3.11Zm-1.07,4.45a6,6,0,0,0,1,.06c1.26,0,2.39-.5,2.39-1.88s-1.19-1.87-2.4-1.87h-1Z" class="cls-4"/><path data-cppathid="10032" transform="translate(0 -0.28)" d="M113.09,115.41h1v9.14h-1Z" class="cls-4"/><path data-cppathid="10033" transform="translate(0 -0.28)" d="M115.3,125.51a7.61,7.61,0,0,0,0-11v-.06H116a7.94,7.94,0,0,1,0,11.16h-.72Z" class="cls-4"/><path data-cppathid="10034" transform="translate(0 -0.28)" d="M29.75,144.41h7.63l.07,0,.81.63a.27.27,0,0,1-.14.11c-1,4.51-3.06,6.86-6.73,8.25a4.74,4.74,0,0,0-.54-.71,9.07,9.07,0,0,0,6.29-7.41H29.75Zm9.14-2.15a1.32,1.32,0,1,1-1.32,1.32A1.32,1.32,0,0,1,38.89,142.26Zm.91,1.32a.92.92,0,0,0-.91-.92.93.93,0,1,0,.91.92Z" class="cls-4"/><path data-cppathid="10035" transform="translate(0 -0.28)" d="M50.13,144.6v7.92h-.86v-.76H42.66v.78h-.84V144.6ZM49.27,151v-5.55H42.66V151Z" class="cls-4"/><path data-cppathid="10036" transform="translate(0 -0.28)" d="M61.05,145.05c0,.07-.07.09-.14.13a16,16,0,0,1-1.74,4c.51.3,1.15.67,1.59,1l-.5.78a15.7,15.7,0,0,0-1.6-1,11,11,0,0,1-4.3,3.6,2.33,2.33,0,0,0-.65-.64,10.84,10.84,0,0,0,4.21-3.39,19,19,0,0,0-2.68-1.26l.46-.66a23,23,0,0,1,2.73,1.22,12.49,12.49,0,0,0,1.43-3.18h-4a12.77,12.77,0,0,1-2.7,3.28,6.07,6.07,0,0,0-.67-.54A12.05,12.05,0,0,0,56.19,143l1.12.32a.31.31,0,0,1-.34.16,11.23,11.23,0,0,1-.61,1.33h3.89l.11,0ZM60,142.66a8.94,8.94,0,0,1,1.59,1.68l-.45.37A10.24,10.24,0,0,0,59.52,143Zm1.53-.44a9.82,9.82,0,0,1,1.64,1.65l-.47.36a9.08,9.08,0,0,0-1.59-1.64Z" class="cls-4"/><path data-cppathid="10037" transform="translate(0 -0.28)" d="M72.49,145.24a1,1,0,0,1-.18.17c-1.26,3.88-3.23,6.38-6.54,8.06a2.88,2.88,0,0,0-.61-.66,11.32,11.32,0,0,0,6.08-7.1H67a12.52,12.52,0,0,1-2.69,3,4.29,4.29,0,0,0-.68-.55,12.17,12.17,0,0,0,3.82-5.21l1.14.32c0,.12-.19.16-.34.16-.24.53-.5,1-.77,1.51h4.22l.14-.07Z" class="cls-4"/><path data-cppathid="10038" transform="translate(0 -0.28)" d="M81,149.34a41.29,41.29,0,0,0-4.21-2v6h-.89V143l1.21.07c0,.13-.11.22-.32.25v3.5l.18-.25a41.26,41.26,0,0,1,4.51,2Z" class="cls-4"/><path data-cppathid="10039" transform="translate(0 -0.28)" d="M87.34,144.83A.33.33,0,0,1,87,145a18.18,18.18,0,0,1-2.87,7.69,3.3,3.3,0,0,0-.81-.43c1.35-1.63,2.4-4.68,2.78-7.69Zm6,7.8a41.37,41.37,0,0,0-3.19-7.73l.78-.37a38.39,38.39,0,0,1,3.28,7.75ZM91.63,143a8.72,8.72,0,0,1,1.46,1.78l-.45.33a9.41,9.41,0,0,0-1.47-1.77Zm1.58-.62a9.88,9.88,0,0,1,1.48,1.76l-.47.35a9.68,9.68,0,0,0-1.46-1.76Z" class="cls-4"/><path data-cppathid="10040" transform="translate(0 -0.28)" d="M96.94,146.17a13.47,13.47,0,0,1,.9,2.58l-.68.18a13.28,13.28,0,0,0-.87-2.55Zm7.16.09c0,.11-.15.13-.26.12-.93,3.5-2.69,5.65-5.6,6.82a3.27,3.27,0,0,0-.46-.55c2.86-1.13,4.5-3.09,5.38-6.67Zm-4.25-.66a16,16,0,0,1,.56,2.72l-.7.13a14.82,14.82,0,0,0-.57-2.7Z" class="cls-4"/><path data-cppathid="10041" transform="translate(0 -0.28)" d="M114.49,145.24a1,1,0,0,1-.18.17c-1.26,3.88-3.23,6.38-6.54,8.06a2.88,2.88,0,0,0-.61-.66,11.29,11.29,0,0,0,6.08-7.1H109a12.52,12.52,0,0,1-2.69,3,3.88,3.88,0,0,0-.68-.55,12.27,12.27,0,0,0,3.83-5.21l1.14.32a.35.35,0,0,1-.35.16,16.42,16.42,0,0,1-.77,1.51h4.22l.15-.07Z" class="cls-4"/><path data-cppathid="10042" transform="translate(0 -0.28)" d="M125.25,144.6v7.92h-.86v-.76h-6.61v.78h-.84V144.6Zm-.86,6.36v-5.55h-6.61V151Z" class="cls-4"/><path data-cppathid="10043" transform="translate(0 -0.28)" d="M136.15,145.35a.77.77,0,0,1-.18.18c-1.27,4-3.24,6.36-6.49,8a2.86,2.86,0,0,0-.61-.66,11.11,11.11,0,0,0,6-7.06h-4.23a12.38,12.38,0,0,1-2.65,2.92,4.64,4.64,0,0,0-.67-.54,12,12,0,0,0,3.8-5.25l1.13.31a.32.32,0,0,1-.34.16c-.24.54-.52,1.11-.79,1.59h4.17l.14-.07Zm-1.49-2.76a8.57,8.57,0,0,1,1.57,1.7l-.44.38a8.55,8.55,0,0,0-1.55-1.7Zm1.74-.35a8.88,8.88,0,0,1,1.57,1.7l-.44.37a8.73,8.73,0,0,0-1.55-1.69Z" class="cls-4"/><path data-cppathid="10044" transform="translate(0 -0.28)" d="M148.6,144.05s-.09.08-.15.11a10.45,10.45,0,0,1-2.84,3.84,4.8,4.8,0,0,0-.74-.5,7.1,7.1,0,0,0,2.39-3h-8.59v-.82h9.05l.13-.06Zm-4.67,2.18c0,.1-.12.18-.28.21-.35,2.83-1.32,5.53-3.79,6.95a6,6,0,0,0-.71-.55c2.45-1.34,3.33-3.85,3.61-6.74Z" class="cls-4"/><path data-cppathid="10045" transform="translate(0 -0.28)" d="M158.36,143.73a.27.27,0,0,1-.23.09H158a28,28,0,0,1-3.42,2.87,1.63,1.63,0,0,1,.29.13.32.32,0,0,1-.26.16v6.44h-.88v-6.17a34.66,34.66,0,0,1-4.57,2.68,3.58,3.58,0,0,0-.5-.66,30.7,30.7,0,0,0,8.79-6.2Z" class="cls-4"/><path data-cppathid="10046" transform="translate(0 -0.28)" d="M169.38,147.67h-4.06l.21.06a.29.29,0,0,1-.24.15,6.52,6.52,0,0,1-3.71,5.48,4.76,4.76,0,0,0-.65-.6,5.7,5.7,0,0,0,3.47-5.09h-4.67v-.8h9.65Zm-1.19-3.38h-7.37v-.8h7.37Z" class="cls-4"/><path data-cppathid="10047" transform="translate(0 -0.28)" d="M180,153.09c-.18-.4-.4-.84-.64-1.27-2.49.27-6.59.52-8.43.61a.32.32,0,0,1-.22.24l-.33-1.08,1.26,0c.79-2.31,1.93-5.89,2.59-8.29l1.16.31c0,.11-.16.17-.34.17-.66,2.21-1.69,5.42-2.52,7.77,2-.08,4.83-.29,6.41-.43a20.83,20.83,0,0,0-2.13-2.93l.72-.41a23.7,23.7,0,0,1,3.31,5Z" class="cls-4"/><path data-cppathid="10048" transform="translate(0 -0.28)" d="M96.48,159.67a7.59,7.59,0,0,0,0,11v.06h-.72a7.94,7.94,0,0,1,0-11.16h.72Z" class="cls-4"/><path data-cppathid="10049" transform="translate(0 -0.28)" d="M97.68,160.73a11.3,11.3,0,0,1,2.08-.18c2.95,0,3.19,1.89,3.19,2.61,0,2.15-1.72,2.92-3.34,2.92a3.76,3.76,0,0,1-.93-.09v3.76h-1Zm1,4.43a3.28,3.28,0,0,0,1,.1c1.44,0,2.31-.72,2.31-2s-.93-1.88-2.18-1.88a5,5,0,0,0-1.09.1Z" class="cls-4"/><path data-cppathid="10050" transform="translate(0 -0.28)" d="M108,164.85a2.35,2.35,0,0,1,1.89,2.3,2.38,2.38,0,0,1-.73,1.8,4.13,4.13,0,0,1-3,.87,14.9,14.9,0,0,1-1.69-.1v-9a9.8,9.8,0,0,1,2-.19,3.52,3.52,0,0,1,2.41.67,2,2,0,0,1,.68,1.58,2.19,2.19,0,0,1-1.55,2Zm-1.45-.33c1.22,0,2-.7,2-1.63v0c0-1.08-.8-1.54-2-1.54a4.25,4.25,0,0,0-1,.08v3.11ZM105.52,169a5.89,5.89,0,0,0,1,.06c1.26,0,2.38-.5,2.38-1.88s-1.18-1.87-2.39-1.87h-1Z" class="cls-4"/><path data-cppathid="10051" transform="translate(0 -0.28)" d="M111.48,160.61h1v9.14h-1Z" class="cls-4"/><path data-cppathid="10052" transform="translate(0 -0.28)" d="M113.69,170.71a7.61,7.61,0,0,0,0-11v-.06h.72a7.94,7.94,0,0,1,0,11.16h-.72Z" class="cls-4"/><path data-cppathid="10053" transform="translate(0 -0.28)" d="M31.36,194.27H39l.07,0,.82.62a.31.31,0,0,1-.14.11c-1,4.51-3.06,6.86-6.73,8.25a4.74,4.74,0,0,0-.54-.71,9.06,9.06,0,0,0,6.28-7.41H31.36Zm9.13-2.14a1.31,1.31,0,1,1-1.32,1.31A1.31,1.31,0,0,1,40.49,192.13Zm.92,1.31a.92.92,0,0,0-1.84,0,.92.92,0,1,0,1.84,0Z" class="cls-4"/><path data-cppathid="10054" transform="translate(0 -0.28)" d="M51.74,194.46v7.92h-.87v-.76h-6.6v.78h-.84v-7.94Zm-.87,6.36v-5.55h-6.6v5.55Z" class="cls-4"/><path data-cppathid="10055" transform="translate(0 -0.28)" d="M62.66,194.91c0,.07-.07.09-.15.13a15.82,15.82,0,0,1-1.73,4c.51.3,1.15.67,1.59,1l-.5.78a17.62,17.62,0,0,0-1.6-1,10.92,10.92,0,0,1-4.3,3.6,2.64,2.64,0,0,0-.65-.64,10.75,10.75,0,0,0,4.21-3.39A19.67,19.67,0,0,0,56.84,198l.47-.66A22.86,22.86,0,0,1,60,198.6a12.21,12.21,0,0,0,1.44-3.18h-4a12.22,12.22,0,0,1-2.7,3.28,5.26,5.26,0,0,0-.67-.54,12.15,12.15,0,0,0,3.66-5.35l1.12.32c-.05.14-.2.17-.34.16a13.09,13.09,0,0,1-.61,1.33h3.88l.11,0Zm-1.11-2.39a9.3,9.3,0,0,1,1.6,1.68l-.46.37a9.45,9.45,0,0,0-1.57-1.68Zm1.54-.44a9.75,9.75,0,0,1,1.63,1.65l-.47.36a8.69,8.69,0,0,0-1.58-1.64Z" class="cls-4"/><path data-cppathid="10056" transform="translate(0 -0.28)" d="M74.09,195.1a.59.59,0,0,1-.18.17c-1.25,3.88-3.22,6.38-6.53,8.06a3.13,3.13,0,0,0-.61-.66,11.27,11.27,0,0,0,6.08-7.1H68.57a12.33,12.33,0,0,1-2.69,3,4.29,4.29,0,0,0-.68-.55A12.17,12.17,0,0,0,69,192.77l1.14.33c0,.12-.19.15-.35.15a16.42,16.42,0,0,1-.77,1.51h4.23l.14-.07Z" class="cls-4"/><path data-cppathid="10057" transform="translate(0 -0.28)" d="M82.65,199.2a41.29,41.29,0,0,0-4.21-1.95v6h-.9V192.82l1.21.07c0,.14-.1.22-.31.26v3.5l.18-.25a41,41,0,0,1,4.51,2Z" class="cls-4"/><path data-cppathid="10058" transform="translate(0 -0.28)" d="M88.94,194.69c0,.1-.13.17-.31.18a18,18,0,0,1-2.88,7.69,3.61,3.61,0,0,0-.8-.43,16.38,16.38,0,0,0,2.78-7.69Zm6,7.8a40.06,40.06,0,0,0-3.19-7.73l.78-.37a38.43,38.43,0,0,1,3.29,7.75Zm-1.73-9.64a8.74,8.74,0,0,1,1.46,1.77l-.46.34a9.73,9.73,0,0,0-1.46-1.78Zm1.58-.63A9.74,9.74,0,0,1,96.29,194l-.46.35a9.68,9.68,0,0,0-1.47-1.76Z" class="cls-4"/><path data-cppathid="10059" transform="translate(0 -0.28)" d="M98.54,196a12.74,12.74,0,0,1,.9,2.57l-.67.18a13.35,13.35,0,0,0-.88-2.55Zm7.16.08c0,.11-.14.13-.25.12-.93,3.5-2.7,5.65-5.6,6.82a3.35,3.35,0,0,0-.47-.55c2.87-1.12,4.51-3.09,5.39-6.67Zm-4.24-.66a16,16,0,0,1,.56,2.72l-.71.13a14.5,14.5,0,0,0-.56-2.69Z" class="cls-4"/><path data-cppathid="10060" transform="translate(0 -0.28)" d="M116.1,195.1a1,1,0,0,1-.18.17c-1.26,3.88-3.23,6.38-6.54,8.06a2.88,2.88,0,0,0-.61-.66,11.27,11.27,0,0,0,6.08-7.1h-4.28a12.33,12.33,0,0,1-2.69,3,4.29,4.29,0,0,0-.68-.55,12.17,12.17,0,0,0,3.82-5.21l1.14.33c0,.12-.19.15-.35.15-.24.53-.49,1-.76,1.51h4.22l.14-.07Z" class="cls-4"/><path data-cppathid="10061" transform="translate(0 -0.28)" d="M126.86,194.46v7.92H126v-.76h-6.61v.78h-.84v-7.94Zm-.86,6.36v-5.55h-6.61v5.55Z" class="cls-4"/><path data-cppathid="10062" transform="translate(0 -0.28)" d="M137.75,195.21a.58.58,0,0,1-.17.18c-1.28,4-3.24,6.37-6.49,8a3.39,3.39,0,0,0-.61-.66,11.11,11.11,0,0,0,6-7.06h-4.24a11.79,11.79,0,0,1-2.65,2.92,4.26,4.26,0,0,0-.67-.54,11.85,11.85,0,0,0,3.8-5.25l1.13.31c0,.12-.18.17-.33.16a16.85,16.85,0,0,1-.8,1.59h4.18l.14-.07Zm-1.48-2.76a9.51,9.51,0,0,1,1.57,1.7l-.44.39a8.6,8.6,0,0,0-1.55-1.71Zm1.74-.35a8.92,8.92,0,0,1,1.57,1.71l-.45.37a8.39,8.39,0,0,0-1.54-1.69Z" class="cls-4"/><path data-cppathid="10063" transform="translate(0 -0.28)" d="M150.21,193.91a.25.25,0,0,1-.15.11,10.2,10.2,0,0,1-2.85,3.84,4.65,4.65,0,0,0-.73-.49,7.35,7.35,0,0,0,2.39-3h-8.59v-.81h9l.14-.06Zm-4.68,2.19a.29.29,0,0,1-.27.2c-.35,2.83-1.32,5.53-3.79,7a6.06,6.06,0,0,0-.71-.56c2.45-1.34,3.32-3.85,3.61-6.74Z" class="cls-4"/><path data-cppathid="10064" transform="translate(0 -0.28)" d="M160,193.59a.28.28,0,0,1-.23.1.27.27,0,0,1-.12,0,29.63,29.63,0,0,1-3.42,2.87l.29.13a.34.34,0,0,1-.27.16v6.44h-.87V197.1a35.33,35.33,0,0,1-4.57,2.68,5.21,5.21,0,0,0-.5-.66,30.51,30.51,0,0,0,8.79-6.2Z" class="cls-4"/><path data-cppathid="10065" transform="translate(0 -0.28)" d="M171,197.53h-4l.2.07a.25.25,0,0,1-.24.14,6.51,6.51,0,0,1-3.7,5.48,7.69,7.69,0,0,0-.65-.6,5.69,5.69,0,0,0,3.46-5.09h-4.66v-.8H171Zm-1.19-3.38h-7.36v-.8h7.36Z" class="cls-4"/><path data-cppathid="10066" transform="translate(0 -0.28)" d="M181.63,203c-.18-.41-.4-.84-.64-1.27-2.49.26-6.6.51-8.43.61a.35.35,0,0,1-.23.24l-.32-1.08,1.26-.05c.79-2.3,1.93-5.89,2.59-8.29l1.16.31a.35.35,0,0,1-.35.17c-.66,2.21-1.69,5.42-2.52,7.77,2-.08,4.84-.28,6.42-.43a20.15,20.15,0,0,0-2.13-2.92l.72-.41a24.73,24.73,0,0,1,3.31,5Z" class="cls-4"/><path data-cppathid="10067" transform="translate(0 -0.28)" d="M98.08,209.53a7.61,7.61,0,0,0,0,11v.06h-.72a7.94,7.94,0,0,1,0-11.16h.72Z" class="cls-4"/><path data-cppathid="10068" transform="translate(0 -0.28)" d="M99.29,210.59a11.18,11.18,0,0,1,2.07-.18c3,0,3.19,1.89,3.19,2.61,0,2.15-1.71,2.92-3.33,2.92a3.45,3.45,0,0,1-.94-.09v3.76h-1Zm1,4.44a3.77,3.77,0,0,0,1,.09c1.44,0,2.32-.72,2.32-2s-.94-1.89-2.19-1.89a5.13,5.13,0,0,0-1.09.1Z" class="cls-4"/><path data-cppathid="10069" transform="translate(0 -0.28)" d="M109.64,214.71a2.34,2.34,0,0,1,1.88,2.31,2.42,2.42,0,0,1-.73,1.8,4.11,4.11,0,0,1-3,.86,14.74,14.74,0,0,1-1.69-.1v-9a9.7,9.7,0,0,1,2-.19,3.61,3.61,0,0,1,2.42.67,2,2,0,0,1,.68,1.58,2.19,2.19,0,0,1-1.55,2Zm-1.45-.33c1.21,0,2-.7,2-1.63h0c0-1.08-.79-1.55-2-1.55a5,5,0,0,0-1,.08v3.11Zm-1.07,4.45a5,5,0,0,0,1,.06c1.26,0,2.39-.49,2.39-1.87s-1.19-1.87-2.4-1.87h-1Z" class="cls-4"/><path data-cppathid="10070" transform="translate(0 -0.28)" d="M113.09,210.47h1v9.14h-1Z" class="cls-4"/><path data-cppathid="10071" transform="translate(0 -0.28)" d="M115.3,220.57a7.61,7.61,0,0,0,0-11v-.06H116a7.94,7.94,0,0,1,0,11.16h-.72Z" class="cls-4"/><path data-cppathid="10072" transform="translate(0 -0.28)" d="M32,239.83h7.63l.07,0,.81.62a.27.27,0,0,1-.14.11c-1,4.51-3.06,6.86-6.73,8.25a4.74,4.74,0,0,0-.54-.71,9.07,9.07,0,0,0,6.29-7.41H32Zm9.14-2.14A1.31,1.31,0,1,1,39.85,239,1.31,1.31,0,0,1,41.17,237.69Zm.91,1.32a.92.92,0,0,0-.91-.93.93.93,0,1,0,.91.93Z" class="cls-4"/><path data-cppathid="10073" transform="translate(0 -0.28)" d="M52.41,240v7.92h-.86v-.75H44.94V248H44.1V240Zm-.86,6.36v-5.55H44.94v5.55Z" class="cls-4"/><path data-cppathid="10074" transform="translate(0 -0.28)" d="M63.33,240.47c0,.07-.07.09-.14.13a15.84,15.84,0,0,1-1.74,4c.51.3,1.15.67,1.59,1l-.5.78a18.92,18.92,0,0,0-1.59-1,11,11,0,0,1-4.31,3.6,2.48,2.48,0,0,0-.65-.64,10.75,10.75,0,0,0,4.21-3.39,20.13,20.13,0,0,0-2.68-1.26l.46-.66a23,23,0,0,1,2.73,1.22A12.19,12.19,0,0,0,62.14,241h-4a12.77,12.77,0,0,1-2.7,3.28,6.07,6.07,0,0,0-.67-.54,12.05,12.05,0,0,0,3.65-5.35l1.12.32c-.05.14-.19.17-.34.16a11.23,11.23,0,0,1-.61,1.33h3.89l.11,0Zm-1.1-2.39a9.59,9.59,0,0,1,1.59,1.68l-.45.37a9.83,9.83,0,0,0-1.57-1.68Zm1.53-.44a9.82,9.82,0,0,1,1.64,1.65l-.47.36A9.08,9.08,0,0,0,63.34,238Z" class="cls-4"/><path data-cppathid="10075" transform="translate(0 -0.28)" d="M74.77,240.66a1,1,0,0,1-.18.17c-1.26,3.88-3.23,6.38-6.54,8.06a2.88,2.88,0,0,0-.61-.66,11.27,11.27,0,0,0,6.08-7.1H69.24a12.33,12.33,0,0,1-2.69,3,4.29,4.29,0,0,0-.68-.55,12.27,12.27,0,0,0,3.83-5.21l1.13.33c0,.12-.19.15-.34.15-.24.53-.5,1-.77,1.51h4.22l.14-.07Z" class="cls-4"/><path data-cppathid="10076" transform="translate(0 -0.28)" d="M83.33,244.76a43.38,43.38,0,0,0-4.21-1.95v6h-.9V238.38l1.21.07c0,.14-.11.22-.31.26v3.5l.17-.25a39.41,39.41,0,0,1,4.51,2Z" class="cls-4"/><path data-cppathid="10077" transform="translate(0 -0.28)" d="M89.62,240.25a.33.33,0,0,1-.32.18c-.48,2.88-1.47,5.92-2.87,7.69a3.68,3.68,0,0,0-.81-.43C87,246.06,88,243,88.4,240Zm6,7.8a41.37,41.37,0,0,0-3.19-7.73l.78-.37a38.39,38.39,0,0,1,3.28,7.75Zm-1.74-9.64a8.42,8.42,0,0,1,1.46,1.77l-.45.34a9.79,9.79,0,0,0-1.47-1.78Zm1.58-.63A10.3,10.3,0,0,1,97,239.55l-.47.34A10,10,0,0,0,95,238.13Z" class="cls-4"/><path data-cppathid="10078" transform="translate(0 -0.28)" d="M99.22,241.6a13.38,13.38,0,0,1,.9,2.57l-.68.18a13.28,13.28,0,0,0-.87-2.55Zm7.16.08c0,.11-.15.13-.26.12-.93,3.5-2.69,5.65-5.6,6.82a3.27,3.27,0,0,0-.46-.55c2.86-1.13,4.51-3.09,5.38-6.67Zm-4.25-.66a16.25,16.25,0,0,1,.56,2.72l-.7.13a14.55,14.55,0,0,0-.57-2.69Z" class="cls-4"/><path data-cppathid="10079" transform="translate(0 -0.28)" d="M116.77,240.66a1,1,0,0,1-.18.17c-1.26,3.88-3.23,6.38-6.54,8.06a2.88,2.88,0,0,0-.61-.66,11.27,11.27,0,0,0,6.08-7.1h-4.28a12.33,12.33,0,0,1-2.69,3,3.88,3.88,0,0,0-.68-.55,12.27,12.27,0,0,0,3.83-5.21l1.14.33c0,.12-.2.15-.35.15a15.24,15.24,0,0,1-.77,1.51h4.22l.15-.07Z" class="cls-4"/><path data-cppathid="10080" transform="translate(0 -0.28)" d="M127.53,240v7.92h-.86v-.75h-6.61V248h-.84V240Zm-.86,6.36v-5.55h-6.61v5.55Z" class="cls-4"/><path data-cppathid="10081" transform="translate(0 -0.28)" d="M138.43,240.77a.77.77,0,0,1-.18.18c-1.27,4-3.24,6.37-6.49,8a2.86,2.86,0,0,0-.61-.66,11.11,11.11,0,0,0,6-7.06H133a12,12,0,0,1-2.65,2.92,5.43,5.43,0,0,0-.67-.54,11.92,11.92,0,0,0,3.8-5.25l1.13.31a.32.32,0,0,1-.34.16c-.24.54-.52,1.11-.79,1.59h4.17l.14-.07ZM136.94,238a9.15,9.15,0,0,1,1.57,1.7l-.44.39a8.89,8.89,0,0,0-1.55-1.71Zm1.74-.35a9.18,9.18,0,0,1,1.57,1.7l-.44.38a8.17,8.17,0,0,0-1.55-1.69Z" class="cls-4"/><path data-cppathid="10082" transform="translate(0 -0.28)" d="M150.88,239.47a.25.25,0,0,1-.15.11,10.29,10.29,0,0,1-2.84,3.84,5.17,5.17,0,0,0-.73-.49,7.24,7.24,0,0,0,2.38-3H141v-.81H150l.13-.06Zm-4.67,2.19c0,.09-.12.18-.28.2-.35,2.83-1.32,5.53-3.79,7a6.06,6.06,0,0,0-.71-.56c2.45-1.34,3.33-3.85,3.61-6.74Z" class="cls-4"/><path data-cppathid="10083" transform="translate(0 -0.28)" d="M160.64,239.15a.28.28,0,0,1-.23.1.3.3,0,0,1-.12,0,28,28,0,0,1-3.42,2.87l.29.13a.3.3,0,0,1-.26.16v6.44H156v-6.17a34.66,34.66,0,0,1-4.57,2.68,4.41,4.41,0,0,0-.5-.66,30.51,30.51,0,0,0,8.79-6.2Z" class="cls-4"/><path data-cppathid="10084" transform="translate(0 -0.28)" d="M171.66,243.1H167.6l.21.05a.26.26,0,0,1-.24.15,6.52,6.52,0,0,1-3.71,5.48,5.49,5.49,0,0,0-.65-.6,5.7,5.7,0,0,0,3.47-5.08H162v-.81h9.65Zm-1.19-3.39H163.1v-.8h7.37Z" class="cls-4"/><path data-cppathid="10085" transform="translate(0 -0.28)" d="M182.3,248.52c-.18-.41-.4-.84-.64-1.28-2.49.27-6.59.52-8.43.62a.33.33,0,0,1-.22.24l-.33-1.08,1.26-.05c.79-2.3,1.93-5.89,2.59-8.29l1.17.31a.35.35,0,0,1-.35.17c-.66,2.21-1.69,5.42-2.52,7.77,2-.08,4.83-.28,6.41-.43a20.83,20.83,0,0,0-2.13-2.93l.72-.4a23.65,23.65,0,0,1,3.31,5Z" class="cls-4"/><path data-cppathid="10086" transform="translate(0 -0.28)" d="M98.76,255.09a7.59,7.59,0,0,0,0,11v.06H98A7.94,7.94,0,0,1,98,255h.72Z" class="cls-4"/><path data-cppathid="10087" transform="translate(0 -0.28)" d="M100,256.15A11.3,11.3,0,0,1,102,256c2.95,0,3.19,1.89,3.19,2.61,0,2.15-1.72,2.92-3.34,2.92a3.34,3.34,0,0,1-.93-.09v3.76h-1Zm1,4.44a3.72,3.72,0,0,0,1,.09c1.44,0,2.31-.72,2.31-2s-.93-1.89-2.18-1.89a5,5,0,0,0-1.09.1Z" class="cls-4"/><path data-cppathid="10088" transform="translate(0 -0.28)" d="M110.32,260.27a2.35,2.35,0,0,1,1.88,2.31,2.42,2.42,0,0,1-.73,1.8,4.13,4.13,0,0,1-3,.86,14.9,14.9,0,0,1-1.69-.1v-9a9.88,9.88,0,0,1,2-.19,3.58,3.58,0,0,1,2.41.67,2,2,0,0,1,.68,1.58,2.19,2.19,0,0,1-1.54,2Zm-1.46-.33c1.22,0,2-.7,2-1.63h0c0-1.08-.8-1.55-2-1.55a4.25,4.25,0,0,0-1,.08v3.11Zm-1.06,4.45a5,5,0,0,0,1,.06c1.26,0,2.39-.49,2.39-1.87s-1.19-1.87-2.4-1.87h-1Z" class="cls-4"/><path data-cppathid="10089" transform="translate(0 -0.28)" d="M113.76,256h1v9.14h-1Z" class="cls-4"/><path data-cppathid="10090" transform="translate(0 -0.28)" d="M116,266.13a7.61,7.61,0,0,0,0-11V255h.72a7.94,7.94,0,0,1,0,11.16H116Z" class="cls-4"/><path data-cppathid="10091" transform="translate(0 -0.28)" d="M31,59.14v3.52h7.42v1.72h-7.5a18.4,18.4,0,0,1-.39,3.43A7.33,7.33,0,0,1,29.62,70a12.65,12.65,0,0,1-2.19,2.11,16.74,16.74,0,0,1-3.52,1.72A8.72,8.72,0,0,0,22.66,72a13.24,13.24,0,0,0,3.28-1.33,5.89,5.89,0,0,0,1.8-1.48,7.7,7.7,0,0,0,.94-2,10.5,10.5,0,0,0,.39-2.89H21V62.66h8.05V59.45a51.23,51.23,0,0,1-5.78.79c-.11-.37-.31-1-.63-1.8,2.82-.26,5-.52,6.68-.78a45.74,45.74,0,0,0,5.43-1.25l.94,1.72A25.84,25.84,0,0,1,31,59.14Z" class="cls-5"/><path data-cppathid="10092" transform="translate(0 -0.28)" d="M56.41,65.78H40.55v-2H56.41Z" class="cls-5"/><path data-cppathid="10093" transform="translate(0 -0.28)" d="M66.88,71.49l-8,1.09-.31-2.34,2.19-.16A127,127,0,0,0,66.1,57l2.27.86q-.24.78-3.05,7Q64.38,67,63,70q4.92-.39,8.2-.94c-1-1.51-2.11-3.09-3.36-4.76l1.64-1.1a45.09,45.09,0,0,1,3.28,4.46q.47.78,2.42,4.22l-2,1A10.34,10.34,0,0,0,72,70.63Q70.94,70.86,66.88,71.49Z" class="cls-5"/><path data-cppathid="10094" transform="translate(0 -0.28)" d="M94,59.38l-4.69.39a17.52,17.52,0,0,0-2.57,1.95,9.5,9.5,0,0,0-1.57,2.11,5.77,5.77,0,0,0-.54,2.58,3.79,3.79,0,0,0,1.56,3.2q1.56,1.33,5,1.41l-.08,2a17.79,17.79,0,0,1-4.37-.94,8.87,8.87,0,0,1-2.89-2.26,4.81,4.81,0,0,1-1-3.13,7.3,7.3,0,0,1,.78-3.44,11.71,11.71,0,0,1,2.58-3.2l-4.77.47c-.1,0-1.53.18-4.29.55l-.16-2c3.13-.15,6.35-.41,9.69-.78.2,0,2.63-.28,7.26-.86Zm-4.22,3,1.17-.86,1.25,1.64a3,3,0,0,1,.47.78l-1.17.7C91.44,64.51,90.87,63.75,89.77,62.35Zm2.11-1.41,1.17-.78a5.84,5.84,0,0,1,1,1.13c.39.55.66,1,.82,1.21l-1.17.86C93.52,63.15,92.92,62.35,91.88,60.94Z" class="cls-5"/><path data-cppathid="10095" transform="translate(0 -0.28)" d="M96.41,64.92V63.13h3.91v6.72a6.57,6.57,0,0,0,1.87,1.25,12.36,12.36,0,0,0,2.19.7,12.53,12.53,0,0,0,2.74.23h1.17l5.94-.08a4.29,4.29,0,0,0-.63,1.65l-3.51.07h-1.57a20,20,0,0,1-4-.31,14.77,14.77,0,0,1-2.66-.62,13.59,13.59,0,0,1-1.79-1.1l-3,2.42-1-1.87,2.5-1.56V64.92Zm.86-7.34.94-1.41q.63.31,1.41.75a8,8,0,0,1,1.25.82l-.94,1.56A16.23,16.23,0,0,0,97.27,57.58Zm6.88,6.09V62.58h1.72v1.09h2.65V62.58h1.72v1.09h3.05v1.41h-3.05v1.41h3.83v1.4h-8.91l1,1.17a13.81,13.81,0,0,1-4.06,1.88,4.71,4.71,0,0,0-.94-1.41,5.66,5.66,0,0,1,.7-.23,5.1,5.1,0,0,0,.63-.2l.54-.19c.32-.16.63-.33.94-.51s.63-.35.94-.51h-4.06v-1.4h3.28V65.08h-2.5V63.67Zm-2.89-6.17V56.33h5.15v3.28h-3.59v.94a.46.46,0,0,0,.08.31H103a10.66,10.66,0,0,0,1.79,0h.39a.44.44,0,0,0,.32-.08,3.42,3.42,0,0,0,.31-.7,5.38,5.38,0,0,0,1.4.47,2.32,2.32,0,0,1-.78,1.33,2.71,2.71,0,0,1-1.48.23h-1.17a7.3,7.3,0,0,1-1.64-.08.68.68,0,0,1-.55-.31,1,1,0,0,1-.31-.7V58.6h3.51V57.5Zm7.26,9V65.08h-2.65v1.41Zm-.47-9V56.33h5.24v3.28h-3.75v1.25a.22.22,0,0,0,.15.08H112l.15-.16.24-.78a5.88,5.88,0,0,0,1.72.63,5.34,5.34,0,0,1-.71,1q-.39.39-.54.39a4.57,4.57,0,0,1-1.25.08h-1.33a3.28,3.28,0,0,1-1.88-.31.92.92,0,0,1-.39-.86V58.6h3.52V57.5Zm5.47,12.19a3.56,3.56,0,0,0-.78,1.56,21,21,0,0,1-4.61-1.8l1-1.32A12.32,12.32,0,0,0,113.52,69.69Z" class="cls-5"/><path data-cppathid="10096" transform="translate(0 -0.28)" d="M120.94,65.47a23.18,23.18,0,0,1,2-1.25,3.2,3.2,0,0,1,1.17-.23,2.31,2.31,0,0,1,1.72.62,2.47,2.47,0,0,1,.62,1.8l-.07,3a2.29,2.29,0,0,0,.31,1.49,1,1,0,0,0,.94.39,2.41,2.41,0,0,0,2.1-1.17,10.24,10.24,0,0,0,1.72-5.63,5.08,5.08,0,0,0,2,.47,16,16,0,0,1-2,5.94,4.59,4.59,0,0,1-4.14,2,2.75,2.75,0,0,1-2-.7,2.5,2.5,0,0,1-.78-2l.08-3.59a1.47,1.47,0,0,0-.16-.7.81.81,0,0,0-.62-.24,2.29,2.29,0,0,0-1.17.32,8.31,8.31,0,0,0-2.11,1.56,6,6,0,0,0-1.1,1.56c-.62,1.25-1.25,2.53-1.87,3.83L115.63,72q2.12-3.75,3.36-6.48c1.88-4.11,3.2-7.11,4-9l2,.93-1.41,2.74Q122.43,62.35,120.94,65.47Z" class="cls-5"/><path data-cppathid="10097" transform="translate(0 -0.28)" d="M140.94,56.33l2,.62-.94,3c.94-.15,1.72-.31,2.34-.47a16,16,0,0,0,2-.54l.08,1.87a42,42,0,0,1-4.93.86c-.26.89-.6,1.85-1,2.89s-.81,2.06-1.17,3q-.31.63-2.35,5.7l-1.72-.86q1.34-2.73,2.35-5.23.54-1.41,2-5.39c-.89.05-2,.08-3.36.08v-1.8c.63.05,1.33.08,2.11.08.63,0,1.2,0,1.72-.08.1-.36.25-.9.43-1.6S140.74,57.06,140.94,56.33Zm.63,11.72h1.8a4.21,4.21,0,0,0,.23,1.8,2.88,2.88,0,0,0,1,.85,11.82,11.82,0,0,0,3.59.4,29.46,29.46,0,0,0,4-.32l.08,1.8a32.64,32.64,0,0,1-3.36.23,21.76,21.76,0,0,1-4.61-.39,4.18,4.18,0,0,1-1.64-1,3.29,3.29,0,0,1-.78-1.25C141.73,69.33,141.62,68.62,141.57,68.05Zm6.48-5.94,3.44-.08-.08,1.8c-1.14,0-2.55-.08-4.22-.08l-1.28.08c-.71.05-1.5.16-2.39.31l-.15-1.56C145.35,62.32,146.91,62.16,148.05,62.11Zm3.13-3-1.09,1a13.67,13.67,0,0,0-2.11-2l.93-1c.42.31.82.64,1.21,1S150.87,58.83,151.18,59.14Zm-1.41-2.65.94-1c.57.47,1.33,1.12,2.27,2l-1.1,1A13.47,13.47,0,0,0,149.77,56.49Z" class="cls-5"/><path data-cppathid="10098" transform="translate(0 -0.28)" d="M154.69,59.85V58.2h6.41v1.65h-2.26v8.2l2.5-.7v1.71c-2.3.73-4.51,1.36-6.65,1.88l-.46-1.88,2.81-.54V59.85Zm6.49,14.21a4.6,4.6,0,0,0-.94-1.48c1-.37,1.93-.73,2.81-1.09s1.3-.71,1.57-.86l1,1.32A16.49,16.49,0,0,1,161.18,74.06Zm.31-15.86V56.56h10.7V58.2H167.9l-.55,1.88h4V70.31h-8.83V60.08h3.12c.11-.42.24-1,.39-1.88Zm8,4.85V61.56h-5.23v1.49Zm0,2.73v-1.4h-5.23v1.4Zm0,3V67.19h-5.23v1.64Zm3.2,3.67a4.64,4.64,0,0,0-.93,1.49,22.29,22.29,0,0,1-3.68-2.11l1.1-1.25A25.06,25.06,0,0,0,172.66,72.5Z" class="cls-5"/><path data-cppathid="10099" transform="translate(0 -0.28)" d="M177.35,73.6V57h11.88V73.36h-2V72.27h-8V73.6Zm9.92-12V58.83h-8v2.73Zm0,4.46V63.2h-8V66Zm0,4.61V67.74h-8v2.89Z" class="cls-5"/></g></g></g></svg>