<?xml version="1.0" encoding="UTF-8"?>
<svg xmlns="http://www.w3.org/2000/svg" onmouseup="{ if(window.parent.document.onmouseup) window.parent.document.onmouseup(arguments[0]);}" viewBox="0 0 212.27 283.83" xmlns:xlink="http://www.w3.org/1999/xlink"><defs><style>.cls-1{isolation:isolate;}.cls-10,.cls-11,.cls-12,.cls-13,.cls-14,.cls-15,.cls-17,.cls-18,.cls-19,.cls-2,.cls-20,.cls-21,.cls-22,.cls-23,.cls-24,.cls-25,.cls-26,.cls-27,.cls-28,.cls-29,.cls-3,.cls-30,.cls-31,.cls-32,.cls-33,.cls-4,.cls-6,.cls-7,.cls-8,.cls-9{stroke:#a39d9d;}.cls-2{fill:url(#linear-gradient);}.cls-3{fill:#f9ec93;mix-blend-mode:darken;}.cls-4{fill:url(#linear-gradient-2);}.cls-5{fill:#d16d00;}.cls-6{fill:url(#linear-gradient-3);}.cls-7{fill:url(#linear-gradient-4);}.cls-8{fill:url(#linear-gradient-5);}.cls-9{fill:url(#linear-gradient-6);}.cls-10{fill:url(#linear-gradient-7);}.cls-11{fill:url(#linear-gradient-8);}.cls-12{fill:url(#linear-gradient-9);}.cls-13{fill:url(#linear-gradient-10);}.cls-14{fill:url(#linear-gradient-11);}.cls-15{fill:url(#linear-gradient-12);}.cls-16{fill:#ff1200;}.cls-17{fill:url(#linear-gradient-13);}.cls-18{fill:url(#linear-gradient-14);}.cls-19{fill:url(#linear-gradient-15);}.cls-20{fill:url(#linear-gradient-16);}.cls-21{fill:url(#linear-gradient-17);}.cls-22{fill:url(#linear-gradient-18);}.cls-23{fill:url(#linear-gradient-19);}.cls-24{fill:url(#linear-gradient-20);}.cls-25{fill:url(#linear-gradient-21);}.cls-26{fill:url(#linear-gradient-22);}.cls-27{fill:url(#linear-gradient-23);}.cls-28{fill:url(#linear-gradient-24);}.cls-29{fill:url(#linear-gradient-25);}.cls-30{fill:url(#linear-gradient-26);}.cls-31{fill:url(#linear-gradient-27);}.cls-32{fill:url(#linear-gradient-28);}.cls-33{fill:url(#linear-gradient-29);}</style><linearGradient gradientUnits="userSpaceOnUse" gradientTransform="translate(7.41 41.94) rotate(-8.29)" y2="-8.99" x2="17.43" y1="32.32" x1="17.43" id="linear-gradient"><stop stop-color="#dbdbdb" offset="0"/><stop stop-color="#e8e8e8" offset="0.13"/><stop stop-color="#f9f9f9" offset="0.36"/><stop stop-color="#fff" offset="0.53"/><stop stop-color="#fdfdfd" offset="0.74"/><stop stop-color="#f5f5f5" offset="0.83"/><stop stop-color="#e8e8e8" offset="0.91"/><stop stop-color="#d6d6d6" offset="0.97"/><stop stop-color="#cbcbcb" offset="1"/></linearGradient><linearGradient gradientUnits="userSpaceOnUse" gradientTransform="translate(-5.77 14.51) rotate(-11.71)" y2="53.24" x2="34.75" y1="58.25" x1="36.83" id="linear-gradient-2"><stop stop-color="#dbdbdb" offset="0.02"/><stop stop-color="#e7e7e7" offset="0.23"/><stop stop-color="#fff" offset="0.53"/><stop stop-color="#f8f8f8" offset="0.65"/><stop stop-color="#e5e5e5" offset="0.83"/><stop stop-color="#cbcbcb" offset="1"/></linearGradient><linearGradient xlink:href="#linear-gradient" gradientTransform="translate(-6.41 20.58) rotate(2.69)" y2="2.39" x2="86.49" y1="43.7" x1="86.49" id="linear-gradient-3"/><linearGradient xlink:href="#linear-gradient" gradientTransform="translate(-6.41 20.58) rotate(2.69)" y2="57.75" x2="37.91" y1="99.06" x1="37.91" id="linear-gradient-4"/><linearGradient xlink:href="#linear-gradient" gradientTransform="translate(-3.65 -3.61) rotate(14.67)" y2="61.81" x2="106.63" y1="103.12" x1="106.63" id="linear-gradient-5"/><linearGradient xlink:href="#linear-gradient" y2="94.71" x2="4.26" y1="136.02" x1="4.26" id="linear-gradient-6"/><linearGradient xlink:href="#linear-gradient-2" y2="155.97" x2="15.41" y1="160.98" x1="17.49" id="linear-gradient-7"/><linearGradient xlink:href="#linear-gradient" gradientTransform="translate(-6.41 20.58) rotate(2.69)" y2="106.7" x2="93.32" y1="148.02" x1="93.32" id="linear-gradient-8"/><linearGradient xlink:href="#linear-gradient" gradientTransform="translate(-0.65 35.69) rotate(-3.1)" y2="103.47" x2="126.84" y1="144.78" x1="126.84" id="linear-gradient-9"/><linearGradient xlink:href="#linear-gradient-2" gradientTransform="translate(-11 7.48) rotate(-6.52)" y2="171.7" x2="136.99" y1="176.71" x1="139.07" id="linear-gradient-10"/><linearGradient xlink:href="#linear-gradient" gradientTransform="translate(-0.65 35.69) rotate(-3.1)" y2="51.93" x2="122.47" y1="93.24" x1="122.47" id="linear-gradient-11"/><linearGradient xlink:href="#linear-gradient-2" gradientTransform="translate(-11 7.48) rotate(-6.52)" y2="119.99" x2="135.7" y1="125" x1="137.79" id="linear-gradient-12"/><linearGradient xlink:href="#linear-gradient" y2="144.31" x2="-3.39" y1="185.62" x1="-3.39" id="linear-gradient-13"/><linearGradient xlink:href="#linear-gradient-2" y2="205.03" x2="4.8" y1="210.04" x1="6.89" id="linear-gradient-14"/><linearGradient xlink:href="#linear-gradient" gradientTransform="translate(-6.41 20.58) rotate(2.69)" y2="156.82" x2="96.31" y1="198.13" x1="96.31" id="linear-gradient-15"/><linearGradient xlink:href="#linear-gradient" gradientTransform="translate(-0.65 35.69) rotate(-3.1)" y2="153.63" x2="124.77" y1="194.95" x1="124.77" id="linear-gradient-16"/><linearGradient xlink:href="#linear-gradient-2" gradientTransform="translate(-11 7.48) rotate(-6.52)" y2="221.65" x2="131.92" y1="226.67" x1="134.01" id="linear-gradient-17"/><linearGradient xlink:href="#linear-gradient" gradientTransform="translate(-6.41 20.58) rotate(2.69)" y2="214.11" x2="48.7" y1="255.42" x1="48.7" id="linear-gradient-18"/><linearGradient xlink:href="#linear-gradient" gradientTransform="translate(-3.65 -3.61) rotate(14.67)" y2="212.53" x2="149.63" y1="253.84" x1="149.63" id="linear-gradient-19"/><linearGradient xlink:href="#linear-gradient" gradientTransform="translate(-0.65 35.69) rotate(-3.1)" y2="208.58" x2="117.43" y1="249.9" x1="117.43" id="linear-gradient-20"/><linearGradient xlink:href="#linear-gradient-2" gradientTransform="translate(-11 7.48) rotate(-6.52)" y2="276.07" x2="121.32" y1="281.08" x1="123.41" id="linear-gradient-21"/><linearGradient xlink:href="#linear-gradient" gradientTransform="translate(-0.65 35.69) rotate(-3.1)" y2="-0.74" x2="132.26" y1="40.57" x1="132.26" id="linear-gradient-22"/><linearGradient xlink:href="#linear-gradient-2" gradientTransform="translate(-11 7.48) rotate(-6.52)" y2="68" x2="148.62" y1="73.02" x1="150.7" id="linear-gradient-23"/><linearGradient xlink:href="#linear-gradient" gradientTransform="translate(-3.65 -3.61) rotate(14.67)" y2="-18.68" x2="195.46" y1="22.64" x1="195.46" id="linear-gradient-24"/><linearGradient xlink:href="#linear-gradient" y2="61.45" x2="165.58" y1="102.76" x1="165.58" id="linear-gradient-25"/><linearGradient xlink:href="#linear-gradient-2" y2="132.4" x2="178.43" y1="137.41" x1="180.51" id="linear-gradient-26"/><linearGradient xlink:href="#linear-gradient" gradientTransform="translate(-0.65 35.69) rotate(-3.1)" y2="101.69" x2="176.48" y1="143" x1="176.48" id="linear-gradient-27"/><linearGradient xlink:href="#linear-gradient-2" gradientTransform="translate(-11 7.48) rotate(-6.52)" y2="172.89" x2="186.64" y1="177.9" x1="188.73" id="linear-gradient-28"/><linearGradient xlink:href="#linear-gradient" gradientTransform="translate(-3.65 -3.61) rotate(14.67)" y2="129.69" x2="233.19" y1="171.01" x1="233.19" id="linear-gradient-29"/></defs><g class="cls-1"><g data-name="Layer 2" id="Layer_2"><g data-name="sprint planning 2" id="sprint_planning_2"><g data-name="Sprint Backlog" id="Sprint_Backlog"><g data-name="tasks not started jp copy 2" id="tasks_not_started_jp_copy_2"><path data-cppathid="10000" transform="translate(0 -0.23)" d="M11.1,74.06c-1.09.16-5.11-4.51-6.63-15S.78,33.82.78,33.82L45.55,27.3s1.9,10.28,3.5,21.26c1,7,.11,10.25-5.77,14.66C33.28,70.73,11.1,74.06,11.1,74.06Z" class="cls-2"/><path data-cppathid="10001" transform="translate(0 -0.23)" d="M10.89,74.37c-1.1.16-5.12-4.51-6.64-15L.57,34.12,45.33,27.6s1.91,10.29,3.51,21.26c1,7,.1,10.25-5.77,14.66C33.06,71,10.89,74.37,10.89,74.37Z" class="cls-3"/><path data-cppathid="10002" transform="translate(0 -0.23)" d="M31.41,69.05a13.59,13.59,0,0,0,6.31-4.46,10,10,0,0,0,2.12-5.53,19.32,19.32,0,0,0,6.45-1.34,5.77,5.77,0,0,0,3.34-3.3s-1.27,5.16-5.16,8C39.48,66.13,31.41,69.05,31.41,69.05Z" class="cls-4"/><path data-cppathid="10003" transform="translate(0 -0.23)" d="M31.62,69.05a13.59,13.59,0,0,0,6.32-4.46,10.07,10.07,0,0,0,2.11-5.54,19.46,19.46,0,0,0,6.45-1.33,5.75,5.75,0,0,0,3.34-3.3s-1.27,5.16-5.16,8C39.69,66.13,31.62,69.05,31.62,69.05Z" class="cls-3"/><path data-cppathid="10004" transform="translate(0 -0.23)" d="M9.91,53.26a.12.12,0,0,1-.08,0,.1.1,0,0,1-.11-.08.24.24,0,0,1,0-.12,13.47,13.47,0,0,0,1.43-2.8A12.7,12.7,0,0,0,12,47.42a2.51,2.51,0,0,0,0-.68.41.41,0,0,0-.2-.33,1.86,1.86,0,0,0-.31-.14c-.06,0-.11-.05-.11-.1s0-.1.08-.13a1.48,1.48,0,0,1,.63-.25,2,2,0,0,1,1.1.29c.43.22.67.4.7.64a.67.67,0,0,1-.14.4,3.3,3.3,0,0,0-.23.67.33.33,0,0,1-.05.15,8.46,8.46,0,0,0,1.25-.51.75.75,0,0,0,.46-.41.5.5,0,0,1,.39-.24,3,3,0,0,1,1,.36c.42.25.85.47.9.83a.39.39,0,0,1-.24.39c-.25.12-.28.24-.39.6-.28.83-.57,1.67-.91,2.45A2.52,2.52,0,0,1,17.62,53a.88.88,0,0,1-.74,1.12c-.39.05-.63-.14-1-.73a2.67,2.67,0,0,0-.53-.59,10.23,10.23,0,0,1-1.07,1.56,10.49,10.49,0,0,1-4.61,3.3l-.16.06c-.07,0-.12,0-.13-.07a.14.14,0,0,1,.07-.12,15.52,15.52,0,0,0,3.77-3.78,14.38,14.38,0,0,0,1-1.79A5.89,5.89,0,0,0,12,51.08,8,8,0,0,1,9.91,53.26ZM14.62,51a12.74,12.74,0,0,0,.58-2.14,3.26,3.26,0,0,0,.05-.56c0-.07,0-.08-.1-.07a3.32,3.32,0,0,0-.41.17l-.6.3a1.3,1.3,0,0,1-.45.22.77.77,0,0,1-.45-.1,9.57,9.57,0,0,1-1,1.91A12.28,12.28,0,0,1,14.62,51Z" class="cls-5"/><path data-cppathid="10005" transform="translate(0 -0.23)" d="M24.52,52.92a10.26,10.26,0,0,1-4.46,2.6c-.08,0-.14,0-.15-.06s0-.09.08-.13A13.83,13.83,0,0,0,23.6,52.1a12.61,12.61,0,0,0,2.31-4.54,3.48,3.48,0,0,0,.16-.8c0-.07-.05-.09-.14-.08l-.17,0c-.44.18-1.11.48-1.51.69a2.82,2.82,0,0,0-.64.48,1,1,0,0,1-.54.32,1.5,1.5,0,0,1-.92-.38c-.38-.3-.74-.56-.79-.89a1.51,1.51,0,0,1,0-.37q0-.15.09-.15a.22.22,0,0,1,.18.06,2.87,2.87,0,0,0,.45.2,1.25,1.25,0,0,0,.57.07,3.75,3.75,0,0,0,.76-.21l1.91-.67c.3-.12.28-.11.5-.44a.58.58,0,0,1,.41-.25,3.19,3.19,0,0,1,1.21.34c.58.28,1,.55,1.11.94s-.11.34-.36.51-.32.28-.48.73a15.82,15.82,0,0,1-.95,2.13,5.14,5.14,0,0,1,2.24.43,2.12,2.12,0,0,1,1.44,1.57.91.91,0,0,1-.81,1.1c-.55.08-.83-.17-1.29-.92a4.69,4.69,0,0,0-1.78-1.81A12.12,12.12,0,0,1,24.52,52.92Z" class="cls-5"/><path data-cppathid="10006" transform="translate(0 -0.23)" d="M37.54,44.48c.26-.08.27-.12.4-.4a.52.52,0,0,1,.36-.23,2.55,2.55,0,0,1,1.14.38c.53.28.86.54.91.86a.49.49,0,0,1-.28.45c-.24.15-.28.27-.41.66a13.14,13.14,0,0,1-2.92,5.4,11.54,11.54,0,0,1-4.32,2.93l-.2.07c-.07,0-.12,0-.12-.07a.11.11,0,0,1,0-.12,15.43,15.43,0,0,0,3.64-3.66A13.69,13.69,0,0,0,37.91,46a2.93,2.93,0,0,0,.07-.65c0-.07,0-.08-.12-.07a2.38,2.38,0,0,0-.35.12,4.66,4.66,0,0,1-.45.22,1.21,1.21,0,0,1-.44.2,1.43,1.43,0,0,1-.68-.12,10.36,10.36,0,0,1-1,1.81,7.76,7.76,0,0,1-2.46,2.36c-.09.05-.17,0-.18,0a.16.16,0,0,1,0-.12,17.09,17.09,0,0,0,1.53-2.68,15.73,15.73,0,0,0,1-2.88,2.2,2.2,0,0,0,.1-.77.38.38,0,0,0-.22-.3l-.29-.1c-.07,0-.12,0-.13-.09a.21.21,0,0,1,.08-.14,1.29,1.29,0,0,1,.58-.3,3,3,0,0,1,1.18.32c.46.22.71.42.77.79,0,.2,0,.28-.2.49a1.84,1.84,0,0,0-.32.69.93.93,0,0,0-.07.2C36.59,44.87,37.15,44.64,37.54,44.48Z" class="cls-5"/><path data-cppathid="10007" transform="translate(0 -0.23)" d="M59.37,67.43c-1.11-.06-4.17-5.41-3.67-16S56.9,26,56.9,26l45.19,2.13s-.09,10.46-.61,21.54c-.34,7.1-.46,17.29-.46,17.29Z" class="cls-6"/><path data-cppathid="10008" transform="translate(0 -0.23)" d="M59.09,67.68c-1.1-.05-4.16-5.4-3.66-15.94s1.2-25.53,1.2-25.53l45.19,2.13s-.09,10.46-.61,21.54c-.34,7.1-.46,17.29-.46,17.29Z" class="cls-3"/><path data-cppathid="10009" transform="translate(0 -0.23)" d="M61.84,46.65l-.08,0a.08.08,0,0,1-.09-.1.14.14,0,0,1,.06-.11A14,14,0,0,0,63.67,44,13.08,13.08,0,0,0,65,41.32a2,2,0,0,0,.17-.67.37.37,0,0,0-.13-.36,1.75,1.75,0,0,0-.27-.19.16.16,0,0,1-.1-.12.21.21,0,0,1,.11-.12,1.52,1.52,0,0,1,.66-.12,2,2,0,0,1,1,.5c.38.29.58.51.57.75a.66.66,0,0,1-.22.37,3.34,3.34,0,0,0-.35.62.42.42,0,0,1-.07.13,7.68,7.68,0,0,0,1.31-.26.76.76,0,0,0,.54-.31.47.47,0,0,1,.42-.16,2.84,2.84,0,0,1,.95.55c.36.32.74.62.72,1a.38.38,0,0,1-.31.33c-.27.07-.32.18-.5.51-.43.77-.87,1.53-1.35,2.24a2.55,2.55,0,0,1,1.27,1.91.88.88,0,0,1-.95,1c-.39,0-.59-.25-.87-.91a2.8,2.8,0,0,0-.41-.68,10.42,10.42,0,0,1-1.34,1.32A10.54,10.54,0,0,1,60.73,51l-.17,0c-.07,0-.11,0-.11-.09s0-.08.09-.11a15.45,15.45,0,0,0,4.42-3,14.15,14.15,0,0,0,1.34-1.56,5.87,5.87,0,0,0-2-1.31A8.12,8.12,0,0,1,61.84,46.65ZM66.9,45.3a12.16,12.16,0,0,0,1-2,4.27,4.27,0,0,0,.15-.54c0-.07,0-.09-.08-.09a4.31,4.31,0,0,0-.44.09c-.2,0-.43.11-.64.18a1.28,1.28,0,0,1-.48.13A.82.82,0,0,1,66,42.9a9.53,9.53,0,0,1-1.33,1.69A13,13,0,0,1,66.9,45.3Z" class="cls-5"/><path data-cppathid="10010" transform="translate(0 -0.23)" d="M76.25,49.1a10.14,10.14,0,0,1-4.88,1.7c-.08,0-.13,0-.13-.09s0-.08.1-.1a13.9,13.9,0,0,0,4.16-2.49,12.53,12.53,0,0,0,3.13-4,3.81,3.81,0,0,0,.32-.76c0-.07,0-.1-.12-.1a.65.65,0,0,0-.19,0c-.46.09-1.17.25-1.61.38a3,3,0,0,0-.72.35,1,1,0,0,1-.59.21,1.46,1.46,0,0,1-.83-.55c-.31-.36-.62-.69-.61-1a1.39,1.39,0,0,1,.08-.36c0-.1.07-.14.12-.14a.28.28,0,0,1,.16.1,2,2,0,0,0,.41.28,1.29,1.29,0,0,0,.53.18,4.29,4.29,0,0,0,.79-.06c.62-.08,1.49-.21,2-.3.31-.05.3-.05.58-.34a.59.59,0,0,1,.44-.16,3,3,0,0,1,1.12.56c.52.39.93.75.92,1.14s-.17.31-.46.43-.36.22-.61.63A18,18,0,0,1,79,46.51a5.4,5.4,0,0,1,2.12.84,2.15,2.15,0,0,1,1.1,1.82.9.9,0,0,1-1,.92c-.56,0-.79-.31-1.1-1.14a4.7,4.7,0,0,0-1.4-2.12A12.58,12.58,0,0,1,76.25,49.1Z" class="cls-5"/><path data-cppathid="10011" transform="translate(0 -0.23)" d="M90.64,43.3c.27,0,.28-.07.46-.31a.59.59,0,0,1,.4-.17,2.74,2.74,0,0,1,1.06.6c.45.37.73.69.72,1s-.2.32-.36.39-.33.2-.53.56a13.09,13.09,0,0,1-3.9,4.75,11.67,11.67,0,0,1-4.79,2l-.21,0c-.07,0-.11,0-.11-.09a.12.12,0,0,1,.07-.11,15.34,15.34,0,0,0,4.28-2.9,13.68,13.68,0,0,0,3-4.23,3.41,3.41,0,0,0,.19-.62c0-.07,0-.09-.11-.09a1.84,1.84,0,0,0-.36,0,3.92,3.92,0,0,1-.49.13,1.45,1.45,0,0,1-.46.11,1.37,1.37,0,0,1-.65-.25,9.71,9.71,0,0,1-1.38,1.58,7.74,7.74,0,0,1-2.86,1.84c-.1,0-.17,0-.17-.08a.15.15,0,0,1,.06-.11,17,17,0,0,0,2-2.34A16.24,16.24,0,0,0,88,42.47a2.4,2.4,0,0,0,.25-.74.38.38,0,0,0-.17-.33l-.26-.15c-.07,0-.11-.08-.11-.12a.24.24,0,0,1,.11-.12,1.26,1.26,0,0,1,.62-.18,2.86,2.86,0,0,1,1.1.54c.41.3.62.55.6.91s-.1.28-.29.45a2.33,2.33,0,0,0-.45.61c0,.06-.07.12-.1.19A13.49,13.49,0,0,0,90.64,43.3Z" class="cls-5"/><path data-cppathid="10012" transform="translate(0 -0.23)" d="M8.23,120.44c-1.1,0-4.16-5.4-3.66-15.94S5.77,79,5.77,79L51,81.1s-.09,10.46-.61,21.54c-.34,7.1-.46,17.29-.46,17.29Z" class="cls-7"/><path data-cppathid="10013" transform="translate(0 -0.23)" d="M8,120.7c-1.1,0-4.16-5.4-3.66-16S5.5,79.23,5.5,79.23l45.19,2.12s-.09,10.47-.61,21.54c-.34,7.11-.46,17.29-.46,17.29Z" class="cls-3"/><path data-cppathid="10014" transform="translate(0 -0.23)" d="M11.18,99a.32.32,0,0,1-.09,0,.09.09,0,0,1-.09-.11.2.2,0,0,1,.06-.11A13.59,13.59,0,0,0,13,96.31a13.08,13.08,0,0,0,1.34-2.67,2.39,2.39,0,0,0,.18-.67.38.38,0,0,0-.14-.35,1.26,1.26,0,0,0-.27-.2c-.06,0-.1-.07-.1-.12a.21.21,0,0,1,.11-.12,1.52,1.52,0,0,1,.66-.12,2,2,0,0,1,1,.5c.38.3.58.52.57.75a.66.66,0,0,1-.22.37,3.34,3.34,0,0,0-.35.62.42.42,0,0,1-.07.13,7.68,7.68,0,0,0,1.31-.26.76.76,0,0,0,.54-.31A.47.47,0,0,1,18,93.7a2.84,2.84,0,0,1,.95.55c.36.32.74.62.72,1a.38.38,0,0,1-.31.33c-.27.07-.32.18-.5.51-.43.77-.87,1.53-1.35,2.24a2.52,2.52,0,0,1,1.27,1.91c0,.59-.36,1-.94,1-.4,0-.6-.25-.87-.91a3.05,3.05,0,0,0-.42-.68,10.82,10.82,0,0,1-6.5,3.69l-.17,0c-.07,0-.11,0-.11-.09a.19.19,0,0,1,.09-.11,15.12,15.12,0,0,0,4.42-3,13.28,13.28,0,0,0,1.34-1.56,5.87,5.87,0,0,0-2-1.31A8.2,8.2,0,0,1,11.18,99Zm5.05-1.34a12.68,12.68,0,0,0,1-2,3.05,3.05,0,0,0,.15-.54c0-.07,0-.09-.08-.09a4.31,4.31,0,0,0-.44.09l-.64.18a1.23,1.23,0,0,1-.48.13.77.77,0,0,1-.43-.19A9.16,9.16,0,0,1,14,96.92,11.52,11.52,0,0,1,16.23,97.63Z" class="cls-5"/><path data-cppathid="10015" transform="translate(0 -0.23)" d="M25.58,101.42a10.14,10.14,0,0,1-4.87,1.7c-.09,0-.14-.05-.14-.09s0-.08.11-.11a13.83,13.83,0,0,0,4.15-2.48,12.33,12.33,0,0,0,3.13-4,3.25,3.25,0,0,0,.32-.75c0-.07,0-.1-.12-.11l-.18,0c-.47.09-1.18.26-1.62.39a3,3,0,0,0-.72.35,1,1,0,0,1-.58.21,1.48,1.48,0,0,1-.83-.55c-.32-.36-.63-.69-.61-1a1,1,0,0,1,.07-.36c0-.1.08-.14.12-.14a.26.26,0,0,1,.16.09,2.48,2.48,0,0,0,.41.29,1.28,1.28,0,0,0,.54.18,4.4,4.4,0,0,0,.79-.06c.62-.08,1.48-.21,2-.3.31-.06.3-.06.58-.34a.55.55,0,0,1,.44-.16,2.94,2.94,0,0,1,1.12.56c.52.39.94.74.92,1.14s-.17.31-.46.42-.36.22-.6.63a17.73,17.73,0,0,1-1.34,1.92,5.25,5.25,0,0,1,2.12.84,2.15,2.15,0,0,1,1.11,1.82.9.9,0,0,1-1,.92c-.56,0-.79-.32-1.1-1.15a4.67,4.67,0,0,0-1.4-2.11A12.31,12.31,0,0,1,25.58,101.42Z" class="cls-5"/><path data-cppathid="10016" transform="translate(0 -0.23)" d="M40,95.61c.27,0,.29-.07.47-.31a.51.51,0,0,1,.4-.16,2.66,2.66,0,0,1,1,.59c.46.38.74.7.72,1a.51.51,0,0,1-.35.39c-.28.1-.34.21-.54.56a13.3,13.3,0,0,1-3.89,4.76,11.56,11.56,0,0,1-4.8,2,.82.82,0,0,1-.21,0c-.07,0-.11,0-.11-.09a.1.1,0,0,1,.08-.1,15.51,15.51,0,0,0,4.27-2.9,13.56,13.56,0,0,0,3-4.24,2.76,2.76,0,0,0,.19-.62c0-.07,0-.08-.1-.09l-.37.05-.48.14a1.28,1.28,0,0,1-.47.1,1.45,1.45,0,0,1-.65-.24,10.63,10.63,0,0,1-1.38,1.58A7.87,7.87,0,0,1,33.92,100c-.1,0-.17,0-.17-.08a.17.17,0,0,1,.07-.11,17.65,17.65,0,0,0,2-2.34,15.53,15.53,0,0,0,1.5-2.64,2.45,2.45,0,0,0,.25-.75.38.38,0,0,0-.17-.33l-.26-.15c-.07,0-.11-.07-.11-.12a.24.24,0,0,1,.11-.12,1.38,1.38,0,0,1,.62-.18,3,3,0,0,1,1.1.54c.41.3.62.55.6.92,0,.21-.1.27-.29.44a2.15,2.15,0,0,0-.44.61c0,.06-.08.13-.11.2C39,95.82,39.56,95.69,40,95.61Z" class="cls-5"/><path data-cppathid="10017" transform="translate(0 -0.23)" d="M55.41,118.45c-1.07-.28-2.95-6.15-.27-16.36l6.47-24.72,43.76,11.45s-2.26,10.22-5.07,21c-1.8,6.88-4,16.82-4,16.82Z" class="cls-8"/><path data-cppathid="10018" transform="translate(0 -0.23)" d="M55.09,118.64c-1.07-.28-3-6.15-.27-16.36l6.47-24.72L105.05,89S102.79,99.23,100,110c-1.8,6.88-4,16.82-4,16.82Z" class="cls-3"/><path data-cppathid="10019" transform="translate(0 -0.23)" d="M62.21,98.55a.14.14,0,0,1-.09,0,.11.11,0,0,1-.07-.12.16.16,0,0,1,.08-.09,14.09,14.09,0,0,0,2.41-2A13,13,0,0,0,66.41,94a2.45,2.45,0,0,0,.31-.61.38.38,0,0,0-.06-.38,1.24,1.24,0,0,0-.23-.25.16.16,0,0,1-.06-.13.18.18,0,0,1,.13-.1,1.49,1.49,0,0,1,.67,0,2,2,0,0,1,.9.7c.31.37.46.63.4.86s-.16.22-.28.31a3.06,3.06,0,0,0-.48.53.38.38,0,0,1-.1.12,8.19,8.19,0,0,0,1.34,0,.76.76,0,0,0,.59-.2.54.54,0,0,1,.45-.07,3.36,3.36,0,0,1,.81.74c.29.39.6.76.5,1.11a.38.38,0,0,1-.37.27c-.28,0-.35.11-.59.39-.58.66-1.17,1.32-1.79,1.91a2.5,2.5,0,0,1,.84,2.13.87.87,0,0,1-1.12.74c-.38-.1-.52-.37-.66-1.07a2.74,2.74,0,0,0-.26-.76,9.72,9.72,0,0,1-1.59,1,10.51,10.51,0,0,1-5.54,1.25l-.17,0c-.06,0-.1,0-.08-.11a.12.12,0,0,1,.11-.08,15.89,15.89,0,0,0,4.94-2,14.43,14.43,0,0,0,1.63-1.26A5.71,5.71,0,0,0,65,97.38,8,8,0,0,1,62.21,98.55Zm5.22-.27a11.67,11.67,0,0,0,1.37-1.74,2.38,2.38,0,0,0,.26-.49c0-.07,0-.09-.06-.11h-.45c-.2,0-.43,0-.66,0a1.47,1.47,0,0,1-.5,0,.81.81,0,0,1-.38-.27,9.44,9.44,0,0,1-1.65,1.38A12.65,12.65,0,0,1,67.43,98.28Z" class="cls-5"/><path data-cppathid="10020" transform="translate(0 -0.23)" d="M75.79,103.93a10.08,10.08,0,0,1-5.12.66c-.08,0-.12-.08-.11-.12s0-.07.12-.08a13.77,13.77,0,0,0,4.58-1.57,12.49,12.49,0,0,0,3.9-3.28,3.64,3.64,0,0,0,.47-.67c0-.07,0-.11-.1-.13l-.19,0c-.47,0-1.2,0-1.66,0a2.9,2.9,0,0,0-.77.19,1,1,0,0,1-.62.08,1.42,1.42,0,0,1-.69-.7c-.24-.43-.47-.81-.39-1.13a1.07,1.07,0,0,1,.15-.34c0-.09.1-.12.14-.11a.29.29,0,0,1,.14.13,2.47,2.47,0,0,0,.34.36,1.36,1.36,0,0,0,.49.29,4.86,4.86,0,0,0,.78.1l2,.13c.31,0,.3,0,.63-.22a.59.59,0,0,1,.47-.06,2.89,2.89,0,0,1,1,.78c.42.48.76.92.66,1.3s-.23.27-.53.32-.4.14-.73.49a15.9,15.9,0,0,1-1.7,1.6,5.42,5.42,0,0,1,1.9,1.26,2.15,2.15,0,0,1,.7,2,.9.9,0,0,1-1.16.7c-.55-.15-.71-.48-.84-1.35a4.72,4.72,0,0,0-.93-2.36A12.32,12.32,0,0,1,75.79,103.93Z" class="cls-5"/><path data-cppathid="10021" transform="translate(0 -0.23)" d="M91.07,101.24c.27,0,.3,0,.52-.21A.53.53,0,0,1,92,101a2.66,2.66,0,0,1,.9.8c.37.46.58.83.5,1.14a.51.51,0,0,1-.43.31c-.28,0-.37.13-.64.44a13,13,0,0,1-4.79,3.84,11.64,11.64,0,0,1-5.12,1h-.21c-.07,0-.1-.07-.09-.11a.11.11,0,0,1,.1-.09,15.85,15.85,0,0,0,4.78-2,13.62,13.62,0,0,0,3.79-3.53,2.66,2.66,0,0,0,.32-.57c0-.06,0-.08-.09-.11l-.37,0c-.15,0-.35,0-.5,0a1.29,1.29,0,0,1-.48,0,1.39,1.39,0,0,1-.58-.37A10.15,10.15,0,0,1,87.44,103a7.88,7.88,0,0,1-3.19,1.21c-.1,0-.16-.06-.14-.11a.15.15,0,0,1,.08-.1,17.69,17.69,0,0,0,2.46-1.87,16.22,16.22,0,0,0,2-2.27,2.56,2.56,0,0,0,.4-.68.39.39,0,0,0-.1-.36,1.58,1.58,0,0,0-.22-.2.15.15,0,0,1-.08-.14s.06-.07.13-.09a1.36,1.36,0,0,1,.65,0,3,3,0,0,1,1,.76c.33.37.49.66.4,1s-.16.25-.38.38a2,2,0,0,0-.56.51,1.17,1.17,0,0,0-.15.16A11.74,11.74,0,0,0,91.07,101.24Z" class="cls-5"/><path data-cppathid="10022" transform="translate(0 -0.23)" d="M13,178.59c-1.1.16-5.11-4.51-6.63-15S2.7,138.34,2.7,138.34l44.77-6.52s1.9,10.29,3.5,21.26c1,7,.11,10.25-5.77,14.66C35.19,175.25,13,178.59,13,178.59Z" class="cls-9"/><path data-cppathid="10023" transform="translate(0 -0.23)" d="M12.8,178.89c-1.09.16-5.11-4.51-6.63-15s-3.69-25.28-3.69-25.28l44.77-6.52s1.9,10.28,3.5,21.26c1,7,.11,10.25-5.77,14.66C35,175.55,12.8,178.89,12.8,178.89Z" class="cls-3"/><path data-cppathid="10024" transform="translate(0 -0.23)" d="M33.32,173.58a13.59,13.59,0,0,0,6.32-4.46,10,10,0,0,0,2.12-5.54,19.51,19.51,0,0,0,6.45-1.33,5.79,5.79,0,0,0,3.34-3.31s-1.28,5.17-5.16,8C41.39,170.65,33.32,173.58,33.32,173.58Z" class="cls-10"/><path data-cppathid="10025" transform="translate(0 -0.23)" d="M33.54,173.57a13.59,13.59,0,0,0,6.31-4.46A10,10,0,0,0,42,163.58a19.32,19.32,0,0,0,6.45-1.34,5.77,5.77,0,0,0,3.34-3.3s-1.27,5.16-5.16,8C41.61,170.65,33.54,173.57,33.54,173.57Z" class="cls-3"/><path data-cppathid="10026" transform="translate(0 -0.23)" d="M12.1,155.9a.12.12,0,0,1-.08,0,.09.09,0,0,1-.11-.08.17.17,0,0,1,0-.12,13.47,13.47,0,0,0,1.43-2.8,13.06,13.06,0,0,0,.81-2.88,2.64,2.64,0,0,0,.05-.68.39.39,0,0,0-.21-.33,1.42,1.42,0,0,0-.3-.14c-.06,0-.11,0-.11-.09a.14.14,0,0,1,.08-.14,1.45,1.45,0,0,1,.62-.25,2.14,2.14,0,0,1,1.11.29c.43.22.67.4.7.64a.67.67,0,0,1-.14.4,3.3,3.3,0,0,0-.23.67.53.53,0,0,1,0,.15,8.46,8.46,0,0,0,1.25-.51.74.74,0,0,0,.46-.41.5.5,0,0,1,.39-.24,3.23,3.23,0,0,1,1,.36c.42.25.85.47.9.83a.39.39,0,0,1-.24.39c-.25.12-.28.24-.4.6-.27.83-.56,1.67-.9,2.45a2.51,2.51,0,0,1,1.61,1.64.87.87,0,0,1-.74,1.11c-.39,0-.63-.14-1-.73a3,3,0,0,0-.54-.59A9.51,9.51,0,0,1,16.44,157a10.49,10.49,0,0,1-4.61,3.3l-.16.06c-.07,0-.12,0-.13-.07a.14.14,0,0,1,.07-.12,15.52,15.52,0,0,0,3.77-3.78,14.38,14.38,0,0,0,1-1.79,6,6,0,0,0-2.17-.92A8.15,8.15,0,0,1,12.1,155.9Zm4.71-2.28a12.74,12.74,0,0,0,.58-2.14,2.39,2.39,0,0,0,0-.56c0-.07,0-.08-.09-.07a2.83,2.83,0,0,0-.42.17l-.59.3a1.39,1.39,0,0,1-.45.22.77.77,0,0,1-.45-.1,9.83,9.83,0,0,1-1,1.91A12.37,12.37,0,0,1,16.81,153.62Z" class="cls-5"/><path data-cppathid="10027" transform="translate(0 -0.23)" d="M26.71,155.56a10.17,10.17,0,0,1-4.46,2.6c-.09,0-.15,0-.15-.06s0-.09.08-.13a13.93,13.93,0,0,0,3.6-3.22,12.52,12.52,0,0,0,2.32-4.55,3.39,3.39,0,0,0,.16-.8c0-.07-.05-.09-.14-.08l-.17.06c-.44.17-1.11.47-1.52.68a3.35,3.35,0,0,0-.64.48.91.91,0,0,1-.53.32,1.5,1.5,0,0,1-.92-.38c-.38-.3-.74-.56-.79-.89a1.14,1.14,0,0,1,0-.37c0-.1.05-.14.09-.15a.22.22,0,0,1,.18.06,2.51,2.51,0,0,0,.45.2,1.25,1.25,0,0,0,.57.07,4.33,4.33,0,0,0,.76-.2c.59-.2,1.41-.49,1.91-.68.29-.11.28-.11.5-.44a.57.57,0,0,1,.41-.24,2.89,2.89,0,0,1,1.2.33c.58.28,1.06.55,1.12.94s-.11.34-.37.51-.31.28-.47.73a16.53,16.53,0,0,1-.95,2.14,5.17,5.17,0,0,1,2.24.42,2.12,2.12,0,0,1,1.44,1.57.92.92,0,0,1-.81,1.1c-.55.08-.83-.16-1.29-.92a4.69,4.69,0,0,0-1.78-1.81A12.75,12.75,0,0,1,26.71,155.56Z" class="cls-5"/><path data-cppathid="10028" transform="translate(0 -0.23)" d="M39.73,147.12c.26-.08.26-.12.39-.4a.56.56,0,0,1,.37-.23,2.68,2.68,0,0,1,1.14.38c.52.28.86.54.91.86a.52.52,0,0,1-.28.45c-.25.15-.28.27-.41.66a13.25,13.25,0,0,1-2.92,5.41,11.64,11.64,0,0,1-4.32,2.92l-.2.07a.11.11,0,0,1-.13-.07.14.14,0,0,1,.06-.12A15.25,15.25,0,0,0,38,153.39a13.69,13.69,0,0,0,2.12-4.72,2.93,2.93,0,0,0,.07-.65c0-.07,0-.08-.12-.07a2.38,2.38,0,0,0-.35.12,4.66,4.66,0,0,1-.45.22,1.21,1.21,0,0,1-.44.2,1.4,1.4,0,0,1-.68-.12,9.83,9.83,0,0,1-1.06,1.81,7.66,7.66,0,0,1-2.46,2.36c-.09.05-.16,0-.17,0s0-.07,0-.12A17.09,17.09,0,0,0,36,149.69a15.48,15.48,0,0,0,1-2.88,2.43,2.43,0,0,0,.1-.77.37.37,0,0,0-.23-.3l-.28-.1c-.07,0-.12,0-.13-.09a.23.23,0,0,1,.08-.14,1.35,1.35,0,0,1,.58-.3,2.9,2.9,0,0,1,1.18.33c.46.21.71.42.76.78,0,.2,0,.29-.19.49a2,2,0,0,0-.33.69c0,.06-.05.13-.07.2C38.78,147.51,39.34,147.28,39.73,147.12Z" class="cls-5"/><path data-cppathid="10029" transform="translate(0 -0.23)" d="M61.28,172c-1.1,0-4.16-5.4-3.66-15.95s1.2-25.52,1.2-25.52L104,132.6s-.09,10.46-.62,21.54c-.33,7.11-.45,17.29-.45,17.29Z" class="cls-11"/><path data-cppathid="10030" transform="translate(0 -0.23)" d="M61,172.21c-1.11-.05-4.16-5.41-3.67-16l1.21-25.53,45.18,2.13s-.09,10.46-.61,21.54c-.33,7.1-.45,17.29-.45,17.29Z" class="cls-3"/><path data-cppathid="10031" transform="translate(0 -0.23)" d="M65.49,151.79l-.09,0a.08.08,0,0,1-.09-.1.14.14,0,0,1,.06-.11,14,14,0,0,0,1.94-2.47,13.08,13.08,0,0,0,1.34-2.67,2.39,2.39,0,0,0,.18-.67.4.4,0,0,0-.14-.36,1.75,1.75,0,0,0-.27-.19c-.06,0-.1-.08-.09-.12a.16.16,0,0,1,.1-.12,1.52,1.52,0,0,1,.66-.12,2,2,0,0,1,1,.5c.38.29.58.51.57.75a.7.7,0,0,1-.21.37,2.88,2.88,0,0,0-.36.62.42.42,0,0,1-.07.13,7.68,7.68,0,0,0,1.31-.26.76.76,0,0,0,.54-.31.48.48,0,0,1,.43-.16,2.93,2.93,0,0,1,.94.55c.36.32.74.62.72,1a.38.38,0,0,1-.31.34c-.27.07-.32.18-.5.51-.43.77-.87,1.53-1.35,2.24a2.55,2.55,0,0,1,1.27,1.91.88.88,0,0,1-.95.95c-.39,0-.59-.25-.86-.91a2.84,2.84,0,0,0-.42-.68,11,11,0,0,1-6.5,3.69l-.17,0c-.07,0-.11,0-.11-.09s0-.08.09-.11a15.31,15.31,0,0,0,4.42-3,14.15,14.15,0,0,0,1.34-1.56,5.72,5.72,0,0,0-2-1.31A8.38,8.38,0,0,1,65.49,151.79Zm5.05-1.35a12.16,12.16,0,0,0,1-2,3.05,3.05,0,0,0,.15-.54c0-.07,0-.09-.08-.09a2.85,2.85,0,0,0-.44.09l-.64.18a1.23,1.23,0,0,1-.48.13.85.85,0,0,1-.43-.19,9.09,9.09,0,0,1-1.33,1.69A13,13,0,0,1,70.54,150.44Z" class="cls-5"/><path data-cppathid="10032" transform="translate(0 -0.23)" d="M79.89,154.24a10.14,10.14,0,0,1-4.88,1.7c-.08,0-.13-.05-.13-.09s0-.08.1-.1a14,14,0,0,0,4.16-2.49,12.53,12.53,0,0,0,3.13-4,3.29,3.29,0,0,0,.32-.76c0-.07,0-.1-.12-.1a.68.68,0,0,0-.19,0c-.46.09-1.17.25-1.61.38a3,3,0,0,0-.72.35.94.94,0,0,1-.58.21,1.43,1.43,0,0,1-.83-.55c-.32-.36-.63-.69-.61-1a1,1,0,0,1,.07-.36c0-.1.07-.14.12-.14a.28.28,0,0,1,.16.1,2.3,2.3,0,0,0,.41.28,1.28,1.28,0,0,0,.54.18,4.4,4.4,0,0,0,.79-.06c.62-.08,1.48-.21,2-.3.31,0,.3,0,.58-.34A.59.59,0,0,1,83,147a2.94,2.94,0,0,1,1.12.56c.52.39.94.75.92,1.14s-.17.31-.46.43-.36.22-.6.63a16.67,16.67,0,0,1-1.34,1.91,5.25,5.25,0,0,1,2.12.84,2.14,2.14,0,0,1,1.1,1.82.89.89,0,0,1-1,.92c-.56,0-.79-.31-1.1-1.14a4.7,4.7,0,0,0-1.4-2.12A12.58,12.58,0,0,1,79.89,154.24Z" class="cls-5"/><path data-cppathid="10033" transform="translate(0 -0.23)" d="M94.28,148.44c.27,0,.29-.07.47-.31a.57.57,0,0,1,.4-.17,2.72,2.72,0,0,1,1,.6c.46.37.74.69.72,1s-.2.32-.36.39-.33.2-.53.56a13.17,13.17,0,0,1-3.9,4.75,11.61,11.61,0,0,1-4.79,2.05l-.21,0c-.07,0-.11-.05-.11-.09a.11.11,0,0,1,.08-.11,15.44,15.44,0,0,0,4.27-2.9,13.51,13.51,0,0,0,3-4.23,2.92,2.92,0,0,0,.19-.62c0-.07,0-.09-.1-.09a2,2,0,0,0-.37.05,4.27,4.27,0,0,1-.48.13,1.51,1.51,0,0,1-.47.11,1.37,1.37,0,0,1-.65-.25,9.71,9.71,0,0,1-1.38,1.58,7.87,7.87,0,0,1-2.86,1.84c-.1,0-.17,0-.17-.08a.2.2,0,0,1,.06-.11,17,17,0,0,0,2-2.34,16.24,16.24,0,0,0,1.5-2.64,2.4,2.4,0,0,0,.25-.74.38.38,0,0,0-.17-.33l-.26-.15c-.07,0-.11-.08-.11-.12a.24.24,0,0,1,.11-.12,1.29,1.29,0,0,1,.62-.18,2.86,2.86,0,0,1,1.1.54c.41.3.62.55.6.91s-.09.28-.28.45a1.83,1.83,0,0,0-.45.61c0,.06-.08.12-.11.19A13,13,0,0,0,94.28,148.44Z" class="cls-5"/><path data-cppathid="10034" transform="translate(0 -0.23)" d="M115.44,174.4c-1.1.06-4.68-5-5.25-15.49l-1.38-25.52L154,131s1,10.41,1.56,21.49c.39,7.1-.82,10.21-7.07,14.07C137.82,173.09,115.44,174.4,115.44,174.4Z" class="cls-12"/><path data-cppathid="10035" transform="translate(0 -0.23)" d="M115.2,174.69c-1.11.06-4.69-5-5.26-15.5l-1.38-25.52,45.18-2.44s1,10.42,1.56,21.49c.38,7.1-.82,10.22-7.07,14.08C137.58,173.37,115.2,174.69,115.2,174.69Z" class="cls-3"/><path data-cppathid="10036" transform="translate(0 -0.23)" d="M136.11,171.25a13.58,13.58,0,0,0,6.7-3.87,10.1,10.1,0,0,0,2.61-5.32,19.37,19.37,0,0,0,6.54-.75,5.77,5.77,0,0,0,3.63-3s-1.74,5-5.87,7.54C144.42,169.07,136.11,171.25,136.11,171.25Z" class="cls-13"/><path data-cppathid="10037" transform="translate(0 -0.23)" d="M136.33,171.27A13.66,13.66,0,0,0,143,167.4a10,10,0,0,0,2.61-5.33,19.53,19.53,0,0,0,6.54-.74,5.77,5.77,0,0,0,3.63-3s-1.74,5-5.87,7.53C144.63,169.08,136.33,171.27,136.33,171.27Z" class="cls-3"/><path data-cppathid="10038" transform="translate(0 -0.23)" d="M117.59,151.73s0,0-.08,0a.09.09,0,0,1-.1-.09.14.14,0,0,1,0-.12,14.27,14.27,0,0,0,1.68-2.66,13.77,13.77,0,0,0,1.07-2.79,2.37,2.37,0,0,0,.1-.68.39.39,0,0,0-.17-.34,1.48,1.48,0,0,0-.29-.17c-.06,0-.11-.06-.11-.1a.2.2,0,0,1,.09-.14,1.46,1.46,0,0,1,.65-.18,2,2,0,0,1,1.08.39c.4.25.62.45.64.69a.73.73,0,0,1-.18.39,3,3,0,0,0-.29.65.42.42,0,0,1-.06.14,8,8,0,0,0,1.28-.39.75.75,0,0,0,.5-.37.51.51,0,0,1,.41-.2,3,3,0,0,1,1,.45c.39.29.8.55.82.91a.4.4,0,0,1-.28.37c-.26.09-.3.21-.44.55-.36.81-.72,1.61-1.13,2.36a2.54,2.54,0,0,1,1.46,1.78.87.87,0,0,1-.84,1c-.39,0-.61-.19-1-.82a2.84,2.84,0,0,0-.48-.63,9.94,9.94,0,0,1-1.2,1.45,10.42,10.42,0,0,1-4.89,2.87l-.17,0c-.07,0-.11,0-.11-.08s0-.08.07-.11a15.48,15.48,0,0,0,4.1-3.42,15,15,0,0,0,1.17-1.69,5.74,5.74,0,0,0-2.08-1.11A8.27,8.27,0,0,1,117.59,151.73Zm4.9-1.85a13.25,13.25,0,0,0,.77-2.08,2.93,2.93,0,0,0,.09-.55c0-.07,0-.08-.08-.08a2.18,2.18,0,0,0-.43.13,6.19,6.19,0,0,0-.62.25,1.8,1.8,0,0,1-.47.18.85.85,0,0,1-.44-.15,10.36,10.36,0,0,1-1.15,1.82A12.2,12.2,0,0,1,122.49,149.88Z" class="cls-5"/><path data-cppathid="10039" transform="translate(0 -0.23)" d="M132.17,152.71a10.2,10.2,0,0,1-4.68,2.18c-.08,0-.14,0-.14-.07a.13.13,0,0,1,.09-.12,14,14,0,0,0,3.88-2.89A12.55,12.55,0,0,0,134,147.5a3.69,3.69,0,0,0,.24-.79c0-.07-.05-.09-.14-.09a.74.74,0,0,0-.18,0c-.45.14-1.14.37-1.57.55a3.25,3.25,0,0,0-.67.41,1,1,0,0,1-.57.27,1.4,1.4,0,0,1-.88-.46c-.35-.33-.69-.62-.71-1a1.3,1.3,0,0,1,0-.37c0-.1.06-.14.1-.15a.29.29,0,0,1,.18.08,1.78,1.78,0,0,0,.43.24,1.2,1.2,0,0,0,.55.13,3.92,3.92,0,0,0,.78-.14c.61-.15,1.46-.36,2-.5.3-.09.29-.09.54-.4a.56.56,0,0,1,.42-.2,2.91,2.91,0,0,1,1.17.44c.56.33,1,.65,1,1s-.14.33-.41.47-.34.26-.54.69a16.74,16.74,0,0,1-1.14,2,5.36,5.36,0,0,1,2.2.62,2.13,2.13,0,0,1,1.28,1.7.91.91,0,0,1-.9,1c-.56,0-.81-.24-1.2-1a4.6,4.6,0,0,0-1.61-2A12.66,12.66,0,0,1,132.17,152.71Z" class="cls-5"/><path data-cppathid="10040" transform="translate(0 -0.23)" d="M145.9,145.48c.26-.06.28-.1.43-.36a.55.55,0,0,1,.38-.2,2.68,2.68,0,0,1,1.11.49c.49.32.8.61.82.93a.51.51,0,0,1-.31.43c-.26.12-.31.24-.47.61a13.15,13.15,0,0,1-3.4,5.12,11.59,11.59,0,0,1-4.57,2.52l-.2.06c-.07,0-.12,0-.12-.08a.13.13,0,0,1,.06-.12,15.25,15.25,0,0,0,4-3.31,13.69,13.69,0,0,0,2.54-4.52,2.93,2.93,0,0,0,.13-.63c0-.07,0-.09-.12-.08a1.9,1.9,0,0,0-.36.09l-.46.18a1.37,1.37,0,0,1-.46.15,1.4,1.4,0,0,1-.67-.18,9.69,9.69,0,0,1-1.21,1.71,7.64,7.64,0,0,1-2.66,2.12c-.1.05-.17,0-.17-.06s0-.07,0-.11A17.83,17.83,0,0,0,142,147.7a16.39,16.39,0,0,0,1.22-2.77,2.39,2.39,0,0,0,.17-.77.35.35,0,0,0-.2-.31,1.72,1.72,0,0,0-.27-.13c-.07,0-.12-.06-.12-.1s0-.09.09-.13a1.34,1.34,0,0,1,.61-.25,3.09,3.09,0,0,1,1.14.43c.44.26.67.48.69.85,0,.21-.07.28-.24.47a1.94,1.94,0,0,0-.38.66.93.93,0,0,0-.09.2C144.92,145.79,145.5,145.6,145.9,145.48Z" class="cls-5"/><path data-cppathid="10041" transform="translate(0 -0.23)" d="M108.29,123.17c-1.1.06-4.68-5-5.25-15.49l-1.38-25.52,45.17-2.44s1,10.41,1.56,21.49c.39,7.1-.82,10.22-7.07,14.08C130.68,121.86,108.29,123.17,108.29,123.17Z" class="cls-14"/><path data-cppathid="10042" transform="translate(0 -0.23)" d="M108.05,123.46c-1.11.06-4.69-5-5.26-15.5l-1.38-25.51L146.59,80s1,10.42,1.56,21.49c.38,7.1-.82,10.22-7.07,14.08C130.43,122.14,108.05,123.46,108.05,123.46Z" class="cls-3"/><path data-cppathid="10043" transform="translate(0 -0.23)" d="M129,120a13.57,13.57,0,0,0,6.69-3.87,10.07,10.07,0,0,0,2.61-5.32,19.37,19.37,0,0,0,6.54-.75,5.75,5.75,0,0,0,3.63-3s-1.74,5-5.87,7.53C137.27,117.84,129,120,129,120Z" class="cls-15"/><path data-cppathid="10044" transform="translate(0 -0.23)" d="M129.18,120a13.57,13.57,0,0,0,6.69-3.87,10,10,0,0,0,2.61-5.32,19.44,19.44,0,0,0,6.55-.75,5.77,5.77,0,0,0,3.62-3s-1.73,5-5.86,7.53C137.48,117.86,129.18,120,129.18,120Z" class="cls-3"/><path data-cppathid="10045" transform="translate(0 -0.23)" d="M109.44,101.93l-.08,0a.09.09,0,0,1-.1-.1s0-.07,0-.11A14.27,14.27,0,0,0,111,99.1a13.77,13.77,0,0,0,1.07-2.79,2.41,2.41,0,0,0,.1-.68.39.39,0,0,0-.17-.34,1.85,1.85,0,0,0-.29-.17c-.06,0-.11-.06-.11-.11a.19.19,0,0,1,.09-.13,1.63,1.63,0,0,1,.65-.19,2.17,2.17,0,0,1,1.08.39c.4.26.62.46.64.7a.73.73,0,0,1-.18.39,3.12,3.12,0,0,0-.29.64.47.47,0,0,1-.06.15,8,8,0,0,0,1.28-.39.75.75,0,0,0,.5-.37.48.48,0,0,1,.41-.2,3,3,0,0,1,1,.45c.39.29.8.54.82.91a.39.39,0,0,1-.28.36c-.26.1-.3.22-.44.56-.36.8-.72,1.61-1.13,2.36a2.52,2.52,0,0,1,1.46,1.78.88.88,0,0,1-.84,1c-.39,0-.61-.19-1-.82a2.84,2.84,0,0,0-.48-.63,9.94,9.94,0,0,1-1.2,1.45,10.42,10.42,0,0,1-4.89,2.87l-.17,0c-.07,0-.11,0-.12-.08a.14.14,0,0,1,.08-.11,15.64,15.64,0,0,0,4.1-3.42,15.92,15.92,0,0,0,1.17-1.69,5.74,5.74,0,0,0-2.08-1.11A8.07,8.07,0,0,1,109.44,101.93Zm4.9-1.85a13.13,13.13,0,0,0,.77-2.07,2.93,2.93,0,0,0,.09-.55c0-.07,0-.09-.09-.08a2.34,2.34,0,0,0-.42.13,5.36,5.36,0,0,0-.62.25,1.8,1.8,0,0,1-.47.18,1,1,0,0,1-.44-.15A10.36,10.36,0,0,1,112,99.61,13,13,0,0,1,114.34,100.08Z" class="cls-5"/><path data-cppathid="10046" transform="translate(0 -0.23)" d="M124,102.91a10.12,10.12,0,0,1-4.68,2.19c-.08,0-.14,0-.14-.07a.12.12,0,0,1,.09-.12,14,14,0,0,0,3.88-2.89,12.55,12.55,0,0,0,2.72-4.31,3.69,3.69,0,0,0,.24-.79c0-.07,0-.09-.14-.09a.74.74,0,0,0-.18,0c-.45.13-1.14.37-1.57.55a3.62,3.62,0,0,0-.68.41.9.9,0,0,1-.56.27,1.51,1.51,0,0,1-.88-.46c-.35-.33-.69-.62-.71-1a1.3,1.3,0,0,1,0-.37c0-.1.06-.15.1-.15a.24.24,0,0,1,.18.08,2.22,2.22,0,0,0,.43.24,1.34,1.34,0,0,0,.55.13,4.4,4.4,0,0,0,.78-.15c.61-.14,1.45-.35,2-.49.3-.09.29-.09.54-.4a.56.56,0,0,1,.42-.2,2.91,2.91,0,0,1,1.17.44c.55.33,1,.64,1,1s-.14.33-.41.47-.34.25-.54.69a16.74,16.74,0,0,1-1.14,2,5.21,5.21,0,0,1,2.2.62,2.13,2.13,0,0,1,1.28,1.7.9.9,0,0,1-.9,1c-.56,0-.81-.23-1.2-1a4.7,4.7,0,0,0-1.61-2A12.42,12.42,0,0,1,124,102.91Z" class="cls-5"/><path data-cppathid="10047" transform="translate(0 -0.23)" d="M137.75,95.69c.26-.06.28-.1.43-.36a.52.52,0,0,1,.38-.2,2.76,2.76,0,0,1,1.11.48c.49.33.8.62.82.94a.48.48,0,0,1-.31.42c-.26.13-.31.25-.47.62a13.22,13.22,0,0,1-3.4,5.12,11.59,11.59,0,0,1-4.57,2.52.84.84,0,0,1-.2,0c-.07,0-.12,0-.12-.07a.12.12,0,0,1,.06-.12,15.45,15.45,0,0,0,4-3.31A13.79,13.79,0,0,0,138,97.26a2.88,2.88,0,0,0,.13-.64c0-.07,0-.08-.12-.08l-.36.1a4.28,4.28,0,0,1-.46.17,1.41,1.41,0,0,1-.46.16,1.53,1.53,0,0,1-.67-.18,9.69,9.69,0,0,1-1.21,1.71,7.73,7.73,0,0,1-2.66,2.12c-.1,0-.17,0-.17-.06s0-.07.05-.12a17.2,17.2,0,0,0,1.77-2.53A16.14,16.14,0,0,0,135,95.13a2.28,2.28,0,0,0,.17-.76.35.35,0,0,0-.2-.31,1.72,1.72,0,0,0-.27-.13c-.07,0-.12-.06-.12-.11s0-.08.09-.13a1.45,1.45,0,0,1,.6-.24,2.9,2.9,0,0,1,1.15.43c.43.26.67.48.69.85,0,.2-.07.28-.24.47a2,2,0,0,0-.38.65,1.21,1.21,0,0,0-.09.2C136.77,96,137.35,95.81,137.75,95.69Z" class="cls-5"/><path data-cppathid="10048" transform="translate(0 -0.23)" d="M32.72,3.59h10.7l.24-.07L45,4.84l-2.1,3.68a22.69,22.69,0,0,1-1.33,1.87q2.41,2.34,3.36,3.36c.41.42,1.32,1.48,2.73,3.2l-1.8,1.41A25.82,25.82,0,0,0,44,15.78q-1.87-2.19-3.59-3.9a31.5,31.5,0,0,1-3.91,3.67,24.35,24.35,0,0,1-4.38,2.65,10.43,10.43,0,0,0-.62-1,1.49,1.49,0,0,1-.27-.35,1.45,1.45,0,0,0-.51-.43,24.43,24.43,0,0,0,6.72-4.14,29.35,29.35,0,0,0,5-6.88H32.72Z" class="cls-16"/><path data-cppathid="10049" transform="translate(0 -0.23)" d="M49.52,4h13l.24-.15,1.41,1.33a34,34,0,0,1-2.66,6.17,16.59,16.59,0,0,1-3.44,4,20.67,20.67,0,0,1-6.25,3.36,5.37,5.37,0,0,0-.47-1,1.93,1.93,0,0,0-.23-.36c-.11-.12-.26-.29-.47-.5a22.46,22.46,0,0,0,4.22-1.72,12.74,12.74,0,0,0,2.89-2.19A15.65,15.65,0,0,0,60,9.84a41.31,41.31,0,0,0,1.72-4H49.52ZM64.75.23a2.1,2.1,0,0,1,1.56.63,2,2,0,0,1,.63,1.48,2.14,2.14,0,0,1-2.19,2.19,2,2,0,0,1-1.48-.62,2.13,2.13,0,0,1-.63-1.57A2,2,0,0,1,63.27.86,2,2,0,0,1,64.75.23Zm0,1a.94.94,0,0,0-.7.31,1.12,1.12,0,0,0-.39.78,1.11,1.11,0,0,0,.39.78,1,1,0,0,0,.7.32,1.06,1.06,0,0,0,.78-.32,1,1,0,0,0,.31-.78,1.06,1.06,0,0,0-1.09-1.09Z" class="cls-16"/><path data-cppathid="10050" transform="translate(0 -0.23)" d="M68.42,12.66V2.81h2.11v9.85ZM71,19a8.6,8.6,0,0,0-1-1.87A17.1,17.1,0,0,0,73.19,16a5.06,5.06,0,0,0,1.87-1.41,4.36,4.36,0,0,0,1.17-1.88,20.14,20.14,0,0,0,.4-4.37V2h2v7a11.4,11.4,0,0,1-1.49,6.4C76.13,16.82,74.07,18.05,71,19Z" class="cls-16"/><path data-cppathid="10051" transform="translate(0 -0.23)" d="M95.38,5.94a3.85,3.85,0,0,0,.62.78,3.21,3.21,0,0,0,.86.7,44.11,44.11,0,0,1-4,4.38,36.79,36.79,0,0,1-4.46,3.43,53.39,53.39,0,0,1-6.09,3.21l-1.1-2.19a22.57,22.57,0,0,0,3.91-1.56A32.88,32.88,0,0,0,89,12.42a28.28,28.28,0,0,0,3.28-2.81A31.13,31.13,0,0,0,95.38,5.94ZM87.25,6,85.84,7.66q-1.71-1.56-2.34-2A5.63,5.63,0,0,0,83,5.2c-.26-.19-.54-.38-.86-.59s-.57-.39-.78-.55L82.56,2.5a14,14,0,0,1,1.53.94l.89.62A29.43,29.43,0,0,1,87.25,6Z" class="cls-16"/><path data-cppathid="10052" transform="translate(0 -0.23)" d="M99.13,18.91V1.56h2.18V7.11c2.35.83,3.86,1.41,4.53,1.72s1.9.94,4,2l-1.17,2q-1.8-1.17-3.75-2.19a30.12,30.12,0,0,0-3.6-1.4v9.69Z" class="cls-16"/><path data-cppathid="10053" transform="translate(0 -0.23)" d="M120.69,18.44a8.41,8.41,0,0,0-.86-1.8,15,15,0,0,0,3.51-1.09,5.7,5.7,0,0,0,2.27-2,6,6,0,0,0,.86-3.29,5.55,5.55,0,0,0-1.41-4A5.75,5.75,0,0,0,121,4.61a37.88,37.88,0,0,1-1.87,7.19,13.75,13.75,0,0,1-2.58,4.29,1.79,1.79,0,0,1-1.49.71A2.67,2.67,0,0,1,113,15.55a7.15,7.15,0,0,1-1.25-4.3,7.63,7.63,0,0,1,2.5-5.78,9.78,9.78,0,0,1,10.55-1.41,5.82,5.82,0,0,1,2.11,1.41,6.45,6.45,0,0,1,1.25,2.11,9.75,9.75,0,0,1,.39,2.58,7.8,7.8,0,0,1-1.09,4.14,7.33,7.33,0,0,1-3,2.73A11.15,11.15,0,0,1,120.69,18.44ZM119.13,4.77a7.18,7.18,0,0,0-4.3,2.34,6.63,6.63,0,0,0-1.33,4.06,5.26,5.26,0,0,0,.7,2.89,1.13,1.13,0,0,0,.94.71.69.69,0,0,0,.55-.32,12.79,12.79,0,0,0,1.87-3.59A31.32,31.32,0,0,0,119.13,4.77Z" class="cls-16"/><path data-cppathid="10054" transform="translate(0 -0.23)" d="M139.05,4.45h5.86l.15-.07,1,1.09L144,9.92a15.36,15.36,0,0,1-1.72,2.42,17.77,17.77,0,0,1-2.42,2.58,23.46,23.46,0,0,1-3.36,2.35,30,30,0,0,1-3.67,1.64,9.11,9.11,0,0,0-.47-.94,5.63,5.63,0,0,0-.78-.78,21.92,21.92,0,0,0,4.45-2,22.51,22.51,0,0,0,3.59-2.65,31.86,31.86,0,0,0-3.67-2.81l1.17-1.33q2.26,1.49,3.75,2.65c.63-.88,1.12-1.64,1.49-2.26a16.18,16.18,0,0,0,1.25-2.74H138c-.94,1.31-1.56,2.17-1.87,2.58a17.84,17.84,0,0,1-1.57,1.41,13.6,13.6,0,0,1-2.73,2,4.42,4.42,0,0,0-1.25-1.64,18.11,18.11,0,0,0,3-2.11A11.38,11.38,0,0,0,136,5.62,22.55,22.55,0,0,0,138,1.72l2.11.7Z" class="cls-16"/><path data-cppathid="10055" transform="translate(0 -0.23)" d="M149.91,3.59h10.7l.23-.07,1.33,1.32-2.11,3.68a20.41,20.41,0,0,1-1.33,1.87q2.43,2.34,3.36,3.36c.42.42,1.33,1.48,2.74,3.2L163,18.36a27.52,27.52,0,0,0-1.87-2.58q-1.87-2.19-3.6-3.9a32.32,32.32,0,0,1-3.9,3.67,24.35,24.35,0,0,1-4.38,2.65,10.43,10.43,0,0,0-.62-1,1.87,1.87,0,0,1-.28-.35,1.31,1.31,0,0,0-.5-.43,24.21,24.21,0,0,0,6.71-4.14,29.07,29.07,0,0,0,5-6.88h-9.68Z" class="cls-16"/><path data-cppathid="10056" transform="translate(0 -0.23)" d="M175.22,2.5,173.89,5h5.86l.31-.16,1.25,1.33q-1.8,4.14-2.26,4.92A12.66,12.66,0,0,1,176.86,14a14.73,14.73,0,0,1-3.28,2.58,25.28,25.28,0,0,1-4.69,2,5.09,5.09,0,0,0-1.17-1.8,28.79,28.79,0,0,0,4.14-1.49,10.81,10.81,0,0,0,3-2.11,14.71,14.71,0,0,0,2.26-2.81,29.62,29.62,0,0,0,1.64-3.67H173a24.64,24.64,0,0,1-2.26,3.05,18.43,18.43,0,0,1-2.66,2.58c-.26-.32-.44-.52-.55-.63a3.74,3.74,0,0,0-.93-.7,17.58,17.58,0,0,0,2.11-1.88c.41-.47,1-1.17,1.71-2.11A22.43,22.43,0,0,0,172,4.22a19,19,0,0,0,1.09-2.5Z" class="cls-16"/><path data-cppathid="10057" transform="translate(0 -0.23)" d="M12.6,228.78c-1.1.16-5.11-4.51-6.64-15L2.28,188.53,47.05,182s1.9,10.29,3.5,21.26c1,7,.11,10.25-5.77,14.66C34.77,225.44,12.6,228.78,12.6,228.78Z" class="cls-17"/><path data-cppathid="10058" transform="translate(0 -0.23)" d="M12.38,229.08c-1.09.16-5.11-4.51-6.64-15L2.06,188.84l44.77-6.53s1.9,10.29,3.5,21.27c1,7,.11,10.24-5.77,14.66C34.55,225.74,12.38,229.08,12.38,229.08Z" class="cls-3"/><path data-cppathid="10059" transform="translate(0 -0.23)" d="M32.9,223.77a13.59,13.59,0,0,0,6.32-4.46,10.07,10.07,0,0,0,2.11-5.54,19.32,19.32,0,0,0,6.45-1.34,5.73,5.73,0,0,0,3.34-3.3s-1.27,5.17-5.16,8C41,220.84,32.9,223.77,32.9,223.77Z" class="cls-18"/><path data-cppathid="10060" transform="translate(0 -0.23)" d="M33.11,223.76a13.59,13.59,0,0,0,6.32-4.46,10,10,0,0,0,2.12-5.53A19.65,19.65,0,0,0,48,212.43a5.77,5.77,0,0,0,3.34-3.3s-1.28,5.16-5.16,8C41.19,220.84,33.11,223.76,33.11,223.76Z" class="cls-3"/><path data-cppathid="10061" transform="translate(0 -0.23)" d="M11.41,208s-.05,0-.08,0a.09.09,0,0,1-.11-.08.13.13,0,0,1,0-.12,13.23,13.23,0,0,0,1.43-2.8,12.9,12.9,0,0,0,.81-2.88,2.15,2.15,0,0,0,0-.68.39.39,0,0,0-.2-.33A1.71,1.71,0,0,0,13,201c-.06,0-.11,0-.12-.09a.21.21,0,0,1,.08-.14,1.53,1.53,0,0,1,.63-.25,2.14,2.14,0,0,1,1.11.29c.42.22.66.4.7.64a.65.65,0,0,1-.14.4,2.78,2.78,0,0,0-.23.67l-.05.15a8.87,8.87,0,0,0,1.24-.51.77.77,0,0,0,.47-.4.48.48,0,0,1,.39-.25,3.73,3.73,0,0,1,1,.36c.41.26.84.48.9.84a.39.39,0,0,1-.24.38c-.26.13-.28.24-.4.6-.27.83-.56,1.67-.9,2.45a2.53,2.53,0,0,1,1.61,1.64.88.88,0,0,1-.74,1.11c-.39.06-.63-.13-1-.73a3,3,0,0,0-.54-.58,9.86,9.86,0,0,1-1.06,1.55,10.56,10.56,0,0,1-4.61,3.31l-.17.05c-.07,0-.11,0-.12-.07a.11.11,0,0,1,.07-.12,15.65,15.65,0,0,0,3.76-3.78,13.28,13.28,0,0,0,1-1.79,5.77,5.77,0,0,0-2.17-.91A8.26,8.26,0,0,1,11.41,208Zm4.7-2.28a11.85,11.85,0,0,0,.58-2.14,2.49,2.49,0,0,0,0-.56c0-.07,0-.08-.09-.07a3.08,3.08,0,0,0-.42.18,6.4,6.4,0,0,0-.59.29,1.73,1.73,0,0,1-.45.23.88.88,0,0,1-.45-.11,9.34,9.34,0,0,1-1,1.91A12.28,12.28,0,0,1,16.11,205.69Z" class="cls-5"/><path data-cppathid="10062" transform="translate(0 -0.23)" d="M26,207.63a10.15,10.15,0,0,1-4.47,2.6.12.12,0,0,1-.15-.06.16.16,0,0,1,.08-.13,13.81,13.81,0,0,0,3.61-3.22,12.5,12.5,0,0,0,2.31-4.55,3,3,0,0,0,.17-.8c0-.07-.06-.09-.14-.08l-.18.06c-.44.17-1.1.47-1.51.68a3.45,3.45,0,0,0-.64.48,1,1,0,0,1-.53.32,1.44,1.44,0,0,1-.92-.38c-.38-.3-.75-.55-.8-.89a1.18,1.18,0,0,1,0-.37c0-.1.05-.14.09-.15a.24.24,0,0,1,.18.06,2.51,2.51,0,0,0,.45.2,1.36,1.36,0,0,0,.56.08,5.89,5.89,0,0,0,.77-.21c.59-.2,1.41-.49,1.91-.68.29-.11.28-.11.5-.44a.55.55,0,0,1,.4-.24,2.89,2.89,0,0,1,1.21.33c.58.28,1.06.55,1.12.94s-.11.34-.37.51-.31.28-.47.73a19.8,19.8,0,0,1-.95,2.14,5.36,5.36,0,0,1,2.24.42,2.14,2.14,0,0,1,1.43,1.58.9.9,0,0,1-.8,1.09c-.56.08-.83-.16-1.3-.92a4.64,4.64,0,0,0-1.77-1.8A13,13,0,0,1,26,207.63Z" class="cls-5"/><path data-cppathid="10063" transform="translate(0 -0.23)" d="M39,199.19c.25-.08.26-.12.39-.39a.52.52,0,0,1,.36-.24,2.76,2.76,0,0,1,1.15.38c.52.28.86.54.9.86a.49.49,0,0,1-.27.45c-.25.15-.29.27-.42.66a13.13,13.13,0,0,1-2.92,5.41,11.6,11.6,0,0,1-4.31,2.92l-.21.07a.1.1,0,0,1-.12-.07.13.13,0,0,1,0-.12,15.29,15.29,0,0,0,3.65-3.66,13.51,13.51,0,0,0,2.11-4.72,3.89,3.89,0,0,0,.08-.65c0-.07,0-.08-.13-.07l-.35.13-.44.22a1.36,1.36,0,0,1-.44.19,1.56,1.56,0,0,1-.69-.11,10,10,0,0,1-1,1.8,7.66,7.66,0,0,1-2.46,2.36c-.09.06-.17,0-.17-.05a.11.11,0,0,1,0-.11,18.54,18.54,0,0,0,1.53-2.69,17,17,0,0,0,1-2.87,2.87,2.87,0,0,0,.1-.78.37.37,0,0,0-.23-.3l-.28-.1c-.08,0-.13-.05-.13-.09s0-.09.08-.14a1.35,1.35,0,0,1,.58-.3,2.9,2.9,0,0,1,1.18.33c.45.21.71.42.76.78s0,.29-.2.49a2.22,2.22,0,0,0-.32.69c0,.06,0,.13-.07.21C38.09,199.58,38.65,199.35,39,199.19Z" class="cls-5"/><path data-cppathid="10064" transform="translate(0 -0.23)" d="M61.92,222.15c-1.11-.05-4.16-5.4-3.67-16s1.2-25.52,1.2-25.52l45.19,2.12s-.09,10.47-.61,21.55c-.33,7.1-.46,17.29-.46,17.29Z" class="cls-19"/><path data-cppathid="10065" transform="translate(0 -0.23)" d="M61.65,222.41c-1.11,0-4.17-5.4-3.67-15.95s1.2-25.52,1.2-25.52l45.19,2.12s-.09,10.46-.61,21.54c-.33,7.11-.46,17.29-.46,17.29Z" class="cls-3"/><path data-cppathid="10066" transform="translate(0 -0.23)" d="M116.08,224.61c-1.11,0-4.69-5-5.26-15.5l-1.38-25.52,45.18-2.44s1,10.42,1.56,21.49c.38,7.1-.82,10.22-7.07,14.08C138.46,223.29,116.08,224.61,116.08,224.61Z" class="cls-20"/><path data-cppathid="10067" transform="translate(0 -0.23)" d="M115.83,224.89c-1.1.06-4.68-5-5.25-15.5l-1.38-25.51,45.17-2.45s1,10.42,1.57,21.49c.38,7.1-.83,10.22-7.08,14.08C138.22,223.57,115.83,224.89,115.83,224.89Z" class="cls-3"/><path data-cppathid="10068" transform="translate(0 -0.23)" d="M136.75,221.45a13.53,13.53,0,0,0,6.69-3.87,10,10,0,0,0,2.61-5.32,19.44,19.44,0,0,0,6.55-.75,5.74,5.74,0,0,0,3.62-3s-1.73,5-5.86,7.53C145.05,219.27,136.75,221.45,136.75,221.45Z" class="cls-21"/><path data-cppathid="10069" transform="translate(0 -0.23)" d="M137,221.47a13.67,13.67,0,0,0,6.7-3.87,10.1,10.1,0,0,0,2.61-5.32,19.37,19.37,0,0,0,6.54-.75,5.81,5.81,0,0,0,3.63-3s-1.74,5-5.87,7.53C145.27,219.29,137,221.47,137,221.47Z" class="cls-3"/><path data-cppathid="10070" transform="translate(0 -0.23)" d="M11.66,277.14c-1.1-.06-4.16-5.4-3.66-15.95s1.2-25.53,1.2-25.53l45.19,2.13s-.09,10.46-.61,21.54c-.34,7.1-.46,17.29-.46,17.29Z" class="cls-22"/><path data-cppathid="10071" transform="translate(0 -0.23)" d="M11.39,277.39c-1.1-.05-4.16-5.4-3.66-15.94s1.2-25.53,1.2-25.53l45.19,2.13s-.09,10.46-.62,21.54c-.33,7.1-.45,17.29-.45,17.29Z" class="cls-3"/><path data-cppathid="10072" transform="translate(0 -0.23)" d="M14.6,255.67l-.08,0a.09.09,0,0,1-.09-.1.14.14,0,0,1,.06-.11A14,14,0,0,0,16.43,253a12.83,12.83,0,0,0,1.34-2.67,2.32,2.32,0,0,0,.17-.66.37.37,0,0,0-.13-.36,1.72,1.72,0,0,0-.27-.2c-.06,0-.1-.07-.1-.11a.18.18,0,0,1,.11-.12,1.54,1.54,0,0,1,.66-.13,2,2,0,0,1,1,.5c.38.3.58.52.57.76a.69.69,0,0,1-.22.37,3.25,3.25,0,0,0-.35.61.61.61,0,0,1-.07.14,10.32,10.32,0,0,0,1.31-.26.83.83,0,0,0,.54-.32.52.52,0,0,1,.42-.16,3.27,3.27,0,0,1,.95.55c.36.33.74.62.72,1a.38.38,0,0,1-.31.33c-.27.08-.32.19-.5.51-.43.77-.87,1.53-1.35,2.24a2.52,2.52,0,0,1,1.27,1.91c0,.59-.36,1-.95.95-.39,0-.59-.25-.86-.91a3.05,3.05,0,0,0-.42-.68,10.82,10.82,0,0,1-6.5,3.69.59.59,0,0,1-.17,0c-.07,0-.11,0-.11-.08a.14.14,0,0,1,.09-.11,15.52,15.52,0,0,0,4.42-3,14.25,14.25,0,0,0,1.34-1.57,5.87,5.87,0,0,0-2-1.31A8.15,8.15,0,0,1,14.6,255.67Zm5.06-1.35a12.68,12.68,0,0,0,1-2,3.86,3.86,0,0,0,.15-.54c0-.07,0-.08-.08-.09a4.31,4.31,0,0,0-.44.09,6.44,6.44,0,0,0-.64.19,1.83,1.83,0,0,1-.48.13.91.91,0,0,1-.43-.19,9.9,9.9,0,0,1-1.33,1.69A12.23,12.23,0,0,1,19.66,254.32Z" class="cls-5"/><path data-cppathid="10073" transform="translate(0 -0.23)" d="M29,258.11a10.25,10.25,0,0,1-4.87,1.71c-.09,0-.14-.05-.14-.09s0-.09.1-.11a13.78,13.78,0,0,0,4.16-2.49,12.4,12.4,0,0,0,3.13-4,3.29,3.29,0,0,0,.32-.76c0-.07,0-.1-.12-.1a.68.68,0,0,0-.19,0c-.46.09-1.17.25-1.61.38a3,3,0,0,0-.72.35.94.94,0,0,1-.58.21,1.46,1.46,0,0,1-.83-.54c-.32-.37-.63-.69-.61-1a1.08,1.08,0,0,1,.07-.36c0-.1.08-.14.12-.14a.28.28,0,0,1,.16.1,2.3,2.3,0,0,0,.41.28,1.28,1.28,0,0,0,.54.18,4.25,4.25,0,0,0,.78-.06c.63-.08,1.49-.21,2-.3.31,0,.3,0,.58-.34a.63.63,0,0,1,.44-.16,3,3,0,0,1,1.12.56c.52.39.94.75.92,1.14s-.17.31-.46.43-.36.22-.6.63a16.67,16.67,0,0,1-1.34,1.91,5.25,5.25,0,0,1,2.12.84A2.17,2.17,0,0,1,35,258.18a.9.9,0,0,1-1,.92c-.56,0-.79-.31-1.1-1.14a4.7,4.7,0,0,0-1.4-2.12A12.58,12.58,0,0,1,29,258.11Z" class="cls-5"/><path data-cppathid="10074" transform="translate(0 -0.23)" d="M43.4,252.31c.27,0,.28-.07.46-.32a.53.53,0,0,1,.4-.16,2.67,2.67,0,0,1,1.06.6c.46.37.73.69.72,1a.5.5,0,0,1-.35.39c-.28.1-.34.21-.54.57a13.26,13.26,0,0,1-3.89,4.75,11.56,11.56,0,0,1-4.8,2,.86.86,0,0,1-.21,0c-.07,0-.11-.05-.11-.09a.11.11,0,0,1,.08-.11,15.66,15.66,0,0,0,4.27-2.9,13.63,13.63,0,0,0,3-4.23,3,3,0,0,0,.19-.63c0-.07,0-.08-.1-.09a3.18,3.18,0,0,0-.37.06c-.14,0-.34.09-.48.13a1.28,1.28,0,0,1-.47.1,1.45,1.45,0,0,1-.65-.24,9.71,9.71,0,0,1-1.38,1.58,7.87,7.87,0,0,1-2.86,1.84c-.1,0-.17,0-.17-.08a.17.17,0,0,1,.07-.11,17.65,17.65,0,0,0,2-2.34,16.24,16.24,0,0,0,1.5-2.64,2.49,2.49,0,0,0,.25-.74.38.38,0,0,0-.17-.33l-.26-.16c-.07,0-.11-.07-.11-.11a.18.18,0,0,1,.11-.12,1.41,1.41,0,0,1,.62-.19,2.91,2.91,0,0,1,1.1.55c.41.3.62.55.6.91s-.1.27-.29.45a1.87,1.87,0,0,0-.44.61.86.86,0,0,0-.11.19C42.4,252.51,43,252.39,43.4,252.31Z" class="cls-5"/><path data-cppathid="10075" transform="translate(0 -0.23)" d="M58.84,275.14c-1.07-.28-3-6.15-.28-16.36S65,234.06,65,234.06l43.76,11.45s-2.26,10.22-5.07,20.95c-1.8,6.88-4,16.82-4,16.82Z" class="cls-23"/><path data-cppathid="10076" transform="translate(0 -0.23)" d="M58.52,275.34c-1.07-.28-3-6.15-.28-16.37s6.48-24.72,6.48-24.72l43.76,11.46s-2.26,10.22-5.07,21c-1.8,6.88-4,16.81-4,16.81Z" class="cls-3"/><path data-cppathid="10077" transform="translate(0 -0.23)" d="M65.64,255.25h-.09a.09.09,0,0,1-.07-.12.2.2,0,0,1,.08-.09A13.65,13.65,0,0,0,68,253a12.91,12.91,0,0,0,1.87-2.33,2.47,2.47,0,0,0,.31-.62.39.39,0,0,0-.06-.38,1.26,1.26,0,0,0-.23-.24.18.18,0,0,1-.06-.14.15.15,0,0,1,.12-.09,1.54,1.54,0,0,1,.68,0,2.12,2.12,0,0,1,.9.7c.31.37.46.63.4.86s-.16.22-.28.32a3,3,0,0,0-.48.52.38.38,0,0,1-.1.12,8.19,8.19,0,0,0,1.34,0,.8.8,0,0,0,.59-.19.48.48,0,0,1,.45-.07,3,3,0,0,1,.81.73c.29.39.6.76.5,1.12a.37.37,0,0,1-.37.26c-.28,0-.35.11-.6.39-.57.66-1.17,1.32-1.78,1.91a2.54,2.54,0,0,1,.84,2.13.88.88,0,0,1-1.12.74c-.38-.1-.52-.37-.66-1.07a3,3,0,0,0-.26-.75,10.9,10.9,0,0,1-7.13,2.26.42.42,0,0,1-.17,0c-.06,0-.1,0-.08-.1s0-.08.11-.09a15.42,15.42,0,0,0,4.94-2,13.28,13.28,0,0,0,1.63-1.25,5.75,5.75,0,0,0-1.64-1.69A8.32,8.32,0,0,1,65.64,255.25Zm5.22-.27a13,13,0,0,0,1.37-1.74,3.5,3.5,0,0,0,.26-.5c0-.07,0-.09-.06-.1a2.22,2.22,0,0,0-.45,0,5.07,5.07,0,0,0-.66,0,1.88,1.88,0,0,1-.5,0,.85.85,0,0,1-.38-.28,9,9,0,0,1-1.65,1.38A12.7,12.7,0,0,1,70.86,255Z" class="cls-5"/><path data-cppathid="10078" transform="translate(0 -0.23)" d="M79.22,260.63a10.08,10.08,0,0,1-5.12.65c-.08,0-.13-.07-.11-.11a.12.12,0,0,1,.12-.09,14.08,14.08,0,0,0,4.58-1.56,12.62,12.62,0,0,0,3.9-3.28,2.9,2.9,0,0,0,.46-.68q0-.09-.09-.12a.58.58,0,0,0-.19,0c-.47,0-1.2,0-1.66,0a2.9,2.9,0,0,0-.77.19.94.94,0,0,1-.62.08,1.47,1.47,0,0,1-.7-.7c-.23-.42-.47-.8-.38-1.13a1.07,1.07,0,0,1,.15-.34c0-.09.1-.12.14-.1a.22.22,0,0,1,.14.12,2.47,2.47,0,0,0,.34.36,1.23,1.23,0,0,0,.49.29,3.92,3.92,0,0,0,.78.1c.63,0,1.5.11,2,.13.31,0,.3,0,.63-.21a.6.6,0,0,1,.47-.07,3,3,0,0,1,1,.78c.42.49.76.92.66,1.3s-.23.28-.53.33-.4.14-.73.49a16.87,16.87,0,0,1-1.7,1.59,5.29,5.29,0,0,1,1.9,1.27,2.13,2.13,0,0,1,.7,2,.9.9,0,0,1-1.17.69c-.54-.14-.7-.47-.83-1.35a4.72,4.72,0,0,0-.93-2.36A12.36,12.36,0,0,1,79.22,260.63Z" class="cls-5"/><path data-cppathid="10079" transform="translate(0 -0.23)" d="M94.5,257.94c.27,0,.29,0,.52-.21a.53.53,0,0,1,.43-.08,2.78,2.78,0,0,1,.9.8c.37.46.58.83.5,1.14a.51.51,0,0,1-.43.31c-.29,0-.37.14-.64.44a13,13,0,0,1-4.8,3.84,11.43,11.43,0,0,1-5.11,1h-.21c-.07,0-.1-.07-.09-.11a.11.11,0,0,1,.1-.09,15.7,15.7,0,0,0,4.78-2,13.61,13.61,0,0,0,3.79-3.53,4.59,4.59,0,0,0,.32-.56c0-.07,0-.09-.09-.11a2.51,2.51,0,0,0-.37,0,4.19,4.19,0,0,1-.5,0,1.3,1.3,0,0,1-.48,0,1.55,1.55,0,0,1-.58-.37,10.19,10.19,0,0,1-1.68,1.25,7.78,7.78,0,0,1-3.18,1.21c-.1,0-.16-.06-.14-.11s0-.06.08-.09a18.56,18.56,0,0,0,2.46-1.88,16.22,16.22,0,0,0,2-2.27,2.56,2.56,0,0,0,.4-.68.36.36,0,0,0-.1-.35,2.36,2.36,0,0,0-.22-.21c-.06,0-.09-.09-.08-.13s.06-.07.13-.1a1.36,1.36,0,0,1,.65-.05,3.16,3.16,0,0,1,1,.76c.33.38.49.67.4,1s-.16.25-.38.38a1.83,1.83,0,0,0-.56.5l-.15.17C93.48,257.93,94.08,257.93,94.5,257.94Z" class="cls-5"/><path data-cppathid="10080" transform="translate(0 -0.23)" d="M111.72,279.87c-1.1.06-4.68-5-5.25-15.5l-1.38-25.52,45.17-2.44s1,10.42,1.56,21.49c.39,7.1-.82,10.22-7.07,14.08C134.1,278.55,111.72,279.87,111.72,279.87Z" class="cls-24"/><path data-cppathid="10081" transform="translate(0 -0.23)" d="M111.48,280.15c-1.11.06-4.69-4.95-5.26-15.5l-1.38-25.51L150,236.69s1,10.42,1.56,21.5c.38,7.1-.82,10.21-7.07,14.07C133.86,278.83,111.48,280.15,111.48,280.15Z" class="cls-3"/><path data-cppathid="10082" transform="translate(0 -0.23)" d="M132.39,276.72a13.67,13.67,0,0,0,6.7-3.87,10.11,10.11,0,0,0,2.61-5.33,19.24,19.24,0,0,0,6.54-.74,5.77,5.77,0,0,0,3.63-3s-1.74,5-5.87,7.53C140.7,274.53,132.39,276.72,132.39,276.72Z" class="cls-25"/><path data-cppathid="10083" transform="translate(0 -0.23)" d="M132.61,276.73a13.57,13.57,0,0,0,6.69-3.87,10,10,0,0,0,2.61-5.32,19.37,19.37,0,0,0,6.54-.75,5.78,5.78,0,0,0,3.63-3s-1.74,5-5.86,7.53C140.91,274.55,132.61,276.73,132.61,276.73Z" class="cls-3"/><path data-cppathid="10084" transform="translate(0 -0.23)" d="M112.87,258.63s-.05,0-.08,0a.11.11,0,0,1-.11-.09.22.22,0,0,1,.06-.12,14,14,0,0,0,1.68-2.66,12.78,12.78,0,0,0,1.06-2.79,2.48,2.48,0,0,0,.11-.68.39.39,0,0,0-.17-.34,1.6,1.6,0,0,0-.3-.17c-.05,0-.1-.06-.1-.1a.19.19,0,0,1,.09-.13,1.36,1.36,0,0,1,.65-.19,1.94,1.94,0,0,1,1.07.39c.41.26.63.45.65.69a.73.73,0,0,1-.18.39,2.74,2.74,0,0,0-.29.65.42.42,0,0,1-.06.14,8,8,0,0,0,1.28-.39.77.77,0,0,0,.5-.36.52.52,0,0,1,.41-.21,3,3,0,0,1,1,.45c.4.29.81.55.83.91a.4.4,0,0,1-.28.37c-.26.1-.3.21-.45.55-.35.81-.71,1.61-1.12,2.37a2.51,2.51,0,0,1,1.46,1.77.87.87,0,0,1-.84,1c-.39,0-.61-.19-1-.82a2.84,2.84,0,0,0-.48-.63,9.94,9.94,0,0,1-1.2,1.45A10.57,10.57,0,0,1,112.2,263l-.17,0c-.07,0-.11,0-.12-.07a.14.14,0,0,1,.08-.12,15.59,15.59,0,0,0,4.09-3.42,13.85,13.85,0,0,0,1.18-1.69,5.82,5.82,0,0,0-2.08-1.11A8.27,8.27,0,0,1,112.87,258.63Zm4.89-1.85a12,12,0,0,0,.78-2.08,2.93,2.93,0,0,0,.09-.55c0-.07,0-.08-.09-.08a2.54,2.54,0,0,0-.42.14,4,4,0,0,0-.62.24,1.8,1.8,0,0,1-.47.18.85.85,0,0,1-.44-.15,10.36,10.36,0,0,1-1.15,1.82A11.94,11.94,0,0,1,117.76,256.78Z" class="cls-5"/><path data-cppathid="10085" transform="translate(0 -0.23)" d="M127.45,259.61a10.2,10.2,0,0,1-4.68,2.18c-.08,0-.14,0-.14-.07s0-.09.09-.12a13.8,13.8,0,0,0,3.88-2.89,12.45,12.45,0,0,0,2.72-4.31,3,3,0,0,0,.23-.79c0-.07,0-.09-.13-.09l-.18,0c-.45.14-1.14.37-1.57.55a3.62,3.62,0,0,0-.68.41.9.9,0,0,1-.56.27,1.44,1.44,0,0,1-.88-.45c-.35-.34-.69-.63-.71-1a1.3,1.3,0,0,1,0-.37c0-.1.06-.14.1-.14a.2.2,0,0,1,.17.07,2,2,0,0,0,.44.24,1.2,1.2,0,0,0,.55.13,4.18,4.18,0,0,0,.78-.14l2-.5c.3-.09.29-.09.53-.4a.58.58,0,0,1,.43-.2,3,3,0,0,1,1.17.44c.55.34,1,.65,1,1s-.14.33-.41.47-.34.26-.54.69a16.74,16.74,0,0,1-1.14,2,5.36,5.36,0,0,1,2.2.62,2.13,2.13,0,0,1,1.28,1.7.9.9,0,0,1-.9,1c-.56,0-.81-.24-1.2-1a4.68,4.68,0,0,0-1.61-2A12.72,12.72,0,0,1,127.45,259.61Z" class="cls-5"/><path data-cppathid="10086" transform="translate(0 -0.23)" d="M141.18,252.38c.26,0,.28-.1.43-.36a.55.55,0,0,1,.38-.2,2.68,2.68,0,0,1,1.11.49c.49.32.8.61.82.93a.51.51,0,0,1-.31.43c-.26.12-.31.24-.48.61a13,13,0,0,1-3.39,5.12,11.47,11.47,0,0,1-4.57,2.52l-.2.06c-.07,0-.12,0-.12-.08a.13.13,0,0,1,.06-.12,15.25,15.25,0,0,0,4-3.31,13.75,13.75,0,0,0,2.54-4.51,4.82,4.82,0,0,0,.13-.64c0-.07,0-.09-.12-.08a1.72,1.72,0,0,0-.36.09l-.46.18a1.37,1.37,0,0,1-.46.15,1.4,1.4,0,0,1-.67-.18,9.69,9.69,0,0,1-1.21,1.71,7.73,7.73,0,0,1-2.66,2.12c-.1.05-.17,0-.18-.06a.15.15,0,0,1,.06-.11,17.83,17.83,0,0,0,1.77-2.54,16.39,16.39,0,0,0,1.22-2.77,2.39,2.39,0,0,0,.17-.77.36.36,0,0,0-.2-.31,1.72,1.72,0,0,0-.27-.13c-.07,0-.12-.06-.12-.1a.21.21,0,0,1,.09-.13,1.35,1.35,0,0,1,.6-.25,3.07,3.07,0,0,1,1.15.43c.43.26.67.48.69.85,0,.21-.07.28-.24.47a1.94,1.94,0,0,0-.38.66.93.93,0,0,0-.09.2C140.2,252.69,140.78,252.5,141.18,252.38Z" class="cls-5"/><path data-cppathid="10087" transform="translate(0 -0.23)" d="M67.18,202.16a.16.16,0,0,1-.09,0,.1.1,0,0,1-.09-.1.17.17,0,0,1,.06-.11A14,14,0,0,0,69,199.5a13.37,13.37,0,0,0,1.35-2.67,2.73,2.73,0,0,0,.17-.66.38.38,0,0,0-.14-.36,1.72,1.72,0,0,0-.27-.2s-.09-.07-.09-.11a.15.15,0,0,1,.1-.12,1.56,1.56,0,0,1,.67-.13,2.06,2.06,0,0,1,1,.5c.38.3.58.52.57.76a.74.74,0,0,1-.21.37,2.8,2.8,0,0,0-.36.61.61.61,0,0,1-.07.14,8.81,8.81,0,0,0,1.31-.26.77.77,0,0,0,.54-.32.54.54,0,0,1,.43-.16,3.41,3.41,0,0,1,.94.55c.36.33.74.63.72,1a.41.41,0,0,1-.31.34c-.27.07-.31.18-.5.5-.43.77-.87,1.53-1.35,2.24a2.52,2.52,0,0,1,1.27,1.91c0,.59-.36,1-.94,1-.4,0-.6-.25-.87-.91a3.05,3.05,0,0,0-.42-.68,10.82,10.82,0,0,1-6.5,3.69.59.59,0,0,1-.17,0c-.07,0-.11,0-.11-.09a.19.19,0,0,1,.09-.11,15.29,15.29,0,0,0,4.42-3,14.25,14.25,0,0,0,1.34-1.57,5.77,5.77,0,0,0-2-1.31A8,8,0,0,1,67.18,202.16Zm5-1.34a12.68,12.68,0,0,0,1-2,2.25,2.25,0,0,0,.15-.54c0-.07,0-.08-.08-.09a3.13,3.13,0,0,0-.44.1,4.45,4.45,0,0,0-.64.18,1.74,1.74,0,0,1-.48.13,1,1,0,0,1-.43-.19A9.85,9.85,0,0,1,70,200.11,12.37,12.37,0,0,1,72.23,200.82Z" class="cls-5"/><path data-cppathid="10088" transform="translate(0 -0.23)" d="M81.58,204.61a10.25,10.25,0,0,1-4.87,1.71c-.09,0-.14,0-.14-.09s0-.09.1-.11a14,14,0,0,0,4.16-2.48,12.33,12.33,0,0,0,3.13-4,2.77,2.77,0,0,0,.32-.76c0-.07,0-.1-.12-.1l-.18,0a16.65,16.65,0,0,0-1.62.39,3,3,0,0,0-.72.34.94.94,0,0,1-.58.21,1.44,1.44,0,0,1-.83-.54c-.32-.37-.63-.69-.61-1a1.13,1.13,0,0,1,.07-.36c0-.09.08-.13.12-.13a.22.22,0,0,1,.16.09,3.3,3.3,0,0,0,.41.29,1.18,1.18,0,0,0,.54.17,3.62,3.62,0,0,0,.79-.06l2-.29c.31-.06.3-.06.58-.34a.55.55,0,0,1,.44-.16,2.94,2.94,0,0,1,1.12.56c.52.38.94.74.92,1.13s-.17.32-.46.43-.36.22-.6.63A16.67,16.67,0,0,1,84.37,202a5.4,5.4,0,0,1,2.12.85,2.13,2.13,0,0,1,1.11,1.82.91.91,0,0,1-1,.92c-.56,0-.79-.32-1.1-1.15a4.67,4.67,0,0,0-1.4-2.11A12.56,12.56,0,0,1,81.58,204.61Z" class="cls-5"/><path data-cppathid="10089" transform="translate(0 -0.23)" d="M96,198.82c.27,0,.29-.08.47-.32a.52.52,0,0,1,.4-.16,2.8,2.8,0,0,1,1,.59c.46.38.74.7.72,1a.5.5,0,0,1-.35.39c-.28.1-.34.21-.53.56a13.42,13.42,0,0,1-3.9,4.76,11.56,11.56,0,0,1-4.8,2l-.21,0a.1.1,0,0,1-.11-.09.12.12,0,0,1,.08-.11,15.4,15.4,0,0,0,4.27-2.89,13.56,13.56,0,0,0,3-4.24,3.58,3.58,0,0,0,.2-.62c0-.07,0-.08-.11-.09a1.91,1.91,0,0,0-.37.06l-.48.13a1.24,1.24,0,0,1-.47.1,1.45,1.45,0,0,1-.65-.24,10.08,10.08,0,0,1-1.38,1.57,7.77,7.77,0,0,1-2.86,1.85c-.1,0-.17,0-.17-.08a.17.17,0,0,1,.07-.11,16.45,16.45,0,0,0,2-2.35,15.06,15.06,0,0,0,1.5-2.63,2.45,2.45,0,0,0,.25-.75.38.38,0,0,0-.17-.33,2.32,2.32,0,0,0-.26-.15c-.07,0-.11-.07-.1-.12s0-.08.1-.12a1.42,1.42,0,0,1,.63-.18,3,3,0,0,1,1.09.54c.41.3.62.55.6.92,0,.21-.09.27-.28.45a1.76,1.76,0,0,0-.45.6c0,.06-.08.13-.11.2C95,199,95.56,198.89,96,198.82Z" class="cls-5"/><path data-cppathid="10090" transform="translate(0 -0.23)" d="M116.56,202.33a.19.19,0,0,1-.08,0,.09.09,0,0,1-.1-.1.17.17,0,0,1,.05-.11,13.77,13.77,0,0,0,1.68-2.66,13.2,13.2,0,0,0,1.07-2.79,2.37,2.37,0,0,0,.1-.68.37.37,0,0,0-.17-.34,1.23,1.23,0,0,0-.29-.17.15.15,0,0,1-.11-.11.17.17,0,0,1,.1-.13,1.59,1.59,0,0,1,.64-.19,2.14,2.14,0,0,1,1.08.39c.41.26.63.46.64.7a.66.66,0,0,1-.18.39,3,3,0,0,0-.28.65.61.61,0,0,1-.07.14,8.4,8.4,0,0,0,1.29-.39.8.8,0,0,0,.5-.37.49.49,0,0,1,.4-.2,3,3,0,0,1,1,.45c.39.29.8.54.82.91a.41.41,0,0,1-.28.37c-.26.09-.29.21-.44.55-.35.81-.72,1.61-1.12,2.36a2.53,2.53,0,0,1,1.45,1.78.87.87,0,0,1-.84,1c-.39,0-.61-.19-1-.82a2.57,2.57,0,0,0-.48-.63,10.78,10.78,0,0,1-6.09,4.32.68.68,0,0,1-.17,0c-.07,0-.11,0-.11-.08s0-.08.08-.11a15.59,15.59,0,0,0,4.09-3.42,15.92,15.92,0,0,0,1.17-1.69,5.74,5.74,0,0,0-2.08-1.11A8.13,8.13,0,0,1,116.56,202.33Zm4.9-1.86a13.13,13.13,0,0,0,.77-2.07,4.41,4.41,0,0,0,.1-.55c0-.07,0-.09-.09-.08a2.18,2.18,0,0,0-.43.13c-.19.07-.41.15-.62.25a1.8,1.8,0,0,1-.47.18.88.88,0,0,1-.44-.15,9.31,9.31,0,0,1-1.15,1.82A12.83,12.83,0,0,1,121.46,200.47Z" class="cls-5"/><path data-cppathid="10091" transform="translate(0 -0.23)" d="M131.14,203.3a10.08,10.08,0,0,1-4.67,2.19c-.09,0-.15,0-.15-.07a.13.13,0,0,1,.09-.12,14,14,0,0,0,3.89-2.89A12.67,12.67,0,0,0,133,198.1a3.69,3.69,0,0,0,.24-.79c0-.07-.05-.09-.13-.09a.58.58,0,0,0-.18,0c-.46.14-1.15.37-1.57.55a3.07,3.07,0,0,0-.68.41.93.93,0,0,1-.56.27,1.41,1.41,0,0,1-.88-.46c-.36-.33-.7-.62-.71-.95a1.25,1.25,0,0,1,0-.37c0-.1.06-.14.11-.15a.29.29,0,0,1,.17.08,2.55,2.55,0,0,0,.43.24,1.21,1.21,0,0,0,.56.13,4,4,0,0,0,.77-.14c.61-.15,1.46-.36,2-.5.3-.09.29-.09.54-.4a.56.56,0,0,1,.42-.2,2.94,2.94,0,0,1,1.18.44c.55.33,1,.65,1,1s-.14.33-.41.47-.34.25-.54.69a18.15,18.15,0,0,1-1.13,2,5.31,5.31,0,0,1,2.19.62,2.13,2.13,0,0,1,1.28,1.7.91.91,0,0,1-.9,1c-.55,0-.81-.24-1.2-1a4.7,4.7,0,0,0-1.61-2A12.13,12.13,0,0,1,131.14,203.3Z" class="cls-5"/><path data-cppathid="10092" transform="translate(0 -0.23)" d="M144.87,196.08c.27-.06.28-.1.43-.36a.55.55,0,0,1,.39-.2,2.74,2.74,0,0,1,1.1.48c.5.33.81.62.82.94a.51.51,0,0,1-.31.43c-.26.12-.31.24-.47.61a13.22,13.22,0,0,1-3.4,5.12,11.62,11.62,0,0,1-4.56,2.52l-.21,0c-.07,0-.12,0-.12-.07a.12.12,0,0,1,.07-.12,15.62,15.62,0,0,0,4-3.31,13.77,13.77,0,0,0,2.53-4.52,2.88,2.88,0,0,0,.13-.64c0-.07,0-.08-.11-.07a1.72,1.72,0,0,0-.36.09l-.47.18a1.3,1.3,0,0,1-.46.15,1.37,1.37,0,0,1-.66-.18,10.31,10.31,0,0,1-1.22,1.71,7.64,7.64,0,0,1-2.66,2.12c-.1.05-.17,0-.17-.06a.14.14,0,0,1,0-.11,17.83,17.83,0,0,0,1.77-2.54,15.63,15.63,0,0,0,1.22-2.77,2.39,2.39,0,0,0,.17-.77.34.34,0,0,0-.2-.31,1.72,1.72,0,0,0-.27-.13.15.15,0,0,1-.12-.11s0-.08.09-.13a1.48,1.48,0,0,1,.61-.24,3,3,0,0,1,1.14.43c.44.26.67.48.69.85,0,.21-.06.28-.24.47a2,2,0,0,0-.38.65,1,1,0,0,0-.09.21C143.89,196.38,144.47,196.2,144.87,196.08Z" class="cls-5"/><path data-cppathid="10093" transform="translate(0 -0.23)" d="M115.22,70.06c-1.1.06-4.68-5-5.25-15.5L108.59,29l45.17-2.44s1,10.42,1.57,21.49c.38,7.1-.83,10.22-7.08,14.08C137.61,68.74,115.22,70.06,115.22,70.06Z" class="cls-26"/><path data-cppathid="10094" transform="translate(0 -0.23)" d="M115,70.34c-1.11.06-4.69-5-5.26-15.5l-1.38-25.51,45.18-2.45s1,10.42,1.56,21.5c.38,7.1-.82,10.21-7.07,14.07C137.36,69,115,70.34,115,70.34Z" class="cls-3"/><path data-cppathid="10095" transform="translate(0 -0.23)" d="M135.9,66.91A13.66,13.66,0,0,0,142.59,63a10.11,10.11,0,0,0,2.61-5.33,19.24,19.24,0,0,0,6.54-.74,5.77,5.77,0,0,0,3.63-3s-1.74,5-5.87,7.53C144.2,64.72,135.9,66.91,135.9,66.91Z" class="cls-27"/><path data-cppathid="10096" transform="translate(0 -0.23)" d="M136.11,66.92a13.57,13.57,0,0,0,6.69-3.87,10,10,0,0,0,2.61-5.32A19.44,19.44,0,0,0,152,57a5.74,5.74,0,0,0,3.62-3s-1.73,5-5.86,7.53C144.41,64.74,136.11,66.92,136.11,66.92Z" class="cls-3"/><path data-cppathid="10097" transform="translate(0 -0.23)" d="M116.37,48.82s-.05,0-.08,0a.09.09,0,0,1-.1-.09s0-.07,0-.12A14,14,0,0,0,117.92,46,13.55,13.55,0,0,0,119,43.19a2.37,2.37,0,0,0,.1-.68.39.39,0,0,0-.17-.34,1.48,1.48,0,0,0-.29-.17c-.06,0-.11-.06-.11-.1a.19.19,0,0,1,.09-.13,1.36,1.36,0,0,1,.65-.19,2,2,0,0,1,1.08.39c.4.26.62.45.64.69a.73.73,0,0,1-.18.39,3.87,3.87,0,0,0-.29.65.42.42,0,0,1-.06.14,8,8,0,0,0,1.28-.39.77.77,0,0,0,.5-.36.52.52,0,0,1,.41-.21,3,3,0,0,1,1,.45c.39.29.8.55.82.91a.4.4,0,0,1-.28.37c-.26.1-.29.21-.44.56-.35.8-.72,1.6-1.13,2.36a2.51,2.51,0,0,1,1.46,1.77.87.87,0,0,1-.84,1c-.39,0-.61-.19-1-.82a2.84,2.84,0,0,0-.48-.63,9.94,9.94,0,0,1-1.2,1.45,10.52,10.52,0,0,1-4.89,2.88l-.17,0c-.07,0-.11,0-.11-.07a.12.12,0,0,1,.07-.12,15.48,15.48,0,0,0,4.1-3.42A15,15,0,0,0,120.76,48a5.74,5.74,0,0,0-2.08-1.11A8.27,8.27,0,0,1,116.37,48.82Zm4.9-1.85a12.89,12.89,0,0,0,.77-2.08,2.93,2.93,0,0,0,.09-.55c0-.07,0-.08-.08-.08a2.32,2.32,0,0,0-.43.14,4.38,4.38,0,0,0-.62.24,1.8,1.8,0,0,1-.47.18.76.76,0,0,1-.44-.15,9.81,9.81,0,0,1-1.15,1.82A12.2,12.2,0,0,1,121.27,47Z" class="cls-5"/><path data-cppathid="10098" transform="translate(0 -0.23)" d="M131,49.8A10.32,10.32,0,0,1,126.27,52c-.08,0-.14,0-.14-.08a.13.13,0,0,1,.09-.12,13.8,13.8,0,0,0,3.88-2.89,12.45,12.45,0,0,0,2.72-4.31,3.53,3.53,0,0,0,.24-.79c0-.07-.05-.09-.14-.09l-.18,0c-.45.14-1.14.37-1.57.55a3.25,3.25,0,0,0-.67.41,1,1,0,0,1-.56.27,1.43,1.43,0,0,1-.89-.45c-.35-.34-.69-.63-.71-1a1.3,1.3,0,0,1,0-.37c0-.1.06-.14.1-.14a.23.23,0,0,1,.18.07,1.78,1.78,0,0,0,.43.24,1.2,1.2,0,0,0,.55.13,3.92,3.92,0,0,0,.78-.14c.61-.15,1.46-.36,2-.5.3-.09.29-.09.54-.4a.56.56,0,0,1,.42-.2,2.91,2.91,0,0,1,1.17.44c.56.34,1,.65,1,1s-.14.33-.41.47-.34.26-.54.69a16.74,16.74,0,0,1-1.14,2,5.36,5.36,0,0,1,2.2.62,2.13,2.13,0,0,1,1.28,1.7.9.9,0,0,1-.9,1c-.56,0-.81-.24-1.2-1a4.6,4.6,0,0,0-1.61-2A12.13,12.13,0,0,1,131,49.8Z" class="cls-5"/><path data-cppathid="10099" transform="translate(0 -0.23)" d="M144.68,42.57c.26,0,.28-.1.43-.36a.55.55,0,0,1,.38-.2,2.63,2.63,0,0,1,1.11.49c.49.32.8.61.82.93a.51.51,0,0,1-.31.43c-.26.12-.31.24-.47.61a13.15,13.15,0,0,1-3.4,5.12,11.35,11.35,0,0,1-4.57,2.52l-.2.06c-.07,0-.12,0-.12-.08a.13.13,0,0,1,.06-.12,15.25,15.25,0,0,0,4-3.31,13.75,13.75,0,0,0,2.54-4.51,3,3,0,0,0,.13-.64c0-.07,0-.09-.12-.08a1.9,1.9,0,0,0-.36.09l-.46.18a1.37,1.37,0,0,1-.46.15,1.43,1.43,0,0,1-.67-.18,9.69,9.69,0,0,1-1.21,1.71,7.64,7.64,0,0,1-2.66,2.12c-.1,0-.17,0-.17-.06s0-.07,0-.11a17.83,17.83,0,0,0,1.77-2.54A16.39,16.39,0,0,0,142,42a2.39,2.39,0,0,0,.17-.77.36.36,0,0,0-.2-.31,1.72,1.72,0,0,0-.27-.13c-.07,0-.12-.06-.12-.1a.21.21,0,0,1,.09-.13,1.34,1.34,0,0,1,.61-.25,3.09,3.09,0,0,1,1.14.43c.44.26.67.49.69.85s-.07.28-.24.47a1.94,1.94,0,0,0-.38.66.93.93,0,0,0-.09.2C143.7,42.88,144.28,42.69,144.68,42.57Z" class="cls-5"/><path data-cppathid="10100" transform="translate(0 -0.23)" d="M161.72,63.08c-1.07-.28-2.95-6.15-.28-16.36L167.92,22l43.76,11.46s-2.26,10.22-5.07,20.95c-1.8,6.87-4,16.81-4,16.81Z" class="cls-28"/><path data-cppathid="10101" transform="translate(0 -0.23)" d="M161.4,63.27c-1.07-.28-3-6.15-.28-16.36s6.48-24.72,6.48-24.72l43.76,11.46s-2.26,10.21-5.07,20.94c-1.8,6.88-4,16.82-4,16.82Z" class="cls-3"/><path data-cppathid="10102" transform="translate(0 -0.23)" d="M168.52,43.18h-.09a.09.09,0,0,1-.07-.12.18.18,0,0,1,.08-.1,13.24,13.24,0,0,0,2.41-2,12.57,12.57,0,0,0,1.87-2.33A2.45,2.45,0,0,0,173,38a.38.38,0,0,0-.06-.38,1.24,1.24,0,0,0-.23-.25.12.12,0,0,1,.06-.23,1.52,1.52,0,0,1,.68,0,2,2,0,0,1,.9.7c.31.37.46.62.4.86s-.16.21-.28.31a3.06,3.06,0,0,0-.48.53.53.53,0,0,1-.1.12,8.19,8.19,0,0,0,1.34,0,.76.76,0,0,0,.59-.2.54.54,0,0,1,.45-.07,3.24,3.24,0,0,1,.81.73c.29.4.6.77.5,1.12a.38.38,0,0,1-.37.27c-.28,0-.35.11-.59.39-.58.66-1.18,1.32-1.79,1.91A2.5,2.5,0,0,1,175.7,46a.87.87,0,0,1-1.12.73c-.38-.1-.52-.37-.66-1.07a3.19,3.19,0,0,0-.26-.75,9.72,9.72,0,0,1-1.59,1,10.6,10.6,0,0,1-5.54,1.25l-.17,0c-.06,0-.1-.06-.08-.11s.05-.07.11-.09a15.42,15.42,0,0,0,4.94-2A13.28,13.28,0,0,0,173,43.69,5.87,5.87,0,0,0,171.32,42,8.12,8.12,0,0,1,168.52,43.18Zm5.22-.27a11.67,11.67,0,0,0,1.37-1.74,3.48,3.48,0,0,0,.26-.49c0-.07,0-.09-.06-.11h-.45l-.66,0a1.3,1.3,0,0,1-.5,0,.9.9,0,0,1-.38-.27,9.9,9.9,0,0,1-1.65,1.38A12.65,12.65,0,0,1,173.74,42.91Z" class="cls-5"/><path data-cppathid="10103" transform="translate(0 -0.23)" d="M182.1,48.56a10.19,10.19,0,0,1-5.12.66c-.08,0-.12-.08-.11-.12s0-.07.12-.08a13.85,13.85,0,0,0,4.58-1.57,12.49,12.49,0,0,0,3.9-3.28,3.1,3.1,0,0,0,.46-.67c0-.07,0-.11-.09-.13l-.19,0c-.47,0-1.2,0-1.66,0a3.32,3.32,0,0,0-.77.18.94.94,0,0,1-.62.09,1.46,1.46,0,0,1-.69-.7c-.24-.43-.48-.81-.39-1.13a1,1,0,0,1,.15-.34c.05-.09.1-.12.14-.11a.26.26,0,0,1,.14.12,2.18,2.18,0,0,0,.34.37,1.36,1.36,0,0,0,.49.29,4.86,4.86,0,0,0,.78.1c.63,0,1.5.1,2,.12.31,0,.3,0,.63-.21a.56.56,0,0,1,.47-.06,2.89,2.89,0,0,1,1,.78c.42.48.76.92.66,1.3s-.23.27-.53.32-.4.14-.73.49a18.22,18.22,0,0,1-1.7,1.6,5.42,5.42,0,0,1,1.9,1.26,2.14,2.14,0,0,1,.7,2,.9.9,0,0,1-1.17.69c-.54-.14-.7-.47-.83-1.34a4.72,4.72,0,0,0-.93-2.36A12.32,12.32,0,0,1,182.1,48.56Z" class="cls-5"/><path data-cppathid="10104" transform="translate(0 -0.23)" d="M197.38,45.87c.27,0,.29,0,.52-.21a.58.58,0,0,1,.43-.08,2.72,2.72,0,0,1,.9.81c.37.46.58.83.5,1.14a.51.51,0,0,1-.43.31c-.29,0-.37.13-.64.44a13.22,13.22,0,0,1-4.79,3.84,11.64,11.64,0,0,1-5.12,1l-.21,0a.1.1,0,0,1-.09-.11.13.13,0,0,1,.1-.09A15.57,15.57,0,0,0,193.33,51a13.76,13.76,0,0,0,3.79-3.53,2.66,2.66,0,0,0,.32-.57c0-.06,0-.09-.09-.11a1.59,1.59,0,0,0-.37,0c-.15,0-.35,0-.5,0a1.29,1.29,0,0,1-.48,0,1.33,1.33,0,0,1-.58-.37,10.15,10.15,0,0,1-1.67,1.26,7.88,7.88,0,0,1-3.19,1.21c-.1,0-.16-.06-.14-.12s0-.06.08-.09A17.69,17.69,0,0,0,193,46.79a16.81,16.81,0,0,0,2-2.27,2.56,2.56,0,0,0,.4-.68.37.37,0,0,0-.1-.36,1.54,1.54,0,0,0-.22-.2c-.06-.05-.09-.1-.08-.14s.06-.07.13-.09a1.25,1.25,0,0,1,.65,0,3,3,0,0,1,1,.76c.33.37.49.66.4,1s-.16.25-.38.38a2.13,2.13,0,0,0-.56.5l-.15.17C196.36,45.86,197,45.86,197.38,45.87Z" class="cls-5"/><path data-cppathid="10105" transform="translate(0 -0.23)" d="M167.87,122.41c-1.1.16-5.12-4.51-6.64-15l-3.68-25.29,44.76-6.52s1.91,10.29,3.51,21.27c1,7,.1,10.24-5.77,14.65C190,119.07,167.87,122.41,167.87,122.41Z" class="cls-29"/><path data-cppathid="10106" transform="translate(0 -0.23)" d="M167.65,122.71c-1.1.16-5.12-4.51-6.64-14.95l-3.68-25.29L202.1,76s1.9,10.29,3.5,21.26c1,7,.11,10.25-5.77,14.66C189.82,119.38,167.65,122.71,167.65,122.71Z" class="cls-3"/><path data-cppathid="10107" transform="translate(0 -0.23)" d="M188.17,117.4a13.54,13.54,0,0,0,6.31-4.46,10,10,0,0,0,2.12-5.54,19.46,19.46,0,0,0,6.45-1.33,5.75,5.75,0,0,0,3.34-3.31s-1.27,5.17-5.16,8C196.24,114.48,188.17,117.4,188.17,117.4Z" class="cls-30"/><path data-cppathid="10108" transform="translate(0 -0.23)" d="M188.38,117.4a13.59,13.59,0,0,0,6.32-4.46,10,10,0,0,0,2.12-5.54,19.28,19.28,0,0,0,6.44-1.34,5.76,5.76,0,0,0,3.35-3.3s-1.28,5.17-5.16,8C196.45,114.47,188.38,117.4,188.38,117.4Z" class="cls-3"/><path data-cppathid="10109" transform="translate(0 -0.23)" d="M166.67,101.61l-.07,0c-.06,0-.11,0-.11-.09a.13.13,0,0,1,0-.11,14.3,14.3,0,0,0,1.44-2.8,13.21,13.21,0,0,0,.81-2.88,2.58,2.58,0,0,0,0-.69.37.37,0,0,0-.2-.32,1.13,1.13,0,0,0-.31-.14.16.16,0,0,1-.11-.1s0-.1.08-.14a1.69,1.69,0,0,1,.63-.25,2.15,2.15,0,0,1,1.1.3c.43.22.67.4.7.63a.7.7,0,0,1-.13.4,2.53,2.53,0,0,0-.23.67.66.66,0,0,1-.05.15,8.66,8.66,0,0,0,1.24-.5.82.82,0,0,0,.47-.41.49.49,0,0,1,.38-.24,3,3,0,0,1,1,.36c.42.25.85.47.9.83a.38.38,0,0,1-.24.39c-.25.12-.27.24-.39.59-.28.84-.57,1.67-.9,2.46a2.54,2.54,0,0,1,1.61,1.63.87.87,0,0,1-.75,1.11c-.39.06-.63-.13-1-.72a3,3,0,0,0-.54-.59,10.08,10.08,0,0,1-1.06,1.55,10.54,10.54,0,0,1-4.62,3.31.9.9,0,0,1-.16,0c-.07,0-.11,0-.12-.07s0-.08.06-.12a15.18,15.18,0,0,0,3.77-3.78,13.07,13.07,0,0,0,1-1.79,5.64,5.64,0,0,0-2.17-.91A8,8,0,0,1,166.67,101.61Zm4.71-2.29a11.63,11.63,0,0,0,.58-2.14,3.16,3.16,0,0,0,0-.55c0-.07,0-.08-.1-.07a2.25,2.25,0,0,0-.41.17,4.1,4.1,0,0,0-.59.3,1.79,1.79,0,0,1-.45.22.94.94,0,0,1-.46-.11,9.14,9.14,0,0,1-1,1.92A13.12,13.12,0,0,1,171.38,99.32Z" class="cls-5"/><path data-cppathid="10110" transform="translate(0 -0.23)" d="M181.28,101.26a10.13,10.13,0,0,1-4.46,2.61.13.13,0,0,1-.15-.07.14.14,0,0,1,.08-.12,14,14,0,0,0,3.61-3.23,12.61,12.61,0,0,0,2.31-4.54,3.6,3.6,0,0,0,.17-.8c0-.07-.06-.09-.14-.08l-.18,0c-.44.18-1.1.47-1.51.69a3,3,0,0,0-.64.47,1,1,0,0,1-.54.32,1.43,1.43,0,0,1-.91-.37c-.39-.3-.75-.56-.8-.89a1.52,1.52,0,0,1,0-.37c0-.1,0-.15.1-.16a.32.32,0,0,1,.17.06,2.11,2.11,0,0,0,.46.21,1.35,1.35,0,0,0,.56.07,4.32,4.32,0,0,0,.76-.21c.6-.2,1.42-.49,1.91-.68.3-.11.29-.11.51-.44a.56.56,0,0,1,.4-.24,3.09,3.09,0,0,1,1.21.33c.58.29,1.06.56,1.11.95s-.1.34-.36.5-.31.29-.48.74a18.57,18.57,0,0,1-.94,2.13,5.36,5.36,0,0,1,2.24.42,2.16,2.16,0,0,1,1.43,1.58.9.9,0,0,1-.8,1.09c-.56.08-.83-.16-1.3-.91a4.6,4.6,0,0,0-1.77-1.81A12.41,12.41,0,0,1,181.28,101.26Z" class="cls-5"/><path data-cppathid="10111" transform="translate(0 -0.23)" d="M194.3,92.83c.26-.08.27-.13.4-.4a.53.53,0,0,1,.36-.24,2.81,2.81,0,0,1,1.15.39c.52.28.85.54.9.86a.5.5,0,0,1-.27.45c-.25.15-.29.26-.42.65A13.18,13.18,0,0,1,193.5,100a11.56,11.56,0,0,1-4.32,2.92,1,1,0,0,1-.2.07c-.07,0-.11,0-.12-.06a.12.12,0,0,1,0-.13,15.61,15.61,0,0,0,3.65-3.65,13.64,13.64,0,0,0,2.11-4.73,3.77,3.77,0,0,0,.08-.65c0-.06,0-.07-.13-.06a2.38,2.38,0,0,0-.35.12l-.45.22a1.28,1.28,0,0,1-.44.19,1.41,1.41,0,0,1-.68-.11,9.77,9.77,0,0,1-1,1.81,7.84,7.84,0,0,1-2.46,2.35c-.09.06-.17,0-.18,0a.21.21,0,0,1,0-.12,17.25,17.25,0,0,0,1.54-2.69,16.12,16.12,0,0,0,1-2.87,2.26,2.26,0,0,0,.1-.78.35.35,0,0,0-.22-.29,1.58,1.58,0,0,0-.29-.1c-.07,0-.12-.06-.12-.1s0-.09.08-.14a1.32,1.32,0,0,1,.58-.29,3,3,0,0,1,1.17.32c.46.22.72.42.77.78,0,.21,0,.29-.2.5a1.93,1.93,0,0,0-.32.68l-.07.21C193.36,93.22,193.92,93,194.3,92.83Z" class="cls-5"/><path data-cppathid="10112" transform="translate(0 -0.23)" d="M164.91,170c-1.11.06-4.69-5-5.26-15.5l-1.38-25.52,45.17-2.44s1,10.42,1.57,21.49c.38,7.1-.82,10.22-7.08,14.08C187.29,168.63,164.91,170,164.91,170Z" class="cls-31"/><path data-cppathid="10113" transform="translate(0 -0.23)" d="M164.66,170.23c-1.1.06-4.68-4.95-5.25-15.5L158,129.22l45.17-2.45s1,10.42,1.56,21.5c.39,7.1-.82,10.21-7.07,14.07C187,168.91,164.66,170.23,164.66,170.23Z" class="cls-3"/><path data-cppathid="10114" transform="translate(0 -0.23)" d="M185.58,166.79a13.53,13.53,0,0,0,6.69-3.87,10,10,0,0,0,2.61-5.32,19.59,19.59,0,0,0,6.55-.74,5.77,5.77,0,0,0,3.62-3s-1.73,5-5.86,7.53C193.88,164.61,185.58,166.79,185.58,166.79Z" class="cls-32"/><path data-cppathid="10115" transform="translate(0 -0.23)" d="M185.79,166.81a13.53,13.53,0,0,0,6.69-3.87,10,10,0,0,0,2.61-5.32,19.44,19.44,0,0,0,6.55-.75,5.77,5.77,0,0,0,3.62-3s-1.73,5-5.86,7.54C194.09,164.63,185.79,166.81,185.79,166.81Z" class="cls-3"/><path data-cppathid="10116" transform="translate(0 -0.23)" d="M166.06,148.71l-.09,0a.1.1,0,0,1-.1-.09.19.19,0,0,1,0-.12,13.77,13.77,0,0,0,1.68-2.66,13,13,0,0,0,1.07-2.79,2.37,2.37,0,0,0,.1-.68.37.37,0,0,0-.17-.34,1.23,1.23,0,0,0-.29-.17c-.06,0-.1-.06-.1-.1s0-.1.09-.13a1.33,1.33,0,0,1,.65-.19,2,2,0,0,1,1.07.39c.41.26.63.45.64.69a.61.61,0,0,1-.18.39,3,3,0,0,0-.28.65.46.46,0,0,1-.07.14,8.4,8.4,0,0,0,1.29-.39.77.77,0,0,0,.5-.37.51.51,0,0,1,.41-.2,3.08,3.08,0,0,1,1,.45c.39.29.8.55.82.91a.4.4,0,0,1-.27.37c-.27.09-.3.21-.45.55-.35.81-.71,1.61-1.12,2.37a2.49,2.49,0,0,1,1.45,1.77.87.87,0,0,1-.84,1c-.39,0-.61-.19-.95-.82a2.89,2.89,0,0,0-.49-.63,10.83,10.83,0,0,1-6.09,4.33l-.17,0c-.07,0-.11,0-.11-.07a.12.12,0,0,1,.08-.12,15.59,15.59,0,0,0,4.09-3.42,15,15,0,0,0,1.17-1.69,5.74,5.74,0,0,0-2.08-1.11A8.23,8.23,0,0,1,166.06,148.71Zm4.89-1.85a13.25,13.25,0,0,0,.77-2.08,3.1,3.1,0,0,0,.1-.55c0-.07,0-.08-.09-.08a3.18,3.18,0,0,0-.43.13c-.19.07-.41.15-.62.25a1.9,1.9,0,0,1-.46.18.88.88,0,0,1-.45-.15,9.31,9.31,0,0,1-1.15,1.82A12,12,0,0,1,171,146.86Z" class="cls-5"/><path data-cppathid="10117" transform="translate(0 -0.23)" d="M180.63,149.69a10.12,10.12,0,0,1-4.67,2.18c-.09,0-.15,0-.15-.07a.15.15,0,0,1,.09-.12,14,14,0,0,0,3.89-2.89,12.67,12.67,0,0,0,2.71-4.31,3.19,3.19,0,0,0,.24-.79c0-.07-.05-.09-.13-.09l-.18,0c-.46.14-1.15.37-1.57.55a3.07,3.07,0,0,0-.68.41.93.93,0,0,1-.56.27,1.41,1.41,0,0,1-.88-.45c-.36-.34-.7-.63-.71-1a1.25,1.25,0,0,1,0-.37c0-.1.07-.14.11-.15a.29.29,0,0,1,.17.08,2,2,0,0,0,.43.24,1.27,1.27,0,0,0,.56.13,4.18,4.18,0,0,0,.78-.14l2-.5c.3-.09.29-.09.54-.4a.56.56,0,0,1,.42-.2,2.94,2.94,0,0,1,1.18.44c.55.33,1,.65,1,1s-.14.33-.41.47-.33.26-.53.69a19.93,19.93,0,0,1-1.14,2,5.31,5.31,0,0,1,2.19.62,2.13,2.13,0,0,1,1.28,1.7.9.9,0,0,1-.89,1c-.56,0-.82-.24-1.21-1a4.6,4.6,0,0,0-1.61-2A12.66,12.66,0,0,1,180.63,149.69Z" class="cls-5"/><path data-cppathid="10118" transform="translate(0 -0.23)" d="M194.36,142.46c.27-.05.28-.1.43-.36a.57.57,0,0,1,.39-.2,2.65,2.65,0,0,1,1.1.49c.5.32.81.61.82.93s-.16.35-.31.43-.31.24-.47.61a13,13,0,0,1-3.4,5.12,11.5,11.5,0,0,1-4.56,2.52l-.21.06A.11.11,0,0,1,188,152a.12.12,0,0,1,.07-.12,15.42,15.42,0,0,0,4-3.31,13.67,13.67,0,0,0,2.53-4.52,2.93,2.93,0,0,0,.13-.63c0-.07,0-.09-.11-.08a1.72,1.72,0,0,0-.36.09l-.47.18a1.25,1.25,0,0,1-.45.15,1.38,1.38,0,0,1-.67-.18,10.86,10.86,0,0,1-1.21,1.71,7.76,7.76,0,0,1-2.67,2.12c-.09.05-.17,0-.17-.06a.14.14,0,0,1,0-.11,17.83,17.83,0,0,0,1.77-2.54,16.42,16.42,0,0,0,1.23-2.77,2.65,2.65,0,0,0,.16-.77.33.33,0,0,0-.2-.31,1.72,1.72,0,0,0-.27-.13.16.16,0,0,1-.12-.1s0-.09.1-.13a1.31,1.31,0,0,1,.6-.25,3,3,0,0,1,1.14.43c.44.26.68.48.7.85,0,.21-.07.28-.24.47a1.76,1.76,0,0,0-.39.66,2,2,0,0,0-.09.2C193.39,142.77,194,142.58,194.36,142.46Z" class="cls-5"/><path data-cppathid="10119" transform="translate(0 -0.23)" d="M160.65,216.16c-1.07-.28-2.94-6.15-.27-16.36l6.47-24.72,43.76,11.46s-2.26,10.21-5.06,20.94c-1.81,6.88-4,16.82-4,16.82Z" class="cls-33"/><path data-cppathid="10120" transform="translate(0 -0.23)" d="M160.33,216.36c-1.07-.28-2.94-6.15-.27-16.36s6.47-24.73,6.47-24.73l43.76,11.46s-2.25,10.22-5.06,21c-1.8,6.88-4,16.82-4,16.82Z" class="cls-3"/><path data-cppathid="10121" transform="translate(0 -0.23)" d="M167.45,196.27h-.09a.1.1,0,0,1-.07-.12.25.25,0,0,1,.09-.09,13.65,13.65,0,0,0,2.41-2,13.36,13.36,0,0,0,1.87-2.33,2.34,2.34,0,0,0,.3-.62.36.36,0,0,0-.06-.38.94.94,0,0,0-.22-.24.16.16,0,0,1-.07-.14.17.17,0,0,1,.13-.09,1.54,1.54,0,0,1,.68,0,2.12,2.12,0,0,1,.9.7c.31.37.46.63.4.86s-.16.22-.29.32a2.41,2.41,0,0,0-.47.53l-.11.11a8.32,8.32,0,0,0,1.35,0,.79.79,0,0,0,.58-.19.49.49,0,0,1,.46-.07,3.09,3.09,0,0,1,.8.73c.29.39.6.76.51,1.12a.4.4,0,0,1-.38.26c-.27,0-.34.11-.59.4-.58.65-1.17,1.31-1.79,1.9a2.53,2.53,0,0,1,.85,2.14.88.88,0,0,1-1.12.73c-.38-.1-.53-.37-.66-1.07a3.07,3.07,0,0,0-.27-.75,10.35,10.35,0,0,1-1.58,1,10.5,10.5,0,0,1-5.54,1.24h-.17c-.07,0-.1-.06-.09-.11a.12.12,0,0,1,.11-.09,15.33,15.33,0,0,0,4.94-2,13.28,13.28,0,0,0,1.63-1.25,5.51,5.51,0,0,0-1.64-1.69A8.24,8.24,0,0,1,167.45,196.27Zm5.23-.27a13.81,13.81,0,0,0,1.37-1.74,3.5,3.5,0,0,0,.26-.5c0-.07,0-.09-.06-.1a2.23,2.23,0,0,0-.45,0,5.22,5.22,0,0,0-.67,0,1.52,1.52,0,0,1-.5,0,.82.82,0,0,1-.37-.27,9.76,9.76,0,0,1-1.65,1.37A12.7,12.7,0,0,1,172.68,196Z" class="cls-5"/><path data-cppathid="10122" transform="translate(0 -0.23)" d="M181,201.65a10.1,10.1,0,0,1-5.12.65c-.09,0-.13-.07-.12-.11a.13.13,0,0,1,.12-.09,14,14,0,0,0,4.58-1.56,12.49,12.49,0,0,0,3.9-3.28,3,3,0,0,0,.47-.68c0-.06,0-.1-.1-.12a.5.5,0,0,0-.18,0c-.48,0-1.2,0-1.66,0a2.87,2.87,0,0,0-.78.19.92.92,0,0,1-.61.08,1.39,1.39,0,0,1-.7-.7,1.77,1.77,0,0,1-.39-1.13,1.87,1.87,0,0,1,.15-.34c.05-.08.1-.12.14-.1a.22.22,0,0,1,.15.12,2,2,0,0,0,.33.36,1.25,1.25,0,0,0,.49.29,4.63,4.63,0,0,0,.79.11c.62,0,1.49.1,2,.12.32,0,.3,0,.64-.21a.57.57,0,0,1,.46-.07,3,3,0,0,1,1,.78c.43.49.76.92.66,1.3s-.23.28-.53.33-.4.14-.72.49a18.1,18.1,0,0,1-1.71,1.59,5.21,5.21,0,0,1,1.9,1.27,2.14,2.14,0,0,1,.71,2,.91.91,0,0,1-1.17.69c-.54-.14-.7-.47-.84-1.35A4.56,4.56,0,0,0,184,200,12.82,12.82,0,0,1,181,201.65Z" class="cls-5"/><path data-cppathid="10123" transform="translate(0 -0.23)" d="M196.32,199c.26,0,.29,0,.52-.21a.51.51,0,0,1,.42-.08,2.78,2.78,0,0,1,.91.8c.37.46.58.83.49,1.15a.51.51,0,0,1-.42.3c-.29,0-.37.14-.64.44a13.26,13.26,0,0,1-4.8,3.85,11.63,11.63,0,0,1-5.12,1h-.21c-.07,0-.1-.07-.09-.11a.12.12,0,0,1,.1-.09,15.5,15.5,0,0,0,4.78-1.95,13.47,13.47,0,0,0,3.79-3.53,2.89,2.89,0,0,0,.32-.56c0-.07,0-.09-.08-.11a2.62,2.62,0,0,0-.37,0,4.32,4.32,0,0,1-.5,0,1.31,1.31,0,0,1-.48,0,1.66,1.66,0,0,1-.59-.37,10.1,10.1,0,0,1-1.67,1.25A7.78,7.78,0,0,1,189.5,202c-.11,0-.16-.06-.15-.11s0-.06.08-.09a17.17,17.17,0,0,0,2.46-1.88,16.29,16.29,0,0,0,2-2.27,2.51,2.51,0,0,0,.39-.68.34.34,0,0,0-.09-.35,2.75,2.75,0,0,0-.23-.21c-.06,0-.09-.09-.07-.13s.06-.07.12-.1a1.37,1.37,0,0,1,.65,0,3,3,0,0,1,1,.76c.34.38.49.67.4,1,0,.2-.15.25-.37.38a2,2,0,0,0-.57.5s-.1.11-.14.17C195.29,199,195.9,199,196.32,199Z" class="cls-5"/></g></g></g></g></g></svg>