<?xml version="1.0" encoding="UTF-8"?>
<svg xmlns="http://www.w3.org/2000/svg" onmouseup="{ if(window.parent.document.onmouseup) window.parent.document.onmouseup(arguments[0]);}" viewBox="0 0 406.02 347.96" xmlns:xlink="http://www.w3.org/1999/xlink"><defs><style>.cls-1{stroke:#545454;stroke-linecap:round;stroke-linejoin:round;stroke-width:3px;fill:url(#linear-gradient);}.cls-2{fill:#231f20;}.cls-3{fill:#fff;}.cls-4,.cls-5,.cls-6{fill:#50a1d3;}.cls-5{opacity:0.68;}.cls-6{opacity:0.32;}.cls-7{fill:#d7d7d7;}.cls-13,.cls-14,.cls-15,.cls-8{stroke:#000;}.cls-8{stroke-width:2.52px;}.cls-9{fill:#ffc589;}.cls-10{fill:#c9f5ff;}.cls-11{fill:#332518;}.cls-12{fill:#4ecdf4;}.cls-13{fill:none;stroke-width:2px;}.cls-14{stroke-width:1.91px;}.cls-15{stroke-width:0.63px;}</style><linearGradient gradientUnits="userSpaceOnUse" y2="1.5" x2="63.02" y1="334.54" x1="63.02" id="linear-gradient"><stop stop-color="#5ed000" offset="0"/><stop stop-color="#ff0f00" offset="1"/></linearGradient></defs><g data-name="Layer 2" id="Layer_2"><g data-name="Sprint Planning 1 jp" id="Sprint_Planning_1_jp"><g data-name="jp copy 2" id="jp_copy_2"><polygon data-cppathid="10000" points="105.02 44.02 124.54 44.02 63.02 1.5 1.5 44.02 21.02 44.02 21.02 292.02 1.5 292.02 63.02 334.54 124.54 292.02 105.02 292.02 105.02 44.02" class="cls-1"/><path data-cppathid="10001" d="M31,34.89a19.4,19.4,0,0,1-1.89,2.88,9.86,9.86,0,0,0-.59-1.17,24.51,24.51,0,0,0,4-8.12l1.42.45c0,.13-.18.2-.41.2a37.67,37.67,0,0,1-1.39,3.57l.42.12c0,.13-.13.2-.35.24V45.12H31Zm12.16,5.39.84.43c0,.09-.14.12-.19.16a8.06,8.06,0,0,1-3,2.32,22.86,22.86,0,0,0,5,1,4.22,4.22,0,0,0-.68,1,20.92,20.92,0,0,1-5.68-1.4,25.13,25.13,0,0,1-5.78,1.35,4.32,4.32,0,0,0-.61-.92,26.93,26.93,0,0,0,5.15-1,8.83,8.83,0,0,1-2-1.55A18.14,18.14,0,0,1,34,42.74a3.21,3.21,0,0,0-.72-.75,12.6,12.6,0,0,0,4.41-2.58c-.54-.12-.7-.43-.7-1.08V37.14l1.35.09c0,.11-.11.2-.34.22v.88c0,.33.1.4.75.4H41c.45,0,.54-.09.61-.85a3.46,3.46,0,0,0,.84.29c-.09,1-.39,1.31-1.29,1.31h-2a.63.63,0,0,1-.31.11,8,8,0,0,1-.79.72H43Zm-7.85-9.11H38.5a10.11,10.11,0,0,0,.27-1H34v-1H45.44v1H40c-.09.29-.22.65-.35,1h4.22v4.61h1.74v2.44H44.52V36.6H39.6a8.08,8.08,0,0,1,1.3,1l-.74.56a8,8,0,0,0-1.93-1.44l.18-.13H34.56v1.62H33.48V35.78h1.84Zm1.35,6.48a7,7,0,0,1-2,2.07l-.77-.65a5.53,5.53,0,0,0,1.94-1.87Zm6.08-4.92V31.9H36.43v.83Zm0,1.53v-.84H36.43v.84Zm-6.32,1.52h6.32v-.85H36.43Zm.69,5.36a7.69,7.69,0,0,0,2.43,1.55,8.55,8.55,0,0,0,2.56-1.55Zm7.29-1.39a10.7,10.7,0,0,0-2.12-2.16l.81-.46a10.57,10.57,0,0,1,2.16,2.1Z" class="cls-2"/><path data-cppathid="10002" d="M53.75,37.86c0,.13-.14.22-.38.24-.47,3.17-1.35,5.67-5.56,7a4.21,4.21,0,0,0-.74-1c3.92-1.12,4.79-3.35,5.1-6.4ZM58.25,43c0,.54.13.63.85.63h2.45c.7,0,.82-.37.9-2.79a3.22,3.22,0,0,0,1.11.51c-.14,2.75-.48,3.44-1.91,3.44H59C57.42,44.8,57,44.42,57,43V37.47H47.29V36.28h7.38V32.46H50.76a13.72,13.72,0,0,1-1.64,2.85,8.12,8.12,0,0,0-1-.58,16,16,0,0,0,2.64-5.9l1.53.36c0,.12-.16.18-.39.18a19.34,19.34,0,0,1-.63,1.92h3.44V28.37l1.58.1c0,.14-.12.23-.36.25v2.57H62v1.17H55.89v3.82h7.4v1.19h-5Z" class="cls-2"/><path data-cppathid="10003" d="M66.89,36.28c0,3.35-.15,6.28-1.39,8.77a4.77,4.77,0,0,0-.83-.72c1.07-2.31,1.19-5,1.19-8V29l1.37.09c0,.11-.11.2-.34.24Zm1.46,6.19V30.32l1.24.09c0,.11-.09.18-.31.22V42.47ZM70.85,29l1.37.09c0,.11-.11.2-.34.23V44.47h-1ZM76.5,42.76a.52.52,0,0,1-.34.13,11.69,11.69,0,0,1-3.37,2.23,5.78,5.78,0,0,0-.77-.81,10.93,10.93,0,0,0,3.33-2.18Zm-3-10.55h2.62c.14-.58.3-1.28.41-1.87H72.76V29.26h8.91v1.08H77.76c-.12.54-.32,1.24-.52,1.87h3.82v9.47H73.51Zm6.38,2.85v-1.9H74.63v1.9Zm0,2.8V36H74.63v1.89Zm0,2.87V38.8H74.63v1.93ZM81,45.16a19.16,19.16,0,0,0-3-2.38l.9-.61a18.9,18.9,0,0,1,3.06,2.3Z" class="cls-2"/><path data-cppathid="10004" d="M85.36,34.73a21.48,21.48,0,0,1-2.2,3,9.24,9.24,0,0,0-.63-1.14A23.79,23.79,0,0,0,87,28.5l1.44.49a.38.38,0,0,1-.41.16,33.4,33.4,0,0,1-1.66,3.73l.49.12c0,.11-.13.2-.36.22V45.16H85.36Zm2.28,8.34H99.72v1.17H87.64ZM88.09,32h4.85v-3.6l1.56.09c0,.15-.1.22-.36.25V32h5.12v1.17H88.09Zm2.51,2.4a45.9,45.9,0,0,1,1.53,7.42l-1.21.25A46.42,46.42,0,0,0,89.5,34.6Zm7.56.3c0,.13-.2.22-.42.22a59.66,59.66,0,0,1-2,7.26s-1-.33-1-.35a52.5,52.5,0,0,0,1.93-7.54Z" class="cls-2"/><path data-cppathid="10005" d="M64.8,47.14h7.44v1.08H56.32V47.14h7.26V45.36l1.58.11c0,.12-.11.21-.36.25Zm6.68,7.09v6.36c0,.7-.16,1.08-.72,1.28a11.64,11.64,0,0,1-3.11.2,5.32,5.32,0,0,0-.4-1.16c.74,0,1.41,0,1.89,0,1,0,1.14,0,1.14-.38V55.3H58.37v6.8H57.19V54.23ZM59.4,49.3h9.8V53H59.4ZM68,52.11V50.22h-7.4v1.89Zm-.2,8.26H61.9v1H60.81V56.54h7Zm-1.1-2.91H61.9v2h4.77Z" class="cls-2"/><path data-cppathid="10006" d="M30,33.89a19.4,19.4,0,0,1-1.89,2.88,9.86,9.86,0,0,0-.59-1.17,24.51,24.51,0,0,0,4-8.12l1.42.45c0,.13-.18.2-.41.2a37.67,37.67,0,0,1-1.39,3.57l.42.12c0,.13-.13.2-.35.24V44.12H30Zm12.16,5.39.84.43c0,.09-.14.12-.19.16a8.06,8.06,0,0,1-3,2.32,22.86,22.86,0,0,0,5,1,4.22,4.22,0,0,0-.68,1,20.92,20.92,0,0,1-5.68-1.4,25.13,25.13,0,0,1-5.78,1.35,4.32,4.32,0,0,0-.61-.92,26.93,26.93,0,0,0,5.15-1,8.83,8.83,0,0,1-2-1.55A18.14,18.14,0,0,1,33,41.74a3.21,3.21,0,0,0-.72-.75,12.6,12.6,0,0,0,4.41-2.58c-.54-.12-.7-.43-.7-1.08V36.14l1.35.09c0,.11-.11.2-.34.22v.88c0,.33.1.4.75.4H40c.45,0,.54-.09.61-.85a3.46,3.46,0,0,0,.84.29c-.09,1-.39,1.31-1.29,1.31h-2a.63.63,0,0,1-.31.11,8,8,0,0,1-.79.72H42Zm-7.85-9.11H37.5a10.11,10.11,0,0,0,.27-1H33v-1H44.44v1H39c-.09.29-.22.65-.35,1h4.22v4.61h1.74v2.44H43.52V35.6H38.6a8.08,8.08,0,0,1,1.3,1l-.74.56a8,8,0,0,0-1.93-1.44l.18-.13H33.56v1.62H32.48V34.78h1.84Zm1.35,6.48a7,7,0,0,1-2,2.07l-.77-.65a5.53,5.53,0,0,0,1.94-1.87Zm6.08-4.92V30.9H35.43v.83Zm0,1.53v-.84H35.43v.84Zm-6.32,1.52h6.32v-.85H35.43Zm.69,5.36a7.69,7.69,0,0,0,2.43,1.55,8.55,8.55,0,0,0,2.56-1.55Zm7.29-1.39a10.7,10.7,0,0,0-2.12-2.16l.81-.46a10.57,10.57,0,0,1,2.16,2.1Z" class="cls-3"/><path data-cppathid="10007" d="M52.75,36.86c0,.13-.14.22-.38.24-.47,3.17-1.35,5.67-5.56,7a4.21,4.21,0,0,0-.74-1c3.92-1.12,4.79-3.35,5.1-6.4ZM57.25,42c0,.54.13.63.85.63h2.45c.7,0,.82-.37.9-2.79a3.22,3.22,0,0,0,1.11.51c-.14,2.75-.48,3.44-1.91,3.44H58C56.42,43.8,56,43.42,56,42V36.47H46.29V35.28h7.38V31.46H49.76a13.72,13.72,0,0,1-1.64,2.85,8.12,8.12,0,0,0-1-.58,16,16,0,0,0,2.64-5.9l1.53.36c0,.12-.16.18-.39.18a19.34,19.34,0,0,1-.63,1.92h3.44V27.37l1.58.1c0,.14-.12.23-.36.25v2.57H61v1.17H54.89v3.82h7.4v1.19h-5Z" class="cls-3"/><path data-cppathid="10008" d="M65.89,35.28c0,3.35-.15,6.28-1.39,8.77a4.77,4.77,0,0,0-.83-.72c1.07-2.31,1.19-5,1.19-8V28l1.37.09c0,.11-.11.2-.34.24Zm1.46,6.19V29.32l1.24.09c0,.11-.09.18-.31.22V41.47ZM69.85,28l1.37.09c0,.11-.11.2-.34.23V43.47h-1ZM75.5,41.76a.52.52,0,0,1-.34.13,11.69,11.69,0,0,1-3.37,2.23,5.78,5.78,0,0,0-.77-.81,10.93,10.93,0,0,0,3.33-2.18Zm-3-10.55h2.62c.14-.58.3-1.28.41-1.87H71.76V28.26h8.91v1.08H76.76c-.12.54-.32,1.24-.52,1.87h3.82v9.47H72.51Zm6.38,2.85v-1.9H73.63v1.9Zm0,2.8V35H73.63v1.89Zm0,2.87V37.8H73.63v1.93ZM80,44.16a19.16,19.16,0,0,0-3-2.38l.9-.61a18.9,18.9,0,0,1,3.06,2.3Z" class="cls-3"/><path data-cppathid="10009" d="M84.36,33.73a21.48,21.48,0,0,1-2.2,3,9.24,9.24,0,0,0-.63-1.14A23.79,23.79,0,0,0,86,27.5l1.44.49a.38.38,0,0,1-.41.16,33.4,33.4,0,0,1-1.66,3.73l.49.12c0,.11-.13.2-.36.22V44.16H84.36Zm2.28,8.34H98.72v1.17H86.64ZM87.09,31h4.85v-3.6l1.56.09c0,.15-.1.22-.36.25V31h5.12v1.17H87.09Zm2.51,2.4a45.9,45.9,0,0,1,1.53,7.42l-1.21.25A46.42,46.42,0,0,0,88.5,33.6Zm7.56.3c0,.13-.2.22-.42.22a59.66,59.66,0,0,1-2,7.26s-1-.33-1-.35a52.5,52.5,0,0,0,1.93-7.54Z" class="cls-3"/><path data-cppathid="10010" d="M63.8,46.14h7.44v1.08H55.32V46.14h7.26V44.36l1.58.11c0,.12-.11.21-.36.25Zm6.68,7.09v6.36c0,.7-.16,1.08-.72,1.28a11.64,11.64,0,0,1-3.11.2,5.32,5.32,0,0,0-.4-1.16c.74,0,1.41,0,1.89,0,1,0,1.14,0,1.14-.38V54.3H57.37v6.8H56.19V53.23ZM58.4,48.3h9.8V52H58.4ZM67,51.11V49.22h-7.4v1.89Zm-.2,8.26H60.9v1H59.81V55.54h7Zm-1.1-2.91H60.9v2h4.77Z" class="cls-3"/><rect data-cppathid="10011" rx="5.67" height="42.85" width="171" y="49.94" x="235.02" class="cls-4"/><rect data-cppathid="10012" rx="5.67" height="42.85" width="171" y="2.17" x="235.02" class="cls-4"/><rect data-cppathid="10013" rx="5.67" height="42.85" width="171" y="97.7" x="235.02" class="cls-4"/><rect data-cppathid="10014" rx="5.67" height="42.85" width="171" y="145.47" x="235.02" class="cls-4"/><rect data-cppathid="10015" rx="5.67" height="42.85" width="171" y="193.24" x="235.02" class="cls-4"/><rect data-cppathid="10016" rx="4.75" height="35.89" width="143.25" y="244" x="247.29" class="cls-5"/><rect data-cppathid="10017" rx="3.89" height="29.43" width="117.46" y="288.77" x="259.61" class="cls-6"/><path data-cppathid="10018" d="M245.18,13.32h7.63l.07,0,.82.62a.3.3,0,0,1-.15.11c-1,4.51-3.06,6.86-6.73,8.25a5.46,5.46,0,0,0-.53-.71,9.08,9.08,0,0,0,6.28-7.41h-7.39Zm9.14-2.14A1.31,1.31,0,1,1,253,12.5,1.31,1.31,0,0,1,254.32,11.18Zm.91,1.32a.92.92,0,1,0-1.83,0,.93.93,0,0,0,.92.92A.92.92,0,0,0,255.23,12.5Z" class="cls-3"/><path data-cppathid="10019" d="M265.56,13.51v7.92h-.86v-.75h-6.61v.77h-.84V13.51Zm-.86,6.36V14.32h-6.61v5.55Z" class="cls-3"/><path data-cppathid="10020" d="M276.48,14c0,.07-.07.09-.14.13a15.84,15.84,0,0,1-1.74,4c.52.3,1.15.67,1.6,1l-.51.78a18.92,18.92,0,0,0-1.59-1,11,11,0,0,1-4.31,3.6,2.48,2.48,0,0,0-.65-.64,10.68,10.68,0,0,0,4.21-3.39,19.56,19.56,0,0,0-2.68-1.26l.47-.66a22.86,22.86,0,0,1,2.72,1.22,12.55,12.55,0,0,0,1.44-3.18h-4a12.6,12.6,0,0,1-2.7,3.28,5.26,5.26,0,0,0-.67-.54,12.15,12.15,0,0,0,3.66-5.35l1.11.32c-.05.14-.19.17-.33.16a13.21,13.21,0,0,1-.62,1.33h3.89l.11,0Zm-1.1-2.39a9.3,9.3,0,0,1,1.6,1.68l-.46.37A9.83,9.83,0,0,0,275,11.94Zm1.54-.44a9.75,9.75,0,0,1,1.63,1.65l-.47.36a9,9,0,0,0-1.58-1.64Z" class="cls-3"/><path data-cppathid="10021" d="M287.92,14.15a1,1,0,0,1-.18.17c-1.26,3.88-3.23,6.38-6.54,8.06a2.88,2.88,0,0,0-.61-.66,11.22,11.22,0,0,0,6.08-7.1h-4.28a12.29,12.29,0,0,1-2.68,3A4.38,4.38,0,0,0,279,17a12.27,12.27,0,0,0,3.83-5.21l1.14.33c-.05.12-.2.15-.35.15a15.24,15.24,0,0,1-.77,1.51h4.22l.15-.07Z" class="cls-3"/><path data-cppathid="10022" d="M296.48,18.25a42.31,42.31,0,0,0-4.21-1.95v6h-.9V11.87l1.21.07c0,.14-.11.22-.31.26v3.5l.18-.25a41,41,0,0,1,4.51,2Z" class="cls-3"/><path data-cppathid="10023" d="M302.77,13.74a.31.31,0,0,1-.31.18,18.13,18.13,0,0,1-2.88,7.69,3.68,3.68,0,0,0-.81-.43c1.35-1.63,2.4-4.68,2.79-7.69Zm6,7.8a40.06,40.06,0,0,0-3.19-7.73l.78-.37a39,39,0,0,1,3.29,7.75Zm-1.74-9.64a8.8,8.8,0,0,1,1.47,1.77l-.46.34a10.16,10.16,0,0,0-1.46-1.78Zm1.59-.63A10.69,10.69,0,0,1,310.12,13l-.47.34a9.61,9.61,0,0,0-1.46-1.76Z" class="cls-3"/><path data-cppathid="10024" d="M312.37,15.09a13.38,13.38,0,0,1,.9,2.57l-.67.18a14.08,14.08,0,0,0-.88-2.55Zm7.16.08c0,.11-.15.13-.25.12-.94,3.5-2.7,5.65-5.6,6.82a3.93,3.93,0,0,0-.47-.55c2.86-1.12,4.51-3.09,5.38-6.67Zm-4.25-.66a16.3,16.3,0,0,1,.57,2.72l-.71.14a14.43,14.43,0,0,0-.56-2.7Z" class="cls-3"/><path data-cppathid="10025" d="M329.92,14.15a1,1,0,0,1-.18.17c-1.26,3.88-3.22,6.38-6.53,8.06a3.19,3.19,0,0,0-.62-.66,11.22,11.22,0,0,0,6.08-7.1h-4.28a12.29,12.29,0,0,1-2.68,3A4.38,4.38,0,0,0,321,17a12.27,12.27,0,0,0,3.83-5.21l1.14.33c-.05.12-.19.15-.35.15a15.24,15.24,0,0,1-.77,1.51h4.22l.15-.07Z" class="cls-3"/><path data-cppathid="10026" d="M340.69,13.51v7.92h-.87v-.75h-6.61v.77h-.84V13.51Zm-.87,6.36V14.32h-6.61v5.55Z" class="cls-3"/><path data-cppathid="10027" d="M351.58,14.26a.77.77,0,0,1-.18.18c-1.27,4-3.24,6.37-6.49,8a2.86,2.86,0,0,0-.61-.66,11.11,11.11,0,0,0,6-7.06H346.1a11.62,11.62,0,0,1-2.65,2.92,4.77,4.77,0,0,0-.67-.54,11.92,11.92,0,0,0,3.8-5.25l1.13.31c0,.12-.18.17-.34.16a16.81,16.81,0,0,1-.79,1.59h4.17l.15-.07Zm-1.49-2.76a9.22,9.22,0,0,1,1.58,1.7l-.45.39a8.89,8.89,0,0,0-1.55-1.71Zm1.74-.35a8.32,8.32,0,0,1,1.57,1.71l-.44.37a8.17,8.17,0,0,0-1.55-1.69Z" class="cls-3"/><path data-cppathid="10028" d="M364,13a.31.31,0,0,1-.16.11A10.29,10.29,0,0,1,361,16.91a5.17,5.17,0,0,0-.73-.49,7.24,7.24,0,0,0,2.38-3h-8.58v-.81h9l.13-.06Zm-4.68,2.19c0,.09-.12.18-.28.2-.34,2.83-1.32,5.53-3.79,7a5.92,5.92,0,0,0-.7-.56c2.44-1.34,3.32-3.85,3.61-6.74Z" class="cls-3"/><path data-cppathid="10029" d="M373.79,12.64a.28.28,0,0,1-.23.1.3.3,0,0,1-.12,0A28.69,28.69,0,0,1,370,15.59l.28.13a.3.3,0,0,1-.26.16v6.44h-.88V16.15a34.66,34.66,0,0,1-4.57,2.68,3.83,3.83,0,0,0-.5-.66,30.37,30.37,0,0,0,8.79-6.2Z" class="cls-3"/><path data-cppathid="10030" d="M384.81,16.59h-4.06l.21.06a.27.27,0,0,1-.24.14A6.52,6.52,0,0,1,377,22.27a6.25,6.25,0,0,0-.64-.6,5.69,5.69,0,0,0,3.46-5.08h-4.66v-.81h9.64Zm-1.19-3.39h-7.36v-.8h7.36Z" class="cls-3"/><path data-cppathid="10031" d="M395.45,22c-.18-.41-.39-.84-.63-1.27-2.5.26-6.6.51-8.43.61a.35.35,0,0,1-.23.24l-.33-1.08,1.26-.05c.79-2.3,1.93-5.89,2.59-8.29l1.17.31a.35.35,0,0,1-.35.17c-.66,2.21-1.69,5.42-2.52,7.77,2-.08,4.83-.28,6.42-.43a21,21,0,0,0-2.14-2.92l.72-.41a23.91,23.91,0,0,1,3.31,5Z" class="cls-3"/><path data-cppathid="10032" d="M311.91,28.58a7.59,7.59,0,0,0,0,11v.06h-.72a7.94,7.94,0,0,1,0-11.16h.72Z" class="cls-3"/><path data-cppathid="10033" d="M313.11,29.64a11.3,11.3,0,0,1,2.08-.18c2.95,0,3.19,1.89,3.19,2.61,0,2.15-1.72,2.92-3.34,2.92a3.42,3.42,0,0,1-.93-.09v3.76h-1Zm1,4.44a3.77,3.77,0,0,0,1,.09c1.44,0,2.31-.72,2.31-2s-.93-1.89-2.18-1.89a5.13,5.13,0,0,0-1.09.1Z" class="cls-3"/><path data-cppathid="10034" d="M323.47,33.76a2.35,2.35,0,0,1,1.88,2.31,2.42,2.42,0,0,1-.73,1.8,4.12,4.12,0,0,1-3,.86,15.11,15.11,0,0,1-1.7-.1v-9a9.88,9.88,0,0,1,2-.19,3.58,3.58,0,0,1,2.41.67,2,2,0,0,1,.69,1.58,2.2,2.2,0,0,1-1.55,2ZM322,33.43c1.21,0,2-.7,2-1.63h0c0-1.08-.79-1.55-2-1.55a4.87,4.87,0,0,0-1,.08v3.11ZM321,37.88a5,5,0,0,0,1,.06c1.26,0,2.39-.49,2.39-1.87s-1.19-1.87-2.4-1.87h-1Z" class="cls-3"/><path data-cppathid="10035" d="M326.91,29.52h1v9.14h-1Z" class="cls-3"/><path data-cppathid="10036" d="M329.12,39.62a7.59,7.59,0,0,0,0-11v-.06h.72a7.94,7.94,0,0,1,0,11.16h-.72Z" class="cls-3"/><rect data-cppathid="10037" rx="2.77" height="20.96" width="83.64" y="327" x="275.33" class="cls-6"/><path data-cppathid="10038" d="M217.24,274.73c0,3.78-20.41,6.85-45.59,6.85s-45.59-3.07-45.59-6.85,20.41-6.85,45.59-6.85S217.24,270.94,217.24,274.73Z" class="cls-7"/><path data-cppathid="10039" d="M159.32,141.62s16.17,21,18.44,51.65c.14,1.87,0,9.28,0,9.28L150.62,208s0-1.53,0-2.27c0-21,.74-44.83.74-44.83s1.7-25,4-23.84S159.32,141.62,159.32,141.62Z" class="cls-8"/><path data-cppathid="10040" d="M175.48,182.3c-1.58,2.1-2.77,3.49-2.77,3.49s-6.71,2.38-4.35,3.12,5.42-1.36,5.42-1.36-5.05,5.93-4.48,7.27,3.44-3,3.44-3-1.73,4.28-1.67,5,2.69-3.66,2.69-3.66-.14,3.92.55,3.86,2.36-7.78,3.8-10c.28-.44,1.08-1.37,2.13-2.61C184.45,179.39,177.79,179.24,175.48,182.3Z" class="cls-9"/><path data-cppathid="10041" d="M167.91,146s-4.61-1.19-6.89,2.29,24.78,16.22,23.38,19c-7.07,14-8.86,15.56-8.86,15.56l2.11,3.36s8.57-10.62,13.59-16.28S167.91,146,167.91,146Z" class="cls-8"/><path data-cppathid="10042" d="M115.32,157.88c-2.14-1.52-3.56-2.67-3.56-2.67s-2.55-6.65-3.23-4.27,1.5,5.37,1.5,5.37-6.06-4.89-7.38-4.29,3.12,3.36,3.12,3.36-4.32-1.62-5-1.54,3.73,2.6,3.73,2.6-3.92-.05-3.85.64,7.85,2.17,10.07,3.55c.44.27,1.39,1,2.66,2.07C118.45,166.78,118.43,160.12,115.32,157.88Z" class="cls-9"/><path data-cppathid="10043" d="M151.43,149.4s1.08-4.64-2.46-6.83-15.59,25.18-18.39,23.85C116.45,159.7,114.8,158,114.8,158l-3.31,2.19s10.84,8.3,16.63,13.17S151.43,149.4,151.43,149.4Z" class="cls-8"/><path data-cppathid="10044" d="M173.77,200.5s.19,2.89.24,4.34c1.1,28.19-6.75,58.63-6.75,58.63s6.51,2.17,7.6,4.34-15.2,1.09-15.2,1.09,3.25-39.09,2.17-47.77S153.14,266.72,151,270s-10.31,6.51-10.31,6.51,1.63-6.51,3.26-9.22,5.74-40.91,6-61.34c0-.56,0-1.63,0-1.63Z"/><path data-cppathid="10045" d="M158.57,143s12.93,26.26,15.1,55.57c.13,1.79.28,5.41.28,5.41l-23.7,2.53s0-1.47,0-2.17c0-20.09.7-42.89.7-42.89s1.63-23.88,3.8-22.8S158.57,143,158.57,143Z" class="cls-10"/><path data-cppathid="10046" d="M166.62,196.94l-17.1,11.61s0-1.56,0-2.3c0-21.32.67-45.52.67-45.52s.8-13.41,2-20.28C159.81,141.32,166.62,196.94,166.62,196.94Z" class="cls-8"/><path data-cppathid="10047" d="M167.38,132.75s0-.05.53-1.28c.07-.17,4.46-13.13,4.46-13.13s-4.51,1.86-15.38,4c-7.67,1.54-15.33-11.45-10.92-9.59,11.52,4.85,28.27-2.47,28.27-2.47s.15.55.19.35c1.76-8.88,2.18-18.73-1.7-26.11-9.09-17.28-37.28-32.74-45.46-13.64s.91,31.83,7.27,43.65,18.46,27.2,24,27.88C163.44,143.06,167.38,132.75,167.38,132.75Z" class="cls-9"/><path data-cppathid="10048" d="M130.65,66.34s12.59,2.66,15.62,6.3,2.62,4.45,2.65,4.61c1.61-4.08-1.29-6.06-1.29-6.06,8.74,1.45,12,1.36,21.65-1.29-6.72.75-9.47-.1-9.47-.1s6.35-.85,8.71-5.49a38.38,38.38,0,0,1-10.32,2l11.08-4.21a55.94,55.94,0,0,1-16.89-.7,36.49,36.49,0,0,0-17.5.67C132.47,62.7,130.65,66.34,130.65,66.34Z" class="cls-11"/><path data-cppathid="10049" d="M130.65,66.34s1.82,10.31,1.82,13.34-7.88,10.91-7.88,10.91-4.24-9.7-2.43-15.16S130.65,66.34,130.65,66.34Z" class="cls-11"/><polygon data-cppathid="10050" points="159.12 145.33 161.06 144.48 161.64 150.82 159.12 145.33" class="cls-12"/><polygon data-cppathid="10051" points="161.64 150.82 168.37 170.28 168.28 180.23 162.98 171.35 161.64 150.82" class="cls-12"/><path data-cppathid="10052" d="M135,89.84c2.27,7.19,3.78,9.84,3.78,9.84l20.46-3.78-.76-10.61,5.68,9.47,13.63-2.27-1.51-12.12" class="cls-13"/><path data-cppathid="10053" d="M176.25,81.32s-33.08-.35-52.9,16.59c0,0,.13,2,.13,3.12,0,.9,1-2,1.77-3,5.17-6.92,29.41-16.48,51-15.79C176.5,81.43,176.25,81.32,176.25,81.32Z" class="cls-14"/><path data-cppathid="10054" d="M155.41,92.15c0,2-1,3.64-2.13,3.64s-2.14-1.63-2.14-3.64,1-3.63,2.14-3.63S155.41,90.14,155.41,92.15Z" class="cls-15"/><path data-cppathid="10055" d="M152.64,90.44a1.07,1.07,0,1,1-1.07-1.07A1.07,1.07,0,0,1,152.64,90.44Z" class="cls-3"/><path data-cppathid="10056" d="M165.5,90c0,1.65-.79,3-1.76,3S162,91.68,162,90s.79-3,1.76-3S165.5,88.37,165.5,90Z" class="cls-15"/><path data-cppathid="10057" d="M163.58,88.74a1.07,1.07,0,1,1-1.07-1.07A1.06,1.06,0,0,1,163.58,88.74Z" class="cls-3"/><path data-cppathid="10058" d="M29.79,274.26a22.44,22.44,0,0,1-1.89,2.88,10.76,10.76,0,0,0-.6-1.17,24.32,24.32,0,0,0,4-8.12l1.43.45c-.06.13-.18.2-.42.2a34,34,0,0,1-1.38,3.56l.41.13c0,.13-.13.2-.34.24v12.06H29.79Zm12.15,5.38.85.44a.66.66,0,0,1-.2.16,8.06,8.06,0,0,1-3,2.32,23.46,23.46,0,0,0,5,1,4.22,4.22,0,0,0-.68,1,20.85,20.85,0,0,1-5.67-1.4,25.39,25.39,0,0,1-5.78,1.35,5.24,5.24,0,0,0-.61-.92,27.67,27.67,0,0,0,5.15-1A8.66,8.66,0,0,1,35,281a17.47,17.47,0,0,1-2.25,1.11,3,3,0,0,0-.72-.75,12.66,12.66,0,0,0,4.41-2.58c-.54-.13-.7-.43-.7-1.08v-1.19l1.35.09c0,.11-.11.2-.34.22v.88c0,.32.11.4.76.4H39.8c.45,0,.54-.09.61-.85a3.7,3.7,0,0,0,.85.29c-.09,1-.4,1.31-1.3,1.31H38a.56.56,0,0,1-.31.11,9.42,9.42,0,0,1-.79.72h4.85Zm-7.85-9.11h3.19a9.27,9.27,0,0,0,.27-1H32.72v-1H44.21v1H38.79c-.09.28-.22.64-.34,1h4.21v4.61h1.75v2.45H43.29V276H38.38a7.84,7.84,0,0,1,1.29,1l-.74.56A8,8,0,0,0,37,276.1l.18-.13H33.33v1.62H32.25v-2.45h1.84ZM35.44,277a7.12,7.12,0,0,1-2,2.07l-.77-.65a5.62,5.62,0,0,0,1.94-1.87Zm6.09-4.92v-.83H35.21v.83Zm0,1.53v-.84H35.21v.84Zm-6.32,1.51h6.32v-.84H35.21Zm.68,5.37a7.87,7.87,0,0,0,2.43,1.55,8.43,8.43,0,0,0,2.56-1.55Zm7.29-1.39A10.7,10.7,0,0,0,41.06,277l.81-.47A10.6,10.6,0,0,1,44,278.6Z" class="cls-2"/><path data-cppathid="10059" d="M52.52,277.23c0,.13-.14.22-.37.24-.47,3.17-1.36,5.67-5.57,7a4,4,0,0,0-.74-1c3.93-1.11,4.79-3.34,5.1-6.39Zm4.5,5.15c0,.54.13.63.85.63h2.45c.7,0,.83-.38.9-2.79a3,3,0,0,0,1.12.5c-.15,2.76-.49,3.44-1.91,3.44H57.74c-1.54,0-1.94-.37-1.94-1.8v-5.52H46.06v-1.19h7.38v-3.82H49.53a13.26,13.26,0,0,1-1.63,2.85,7.61,7.61,0,0,0-1-.58,15.94,15.94,0,0,0,2.65-5.91l1.53.36c-.06.13-.16.18-.4.18a18.65,18.65,0,0,1-.63,1.93h3.44v-2.92l1.59.09c0,.15-.13.24-.36.26v2.57h6.1v1.17h-6.1v3.82h7.4v1.19H57Z" class="cls-2"/><path data-cppathid="10060" d="M65.66,275.65c0,3.35-.14,6.28-1.38,8.77a5.17,5.17,0,0,0-.83-.72c1.06-2.31,1.19-5,1.19-8.05v-7.26l1.36.09c0,.11-.1.2-.34.24Zm1.46,6.19V269.69l1.24.09c0,.11-.09.18-.3.21v11.85Zm2.5-13.5,1.37.09c0,.11-.11.2-.34.23v15.18h-1Zm5.66,13.79a.65.65,0,0,1-.35.13,11.77,11.77,0,0,1-3.36,2.23,4.93,4.93,0,0,0-.78-.81,10.81,10.81,0,0,0,3.33-2.18Zm-3-10.55H74.9c.14-.58.3-1.28.41-1.87H71.53v-1.08h8.91v1.08h-3.9c-.13.54-.33,1.24-.53,1.87h3.82v9.47H72.29Zm6.37,2.84v-1.89H73.4v1.89Zm0,2.81v-1.89H73.4v1.89Zm0,2.87v-1.93H73.4v1.93Zm1.1,4.42a19.27,19.27,0,0,0-3-2.37l.91-.61a19.2,19.2,0,0,1,3.06,2.3Z" class="cls-2"/><path data-cppathid="10061" d="M84.13,274.1a21.27,21.27,0,0,1-2.2,3A8.09,8.09,0,0,0,81.3,276a23.88,23.88,0,0,0,4.5-8.1l1.44.49c-.07.12-.19.18-.41.16a32.46,32.46,0,0,1-1.66,3.72l.49.13c0,.11-.13.2-.36.22v11.93H84.13Zm2.29,8.34H98.5v1.17H86.42Zm.45-11.06h4.84v-3.6l1.57.09c0,.14-.11.22-.36.25v3.26H98v1.17H86.87Zm2.5,2.4a44.75,44.75,0,0,1,1.53,7.41l-1.21.26A45.16,45.16,0,0,0,88.27,274Zm7.56.3c0,.13-.2.22-.41.22a60.82,60.82,0,0,1-2,7.25s-1-.32-1-.34a53.87,53.87,0,0,0,1.92-7.54Z" class="cls-2"/><path data-cppathid="10062" d="M56.93,291.15a21.63,21.63,0,0,1-2,3,10.59,10.59,0,0,0-.63-1.14,24.19,24.19,0,0,0,4.28-8.12l1.43.47c0,.13-.18.2-.4.18a32.75,32.75,0,0,1-1.51,3.56l.41.13c0,.11-.12.2-.36.24v12.06H56.93Zm14.48,1.14H67.19c.56,4,1.72,7.24,2.92,7.25.42,0,.6-.75.67-2.53a3.23,3.23,0,0,0,1,.63c-.22,2.41-.65,3.11-1.75,3.11-2,0-3.38-3.73-4-8.46H61.77v4.95c1.39-.23,2.94-.52,4.47-.79l.05,1c-2.28.48-4.64,1-6.19,1.27a.33.33,0,0,1-.23.26l-.53-1.37,1.25-.2V286.71l.7.23a49,49,0,0,0,8.26-1.58l1,1a.39.39,0,0,1-.2,0,.44.44,0,0,1-.16,0c-.83.25-1.91.49-3.08.72a.49.49,0,0,1-.33.15,33.68,33.68,0,0,0,.24,3.92h4.34ZM59.88,301v-1.1h7.87V301Zm1.89-9.8h4.09c-.14-1.22-.21-2.52-.25-3.8-1.26.2-2.59.38-3.84.52Z" class="cls-2"/><path data-cppathid="10063" d="M28.79,273.26a22.44,22.44,0,0,1-1.89,2.88,10.76,10.76,0,0,0-.6-1.17,24.32,24.32,0,0,0,4-8.12l1.43.45c-.06.13-.18.2-.42.2a34,34,0,0,1-1.38,3.56l.41.13c0,.13-.13.2-.34.24v12.06H28.79Zm12.15,5.38.85.44a.66.66,0,0,1-.2.16,8.06,8.06,0,0,1-3,2.32,23.46,23.46,0,0,0,5,1,4.22,4.22,0,0,0-.68,1,20.85,20.85,0,0,1-5.67-1.4,25.39,25.39,0,0,1-5.78,1.35,5.24,5.24,0,0,0-.61-.92,27.67,27.67,0,0,0,5.15-1A8.66,8.66,0,0,1,34,280a17.47,17.47,0,0,1-2.25,1.11,3,3,0,0,0-.72-.75,12.66,12.66,0,0,0,4.41-2.58c-.54-.13-.7-.43-.7-1.08v-1.19l1.35.09c0,.11-.11.2-.34.22v.88c0,.32.11.4.76.4H38.8c.45,0,.54-.09.61-.85a3.7,3.7,0,0,0,.85.29c-.09,1-.4,1.31-1.3,1.31H37a.56.56,0,0,1-.31.11,9.42,9.42,0,0,1-.79.72h4.85Zm-7.85-9.11h3.19a9.27,9.27,0,0,0,.27-1H31.72v-1H43.21v1H37.79c-.09.28-.22.64-.34,1h4.21v4.61h1.75v2.45H42.29V275H37.38a7.84,7.84,0,0,1,1.29,1l-.74.56A8,8,0,0,0,36,275.1l.18-.13H32.33v1.62H31.25v-2.45h1.84ZM34.44,276a7.12,7.12,0,0,1-2,2.07l-.77-.65a5.62,5.62,0,0,0,1.94-1.87Zm6.09-4.92v-.83H34.21v.83Zm0,1.53v-.84H34.21v.84Zm-6.32,1.51h6.32v-.84H34.21Zm.68,5.37a7.87,7.87,0,0,0,2.43,1.55,8.43,8.43,0,0,0,2.56-1.55Zm7.29-1.39A10.7,10.7,0,0,0,40.06,276l.81-.47A10.6,10.6,0,0,1,43,277.6Z" class="cls-3"/><path data-cppathid="10064" d="M51.52,276.23c0,.13-.14.22-.37.24-.47,3.17-1.36,5.67-5.57,7a4,4,0,0,0-.74-1c3.93-1.11,4.79-3.34,5.1-6.39Zm4.5,5.15c0,.54.13.63.85.63h2.45c.7,0,.83-.38.9-2.79a3,3,0,0,0,1.12.5c-.15,2.76-.49,3.44-1.91,3.44H56.74c-1.54,0-1.94-.37-1.94-1.8v-5.52H45.06v-1.19h7.38v-3.82H48.53a13.26,13.26,0,0,1-1.63,2.85,7.61,7.61,0,0,0-1-.58,15.94,15.94,0,0,0,2.65-5.91l1.53.36c-.06.13-.16.18-.4.18a18.65,18.65,0,0,1-.63,1.93h3.44v-2.92l1.59.09c0,.15-.13.24-.36.26v2.57h6.1v1.17h-6.1v3.82h7.4v1.19H56Z" class="cls-3"/><path data-cppathid="10065" d="M64.66,274.65c0,3.35-.14,6.28-1.38,8.77a5.17,5.17,0,0,0-.83-.72c1.06-2.31,1.19-5,1.19-8.05v-7.26l1.36.09c0,.11-.1.2-.34.24Zm1.46,6.19V268.69l1.24.09c0,.11-.09.18-.3.21v11.85Zm2.5-13.5,1.37.09c0,.11-.11.2-.34.23v15.18h-1Zm5.66,13.79a.65.65,0,0,1-.35.13,11.77,11.77,0,0,1-3.36,2.23,4.93,4.93,0,0,0-.78-.81,10.81,10.81,0,0,0,3.33-2.18Zm-3-10.55H73.9c.14-.58.3-1.28.41-1.87H70.53v-1.08h8.91v1.08h-3.9c-.13.54-.33,1.24-.53,1.87h3.82v9.47H71.29Zm6.37,2.84v-1.89H72.4v1.89Zm0,2.81v-1.89H72.4v1.89Zm0,2.87v-1.93H72.4v1.93Zm1.1,4.42a19.27,19.27,0,0,0-3-2.37l.91-.61a19.2,19.2,0,0,1,3.06,2.3Z" class="cls-3"/><path data-cppathid="10066" d="M83.13,273.1a21.27,21.27,0,0,1-2.2,3A8.09,8.09,0,0,0,80.3,275a23.88,23.88,0,0,0,4.5-8.1l1.44.49c-.07.12-.19.18-.41.16a32.46,32.46,0,0,1-1.66,3.72l.49.13c0,.11-.13.2-.36.22v11.93H83.13Zm2.29,8.34H97.5v1.17H85.42Zm.45-11.06h4.84v-3.6l1.57.09c0,.14-.11.22-.36.25v3.26H97v1.17H85.87Zm2.5,2.4a44.75,44.75,0,0,1,1.53,7.41l-1.21.26A45.16,45.16,0,0,0,87.27,273Zm7.56.3c0,.13-.2.22-.41.22a60.82,60.82,0,0,1-2,7.25s-1-.32-1-.34a53.87,53.87,0,0,0,1.92-7.54Z" class="cls-3"/><path data-cppathid="10067" d="M55.93,290.15a21.63,21.63,0,0,1-2,3,10.59,10.59,0,0,0-.63-1.14,24.19,24.19,0,0,0,4.28-8.12l1.43.47c0,.13-.18.2-.4.18a32.75,32.75,0,0,1-1.51,3.56l.41.13c0,.11-.12.2-.36.24v12.06H55.93Zm14.48,1.14H66.19c.56,4,1.72,7.24,2.92,7.25.42,0,.6-.75.67-2.53a3.23,3.23,0,0,0,1,.63c-.22,2.41-.65,3.11-1.75,3.11-2,0-3.38-3.73-4-8.46H60.77v4.95c1.39-.23,2.94-.52,4.47-.79l.05,1c-2.28.48-4.64,1-6.19,1.27a.33.33,0,0,1-.23.26l-.53-1.37,1.25-.2V285.71l.7.23a49,49,0,0,0,8.26-1.58l1,1a.39.39,0,0,1-.2,0,.44.44,0,0,1-.16,0c-.83.25-1.91.49-3.08.72a.49.49,0,0,1-.33.15,33.68,33.68,0,0,0,.24,3.92h4.34ZM58.88,300v-1.1h7.87V300Zm1.89-9.8h4.09c-.14-1.22-.21-2.52-.25-3.8-1.26.2-2.59.38-3.84.52Z" class="cls-3"/><path data-cppathid="10068" d="M243.58,58.52h7.62l.07,0,.82.62a.26.26,0,0,1-.14.11c-1,4.51-3.06,6.86-6.73,8.25a4.74,4.74,0,0,0-.54-.71A9.06,9.06,0,0,0,251,59.35h-7.38Zm9.13-2.14a1.31,1.31,0,1,1-1.32,1.32A1.31,1.31,0,0,1,252.71,56.38Zm.92,1.32a.92.92,0,1,0-1.84,0,.92.92,0,1,0,1.84,0Z" class="cls-3"/><path data-cppathid="10069" d="M264,58.72v7.91h-.87v-.75h-6.6v.77h-.84V58.72Zm-.87,6.35V59.52h-6.6v5.55Z" class="cls-3"/><path data-cppathid="10070" d="M274.88,59.16c0,.07-.07.09-.15.13a15.82,15.82,0,0,1-1.73,4c.51.3,1.15.67,1.59,1l-.5.78a17.62,17.62,0,0,0-1.6-1,10.92,10.92,0,0,1-4.3,3.6,2.64,2.64,0,0,0-.65-.64,10.75,10.75,0,0,0,4.21-3.39,19.67,19.67,0,0,0-2.69-1.26l.47-.66a22.86,22.86,0,0,1,2.72,1.22,12.21,12.21,0,0,0,1.44-3.18h-4A12.22,12.22,0,0,1,267,63a6.31,6.31,0,0,0-.67-.54A12.15,12.15,0,0,0,270,57.06l1.12.32c-.05.14-.2.17-.34.16a13.09,13.09,0,0,1-.61,1.33h3.88l.11,0Zm-1.11-2.39a9.3,9.3,0,0,1,1.6,1.68l-.46.37a9.45,9.45,0,0,0-1.57-1.68Zm1.54-.44A9.75,9.75,0,0,1,276.94,58l-.47.36a8.69,8.69,0,0,0-1.58-1.64Z" class="cls-3"/><path data-cppathid="10071" d="M286.31,59.35a.59.59,0,0,1-.18.17c-1.25,3.88-3.22,6.38-6.53,8.06a3.13,3.13,0,0,0-.61-.66,11.27,11.27,0,0,0,6.08-7.1h-4.28a12.33,12.33,0,0,1-2.69,3,4.92,4.92,0,0,0-.68-.55A12.11,12.11,0,0,0,281.24,57l1.14.33c-.05.12-.19.15-.35.15a15.24,15.24,0,0,1-.77,1.51h4.23l.14-.07Z" class="cls-3"/><path data-cppathid="10072" d="M294.87,63.45a41.29,41.29,0,0,0-4.21-2v6h-.9V57.07l1.21.07c0,.14-.1.22-.31.26v3.5l.18-.25a41,41,0,0,1,4.51,2Z" class="cls-3"/><path data-cppathid="10073" d="M301.16,58.94c0,.1-.13.17-.31.18C300.37,62,299.38,65,298,66.81a3.61,3.61,0,0,0-.8-.43A16.38,16.38,0,0,0,300,58.69Zm6,7.8A40.06,40.06,0,0,0,304,59l.78-.37a38.43,38.43,0,0,1,3.29,7.75Zm-1.73-9.64a8.74,8.74,0,0,1,1.46,1.77l-.46.34A9.73,9.73,0,0,0,305,57.43Zm1.58-.63a9.79,9.79,0,0,1,1.47,1.77l-.46.34a9.68,9.68,0,0,0-1.47-1.76Z" class="cls-3"/><path data-cppathid="10074" d="M310.76,60.29a12.61,12.61,0,0,1,.9,2.58L311,63a13.35,13.35,0,0,0-.88-2.55Zm7.16.08c0,.11-.14.13-.25.12-.93,3.5-2.7,5.65-5.6,6.82a3.35,3.35,0,0,0-.47-.55c2.87-1.12,4.51-3.09,5.39-6.67Zm-4.24-.66a16.25,16.25,0,0,1,.56,2.72l-.71.14a14.43,14.43,0,0,0-.56-2.7Z" class="cls-3"/><path data-cppathid="10075" d="M328.32,59.35a1,1,0,0,1-.18.17c-1.26,3.88-3.23,6.38-6.54,8.06a2.88,2.88,0,0,0-.61-.66,11.27,11.27,0,0,0,6.08-7.1h-4.28a12.33,12.33,0,0,1-2.69,3,4.92,4.92,0,0,0-.68-.55A12.11,12.11,0,0,0,323.24,57l1.14.33c-.05.12-.19.15-.35.15-.24.53-.49,1-.76,1.51h4.22l.14-.07Z" class="cls-3"/><path data-cppathid="10076" d="M339.08,58.72v7.91h-.86v-.75h-6.61v.77h-.84V58.72Zm-.86,6.35V59.52h-6.61v5.55Z" class="cls-3"/><path data-cppathid="10077" d="M350,59.46a.52.52,0,0,1-.18.18c-1.27,4-3.23,6.37-6.48,8a3.39,3.39,0,0,0-.61-.66,11.11,11.11,0,0,0,6-7.06h-4.24a11.83,11.83,0,0,1-2.65,2.93,3.36,3.36,0,0,0-.67-.54,11.93,11.93,0,0,0,3.8-5.26l1.13.31c0,.12-.18.17-.33.16a17,17,0,0,1-.8,1.6h4.18l.14-.08Zm-1.48-2.76a9.51,9.51,0,0,1,1.57,1.7l-.44.39a8.89,8.89,0,0,0-1.55-1.71Zm1.74-.35a8.92,8.92,0,0,1,1.57,1.71l-.45.37a8.39,8.39,0,0,0-1.54-1.69Z" class="cls-3"/><path data-cppathid="10078" d="M362.43,58.16a.25.25,0,0,1-.15.11,10.2,10.2,0,0,1-2.85,3.84,4.65,4.65,0,0,0-.73-.49,7.35,7.35,0,0,0,2.39-3H352.5v-.81h9l.14-.06Zm-4.68,2.19a.29.29,0,0,1-.27.2c-.35,2.83-1.32,5.53-3.79,7A6.06,6.06,0,0,0,353,67c2.45-1.34,3.32-3.85,3.61-6.74Z" class="cls-3"/><path data-cppathid="10079" d="M372.19,57.84a.28.28,0,0,1-.23.1.27.27,0,0,1-.12,0,29.63,29.63,0,0,1-3.42,2.87l.29.13a.32.32,0,0,1-.27.16v6.44h-.87V61.35A35.33,35.33,0,0,1,363,64a5.21,5.21,0,0,0-.5-.66,30.51,30.51,0,0,0,8.79-6.2Z" class="cls-3"/><path data-cppathid="10080" d="M383.2,61.79h-4.05l.2.06a.25.25,0,0,1-.24.14,6.51,6.51,0,0,1-3.7,5.48,7.69,7.69,0,0,0-.65-.6,5.69,5.69,0,0,0,3.46-5.08h-4.66V61h9.64ZM382,58.4h-7.36v-.8H382Z" class="cls-3"/><path data-cppathid="10081" d="M393.85,67.21c-.18-.41-.4-.84-.64-1.27-2.49.26-6.6.51-8.43.61a.35.35,0,0,1-.23.24l-.32-1.08,1.26,0c.79-2.3,1.93-5.89,2.59-8.29l1.16.31a.35.35,0,0,1-.35.17c-.66,2.21-1.69,5.42-2.52,7.77,2-.08,4.84-.28,6.42-.43a20.15,20.15,0,0,0-2.13-2.92l.72-.41a24.73,24.73,0,0,1,3.31,5Z" class="cls-3"/><path data-cppathid="10082" d="M310.3,73.78a7.61,7.61,0,0,0,0,11v.06h-.72a7.94,7.94,0,0,1,0-11.16h.72Z" class="cls-3"/><path data-cppathid="10083" d="M311.51,74.84a11.18,11.18,0,0,1,2.07-.18c2.95,0,3.19,1.89,3.19,2.61,0,2.15-1.71,2.92-3.33,2.92a3.45,3.45,0,0,1-.94-.09v3.76h-1Zm1,4.44a3.77,3.77,0,0,0,1,.09c1.44,0,2.32-.72,2.32-2s-.94-1.89-2.19-1.89a5.13,5.13,0,0,0-1.09.1Z" class="cls-3"/><path data-cppathid="10084" d="M321.86,79a2.32,2.32,0,0,1,1.88,2.3,2.42,2.42,0,0,1-.73,1.8,4.11,4.11,0,0,1-3,.86,14.74,14.74,0,0,1-1.69-.1v-9a9.7,9.7,0,0,1,2-.19,3.61,3.61,0,0,1,2.42.67,2,2,0,0,1,.68,1.58,2.19,2.19,0,0,1-1.55,2Zm-1.45-.34c1.21,0,2-.7,2-1.63h0c0-1.08-.79-1.55-2-1.55a5,5,0,0,0-1,.08v3.11Zm-1.07,4.45a5,5,0,0,0,1,.06c1.26,0,2.39-.49,2.39-1.87s-1.19-1.87-2.4-1.87h-1Z" class="cls-3"/><path data-cppathid="10085" d="M325.31,74.72h1v9.14h-1Z" class="cls-3"/><path data-cppathid="10086" d="M327.52,84.82a7.61,7.61,0,0,0,0-11v-.06h.72a7.94,7.94,0,0,1,0,11.16h-.72Z" class="cls-3"/><path data-cppathid="10087" d="M245.18,108.39h7.63l.07,0,.82.62a.25.25,0,0,1-.15.11c-1,4.51-3.06,6.86-6.73,8.25a6.12,6.12,0,0,0-.53-.7,9.11,9.11,0,0,0,6.28-7.42h-7.39Zm9.14-2.15a1.32,1.32,0,1,1-1.32,1.32A1.32,1.32,0,0,1,254.32,106.24Zm.91,1.32a.92.92,0,1,0-1.83,0,.93.93,0,0,0,.92.92A.92.92,0,0,0,255.23,107.56Z" class="cls-3"/><path data-cppathid="10088" d="M265.56,108.58v7.91h-.86v-.75h-6.61v.78h-.84v-7.94Zm-.86,6.35v-5.55h-6.61v5.55Z" class="cls-3"/><path data-cppathid="10089" d="M276.48,109c0,.07-.07.1-.14.13a15.84,15.84,0,0,1-1.74,4c.52.3,1.15.67,1.6,1l-.51.77a18.92,18.92,0,0,0-1.59-1,10.87,10.87,0,0,1-4.31,3.6,2.44,2.44,0,0,0-.65-.63,10.79,10.79,0,0,0,4.21-3.4,20.82,20.82,0,0,0-2.68-1.26l.47-.66a24.72,24.72,0,0,1,2.72,1.23,12.88,12.88,0,0,0,1.44-3.18h-4a12.71,12.71,0,0,1-2.7,3.27,6.31,6.31,0,0,0-.67-.54,12.15,12.15,0,0,0,3.66-5.35l1.11.33c-.05.13-.19.16-.33.15a13.21,13.21,0,0,1-.62,1.33h3.89l.11,0Zm-1.1-2.38a8.94,8.94,0,0,1,1.6,1.67l-.46.38A9.83,9.83,0,0,0,275,107Zm1.54-.45a9.79,9.79,0,0,1,1.63,1.66l-.47.36a8.75,8.75,0,0,0-1.58-1.65Z" class="cls-3"/><path data-cppathid="10090" d="M287.92,109.21a1,1,0,0,1-.18.17c-1.26,3.89-3.23,6.38-6.54,8.06a3.1,3.1,0,0,0-.61-.66,11.22,11.22,0,0,0,6.08-7.1h-4.28a12.29,12.29,0,0,1-2.68,3,5.94,5.94,0,0,0-.69-.55,12.23,12.23,0,0,0,3.83-5.2l1.14.32a.35.35,0,0,1-.35.16c-.24.52-.49,1-.77,1.51h4.22l.15-.07Z" class="cls-3"/><path data-cppathid="10091" d="M296.48,113.31c-1.23-.65-2.9-1.43-4.21-2v6h-.9V106.93l1.21.08c0,.13-.11.21-.31.25v3.5l.18-.25a41,41,0,0,1,4.51,2Z" class="cls-3"/><path data-cppathid="10092" d="M302.77,108.81a.34.34,0,0,1-.31.18,18.13,18.13,0,0,1-2.88,7.68,4.16,4.16,0,0,0-.81-.43c1.35-1.63,2.4-4.68,2.79-7.69Zm6,7.79a40,40,0,0,0-3.19-7.72l.78-.37a38.69,38.69,0,0,1,3.29,7.74ZM307.06,107a8.8,8.8,0,0,1,1.47,1.77l-.46.34a10.16,10.16,0,0,0-1.46-1.78Zm1.59-.62a10.25,10.25,0,0,1,1.47,1.76l-.47.35a9.67,9.67,0,0,0-1.46-1.77Z" class="cls-3"/><path data-cppathid="10093" d="M312.37,110.15a13.24,13.24,0,0,1,.9,2.58l-.67.18a13.91,13.91,0,0,0-.88-2.56Zm7.16.08c0,.11-.15.13-.25.12-.94,3.5-2.7,5.65-5.6,6.83a3.43,3.43,0,0,0-.47-.55c2.86-1.13,4.51-3.1,5.38-6.67Zm-4.25-.66a16.41,16.41,0,0,1,.57,2.73l-.71.13a14.6,14.6,0,0,0-.56-2.7Z" class="cls-3"/><path data-cppathid="10094" d="M329.92,109.21a1,1,0,0,1-.18.17c-1.26,3.89-3.22,6.38-6.53,8.06a3.46,3.46,0,0,0-.62-.66,11.22,11.22,0,0,0,6.08-7.1h-4.28a12.29,12.29,0,0,1-2.68,3,5.94,5.94,0,0,0-.69-.55,12.23,12.23,0,0,0,3.83-5.2l1.14.32c-.05.12-.19.16-.35.16-.24.52-.49,1-.77,1.51h4.22l.15-.07Z" class="cls-3"/><path data-cppathid="10095" d="M340.69,108.58v7.91h-.87v-.75h-6.61v.78h-.84v-7.94Zm-.87,6.35v-5.55h-6.61v5.55Z" class="cls-3"/><path data-cppathid="10096" d="M351.58,109.32a.77.77,0,0,1-.18.18c-1.27,4-3.24,6.37-6.49,8a2.83,2.83,0,0,0-.61-.65,11.13,11.13,0,0,0,6-7.07H346.1a11.83,11.83,0,0,1-2.65,2.93,3.68,3.68,0,0,0-.67-.54,12,12,0,0,0,3.8-5.26l1.13.32c0,.12-.18.16-.34.15a17,17,0,0,1-.79,1.6h4.17l.15-.07Zm-1.49-2.76a9,9,0,0,1,1.58,1.71l-.45.38a8.55,8.55,0,0,0-1.55-1.7Zm1.74-.34a8,8,0,0,1,1.57,1.7l-.44.37a8.43,8.43,0,0,0-1.55-1.69Z" class="cls-3"/><path data-cppathid="10097" d="M364,108a.37.37,0,0,1-.16.1A10.29,10.29,0,0,1,361,112a6.2,6.2,0,0,0-.73-.49,7.22,7.22,0,0,0,2.38-3h-8.58v-.82h9l.13-.06Zm-4.68,2.18c0,.1-.12.18-.28.2-.34,2.83-1.32,5.53-3.79,7a5,5,0,0,0-.7-.55c2.44-1.35,3.32-3.85,3.61-6.74Z" class="cls-3"/><path data-cppathid="10098" d="M373.79,107.7a.28.28,0,0,1-.23.1h-.12a29.61,29.61,0,0,1-3.41,2.86l.28.13a.28.28,0,0,1-.26.16v6.44h-.88v-6.16a33.59,33.59,0,0,1-4.57,2.67,3.83,3.83,0,0,0-.5-.66,30.37,30.37,0,0,0,8.79-6.2Z" class="cls-3"/><path data-cppathid="10099" d="M384.81,111.65h-4.06l.21.06a.27.27,0,0,1-.24.14,6.52,6.52,0,0,1-3.71,5.48,7.6,7.6,0,0,0-.64-.6,5.69,5.69,0,0,0,3.46-5.08h-4.66v-.81h9.64Zm-1.19-3.38h-7.36v-.81h7.36Z" class="cls-3"/><path data-cppathid="10100" d="M395.45,117.07c-.18-.41-.39-.84-.63-1.27-2.5.26-6.6.51-8.43.61a.33.33,0,0,1-.23.24l-.33-1.08c.36,0,.8,0,1.26,0,.79-2.3,1.93-5.89,2.59-8.29l1.17.32a.36.36,0,0,1-.35.16c-.66,2.21-1.69,5.43-2.52,7.78,2-.09,4.83-.29,6.42-.44a21,21,0,0,0-2.14-2.92l.72-.41a23.91,23.91,0,0,1,3.31,5Z" class="cls-3"/><path data-cppathid="10101" d="M311.91,123.65a7.58,7.58,0,0,0,0,11v.06h-.72a7.93,7.93,0,0,1,0-11.15h.72Z" class="cls-3"/><path data-cppathid="10102" d="M313.11,124.7a12.26,12.26,0,0,1,2.08-.18c2.95,0,3.19,1.9,3.19,2.62,0,2.14-1.72,2.91-3.34,2.91a3.89,3.89,0,0,1-.93-.08v3.75h-1Zm1,4.44a3.72,3.72,0,0,0,1,.1c1.44,0,2.31-.72,2.31-2s-.93-1.88-2.18-1.88a5.29,5.29,0,0,0-1.09.09Z" class="cls-3"/><path data-cppathid="10103" d="M323.47,128.83a2.33,2.33,0,0,1,1.88,2.3,2.4,2.4,0,0,1-.73,1.8,4.12,4.12,0,0,1-3,.86c-.76,0-1.32-.06-1.7-.09v-9a10.68,10.68,0,0,1,2-.19,3.58,3.58,0,0,1,2.41.67,2,2,0,0,1,.69,1.59,2.18,2.18,0,0,1-1.55,2Zm-1.45-.34c1.21,0,2-.69,2-1.63h0c0-1.08-.79-1.55-2-1.55a4.08,4.08,0,0,0-1,.09v3.1ZM321,132.94a5,5,0,0,0,1,.06c1.26,0,2.39-.49,2.39-1.87s-1.19-1.87-2.4-1.87h-1Z" class="cls-3"/><path data-cppathid="10104" d="M326.91,124.58h1v9.14h-1Z" class="cls-3"/><path data-cppathid="10105" d="M329.12,134.68a7.58,7.58,0,0,0,0-11v-.06h.72a7.93,7.93,0,0,1,0,11.15h-.72Z" class="cls-3"/><path data-cppathid="10106" d="M245.86,154h7.62l.07,0,.82.62a.23.23,0,0,1-.14.11c-1,4.51-3.06,6.86-6.73,8.25a5.31,5.31,0,0,0-.54-.71,9.06,9.06,0,0,0,6.28-7.41h-7.38ZM255,151.8a1.32,1.32,0,1,1-1.32,1.32A1.32,1.32,0,0,1,255,151.8Zm.92,1.32a.92.92,0,1,0-1.84,0,.92.92,0,0,0,1.84,0Z" class="cls-3"/><path data-cppathid="10107" d="M266.24,154.14v7.91h-.86v-.75h-6.61v.78h-.84v-7.94Zm-.86,6.35v-5.55h-6.61v5.55Z" class="cls-3"/><path data-cppathid="10108" d="M277.16,154.58c0,.07-.07.1-.15.13a15.82,15.82,0,0,1-1.73,4c.51.3,1.15.67,1.59,1l-.5.78a17.62,17.62,0,0,0-1.6-1,10.84,10.84,0,0,1-4.3,3.6,2.83,2.83,0,0,0-.65-.64A10.75,10.75,0,0,0,274,159a20.93,20.93,0,0,0-2.69-1.26l.47-.66a26.6,26.6,0,0,1,2.72,1.22A12.3,12.3,0,0,0,276,155.1h-4a12.32,12.32,0,0,1-2.7,3.27,5.43,5.43,0,0,0-.67-.54,12.15,12.15,0,0,0,3.66-5.35l1.12.33c-.05.13-.2.16-.34.15a13.09,13.09,0,0,1-.61,1.33h3.88l.11,0Zm-1.11-2.39a9.3,9.3,0,0,1,1.6,1.68l-.46.38a9.45,9.45,0,0,0-1.57-1.68Zm1.54-.44a9.44,9.44,0,0,1,1.63,1.66l-.47.36a8.45,8.45,0,0,0-1.58-1.65Z" class="cls-3"/><path data-cppathid="10109" d="M288.59,154.77a.69.69,0,0,1-.17.17c-1.26,3.89-3.23,6.38-6.54,8.06a3.39,3.39,0,0,0-.61-.66,11.27,11.27,0,0,0,6.08-7.1h-4.28a12.33,12.33,0,0,1-2.69,3,5.79,5.79,0,0,0-.68-.55,12.13,12.13,0,0,0,3.82-5.2l1.14.32c-.05.12-.19.16-.35.16-.24.52-.49,1-.77,1.51h4.23l.14-.07Z" class="cls-3"/><path data-cppathid="10110" d="M297.15,158.87a46.09,46.09,0,0,0-4.21-2v6H292V152.49l1.21.08c0,.13-.1.21-.31.25v3.5l.18-.25a41,41,0,0,1,4.51,2Z" class="cls-3"/><path data-cppathid="10111" d="M303.44,154.37c0,.09-.13.16-.31.18-.48,2.87-1.47,5.91-2.88,7.68a3.61,3.61,0,0,0-.8-.43,16.38,16.38,0,0,0,2.78-7.69Zm6,7.79a40,40,0,0,0-3.19-7.72l.78-.37a38.12,38.12,0,0,1,3.29,7.74Zm-1.73-9.64a8.42,8.42,0,0,1,1.46,1.77l-.46.34a9.73,9.73,0,0,0-1.46-1.78Zm1.58-.63a9.79,9.79,0,0,1,1.47,1.77l-.46.35a9.73,9.73,0,0,0-1.47-1.77Z" class="cls-3"/><path data-cppathid="10112" d="M313,155.71a12.61,12.61,0,0,1,.9,2.58l-.67.18a13.2,13.2,0,0,0-.88-2.56Zm7.16.08c0,.11-.14.13-.25.12-.93,3.5-2.7,5.65-5.6,6.83a3.41,3.41,0,0,0-.47-.56c2.87-1.12,4.51-3.09,5.39-6.66Zm-4.24-.66a16.45,16.45,0,0,1,.56,2.72l-.71.14a14.6,14.6,0,0,0-.56-2.7Z" class="cls-3"/><path data-cppathid="10113" d="M330.6,154.77a1,1,0,0,1-.18.17c-1.26,3.89-3.23,6.38-6.54,8.06a3.1,3.1,0,0,0-.61-.66,11.27,11.27,0,0,0,6.08-7.1h-4.28a12.33,12.33,0,0,1-2.69,3,5.79,5.79,0,0,0-.68-.55,12.13,12.13,0,0,0,3.82-5.2l1.14.32c-.05.12-.19.16-.35.16-.24.52-.49,1-.76,1.51h4.22l.14-.07Z" class="cls-3"/><path data-cppathid="10114" d="M341.36,154.14v7.91h-.86v-.75h-6.61v.78h-.84v-7.94Zm-.86,6.35v-5.55h-6.61v5.55Z" class="cls-3"/><path data-cppathid="10115" d="M352.25,154.88a.58.58,0,0,1-.17.18c-1.28,4-3.24,6.37-6.49,8a2.85,2.85,0,0,0-.61-.65,11.13,11.13,0,0,0,6-7.07h-4.24a11.83,11.83,0,0,1-2.65,2.93,3.36,3.36,0,0,0-.67-.54,11.93,11.93,0,0,0,3.8-5.26l1.13.32c0,.12-.18.16-.33.15a17,17,0,0,1-.8,1.6h4.18l.14-.08Zm-1.48-2.76a9.23,9.23,0,0,1,1.57,1.71l-.44.38a8.55,8.55,0,0,0-1.55-1.7Zm1.74-.35a8.92,8.92,0,0,1,1.57,1.71l-.45.37a8.39,8.39,0,0,0-1.54-1.69Z" class="cls-3"/><path data-cppathid="10116" d="M364.71,153.59a.28.28,0,0,1-.15.1,10.2,10.2,0,0,1-2.85,3.84A5.47,5.47,0,0,0,361,157a7.24,7.24,0,0,0,2.39-3h-8.59v-.82h9l.14-.06ZM360,155.77a.29.29,0,0,1-.27.2c-.35,2.83-1.32,5.53-3.79,7a5.12,5.12,0,0,0-.71-.55c2.45-1.35,3.32-3.85,3.61-6.74Z" class="cls-3"/><path data-cppathid="10117" d="M374.47,153.26a.28.28,0,0,1-.23.1h-.12a30.62,30.62,0,0,1-3.42,2.86l.29.13a.3.3,0,0,1-.27.16v6.44h-.87v-6.16a34.21,34.21,0,0,1-4.57,2.67,5.21,5.21,0,0,0-.5-.66,30.51,30.51,0,0,0,8.79-6.2Z" class="cls-3"/><path data-cppathid="10118" d="M385.48,157.21h-4.05l.2.06a.25.25,0,0,1-.24.14,6.51,6.51,0,0,1-3.7,5.48c-.15-.15-.45-.44-.65-.6a5.69,5.69,0,0,0,3.46-5.08h-4.66v-.81h9.64Zm-1.19-3.38h-7.36V153h7.36Z" class="cls-3"/><path data-cppathid="10119" d="M396.13,162.63c-.18-.41-.4-.84-.64-1.27-2.49.26-6.6.51-8.43.61a.35.35,0,0,1-.23.24l-.32-1.08c.36,0,.79,0,1.26,0,.79-2.3,1.93-5.89,2.59-8.29l1.16.32a.36.36,0,0,1-.35.16c-.66,2.21-1.69,5.42-2.52,7.78,2-.09,4.84-.29,6.42-.44a20.15,20.15,0,0,0-2.13-2.92l.72-.41a24.31,24.31,0,0,1,3.31,5Z" class="cls-3"/><path data-cppathid="10120" d="M312.58,169.21a7.6,7.6,0,0,0,0,11v.06h-.72a7.93,7.93,0,0,1,0-11.15h.72Z" class="cls-3"/><path data-cppathid="10121" d="M313.79,170.26a12.13,12.13,0,0,1,2.07-.18c2.95,0,3.19,1.9,3.19,2.62,0,2.14-1.71,2.91-3.33,2.91a3.92,3.92,0,0,1-.94-.08v3.75h-1Zm1,4.44a3.77,3.77,0,0,0,1,.1c1.44,0,2.32-.72,2.32-2s-.94-1.88-2.18-1.88a5.33,5.33,0,0,0-1.1.09Z" class="cls-3"/><path data-cppathid="10122" d="M324.14,174.39a2.32,2.32,0,0,1,1.88,2.3,2.4,2.4,0,0,1-.73,1.8,4.11,4.11,0,0,1-3,.86c-.76,0-1.32-.06-1.69-.09v-9a10.48,10.48,0,0,1,2-.19,3.61,3.61,0,0,1,2.42.67,2,2,0,0,1,.68,1.59,2.17,2.17,0,0,1-1.55,2Zm-1.45-.34c1.21,0,2-.69,2-1.63h0c0-1.08-.79-1.55-2-1.55a4.14,4.14,0,0,0-1,.09v3.1Zm-1.07,4.45a5,5,0,0,0,1,.06c1.26,0,2.39-.49,2.39-1.87s-1.19-1.87-2.4-1.87h-1Z" class="cls-3"/><path data-cppathid="10123" d="M327.59,170.14h1v9.14h-1Z" class="cls-3"/><path data-cppathid="10124" d="M329.8,180.24a7.6,7.6,0,0,0,0-11v-.06h.72a7.93,7.93,0,0,1,0,11.15h-.72Z" class="cls-3"/><path data-cppathid="10125" d="M246.65,201h7.63l.07,0,.82.62a.3.3,0,0,1-.15.11c-1,4.51-3.06,6.86-6.73,8.25a5.46,5.46,0,0,0-.53-.71,9.08,9.08,0,0,0,6.28-7.41h-7.39Zm9.14-2.14a1.31,1.31,0,1,1-1.32,1.32A1.31,1.31,0,0,1,255.79,198.88Zm.91,1.32a.92.92,0,1,0-1.83,0,.93.93,0,0,0,.92.92A.92.92,0,0,0,256.7,200.2Z" class="cls-3"/><path data-cppathid="10126" d="M267,201.22v7.91h-.86v-.75h-6.61v.77h-.84v-7.93Zm-.86,6.35V202h-6.61v5.55Z" class="cls-3"/><path data-cppathid="10127" d="M278,201.66c0,.07-.07.09-.14.13a15.84,15.84,0,0,1-1.74,4c.52.3,1.15.67,1.6,1l-.51.78a18.92,18.92,0,0,0-1.59-1,11,11,0,0,1-4.31,3.6,2.48,2.48,0,0,0-.65-.64,10.68,10.68,0,0,0,4.21-3.39,19.56,19.56,0,0,0-2.68-1.26l.47-.66a22.86,22.86,0,0,1,2.72,1.22,12.55,12.55,0,0,0,1.44-3.18h-4a12.77,12.77,0,0,1-2.7,3.28,6.31,6.31,0,0,0-.67-.54,12.15,12.15,0,0,0,3.66-5.35l1.11.32c0,.14-.19.17-.33.16-.17.43-.39.9-.61,1.33h3.88l.11,0Zm-1.1-2.39a9.3,9.3,0,0,1,1.6,1.68l-.46.37a9.83,9.83,0,0,0-1.57-1.68Zm1.54-.44a9.75,9.75,0,0,1,1.63,1.65l-.47.36A9,9,0,0,0,278,199.2Z" class="cls-3"/><path data-cppathid="10128" d="M289.39,201.85a1,1,0,0,1-.18.17c-1.26,3.88-3.23,6.38-6.54,8.06a2.88,2.88,0,0,0-.61-.66,11.24,11.24,0,0,0,6.08-7.1h-4.28a12.29,12.29,0,0,1-2.68,3,5,5,0,0,0-.69-.55,12.21,12.21,0,0,0,3.83-5.21l1.14.33c0,.12-.19.15-.35.15a15.24,15.24,0,0,1-.77,1.51h4.22l.15-.07Z" class="cls-3"/><path data-cppathid="10129" d="M298,206a42.31,42.31,0,0,0-4.21-1.95v6h-.9V199.57l1.21.07c0,.14-.11.22-.31.26v3.5l.18-.25a41,41,0,0,1,4.51,2Z" class="cls-3"/><path data-cppathid="10130" d="M304.24,201.44a.31.31,0,0,1-.31.18,18.13,18.13,0,0,1-2.88,7.69,3.68,3.68,0,0,0-.81-.43c1.35-1.63,2.4-4.68,2.79-7.69Zm6,7.8a40.06,40.06,0,0,0-3.19-7.73l.78-.37a39,39,0,0,1,3.29,7.75Zm-1.74-9.64a8.8,8.8,0,0,1,1.47,1.77l-.46.34a10.16,10.16,0,0,0-1.46-1.78Zm1.59-.63a10.69,10.69,0,0,1,1.47,1.77l-.47.34a9.61,9.61,0,0,0-1.46-1.76Z" class="cls-3"/><path data-cppathid="10131" d="M313.84,202.79a13.38,13.38,0,0,1,.9,2.57l-.67.18a14.08,14.08,0,0,0-.88-2.55Zm7.16.08c0,.11-.14.13-.25.12-.94,3.5-2.7,5.65-5.6,6.82a3.93,3.93,0,0,0-.47-.55c2.86-1.12,4.51-3.09,5.38-6.67Zm-4.25-.66a16.3,16.3,0,0,1,.57,2.72l-.71.13a14.5,14.5,0,0,0-.56-2.69Z" class="cls-3"/><path data-cppathid="10132" d="M331.39,201.85a1,1,0,0,1-.18.17c-1.26,3.88-3.22,6.38-6.53,8.06a3.19,3.19,0,0,0-.62-.66,11.28,11.28,0,0,0,6.09-7.1h-4.29a12.29,12.29,0,0,1-2.68,3,5,5,0,0,0-.69-.55,12.21,12.21,0,0,0,3.83-5.21l1.14.33c0,.12-.19.15-.35.15a15.24,15.24,0,0,1-.77,1.51h4.22l.15-.07Z" class="cls-3"/><path data-cppathid="10133" d="M342.16,201.22v7.91h-.87v-.75h-6.61v.77h-.84v-7.93Zm-.87,6.35V202h-6.61v5.55Z" class="cls-3"/><path data-cppathid="10134" d="M353.05,202a.77.77,0,0,1-.18.18c-1.27,4-3.24,6.37-6.49,8a2.86,2.86,0,0,0-.61-.66,11.11,11.11,0,0,0,6-7.06h-4.23a11.79,11.79,0,0,1-2.65,2.92,4.77,4.77,0,0,0-.67-.54,11.92,11.92,0,0,0,3.8-5.25l1.13.31c0,.12-.18.17-.34.16-.24.54-.51,1.11-.79,1.6h4.17l.15-.08Zm-1.49-2.76a9.22,9.22,0,0,1,1.58,1.7l-.45.39a9.17,9.17,0,0,0-1.54-1.71Zm1.74-.35a8.32,8.32,0,0,1,1.57,1.71l-.44.37a8.17,8.17,0,0,0-1.55-1.69Z" class="cls-3"/><path data-cppathid="10135" d="M365.51,200.66a.31.31,0,0,1-.16.11,10.29,10.29,0,0,1-2.84,3.84,5.17,5.17,0,0,0-.73-.49,7.24,7.24,0,0,0,2.38-3h-8.58v-.81h9l.13-.06Zm-4.68,2.19c0,.09-.12.18-.28.2-.34,2.83-1.32,5.53-3.79,7a5.92,5.92,0,0,0-.7-.56c2.44-1.34,3.32-3.85,3.61-6.74Z" class="cls-3"/><path data-cppathid="10136" d="M375.26,200.34a.28.28,0,0,1-.23.1.3.3,0,0,1-.12,0,28.69,28.69,0,0,1-3.41,2.87l.28.13a.3.3,0,0,1-.26.16V210h-.88v-6.17a34.66,34.66,0,0,1-4.57,2.68,3.83,3.83,0,0,0-.5-.66,30.51,30.51,0,0,0,8.79-6.2Z" class="cls-3"/><path data-cppathid="10137" d="M386.28,204.29h-4.06l.21.06a.27.27,0,0,1-.24.14,6.52,6.52,0,0,1-3.71,5.48,6.25,6.25,0,0,0-.64-.6,5.69,5.69,0,0,0,3.46-5.08h-4.66v-.81h9.64Zm-1.19-3.39h-7.36v-.8h7.36Z" class="cls-3"/><path data-cppathid="10138" d="M396.92,209.71c-.18-.41-.39-.84-.63-1.28-2.5.27-6.6.52-8.43.62a.35.35,0,0,1-.23.24l-.33-1.08,1.26-.05c.79-2.3,1.93-5.89,2.59-8.29l1.17.31a.35.35,0,0,1-.35.17c-.66,2.21-1.69,5.42-2.52,7.77,2-.08,4.83-.28,6.42-.43a21.7,21.7,0,0,0-2.14-2.93l.72-.4a23.65,23.65,0,0,1,3.31,5Z" class="cls-3"/><path data-cppathid="10139" d="M313.38,216.28a7.59,7.59,0,0,0,0,11v.06h-.72a7.94,7.94,0,0,1,0-11.16h.72Z" class="cls-3"/><path data-cppathid="10140" d="M314.58,217.34a11.3,11.3,0,0,1,2.08-.18c2.95,0,3.19,1.89,3.19,2.61,0,2.15-1.72,2.92-3.33,2.92a3.45,3.45,0,0,1-.94-.09v3.76h-1Zm1,4.44a3.77,3.77,0,0,0,1,.09c1.44,0,2.31-.72,2.31-2s-.93-1.89-2.18-1.89a5.13,5.13,0,0,0-1.09.1Z" class="cls-3"/><path data-cppathid="10141" d="M324.94,221.47a2.33,2.33,0,0,1,1.88,2.3,2.42,2.42,0,0,1-.73,1.8,4.12,4.12,0,0,1-3,.86,15.11,15.11,0,0,1-1.7-.1v-9a9.88,9.88,0,0,1,2-.19,3.58,3.58,0,0,1,2.41.67,2,2,0,0,1,.69,1.58,2.2,2.2,0,0,1-1.55,2Zm-1.45-.34c1.21,0,2-.7,2-1.63h0c0-1.08-.79-1.55-2-1.55a4.25,4.25,0,0,0-1,.08v3.11Zm-1.07,4.45a5,5,0,0,0,1,.06c1.26,0,2.39-.49,2.39-1.87s-1.19-1.87-2.4-1.87h-1Z" class="cls-3"/><path data-cppathid="10142" d="M328.38,217.22h1v9.14h-1Z" class="cls-3"/><path data-cppathid="10143" d="M330.59,227.32a7.59,7.59,0,0,0,0-11v-.06h.72a7.94,7.94,0,0,1,0,11.16h-.72Z" class="cls-3"/><path data-cppathid="10144" d="M258.41,252.2h6.36l.06,0,.68.52a.23.23,0,0,1-.12.09c-.81,3.76-2.55,5.72-5.61,6.88a4.37,4.37,0,0,0-.45-.59,7.57,7.57,0,0,0,5.24-6.18h-6.16Zm7.62-1.79a1.1,1.1,0,1,1-1.1,1.1A1.09,1.09,0,0,1,266,250.41Zm.76,1.1a.76.76,0,0,0-.76-.77.77.77,0,1,0,.76.77Z" class="cls-3"/><path data-cppathid="10145" d="M275.4,252.36V259h-.72v-.63h-5.51V259h-.7v-6.62Zm-.72,5.3V253h-5.51v4.63Z" class="cls-3"/><path data-cppathid="10146" d="M284.5,252.73c0,.06-.06.08-.12.11a13.2,13.2,0,0,1-1.45,3.3c.43.25,1,.56,1.33.82l-.42.65a14.48,14.48,0,0,0-1.33-.86,9.11,9.11,0,0,1-3.59,3,2.1,2.1,0,0,0-.54-.53,9,9,0,0,0,3.51-2.83,16.67,16.67,0,0,0-2.24-1l.39-.55a19.43,19.43,0,0,1,2.27,1,10.41,10.41,0,0,0,1.2-2.65h-3.3a10.49,10.49,0,0,1-2.25,2.73,5.24,5.24,0,0,0-.56-.45,10.12,10.12,0,0,0,3.05-4.46l.93.27a.25.25,0,0,1-.28.13,11,11,0,0,1-.51,1.11h3.24l.09,0Zm-.92-2a7.58,7.58,0,0,1,1.33,1.4l-.38.31a8.14,8.14,0,0,0-1.31-1.4Zm1.28-.37a8,8,0,0,1,1.36,1.38l-.39.3a7.39,7.39,0,0,0-1.32-1.37Z" class="cls-3"/><path data-cppathid="10147" d="M294,252.89a.67.67,0,0,1-.15.14,10.49,10.49,0,0,1-5.45,6.72,2.6,2.6,0,0,0-.51-.55,9.39,9.39,0,0,0,5.07-5.92h-3.57a10.25,10.25,0,0,1-2.24,2.47,3.94,3.94,0,0,0-.57-.46A10.16,10.16,0,0,0,289.8,251l.95.27c0,.1-.16.13-.29.13-.2.44-.41.86-.64,1.26h3.52l.12-.06Z" class="cls-3"/><path data-cppathid="10148" d="M301.16,256.31a36.12,36.12,0,0,0-3.51-1.63v5h-.75V251l1,.06c0,.11-.09.18-.26.21v2.92l.15-.21a34.76,34.76,0,0,1,3.76,1.67Z" class="cls-3"/><path data-cppathid="10149" d="M306.4,252.55c0,.08-.11.14-.26.15a15.1,15.1,0,0,1-2.4,6.41,3.07,3.07,0,0,0-.67-.36,13.66,13.66,0,0,0,2.32-6.41Zm5,6.5a33.81,33.81,0,0,0-2.66-6.44l.65-.31a32.18,32.18,0,0,1,2.74,6.46ZM310,251a7.15,7.15,0,0,1,1.22,1.48l-.38.28a8.07,8.07,0,0,0-1.22-1.48Zm1.32-.52a8.2,8.2,0,0,1,1.23,1.47l-.39.29a8,8,0,0,0-1.22-1.47Z" class="cls-3"/><path data-cppathid="10150" d="M314.4,253.67a10.82,10.82,0,0,1,.75,2.15l-.56.15a11.22,11.22,0,0,0-.73-2.13Zm6,.07c0,.09-.12.11-.21.1-.78,2.92-2.25,4.71-4.67,5.69a2.72,2.72,0,0,0-.39-.46c2.39-.94,3.76-2.58,4.49-5.56Zm-3.54-.55a13.69,13.69,0,0,1,.47,2.27l-.59.11a12,12,0,0,0-.47-2.25Z" class="cls-3"/><path data-cppathid="10151" d="M329,252.89a.67.67,0,0,1-.15.14,10.49,10.49,0,0,1-5.45,6.72,2.6,2.6,0,0,0-.51-.55,9.39,9.39,0,0,0,5.07-5.92h-3.57a10.25,10.25,0,0,1-2.24,2.47,3.94,3.94,0,0,0-.57-.46A10.16,10.16,0,0,0,324.8,251l.95.27c0,.1-.16.13-.29.13-.2.44-.41.86-.64,1.26h3.52l.12-.06Z" class="cls-3"/><path data-cppathid="10152" d="M338,252.36V259h-.72v-.63h-5.51V259h-.7v-6.62Zm-.72,5.3V253h-5.51v4.63Z" class="cls-3"/><path data-cppathid="10153" d="M347.08,253a.54.54,0,0,1-.15.15,10.34,10.34,0,0,1-5.41,6.69,2.37,2.37,0,0,0-.51-.55,9.26,9.26,0,0,0,5-5.89h-3.53a10,10,0,0,1-2.21,2.44,3.24,3.24,0,0,0-.56-.45,10,10,0,0,0,3.17-4.38l.94.26c0,.1-.15.14-.28.13-.2.45-.43.93-.66,1.33h3.48l.12-.06Zm-1.24-2.3a7.51,7.51,0,0,1,1.31,1.42l-.37.32a7.18,7.18,0,0,0-1.29-1.42Zm1.45-.29a7.22,7.22,0,0,1,1.31,1.42l-.37.31a7.08,7.08,0,0,0-1.29-1.41Z" class="cls-3"/><path data-cppathid="10154" d="M357.46,251.9a.25.25,0,0,1-.13.09,8.57,8.57,0,0,1-2.37,3.2,4.33,4.33,0,0,0-.61-.41,6,6,0,0,0,2-2.48h-7.16v-.68h7.54l.11-.05Zm-3.9,1.82c0,.08-.1.15-.23.17-.29,2.36-1.1,4.61-3.16,5.8a4.83,4.83,0,0,0-.59-.46c2-1.12,2.77-3.21,3-5.62Z" class="cls-3"/><path data-cppathid="10155" d="M365.59,251.63a.23.23,0,0,1-.19.08h-.1a24.32,24.32,0,0,1-2.85,2.39l.24.11a.26.26,0,0,1-.22.13v5.37h-.73v-5.14a28.79,28.79,0,0,1-3.81,2.23,3.64,3.64,0,0,0-.42-.55,25.38,25.38,0,0,0,7.33-5.17Z" class="cls-3"/><path data-cppathid="10156" d="M374.77,254.92h-3.38l.17.05a.22.22,0,0,1-.2.12,5.43,5.43,0,0,1-3.09,4.57,5.31,5.31,0,0,0-.54-.5,4.75,4.75,0,0,0,2.89-4.24h-3.89v-.67h8Zm-1-2.82h-6.14v-.67h6.14Z" class="cls-3"/><path data-cppathid="10157" d="M383.64,259.44c-.15-.34-.33-.7-.53-1.06-2.08.22-5.5.43-7,.51a.28.28,0,0,1-.19.2l-.27-.9,1.05,0c.66-1.92,1.61-4.91,2.16-6.91l1,.26a.29.29,0,0,1-.29.14c-.55,1.84-1.41,4.52-2.1,6.48,1.66-.07,4-.24,5.35-.36a17.24,17.24,0,0,0-1.78-2.44l.6-.34a19.86,19.86,0,0,1,2.76,4.14Z" class="cls-3"/><path data-cppathid="10158" d="M314,263.75a6.33,6.33,0,0,0,0,9.2V273h-.6a6.62,6.62,0,0,1,0-9.3h.6Z" class="cls-3"/><path data-cppathid="10159" d="M315,264.63a9.65,9.65,0,0,1,1.73-.15c2.46,0,2.66,1.58,2.66,2.18,0,1.79-1.43,2.43-2.78,2.43a3.14,3.14,0,0,1-.78-.07v3.13H315Zm.83,3.7a3,3,0,0,0,.8.08c1.2,0,1.93-.6,1.93-1.69s-.78-1.57-1.82-1.57a4.41,4.41,0,0,0-.91.08Z" class="cls-3"/><path data-cppathid="10160" d="M323.65,268.07a2,2,0,0,1,1.57,1.92,2,2,0,0,1-.61,1.5,3.44,3.44,0,0,1-2.48.72,13.44,13.44,0,0,1-1.41-.08v-7.49a8.26,8.26,0,0,1,1.64-.16,3,3,0,0,1,2,.56,1.67,1.67,0,0,1,.57,1.32,1.82,1.82,0,0,1-1.29,1.68Zm-1.21-.28c1,0,1.66-.58,1.66-1.36h0c0-.9-.66-1.29-1.7-1.29a3.58,3.58,0,0,0-.85.07v2.59Zm-.89,3.71a4.33,4.33,0,0,0,.81.05c1.05,0,2-.41,2-1.56s-1-1.56-2-1.56h-.8Z" class="cls-3"/><path data-cppathid="10161" d="M326.52,264.53h.83v7.62h-.83Z" class="cls-3"/><path data-cppathid="10162" d="M328.36,273a6.33,6.33,0,0,0,0-9.2v-.05h.6a6.62,6.62,0,0,1,0,9.3h-.6Z" class="cls-3"/><path data-cppathid="10163" d="M269.76,294h5.09l0,0,.54.42a.22.22,0,0,1-.09.07c-.65,3-2,4.57-4.49,5.5a4.17,4.17,0,0,0-.36-.47,6,6,0,0,0,4.19-4.94h-4.93Zm6.1-1.43a.88.88,0,1,1-.88.88A.88.88,0,0,1,275.86,292.55Zm.6.88a.6.6,0,0,0-.6-.61.61.61,0,0,0-.62.61.62.62,0,0,0,.62.62A.61.61,0,0,0,276.46,293.43Z" class="cls-3"/><path data-cppathid="10164" d="M283.35,294.11v5.28h-.57v-.5h-4.41v.52h-.56v-5.3Zm-.57,4.24v-3.7h-4.41v3.7Z" class="cls-3"/><path data-cppathid="10165" d="M290.63,294.41s-.05.06-.09.09a11.11,11.11,0,0,1-1.16,2.64c.34.2.76.44,1.06.65l-.34.52a10.78,10.78,0,0,0-1.06-.69,7.2,7.2,0,0,1-2.87,2.4,1.72,1.72,0,0,0-.43-.42,7.3,7.3,0,0,0,2.81-2.26,12.6,12.6,0,0,0-1.8-.84l.32-.44a14.87,14.87,0,0,1,1.81.81,8.3,8.3,0,0,0,1-2.12H287.2a8.07,8.07,0,0,1-1.8,2.18,4,4,0,0,0-.44-.35,8.16,8.16,0,0,0,2.43-3.57l.75.21a.2.2,0,0,1-.23.11,8.7,8.7,0,0,1-.4.89h2.59l.07,0Zm-.73-1.59a5.87,5.87,0,0,1,1.06,1.12l-.3.24a7.28,7.28,0,0,0-1.05-1.12Zm1-.3a6.32,6.32,0,0,1,1.09,1.11l-.31.23a6.39,6.39,0,0,0-1.06-1.09Z" class="cls-3"/><path data-cppathid="10166" d="M298.26,294.54l-.12.11a8.38,8.38,0,0,1-4.36,5.37,2.38,2.38,0,0,0-.41-.44,7.5,7.5,0,0,0,4.06-4.73h-2.86a8.12,8.12,0,0,1-1.79,2,2.94,2.94,0,0,0-.46-.36,8.12,8.12,0,0,0,2.55-3.47l.76.21c0,.08-.12.11-.23.11-.16.35-.33.68-.51,1h2.81l.1-.05Z" class="cls-3"/><path data-cppathid="10167" d="M304,297.27a26.62,26.62,0,0,0-2.81-1.3v4h-.59v-7l.8,0c0,.09-.07.15-.21.17v2.34l.12-.17a28.49,28.49,0,0,1,3,1.33Z" class="cls-3"/><path data-cppathid="10168" d="M308.15,294.26c0,.07-.08.12-.2.12a12.14,12.14,0,0,1-1.92,5.13,2.54,2.54,0,0,0-.54-.29,10.93,10.93,0,0,0,1.86-5.12Zm4,5.2a27.57,27.57,0,0,0-2.13-5.15l.52-.25a26.19,26.19,0,0,1,2.19,5.17ZM311,293a5.83,5.83,0,0,1,1,1.19l-.3.22a6.4,6.4,0,0,0-1-1.18Zm1.05-.41a6.62,6.62,0,0,1,1,1.17l-.32.23a6.28,6.28,0,0,0-1-1.17Z" class="cls-3"/><path data-cppathid="10169" d="M314.56,295.16a8.36,8.36,0,0,1,.59,1.72l-.44.12a9.32,9.32,0,0,0-.59-1.7Zm4.77.06c0,.07-.1.08-.17.08a6.16,6.16,0,0,1-3.73,4.55,2.64,2.64,0,0,0-.31-.37,5.68,5.68,0,0,0,3.59-4.45Zm-2.83-.44a10,10,0,0,1,.37,1.81l-.47.09a9.45,9.45,0,0,0-.37-1.8Z" class="cls-3"/><path data-cppathid="10170" d="M326.26,294.54a.43.43,0,0,1-.12.11,8.38,8.38,0,0,1-4.36,5.37,2.38,2.38,0,0,0-.41-.44,7.5,7.5,0,0,0,4.06-4.73h-2.86a8.12,8.12,0,0,1-1.79,2,2.94,2.94,0,0,0-.46-.36,8.22,8.22,0,0,0,2.56-3.47l.76.21a.25.25,0,0,1-.24.11,10.42,10.42,0,0,1-.51,1h2.82l.09-.05Z" class="cls-3"/><path data-cppathid="10171" d="M333.43,294.11v5.28h-.57v-.5h-4.41v.52h-.56v-5.3Zm-.57,4.24v-3.7h-4.41v3.7Z" class="cls-3"/><path data-cppathid="10172" d="M340.7,294.61a.34.34,0,0,1-.12.12,8.3,8.3,0,0,1-4.33,5.35,1.87,1.87,0,0,0-.41-.44,7.42,7.42,0,0,0,4-4.71H337a7.91,7.91,0,0,1-1.76,1.95,3.38,3.38,0,0,0-.45-.36,7.94,7.94,0,0,0,2.53-3.5l.76.2c0,.09-.12.12-.23.11a10.47,10.47,0,0,1-.53,1.06h2.79l.09-.05Zm-1-1.84a6.06,6.06,0,0,1,1,1.13l-.29.26a5.81,5.81,0,0,0-1-1.14Zm1.16-.23a5.76,5.76,0,0,1,1,1.13l-.29.25a6,6,0,0,0-1-1.13Z" class="cls-3"/><path data-cppathid="10173" d="M349,293.74a.2.2,0,0,1-.1.08,7,7,0,0,1-1.9,2.56,2.8,2.8,0,0,0-.49-.33,4.86,4.86,0,0,0,1.6-2h-5.73v-.54h6l.09,0Zm-3.12,1.46a.21.21,0,0,1-.18.14c-.23,1.88-.88,3.68-2.53,4.63a3.62,3.62,0,0,0-.47-.36c1.63-.9,2.21-2.57,2.41-4.5Z" class="cls-3"/><path data-cppathid="10174" d="M355.51,293.53a.2.2,0,0,1-.16.06h-.08A19,19,0,0,1,353,295.5l.2.08a.22.22,0,0,1-.18.11V300h-.58v-4.11a22.3,22.3,0,0,1-3.05,1.78,2.67,2.67,0,0,0-.34-.43,20.25,20.25,0,0,0,5.87-4.14Z" class="cls-3"/><path data-cppathid="10175" d="M362.85,296.16h-2.7l.13,0c0,.05-.07.09-.16.1a4.33,4.33,0,0,1-2.47,3.65,3.37,3.37,0,0,0-.43-.4,3.8,3.8,0,0,0,2.31-3.39h-3.11v-.54h6.43Zm-.79-2.26h-4.91v-.53h4.91Z" class="cls-3"/><path data-cppathid="10176" d="M369.94,299.77c-.12-.27-.26-.56-.42-.84-1.66.17-4.4.34-5.62.4a.21.21,0,0,1-.15.16l-.22-.72.84,0c.53-1.53,1.29-3.92,1.73-5.52l.77.21c0,.07-.11.11-.23.11-.44,1.47-1.12,3.61-1.68,5.18,1.33-.06,3.23-.19,4.28-.29a12.88,12.88,0,0,0-1.42-1.95l.48-.27a15.56,15.56,0,0,1,2.2,3.31Z" class="cls-3"/><path data-cppathid="10177" d="M314.25,303.83a5.06,5.06,0,0,0,0,7.35v0h-.48a5.28,5.28,0,0,1,0-7.43h.48Z" class="cls-3"/><path data-cppathid="10178" d="M315.05,304.53a8.15,8.15,0,0,1,1.39-.12c2,0,2.12,1.26,2.12,1.74a2,2,0,0,1-2.22,2,2.37,2.37,0,0,1-.62-.06v2.5h-.67Zm.67,3a2.31,2.31,0,0,0,.64.06c.95,0,1.54-.48,1.54-1.35s-.63-1.26-1.46-1.26a3.49,3.49,0,0,0-.72.07Z" class="cls-3"/><path data-cppathid="10179" d="M322,307.28a1.56,1.56,0,0,1,1.26,1.53,1.59,1.59,0,0,1-.49,1.2,2.74,2.74,0,0,1-2,.58c-.5,0-.88,0-1.13-.06v-6a6.81,6.81,0,0,1,1.31-.13,2.35,2.35,0,0,1,1.61.45,1.31,1.31,0,0,1,.46,1.05,1.47,1.47,0,0,1-1,1.35Zm-1-.22c.8,0,1.32-.47,1.32-1.09h0c0-.72-.52-1-1.36-1a3,3,0,0,0-.67.05v2.08Zm-.71,3a3.53,3.53,0,0,0,.64,0c.84,0,1.59-.33,1.59-1.25s-.79-1.24-1.6-1.24h-.63Z" class="cls-3"/><path data-cppathid="10180" d="M324.25,304.45h.66v6.09h-.66Z" class="cls-3"/><path data-cppathid="10181" d="M325.72,311.18a5,5,0,0,0,0-7.35v0h.48a5.28,5.28,0,0,1,0,7.43h-.48Z" class="cls-3"/></g></g></g></svg>