<?xml version="1.0" encoding="UTF-8"?>
<svg xmlns="http://www.w3.org/2000/svg" onmouseup="{ if(window.parent.document.onmouseup) window.parent.document.onmouseup(arguments[0]);}" viewBox="0 0 338.2 33.75"><defs><style>.cls-1{fill:#606060;}</style></defs><g data-name="Layer 2" id="Layer_2"><g data-name="sprint planning 2" id="sprint_planning_2"><path data-cppathid="10000" transform="translate(-1.69 -0.42)" d="M5.34,6.47H24.61L25,6.33l2.39,2.39-3.8,6.61a34.77,34.77,0,0,1-2.39,3.37q4.36,4.23,6.05,6.05,1.13,1.13,4.92,5.77L29,33.05a46.45,46.45,0,0,0-3.38-4.64q-3.37-3.94-6.47-7a55.7,55.7,0,0,1-7,6.6,44.24,44.24,0,0,1-7.87,4.79,18.1,18.1,0,0,0-1.13-1.83,3.1,3.1,0,0,1-.49-.64,2.66,2.66,0,0,0-.91-.77,43.52,43.52,0,0,0,12.09-7.45q4.22-3.94,9-12.38H5.34Z" class="cls-1"/><path data-cppathid="10001" transform="translate(-1.69 -0.42)" d="M35.58,7.17H58.92l.42-.28,2.54,2.39a60.78,60.78,0,0,1-4.79,11.11,30.08,30.08,0,0,1-6.18,7.17,37.79,37.79,0,0,1-11.25,6.05,11.43,11.43,0,0,0-.85-1.83,3.12,3.12,0,0,0-.42-.63c-.19-.23-.47-.54-.84-.92a39,39,0,0,0,7.59-3.09,22.87,22.87,0,0,0,5.2-3.94,28.09,28.09,0,0,0,4.08-5.48q1-1.83,3.1-7.17H35.58ZM63,.42a3.82,3.82,0,0,1,2.81,1.13,3.65,3.65,0,0,1,1.13,2.67A3.86,3.86,0,0,1,63,8.16,3.65,3.65,0,0,1,60.33,7,3.82,3.82,0,0,1,59.2,4.22a3.65,3.65,0,0,1,1.13-2.67A3.65,3.65,0,0,1,63,.42Zm0,1.83a1.78,1.78,0,0,0-1.27.56A2,2,0,0,0,61,4.22a2,2,0,0,0,.7,1.4A1.75,1.75,0,0,0,63,6.19a1.93,1.93,0,0,0,2-2,1.91,1.91,0,0,0-2-2Z" class="cls-1"/><path data-cppathid="10002" transform="translate(-1.69 -0.42)" d="M69.61,22.78V5.06h3.8V22.78Zm4.64,11.39a15,15,0,0,0-1.83-3.37,30.24,30.24,0,0,0,5.77-2,9,9,0,0,0,3.37-2.53,8.13,8.13,0,0,0,2.11-3.38,36.26,36.26,0,0,0,.71-7.87V3.52H88V16q0,7.59-2.67,11.53T74.25,34.17Z" class="cls-1"/><path data-cppathid="10003" transform="translate(-1.69 -0.42)" d="M118.12,10.69a7.39,7.39,0,0,0,1.13,1.4,5.61,5.61,0,0,0,1.55,1.27,76,76,0,0,1-7.18,7.87,64.68,64.68,0,0,1-8,6.19,99.78,99.78,0,0,1-11,5.77l-2-3.94a41.35,41.35,0,0,0,7-2.81,60.25,60.25,0,0,0,6.89-4.08,51.6,51.6,0,0,0,5.91-5.06A53.38,53.38,0,0,0,118.12,10.69Zm-14.62.14L101,13.78q-3.09-2.8-4.22-3.66a10.25,10.25,0,0,0-1-.77l-1.55-1q-.84-.57-1.41-1L95.06,4.5A25.65,25.65,0,0,1,97.8,6.19c.8.56,1.34.94,1.62,1.12A50.27,50.27,0,0,1,103.5,10.83Z" class="cls-1"/><path data-cppathid="10004" transform="translate(-1.69 -0.42)" d="M124.88,34V2.81h3.93v10q6.33,2.25,8.16,3.09,1.54.7,7.17,3.66L142,23.06c-2.16-1.4-4.41-2.72-6.75-3.94a54.3,54.3,0,0,0-6.47-2.53V34Z" class="cls-1"/><path data-cppathid="10005" transform="translate(-1.69 -0.42)" d="M147.23,7.17h23.35l.42-.28,2.53,2.39a60.13,60.13,0,0,1-4.78,11.11,30.13,30.13,0,0,1-6.19,7.17,37.67,37.67,0,0,1-11.25,6.05,11.49,11.49,0,0,0-.84-1.83,4.29,4.29,0,0,0-.42-.63c-.19-.23-.47-.54-.85-.92a39.45,39.45,0,0,0,7.6-3.09A23.09,23.09,0,0,0,162,23.2a28.92,28.92,0,0,0,4.08-5.48c.65-1.22,1.69-3.61,3.09-7.17H147.23ZM174.66.42a3.82,3.82,0,0,1,2.81,1.13,3.64,3.64,0,0,1,1.12,2.67,3.84,3.84,0,0,1-3.93,3.94A3.66,3.66,0,0,1,172,7a3.81,3.81,0,0,1-1.12-2.81A3.64,3.64,0,0,1,172,1.55,3.66,3.66,0,0,1,174.66.42Zm0,1.83a1.76,1.76,0,0,0-1.27.56,2,2,0,0,0-.7,1.41,2,2,0,0,0,.7,1.4,1.74,1.74,0,0,0,1.27.57,1.93,1.93,0,0,0,2-2,1.91,1.91,0,0,0-2-2Z" class="cls-1"/><path data-cppathid="10006" transform="translate(-1.69 -0.42)" d="M180.7,12.66h24.47l.71-.14,2,1.82a63.26,63.26,0,0,1-5.2,9.71A25.42,25.42,0,0,1,197,29.39a36.2,36.2,0,0,1-11.82,4.78c-.09-.47-.28-1.17-.56-2.11a15.2,15.2,0,0,0-1.12-1.54,28.37,28.37,0,0,0,9.28-2.68,19.86,19.86,0,0,0,5.9-4.64,31.76,31.76,0,0,0,4.36-7.31H180.7Zm3.38-4.93V4.5h19.54V7.73Z" class="cls-1"/><path data-cppathid="10007" transform="translate(-1.69 -0.42)" d="M236.81,10.69a7,7,0,0,0,1.13,1.4,5.69,5.69,0,0,0,1.54,1.27,75,75,0,0,1-7.17,7.87,65.44,65.44,0,0,1-8,6.19,99.78,99.78,0,0,1-11,5.77l-2-3.94a41.7,41.7,0,0,0,7-2.81,60.25,60.25,0,0,0,6.89-4.08,51.6,51.6,0,0,0,5.91-5.06A54.25,54.25,0,0,0,236.81,10.69Zm-14.62.14-2.53,2.95c-2.07-1.87-3.47-3.09-4.22-3.66a9.47,9.47,0,0,0-1-.77c-.47-.33-1-.68-1.54-1s-1-.71-1.41-1l2.25-2.81a26.7,26.7,0,0,1,2.74,1.69c.8.56,1.34.94,1.62,1.12Q220.91,9.56,222.19,10.83Z" class="cls-1"/><path data-cppathid="10008" transform="translate(-1.69 -0.42)" d="M242.44,28.69V25.17h30.79v3.52Zm4.08-16.88V8.3h22.36v3.51Z" class="cls-1"/><path data-cppathid="10009" transform="translate(-1.69 -0.42)" d="M302.06,10.69a7,7,0,0,0,1.13,1.4,5.69,5.69,0,0,0,1.54,1.27,75,75,0,0,1-7.17,7.87,65.44,65.44,0,0,1-8,6.19,99.78,99.78,0,0,1-11,5.77l-2-3.94a41.7,41.7,0,0,0,7-2.81,61.17,61.17,0,0,0,6.89-4.08,51.6,51.6,0,0,0,5.91-5.06A53.38,53.38,0,0,0,302.06,10.69Zm-14.62.14-2.53,2.95c-2.07-1.87-3.47-3.09-4.22-3.66a9.47,9.47,0,0,0-1-.77c-.47-.33-1-.68-1.54-1s-1-.71-1.41-1L279,4.5a26.7,26.7,0,0,1,2.74,1.69c.8.56,1.34.94,1.62,1.12Q286.17,9.56,287.44,10.83Z" class="cls-1"/><path data-cppathid="10010" transform="translate(-1.69 -0.42)" d="M320.91,9.28h10.4l.57-.14,2.24,2.11a56.46,56.46,0,0,1-4.21,9.28,28.75,28.75,0,0,1-4.36,5.63,32,32,0,0,1-6.05,4.36,29.36,29.36,0,0,1-7.73,3.23,10.76,10.76,0,0,1-.57-1.41l-1.54-1.82A41,41,0,0,0,317,28a19.69,19.69,0,0,0,5.48-3.79,24.74,24.74,0,0,0,4.22-4.92c1-2.07,2.06-4.41,3.1-7H319.36a47.64,47.64,0,0,1-8.72,10.27,3.86,3.86,0,0,0-1.26-1.27c-.85-.56-1.46-.93-1.83-1.12a36.6,36.6,0,0,0,6.61-6.61,57.6,57.6,0,0,0,5.2-9.84L323,5.06a4.23,4.23,0,0,1-.29.49c-.09.15-.23.4-.42.78s-.37.77-.56,1.19S321.28,8.53,320.91,9.28Zm10-2.81,1.69-1.69q3,2.53,3.94,3.52L334.83,10Q333.84,9,330.89,6.47Zm9-1.41-2,1.83q-3.09-3.09-3.8-3.66l1.55-1.68C337.83,3.23,339.23,4.41,339.89,5.06Z" class="cls-1"/></g></g></svg>