<?xml version="1.0" encoding="UTF-8"?>
<svg xmlns="http://www.w3.org/2000/svg" onmouseup="{ if(window.parent.document.onmouseup) window.parent.document.onmouseup(arguments[0]);}" viewBox="0 0 1200 1200" version="1.1" height="1200pt" width="1200pt"><g><path data-cppathid="10000" d="m376.08 743.78c44.562 0 80.77 36.324 80.77 80.887s-36.207 80.77-80.77 80.77-80.887-36.207-80.887-80.77c0.003907-44.562 36.324-80.887 80.887-80.887zm-5.8203 11.902c-14.691 1.2383-28.156 7.0742-38.832 16.09l38.832 38.836zm11.605 54.926 38.812-38.816c-10.617-9.0352-24.098-14.883-38.812-16.113zm8.2031 8.207h54.883c-1.2383-14.742-7.0742-28.145-16.086-38.801zm0 11.605 38.789 38.793c9.0312-10.676 14.871-24.094 16.098-38.793zm-8.2031 8.2031v54.91c14.711-1.2305 28.188-7.0742 38.805-16.105zm-11.605 0-38.824 38.828c10.676 9.0117 24.137 14.844 38.824 16.082zm-8.207-8.2031h-54.961c1.2266 14.719 7.082 28.152 16.133 38.832zm0-11.605-38.836-38.84c-9.0312 10.664-14.883 24.078-16.121 38.84z"/><path data-cppathid="10001" d="m556.19 743.78c44.562 0 80.77 36.324 80.77 80.887s-36.207 80.77-80.77 80.77-80.887-36.207-80.887-80.77 36.324-80.887 80.887-80.887zm-5.8242 11.902c-14.691 1.2383-28.156 7.0742-38.832 16.09l38.832 38.836zm11.605 54.926 38.812-38.816c-10.617-9.0352-24.098-14.883-38.812-16.113zm8.2031 8.207h54.883c-1.2383-14.742-7.0742-28.145-16.086-38.801zm0 11.605 38.789 38.793c9.0312-10.676 14.871-24.094 16.098-38.793zm-8.2031 8.2031v54.91c14.711-1.2305 28.188-7.0742 38.805-16.105zm-11.605 0-38.824 38.828c10.676 9.0117 24.137 14.844 38.824 16.082zm-8.2031-8.2031h-54.961c1.2266 14.719 7.082 28.152 16.133 38.832zm0-11.605-38.836-38.84c-9.0312 10.664-14.883 24.078-16.121 38.84z"/><path data-cppathid="10002" d="m736.3 743.78c44.562 0 80.77 36.324 80.77 80.887s-36.207 80.77-80.77 80.77-80.887-36.207-80.887-80.77 36.324-80.887 80.887-80.887zm-5.8203 11.902c-14.691 1.2383-28.156 7.0742-38.832 16.09l38.832 38.836zm11.602 54.926 38.812-38.816c-10.617-9.0352-24.098-14.883-38.812-16.113zm8.207 8.207h54.883c-1.2383-14.742-7.0742-28.141-16.086-38.801zm0 11.605 38.789 38.793c9.0312-10.676 14.871-24.094 16.098-38.793zm-8.207 8.2031v54.91c14.711-1.2305 28.188-7.0742 38.801-16.105zm-11.602 0-38.824 38.828c10.676 9.0117 24.137 14.844 38.824 16.082zm-8.207-8.2031h-54.961c1.2266 14.719 7.082 28.152 16.133 38.832zm0-11.605-38.836-38.844c-9.0312 10.664-14.883 24.078-16.121 38.844z"/><path data-cppathid="10003" d="m492.83 682.97v-76.941h324.7c12.07 0 21.816 9.75 21.816 21.816v60.926h-340.72c-3.2461 0.003906-5.8008-2.668-5.8008-5.8008z"/><path data-cppathid="10004" d="m850.95 750.75v-116.4c4.293 1.043 8.2383 3.25 11.488 6.3828 4.5273 4.6406 6.9609 10.793 6.9609 17.293v7.1953 0.23047 80.188 0.23047 7.3125c0 4.4102-1.1602 8.8203-3.4805 12.535z"/><path data-cppathid="10005" d="m881.01 739.02v-66.844c7.7773 2.4375 13.348 9.6328 13.348 18.219v30.289c0 8.5898-5.5703 15.785-13.348 18.336z"/><path data-cppathid="10006" d="m787.12 517.95v76.477h-53.383v-76.477c0-10.211-4.6406-20.309-13.344-29.359-1.9727-2.0898-3.1328-4.875-3.1328-7.7734 0-6.3828 5.1055-11.488 11.488-11.488h63.363c6.3828 0 11.488 5.1055 11.488 11.488 0 2.9023-1.1602 5.6875-3.1328 7.7734-8.7031 9.0508-13.348 19.145-13.348 29.359z"/><path data-cppathid="10007" d="m481.22 410.96h-186.61v20.887h186.61z"/><path data-cppathid="10008" d="m661.79 555.09v39.34h-31.449v-39.34c0-8.5859 7.0781-15.668 15.668-15.668 8.7031 0.003906 15.781 7.082 15.781 15.668z"/><path data-cppathid="10009" d="m927.08 871.9-88.082-88.078v-28.551l116.63 116.63z"/><path data-cppathid="10010" d="m288.82 777.32c3.25 0 5.8008-2.668 5.8008-5.8008v-252.06c0-12.648-8.8203-23.324-20.773-25.879v-50.133h213.18 0.23047 14.738v50.133c-11.953 2.668-20.773 13.23-20.773 25.879v163.51c0 9.5156 7.7734 17.406 17.406 17.406h340.72v38.762l-1.9727-1.9727c-1.7422-1.625-4.1758-2.0898-6.3828-1.2773-2.0898 0.92969-3.5977 3.0156-3.5977 5.3398v61.504c-0.46484 0.23047-0.8125 0.34766-1.2773 0.58203-9.5156-40.734-46.188-71.137-89.82-71.137-43.75 0-80.652 30.637-90.168 71.602-9.3984-40.965-46.188-71.602-89.938-71.602s-80.652 30.637-90.168 71.602c-9.3984-40.965-46.188-71.602-89.938-71.602-44.215 0-81.348 31.219-90.402 72.879l-41.316-0.003906v-27.734zm116.62-121.04h51.293v-103.29c0-14.156-11.488-25.648-25.645-25.648-14.16 0-25.648 11.488-25.648 25.648l0.003906 103.29zm-86.34 0h51.293v-103.29c0-14.156-11.488-25.648-25.645-25.648-14.16 0-25.648 11.488-25.648 25.648z"/><path data-cppathid="10011" d="m882.05 871.9-43.055-43.051v-28.551l71.719 71.602z"/><path data-cppathid="10012" d="m839 871.9v-26.574l26.691 26.574z"/><path data-cppathid="10013" d="m465.79 805.05c0.11719-0.34766 0.23047-0.8125 0.23047-1.2773 0.11719 0.46484 0.23047 0.92969 0.34766 1.2773z"/><path data-cppathid="10014" d="m645.89 805.05c0.11719-0.34766 0.23047-0.8125 0.23047-1.2773 0.11719 0.46484 0.23047 0.92969 0.34766 1.2773z"/><path data-cppathid="10015" d="m785.62 413.86c7.0508 30.586-41.422 36.27-42.359 5.1055-2.9023-1.7422-5.5703-4.0625-7.7734-6.7305-10.805 5.4023-22.051 4.9805-34.352 2.0898-12.934 20.949-43.672 19.996-55.473-1.3906-13.891 7.8906-32.082 6.2656-40.035-11.836-20.969 6.7344-46.715-9.0625-43.285-38.18-10.445-5.8008-17.176-17.059-17.176-29.359 0-29.609 35.312-45.059 57.098-24.488 12.332-17.918 38.156-19.492 52.801-3.25 16.102-17.598 45.312-12.973 55.238 8.8203 17.648-10.332 43.02-0.035157 45.375 22.047 24.738-7.7891 47.141 17.297 37.02 41.082 4.8359 12.082 2.4844 26.348-7.0781 36.09z"/></g></svg>