<?xml version="1.0" encoding="UTF-8"?>
<svg xmlns="http://www.w3.org/2000/svg" onmouseup="{ if(window.parent.document.onmouseup) window.parent.document.onmouseup(arguments[0]);}" viewBox="0 0 391.04 350"><defs><style>.cls-1{fill:#2760a6;}.cls-2{fill:none;stroke:#2760a6;stroke-miterlimit:10;stroke-width:2px;}</style></defs><g data-name="Layer 2" id="Layer_2"><g data-name="Running Tested Features" id="Running_Tested_Features"><g id="background"><path data-cppathid="10000" transform="translate(0 -18.13)" d="M12.65,305.47H10.22v-2h2.43v-3.75h1.56v3.75h2.34v-4.93h1.64v2.5h1.88v-2.18h1.64v2.18h4.37a1.25,1.25,0,0,1,1.18.55,5.67,5.67,0,0,1,.86,2.58,6.35,6.35,0,0,0-2,.7V303.2c0-.15,0-.23-.07-.23a.49.49,0,0,0-.32-.08h-4v6.95H20.07v-6.95H18.19v7.19H16.55v-4.61H14.21v3.75H12.65Zm1.56,8.67h-4v-1.72h4v-2h1.64v2h2.73c-.1-.26-.2-.6-.31-1a8.06,8.06,0,0,0-.31-1h1.56l.78,2h6a1.85,1.85,0,0,1,1.09.24,2.64,2.64,0,0,1,.47.7,19.69,19.69,0,0,1,.39,2.26,7.27,7.27,0,0,0-1.87.55v-1.72a.32.32,0,0,0-.08-.23.46.46,0,0,0-.31-.08H20.93c.05.05.36.83.94,2.34l-1.8.47c-.05-.31-.34-1.25-.86-2.81H15.85v2.42H14.21Zm10.16-8.75,1.09,1.25a23.1,23.1,0,0,0-2.27,2.27L22,307.73A24.65,24.65,0,0,1,24.37,305.39Z" class="cls-1"/><path data-cppathid="10001" transform="translate(0 -18.13)" d="M20.07,289.14H17.8V279h3.6v1.8H19.29v6.8h2.18v1.56H20.3l.39,1.64-.47.16.08,1.17h7.89v1.72H20.54c0,.15.08,1.07.23,2.73l-1.72.31v-1.79c-.52-.26-1-.5-1.33-.71l-1.09-.62A37.42,37.42,0,0,0,14.68,297l-1.41-.86.47-.94q-3-1.32-3.75-1.56l.78-1.72c1.67.84,2.92,1.49,3.75,2l.63-1-2.89-1.48.86-1.72,4.21,2.5a8.86,8.86,0,0,1,.82.54c.29.21.56.39.82.55a17.06,17.06,0,0,0-.07-1.95l-1.57.54-.54-1.64C18,289.77,19.13,289.4,20.07,289.14Zm-8-4H10.22v-1.72H12.1V279h1.56v4.46h1.49v-3.67h1.56v8.75H15.15v-3.36H13.66v4H12.1Zm14.69-1.64H20.38v-1.65h6l.07-.07v-.86a1,1,0,0,0-.15-.63,6.79,6.79,0,0,0-1.88-.39,13.64,13.64,0,0,0,.63-1.64,7.55,7.55,0,0,1,2.42.78,2.38,2.38,0,0,1,.55,1.72v.94a1.85,1.85,0,0,1-.39,1.33A1,1,0,0,1,26.79,283.52Zm1.48,5.85a7.08,7.08,0,0,0-1.56,1,5.8,5.8,0,0,0-1.33-2.58,4.3,4.3,0,0,0-1.64-.86,16.55,16.55,0,0,0-3.36-.23v-1.8a14.76,14.76,0,0,1,4,.47,4.79,4.79,0,0,1,1.95,1.09A9.12,9.12,0,0,1,28.27,289.37Zm-3.36.08.39,1.49c-.88.21-2,.44-3.43.7l-.32-1.48,2-.32A10.86,10.86,0,0,0,24.91,289.45Zm1.88,5.94L26.32,297a15.35,15.35,0,0,0-4.69-1.09L22,294.3a21.71,21.71,0,0,1,2.19.31A22,22,0,0,1,26.79,295.39Z" class="cls-1"/><path data-cppathid="10002" transform="translate(0 -18.13)" d="M12.8,276.41H11.16v-17.5H12.8v2.81H26.16c.68,0,1.1.18,1.25.55a13.94,13.94,0,0,1,.63,3.12c-.21.05-.43.12-.67.2l-.58.19a2.67,2.67,0,0,0-.71.47v-2.58a.44.44,0,0,0-.31-.08h-13Zm11.57-2H15.3v-7.65h8.13v1.8h-.94v4h1.88Zm-3.44-5.85H16.87v4h4.06Z" class="cls-1"/><path data-cppathid="10003" transform="translate(0 -18.13)" d="M16.32,256.48l-1.8.32-.08-1.8q-3-1.09-4.45-1.56l.63-2,3.82,1.64q-.15-1.32-.39-3.12l-1.48,1.17-1-1.4a37.64,37.64,0,0,1,3.67-2.58l1,1.56-.94.47Q16.08,254.38,16.32,256.48Zm.62-9.76H10.3v-1.8h2.58a39,39,0,0,0-1.41-4.61l1.57-.86a32.58,32.58,0,0,1,1.33,5.47h2.18c.06,0,.13,0,.24-.15s.15-.19.15-.24a2,2,0,0,0,.08-.86v-1.4a5,5,0,0,0-.08-1.33.68.68,0,0,0-.39-.39,9.48,9.48,0,0,0-1.48-.32,6.62,6.62,0,0,0,.78-1.79,6.28,6.28,0,0,1,1.87.62,1.36,1.36,0,0,1,.63.78,9.58,9.58,0,0,1,.16,2v1.72a7.39,7.39,0,0,1-.24,2.5A1.44,1.44,0,0,1,16.94,246.72Zm11.25,8.75H16.87v-6.95h9.21a2.07,2.07,0,0,1,1.18.23,2.38,2.38,0,0,1,.62.78,8.06,8.06,0,0,1,.39,1.72,8.84,8.84,0,0,0-2,.7v-1.4a.49.49,0,0,0-.08-.32H23.82v3.6h4.37Zm-8.51-5.24H18.35v3.6h1.33Zm6.17-3.51H19.21v-1.8h2.58L21,242.19c-.06-.21-.32-.83-.79-1.88l1.57-.86c.47,1.25,1,3.08,1.72,5.47h2.11c.26,0,.41,0,.46-.08a.28.28,0,0,0,.08-.23,2.61,2.61,0,0,0,.08-.94V242a5.07,5.07,0,0,0-.08-1.25l-.15-.16-.16-.15a8.64,8.64,0,0,0-1.41-.31,8.24,8.24,0,0,0,.63-1.8c1.35.31,2.13.62,2.34.94a5.3,5.3,0,0,1,.39,2.5v1.95a5,5,0,0,1-.39,2.42C27.2,246.54,26.68,246.72,25.85,246.72Zm-3.44,3.51H21v3.6h1.4Z" class="cls-1"/><path data-cppathid="10004" transform="translate(0 -18.13)" d="M13.9,230.08a10.17,10.17,0,0,1-.24-1.17c-.05-.37-.15-.89-.31-1.57l1.8-.07c.31,1.71.49,2.86.54,3.43,3,1.05,4.9,1.77,5.78,2.19a42.82,42.82,0,0,1,4.61,2.34L25.15,237a59,59,0,0,0-9.3-4.22c.05,1.15.05,2.17,0,3.05h-1.8c.11-1.35.16-2.11.16-2.26a11.19,11.19,0,0,0-.08-1.33,30.33,30.33,0,0,0-3.44-1l.55-2C11.61,229.3,12.49,229.61,13.9,230.08Zm1.72-10.55,1.79.78a21,21,0,0,0-1.17,3c0,.16-.31,1.17-.78,3.05l-1.64-.39a23.23,23.23,0,0,1,.7-3.28C14.57,222.55,14.94,221.51,15.62,219.53Zm7.5,4.06a11.52,11.52,0,0,1,.42-1.4,2.66,2.66,0,0,1,.28-.55,2.75,2.75,0,0,1,.39-.82c.26-.44.55-1,.86-1.6l1.87,1.09a24.68,24.68,0,0,0-2,3.28,3.26,3.26,0,0,1,2.11.78,4.54,4.54,0,0,1,.78,2.82,4.81,4.81,0,0,1-1,3.12,2,2,0,0,1-1.72,1,2.37,2.37,0,0,1-1.95-1,4.12,4.12,0,0,1-.79-2.81,8.2,8.2,0,0,1,.32-2.11c-2.14.16-3.31.23-3.52.23a17.35,17.35,0,0,1-1.95-.15l.15-1.95a13.75,13.75,0,0,0,2.43.23C20.33,223.75,21.45,223.7,23.12,223.59Zm1.09,1.8a6.76,6.76,0,0,0-.47,2.34,2.2,2.2,0,0,0,.39,1.33,1.24,1.24,0,0,0,.86.55,1.32,1.32,0,0,0,.63-.24,1.54,1.54,0,0,0,.46-.7,3.43,3.43,0,0,0,.24-1.25,2.34,2.34,0,0,0-.55-1.72A2.07,2.07,0,0,0,24.21,225.39Z" class="cls-1"/><path data-cppathid="10005" transform="translate(0 -18.13)" d="M14.68,213.52H28.19v1.79h-10l2.35,1.56a5.91,5.91,0,0,0-1.64,1A37.88,37.88,0,0,0,15,215.62a44.09,44.09,0,0,0-4.77-1.79l.71-1.8C12.28,212.5,13.53,213,14.68,213.52Zm-2-1.8H11.16v-12h1.56v3.75H16.4v-3.36H28.12v1.72H26.87V210h1.25v1.72H16.4v-3.36H12.72Zm3.68-6.64H12.72v1.72H16.4Zm8.82-3.28H18v1.64h7.26Zm0,3.28H18v1.72h7.26Zm0,3.28H18V210h7.26Z" class="cls-1"/><path data-cppathid="10006" transform="translate(0 -18.13)" d="M10.62,192.19l3.9,1.56H28.19v1.8H18.12A16.33,16.33,0,0,1,20.77,197a13.07,13.07,0,0,0-1.33.31,5,5,0,0,0-.86.55A36,36,0,0,0,9.83,194Zm1.79-5.94-2.26-.08v-1.95l2.26.08v-4.85h1.64v4.92l1.17.08v-3.59h9.22V189H15.22v-2.73l-1.17-.08v5.7H12.41Zm15.71,5.94H15.85v-1.8h9.84V179.45h1.49v10.94h.94ZM17.8,182.66H16.63v4.61H17.8Zm2.58,0H19.13v4.61h1.25Zm2.66,0H21.71v4.61H23Z" class="cls-1"/><path data-cppathid="10007" transform="translate(0 -18.13)" d="M27.57,168.2a8.41,8.41,0,0,0-1.8.86,14.54,14.54,0,0,0-1.09-3.51,5.77,5.77,0,0,0-2-2.27,6,6,0,0,0-3.28-.86,5.56,5.56,0,0,0-4,1.41,5.75,5.75,0,0,0-1.64,4.06,37.72,37.72,0,0,1,7.19,1.88,13.57,13.57,0,0,1,4.29,2.57,1.79,1.79,0,0,1,.71,1.49,2.67,2.67,0,0,1-1.25,2.11,7.15,7.15,0,0,1-4.3,1.25,7.59,7.59,0,0,1-5.78-2.5,9.84,9.84,0,0,1-1.41-10.55A5.91,5.91,0,0,1,14.6,162a6.45,6.45,0,0,1,2.11-1.25,9.75,9.75,0,0,1,2.58-.39,7.9,7.9,0,0,1,4.14,1.09,7.33,7.33,0,0,1,2.73,3A11.15,11.15,0,0,1,27.57,168.2ZM13.9,169.77a7.23,7.23,0,0,0,2.34,4.29,6.63,6.63,0,0,0,4.06,1.33,5.26,5.26,0,0,0,2.89-.7,1.13,1.13,0,0,0,.71-.94.69.69,0,0,0-.32-.55A12.63,12.63,0,0,0,20,171.33,30.6,30.6,0,0,0,13.9,169.77Z" class="cls-1"/><path data-cppathid="10008" transform="translate(0 -18.13)" d="M16.87,148.36l-1-.47.7-1.8.63.32c.47-1.15.81-1.9,1-2.27a4.39,4.39,0,0,1,3.91-2,4.94,4.94,0,0,1,3.59,1.56c1.1,1,1.83,2.87,2.19,5.47a10.1,10.1,0,0,0-1.64.7,11.87,11.87,0,0,0-.94-3.51,3.9,3.9,0,0,0-1.4-1.72,3.23,3.23,0,0,0-1.88-.55,3.57,3.57,0,0,0-2.19.71,5.64,5.64,0,0,0-1.32,2.42,12.41,12.41,0,0,1,2.5,1.64c.57.42,1.56,1.2,3,2.34a12,12,0,0,0,1.65-.47l.62,1.8-.86.16a8.56,8.56,0,0,1,1.33,2,4.25,4.25,0,0,1,.39,1.56,1.86,1.86,0,0,1-.7,1.41,3,3,0,0,1-2,.62,5.61,5.61,0,0,1-2.81-.7,8.16,8.16,0,0,1-2.26-1.88,11.82,11.82,0,0,1-1.49-2.34c-.47,0-1.38-.05-2.73-.16,0,.89.07,1.59.07,2.11a14.41,14.41,0,0,1-.07,1.64l-1.8.08a31.47,31.47,0,0,0,.23-4c-.26,0-1.27-.13-3-.39l.31-2a18.67,18.67,0,0,0,2.58.54q-.07-.61-.24-1.56c-.1-.62-.15-1-.15-1.09s-.26-1.12-.78-3.05l1.79-.08a45.56,45.56,0,0,1,1,6.1q1.71.15,2.19.15A14.46,14.46,0,0,1,16.87,148.36Zm1.95,3.28c.83,0,1.87,0,3.12-.16-1.56-1-2.76-1.82-3.59-2.34A13,13,0,0,0,18.82,151.64ZM23.58,153c-.83.1-2.16.23-4,.39a12.38,12.38,0,0,0,2.27,2.42,4,4,0,0,0,2.34.78,2,2,0,0,0,1-.23.75.75,0,0,0,.24-.55C25.46,155.16,24.83,154.22,23.58,153Z" class="cls-1"/><path data-cppathid="10009" transform="translate(0 -18.13)" d="M18,134.3a18.4,18.4,0,0,1-.63-2.11,11.89,11.89,0,0,1-.08-1.64,6,6,0,0,1,1.33-4,4.56,4.56,0,0,1,3.44-1.48,4.82,4.82,0,0,1,3.83,1.72,6.74,6.74,0,0,1,1.64,4.84,6.91,6.91,0,0,1-1.1,4.06,2.22,2.22,0,0,1-1.95,1,2.08,2.08,0,0,1-1.56-.78,3.11,3.11,0,0,1-.7-2,4.56,4.56,0,0,1,.86-2.66,5.59,5.59,0,0,1,2.65-1.64,3.62,3.62,0,0,0-1.4-1.8,3.56,3.56,0,0,0-2.19-.7,3.34,3.34,0,0,0-2.42,1.09,4.47,4.47,0,0,0-.94,3.13,7.62,7.62,0,0,0,.39,2.42,19,19,0,0,0,1.33,2.5c.47.62,1.3,1.59,2.5,2.89l-1.57,1.41q-5.14-6.11-8.51-9.46a41.4,41.4,0,0,1,.94,6.33l-1.88.16a44.26,44.26,0,0,0-1-8.44L12.65,128A15.78,15.78,0,0,0,14,129.69L16,132C17,133.12,17.67,133.88,18,134.3Zm8-2v-1.09a5.48,5.48,0,0,0-1.71,1.09,2.7,2.7,0,0,0-.63,1.49,1.31,1.31,0,0,0,.31.94,1.09,1.09,0,0,0,.71.39.92.92,0,0,0,.78-.55A4.76,4.76,0,0,0,26.08,132.34Z" class="cls-1"/><path data-cppathid="10010" transform="translate(0 -18.13)" d="M12.72,122.81v-13l-.07-.23,1.17-1.33c2.34.89,4,1.51,4.84,1.88A16.89,16.89,0,0,1,22,112.34a17.65,17.65,0,0,1,3,3.28,21.35,21.35,0,0,1,2.5,5.24,5.36,5.36,0,0,0-1,.31,7,7,0,0,0-.93.55,17.74,17.74,0,0,0-1.8-4.22,14.76,14.76,0,0,0-3.36-4,21.39,21.39,0,0,0-5.78-2.82v12.11Z" class="cls-1"/><path data-cppathid="10011" transform="translate(0 -18.13)" d="M19.68,98.36h8.75v1.8H21.08a26.65,26.65,0,0,1,3.44,5.7,4.38,4.38,0,0,0-.58.19l-.43.2-.63.47a23.77,23.77,0,0,0-3.28-5.78A29.31,29.31,0,0,0,15,96.25l1.17-1.48Q18.35,96.95,19.68,98.36Z" class="cls-1"/><path data-cppathid="10012" transform="translate(0 -18.13)" d="M20.15,76.72V92.58h-2V76.72Z" class="cls-1"/><path data-cppathid="10013" transform="translate(0 -18.13)" d="M13.51,64.45H17V57h1.72v7.5a20.58,20.58,0,0,1,3.44.39,7.31,7.31,0,0,1,2.19.94,11.61,11.61,0,0,1,2.1,2.19,16.64,16.64,0,0,1,1.72,3.51,8.71,8.71,0,0,0-1.79,1.25,14.24,14.24,0,0,0-1.33-3.28,6.34,6.34,0,0,0-1.49-1.8,7.7,7.7,0,0,0-1.95-.93,10.37,10.37,0,0,0-2.89-.39v8H17v-8h-3.2a53.29,53.29,0,0,1,.78,5.78c-.36.1-1,.31-1.8.62q-.39-4.22-.78-6.68a43.85,43.85,0,0,0-1.25-5.43l1.72-.93A26.72,26.72,0,0,1,13.51,64.45Z" class="cls-1"/><path data-cppathid="10014" transform="translate(0 -18.13)" d="M16.71,43l-.16-.24,1.17-1.32a45.78,45.78,0,0,1,5.4,4.29L22,47c-.31-.26-.62-.53-.94-.82s-.59-.56-.86-.82a7.67,7.67,0,0,0-.93-.74L18.43,44a49,49,0,0,1,1,4.85l6.25-1.17c1-.21,1.83-.39,2.35-.55L28.43,49l-8.6,1.64.94,4.3-1.56.31-.86-4.29-3.67.7-.31-1.8a26.12,26.12,0,0,0,3.59-.7Q17.57,46.88,16.71,43Z" class="cls-1"/><path data-cppathid="10015" transform="translate(0 -18.13)" d="M20.15,23.44V39.3h-2V23.44Z" class="cls-1"/><path data-cppathid="10016" transform="translate(0 -18.13)" d="M179.42,359.21V345H185v13.6h-1.72v-1.1h-2.26v1.72Zm3.9-8.75v-3.75h-2.26v3.75Zm0,5.39V352.1h-2.26v3.75Zm6.64-9.92v-2.34h2v2.34h3.67v1.64h-3.67v2.27h4.84v1.64h-2.42v2h2v1.56h-2v4.22a1.51,1.51,0,0,1-.39,1.1,6,6,0,0,1-2.74.93,7.71,7.71,0,0,0-.62-1.87h1.64a.32.32,0,0,0,.23-.08.46.46,0,0,0,.08-.31v-4h-6.87v-1.56h6.87v-2h-7.19v-1.64H190v-2.27h-3.83v-1.64Zm-3.44,10.55,1.1-1.09a19.05,19.05,0,0,1,2.34,2.26l-1.17,1.17C187.85,357.78,187.1,357,186.52,356.48Z" class="cls-1"/><path data-cppathid="10017" transform="translate(0 -18.13)" d="M199.65,361.32V344.06h7.11v6.25h-5.24v11ZM205,346.56v-1h-3.52v1Zm0,2.26v-1.09h-3.52v1.09Zm-1.25,11.25v-8.43h7.34v7.5h-5.62v.93Zm5.63-5.39V353.2h-3.91v1.48Zm0,3v-1.56h-3.91v1.56Zm-.94-7.34v-6.25h7.11v15.39a1.42,1.42,0,0,1-.47,1.25,6.79,6.79,0,0,1-2.66.62,7.39,7.39,0,0,0-.7-1.79h1.64s.13-.06.23-.16a.32.32,0,0,0,.08-.23v-8.83Zm5.23-3.75v-1h-3.44v1Zm0,2.26v-1.09h-3.44v1.09Z" class="cls-1"/><line data-cppathid="10018" y2="350" x2="34" x1="34" class="cls-2"/><line data-cppathid="10019" y2="318" x2="391.04" y1="318" class="cls-2"/></g></g></g></svg>