<?xml version="1.0" encoding="UTF-8"?>
<svg xmlns="http://www.w3.org/2000/svg" onmouseup="{ if(window.parent.document.onmouseup) window.parent.document.onmouseup(arguments[0]);}" viewBox="0 0 360.27 318.25"><defs><style>.cls-1{fill:#27bc0d;}.cls-2{fill:none;stroke:#27bc0d;stroke-miterlimit:10;stroke-width:3px;}</style></defs><g data-name="Layer 2" id="Layer_2"><g data-name="Running Tested Features" id="Running_Tested_Features"><g data-name="robust done" id="robust_done"><path data-cppathid="10000" d="M155.33,31V29.5h5.34v5.34h-3.19l-.37,2.6h3.34q-.22,6.3-.82,7.35c-.49.74-1.56,1.13-3.19,1.18-.1-.54-.17-.89-.22-1a4,4,0,0,0-.37-.81h1.78A.57.57,0,0,0,158,44a1.71,1.71,0,0,0,.22-.37c.1-.59.27-2.2.52-4.82h-1.85l-.15.52-1.63-.23.81-5.71h3V31Zm16.55,2.15-1.41,1-.67-.89-2.82.3v1.71h4.08v5H167v3.11l2.23-.29-.82-1.26,1.49-.75q1.62,2.76,2.37,4.09l-1.56.74-.81-1.49L161,45.6l-.29-1.71,4.6-.37V40.26H163.2v.89h-1.71V35.29h3.86V33.8l-3.86.3-.3-1.64,1.86-.07c.64-1.29,1.21-2.57,1.7-3.86l1.71.74-.85,1.56c-.32.6-.61,1.12-.86,1.56l4.23-.3-1.41-1.63,1.19-1c.4.39.94,1,1.63,1.7q.15.23.45.6C171,32,171.38,32.49,171.88,33.13Zm-6.53,5.79V36.55H163.2v2.37Zm4,0V36.55H167v2.37Z" class="cls-1"/><path data-cppathid="10001" d="M178.26,39.44a6.28,6.28,0,0,0,1.41,1,12.44,12.44,0,0,1-1.85,3.71,1.22,1.22,0,0,1-.89.37,1.44,1.44,0,0,1-1-.52,6.93,6.93,0,0,1-1.41-2.59,15.42,15.42,0,0,1-.67-4.53,36.11,36.11,0,0,1,.67-6.31l2,.44a26,26,0,0,0-.74,3.05,22.87,22.87,0,0,0-.22,3.26,9.26,9.26,0,0,0,.45,3A3.87,3.87,0,0,0,176.7,42a.21.21,0,0,0,.15.07.59.59,0,0,0,.37-.22A13.39,13.39,0,0,0,178.26,39.44Zm5.12-7.27,1.56-.82a22.34,22.34,0,0,1,2.38,4.45,32.63,32.63,0,0,1,1.41,5.5l-1.93.59A31.45,31.45,0,0,0,185.46,36,19,19,0,0,0,183.38,32.17Z" class="cls-1"/><path data-cppathid="10002" d="M191.1,38.62V37.07h16.18v1.55h-5.42v4.75a.43.43,0,0,0,.08.3.22.22,0,0,0,.15.08s.22.07.52.07h1.93c.64,0,1-.07,1-.22A2.67,2.67,0,0,0,206,42a5.35,5.35,0,0,0,1.78.6,9.66,9.66,0,0,1-.59,2.08,1.12,1.12,0,0,1-.67.52,5,5,0,0,1-1.71.22h-2.15a3.58,3.58,0,0,1-2.08-.45c-.35-.19-.52-.71-.52-1.56V38.62h-2.52a9.51,9.51,0,0,1-.37,2.53,4.85,4.85,0,0,1-.67,1.63,6.52,6.52,0,0,1-1,1.26,5.9,5.9,0,0,1-1.56,1,11.18,11.18,0,0,1-2.15.89,7.16,7.16,0,0,0-.74-1.56,9.33,9.33,0,0,0,2.89-1.33,4.17,4.17,0,0,0,1.34-1.71,7.22,7.22,0,0,0,.44-2.75Zm7.05-8.08V28.75H200v1.79h6.83v3.78H205V32.09H193.11v2.23h-1.64V30.54Zm-3.93,4.6V33.58h9.72v1.56Z" class="cls-1"/><path data-cppathid="10003" d="M220.49,31.8h5.87v1.63h-5.79a20.41,20.41,0,0,0,1,5.79c.25-.4.57-1,1-1.78.14-.3.44-1.12.89-2.45l1.78.89a30.53,30.53,0,0,1-1.34,3,22.13,22.13,0,0,1-1.41,2.22,9.62,9.62,0,0,0,1.56,2c.35.34.59.52.74.52s.13-.05.23-.15.12-.59.37-1.93c.64.35.91.52.81.52.25.05.55.12.89.22a9.12,9.12,0,0,1-.89,2.9,1.34,1.34,0,0,1-1,.52c-1.09,0-2.37-1.07-3.86-3.2a18.36,18.36,0,0,1-5.12,3.42.56.56,0,0,0-.11-.37,1.59,1.59,0,0,1-.18-.37,5.58,5.58,0,0,0-.67-.75,31.58,31.58,0,0,0,3.49-1.85,8.69,8.69,0,0,0,1.78-1.63,23,23,0,0,1-1.63-7.5H212.7V35.8h4.82a36.63,36.63,0,0,1-.59,5.94,1.31,1.31,0,0,1-.67,1,6.86,6.86,0,0,1-2.89.74l-.15-1.19a3.76,3.76,0,0,0-.37-.81h2c.25,0,.37-.05.37-.15a31.92,31.92,0,0,0,.45-4h-3A22.05,22.05,0,0,1,212,42a9,9,0,0,1-.67,2.15l-1,1.93v-.07a6.09,6.09,0,0,0-1.11-1.64,9.14,9.14,0,0,0,1.11-2.52,12.38,12.38,0,0,0,.45-3c.1-1.48.15-3.86.15-7.12h7.87c0-1-.08-2.06-.08-3.19h1.93C220.54,30,220.49,31.05,220.49,31.8Zm1-1.93,1-1.12c.05.05.84.6,2.38,1.64l-1.19,1.18c-.4-.29-.72-.54-1-.74l-.59-.48C222.05,30.23,221.83,30.07,221.53,29.87Z" class="cls-1"/><path data-cppathid="10004" d="M237.27,45.3a7.71,7.71,0,0,0-.82-1.7,14.15,14.15,0,0,0,3.34-1,5.41,5.41,0,0,0,2.15-1.93,5.58,5.58,0,0,0,.82-3.12,5.27,5.27,0,0,0-1.34-3.78,5.47,5.47,0,0,0-3.86-1.56A35.3,35.3,0,0,1,235.78,39a12.93,12.93,0,0,1-2.45,4.08,1.69,1.69,0,0,1-1.41.67,2.51,2.51,0,0,1-2-1.19,6.77,6.77,0,0,1-1.19-4.08,7.23,7.23,0,0,1,2.38-5.5,8.75,8.75,0,0,1,6.23-2.22,8.59,8.59,0,0,1,3.79.89,5.6,5.6,0,0,1,2,1.33,6.41,6.41,0,0,1,1.19,2,9.53,9.53,0,0,1,.37,2.45,7.44,7.44,0,0,1-1,3.93,7,7,0,0,1-2.82,2.6A10.29,10.29,0,0,1,237.27,45.3Zm-1.49-13a6.83,6.83,0,0,0-4.08,2.22,6.35,6.35,0,0,0-1.26,3.86,5,5,0,0,0,.67,2.75,1.06,1.06,0,0,0,.89.67.65.65,0,0,0,.52-.3,12.67,12.67,0,0,0,1.78-3.41A29.64,29.64,0,0,0,235.78,32.32Z" class="cls-1"/><path data-cppathid="10005" d="M250,35.73V34.17h10.68v1.56h-4.52v2.89h4.6v1.49h-4.6V43.6l.78.15.66.11.49,0,3.49.08c.79,0,1.55,0,2.3-.08a8.37,8.37,0,0,0-.82,1.64c-2.72,0-4.73-.05-6-.15a11.46,11.46,0,0,1-3.34-1,9.6,9.6,0,0,1-3-2.3,21.57,21.57,0,0,1-1.27,2.3A7.89,7.89,0,0,1,248,45.9a9.22,9.22,0,0,0-1.34-1.19,11.21,11.21,0,0,0,2.23-3,23.16,23.16,0,0,0,1.48-4.46l1.71.3a22.4,22.4,0,0,1-.82,2.9A9.6,9.6,0,0,0,254.48,43V35.73Zm4.45-5V28.83h1.93v1.93H263V35h-1.78V32.32H249.36V35h-1.78V30.76Z" class="cls-1"/><path data-cppathid="10006" d="M273.56,37.81l-2.23.3v1h4c-.1-.54-.2-1.41-.3-2.59h1.78a18.52,18.52,0,0,0,.15,2.59h5.79v1.41h-5.42a5.91,5.91,0,0,0,.89,1.93,11.41,11.41,0,0,0,2.31-1.41,7.25,7.25,0,0,1,1,1.27c-.74.49-1.48.94-2.22,1.33a2.84,2.84,0,0,0,1.41.74.42.42,0,0,0,.29-.14c.1-.25.23-.6.38-1a7.24,7.24,0,0,0,1.63.66,3.49,3.49,0,0,1-.82,1.64,1.24,1.24,0,0,1-.89.37,4,4,0,0,1-1.85-.45,5.68,5.68,0,0,1-1.71-1,29.22,29.22,0,0,1-4.45,1.49,7.61,7.61,0,0,0-.75-1.41,23.08,23.08,0,0,0,4.09-1.34,9.66,9.66,0,0,1-1-2.6h-4.31v1l.93-.18a11.81,11.81,0,0,1,1.45-.19v1.34a6.47,6.47,0,0,1-.86.11,13.69,13.69,0,0,0-1.52.26v1.48a2.45,2.45,0,0,1-.15.6,1.12,1.12,0,0,1-.59.52,6.22,6.22,0,0,1-2.08.44,4.21,4.21,0,0,0-.59-1.63h1.33a.5.5,0,0,0,.3-.07.32.32,0,0,0,.08-.23v-.89l-3.49.37L265.77,42l3.86-.3V40.55h-3.72V39.14h3.72v-.89L267,38.4c-.24-.74-.39-1.16-.44-1.26q3.63-.22,6.38-.67Zm5.12-8.69-.67,1h4.53V31.5h-7.42v1h6.23V33.8h-6.23v1h7.64V36.1H265.91V34.77h7.43v-1h-5.72V32.54h5.72v-1h-6.83V30.16H271l-.82-1,1.41-.81c.1.1.3.32.6.67a12.08,12.08,0,0,1,.89,1.18h2.89a12.85,12.85,0,0,0,1.12-1.85Zm-.37,8.39.89-1a11.07,11.07,0,0,1,2.08,1.34l-.89,1A9.45,9.45,0,0,0,278.31,37.51Z" class="cls-1"/><line data-cppathid="10007" y2="317.12" x2="0.99" y1="1.12" x1="359.28" class="cls-2"/></g></g></g></svg>