<?xml version="1.0" encoding="UTF-8"?>
<svg xmlns="http://www.w3.org/2000/svg" onmouseup="{ if(window.parent.document.onmouseup) window.parent.document.onmouseup(arguments[0]);}" viewBox="0 0 169.31 184.39"><defs><style>.cls-1{fill:#068fbf;}.cls-2{fill:none;stroke:#068fbf;stroke-miterlimit:10;stroke-width:3px;}</style></defs><g data-name="Layer 2" id="Layer_2"><g data-name="Running Tested Features" id="Running_Tested_Features"><g id="waterfall"><path data-cppathid="10000" d="M22.51,156.31H34.83l.22-.08,1.26,1.12c-.84,2.22-1.43,3.76-1.78,4.6a15.52,15.52,0,0,1-2.08,3.19A17.19,17.19,0,0,1,29.34,168a20.66,20.66,0,0,1-5,2.38,5.36,5.36,0,0,0-.29-1,6.22,6.22,0,0,0-.52-.89,16.69,16.69,0,0,0,4-1.71,14.28,14.28,0,0,0,3.78-3.19A20.3,20.3,0,0,0,34,158.09H22.51Z" class="cls-1"/><path data-cppathid="10001" d="M45.15,161.06v-3h1.63v3h4.15v1.56H46.78v7a1.34,1.34,0,0,1-.37,1,5.35,5.35,0,0,1-2.45.45,5.44,5.44,0,0,0-.6-1.64h1.41a.44.44,0,0,0,.3-.07.43.43,0,0,0,.08-.3v-4.52c-.8.84-1.61,1.63-2.45,2.37a13.73,13.73,0,0,1-1.86,1.41c-.1,0-.3.18-.59.37s-.77.47-1.41.82A8.55,8.55,0,0,0,37.72,168a15.15,15.15,0,0,0,3.64-2.22,25.61,25.61,0,0,0,3.34-3.19H38.61v-1.56Z" class="cls-1"/><path data-cppathid="10002" d="M67.93,163.36H52.86V161.5H67.93Z" class="cls-1"/><path data-cppathid="10003" d="M78,157.12h5.57l.15-.07,1,1-2,4.23a15.09,15.09,0,0,1-1.63,2.3,17.15,17.15,0,0,1-2.3,2.45,23.92,23.92,0,0,1-3.19,2.23,28.44,28.44,0,0,1-3.49,1.55,8.14,8.14,0,0,0-.45-.89,5.61,5.61,0,0,0-.74-.74,21.1,21.1,0,0,0,4.23-1.85,21.36,21.36,0,0,0,3.41-2.53,31.59,31.59,0,0,0-3.48-2.67l1.11-1.26q2.14,1.41,3.56,2.52c.6-.84,1.06-1.56,1.41-2.15a14.79,14.79,0,0,0,1.19-2.6H77.06c-.89,1.24-1.48,2.06-1.78,2.45a16.27,16.27,0,0,1-1.49,1.34,13.29,13.29,0,0,1-2.59,1.93A4.38,4.38,0,0,0,70,162.84a16.85,16.85,0,0,0,2.89-2,10.82,10.82,0,0,0,2.23-2.6A22.57,22.57,0,0,0,77,154.53l2,.66Z" class="cls-1"/><path data-cppathid="10004" d="M101.77,163.36H86.71V161.5h15.06Z" class="cls-1"/><path data-cppathid="10005" d="M104.3,156.31h12.32l.22-.08,1.26,1.12c-.84,2.22-1.43,3.76-1.78,4.6a16,16,0,0,1-2.08,3.19,17.19,17.19,0,0,1-3.11,2.82,20.66,20.66,0,0,1-5,2.38,5.36,5.36,0,0,0-.29-1,6.22,6.22,0,0,0-.52-.89,16.43,16.43,0,0,0,4-1.71,14.16,14.16,0,0,0,3.79-3.19,20.3,20.3,0,0,0,2.67-5.49H104.3Z" class="cls-1"/><path data-cppathid="10006" d="M126.93,161.06v-3h1.64v3h4.15v1.56h-4.15v7a1.34,1.34,0,0,1-.37,1,5.35,5.35,0,0,1-2.45.45,5.44,5.44,0,0,0-.6-1.64h1.41a.29.29,0,0,0,.37-.37v-4.52c-.79.84-1.6,1.63-2.44,2.37a13.73,13.73,0,0,1-1.86,1.41c-.1,0-.3.18-.59.37s-.77.47-1.41.82a8.55,8.55,0,0,0-1.12-1.49,15.15,15.15,0,0,0,3.64-2.22,25.61,25.61,0,0,0,3.34-3.19H120.4v-1.56Z" class="cls-1"/><path data-cppathid="10007" d="M149.72,163.36H134.65V161.5h15.07Z" class="cls-1"/><path data-cppathid="10008" d="M152.69,170.48a8.34,8.34,0,0,0-1.19-1.55,9.74,9.74,0,0,0,2.82-2.6,8.26,8.26,0,0,0,1.26-3.19,48.9,48.9,0,0,0,.3-6.83h1.93c-.05,3.16-.12,5.12-.22,5.86a13.55,13.55,0,0,1-.75,3.42,11.27,11.27,0,0,1-1.63,2.67A10.32,10.32,0,0,1,152.69,170.48Zm7.87-2.15V155.05h1.85v12a33.43,33.43,0,0,0,3-2.52,26.21,26.21,0,0,0,2.52-3.2,16.33,16.33,0,0,0,1.41,1.19,28.9,28.9,0,0,1-7.79,7.42l-1.19-1.33Z" class="cls-1"/><line data-cppathid="10009" y2="0.7" x2="97.11" y1="183.7" x1="1.33" class="cls-2"/></g></g></g></svg>