<?xml version="1.0" encoding="UTF-8"?>
<svg xmlns="http://www.w3.org/2000/svg" onmouseup="{ if(window.parent.document.onmouseup) window.parent.document.onmouseup(arguments[0]);}" viewBox="0 0 358.4 315.34"><defs><style>.cls-1{fill:#f95006;}.cls-2{fill:#e4ea0c;}.cls-3{fill:#555300;}.cls-4{fill:none;stroke:#f95006;stroke-miterlimit:10;stroke-width:3px;}</style></defs><g data-name="Layer 2" id="Layer_2"><g data-name="Running Tested Features" id="Running_Tested_Features"><g data-name="technical debt" id="technical_debt"><path data-cppathid="10000" d="M178.13,214.11v1.56l-4.83,1.56-.52-1.71Q175.75,214.79,178.13,214.11Zm-4.68-9.72v-1.48h6.68v4.75h-4.6l-.22,1.78h5.12q-.15,6.52-.3,7.86a1.64,1.64,0,0,1-.67,1.27,8.32,8.32,0,0,1-2.67.74,12.24,12.24,0,0,0-.29-1.19,6.6,6.6,0,0,0-.38-.59h1a3.06,3.06,0,0,0,1.19-.15,2.71,2.71,0,0,0,.22-.74s.05-2,.15-5.72h-3.56l-.15.59-1.71-.22c.1-.59.3-2.3.6-5.12h4.45v-1.78Zm.6,8.31,1.11-1q.66.6,1.71,1.71l-1.27,1A19.08,19.08,0,0,0,174.05,212.7ZM187,213.82l.07,1.7-3.93,1.19c-.1,0-.26.11-.48.19l-1,.33-.45-1.71Q184.8,214.49,187,213.82Zm-5.49-9.43v-1.48h7.42v4.75h-5.2l-.22,1.78h5.79q-.15,6.6-.37,7.86a2.07,2.07,0,0,1-.59,1.27,6.72,6.72,0,0,1-2.6.74,4.53,4.53,0,0,0-.22-1,4.35,4.35,0,0,0-.6-.89h1.49c.49,0,.76-.07.81-.22q.3-.67.37-6.31h-4.3l-.15.59-1.63-.22.74-5.12h4.9v-1.78Zm1,8.16,1-1c.69.6,1.28,1.14,1.78,1.64l-1.19,1C183.5,213.49,183,213,182.51,212.55Z" class="cls-1"/><path data-cppathid="10001" d="M196.24,212.85a5.86,5.86,0,0,0,1.41,1,12.39,12.39,0,0,1-1.86,3.71,1.2,1.2,0,0,1-.89.37,1.41,1.41,0,0,1-1-.52,6.63,6.63,0,0,1-1.41-2.6,15,15,0,0,1-.67-4.52,35.17,35.17,0,0,1,.67-6.31l2,.44a24.16,24.16,0,0,0-.74,3,22.77,22.77,0,0,0-.22,3.26,9.26,9.26,0,0,0,.44,3,3.85,3.85,0,0,0,.67,1.71.21.21,0,0,0,.15.07.59.59,0,0,0,.37-.22A14.14,14.14,0,0,0,196.24,212.85Zm5.12-7.27,1.56-.82a22.24,22.24,0,0,1,2.37,4.45,30.83,30.83,0,0,1,1.41,5.5l-1.93.59a30.7,30.7,0,0,0-1.33-5.86A19,19,0,0,0,201.36,205.58Z" class="cls-1"/><path data-cppathid="10002" d="M209.08,212v-1.55h16.18V212h-5.42v4.75a.44.44,0,0,0,.07.3.22.22,0,0,0,.15.08c.05.05.22.07.52.07h1.93c.64,0,1-.07,1-.22a2.67,2.67,0,0,0,.45-1.64,5.28,5.28,0,0,0,1.78.6,9.44,9.44,0,0,1-.6,2.08,1.12,1.12,0,0,1-.67.52,4.85,4.85,0,0,1-1.7.22h-2.15a3.56,3.56,0,0,1-2.08-.45c-.35-.2-.52-.72-.52-1.56V212h-2.53a9.11,9.11,0,0,1-.37,2.53,5.06,5.06,0,0,1-.66,1.63,6.52,6.52,0,0,1-1,1.26,6.24,6.24,0,0,1-1.56,1,11.82,11.82,0,0,1-2.15.89,6.69,6.69,0,0,0-.75-1.56,9.4,9.4,0,0,0,2.9-1.33,4.14,4.14,0,0,0,1.33-1.71,7,7,0,0,0,.45-2.75Zm7-8.09v-1.78H218v1.78h6.83v3.79H223V205.5H211.08v2.23h-1.63v-3.79Zm-3.94,4.61V207h9.73v1.56Z" class="cls-1"/><path data-cppathid="10003" d="M238.47,205.21h5.86v1.63h-5.79a20.07,20.07,0,0,0,1,5.79c.24-.4.57-1,1-1.78a26,26,0,0,0,.89-2.45l1.78.89a32,32,0,0,1-1.33,3q-.67,1.19-1.41,2.22a9,9,0,0,0,1.56,2c.34.34.59.52.74.52s.12,0,.22-.15.12-.6.37-1.93c.64.35.92.52.82.52.25.05.54.12.89.22a9.4,9.4,0,0,1-.89,2.9,1.36,1.36,0,0,1-1,.51q-1.63,0-3.86-3.19a18.36,18.36,0,0,1-5.12,3.42.62.62,0,0,0-.11-.37,1.29,1.29,0,0,1-.19-.37,4.89,4.89,0,0,0-.67-.75,29.84,29.84,0,0,0,3.49-1.85,8,8,0,0,0,1.78-1.64,23.15,23.15,0,0,1-1.63-7.49h-6.09v2.37h4.83a39.17,39.17,0,0,1-.59,5.94,1.34,1.34,0,0,1-.67,1,6.92,6.92,0,0,1-2.9.74l-.15-1.19a4.09,4.09,0,0,0-.37-.82h2c.24,0,.37,0,.37-.14a30.9,30.9,0,0,0,.44-4h-3a22.73,22.73,0,0,1-.59,4.75,9,9,0,0,1-.67,2.15l-1,1.93v-.07a6.6,6.6,0,0,0-1.11-1.64,9.77,9.77,0,0,0,1.11-2.52,12.38,12.38,0,0,0,.45-3c.09-1.48.14-3.86.14-7.12h7.87c0-1-.07-2.06-.07-3.2h1.93C238.52,203.4,238.47,204.46,238.47,205.21Zm1-1.93,1-1.12c0,.05.84.6,2.37,1.64L241.73,205c-.39-.29-.71-.54-1-.74l-.6-.48A6.87,6.87,0,0,0,239.51,203.28Z" class="cls-1"/><path data-cppathid="10004" d="M255.24,218.71a7.71,7.71,0,0,0-.82-1.7,14.3,14.3,0,0,0,3.34-1,5.44,5.44,0,0,0,2.16-1.93,5.66,5.66,0,0,0,.81-3.12,5.27,5.27,0,0,0-1.33-3.78,5.49,5.49,0,0,0-3.86-1.56,36.85,36.85,0,0,1-1.78,6.83,13.11,13.11,0,0,1-2.45,4.08,1.72,1.72,0,0,1-1.41.67,2.54,2.54,0,0,1-2-1.19,6.77,6.77,0,0,1-1.18-4.08,7.26,7.26,0,0,1,2.37-5.5,8.76,8.76,0,0,1,6.24-2.22,8.58,8.58,0,0,1,3.78.89,5.39,5.39,0,0,1,2,1.33,6.05,6.05,0,0,1,1.19,2,9.06,9.06,0,0,1,.37,2.45,7.35,7.35,0,0,1-1,3.93,6.82,6.82,0,0,1-2.82,2.6A10.29,10.29,0,0,1,255.24,218.71Zm-1.48-13a6.89,6.89,0,0,0-4.09,2.22,6.35,6.35,0,0,0-1.26,3.86,5.06,5.06,0,0,0,.67,2.75,1.08,1.08,0,0,0,.89.67.64.64,0,0,0,.52-.3,12.06,12.06,0,0,0,1.78-3.42A29.57,29.57,0,0,0,253.76,205.73Z" class="cls-1"/><path data-cppathid="10005" d="M267.93,209.14v-1.56h10.69v1.56h-4.53V212h4.6v1.49h-4.6V217l.78.15.67.11.48,0,3.49.08c.79,0,1.56,0,2.3-.08a7.79,7.79,0,0,0-.81,1.64c-2.73,0-4.73-.05-6-.15a11.88,11.88,0,0,1-3.34-1,9.6,9.6,0,0,1-3-2.3,20.33,20.33,0,0,1-1.26,2.3,8,8,0,0,1-1.34,1.56,9.34,9.34,0,0,0-1.33-1.19,11,11,0,0,0,2.22-3,23.1,23.1,0,0,0,1.49-4.46l1.71.3a24.31,24.31,0,0,1-.82,2.9,9.4,9.4,0,0,0,3.19,2.59v-7.27Zm4.46-5v-1.93h1.93v1.93H281v4.23h-1.79v-2.67H267.34v2.67h-1.78v-4.23Z" class="cls-1"/><path data-cppathid="10006" d="M291.53,211.22l-2.22.29v1h4c-.1-.54-.2-1.41-.3-2.59h1.78a18.52,18.52,0,0,0,.15,2.59h5.79V214h-5.42a5.71,5.71,0,0,0,.89,1.93,11.33,11.33,0,0,0,2.3-1.41,7.13,7.13,0,0,1,1,1.27,24.71,24.71,0,0,1-2.23,1.33,2.92,2.92,0,0,0,1.41.74.43.43,0,0,0,.3-.15c.1-.24.22-.59.37-1a7.64,7.64,0,0,0,1.63.66,3.55,3.55,0,0,1-.81,1.64,1.26,1.26,0,0,1-.89.37,4.08,4.08,0,0,1-1.86-.45,5.94,5.94,0,0,1-1.71-1,28.85,28.85,0,0,1-4.45,1.49,7.49,7.49,0,0,0-.74-1.41,23.24,23.24,0,0,0,4.08-1.34,10,10,0,0,1-1-2.6h-4.3v1l.93-.18a11.88,11.88,0,0,1,1.44-.19V216a8.47,8.47,0,0,1-.85.11,11.64,11.64,0,0,0-1.52.26v1.48a2.45,2.45,0,0,1-.15.6,1.19,1.19,0,0,1-.59.52,6.22,6.22,0,0,1-2.08.44,4.09,4.09,0,0,0-.6-1.63h1.34a.43.43,0,0,0,.3-.08.29.29,0,0,0,.07-.22v-.89l-3.49.37-.37-1.48,3.86-.3V214h-3.71v-1.41h3.71v-.89l-2.67.15q-.37-1.11-.45-1.26,3.64-.23,6.39-.67Zm5.13-8.69-.67,1h4.52v1.34h-7.42v1h6.24v1.26h-6.24v1h7.65v1.34H283.89v-1.34h7.42v-1H285.6V206h5.71v-1h-6.83v-1.34h4.46l-.82-1,1.41-.81c.1.1.3.32.59.67a10.67,10.67,0,0,1,.89,1.18h2.9a13.56,13.56,0,0,0,1.11-1.85Zm-.38,8.39.89-1a10.74,10.74,0,0,1,2.08,1.34l-.89,1A9,9,0,0,0,296.28,210.92Z" class="cls-1"/><path data-cppathid="10007" d="M138,195s9.52-1.68,99-8.08S334,181,334,181l24-46L358.4,0Z" class="cls-2"/><path data-cppathid="10008" d="M227.73,134.14v-3.86h1.64v3.86h1.85v1.41h-1.85v2.74l1.78-.67.07,1.34c-.44.2-1.06.5-1.85.89v5.72c0,.69-.18,1.13-.52,1.33a7,7,0,0,1-2.38.45,6.55,6.55,0,0,0-.52-1.64h1.56a.21.21,0,0,0,.15-.07.44.44,0,0,0,.07-.3v-4.89c-.69.29-1.41.56-2.15.81l-.37-1.63,2.52-.82v-3.26h-2.3v-1.41Zm8.17-.89v-3h1.78v3h4.53v1.63h-4.53v2.52h2.52l.15-.07,1,1c-.3.55-.79,1.36-1.48,2.45a28.61,28.61,0,0,1-2,2.38,10.88,10.88,0,0,0,2.23,1.63,12.28,12.28,0,0,0,2.52,1,9.13,9.13,0,0,0-1.19,1.78c-.14-.1-.53-.31-1.15-.63s-1.15-.61-1.59-.85a12.86,12.86,0,0,1-2.23-1.79,23,23,0,0,1-5.34,2.9c-.35-.64-.65-1.16-.89-1.56a18.18,18.18,0,0,0,2.89-1.26c.69-.4,1.44-.84,2.23-1.34a16.76,16.76,0,0,1-1.12-1.93,14.79,14.79,0,0,1-.81-2.37h-1.19V137.4h3.64v-2.52h-4.16v-1.63Zm.81,8.68a14.71,14.71,0,0,0,1.71-1.93,5.73,5.73,0,0,0,.67-1.26h-3.93a6.53,6.53,0,0,0,.59,1.78A8.68,8.68,0,0,0,236.71,141.93Z" class="cls-3"/><path data-cppathid="10009" d="M247.92,137.55v9.72h-1.63v-7.79L245,140.74a17.1,17.1,0,0,0-1-1.56,31.72,31.72,0,0,0,4.09-4.89l1.33,1.26C248.49,136.78,248,137.45,247.92,137.55Zm-2.52-3.12q-.3-.28-.6-.63c-.19-.22-.33-.37-.4-.44l-.26-.26a23.93,23.93,0,0,0,2.07-1.41,15,15,0,0,0,1.71-1.56l1.26,1.26c-.64.64-1.11,1.09-1.41,1.34C247.28,133.12,246.49,133.69,245.4,134.43Zm4.82,10.77-1.11-.38a1.41,1.41,0,0,1-.45-.07c.2-.79.42-1.81.67-3a32,32,0,0,0,.52-3.94l1.71.23a32.15,32.15,0,0,1-.45,3.93A28.44,28.44,0,0,1,250.22,145.2Zm1.86-11.29v-3.48h1.63v3.48h1.56a23.41,23.41,0,0,0-1.26-2l1.18-.74a11.74,11.74,0,0,1,1.41,2l-1.18.74h1v1.64h-2.67V147.2h-1.63V135.55h-2.45v-1.64Zm4.82,9.88a11.1,11.1,0,0,0-1.56.37,21.17,21.17,0,0,1-1-6.09l1.56-.15A28.3,28.3,0,0,0,256.9,143.79Zm-.44-6v-1.63h5v1.63h-1.56v7.72c0,.69-.15,1.14-.45,1.34a6.3,6.3,0,0,1-2.67.59,3.47,3.47,0,0,0-.07-.89,4.09,4.09,0,0,0-.37-.82h1.56c.09,0,.14,0,.14-.07s.15-.17.15-.22v-7.65Zm0-5.19V131h4.6v1.56Z" class="cls-3"/><path data-cppathid="10010" d="M268,133.17h2.45V146h-1.56v-1h-3.12v1.26h-1.48V133.17h2.23c.09-.69.19-1.68.29-3l1.71.23A25.61,25.61,0,0,1,268,133.17Zm.89,5.12v-3.71h-3.12v3.71Zm0,5.35V139.7h-3.12v3.94Zm7.13,3.63a7.4,7.4,0,0,0-.89-1.93h2.15a.78.78,0,0,0,.44-.07,4.51,4.51,0,0,0,.3-1.71c.1-1.28.1-4.23,0-8.83h-4.16a18.84,18.84,0,0,1-1.78,4,1.79,1.79,0,0,0-.37-.41,2.69,2.69,0,0,1-.44-.45,4,4,0,0,0-.52-.48,21,21,0,0,0,1.48-3.26,39.58,39.58,0,0,0,1-4l1.78.37c-.3,1.29-.52,2.2-.67,2.75h5.42l-.15,9.35a10.07,10.07,0,0,1-.29,3.11,1.68,1.68,0,0,1-.75.9A14.21,14.21,0,0,1,276,147.27Zm-3.05-8.53,1.19-1a15.25,15.25,0,0,1,2.38,2.52l-1.27,1.12A26,26,0,0,0,272.93,138.74Z" class="cls-3"/><path data-cppathid="10011" d="M288.59,133.69a11,11,0,0,1,1.12-.22c.34-.05.84-.15,1.48-.3l.07,1.71c-1.63.3-2.72.47-3.26.52q-1.49,4.23-2.08,5.49a39.65,39.65,0,0,1-2.23,4.38l-1.63-.89a55.41,55.41,0,0,0,4-8.83,27.94,27.94,0,0,1-2.9,0v-1.71q1.93.15,2.16.15a10.14,10.14,0,0,0,1.26-.08,26.59,26.59,0,0,0,1-3.26l1.93.52C289.34,131.51,289,132.36,288.59,133.69Zm6.16,8.76a9.31,9.31,0,0,1,1.34.41,2.05,2.05,0,0,1,.52.26,2.49,2.49,0,0,1,.78.37c.42.25.93.52,1.52.81l-1,1.79a21.86,21.86,0,0,0-3.12-1.93,3,3,0,0,1-.74,2,4.3,4.3,0,0,1-2.67.74,4.57,4.57,0,0,1-3-1,2,2,0,0,1-1-1.64,2.25,2.25,0,0,1,1-1.85,3.93,3.93,0,0,1,2.67-.74,8.25,8.25,0,0,1,2,.29c-.15-2-.23-3.14-.23-3.34a15.77,15.77,0,0,1,.15-1.85l1.86.15a12.37,12.37,0,0,0-.23,2.3C294.6,139.8,294.65,140.87,294.75,142.45Zm-1.7,1a6.37,6.37,0,0,0-2.23-.45,2.13,2.13,0,0,0-1.26.37,1.19,1.19,0,0,0-.52.82,1.2,1.2,0,0,0,.22.59,1.53,1.53,0,0,0,.67.45,3.3,3.3,0,0,0,1.19.22,2.22,2.22,0,0,0,1.63-.52A2,2,0,0,0,293.05,143.49Zm5.56-8.17-.74,1.71a20.34,20.34,0,0,0-2.82-1.11c-.15,0-1.11-.3-2.89-.74l.37-1.56a21.94,21.94,0,0,1,3.11.67C295.74,134.33,296.73,134.68,298.61,135.32Z" class="cls-3"/><path data-cppathid="10012" d="M306.33,129.91l1.63.81-.59.89h4.45l.37-.15,1.27,1.12-1.93,2.15h4v9.5h-3.11a23.61,23.61,0,0,0,2.37,1.11l2.82.75a6,6,0,0,0-1,1.55,21.81,21.81,0,0,1-5.49-2.22l.81-1.19H306.7l.89.89a24.43,24.43,0,0,1-5.79,2.52,7.06,7.06,0,0,0-.81-1.55,18.85,18.85,0,0,0,5-1.86h-2.6v-8.46A19.26,19.26,0,0,1,301.8,137a6.68,6.68,0,0,0-1.26-1.26A21.53,21.53,0,0,0,306.33,129.91Zm4.53,3h-4.6l-1.71,1.78h4.9C309.79,134.33,310.26,133.74,310.86,133Zm3,4.6v-1.41H305v1.41Zm0,2.6v-1.34H305v1.34Zm0,2.74v-1.48H305v1.48Z" class="cls-3"/><path data-cppathid="10013" d="M323.33,134.58v12.69h-1.86v-9.35a8.91,8.91,0,0,1-1.33,2.08,5.85,5.85,0,0,0-.89-1.56,37.57,37.57,0,0,0,4-8.46l1.64.67c-.15.49-.3.94-.45,1.33C324.19,132.58,323.82,133.44,323.33,134.58Zm2.59,10v-7h9.13v7h-2a30.32,30.32,0,0,0,3.79,1.34,15.33,15.33,0,0,0-.9,1.33,22,22,0,0,1-2.44-.74,9.37,9.37,0,0,1-2.23-1.11l.52-.82h-2.9l.6.82a19.56,19.56,0,0,1-4.68,1.85,7,7,0,0,0-1-1.33l2.22-.6,1.64-.74Zm3.57-13V130.2h1.7v1.41h4.68v1.19h-4.68v.89h3.86v1.11h-3.86v.9h5.42v1.18H324.14V135.7h5.35v-.9h-3.86v-1.11h3.86v-.89H325v-1.19Zm3.86,8v-.89h-5.72v.89Zm0,1.93v-.89h-5.72v.89Zm0,1.93v-1h-5.72v1Z" class="cls-3"/><path data-cppathid="10014" d="M1.46,315S22.91,221.59,101,203.51C194,182,357,182,357,182" class="cls-4"/></g></g></g></svg>