<?xml version="1.0" encoding="UTF-8"?>
<svg xmlns="http://www.w3.org/2000/svg" onmouseup="{ if(window.parent.document.onmouseup) window.parent.document.onmouseup(arguments[0]);}" viewBox="0 0 131.55 106.15"><defs><style>.cls-1{fill:#d7d7d7;}.cls-2{fill:#474747;}</style></defs><g data-name="Layer 2" id="Layer_2"><g data-name="Daily Scrum en" id="Daily_Scrum_en"><polygon data-cppathid="10000" points="50.69 106.15 50.69 82.15 37.84 82.15 50.69 106.15" class="cls-1"/><rect data-cppathid="10001" rx="11.54" height="83.11" width="131.55" class="cls-1"/><path data-cppathid="10002" d="M21.28,19.08c1-.21,2.18-.5,3.56-.87l.31,1.37c-1.25.29-2.37.54-3.37.75l.62,1.31,1.81-.37,2.19-.69.31,1.31-1.81.57a18.12,18.12,0,0,0-1.81.37,8,8,0,0,0,1,1.31l1.06,1.07-.81,1.18c-1.58-.45-2.44-.7-2.56-.75a11.46,11.46,0,0,0-1.5-.12,4.6,4.6,0,0,0-2.63.56,1.57,1.57,0,0,0-.81,1.25,1,1,0,0,0,.69.94,8.23,8.23,0,0,0,3.56.56A20.29,20.29,0,0,0,25,28.46L25,30c-1.5.12-2.65.18-3.44.18-2.46,0-4.1-.29-4.94-.87a2.51,2.51,0,0,1-1.25-2.06,2.59,2.59,0,0,1,1.13-1.94A5.41,5.41,0,0,1,20,24.39a12.15,12.15,0,0,1,3,.44A21.32,21.32,0,0,1,21.59,23a44.4,44.4,0,0,1-5.63.44,12.09,12.09,0,0,1-1.43-.07V22a16.31,16.31,0,0,0,2.31.19c.87,0,2.25-.11,4.12-.32a15.67,15.67,0,0,0-.68-1.43,17.74,17.74,0,0,1-2.38.18h-2V19.33c.67,0,1.25.06,1.75.06.34,0,1,0,2.13-.12A16.35,16.35,0,0,1,19,17l1.63-.32A20,20,0,0,0,21.28,19.08Z" class="cls-2"/><path data-cppathid="10003" d="M35.34,30.14a6.58,6.58,0,0,0-.69-1.43,11.86,11.86,0,0,0,2.81-.88,4.59,4.59,0,0,0,1.82-1.62A4.74,4.74,0,0,0,40,23.58a4.47,4.47,0,0,0-1.12-3.19,4.62,4.62,0,0,0-3.25-1.31,30.12,30.12,0,0,1-1.5,5.75A11,11,0,0,1,32,28.27a1.44,1.44,0,0,1-1.19.56,2.11,2.11,0,0,1-1.69-1,5.74,5.74,0,0,1-1-3.44,6.09,6.09,0,0,1,2-4.62,7.39,7.39,0,0,1,5.25-1.88,7.28,7.28,0,0,1,3.19.75,4.72,4.72,0,0,1,1.69,1.13,5.29,5.29,0,0,1,1,1.69,7.63,7.63,0,0,1,.31,2.06,6.18,6.18,0,0,1-.88,3.31A5.75,5.75,0,0,1,38.34,29,8.69,8.69,0,0,1,35.34,30.14ZM34.09,19.21a5.79,5.79,0,0,0-3.44,1.87,5.32,5.32,0,0,0-1.06,3.25,4.25,4.25,0,0,0,.56,2.31q.32.57.75.57a.57.57,0,0,0,.44-.25,10.77,10.77,0,0,0,1.5-2.88A24.88,24.88,0,0,0,34.09,19.21Z" class="cls-2"/><path data-cppathid="10004" d="M45.4,30.52a4,4,0,0,0-.56-1.5,18.81,18.81,0,0,0,3.69-1,5.5,5.5,0,0,0,2.37-1.81,3.67,3.67,0,0,0,.81-2.38,2.83,2.83,0,0,0-.56-1.94A1.39,1.39,0,0,0,50,21.46q-.26,0-1.38.12-.49.06-5,1.31l-.31-1.56c.37-.08.76-.16,1.16-.22s.72-.12,1-.19l1-.21,2.43-.5A6.61,6.61,0,0,1,50,20.14a2.66,2.66,0,0,1,2.12.88,4.11,4.11,0,0,1,1,2.94,5.52,5.52,0,0,1-1.62,3.81Q49.9,29.45,45.4,30.52Zm5.06-13.13-.12,1.44a25.41,25.41,0,0,1-5.44-.62l.44-1.44A22.26,22.26,0,0,0,50.46,17.39Z" class="cls-2"/><path data-cppathid="10005" d="M58.78,18.21v2.31H60.9v1.31H58.78V23c.62.45,1.33.91,2.12,1.37-.12.25-.35.67-.69,1.25a8.41,8.41,0,0,1-1.43-1v6H57.46V25.21a22.47,22.47,0,0,1-2,2.81,10.19,10.19,0,0,0-.93-1.5,12.23,12.23,0,0,0,1.68-2.13,14.91,14.91,0,0,0,1.25-2.56H55V20.52h2.5V18.46l-1.93.37a10,10,0,0,0-.75-1.31,24.44,24.44,0,0,0,5.5-1.25L61,17.52Zm5.68,10.93-4.5.69-.37-1.5L61,28.21a45.1,45.1,0,0,0,1.12-4.44l1.5-7.19,1.69.44L62.59,28.08c1.92-.25,3.25-.44,4-.56-.29-.83-.79-2-1.5-3.56l1.31-.5a38.62,38.62,0,0,1,2.69,6.37l-1.44.63A18.89,18.89,0,0,0,67,28.64Z" class="cls-2"/><path data-cppathid="10006" d="M75.53,16.71l1.68.43-.81,2.5h1a2.38,2.38,0,0,1,1.94.75A3.29,3.29,0,0,1,80,22.64a14.75,14.75,0,0,1-.56,3.57A11.2,11.2,0,0,1,78,29.39a1.61,1.61,0,0,1-1.25.69,1.85,1.85,0,0,1-1-.37,10.46,10.46,0,0,1-1.44-1.5,3.69,3.69,0,0,0,.94-1.07c.5.84.89,1.25,1.18,1.25s.78-.52,1.19-1.56a12.69,12.69,0,0,0,.88-4.25,2.48,2.48,0,0,0-.25-1.37,1.36,1.36,0,0,0-1-.32A11.78,11.78,0,0,0,75.9,21,58.33,58.33,0,0,1,72,29.89l-1.44-.75a37.68,37.68,0,0,0,2.06-3.75c.46-.95,1-2.33,1.69-4.12a21.23,21.23,0,0,0-2.63.62l-.18-1.62c.25,0,1.33-.15,3.25-.44l.5-1.81q.06-.32.15-.69A2.38,2.38,0,0,0,75.53,16.71Zm6.25,9.56a6.68,6.68,0,0,0-.07-1.38l.82.13a.36.36,0,0,0,.25-.13.49.49,0,0,0,.06-.31c0-1.12-.9-2.71-2.69-4.75L81,19a19.3,19.3,0,0,1,2.62,3.31A6.07,6.07,0,0,1,84.46,25,1.31,1.31,0,0,1,84.09,26a2.58,2.58,0,0,1-1.63.37Zm-.38-7.69.75-.81c.34.25.68.53,1,.84s.64.58.85.78l-.82.82A13.37,13.37,0,0,0,81.4,18.58Zm1.38-1.5.75-.81c.71.54,1.33,1.06,1.87,1.56l-.81.88A21.13,21.13,0,0,0,82.78,17.08Z" class="cls-2"/><path data-cppathid="10007" d="M95.84,20.39,96,21l-1.32.56-.31-.81c-1,.37-2,.75-3.06,1.12.87,2.67,1.9,5.36,3.06,8.07l-1.5.56c-.91-2.38-1.91-5.06-3-8.06L87,23.71l-.56-1.5,1.63-.5,1.37-.57-1-2.87L90,17.83c.17.46.34.92.5,1.38a12,12,0,0,1,.44,1.43l3-1.06c-.5-1.08-.89-1.89-1.19-2.44l1.32-.5a19.3,19.3,0,0,1,1.31,2.63,13.12,13.12,0,0,1,1.37-.06,3.62,3.62,0,0,1,2.57.93,3.17,3.17,0,0,1,.93,2.32,3,3,0,0,1-.87,2.18,3.22,3.22,0,0,1-2.38.94A7.18,7.18,0,0,1,92.71,24c.42-.5.73-.86.94-1.06a7.62,7.62,0,0,0,1.75,1,3.54,3.54,0,0,0,1.38.25,2.14,2.14,0,0,0,1.37-.5,1.68,1.68,0,0,0,.5-1.25,2.08,2.08,0,0,0-.87-1.69A3.9,3.9,0,0,0,95.84,20.39Z" class="cls-2"/><path data-cppathid="10008" d="M104.46,30a2.84,2.84,0,0,0-.09-.72c-.06-.23-.11-.45-.16-.66q3.69,0,5.13-1.06a3,3,0,0,0,1.37-2.5,2.68,2.68,0,0,0-.56-1.87,2.18,2.18,0,0,0-1.62-.63,9.16,9.16,0,0,0-1.19.13q-.2,0-5.38,1.06l-.31-1.38c.17,0,.68-.12,1.53-.25s1.39-.18,1.6-.18l2.93-.57h.82a3.56,3.56,0,0,1,2.62,1,3.72,3.72,0,0,1,1,2.75,3.91,3.91,0,0,1-1.5,3.13Q108.72,29.83,104.46,30Z" class="cls-2"/><path data-cppathid="10009" d="M20.28,41.52a31.44,31.44,0,0,0,3.43-.75l.07,1.44a28.84,28.84,0,0,1-3.94.68,63.21,63.21,0,0,1-3.69,9.32l-1.37-.63c.62-1.25,1.21-2.48,1.75-3.69l.81-2.22c.33-.89.65-1.78.94-2.65a23,23,0,0,1-2.69.06l.06-1.44a25.55,25.55,0,0,0,3.06.07q.38-1.26.75-3l1.63.5c-.13.41-.25.8-.38,1.15S20.44,41.1,20.28,41.52ZM20,48l1.37.12a4.64,4.64,0,0,0,.06,1.13,4.43,4.43,0,0,0,.38.68,2.11,2.11,0,0,0,.94.38,9.62,9.62,0,0,0,2.62.25,22.22,22.22,0,0,0,3-.25v1.5c-1.41.12-2.27.19-2.56.19a13.44,13.44,0,0,1-3.38-.32,3.28,3.28,0,0,1-1.62-.81,2.84,2.84,0,0,1-.69-1.06A5.86,5.86,0,0,1,20,48Zm7.81-4.69-.06,1.44c-.79-.05-1.54-.07-2.25-.07a7.49,7.49,0,0,0-1.19.07l-.91.06c-.52,0-1.15.12-1.9.25l-.25-1.38c.71-.12,1.32-.2,1.84-.25l1-.06Q26,43.21,27.84,43.27Z" class="cls-2"/><path data-cppathid="10010" d="M30.84,46.21l1.25.62a4.78,4.78,0,0,0-.75,1.81.65.65,0,0,0,.19.5,1.76,1.76,0,0,0,1.18.5,14.69,14.69,0,0,0,3.63.38,24.22,24.22,0,0,0,4.56-.38L41,51.27l-2.38.12a13.34,13.34,0,0,1-1.69.07c-2.91,0-4.91-.34-6-1a1.94,1.94,0,0,1-1.12-1.63,3.11,3.11,0,0,1,.19-1A15.25,15.25,0,0,1,30.84,46.21Zm8.69-5.88.12,1.44a36.66,36.66,0,0,1-4.5.37A18.54,18.54,0,0,1,33,42a11.22,11.22,0,0,1-2-.44l.44-1.31a13,13,0,0,0,1.75.37,17.37,17.37,0,0,0,2.06.13A27.55,27.55,0,0,0,39.53,40.33Z" class="cls-2"/><path data-cppathid="10011" d="M47.71,44.33q1.07-.37,5.07-1.62l.56,1.56a45.08,45.08,0,0,0-5.75,1.56,8.68,8.68,0,0,0-3.13,1.75A2,2,0,0,0,43.84,49a1.41,1.41,0,0,0,.81,1.31,10.83,10.83,0,0,0,4.31.56q1.7,0,2.25-.06a12.35,12.35,0,0,0,2.32-.25l.06,1.56c-2.25.13-3.65.19-4.19.19a14.9,14.9,0,0,1-4.62-.56A3.58,3.58,0,0,1,43,50.52,2.52,2.52,0,0,1,42.4,49a3.4,3.4,0,0,1,.88-2.19,8.52,8.52,0,0,1,3.18-2.06c-.08-.38-.18-1-.31-2A16.5,16.5,0,0,1,46,40.58c0-.71,0-1.31.06-1.81l1.69-.06c-.13,1.5-.19,2.75-.19,3.75C47.59,42.62,47.63,43.25,47.71,44.33Z" class="cls-2"/><path data-cppathid="10012" d="M60.84,38.46l1.62.68L61.4,40.83l.81-.09a5.43,5.43,0,0,0,.72-.1,3.57,3.57,0,0,1,.6-.06,16.56,16.56,0,0,1,1.68-.37l.07,1.43L62.46,42l-1.87.12-.94,1.44,1.06-.12a5.52,5.52,0,0,1,1,.12,1.52,1.52,0,0,1,.63.44,2.08,2.08,0,0,1,.37.56,3.28,3.28,0,0,1,.13.75l4.37-1.62.5,1.56c-.54.12-1.31.31-2.31.56,0,0-.81.27-2.56.81,0,1,0,1.75.06,2.38H61.46V47.21a7.58,7.58,0,0,0-2.31,1.31,1.09,1.09,0,0,0-.5.87,1,1,0,0,0,.69.88,6.86,6.86,0,0,0,3.12.5,35.61,35.61,0,0,0,4-.31V52q-2.86.18-3.81.18a8.4,8.4,0,0,1-4.37-.87,2,2,0,0,1-1-1.81,2.39,2.39,0,0,1,.81-1.69,15.7,15.7,0,0,1,3.37-1.94,1.44,1.44,0,0,0-.25-1,1,1,0,0,0-.75-.25A2.68,2.68,0,0,0,58.9,45,21.4,21.4,0,0,0,56,48L54.84,47a28.55,28.55,0,0,0,2.37-2.38A16,16,0,0,0,59,42.27a16.53,16.53,0,0,1-2.87,0L56,40.89c.62,0,1.39.07,2.31.07h1.37C60,40.5,60.34,39.66,60.84,38.46Z" class="cls-2"/><path data-cppathid="10013" d="M71.53,47.46V38.71H80.9v8.75H78.65v3.18a.42.42,0,0,0,.13.32c.08.12.16.18.25.18a3.39,3.39,0,0,0,.93.07h1a1.27,1.27,0,0,0,.82-.19c0-.13.16-.61.37-1.44a6.13,6.13,0,0,0,1.5.5A8.35,8.35,0,0,1,82.84,52a.91.91,0,0,1-.81.37H79.84A10.9,10.9,0,0,1,78,52.27a.75.75,0,0,1-.56-.5,1.75,1.75,0,0,1-.25-1.13V47.46H75a9.84,9.84,0,0,1-.63,2.25A3.26,3.26,0,0,1,73.34,51a4.82,4.82,0,0,1-1.31.81q-.94.31-2.25.69A3.32,3.32,0,0,0,69,51.14a9.35,9.35,0,0,0,2.75-.68A3.51,3.51,0,0,0,73,49.39a5.49,5.49,0,0,0,.69-1.93Zm7.87-6.25V40H73.09v1.25Zm0,2.5V42.33H73.09v1.38Zm0,2.56V44.83H73.09v1.44Z" class="cls-2"/><path data-cppathid="10014" d="M98.65,39.71l.06,1.5L95,41.46a12.5,12.5,0,0,0-2.25,1.81A7.26,7.26,0,0,0,91.65,45a3.76,3.76,0,0,0-.44,1.68,3.15,3.15,0,0,0,.63,2,3.77,3.77,0,0,0,1.69,1.25,9,9,0,0,0,2.93.57l-.06,1.62A14.17,14.17,0,0,1,93,51.33a5.54,5.54,0,0,1-2.37-1.87,4,4,0,0,1-.81-2.57,5.54,5.54,0,0,1,.56-2.43,9.2,9.2,0,0,1,2-2.75L89.53,42l-4.38.56L85,41Q90.22,40.71,98.65,39.71Z" class="cls-2"/><path data-cppathid="10015" d="M102.71,43.27V40.21l.32-.44h1.18l.25.44v3.06l-.5,4.94h-.75Zm.07,7.56V49.77l.31-.31h1.12l.25.31v1.06l-.31.38h-1.06Z" class="cls-2"/></g></g></svg>