<?xml version="1.0" encoding="UTF-8"?>
<svg xmlns="http://www.w3.org/2000/svg" onmouseup="{ if(window.parent.document.onmouseup) window.parent.document.onmouseup(arguments[0]);}" viewBox="0 0 151.85 118.97"><defs><style>.cls-1{fill:#d7d7d7;}.cls-2{fill:#474747;}</style></defs><g data-name="Layer 2" id="Layer_2"><g data-name="Daily Scrum en" id="Daily_Scrum_en"><rect data-cppathid="10000" rx="13.32" height="95.93" width="151.85" class="cls-1"/><path data-cppathid="10001" d="M25,27l1.25.62a4.78,4.78,0,0,0-.75,1.81.65.65,0,0,0,.19.5,1.79,1.79,0,0,0,1.19.5,14.54,14.54,0,0,0,3.62.38,24.22,24.22,0,0,0,4.56-.38l.13,1.63-2.38.12a11.51,11.51,0,0,1-1.68.07c-2.92,0-4.92-.34-6-1A2,2,0,0,1,24,29.65a3.11,3.11,0,0,1,.19-1A15.25,15.25,0,0,1,25,27Zm8.69-5.88.12,1.44a36.66,36.66,0,0,1-4.5.37,18.24,18.24,0,0,1-2.18-.12,10.85,10.85,0,0,1-2-.44l.43-1.31a13,13,0,0,0,1.75.37,17.4,17.4,0,0,0,2.07.13A27.55,27.55,0,0,0,33.7,21.15Z" class="cls-2"/><path data-cppathid="10002" d="M44,33a6.58,6.58,0,0,0-.69-1.43,12.17,12.17,0,0,0,2.82-.88A4.49,4.49,0,0,0,48,29a4.75,4.75,0,0,0,.69-2.63,4.47,4.47,0,0,0-1.13-3.19,4.62,4.62,0,0,0-3.25-1.31,29.91,29.91,0,0,1-1.5,5.75,10.9,10.9,0,0,1-2.06,3.44,1.44,1.44,0,0,1-1.19.56,2.12,2.12,0,0,1-1.69-1,5.72,5.72,0,0,1-1-3.44,6.09,6.09,0,0,1,2-4.62,7.39,7.39,0,0,1,5.25-1.88,7.28,7.28,0,0,1,3.19.75A4.72,4.72,0,0,1,49,22.59a5.29,5.29,0,0,1,1,1.69,7.63,7.63,0,0,1,.31,2.06,6.27,6.27,0,0,1-.87,3.31A5.78,5.78,0,0,1,47,31.84,8.69,8.69,0,0,1,44,33ZM42.76,22a5.82,5.82,0,0,0-3.44,1.87,5.32,5.32,0,0,0-1.06,3.25,4.25,4.25,0,0,0,.56,2.31q.32.57.75.57a.55.55,0,0,0,.44-.25,10.2,10.2,0,0,0,1.5-2.88A24.88,24.88,0,0,0,42.76,22Z" class="cls-2"/><path data-cppathid="10003" d="M58.7,21.78h4.69l.12-.07.81.88-1.68,3.56a12.7,12.7,0,0,1-1.38,1.94,14.14,14.14,0,0,1-1.94,2.06A19.22,19.22,0,0,1,56.64,32a24.17,24.17,0,0,1-2.94,1.31,6.5,6.5,0,0,0-.38-.75A3.93,3.93,0,0,0,52.7,32a17.65,17.65,0,0,0,3.56-1.56,18.51,18.51,0,0,0,2.88-2.12A27.12,27.12,0,0,0,56.2,26L57.14,25c1.2.8,2.2,1.5,3,2.13.5-.71.89-1.31,1.18-1.81a12.44,12.44,0,0,0,1-2.19H57.89c-.75,1-1.25,1.73-1.5,2.06a14.31,14.31,0,0,1-1.25,1.13A11,11,0,0,1,53,27.9a3.6,3.6,0,0,0-1-1.31,14.85,14.85,0,0,0,2.44-1.69,9,9,0,0,0,1.87-2.19,17.48,17.48,0,0,0,1.56-3.12l1.69.56Z" class="cls-2"/><path data-cppathid="10004" d="M67.39,21.09H76l.19-.06,1.06,1.06L75.51,25a17.85,17.85,0,0,1-1.06,1.5c1.29,1.25,2.19,2.14,2.69,2.68.33.34,1.06,1.19,2.18,2.57L77.89,32.9a23.92,23.92,0,0,0-1.5-2.06q-1.5-1.75-2.88-3.13a24.48,24.48,0,0,1-3.12,2.94,19.65,19.65,0,0,1-3.5,2.13c-.09-.17-.25-.44-.5-.82a1,1,0,0,1-.22-.28,1.26,1.26,0,0,0-.41-.34A19.55,19.55,0,0,0,71.14,28a23.63,23.63,0,0,0,4-5.5H67.39Z" class="cls-2"/><path data-cppathid="10005" d="M87.64,20.21l-1.07,2h4.69l.25-.12,1,1.06c-1,2.21-1.56,3.52-1.81,3.94A10.28,10.28,0,0,1,89,29.4a11.7,11.7,0,0,1-2.63,2.06A20.64,20.64,0,0,1,82.57,33a4.25,4.25,0,0,0-.93-1.44A22.84,22.84,0,0,0,85,30.4a8.75,8.75,0,0,0,2.44-1.69,12.33,12.33,0,0,0,1.81-2.25,25.36,25.36,0,0,0,1.31-2.93H85.89A19.46,19.46,0,0,1,84.07,26,14,14,0,0,1,82,28c-.21-.25-.36-.42-.44-.5a3,3,0,0,0-.75-.57,13.32,13.32,0,0,0,1.69-1.5c.33-.37.79-.93,1.37-1.68a19.88,19.88,0,0,0,1.25-2.19,13.63,13.63,0,0,0,.88-2Z" class="cls-2"/><path data-cppathid="10006" d="M99.76,19.28l1.63.68-1.07,1.69.82-.09a5.28,5.28,0,0,0,.71-.1,3.57,3.57,0,0,1,.6-.06,16.32,16.32,0,0,1,1.69-.37l.06,1.43-2.81.38L99.51,23l-.94,1.44,1.07-.12a5.62,5.62,0,0,1,1,.12,1.48,1.48,0,0,1,.62.44,2.08,2.08,0,0,1,.38.56,4.35,4.35,0,0,1,.12.75l4.38-1.62.5,1.56c-.55.12-1.32.31-2.32.56,0,0-.81.27-2.56.81,0,1,0,1.75.06,2.38h-1.43V28a7.67,7.67,0,0,0-2.32,1.31,1.09,1.09,0,0,0-.5.87,1,1,0,0,0,.69.88,6.91,6.91,0,0,0,3.13.5,33.52,33.52,0,0,0,4-.31v1.5c-1.92.12-3.19.18-3.82.18a8.4,8.4,0,0,1-4.37-.87,2,2,0,0,1-1-1.81A2.39,2.39,0,0,1,97,28.59a16.32,16.32,0,0,1,3.38-1.94,1.49,1.49,0,0,0-.25-1,1.06,1.06,0,0,0-.75-.25,2.69,2.69,0,0,0-1.57.44,21,21,0,0,0-2.93,3l-1.13-1.06a31.12,31.12,0,0,0,2.38-2.38,17.63,17.63,0,0,0,1.75-2.31,16.64,16.64,0,0,1-2.88,0L95,21.71c.62.05,1.39.07,2.31.07h1.38C98.89,21.32,99.26,20.49,99.76,19.28Z" class="cls-2"/><path data-cppathid="10007" d="M113.26,25.09q4.18-1.38,5.13-1.63l.43,1.5q-4.81,1.2-5.5,1.44A9,9,0,0,0,110,28.28a1.87,1.87,0,0,0-.62,1.37A1.46,1.46,0,0,0,110.2,31c.71.41,2.21.62,4.5.62a34.4,34.4,0,0,0,4.5-.31l.06,1.44c-2.29.12-3.69.18-4.19.18a16.47,16.47,0,0,1-4.56-.43,2.9,2.9,0,0,1-2-1.19,2.6,2.6,0,0,1-.56-1.56,3.44,3.44,0,0,1,.87-2.19A11.34,11.34,0,0,1,112,25.53c-.21-1.13-.33-1.9-.37-2.32a33.19,33.19,0,0,1-.07-3.62l1.69-.06c-.12,2-.19,3.29-.19,3.75A14.91,14.91,0,0,0,113.26,25.09Zm3-4.56.81-.63c1,1,1.5,1.65,1.63,1.81l-.88.69C117.28,21.69,116.76,21.07,116.26,20.53Zm1.63-1.19.87-.69a6.86,6.86,0,0,1,.94.85,7.68,7.68,0,0,1,.75.9l-.94.75-1.06-1.25A3.29,3.29,0,0,0,117.89,19.34Z" class="cls-2"/><path data-cppathid="10008" d="M123.45,33.34a4,4,0,0,0-.56-1.5,18.88,18.88,0,0,0,3.68-1A5.59,5.59,0,0,0,129,29a3.67,3.67,0,0,0,.81-2.38,2.88,2.88,0,0,0-.56-1.94,1.41,1.41,0,0,0-1.13-.43c-.16,0-.62,0-1.37.12-.34,0-2,.48-5,1.31l-.31-1.56,1.15-.22c.4-.06.73-.12,1-.18s.62-.14,1-.22L127,23a7.82,7.82,0,0,1,1.06-.07,2.67,2.67,0,0,1,2.13.88,4.15,4.15,0,0,1,1,2.94,5.49,5.49,0,0,1-1.63,3.81Q128,32.27,123.45,33.34Zm5.06-13.13-.12,1.44A25.31,25.31,0,0,1,123,21l.44-1.44A22.26,22.26,0,0,0,128.51,20.21Z" class="cls-2"/><path data-cppathid="10009" d="M25.07,42.09l1.63.44c-.42,2.21-.67,3.56-.75,4.06-.13,1.29-.19,2.42-.19,3.37a24,24,0,0,0,.44,4.69L24.64,55c-.05-.75-.1-1.36-.16-1.82s-.12-.87-.16-1.25-.06-1-.06-1.93A43.19,43.19,0,0,1,25.07,42.09Zm2.82,8,1.43.06A2.2,2.2,0,0,0,30,52a7.16,7.16,0,0,0,3.75.68,12.63,12.63,0,0,0,2.69-.31L36.51,54l-2.81.12c-2.25,0-3.77-.33-4.56-1A3.55,3.55,0,0,1,27.89,50.09Zm7.81-6.44-.06,1.44Q34.58,45,33.45,45a26.31,26.31,0,0,0-4.88.5l-.12-1.44a25.32,25.32,0,0,1,4.94-.5Q34.64,43.59,35.7,43.65Z" class="cls-2"/><path data-cppathid="10010" d="M42.76,41.53l1.69.56-.81,2.44a8.09,8.09,0,0,1,2.12.12,2.05,2.05,0,0,1,1.06.88,3.68,3.68,0,0,1,.38,1.87A15.4,15.4,0,0,1,46.64,51a10,10,0,0,1-1.5,3.25A1.44,1.44,0,0,1,44,55c-.67,0-1.48-.62-2.44-1.87A10.41,10.41,0,0,0,42.45,52a8.56,8.56,0,0,0,.94,1.18.93.93,0,0,0,.31.13.52.52,0,0,0,.37-.19,7.88,7.88,0,0,0,1.13-2.5,11.46,11.46,0,0,0,.62-3.56A1.46,1.46,0,0,0,45.51,46a2.12,2.12,0,0,0-1.25-.32,10.52,10.52,0,0,0-1.12.07c-.3.79-.62,1.65-1,2.59s-.64,1.66-.85,2.16c-.46,1-1.12,2.46-2,4.25L37.89,54c.66-1.09,1.22-2.11,1.68-3.07.13-.29.26-.6.41-.93s.3-.71.47-1.13L41,47.56c.19-.48.38-1,.59-1.47a24.33,24.33,0,0,0-2.62.56l-.25-1.56A24.08,24.08,0,0,0,42,44.71,24.62,24.62,0,0,0,42.76,41.53Zm6.5,9.62a13.88,13.88,0,0,0-.12-1.44l.87.13a.39.39,0,0,0,.31-.13.62.62,0,0,0,.07-.37,4.77,4.77,0,0,0-.57-1.88,14.05,14.05,0,0,0-2.31-2.75l1.06-.93a18.51,18.51,0,0,1,2.63,3.31A5.41,5.41,0,0,1,52,49.65a1.5,1.5,0,0,1-.38,1.19,2.32,2.32,0,0,1-1.5.37A4.47,4.47,0,0,1,49.26,51.15Z" class="cls-2"/><path data-cppathid="10011" d="M63.76,48.71a6.09,6.09,0,0,0,1.31.88A23.63,23.63,0,0,1,63,52.46a8.4,8.4,0,0,1-2.31,1.63,7,7,0,0,1-2.94.69,3.64,3.64,0,0,1-2.94-1.19,5.61,5.61,0,0,1-.75-3.38L54.26,42l1.81.06q-.49,5.31-.5,8A4.62,4.62,0,0,0,56,52.46a2.11,2.11,0,0,0,1.94.88Q61.39,53.34,63.76,48.71Z" class="cls-2"/><path data-cppathid="10012" d="M71.64,44a7.33,7.33,0,0,1,.93-.19c.29,0,.71-.13,1.25-.25L73.89,45c-1.38.25-2.3.39-2.75.43Q69.88,49,69.39,50.09a36,36,0,0,1-1.88,3.69L66.14,53a46.48,46.48,0,0,0,3.37-7.44c-.92,0-1.73,0-2.44,0V44.15c1.09.09,1.69.13,1.82.13A7.26,7.26,0,0,0,70,44.21a22.78,22.78,0,0,0,.81-2.75l1.63.44Q72.2,42.33,71.64,44Zm5.18,7.37a8.31,8.31,0,0,1,1.13.35,49.78,49.78,0,0,1,1.09.53c.36.21.78.43,1.28.68l-.87,1.5a18.94,18.94,0,0,0-2.63-1.62,2.57,2.57,0,0,1-.62,1.69,3.65,3.65,0,0,1-2.25.62,3.83,3.83,0,0,1-2.5-.81A1.65,1.65,0,0,1,70.64,53a1.91,1.91,0,0,1,.81-1.56,3.34,3.34,0,0,1,2.25-.62,6.52,6.52,0,0,1,1.69.25c-.13-1.71-.19-2.65-.19-2.82a14.08,14.08,0,0,1,.12-1.56l1.57.13a10,10,0,0,0-.19,1.93C76.7,49.17,76.74,50.07,76.82,51.4Zm-1.43.88a5.42,5.42,0,0,0-1.88-.38,1.82,1.82,0,0,0-1.06.31.76.76,0,0,0-.25,1.19,1.27,1.27,0,0,0,.56.38,2.94,2.94,0,0,0,1,.18,1.9,1.9,0,0,0,1.38-.43A1.71,1.71,0,0,0,75.39,52.28Zm4.68-6.88-.62,1.44a16.37,16.37,0,0,0-2.38-.94c-.12,0-.93-.25-2.43-.62L75,44a18.46,18.46,0,0,1,2.62.57Z" class="cls-2"/><path data-cppathid="10013" d="M88.32,43.9q1.5-.32,3.57-.87l.31,1.37c-1.25.29-2.38.54-3.38.75l.63,1.31,1.81-.37,2.19-.69.31,1.31L92,47.28a17.52,17.52,0,0,0-1.81.37,7.07,7.07,0,0,0,1,1.31L92.2,50l-.81,1.18c-1.59-.45-2.44-.7-2.57-.75a11.2,11.2,0,0,0-1.5-.12,4.56,4.56,0,0,0-2.62.56,1.57,1.57,0,0,0-.81,1.25,1,1,0,0,0,.68.94,8.28,8.28,0,0,0,3.57.56A20.29,20.29,0,0,0,92,53.28l.06,1.5c-1.5.12-2.64.18-3.43.18-2.46,0-4.11-.29-4.94-.87A2.48,2.48,0,0,1,82.45,52a2.58,2.58,0,0,1,1.12-1.94A5.44,5.44,0,0,1,87,49.21a12.15,12.15,0,0,1,3,.44,21.32,21.32,0,0,1-1.37-1.81,44.54,44.54,0,0,1-5.63.44,12.39,12.39,0,0,1-1.44-.07V46.84a16.56,16.56,0,0,0,2.32.19c.87,0,2.25-.11,4.12-.32,0,0-.23-.52-.69-1.43a17.48,17.48,0,0,1-2.37.18H83V44.15c.66,0,1.25.06,1.75.06.33,0,1,0,2.12-.12A17.39,17.39,0,0,1,86,41.78l1.63-.32A18.27,18.27,0,0,0,88.32,43.9Z" class="cls-2"/><path data-cppathid="10014" d="M102.57,47.4l.25.56-1.18.38-.25-.63c-.5.17-1.3.46-2.38.88a2.28,2.28,0,0,1,.25.62c.08.3.15.55.19.75l1.31,3.5a2.06,2.06,0,0,1,.19.38l.5,1.31-1.25.5-.44-1.31a25.44,25.44,0,0,0-1-2.5,9.68,9.68,0,0,0-.41-1.22c-.18-.48-.38-1-.59-1.53l-2.25,1.06L95,48.84A17.54,17.54,0,0,0,97.39,48l-.82-2.18L98,45.46l.69,2.07,2.31-.82c-.13-.33-.27-.67-.44-1a4.89,4.89,0,0,0-.44-.78l1.13-.56,1,2.06h.94a3,3,0,0,1,2.12.75,2.53,2.53,0,0,1,.81,1.94,2.27,2.27,0,0,1-.75,1.75,2.77,2.77,0,0,1-2.06.75,4.61,4.61,0,0,1-2.94-1.19,5.34,5.34,0,0,0,.69-1,8,8,0,0,0,1.44.88,3.75,3.75,0,0,0,.87.12,1.44,1.44,0,0,0,1.07-.44,1.34,1.34,0,0,0,.37-1,1.42,1.42,0,0,0-.56-1.18A2,2,0,0,0,102.57,47.4Z" class="cls-2"/><path data-cppathid="10015" d="M109.82,51.21a2,2,0,0,1,1.5.63,2.1,2.1,0,0,1,0,3,2,2,0,0,1-1.5.62,2,2,0,0,1-1.5-.62,2.12,2.12,0,0,1,0-3A2,2,0,0,1,109.82,51.21Zm0,1a1,1,0,0,0-.75.32,1.13,1.13,0,0,0-.37.81,1,1,0,0,0,.37.81,1,1,0,0,0,.75.31,1.1,1.1,0,0,0,.82-.31,1.13,1.13,0,0,0,.31-.81,1.47,1.47,0,0,0-.31-.81A1.11,1.11,0,0,0,109.82,52.21Z" class="cls-2"/><polygon data-cppathid="10016" points="70.98 118.97 70.98 94.97 58.13 94.97 70.98 118.97" class="cls-1"/></g></g></svg>