<?xml version="1.0" encoding="UTF-8"?>
<svg xmlns="http://www.w3.org/2000/svg" onmouseup="{ if(window.parent.document.onmouseup) window.parent.document.onmouseup(arguments[0]);}" viewBox="0 0 400 270.24"><defs><style>.cls-1{fill:#014366;}</style></defs><g data-name="Layer 2" id="Layer_2"><g data-name="Layer 1" id="Layer_1-2"><g id="NewGroupe0"><g id="NewGroup5-0"><path data-cppathid="10000" d="M68.71,25.66a9.46,9.46,0,0,1,9.45-9.45h7.06V30.58a5.88,5.88,0,1,0,11.75,0V16.21H270.75a9.46,9.46,0,0,1,9.45,9.45V36a9.46,9.46,0,0,1-9.45,9.45H78.16A9.46,9.46,0,0,1,68.71,36V25.66Zm9.45,31.52H270.75A21.22,21.22,0,0,0,292,36V25.66a21.22,21.22,0,0,0-21.2-21.2H78.16A21.22,21.22,0,0,0,57,25.66V36a21.22,21.22,0,0,0,21.2,21.2Z" class="cls-1"/><path data-cppathid="10001" d="M331.8,95.36v10.33a9.46,9.46,0,0,1-9.45,9.45H129.76a9.46,9.46,0,0,1-9.45-9.45V95.36a9.46,9.46,0,0,1,9.45-9.45H303.54v14.38a5.88,5.88,0,0,0,11.75,0V85.91h7.06a9.46,9.46,0,0,1,9.45,9.45Zm-223.24,0v10.33a21.22,21.22,0,0,0,21.2,21.2H322.35a21.22,21.22,0,0,0,21.2-21.2V95.36a21.22,21.22,0,0,0-21.2-21.2H129.76a21.22,21.22,0,0,0-21.2,21.2Z" class="cls-1"/><path data-cppathid="10002" d="M68.71,165.07a9.46,9.46,0,0,1,9.45-9.45h7.06V170A5.88,5.88,0,1,0,97,170V155.62H270.75a9.46,9.46,0,0,1,9.45,9.45v10.32a9.46,9.46,0,0,1-9.45,9.45H78.16a9.46,9.46,0,0,1-9.45-9.45V165.07Zm9.45,31.52H270.75a21.22,21.22,0,0,0,21.2-21.2V165.07a21.22,21.22,0,0,0-21.2-21.2H78.16A21.22,21.22,0,0,0,57,165.07v10.32a21.22,21.22,0,0,0,21.2,21.2Z" class="cls-1"/><path data-cppathid="10003" d="M331.8,245.1a9.46,9.46,0,0,1-9.45,9.45H129.76a9.46,9.46,0,0,1-9.45-9.45V234.77a9.46,9.46,0,0,1,9.45-9.45H303.54V239.7a5.88,5.88,0,0,0,11.75,0V225.32h7.06a9.46,9.46,0,0,1,9.45,9.45V245.1Zm-9.45-31.53H129.76a21.22,21.22,0,0,0-21.2,21.2V245.1a21.22,21.22,0,0,0,21.2,21.2H322.35a21.22,21.22,0,0,0,21.2-21.2V234.77a21.22,21.22,0,0,0-21.2-21.2Z" class="cls-1"/><path data-cppathid="10004" d="M326.66,27.57a6,6,0,0,0-.55,1.37.85.85,0,0,1,0,.17c0,.21-.08.41-.1.61a.5.5,0,0,1,0,.12c0,.24,0,.48,0,.72,0,.05,0,.11,0,.16a4.07,4.07,0,0,0,.07.61.68.68,0,0,0,0,.14,4.58,4.58,0,0,0,.18.73l0,.07a5,5,0,0,0,.26.64l0,.08.06.1.09.18a4.11,4.11,0,0,0,.24.39l0,0c.1.15.21.29.32.43l0,0,18.91,22.47a5.87,5.87,0,1,0,9-7.56L344.42,36.27h36.93a6.9,6.9,0,0,1,6.9,6.9V227.08a6.9,6.9,0,0,1-6.9,6.89H360.92a5.88,5.88,0,1,0,0,11.75h20.43A18.66,18.66,0,0,0,400,227.08V43.17a18.67,18.67,0,0,0-18.65-18.65h-37.6L355.36,9.46a5.88,5.88,0,1,0-9.31-7.17L327.2,26.74l0,0,0,0,0,.05a5.72,5.72,0,0,0-.39.57c0,.05-.05.09-.07.14Z" class="cls-1"/><path data-cppathid="10005" d="M18.65,245.72h37.6L44.64,260.78A5.88,5.88,0,0,0,54,268L72.8,243.5l0,0,0,0,0,0c.14-.19.27-.38.39-.58l.07-.13a6.44,6.44,0,0,0,.55-1.37,1.16,1.16,0,0,1,0-.18,6,6,0,0,0,.1-.61.5.5,0,0,1,0-.12c0-.24,0-.48,0-.72,0-.05,0-.11,0-.16a4.39,4.39,0,0,0-.07-.61.78.78,0,0,0,0-.14,4.46,4.46,0,0,0-.18-.72l0-.08a4.39,4.39,0,0,0-.26-.63l0-.09-.06-.1-.09-.18a3,3,0,0,0-.24-.38l0-.05a4.35,4.35,0,0,0-.32-.43l0,0L53.79,213.59a5.87,5.87,0,1,0-9,7.56L55.58,234H18.65a6.9,6.9,0,0,1-6.9-6.89V43.17a6.9,6.9,0,0,1,6.9-6.9H39.08a5.88,5.88,0,1,0,0-11.75H18.65A18.67,18.67,0,0,0,0,43.17V227.08a18.66,18.66,0,0,0,18.65,18.64Z" class="cls-1"/></g></g></g></g></svg>