<?xml version="1.0" encoding="UTF-8"?>
<svg xmlns="http://www.w3.org/2000/svg" onmouseup="{ if(window.parent.document.onmouseup) window.parent.document.onmouseup(arguments[0]);}" viewBox="0 0 73.13 73.13" data-name="ò‡_1" id="ò__1"><defs><style>.cls-1{fill:#39a935;}.cls-2{fill:#fff;}</style></defs><circle data-cppathid="10000" r="36.56" cy="36.56" cx="36.56" class="cls-1"/><path data-cppathid="10001" transform="translate(-2327.92 -2455.36)" d="M2362.79,2514.9l30.57-39.79a.06.06,0,0,0,0-.08l-9.7-7.45a.05.05,0,0,0-.08,0l-24.3,31.62a0,0,0,0,1-.07,0l-16.38-11.74a.05.05,0,0,0-.08,0l-7.13,9.94a.06.06,0,0,0,0,.08l25.12,18,1,.76,0,0h0a.06.06,0,0,0,.08,0Z" class="cls-2"/></svg>