<?xml version="1.0" encoding="UTF-8"?>
<svg xmlns="http://www.w3.org/2000/svg" onmouseup="{ if(window.parent.document.onmouseup) window.parent.document.onmouseup(arguments[0]);}" viewBox="0 0 73.13 73.13"><defs><style>.cls-1{fill:#e30613;}.cls-2{fill:#fff;}</style></defs><g data-name="Layer 2" id="Layer_2"><g data-name="ò‡_1" id="ò__1"><circle data-cppathid="10000" r="36.56" cy="36.56" cx="36.56" class="cls-1"/><path data-cppathid="10001" d="M58.94,23.55l-9.36-9.37a.06.06,0,0,0-.08,0L36.6,27.08a.06.06,0,0,1-.08,0L23.63,14.18a.06.06,0,0,0-.08,0l-9.37,9.37a.06.06,0,0,0,0,.08l12.9,12.89a.06.06,0,0,1,0,.08L14.18,49.5a.06.06,0,0,0,0,.08l9.37,9.36a.06.06,0,0,0,.08,0L36.52,46.05a.06.06,0,0,1,.08,0L49.5,58.94a.06.06,0,0,0,.08,0l9.36-9.36a.06.06,0,0,0,0-.08L46.05,36.6a.06.06,0,0,1,0-.08L58.94,23.63A.06.06,0,0,0,58.94,23.55Z" class="cls-2"/></g></g></svg>