<?xml version="1.0" encoding="UTF-8"?>
<svg xmlns="http://www.w3.org/2000/svg" onmouseup="{ if(window.parent.document.onmouseup) window.parent.document.onmouseup(arguments[0]);}" viewBox="0 0 140.31 324.48"><defs><style>.cls-1{fill:#fcc488;}.cls-2{fill:#d7d7d7;}.cls-3,.cls-7,.cls-8,.cls-9{stroke:#000;}.cls-3{stroke-width:2.52px;}.cls-4{fill:#ccebf6;}.cls-5{fill:#332518;}.cls-6{fill:#55c9ef;}.cls-7{fill:none;stroke-width:2px;}.cls-8{stroke-width:1.91px;}.cls-9{stroke-width:0.63px;}.cls-10{fill:#fff;}</style></defs><g data-name="Layer 2" id="Layer_2"><g id="ProductOwner"><path data-cppathid="10000" d="M22.55,110.17s0-6.41-4.35-9.35S13.73,94,13,92.55s-6.79,1.11-1.29,9.57-.33,11-.33,11l-4.16,3s4.17,2.85,7.7,2.53,13.25,6.69,17.57,9.07,12.22-4.39,12.2-5-10-3.81-10-3.81Z" class="cls-1"/><path data-cppathid="10001" d="M16.79,106.35c-.15,2-3.56,2.27-2.91,2.37,2.81.44,5.28,3-.53,4.17,7.39,2.15-.79,3.72-.79,3.72s-5.83-.85-6.75-.89c-2.58-.1-3.56-3.56-1.69-3.79,0,0-1.61-2.57.75-4.1,0,0-1.53-1.49.49-3.32C6.58,103.4,16.93,104.61,16.79,106.35Z" class="cls-1"/><path data-cppathid="10002" d="M84,124.18c2.31.5,3.56,3,2.79,5.6h0c-.77,2.59-3.27,4.28-5.58,3.77,0,0-4.26,7.75-29.44,2.23S19.48,120,19.48,120l3.39-11.4s15.92,12.85,32,16.92A50.3,50.3,0,0,0,84,124.18Z"/><path data-cppathid="10003" d="M0,314.42c0,5.55,30,10.06,67,10.06s67-4.51,67-10.06-30-10.06-66.95-10.06S0,308.86,0,314.42Z" class="cls-2"/><path data-cppathid="10004" d="M85.07,118.91S61.31,149.76,58,194.78c-.2,2.74,0,13.62,0,13.62l39.87,8s0-2.25,0-3.33c0-30.84-1.09-65.84-1.09-65.84s-2.5-36.68-5.83-35S85.07,118.91,85.07,118.91Z" class="cls-3"/><path data-cppathid="10005" d="M63.84,205.39s-.27,4.24-.36,6.38c-1.61,41.41,9.93,86.11,9.93,86.11s-9.57,3.19-11.16,6.38,22.32,1.59,22.32,1.59-4.78-57.4-3.19-70.16,12.76,67,16,71.76S112.48,317,112.48,317s-2.39-9.56-4.79-13.55-8.43-60.08-8.76-90.1c0-.81,0-2.39,0-2.39Z"/><path data-cppathid="10006" d="M86.17,120.88S67.18,159.45,64,202.5c-.19,2.63-.4,7.95-.4,7.95l34.81,3.71s0-2.16,0-3.19c0-29.5-1-63-1-63s-2.4-35.08-5.58-33.49S86.17,120.88,86.17,120.88Z" class="cls-4"/><path data-cppathid="10007" d="M74.35,200.17l25.11,17.05s0-2.29,0-3.38c0-31.31-1-66.86-1-66.86s-1.19-19.69-3-29.78C84.35,118.48,74.35,200.17,74.35,200.17Z" class="cls-3"/><path data-cppathid="10008" d="M73.23,105.89s0-.07-.78-1.89C72.34,103.75,67,90.2,67,90.2s7.41,2.2,22.45-2.35S103.5,76.53,103.5,76.53H82C67,76.53,60,71.2,60,71.2a53.52,53.52,0,0,1,5.18-36.09C78.57,9.73,120-13,132,15.08s-1.34,46.74-10.69,64.1-27.11,39.95-35.17,41C79,121,73.23,105.89,73.23,105.89Z" class="cls-1"/><path data-cppathid="10009" d="M127.17,8.34s-18.49,3.92-22.94,9.26-3.84,6.53-3.89,6.77c-2.36-6,1.9-8.9,1.9-8.9-12.83,2.13-17.62,2-31.8-1.9,9.87,1.11,13.9-.14,13.9-.14S75,12.18,71.55,5.37c9.5,3,15.16,3,15.16,3L70.44,2.16a82.15,82.15,0,0,0,24.81-1,53.72,53.72,0,0,1,25.69,1C124.5,3,127.17,8.34,127.17,8.34Z" class="cls-5"/><path data-cppathid="10010" d="M127.17,8.34s-2.67,15.14-2.67,19.59,11.58,16,11.58,16,6.23-14.25,3.56-22.26S127.17,8.34,127.17,8.34Z" class="cls-5"/><polygon data-cppathid="10011" points="85.36 124.37 82.52 123.11 81.65 132.43 85.36 124.37" class="cls-6"/><polygon data-cppathid="10012" points="81.65 132.43 71.78 161.01 71.91 175.62 79.69 162.58 81.65 132.43" class="cls-6"/><path data-cppathid="10013" d="M120.84,42.86c-3.34,10.57-5.57,14.46-5.57,14.46l-30-5.56,1.11-15.58L78,50.09,58,46.75,60.2,29" class="cls-7"/><path data-cppathid="10014" d="M60.2,30.34s48.58-.5,77.69,24.38c0,0-.18,2.88-.18,4.57,0,1.32-1.48-2.88-2.6-4.4-7.6-10.16-43.2-24.21-74.91-23.2C59.83,30.51,60.2,30.34,60.2,30.34Z" class="cls-8"/><path data-cppathid="10015" d="M90.8,46.26c0,2.94,1.41,5.34,3.14,5.34s3.14-2.4,3.14-5.34-1.41-5.34-3.14-5.34S90.8,43.31,90.8,46.26Z" class="cls-9"/><path data-cppathid="10016" d="M94.88,43.75a1.57,1.57,0,1,0,1.58-1.57A1.57,1.57,0,0,0,94.88,43.75Z" class="cls-10"/><path data-cppathid="10017" d="M76,43.14c0,2.43,1.15,4.39,2.58,4.39s2.59-2,2.59-4.39-1.16-4.4-2.59-4.4S76,40.71,76,43.14Z" class="cls-9"/><path data-cppathid="10018" d="M78.81,41.25a1.57,1.57,0,1,0,1.57-1.57A1.57,1.57,0,0,0,78.81,41.25Z" class="cls-10"/><path data-cppathid="10019" d="M103.63,195.34a32.85,32.85,0,0,1-4.75,8.29s-10.84,7.85-6.2,7.92,9-5.32,9-5.32-5.94,13.37-4.21,15.47,4.58-7.3,4.58-7.3-.84,8.64-.37,9.84,2.91-8,2.91-8,1.82,7.14,3,6.68.13-15.29,1.55-20c.29-.94,1.22-3,2.47-5.82C116.64,185.87,106.18,188.6,103.63,195.34Z" class="cls-1"/><path data-cppathid="10020" d="M94.2,131.79c-.26-2.64,2-4.83,5-4.9h0c3-.07,5.69,2,5.94,4.65,0,0,9.74,1.88,12.51,30.65S111.94,202,111.94,202l-13.32.3s8.23-21.41,7.07-39.91A56.44,56.44,0,0,0,94.2,131.79Z"/></g></g></svg>