<?xml version="1.0" encoding="UTF-8"?>
<svg xmlns="http://www.w3.org/2000/svg" onmouseup="{ if(window.parent.document.onmouseup) window.parent.document.onmouseup(arguments[0]);}" viewBox="0 0 1072.18 402.46"><defs><style>.cls-1{isolation:isolate;}.cls-14,.cls-2{mix-blend-mode:multiply;}.cls-3{fill:#f1f2f2;}.cls-4{fill:#c0644b;}.cls-5{fill:#a1523e;}.cls-6{fill:#ab5842;}.cls-7{fill:#793e2f;}.cls-8{fill:#424242;}.cls-9{fill:#ccc;}.cls-10{fill:#f2f2f2;}.cls-11{fill:#b9d3c5;}.cls-12{fill:#fddbbb;}.cls-13{fill:#3b3b3b;}.cls-14,.cls-15{fill:#f5f5f5;}.cls-16{fill:gray;}.cls-17{fill:#e6e7e8;}.cls-18{fill:#594a42;}.cls-19{fill:#eb7d86;}.cls-20{fill:#a97c50;}.cls-21{fill:#7f5d3c;}.cls-22{fill:#c69c6d;}.cls-23{fill:#e6e6e6;}.cls-24{fill:#ba5438;}</style></defs><g class="cls-1"><g data-name="Layer 1" id="Layer_1"><g class="cls-2"><polygon data-cppathid="10000" points="478.79 309.35 651.25 402.46 542.68 402.46 371.85 309.35 478.79 309.35" class="cls-3"/></g><polygon data-cppathid="10001" points="370.23 29.18 542.68 122.29 498.2 122.29 327.38 29.18 370.23 29.18" class="cls-4"/><rect data-cppathid="10002" height="280.17" width="44.48" y="122.29" x="498.2" class="cls-5"/><polygon data-cppathid="10003" points="327.38 29.18 327.38 309.35 498.2 402.46 498.2 122.29 327.38 29.18" class="cls-6"/><path data-cppathid="10004" transform="translate(-120.21 -250.36)" d="M617,404.65l.76.41.29.16.41,0h44.48v-2.92H618.78l-1.83-1-55.08-30,0-29.5h43.94l-3-1.59H558.9l.06,29.5-54.23-29.56,0-29.48h43.4l-3-1.59H501.78l0,29.48L447.58,309v3.32l25.8,14.07v27.81l-25.8-14.07v3.32l25.8,14.07,2.92,1.58L501.85,373l0,27.83L476.3,386.92l-2.92-1.59-25.8-14.06v3.32l25.8,14.06v27.81l-25.8-14.06v3.32l25.8,14.06,2.92,1.59,25.61,14,0,27.82-25.64-14-2.92-1.59-25.8-14.06v3.32l25.8,14.06v27.81l-25.8-14.06V468L473.38,482l2.92,1.59,25.68,14,0,27.83-25.71-14-2.92-1.59-25.8-14.06v3.32l25.8,14.06V541l-25.8-14.06v3.32l25.8,14.06,2.92,1.59,25.74,14,0,29.49L505,591l0-29.49,25.85,14.09,2.92,1.58,25.68,14,.09,29.52,2.92,1.59-.09-29.51,25.91,14.12,2.91,1.58L617,622.56l.76.41.39.18h44.79v-2.92H618.78l-1.83-1-25.8-14.07V577.36L617,591.43l.76.41.29.17h44.89V589.1H618.78l-1.83-1-25.8-14.06-2.91-1.59-26-14.16-.06-27.84,26,14.19,2.91,1.58L617,560.3l.76.41.34.17h44.84V558H618.78L617,557l-25.8-14.06V515.11L617,529.17l.76.41.32.16.38,0h44.48v-2.92H618.78l-1.83-1-25.8-14.06-2.91-1.59L562.13,496l-.06-27.84,26.17,14.26,2.91,1.59L617,498l.76.41.27.16.43,0h44.48v-2.92H618.78l-1.83-1-25.8-14.06V452.85L617,466.91l.76.41.34.17h44.84v-2.92H618.78l-1.83-1-25.8-14.06-2.91-1.59L562,433.64l0-27.84,26.29,14.33,2.91,1.59L617,435.78l.76.41.34.17h44.84v-2.92H618.78l-1.83-1-25.8-14.06V390.59Zm-86.14,12-26-14.18,0-27.83,26,14.2,2.92,1.59L559,404.21l.05,27.84-25.35-13.83Zm2.92,36,25.43,13.87.05,27.84-25.48-13.9-2.92-1.58-25.95-14.15,0-27.82,26,14.16Zm-31.89-82.95L476.3,355.79V328l25.52,13.91,2.91,1.59,26.08,14.22v27.81l-26-14.2Zm.07,62.29-25.61-14V390.24l25.58,13.95,2.92,1.59,26,14.18v27.81l-26-14.17Zm.06,62.3-25.67-14V452.5l25.65,14,2.91,1.59,25.95,14.15V510L504.89,495.9Zm28.84,78L505,558.19,502,556.6l-25.74-14V514.76l25.71,14,2.92,1.59,25.88,14.11Zm0-31.13-25.89-14.11,0-27.83,25.91,14.13,2.92,1.58,25.55,13.94.06,27.84-25.61-14Zm31.46,20.46,26,14.16v27.81l-25.92-14.13-2.91-1.59-25.68-14V546.06l25.62,14Zm-.13-62.33,26.1,14.23v27.81l-26-14.2-2.92-1.59-25.55-13.93V483.8l25.49,13.9ZM562,437l26.23,14.3v27.81L562.07,464.8l-2.92-1.59-25.42-13.86V421.54l25.36,13.83Zm26.23-20.15-26.3-14.34L559,400.88,533.73,387.1V359.29L559,373l2.92,1.59L588.24,389Z" class="cls-7"/><g class="cls-2"><ellipse data-cppathid="10005" ry="20.11" rx="100.82" cy="375.8" cx="971.36" class="cls-3"/></g><path data-cppathid="10006" transform="translate(-120.21 -250.36)" d="M1103.66,616.5a5.07,5.07,0,0,1-5-4.12l-14.06-73.81a5.06,5.06,0,1,1,9.95-1.9l14.07,73.81a5.08,5.08,0,0,1-4,5.93A5.2,5.2,0,0,1,1103.66,616.5Z" class="cls-8"/><path data-cppathid="10007" transform="translate(-120.21 -250.36)" d="M1155.16,424.44a74.42,74.42,0,0,0-36-17.56l-18.52-3.35c44.86,8.13,73.73,56,64.49,107s-53.09,85.66-98,77.53l18.53,3.36a74.09,74.09,0,0,0,35.69-2.36c30.45-9.61,55.52-38.07,62.25-75.17C1190.08,478.48,1178.1,444.58,1155.16,424.44Z" class="cls-9"/><path data-cppathid="10008" transform="translate(-120.21 -250.36)" d="M1021.55,625.68a5.07,5.07,0,0,0,9.29,4.05l24.07-55.26a79.28,79.28,0,0,1-8.88-5Z" class="cls-8"/><path data-cppathid="10009" transform="translate(-120.21 -250.36)" d="M1154.73,629.59l-24.12-51.4a36.82,36.82,0,0,0-9.13,4.4l24.07,51.3a5.08,5.08,0,0,0,4.66,2.92,5.13,5.13,0,0,0,2.08-.48A5.06,5.06,0,0,0,1154.73,629.59Z" class="cls-8"/><ellipse data-cppathid="10010" transform="translate(282.49 1223.48) rotate(-79.72)" ry="82.54" rx="93.76" cy="495.78" cx="1083.92" class="cls-10"/><path data-cppathid="10011" transform="translate(-120.21 -250.36)" d="M1069.78,573.78c36.92,6.7,73.31-22.85,81.11-65.86s-15.9-83.45-52.82-90.15-73.31,22.85-81.11,65.86S1032.85,567.08,1069.78,573.78ZM1041.18,488c5.38-29.66,28.93-50.31,52.5-46s38.36,31.87,33,61.53-28.93,50.3-52.5,46S1035.8,517.68,1041.18,488Z" class="cls-6"/><path data-cppathid="10012" transform="translate(-120.21 -250.36)" d="M1077.53,531c-13.13-2.38-21.29-20.54-17.83-39.66s17.49-33.24,30.62-30.86,21.29,20.54,17.82,39.65S1090.66,533.42,1077.53,531Z" class="cls-6"/><polygon data-cppathid="10013" points="1002.05 131.49 1021.98 72.43 1002.05 66.69 994.12 129.46 1002.05 131.49" class="cls-11"/><polygon data-cppathid="10014" points="971.41 127.43 964.32 78.98 950.58 85.11 965.56 128.44 971.41 127.43" class="cls-11"/><polygon data-cppathid="10015" points="1023.98 139.59 1055.49 97.57 1065.17 113.01 1029.13 144.19 1023.98 139.59" class="cls-11"/><g class="cls-2"><ellipse data-cppathid="10016" ry="8.95" rx="56.22" cy="382.2" cx="102" class="cls-3"/></g><path data-cppathid="10017" transform="translate(-120.21 -250.36)" d="M236.22,537.83l10.12,49.11L242,621.66s8.4,16.23,14.71,12.22c7.24-4.61-8.22-14.28-8.22-14.28l9.87-31.46L256.74,539Z" class="cls-12"/><path data-cppathid="10018" transform="translate(-120.21 -250.36)" d="M242,621.66l-1.57,10.22,2.14.41,1.18-3.09a15.19,15.19,0,0,0,10.47,7.52c15.68,3.27,2.67-12.55-5.73-17.12,0,0,11.46,7,6.85,9.86C248.15,633.94,242,621.66,242,621.66Z" class="cls-13"/><path data-cppathid="10019" transform="translate(-120.21 -250.36)" d="M205.64,538.54l9,45.69-24.21,19.21s-5.78,17.34,1.51,19c8.38,1.91,4.51-15.85,4.51-15.85l31.39-17.75-1.63-49.11Z" class="cls-12"/><path data-cppathid="10020" transform="translate(-120.21 -250.36)" d="M190.38,603.44,182,609.5l1.19,1.8,3-1.33a15.11,15.11,0,0,0,1.93,12.7c8.62,13.42,10.88-6.9,8.29-16.07,0,0,3,13-2.29,11.78C185.85,616.4,190.38,603.44,190.38,603.44Z" class="cls-13"/><polygon data-cppathid="10021" points="83.7 193.96 86.79 210.38 99.44 228.65 104.62 207.15 101.53 190.73 83.7 193.96" class="cls-12"/><path data-cppathid="10022" transform="translate(-120.21 -250.36)" d="M221.74,441.09l-17.84,3.24,2.29,12.14a37.66,37.66,0,0,0,10.26-1.13,36.38,36.38,0,0,0,7.44-2.8Z" class="cls-14"/><polygon data-cppathid="10023" points="86.79 210.38 66.59 220.46 79.22 266.77 77.7 291.15 142 279.37 130.92 257.4 125.62 207.1 104.62 207.15 99.44 228.65 86.79 210.38" class="cls-13"/><polygon data-cppathid="10024" points="104.62 207.15 108.83 207.15 101.01 236.97 83.07 212.35 86.79 210.38 99.44 228.65 104.62 207.15" class="cls-15"/><polygon data-cppathid="10025" points="86.79 210.38 83.06 212.24 84.25 227.09 89.25 223.46 95.77 223.34 86.79 210.38" class="cls-15"/><polygon data-cppathid="10026" points="104.62 207.15 108.83 207.15 113.08 221.87 107.08 220.22 100.95 222.4 104.62 207.15" class="cls-15"/><path data-cppathid="10027" transform="translate(-120.21 -250.36)" d="M225.19,494.21a2.59,2.59,0,0,1-2.11,3,2.63,2.63,0,0,1-3.07-2.09,2.6,2.6,0,0,1,2.11-3A2.64,2.64,0,0,1,225.19,494.21Z" class="cls-16"/><polygon data-cppathid="10028" points="143.81 303.58 84.51 315.79 81.6 290.32 137.6 280.17 143.81 303.58" class="cls-13"/><g class="cls-2"><polygon data-cppathid="10029" points="81.61 290.43 82.4 297.33 138.17 282.29 137.6 280.17 81.61 290.43" class="cls-17"/></g><path data-cppathid="10030" transform="translate(-120.21 -250.36)" d="M228.09,509.59a2.61,2.61,0,0,1-2.11,3,2.65,2.65,0,0,1-3.08-2.09,2.6,2.6,0,0,1,2.11-3A2.64,2.64,0,0,1,228.09,509.59Z" class="cls-16"/><path data-cppathid="10031" transform="translate(-120.21 -250.36)" d="M231,525a2.6,2.6,0,0,1-2.11,3,2.64,2.64,0,0,1-3.07-2.1,2.59,2.59,0,0,1,2.11-3A2.64,2.64,0,0,1,231,525Z" class="cls-16"/><path data-cppathid="10032" transform="translate(-120.21 -250.36)" d="M135.86,489.92c-3.48-4.76-15.87-5.74-15.65.77.19,5.55,8.74,3,9.79,4.71Z" class="cls-12"/><polygon data-cppathid="10033" points="17.06 239.75 15.53 238.33 9.11 244.91 10.69 246.38 17.06 239.75" class="cls-15"/><path data-cppathid="10034" transform="translate(-120.21 -250.36)" d="M195.59,474.74c-17.4,52.11-42,49.38-65.68,21.88l6.89-7.5c13.74,13.51,31.77,35.75,50-18.3Z" class="cls-13"/><path data-cppathid="10035" transform="translate(-120.21 -250.36)" d="M134.51,499.24a.91.91,0,0,1,.16-1.3.94.94,0,0,1,1.32.16.92.92,0,0,1-.16,1.3A1,1,0,0,1,134.51,499.24Z" class="cls-16"/><path data-cppathid="10036" transform="translate(-120.21 -250.36)" d="M132.13,497.13a.93.93,0,0,1,.16-1.31.94.94,0,0,1,1.31.17.92.92,0,0,1-.16,1.3A1,1,0,0,1,132.13,497.13Z" class="cls-16"/><path data-cppathid="10037" transform="translate(-120.21 -250.36)" d="M181.24,397.65s-21.37-20.16-38.41-4.86c-22.56,20.26,24.2,55.06-7.44,65.1,18.72,18.19,45.86-2.85,28-29.61C145.59,401.75,161.61,384.53,181.24,397.65Z" class="cls-18"/><path data-cppathid="10038" transform="translate(-120.21 -250.36)" d="M238.11,403.25c6,21.22-.79,41.31-19.25,47.44s-39.86-5.08-46.79-25.36,2.42-41.69,20.89-47.82C225,366.87,232.3,382.63,238.11,403.25Z" class="cls-12"/><path data-cppathid="10039" transform="translate(-120.21 -250.36)" d="M181,401.7s31.28-1.33,56.27-12.63c-8.1-23.64-36.24-35.17-64.15-14.29-30.92,23.13-3.51,62.34,14.45,72.24a79.35,79.35,0,0,0-.28-23.18s-6.52,5.26-7.62-2.35c-.8-5.44,6.13-4.07,6.13-4.07Z" class="cls-18"/><path data-cppathid="10040" transform="translate(-120.21 -250.36)" d="M226.41,428.41a125.24,125.24,0,0,0-17,4.19.72.72,0,0,0-.44.93c.75,2,3.6,7.81,11.2,6,7.06-1.65,7.17-8.28,7-10.49A.72.72,0,0,0,226.41,428.41Z" class="cls-19"/><path data-cppathid="10041" transform="translate(-120.21 -250.36)" d="M312.66,428.5c3.63-4.65,13-9.27,13.8-2.36.61,5.52-7,6.34-8.12,8Z" class="cls-12"/><polygon data-cppathid="10042" points="191.04 178.27 192.61 176.91 198.81 183.7 197.19 185.11 191.04 178.27" class="cls-15"/><path data-cppathid="10043" transform="translate(-120.21 -250.36)" d="M246.32,470.08c42.24-9.28,44.8-12,72.07-34.69l-6.64-7.73c-14.18,13-23.58,22.49-65.92,29.81Z" class="cls-13"/><path data-cppathid="10044" transform="translate(-120.21 -250.36)" d="M313.7,437.85a.93.93,0,0,0-.11-1.31,1,1,0,0,0-1.33.12.92.92,0,0,0,.12,1.31A.94.94,0,0,0,313.7,437.85Z" class="cls-16"/><path data-cppathid="10045" transform="translate(-120.21 -250.36)" d="M316.15,435.82a.92.92,0,0,0-.11-1.31,1,1,0,0,0-1.33.12.92.92,0,0,0,.12,1.31A.94.94,0,0,0,316.15,435.82Z" class="cls-16"/><path data-cppathid="10046" transform="translate(-120.21 -250.36)" d="M203.68,414.34c.69,2.87.16,5.46-1.21,5.79s-3-1.72-3.73-4.59-.16-5.47,1.21-5.8S203,411.47,203.68,414.34Z" class="cls-18"/><path data-cppathid="10047" transform="translate(-120.21 -250.36)" d="M234.67,407.53c.69,2.87.16,5.47-1.21,5.8s-3-1.73-3.73-4.6-.16-5.46,1.21-5.79S234,404.67,234.67,407.53Z" class="cls-18"/><rect data-cppathid="10048" transform="translate(-308.01 -47.42) rotate(-30.15)" height="130.86" width="1.56" y="384.63" x="282.02" class="cls-17"/><path data-cppathid="10049" transform="translate(-120.21 -250.36)" d="M315.23,508.11a2,2,0,0,1-1.58-.32,2,2,0,0,1-.5-2.83c.28-.39,27.39-39.89,8.16-75.3s-70.74-33.13-71.26-33.11a2,2,0,0,1-.21-4.05,110.91,110.91,0,0,1,29.64,3.28c21.21,5.27,36.91,16.32,45.39,32s9.71,34.33,3.55,54.15a99.84,99.84,0,0,1-11.94,25.41A2,2,0,0,1,315.23,508.11Z" class="cls-20"/><path data-cppathid="10050" transform="translate(-120.21 -250.36)" d="M314.14,420.91l8.48,14.68a1.18,1.18,0,0,0,1.61.44l3.46-2a1.19,1.19,0,0,0,.42-1.65l-8.92-14.54a1.19,1.19,0,0,0-1.63-.39l-3,1.85A1.19,1.19,0,0,0,314.14,420.91Z" class="cls-21"/><rect data-cppathid="10051" transform="translate(-173.95 283.11) rotate(-42.63)" height="134.34" width="3.97" y="268.44" x="654.83" class="cls-22"/><g class="cls-2"><rect data-cppathid="10052" transform="translate(-174.58 282.86) rotate(-42.63)" height="134.34" width="1.98" y="269.11" x="655.09" class="cls-23"/></g><polygon data-cppathid="10053" points="585.62 129.63 590.55 143.85 576.78 137.76 581.7 134.24 585.62 129.63" class="cls-23"/><g class="cls-2"><polygon data-cppathid="10054" points="576.78 137.76 590.55 143.85 581.7 134.24 576.78 137.76" class="cls-23"/></g><polygon data-cppathid="10055" points="510.26 43.59 493.15 25 493.35 35.32 510.46 53.91 510.26 43.59" class="cls-6"/><polygon data-cppathid="10056" points="490.43 38.01 507.54 56.59 497.27 55.54 480.16 36.95 490.43 38.01" class="cls-24"/><polygon data-cppathid="10057" points="490.43 38.01 507.54 56.59 497.27 55.54 480.16 36.95 490.43 38.01" class="cls-6"/><path data-cppathid="10058" transform="translate(-120.21 -250.36)" d="M548.44,261.07A1.31,1.31,0,0,1,548,261c-1.23-.48-2.49-.95-3.73-1.39a1.21,1.21,0,0,1,.81-2.27c1.26.45,2.54.93,3.79,1.41a1.21,1.21,0,0,1-.44,2.33Z" class="cls-3"/><path data-cppathid="10059" transform="translate(-120.21 -250.36)" d="M364.84,348.62a1.26,1.26,0,0,1-.61-.16,1.21,1.21,0,0,1-.42-1.65c1.41-2.4,2.86-4.79,4.31-7.1a1.19,1.19,0,0,1,1.66-.38,1.21,1.21,0,0,1,.38,1.66c-1.44,2.29-2.88,4.66-4.28,7A1.19,1.19,0,0,1,364.84,348.62Zm9.72-15.39a1.21,1.21,0,0,1-1-1.88c1.56-2.31,3.17-4.6,4.77-6.81a1.22,1.22,0,0,1,1.68-.27,1.2,1.2,0,0,1,.27,1.68c-1.59,2.19-3.18,4.46-4.73,6.75A1.18,1.18,0,0,1,374.56,333.23Zm10.73-14.7a1.21,1.21,0,0,1-.94-1.95c1.72-2.19,3.49-4.36,5.26-6.45a1.2,1.2,0,1,1,1.83,1.56c-1.74,2.07-3.49,4.21-5.2,6.38A1.21,1.21,0,0,1,385.29,318.53Zm11.81-13.85a1.21,1.21,0,0,1-.88-2c1.89-2.05,3.84-4.06,5.78-6a1.21,1.21,0,0,1,1.7,1.71c-1.92,1.91-3.84,3.9-5.71,5.92A1.2,1.2,0,0,1,397.1,304.68Zm12.95-12.79a1.2,1.2,0,0,1-.8-2.1c2.07-1.87,4.19-3.7,6.31-5.44a1.2,1.2,0,0,1,1.52,1.86c-2.08,1.72-4.18,3.52-6.22,5.37A1.24,1.24,0,0,1,410.05,291.89Zm14.11-11.49a1.19,1.19,0,0,1-1-.5,1.21,1.21,0,0,1,.26-1.68c2.25-1.64,4.56-3.24,6.85-4.75a1.21,1.21,0,0,1,1.67.35,1.2,1.2,0,0,1-.35,1.66c-2.26,1.49-4.53,3.06-6.75,4.68A1.17,1.17,0,0,1,424.16,280.4Zm15.27-9.91a1.2,1.2,0,0,1-.6-2.25c2.43-1.38,4.9-2.7,7.36-3.92a1.2,1.2,0,1,1,1.07,2.15c-2.42,1.21-4.85,2.51-7.24,3.86A1.16,1.16,0,0,1,439.43,270.49Zm16.33-8a1.2,1.2,0,0,1-1.11-.75,1.21,1.21,0,0,1,.65-1.57c2.58-1.06,5.21-2.06,7.81-2.95a1.2,1.2,0,0,1,.78,2.28c-2.55.88-5.13,1.85-7.67,2.9A1.22,1.22,0,0,1,455.76,262.49Zm79.44-5.75a1.1,1.1,0,0,1-.31,0c-2.64-.7-5.32-1.32-8-1.84a1.2,1.2,0,0,1,.46-2.36c2.72.53,5.46,1.16,8.15,1.87a1.21,1.21,0,0,1-.31,2.37Zm-62.19,0a1.2,1.2,0,0,1-.31-2.37c2.7-.7,5.44-1.32,8.15-1.84a1.2,1.2,0,1,1,.45,2.36c-2.66.51-5.35,1.12-8,1.81A1.54,1.54,0,0,1,473,256.7Zm17.88-3.31a1.2,1.2,0,0,1-.13-2.4c2.77-.3,5.57-.51,8.34-.62a1.19,1.19,0,0,1,1.25,1.15,1.21,1.21,0,0,1-1.15,1.25c-2.72.11-5.46.32-8.17.62Zm26.43,0h-.14c-2.7-.3-5.45-.51-8.17-.62a1.2,1.2,0,0,1-1.15-1.25,1.22,1.22,0,0,1,1.25-1.16c2.77.12,5.57.33,8.34.63a1.2,1.2,0,0,1-.13,2.4Z" class="cls-3"/><path data-cppathid="10060" transform="translate(-120.21 -250.36)" d="M358,360.87a1.25,1.25,0,0,1-.56-.14,1.2,1.2,0,0,1-.5-1.63c.63-1.19,1.27-2.37,1.91-3.54a1.2,1.2,0,1,1,2.11,1.15c-.64,1.16-1.27,2.34-1.9,3.52A1.19,1.19,0,0,1,358,360.87Z" class="cls-3"/></g></g></svg>