<?xml version="1.0" encoding="UTF-8"?>
<svg xmlns="http://www.w3.org/2000/svg" onmouseup="{ if(window.parent.document.onmouseup) window.parent.document.onmouseup(arguments[0]);}" viewBox="0 0 595.02 315.38"><defs><style>.cls-1{fill:#fff;opacity:0;}.cls-2{fill:#fefefe;opacity:0.01;}.cls-3{fill:#fdfdfd;opacity:0.02;}.cls-4{fill:#fcfcfc;opacity:0.03;}.cls-5{fill:#fafafa;opacity:0.04;}.cls-6{fill:#f9f9f9;opacity:0.05;}.cls-7{fill:#f8f8f8;opacity:0.06;}.cls-8{fill:#f7f7f7;opacity:0.07;}.cls-9{fill:#f6f6f6;opacity:0.08;}.cls-10{fill:#f5f5f5;opacity:0.09;}.cls-11{fill:#f4f4f4;opacity:0.1;}.cls-12{fill:#f2f2f2;opacity:0.11;}.cls-13{fill:#f1f1f1;opacity:0.12;}.cls-14{fill:#f0f0f0;opacity:0.13;}.cls-15{fill:#efefef;opacity:0.14;}.cls-16{fill:#eee;opacity:0.15;}.cls-17{fill:#ededed;opacity:0.16;}.cls-18{fill:#ececec;opacity:0.17;}.cls-19{fill:#ebebeb;opacity:0.18;}.cls-20{fill:#e9e9e9;opacity:0.19;}.cls-21{fill:#e8e8e8;opacity:0.2;}.cls-22{fill:#e7e7e7;opacity:0.21;}.cls-23{fill:#e6e6e6;opacity:0.22;}.cls-24{fill:#e5e5e5;opacity:0.23;}.cls-25{fill:#e4e4e4;opacity:0.24;}.cls-26{fill:#e3e3e3;opacity:0.25;}.cls-27{fill:#e1e1e1;opacity:0.26;}.cls-28{fill:#e0e0e0;opacity:0.27;}.cls-29{fill:#dfdfdf;opacity:0.28;}.cls-30{fill:#dedede;opacity:0.29;}.cls-31{fill:#ddd;opacity:0.3;}.cls-32{fill:#dcdcdc;opacity:0.31;}.cls-33{fill:#dbdbdb;opacity:0.32;}.cls-34{fill:#d9d9d9;opacity:0.33;}.cls-35{fill:#d8d8d8;opacity:0.34;}.cls-36{fill:#d7d7d7;opacity:0.35;}.cls-37{fill:#d6d6d6;opacity:0.36;}.cls-38{fill:#d5d5d5;opacity:0.37;}.cls-39{fill:#d4d4d4;opacity:0.38;}.cls-40{fill:#d3d3d3;opacity:0.39;}.cls-41{fill:#d1d1d1;opacity:0.4;}.cls-42{fill:#d0d0d0;opacity:0.41;}.cls-43{fill:#cfcfcf;opacity:0.42;}.cls-44{fill:#cecece;opacity:0.43;}.cls-45{fill:#cdcdcd;opacity:0.44;}.cls-46{fill:#ccc;opacity:0.45;}.cls-47{fill:#cbcbcb;opacity:0.46;}.cls-48{fill:#c9c9c9;opacity:0.47;}.cls-49{fill:#c8c8c8;opacity:0.48;}.cls-50{fill:#c7c7c7;opacity:0.49;}.cls-51{fill:#c6c6c6;opacity:0.5;}.cls-52{fill:#c5c5c5;opacity:0.5;}.cls-53{fill:#c4c4c4;opacity:0.51;}.cls-54{fill:#c3c3c3;opacity:0.52;}.cls-55{fill:#c2c2c2;opacity:0.53;}.cls-56{fill:silver;opacity:0.54;}.cls-57{fill:#bfbfbf;opacity:0.55;}.cls-58{fill:#bebebe;opacity:0.56;}.cls-59{fill:#bdbdbd;opacity:0.57;}.cls-60{fill:#bcbcbc;opacity:0.58;}.cls-61{fill:#bbb;opacity:0.59;}.cls-62{fill:#bababa;opacity:0.6;}.cls-63{fill:#b8b8b8;opacity:0.61;}.cls-64{fill:#b7b7b7;opacity:0.62;}.cls-65{fill:#b6b6b6;opacity:0.63;}.cls-66{fill:#b5b5b5;opacity:0.64;}.cls-67{fill:#b4b4b4;opacity:0.65;}.cls-68{fill:#b3b3b3;opacity:0.66;}.cls-69{fill:#b2b2b2;opacity:0.67;}.cls-70{fill:#b0b0b0;opacity:0.68;}.cls-71{fill:#afafaf;opacity:0.69;}.cls-72{fill:#aeaeae;opacity:0.7;}.cls-73{fill:#adadad;opacity:0.71;}.cls-74{fill:#acacac;opacity:0.72;}.cls-75{fill:#ababab;opacity:0.73;}.cls-76{fill:#aaa;opacity:0.74;}.cls-77{fill:#a8a8a8;opacity:0.75;}.cls-78{fill:#a7a7a7;opacity:0.76;}.cls-79{fill:#a6a6a6;opacity:0.77;}.cls-80{fill:#a5a5a5;opacity:0.78;}.cls-81{fill:#a4a4a4;opacity:0.79;}.cls-82{fill:#a3a3a3;opacity:0.8;}.cls-83{fill:#a2a2a2;opacity:0.81;}.cls-84{fill:#a0a0a0;opacity:0.82;}.cls-85{fill:#9f9f9f;opacity:0.83;}.cls-86{fill:#9e9e9e;opacity:0.84;}.cls-87{fill:#9d9d9d;opacity:0.85;}.cls-88{fill:#9c9c9c;opacity:0.86;}.cls-89{fill:#9b9b9b;opacity:0.87;}.cls-90{fill:#9a9a9a;opacity:0.88;}.cls-91{fill:#999;opacity:0.89;}.cls-92{fill:#979797;opacity:0.9;}.cls-93{fill:#969696;opacity:0.91;}.cls-94{fill:#959595;opacity:0.92;}.cls-95{fill:#949494;opacity:0.93;}.cls-96{fill:#939393;opacity:0.94;}.cls-97{fill:#929292;opacity:0.95;}.cls-98{fill:#919191;opacity:0.96;}.cls-99{fill:#8f8f8f;opacity:0.97;}.cls-100{fill:#8e8e8e;opacity:0.98;}.cls-101{fill:#8d8d8d;opacity:0.99;}.cls-102{fill:#8c8c8c;}.cls-103{fill:#ccc729;}.cls-104{fill:#fcfc00;}.cls-105{font-size:24.56px;}.cls-105,.cls-129{font-family:KozGoPr6N-Regular-83pv-RKSJ-H, Kozuka Gothic Pr6N;}.cls-106{letter-spacing:-0.08em;}.cls-107{letter-spacing:-0.18em;}.cls-108{letter-spacing:-0.11em;}.cls-109{letter-spacing:-0.1em;}.cls-110{letter-spacing:-0.48em;}.cls-111{letter-spacing:-0.02em;}.cls-112{letter-spacing:-0.04em;}.cls-113{letter-spacing:-0.07em;}.cls-114{letter-spacing:-0.05em;}.cls-115{letter-spacing:-0.05em;}.cls-116{letter-spacing:-0.03em;}.cls-117{letter-spacing:-0.02em;}.cls-118{letter-spacing:-0.11em;}.cls-119{letter-spacing:-0.04em;}.cls-120{letter-spacing:-0.51em;}.cls-121{letter-spacing:-0.16em;}.cls-122{letter-spacing:-0.09em;}.cls-123{letter-spacing:-0.01em;}.cls-124{letter-spacing:-0.06em;}.cls-125{letter-spacing:-0.21em;}.cls-126{letter-spacing:-0.04em;}.cls-127{letter-spacing:-0.11em;}.cls-128{letter-spacing:-0.48em;}.cls-129{font-size:28.18px;fill:#262507;}.cls-130{letter-spacing:-0.02em;}.cls-131{letter-spacing:-0.06em;}.cls-132{letter-spacing:-0.04em;}</style></defs><g data-name="Layer 2" id="Layer_2"><g id="backlog"><g data-name="PBI jp" id="PBI_jp"><g id="Shadow"><path data-cppathid="10000" d="M0,277.59c-1.47-28.74,130.49-59.62,294.83-69S593.53,215,595,243.77,464.49,303.34,300.2,312.68,1.48,306.29,0,277.59Z" class="cls-1"/><path data-cppathid="10001" d="M2.52,277.45C1.05,249,131.89,218.33,294.83,209.08S591,215.41,592.44,243.91,463,303,300.14,312.24,4,305.9,2.52,277.45Z" class="cls-2"/><path data-cppathid="10002" d="M5,277.31c-1.45-28.26,128.26-58.61,289.8-67.79s293.58,6.28,295,34.54S461.57,302.62,300.08,311.8,6.46,305.51,5,277.31Z" class="cls-3"/><path data-cppathid="10003" d="M7.52,277.16c-1.44-28,127.15-58.09,287.29-67.19s291,6.23,292.48,34.23S460.11,302.26,300,311.35,9,305.12,7.52,277.16Z" class="cls-4"/><path data-cppathid="10004" d="M10,277c-1.42-27.76,126-57.59,284.77-66.61s288.49,6.18,289.92,33.94S458.65,301.89,300,310.91,11.44,304.74,10,277Z" class="cls-5"/><path data-cppathid="10005" d="M12.53,276.88c-1.42-27.52,124.92-57.08,282.25-66S580.72,217,582.14,244.5s-124.95,57-282.23,66S13.93,304.35,12.53,276.88Z" class="cls-6"/><path data-cppathid="10006" d="M15,276.73c-1.4-27.27,123.81-56.57,279.74-65.42s283.39,6.06,284.8,33.33S455.73,301.17,299.85,310,16.42,304,15,276.73Z" class="cls-7"/><path data-cppathid="10007" d="M17.53,276.59c-1.39-27,122.7-56.06,277.23-64.84s280.84,6,282.23,33-122.72,56-277.2,64.8S18.91,303.57,17.53,276.59Z" class="cls-8"/><path data-cppathid="10008" d="M20,276.45c-1.37-26.78,121.59-55.55,274.71-64.25s278.3,6,279.68,32.73-121.61,55.52-274.69,64.21S21.4,303.19,20,276.45Z" class="cls-9"/><path data-cppathid="10009" d="M22.54,276.31C21.17,249.77,143,221.26,294.73,212.64s275.75,5.9,277.12,32.44-120.5,55-272.18,63.62S23.89,302.8,22.54,276.31Z" class="cls-10"/><path data-cppathid="10010" d="M25,276.16c-1.35-26.29,119.36-54.53,269.68-63.07s273.2,5.85,274.55,32.14-119.38,54.49-269.66,63S26.38,302.41,25,276.16Z" class="cls-11"/><path data-cppathid="10011" d="M27.54,276c-1.34-26,118.25-54,267.17-62.48s270.64,5.79,272,31.83-118.27,54-267.14,62.45S28.87,302,27.54,276Z" class="cls-12"/><path data-cppathid="10012" d="M30.05,275.88c-1.33-25.8,117.13-53.52,264.64-61.9s268.1,5.74,269.43,31.54S447,299,299.5,307.38,31.36,301.64,30.05,275.88Z" class="cls-13"/><path data-cppathid="10013" d="M32.55,275.74c-1.31-25.56,116-53,262.13-61.31s265.55,5.68,266.87,31.23-116,53-262.11,61.27S33.85,301.25,32.55,275.74Z" class="cls-14"/><path data-cppathid="10014" d="M35.05,275.59c-1.3-25.31,114.91-52.5,259.62-60.72s263,5.63,264.31,30.94-114.93,52.46-259.6,60.68S36.34,300.86,35.05,275.59Z" class="cls-15"/><path data-cppathid="10015" d="M37.55,275.45c-1.28-25.06,113.79-52,257.11-60.13S555.11,220.89,556.4,246s-113.81,52-257.08,60.09S38.83,300.48,37.55,275.45Z" class="cls-16"/><path data-cppathid="10016" d="M40.06,275.31c-1.28-24.82,112.67-51.48,254.58-59.54s257.91,5.51,259.19,30.33-112.7,51.45-254.56,59.51S41.32,300.09,40.06,275.31Z" class="cls-17"/><path data-cppathid="10017" d="M42.56,275.17c-1.26-24.58,111.56-51,252.07-59s255.36,5.46,256.63,30-111.59,50.93-252,58.92S43.81,299.7,42.56,275.17Z" class="cls-18"/><path data-cppathid="10018" d="M45.06,275c-1.25-24.33,110.45-50.46,249.56-58.36s252.81,5.41,254.06,29.73-110.47,50.43-249.53,58.33S46.3,299.31,45.06,275Z" class="cls-19"/><path data-cppathid="10019" d="M47.56,274.88c-1.23-24.08,109.34-49.95,247.05-57.77s250.26,5.35,251.5,29.43-109.36,49.92-247,57.74S48.79,298.93,47.56,274.88Z" class="cls-20"/><path data-cppathid="10020" d="M50.07,274.74c-1.23-23.84,108.22-49.45,244.52-57.19s247.71,5.3,248.94,29.13S435.29,296.1,299,303.84,51.28,298.54,50.07,274.74Z" class="cls-21"/><path data-cppathid="10021" d="M52.57,274.6c-1.21-23.6,107.11-48.94,242-56.6S539.74,223.24,541,246.83,433.83,295.74,299,303.4,53.77,298.15,52.57,274.6Z" class="cls-22"/><path data-cppathid="10022" d="M55.07,274.45c-1.2-23.34,106-48.43,239.5-56S537.18,223.63,538.39,247s-106,48.39-239.47,56S56.26,297.76,55.07,274.45Z" class="cls-23"/><path data-cppathid="10023" d="M57.58,274.31c-1.19-23.1,104.88-47.92,237-55.42S534.62,224,535.81,247.12,430.91,295,298.86,302.52,58.75,297.38,57.58,274.31Z" class="cls-24"/><path data-cppathid="10024" d="M60.08,274.17c-1.17-22.86,103.77-47.41,234.46-54.83s237.52,5.07,238.7,27.93-103.79,47.38-234.44,54.8S61.25,297,60.08,274.17Z" class="cls-25"/><path data-cppathid="10025" d="M62.58,274c-1.16-22.61,102.66-46.9,232-54.24s235,5,236.14,27.63S428,294.29,298.74,301.63,63.74,296.6,62.58,274Z" class="cls-26"/><path data-cppathid="10026" d="M65.08,273.88c-1.14-22.36,101.55-46.39,229.44-53.65s232.42,5,233.57,27.33-101.56,46.36-229.4,53.63S66.23,296.21,65.08,273.88Z" class="cls-27"/><path data-cppathid="10027" d="M67.59,273.74C66.45,251.62,168,227.86,294.51,220.67s229.87,4.92,231,27-100.45,45.85-226.89,53S68.72,295.83,67.59,273.74Z" class="cls-28"/><path data-cppathid="10028" d="M70.09,273.6c-1.12-21.88,99.32-45.38,224.4-52.48S521.82,226,522.94,247.85s-99.33,45.35-224.37,52.46S71.21,295.44,70.09,273.6Z" class="cls-29"/><path data-cppathid="10029" d="M72.59,273.45c-1.11-21.63,98.21-44.86,221.89-51.88s224.78,4.8,225.89,26.43-98.22,44.84-221.86,51.86S73.7,295.05,72.59,273.45Z" class="cls-30"/><path data-cppathid="10030" d="M75.1,273.31C74,251.93,172.19,229,294.47,222s222.22,4.75,223.33,26.13-97.11,44.34-219.35,51.28S76.19,294.66,75.1,273.31Z" class="cls-31"/><path data-cppathid="10031" d="M77.6,273.17c-1.09-21.14,96-43.85,216.86-50.71s219.67,4.69,220.76,25.83-96,43.82-216.82,50.69S78.68,294.28,77.6,273.17Z" class="cls-32"/><path data-cppathid="10032" d="M80.1,273C79,252.13,175,229.69,294.44,222.9s217.13,4.64,218.21,25.54-94.89,43.31-214.31,50.1S81.17,293.89,80.1,273Z" class="cls-33"/><path data-cppathid="10033" d="M82.6,272.88c-1.06-20.65,93.76-42.83,211.83-49.53S509,227.94,510.08,248.58s-93.78,42.81-211.8,49.52S83.66,293.5,82.6,272.88Z" class="cls-34"/><path data-cppathid="10034" d="M85.11,272.74c-1-20.4,92.63-42.32,209.31-48.94s212,4.53,213.08,24.93S414.84,291,298.22,297.65,86.15,293.11,85.11,272.74Z" class="cls-35"/><path data-cppathid="10035" d="M87.61,272.6c-1-20.16,91.52-41.81,206.8-48.36s209.48,4.48,210.52,24.63-91.55,41.79-206.77,48.34S88.64,292.73,87.61,272.6Z" class="cls-36"/><path data-cppathid="10036" d="M90.11,272.46c-1-19.92,90.41-41.31,204.28-47.77s206.94,4.42,208,24.33S411.92,290.3,298.1,296.77,91.13,292.34,90.11,272.46Z" class="cls-37"/><path data-cppathid="10037" d="M92.61,272.31c-1-19.67,89.3-40.79,201.77-47.18s204.39,4.37,205.4,24-89.32,40.77-201.73,47.16S93.62,292,92.61,272.31Z" class="cls-38"/><path data-cppathid="10038" d="M95.12,272.17c-1-19.42,88.18-40.29,199.25-46.59s201.84,4.31,202.84,23.73S409,289.58,298,295.89,96.11,291.56,95.12,272.17Z" class="cls-39"/><path data-cppathid="10039" d="M97.62,272c-1-19.18,87.07-39.78,196.74-46s199.28,4.25,200.27,23.43-87.09,39.75-196.7,46S98.6,291.18,97.62,272Z" class="cls-40"/><path data-cppathid="10040" d="M100.12,271.88c-1-18.93,86-39.26,194.22-45.41s196.74,4.2,197.72,23.13-86,39.25-194.19,45.4S101.09,290.79,100.12,271.88Z" class="cls-41"/><path data-cppathid="10041" d="M102.63,271.74c-1-18.68,84.84-38.76,191.7-44.82s194.19,4.15,195.16,22.83-84.87,38.74-191.68,44.81S103.58,290.4,102.63,271.74Z" class="cls-42"/><path data-cppathid="10042" d="M105.13,271.6c-.95-18.44,83.73-38.25,189.19-44.24s191.64,4.1,192.59,22.53-83.75,38.24-189.15,44.23S106.07,290,105.13,271.6Z" class="cls-43"/><path data-cppathid="10043" d="M107.63,271.46c-.93-18.2,82.62-37.74,186.68-43.65s189.09,4,190,22.23S401.7,287.77,297.7,293.68,108.56,289.63,107.63,271.46Z" class="cls-44"/><path data-cppathid="10044" d="M110.13,271.31c-.92-17.95,81.51-37.23,184.16-43.05s186.55,4,187.48,21.93-81.53,37.21-184.13,43S111.05,289.24,110.13,271.31Z" class="cls-45"/><path data-cppathid="10045" d="M112.64,271.17c-.91-17.7,80.39-36.72,181.64-42.47s184,3.93,184.91,21.63S398.78,287,297.58,292.79,113.54,288.85,112.64,271.17Z" class="cls-46"/><path data-cppathid="10046" d="M115.14,271c-.9-17.46,79.28-36.22,179.13-41.88S475.72,233,476.62,250.48s-79.3,36.2-179.1,41.87S116,288.46,115.14,271Z" class="cls-47"/><path data-cppathid="10047" d="M117.64,270.89c-.88-17.22,78.17-35.71,176.62-41.29s178.9,3.81,179.78,21-78.18,35.7-176.57,41.29S118.52,288.08,117.64,270.89Z" class="cls-48"/><path data-cppathid="10048" d="M120.15,270.74c-.88-17,77-35.19,174.09-40.7s176.36,3.76,177.23,20.73S394.4,286,297.41,291.47,121,287.69,120.15,270.74Z" class="cls-49"/><path data-cppathid="10049" d="M122.65,270.6c-.86-16.72,75.94-34.69,171.58-40.11S468,234.2,468.9,250.92s-76,34.67-171.55,40.1S123.5,287.3,122.65,270.6Z" class="cls-50"/><path data-cppathid="10050" d="M125.15,270.46C124.31,254,200,236.28,294.22,230.93s171.25,3.66,172.1,20.13-74.84,34.17-169,39.52S126,286.91,125.15,270.46Z" class="cls-51"/><path data-cppathid="10051" d="M127.65,270.32c-.83-16.24,73.72-33.67,166.56-38.94s168.7,3.6,169.54,19.83S390,284.87,297.23,290.14,128.48,286.53,127.65,270.32Z" class="cls-52"/><path data-cppathid="10052" d="M130.16,270.17c-.82-16,72.6-33.16,164-38.34s166.15,3.54,167,19.52-72.62,33.16-164,38.35S131,286.14,130.16,270.17Z" class="cls-53"/><path data-cppathid="10053" d="M132.66,270c-.81-15.74,71.48-32.65,161.52-37.76s163.61,3.49,164.42,19.23-71.5,32.64-161.48,37.76S133.46,285.75,132.66,270Z" class="cls-54"/><path data-cppathid="10054" d="M135.16,269.89c-.79-15.5,70.37-32.15,159-37.17S455.23,236.15,456,251.65s-70.39,32.13-159,37.16S136,285.37,135.16,269.89Z" class="cls-55"/><path data-cppathid="10055" d="M137.66,269.75c-.78-15.26,69.26-31.64,156.5-36.59s158.51,3.38,159.29,18.63S384.18,283.42,297,288.37,138.44,285,137.66,269.75Z" class="cls-56"/><path data-cppathid="10056" d="M140.17,269.6c-.77-15,68.14-31.12,154-36s156,3.33,156.73,18.33-68.16,31.12-153.94,36S140.93,284.59,140.17,269.6Z" class="cls-57"/><path data-cppathid="10057" d="M142.67,269.46c-.76-14.76,67-30.62,151.46-35.4s153.42,3.27,154.18,18-67.05,30.61-151.43,35.41S143.43,284.2,142.67,269.46Z" class="cls-58"/><path data-cppathid="10058" d="M145.17,269.32c-.74-14.52,65.92-30.11,149-34.82S445,237.72,445.73,252.23s-65.93,30.1-148.9,34.82S145.92,283.82,145.17,269.32Z" class="cls-59"/><path data-cppathid="10059" d="M147.68,269.17c-.74-14.27,64.8-29.59,146.43-34.22s148.31,3.16,149.05,17.43S378.34,282,296.77,286.6,148.41,283.43,147.68,269.17Z" class="cls-60"/><path data-cppathid="10060" d="M150.18,269c-.72-14,63.69-29.09,143.92-33.64s145.76,3.11,146.49,17.13-63.71,29.09-143.88,33.64S150.9,283,150.18,269Z" class="cls-61"/><path data-cppathid="10061" d="M152.68,268.89c-.7-13.78,62.58-28.58,141.4-33s143.22,3,143.93,16.83-62.59,28.57-141.36,33.05S153.39,282.65,152.68,268.89Z" class="cls-62"/><path data-cppathid="10062" d="M155.18,268.75c-.69-13.54,61.47-28.08,138.89-32.46s140.67,3,141.37,16.52S374,280.88,296.59,285.28,155.88,282.27,155.18,268.75Z" class="cls-63"/><path data-cppathid="10063" d="M157.69,268.6C157,255.31,218,241,294.06,236.73s138.12,2.94,138.8,16.23-60.36,27.56-136.32,31.88S158.37,281.88,157.69,268.6Z" class="cls-64"/><path data-cppathid="10064" d="M160.19,268.46c-.67-13,59.24-27,133.86-31.28s135.57,2.89,136.24,15.92S371,280.16,296.48,284.39,160.86,281.49,160.19,268.46Z" class="cls-65"/><path data-cppathid="10065" d="M162.69,268.32c-.65-12.8,58.13-26.55,131.34-30.7s133,2.84,133.69,15.63S369.58,279.8,296.42,284,163.35,281.1,162.69,268.32Z" class="cls-66"/><path data-cppathid="10066" d="M165.19,268.18c-.64-12.56,57-26,128.83-30.11s130.48,2.78,131.12,15.33-57,26-128.78,30.11S165.84,280.72,165.19,268.18Z" class="cls-67"/><path data-cppathid="10067" d="M167.7,268c-.63-12.31,55.9-25.52,126.31-29.51s127.93,2.72,128.56,15-55.91,25.53-126.27,29.53S168.33,280.33,167.7,268Z" class="cls-68"/><path data-cppathid="10068" d="M170.2,267.89c-.62-12.06,54.79-25,123.8-28.93s125.37,2.67,126,14.73-54.8,25-123.75,28.94S170.82,279.94,170.2,267.89Z" class="cls-69"/><path data-cppathid="10069" d="M172.7,267.75c-.6-11.82,53.68-24.51,121.28-28.34S416.81,242,417.42,253.83s-53.68,24.52-121.23,28.35S173.31,279.55,172.7,267.75Z" class="cls-70"/><path data-cppathid="10070" d="M175.21,267.61c-.6-11.58,52.56-24,118.76-27.75S414.25,242.41,414.85,254s-52.57,24-118.72,27.76S175.8,279.17,175.21,267.61Z" class="cls-71"/><path data-cppathid="10071" d="M177.71,267.46C177.13,256.13,229.16,244,294,240.3s117.73,2.5,118.31,13.83-51.45,23.49-116.2,27.17S178.29,278.78,177.71,267.46Z" class="cls-72"/><path data-cppathid="10072" d="M180.21,267.32c-.57-11.08,50.33-23,113.74-26.57s115.18,2.45,115.75,13.52-50.34,23-113.69,26.59S180.78,278.39,180.21,267.32Z" class="cls-73"/><path data-cppathid="10073" d="M182.71,267.18c-.55-10.84,49.22-22.48,111.22-26s112.64,2.4,113.2,13.23S357.9,276.9,296,280.42,183.27,278,182.71,267.18Z" class="cls-74"/><path data-cppathid="10074" d="M185.22,267c-.54-10.59,48.1-22,108.7-25.39S404,244,404.55,254.56s-48.11,22-108.65,25.41S185.76,277.62,185.22,267Z" class="cls-75"/><path data-cppathid="10075" d="M187.72,266.89c-.53-10.34,47-21.45,106.19-24.8S401.45,244.37,402,254.71s-47,21.46-106.14,24.82S188.25,277.23,187.72,266.89Z" class="cls-76"/><path data-cppathid="10076" d="M190.22,266.75c-.51-10.1,45.88-20.95,103.68-24.22s105,2.23,105.51,12.33-45.89,20.95-103.63,24.23S190.74,276.84,190.22,266.75Z" class="cls-77"/><path data-cppathid="10077" d="M192.73,266.61c-.51-9.86,44.76-20.44,101.15-23.63s102.45,2.17,103,12-44.77,20.45-101.11,23.65S193.23,276.45,192.73,266.61Z" class="cls-78"/><path data-cppathid="10078" d="M195.23,266.46c-.49-9.61,43.65-19.93,98.64-23s99.89,2.12,100.39,11.73-43.66,19.94-98.6,23.06S195.72,276.07,195.23,266.46Z" class="cls-79"/><path data-cppathid="10079" d="M197.73,266.32c-.48-9.36,42.54-19.42,96.13-22.45s97.34,2.07,97.82,11.42-42.54,19.43-96.07,22.47S198.21,275.68,197.73,266.32Z" class="cls-80"/><path data-cppathid="10080" d="M200.23,266.18c-.46-9.12,41.43-18.91,93.62-21.86s94.79,2,95.26,11.12-41.43,18.92-93.56,21.88S200.7,275.29,200.23,266.18Z" class="cls-81"/><path data-cppathid="10081" d="M202.74,266c-.46-8.88,40.31-18.41,91.09-21.28s92.25,2,92.71,10.83S346.22,274,295.49,276.88,203.19,274.9,202.74,266Z" class="cls-82"/><path data-cppathid="10082" d="M205.24,265.89c-.44-8.63,39.2-17.89,88.58-20.68s89.7,1.9,90.14,10.52-39.2,17.91-88.53,20.71S205.68,274.52,205.24,265.89Z" class="cls-83"/><path data-cppathid="10083" d="M207.74,265.75c-.43-8.38,38.09-17.38,86.07-20.1s87.15,1.85,87.58,10.23-38.09,17.39-86,20.12S208.17,274.13,207.74,265.75Z" class="cls-84"/><path data-cppathid="10084" d="M210.24,265.61c-.41-8.14,37-16.88,83.56-19.51s84.6,1.79,85,9.92-37,16.89-83.5,19.53S210.66,273.74,210.24,265.61Z" class="cls-85"/><path data-cppathid="10085" d="M212.75,265.47c-.41-7.9,35.86-16.37,81-18.92s82.06,1.73,82.46,9.62-35.86,16.38-81,18.94S213.15,273.35,212.75,265.47Z" class="cls-86"/><path data-cppathid="10086" d="M215.25,265.32c-.39-7.65,34.75-15.86,78.52-18.33s79.51,1.68,79.9,9.33-34.75,15.87-78.47,18.35S215.64,273,215.25,265.32Z" class="cls-87"/><path data-cppathid="10087" d="M217.75,265.18c-.37-7.4,33.64-15.35,76-17.74s77,1.63,77.33,9-33.63,15.37-75.95,17.77S218.13,272.58,217.75,265.18Z" class="cls-88"/><path data-cppathid="10088" d="M220.26,265c-.37-7.16,32.52-14.84,73.49-17.16s74.4,1.58,74.77,8.73S336,271.46,295.08,273.79,220.62,272.19,220.26,265Z" class="cls-89"/><path data-cppathid="10089" d="M222.76,264.9c-.35-6.92,31.41-14.34,71-16.57s71.86,1.52,72.22,8.42S334.54,271.1,295,273.34,223.11,271.8,222.76,264.9Z" class="cls-90"/><path data-cppathid="10090" d="M225.26,264.75c-.34-6.67,30.3-13.82,68.46-16s69.31,1.46,69.65,8.12-30.29,13.84-68.4,16S225.61,271.42,225.26,264.75Z" class="cls-91"/><path data-cppathid="10091" d="M227.76,264.61c-.32-6.42,29.18-13.31,65.95-15.39s66.76,1.41,67.09,7.82-29.18,13.34-65.89,15.42S228.1,271,227.76,264.61Z" class="cls-92"/><path data-cppathid="10092" d="M230.27,264.47c-.32-6.18,28.06-12.81,63.43-14.8s64.21,1.35,64.53,7.52S330.16,270,294.85,272,230.59,270.64,230.27,264.47Z" class="cls-93"/><path data-cppathid="10093" d="M232.77,264.32c-.3-5.93,27-12.29,60.91-14.21s61.67,1.3,62,7.23-26.95,12.31-60.86,14.24S233.08,270.25,232.77,264.32Z" class="cls-94"/><path data-cppathid="10094" d="M235.27,264.18c-.29-5.68,25.84-11.79,58.4-13.62s59.12,1.24,59.41,6.92-25.84,11.81-58.34,13.65S235.57,269.87,235.27,264.18Z" class="cls-95"/><path data-cppathid="10095" d="M237.77,264c-.27-5.44,24.73-11.28,55.89-13s56.57,1.19,56.84,6.62-24.72,11.3-55.82,13.06S238.06,269.48,237.77,264Z" class="cls-96"/><path data-cppathid="10096" d="M240.28,263.9c-.27-5.2,23.61-10.77,53.37-12.45s54,1.14,54.28,6.32-23.61,10.8-53.31,12.48S240.55,269.09,240.28,263.9Z" class="cls-97"/><path data-cppathid="10097" d="M242.78,263.75c-.25-4.95,22.5-10.26,50.85-11.85s51.47,1.08,51.73,6-22.5,10.28-50.8,11.89S243,268.7,242.78,263.75Z" class="cls-98"/><path data-cppathid="10098" d="M245.28,263.61c-.23-4.7,21.39-9.75,48.34-11.26s48.92,1,49.16,5.72-21.38,9.77-48.28,11.3S245.53,268.32,245.28,263.61Z" class="cls-99"/><path data-cppathid="10099" d="M247.79,263.47c-.23-4.46,20.27-9.24,45.82-10.68s46.37,1,46.6,5.42-20.27,9.27-45.77,10.71S248,267.93,247.79,263.47Z" class="cls-100"/><path data-cppathid="10100" d="M250.29,263.33c-.21-4.22,19.16-8.74,43.31-10.09s43.82.91,44,5.12-19.17,8.76-43.25,10.12S250.51,267.54,250.29,263.33Z" class="cls-101"/><path data-cppathid="10101" d="M252.79,263.18c-.2-4,18-8.22,40.79-9.5s41.28.86,41.48,4.82S317,266.75,294.33,268,253,267.16,252.79,263.18Z" class="cls-102"/></g><path data-cppathid="10102" d="M103.47,0H487.09A10.41,10.41,0,0,1,497.5,10.41V257.27a10.41,10.41,0,0,1-10.41,10.41H103.47a10.41,10.41,0,0,1-10.41-10.41V10.42A10.42,10.42,0,0,1,103.47,0Z" class="cls-103"/><path data-cppathid="10103" d="M496.92,73.8a12.39,12.39,0,0,1-12.39,12.38H106A12.38,12.38,0,0,1,93.64,73.8V12.38A12.38,12.38,0,0,1,106,0H484.53a12.39,12.39,0,0,1,12.39,12.38Z" class="cls-104"/><text data-cppathid="10104" transform="translate(115.08 130.03)" class="cls-105">教<tspan data-cppathid="10105" y="0" x="24.56" class="cls-106">師</tspan><tspan data-cppathid="10106" y="0" x="47.15" class="cls-107">と</tspan><tspan data-cppathid="10107" y="0" x="67.29" class="cls-108">し</tspan><tspan data-cppathid="10108" y="0" x="89.14" class="cls-109">て</tspan><tspan data-cppathid="10109" y="0" x="111.24" class="cls-110">、</tspan><tspan data-cppathid="10110" y="0" x="124.01">生徒の成</tspan><tspan data-cppathid="10111" y="0" x="222.24" class="cls-111">績</tspan><tspan data-cppathid="10112" y="0" x="246.31" class="cls-112">を</tspan><tspan data-cppathid="10113" y="0" x="269.88" class="cls-106">オ</tspan><tspan data-cppathid="10114" y="0" x="292.48" class="cls-113">ン</tspan><tspan data-cppathid="10115" y="0" x="315.32" class="cls-114">ラ</tspan><tspan data-cppathid="10116" y="29.47" x="-0.49" class="cls-109">イ</tspan><tspan data-cppathid="10117" y="29.47" x="21.61" class="cls-115">ン</tspan><tspan data-cppathid="10118" y="29.47" x="44.94">で更</tspan><tspan data-cppathid="10119" y="29.47" x="94.05" class="cls-116">新</tspan><tspan data-cppathid="10120" y="29.47" x="117.87" class="cls-117">で</tspan><tspan data-cppathid="10121" y="29.47" x="141.94" class="cls-118">き</tspan><tspan data-cppathid="10122" y="29.47" x="163.8" class="cls-119">る</tspan><tspan data-cppathid="10123" y="29.47" x="187.37" class="cls-116">ので</tspan><tspan data-cppathid="10124" y="29.47" x="235.01" class="cls-120">、</tspan><tspan data-cppathid="10125" y="29.47" x="247.05" class="cls-121">も</tspan><tspan data-cppathid="10126" y="29.47" x="267.67" class="cls-122">う</tspan><tspan data-cppathid="10127" y="29.47" x="290.02">管理</tspan><tspan data-cppathid="10128" y="58.94" x="0">者</tspan><tspan data-cppathid="10129" y="58.94" x="24.56" class="cls-123">に</tspan><tspan data-cppathid="10130" y="58.94" x="48.87" class="cls-113">頼</tspan><tspan data-cppathid="10131" y="58.94" x="71.71" class="cls-124">ら</tspan><tspan data-cppathid="10132" y="58.94" x="94.79" class="cls-106">な</tspan><tspan data-cppathid="10133" y="58.94" x="117.38" class="cls-125">く</tspan><tspan data-cppathid="10134" y="58.94" x="136.78" class="cls-119">て</tspan><tspan data-cppathid="10135" y="58.94" x="160.36">済</tspan><tspan data-cppathid="10136" y="58.94" x="184.92" class="cls-126">みま</tspan><tspan data-cppathid="10137" y="58.94" x="232.07" class="cls-127">す</tspan><tspan data-cppathid="10138" y="58.94" x="253.92" class="cls-128">。</tspan></text><text data-cppathid="10139" transform="translate(112.82 54.46)" class="cls-129">今学期の成<tspan data-cppathid="10140" y="0" x="140.89" class="cls-130">績を</tspan><tspan data-cppathid="10141" y="0" x="196.12" class="cls-131">見</tspan><tspan data-cppathid="10142" y="0" x="222.61" class="cls-132">る</tspan></text></g></g></g></svg>