<?xml version="1.0" encoding="UTF-8"?>
<svg xmlns="http://www.w3.org/2000/svg" onmouseup="{ if(window.parent.document.onmouseup) window.parent.document.onmouseup(arguments[0]);}" viewBox="0 0 1082.46 482.16" xmlns:xlink="http://www.w3.org/1999/xlink"><defs><style>.cls-1,.cls-44,.cls-45{fill:none;}.cls-2{isolation:isolate;}.cls-3{fill:#d7d7d7;}.cls-4{fill:#f28f20;stroke:#f28f20;stroke-width:0.61px;}.cls-14,.cls-5,.cls-64,.cls-66,.cls-70{fill:#fff;}.cls-5{stroke:#221f1f;stroke-miterlimit:10;}.cls-6{clip-path:url(#clip-path);}.cls-7{fill:#d3e2f3;}.cls-8{clip-path:url(#clip-path-2);}.cls-9{fill:#231f20;}.cls-10{fill:#fcc488;}.cls-11,.cls-52,.cls-74{fill:#c8c8c8;}.cls-11,.cls-12,.cls-52,.cls-53,.cls-56,.cls-74{stroke:#c8c8c8;}.cls-12,.cls-53,.cls-57{fill:#e2e2e2;}.cls-13,.cls-33,.cls-45,.cls-75{stroke:#000;}.cls-13{stroke-width:0.59px;}.cls-15{fill:#242551;}.cls-16{fill:#7b3c7c;}.cls-17{fill:#9e549d;}.cls-18{fill:#9d7149;}.cls-19{clip-path:url(#clip-path-3);}.cls-20{fill:#c1976c;}.cls-21{fill:#bf278b;}.cls-22{fill:#ec2024;}.cls-23{fill:#3ab14a;}.cls-24{fill:#f7e91d;}.cls-25,.cls-59{fill:#2d358b;}.cls-26{fill:#9c1c25;}.cls-27{fill:#7f1426;}.cls-28{fill:#6780a2;}.cls-29{fill:#b92025;}.cls-30{fill:#610a24;}.cls-31{fill:#eca160;}.cls-32{fill:#eed214;}.cls-33{stroke-width:0.64px;}.cls-34{fill:#f07322;}.cls-35{fill:#eba05e;}.cls-36{fill:#5b462e;}.cls-37{fill:#5e4830;}.cls-38{fill:#513e29;}.cls-39{fill:#5d472f;}.cls-40{fill:#5c462e;}.cls-41{fill:url(#linear-gradient);}.cls-42{fill:#dcece9;}.cls-43{fill:#90a39f;}.cls-44{stroke:#dcece9;stroke-width:0.3px;}.cls-45{stroke-linecap:round;stroke-linejoin:round;stroke-width:0.5px;stroke-dasharray:1.32;opacity:0.35;}.cls-45,.cls-58{mix-blend-mode:multiply;}.cls-46{clip-path:url(#clip-path-4);}.cls-47{clip-path:url(#clip-path-5);}.cls-48{clip-path:url(#clip-path-6);}.cls-49{clip-path:url(#clip-path-7);}.cls-50{fill:#fcc58a;}.cls-51{fill:#e34445;}.cls-52{stroke-width:2.02px;}.cls-53,.cls-56{stroke-width:0.98px;}.cls-54{fill:#4d4e4e;}.cls-55{fill:#d12027;stroke:#ab3124;stroke-width:1.17px;}.cls-56,.cls-79{fill:#efeeee;}.cls-58{opacity:0.25;}.cls-59{stroke:#2d358b;stroke-width:2.05px;}.cls-60{fill:#2b2b6b;}.cls-61{clip-path:url(#clip-path-8);}.cls-62{fill:#fde885;}.cls-63{fill:#eacf60;}.cls-64{opacity:0.87;mix-blend-mode:overlay;}.cls-65{fill:#ab3124;}.cls-66{opacity:0.79;}.cls-67{fill:#f8f2dc;}.cls-68{clip-path:url(#clip-path-9);}.cls-69{clip-path:url(#clip-path-10);}.cls-70{stroke:#afafb0;stroke-width:2px;}.cls-71{fill:#a27c52;}.cls-72{fill:#6ab8e6;}.cls-73,.cls-78{fill:#272361;stroke:#272361;}.cls-73{stroke-width:0.25px;}.cls-74{stroke-width:0.26px;}.cls-75{stroke-width:0.84px;}.cls-76{fill:#a16c29;}.cls-77{fill:#f6ac3c;}.cls-78{stroke-width:0.23px;}.cls-79{opacity:0.4;}.cls-80{fill:gray;}</style><clipPath id="clip-path"><rect data-cppathid="10000" height="99.66" width="59.89" y="198.07" x="443.83" class="cls-1"/></clipPath><clipPath id="clip-path-2"><rect data-cppathid="10001" height="99.82" width="59.89" y="198.07" x="443.83" class="cls-1"/></clipPath><clipPath id="clip-path-3"><polygon data-cppathid="10002" points="435.19 382.25 366.25 359.7 392.89 341.04 461.83 363.59 435.19 382.25" class="cls-1"/></clipPath><linearGradient gradientUnits="userSpaceOnUse" gradientTransform="translate(-211.95 428.45) rotate(1.39)" y2="-118.62" x2="354.63" y1="-79.33" x1="344.28" id="linear-gradient"><stop stop-color="#abbeba" offset="0"/><stop stop-color="#b8cac6" offset="0.04"/><stop stop-color="#c3d6d2" offset="0.11"/><stop stop-color="#cadcd8" offset="0.2"/><stop stop-color="#ccdeda" offset="0.46"/><stop stop-color="#c9dbd7" offset="0.66"/><stop stop-color="#bfd1cd" offset="0.83"/><stop stop-color="#aec1bd" offset="0.98"/><stop stop-color="#abbeba" offset="1"/></linearGradient><clipPath id="clip-path-4"><rect data-cppathid="10003" height="99.66" width="59.89" y="150.36" x="195.64" class="cls-1" id="SVGID"/></clipPath><clipPath id="clip-path-5"><rect data-cppathid="10004" height="99.82" width="59.89" y="150.36" x="195.64" class="cls-1" data-name="SVGID" id="SVGID-2"/></clipPath><clipPath id="clip-path-6"><rect data-cppathid="10005" height="99.66" width="59.89" y="173.79" x="785.82" class="cls-1" data-name="SVGID" id="SVGID-3"/></clipPath><clipPath id="clip-path-7"><rect data-cppathid="10006" height="99.82" width="59.89" y="173.79" x="785.82" class="cls-1" data-name="SVGID" id="SVGID-4"/></clipPath><clipPath id="clip-path-8"><path data-cppathid="10007" d="M848,305c-.64,5.87,19.52,12.87,45,15.63s46.68.25,47.32-5.63-19.52-12.88-45-15.63S848.64,299.09,848,305Z" class="cls-1"/></clipPath><clipPath id="clip-path-9"><rect data-cppathid="10008" height="99.66" width="59.89" y="142.47" x="565.96" class="cls-1" data-name="SVGID" id="SVGID-5"/></clipPath><clipPath id="clip-path-10"><rect data-cppathid="10009" height="99.82" width="59.89" y="142.47" x="565.96" class="cls-1" data-name="SVGID" id="SVGID-6"/></clipPath></defs><g class="cls-2"><g data-name="Layer 2" id="Layer_2"><g data-name="estimation cards" id="estimation_cards"><g data-name="team estimate agree" id="team_estimate_agree"><g data-name="Allyson estimating" id="Allyson_estimating"><path data-cppathid="10010" d="M261.64,456c-.19,8.09,43.27,15.7,97.08,17s97.59-4.19,97.78-12.28-43.26-15.7-97.07-17S261.84,447.93,261.64,456Z" class="cls-3"/><path data-cppathid="10011" d="M384.57,196.52s-3.89,8.77,7.82,12c0,0-2.51,10.11,10.16,9.82,0,0-.16,11.3,10.87,8.45,0,0,4,10.57,16.25,2.65,0,0,11.57.27,16-8.09,0,0,13.24-6,16.11,1,0,0-1.61-13.47-5.05-15.47,0,0-9.81,8-11.61,12,0,0-14.05-3.77-16.56,6.33,0,0-8-6.16-13.08-1.87,0,0-2.45-10.33-10.32-8,0,0,.17-10-7.4-9.85,0,0,2.92-9.3-3.13-12.36C394.65,193.13,380.54,187.69,384.57,196.52Z" class="cls-4"/><rect data-cppathid="10012" rx="2" height="97.08" width="75.21" y="198.7" x="437.87" class="cls-5" id="card"/><g data-name="Small estimate" id="Small_estimate"><g class="cls-6"><path data-cppathid="10013" d="M487.93,201.22a36.42,36.42,0,0,0-24.8,9.07q-10.36,9.06-10.37,21.61,0,10.4,6.87,20.79,4.29,6.57,4.3,8.52a6,6,0,0,1-2.68,5,10.93,10.93,0,0,1-6.68,2,16.24,16.24,0,0,1-7.53-2.27c-.08,0-3.13-1.88-3.22-1.92v26.39l3.19,1.15a38.62,38.62,0,0,0,14.43,2.84q15.39,0,26.07-9t10.68-21.9q0-8.84-6.34-18.32l-2.34-3.51c-1.81-2.73-2.72-5-2.72-6.76a6.87,6.87,0,0,1,2.49-5.33,8.7,8.7,0,0,1,6-2.21,19.1,19.1,0,0,1,4.88.9c.08,0,3.51,1.38,3.59,1.4V204l-3.34-1a43.57,43.57,0,0,0-12.45-1.82" class="cls-7"/></g><g class="cls-8"><path data-cppathid="10014" d="M484.27,249.86a9.79,9.79,0,0,0-4.55-2.75c-1.05-.34-2-.6-2.94-.8l-2.84-.59a9,9,0,0,1-3.07-1,1.87,1.87,0,0,1-.81-1.63,1.85,1.85,0,0,1,.5-1.26,3.14,3.14,0,0,1,1.21-.82,6.7,6.7,0,0,1,1.65-.44,12.58,12.58,0,0,1,1.73-.12,13.59,13.59,0,0,1,4.81.88,14.06,14.06,0,0,1,4,2.17h.74v-6.19a24,24,0,0,0-4.49-1.29,27,27,0,0,0-5.24-.52,14.72,14.72,0,0,0-8.66,2.38,7.2,7.2,0,0,0-3.36,6.13,7.29,7.29,0,0,0,1.49,4.68,9.89,9.89,0,0,0,4.88,3,25.3,25.3,0,0,0,3.17.8c1.12.21,2.19.44,3.2.68a5.37,5.37,0,0,1,2.2,1,2,2,0,0,1,.74,1.53,1.89,1.89,0,0,1-.51,1.44,4.13,4.13,0,0,1-1.31.82,7.36,7.36,0,0,1-1.68.36c-.68.07-1.24.1-1.66.1a15.5,15.5,0,0,1-5.12-.92,16.07,16.07,0,0,1-4.81-2.63h-.76v6.44a29.42,29.42,0,0,0,4.65,1.49,25.66,25.66,0,0,0,5.83.59c3.85,0,6.89-.83,9.14-2.48a7.7,7.7,0,0,0,3.37-6.46,6.78,6.78,0,0,0-1.48-4.52" class="cls-9"/><path data-cppathid="10015" d="M454.25,210.81h-2.9l.57-.42c.27-.21.53-.43.79-.67a4.87,4.87,0,0,0,.94-1.14,2.36,2.36,0,0,0,.3-1.16,1.75,1.75,0,0,0-.63-1.44,2.91,2.91,0,0,0-1.85-.51,5.55,5.55,0,0,0-1.21.14,4.4,4.4,0,0,0-.9.26v1.44h.14a3.88,3.88,0,0,1,.81-.42,2.42,2.42,0,0,1,.84-.17,1.23,1.23,0,0,1,.82.24.85.85,0,0,1,.28.69,1.43,1.43,0,0,1-.22.74,4.7,4.7,0,0,1-.75.89q-.34.33-.93.81c-.39.31-.78.61-1.16.89v1.07h5.06" class="cls-9"/><path data-cppathid="10016" d="M492.4,286h2.9l-.57.42c-.27.21-.53.43-.8.67a4.81,4.81,0,0,0-.93,1.14,2.36,2.36,0,0,0-.3,1.16,1.75,1.75,0,0,0,.63,1.44,2.91,2.91,0,0,0,1.85.51,5.46,5.46,0,0,0,1.2-.14,5.17,5.17,0,0,0,.91-.27V289.5h-.14a3.88,3.88,0,0,1-.81.42,2.46,2.46,0,0,1-.84.17,1.18,1.18,0,0,1-.82-.25.83.83,0,0,1-.28-.68,1.43,1.43,0,0,1,.22-.74,5,5,0,0,1,.74-.89c.24-.22.55-.5.94-.81s.77-.61,1.16-.89v-1.07H492.4" class="cls-9"/></g></g><path data-cppathid="10017" d="M421.67,235s-19.15-75.39-60.22-74-54.74,43.5-47.9,82.64c1.83,10.47,3.51,26,5,43.09,4,46.86,20.54,46.7,20.54,46.7l67.36-2.68L402.23,286l1.65-11.87s6.43-25.87,7.8-28.76-21.87,10.21-42-.29c-23.05-12-16.44-18.8-16.44-18.8s21,11.79,37.44,11.79A168.14,168.14,0,0,0,421.67,235Z" class="cls-10"/><path data-cppathid="10018" d="M426.62,291.17s.72-9.28,7.3-13.08,7.19-9.38,8.36-11.44,9.72,2.34.86,14-.68,15.93-.68,15.93l9.65-.81s-10.28,9.29-15.37,8.46-12.3,11.43-18.8,14.43-24.85-10.81-24.76-11.61,14.92-4.46,14.92-4.46Z" class="cls-10"/><path data-cppathid="10019" d="M284.77,308.15l-.34,0-.35,0,.35,0Z" class="cls-10"/><path data-cppathid="10020" d="M427.25,399.42s-22-8.46-38.18-8.45,6.46-54.45,6.46-54.45l21.39-.67Z" class="cls-11"/><path data-cppathid="10021" d="M425.1,289.59s4.49,15.5,9.33,16.59c-8,8.57-17,17.5-17,17.5L408.64,310l3.6-12Z" class="cls-12"/><path data-cppathid="10022" d="M376.59,200.11c-.08,3.47-1.71,6.24-3.63,6.19s-3.41-2.89-3.33-6.35,1.72-6.24,3.63-6.19S376.68,196.66,376.59,200.11Z" class="cls-13"/><path data-cppathid="10023" d="M391.41,197.61c-.07,2.86-1.41,5.13-3,5.09s-2.81-2.37-2.75-5.23,1.42-5.12,3-5.08S391.47,194.76,391.41,197.61Z" class="cls-13"/><path data-cppathid="10024" d="M372.14,197.06a1.74,1.74,0,1,1-1.7-1.89A1.79,1.79,0,0,1,372.14,197.06Z" class="cls-14"/><path data-cppathid="10025" d="M388.32,195.43a1.74,1.74,0,1,1-1.58-2A1.78,1.78,0,0,1,388.32,195.43Z" class="cls-14"/><path data-cppathid="10026" d="M418.18,345.62s-5.7,30.23-28.88,32.88c-15.1,1.73-44.51-.71-48.68,4-5.85,6.62-24.86-28.59-24.86-28.59s77.59-32.1,95.95-18.41" class="cls-15"/><path data-cppathid="10027" d="M404.91,370l-7,79.25s9.33,3,13.07,9.49C396.34,461.88,376.7,453,376.7,453s-2.31-73.76-3.92-82.25S404.91,370,404.91,370Z" class="cls-15"/><path data-cppathid="10028" d="M365.1,366.72l-5.36,86.53c6.63,4.31,9,4.57,12.26,13-21.74,5.31-36.07-9.65-36.07-9.65s-2.47-84.7-3.62-87.21,31-3.87,31-3.87" class="cls-15"/><path data-cppathid="10029" d="M316.78,272.69c90.71,20,90.4.91,90.4.91S422,333,418.5,346.5c-19.39-3.19-103.81,9.56-103.81,9.56S314.77,286.16,316.78,272.69Z" class="cls-16"/><path data-cppathid="10030" d="M372.48,166.45s-12.49,30-50.73,50.06c0,0,7.27,6.24-1.89,14.21,0,0,6.61,8.05-5,13.24,0,0,5,10.14-6.17,12.29,0,0-.12,6.78-14.61,4.91,0,0-10.34,5.21-17.94-.44,0,0-14.56.25-14.12,7.85,0,0-4.33-12.85-2.08-16.13,0,0,12.3,3,15.64,5.84,0,0,11.06-9.44,17.67-1.39,0,0,5.63-4.52,12.09-2.84-2.57-12-2.53-10.33,5.85-11.7,0,0-4.43-8.9,2.46-12.08,0,0-6.64-7.14-2.48-12.5-7.66-2.59-7.8-13.61,1.06-30.93,13.64-26.68,38.16-29.73,42.16-28.73s28.59-17.82,45.92,20.55C391,183,372.48,166.45,372.48,166.45Z" class="cls-4"/><path data-cppathid="10031" d="M332.07,149c5.58-2.87,14.06-12.43,36.91-12.74,8.68-.11,20.46,1.38,27.59,6.77,7.75,5.87,10.74,18.11,1.54,24.16-17.17,11.28-41.16-.23-59.61,9.62-9.81,5.24-13.81,16.32-25.44,17.48-9.92,1-18.75-7.67-20-18-1.89-15.43,25.57-28,39-27.3" class="cls-13"/><polygon data-cppathid="10032" points="322.61 140.63 328.08 135.13 331.92 148.28 322.61 140.63" class="cls-13"/><path data-cppathid="10033" d="M315.59,254.64c-3.3,1.55-.16,6.72.17,9.5s-4.13,7-2.61,9.83S367,290.71,392,287s18.47-11,18.12-13,3.74-7,2.2-9.05-9.59,4.21-19.1,4.28C355.21,269.45,319.59,252.76,315.59,254.64Z" class="cls-17"/><path data-cppathid="10034" d="M373.22,277.4s13.83,82.26,11.14,128.1c0,0-68.87,4.46-86-12.87,0,0,14.77-53.76,14.27-66s.49-52.62.49-52.62Z" class="cls-12"/><polygon data-cppathid="10035" points="311.09 260.86 306.7 278.56 364.08 294.99 373.21 277.4 311.09 260.86" class="cls-12"/><path data-cppathid="10036" d="M402.58,276.93s15,98.91,11.55,127.71l16.69-2.76s-12.75-111.12-17.31-118.75S402.58,276.93,402.58,276.93Z" class="cls-12"/><polygon data-cppathid="10037" points="400.14 276.87 409.25 292.92 422.17 282.55 414.13 271.27 400.14 276.87" class="cls-12"/><path data-cppathid="10038" d="M383.89,373.19a24.72,24.72,0,0,0,5-5.91c1.83-3.27-10.06-10.76-10.2-4.92S383.89,373.19,383.89,373.19Z" class="cls-16"/><path data-cppathid="10039" d="M339.85,294.44c1,3.31,9.34,32.36,9.56,39.37s25.34,14.63,36.24,23.27c0,0,9.83-4.24,13.88-2.78s4.53-1.64,6.86-1.59,4.53,5.76-2.11,6.77a20.65,20.65,0,0,0,11.2,3.78c7,.36,3.21,4.16.67,4.29,0,0,1.11,2.76-4,3a9.65,9.65,0,0,1-7.82,1s-13.06.85-20-2.05c-3.43-1.43-47.07-10.1-50-16.21s-13.9-45.3-12-51.88S336.61,283.46,339.85,294.44Z" class="cls-10"/><path data-cppathid="10040" d="M331.52,286.84s-13.43,2.82-11.76,16.23,8.73,51.11,12.44,54.14,52.42,17,52.42,17-6.64-13.91,1.64-18.62c-9-7.1-30.68-17.25-33.43-18.9S345.16,283.05,331.52,286.84Z" class="cls-12"/><path data-cppathid="10041" d="M410.06,359.49c-1.42.94-4.42,1.05-6.72.24s-3-2.24-1.59-3.18,4.43-1.05,6.73-.23,3,2.22,1.58,3.17m-36.7-4.44c-.11,1.13,0,1-.1,1.7a2.62,2.62,0,0,0,1.19,2.32c14.94,12.55,58.84,26.27,73.39,16.59.21-.13.42-.28.62-.43,2-1.54,3.06-3.06,3.31-4.55.16-1.08.64-2.11.07-3.15-4-7.32-25.45-13.54-34.63-16.64a62.41,62.41,0,0,0-19.57-2.82s0,1.43,0,1.64a.93.93,0,0,0,.42.85c2,1.82,2.1,3.08,1,3.82-1.95,1.3-7.51,1-12.53-.51-4.56-1.42-9.36-.69-11.73.89" class="cls-18"/><g class="cls-2"><g class="cls-19"><path data-cppathid="10042" d="M443.62,372.43c-1.11.78-3.52.26-5.46-.19-2.59-.62-2.33-1.42-1.05-2.31l.05,0a.62.62,0,0,1,.19-.07c1.45-.68,4.46-1.8,6.62-.91a1,1,0,0,1,.72,1.44,7.1,7.1,0,0,1-.7,1.7,1.22,1.22,0,0,1-.37.38m-11.05-9.57a.88.88,0,0,1,.25-.26,4,4,0,0,1,2.25-.35,1,1,0,0,1,.47-1.06,2.67,2.67,0,0,1,1-.38,5.9,5.9,0,0,1,3.69.5,18.19,18.19,0,0,0,2.23,1.31,4.2,4.2,0,0,1,1.42.78c.65.74,1,1.5.34,2.2a1.29,1.29,0,0,1-.21.19,5.83,5.83,0,0,1-3.55.4c-2-.21-2.18-1.38-4.23-1.61a14.46,14.46,0,0,1-3.68-.59c-.79-.36-.52-.76-.05-1.09l.06,0m-9.47,10-.16.09-.36.14a.52.52,0,0,1-.41,0c-1.34,0-2.87.13-3.36-.64s-1.39-.67-2.76-.77c-2.16-.14-.81-1.58-.37-2l.19-.17a.42.42,0,0,1,.28-.09c.14-.12.31-.25.49-.38a3.23,3.23,0,0,1,2.77-.68c1,.33,1.12.7,1.06,1.18s2.52.25,3.42.51c1.43.4,1.35,1.45.49,2a2.69,2.69,0,0,1-.91.39,1.22,1.22,0,0,1-.37.42M419.61,356h0c-.45-.58-.34-1,.11-1.34,1-.74,4-.79,6.4-.33a4.83,4.83,0,0,1,2.22.78c.55.58.36,1.2,1.75,1.7,1.6.58,2.75,1.4,2.14,2.18a2.1,2.1,0,0,1-.34.32,5.83,5.83,0,0,1-3.5.59,3,3,0,0,1-2.51-1.42c-.94-1.2-3.76,0-5.74-.71-1.43-.49-1.09-1.24-.61-1.72l.08,0m-2.32-2.52a3.14,3.14,0,0,1-3-.28c-.08-.05-.11-.1-.11-.15a1.29,1.29,0,0,1-.46-.32c-.22-.26-.18-.47.05-.63a3,3,0,0,1,1.4-.32c.38,0,.71.14.72.31a.24.24,0,0,0,.09.15,2.69,2.69,0,0,1,1.44.48.43.43,0,0,1-.07.73l0,0m-6.81,14.47a9.88,9.88,0,0,1-2,1,7.57,7.57,0,0,1-5.16.27c-3.14-1.31-8.87-1.39-7.13-3.74-.26,0-.53-.08-.6-.23a1.31,1.31,0,0,1,.37-1.77,2.61,2.61,0,0,1,1.36-.41,7.62,7.62,0,0,1,2.82.2c2.17.56,2.69-.19,4.34-.23s3.42.55,3.54,1.39-.65,1.71,1.59,2.13a3.31,3.31,0,0,1,1.23.37c.42.33.17.71-.32,1.05m-.13-10.16a.18.18,0,0,1-.07.05c-1.44,1-4.46,1.11-6.74.32s-2.93-2.14-1.56-3.09a.18.18,0,0,1,.07-.05c1.44-1,4.46-1.1,6.73-.32s2.94,2.14,1.57,3.09m-35.48-4.11c-1.66,1.16-2.08,2.72-.31,4.21,14.73,12.4,58.89,25.6,73.48,15.38l.33-.24c14.24-10.66-18.46-19.88-30.66-23.85-9.43-3.07-17.29-2.8-19.2-1.47-.55.39-.6.87,0,1.39,2,1.75,2,3,.95,3.76-1.95,1.36-7.58,1.19-12.61-.31-4.64-1.38-9.57-.54-11.95,1.13" class="cls-20"/><path data-cppathid="10043" d="M395.92,363.43a1.31,1.31,0,0,0-.37,1.77c.07.15.34.22.6.23-1.74,2.35,4,2.43,7.13,3.74a7.57,7.57,0,0,0,5.16-.27,9.88,9.88,0,0,0,2-1c.49-.34.74-.72.32-1.05a3.31,3.31,0,0,0-1.23-.37c-2.24-.42-1.47-1.33-1.59-2.13s-1.87-1.43-3.54-1.39-2.17.79-4.34.23a7.62,7.62,0,0,0-2.82-.2,2.61,2.61,0,0,0-1.36.41" class="cls-21"/><path data-cppathid="10044" d="M419.72,354.63c-.45.32-.56.76-.11,1.34h0l-.08,0c-.48.48-.82,1.23.61,1.72,2,.67,4.8-.49,5.74.71a3,3,0,0,0,2.51,1.42,5.83,5.83,0,0,0,3.5-.59,2.1,2.1,0,0,0,.34-.32c.61-.78-.54-1.6-2.14-2.18-1.39-.5-1.2-1.12-1.75-1.7a4.83,4.83,0,0,0-2.22-.78c-2.4-.46-5.35-.41-6.4.33" class="cls-22"/><path data-cppathid="10045" d="M413.74,352.08c-.23.16-.27.37-.05.63a1.29,1.29,0,0,0,.46.32c0,.05,0,.1.11.15a3.14,3.14,0,0,0,3,.28l0,0a.43.43,0,0,0,.07-.73,2.69,2.69,0,0,0-1.44-.48.24.24,0,0,1-.09-.15c0-.17-.34-.33-.72-.31a3,3,0,0,0-1.4.32" class="cls-22"/><path data-cppathid="10046" d="M432.82,362.6a.88.88,0,0,0-.25.26l-.06,0c-.47.33-.74.73.05,1.09a14.46,14.46,0,0,0,3.68.59c2.05.23,2.28,1.4,4.23,1.61a5.83,5.83,0,0,0,3.55-.4,1.29,1.29,0,0,0,.21-.19c.64-.7.31-1.46-.34-2.2a4.2,4.2,0,0,0-1.42-.78,18.19,18.19,0,0,1-2.23-1.31,5.9,5.9,0,0,0-3.69-.5,2.67,2.67,0,0,0-1,.38,1,1,0,0,0-.47,1.06,4,4,0,0,0-2.25.35" class="cls-23"/><path data-cppathid="10047" d="M437.11,369.93c-1.28.89-1.54,1.69,1.05,2.31,1.94.45,4.35,1,5.46.19a1.22,1.22,0,0,0,.37-.38,7.1,7.1,0,0,0,.7-1.7,1,1,0,0,0-.72-1.44c-2.16-.89-5.17.23-6.62.91a.62.62,0,0,0-.19.07l-.05,0" class="cls-24"/><path data-cppathid="10048" d="M415.87,369.43l-.19.17c-.44.44-1.79,1.88.37,2,1.37.1,2.27,0,2.76.77s2,.66,3.36.64a.52.52,0,0,0,.41,0l.36-.14.16-.09a1.22,1.22,0,0,0,.37-.42,2.69,2.69,0,0,0,.91-.39c.86-.6.94-1.65-.49-2-.9-.26-3.52.1-3.42-.51s-.1-.85-1.06-1.18a3.23,3.23,0,0,0-2.77.68c-.18.13-.35.26-.49.38a.42.42,0,0,0-.28.09" class="cls-25"/></g></g><path data-cppathid="10049" d="M404.44,355.28c.92-1.31,2.88-8.68,5.38-7.59s4.23,8.86.48,10.7-6.34-1.64-6.34-1.64Z" class="cls-10"/><path data-cppathid="10050" d="M380,316.1c-.8-5.18-.72-10.37-1.86-15.53-.15-.72-1.48-.59-2.06-.08-3.22-1.69-5.87-1.54-8,1.74-.94,1.48-1.47,2.86-3.12,3.8a2.45,2.45,0,0,0-1,1.24c-.51,2.7,1.22,4.11,2.71,6.07-1.65.41-3.37,1-3.91,2.67-.61,1.85,4.06,3.77,5,4.26s4.87,1.58,4.24,3a3.41,3.41,0,0,0,.26,2.79c1.71,2.42,4.15,3.26,7,3.28.47,0,1.2-.31,1.3-.83C381.45,324.25,380.67,320.36,380,316.1Z" class="cls-21"/><path data-cppathid="10051" d="M319.91,359.38c-3.67-3.59.52-5.92-.83-9.38s-4.2-4.45-7.19-6.45c-.77-.51-2.23.28-1.86,1a.73.73,0,0,0-.17.38c-1.22,12.69-7,24.2-9.38,36.65-.14.75.72.93,1.27.91,5.42-.19,9.12,2.71,10.68-4.31,1.51-6.79,10.77-1.45,13.59-7C328.47,366.36,322.78,362.19,319.91,359.38Z" class="cls-21"/><path data-cppathid="10052" d="M334.18,373.88c-1.71-.58-5.05-.74-4.88,1.88a7.7,7.7,0,0,0,3.07,4.95c1.7,1.2,4.89.47,5.3-1.74S336.25,374.47,334.18,373.88Z" class="cls-21"/><path data-cppathid="10053" d="M352.44,332.79c-1.83-8.37-3.06-16.9-5.72-25.07-.23-.71-1.48-.6-2.05-.12-7.44-.32-5.05,8.7-3.35,13.17a12.82,12.82,0,0,0,1.83,3.27c2.07,2.76.58,5.56,1.35,8.6s4.88,1.57,7,1.16C351.89,333.71,352.56,333.32,352.44,332.79Z" class="cls-21"/><path data-cppathid="10054" d="M419.94,318.9c-.82-5.95-2.2-13.33-1.79-15.55.1-.58-.4-.81-1-.79a1.09,1.09,0,0,0-1.49-.29c-2.38,1.29-3.38,2.89-3.61,4.66-.83,2.23-1.28,4.41-.19,6.65a12,12,0,0,0,1.53,2.31,5,5,0,0,0,.26,3.54,2.34,2.34,0,0,0,2.07.85,7.89,7.89,0,0,1,0,3c-.1.43.38.76.75.8C419.07,324.27,420.36,322,419.94,318.9ZM416.05,308c0,.49.1,1,.15,1.52a.67.67,0,0,0-.15.06,16.35,16.35,0,0,1-.21-2.78C415.89,307.22,416,307.62,416.05,308Z" class="cls-21"/><path data-cppathid="10055" d="M399.32,145.13a18.73,18.73,0,0,0-2.54-2.33c-7.37-5.59-18.91-6.68-25.13-6.83-.91,0-1.81,0-2.67,0a64.09,64.09,0,0,0-16.89,2.3c.13.12.25.26.37.38-.69-.16-2.28.44-1.91.9,1.34,1.71,2.54,3.2,4.58,4,3.2,1.28,6-1.31,9.53.54.85.45,1.66.89,2.47,1.25.07.12.16.23.24.36,2.09.92,4.27,2.05,6.42,2.05a20.66,20.66,0,0,0,2.73-.23c0,.2.3.33.88.23,3.47-.58,7.36-2.33,10.87-1.42a41.59,41.59,0,0,0,5.4,1.18c1.41.18,5.26.13,4.05-2l.46-.4Z" class="cls-21"/><path data-cppathid="10056" d="M388.74,150.53c-.44.08-1.13.56-1,1.09.07.22.16.42.24.62-.15.23-.3.47-.48.7a.68.68,0,0,0,.28,1.14c1.38.45,2.56,1.64,3.85,2.32s3.26,1.18,4-.38C397.56,152.34,391.42,150.08,388.74,150.53Z" class="cls-21"/></g><g data-name="Andy estimating" id="Andy_estimating"><path data-cppathid="10057" d="M187.07,456.6c-.22,8.95-41.56,15.21-92.34,14S3,461.09,3.19,452.14s41.55-15.21,92.33-14S187.28,447.65,187.07,456.6Z" class="cls-3"/><path data-cppathid="10058" d="M126.56,266.83c-14.73-1-39.49-13.24-39.49-13.24s-8.67-7.92-.74-10.27c4-1.17,30,3.85,42.08,4.05C126.34,255.54,127.33,264.73,126.56,266.83Z" class="cls-26"/><path data-cppathid="10059" d="M125.1,265.77s1.15,3,2.3,2.14a10.6,10.6,0,0,1,3-1.4l2.15,1.63,1.45-1.82-1.79-6.23s-.11-7.27,2.52-10.83-1.56-3.48-1.56-3.48-1.85,1.37-2.33.67-1.71-2-2.67-1.49S122.06,253.16,125.1,265.77Z" class="cls-27"/><path data-cppathid="10060" d="M104.61,334.06s.2,4.88.23,7.33C105.54,389,91.05,440,91.05,440s10.9,3.93,12.64,7.64S78,448.89,78,448.89s7.1-65.82,5.62-80.51S67.1,445,63.3,450.36s-17.67,10.57-17.67,10.57,3-10.92,5.88-15.44,11.37-68.77,12.56-103.25c0-.93.09-2.74.09-2.74Z" class="cls-28"/><path data-cppathid="10061" d="M81.31,237s20.73,44.83,23.2,94.38c.15,3,.25,9.14.25,9.14l-40.1,3.3s.09-2.48.12-3.66c.82-33.89,3-72.33,3-72.33s3.72-40.24,7.34-38.31S81.31,237,81.31,237Z" class="cls-29"/><path data-cppathid="10062" d="M82.79,229.31l-.35,14.25s4.69-8.82,7.9,5.37c0-12.83-3.24-14.1-3.74-13.94S82.79,229.31,82.79,229.31Z" class="cls-30"/><polygon data-cppathid="10063" points="74.3 229.69 73.57 233.87 81.29 240.19 84.35 233.88 74.3 229.69" class="cls-31"/><path data-cppathid="10064" d="M15.53,135.32s-4.49,12.34,14.94,6.9S42.27,127.78,42.86,127s-23.2-6.23-23.82-6.45S15.53,135.32,15.53,135.32Z" class="cls-32"/><path data-cppathid="10065" d="M96.6,219.49s0-.08,1-2.15c.13-.28.45-5.4.45-5.4s-18.73-10.18-15.4-17.53c-1.28,1.1,23.16,9.62,24.87,1.52,3.15-15,6.55-44.93.31-57.53-14.64-29.53-61.57-56.76-76.16-24.88s.23,53.74,10.49,74,30,46.65,39.26,48C89.53,236.73,96.6,219.49,96.6,219.49Z" class="cls-10"/><path data-cppathid="10066" d="M87.26,151.11c-.09,3.38,1.47,6.17,3.46,6.22s3.67-2.66,3.75-6.05S93,145.12,91,145.07,87.34,147.73,87.26,151.11Z" class="cls-33"/><path data-cppathid="10067" d="M91.9,153a1.81,1.81,0,1,0,1.85-1.75A1.81,1.81,0,0,0,91.9,153Z" class="cls-14"/><path data-cppathid="10068" d="M77.18,150.14c-.07,2.79,1.21,5.08,2.85,5.12s3-2.18,3.09-5-1.21-5.08-2.84-5.12S77.25,147.36,77.18,150.14Z" class="cls-33"/><path data-cppathid="10069" d="M80.36,152.74A1.81,1.81,0,1,0,82.21,151,1.81,1.81,0,0,0,80.36,152.74Z" class="cls-14"/><path data-cppathid="10070" d="M104.29,102.9c-3.53-5.29-8.25-5.49-11.66-4.45,1.25-7.07-27.85-20-25.53-9.1C65.66,84.13,60.29,86,58.42,89c-4.05-2-12.12.62-11.23,4.59-.69.47-1.37,1-2,1.43A3.66,3.66,0,0,0,44,95.6a5.07,5.07,0,0,0-2.05-1.92c.1-2.79-4.3-5.85-8.52-4.74a7.42,7.42,0,0,0-4.94,5.7,5,5,0,0,0-4.3,5l0,.38c-1.5.56-1.64,2-1,3.65-4,.24-7.43,1.71-7.49,4.11a7.19,7.19,0,0,0-4.12,1.15,8.27,8.27,0,0,0-3.17,9.54,7.17,7.17,0,0,0-3.95,4.38,12.82,12.82,0,0,0,1,7.6c-2.25.91-3.33,4.18-2.7,7.08a6.88,6.88,0,0,0,.37,1.08,4.42,4.42,0,0,0-3.08,4,5.11,5.11,0,0,0,.73,3.34,3,3,0,0,0-.19.58c-.39,2.22,1.51,4.3,3.1,5.53a7.67,7.67,0,0,0,3.8,1.53c1.21,3.14,5.35,6,8.86,3.54-3.1,3.83-.9,5.72,2.6,6.29A4.93,4.93,0,0,0,21.48,162c.58,1.68,1.19,3.36,4.33,1.63,3.56-1.86,3.94-14.67,2-17.64,7.52.67,6.6-6.84,4.33-12.58,2.64,1.52,4.45.87,5.43-.72a5.65,5.65,0,0,0,3.26-.09c2.1-.88,3.14-3.55,2.34-5.06,2.94,0,6.54-2.35,5.47-5.36,2,0,6,.7,7.73-.49,1.49-1,2.4-2.49,2-3.67,3.81,1.68,8.27.75,10.34-3.24,5.53,3.55,7.63,2.25,11-.83,3.13,2.84,9.67,5.11,13.11,3.14,3.53-1.61,4.44-5.63,2.49-8C100.63,109.7,106.91,106.33,104.29,102.9Z" class="cls-34"/><path data-cppathid="10071" d="M60.74,167a3,3,0,0,0,1.75-.47c.31-.26.42-.51-.13-.51a3,3,0,0,0-1.76.47c-.31.26-.42.51.14.51Z" class="cls-35"/><path data-cppathid="10072" d="M60.7,177.36c1.4,0,1.93-1.75.24-1.75-1.4,0-1.93,1.75-.24,1.75Z" class="cls-35"/><path data-cppathid="10073" d="M75,174.78v-.47A.42.42,0,0,0,75,174a.44.44,0,0,0-.22-.26.8.8,0,0,0-.38-.14,1.25,1.25,0,0,0-.47,0l-.33,0a1.83,1.83,0,0,0-.6.28l-.22.2a.89.89,0,0,0-.23.44V175a.41.41,0,0,0,.07.33.45.45,0,0,0,.23.26.73.73,0,0,0,.38.14,1,1,0,0,0,.46,0l.34-.06a2,2,0,0,0,.6-.28l.21-.2a.82.82,0,0,0,.23-.44Z" class="cls-35"/><g class="cls-2"><polygon data-cppathid="10074" points="144.6 358.26 150.73 357.35 158.86 358.35 152.79 359.29 144.6 358.26" class="cls-36"/><polygon data-cppathid="10075" points="158.86 358.35 156.46 432.48 150.6 434.66 152.79 359.29 158.86 358.35" class="cls-37"/><polygon data-cppathid="10076" points="152.79 359.29 150.6 434.66 142.79 432.68 144.6 358.26 152.79 359.29" class="cls-38"/></g><g class="cls-2"><polygon data-cppathid="10077" points="187.98 363.69 193.75 362.61 203.12 363.76 197.45 364.87 187.98 363.69" class="cls-36"/><polygon data-cppathid="10078" points="203.12 363.76 198.56 442.94 193.06 445.48 197.45 364.87 203.12 363.76" class="cls-39"/><polygon data-cppathid="10079" points="197.45 364.87 193.06 445.48 184.08 443.19 187.98 363.69 197.45 364.87" class="cls-38"/></g><g class="cls-2"><polygon data-cppathid="10080" points="68.68 369.52 77.72 368.18 86.35 369.57 77.34 370.96 68.68 369.52" class="cls-36"/><polygon data-cppathid="10081" points="86.35 369.57 87.11 458.32 78.58 461.5 77.34 370.96 86.35 369.57" class="cls-37"/><polygon data-cppathid="10082" points="77.34 370.96 78.58 461.5 70.33 458.67 68.68 369.52 77.34 370.96" class="cls-38"/></g><g class="cls-2"><polygon data-cppathid="10083" points="115.27 377.28 124.05 375.63 134.35 377.29 125.64 379 115.27 377.28" class="cls-36"/><polygon data-cppathid="10084" points="134.35 377.29 132.54 473.37 124.29 477.18 125.64 379 134.35 377.29" class="cls-39"/><polygon data-cppathid="10085" points="125.64 379 124.29 477.18 114.5 473.82 115.27 377.28 125.64 379" class="cls-38"/></g><g class="cls-2"><polygon data-cppathid="10086" points="44.59 356.56 149.5 331.71 223.78 343.9 127.65 377.38 44.59 356.56" class="cls-40"/><polygon data-cppathid="10087" points="223.78 343.9 223.12 354 127.52 390.83 127.65 377.38 223.78 343.9" class="cls-39"/><polygon data-cppathid="10088" points="127.65 377.38 127.52 390.83 45.03 368.19 44.59 356.56 127.65 377.38" class="cls-38"/></g><path data-cppathid="10089" d="M58,348.77s93.73-22.26,91.89-22.68S218,339.65,218,339.65L129,366.73Z" class="cls-41"/><path data-cppathid="10090" d="M128.41,366.59q-35.2-9.18-70.51-18c.57-2.58.85-3.88,1.42-6.47l71.5,13.45C129.86,360,129.37,362.19,128.41,366.59Z" class="cls-42"/><path data-cppathid="10091" d="M60.52,345.74c-.46,2.1-1.58,3.12-2.62,2.87s-1.64-1.66-1.19-3.69,1.56-3,2.61-2.78S61,343.65,60.52,345.74Z" class="cls-42"/><path data-cppathid="10092" d="M131.51,361.52c-.67,3.06-2.06,5.33-3.1,5.07s-1.36-2.92-.7-5.93,2-5.28,3.11-5.07S132.18,358.46,131.51,361.52Z" class="cls-43"/><path data-cppathid="10093" d="M128.26,365.83c-.71-1.37-.48-4.55.51-7.14.8-2.07,1.92-2.89,2.5-1.81.46.86.31,2.92-.33,4.59-.52,1.34-1.23,1.85-1.6,1.15a4.45,4.45,0,0,1,.21-2.93c.33-.85.79-1.19,1-.74a2.76,2.76,0,0,1-.14,1.88" class="cls-44"/><path data-cppathid="10094" d="M215.92,340.76q-33.12-6.87-66.33-13.4c.42-2.43.62-3.65,1-6.07l67,9.15C217,334.57,216.61,336.64,215.92,340.76Z" class="cls-42"/><path data-cppathid="10095" d="M151.9,324.58c-.33,2-1.32,3-2.31,2.78S148,325.9,148.32,324s1.31-2.84,2.3-2.69S152.24,322.61,151.9,324.58Z" class="cls-42"/><path data-cppathid="10096" d="M218.57,335.91c-.48,2.88-1.66,5-2.65,4.85s-1.39-2.63-.92-5.46,1.66-5,2.65-4.86S219.06,333,218.57,335.91Z" class="cls-43"/><path data-cppathid="10097" d="M215.76,340.07c-.73-1.24-.66-4.2.14-6.65.64-2,1.64-2.78,2.23-1.81.47.78.42,2.71-.09,4.29-.42,1.27-1.06,1.77-1.43,1.14a4.09,4.09,0,0,1,.06-2.74c.26-.8.67-1.13.91-.73a2.65,2.65,0,0,1,0,1.76" class="cls-44"/><path data-cppathid="10098" d="M68.61,342.8h0Z" class="cls-10"/><path data-cppathid="10099" d="M94,341.9l.32,6.82-8.06-1.79L82.6,333.2S90.72,336.61,94,341.9Z" class="cls-10"/><path data-cppathid="10100" d="M57.38,254.39s8.95,4.6,7.09,12.6c-.94,4-10.67,19.9-12.76,27.05,6.95,5.79,24,28.82,29.11,35,1.89,1.67,7.73,5.61,9.26,8.62.58,1.15-1.56.73-1.14,1.58a93.66,93.66,0,0,1-2.24,10.46s-4.78,9.84-14.45-2.45c-1.37-1.92-.53-7.2-.27-11.65-2.23-4-34.86-29.68-33.78-42.33C38.8,286.35,57.38,254.39,57.38,254.39Z" class="cls-10"/><path data-cppathid="10101" d="M40.12,275c6.4-13.29,27-31.73,27-31.73s10.57-5.1,9.8,3.13c-.38,4.12-14.71,26.39-19.41,37.56C50.68,279,41.78,276.5,40.12,275Z" class="cls-26"/><path data-cppathid="10102" d="M41.65,274.05s-3.25-.06-2.85,1.34a10.26,10.26,0,0,1,.2,3.27l-2.31,1.39,1.15,2,6.45.66s6.78,2.6,9.11,6.37,3.81-.15,3.81-.15-.58-2.23.25-2.42,2.53-.83,2.37-1.92S54.48,275.91,41.65,274.05Z" class="cls-27"/><path data-cppathid="10103" d="M76.6,349.31c.71,3.22.14,6.09-1.28,6.41s-3.15-2.05-3.86-5.28-.15-6.1,1.27-6.41S75.88,346.07,76.6,349.31Z" class="cls-10"/><path data-cppathid="10104" d="M81.61,352c.71,3.23.14,6.1-1.28,6.42s-3.15-2.05-3.87-5.28-.14-6.1,1.28-6.41S80.89,348.8,81.61,352Z" class="cls-10"/><path data-cppathid="10105" d="M88.3,352.83c.71,3.23-.07,6.15-1.76,6.52s-3.63-1.94-4.35-5.16.07-6.15,1.76-6.53S87.58,349.6,88.3,352.83Z" class="cls-10"/><polygon data-cppathid="10106" points="144.8 332.4 187.18 342.16 159.05 349.91 121.18 338.8 144.8 332.4" class="cls-45"/><polygon data-cppathid="10107" points="118.09 340.05 98 345.4 106.25 347.94 116.71 345.06 135.76 351.37 144.95 348.35 118.09 340.05" class="cls-45"/><path data-cppathid="10108" d="M72.71,231.11s-6.14,12.27-4.73,20.1c1.49-4.8,8.7-14.39,16.34-7.11C76.16,234.75,72.71,231.11,72.71,231.11Z" class="cls-30"/><path data-cppathid="10109" d="M67.8,90.63c5.69-1.73-7.52-14.91-11.13-6.55,3.12,2.56,5-3,.49-4.54-2.71-.91-7.65.92-8,3.77-4-2.76-9.31,4.16-4,4.61,5-9.65-19.76-3.09-9.65,1.44-5.88-8-18,5.61-7.31,7.4-.63-6.85-13.54.24-9.82,7.69-2.29-.17-6.8,2-7.33,4.52-.7,3.38,3.75,4.92,4.24,1.43-4.38,0-.75,4.94,1.58,5.76,4.09,1.44,10.39-1.14,11.46-5.39,3.46,6.63,18.39,6.53,18.2-2.57,5.52,3.87,17.33,3.19,15.91-5.92-.72,3.94,8.17,3,9.88-.3,1.22-2.39-.76-11.16-3.68-7.55,2.12,1.25,4.84-.26,3.7-2.76-.92-2-5-1.67-6.15-1.92" class="cls-34"/><path data-cppathid="10110" d="M85,99.25c2.52,4.27,10.31,1,11.87-2.24,2.31-4.81-4.36-10.62-8.94-7,4.72-1.3-5.06-6.52-6.37-2.08,8.5.48-9.93-13.84-9.9-3.86a10.91,10.91,0,0,1,1.25.32c2.56-3.94-3.52-6.46-7.13-4.82-1,.43-5.76,5.24-6.07,6.25-2.22,7,11.21,15.28,15.54,7.17-3.4,3.54,3.89,6.77,7.19,4.79C84,99.44,87.26,102,88.9,99.34c.32,0-.17.41-.59.34" class="cls-34"/><rect data-cppathid="10111" rx="2.01" height="97.69" width="75.69" y="151.19" x="188.23" class="cls-5" data-name="card" id="card-2"/><g data-name="Small estimate" id="Small_estimate-2"><g class="cls-46"><path data-cppathid="10112" d="M239.73,153.52a36.43,36.43,0,0,0-24.79,9.06q-10.38,9.07-10.38,21.61,0,10.4,6.87,20.8,4.31,6.57,4.3,8.51a6,6,0,0,1-2.68,5,10.84,10.84,0,0,1-6.67,2,16.36,16.36,0,0,1-7.53-2.27l-3.22-1.93v26.39l3.19,1.16a38.81,38.81,0,0,0,14.42,2.84q15.4,0,26.08-9T250,215.78q0-8.85-6.34-18.33l-2.34-3.51q-2.72-4.09-2.72-6.76a6.87,6.87,0,0,1,2.49-5.33,8.7,8.7,0,0,1,6-2.21,18.82,18.82,0,0,1,4.89.91c.08,0,3.5,1.37,3.59,1.4V156.32l-3.35-1a43.12,43.12,0,0,0-12.45-1.82" class="cls-7"/></g><g class="cls-47"><path data-cppathid="10113" d="M236.08,202.15a9.85,9.85,0,0,0-4.56-2.75,27.63,27.63,0,0,0-2.93-.79l-2.84-.6a9,9,0,0,1-3.07-1,1.85,1.85,0,0,1-.82-1.63,1.77,1.77,0,0,1,.51-1.25,3.16,3.16,0,0,1,1.21-.83,7.18,7.18,0,0,1,1.65-.44,12.43,12.43,0,0,1,1.72-.12,13.83,13.83,0,0,1,4.82.88,14.46,14.46,0,0,1,4,2.17h.74v-6.19a25.85,25.85,0,0,0-4.49-1.29,27.06,27.06,0,0,0-5.24-.51,14.7,14.7,0,0,0-8.66,2.37,7.23,7.23,0,0,0-3.37,6.13,7.35,7.35,0,0,0,1.49,4.69,10,10,0,0,0,4.89,3,23.51,23.51,0,0,0,3.16.81c1.13.21,2.2.43,3.21.67a5.19,5.19,0,0,1,2.19,1,2.08,2.08,0,0,1,.24,3,4.42,4.42,0,0,1-1.31.81,6.62,6.62,0,0,1-1.68.36c-.69.07-1.24.11-1.66.11a15.76,15.76,0,0,1-5.12-.92,16,16,0,0,1-4.81-2.64h-.76v6.45a30.13,30.13,0,0,0,4.65,1.49,25.61,25.61,0,0,0,5.82.58c3.85,0,6.9-.82,9.15-2.48a7.66,7.66,0,0,0,3.36-6.45,6.8,6.8,0,0,0-1.47-4.53" class="cls-9"/><path data-cppathid="10114" d="M206.06,163.11h-2.9l.57-.43c.26-.2.53-.43.79-.67a4.73,4.73,0,0,0,.93-1.13,2.33,2.33,0,0,0,.31-1.17,1.73,1.73,0,0,0-.64-1.44,2.89,2.89,0,0,0-1.85-.51,6.27,6.27,0,0,0-2.11.41v1.43h.14a4,4,0,0,1,.82-.42A2.35,2.35,0,0,1,203,159a1.22,1.22,0,0,1,.81.24.85.85,0,0,1,.29.68,1.5,1.5,0,0,1-.22.74,4.41,4.41,0,0,1-.75.89,11.21,11.21,0,0,1-.93.81q-.58.48-1.17.9v1.06h5.07" class="cls-9"/><path data-cppathid="10115" d="M244.2,238.29h2.9l-.57.43a9.38,9.38,0,0,0-.79.67,4.54,4.54,0,0,0-.93,1.13,2.29,2.29,0,0,0-.31,1.16,1.73,1.73,0,0,0,.64,1.44,2.89,2.89,0,0,0,1.85.51,6,6,0,0,0,2.11-.4v-1.44H249a3.73,3.73,0,0,1-.82.42,2.37,2.37,0,0,1-.83.17,1.23,1.23,0,0,1-.82-.24.84.84,0,0,1-.28-.68,1.44,1.44,0,0,1,.22-.75,4,4,0,0,1,.74-.88c.24-.23.55-.5.94-.82s.77-.61,1.16-.89v-1.07H244.2" class="cls-9"/></g></g><path data-cppathid="10116" d="M182.84,245.49s.52-6.68,5.25-9.41,5.17-6.74,6-8.22,7,1.67.61,10.07-.49,11.45-.49,11.45l6.94-.58s-7.39,6.68-11,6.08S182.84,245.49,182.84,245.49Z" class="cls-10"/><path data-cppathid="10117" d="M197.08,239.79c-4.18,1.53-9.28.55-11.75.75-1.33.1-42.13,11.44-61.06,12-16.6.49-3.92,21,55.77.57a16.41,16.41,0,0,1,11.36.12c1.84,1.19,1.87-4.89,1.87-4.89S204.19,237.22,197.08,239.79Z" class="cls-10"/></g><g data-name="Carla estimating" id="Carla_estimating"><path data-cppathid="10118" d="M1036.9,469.68c-.19,8.09-44,13.59-97.79,12.28s-97.27-8.91-97.07-17,44-13.59,97.78-12.29S1037.1,461.59,1036.9,469.68Z" class="cls-3" id="shadow"/><rect data-cppathid="10119" rx="2.05" height="99.66" width="77.21" y="173.47" x="776.57" class="cls-5" data-name="card" id="card-3"/><g data-name="small estimate" id="small_estimate-3"><g class="cls-48"><path data-cppathid="10120" d="M829.91,176.94A36.44,36.44,0,0,0,805.12,186q-10.36,9.06-10.37,21.61,0,10.4,6.86,20.8,4.3,6.56,4.31,8.51a6,6,0,0,1-2.68,5,11,11,0,0,1-6.68,2,16.24,16.24,0,0,1-7.53-2.27l-3.22-1.92v26.39l3.19,1.16a38.81,38.81,0,0,0,14.43,2.83q15.39,0,26.07-9t10.68-21.91q0-8.83-6.34-18.32l-2.34-3.51c-1.81-2.73-2.72-5-2.72-6.76a6.87,6.87,0,0,1,2.49-5.33,8.7,8.7,0,0,1,6-2.21,19.08,19.08,0,0,1,4.89.9c.08,0,3.51,1.38,3.59,1.4V179.75l-3.34-1a43.59,43.59,0,0,0-12.46-1.82" class="cls-7"/></g><g class="cls-49"><path data-cppathid="10121" d="M826.26,225.58a9.77,9.77,0,0,0-4.56-2.75c-1-.34-2-.6-2.93-.8l-2.84-.59a9,9,0,0,1-3.07-1,1.87,1.87,0,0,1-.81-1.63,1.8,1.8,0,0,1,.5-1.26,3.25,3.25,0,0,1,1.21-.82,6.7,6.7,0,0,1,1.65-.44,12.47,12.47,0,0,1,1.73-.12A13.59,13.59,0,0,1,822,217a14.31,14.31,0,0,1,4,2.17h.74V213a24,24,0,0,0-4.49-1.29,27,27,0,0,0-5.24-.51,14.72,14.72,0,0,0-8.66,2.37,7.2,7.2,0,0,0-3.36,6.13,7.29,7.29,0,0,0,1.49,4.68,9.89,9.89,0,0,0,4.88,3,25.3,25.3,0,0,0,3.17.8c1.12.21,2.19.44,3.2.68a5.32,5.32,0,0,1,2.19,1,2,2,0,0,1,.75,1.53,1.89,1.89,0,0,1-.51,1.44,4.13,4.13,0,0,1-1.31.82,6.42,6.42,0,0,1-1.68.36c-.68.07-1.24.11-1.66.11a15.52,15.52,0,0,1-5.12-.93,16.07,16.07,0,0,1-4.81-2.63h-.76V237a29.42,29.42,0,0,0,4.65,1.49,25.63,25.63,0,0,0,5.82.59c3.86,0,6.9-.83,9.15-2.48a7.69,7.69,0,0,0,3.36-6.46,6.77,6.77,0,0,0-1.47-4.52" class="cls-9"/><path data-cppathid="10122" d="M796.24,186.53h-2.9l.57-.42c.27-.21.53-.43.79-.67a4.87,4.87,0,0,0,.94-1.14,2.36,2.36,0,0,0,.3-1.16,1.75,1.75,0,0,0-.63-1.44,2.93,2.93,0,0,0-1.85-.51,5.48,5.48,0,0,0-1.21.14,5,5,0,0,0-.9.27V183h.13a4.23,4.23,0,0,1,.82-.42,2.37,2.37,0,0,1,.84-.17,1.25,1.25,0,0,1,.82.24.85.85,0,0,1,.28.69,1.43,1.43,0,0,1-.22.74,4.7,4.7,0,0,1-.75.89c-.23.22-.54.5-.93.81s-.78.61-1.16.89v1.07h5.06" class="cls-9"/><path data-cppathid="10123" d="M834.39,261.72h2.89l-.56.42c-.27.21-.53.43-.8.67A4.57,4.57,0,0,0,835,264a2.37,2.37,0,0,0-.31,1.16,1.75,1.75,0,0,0,.64,1.44,2.91,2.91,0,0,0,1.85.51,5.46,5.46,0,0,0,1.2-.14,4.53,4.53,0,0,0,.91-.26v-1.44h-.14a3.88,3.88,0,0,1-.81.42,2.46,2.46,0,0,1-.84.17,1.23,1.23,0,0,1-.82-.24.85.85,0,0,1-.28-.69,1.43,1.43,0,0,1,.22-.74,4.58,4.58,0,0,1,.74-.89c.24-.22.55-.49.94-.81s.77-.61,1.16-.89v-1.07h-5.06" class="cls-9"/></g></g><path data-cppathid="10124" d="M885.78,274.92c-1.43-2.06-3.51-3.06-4.64-2.23s-.9,3.16.53,5.21,3.5,3.06,4.63,2.23S887.2,277,885.78,274.92Z" class="cls-50"/><path data-cppathid="10125" d="M889.92,273.2c-1.26-1.82-3.1-2.7-4.1-2s-.79,2.79.47,4.61,3.09,2.7,4.09,2S891.18,275,889.92,273.2Z" class="cls-50"/><path data-cppathid="10126" d="M880.13,275.56c-1.21-1.44-3-1.81-4-.82s-.81,2.94.39,4.37,3,1.81,4,.83S881.34,277,880.13,275.56Z" class="cls-50"/><path data-cppathid="10127" d="M867.87,259.76s-.61-11.43-8.6-16.3-8.56-11.75-9.94-14.32-12,2.58-1.47,17.2.37,19.61.37,19.61l-7.16,5.73s7.68,4.72,14,3.84,14.79,14.43,22.69,18.32,30.88-12.56,30.8-13.54-18.22-5.94-18.22-5.94Z" class="cls-10"/><path data-cppathid="10128" d="M869.78,257.87s-6,18.92-12,20.11c9.58,10.77,20.35,22,20.35,22l11.25-16.51-4.07-14.84Z" class="cls-51"/><path data-cppathid="10129" d="M999.39,321.75l.49.18c-.1.2.3.36.47.16,2.63,1,4.89,2.31,6,4.27a18.58,18.58,0,0,1,1.75,5.91c.67,3.64.66,8.41,5.44,10.86,3.13,1.61,9.09,3.85,12.89,2,2.28-1.11.13-5.56-1.92-4.45-.51.27-.07.8.47.84,0,.06.11.12.29.22l.22.26a2.44,2.44,0,0,1,.55,1.46c-.15,1.15-1.87,1.36-3.19,1.27a20.69,20.69,0,0,1-6.29-1.49c-4.82-1.94-5.93-5-6.45-8.63-.39-2.74-.69-6-2.28-8.53a11.6,11.6,0,0,0-5.32-4.32c6.85.08,15,1.67,20.61-1.31,3-1.61,4-4.45,1.87-6.7-2.36-2.51-6.93-3.46-11.12-2.66a24.53,24.53,0,0,0-9.16,3.77,13.9,13.9,0,0,0-3.44,3.07,7.56,7.56,0,0,0-.88,2.83l-.6,0C999.09,320.84,998.63,321.51,999.39,321.75Zm1.67-1a6.17,6.17,0,0,1,.84-2,13.55,13.55,0,0,1,3.1-2.91,23.37,23.37,0,0,1,8.68-3.75c3.75-.71,8.32-.22,10.23,2.35,1.73,2.33.18,4.84-3.33,5.86C1014.47,322.11,1007.52,320.55,1001.06,320.73Z" class="cls-52"/><path data-cppathid="10130" d="M940.26,33.17A24.19,24.19,0,1,0,966,10.62,24.19,24.19,0,0,0,940.26,33.17Z" class="cls-53"/><path data-cppathid="10131" d="M1004.61,54.73c-4.82,10.7,3.69,25,19,31.86s31.64,3.81,36.45-6.89-3.69-25-19-31.87S1009.43,44,1004.61,54.73Z" class="cls-53"/><path data-cppathid="10132" d="M869.47,191.21S894.2,93.89,947.2,95.76s70.66,56.14,61.82,106.66c-2.36,13.52-4.52,33.54-6.43,55.61-5.22,60.49-26.52,60.27-26.52,60.27l-86.94-3.45,5.44-57.79-2.13-15.34s-11.06-27.3-7.07-26.19c35.66,10,56.59,4.56,71.44-29.87,0,0-39.83,21.61-68.19,14.85C868,195.6,869.47,191.21,869.47,191.21Z" class="cls-10"/><path data-cppathid="10133" d="M922.48,143.72c0,4.26,1.92,7.72,4.28,7.72s4.29-3.46,4.29-7.72-1.93-7.71-4.29-7.71S922.48,139.46,922.48,143.72Z" class="cls-13"/><path data-cppathid="10134" d="M904.34,140.2c0,3.52,1.57,6.35,3.52,6.35s3.53-2.83,3.53-6.35-1.58-6.34-3.53-6.34S904.34,136.7,904.34,140.2Z" class="cls-13"/><path data-cppathid="10135" d="M923.72,110.29S915.16,113,909.17,113h-6s27.4-16.33,38.54-16.33,16.26.9,16.26.9S994.79,64,1008.5,119.37s-.87,87.07,6.84,87.07S1029.9,201,1029.9,201s-7.7,23.6-19.69,23.6S970,194.66,970,157.46V120.27l-6,13.61s-34.25-1.82-37.67-12.7S923.72,110.29,923.72,110.29Z" class="cls-13"/><path data-cppathid="10136" d="M928.05,140.1a2.14,2.14,0,1,0,2.14-2.27A2.2,2.2,0,0,0,928.05,140.1Z" class="cls-14"/><path data-cppathid="10137" d="M908.19,137.61a2.15,2.15,0,1,0,2-2.39A2.2,2.2,0,0,0,908.19,137.61Z" class="cls-14"/><path data-cppathid="10138" d="M876.62,327s6.11,37.35,34.53,41.3c18.53,2.58,54.76.46,59.75,6.41,7,8.31,31.42-34.43,31.42-34.43s-94.46-41.77-117.44-25.49" class="cls-54"/><path data-cppathid="10139" d="M892.22,357.33,898.41,455s-11.56,3.38-16.35,11.28c18,4.32,42.37-6.09,42.37-6.09s5-90.63,7.28-101S892.22,357.33,892.22,357.33Z" class="cls-54"/><path data-cppathid="10140" d="M941.27,354.5l4,106.57c-8.28,5.1-11.15,5.35-15.46,15.64,26.57,7.18,44.64-10.79,44.64-10.79s5.56-104.08,7-107.14-38-5.68-38-5.68" class="cls-54"/><path data-cppathid="10141" d="M1003.48,240.31c-112.13,21.89-111.18-1.58-111.18-1.58S872.37,311.28,876.2,328c23.94-3.35,127.38,14.85,127.38,14.85S1005.55,256.93,1003.48,240.31Z" class="cls-55"/><path data-cppathid="10142" d="M1043,61.9s-27.09,101-27.09,102-19-72.3-94.78-60.81c0,0,42.22-64.29,45.14-78.65S1052.67,37,1043,61.9Z" class="cls-56"/><path data-cppathid="10143" d="M1034.69,49.69s-22.27,61.05-23.71,67.87c0,0-3.59-4.31-5.74-4.67s24.06-65,24.06-65Z" class="cls-57"/><path data-cppathid="10144" d="M1005.6,42.15l-19,57.1s-6.46-4-7.9-4.31,20.11-49.21,21.91-57.47S1005.6,42.15,1005.6,42.15Z" class="cls-57"/><path data-cppathid="10145" d="M979,37.47,957.11,88.84s-8.26-.73-10.05-.37c0,0,26.21-44.53,27.29-53.51S979,37.47,979,37.47Z" class="cls-57"/><path data-cppathid="10146" d="M957.78,4.71a26.32,26.32,0,0,1,8.88,2.41A27.31,27.31,0,0,1,987.35.61a30.25,30.25,0,0,1,22.53,13.32,30.72,30.72,0,0,1,15.89-2.74c15.82,1.42,28.35,13.9,29,28.38.2,0,.41,0,.62,0,15.17,1.36,27,13.85,26.54,27.9s-13.22,24.32-28.39,23C1040,89.25,1029.11,79.15,1027.3,67A32.47,32.47,0,0,1,998,50.27a28.59,28.59,0,0,1-12.55,1.65,30.55,30.55,0,0,1-15.35-5.78,24.13,24.13,0,0,1-14,2.85c-13.2-1.17-23.55-12.05-23.1-24.28S944.58,3.52,957.78,4.71Z" class="cls-56"/><path data-cppathid="10147" d="M1007.27,238.12a21.7,21.7,0,0,0,.48,3.83c.48,2.39-51.5-7.65-53.63,49.32-1.92,51.23,46,26.81,52.2,28.25l-.48,4.31-28.26,10.54.48,78.53s-76.62,9.58-103.91-11c-4.79-15.32-1.92-80-1.92-80S886.6,238.6,888,237.16s5.26-.48,5.26-.48S888,254.39,888,257.27s47.4,10.54,56.5,9.58C944.54,266.85,962.26,233.33,1007.27,238.12Z" class="cls-56"/><path data-cppathid="10148" d="M847.42,305.32c.7-.89,1.08-1.38,24.56,1.17,26.65,2.88,67.31,8.14,67.72,8.19l1.72.22-.49,1.66c-.14.47-14.12,46.42-52,42.3-16-1.72-36.09-11.89-41.46-50.53-.1-.69-.19-1.41-.23-1.52l-.27-.84Z" class="cls-25"/><path data-cppathid="10149" d="M935.41,329.39c-8.24,3.6-26.11,4-43.56,2.1s-34.87-6.11-42.13-11.4a103.92,103.92,0,0,1-2.3-11.76c0-.17,0-.33-.07-.48l93.12,10.08A82.57,82.57,0,0,1,935.41,329.39Z" class="cls-58"/><path data-cppathid="10150" d="M847.34,311c-.63,5.88,19.52,12.88,45,15.65s46.69.23,47.32-5.63l.58-5.28-92.34-10S847.58,308.83,847.34,311Z" class="cls-59"/><path data-cppathid="10151" d="M848,305c-.64,5.87,19.52,12.87,45,15.63s46.68.25,47.32-5.63-19.52-12.88-45-15.63S848.64,299.09,848,305Z" class="cls-60"/><g class="cls-61"><path data-cppathid="10152" d="M851.89,309.37c7.91-2.78,16.89-1,25,.33,12.78,2.13,25.41,5.65,38.43,5.67,6.23,0,12.27-1.78,18.47-2.09,3.56-.18,6.58.62,7.4,4.41,0,.07,0,.11,0,.17.37-.21.75-.4,1.12-.6a1,1,0,0,1,1,1.77c-15.36,8.71-32,12.64-49.64,12.74a207.89,207.89,0,0,1-29.93-1.58c-5.94-.84-20-2.57-20.67-10.75C842.58,314.11,847.47,310.92,851.89,309.37Z" class="cls-62"/><path data-cppathid="10153" d="M852.06,306.48c.49-.06,1.63,1,2.16.89,7.38,3.89,15,3,23.24,2.45,7.14-.45,40.15-5.14,53.93,3a7.85,7.85,0,0,0,2.64.68l3.65.91c.66.17.38,1.14-.28,1l-4-.83c-2.31,4.05-7.09,4.57-11.46,4.8-8,.45-16.26-.71-24.27-1.44-7.7-.71-15.38-1.47-23-2.66a67.59,67.59,0,0,1-10.68-2.5c-1.93-.63-5.15-1.54-6.49-3.27-1.88-.43-3.79-.69-5.61-1.29A.89.89,0,0,1,852.06,306.48Z" class="cls-62"/><path data-cppathid="10154" d="M909.52,322.45c-7.36-.36-5.38-.53-23.88-4.3-4.92-1-9.6-3.08-14.54-4a41.43,41.43,0,0,1-8.62-2.69c-1.91-.81-4.81-.79-3.6-3.59.47-.41-5.34-1.29-6.1-1.44-4.81-.94-9-1-8.71,5.32s6.79,11.72,11.89,14.56c14.27,7.9,32.67,5.76,48.37,6.49,3.2.16,11,.5,12-3.92S913,322.63,909.52,322.45Z" class="cls-63"/></g><path data-cppathid="10155" d="M912.76,323.22a185.44,185.44,0,0,1-19.9-1.13c-12.44-1.34-24-3.73-32.64-6.72-9.5-3.3-14.11-6.85-13.71-10.56.79-7.31,20.59-8.1,29.07-8.1a183,183,0,0,1,19.9,1.14c12.45,1.34,24,3.73,32.64,6.72,9.5,3.3,14.11,6.85,13.71,10.57-.79,7.3-20.6,8.08-29.07,8.08Zm-37.18-23.51c-18.58,0-25.86,3.32-26.09,5.42-.12,1.2,2.2,4.1,11.71,7.41,8.4,2.91,19.76,5.25,32,6.57a182.34,182.34,0,0,0,19.58,1.11c18.57,0,25.86-3.31,26.08-5.41.13-1.2-2.18-4.1-11.7-7.41-8.4-2.91-19.76-5.25-32-6.57a179.88,179.88,0,0,0-19.58-1.12Z" class="cls-25"/><path data-cppathid="10156" d="M892.2,321.43c23.68,2.57,48.11,1,49-6.95l-.4-2.26-.9-.18-1.08,2.55c-.41,3.81-17.32,8.63-45,5.52-18.94-2.14-5.48,1.09-1.61,1.32Z" class="cls-64"/><path data-cppathid="10157" d="M918,361.9a30.49,30.49,0,0,1-6-7.42c-2.15-4.07,12.69-12.93,12.69-5.75S918,361.9,918,361.9Z" class="cls-65"/><path data-cppathid="10158" d="M974.47,266.37c-1.29,4-12.45,39.5-12.93,48.12s-31.6,17.24-45.25,27.54c0,0-12-5.51-17-3.83s-5.52-2.15-8.39-2.15-5.74,6.94,2.39,8.37a25.33,25.33,0,0,1-13.88,4.31c-8.62.24-4.07,5-1,5.27,0,0-1.44,3.35,4.79,3.83,0,0,4.55,3.12,9.58,1.44,0,0,16,1.44,24.66-1.92,4.26-1.65,58.18-11,62-18.43s18.44-55.31,16.28-63.45S978.78,253,974.47,266.37Z" class="cls-10"/><path data-cppathid="10159" d="M983.33,257.27s16,3.83,13.65,20.11-12,62-16.52,65.61S917,362.14,917,362.14s8.38-16.76-1.44-22.74c11-8.38,37.35-20.11,40.7-22S967.05,252.25,983.33,257.27Z" class="cls-51"/><path data-cppathid="10160" d="M929.64,316.88c.82-.11,4.66-.71,4.34-2a1.17,1.17,0,0,1,0-.32.28.28,0,0,1,.09-.5,2.28,2.28,0,0,1,2.46,1,1.57,1.57,0,0,1-.74,2.05c-1.65,1.18-4.23.95-6.14,1.19C928.71,318.45,928.73,317,929.64,316.88Z" class="cls-66"/><path data-cppathid="10161" d="M865.35,309.49a.2.2,0,0,1,0-.08c.4-.83,1.51-.36,1.72.31a3.18,3.18,0,0,1,.32.16v0a1,1,0,0,1,.94-1.23,1.84,1.84,0,0,1,.35.05h.12c0-.1,0-.2,0-.31a1,1,0,0,1,1.07-.8,1.84,1.84,0,0,1,1.07.36.84.84,0,0,1,.89-.4l.47.1a.88.88,0,0,1,.44.22,1.68,1.68,0,0,1,.07-.24,1.63,1.63,0,0,1,2.83-.66.63.63,0,0,1,.3-.1,2,2,0,0,1,1.79.63c.7-1.39,3-1.39,3.41.12h.12l.08-.09a.9.9,0,0,1,.21-1.2,1.93,1.93,0,0,1,1.47-.29,2,2,0,0,1,.16-.51,1.89,1.89,0,0,1,2.6-.75,2.45,2.45,0,0,1,1.42.54,1.65,1.65,0,0,1,.61-.28,1.9,1.9,0,0,1,.44-.07,3.87,3.87,0,0,1,4,.63c.19-.05.39-.1.58-.13l0,0v0h0s0-.08-.06-.11l.14.11a2.72,2.72,0,0,1,1.27-.44,1.82,1.82,0,0,1,1.16.29,6.06,6.06,0,0,1,.64-.12,2.22,2.22,0,0,1,2.28,1.48,1.94,1.94,0,0,1,2,1.7c1.89-.29,4.39.86,4.33,2.69-.07,2.5-2.73,3-4.54,2.06a1.57,1.57,0,0,1-.43.54,2.73,2.73,0,0,1-3.87-.44,3.65,3.65,0,0,1-3.68.53.63.63,0,0,1-.41-.4,2.7,2.7,0,0,1-3.31,0c-.19,0-.38-.08-.57-.13a5.61,5.61,0,0,1-2.54-.28l0,0A6.25,6.25,0,0,1,883,313a9.17,9.17,0,0,1-3.5.2,4.52,4.52,0,0,1-1.2.51,4.27,4.27,0,0,1-2.63-.28,8.11,8.11,0,0,1-2.57,0,2.55,2.55,0,0,1-1.6-.92,5.42,5.42,0,0,1-2.6-.08,1.74,1.74,0,0,1-2.11-.07,1.19,1.19,0,0,1-.15-.09,1,1,0,0,1-1.49-.37,1.59,1.59,0,0,0-.07-.2.94.94,0,0,1-.31-.45,3.32,3.32,0,0,1-.11-.63A.94.94,0,0,1,865.35,309.49Z" class="cls-67"/></g><g data-name="Tim estimating" id="Tim_estimating"><rect data-cppathid="10162" rx="2.05" height="99.66" width="77.21" y="142.36" x="556.15" class="cls-5" data-name="card" id="card-4"/><g data-name="Small estimate" id="Small_estimate-4"><g class="cls-68"><path data-cppathid="10163" d="M610.06,145.63a36.39,36.39,0,0,0-24.79,9.07q-10.38,9.06-10.38,21.61,0,10.4,6.87,20.79,4.31,6.57,4.3,8.52a6,6,0,0,1-2.68,5,10.91,10.91,0,0,1-6.68,2,16.33,16.33,0,0,1-7.52-2.27L566,208.38v26.39l3.19,1.15a38.57,38.57,0,0,0,14.42,2.84q15.39,0,26.07-9t10.68-21.9q0-8.83-6.34-18.33l-2.33-3.51c-1.82-2.73-2.72-5-2.72-6.75a6.87,6.87,0,0,1,2.49-5.33,8.65,8.65,0,0,1,6-2.21,19.23,19.23,0,0,1,4.89.9c.08,0,3.5,1.38,3.58,1.4V148.44l-3.34-1a43.47,43.47,0,0,0-12.45-1.82" class="cls-7"/></g><g class="cls-69"><path data-cppathid="10164" d="M606.41,194.27a9.77,9.77,0,0,0-4.56-2.75,28.48,28.48,0,0,0-2.93-.8l-2.85-.59a9.36,9.36,0,0,1-3.07-1,1.89,1.89,0,0,1-.81-1.64,1.81,1.81,0,0,1,.51-1.25,3.06,3.06,0,0,1,1.21-.82,6.29,6.29,0,0,1,1.65-.44,12.43,12.43,0,0,1,1.72-.12,13.77,13.77,0,0,1,4.81.87,14.54,14.54,0,0,1,4,2.18h.74v-6.19a24.21,24.21,0,0,0-4.49-1.29,26.41,26.41,0,0,0-5.25-.52,14.62,14.62,0,0,0-8.65,2.38,7.19,7.19,0,0,0-3.37,6.13,7.34,7.34,0,0,0,1.49,4.68,10,10,0,0,0,4.88,3,25.74,25.74,0,0,0,3.17.8c1.13.21,2.2.44,3.21.68a5.19,5.19,0,0,1,2.19,1,2,2,0,0,1,.75,1.53,1.89,1.89,0,0,1-.51,1.44,4,4,0,0,1-1.31.81,6.62,6.62,0,0,1-1.68.36,14.67,14.67,0,0,1-1.66.11,15.45,15.45,0,0,1-5.12-.92,16,16,0,0,1-4.81-2.63h-.76v6.44a29.79,29.79,0,0,0,4.65,1.49,25.51,25.51,0,0,0,5.82.59q5.77,0,9.14-2.48a7.67,7.67,0,0,0,3.37-6.46,6.77,6.77,0,0,0-1.47-4.52" class="cls-9"/><path data-cppathid="10165" d="M576.39,155.22h-2.9l.57-.43c.26-.2.53-.42.79-.66a4.57,4.57,0,0,0,.93-1.14,2.29,2.29,0,0,0,.31-1.16,1.73,1.73,0,0,0-.64-1.44,2.89,2.89,0,0,0-1.85-.51,6,6,0,0,0-2.11.4v1.44h.14a3.73,3.73,0,0,1,.82-.42,2.37,2.37,0,0,1,.84-.17,1.22,1.22,0,0,1,.81.24.85.85,0,0,1,.29.68,1.45,1.45,0,0,1-.23.75,4,4,0,0,1-.74.88c-.23.23-.55.5-.93.82s-.78.61-1.17.89v1.07h5.07" class="cls-9"/><path data-cppathid="10166" d="M614.53,230.4h2.9l-.57.43c-.26.2-.53.43-.79.67a4.73,4.73,0,0,0-.93,1.13,2.33,2.33,0,0,0-.31,1.17,1.73,1.73,0,0,0,.64,1.44,2.89,2.89,0,0,0,1.85.51,6.27,6.27,0,0,0,2.11-.41v-1.43h-.14a4,4,0,0,1-.82.42,2.35,2.35,0,0,1-.84.16,1.22,1.22,0,0,1-.81-.24.83.83,0,0,1-.29-.68,1.53,1.53,0,0,1,.22-.74,4.41,4.41,0,0,1,.75-.89,11.21,11.21,0,0,1,.93-.81c.39-.32.78-.61,1.17-.9v-1.06h-5.07" class="cls-9"/></g></g><path data-cppathid="10167" d="M638.7,238.28s-.48-6.15-4.85-8.67-4.76-6.22-5.54-7.59-6.44,1.55-.57,9.29.45,10.56.45,10.56l-6.4-.53s6.82,6.16,10.19,5.6S638.7,238.28,638.7,238.28Z" class="cls-10"/><path data-cppathid="10168" d="M825.11,465.61c-.2,8.09-44,13.59-97.79,12.29s-97.27-8.92-97.07-17,44-13.59,97.78-12.28S825.3,457.53,825.11,465.61Z" class="cls-3"/><path data-cppathid="10169" d="M737.22,234.74s6.21-12-2.52-11.85-49.66,18-56.17,17.92c-27.94-.27-39.14-6.71-39.14-6.71l-2.55,15.26c29.26,10.6,25.59,5.92,39,8C691.65,259.77,737.22,234.74,737.22,234.74Z" class="cls-70"/><path data-cppathid="10170" d="M700.22,318.46s-.52,5.72-.7,8.62C696,383.08,710.14,444,710.14,444s-12.71,8.31-15,12.58S725,455.15,725,455.15s-4.6-77.89-2-95.1,8.59,90.42,12.75,97,28,7.11,28,7.11-8.87-10.63-12-16.11-4.85-77-4.29-117.65c0-1.11.06-3.24.06-3.24Z" class="cls-71"/><path data-cppathid="10171" d="M730,204.69s-24.62,52.38-30.44,110.56c-.36,3.56-.83,10.75-.83,10.75l48,6.2s0-2.92.07-4.32c1-39.94.63-85.32.63-85.32S745.24,195,740.77,197,730,204.69,730,204.69Z" class="cls-72"/><polygon data-cppathid="10172" points="741.86 197.32 742.48 202.28 733.03 209.28 729.79 201.69 741.86 197.32" class="cls-31"/><path data-cppathid="10173" d="M636.75,296.51l-.37,0-.37,0,.37,0Z" class="cls-10"/><polygon data-cppathid="10174" points="728.19 220.67 726.16 244.62 719.46 260.61 715.91 249.33 726.17 219.79 728.19 220.67" class="cls-73"/><path data-cppathid="10175" d="M720.17,254.76s-14.84,102-12.62,112.44c0,0-18.45-3.9-19.41-4.92S705.52,247,714.23,234.34C717.41,246.28,720.17,254.76,720.17,254.76Z" class="cls-70"/><path data-cppathid="10176" d="M719.67,254.75s-15.14,73.81-8.7,114c0,0,34.77,4.3,57.94-3.29,0,0-17.71-65-18-82.78s-7-77.94-9.43-70C738.24,223.42,719.67,254.75,719.67,254.75Z" class="cls-70"/><path data-cppathid="10177" d="M731.92,202.14s-17.45,29.35-12.32,53.09c0,0-7.81-16.86-3-29.43,0,0-2.83-2.16-5.36-1.33s16-25.71,19.51-25.49S731.92,202.14,731.92,202.14Z" class="cls-74"/><path data-cppathid="10178" d="M734.49,209.57l-6.21,11.2s-1.26.14-1.74-.6-.55-.48-.55-.48.89-11.58,2.91-12.45C728.9,207.24,731.49,209.69,734.49,209.57Z" class="cls-73"/><path data-cppathid="10179" d="M716.19,184s0-.1-1-2.58c-.14-.34-5.13-12.85-5.13-12.85s21.62-10.1,26.07-20.72c-8.11.81-29.62,12.29-31.4,7.79-6.61-16.75-5.15-53.27,2.92-67.74C726.58,54,783.38,24.64,798.74,63s-3.34,63.25-16.57,86.45-38,53.2-49,54.3C723.53,204.73,716.19,184,716.19,184Z" class="cls-10"/><path data-cppathid="10180" d="M727.54,92.9c-.1,4-2.09,7.18-4.43,7.13s-4.17-3.34-4.07-7.33,2.08-7.18,4.42-7.12S727.64,88.92,727.54,92.9Z" class="cls-33"/><path data-cppathid="10181" d="M727.92,94a2.13,2.13,0,1,1-2.08-2.18A2.12,2.12,0,0,1,727.92,94Z" class="cls-14"/><path data-cppathid="10182" d="M744.64,97.54c-.62,4.23-3.14,7.36-5.62,7s-4-4.07-3.4-8.31,3.14-7.36,5.62-7S745.25,93.31,744.64,97.54Z" class="cls-75"/><path data-cppathid="10183" d="M744.32,98.75A2.76,2.76,0,1,1,742,95.62,2.76,2.76,0,0,1,744.32,98.75Z" class="cls-14"/><path data-cppathid="10184" d="M801.9,67.72S792,87.47,790.94,96l-1.07,8.5s5.2-3.28,7.78-4.07l2.57-.79s-2.07,15.3-3,18.68a6.16,6.16,0,0,0,.86,5.48s11.87-20.25,12.28-37.29S801.9,67.72,801.9,67.72Z" class="cls-76"/><path data-cppathid="10185" d="M751.36,220s-12.22-6.94-12.54,2,19.48,47.64,19.08,54.28a161.28,161.28,0,0,1-6.79,38.43,10.05,10.05,0,0,0-2.37,5.16c-.09.76-.18,1.48-.27,2.17l-.07.16.05,0c-.55,4.3-1.07,7.11-1.07,7.11s-11.21,11.79-5.22,10.54,8.39-5.17,8.39-5.17-1.65,13.16,1.3,15,3.37-9.38,3.37-9.38,1.89,9.78,2.9,11,1-9.73,1-9.73,4.79,7.37,6.19,6.51-5.11-16.92-4.89-22.52c0-1.12.53-3.7,1.16-7.14a15.16,15.16,0,0,0,.27-3.55c3.54-9.09,8.18-21.86,10.12-31.12C775.29,267.73,751.36,220,751.36,220Z" class="cls-10"/><path data-cppathid="10186" d="M739.71,259.42c0,.2-.27.34-.55.3h0c-.28,0-.49-.22-.47-.42l.9-7.65c0-.2.27-.33.55-.3h0c.28,0,.49.22.47.42Z" class="cls-77"/><polygon data-cppathid="10187" points="743.35 257.29 726.58 255.41 724.94 261.8 742.68 264.7 743.35 257.29" class="cls-74"/><path data-cppathid="10188" d="M737.11,273.75a1.2,1.2,0,0,1-1.41.89h0a1.2,1.2,0,0,1-1.17-1.19l2.55-21.82a1.2,1.2,0,0,1,1.41-.88h0a1.19,1.19,0,0,1,1.17,1.18Z" class="cls-78"/><path data-cppathid="10189" d="M739.23,257.1a3.61,3.61,0,0,1-2.92-.35l-.1.51a3.72,3.72,0,0,0,3,.4Z" class="cls-77"/><path data-cppathid="10190" d="M742.34,214.27c5.56.5,8.83,3.18,12,8.45s17.85,43.83,19.2,49.43-7.5,49.15-9,51.71c-8,8.7-19.33,1.75-19.33,1.75s7.83-43.86,10.84-49.44c.18-3.62-20.74-47.24-19.46-54.25S742.34,214.27,742.34,214.27Z" class="cls-70"/><path data-cppathid="10191" d="M744.79,198l2.52,33.81-9.62-1-18,24.42S739.91,215.3,744.79,198Z" class="cls-74"/><path data-cppathid="10192" d="M764,100.71c-2.81,9.25-8.41,14.4-16.64,15.31h0a30.08,30.08,0,0,1-9.25-.54c-5.07-1-7-5-9.12-10.42-1.5-3.83-3.21-8.17-7.75-8.17a5.31,5.31,0,0,0-.69,0c-3,.34-5.7,2.83-8.53,5.46-2.32,2.16-5.2,4.86-7.25,5.08a2.21,2.21,0,0,1-1.9-.76c-1.06-3.89,3.21-20.47,8.58-23.09a13.08,13.08,0,0,1,4.21-1c15.14-1.67,47.51,7.11,50.25,8.43C765.89,91,764.09,100.36,764,100.71Z" class="cls-79"/><path data-cppathid="10193" d="M700.09,108.91c7.62,7.7,15.83-8.52,21.13-8.52s3.84,16.07,16.18,18.53c24.85,5,29.44-15.91,30.12-17.75S799,115,799,115s-2.18,9,0,9.62,8.62-14.06,6.33-16.17-37.78-20.53-37.78-20.53c-3.13-1.71-46-13.15-57.64-7.47C702.07,84.26,697.19,106,700.09,108.91Zm11.34-25.3a13.08,13.08,0,0,1,4.21-1c15.14-1.67,47.51,7.11,50.25,8.43,0,0-1.8,9.33-1.91,9.68-2.81,9.25-8.41,14.4-16.64,15.31h0a30.08,30.08,0,0,1-9.25-.54c-5.07-1-7-5-9.12-10.42-1.5-3.83-3.21-8.17-7.75-8.17a5.31,5.31,0,0,0-.69,0c-3,.34-5.7,2.83-8.53,5.46-2.32,2.16-5.2,4.86-7.25,5.08a2.21,2.21,0,0,1-1.9-.76C701.79,102.81,706.06,86.23,711.43,83.61Z" class="cls-80"/></g></g></g></g></g></svg>