<?xml version="1.0" encoding="UTF-8"?>
<svg xmlns="http://www.w3.org/2000/svg" onmouseup="{ if(window.parent.document.onmouseup) window.parent.document.onmouseup(arguments[0]);}" viewBox="0 0 267 186"><defs><style>.cls-1{fill:#c93;}.cls-2{fill:#c66;}.cls-3{fill:#6c6;}.cls-4{fill:#fc6;}.cls-5{fill:#f99;}.cls-6{fill:#6cc;}</style></defs><g data-name="Layer 2" id="Layer_2"><g data-name="Layer 1" id="Layer_1-2"><path data-cppathid="10000" d="M267,73.5H142V186c69,0,125-28,125-62.5Z" class="cls-1"/><path data-cppathid="10001" d="M0,62.5v50C0,147,56,175,125,175V62.5Z" class="cls-2"/><path data-cppathid="10002" d="M125,62.5V0c69,0,125,28,125,62.5H125Z" class="cls-3"/><path data-cppathid="10003" d="M142,73.5H267C267,108,211,136,142,136h0Z" class="cls-4"/><path data-cppathid="10004" d="M125,62.5V125C56,125,0,97,0,62.5H125Z" class="cls-5"/><path data-cppathid="10005" d="M125,62.5H0C0,28,56,0,125,0h0Z" class="cls-6"/></g></g></svg>