<?xml version="1.0" encoding="UTF-8"?>
<svg xmlns="http://www.w3.org/2000/svg" onmouseup="{ if(window.parent.document.onmouseup) window.parent.document.onmouseup(arguments[0]);}" viewBox="0 0 328.56 639.21"><defs><style>.cls-1{fill:#53c627;}.cls-2{fill:#b1ee55;}.cls-3{fill:#c45b3d;}.cls-4{fill:#e56456;}.cls-5{fill:#e9a456;}.cls-6{fill:#f72f48;}.cls-7{fill:#ffec52;}.cls-8{fill:#ffa900;}.cls-9{fill:#fcf3b6;}.cls-10{fill:#a30c1a;}</style></defs><g data-name="Layer 2" id="Layer_2"><g id="sandwich"><path data-cppathid="10000" d="M297.31,107.88c-5.82-3.55-15.7-.13-22.39.29h-.45c-.08,5.22-13.75,11-18.42,11.83-6.1,1-11.34-2.08-16.32-1.21-5.54.91-10.84,5.73-16.35,7.2-11,3.49-23.2,5.38-34.21,8.32-6.07,1.51-9.94,2.3-15.14-.17-5.76-2.44-8.34-7.87-15.73-9.65-15.35-3.51-17.05,14-31.63,13.75-5.61-.19-11.34-2.08-17.51-2.25-6.73-.14-9.49.6-15.83-2.37-8.07-3.41-7.47-2.88-16.32-1.2-7.75,1.6-11.13,1.25-15-6.34-2.1-3.34-2.6-6.59-4.17-9.31-1.22-2.11-3.08-3.9-6.83-5.13-.5-.16-1-.3-1.42-.41-5.9-1.34-8.91,2.23-14-4.22-3.45-3.93-4.31-10.22-7.08-14.31-2.08-3.08-5.25-4.92-11.42-3.57-7.35,1.52-12,14.52-3.67,17.18l1.93-.26c.84-4.54,5.3-4.82,7.75-1.61l0,.06c1.74,2.2,0,10,.8,13.34,4.93,15.93,11.72-.75,21.41,2,9.11,2.23,3.37,17.71,12.68,23.29,9.87,5.54,15.72-8.27,24.58-1,5.28,3.6,3.64,13.22,11.62,15.52s12-5.8,16.82-8.91c8.61-5.58,7.25-.46,12.73,6.49,5.45,6.37,12.31,8.74,16.84.62,3.53-6.39,3.75-38.34,19.35-22,7.16,6.82-1.42,30.9,18.22,22.38,6.55-2.65,8.26-11.17,14.85-13.26,7.11-2.69,13.64,3.05,19.4,5.5,6.9,2.92,12.62,4.8,19-.64,5.33-4.26,4.73-13.75,11.89-15.87s9.9,6.09,16.15,7.38c8,2.3,12.09-3.57,16.21-9.43.29-.46.65-1.08,1.08-1.79l.37.22a12.24,12.24,0,0,1,9.51,9l2-.51C294,132.13,308.37,114.47,297.31,107.88Z" class="cls-1"/><path data-cppathid="10001" d="M322.92,519.79c-.92-9.28,9.66-11.57-1.78-15.91-5.37-1.86-12.64-.33-18-2.17l-2,.05-1.62.28c1.71,9.39.3,20.09-3.55,26.16h2c12.34,16.94-14.88,38.67-38.67,42.88-15.52,2.39-35-7.58-50.36-2.83-14.77,4.71-45.1,11.26-60.71,12.47C116.42,582.57,104,586,73,576.53,53.44,570.3,8.07,530,34.57,521.79l.9-1.11a39.59,39.59,0,0,1-3.93-8.07l-1.61.57c-4.66.13-10.65.29-15.24,2.41-11.18,5-9.72,9.58-6.17,17.47,1.45,4.62,4,1.22,3.53,7.89.11,4-3.78,7.43-4.35,10.76-2.34,12,3,10.58,10.89,9,5.95-.66,10.38-2.77,14-.22A11.25,11.25,0,0,1,36,564.91c4.21,7.88,1,12,8.52,19.74,8.89,8.41,11.38,2.35,19.47,6.12,7.39,2.46,7,11.79,18.24,10.15,8-.89,12.45-7,20.52-3.89,8.74,3.09,9,13.73,19.63,12.11,9.3-.93,11.69-11,19-12.5,8.61-1.57,14.25,10.26,22.86,8.69,4.64-.8,5.14-6.79,9.12-7.57,4.63-.79,9.43,4.4,14.14,6.26,10.08,3.72,16.69,2.21,23.13-5.95,7.05-9.51,5.64-12.8,18.36-9.82,6.73,2.48,14,2.28,20.72,3.43,4,.55,4.13,4.54,10.09,3.71,4.64-.79,7.87-4.21,11.14-6.3,5.93-2.15,14.62-1.06,19.15-5.17,5.21-4.14,5.65-12.8,9.47-18.9,1.61-2.84.89-4.21,3-6.24a13.3,13.3,0,0,1,1.49-1.2c2.6-2.07,8-.22,10.56-3,6.5-6.16-1.62-10.6,2.17-18,1.91-3.37,7.28-1.53,9.17-5.57C328.38,525,323,523.78,322.92,519.79Z" class="cls-2"/><path data-cppathid="10002" d="M19.93,244.83a29.66,29.66,0,0,1,2.81,4.94,69.11,69.11,0,0,1,4.17,10.48c4.92,15.94,11.72-.74,21.42,2,9.1,2.23,3.36,17.72,12.67,23.29,9.88,5.55,15.72-8.27,24.58-1,5.27,3.59,3.65,13.22,11.63,15.52s12-5.8,16.81-8.9c8.61-5.59,7.25-.46,12.73,6.47,5.44,6.38,16.69-9.75,25.82-11.53,11.57-2.26,9,11.39,28.59,12.59,7.05.43,8.25-11.17,14.85-13.27,7.11-2.69,13.64,3.07,19.4,5.5,6.9,2.93,12.62,4.81,19-.63,5.33-4.26,4.73-13.74,11.89-15.88s9.91,6.1,16.15,7.39c5.85,1.69,22.58-4.15,23.1-23.3,0-.87,0-1.77,0-2.7-.22-4.39,10.29-8,11.91-7.6,10.73,2.62,21.93-7.38-5.33-23.76l-1.49.54c5.58,16.24-19.48,34.61-41.43,38.19-15.55,2.16-34.91-8.08-50.32-3.55C184,264.15,153.6,270.27,138,271.26c-31.85,1.42-44.31,4.7-75.19-5.24-13.25-4.43-38.26-24.81-44.46-39.86C-8.37,235.62,17.48,241.63,19.93,244.83Z" class="cls-2"/><path data-cppathid="10003" d="M14.28,409.08c1.63-.46,12.59,2.37,12.61,6.5,0,.87,0,1.72.11,2.54,1.55,18,19,22.56,24.92,20.67,6.33-1.55,8.72-9.44,16.15-7.81s7.35,10.57,13.05,14.28c6.82,4.78,12.59,2.7,19.52-.42,5.76-2.61,12.14-8.37,19.57-6.22,6.87,1.61,8.73,12.47,15.94,11.68,20-2.19,16.64-14.88,28.62-13.39,9.46,1.18,21.85,15.76,27.08,9.46,5.25-6.81,3.58-11.57,12.7-6.78,5.15,2.66,9.65,10.06,17.71,7.47s5.88-11.55,11.08-15.21c8.69-7.33,15.43,5.34,25.25-.4,9.26-5.74,2.52-20,11.74-22.58,9.79-3.12,17.65,12.2,21.84-3.05a59.77,59.77,0,0,1,3.47-9.54,29.21,29.21,0,0,1,2.86-5.34c2.33-3.14,28.5-10.19.62-17.63-5.54,14.48-30.07,35-43.41,39.87-31.12,11-44.06,8.59-76.78,9-16.06-.09-47.58-4.21-63-7.65-16-3.43-35.32,7.24-51.37,6.05C41.85,418.38,15.21,402.47,20,386.9l-1.55-.46C-8.61,403.31,3.4,412.12,14.28,409.08Z" class="cls-2"/><path data-cppathid="10004" d="M23.75,139.88a32.84,32.84,0,0,0,5.05,1c8.48,1.25,9.56.59,14.43,6.82,4.28,5.67,5.54,8,13,11.07l.63.23c5.2,2,13.23,3.81,17.23,7.55,4.75,4.46,2.85,9.93,8.78,14.91,7.07,5.5,17.67,4.82,25.41,3.14a36,36,0,0,0,3.86-1.67c4.69-2.29,9.34-5.35,14.1-6.59,8.26-2.3,14.66-5.37,21.58-2.24A108.12,108.12,0,0,0,157.94,178c3.6,1.06,7.23,1.52,10.57.41,5.8-1.81,6-3.25,9.41-5.23a25.57,25.57,0,0,1,3-1.46c6-2.16,13.32-2,18,.65a24.19,24.19,0,0,1,3.81,2.38c3.38,2.5,5.39,4.77,11.74,4.37,9.48-.6,9.74-5.37,14.35-12.2,2.47-3.28,4.39-5,6.58-6,2.4-1.09,5.1-1.25,9.19-1.52,6.23-.72,14.1-.61,21.51-1.43,5.83-.64,11.38-1.85,15.66-4.48a11.29,11.29,0,0,0,1.3-1.1c3.68-3.62,5.12-9.74,3.69-15a12.24,12.24,0,0,0-9.51-9l-.37-.22c-.43.71-.79,1.33-1.08,1.79-4.12,5.86-8.23,11.73-16.21,9.43-6.25-1.29-9-9.52-16.15-7.38s-6.56,11.61-11.89,15.87c-6.38,5.44-12.1,3.56-19,.64-5.76-2.45-12.29-8.19-19.4-5.5-6.59,2.09-8.3,10.61-14.85,13.26-19.64,8.52-11.06-15.56-18.22-22.38-15.6-16.39-15.82,15.56-19.35,22-4.53,8.12-11.39,5.75-16.84-.62-5.48-7-4.12-12.07-12.73-6.49-4.85,3.11-8.82,11.21-16.82,8.91s-6.34-11.92-11.62-15.52c-8.86-7.28-14.71,6.53-24.58,1-9.31-5.58-3.57-21.06-12.68-23.29-9.69-2.75-16.48,13.93-21.41-2-.76-3.29.94-11.14-.8-13.34l-.27.21C22.49,108.64,5.65,120.4,12,131.89,14.71,136.07,19.13,138.55,23.75,139.88Z" class="cls-2"/><path data-cppathid="10005" d="M64.53,420.56c16,1.19,35.34-9.48,51.37-6.05,15.45,3.44,47,7.56,63,7.65,32.72-.39,45.66,2,76.78-9,13.34-4.87,37.87-25.39,43.41-39.87,2.61-6.78,1-12.23-7.8-14.13l-1.63-.91c-.46.85-.95,1.68-1.47,2.48l.5.33c2.41,15.15-21.31,27.22-33.14,30.89-19.4,6.31-44.83,3.82-65.06,4.37-17.23.47-34.35,4.89-51.55,6.58-9.89.83-28.83-1.35-43.08-3.51h-.12c-17.21.47-52.6-4.48-68-13.51a14.65,14.65,0,0,1-4.73-4.09l-1,1a15,15,0,0,0-2,4.06C15.21,402.47,41.85,418.38,64.53,420.56Z" class="cls-3"/><path data-cppathid="10006" d="M294.16,460.06l-2.69-.31a23.43,23.43,0,0,1-9,4.45c-4,1.1-8.85,1.32-13.91,1.45v.55c.33,7.75,1.36,17.4-8.42,15.22-5.22-1.08-10-8-12.16-12.43l-.36-1.16a18.28,18.28,0,0,0-8.81,5.65c-4.21,5.1-5.41,11.84-12.53,13.64-4.77,1.2-8,0-11.11-1.76l-.13.2c-7.58,15.69-28.68,16.44-33.44,1.65l-1.57-.06c-7.21,4.93-15.17,7.52-24.12,4.8a34.74,34.74,0,0,1-5.32-2.16l-1.23,2c-5.3,12.51-12.13,3.74-11.89-6v-.15a16.3,16.3,0,0,0-4.4,1c-9.48,3.46-16,9.18-26.57,9.17s-20.09,1.3-24.2-7.92c-3.72-8.32-27-6.25-28.08-23.09a99.78,99.78,0,0,1-10.46-5.11A53.8,53.8,0,0,1,32,451.11L30.6,453a14,14,0,0,0-4.24,2.37c-7.11,5.92-1.49,17.11,8.24,27.72a112.23,112.23,0,0,0,9.55,9.14c8.65,7.36,18.19,13.38,24.89,15.51,31,9.5,64.82,11.66,96.64,9.8,15.61-1.2,27.51-6.88,42.29-11.6,15.34-4.74,31.87-1.26,47.39-3.64a113,113,0,0,0,20.08-5.63,74.64,74.64,0,0,0,16-8.17C302.13,481,306.78,471.14,294.16,460.06Z" class="cls-3"/><path data-cppathid="10007" d="M36.51,182.81c7.71,6.77,16.26,12.24,23.29,14.4,31,9.58,64.66,12.57,96.5,11.16,15.62-1,27.61-6.5,42.45-11,15.39-4.54,31.88-.82,47.43-3a110.67,110.67,0,0,0,26.23-7.8A64.35,64.35,0,0,0,282.54,181c10.75-7.35,15.46-17.14,3-28.35l-1.06-.06c-.43,7.72-5.07,10.7-10,10.37v0c-3.07,10-13.53,12.85-23.28,10.54-5.21-1.16-13.73-7.84-15.78-12.31l-.15-.32c-2.19,1-4.11,2.74-6.58,6-4.61,6.83-4.87,11.6-14.35,12.2-6.35.4-8.36-1.87-11.74-4.37l-.65.5c-2.32,9.76-19.63,7.91-21.19-1.74l-2.91-.33c-3.39,2-3.61,3.42-9.41,5.23-3.34,1.11-7,.65-10.57-.41l-.06.18c-.76,16.56-33.26,24.41-45.63,4.9l-.08-.14a36,36,0,0,1-3.86,1.67C100.57,186.32,90,187,82.9,181.5c-5.93-5-4-10.45-8.78-14.91-4-3.74-12-5.58-17.23-7.55l-.12.32c-20.92,11-34.63-5.67-28-17.85l.07-.59a32.84,32.84,0,0,1-5.05-1l-.09.31C10,145,15.3,159.51,26.61,172.79A99.47,99.47,0,0,0,36.51,182.81Z" class="cls-3"/><path data-cppathid="10008" d="M299.51,502c-1-5.21-2.89-10-5.89-13.44l-2.2-.08a74.64,74.64,0,0,1-16,8.17l2.28,1.05c-1.42,20.67-24.66,22.64-39.29,23-18,.49-36.56,1.66-52.33,8.75-16.44,7.11-24.49,5.32-42.53,2.5-14-2.28-28.61.11-42.65-2.17-22.07-4.05-54.11-7.83-58.86-35.65l2.09-2a112.23,112.23,0,0,1-9.55-9.14l-.46,1.16a33.41,33.41,0,0,0-2.6,28.34,39.59,39.59,0,0,0,3.93,8.07c.6,1,1.25,1.9,1.94,2.81a47.24,47.24,0,0,0,10.64,10.27c20.69,13.88,51.29,8.43,74.24,7.85,35-.92,69.35,10.57,104.24,9.28l.93,0c16.76-.7,50.81-8.4,65.13-19A12,12,0,0,0,296,528.2C299.81,522.13,301.22,511.43,299.51,502Z" class="cls-4"/><path data-cppathid="10009" d="M112.66,355.94c15.46,3.43,28,8,44.09,8.05,32.73-.38,67.2-4.67,98.31-15.68,6.63-2.43,15.1-8.14,22.49-15.23a77.71,77.71,0,0,0,10-11.61c8.06-11.61,10.72-24.09-.91-31.6l-.84-.28a55.19,55.19,0,0,1-14.29,14c-14.93,10.45-37.46,18.22-54.63,20.29-32.84,3.95-61.45,3.1-97.77,3.6-23.65.31-59.68-9.92-80.77-24.05a52.14,52.14,0,0,1-18.3-23.28l-1.8,1.43c-15.89,15.62-7.22,36.41,7.79,52,11.64,12.09,27.07,21.06,37.83,22.09C79.94,356.88,96.64,352.5,112.66,355.94Z" class="cls-4"/><path data-cppathid="10010" d="M303.09,558.85l-.59-.07c-2.08,2-1.36,3.4-3,6.24-3.82,6.1-4.26,14.76-9.47,18.9-4.53,4.11-13.22,3-19.15,5.17-3.27,2.09-6.5,5.51-11.14,6.3-6,.83-6.07-3.16-10.09-3.71-6.68-1.15-14-.95-20.72-3.43-12.72-3-11.31.31-18.36,9.82-6.44,8.16-13,9.67-23.13,5.95-4.71-1.86-9.51-7-14.14-6.26-4,.78-4.48,6.77-9.12,7.57-8.61,1.57-14.25-10.26-22.86-8.69-7.27,1.53-9.66,11.57-19,12.5-10.6,1.62-10.89-9-19.63-12.11-8.07-3.11-12.56,3-20.52,3.89C71,602.56,71.39,593.23,64,590.77c-8.09-3.77-10.58,2.29-19.47-6.12C37,576.87,40.22,572.79,36,564.91a11.25,11.25,0,0,0-3.42-4.39l-.9,1.16c-10.74,18.08.94,41.37,17.4,52.59,21.29,13.83,57.46,23.55,81.1,22.91,36.32-1,64.92-.55,97.71-5,17.14-2.31,39.57-10.4,54.35-21.06C291.6,605.09,322,594.77,303.09,558.85Z" class="cls-5"/><path data-cppathid="10011" d="M32,451.11a53.8,53.8,0,0,0,11.82,8.64,99.78,99.78,0,0,0,10.46,5.11,151.3,151.3,0,0,0,46.64,11c33.87,1.94,63.14-.4,100.39-1.88,24.25-1,60.63-12.55,81.5-27a50.66,50.66,0,0,0,7.21-6.38A49.68,49.68,0,0,0,298.21,429c5.31-10.62,6.13-22.71-1.22-32.49l-1.35-.19a59.77,59.77,0,0,0-3.47,9.54c-4.19,15.25-12.05-.07-21.84,3.05-9.22,2.58-2.48,16.84-11.74,22.58-9.82,5.74-16.56-6.93-25.25.4-5.2,3.66-3,12.62-11.08,15.21s-12.56-4.81-17.71-7.47c-9.12-4.79-7.45,0-12.7,6.78-5.23,6.3-17.62-8.28-27.08-9.46-12-1.49-8.64,11.2-28.62,13.39-7.21.79-9.07-10.07-15.94-11.68-7.43-2.15-13.81,3.61-19.57,6.22-6.93,3.12-12.7,5.2-19.52.42-5.7-3.71-5.6-12.67-13.05-14.28s-9.82,6.26-16.15,7.81C46,440.68,28.55,436.09,27,418.12l-.71.06c-6.73,7.19-6.36,14.88-2.95,21.73A41.85,41.85,0,0,0,32,451.11Z" class="cls-5"/><path data-cppathid="10012" d="M38.37,303.43c21.09,14.13,57.12,24.36,80.77,24.05,36.32-.5,64.93.35,97.77-3.6,17.17-2.07,39.7-9.84,54.63-20.29a55.19,55.19,0,0,0,14.29-14c6.47-9.22,10-21,.41-31l-.69,0c-.52,19.15-17.25,25-23.1,23.3-6.24-1.29-9-9.52-16.15-7.39s-6.56,11.62-11.89,15.88c-6.38,5.44-12.1,3.56-19,.63-5.76-2.43-12.29-8.19-19.4-5.5-6.6,2.1-7.8,13.7-14.85,13.27-19.55-1.2-17-14.85-28.59-12.59-9.13,1.78-20.38,17.91-25.82,11.53-5.48-6.93-4.12-12.06-12.73-6.47-4.85,3.1-8.82,11.19-16.81,8.9s-6.36-11.93-11.63-15.52c-8.86-7.28-14.7,6.54-24.58,1-9.31-5.57-3.57-21.06-12.67-23.29-9.7-2.75-16.5,13.93-21.42-2a69.11,69.11,0,0,0-4.17-10.48l-1,.83c-5.63,9.19-5.4,19.82-1.63,29.55A52.14,52.14,0,0,0,38.37,303.43Z" class="cls-5"/><path data-cppathid="10013" d="M49.62,111.23l2.22-.08c13-26.57,17.22,1.14,6.83,5.16l-.8.46c1.57,2.72,2.07,6,4.17,9.31,3.84,7.59,7.22,7.94,15,6.34,8.85-1.68,8.25-2.21,16.32,1.2,6.34,3,9.1,2.23,15.83,2.37,6.17.17,11.9,2.06,17.51,2.25,14.58.21,16.28-17.26,31.63-13.75,7.39,1.78,10,7.21,15.73,9.65,5.2,2.47,9.07,1.68,15.14.17,11-2.94,23.23-4.83,34.21-8.32,5.51-1.47,10.81-6.29,16.35-7.2,5-.87,10.22,2.16,16.32,1.21,4.67-.8,18.34-6.61,18.42-11.83h.45c2.29-25.91-7.14-51.09-29.93-65.9-7-4.6-60.67-38.19-72.5-39.12-23.64-2.28-48.27-1.72-70.27,7l.65,1.63C101,19.17,90,30.72,87.05,27.52c-1.9-2.11-2.21-5.76,1.34-10.49C70.54,27.44,51.17,43,39.78,61.74l.88.3c5.89,4.67-.78,22.27-8.84,18.86l-.26-.07c-.11.42-.21.84-.31,1.25a64.81,64.81,0,0,0-1.6,10.18l-1.1.44c2.77,4.09,3.63,10.38,7.08,14.31C40.71,113.46,43.72,109.89,49.62,111.23Zm196.45-7.4c-5.34,4.26-13.92-7.53-10.26-11.67C240.52,86.82,247.69,98,246.07,103.83ZM232.86,54.24c5-.31,8.52,6.18,8.8,10.65C235,65.31,223.38,54.83,232.86,54.24Zm-37.68-29c5.47-2,16,5.72,15.21,10.25C203,43.24,184.26,29.86,195.18,25.24Zm-7.24,36.32c7.82-.5,9.56,9.48,7.13,15.24l-.53.58C184.08,80.29,176.78,62.26,187.94,61.56ZM171.86,108.5c5.75-6.52,12.59,4.26,13.47,9.24C186.58,129.69,166.66,115,171.86,108.5ZM145.93,79.33l1.52-.47c1.78,4.92,3.19,14.18-3.43,14.6C135.09,94,137.55,79.86,145.93,79.33ZM120.45,57.4l.59.53c.85,4.42-1.91,14.12-8.22,11.73C105.36,66.76,114.18,55.56,120.45,57.4Zm-9.67,51c7.88.62,2.87,9.9-.3,12.9l-2.63.76C102.18,118.9,103.85,107.82,110.78,108.44ZM94.38,88.18c4.64,2.51-.83,13.5-4.63,15.42l-2,.13C84.63,98.79,86.57,83.83,94.38,88.18ZM77.94,58.41c.84,4.42-6.79,16.82-9.68,15C60.27,71.09,70,56.1,77.94,58.41Z" class="cls-5"/><path data-cppathid="10014" d="M298,528.19h-2a12,12,0,0,1-3.37,3.64c-14.32,10.62-48.37,18.32-65.13,19l-.93,0v.27c-13.91,3.49-30.13,6.61-40.81,6.4-16.84-.6-33.79-4.09-50.57-3.39-19.68.81-44.24,5.22-63.54-.12C59.86,551,36,539.85,37.22,523.63l.19-.14c-.69-.91-1.34-1.85-1.94-2.81l-.9,1.11C8.07,530,53.44,570.3,73,576.53c31,9.49,43.43,6,75.25,4.18,15.61-1.21,45.94-7.76,60.71-12.47,15.34-4.75,34.84,5.22,50.36,2.83C283.1,566.86,310.32,545.13,298,528.19Z" class="cls-6"/><path data-cppathid="10015" d="M139,402.92c17.2-1.69,34.32-6.11,51.55-6.58,20.23-.55,45.66,1.94,65.06-4.37,11.83-3.67,35.55-15.74,33.14-30.89l-.5-.33a40.56,40.56,0,0,1-9.89,10.59c-20.24,14.42-52,11.35-75.5,12.35-36.12,1.48-70.81,14.76-106.94,15.72C110.14,401.57,129.08,403.75,139,402.92Z" class="cls-6"/><path data-cppathid="10016" d="M238.18,226.58c14.5-1.36,45.13-15.78,33-33.86l-2.39-.09c-7.61,7.53-23.18,12.1-30.83,13.55-12.17,2.56-24.3,5.7-37.06,7.69q-3.35.56-6.71,1l.08,1.31C209,221.56,221.75,228,238.18,226.58Z" class="cls-6"/><path data-cppathid="10017" d="M111.35,371.58c2.3.23,4.61.4,6.92.55,27.59,1.67,55.61-2.59,82.63-4,19.52-1,79.23-4.05,79-33.67l-2.35-1.39c-7.39,7.09-15.86,12.8-22.49,15.23-31.11,11-65.58,15.3-98.31,15.68-16.06-.09-28.63-4.62-44.09-8.05-16-3.44-32.72.94-48.77-.26-10.76-1-26.19-10-37.83-22.09l-.38.36a24.62,24.62,0,0,0,4,13,30.26,30.26,0,0,0,8.55,8.47C50,363.5,66.84,365.61,73,366.34,85.56,368.08,98.16,370.39,111.35,371.58Z" class="cls-7"/><path data-cppathid="10018" d="M255.36,502.32c-15.52,2.38-32.05-1.1-47.39,3.64-14.78,4.72-26.68,10.4-42.29,11.6-31.82,1.86-65.63-.3-96.64-9.8-6.7-2.13-16.24-8.15-24.89-15.51l-2.09,2c4.75,27.82,36.79,31.6,58.86,35.65,14,2.28,28.61-.11,42.65,2.17,18,2.82,26.09,4.61,42.53-2.5,15.77-7.09,34.37-8.26,52.33-8.75,14.63-.4,37.87-2.37,39.29-23l-2.28-1.05A113,113,0,0,1,255.36,502.32Z" class="cls-7"/><path data-cppathid="10019" d="M61.73,243.53c19.22,5.62,43.83,1.54,63.52,1,16.8-.46,33.7,3.28,50.52,4.11,10.68.36,16.41-2.16,30.37-5.44l0-.77c-31.3-1.37-62.16-11-93.6-10.63-23,.26-53.64,5.28-74.13-8.88A47,47,0,0,1,28,212.48l-.2.15C26.28,228.82,50,240.3,61.73,243.53Z" class="cls-7"/><path data-cppathid="10020" d="M138,271.26c15.62-1,46-7.11,60.87-11.62,15.41-4.53,34.77,5.71,50.32,3.55,22-3.58,47-21.95,41.43-38.19a16.65,16.65,0,0,0-2.16-4.15l-1.95-.12a12.12,12.12,0,0,1-3.5,3.7c-14.47,10.42-48.61,17.63-65.39,18.09-3.82.12-7.62.07-11.42-.09l0,.77c-14,3.28-19.69,5.8-30.37,5.44-16.82-.83-33.72-4.57-50.52-4.11-19.69.54-44.3,4.62-63.52-1-11.71-3.23-35.45-14.71-34-30.9l.2-.15c-.6-.8-1.16-1.63-1.68-2.47l-1.15.74c-8.48,2.5-9.7,8.37-6.8,15.41,6.2,15.05,31.21,35.43,44.46,39.86C93.67,276,106.13,272.68,138,271.26Z" class="cls-8"/><path data-cppathid="10021" d="M291.86,441.23c-.53-.14-1.11-.28-1.72-.4l-.17-.15a50.66,50.66,0,0,1-7.21,6.38c-20.87,14.41-57.25,26-81.5,27-37.25,1.48-66.52,3.82-100.39,1.88a151.3,151.3,0,0,1-46.64-11c1,16.84,24.36,14.77,28.08,23.09,4.11,9.22,13.66,7.91,24.2,7.92s17.09-5.71,26.57-9.17a16.3,16.3,0,0,1,4.4-1c5-.4,8.7,1.95,13.13,4.09a34.74,34.74,0,0,0,5.32,2.16c8.95,2.72,16.91.13,24.12-4.8.73-.49,1.44-1,2.14-1.54,7.25-5.5,15.69-8.87,24.68-5,3.23,1.38,5.74,3.3,8.32,4.79,3.12,1.79,6.34,3,11.11,1.76,7.12-1.8,8.32-8.54,12.53-13.64a18.28,18.28,0,0,1,8.81-5.65c6.2-2,13.77-2,20.93-2.18,5.06-.13,9.91-.35,13.91-1.45a23.43,23.43,0,0,0,9-4.45,15.6,15.6,0,0,0,5.18-8.46C298,445.54,297,442.69,291.86,441.23Z" class="cls-8"/><path data-cppathid="10022" d="M274.55,163c4.89.33,9.53-2.65,10-10.37a1.48,1.48,0,0,1,0-.21H283a11.29,11.29,0,0,1-1.3,1.1c-4.28,2.63-9.83,3.84-15.66,4.48l.1,1A13,13,0,0,0,274.55,163Z" class="cls-8"/><path data-cppathid="10023" d="M113.6,215.21c26.36,0,53.85,2.94,80.59-.37q3.36-.42,6.71-1c12.76-2,24.89-5.13,37.06-7.69,7.65-1.45,23.22-6,30.83-13.55a15.16,15.16,0,0,0,3.79-5.68l-.17-.38a110.67,110.67,0,0,1-26.23,7.8c-15.55,2.18-32-1.54-47.43,3-14.84,4.5-26.83,10-42.45,11-31.84,1.41-65.51-1.58-96.5-11.16-7-2.16-15.58-7.63-23.29-14.4l-1.64,1.11C36.29,215.34,94.55,215.23,113.6,215.21Z" class="cls-8"/><path data-cppathid="10024" d="M122.29,541.61c-23,.58-53.55,6-74.24-7.85a47.24,47.24,0,0,1-10.64-10.27l-.19.14C36,539.85,59.86,551,71.61,554.05c19.3,5.34,43.86.93,63.54.12,16.78-.7,33.73,2.79,50.57,3.39,10.68.21,26.9-2.91,40.81-6.4v-.27C191.64,552.18,157.24,540.69,122.29,541.61Z" class="cls-8"/><path data-cppathid="10025" d="M157.88,178.21l.06-.18a108.12,108.12,0,0,1-10.09-3.89c-6.92-3.13-13.32-.06-21.58,2.24-4.76,1.24-9.41,4.3-14.1,6.59l.08.14C124.62,202.62,157.12,194.77,157.88,178.21Z" class="cls-8"/><path data-cppathid="10026" d="M68.29,377c16.93.45,35.2,2.21,50-3.68v-1.23c-2.31-.15-4.62-.32-6.92-.55-13.19-1.19-25.79-3.5-38.39-5.24-6.12-.73-22.94-2.84-34.76-10.89l0,0C26.72,373.13,53.35,376.53,68.29,377Z" class="cls-8"/><path data-cppathid="10027" d="M299.8,429.26l-1.59-.3A49.68,49.68,0,0,1,290,440.68l.17.15c.61.12,1.19.26,1.72.4l0-.06C301.16,443.79,312.75,434,299.8,429.26Z" class="cls-9"/><path data-cppathid="10028" d="M28,212.48a47,47,0,0,0,10.49,10.44c20.49,14.16,51.18,9.14,74.13,8.88,31.44-.4,62.3,9.26,93.6,10.63,3.8.16,7.6.21,11.42.09,16.78-.46,50.92-7.67,65.39-18.09a12.12,12.12,0,0,0,3.5-3.7c6-9.41,6.43-29.88-1.86-39.53l-2.09-.18a64.35,64.35,0,0,1-10.13,5.55l.17.38a15.16,15.16,0,0,1-3.79,5.68l2.39.09c12.13,18.08-18.5,32.5-33,33.86-16.43,1.41-29.21-5-43.91-10.43l-.08-1.31c-26.74,3.31-54.23.36-80.59.37-19,0-77.31.13-78.73-31.29l1.64-1.11a99.47,99.47,0,0,1-9.9-10l-1.38.45c-7.33,12.35-5.8,25.82,1.05,36.77C26.8,210.85,27.36,211.68,28,212.48Z" class="cls-9"/><path data-cppathid="10029" d="M288,321.72l-.37-.25a77.71,77.71,0,0,1-10,11.61l2.35,1.39c.23,29.62-59.48,32.65-79,33.67-27,1.4-55,5.66-82.63,4v1.23c-14.77,5.89-33,4.13-50,3.68-14.94-.51-41.57-3.91-30.11-21.57l0,0A30.26,30.26,0,0,1,29.65,347l-.62.4c-13.44,10.8-12.2,26.38-6,34.44a14.65,14.65,0,0,0,4.73,4.09c15.39,9,50.78,14,68,13.51h.12c36.13-1,70.82-14.24,106.94-15.72,23.54-1,55.26,2.07,75.5-12.35a40.56,40.56,0,0,0,9.89-10.59c.52-.8,1-1.63,1.47-2.48C295.88,346.93,296.19,333,288,321.72Z" class="cls-9"/><path data-cppathid="10030" d="M235.34,160.93l.15.32c2,4.47,10.57,11.15,15.78,12.31,9.75,2.31,20.21-.57,23.28-10.54v0a13,13,0,0,1-8.41-4l-.1-1c-7.41.82-15.28.71-21.51,1.43C240.44,159.68,237.74,159.84,235.34,160.93Z" class="cls-9"/><path data-cppathid="10031" d="M268.57,465.65c-7.16.19-14.73.18-20.93,2.18L248,469c2.12,4.44,6.94,11.35,12.16,12.43,9.78,2.18,8.75-7.47,8.42-15.22Z" class="cls-9"/><path data-cppathid="10032" d="M22.71,440s-8.8,2.49-10.4,5.06c-2,3.29-2.19,6.54,2.68,9.34,4.58,2.74,12.79.89,17.36-.95l1-.6C30.18,447.18,27.86,445,22.71,440Z" class="cls-9"/><path data-cppathid="10033" d="M235.81,92.16c-3.66,4.14,4.92,15.93,10.26,11.67C247.69,98,240.52,86.82,235.81,92.16Z" class="cls-9"/><path data-cppathid="10034" d="M241.66,64.89c-.28-4.47-3.77-11-8.8-10.65C223.38,54.83,235,65.31,241.66,64.89Z" class="cls-9"/><path data-cppathid="10035" d="M40.66,62l-.88-.3a70.42,70.42,0,0,0-8.22,19.09l.26.07C39.88,84.31,46.55,66.71,40.66,62Z" class="cls-9"/><path data-cppathid="10036" d="M56.77,159.36l.12-.32-.63-.23c-7.49-3.1-8.75-5.4-13-11.07-4.87-6.23-5.95-5.57-14.43-6.82l-.07.59C22.14,153.69,35.85,170.36,56.77,159.36Z" class="cls-9"/><path data-cppathid="10037" d="M57.87,116.77l.8-.46c10.39-4,6.22-31.73-6.83-5.16l-2.22.08c.45.11.92.25,1.42.41C54.79,112.87,56.65,114.66,57.87,116.77Z" class="cls-9"/><path data-cppathid="10038" d="M102.87,11.83l-.65-1.63a92.6,92.6,0,0,0-12.37,6L88.39,17c-3.55,4.73-3.24,8.38-1.34,10.49C90,30.72,101,19.17,102.87,11.83Z" class="cls-9"/><path data-cppathid="10039" d="M94.38,88.18c-7.81-4.35-9.75,10.61-6.66,15.55l2-.13C93.55,101.68,99,90.69,94.38,88.18Z" class="cls-9"/><path data-cppathid="10040" d="M68.26,73.39c2.89,1.84,10.52-10.56,9.68-15C70,56.1,60.27,71.09,68.26,73.39Z" class="cls-9"/><path data-cppathid="10041" d="M144,93.46c6.62-.42,5.21-9.68,3.43-14.6l-1.52.47C137.55,79.86,135.09,94,144,93.46Z" class="cls-9"/><path data-cppathid="10042" d="M137.48,485.7v.15c-.24,9.71,6.59,18.48,11.89,6l1.23-2C146.18,487.65,142.46,485.3,137.48,485.7Z" class="cls-9"/><path data-cppathid="10043" d="M112.82,69.66c6.31,2.39,9.07-7.31,8.22-11.73l-.59-.53C114.18,55.56,105.36,66.76,112.82,69.66Z" class="cls-9"/><path data-cppathid="10044" d="M107.85,122.1l2.63-.76c3.17-3,8.18-12.28.3-12.9C103.85,107.82,102.18,118.9,107.85,122.1Z" class="cls-9"/><path data-cppathid="10045" d="M180.88,171.75a25.57,25.57,0,0,0-3,1.46l2.91.33c1.56,9.65,18.87,11.5,21.19,1.74l.65-.5a24.19,24.19,0,0,0-3.81-2.38C194.2,169.73,186.91,169.59,180.88,171.75Z" class="cls-9"/><path data-cppathid="10046" d="M194.54,77.38l.53-.58c2.43-5.76.69-15.74-7.13-15.24C176.78,62.26,184.08,80.29,194.54,77.38Z" class="cls-9"/><path data-cppathid="10047" d="M185.33,117.74c-.88-5-7.72-15.76-13.47-9.24C166.66,115,186.58,129.69,185.33,117.74Z" class="cls-9"/><path data-cppathid="10048" d="M210.39,35.49c.83-4.53-9.74-12.28-15.21-10.25C184.26,29.86,203,43.24,210.39,35.49Z" class="cls-9"/><path data-cppathid="10049" d="M182.19,485.61c-.7.54-1.41,1.05-2.14,1.54l1.57.06c4.76,14.79,25.86,14,33.44-1.65l.13-.2c-2.58-1.49-5.09-3.41-8.32-4.79C197.88,476.74,189.44,480.11,182.19,485.61Z" class="cls-9"/><path data-cppathid="10050" d="M198.63,38.69a16,16,0,0,0,5.77,1.17,10,10,0,0,0,7.44-3,2,2,0,0,0,.52-1c.46-2.54-1.18-5.6-4.51-8.39-3.72-3.13-9.3-5.6-13.45-4.06-4,1.69-4.57,4.38-4.56,5.84C189.9,33.39,194.44,37.05,198.63,38.69Zm-2.76-11.57a4,4,0,0,1,1.33-.21c2.23,0,5.42,1.38,8.08,3.61,2,1.72,2.92,3.22,3.11,4.1-2.81,2.23-7,.85-8.3.35-3.71-1.46-6.22-4.17-6.25-5.79C193.83,28.39,194.54,27.68,195.87,27.12Z" class="cls-10"/><path data-cppathid="10051" d="M192.24,79.7a10.74,10.74,0,0,0,2.84-.39,2,2,0,0,0,1.19-.91,2.08,2.08,0,0,0,.64-.82c1.67-4,1.81-10.13-1.14-14.29a8.74,8.74,0,0,0-8-3.73c-4.51.29-6.24,2.89-6.87,4.42-1.39,3.38-.21,8.17,2.87,11.65A11.24,11.24,0,0,0,192.24,79.7Zm-7.6-14.2c.49-1.18,1.64-1.83,3.42-2h.44a4.64,4.64,0,0,1,4,2.06c1.72,2.43,2.08,6.73.88,10-3.3.59-5.69-1.61-6.59-2.63C184.76,70.67,183.83,67.46,184.64,65.5Z" class="cls-10"/><path data-cppathid="10052" d="M182.57,124.28a5.19,5.19,0,0,0,1.85-.33c1.28-.49,3.36-2,2.89-6.42,0,0,0-.09,0-.14-.67-3.75-4.49-11.19-9.75-12.67-2.59-.73-5.15.15-7.25,2.54-2.06,2.57-1.68,6.17,1,9.89C173.78,120.48,178.64,124.28,182.57,124.28Zm-9.21-14.45a3.22,3.22,0,0,1,2.39-1.37,2.59,2.59,0,0,1,.72.11c3,.85,6.28,6.29,6.87,9.45.14,1.36-.09,2.09-.36,2.2-1.34.52-5.72-1.77-8.41-5.43C173.83,113.77,172.23,111.25,173.36,109.83Z" class="cls-10"/><path data-cppathid="10053" d="M143.55,95.48l.59,0a6.62,6.62,0,0,0,5.34-3c3.08-4.71.41-12.75-.16-14.33-.19-.51-.38-1-.57-1.4a2,2,0,0,0-3.81.67c-5.44.87-8.84,6.45-8.54,11.28A6.83,6.83,0,0,0,143.55,95.48Zm2.51-14.15h.07c.93,3.38,1.2,7.16,0,9a2.56,2.56,0,0,1-2.24,1.16c-2.18.14-3.37-.87-3.5-3C140.21,85.64,142.28,81.57,146.06,81.33Z" class="cls-10"/><path data-cppathid="10054" d="M112.11,71.53a7.46,7.46,0,0,0,2.62.5A6.53,6.53,0,0,0,119,70.45c3.61-3,4.69-9.55,4.06-12.9a4.22,4.22,0,0,0-2-2.07c-5-1.46-11,3.14-12.61,7.92C107.16,67,108.58,70.15,112.11,71.53Zm.08-6.85c.9-2.65,4.19-5.48,6.81-5.48h.18c.12,2.54-.84,6.54-2.8,8.18a2.57,2.57,0,0,1-2.83.41C112.49,67.38,111.51,66.69,112.19,64.68Z" class="cls-10"/><path data-cppathid="10055" d="M67.48,75.24a3.18,3.18,0,0,0,1.43.33,4.68,4.68,0,0,0,2.61-.91c4-2.74,9.24-12.13,8.39-16.63a2,2,0,0,0-1.42-1.55c-3.37-1-7.19.3-10.49,3.49-2.94,2.82-5.48,7.37-4.54,11.14A5.72,5.72,0,0,0,67.48,75.24Zm3.29-12.4a8.69,8.69,0,0,1,5.16-2.66c-.68,3.73-5,10.59-6.93,11.35l-.19-.07c-1.08-.31-1.35-.86-1.46-1.31C66.9,68.34,68.4,65.13,70.77,62.84Z" class="cls-10"/><path data-cppathid="10056" d="M86.56,105.52a2,2,0,0,0,1.55.75,2,2,0,0,0,1.26-.45,2.5,2.5,0,0,0,.23-.23,1.91,1.91,0,0,0,1.06-.21c3.58-1.81,7.44-8.74,7.5-13.48a5.73,5.73,0,0,0-2.81-5.47c-2.93-1.63-5.8-1.31-7.89.88-3.77,4-4,13.36-1.43,17.49A5.57,5.57,0,0,0,86.56,105.52Zm3.8-15.46a1.86,1.86,0,0,1,1.38-.67,3.48,3.48,0,0,1,1.69.55c.19.1.75.4.73,1.91,0,3.63-3.26,8.77-5.19,9.9C87.79,98.57,88.18,92.36,90.36,90.06Z" class="cls-10"/><path data-cppathid="10057" d="M106.85,123.83a7.87,7.87,0,0,0,1.37.62,1.91,1.91,0,0,0,.66.11,2,2,0,0,0,1.85-1.24,2,2,0,0,0,1.12-.53c2.42-2.28,6.31-8.31,4.8-12.59-.54-1.55-2-3.46-5.69-3.76s-6.81,1.89-8,5.79S102.69,121.48,106.85,123.83Zm-.1-10.41a3.77,3.77,0,0,1,3.5-3l.37,0c1.93.15,2.18.86,2.26,1.1.65,1.85-1.57,6.28-3.78,8.35a2.36,2.36,0,0,0-.34.44C106.56,119,106,115.8,106.75,113.42Z" class="cls-10"/><path data-cppathid="10058" d="M234.32,90.83c-2.83,3.2-.94,8.88,2.53,12.53,2.11,2.22,4.48,3.37,6.68,3.37a6,6,0,0,0,3.78-1.34,2,2,0,0,0,.69-1c1.32-4.78-2-12.41-6.49-14.82A5.56,5.56,0,0,0,234.32,90.83Zm10,11.76c-1.75.71-3.87-1.29-4.52-2-2.51-2.64-3.39-6.06-2.44-7.13a1.74,1.74,0,0,1,1.3-.74,2.19,2.19,0,0,1,1,.31C242.27,94.49,244.61,99.45,244.27,102.59Z" class="cls-10"/><path data-cppathid="10059" d="M241.26,66.9l.53,0a2,2,0,0,0,1.87-2.12c-.35-5.49-4.68-12.92-10.93-12.51-2.6.16-4.31,1-5.07,2.55-.49,1-.76,2.62.72,4.85C230.72,63.18,236.61,66.9,241.26,66.9ZM233,56.24c2.78-.18,5.21,3.11,6.21,6.32a16.23,16.23,0,0,1-6.28-3.73,5.56,5.56,0,0,1-1.62-2.24A4.2,4.2,0,0,1,233,56.24Z" class="cls-10"/><path data-cppathid="10060" d="M326.27,522.44a5,5,0,0,1-1.35-2.7.61.61,0,0,0,0-.14c-.31-3.09.93-5.27,2-7.19s2.06-3.63,1.32-5.7c-.67-1.85-2.58-3.26-6.45-4.72-3-1-6.36-1.12-9.63-1.2-3.09-.08-6-.15-8.4-1a1.71,1.71,0,0,0-.71-.11l-2,.05h0a29.2,29.2,0,0,0-5.49-11.91c5.15-4.32,7.9-8.92,8.15-13.71.29-5.28-2.49-10.53-8.25-15.58l-.08-.06a17.62,17.62,0,0,0,3.19-6.75c.71-2.93,1.05-6-.36-8.46,4.24-.85,8-3.37,9-6.68.45-1.38,1.26-6-6.24-9,5.11-11.74,4.25-23.41-2.46-32.34a1.54,1.54,0,0,0-.17-.19,18.18,18.18,0,0,1,1.67-2.92,24.57,24.57,0,0,1,3.76-2.18c4.67-2.42,10.48-5.43,10-9.79-.36-3.3-4.13-5.87-12.19-8.24.94-3.42.77-6.38-.55-8.81-1.51-2.79-4.46-4.72-8.73-5.76,5.88-12.15,5.05-25.43-2.29-36.06,5.2-7.92,7.31-15.32,6.1-21.46a17.53,17.53,0,0,0-7.48-11c7.55-11.89,7.23-23.09-1-31.7a.63.63,0,0,0-.13-.11c0-.43,0-.87,0-1.33a2.29,2.29,0,0,1,.81-1.44c2.33-2.38,7.53-4.07,8.74-4.09,6.06,1.44,11.72-.6,13.48-4.88,1.49-3.62,1.21-11.37-17.42-22.57a2,2,0,0,0-1.4-.24,20,20,0,0,0-1.65-2.81,2.14,2.14,0,0,0-.48-.47c5-10.67,4.77-29-3-38.75,5.21-4.25,8-8.82,8.34-13.61.36-5.27-2.35-10.54-8-15.68l-.27-.19A18.16,18.16,0,0,0,289,138.9a1.9,1.9,0,0,0,1-.48c3.06-2.77,14.28-15.07,13.32-24.61a9.78,9.78,0,0,0-5-7.64c-4.82-2.94-11.57-1.81-17.52-.82-1.3.22-2.56.43-3.74.58,1.71-27.64-9.51-51.36-31-65.33-.59-.39-60-38.38-73.4-39.44-29.24-2.82-51.87-.53-71.21,7.18a94.87,94.87,0,0,0-12.62,6.11l-1,.56-.24.14a1.7,1.7,0,0,0-.45.26c-12.61,7.37-35.59,23-49.14,45.29a72.53,72.53,0,0,0-8.45,19.63c-.09.36-.18.72-.26,1.08l0,.16A52.63,52.63,0,0,0,28,89.09c-2.79-2.32-6.5-3-11.26-1.92-5.63,1.17-9.4,7.29-9.67,12.28-.23,4.25,1.94,7.53,5.8,8.76a10.73,10.73,0,0,0,1.72.41,2,2,0,0,0,2-1,2,2,0,0,0,.76-1.22c.12-.67.48-1.83,1.48-2.07a2.38,2.38,0,0,1,1.91.52,34.08,34.08,0,0,1-3.08,4c-4.69,5.52-12.54,14.77-7.43,24,0,.05,0,.09.07.13A20.54,20.54,0,0,0,19,140.25,11.72,11.72,0,0,0,14,147.09c-2.24,8.34,4.41,18.68,9.56,25.11,0,0,0,0,0,0-6.84,11.51-6.81,24.88,0,37-3.7,1.3-6.26,3.34-7.57,6.08s-1.33,6-.14,9.7c-7.68,2.94-11.24,5.84-11.44,9.28-.26,4.54,5.57,7.42,10.25,9.73a21.18,21.18,0,0,1,3.81,2.14,20,20,0,0,1,1.84,3.11,2.43,2.43,0,0,0-.24.32c-5.31,8.65-6.08,19.3-2.24,30.11a1.93,1.93,0,0,0-.9.5c-14.24,14-11.65,34,6.83,53.82v0A27,27,0,0,0,27,346.47c-13.26,11.27-12,26.63-6.55,35.12l-.1.12a18.05,18.05,0,0,0-1.55,2.77,2,2,0,0,0-1.41.26C-.72,396-.93,403.4.56,406.78c1.83,4.15,7.91,6,14.17,4.25,1.29-.08,7.09,1.39,9.45,3.53.52.47.71.84.71,1,0,.4,0,.78,0,1.15l-.08.08c-5.91,6.31-7.37,13.74-4.31,21.61-5,1.3-11.65,5.55-11.6,10.67a6.88,6.88,0,0,0,2.31,5.74c2.45,2.21,6.43,3,10.25,3h.59a10.63,10.63,0,0,0-.88,3.65c-.49,7.32,5.56,15.86,11.09,22.06A35,35,0,0,0,29,511.21c-4.76.13-10.45.41-15.11,2.55-5.33,2.37-8.23,4.78-9.39,7.82-1.41,3.68.07,7.54,2.16,12.2a6.48,6.48,0,0,0,2.89,3.88c.42.26.72.46.52,3.15a.67.67,0,0,0,0,.2c0,1.69-1,3.44-2.09,5.29a15.65,15.65,0,0,0-2.24,5C4.66,556.86,5,560.19,7,562.11c2.48,2.47,6.51,1.67,11.17.76l.76-.15c1.71-.2,3.3-.5,4.71-.77,2.6-.5,4.45-.81,6-.55C19.07,580.2,30.8,604.22,48,616c20.44,13.27,55,23.27,79.86,23.26.8,0,1.6,0,2.38,0,7.83-.22,15.31-.37,22.54-.51,26.59-.54,49.55-1,75.38-4.47,18.8-2.54,41-11.14,55.16-21.36,1.09-.7,2.5-1.49,4.14-2.39,11.21-6.19,34.41-19,18-51.43a9.32,9.32,0,0,1,3.53-.64c2.38-.16,5.08-.34,7-2.34,4.35-4.15,3.28-8.06,2.42-11.2-.67-2.48-1.26-4.62.08-7.26.46-.81,1.46-1.1,3.06-1.5,2-.52,4.79-1.22,6.22-4.29C329.69,527,327.71,524.38,326.27,522.44ZM216.19,483.63c-.81-.47-1.62-1-2.44-1.51a40.56,40.56,0,0,0-6.09-3.39c-8.39-3.57-17.36-1.79-26.68,5.29-.7.54-1.36,1-2,1.48-7.74,5.28-15.07,6.77-22.42,4.54a33.56,33.56,0,0,1-5-2.05c-.63-.31-1.25-.61-1.85-.92-3.85-1.93-7.48-3.76-12.31-3.37a18.74,18.74,0,0,0-4.92,1.12,85.76,85.76,0,0,0-8.75,3.9c-5.59,2.76-10.43,5.15-17.12,5.15h0c-1.2,0-2.4,0-3.57,0-9.72.13-15.84-.13-18.8-6.77-1.81-4-6.81-5.89-12.09-7.84-6.49-2.4-13.16-4.88-15.21-11.23a153.53,153.53,0,0,0,43.91,9.83c9.25.53,18.12.75,26.9.75,16.55,0,32.79-.76,50.61-1.6,7.4-.35,15.06-.71,23.09-1,12.17-.5,26.73-3.47,40.89-8a18.36,18.36,0,0,0-5,4.16,39.16,39.16,0,0,0-3.51,5.3c-2.16,3.71-3.87,6.64-8,7.68S219.15,485.33,216.19,483.63Zm-3.66,2.45c-3.7,6.42-10.28,10.2-17.15,9.72A13,13,0,0,1,183.67,487c8.1-6.06,15.44-7.57,22.42-4.61a38.23,38.23,0,0,1,5.51,3.09Zm-64.74,4.54a1.79,1.79,0,0,0-.25.42c-1.68,4-3.31,5.15-4.2,4.94-1.44-.31-3.46-3.65-3.8-8.27C142.4,488,144.94,489.2,147.79,490.62ZM266.65,467.7c.2,4.3.43,9.63-1.6,11.34q-1.33,1.13-4.49.42c-4-.83-8.08-6.27-10.23-10.3C255.27,468,261,467.83,266.65,467.7Zm1.87-4.05-1.92.05a99.37,99.37,0,0,0-15,1.1c12.22-4.55,23.64-10.13,32.31-16.12a52,52,0,0,0,6.6-5.72l.78.2c3.62,1,4.67,2.33,3.39,7.66a13.43,13.43,0,0,1-4.52,7.4,21.5,21.5,0,0,1-8.23,4C278.11,463.33,273.21,463.53,268.52,463.65Zm35-28.27c-.73,2.25-5.3,4.76-9.81,4.12a50.48,50.48,0,0,0,5.62-8.3C300.9,431.82,304.14,433.33,303.48,435.38Zm6.39-54.76c.18,1.64-5.46,4.56-7.87,5.81-2.82,1.47-4.34,2.28-5.05,3.24a31.29,31.29,0,0,0-3.14,5.8,62.65,62.65,0,0,0-3.59,9.89c-1,3.68-2.1,4.85-2.83,5.19-1.18.54-3.25-.45-5.45-1.49-3-1.41-6.57-3.12-10.56-2.49,11.83-8.48,24.28-20.94,28.89-30.86C309.35,378.34,309.85,380.38,309.87,380.62Zm-12.28-15.57c1,1.76.88,4.17-.2,7.16a2,2,0,0,0-.26.6c0,.05,0,.09,0,.14-5.42,13.42-28.88,33.52-42.07,38.35-25.33,9-38.56,8.91-60.49,8.83-4.63,0-9.88,0-15.61,0-16.17-.09-47.47-4.23-62.62-7.6-9.19-2-19.26.44-29,2.77-8.06,1.93-15.67,3.75-22.61,3.24C48.44,417,30.6,408.15,24.1,398.4c-2.51-3.77-3.25-7.44-2.18-10.9a12.75,12.75,0,0,1,1.17-2.63,15.39,15.39,0,0,0,3.68,2.77C41.66,396.38,75,401.45,93.4,401.45c.82,0,1.61,0,2.36,0,6.42,1,25.51,3.68,38.31,3.68,1.85,0,3.57-.06,5.1-.19,7.09-.69,14.26-1.86,21.19-3,9.91-1.62,20.16-3.29,30.22-3.57,5.12-.14,10.51-.08,16.23,0,17,.17,34.63.35,49.36-4.44,10.48-3.25,37-15.44,34.56-32.8l.17.05C294.34,361.87,296.59,363.19,297.59,365.05ZM115,399.87c12.13-1.54,24.12-4,35.85-6.39,17-3.48,34.51-7.07,52-7.79,4.46-.19,9.18-.23,14.17-.28,21.33-.19,45.51-.41,62.44-12.47a42.52,42.52,0,0,0,6.89-6.43c-3.15,11.29-21.6,20.5-31.46,23.56-14.14,4.6-31.41,4.42-48.11,4.25-5.75-.06-11.19-.12-16.38,0-10.33.28-20.71,2-30.76,3.63-6.86,1.12-14,2.28-20.9,3C132.77,401.43,123.54,400.78,115,399.87ZM290.1,240.56a20.16,20.16,0,0,0,3.13-13c11.82,7.54,14.78,13.43,13.61,16.27-1,2.38-4.91,3.47-8.95,2.49-2.2-.54-8.45,1.84-11.54,4.39-2,1.63-2.93,3.4-2.84,5.25.05.92.06,1.75,0,2.55-.27,9.71-4.9,15.1-8.74,17.9-4.68,3.43-9.73,4.13-11.81,3.53l-.15,0c-2.07-.43-3.78-1.91-5.6-3.48-2.8-2.42-6.28-5.43-11.52-3.87-5,1.49-6.85,5.82-8.49,9.65-1.13,2.61-2.19,5.08-4.13,6.63-5.46,4.66-10.24,3.15-16.92.31-1.34-.57-2.76-1.34-4.26-2.16-4.87-2.67-10.39-5.7-16.58-3.39-3.68,1.2-5.86,4.61-7.78,7.62-2.26,3.54-3.78,5.69-6.29,5.55-9.71-.6-13.4-4.37-16.67-7.7-2.94-3-6-6.12-12.42-4.86-4.24.82-8.54,4.14-12.7,7.34-5.59,4.32-9.39,7-11.17,4.91a34.12,34.12,0,0,1-3.07-4.73c-1.28-2.25-2.39-4.2-4.61-4.75-1.94-.47-4.18.27-7.7,2.56a28.49,28.49,0,0,0-4.44,3.84c-3.32,3.29-6.19,6.13-10.73,4.83-3.63-1.05-4.75-4-6.06-7.47-1.09-2.87-2.21-5.84-4.92-7.73-5.52-4.48-10.4-2.11-14.32-.19C68.93,284.5,65.86,286,62,283.84s-4.61-6.7-5.45-11.37c-.5-2.86-1.06-5.93-2.5-8.3a47.69,47.69,0,0,0,8.1,3.75c17.11,5.51,28.65,7,40.83,7,6.2,0,12.56-.39,19.9-.84,4.49-.27,9.58-.58,15.2-.83,16-1,46.6-7.23,61.31-11.7,7.93-2.33,17.38-.43,26.53,1.4,7.91,1.59,16.1,3.24,23.54,2.2C266.11,262.46,283.19,252.11,290.1,240.56Zm-25.55-80.43.14.18a15.37,15.37,0,0,0,7.09,4.23c-3.57,7.29-12.36,8.89-20.08,7.06-3.93-.87-10.53-5.71-13.38-9.53a45,45,0,0,1,6.21-.65h.23c3-.34,6.32-.49,9.88-.66C257.89,160.6,261.24,160.43,264.55,160.13Zm10.13.86a10.61,10.61,0,0,1-4.71-1.54,35.78,35.78,0,0,0,12-3.82,7.84,7.84,0,0,1-2.23,3.78A6.89,6.89,0,0,1,274.68,161ZM100.28,13.18c-2.55,6.08-9.68,12.89-11.81,12.89h0c-1.4-1.69-.9-4.41,1.34-7.53l.12-.07,1-.55A90.12,90.12,0,0,1,100.28,13.18Zm-16.46,9a7.91,7.91,0,0,0,1.75,6.7,3.7,3.7,0,0,0,2.8,1.2,4.94,4.94,0,0,0,1.26-.16c5.1-1.26,13.47-10.95,15.18-17.59.08-.35.15-.69.2-1,18.29-6.84,39.75-8.8,67.33-6.15,10.38.82,59.85,31.13,71.56,38.8,20.2,13.14,30.76,35.47,29.21,61.54a2,2,0,0,0-.7,2.29,1.1,1.1,0,0,1,.06.37c-.05,3.34-11.79,9-16.72,9.89a23.38,23.38,0,0,1-8.2-.62,22.09,22.09,0,0,0-8.14-.59c-3.33.54-6.45,2.28-9.47,4a32.84,32.84,0,0,1-7.17,3.3c-6.36,2-13.27,3.53-20,5-4.71,1-9.57,2.08-14.13,3.3-5.93,1.47-9.23,2.14-13.88-.07a22.52,22.52,0,0,1-5.71-3.9c-2.63-2.21-5.61-4.72-10.35-5.86-9.22-2.1-14.26,2.67-18.72,6.88-3.72,3.51-7.22,6.83-13.06,6.83h-.23a56.6,56.6,0,0,1-7.95-1.05,64.43,64.43,0,0,0-9.59-1.2c-1.32,0-2.49,0-3.57,0-4.35,0-6.75,0-11.53-2.2-7.53-3.19-8.21-3.16-14.8-1.85l-2.7.53c-7.3,1.51-9.51,1.19-12.78-5.28l-.09-.17a25.94,25.94,0,0,1-2.29-5c-.29-.78-.59-1.58-.92-2.36,4.45-2.5,6.4-8.59,5.94-13.47-.33-3.53-1.94-5.89-4.3-6.33-3.58-.66-7.41,3.14-11.67,11.57l-.43-.12a18.77,18.77,0,0,0-5.69-.3c-2.86.17-4.43.27-7.18-3.21l-.06-.08c-1.69-1.92-2.75-4.71-3.77-7.4a49,49,0,0,0-2.08-4.88,2,2,0,0,0,.36-.94A67.39,67.39,0,0,1,33,83.27a7.91,7.91,0,0,0,.84.06c3.07,0,6.07-2,8.28-5.75,3.1-5.23,4-12.77.4-16.5C54,43.24,71.53,30,83.82,22.16Zm-25.32,92a12.52,12.52,0,0,0-4.24-3.38c4-7.67,6.56-9.14,7.18-9,.2,0,.85.79,1,2.76C62.81,108.1,61.38,112.61,58.5,114.18ZM40.31,64.8c1.15,2.46.56,7.1-1.6,10.74-.72,1.21-2.44,3.65-4.66,3.77A68.64,68.64,0,0,1,40.31,64.8Zm-22.4,35.65a5.86,5.86,0,0,0-4.09,3.85c-2-.73-2.9-2.28-2.77-4.63.18-3.46,2.89-7.84,6.51-8.58,5.75-1.26,7.94.67,9.34,2.73a29.7,29.7,0,0,1,2.72,5.9c1.14,3,2.32,6.11,4.47,8.57,4,5.07,7.32,4.87,10.52,4.68a15.52,15.52,0,0,1,4.55.21q.57.13,1.26.36c3.56,1.17,4.89,2.79,5.72,4.23a23.48,23.48,0,0,1,1.55,3.6,29.54,29.54,0,0,0,2.61,5.69c4.29,8.46,8.57,9.08,17.08,7.32l2.7-.52c5.89-1.18,5.89-1.18,12.4,1.58C98,138,101.22,138,105.65,138c1,0,2.18,0,3.45,0a60.53,60.53,0,0,1,9,1.14,60.77,60.77,0,0,0,8.55,1.11h.3c7.45,0,11.91-4.2,15.84-7.91,4.27-4,7.95-7.52,15.05-5.89,3.8.91,6.18,2.91,8.7,5a26.41,26.41,0,0,0,6.64,4.48c6.07,2.89,10.9,1.69,16.52.29,4.5-1.2,9.32-2.25,14-3.27,6.76-1.47,13.77-3,20.21-5a36.61,36.61,0,0,0,8-3.64c2.84-1.59,5.53-3.08,8.19-3.52a19.3,19.3,0,0,1,6.7.57,27.17,27.17,0,0,0,9.61.65c3.73-.65,17.25-5.65,19.69-11.9,1.7-.17,3.51-.46,5.41-.78,5.27-.88,11.23-1.88,14.79.3a5.79,5.79,0,0,1,3.06,4.61c.64,6.42-6.82,16.26-11.43,20.68a14.14,14.14,0,0,0-8.1-7.79c3.63-5.8,6.39-8.74,8.2-8.74h.05c.83,0,1.57,1.1,2,2a2,2,0,1,0,3.54-1.85c-1.4-2.69-3.24-4.09-5.47-4.15-4.69-.12-9.08,6.07-13.09,12.8l-.21.36-.78,1.32c-4.61,6.56-7.85,10.41-14,8.64l-.15,0c-2.07-.43-3.79-1.91-5.6-3.48-2.8-2.42-6.28-5.43-11.52-3.86-5,1.48-6.85,5.81-8.49,9.64-1.13,2.61-2.19,5.07-4.13,6.63-5.45,4.65-10.24,3.15-16.92.32-1.33-.57-2.74-1.34-4.24-2.16-4.88-2.67-10.4-5.7-16.6-3.39-3.95,1.27-6.28,4.33-8.53,7.3-1.92,2.52-3.73,4.91-6.46,6-3.91,1.7-6.73,2.08-8.37,1.14-2.35-1.35-2.89-5.9-3.42-10.3-.58-4.86-1.18-9.9-4.18-12.76-4.08-4.29-7.63-5.92-10.87-5-5.84,1.66-7.8,11.05-9.54,19.34-.71,3.43-1.39,6.66-2.14,8-1.42,2.56-3.1,4-5,4.14-2.49.25-5.63-1.6-8.55-5a34.77,34.77,0,0,1-3.07-4.74c-1.28-2.25-2.39-4.2-4.61-4.75-1.94-.47-4.18.27-7.7,2.56a28.42,28.42,0,0,0-4.44,3.84c-3.85,3.82-6.5,6.05-10.74,4.82-3.63-1-4.75-4-6-7.46-1.09-2.87-2.21-5.84-4.92-7.73-5.53-4.49-10.4-2.11-14.32-.2-3.55,1.73-6.61,3.23-10.44,1.08s-4.61-6.7-5.45-11.37c-.89-5-1.91-10.71-7.71-12.13-4.72-1.34-8.71,1-11.91,2.92-2,1.19-3.92,2.32-5,1.89-.6-.23-1.81-1.25-3.11-5.41a25.43,25.43,0,0,1,0-5.09c.18-3.62.35-7-1.1-8.92a.35.35,0,0,0-.05-.08A6.78,6.78,0,0,0,17.91,100.45ZM13.7,130.86c-3.7-6.83,2.49-14.13,7-19.46L22,109.91c0,.78-.06,1.52-.09,2.12a25.18,25.18,0,0,0,.15,6.26,1,1,0,0,0,0,.14c1.41,4.58,3.17,7.13,5.52,8,2.9,1.12,5.74-.57,8.48-2.19s5.71-3.38,8.84-2.5,3.9,3.92,4.81,9,1.94,10.87,7.37,14.13c5.71,3.2,10.42.91,14.2-.94,4.17-2,6.69-3.05,10.1-.26l.14.11c1.72,1.18,2.59,3.47,3.5,5.9,1.4,3.69,3.14,8.3,8.69,9.89,6.8,1.95,11.17-2.36,14.67-5.83a25.05,25.05,0,0,1,3.79-3.32c3.07-2,4.19-2.13,4.58-2,.55.13,1.29,1.44,2.08,2.84a40.34,40.34,0,0,0,3.46,5.3c3.61,4.22,7.55,6.5,11.19,6.5a8.06,8.06,0,0,0,.85,0c2.23-.22,5.45-1.48,8.07-6.18,1-1.88,1.74-5.24,2.56-9.13,1.27-6.1,3.2-15.32,6.72-16.32,1.62-.46,4,.9,6.94,4,2,1.93,2.54,6.24,3,10.41.64,5.38,1.31,10.94,5.4,13.29,2.84,1.63,6.75,1.32,11.91-.92,3.7-1.5,6-4.57,8.1-7.28s3.83-5.05,6.61-5.93l.1,0c4.48-1.7,9,.76,13.31,3.14a49.78,49.78,0,0,0,4.6,2.33c7.3,3.09,13.92,5.15,21-.92,2.67-2.14,4-5.19,5.25-8.13,1.48-3.46,2.77-6.44,6-7.39,3-.89,4.81.5,7.76,3,2,1.74,4.28,3.71,7.33,4.36,9.31,2.64,14.1-4.18,18.34-10.22l.06-.09c.08-.12.17-.28.26-.43a10.31,10.31,0,0,1,7.07,7.38c1.26,4.58,0,9.93-3.16,13a8.69,8.69,0,0,1-1,.87c-3.46,2.1-8.16,3.42-14.77,4.15-3.74.41-7.62.59-11.36.76s-7,.32-10.11.67h-.07c-4.1.26-7.06.45-9.77,1.68-2.53,1.14-4.66,3.07-7.35,6.63l-.06.09c-1,1.52-1.84,2.94-2.56,4.2-2.58,4.47-3.87,6.72-10.26,7.12-4.84.31-6.58-1-9.22-3.07-.38-.3-.78-.6-1.2-.91a26.9,26.9,0,0,0-4.06-2.54c-5-2.86-12.9-3.17-19.59-.76l-.11,0a28.86,28.86,0,0,0-3.19,1.57,27.71,27.71,0,0,0-2.82,1.94,16.16,16.16,0,0,1-6.21,3.12c-2.54.85-5.52.71-9.38-.43a71.12,71.12,0,0,1-7.52-2.84l-2.3-1c-6.41-2.88-12.45-1-18.84.92-1.32.41-2.69.83-4.08,1.21A49.19,49.19,0,0,0,115.39,179c-1.35.73-2.74,1.48-4.1,2.14a35,35,0,0,1-3.54,1.55C101.83,184,91,185.27,84.19,180c-2.73-2.29-3.54-4.7-4.39-7.25s-1.72-5.15-4.31-7.58c-3.34-3.12-8.86-4.93-13.72-6.53-1.51-.49-2.93-1-4.22-1.45L57,157c-6.38-2.64-7.7-4.4-11.22-9.12l-1-1.33c-4.57-5.85-6.44-6.31-12.87-7.17l-2.88-.4a32.16,32.16,0,0,1-4.75-1C21,137,16.43,135,13.7,130.86ZM199.93,175.3c-1.11,3.43-4.76,4.56-7.91,4.45-4.08-.15-8.55-2.44-9.21-6.52,5.3-1.56,11.33-1.23,15.05.9l.11.06A20.45,20.45,0,0,1,199.93,175.3Zm-44.2,4.12c-.95,5.47-6.22,10.17-13.86,12.2-8.77,2.33-20.14.69-26.76-7.91l2.17-1.15a45.37,45.37,0,0,1,9.52-4.26c1.46-.4,2.86-.83,4.21-1.24,6.14-1.88,11-3.37,16.09-1.07l2.32,1C151.47,177.82,153.57,178.69,155.73,179.42ZM30.16,143.13l1.25.17c5.75.77,6.49.87,10.23,5.64l1,1.3c3.07,4.1,4.87,6.5,9.71,9-7.81,3-15,2.17-19.6-2.52A12,12,0,0,1,30.16,143.13Zm-12.32,5c.75-2.79,2.87-4.77,6.48-6,.59.15,1.17.3,1.78.42a16,16,0,0,0,3.77,17,19.23,19.23,0,0,0,13.86,5.44,29.89,29.89,0,0,0,13.59-3.61c1,.36,2.07.71,3.2,1.08,4.47,1.47,9.54,3.13,12.23,5.65,1.85,1.74,2.5,3.68,3.25,5.92,1,2.83,2,6,5.67,9.1,4.64,3.61,10.47,4.79,16.13,4.79a52.13,52.13,0,0,0,10.93-1.26l.25-.08c.79-.28,1.62-.62,2.49-1,5.68,7.87,14.56,11.07,23,11.07a33.25,33.25,0,0,0,8.44-1.09c9-2.39,15.3-8.14,16.7-15a17.47,17.47,0,0,0,9.52-.16,20.28,20.28,0,0,0,7.42-3.75,20.33,20.33,0,0,1,2.41-1.67l.13-.07c1.52,5.82,7.56,8.69,12.8,8.88h.62c5,0,9-2.27,10.77-6,2.65,2,5.41,3.77,11.27,3.4,8.53-.54,10.71-4.32,13.47-9.12.72-1.24,1.46-2.53,2.39-3.91a20.66,20.66,0,0,1,4.19-4.43c3.22,4.86,11,10.66,16.23,11.82a29.41,29.41,0,0,0,6.8.81c7.75,0,15.23-3.28,18.36-11.33a10.56,10.56,0,0,0,6.45-2.58,12.09,12.09,0,0,0,3.63-6.48c3.49,3.66,5.14,7.24,4.91,10.68-.29,4.33-3.5,8.63-9.55,12.77a62.19,62.19,0,0,1-9.82,5.38,108.61,108.61,0,0,1-25.69,7.64c-6.32.89-13,.77-19.45.66-9.34-.17-19-.33-28.28,2.41-3.83,1.16-7.47,2.39-11,3.57-10.09,3.41-19.63,6.62-30.95,7.34-34.34,1.52-67.47-2.3-95.83-11.07-6.49-2-14.71-7.1-22.56-14a94.19,94.19,0,0,1-9.69-9.8C20.12,162.09,16.37,153.57,17.84,148.13Zm252,46.24c2.46,3.95,2.78,7.77.94,11.66-4.69,9.88-22.55,17.6-32.77,18.56-13.35,1.14-24.39-3.13-36.08-7.66l-2.19-.85,1.47-.23c8.8-1.38,17.37-3.31,25.66-5.18,3.77-.85,7.67-1.73,11.46-2.52C246.31,206.63,261.8,202,269.84,194.37Zm-2.46-3.16c-7.27,7.2-22.67,11.66-29.84,13-3.85.81-7.76,1.7-11.55,2.55-8.22,1.85-16.73,3.77-25.42,5.13-2.1.35-4.33.67-6.63,1-18,2.23-36.7,1.58-54.74.94-8.38-.29-17-.59-25.52-.59h-.16c-18.21,0-72.58.08-76.45-27.29,7.69,6.44,15.66,11.21,22.14,13.21,24.67,7.62,52.88,11.56,82.37,11.56,4.91,0,9.87-.11,14.85-.33,11.89-.75,21.67-4.05,32-7.54,3.5-1.17,7.11-2.39,10.87-3.53,8.69-2.56,18-2.4,27.06-2.24,6.61.11,13.44.23,20.12-.7a114.43,114.43,0,0,0,21.5-5.81C267.8,190.76,267.6,191,267.38,191.21ZM26.3,175.46a99.08,99.08,0,0,0,7.05,7.17,2,2,0,0,0-.48,1.38c1.51,33.29,61.08,33.23,80.73,33.2,8.39,0,17.06.3,25.46.59,8.59.3,17.31.61,26.06.61a245,245,0,0,0,27.37-1.36,2,2,0,0,0,1.09,1c2.34.86,4.63,1.75,6.9,2.63,10.75,4.16,21,8.12,33.1,8.12,1.56,0,3.16-.07,4.79-.21,11.18-1,30.44-9.08,36-20.83,2.51-5.3,2-10.88-1.55-16.14a1.81,1.81,0,0,0-.29-.33,15,15,0,0,0,1.82-3.41,65.51,65.51,0,0,0,9-5c7.22,8.92,7,28.12,1.41,36.8a10.13,10.13,0,0,1-2.9,3.09l-.09.06c-14.06,10.13-47.46,17.26-64.28,17.72-3.61.11-7.3.08-11.28-.09-14-.61-28.24-3-42-5.21-16.86-2.77-34.3-5.63-51.7-5.42-4.41,0-9,.27-13.89.51-20.18,1-43,2.05-59-9a44.91,44.91,0,0,1-10.06-10c-.53-.71-1-1.47-1.58-2.33C21.18,198.09,20.61,186,26.3,175.46ZM195.9,243.7c-7.7,2-12.54,3.19-20,2.94-6.81-.33-13.8-1.17-20.55-2-9.86-1.18-20-2.41-30.12-2.13-5.07.14-10.36.51-16,.89-16.21,1.12-33,2.27-47-1.82-9.65-2.66-27.84-11.29-31.78-23a49.54,49.54,0,0,0,6.83,6c17.15,11.86,40.74,10.73,61.55,9.74,4.84-.23,9.41-.45,13.74-.5,17.07-.22,34.32,2.62,51,5.36C174.18,240.9,185,242.68,195.9,243.7ZM19.53,217c.92-1.93,3-3.38,6.12-4.32l.1.15c-1.13,16.32,21.06,28.66,35.42,32.62,14.65,4.28,32.55,3.05,48.34,2,5.56-.38,10.81-.74,15.8-.88,9.77-.26,19.82.94,29.54,2.1,6.82.82,13.87,1.66,20.86,2l2.06,0c7.2,0,12.35-1.33,19.81-3.27,2.62-.68,5.58-1.45,9-2.26a2,2,0,0,0,1.07-.66c1.92.06,3.8.11,5.63.11,1.47,0,2.92,0,4.36-.07,17.3-.47,51.76-7.89,66.46-18.44a13.09,13.09,0,0,0,3.28-3.18,14.09,14.09,0,0,1,1.31,2.75c1.37,4,.68,8.31-2,12.85-6.26,10.46-22.52,20.22-37.78,22.71-6.72.93-14.22-.57-22.15-2.17-9.62-1.93-19.57-3.93-28.47-1.31-14.52,4.41-44.71,10.54-60.38,11.53-5.61.25-10.72.57-15.22.84-21.31,1.31-34.17,2.09-59.25-6-13.05-4.36-36.84-24.22-43-38.17a2,2,0,0,0-.06-.34,2.05,2.05,0,0,0-.4-.76C18.74,221.62,18.58,219,19.53,217Zm-3.17,23.39c-2.84-1.4-8.14-4-8-5.91,0-.43.59-2.61,8.94-5.8,5.1,10.37,18.16,23.06,30.27,31.38-4.14-.61-7.69,1.48-10.59,3.2-2,1.19-3.92,2.31-5,1.89-.6-.23-1.81-1.25-3.11-5.43a72.49,72.49,0,0,0-4.3-10.82,31,31,0,0,0-3-5.28C20.71,242.56,19.12,241.74,16.36,240.39Zm5.95,13.25A52.92,52.92,0,0,1,25,260.7a.74.74,0,0,0,0,.14c1.41,4.58,3.17,7.14,5.52,8,2.9,1.13,5.74-.56,8.48-2.18s5.72-3.38,8.85-2.49,3.9,3.91,4.8,9S54.59,284.05,60,287.3c5.72,3.2,10.42.91,14.21-.94,4.16-2,6.69-3.05,10.08-.25l.15.11c1.72,1.17,2.59,3.46,3.51,5.89,1.4,3.69,3.14,8.29,8.69,9.89a11.91,11.91,0,0,0,3.31.49c5,0,8.45-3.45,11.34-6.31a26.18,26.18,0,0,1,3.79-3.33c3.08-2,4.2-2.13,4.59-2,.55.13,1.29,1.45,2.08,2.83a39.06,39.06,0,0,0,3.46,5.3c4.42,5.19,11,.16,16.71-4.28,3.78-2.92,7.7-5.94,11-6.59,4.32-.84,6,.88,8.81,3.74,3.39,3.46,8,8.19,19.28,8.89,5,.29,7.6-3.78,9.9-7.39,1.72-2.69,3.34-5.23,5.68-6l.1,0c4.48-1.69,9,.76,13.29,3.14a50,50,0,0,0,4.62,2.33c7.29,3.1,13.91,5.17,21-.91,2.68-2.13,4-5.18,5.26-8.13,1.48-3.46,2.77-6.44,6-7.39,3-.9,4.81.5,7.77,3.06,2,1.73,4.28,3.7,7.33,4.35,3.34.93,9.49,0,15.21-4.16a25.35,25.35,0,0,0,10-16.77c6,8.93,1.9,18.7-2.95,25.61A53.76,53.76,0,0,1,270.4,302c-13.68,9.58-35.78,17.78-53.73,19.95-25.65,3.08-48.52,3.22-75,3.38-7.23.05-14.72.09-22.56.2-23.92.31-59.65-10.33-79.59-23.69a50.09,50.09,0,0,1-17.59-22.36C18.37,270.23,18.53,261.16,22.31,253.64Zm-3,29.77a54.47,54.47,0,0,0,18,21.68c20.58,13.8,55.81,24.4,80.79,24.4h1.12c7.82-.11,15.3-.15,22.52-.2,26.61-.16,49.58-.3,75.46-3.41,18.83-2.27,41.15-10.57,55.46-20.59a57.07,57.07,0,0,0,13.83-13.13,13.66,13.66,0,0,1,5.82,8.48c1.07,5.39-1.12,12.2-6.32,19.7a76.18,76.18,0,0,1-9.77,11.3c-7.21,6.91-15.36,12.44-21.78,14.79-27.95,9.9-60.81,15.14-97.62,15.57-11.71-.06-21.66-2.57-32.19-5.23-3.69-.93-7.5-1.89-11.5-2.78-9.63-2.06-19.5-1.38-29-.73a140.28,140.28,0,0,1-20,.44c-10.31-1-25.35-9.83-36.58-21.49C21,325.39,1.12,301.87,19.28,283.41Zm19.59,74.84c12.22,7.48,28.37,9.42,33.81,10.07,4,.55,8,1.17,12,1.77,8.52,1.3,17.33,2.64,26.32,3.46-10.85,2.64-23.21,2.19-35.24,1.74-2.48-.09-5-.19-7.38-.25-16.57-.57-27.61-3.85-30.3-9C37,363.94,37.25,361.32,38.87,358.25Zm79.53,11.88c-2.49-.15-4.73-.33-6.88-.54-8.94-.81-17.74-2.15-26.25-3.45-4-.6-8-1.23-12.08-1.79-5.51-.66-22.29-2.66-33.87-10.56a28.27,28.27,0,0,1-8-7.91,22,22,0,0,1-3.08-7.36c11.42,10.63,25.21,18.17,35.49,19.16a144,144,0,0,0,20.57-.44c9.27-.63,18.85-1.29,27.92.65,3.93.87,7.71,1.83,11.37,2.75,10.78,2.72,21,5.29,33.18,5.35,37.29-.44,70.58-5.75,99-15.8,6.61-2.42,14.8-7.86,22.13-14.67-1.23,26.67-58.1,29.63-76.94,30.61h-.14c-8.69.45-17.63,1.21-26.29,1.94C156.07,369.64,137,371.26,118.4,370.13Zm-89.17-20.3a33,33,0,0,0,6.3,6.17c-2.46,4.46-2.81,8.45-1,11.88C38.9,376.3,55.27,378.6,68.24,379c2.42.06,4.88.15,7.35.25,4.67.17,9.39.35,14.07.35,10.29,0,20.38-.85,29.34-4.42a2,2,0,0,0,1.06-1c3.79.19,7.59.3,11.4.3,14.54,0,29.15-1.24,43.39-2.44,8.62-.73,17.54-1.49,26.16-1.94h.13c20-1,81-4.21,80.76-35.67a2,2,0,0,0-1.12-1.77,79.87,79.87,0,0,0,6.84-7.88c6.06,9.7,6.22,21.69.31,32.51-.47.87-.93,1.63-1.4,2.36a38.35,38.35,0,0,1-9.36,10c-15.86,11.3-39.37,11.51-60.12,11.7-5,0-9.78.09-14.3.28-17.84.73-35.55,4.36-52.67,7.87-17.63,3.61-35.86,7.34-54.07,7.85,0,0-3.3.11-5.9,0-18.34-.52-47.84-5.3-61.41-13.26a12.64,12.64,0,0,1-4.06-3.54C19.42,373.84,17.58,360,29.23,349.83ZM13.74,407.15c-4.17,1.17-8.53.26-9.51-2C3.09,402.6,6,397,17.52,389.41a17.54,17.54,0,0,0,3.25,11.21c7.21,10.81,25.94,20.23,43.61,21.93,7.61.57,15.88-1.41,23.88-3.33,9.3-2.23,18.92-4.53,27.21-2.76,15.32,3.41,47,7.61,63.48,7.7,5.73-.07,11-.05,15.59,0,22.36.07,35.85.13,61.85-9.07a49.64,49.64,0,0,0,8.08-4c-1.25,2.29-1.64,5.12-2,7.76-.6,4.4-1.16,8.55-4.89,10.87-3.94,2.3-7.2,1-11-.41-4.29-1.65-9.14-3.51-14.49.95-2.69,1.93-3.73,4.93-4.65,7.58-1.15,3.28-2.14,6.12-5.82,7.31-4.69,1.5-8-1.15-11.42-4a29.17,29.17,0,0,0-4.75-3.37c-7.61-4-9.69-2.14-12.33,2.74a32,32,0,0,1-2.84,4.54c-1.81,2.17-5.9-.16-11.94-4-4.42-2.79-9-5.67-13.35-6.21-6.56-.83-9.37,2.11-12.34,5.22-3.17,3.31-6.77,7.07-16.75,8.16-2.67.29-4.34-1.67-6.86-4.89-2.13-2.73-4.55-5.82-8.35-6.73-6.39-1.82-11.86,1.31-16.69,4.07-1.48.85-2.88,1.65-4.22,2.26-6.77,3.05-11.64,4.73-17.6.57-2-1.32-3.23-3.57-4.51-5.95-1.9-3.52-4-7.5-9.2-8.62-5.36-1.17-8.6,1.7-11.45,4.23-1.79,1.58-3.47,3.08-5.6,3.6l-.14,0c-2.37.75-8.08.24-13.36-3.27a20.14,20.14,0,0,1-9-15.68c-.06-.72-.1-1.52-.1-2.37,0-1.66-.93-3.2-2.73-4.56C22.79,408.47,15.88,406.55,13.74,407.15Zm11.89,15.08A23.63,23.63,0,0,0,35.73,437c6,4,13,4.94,16.74,3.77,3.05-.77,5.27-2.74,7.23-4.48,2.84-2.51,4.73-4,8-3.31s4.83,3.45,6.53,6.61c1.39,2.59,3,5.53,5.79,7.36,7.59,5.31,14.22,3,21.49-.24,1.51-.68,3-1.53,4.56-2.43,4.36-2.49,8.86-5.07,13.64-3.69l.1,0c2.46.58,4.26,2.88,6.16,5.31,2.38,3,5,6.46,9.47,6.46.31,0,.64,0,1,0,11.43-1.25,15.92-6,19.2-9.38,2.74-2.86,4.39-4.58,9-4,3.47.43,7.66,3.07,11.71,5.62,6.37,4,13,8.17,17.2,3.07a35.8,35.8,0,0,0,3.22-5.13c1.9-3.49,2-3.7,7-1.09a26.3,26.3,0,0,1,4.07,2.92c3.75,3,8.41,6.85,15.18,4.68,5.57-1.8,7.12-6.24,8.36-9.81.84-2.41,1.56-4.49,3.25-5.67l.14-.11c3.4-2.87,6.09-2,10.54-.32,3.93,1.51,8.83,3.39,14.47.09,5.38-3.34,6.17-9.11,6.79-13.75.67-4.89,1.2-7.7,4.5-8.62s6.29.46,9.29,1.89,5.95,2.83,8.83,1.51c2.26-1,3.86-3.52,5.05-7.83l0-.15a47.09,47.09,0,0,1,2.39-6.88c5.08,8,5.07,18.39-.1,28.74a47.1,47.1,0,0,1-7.91,11.25,48.38,48.38,0,0,1-6.89,6.1C261.84,459.07,225.76,471,201.18,472c-8,.32-15.7.68-23.11,1-27.16,1.28-50.62,2.38-77.09.86a149.38,149.38,0,0,1-45.53-10.71,2.06,2.06,0,0,0-1-.39A98.57,98.57,0,0,1,44.68,458a52.38,52.38,0,0,1-11.35-8.3A40.06,40.06,0,0,1,25.13,439C22.09,432.91,22.27,427.27,25.63,422.23ZM13.9,451.86a2.9,2.9,0,0,1-1-2.57v-.2c-.08-2.8,5.71-6.32,9.33-7a43.68,43.68,0,0,0,7.12,9.24,16.26,16.26,0,0,0-3.82,2.12C21.33,454.17,16.1,453.84,13.9,451.86Zm11.28,9.86A6.51,6.51,0,0,1,27.55,457a1.37,1.37,0,0,0,.23-.19,12.76,12.76,0,0,1,3.52-1.92,1.89,1.89,0,0,0,1-.78,54,54,0,0,0,10.52,7.38,100.57,100.57,0,0,0,9.58,4.74c1.34,10.51,10.69,14,18.29,16.81,4.47,1.65,8.7,3.21,9.82,5.72,3.71,8.31,11.12,9.17,19.32,9.17l3.2,0c1.1,0,2.23,0,3.36,0h.17c7.62,0,13.1-2.7,18.89-5.56a82.14,82.14,0,0,1,8.35-3.73,15,15,0,0,1,1.79-.54c.43,5.49,2.91,11,6.94,11.85a5,5,0,0,0,1.11.13c2.25,0,5.11-1.5,7.61-7.42,0-.09.06-.18.09-.27a33.36,33.36,0,0,0,4,1.54c8.29,2.52,16.47,1,25-4.49a16.84,16.84,0,0,0,14.8,10.41c.49,0,1,0,1.45,0,7.89,0,15.26-4.48,19.46-11.79a15.07,15.07,0,0,0,10.78,1c5.72-1.45,8.12-5.56,10.45-9.54a35.05,35.05,0,0,1,3.14-4.77,15.22,15.22,0,0,1,6.09-4.35c2.27,4.49,7.32,11.75,13.25,13a13.75,13.75,0,0,0,3,.36,7.39,7.39,0,0,0,4.9-1.62c3.53-3,3.28-9.09,3-14.52A55.48,55.48,0,0,0,283,466.13a25.36,25.36,0,0,0,9.63-4.77,1.8,1.8,0,0,0,.19.2c4.79,4.21,7.12,8.37,6.9,12.36-.24,4.36-3.42,8.72-9.47,13a73.23,73.23,0,0,1-15.55,7.94,111,111,0,0,1-19.67,5.51c-6.3,1-13,1-19.44.92-9.32,0-19-.06-28.25,2.8-3.79,1.21-7.4,2.49-10.89,3.72-10.06,3.55-19.57,6.91-30.91,7.78-35.8,2.09-68.07-1.17-95.92-9.71-6.32-2-15.59-7.8-24.19-15.12a109.46,109.46,0,0,1-9.38-9C28.72,473.74,24.85,466.63,25.18,461.72Zm250.43,37c-2,16.84-20.87,19.56-37.24,20-17.91.49-36.76,1.58-53.07,8.92-15.09,6.52-22.52,5.34-38.8,2.77l-2.61-.42c-7.18-1.16-14.55-1.13-21.65-1.1s-14.14,0-20.95-1.05l-4.53-.82C75.45,523.3,49,518.59,44.24,494.94,52.84,502,62,507.62,68.45,509.67c22.79,7,48.45,10.5,76.53,10.5q10.22,0,20.85-.62c11.91-.91,21.65-4.36,32-8,3.46-1.22,7-2.49,10.76-3.67,8.66-2.68,18-2.64,27-2.62a129.38,129.38,0,0,0,20.11-1A115.78,115.78,0,0,0,275.61,498.77ZM35.16,486.6c1.89,1.93,3.94,3.87,6.11,5.78a2,2,0,0,0-1.19,2.17c4.68,27.36,34.33,32.62,56,36.47l4.54.82c7.18,1.16,14.53,1.13,21.65,1.11,6.95,0,14.14-.06,21,1l2.62.42c7.5,1.18,13.3,2.1,18.91,2.1,6.78,0,13.27-1.34,22.13-5.16,15.66-7.05,34.06-8.1,51.56-8.58,10.83-.3,39.59-1.09,41.24-24.9a2.22,2.22,0,0,0-.09-.73,71.58,71.58,0,0,0,12.77-6.87,26.44,26.44,0,0,1,5.14,12.12c1.63,8.94.29,19.11-3.27,24.74a10,10,0,0,1-2.79,3l-.08.06c-13.92,10.32-47.22,17.93-64,18.63l-1,0c-17.5.65-35.26-2-52.44-4.59-16.89-2.53-34.36-5.15-51.77-4.69-4.4.12-9,.4-13.89.7-20.15,1.24-43,2.65-59.15-8.18A45.45,45.45,0,0,1,39,522.29c-.62-.83-1.24-1.73-1.84-2.68A38.46,38.46,0,0,1,33.42,512,31.2,31.2,0,0,1,35.16,486.6Zm-.06,37.12.11.15c-1,18.36,25.5,29.4,35.87,32.1,14.7,4.08,32.58,2.6,48.35,1.29,5.56-.46,10.81-.89,15.8-1.1,9.78-.41,19.86.66,29.6,1.69,6.82.72,13.87,1.46,20.86,1.71h1.07c12.51,0,30.49-4,40.26-6.47a1.78,1.78,0,0,0,.56-.25c17.32-.73,51.63-8.63,66.16-19.38a13.1,13.1,0,0,0,3.23-3.21c2.44,3.87,2.74,8.17.88,12.78-4.59,11.39-22,23.08-38.84,26.06-6.72,1-14.24-.37-22.19-1.85-9.64-1.8-19.62-3.66-28.47-.91-14.5,4.61-44.61,11.16-60.22,12.37-5.6.33-10.69.71-15.19,1-21.29,1.6-34.14,2.57-59.34-5.14-15.34-4.89-45.18-30.23-45.13-43.71C28.49,527.46,30.66,525.11,35.1,523.72ZM40,529.57a50.33,50.33,0,0,0,6.92,5.85C64.25,547,87.81,545.58,108.6,544.3c4.84-.3,9.41-.58,13.75-.69,17.07-.45,34.35,2.14,51.07,4.65,12.21,1.83,24.71,3.68,37.27,4.41-8.47,1.66-17.79,3-24.89,2.89-6.82-.24-13.8-1-20.55-1.69-9.89-1-20.11-2.13-30.18-1.7-5.08.21-10.37.64-16,1.11-16.19,1.33-32.94,2.72-47-1.17C62.43,549.58,44.13,541.2,40,529.57ZM285.54,607c-1.7.94-3.18,1.75-4.46,2.59-13.54,9.77-35.52,18.28-53.44,20.69-25.6,3.45-48.46,3.91-74.93,4.44-7.24.14-14.73.29-22.57.51-.73,0-1.46,0-2.2,0-23.87,0-58.19-9.91-77.72-22.59C34.6,602,23.78,580.41,32.9,563.62a14.08,14.08,0,0,1,1.34,2.24,23.7,23.7,0,0,1,2.45,7.54,21.44,21.44,0,0,0,6.47,12.7c5.89,5.58,9.51,5.44,13,5.31a13.27,13.27,0,0,1,7,1.17l.21.08c2.38.79,3.77,2.47,5.39,4.4,2.6,3.12,5.85,7,13.71,5.85a29.19,29.19,0,0,0,8.63-2.68c3.77-1.65,6.76-3,11-1.32,3.13,1.11,5,3.38,7,5.78,2.61,3.12,5.52,6.61,11.19,6.61a16.16,16.16,0,0,0,2.33-.18c5.79-.59,9.18-4.22,12.18-7.41,2.28-2.44,4.25-4.55,6.89-5.1,3.47-.64,6.59,1.62,9.9,4,3.67,2.63,7.82,5.62,12.94,4.69,3.24-.56,4.91-2.92,6.26-4.83,1.11-1.57,1.84-2.54,2.85-2.74,2.22-.37,4.86,1.33,7.65,3.13a33.67,33.67,0,0,0,5.46,3c11.12,4.09,18.48,2.18,25.44-6.64,1.41-1.91,2.51-3.6,3.4-5,3.47-5.34,4-6.17,12.78-4.13,4.64,1.69,9.45,2.17,14.1,2.63,2.39.24,4.65.47,6.92.86a5.07,5.07,0,0,1,2.65,1.41,9.17,9.17,0,0,0,8,2.29c3.88-.66,6.79-2.84,9.36-4.78.82-.61,1.59-1.19,2.34-1.68a37.09,37.09,0,0,1,7.05-1.35c4.55-.59,9.25-1.19,12.51-4.11,3.53-2.83,5.07-7.29,6.56-11.61a37.92,37.92,0,0,1,3.35-7.82,14.09,14.09,0,0,0,1.37-3.43l0-.11C315.83,590.23,297,600.65,285.54,607Zm38.54-76.77c-.57,1.21-1.66,1.54-3.55,2s-4.23,1.07-5.59,3.49c-2.09,4.09-1.16,7.48-.41,10.21.81,3,1.3,4.76-1.35,7.27l-.08.08c-.85.9-2.58,1-4.41,1.14-2.09.14-4.25.28-5.87,1.56a17.48,17.48,0,0,0-1.71,1.39,8.25,8.25,0,0,0-2.33,4.16,10.3,10.3,0,0,1-.94,2.46,41.14,41.14,0,0,0-3.71,8.57c-1.36,4-2.66,7.72-5.31,9.82l-.1.09c-2.32,2.1-6.24,2.61-10.38,3.14a39.25,39.25,0,0,0-8.11,1.63,1.87,1.87,0,0,0-.4.2c-.94.6-1.87,1.3-2.77,2-2.32,1.73-4.71,3.53-7.57,4a5.2,5.2,0,0,1-4.92-1.45A8.75,8.75,0,0,0,250,589.7c-2.34-.4-4.78-.64-7.13-.88-4.44-.44-9-.9-13.24-2.45l-.23-.07c-11-2.59-13-.52-17.16,5.82-.9,1.38-1.92,3-3.23,4.71-5.8,7.35-11.46,8.78-20.83,5.33a28.9,28.9,0,0,1-4.72-2.67c-3.32-2.13-6.75-4.34-10.53-3.7-2.7.53-4.14,2.57-5.41,4.37s-2.17,2.94-3.69,3.2c-3.46.63-6.59-1.62-9.9-4-3.67-2.64-7.82-5.63-13-4.67-3.92.82-6.53,3.6-9,6.28-2.77,3-5.38,5.75-9.71,6.18h-.1c-5,.76-7.09-1.66-9.89-5-2.16-2.58-4.6-5.51-8.72-7-5.73-2.21-9.93-.37-14,1.41A25.51,25.51,0,0,1,82,598.94c-5.72.84-7.67-1.49-10.13-4.44-1.73-2.08-3.7-4.43-7.08-5.59a17,17,0,0,0-8.7-1.5c-3,.12-5.46.21-10.07-4.15-4.11-4.24-4.66-7.06-5.35-10.62A28.09,28.09,0,0,0,37.8,564a13.3,13.3,0,0,0-4.06-5.14c-3.31-2.32-7-1.61-10.89-.86-1.43.27-2.9.55-4.48.73l-.16,0-.86.16c-3.24.64-6.59,1.31-7.56.34-.48-.48-1.13-2-.12-7.23a12.43,12.43,0,0,1,1.75-3.71c1.25-2.13,2.68-4.53,2.64-7.34.29-4.19-.56-5.55-2.34-6.7a2.65,2.65,0,0,1-1.3-1.84,2,2,0,0,0-.08-.22c-1.78-4-3-7-2.11-9.23.73-1.91,3.11-3.74,7.3-5.61s9.9-2.1,14.45-2.22a1.67,1.67,0,0,0,.39,0,41.14,41.14,0,0,0,2.52,5.12c-6.89,2.53-8.4,7.14-8.42,10.64-.06,16.65,32.91,42.76,47.94,47.55,16.25,5,27.48,6.44,39,6.44,6.84,0,13.76-.52,21.88-1.13,4.48-.34,9.56-.72,15.16-1,15.91-1.23,46.47-7.87,61.15-12.55,7.89-2.44,17.37-.68,26.54,1,7.93,1.48,16.13,3,23.57,1.86,18.37-3.25,36.77-15.77,41.9-28.51,2.52-6.24,1.84-12.3-2-17.52a1.93,1.93,0,0,0-.49-.46c2.76-6.1,3.79-14.67,2.69-22.8l1,0a34,34,0,0,0,9.24,1.07c3.1.08,6,.15,8.37,1,3.54,1.34,4,2.17,4.05,2.32.12.33-.55,1.51-1,2.36-1.24,2.19-2.93,5.18-2.53,9.49a8.64,8.64,0,0,0,2.14,4.91C324.35,526.57,325.13,527.61,324.08,530.18Z" class="cls-10"/></g></g></svg>