<?xml version="1.0" encoding="UTF-8"?>
<svg xmlns="http://www.w3.org/2000/svg" onmouseup="{ if(window.parent.document.onmouseup) window.parent.document.onmouseup(arguments[0]);}" viewBox="0 0 320.9 428.75" xmlns:xlink="http://www.w3.org/1999/xlink"><defs><style>.cls-1{isolation:isolate;}.cls-2{fill:#a7a9ac;}.cls-3{fill:#939598;}.cls-4{fill:#414042;}.cls-10,.cls-5{fill:#fff;}.cls-6{fill:#d1d3d4;mix-blend-mode:multiply;}.cls-7{fill:url(#radial-gradient);}.cls-8{fill:url(#radial-gradient-2);}.cls-9{fill:url(#radial-gradient-3);}.cls-10{opacity:0.2;}.cls-11{fill:#9e271d;}.cls-12,.cls-15{fill:none;stroke-linecap:round;stroke-linejoin:round;}.cls-12{stroke:#a7a9ac;stroke-width:2.72px;}.cls-13{fill:#ef4136;}.cls-14{fill:#bc3128;}.cls-15{stroke:#dcddde;stroke-width:3px;}</style><radialGradient gradientUnits="userSpaceOnUse" gradientTransform="matrix(-0.97, -0.25, -0.25, 0.97, 867.36, 115.49)" r="55.91" cy="279.46" cx="510.32" id="radial-gradient"><stop stop-color="#eaa17d" offset="0"/><stop stop-color="#de6d3d" offset="0.83"/><stop stop-color="#af552e" offset="1"/></radialGradient><radialGradient gradientUnits="userSpaceOnUse" gradientTransform="matrix(-1, 0, 0, 1, 810.68, 0)" r="55.41" cy="256.65" cx="508.98" id="radial-gradient-2"><stop stop-color="#efb495" offset="0"/><stop stop-color="#de6d3d" offset="1"/></radialGradient><radialGradient gradientUnits="userSpaceOnUse" gradientTransform="matrix(-0.97, -0.25, -0.25, 0.97, 867.36, 115.49)" r="49.07" fy="267.25187682881716" fx="499.27347251299875" cy="285.14" cx="517.69" id="radial-gradient-3"><stop stop-color="#a7a9ac" offset="0"/><stop stop-color="#a4a6a9" offset="0"/><stop stop-color="#868689" offset="0.05"/><stop stop-color="#6c6c6e" offset="0.1"/><stop stop-color="#575658" offset="0.15"/><stop stop-color="#474547" offset="0.22"/><stop stop-color="#3b3a3b" offset="0.29"/><stop stop-color="#353334" offset="0.4"/><stop stop-color="#333132" offset="0.7"/><stop stop-color="#58595b" offset="0.91"/><stop stop-color="#333132" offset="1"/></radialGradient></defs><g class="cls-1"><g data-name="ÉåÉCÉÑÅ[_1" id="ÉåÉCÉÑÅ__1"><polygon data-cppathid="10000" points="40.47 250.78 31.97 5.1 40.47 0 320.9 61.05 40.47 250.78" class="cls-2"/><polygon data-cppathid="10001" points="40.47 250.78 312.39 347.66 320.9 342.55 320.9 61.05 40.47 250.78" class="cls-3"/><polygon data-cppathid="10002" points="31.97 255.88 312.39 347.66 312.39 66.15 31.97 5.1 31.97 255.88" class="cls-4"/><polygon data-cppathid="10003" points="301.81 329.92 301.81 78.12 40.43 19.76 40.43 245.84 301.81 329.92" class="cls-5"/><path data-cppathid="10004" transform="translate(-244.89 -93.34)" d="M358.9,246.06l102.32,27.88V380.4L358.9,348.12ZM452,284.36l-84.55-23.48v77.45L452,364.56Z" class="cls-4"/><path data-cppathid="10005" transform="translate(-244.89 -93.34)" d="M330.94,289.76a44.18,44.18,0,1,0,44.18-44.17A44.18,44.18,0,0,0,330.94,289.76Z" class="cls-6"/><path data-cppathid="10006" transform="translate(-244.89 -93.34)" d="M255.68,293A50.14,50.14,0,1,0,264,222.58,50.15,50.15,0,0,0,255.68,293Z" class="cls-7"/><path data-cppathid="10007" transform="translate(-244.89 -93.34)" d="M245.24,256a34.77,34.77,0,0,1,9.34-6.71,70.1,70.1,0,0,1,22.3-6.49,50.47,50.47,0,0,1,5.83-.29c1.88,0,3.8.06,5.86.12s4.3.14,6.5.14c7.23,0,15.46-.67,22.18-5.44a67.07,67.07,0,0,0-29.79-18.6,61.23,61.23,0,0,0-11.72-2.22l-.12-.83a49.2,49.2,0,0,1,7-2.34c2,.39,4.06.87,6,1.45a71.12,71.12,0,0,1,31.7,19.81A7.52,7.52,0,0,0,322,228c-.75-3.75-3.91-8-8.89-11.93l.44-.77a49.61,49.61,0,0,1,9.16,4.78,18.5,18.5,0,0,1,3.32,7.12,11.77,11.77,0,0,1-3,10.5l1,1.28c1.29,1.63,2.53,3.36,3.7,5.13,2.89-3.28,5.73-6.72,8.46-10.25l.18-.24q1.26,1.81,2.32,3.71c-2.82,3.6-5.74,7.11-8.71,10.44a72.51,72.51,0,0,1,4.78,10,21.36,21.36,0,0,1,9.5-4.84h.06c.25,1.35.44,2.72.57,4.09a17.18,17.18,0,0,0-8.63,5.05,68.3,68.3,0,0,1,3.08,17c.1,2,.11,4.12,0,6.19a50.22,50.22,0,0,1-3.89,6.24l-.78-.32a61.68,61.68,0,0,0,.56-11.91,63.7,63.7,0,0,0-2.1-13.24,101.38,101.38,0,0,0-7.88,15.26c-4.71,10.7-10.7,19.31-17.8,25.6-.76.68-1.54,1.33-2.32,1.94a48.27,48.27,0,0,1-3.95,2.82,50.18,50.18,0,0,1-7.55.36l-.17-.83a44.21,44.21,0,0,0,11.27-7.36c6.65-5.89,12.29-14,16.77-24.18,4-9,7-14.63,10.11-18.5a68.31,68.31,0,0,0-4.56-10.2A208.88,208.88,0,0,1,261,298.74q-1.59-1.47-3.08-3.11l.28-.13a203.85,203.85,0,0,0,66.74-48.21,69.16,69.16,0,0,0-4.07-5.75l-.89-1.1c-7.71,5.66-16.86,6.44-24.82,6.44-2.28,0-4.53-.07-6.72-.13-2-.06-3.9-.12-5.73-.12a44.63,44.63,0,0,0-5.34.26A65.78,65.78,0,0,0,256.44,253c-5.07,2.59-8.69,5.7-10.75,9.23l-.77,1.32A50.77,50.77,0,0,1,245.24,256Z" class="cls-8"/><path data-cppathid="10008" transform="translate(-244.89 -93.34)" d="M326.08,247.4a67.43,67.43,0,0,0-4.5-6.43c-.48-.61-1-1.2-1.47-1.79-9.36,7.32-21.18,7-31.64,6.65a81.94,81.94,0,0,0-11.21.14A66.74,66.74,0,0,0,256,252.14c-5.26,2.69-9,5.9-11.14,9.59,0-1.4.08-2.79.2-4.18a32.05,32.05,0,0,1,9.91-7.43,69.08,69.08,0,0,1,22-6.4,83.77,83.77,0,0,1,11.55-.16c10,.31,21.37.65,30.07-6.09a67.55,67.55,0,0,0-30.89-19.61,63,63,0,0,0-11.89-2.26q2.32-1,4.72-1.69a66.67,66.67,0,0,1,7.81,1.77,69.91,69.91,0,0,1,32,20.3,8.68,8.68,0,0,0,2.56-8.14c-.82-4.11-4.23-8.52-9.22-12.47a49.83,49.83,0,0,1,6.73,3.29,19.92,19.92,0,0,1,4.72,8.74,11,11,0,0,1-3.29,10.28c.52.62,1,1.25,1.54,1.88a71.17,71.17,0,0,1,4.3,6.09q4.84-5.43,9.31-11.21c.44.68.86,1.36,1.27,2.05q-4.49,5.76-9.35,11.18a71.33,71.33,0,0,1,5.55,11.77,20.21,20.21,0,0,1,10.09-5.56c.12.75.22,1.5.31,2.25a18.4,18.4,0,0,0-9.57,5.75,67.1,67.1,0,0,1,3.2,17.27,64.84,64.84,0,0,1-.09,8c-.84,1.43-1.75,2.84-2.74,4.2a62.56,62.56,0,0,0,.57-12.09,64.77,64.77,0,0,0-2.66-15.3c-2.82,3.77-5.63,9.17-9.08,17-4.66,10.58-10.57,19.09-17.57,25.28-.75.67-1.51,1.31-2.28,1.91a48.28,48.28,0,0,1-5.47,3.75,51.15,51.15,0,0,1-5.25.16,45.46,45.46,0,0,0,11.5-7.51c6.75-6,12.47-14.23,17-24.5,3.87-8.79,7-14.69,10.31-18.69a69.47,69.47,0,0,0-5.41-11.93,208.18,208.18,0,0,1-67,48.63c-.58-.55-1.14-1.13-1.7-1.72A206.4,206.4,0,0,0,326.08,247.4Z" class="cls-9"/><path data-cppathid="10009" transform="translate(-244.89 -93.34)" d="M265.12,231.83c0,9.62,13.39,17.42,29.91,17.42S325,241.45,325,231.83s-13.4-17.41-29.92-17.41S265.12,222.21,265.12,231.83Z" class="cls-10"/><polygon data-cppathid="10010" points="179.19 304.06 140.66 291.45 140.66 261.4 179.19 269.79 179.19 304.06" class="cls-11"/><path data-cppathid="10011" transform="translate(-244.89 -93.34)" d="M426.6,416.45c-6.65,2.09-10.45,1.87-15.13,4.51-5.13,3-9.17,6.48-15.13,11.39-3.74-6.45-7.74-10.07-11.3-15-3.41-4.74-6.32-11.16-12-17.56-5.78,6.21-9.37,12.08-12.85,16.79-3.63,4.92-7.12,8.75-11,15.16-6-5.09-9.64-9.19-14.83-12.38-4.85-3.11-16.6-4.58-22.94-5.94" class="cls-12"/><path data-cppathid="10012" transform="translate(-244.89 -93.34)" d="M421.65,448.44c-5.41-4.8-8.45-17.79-10.77-22.85-2.28-4.85-4.5-13.31-8.51-20.48-6.7,4.35-11.47,7.59-15.8,11.49-4.61,4.2-8.65,7.55-13.74,13.49-5-6-8.33-10.24-12.92-14.63-4.31-4.1-9.81-7.41-16.57-12-4.13,7.14-3.66,17.07-6.09,21.85-2.51,5-9.43,20.35-11.83,25.88" class="cls-12"/><path data-cppathid="10013" transform="translate(-244.89 -93.34)" d="M426.39,437.65c-5.29,2.3-18.24,6-22.17,9.2S396.69,454.44,392,459c-3.24-5.23-7.22-9.25-10.11-13.34s-4.5-8.76-9.06-14.27c-4.62,5.4-7.89,9.07-10.78,13.09s-5.45,8.89-8.76,14.11c-4.69-4.68-8.29-8.88-12.35-12.14-4-3.48-20-13.59-25.34-15.67" class="cls-12"/><path data-cppathid="10014" transform="translate(-244.89 -93.34)" d="M415.67,460.67c-2.32-5.17-10.16-8.85-12.33-12.95s-3.63-8.49-7.08-14.41c-5.39,4.49-8.14,8.74-11.61,12.3s-7.86,5.88-12,11c-4.05-5.14-7.7-7.88-11.27-11.7-3.44-3.66-6.88-9.31-12.3-14-3.56,6-4.72,12.25-6.92,16.37s-4.31,8.07-6.86,13.22" class="cls-12"/><path data-cppathid="10015" transform="translate(-244.89 -93.34)" d="M418.84,455.07c-8.58,1.72-15.37,12.87-18.51,15.81s-7.06,4.81-10.94,9c-3-4.4-4.48-7.73-6.93-11.22s-6-7.53-9.78-12.37c-3.87,4.78-7.6,8.66-10.12,12.16s-3.83,7.13-6.9,11.52c-3.84-4.2-7.38-6.52-10.6-9.59S333,457.41,326.23,454.56" class="cls-12"/><path data-cppathid="10016" transform="translate(-244.89 -93.34)" d="M406.79,481c-2.58-4.26-4.23-7.74-6.24-11.2s-5.29-7.81-8.4-12.85c-4.41,4.3-7.86,8.66-10.75,11.94s-5.37,6.93-8.87,11.26c-3.44-4.36-6.24-7.74-9.12-11.09s-5.82-7-10.19-11.39c-3.17,5-6.59,6.84-8.69,10.43s-5.57,5.2-8.19,9.61" class="cls-12"/><path data-cppathid="10017" transform="translate(-244.89 -93.34)" d="M406.54,481.85c-3.9,3.57-7.2,6-9.86,8.78s-5.39,5.91-8.72,9.6c-3-3.65-5.49-6.81-7.75-9.74s-4.37-5.59-7.68-9.78c-3.36,4.17-5.08,7-7.44,10s-5.26,4.79-8.28,8.5c-3.32-3.73-6.25-5.62-8.9-8.42s-5.12-5.83-9-9.49" class="cls-12"/><path data-cppathid="10018" transform="translate(-244.89 -93.34)" d="M402.65,499.8c-2.86-3.5-4-6.27-6-9.13s-4.4-5.39-7.34-9.65c-3.68,4-5.87,6.54-8.41,9.46s-5.3,5.59-8.47,9.33c-3.14-3.74-5.35-6.77-7.82-9.69s-5.31-6.54-9-10.56c-3,4.31-5.37,7.92-7.54,10.93s-2.42,5-5.33,8.6" class="cls-12"/><path data-cppathid="10019" transform="translate(-244.89 -93.34)" d="M311.42,413.38c.23-8.12-4.66-36.73,3.19-42.86,8.18-6.44,21.63,34.27,28.76,33s-1.34-46.6,8.89-48.85c10.47-1.77,13.27,45.87,20.78,45.84,7.48.25,10.87-47.14,21.21-44.86,10.07,2.72,1.08,47.14,8.21,48.82,7,1.5,20.62-38.07,28.4-31.22,7.49,6.35-3,39.74-4.26,43.24" class="cls-12"/><path data-cppathid="10020" transform="translate(-244.89 -93.34)" d="M297.25,391c0-21.71,32.37-38.72,73.7-38.72s73.7,17,73.7,38.72-32.37,38.71-73.7,38.71S297.25,412.74,297.25,391Zm7,0c0,17.19,30.55,31.71,66.7,31.71s66.7-14.52,66.7-31.71S407.1,359.31,371,359.31,304.25,373.84,304.25,391Z" class="cls-13"/><path data-cppathid="10021" transform="translate(-244.89 -93.34)" d="M371,429.74c29.12,0,53.78-8.45,65.82-21A24.09,24.09,0,0,0,442.09,394c0-21.71-32.37-38.71-73.7-38.71-29.12,0-53.78,8.45-65.81,21A24.1,24.1,0,0,0,297.25,391C297.25,412.74,329.62,429.74,371,429.74Zm60.5-25.61c-9.12,12.41-34.31,21.59-63.06,21.59-36.15,0-66.7-14.52-66.7-31.71,0-4.64,2.25-9.08,6.21-13.1,9.11-12.41,34.3-21.6,63.05-21.6,36.15,0,66.7,14.53,66.7,31.72C437.65,395.67,435.41,400.11,431.45,404.13Z" class="cls-14"/><path data-cppathid="10022" transform="translate(-244.89 -93.34)" d="M427.76,440c-6.88,6.68-12.63,10.56-17.24,14.47-5.25,4.42-10.08,8.21-16,12.88-4.06-3.07-7.42-5.41-11.12-7.89-3.36-2.26-7-3.79-12.33-7.2-5.36,3.4-7.53,5.89-10.89,8.19-3.74,2.62-13.93,7-12.56,7.72-3.93-2.2-11.16-8.91-16.39-13.41-4.61-3.93-9.39-8.67-16.29-15.31" class="cls-15"/><path data-cppathid="10023" transform="translate(-244.89 -93.34)" d="M418.65,461.08a92,92,0,0,0-8.16-7.27c-2.56-1.95-6.72-3.24-10.93-5.89-6.32,4.83-10.42,8.61-14.48,11.55-4.56,3.28-9,6-14,9.65-5.05-3.67-8.6-6.94-13.16-10.18-4.06-2.9-9.05-6.37-15.36-11.2-4.21,2.63-6.56,5.53-9.14,7.51a97.52,97.52,0,0,0-8,7.39" class="cls-15"/><path data-cppathid="10024" transform="translate(-244.89 -93.34)" d="M418.45,462.62c-5.71,5.16-10.67,8.08-14.45,11.25-4.2,3.51-8.15,6.58-13,10.54-3.6-3-5.19-6-8.28-8.38-2.88-2.18-7.22-3.1-11.69-6.33-4.46,3.24-8.89,4.11-11.76,6.3-3.09,2.34-4.6,6.21-8.19,9.2-4.84-3.94-8.59-7.91-12.79-11.41-3.78-3.18-7.19-7.13-12.92-12.22" class="cls-15"/><path data-cppathid="10025" transform="translate(-244.89 -93.34)" d="M411.79,480.45c-2.94-2.83-5.9-4.47-8.38-6.62s-5.29-3.34-8.93-6.11c-5.18,4-9.9,5.76-13.27,8.33-3.68,2.8-5.92,6.14-10.16,9.5-4.25-3.35-7.53-6.07-11.21-8.89-3.37-2.6-7.1-5.91-12.28-10-3.66,2.75-5.45,5.83-7.8,7.87s-5.14,4-8.09,6.84" class="cls-15"/><path data-cppathid="10026" transform="translate(-244.89 -93.34)" d="M411.17,481.4c-4.72,4.17-7.76,7.21-10.9,9.93-3.39,2.92-7.29,4.59-11.36,8-3.39-2.79-7.16-3.66-9.87-5.89s-4.13-5.74-8-8.78c-3.87,3.05-7.05,5.75-9.65,7.87s-4.83,5.55-8.22,8.36c-4.05-3.42-7.2-7.05-10.6-10-3.14-2.71-6.11-5.84-10.84-10" class="cls-15"/><path data-cppathid="10027" transform="translate(-244.89 -93.34)" d="M405.64,497.38c-3.05-2.67-4.91-3.8-7.26-5.87s-4-4.35-7.37-7.1c-4.33,3.52-7.14,6.09-10,8.46-3.07,2.5-6.2,4.55-9.94,7.6-3.74-3.05-5.82-5.66-8.89-8.15-2.89-2.34-6.72-3.64-11-7.15-3.33,2.75-4.93,4.48-7.22,6.48s-5.39,3.61-8.43,6.29" class="cls-15"/><path data-cppathid="10028" transform="translate(-244.89 -93.34)" d="M405.64,497.38c-3.95,3.53-6.62,6.15-9.33,8.53s-5,9.55-8.56,12.57c-6.76-5.18-9.67-12-16.71-17.72-7,5.73-10,12.67-16.76,17.85-3.58-3-5.76-10.16-8.61-12.64s-6.27-4.49-10.21-8" class="cls-15"/><path data-cppathid="10029" transform="translate(-244.89 -93.34)" d="M403.66,509.18c-6.68-5-7.77-4.8-14.21-10.11-3.75,3.17-6.33,6.61-8.94,8.78s-6,10-9.52,12.74c-3.51-2.77-5.38-11.21-8.08-13.42s-6.09-4.22-9.84-7.38c-6.44,5.32-7.88,7.49-14.53,12.48" class="cls-15"/><path data-cppathid="10030" transform="translate(-244.89 -93.34)" d="M315.12,439.47c6.63,3-8.34-31.38.39-27,8.68,4.83,20,34.59,27.07,35.83s.08-25.35,9.49-23.55c9.48,1.44,11.87,26.47,19,26.59,7.13-.13,9.54-25.17,19-26.64,9.41-1.81,2.41,24.93,9.47,23.55s18.4-31.05,27.06-35.89c8.71-4.39-6.26,30.09.35,27" class="cls-15"/><path data-cppathid="10031" transform="translate(-244.89 -93.34)" d="M403.67,512.89c.83-7.37.4-7.37,1.72-14.9,1.44-8.09,7.1-16,7.43-16.76s2.71-9.43,6.59-19.42c4.23-11,2.65-13.26,5.49-22.2,1.45-4.47,8.66-11.11,11.23-17.61s5.54-14.27,5.37-18.62c-3.46,3.67-7,12-9.6,19.44a88.3,88.3,0,0,0-3.79,16.49" class="cls-15"/><path data-cppathid="10032" transform="translate(-244.89 -93.34)" d="M338.81,512.94c-.82-7.35-1.74-7.45-3.06-15-1.44-8.12-6.35-15.92-6.69-16.66a137.36,137.36,0,0,0-5.61-19.34c-4.21-11-3.06-10.77-8.53-22.5-3.48-4.68-4.95-10.7-7.59-17s-7.14-14.92-7-19.3c3.44,4,8.8,13.2,11.41,20.28,2.34,6.41,2.28,11.7,2.68,15.34" class="cls-15"/></g></g></svg>