<?xml version="1.0" encoding="UTF-8"?>
<svg xmlns="http://www.w3.org/2000/svg" onmouseup="{ if(window.parent.document.onmouseup) window.parent.document.onmouseup(arguments[0]);}" viewBox="0 0 126.04 336.04" xmlns:xlink="http://www.w3.org/1999/xlink"><defs><style>.cls-1{stroke:#545454;stroke-linecap:round;stroke-linejoin:round;stroke-width:3px;fill:url(#linear-gradient);}.cls-2{fill:#231f20;}.cls-3{fill:#fff;}</style><linearGradient gradientUnits="userSpaceOnUse" y2="1.5" x2="63.02" y1="334.54" x1="63.02" id="linear-gradient"><stop stop-color="#5ed000" offset="0"/><stop stop-color="#ff0f00" offset="1"/></linearGradient></defs><g data-name="Layer 2" id="Layer_2"><g data-name="Backlog Refinement" id="Backlog_Refinement"><g data-name="jp copy" id="jp_copy"><g data-name="priority arrows" id="priority_arrows"><polygon data-cppathid="10000" points="105.02 44.02 124.54 44.02 63.02 1.5 1.5 44.02 21.02 44.02 21.02 292.02 1.5 292.02 63.02 334.54 124.54 292.02 105.02 292.02 105.02 44.02" class="cls-1"/><path data-cppathid="10001" d="M31,34.89a19.4,19.4,0,0,1-1.89,2.88,9.86,9.86,0,0,0-.59-1.17,24.51,24.51,0,0,0,4-8.12l1.42.45c0,.13-.18.2-.41.2a37.67,37.67,0,0,1-1.39,3.57l.42.12c0,.13-.13.2-.35.24V45.12H31Zm12.16,5.39.84.43a.45.45,0,0,1-.19.16,8.06,8.06,0,0,1-3,2.32,22.86,22.86,0,0,0,5,1,4.22,4.22,0,0,0-.68,1,20.92,20.92,0,0,1-5.68-1.4,25.13,25.13,0,0,1-5.78,1.35,4.32,4.32,0,0,0-.61-.92,26.93,26.93,0,0,0,5.15-1,8.83,8.83,0,0,1-2-1.55A18.14,18.14,0,0,1,34,42.74a3.21,3.21,0,0,0-.72-.75,12.6,12.6,0,0,0,4.41-2.58c-.54-.12-.7-.43-.7-1.08V37.14l1.35.09c0,.11-.11.2-.34.22v.88c0,.33.1.4.75.4H41c.44,0,.54-.09.61-.85a3.46,3.46,0,0,0,.84.29c-.09,1-.39,1.31-1.29,1.31h-2a.63.63,0,0,1-.31.11,8,8,0,0,1-.79.72H43Zm-7.85-9.11H38.5a10.11,10.11,0,0,0,.27-1H34v-1H45.44v1H40c-.09.29-.22.65-.35,1h4.22v4.61h1.74v2.44H44.52V36.6H39.6a8.08,8.08,0,0,1,1.3,1l-.74.56a8,8,0,0,0-1.93-1.44l.18-.13H34.56v1.62H33.48V35.78h1.84Zm1.35,6.48a7,7,0,0,1-2,2.07l-.78-.65a5.57,5.57,0,0,0,2-1.87Zm6.08-4.92V31.9H36.43v.83Zm0,1.53v-.84H36.43v.84Zm-6.32,1.52h6.32v-.85H36.43Zm.69,5.36a7.69,7.69,0,0,0,2.43,1.55,8.55,8.55,0,0,0,2.56-1.55Zm7.29-1.39a10.7,10.7,0,0,0-2.12-2.16l.81-.46a10.57,10.57,0,0,1,2.16,2.1Z" class="cls-2"/><path data-cppathid="10002" d="M53.75,37.86c0,.13-.14.22-.38.24-.47,3.17-1.35,5.67-5.56,7a4.21,4.21,0,0,0-.74-1c3.92-1.12,4.79-3.35,5.09-6.4ZM58.25,43c0,.54.13.63.85.63h2.45c.7,0,.82-.37.9-2.79a3.22,3.22,0,0,0,1.11.51c-.14,2.75-.48,3.44-1.91,3.44H59C57.42,44.8,57,44.42,57,43V37.47H47.29V36.28h7.38V32.46H50.76a13.47,13.47,0,0,1-1.64,2.85,8.12,8.12,0,0,0-1-.58,16,16,0,0,0,2.64-5.9l1.53.36c0,.12-.16.18-.39.18a19.34,19.34,0,0,1-.63,1.92h3.44V28.38l1.58.09c0,.14-.12.23-.36.25v2.57H62v1.17H55.89v3.82h7.4v1.19h-5Z" class="cls-2"/><path data-cppathid="10003" d="M66.89,36.28c0,3.35-.15,6.28-1.39,8.77a4.77,4.77,0,0,0-.83-.72c1.07-2.31,1.19-5,1.19-8V29l1.37.09c0,.11-.11.2-.34.24Zm1.46,6.19V30.32l1.24.09c0,.11-.09.18-.31.22V42.47ZM70.85,29l1.37.09c0,.11-.11.2-.34.23V44.47h-1ZM76.5,42.76a.52.52,0,0,1-.34.13,11.69,11.69,0,0,1-3.37,2.23,5.78,5.78,0,0,0-.77-.81,10.93,10.93,0,0,0,3.33-2.18Zm-3-10.55h2.61c.15-.58.31-1.28.42-1.87H72.76V29.26h8.91v1.08H77.76c-.12.54-.32,1.24-.52,1.87h3.82v9.47H73.51Zm6.38,2.85v-1.9H74.63v1.9Zm0,2.8V36H74.63v1.89Zm0,2.87V38.8H74.63v1.93ZM81,45.16a19.16,19.16,0,0,0-3-2.38l.9-.61a18.9,18.9,0,0,1,3.06,2.3Z" class="cls-2"/><path data-cppathid="10004" d="M85.36,34.73a21.48,21.48,0,0,1-2.2,3,9.24,9.24,0,0,0-.63-1.14A23.79,23.79,0,0,0,87,28.5l1.44.49a.38.38,0,0,1-.41.16,33.4,33.4,0,0,1-1.66,3.73l.49.12c0,.11-.13.2-.36.22V45.16H85.36Zm2.28,8.34H99.72v1.17H87.64ZM88.09,32h4.85v-3.6l1.56.09c0,.15-.11.22-.36.25V32h5.12v1.17H88.09Zm2.51,2.4a45.9,45.9,0,0,1,1.53,7.42l-1.21.25a46.12,46.12,0,0,0-1.42-7.47Zm7.56.3c0,.13-.2.22-.42.22a59.66,59.66,0,0,1-2,7.26s-1-.33-1-.35a52.5,52.5,0,0,0,1.93-7.54Z" class="cls-2"/><path data-cppathid="10005" d="M64.8,47.14h7.44v1.08H56.32V47.14h7.26V45.36l1.58.11c0,.12-.11.21-.36.25Zm6.68,7.09v6.36c0,.7-.16,1.08-.72,1.28a11.64,11.64,0,0,1-3.11.2,5.32,5.32,0,0,0-.4-1.16c.74,0,1.41,0,1.89,0,1,0,1.14,0,1.14-.38V55.3H58.37v6.8H57.19V54.23ZM59.4,49.3h9.8V53H59.4ZM68,52.11V50.22h-7.4v1.89Zm-.2,8.26H61.9v1H60.8V56.54h7Zm-1.1-2.91H61.9v2h4.77Z" class="cls-2"/><path data-cppathid="10006" d="M30,33.89a19.4,19.4,0,0,1-1.89,2.88,9.86,9.86,0,0,0-.59-1.17,24.51,24.51,0,0,0,4-8.12l1.42.45c0,.13-.18.2-.41.2a37.67,37.67,0,0,1-1.39,3.57l.42.12c0,.13-.13.2-.35.24V44.12H30Zm12.16,5.39.84.43a.45.45,0,0,1-.19.16,8.06,8.06,0,0,1-3,2.32,22.86,22.86,0,0,0,5,1,4.22,4.22,0,0,0-.68,1,20.92,20.92,0,0,1-5.68-1.4,25.13,25.13,0,0,1-5.78,1.35,4.32,4.32,0,0,0-.61-.92,26.93,26.93,0,0,0,5.15-1,8.83,8.83,0,0,1-2-1.55A18.14,18.14,0,0,1,33,41.74a3.21,3.21,0,0,0-.72-.75,12.6,12.6,0,0,0,4.41-2.58c-.54-.12-.7-.43-.7-1.08V36.14l1.35.09c0,.11-.11.2-.34.22v.88c0,.33.1.4.75.4H40c.44,0,.54-.09.61-.85a3.46,3.46,0,0,0,.84.29c-.09,1-.39,1.31-1.29,1.31h-2a.63.63,0,0,1-.31.11,8,8,0,0,1-.79.72H42Zm-7.85-9.11H37.5a10.11,10.11,0,0,0,.27-1H33v-1H44.44v1H39c-.09.29-.22.65-.35,1h4.22v4.61h1.74v2.44H43.52V35.6H38.6a8.08,8.08,0,0,1,1.3,1l-.74.56a8,8,0,0,0-1.93-1.44l.18-.13H33.56v1.62H32.48V34.78h1.84Zm1.35,6.48a7,7,0,0,1-2,2.07l-.78-.65a5.57,5.57,0,0,0,2-1.87Zm6.08-4.92V30.9H35.43v.83Zm0,1.53v-.84H35.43v.84Zm-6.32,1.52h6.32v-.85H35.43Zm.69,5.36a7.69,7.69,0,0,0,2.43,1.55,8.55,8.55,0,0,0,2.56-1.55Zm7.29-1.39a10.7,10.7,0,0,0-2.12-2.16l.81-.46a10.57,10.57,0,0,1,2.16,2.1Z" class="cls-3"/><path data-cppathid="10007" d="M52.75,36.86c0,.13-.14.22-.38.24-.47,3.17-1.35,5.67-5.56,7a4.21,4.21,0,0,0-.74-1c3.92-1.12,4.79-3.35,5.09-6.4ZM57.25,42c0,.54.13.63.85.63h2.45c.7,0,.82-.37.9-2.79a3.22,3.22,0,0,0,1.11.51c-.14,2.75-.48,3.44-1.91,3.44H58C56.42,43.8,56,43.42,56,42V36.47H46.29V35.28h7.38V31.46H49.76a13.47,13.47,0,0,1-1.64,2.85,8.12,8.12,0,0,0-1-.58,16,16,0,0,0,2.64-5.9l1.53.36c0,.12-.16.18-.39.18a19.34,19.34,0,0,1-.63,1.92h3.44V27.38l1.58.09c0,.14-.12.23-.36.25v2.57H61v1.17H54.89v3.82h7.4v1.19h-5Z" class="cls-3"/><path data-cppathid="10008" d="M65.89,35.28c0,3.35-.15,6.28-1.39,8.77a4.77,4.77,0,0,0-.83-.72c1.07-2.31,1.19-5,1.19-8V28l1.37.09c0,.11-.11.2-.34.24Zm1.46,6.19V29.32l1.24.09c0,.11-.09.18-.31.22V41.47ZM69.85,28l1.37.09c0,.11-.11.2-.34.23V43.47h-1ZM75.5,41.76a.52.52,0,0,1-.34.13,11.69,11.69,0,0,1-3.37,2.23,5.78,5.78,0,0,0-.77-.81,10.93,10.93,0,0,0,3.33-2.18Zm-3-10.55h2.61c.15-.58.31-1.28.42-1.87H71.76V28.26h8.91v1.08H76.76c-.12.54-.32,1.24-.52,1.87h3.82v9.47H72.51Zm6.38,2.85v-1.9H73.63v1.9Zm0,2.8V35H73.63v1.89Zm0,2.87V37.8H73.63v1.93ZM80,44.16a19.16,19.16,0,0,0-3-2.38l.9-.61a18.9,18.9,0,0,1,3.06,2.3Z" class="cls-3"/><path data-cppathid="10009" d="M84.36,33.73a21.48,21.48,0,0,1-2.2,3,9.24,9.24,0,0,0-.63-1.14A23.79,23.79,0,0,0,86,27.5l1.44.49a.38.38,0,0,1-.41.16,33.4,33.4,0,0,1-1.66,3.73l.49.12c0,.11-.13.2-.36.22V44.16H84.36Zm2.28,8.34H98.72v1.17H86.64ZM87.09,31h4.85v-3.6l1.56.09c0,.15-.11.22-.36.25V31h5.12v1.17H87.09Zm2.51,2.4a45.9,45.9,0,0,1,1.53,7.42l-1.21.25a46.12,46.12,0,0,0-1.42-7.47Zm7.56.3c0,.13-.2.22-.42.22a59.66,59.66,0,0,1-2,7.26s-1-.33-1-.35a52.5,52.5,0,0,0,1.93-7.54Z" class="cls-3"/><path data-cppathid="10010" d="M63.8,46.14h7.44v1.08H55.32V46.14h7.26V44.36l1.58.11c0,.12-.11.21-.36.25Zm6.68,7.09v6.36c0,.7-.16,1.08-.72,1.28a11.64,11.64,0,0,1-3.11.2,5.32,5.32,0,0,0-.4-1.16c.74,0,1.41,0,1.89,0,1,0,1.14,0,1.14-.38V54.3H57.37v6.8H56.19V53.23ZM58.4,48.3h9.8V52H58.4ZM67,51.11V49.22h-7.4v1.89Zm-.2,8.26H60.9v1H59.8V55.54h7Zm-1.1-2.91H60.9v2h4.77Z" class="cls-3"/><path data-cppathid="10011" d="M29.79,274.26a22.44,22.44,0,0,1-1.89,2.88,10.76,10.76,0,0,0-.6-1.17,24.32,24.32,0,0,0,4-8.12l1.43.45c-.06.13-.18.2-.42.2a34,34,0,0,1-1.38,3.56l.41.13c0,.13-.13.2-.34.23v12.07H29.79Zm12.15,5.39.85.43a.66.66,0,0,1-.2.16,8.06,8.06,0,0,1-3,2.32,23.46,23.46,0,0,0,5,1,4.22,4.22,0,0,0-.68,1,20.85,20.85,0,0,1-5.67-1.4,25.39,25.39,0,0,1-5.78,1.35,5.24,5.24,0,0,0-.61-.92,27.67,27.67,0,0,0,5.15-1A8.43,8.43,0,0,1,35,281a16.27,16.27,0,0,1-2.25,1.12,3,3,0,0,0-.72-.75,12.66,12.66,0,0,0,4.41-2.58c-.54-.13-.7-.43-.7-1.08v-1.19l1.35.09c0,.11-.11.2-.34.22v.88c0,.32.11.4.76.4H39.8c.45,0,.54-.09.61-.85a3.7,3.7,0,0,0,.85.29c-.09,1-.4,1.31-1.3,1.31H38a.56.56,0,0,1-.31.11,9.42,9.42,0,0,1-.79.72h4.85Zm-7.85-9.12h3.19a9.27,9.27,0,0,0,.27-1H32.72v-1H44.21v1H38.79c-.09.28-.22.64-.34,1h4.21v4.61h1.75v2.45H43.29V276H38.38a7.84,7.84,0,0,1,1.29,1l-.74.56A8,8,0,0,0,37,276.1l.18-.13H33.33v1.62H32.25v-2.45h1.84ZM35.44,277a7.12,7.12,0,0,1-2,2.07l-.77-.65a5.62,5.62,0,0,0,1.94-1.87Zm6.09-4.92v-.83H35.21v.83Zm0,1.53v-.85H35.21v.85Zm-6.32,1.51h6.32v-.84H35.21Zm.68,5.37a7.87,7.87,0,0,0,2.43,1.55,8.43,8.43,0,0,0,2.56-1.55Zm7.29-1.39A10.7,10.7,0,0,0,41.06,277l.81-.47A10.6,10.6,0,0,1,44,278.6Z" class="cls-2"/><path data-cppathid="10012" d="M52.52,277.23c0,.13-.14.22-.37.24-.47,3.17-1.36,5.67-5.57,7a4,4,0,0,0-.74-1c3.93-1.11,4.79-3.34,5.1-6.39Zm4.5,5.15c0,.54.13.63.85.63h2.45c.7,0,.83-.38.9-2.79a3.19,3.19,0,0,0,1.12.51c-.15,2.75-.49,3.43-1.91,3.43H57.74c-1.54,0-1.94-.37-1.94-1.8v-5.52H46.06v-1.19h7.38v-3.82H49.53a13.51,13.51,0,0,1-1.63,2.85,7.61,7.61,0,0,0-1-.58,15.94,15.94,0,0,0,2.65-5.91l1.53.36c-.06.13-.16.18-.4.18a18.65,18.65,0,0,1-.63,1.93h3.44v-2.92l1.59.09c0,.15-.13.24-.36.26v2.57h6.1v1.17h-6.1v3.82h7.4v1.19H57Z" class="cls-2"/><path data-cppathid="10013" d="M65.66,275.65c0,3.35-.14,6.28-1.38,8.77a5.17,5.17,0,0,0-.83-.72c1.06-2.31,1.19-5,1.19-8.05v-7.26l1.36.09c0,.11-.1.2-.34.24Zm1.46,6.19V269.69l1.24.09c0,.11-.09.18-.3.21v11.85Zm2.5-13.5,1.37.09c0,.11-.11.2-.34.23v15.18h-1Zm5.66,13.79a.65.65,0,0,1-.35.13,11.77,11.77,0,0,1-3.36,2.23,4.55,4.55,0,0,0-.78-.81,10.81,10.81,0,0,0,3.33-2.18Zm-3-10.55H74.9c.14-.58.3-1.28.41-1.87H71.53v-1.08h8.91v1.08h-3.9c-.13.54-.33,1.24-.53,1.87h3.82v9.47H72.29Zm6.37,2.84v-1.89H73.4v1.89Zm0,2.81v-1.89H73.4v1.89Zm0,2.87v-1.93H73.4v1.93Zm1.1,4.42a19.63,19.63,0,0,0-3-2.37l.9-.61a19.2,19.2,0,0,1,3.06,2.3Z" class="cls-2"/><path data-cppathid="10014" d="M84.13,274.1a21.27,21.27,0,0,1-2.2,3A8.09,8.09,0,0,0,81.3,276a23.88,23.88,0,0,0,4.5-8.1l1.44.49c-.07.12-.19.18-.41.16a32.46,32.46,0,0,1-1.66,3.72l.49.13c0,.11-.13.2-.36.22v11.93H84.13Zm2.29,8.34H98.5v1.17H86.42Zm.45-11.06h4.84v-3.6l1.57.09c0,.14-.11.22-.36.25v3.26H98v1.17H86.87Zm2.5,2.39a45.05,45.05,0,0,1,1.53,7.42l-1.21.25A45.25,45.25,0,0,0,88.27,274Zm7.56.31c0,.13-.2.22-.41.22a60.82,60.82,0,0,1-2,7.25s-1-.32-1-.34a53.87,53.87,0,0,0,1.92-7.54Z" class="cls-2"/><path data-cppathid="10015" d="M56.93,291.15a21.63,21.63,0,0,1-2,3,9.1,9.1,0,0,0-.63-1.14,24.19,24.19,0,0,0,4.28-8.12l1.43.47c0,.13-.18.2-.4.18a32.75,32.75,0,0,1-1.51,3.56l.41.13c0,.11-.12.2-.36.23v12.07H56.93Zm14.48,1.14H67.2c.55,4,1.71,7.24,2.91,7.25.42,0,.6-.75.67-2.54a3.08,3.08,0,0,0,1,.64c-.22,2.41-.65,3.11-1.75,3.11-2,0-3.38-3.73-4-8.46H61.78v4.95l4.46-.79.05,1c-2.28.49-4.64,1-6.19,1.28a.33.33,0,0,1-.23.26l-.53-1.37,1.25-.2V286.71l.7.23a49,49,0,0,0,8.26-1.58l1,1a.39.39,0,0,1-.2,0,.44.44,0,0,1-.16,0c-.83.25-1.91.49-3.08.72a.49.49,0,0,1-.33.15,36,36,0,0,0,.24,3.92h4.34ZM59.89,301v-1.1h7.86V301Zm1.89-9.8h4.08c-.14-1.22-.21-2.52-.25-3.8-1.26.2-2.59.38-3.83.52Z" class="cls-2"/><path data-cppathid="10016" d="M28.79,273.26a22.44,22.44,0,0,1-1.89,2.88,10.76,10.76,0,0,0-.6-1.17,24.32,24.32,0,0,0,4-8.12l1.43.45c-.06.13-.18.2-.42.2a34,34,0,0,1-1.38,3.56l.41.13c0,.13-.13.2-.34.23v12.07H28.79Zm12.15,5.39.85.43a.66.66,0,0,1-.2.16,8.06,8.06,0,0,1-3,2.32,23.46,23.46,0,0,0,5,1,4.22,4.22,0,0,0-.68,1,20.85,20.85,0,0,1-5.67-1.4,25.39,25.39,0,0,1-5.78,1.35,5.24,5.24,0,0,0-.61-.92,27.67,27.67,0,0,0,5.15-1A8.43,8.43,0,0,1,34,280a16.27,16.27,0,0,1-2.25,1.12,3,3,0,0,0-.72-.75,12.66,12.66,0,0,0,4.41-2.58c-.54-.13-.7-.43-.7-1.08v-1.19l1.35.09c0,.11-.11.2-.34.22v.88c0,.32.11.4.76.4H38.8c.45,0,.54-.09.61-.85a3.7,3.7,0,0,0,.85.29c-.09,1-.4,1.31-1.3,1.31H37a.56.56,0,0,1-.31.11,9.42,9.42,0,0,1-.79.72h4.85Zm-7.85-9.12h3.19a9.27,9.27,0,0,0,.27-1H31.72v-1H43.21v1H37.79c-.09.28-.22.64-.34,1h4.21v4.61h1.75v2.45H42.29V275H37.38a7.84,7.84,0,0,1,1.29,1l-.74.56A8,8,0,0,0,36,275.1l.18-.13H32.33v1.62H31.25v-2.45h1.84ZM34.44,276a7.12,7.12,0,0,1-2,2.07l-.77-.65a5.62,5.62,0,0,0,1.94-1.87Zm6.09-4.92v-.83H34.21v.83Zm0,1.53v-.85H34.21v.85Zm-6.32,1.51h6.32v-.84H34.21Zm.68,5.37a7.87,7.87,0,0,0,2.43,1.55,8.43,8.43,0,0,0,2.56-1.55Zm7.29-1.39A10.7,10.7,0,0,0,40.06,276l.81-.47A10.6,10.6,0,0,1,43,277.6Z" class="cls-3"/><path data-cppathid="10017" d="M51.52,276.23c0,.13-.14.22-.37.24-.47,3.17-1.36,5.67-5.57,7a4,4,0,0,0-.74-1c3.93-1.11,4.79-3.34,5.1-6.39Zm4.5,5.15c0,.54.13.63.85.63h2.45c.7,0,.83-.38.9-2.79a3.19,3.19,0,0,0,1.12.51c-.15,2.75-.49,3.43-1.91,3.43H56.74c-1.54,0-1.94-.37-1.94-1.8v-5.52H45.06v-1.19h7.38v-3.82H48.53a13.51,13.51,0,0,1-1.63,2.85,7.61,7.61,0,0,0-1-.58,15.94,15.94,0,0,0,2.65-5.91l1.53.36c-.06.13-.16.18-.4.18a18.65,18.65,0,0,1-.63,1.93h3.44v-2.92l1.59.09c0,.15-.13.24-.36.26v2.57h6.1v1.17h-6.1v3.82h7.4v1.19H56Z" class="cls-3"/><path data-cppathid="10018" d="M64.66,274.65c0,3.35-.14,6.28-1.38,8.77a5.17,5.17,0,0,0-.83-.72c1.06-2.31,1.19-5,1.19-8.05v-7.26l1.36.09c0,.11-.1.2-.34.24Zm1.46,6.19V268.69l1.24.09c0,.11-.09.18-.3.21v11.85Zm2.5-13.5,1.37.09c0,.11-.11.2-.34.23v15.18h-1Zm5.66,13.79a.65.65,0,0,1-.35.13,11.77,11.77,0,0,1-3.36,2.23,4.55,4.55,0,0,0-.78-.81,10.81,10.81,0,0,0,3.33-2.18Zm-3-10.55H73.9c.14-.58.3-1.28.41-1.87H70.53v-1.08h8.91v1.08h-3.9c-.13.54-.33,1.24-.53,1.87h3.82v9.47H71.29Zm6.37,2.84v-1.89H72.4v1.89Zm0,2.81v-1.89H72.4v1.89Zm0,2.87v-1.93H72.4v1.93Zm1.1,4.42a19.63,19.63,0,0,0-3-2.37l.9-.61a19.2,19.2,0,0,1,3.06,2.3Z" class="cls-3"/><path data-cppathid="10019" d="M83.13,273.1a21.27,21.27,0,0,1-2.2,3A8.09,8.09,0,0,0,80.3,275a23.88,23.88,0,0,0,4.5-8.1l1.44.49c-.07.12-.19.18-.41.16a32.46,32.46,0,0,1-1.66,3.72l.49.13c0,.11-.13.2-.36.22v11.93H83.13Zm2.29,8.34H97.5v1.17H85.42Zm.45-11.06h4.84v-3.6l1.57.09c0,.14-.11.22-.36.25v3.26H97v1.17H85.87Zm2.5,2.39a45.05,45.05,0,0,1,1.53,7.42l-1.21.25A45.25,45.25,0,0,0,87.27,273Zm7.56.31c0,.13-.2.22-.41.22a60.82,60.82,0,0,1-2,7.25s-1-.32-1-.34a53.87,53.87,0,0,0,1.92-7.54Z" class="cls-3"/><path data-cppathid="10020" d="M55.93,290.15a21.63,21.63,0,0,1-2,3,9.1,9.1,0,0,0-.63-1.14,24.19,24.19,0,0,0,4.28-8.12l1.43.47c0,.13-.18.2-.4.18a32.75,32.75,0,0,1-1.51,3.56l.41.13c0,.11-.12.2-.36.23v12.07H55.93Zm14.48,1.14H66.2c.55,4,1.71,7.24,2.91,7.25.42,0,.6-.75.67-2.54a3.08,3.08,0,0,0,1,.64c-.22,2.41-.65,3.11-1.75,3.11-2,0-3.38-3.73-4-8.46H60.78v4.95l4.46-.79.05,1c-2.28.49-4.64,1-6.19,1.28a.33.33,0,0,1-.23.26l-.53-1.37,1.25-.2V285.71l.7.23a49,49,0,0,0,8.26-1.58l1,1a.39.39,0,0,1-.2,0,.44.44,0,0,1-.16,0c-.83.25-1.91.49-3.08.72a.49.49,0,0,1-.33.15,36,36,0,0,0,.24,3.92h4.34ZM58.89,300v-1.1h7.86V300Zm1.89-9.8h4.08c-.14-1.22-.21-2.52-.25-3.8-1.26.2-2.59.38-3.83.52Z" class="cls-3"/></g></g></g></g></svg>