<?xml version="1.0" encoding="UTF-8"?>
<svg xmlns="http://www.w3.org/2000/svg" onmouseup="{ if(window.parent.document.onmouseup) window.parent.document.onmouseup(arguments[0]);}" viewBox="0 0 116.59 220.92"><defs><style>.cls-1{fill:#d7d7d7;}.cls-2,.cls-7,.cls-8,.cls-9{stroke:#000;}.cls-2{stroke-width:2.52px;}.cls-3{fill:#ffc589;}.cls-4{fill:#c9f5ff;}.cls-5{fill:#332518;}.cls-6{fill:#4ecdf4;}.cls-7{fill:none;stroke-width:2px;}.cls-8{stroke-width:1.91px;}.cls-9{stroke-width:0.63px;}.cls-10{fill:#fff;}</style></defs><g data-name="Layer 2" id="Layer_2"><g data-name="Backlog Refinement" id="Backlog_Refinement"><g data-name="jp copy" id="jp_copy"><g data-name="PO and his shadow" id="PO_and_his_shadow"><path data-cppathid="10000" d="M116.59,214.07c0,3.78-20.41,6.85-45.59,6.85s-45.59-3.07-45.59-6.85,20.41-6.85,45.59-6.85S116.59,210.28,116.59,214.07Z" class="cls-1" data-name="PO shadow" id="PO_shadow"/><g id="PO"><path data-cppathid="10001" d="M58.67,81s16.17,21,18.45,51.65c.13,1.87,0,9.28,0,9.28L50,147.35s0-1.53,0-2.27c0-21,.74-44.83.74-44.83s1.7-25,4-23.83S58.67,81,58.67,81Z" class="cls-2"/><path data-cppathid="10002" d="M74.83,121.65c-1.58,2.09-2.76,3.49-2.76,3.49s-6.72,2.38-4.36,3.11,5.42-1.36,5.42-1.36-5,5.94-4.48,7.27,3.44-3,3.44-3-1.73,4.28-1.67,5,2.69-3.67,2.69-3.67-.14,3.92.55,3.87,2.36-7.79,3.8-10c.28-.44,1.08-1.36,2.13-2.61C83.8,118.74,77.15,118.58,74.83,121.65Z" class="cls-3"/><path data-cppathid="10003" d="M67.26,85.33s-4.61-1.2-6.89,2.29,24.78,16.22,23.38,19c-7.07,14-8.85,15.56-8.85,15.56l2.1,3.37s8.57-10.63,13.59-16.29S67.26,85.33,67.26,85.33Z" class="cls-2"/><path data-cppathid="10004" d="M14.67,97.22c-2.14-1.52-3.56-2.67-3.56-2.67S8.56,87.9,7.89,90.28s1.49,5.38,1.49,5.38S3.32,90.76,2,91.36s3.13,3.36,3.13,3.36S.8,93.1.12,93.18s3.73,2.6,3.73,2.6-3.92,0-3.85.64S7.85,98.59,10.07,100c.45.27,1.39,1,2.66,2.07C17.8,106.12,17.79,99.46,14.67,97.22Z" class="cls-3"/><path data-cppathid="10005" d="M50.78,88.74s1.08-4.64-2.46-6.83S32.73,107.1,29.93,105.76C15.8,99.05,14.15,97.3,14.15,97.3l-3.31,2.19s10.85,8.3,16.63,13.18S50.78,88.74,50.78,88.74Z" class="cls-2"/><path data-cppathid="10006" d="M73.12,139.84s.19,2.89.25,4.34c1.09,28.19-6.76,58.63-6.76,58.63s6.51,2.17,7.6,4.34S59,208.24,59,208.24s3.25-39.09,2.17-47.77-8.69,45.6-10.86,48.85S40,215.84,40,215.84s1.63-6.52,3.26-9.23,5.74-40.91,6-61.34c0-.56,0-1.63,0-1.63Z"/><path data-cppathid="10007" d="M57.92,82.3S70.85,108.56,73,137.87c.13,1.79.27,5.41.27,5.41l-23.7,2.53s0-1.47,0-2.17c0-20.09.7-42.88.7-42.88S52,76.87,54.12,78,57.92,82.3,57.92,82.3Z" class="cls-4"/><path data-cppathid="10008" d="M66,136.29l-17.1,11.6s0-1.56,0-2.3c0-21.32.67-45.52.67-45.52s.8-13.4,2-20.28C59.16,80.67,66,136.29,66,136.29Z" class="cls-2"/><path data-cppathid="10009" d="M66.73,72.1s0,0,.53-1.29c.08-.17,4.46-13.13,4.46-13.13s-4.51,1.87-15.38,4C48.67,63.26,41,50.28,45.42,52.13,56.94,57,73.69,49.66,73.69,49.66s.15.55.19.35c1.77-8.88,2.19-18.73-1.69-26.11C63.09,6.63,34.91-8.83,26.72,10.26S27.63,42.09,34,53.91,52.46,81.11,57.94,81.8C62.79,82.41,66.73,72.1,66.73,72.1Z" class="cls-3"/><path data-cppathid="10010" d="M30,5.68S42.59,8.35,45.63,12s2.61,4.44,2.65,4.6c1.6-4.08-1.3-6.06-1.3-6.06C55.72,12,59,11.89,68.63,9.24c-6.72.76-9.46-.1-9.46-.1s6.34-.84,8.7-5.49a38.32,38.32,0,0,1-10.32,2L68.63,1.47A55.57,55.57,0,0,1,51.74.77a36.57,36.57,0,0,0-17.49.67C31.82,2,30,5.68,30,5.68Z" class="cls-5"/><path data-cppathid="10011" d="M30,5.68S31.82,16,31.82,19s-7.88,10.91-7.88,10.91-4.24-9.7-2.42-15.16S30,5.68,30,5.68Z" class="cls-5"/><polygon data-cppathid="10012" points="58.47 84.68 60.41 83.82 61 90.16 58.47 84.68" class="cls-6"/><polygon data-cppathid="10013" points="61 90.16 67.72 109.62 67.63 119.57 62.33 110.69 61 90.16" class="cls-6"/><path data-cppathid="10014" d="M34.32,29.18C36.59,36.37,38.11,39,38.11,39l20.45-3.79L57.8,24.63l5.68,9.47,13.64-2.27L75.6,19.71" class="cls-7"/><path data-cppathid="10015" d="M75.6,20.66s-33.07-.35-52.9,16.6c0,0,.13,2,.13,3.11,0,.9,1-2,1.77-3,5.17-6.92,29.41-16.48,51-15.79C75.85,20.77,75.6,20.66,75.6,20.66Z" class="cls-8"/><path data-cppathid="10016" d="M54.77,31.49c0,2-1,3.64-2.14,3.64s-2.14-1.63-2.14-3.64,1-3.63,2.14-3.63S54.77,29.49,54.77,31.49Z" class="cls-9"/><path data-cppathid="10017" d="M52,29.79a1.07,1.07,0,1,1-1.07-1.07A1.06,1.06,0,0,1,52,29.79Z" class="cls-10"/><path data-cppathid="10018" d="M64.85,29.37c0,1.65-.78,3-1.76,3s-1.76-1.34-1.76-3,.79-3,1.76-3S64.85,27.72,64.85,29.37Z" class="cls-9"/><path data-cppathid="10019" d="M62.93,28.09A1.07,1.07,0,1,1,61.86,27,1.06,1.06,0,0,1,62.93,28.09Z" class="cls-10"/></g></g></g></g></g></svg>