<?xml version="1.0" encoding="UTF-8"?>
<svg xmlns="http://www.w3.org/2000/svg" onmouseup="{ if(window.parent.document.onmouseup) window.parent.document.onmouseup(arguments[0]);}" viewBox="0 0 447.06 485.37" xmlns:xlink="http://www.w3.org/1999/xlink"><defs><style>.cls-1,.cls-18,.cls-25,.cls-30,.cls-49,.cls-81,.cls-82,.cls-83,.cls-84{fill:none;}.cls-2{isolation:isolate;}.cls-3{clip-path:url(#clip-path);}.cls-4{fill:#ffc488;}.cls-24,.cls-5,.cls-6{fill:#4f3322;}.cls-24,.cls-6{stroke:#66422e;}.cls-6{stroke-width:0.92px;}.cls-26,.cls-7{fill:#e3e3e3;}.cls-8{fill:#704828;}.cls-9{fill:#c21b00;}.cls-10{fill:#352923;}.cls-11{fill:#eda260;}.cls-12{fill:#ffc589;}.cls-13,.cls-15,.cls-49,.cls-64{stroke:#000;}.cls-13{stroke-width:0.64px;}.cls-14,.cls-50,.cls-76,.cls-78{fill:#fff;}.cls-15{stroke-width:0.84px;}.cls-16{fill:#603813;}.cls-17{fill:#a16832;}.cls-18{stroke:#82522a;stroke-width:1.06px;}.cls-19,.cls-21{fill:#1a1a1a;}.cls-20{clip-path:url(#clip-path-2);}.cls-21{opacity:0.46;}.cls-22{fill:#ded0b6;}.cls-23{fill:#d8a96c;}.cls-25{stroke:#965d41;}.cls-25,.cls-50{stroke-width:2px;}.cls-26{stroke:#b0b0b0;stroke-width:0.31px;}.cls-27{fill:#3a2517;stroke:#fac608;stroke-width:0.88px;}.cls-28{fill:#fac608;}.cls-29{fill:#90a39f;}.cls-30{stroke:#dcece9;stroke-width:0.3px;}.cls-31{fill:#fcc488;}.cls-32{fill:#d7d7d7;}.cls-33{fill:#9c1c25;}.cls-34{fill:#7f1426;}.cls-35{fill:#6780a2;}.cls-36{fill:#b92025;}.cls-37{fill:#610a24;}.cls-38{fill:#eca160;}.cls-39{fill:#eed214;}.cls-40{fill:#f07322;}.cls-41{fill:#eba05e;}.cls-42{fill:#5b462e;}.cls-43{fill:#5e4830;}.cls-44{fill:#513e29;}.cls-45{fill:#5d472f;}.cls-46{fill:#5c462e;}.cls-47{fill:url(#linear-gradient);}.cls-48{fill:#dcece9;}.cls-49{stroke-linecap:round;stroke-linejoin:round;stroke-width:0.5px;stroke-dasharray:1.32;opacity:0.35;}.cls-49,.cls-70{mix-blend-mode:multiply;}.cls-50{stroke:#afafb0;}.cls-51{fill:#a27c52;}.cls-52{fill:#6ab8e6;}.cls-53,.cls-57{fill:#272361;stroke:#272361;}.cls-53{stroke-width:0.25px;}.cls-54,.cls-62,.cls-88,.cls-92{fill:#c8c8c8;}.cls-54,.cls-62,.cls-63,.cls-67,.cls-86,.cls-92{stroke:#c8c8c8;}.cls-54{stroke-width:0.26px;}.cls-55{fill:#a16c29;}.cls-56{fill:#f6ac3c;}.cls-57{stroke-width:0.23px;}.cls-58,.cls-67{fill:#efeeee;}.cls-58{opacity:0.4;}.cls-59{fill:gray;}.cls-60{fill:#fcc58a;}.cls-61{fill:#e34445;}.cls-62{stroke-width:2.02px;}.cls-63,.cls-68,.cls-86{fill:#e2e2e2;}.cls-63,.cls-67{stroke-width:0.98px;}.cls-64{stroke-width:0.59px;}.cls-65{fill:#4d4e4e;}.cls-66{fill:#d12027;stroke:#ab3124;stroke-width:1.17px;}.cls-69,.cls-71{fill:#2d358b;}.cls-70{opacity:0.25;}.cls-71{stroke:#2d358b;stroke-width:2.05px;}.cls-72{fill:#2b2b6b;}.cls-73{clip-path:url(#clip-path-3);}.cls-74{fill:#fde885;}.cls-75{fill:#eacf60;}.cls-76{opacity:0.87;mix-blend-mode:overlay;}.cls-77{fill:#ab3124;}.cls-78{opacity:0.79;}.cls-79{fill:#d28131;}.cls-80{clip-path:url(#clip-path-4);}.cls-81{stroke:#676767;stroke-width:0.91px;}.cls-82,.cls-83,.cls-84{stroke:gray;}.cls-82{stroke-width:1.52px;}.cls-83{stroke-width:1.21px;}.cls-84{stroke-width:1.69px;}.cls-85{fill:#f8f2dc;}.cls-87{fill:#9d7149;}.cls-89{fill:#402312;}.cls-90{fill:#bf278b;}.cls-91{fill:#f28f20;stroke:#f28f20;stroke-width:0.61px;}.cls-93{fill:#242551;}.cls-94{fill:#7b3c7c;}.cls-95{fill:#9e549d;}.cls-96{clip-path:url(#clip-path-5);}.cls-97{fill:#c1976c;}.cls-98{fill:#ec2024;}.cls-99{fill:#3ab14a;}.cls-100{fill:#f7e91d;}</style><clipPath transform="translate(-109.36 -9.06)" id="clip-path"><rect data-cppathid="10000" height="370" width="575.34" class="cls-1"/></clipPath><clipPath transform="translate(-109.36 -9.06)" id="clip-path-2"><polygon data-cppathid="10001" points="364.72 68.15 355.93 36.32 430.74 17.23 444.96 40.01 364.72 68.15" class="cls-1"/></clipPath><linearGradient gradientUnits="userSpaceOnUse" gradientTransform="matrix(-1, 0.02, 0.02, 1, 747.67, 352.01)" y2="-31.85" x2="336.03" y1="7.44" x1="325.68" id="linear-gradient"><stop stop-color="#abbeba" offset="0"/><stop stop-color="#b8cac6" offset="0.04"/><stop stop-color="#c3d6d2" offset="0.11"/><stop stop-color="#cadcd8" offset="0.2"/><stop stop-color="#ccdeda" offset="0.46"/><stop stop-color="#c9dbd7" offset="0.66"/><stop stop-color="#bfd1cd" offset="0.83"/><stop stop-color="#aec1bd" offset="0.98"/><stop stop-color="#abbeba" offset="1"/></linearGradient><clipPath transform="translate(-109.36 -9.06)" id="clip-path-3"><path data-cppathid="10002" d="M123.53,345.35c-.46,4.2,13.94,9.19,32.15,11.17s33.34.18,33.8-4-13.94-9.2-32.16-11.17S124,341.16,123.53,345.35Z" class="cls-1"/></clipPath><clipPath transform="translate(-109.36 -9.06)" id="clip-path-4"><path data-cppathid="10003" d="M161.19,350.34c-4.13-2.94-11.36-1.2-16.37-1.2-5.86,0-11.37.32-16.72-1.69-5.71-2.13-11-4.32-16-8a32.65,32.65,0,0,1-12.93-21.55c-1.4-9.52-.36-21.18,6.81-28.45,8.17-8.31,20.5-9.64,31.25-6,5.22,1.78,10.3,4.45,13.62,8.93a76.22,76.22,0,0,1,8.06,13.28,82.41,82.41,0,0,1,4,12.37c.85,3.08,2.2,6,2.68,9.17.64,4.35-.16,8.88-.9,13.14-.5,2.83-.51,5.8-1.86,8.24a9.93,9.93,0,0,0-.94,1.75c-.25.22,0-.09-.14-.2" class="cls-1"/></clipPath><clipPath transform="translate(-109.36 -9.06)" id="clip-path-5"><polygon data-cppathid="10004" points="321.97 403.48 253.03 380.93 279.67 362.27 348.61 384.82 321.97 403.48" class="cls-1"/></clipPath></defs><g class="cls-2"><g data-name="Layer 2" id="Layer_2"><g id="team"><g class="cls-3"><path data-cppathid="10005" transform="translate(-109.36 -9.06)" d="M352.64,214.34c-1.14.38-16.84,13.14-16.05,17.33,1.14,6.08,27.7,37.69,27.32,40.74s12.56-8,6.09-12.18-18.45-29.54-24.54-30.68l19-17.32Z" class="cls-4"/><path data-cppathid="10006" transform="translate(-109.36 -9.06)" d="M365.43,270.13s-11.41,4.94-9.89,9.13-2.66-8.38-5.7-8,1.52,12.55,3.8,12.55,15.22,1.52,19.78-5.71.38-14.07-1.52-16S365.43,270.13,365.43,270.13Z" class="cls-4"/><path data-cppathid="10007" transform="translate(-109.36 -9.06)" d="M358.32,264.14l2.95,3.81s5.31,1.32,8.7-2.06c4.55-4.55,2.11-4.65,2.11-4.65l-3.62-3.85Z" class="cls-5"/><path data-cppathid="10008" transform="translate(-109.36 -9.06)" d="M373.35,182.65c-8,2.11-38,39.3-39.3,48.59s17.33,33,23.24,35.07c0,0,7.4.75,11.73-2.16,0,0,3.9-5,2.64-9.25s-14-18.59-15.64-22.39c1.27-.85,2.12-1.27.85-3.38,5.07-6.76,25-26.11,24.74-35A12.45,12.45,0,0,0,373.35,182.65Z" class="cls-6"/><path data-cppathid="10009" transform="translate(-109.36 -9.06)" d="M344.89,142c0,.06,0,.13,0,.2a3.07,3.07,0,0,0,2.75,2.5,3.6,3.6,0,0,0,.76.88c.38,1.39,1.46,2.12,3.85,2.14a2.08,2.08,0,0,0,.55.4l.57.32c.21.12,2.81.71,2.39,0,0-.08-.13-.16-.19-.25.21,0,.41-.08.63-.14,1.42.41,2.81.45,3.11-.75a2.54,2.54,0,0,0,.05-1.18l.14-.32c1.45.11,4.24-.59,3.84-2.5,0,0,0,0,0,0l1-.22a.32.32,0,0,0,.15-.57,1.37,1.37,0,0,1-.18-.16c.18,0,.3-.12.31-.29a11.46,11.46,0,0,0-.19-3.44c1.58-1.21.36-3.05,2.19-4.71h.15a8.68,8.68,0,0,0,1.71,1c.32.17,3,.74,2.27-.21a8,8,0,0,0-.91-.93,1.36,1.36,0,0,0,.17-.17c.46-.51-.69-.9-1.46-1.1,0,0,0,0,0-.05a6.41,6.41,0,0,0,.43-1.89c.29-.07.47-.23.21-.56l-.12-.13a4.31,4.31,0,0,1,.94-2.53c.62-.7-2.23-1.5-2.84-1.08-.39.27-1.48.65-2.44,1.14-2.25-.36-4,.64-3.06,2.71-.29,0-.65,0-.8.28-.77,1.37-1,3.54-1.35,5.21-.24,0-.37.13-.26.35a2.25,2.25,0,0,0,.12.21.84.84,0,0,0,0,.12,5.78,5.78,0,0,1-1,1.78,2,2,0,0,1-1.15-.4c-.26-.18-3.09-.94-2.67-.14,2.32,4.36-1.55,4.78-2.89,6.1l-.21-.15-.26-.32a2.51,2.51,0,0,0,1.19-4.15c.78-1.57-.21-2.74-1.78-3.56a3.91,3.91,0,0,0-2.21-1.65c.26,0,.51,0,.79-.05s.68-.11.54-.43-.2-.36-.3-.54c.51.16,1.79.46,1.88-.09.35-2.32-.05-3.71-.82-4.44a1.74,1.74,0,0,0,.64-.07l.87.1c.25,0,1,0,.86-.44a8.84,8.84,0,0,0-.93-2c.16,0,.24-.15.15-.33a7.27,7.27,0,0,0-1.63-2.33h0c.19.1,2.83.7,2.39,0a5.67,5.67,0,0,0-2.74-2.51,4.44,4.44,0,0,1-.47-1.78,12,12,0,0,0,5,0c.56-.08.74-.42.21-.78-.33-.22-.82-.54-1.41-.87.52-.29-1-1.1-1.59-1.23a14.19,14.19,0,0,0-1.79-.17c.24-.84.54-1.67.8-2.45a6.72,6.72,0,0,0,5-.9c.3-.18,0-.49-.29-.67.29,0,.48-.15.37-.41A8.41,8.41,0,0,0,354.4,109a11.21,11.21,0,0,0,1.13.3c.3.06,1.72.08,1.13-.57a11.73,11.73,0,0,0-1.1-1.06c.34,0,.55-.09.43-.34,0,0-.85-1.28-1.89-2.52a5.93,5.93,0,0,0,2.59-1.88c.22-.25,0-.49-.24-.64A15,15,0,0,0,351,99.9a8.35,8.35,0,0,1-.15-2.13,5.91,5.91,0,0,0,1.73,1.58c.25.17,3.1,1,2.67.14l-.25-.41a2,2,0,0,0,0-.52c.63.2,1.33.37,2.16.55.29.06,1.37.17,1.24-.4a6,6,0,0,0-1.42-2.78c.86.14,2.19-.22.81-.87a18.05,18.05,0,0,0-3.87-1.34,5.93,5.93,0,0,1,1.58-2.35l.23.15c.42.29,3.37.76,2.55,0-.07-.07-.14-.11-.21-.18-.42-.66-.85-1.31-1.28-2,.5.27,3.38.53,2.07-.38q-5.52-5.35-1.57-3.7c.32.25,3.1.84,2.68.14a3.48,3.48,0,0,1-.35-3.43,5.17,5.17,0,0,0,.36-1.11c.12-.61-1.46-1.19-2.39-1.13.41-.89,1.43-1.21,3.08-.94.26,0,1,0,.86-.44a3.51,3.51,0,0,1-.32-3.27c.4.26,3.38.8,2.55,0a2.88,2.88,0,0,1-.31-.17h.11l-.67-.45a.93.93,0,0,1,.13-1.24c.35.1,2.1.35,1.53-.49-1-2.4-.86-2.71.37-.92.51.6,3.46,1,2.76.14-2.19-2.61-3.63-3.44-7-3.1-.24,0-.64.11-.54.43,1.44,4.62.35.08-1.48,2.68,0,.06,0,.11,0,.16a7.1,7.1,0,0,0,.59.88,2,2,0,0,0-1.19.4c-1.1.86,1,3.64-.54,3.91-.79.15-2,.2-2.49,1A3.35,3.35,0,0,0,356.15,83a1.55,1.55,0,0,0,0,.21c-1.69-.68-3.33-.91-3.21.85a5.93,5.93,0,0,0,1,3.2h0a.89.89,0,0,0-.87.28,1.64,1.64,0,0,0,.1,1.89c-1.31.55-1.55,2.41-.25,4.1l-1.88-.4c-.21,0-1.47-.15-1.24.41a14.57,14.57,0,0,0,.89,1.81c-1.69-.48-3,.52-2.72,4.32,0,.09,0,.16,0,.25s-.28,0-.41.08c-3,.91-.08,3.37,2.51,5.13a2.7,2.7,0,0,0,.12.49c-.25,0-.45.1-.45.28s0,.48,0,.72c-.72.24-1.25,1-1.37,2.68a5.91,5.91,0,0,0,.05,1.21A2.42,2.42,0,0,0,347,113a3.64,3.64,0,0,0,1.09,2.76c-.56.13-.93.39-.89.81a3.1,3.1,0,0,0,.19,4.14,1.72,1.72,0,0,0-.64,1.29l-1,0c-.26,0-.62.11-.54.43s.17.57.25.85c-.75.31-1.06.68-1.09,1.06h-.19c-.1,0-.57.07-.55.27a11,11,0,0,0,1.11,4.28c-2,1.55-2.9,3.79.26,4.49a14.55,14.55,0,0,0-1.87.4c-.33.1-.32.32-.15.56l.51.68q-.53.14-1.14.33c-.19.06-.34.17-.27.38s.22.56.33.84c-.28.1-.56.22-.85.35s-.33.15-.26.38A8.58,8.58,0,0,0,344.89,142Zm15.8-2.68a3.12,3.12,0,0,0,.9-.32,4.57,4.57,0,0,1,.12,1,9.23,9.23,0,0,0-1.17-.46Z" class="cls-7"/><path data-cppathid="10010" transform="translate(-109.36 -9.06)" d="M367.77,49.42S343,124.5,349.17,139,374,105.21,374,105.21,383.61,35,367.77,49.42Z" class="cls-8"/><path data-cppathid="10011" transform="translate(-109.36 -9.06)" d="M410.7,168.81s18.37.46,24.34,15.61-.92,35.82,20.66,34.9c0,0-20.66,17-16.53,24.79,0,0-25.71-19.74-23.88-28.92s17.45-27.55-9.18-40.41S410.7,168.81,410.7,168.81Z" class="cls-9"/><path data-cppathid="10012" transform="translate(-109.36 -9.06)" d="M360.94,280.75s-.35,5.33-.45,8c-2,52.08,12.48,108.31,12.48,108.31s-11.61,8-13.61,12,27.65-2,27.65-2-6-72.2-4-88.24,10,83.76,14,89.78,26.17,6,26.17,6-8.48-9.67-11.48-14.69-6.23-71.38-6.63-109.14c0-1,0-3,0-3Z" class="cls-10"/><polygon data-cppathid="10013" points="287.51 158.28 288.2 162.87 279.58 169.58 276.4 162.6 287.51 158.28" class="cls-11"/><path data-cppathid="10014" transform="translate(-109.36 -9.06)" d="M400.1,291.27h0Z" class="cls-12"/><path data-cppathid="10015" transform="translate(-109.36 -9.06)" d="M372.75,155.59s0-.09-1-2.38l-5.05-11.81s7.53.27,15,.88c-13.77,0-7.43-.61-23.29-4.36-.92-.22,1.44-15.79,1.3-16.58-3.06-17-3.87-41.76,3-54.79,16.81-31.91,68.88-60.47,84-25.19S445,100.16,433.23,122,399.12,172.25,389,173.52C380,174.63,372.75,155.59,372.75,155.59Z" class="cls-12"/><path data-cppathid="10016" transform="translate(-109.36 -9.06)" d="M383.64,72.55c0,3.71-1.77,6.71-3.95,6.71s-3.95-3-3.95-6.71,1.77-6.71,3.95-6.71S383.64,68.85,383.64,72.55Z" class="cls-13"/><path data-cppathid="10017" transform="translate(-109.36 -9.06)" d="M384.52,74.38a2,2,0,1,1-2-2A2,2,0,0,1,384.52,74.38Z" class="cls-14"/><path data-cppathid="10018" transform="translate(-109.36 -9.06)" d="M397.21,74.64c-.48,3.94-2.75,6.9-5.07,6.62s-3.8-3.69-3.33-7.64,2.75-6.9,5.05-6.62S397.68,70.69,397.21,74.64Z" class="cls-15"/><path data-cppathid="10019" transform="translate(-109.36 -9.06)" d="M397.9,75.42a2.56,2.56,0,1,1-5.09-.61,2.56,2.56,0,0,1,5.09.61Z" class="cls-14"/><path data-cppathid="10020" transform="translate(-109.36 -9.06)" d="M445.27,47.62S436,67.2,435.2,75.55l-.84,8.36s5-3.34,7.51-4.18l2.51-.83s-1.66,15-2.51,18.37a6,6,0,0,0,1,5.35S454,82.5,454,65.79,445.27,47.62,445.27,47.62Z" class="cls-16"/><path data-cppathid="10021" transform="translate(-109.36 -9.06)" d="M450.19,49.19c1.76-6.5-7.09-16.84-16-19.82-9.88-3.3-21.89-5-32.22-2.89a66.1,66.1,0,0,0-28.43,13.59c-3.44,2.81-6.77,6.46-10.16,9.14-5.06,4-5.14,3.12-11,2.22-1-.14-2.26-1.45-3-2.11-.24-.27-.23-.28,0,0,7.4,14.47,40.53-4,51.65-2.74-4.31,3.11-6.81,6.46-10.57,10.24,9.41-.14,22.44,1.62,30.3-4,.22-.26.21-.27,0,0-1.53,3.81-4.84,6.53-7.53,9.6,5.79-.18,12.92-3.86,17.54-6.87-.26,4.2-3.62,7.15-4.61,10.83,4.44-.54,9.18-5.57,13-8.31,3.35-2.41,9.33-4.87,11-7.41" class="cls-16"/><path data-cppathid="10022" transform="translate(-109.36 -9.06)" d="M403.18,34.3c20.37,3.28,38.85,19.33,40.74,41.39.93,10.92-1.68,22.89-4.57,32.75-3.18,10.86-6.37,22.17-10.55,32.18-2.14,5.11-11.92,28.29,2.76,24.54,10.29-2.62,12.52-19.32,14.34-26.93,2.62-11,9.8-14.58,14-24.7C464.2,103,464,88.59,465.68,77.18s.12-31.59-7.26-42.88c-5.65-8.64-11.48-21-20.36-24-10.16-3.4-20.61,1-32,2.18-8.55.84-29.4,10.35-36.35,16-5.78,4.71-14.9,15.53.55,11.46,9.22-2.43,24.38-8.67,33.62-4.91" class="cls-17"/><path data-cppathid="10023" transform="translate(-109.36 -9.06)" d="M438.06,10.32S415.9,12.86,409.9,33" class="cls-18"/><path data-cppathid="10024" transform="translate(-109.36 -9.06)" d="M462.78,43S454.12,37.67,443.91,56" class="cls-18"/><path data-cppathid="10025" transform="translate(-109.36 -9.06)" d="M390.82,17.58s-12.64,3.68-15.77,15.65" class="cls-18"/><path data-cppathid="10026" transform="translate(-109.36 -9.06)" d="M449.64,81.76h0S449.65,81.78,449.64,81.76Z" class="cls-7"/><path data-cppathid="10027" transform="translate(-109.36 -9.06)" d="M361,33.74l.24,0c2-2.11,4.18-2.16,5.72-1a5.29,5.29,0,0,1,4.23,1.1,2.75,2.75,0,0,1,.4.22l.05,0c.27,0,.53,0,.79,0a2.53,2.53,0,0,1,2.64-.94,3.13,3.13,0,0,1,2.29-1.2c.68-.81,2-1.25,3.9-.92a2.45,2.45,0,0,1,2.38-.9,8.27,8.27,0,0,1,1.61.35c1.07-.64,2.82-.7,5.39.36l.26.12v0c0-.22.27-.3.56-.32a2.1,2.1,0,0,1,.63,0c.37.05.72.13,1.06.2a.64.64,0,0,1,.45-.21l.33,0-.12-.23c-.19-.44.62-.49.83-.5s.68,0,1,0a3.31,3.31,0,0,1,1.25.12,8.84,8.84,0,0,1,2.69.86c.13-.38,1.43-.22,1.59-.17a10.93,10.93,0,0,1,1.38.48c0-.32,0-.66,0-1s1-.32,1.18-.3c2.74.29,4.85,1.15,5.94,2.94l.28.09a6.86,6.86,0,0,1-.13-1.28c0-.8,2.25,0,2.51.23a9.72,9.72,0,0,1,1.44,1.65h.14a9.61,9.61,0,0,1,6.27,2.95c.43-.29,1.38,0,2,.27,0,0,0,0,0,0,0-.42,1-.33,1.19-.29a9.88,9.88,0,0,1,4.81,1.85l.17.13a3.64,3.64,0,0,1,.92,1.32,4.93,4.93,0,0,1,2.32,1.89c2.74-.55,6.29,1.53,5.34,4.82A7.22,7.22,0,0,1,441.46,50c2.41,1.22,3.69,4.6,2.45,5.95,1.11.71,1.78,1.55,1.49,2.17a6.47,6.47,0,0,1,2.69,3,3.06,3.06,0,0,1,.39,1.52c1.77,1,2.87,2.46,1.74,4.19a4.2,4.2,0,0,1,.95.4c2.61,1.44-.52,5.2,1.16,7.63l.84.89a.36.36,0,0,1-.16.6l-1.07.59c1.23,2.77,1.17,4.84.61,7.89,0,.2-.36.29-.52.31a7.93,7.93,0,0,1-3.8-.47.47.47,0,0,1-.06.09,3.37,3.37,0,0,1,.55,1.64,2,2,0,0,1,.2,1.33.43.43,0,0,1,0,.07.41.41,0,0,1-.07.11l-.09,0,0,0,.2.2,1.37,1.37c.35.35.09.5-.33.55.14.33.28.68.43,1.09.27.68-1.32.46-1.55.39l-.08,0a1.45,1.45,0,0,1-.78.08,11.66,11.66,0,0,1-.49,1.91.45.45,0,0,1-.31.3,9.83,9.83,0,0,1,.31,1.72c0,.42-.45.5-1,.42a1.68,1.68,0,0,1-.37.06,6.23,6.23,0,0,0,.68,1.7c.16.34-.33.41-.92.34l.92,1.84c.24.49-.64.41-1.47.2-.16.45-1.24.24-1.54.18.45.09.51.63.37,1.32.25.15.43.31.46.48s0,.23.07.35c.53.3.86.66.39.8.42.4.27.58-.11.63.13.62.27,1.23.37,1.86.08.46-.51.52-1.17.38a5.47,5.47,0,0,0,.45,1.07c.35.64-1.29.33-2,.15a7.09,7.09,0,0,1,2,3.48c.17.85-1.51.34-2.31,0a10.47,10.47,0,0,1,1,2.21c.1.31-.29.42-.51.44a2.85,2.85,0,0,1-.77,0c.82,1.28,1.47,2.56.94,2.25l.09.11c.7,1-2,.37-2.39.08s-.47-.37-.68-.55c-.33.1-.31,1.45-.77,2.26a15.57,15.57,0,0,1,1.27,1.17c.31.35,0,.5-.31.57l.51.66c1.23.93-1.65.62-2.2.25l-.49-.35a6.73,6.73,0,0,0,.56,2.35,14,14,0,0,1,1,1.73c.22.47-.74.42-1.58.21,0,.16.08.32.12.51.09.37-.21.48-.63.45,0,.3,0,.66-.08,1.17a.3.3,0,0,1-.1.17,3.69,3.69,0,0,1,.55,2c0,.27-.53.28-.75.29a8.55,8.55,0,0,1,.49,1.65c0,.22-.06.31-.25.39l-.21.08a2.26,2.26,0,0,1-1.12,0c0,.44-.06.9-.07,1.43a.19.19,0,0,1-.1.16l.82,1.64c.21.42-.44.42-1.16.27a9.68,9.68,0,0,1-.23,1.59c-.07.32-.52.38-1,.31l-.43-.06a1,1,0,0,1-.31.29c.09.17.18.32.27.51s-.09.39-.42.4c.38.4.6.83.42,1.21-.48,1-.37,1-1.25,1.23a14.38,14.38,0,0,1,.52,1.52c.08.27-.1.38-.38.41.12.34.24.68.38,1,.21.55-.74.46-1.54.26h-.18c0,.13-.05.28-.07.41,1.39,1.36,3.33,3.26,1.49,1.9,1.21.9-1.62.68-2.2.25l-.27-.2a3.13,3.13,0,0,1-.52,0c.28.67.46,1.1.33.94l.05.1c.11.21-.11.31-.45.33a1.09,1.09,0,0,0,0,.18,4.14,4.14,0,0,1,.85,1.65.25.25,0,0,1-.14.33c0,.06.05.11.07.17.17.3.34.61.51.95s-.32.42-.5.44l-.13,0a3.12,3.12,0,0,1-1.06-.08v.16a11.63,11.63,0,0,1,.81,2.3.19.19,0,0,1,0,.26c-.1.27-.69.29-1.31.15a2.48,2.48,0,0,1-.58-.1c-.24-.1-.49-.18-.74-.26-.06.1-.12.18-.18.27a10.62,10.62,0,0,1,2.77,1.45c.15.11.5.45.22.64a2.79,2.79,0,0,1-2.7.36,2.8,2.8,0,0,0,.06.28l.43.12c.36.12.87.38.89.81s.06,1,0,1.52a7.31,7.31,0,0,1,3.6,2.43,2.93,2.93,0,0,1,1.49.4c-.12-.3-.24-.61-.35-.92-.31-.84,2.42-.16,2.78.43.12.2.23.41.34.61a18.06,18.06,0,0,0,2.83-4.59c.31-.79,2.87-.08,2.81.75a11,11,0,0,1-2.27,6c-.16.22-.67.18-1,.14l-.07,0a1.67,1.67,0,0,1,.22.55c.08.57-.69.52-1.35.36.22.41-.48.46-1.22.35a7.71,7.71,0,0,1-4.74.74s0,.06,0,.09l-.6.74c-.69.86-2.14.32-2.63-.45l-.23-.37a2.17,2.17,0,0,1-2.51-.11l-1.46-1.45a.64.64,0,0,1,0-1.08,6.59,6.59,0,0,1-1.82-2.44c-.11-.21.11-.33.3-.39-.09-.2-.19-.4-.28-.61s.39-.43,1-.36c-.94-.85-1.62-1.82-.67-2.34l.4-.21a.33.33,0,0,1,0-.17c0-.07.05-.13.07-.19h0c-.15-.55.19-.78.67-.84a.63.63,0,0,1,.06-.18,5.32,5.32,0,0,0,0-2,.27.27,0,0,1,0-.18h0a13.23,13.23,0,0,1-.06-3.47,1.9,1.9,0,0,1,1.18-1.33,24.74,24.74,0,0,1-.42-4.38c-.05-.59.4-.85.94-.9a9.08,9.08,0,0,1,.54-3c.06-.21.33-.25.51-.28a2.9,2.9,0,0,1,1.14,0,13.63,13.63,0,0,1,.5-1.84,19.34,19.34,0,0,1,0-2.26.28.28,0,0,1,.08-.15c0-.66-.07-1.33-.08-2,0-.85,2.43.15,2.7.42l.1.11a15.13,15.13,0,0,1-.75-2c-.14-.49.58-.5,1.31-.34a2.52,2.52,0,0,1,.64-3.59,1.36,1.36,0,0,1,1-.18,4.14,4.14,0,0,1,.2-.43,1.7,1.7,0,0,1,0-.22,6.68,6.68,0,0,1-.83-3.91c0-.13.11-.2.23-.25a9.53,9.53,0,0,1-.23-1.93c0-.2.18-.28.44-.3a18,18,0,0,1,.29-1.88c.09-.44.76-.4,1.41-.21,0-.38,0-.78,0-1.24,0-.3.32-.36.73-.32a1.24,1.24,0,0,1,0-.47c.07-.37.55-.39,1.07-.28-.14-1.74.36-2.84,1.19-3.26-.26-.84,0-1.84.53-3.38a2.64,2.64,0,0,1,.52-2.07,3.84,3.84,0,0,1,.27-.29,13.42,13.42,0,0,1-.68-2.13c-.09-.39.27-.47.73-.43a8.14,8.14,0,0,1,.71-3.36.71.71,0,0,1,.57-.35,1.17,1.17,0,0,0,.05-.2,2.74,2.74,0,0,1,0-1.42,1,1,0,0,0,0-.17.34.34,0,0,1,.19-.36,12.33,12.33,0,0,1,.79-1.6,3.28,3.28,0,0,1-.12-1.73c0-.22,0-.45,0-.71,0-.41,1-.28,1.17-.26l.2,0a11.74,11.74,0,0,1,.08-2,.31.31,0,0,1,.22-.26l-.33-.2c-.51-.32-.85-.86,0-1a2.55,2.55,0,0,1,.73,0,41.53,41.53,0,0,1-.54-6.21,4.75,4.75,0,0,1-1.49-3.93c0-.64,1.29-.29,2,0A.66.66,0,0,1,444,81l.2-.09a1.36,1.36,0,0,1,.35-.07c-.08-.39-.17-.78-.27-1.2a2.23,2.23,0,0,1-.77-1.85l-.48-.29c-1-.67-.36-.92.47-.9-.46-1.69-.87-3-.91-3.09-.43-.52.28-.65.77-.66l-.05-.06c-.17-.3-.09-.46.11-.56-2.48-1.27-2.49-1.84-2.4-4.88,0-.2.18-.28.4-.32a2.3,2.3,0,0,1-.47-1.82,5.71,5.71,0,0,1-2-3.32c-1.89-.37-3.61-1.23-4.14-2.6a5.18,5.18,0,0,1,0-3.76,5.43,5.43,0,0,1-1.18-2.11l0,0c-.34-.32-.68-.66-1-1a10.08,10.08,0,0,1-1.51-1.16,3.71,3.71,0,0,1-.59-.72.85.85,0,0,1-.28-.22c0-.06-.07-.13-.1-.18h0a11.69,11.69,0,0,1-.59-1,2.85,2.85,0,0,1-2.38-.68A6,6,0,0,1,426,46.62a6.31,6.31,0,0,1-3.85-1.5,5.11,5.11,0,0,1-1.81-.65,6.75,6.75,0,0,1-4.32-2.6,6.27,6.27,0,0,1-1.34-1.23,5.8,5.8,0,0,1-1.41-1.28h-.18c-2.62,3-5.58.93-7.47-1.85l-.35-.29a3.64,3.64,0,0,1-.51-.53l-.11-.11h-.12a.93.93,0,0,1,.05.1c.1.2-.11.37-.26.43-.4.13-.8.24-1.19.34,0,.28-.24.43-.52.44a18.25,18.25,0,0,1-4.86-.34,6.19,6.19,0,0,1-.83,1c-1.45,1.44-3.65.95-5.68-.22a6.88,6.88,0,0,1-1.73.25l-.29,0a21.22,21.22,0,0,1-2.54-.17,7,7,0,0,1-3.94,1.4c-.16.19-.61.22-.79.22-.49,0-.93,0-1.35-.06-1.79,1.43-5.79,1.88-8.71.6a5.64,5.64,0,0,1-3.07.41h0c-.13,1-1.08,1.33-2.31,1.32-.82.92-2.39,1.22-4.83.25a3.13,3.13,0,0,1-2.08-3.55C358.46,36.78,358.21,33.43,361,33.74Z" class="cls-7"/><path data-cppathid="10028" transform="translate(-109.36 -9.06)" d="M453.6,80v0h0S453.62,80,453.6,80Z" class="cls-7"/><path data-cppathid="10029" transform="translate(-109.36 -9.06)" d="M365,32l.23,0c2-2.12,4.18-2.17,5.73-1a5.25,5.25,0,0,1,4.22,1.1,2.86,2.86,0,0,1,.41.23l0,0c.28,0,.54,0,.79,0a2.55,2.55,0,0,1,2.65-.95,3.08,3.08,0,0,1,2.28-1.19c.68-.82,2-1.25,3.91-.92a2.41,2.41,0,0,1,2.37-.91,7.67,7.67,0,0,1,1.61.36c1.07-.65,2.83-.71,5.4.36l.25.12v0c0-.22.27-.29.55-.31a2.08,2.08,0,0,1,.63,0c.37,0,.72.12,1.07.2a.65.65,0,0,1,.45-.22h.33l-.12-.23c-.2-.44.61-.49.83-.5s.68,0,1,0a3.09,3.09,0,0,1,1.25.12,8.48,8.48,0,0,1,2.69.85c.14-.38,1.43-.21,1.59-.16a10.93,10.93,0,0,1,1.38.48c0-.33,0-.66,0-1s1-.31,1.18-.29c2.73.29,4.85,1.15,5.94,2.94l.28.09a8.08,8.08,0,0,1-.14-1.28c0-.8,2.25,0,2.51.22a11.24,11.24,0,0,1,1.45,1.65h.14a9.69,9.69,0,0,1,6.27,3c.42-.3,1.37,0,2,.27v0c0-.42,1-.33,1.18-.3a9.88,9.88,0,0,1,4.82,1.85l.16.14a3.47,3.47,0,0,1,.93,1.32,4.88,4.88,0,0,1,2.31,1.88c2.75-.54,6.29,1.54,5.34,4.83a7.16,7.16,0,0,1,4.59,3.47c2.41,1.22,3.69,4.59,2.46,5.95,1.11.7,1.78,1.54,1.49,2.17a6.42,6.42,0,0,1,2.69,3,2.89,2.89,0,0,1,.38,1.51c1.77,1,2.87,2.46,1.74,4.19a5.46,5.46,0,0,1,1,.4c2.6,1.44-.52,5.21,1.15,7.63l.84.9c.22.23.11.49-.16.6l-1.07.59c1.24,2.77,1.17,4.84.62,7.88,0,.21-.36.3-.53.31a8,8,0,0,1-3.8-.46.16.16,0,0,1-.06.08,3.38,3.38,0,0,1,.55,1.65,1.88,1.88,0,0,1,.2,1.33s0,0,0,.06a.19.19,0,0,1-.07.12l-.08.05,0,0,.19.21,1.37,1.37c.35.35.09.49-.32.54l.43,1.09c.26.69-1.32.47-1.56.39l-.07,0a1.57,1.57,0,0,1-.78.08,14.56,14.56,0,0,1-.49,1.91.47.47,0,0,1-.31.29,10.1,10.1,0,0,1,.3,1.73c.05.41-.45.5-1,.42a1.72,1.72,0,0,1-.37.05,6.14,6.14,0,0,0,.67,1.71c.16.34-.32.4-.92.33l.92,1.85c.24.48-.64.4-1.46.19-.16.46-1.24.25-1.54.18.45.1.51.63.37,1.33a.85.85,0,0,1,.45.48c0,.11.05.23.07.34.54.31.87.66.39.8.43.4.27.58-.1.64.13.61.26,1.23.37,1.85s-.51.52-1.17.39a5.32,5.32,0,0,0,.44,1.06c.35.64-1.28.34-1.95.16a7,7,0,0,1,1.95,3.48c.17.85-1.5.34-2.3,0a9.86,9.86,0,0,1,1,2.22c.11.3-.28.42-.5.44a2.94,2.94,0,0,1-.78-.06c.82,1.29,1.47,2.57.94,2.26l.09.11c.7,1-2,.37-2.38.08s-.47-.38-.68-.56c-.34.11-.32,1.45-.78,2.27a12.66,12.66,0,0,1,1.27,1.17c.32.34.05.5-.3.56l.5.67c1.24.92-1.64.61-2.19.25a6,6,0,0,1-.49-.36,6.89,6.89,0,0,0,.55,2.35,12.83,12.83,0,0,1,1,1.73c.23.48-.74.43-1.58.22.05.16.09.32.13.51.08.37-.21.47-.63.44a10.31,10.31,0,0,1-.09,1.17.25.25,0,0,1-.1.18,3.66,3.66,0,0,1,.55,2c0,.28-.52.29-.74.29a8,8,0,0,1,.48,1.66c.05.22-.06.3-.25.38l-.2.09a2.32,2.32,0,0,1-1.13,0c0,.44-.06.9-.06,1.44,0,.07-.05.11-.1.16l.82,1.64c.21.42-.45.41-1.16.27a10.56,10.56,0,0,1-.23,1.58c-.08.32-.53.38-1.05.31a2.09,2.09,0,0,1-.42-.05,1,1,0,0,1-.32.28c.09.17.19.33.27.51s-.08.39-.41.41c.37.4.6.83.42,1.21-.49,1-.38,1-1.26,1.23a10.93,10.93,0,0,1,.52,1.51c.09.27-.09.38-.37.41.11.34.23.69.37,1.05.21.54-.74.46-1.53.26h-.18c0,.14-.05.28-.08.41,1.4,1.36,3.33,3.26,1.5,1.9,1.21.91-1.62.68-2.2.26l-.27-.2a3.13,3.13,0,0,1-.52,0c.27.66.45,1.1.32.94l.05.09c.12.21-.11.31-.45.34,0,.06,0,.12,0,.17a4.24,4.24,0,0,1,.86,1.65.26.26,0,0,1-.14.34l.06.16c.18.3.34.62.52,1s-.33.42-.51.44l-.12,0a3.14,3.14,0,0,1-1.06-.09.85.85,0,0,0,0,.16,12.41,12.41,0,0,1,.81,2.31.18.18,0,0,1,0,.25c-.09.28-.68.29-1.31.15a2.11,2.11,0,0,1-.58-.1c-.24-.1-.48-.17-.73-.25a2.48,2.48,0,0,1-.19.26,10.56,10.56,0,0,1,2.78,1.46c.14.1.49.45.21.63a2.73,2.73,0,0,1-2.7.36l.06.29a3.39,3.39,0,0,1,.43.11c.36.12.87.38.89.81a14.82,14.82,0,0,1,0,1.53,7.27,7.27,0,0,1,3.6,2.42,3,3,0,0,1,1.49.41c-.12-.31-.25-.61-.36-.92-.3-.84,2.43-.16,2.79.43.12.2.22.4.34.6a18,18,0,0,0,2.82-4.59c.32-.78,2.87-.08,2.81.75a10.87,10.87,0,0,1-2.27,5.95c-.15.23-.66.18-.95.14l-.08,0a1.52,1.52,0,0,1,.22.56c.08.56-.68.52-1.35.36.22.41-.48.45-1.21.34a7.75,7.75,0,0,1-4.75.75s0,.06,0,.08l-.6.75c-.69.86-2.14.32-2.63-.46-.07-.12-.15-.24-.23-.36a2.17,2.17,0,0,1-2.51-.11l-1.45-1.45a.65.65,0,0,1,0-1.09,6.49,6.49,0,0,1-1.81-2.44c-.11-.21.1-.33.3-.39a5.67,5.67,0,0,1-.28-.61c-.16-.35.38-.43,1-.35-.95-.85-1.62-1.82-.68-2.34l.41-.22a.32.32,0,0,1,0-.17,1.34,1.34,0,0,0,.07-.18h0c-.14-.54.2-.78.67-.84a.56.56,0,0,1,.07-.18,5.51,5.51,0,0,0,0-2,.36.36,0,0,1,0-.18h0a14.17,14.17,0,0,1-.06-3.47,2,2,0,0,1,1.19-1.34,23.64,23.64,0,0,1-.42-4.37c-.06-.6.4-.86.94-.91a8.75,8.75,0,0,1,.53-3c.06-.22.34-.25.52-.29a3.28,3.28,0,0,1,1.13,0,14.86,14.86,0,0,1,.51-1.84,17.2,17.2,0,0,1,0-2.25.29.29,0,0,1,.07-.16c0-.66-.06-1.33-.07-2,0-.85,2.43.16,2.69.43a1.14,1.14,0,0,1,.11.11,14.05,14.05,0,0,1-.76-2.05c-.13-.48.58-.49,1.31-.33a2.53,2.53,0,0,1,.64-3.6,1.4,1.4,0,0,1,1-.18c.07-.14.12-.28.2-.43a1.55,1.55,0,0,0,0-.21,6.69,6.69,0,0,1-.82-3.91.3.3,0,0,1,.22-.25,9.79,9.79,0,0,1-.22-1.93c0-.21.18-.28.43-.3a15.41,15.41,0,0,1,.3-1.88c.09-.45.75-.41,1.41-.21,0-.38,0-.79,0-1.25,0-.29.33-.36.73-.32a1.42,1.42,0,0,1,0-.46c.08-.37.56-.39,1.08-.28-.15-1.74.35-2.85,1.18-3.27-.25-.84,0-1.83.54-3.37a2.61,2.61,0,0,1,.51-2.08,3.63,3.63,0,0,1,.27-.28,14.19,14.19,0,0,1-.67-2.13c-.1-.39.27-.47.72-.44a8.15,8.15,0,0,1,.72-3.36.74.74,0,0,1,.57-.35c0-.06,0-.12.05-.19a2.78,2.78,0,0,1,0-1.43.86.86,0,0,0,0-.16.34.34,0,0,1,.18-.37,13.2,13.2,0,0,1,.8-1.6,3.14,3.14,0,0,1-.12-1.72c0-.22,0-.46,0-.72s1-.27,1.18-.25a1.08,1.08,0,0,1,.19,0,11,11,0,0,1,.09-2,.31.31,0,0,1,.21-.26l-.33-.2c-.51-.32-.85-.85,0-1a2.23,2.23,0,0,1,.73,0,41.78,41.78,0,0,1-.54-6.22,4.73,4.73,0,0,1-1.5-3.93c0-.63,1.3-.29,2,0a.49.49,0,0,1,.21-.15l.21-.1a1.28,1.28,0,0,1,.35-.06q-.12-.58-.27-1.2a2.21,2.21,0,0,1-.78-1.85l-.47-.3c-1.05-.66-.36-.91.47-.89-.46-1.69-.87-3-.92-3.09-.42-.52.29-.66.77-.66l0-.07c-.18-.29-.09-.46.1-.56-2.47-1.26-2.49-1.83-2.39-4.88,0-.19.17-.28.39-.31a2.35,2.35,0,0,1-.47-1.83,5.71,5.71,0,0,1-2-3.31c-1.88-.38-3.6-1.24-4.13-2.6a5.24,5.24,0,0,1,0-3.76,5.6,5.6,0,0,1-1.18-2.12v0c-.34-.33-.68-.66-1-1a10.79,10.79,0,0,1-1.51-1.16,4,4,0,0,1-.58-.72.87.87,0,0,1-.28-.23l-.11-.18h0c-.21-.34-.41-.68-.59-1a2.8,2.8,0,0,1-2.37-.69A5.93,5.93,0,0,1,430,44.84a6.31,6.31,0,0,1-3.84-1.5,5.16,5.16,0,0,1-1.82-.65A6.75,6.75,0,0,1,420,40.08a6,6,0,0,1-1.33-1.22,5.45,5.45,0,0,1-1.41-1.28h-.18c-2.63,3-5.59.93-7.47-1.86l-.36-.28a4.23,4.23,0,0,1-.51-.53.57.57,0,0,0-.11-.11h-.12l.06.1c.09.19-.11.37-.26.42a12.16,12.16,0,0,1-1.2.34c0,.29-.24.43-.51.45a18.77,18.77,0,0,1-4.87-.35,5.36,5.36,0,0,1-.83,1.05c-1.44,1.43-3.65.95-5.68-.23a6.33,6.33,0,0,1-1.72.25,1.74,1.74,0,0,1-.29,0,19.11,19.11,0,0,1-2.54-.17,7,7,0,0,1-3.94,1.41,1.3,1.3,0,0,1-.79.22c-.5,0-.94,0-1.36-.07-1.79,1.43-5.79,1.89-8.7.61a5.88,5.88,0,0,1-3.08.41h0c-.12,1-1.08,1.32-2.31,1.31-.82.93-2.38,1.23-4.82.26a3.13,3.13,0,0,1-2.09-3.55C362.42,35,362.17,31.65,365,32Z" class="cls-7"/><path data-cppathid="10030" transform="translate(-109.36 -9.06)" d="M445.09,46.42s-.5,8.64-6.31,11.1,28.11,15.54,28.11,15.54l1.46-16Z" class="cls-19"/><g class="cls-2"><g class="cls-20"><path data-cppathid="10031" transform="translate(-109.36 -9.06)" d="M418,24.77l-.9.24-.23.06-.22.06-.22.06-.23.06c-1.12.3-2.24.61-3.32.94s-2.11.68-3,1.06a12.74,12.74,0,0,0-2.4,1.25A4.07,4.07,0,0,0,406,30a2.28,2.28,0,0,0-.18.54,2.73,2.73,0,0,0,0,.57,2.79,2.79,0,0,0,.11.62,5.61,5.61,0,0,0,.26.66,11.53,11.53,0,0,0,3.73,4,26.72,26.72,0,0,0,5.92,3.09,28.6,28.6,0,0,0,6.43,1.62,12.29,12.29,0,0,0,5.22-.28,14.42,14.42,0,0,0,4.17-2.12,8.6,8.6,0,0,0,2.49-2.81,6.06,6.06,0,0,0,.74-3.18,6.94,6.94,0,0,0-1-3.29,9.4,9.4,0,0,0-2.71-2.81,13.38,13.38,0,0,0-3.83-1.8,16.61,16.61,0,0,0-4.51-.68,17.14,17.14,0,0,0-4.79.59" class="cls-21"/><path data-cppathid="10032" transform="translate(-109.36 -9.06)" d="M380.87,34.75l-.28.08-.28.07L380,35l-.29.07-1.14.31a22.52,22.52,0,0,0-5.6,2.33,17.63,17.63,0,0,0-4.27,3.45,11.4,11.4,0,0,0-2.45,4.18,7.62,7.62,0,0,0-.06,4.46,7.88,7.88,0,0,0,2.43,3.7A11.16,11.16,0,0,0,373,55.7a17.65,17.65,0,0,0,5.69.53A24.91,24.91,0,0,0,385.08,55a14.77,14.77,0,0,0,5.22-3.35,23.9,23.9,0,0,0,4.22-5.38,18.67,18.67,0,0,0,2.28-5.88,8.81,8.81,0,0,0-.41-5.19,4.12,4.12,0,0,0-.35-.66,4.82,4.82,0,0,0-.44-.55,3.67,3.67,0,0,0-.52-.44,3.25,3.25,0,0,0-.61-.33A6.81,6.81,0,0,0,392,32.7a19,19,0,0,0-3.23.25c-1.18.18-2.45.44-3.76.75s-2.7.68-4.09,1" class="cls-21"/><path data-cppathid="10033" transform="translate(-109.36 -9.06)" d="M427.44,40.87a12.29,12.29,0,0,1-5.22.28,28.6,28.6,0,0,1-6.43-1.62,26.72,26.72,0,0,1-5.92-3.09,11.53,11.53,0,0,1-3.73-4,5.61,5.61,0,0,1-.26-.66,2.79,2.79,0,0,1-.11-.62,2.73,2.73,0,0,1,0-.57A2.28,2.28,0,0,1,406,30a4.07,4.07,0,0,1,1.41-1.51,12.74,12.74,0,0,1,2.4-1.25c.93-.38,2-.73,3-1.06s2.2-.64,3.32-.94l.23-.06.22-.06.22-.06.23-.06.9-.24a17.14,17.14,0,0,1,4.79-.59,16.61,16.61,0,0,1,4.51.68,13.38,13.38,0,0,1,3.83,1.8,9.4,9.4,0,0,1,2.71,2.81,6.94,6.94,0,0,1,1,3.29,6.06,6.06,0,0,1-.74,3.18,8.6,8.6,0,0,1-2.49,2.81,14.42,14.42,0,0,1-4.17,2.12M415.6,24.23c-1.63.43-3.24.88-4.72,1.37A21,21,0,0,0,407,27.29a5.46,5.46,0,0,0-2.28,2.3,3.65,3.65,0,0,0,.22,3.16,12.42,12.42,0,0,0,3.65,4.09,28.4,28.4,0,0,0,6.12,3.54,28.34,28.34,0,0,0,7.05,2,14.09,14.09,0,0,0,6.35-.38,15.47,15.47,0,0,0,4.55-2.37,9.32,9.32,0,0,0,2.69-3.16,7,7,0,0,0,.75-3.61,8.13,8.13,0,0,0-1.24-3.73,10.86,10.86,0,0,0-3-3.17,15,15,0,0,0-4.22-2,18.23,18.23,0,0,0-4.94-.8,18.52,18.52,0,0,0-5.25.61l-.44.12-.45.11-.45.12-.45.12" class="cls-22"/><path data-cppathid="10034" transform="translate(-109.36 -9.06)" d="M385.08,55a24.91,24.91,0,0,1-6.39,1.26A17.65,17.65,0,0,1,373,55.7a11.16,11.16,0,0,1-4.34-2.22,7.88,7.88,0,0,1-2.43-3.7,7.62,7.62,0,0,1,.06-4.46,11.4,11.4,0,0,1,2.45-4.18A17.63,17.63,0,0,1,373,37.69a22.52,22.52,0,0,1,5.6-2.33l1.14-.31L380,35l.27-.08.28-.07.28-.08c1.39-.37,2.76-.73,4.09-1s2.58-.57,3.76-.75A19,19,0,0,1,392,32.7a6.81,6.81,0,0,1,2.52.49,3.25,3.25,0,0,1,.61.33,3.67,3.67,0,0,1,.52.44,4.82,4.82,0,0,1,.44.55,4.12,4.12,0,0,1,.35.66,8.81,8.81,0,0,1,.41,5.19,18.67,18.67,0,0,1-2.28,5.88,23.9,23.9,0,0,1-4.22,5.38A14.77,14.77,0,0,1,385.08,55m-4.65-21.4-.56.15-.56.15-.57.15-.57.15a24.53,24.53,0,0,0-6.12,2.54,19.16,19.16,0,0,0-4.67,3.82,12.73,12.73,0,0,0-2.69,4.68,8.77,8.77,0,0,0-.06,5,9.17,9.17,0,0,0,2.74,4.27,12.4,12.4,0,0,0,4.85,2.58,19.54,19.54,0,0,0,6.33.65,26.52,26.52,0,0,0,7-1.39,16.71,16.71,0,0,0,6.32-4.07,23.34,23.34,0,0,0,4.31-6.07,20.19,20.19,0,0,0,2-6.29,9.69,9.69,0,0,0-.53-5.14,5,5,0,0,0-2.52-2.61,8.92,8.92,0,0,0-3.93-.68,28.57,28.57,0,0,0-5,.65c-1.83.37-3.78.88-5.78,1.41" class="cls-22"/><path data-cppathid="10035" transform="translate(-109.36 -9.06)" d="M402.73,41.6l-.77-.14.21,0,.12.05.13,0,.15,0,.16,0M385.59,56.37a26.52,26.52,0,0,1-7,1.39,19.54,19.54,0,0,1-6.33-.65,12.4,12.4,0,0,1-4.85-2.58,9.17,9.17,0,0,1-2.74-4.27,8.77,8.77,0,0,1,.06-5,12.73,12.73,0,0,1,2.69-4.68,19.16,19.16,0,0,1,4.67-3.82,24.53,24.53,0,0,1,6.12-2.54l.57-.15.57-.15.56-.15.56-.15c2-.53,3.95-1,5.78-1.41a28.57,28.57,0,0,1,5-.65,8.92,8.92,0,0,1,3.93.68,5,5,0,0,1,2.52,2.61,9.69,9.69,0,0,1,.53,5.14,20.19,20.19,0,0,1-2,6.29,23.34,23.34,0,0,1-4.31,6.07,16.71,16.71,0,0,1-6.32,4.07M428.08,42a14.09,14.09,0,0,1-6.35.38,28.34,28.34,0,0,1-7.05-2,28.4,28.4,0,0,1-6.12-3.54,12.42,12.42,0,0,1-3.65-4.09,3.65,3.65,0,0,1-.22-3.16,5.46,5.46,0,0,1,2.28-2.3,21,21,0,0,1,3.91-1.69c1.48-.49,3.09-.94,4.72-1.37l.45-.12.45-.12.45-.11.44-.12a18.52,18.52,0,0,1,5.25-.61,18.23,18.23,0,0,1,4.94.8,15,15,0,0,1,4.22,2,10.86,10.86,0,0,1,3,3.17,8.13,8.13,0,0,1,1.24,3.73,7,7,0,0,1-.75,3.61,9.32,9.32,0,0,1-2.69,3.16A15.47,15.47,0,0,1,428.08,42m-12.2-21-1.8.46c-.77.19-1.61.41-2.48.65s-1.79.52-2.69.83A26.2,26.2,0,0,0,406.23,24a16,16,0,0,0-2.41,1.36l-.05,0c-.54.25-1.08.49-1.63.71s-1.11.44-1.69.64-1.15.39-1.74.57-1.2.35-1.81.51l-.74.19-.76.18-.76.17-.77.17a18.65,18.65,0,0,0-3.61-.17,32.71,32.71,0,0,0-3.79.4c-1.28.21-2.55.47-3.76.75s-2.39.57-3.46.85l-2.27.57a28.93,28.93,0,0,0-7.53,3.1,23.3,23.3,0,0,0-5.81,4.83,16.52,16.52,0,0,0-3.39,6.06,12.1,12.1,0,0,0-.1,6.67,12.84,12.84,0,0,0,3.48,5.85,16.09,16.09,0,0,0,6.25,3.63,23.28,23.28,0,0,0,8.15,1,30.89,30.89,0,0,0,9-1.78,19.46,19.46,0,0,0,4.87-2.54,23.39,23.39,0,0,0,4-3.64,25.9,25.9,0,0,0,3-4.26A26.33,26.33,0,0,0,401,45.37a7.89,7.89,0,0,1,.53-1.62,5,5,0,0,1,.7-1.15,3.66,3.66,0,0,1,.84-.75,4.06,4.06,0,0,1,1-.45,5.9,5.9,0,0,1,1.14-.22,12.07,12.07,0,0,1,1.22,0c.42,0,.86,0,1.3,0s.88,0,1.33,0a34.56,34.56,0,0,0,5.08,2.58,33.32,33.32,0,0,0,5.5,1.72,24.52,24.52,0,0,0,5.43.59,15.7,15.7,0,0,0,4.85-.79,17.89,17.89,0,0,0,5.68-3.15A11.3,11.3,0,0,0,438.75,38a9.3,9.3,0,0,0,.69-4.75,11.79,11.79,0,0,0-1.78-4.9,14.93,14.93,0,0,0-3.9-4.11,19.25,19.25,0,0,0-5.29-2.69,22.7,22.7,0,0,0-6.13-1.14,21.88,21.88,0,0,0-6.46.65" class="cls-23"/></g></g><path data-cppathid="10036" transform="translate(-109.36 -9.06)" d="M404.27,201.87s2.76,23.88,1.84,29.85c0,0,3.68,3.21.46,10.1,0,0,10.1,34.44,3.21,45,0,0-47.29-2.3-52.35-5.51,0,0,1.84-34,4.14-40.41,0,0-2.3-6.89,2.29-11.48-.45-4.59,13.78-47.29,16.07-50.51s3.73-5.41,3.73-5.41a6.1,6.1,0,0,0,1.81,3.5,4.63,4.63,0,0,0,1.3.78c1.72.66,4.35.46,8.39-1.9C405.65,169.73,404.27,201.87,404.27,201.87Z" class="cls-24"/><path data-cppathid="10037" transform="translate(-109.36 -9.06)" d="M421.26,211.05c1.25.42,18.31,14.29,17.45,18.83-1.24,6.62-30.1,41-29.69,44.28s-13.65-8.68-6.62-13.23,20.05-32.1,26.67-33.34l-20.66-18.83Z" class="cls-4"/><path data-cppathid="10038" transform="translate(-109.36 -9.06)" d="M407.36,271.68s12.41,5.37,10.75,9.92,2.9-9.1,6.2-8.68-1.65,13.64-4.13,13.64-16.54,1.66-21.5-6.2-.41-15.3,1.65-17.36S407.36,271.68,407.36,271.68Z" class="cls-4"/><path data-cppathid="10039" transform="translate(-109.36 -9.06)" d="M415.1,265.18l-3.22,4.13s-5.77,1.44-9.44-2.24c-4.95-4.94-2.3-5.05-2.3-5.05l3.94-4.18Z" class="cls-5"/><path data-cppathid="10040" transform="translate(-109.36 -9.06)" d="M386.77,177.78s-20.15,48.43-16,104.91" class="cls-25"/><path data-cppathid="10041" transform="translate(-109.36 -9.06)" d="M398.76,176.62c8.73,2.29,41.33,42.7,42.71,52.8s-18.83,35.82-25.26,38.11c0,0-8,.82-12.75-2.35,0,0-4.24-5.45-2.86-10s15.15-20.21,17-24.34c-1.38-.92-2.3-1.38-.92-3.67-5.51-7.35-27.14-28.38-26.89-38.07A13.51,13.51,0,0,1,398.76,176.62Z" class="cls-24"/><path data-cppathid="10042" transform="translate(-109.36 -9.06)" d="M401.43,166.52c2.32-.53,13.24,6.89,6.67,7.83,1.23,2,1.45,3.46-.53,3.29,3.81,1.39,2.54,5.8-.42,7.6,1.11,2.83,0,7-3.35,6.17a3.51,3.51,0,0,1-1.18,6.63c.5,3.42-3.37,7.05-5.52,3.3,1.63,2.12.8,3.76-2.06,2.7.22-1.63-.54-3.27-1.46-4.94-2.44,1.89-3.74.26-3.26-2.73-.6-.36-2.53-1.47-3-1.68-1.43,2.81-5.85-1.57-4.15-2.93-2.46-.91.35-7.38,3.71-10.44,1.2-1.1,2.47-1.76,3.59-1.57-.07.13-.14-.17-.72-.55.14,0,1.85-.39,2.09-.51-.77-2.46.72-3.35,3.3-2.81.43.35-1.19-.62-1-.51a23,23,0,0,1,2.87-2.27c.42,0,.41.05,0,.08a.54.54,0,0,1-.66-.58c1.86-1.4,3-3.22,4.48-4.43" class="cls-26"/><path data-cppathid="10043" transform="translate(-109.36 -9.06)" d="M380.85,171.85c.31.12-3.31-.81-4.88-.47a4,4,0,0,0,2.6,4.8c-2.19-2.44-5.52-1.34-6.49,1.72.67.41,1.22,1.28,2,1.69-1.9-.1-6.47.15-6.88,2.74s3.81,3.45,5.81,4.45c-5.64-2.79-5,5.92,1.62,5.92-.38-.44-.91-1.09-1.26-1.58a20.36,20.36,0,0,0,7.34.49,11.23,11.23,0,0,0-1.54-2.13c.27-.71,1-.33,1.11-.95l-1-.3c2.61-.48,1.33-4.46-2.25-4.74,1.78,2.11,4.23.46,4.29-2.19a1.84,1.84,0,0,0-1.09-.09,6.49,6.49,0,0,0,3.86-4.84c-.94-.15-2.18-1-3.08-1.09,1.58-.39,1.49-1,2.65-1.78a4.21,4.21,0,0,0-2.26-1.65" class="cls-26"/><path data-cppathid="10044" transform="translate(-109.36 -9.06)" d="M411.16,166.58s-20,27.34-32.29,16.2,1.54-8.07,1.54-8.07-9.2-10.15-3.23-8.63c0,0,16.07,14.19,29.39-5.07,0,0,4.13-1,.92,4.56C407.49,165.57,413,161.52,411.16,166.58Z" class="cls-9"/><path data-cppathid="10045" transform="translate(-109.36 -9.06)" d="M410.31,209c3,4,8.21,5.17,11.53,2.63s3.55-7.83.5-11.82-8.2-5.16-11.53-2.63S407.26,205,410.31,209Z" class="cls-27"/><path data-cppathid="10046" transform="translate(-109.36 -9.06)" d="M411.28,204c-1.22,0-2.78-1.51-.93-1.9a12.35,12.35,0,0,1,4.27-.08.63.63,0,0,1,0-.19c.73-1.67,1.51-3.07,3.45-3.35,1.29-.18,2.72,1.65.93,1.91a.92.92,0,0,0-.32.1,4.07,4.07,0,0,1,2.46.76c.84.56.4,1.37-.42,1.55a12.35,12.35,0,0,0-2.13.57c.92.17,1.87.26,2.77.51,1.3.36,1.47,2-.12,1.85s-3-.17-4.58-.17a10.18,10.18,0,0,1-.41,3.18c-.26,1.22-2.92.53-2.66-.71.12-.59.3-1.17.4-1.76a8.13,8.13,0,0,0-.95.81c-.78.75-3.28,0-2.44-1.17a8.42,8.42,0,0,1,2.42-2C412.45,203.84,411.76,204,411.28,204Z" class="cls-28"/><path data-cppathid="10047" transform="translate(-109.36 -9.06)" d="M337.85,345.77c.48,2.87,1.67,5,2.65,4.84s1.4-2.63.92-5.46-1.65-5-2.65-4.86S337.37,342.89,337.85,345.77Z" class="cls-29"/><path data-cppathid="10048" transform="translate(-109.36 -9.06)" d="M340.67,349.92c.72-1.24.66-4.2-.14-6.65-.65-2-1.65-2.78-2.23-1.81-.47.78-.43,2.71.09,4.29.41,1.27,1.05,1.77,1.42,1.14a4.09,4.09,0,0,0-.06-2.74c-.26-.8-.67-1.13-.91-.73a2.65,2.65,0,0,0,0,1.76" class="cls-30"/><path data-cppathid="10049" transform="translate(-109.36 -9.06)" d="M414.77,352.39c3.16-3.15,4.43-8.19,5.65-10.34.66-1.16,28.22-33.31,36.74-50.22,7.48-14.84,20.73,5.36-23.1,50.75a16.43,16.43,0,0,0-4.7,10.35c.29,2.17-5.23-.38-5.23-.38S409.43,357.73,414.77,352.39Z" class="cls-31"/><path data-cppathid="10050" transform="translate(-109.36 -9.06)" d="M426,341.9s-6.26-2.36-10.74.77-8.3,1.82-10,2-1.44,7,8.86,4.83,10.59,4.4,10.59,4.4l-3.47,6.05s9.18-3.87,10.19-7.44S426,341.9,426,341.9Z" class="cls-31"/><path data-cppathid="10051" transform="translate(-109.36 -9.06)" d="M369.36,466.45c.21,8.95,41.55,15.21,92.33,14s91.76-9.49,91.55-18.44-41.56-15.2-92.34-14S369.14,457.5,369.36,466.45Z" class="cls-32"/><path data-cppathid="10052" transform="translate(-109.36 -9.06)" d="M469.14,300c5.34-13.76,4.73-41.37,4.73-41.37s-3.49-11.21-9-5c-2.74,3.09-9.21,28.77-14.16,39.83C459,295,466.91,299.76,469.14,300Z" class="cls-33"/><path data-cppathid="10053" transform="translate(-109.36 -9.06)" d="M468.79,298.19s2.27,2.33,1,3a10.35,10.35,0,0,0-2.53,2.09l.57,2.64-2.26.54-4.89-4.25s-6.53-3.18-10.87-2.31-2.5-2.89-2.5-2.89,2-1.09,1.6-1.83-1.13-2.41-.22-3S458.66,290.09,468.79,298.19Z" class="cls-34"/><path data-cppathid="10054" transform="translate(-109.36 -9.06)" d="M451.81,343.91s-.2,4.88-.23,7.33c-.7,47.62,13.8,98.65,13.8,98.65s-10.91,3.93-12.65,7.64,25.69,1.21,25.69,1.21-7.09-65.82-5.62-80.51,16.52,76.58,20.32,82,17.67,10.57,17.67,10.57-3-10.92-5.87-15.44-11.37-68.77-12.57-103.25c0-.93-.08-2.74-.08-2.74Z" class="cls-35"/><path data-cppathid="10055" transform="translate(-109.36 -9.06)" d="M475.12,246.83s-20.74,44.83-23.21,94.38c-.15,3-.24,9.14-.24,9.14l40.09,3.3s-.09-2.48-.11-3.66c-.82-33.89-3-72.33-3-72.33s-3.72-40.23-7.34-38.31S475.12,246.83,475.12,246.83Z" class="cls-36"/><path data-cppathid="10056" transform="translate(-109.36 -9.06)" d="M473.63,239.17l.35,14.24s-4.68-8.82-7.9,5.37c0-12.82,3.24-14.1,3.74-13.93S473.63,239.17,473.63,239.17Z" class="cls-37"/><polygon data-cppathid="10057" points="372.76 230.47 373.49 234.65 365.77 240.97 362.71 234.67 372.76 230.47" class="cls-38"/><path data-cppathid="10058" transform="translate(-109.36 -9.06)" d="M540.89,145.17s4.49,12.34-14.94,6.9-11.8-14.44-12.39-15.26,23.2-6.23,23.83-6.45S540.89,145.17,540.89,145.17Z" class="cls-39"/><path data-cppathid="10059" transform="translate(-109.36 -9.06)" d="M459.83,229.34l-4.74-10.59s6.59-1.42,16.84-2.7c0,0-20.18-1.72-20.25-2.05-3.35-14.91-9.28-53.15-3-65.75,14.63-29.53,61.57-56.76,76.16-24.87s-.24,53.73-10.5,73.94-30,46.65-39.26,48C466.89,246.58,459.83,229.34,459.83,229.34Z" class="cls-31"/><path data-cppathid="10060" transform="translate(-109.36 -9.06)" d="M469.17,161c.08,3.39-1.47,6.17-3.46,6.22s-3.68-2.66-3.76-6.05,1.47-6.16,3.46-6.21S469.08,157.58,469.17,161Z" class="cls-13"/><path data-cppathid="10061" transform="translate(-109.36 -9.06)" d="M464.52,162.87a1.8,1.8,0,1,1-1.85-1.75A1.8,1.8,0,0,1,464.52,162.87Z" class="cls-14"/><path data-cppathid="10062" transform="translate(-109.36 -9.06)" d="M479.24,160c.07,2.79-1.21,5.08-2.85,5.12s-3-2.18-3.09-5,1.21-5.08,2.85-5.12S479.17,157.21,479.24,160Z" class="cls-13"/><path data-cppathid="10063" transform="translate(-109.36 -9.06)" d="M476.06,162.6a1.81,1.81,0,0,1-1.76,1.84,1.8,1.8,0,0,1-.09-3.6A1.81,1.81,0,0,1,476.06,162.6Z" class="cls-14"/><path data-cppathid="10064" transform="translate(-109.36 -9.06)" d="M461.07,118.9c-1.95,2.36-1,6.38,2.49,8,3.44,2,10-.3,13.11-3.14,3.37,3.08,5.47,4.38,11,.83,2.07,4,6.54,4.92,10.35,3.24-.37,1.19.54,2.66,2,3.67,1.77,1.19,5.68.49,7.74.49-1.07,3,2.53,5.37,5.46,5.36-.8,1.51.25,4.18,2.34,5.06a5.69,5.69,0,0,0,3.27.09c1,1.59,2.78,2.24,5.43.72-2.28,5.74-3.19,13.25,4.33,12.58-2,3-1.57,15.78,2,17.64,3.13,1.73,3.74,0,4.33-1.63a5,5,0,0,0,2.55,1.47c3.5-.58,5.7-2.47,2.59-6.3,3.52,2.49,7.65-.4,8.87-3.54a7.64,7.64,0,0,0,3.79-1.53c1.6-1.23,3.49-3.31,3.1-5.53a3,3,0,0,0-.19-.58,5,5,0,0,0,.73-3.34,4.41,4.41,0,0,0-3.08-4,6,6,0,0,0,.37-1.08c.64-2.9-.45-6.17-2.7-7.08a12.83,12.83,0,0,0,1-7.6,7.18,7.18,0,0,0-4-4.38,8.26,8.26,0,0,0-3.16-9.53,7.14,7.14,0,0,0-4.13-1.16c-.05-2.4-3.52-3.87-7.48-4.11.62-1.65.48-3.09-1-3.65,0-.13,0-.25,0-.38a4.93,4.93,0,0,0-4.3-5A7.39,7.39,0,0,0,523,98.8c-4.22-1.12-8.62,1.94-8.52,4.73a5.14,5.14,0,0,0-2.05,1.92,3.86,3.86,0,0,0-1.21-.62c-.62-.47-1.29-1-2-1.43.89-4-7.17-6.61-11.22-4.59-1.87-3-7.24-4.83-8.69.39,2.32-10.93-26.78,2-25.53,9.1-3.41-1-8.13-.84-11.66,4.45C449.52,116.18,455.79,119.55,461.07,118.9Z" class="cls-40"/><path data-cppathid="10065" transform="translate(-109.36 -9.06)" d="M494.07,176.8a3,3,0,0,0,1.76-.47c.3-.26.42-.51-.14-.51a3,3,0,0,0-1.76.47c-.31.26-.42.51.14.51Z" class="cls-41"/><path data-cppathid="10066" transform="translate(-109.36 -9.06)" d="M495.48,187.22c1.4,0,1.94-1.76.24-1.76-1.39,0-1.93,1.76-.24,1.76Z" class="cls-41"/><path data-cppathid="10067" transform="translate(-109.36 -9.06)" d="M483.9,184.63v-.47a.43.43,0,0,0-.07-.33.47.47,0,0,0-.22-.26.8.8,0,0,0-.38-.14,1.25,1.25,0,0,0-.47,0l-.33.06a1.81,1.81,0,0,0-.6.27l-.22.2a.89.89,0,0,0-.23.44v.48a.36.36,0,0,0,.06.32.45.45,0,0,0,.23.26.73.73,0,0,0,.38.14,1,1,0,0,0,.46,0l.34-.06a2,2,0,0,0,.6-.28l.21-.2a.82.82,0,0,0,.23-.44Z" class="cls-41"/><g class="cls-2"><polygon data-cppathid="10068" points="316.28 358.01 324.64 358.96 318.93 359.94 310.5 358.97 316.28 358.01" class="cls-42"/><polygon data-cppathid="10069" points="324.64 358.96 322.35 432.97 316.85 435.24 318.93 359.94 324.64 358.96" class="cls-43"/><polygon data-cppathid="10070" points="318.93 359.94 316.85 435.24 308.8 433.37 310.5 358.97 318.93 359.94" class="cls-44"/></g><g class="cls-2"><polygon data-cppathid="10071" points="360.36 363 369.91 364.08 364.7 365.23 355.04 364.12 360.36 363" class="cls-42"/><polygon data-cppathid="10072" points="369.91 364.08 365.46 442.78 360.41 445.39 364.7 365.23 369.91 364.08" class="cls-45"/><polygon data-cppathid="10073" points="364.7 365.23 360.41 445.39 351.23 443.25 355.04 364.12 364.7 365.23" class="cls-44"/></g><g class="cls-2"><polygon data-cppathid="10074" points="246.92 369.45 256.05 370.79 247.46 372.28 238.26 370.88 246.92 369.45" class="cls-42"/><polygon data-cppathid="10075" points="256.05 370.79 256.76 460.01 248.62 463.36 247.46 372.28 256.05 370.79" class="cls-43"/><polygon data-cppathid="10076" points="247.46 372.28 248.62 463.36 239.88 460.66 238.26 370.88 247.46 372.28" class="cls-44"/></g><g class="cls-2"><polygon data-cppathid="10077" points="295.69 376.61 306.45 378.19 298.36 379.98 287.47 378.33 295.69 376.61" class="cls-42"/><polygon data-cppathid="10078" points="306.45 378.19 304.45 474.3 296.76 478.27 298.36 379.98 306.45 378.19" class="cls-45"/><polygon data-cppathid="10079" points="298.36 379.98 296.76 478.27 286.5 475.09 287.47 378.33 298.36 379.98" class="cls-44"/></g><g class="cls-2"><polygon data-cppathid="10080" points="311.21 332.37 386.98 343.79 298.97 378.41 210.98 358.53 311.21 332.37" class="cls-46"/><polygon data-cppathid="10081" points="386.98 343.79 386.34 353.81 298.79 391.87 298.97 378.41 386.98 343.79" class="cls-45"/><polygon data-cppathid="10082" points="298.97 378.41 298.79 391.87 211.43 370.28 210.98 358.53 298.97 378.41" class="cls-44"/></g><path data-cppathid="10083" transform="translate(-109.36 -9.06)" d="M498.41,358.62s-93.73-22.26-91.88-22.68-68.08,13.56-68.08,13.56l88.95,27.08Z" class="cls-47"/><path data-cppathid="10084" transform="translate(-109.36 -9.06)" d="M428,376.44q35.22-9.18,70.52-18c-.57-2.58-.86-3.88-1.43-6.47l-71.49,13.45Z" class="cls-48"/><path data-cppathid="10085" transform="translate(-109.36 -9.06)" d="M495.9,355.6c.46,2.09,1.58,3.11,2.63,2.86s1.63-1.66,1.18-3.69-1.55-3-2.61-2.78S495.44,353.5,495.9,355.6Z" class="cls-48"/><path data-cppathid="10086" transform="translate(-109.36 -9.06)" d="M424.91,371.37c.67,3.06,2.06,5.33,3.1,5.07s1.36-2.92.7-5.93-2-5.28-3.1-5.07S424.24,368.31,424.91,371.37Z" class="cls-29"/><path data-cppathid="10087" transform="translate(-109.36 -9.06)" d="M428.16,375.68c.71-1.37.48-4.55-.51-7.14-.79-2.07-1.91-2.89-2.49-1.81-.46.86-.32,2.92.33,4.59.51,1.34,1.22,1.85,1.59,1.16a4.41,4.41,0,0,0-.21-2.94c-.33-.85-.78-1.19-1-.74a2.76,2.76,0,0,0,.14,1.88" class="cls-30"/><path data-cppathid="10088" transform="translate(-109.36 -9.06)" d="M340.5,350.61q33.13-6.87,66.33-13.4c-.41-2.43-.61-3.65-1-6.07l-67,9.15C339.46,344.42,339.81,346.49,340.5,350.61Z" class="cls-48"/><path data-cppathid="10089" transform="translate(-109.36 -9.06)" d="M404.52,334.43c.33,2,1.33,3,2.31,2.78s1.59-1.46,1.27-3.37-1.31-2.85-2.3-2.7S404.19,332.46,404.52,334.43Z" class="cls-48"/><path data-cppathid="10090" transform="translate(-109.36 -9.06)" d="M487.81,352.65h0Z" class="cls-31"/><path data-cppathid="10091" transform="translate(-109.36 -9.06)" d="M462.39,351.75l-.31,6.82,8.05-1.79,3.7-13.73S465.71,346.46,462.39,351.75Z" class="cls-31"/><path data-cppathid="10092" transform="translate(-109.36 -9.06)" d="M499.05,264.24s-9,4.6-7.09,12.6c.93,4,10.67,19.9,12.75,27.05-6.94,5.79-24,28.82-29.1,35-1.9,1.67-7.74,5.61-9.27,8.62-.58,1.15,1.57.73,1.14,1.58a96.26,96.26,0,0,0,2.24,10.46s4.78,9.84,14.45-2.45c1.37-1.92.53-7.2.27-11.65,2.24-4,34.87-29.67,33.78-42.33C517.63,296.2,499.05,264.24,499.05,264.24Z" class="cls-31"/><path data-cppathid="10093" transform="translate(-109.36 -9.06)" d="M516.3,284.85c-6.4-13.29-27-31.72-27-31.72s-10.56-5.11-9.8,3.13c.38,4.11,14.71,26.38,19.41,37.55C505.74,288.86,514.64,286.35,516.3,284.85Z" class="cls-33"/><path data-cppathid="10094" transform="translate(-109.36 -9.06)" d="M514.77,283.9s3.25-.06,2.85,1.34a10.6,10.6,0,0,0-.2,3.27l2.31,1.39-1.15,2-6.44.66s-6.79,2.6-9.11,6.37-3.82-.15-3.82-.15.59-2.23-.25-2.42-2.52-.82-2.37-1.92S501.94,285.76,514.77,283.9Z" class="cls-34"/><path data-cppathid="10095" transform="translate(-109.36 -9.06)" d="M479.82,359.16c-.71,3.22-.14,6.09,1.28,6.41s3.15-2.05,3.87-5.28.14-6.1-1.28-6.41S480.54,355.93,479.82,359.16Z" class="cls-31"/><path data-cppathid="10096" transform="translate(-109.36 -9.06)" d="M474.82,361.88c-.72,3.23-.15,6.1,1.28,6.42s3.15-2.05,3.86-5.28.15-6.1-1.27-6.41S475.54,358.65,474.82,361.88Z" class="cls-31"/><path data-cppathid="10097" transform="translate(-109.36 -9.06)" d="M468.12,362.68c-.71,3.23.08,6.15,1.76,6.52s3.64-1.94,4.35-5.16-.07-6.15-1.76-6.52S468.84,359.45,468.12,362.68Z" class="cls-31"/><polygon data-cppathid="10098" points="302.26 333.19 259.88 342.95 288.01 350.7 325.88 339.58 302.26 333.19" class="cls-49"/><polygon data-cppathid="10099" points="328.97 340.83 349.06 346.19 340.81 348.73 330.35 345.85 311.3 352.16 302.11 349.14 328.97 340.83" class="cls-49"/><path data-cppathid="10100" transform="translate(-109.36 -9.06)" d="M483.71,241s6.15,12.27,4.73,20.1c-1.49-4.8-8.7-14.38-16.34-7.11C480.27,244.6,483.71,241,483.71,241Z" class="cls-37"/><path data-cppathid="10101" transform="translate(-109.36 -9.06)" d="M488.62,100.48c-5.69-1.73,7.52-14.91,11.13-6.54-3.11,2.55-5-3-.49-4.55,2.72-.91,7.65.92,8,3.77,4-2.76,9.31,4.16,4,4.61-5-9.64,19.76-3.09,9.66,1.44,5.88-8,18,5.61,7.3,7.4.64-6.85,13.54.24,9.82,7.69,2.3-.17,6.8,2,7.33,4.52.7,3.38-3.75,4.92-4.23,1.43,4.37,0,.74,4.94-1.58,5.76-4.1,1.44-10.4-1.14-11.47-5.38-3.45,6.62-18.39,6.52-18.2-2.58-5.51,3.87-17.33,3.2-15.91-5.92.72,3.94-8.16,3-9.87-.3-1.23-2.39.75-11.16,3.67-7.55-2.11,1.25-4.84-.26-3.69-2.76.91-2,4.94-1.67,6.14-1.92" class="cls-40"/><path data-cppathid="10102" transform="translate(-109.36 -9.06)" d="M471.47,109.1c-2.52,4.27-10.31,1-11.87-2.24-2.31-4.81,4.37-10.62,8.94-7-4.72-1.3,5.07-6.52,6.37-2.08-8.49.48,9.93-13.83,9.91-3.86a11.07,11.07,0,0,0-1.26.32c-2.56-3.94,3.52-6.46,7.14-4.82.95.43,5.75,5.24,6.07,6.25,2.21,7.06-11.22,15.29-15.55,7.17,3.41,3.54-3.88,6.77-7.19,4.79-1.65,1.68-4.86,4.26-6.51,1.58-.31,0,.17.41.6.34" class="cls-40"/><path data-cppathid="10103" transform="translate(-109.36 -9.06)" d="M415.43,363.71l.34,0,.34,0-.34,0Z" class="cls-31"/><path data-cppathid="10104" transform="translate(-109.36 -9.06)" d="M220.08,277.71s1.5-2,3.62-5.16l0,0,.12-.1,1.06-1.61a8.86,8.86,0,0,1,3.87-3.12,141.21,141.21,0,0,0,20.37-27.5c2.91-5.05,2.51-43.2,6.24-50.06S266,193.48,266,193.48s.1,46.84-8.76,58.06c-5.15,6.51-13.77,14.72-20.11,20.46a13.14,13.14,0,0,1-1.6,2.68c-1.84,2.46-3.23,4.29-3.7,5.16-2.36,4.31-3.55,19.45-5,19.58s-2.31-7.53-2.31-7.53-4.24,8.58-4.57,7.26,2-9.75,2-9.75-4.72,8.62-6.31,6,4.84-12.27,4.84-12.27a11.62,11.62,0,0,1-8.61.77C206.67,282.58,220.08,277.71,220.08,277.71Z" class="cls-31"/><path data-cppathid="10105" transform="translate(-109.36 -9.06)" d="M261.1,185.48c4.16,2.57,5.68,6,6.14,11.35s-3.13,41.38-4.26,46.3-25.1,35.64-27.32,37C226,283.88,219.81,274,219.81,274s23.29-31.36,27.84-34.56c1.56-2.78,2.2-45.19,5.95-50.19S261.1,185.48,261.1,185.48Z" class="cls-50"/><path data-cppathid="10106" transform="translate(-109.36 -9.06)" d="M359.79,418.14c-.18,7.47-40.57,12.54-90.22,11.34s-89.75-8.23-89.57-15.69,40.57-12.54,90.22-11.33S360,410.69,359.79,418.14Z" class="cls-32"/><path data-cppathid="10107" transform="translate(-109.36 -9.06)" d="M244.56,282.37s-.47,5.28-.64,7.95c-3.26,51.68,9.79,107.87,9.79,107.87s-11.72,7.67-13.8,11.61,27.5-1.31,27.5-1.31-4.23-71.86-1.86-87.75,7.93,83.44,11.76,89.51,25.85,6.56,25.85,6.56-8.18-9.82-11-14.87-4.48-71-4-108.56c0-1,0-3,0-3Z" class="cls-51"/><path data-cppathid="10108" transform="translate(-109.36 -9.06)" d="M272,177.4s-22.72,48.33-28.1,102c-.32,3.29-.76,9.92-.76,9.92l44.29,5.72s0-2.7.07-4c.89-36.85.58-78.72.58-78.72s-2-43.89-6.11-42S272,177.4,272,177.4Z" class="cls-52"/><polygon data-cppathid="10109" points="173.62 161.53 174.19 166.11 165.47 172.57 162.48 165.56 173.62 161.53" class="cls-38"/><polygon data-cppathid="10110" points="161.01 183.08 159.13 205.18 152.95 219.93 149.68 209.52 159.15 182.26 161.01 183.08" class="cls-53"/><path data-cppathid="10111" transform="translate(-109.36 -9.06)" d="M263,223.59s-13.69,94.12-11.65,103.76c0,0-17-3.61-17.91-4.54s16-106.39,24.08-118.06C260.42,215.77,263,223.59,263,223.59Z" class="cls-50"/><path data-cppathid="10112" transform="translate(-109.36 -9.06)" d="M262.51,223.58s-14,68.11-8,105.21c0,0,32.08,4,53.47-3,0,0-16.35-59.95-16.63-76.38s-6.48-71.91-8.7-64.55C279.64,194.68,262.51,223.58,262.51,223.58Z" class="cls-50"/><path data-cppathid="10113" transform="translate(-109.36 -9.06)" d="M273.81,175.05s-16.1,27.08-11.36,49c0,0-7.22-15.56-2.8-27.16,0,0-2.61-2-4.94-1.23s14.8-23.73,18-23.52S273.81,175.05,273.81,175.05Z" class="cls-54"/><path data-cppathid="10114" transform="translate(-109.36 -9.06)" d="M276.18,181.91l-5.72,10.32s-1.17.14-1.61-.55-.51-.44-.51-.44.82-10.69,2.68-11.49C271,179.75,273.42,182,276.18,181.91Z" class="cls-53"/><path data-cppathid="10115" transform="translate(-109.36 -9.06)" d="M259.3,158.35s0-.1-.92-2.39l-4.73-11.85s10,16.45,14.26,1.7c-9.5-2-17.3.68-18.24-6.48-2.16-16.47-5.69-56.3,1.76-69.65,17.46-31.3,69.86-58.41,84-23s-3.08,58.35-15.29,79.75S285.1,175.53,275,176.54C266.07,177.44,259.3,158.35,259.3,158.35Z" class="cls-31"/><path data-cppathid="10116" transform="translate(-109.36 -9.06)" d="M269.77,74.25c-.09,3.69-1.92,6.63-4.09,6.58s-3.85-3.08-3.76-6.77,1.92-6.61,4.09-6.56S269.86,70.58,269.77,74.25Z" class="cls-13"/><path data-cppathid="10117" transform="translate(-109.36 -9.06)" d="M270.12,75.24a2,2,0,1,1-1.92-2A2,2,0,0,1,270.12,75.24Z" class="cls-14"/><path data-cppathid="10118" transform="translate(-109.36 -9.06)" d="M285.54,78.53c-.56,3.91-2.89,6.8-5.18,6.46s-3.7-3.76-3.13-7.67,2.89-6.79,5.18-6.46S286.11,74.63,285.54,78.53Z" class="cls-15"/><path data-cppathid="10119" transform="translate(-109.36 -9.06)" d="M285.26,79.65a2.57,2.57,0,0,1-2.9,2.16,2.55,2.55,0,0,1,.73-5A2.56,2.56,0,0,1,285.26,79.65Z" class="cls-14"/><path data-cppathid="10120" transform="translate(-109.36 -9.06)" d="M338.38,51s-9.14,18.22-10.12,26.06l-1,7.84s4.79-3,7.17-3.76l2.37-.73s-1.91,14.12-2.77,17.24a5.62,5.62,0,0,0,.79,5S345.8,84,346.18,68.32,338.38,51,338.38,51Z" class="cls-55"/><path data-cppathid="10121" transform="translate(-109.36 -9.06)" d="M289.06,285.79l0,0,.06-.15c.09-.64.17-1.31.25-2a9.4,9.4,0,0,1,2.18-4.75,148.89,148.89,0,0,0,6.28-35.47c.37-6.12-17.91-41.86-17.62-50.08s11.58-1.82,11.58-1.82,22.08,44.07,19,58.79c-1.79,8.54-6.06,20.32-9.33,28.71a14.22,14.22,0,0,1-.25,3.27c-.58,3.18-1,5.57-1.07,6.6-.2,5.17,5.79,20,4.51,20.78s-5.71-6-5.71-6,0,10.08-.9,9-2.68-10.12-2.68-10.12-.39,10.34-3.11,8.65S291,297.3,291,297.3a12.24,12.24,0,0,1-7.74,4.77c-5.53,1.15,4.82-9.73,4.82-9.73S288.55,289.76,289.06,285.79Z" class="cls-31"/><path data-cppathid="10122" transform="translate(-109.36 -9.06)" d="M281,227.9c0,.18-.25.31-.51.28h0c-.26,0-.45-.21-.43-.39l.83-7.06c0-.19.25-.31.51-.28h0c.26,0,.45.2.43.39Z" class="cls-56"/><polygon data-cppathid="10123" points="174.99 216.87 159.52 215.13 158.01 221.03 174.37 223.7 174.99 216.87" class="cls-54"/><path data-cppathid="10124" transform="translate(-109.36 -9.06)" d="M278.6,241.12a1.09,1.09,0,0,1-1.3.82h0a1.11,1.11,0,0,1-1.08-1.1l2.36-20.13a1.08,1.08,0,0,1,1.29-.81h0A1.08,1.08,0,0,1,281,221Z" class="cls-57"/><path data-cppathid="10125" transform="translate(-109.36 -9.06)" d="M280.55,225.76a3.35,3.35,0,0,1-2.69-.33l-.09.47a3.4,3.4,0,0,0,2.77.37Z" class="cls-56"/><path data-cppathid="10126" transform="translate(-109.36 -9.06)" d="M283.43,186.23c5.12.47,8.14,2.94,11.1,7.81s16.48,40.44,17.72,45.6-6.92,45.35-8.34,47.71c-7.38,8-17.84,1.62-17.84,1.62s7.23-40.47,10-45.62c.16-3.34-19.14-43.58-18-50S283.43,186.23,283.43,186.23Z" class="cls-50"/><path data-cppathid="10127" transform="translate(-109.36 -9.06)" d="M285.68,171.21l2.33,31.2-8.88-.9L262.5,224S281.19,187.19,285.68,171.21Z" class="cls-54"/><path data-cppathid="10128" transform="translate(-109.36 -9.06)" d="M303.4,81.46C300.8,90,295.63,94.75,288,95.59h0a27.92,27.92,0,0,1-8.54-.51c-4.68-.93-6.43-4.56-8.41-9.61-1.38-3.53-3-7.54-7.15-7.54l-.64,0c-2.8.31-5.26,2.61-7.86,5-2.15,2-4.81,4.48-6.69,4.69A2.07,2.07,0,0,1,247,87c-1-3.58,3-18.89,7.91-21.3a12.1,12.1,0,0,1,3.89-.93c14-1.55,43.84,6.55,46.36,7.77C305.15,72.52,303.49,81.14,303.4,81.46Z" class="cls-58"/><path data-cppathid="10129" transform="translate(-109.36 -9.06)" d="M244.44,89c7,7.11,14.61-7.85,19.5-7.85S267.48,96,278.87,98.26c22.93,4.58,27.16-14.68,27.79-16.38s29.07,12.77,29.07,12.77-2,8.27,0,8.87,7.95-13,5.84-14.92-34.86-18.94-34.86-18.94c-2.89-1.58-42.41-12.14-53.18-6.89C246.27,66.28,241.77,86.34,244.44,89ZM254.9,65.68a12.1,12.1,0,0,1,3.89-.93c14-1.55,43.84,6.55,46.36,7.77,0,0-1.66,8.62-1.75,8.94C300.8,90,295.63,94.75,288,95.59h0a27.92,27.92,0,0,1-8.54-.51c-4.68-.93-6.43-4.56-8.41-9.61-1.38-3.53-3-7.54-7.15-7.54l-.64,0c-2.8.31-5.26,2.61-7.86,5-2.15,2-4.81,4.48-6.69,4.69A2.07,2.07,0,0,1,247,87C246,83.4,250,68.09,254.9,65.68Z" class="cls-59"/><path data-cppathid="10130" transform="translate(-109.36 -9.06)" d="M273.58,457.41c.18,7.56-35.12,14.54-78.85,15.6s-79.33-4.2-79.51-11.77,35.12-14.55,78.85-15.61S273.4,449.85,273.58,457.41Z" class="cls-32"/><path data-cppathid="10131" transform="translate(-109.36 -9.06)" d="M141.68,276.67s14.48-77.72,51.18-76.42,48.93,38.87,42.81,73.85c-1.64,9.36-3.14,23.22-4.45,38.51-3.62,41.88-18.37,41.73-18.37,41.73L152.65,352l3.77-40-1.48-10.62s-3.67-15.55-4.9-18.14,21,3.49,13,.82C149.08,279.36,141.68,276.67,141.68,276.67Z" class="cls-31"/><path data-cppathid="10132" transform="translate(-109.36 -9.06)" d="M150.06,307.64c-2.44.36-4.25,1.65-4.05,2.9s2.33,2,4.77,1.62,4.25-1.65,4.05-2.89S152.49,307.29,150.06,307.64Z" class="cls-60"/><path data-cppathid="10133" transform="translate(-109.36 -9.06)" d="M149.19,312.07s-4.1,4.9-8.12,2.07,6.64-3.87,6.64-3.87Z" class="cls-60"/><path data-cppathid="10134" transform="translate(-109.36 -9.06)" d="M150.51,323.89c-1-1.47-2.51-2.18-3.31-1.59s-.65,2.25.37,3.72,2.5,2.19,3.31,1.6S151.52,325.36,150.51,323.89Z" class="cls-60"/><path data-cppathid="10135" transform="translate(-109.36 -9.06)" d="M153.47,322.67c-.9-1.3-2.22-1.94-2.93-1.41s-.57,2,.33,3.29,2.21,1.93,2.93,1.41S154.37,324,153.47,322.67Z" class="cls-60"/><path data-cppathid="10136" transform="translate(-109.36 -9.06)" d="M146.47,324.35c-.86-1-2.14-1.29-2.84-.59a2.41,2.41,0,0,0,.28,3.13c.86,1,2.14,1.29,2.84.59A2.4,2.4,0,0,0,146.47,324.35Z" class="cls-60"/><path data-cppathid="10137" transform="translate(-109.36 -9.06)" d="M137.72,313.06s-.44-8.16-6.14-11.64-6.11-8.39-7.1-10.22-8.59,1.84-1,12.28.26,14,.26,14l-5.11,4.09s5.48,3.37,10,2.74,10.57,10.31,16.21,13.09,22.06-9,22-9.68-13-4.23-13-4.23Z" class="cls-31"/><path data-cppathid="10138" transform="translate(-109.36 -9.06)" d="M139.09,311.72s-4.28,13.51-8.55,14.36c6.83,7.69,14.53,15.73,14.53,15.73l8-11.8-2.91-10.6Z" class="cls-61"/><path data-cppathid="10139" transform="translate(-109.36 -9.06)" d="M231.65,357.34l.35.13c-.07.14.22.26.34.11a7.7,7.7,0,0,1,4.27,3.05,13.28,13.28,0,0,1,1.25,4.22c.48,2.61.47,6,3.89,7.76,2.23,1.15,6.49,2.75,9.2,1.43,1.63-.79.1-4-1.37-3.18-.36.2,0,.57.33.6a1,1,0,0,0,.21.16l.16.19a1.64,1.64,0,0,1,.39,1c-.1.82-1.33,1-2.28.91a14.91,14.91,0,0,1-4.49-1.07c-3.44-1.39-4.23-3.6-4.6-6.16-.28-2-.5-4.26-1.63-6.1a8.32,8.32,0,0,0-3.8-3.08c4.89.06,10.71,1.19,14.72-.94,2.16-1.14,2.85-3.18,1.33-4.78-1.68-1.8-4.94-2.47-7.94-1.9a17.33,17.33,0,0,0-6.54,2.69,10.11,10.11,0,0,0-2.46,2.19,5.5,5.5,0,0,0-.63,2,3,3,0,0,0-.42,0C231.44,356.69,231.11,357.17,231.65,357.34Zm1.2-.73a4.39,4.39,0,0,1,.6-1.4,9.4,9.4,0,0,1,2.21-2.08,16.56,16.56,0,0,1,6.2-2.68c2.68-.51,5.94-.16,7.31,1.68,1.23,1.66.13,3.45-2.38,4.18C242.42,357.6,237.46,356.48,232.85,356.61Z" class="cls-62"/><path data-cppathid="10140" transform="translate(-109.36 -9.06)" d="M189.43,151.23a17.27,17.27,0,1,0,18.36-16.11A17.27,17.27,0,0,0,189.43,151.23Z" class="cls-63"/><path data-cppathid="10141" transform="translate(-109.36 -9.06)" d="M235.38,166.63c-3.44,7.64,2.64,17.83,13.57,22.75s22.6,2.72,26-4.92-2.64-17.83-13.57-22.76S238.82,159,235.38,166.63Z" class="cls-63"/><path data-cppathid="10142" transform="translate(-109.36 -9.06)" d="M176.72,230.19c0,3,1.37,5.51,3.06,5.51s3.06-2.47,3.06-5.51-1.37-5.51-3.06-5.51S176.72,227.15,176.72,230.19Z" class="cls-64"/><path data-cppathid="10143" transform="translate(-109.36 -9.06)" d="M163.77,227.67c0,2.51,1.12,4.54,2.51,4.54s2.52-2,2.52-4.54-1.13-4.53-2.52-4.53S163.77,225.17,163.77,227.67Z" class="cls-64"/><path data-cppathid="10144" transform="translate(-109.36 -9.06)" d="M177.61,206.31s-6.11,1.95-10.4,1.95h-4.28s19.57-11.67,27.53-11.67a75.14,75.14,0,0,1,11.61.65s26.3-24,36.09,15.55-.62,62.2,4.89,62.2,10.4-3.89,10.4-3.89S248,288,239.38,288,210.64,266.57,210.64,240V213.44l-4.29,9.72s-24.46-1.3-26.9-9.08S177.61,206.31,177.61,206.31Z" class="cls-64"/><path data-cppathid="10145" transform="translate(-109.36 -9.06)" d="M180.7,227.6a1.53,1.53,0,1,0,1.53-1.62A1.58,1.58,0,0,0,180.7,227.6Z" class="cls-14"/><path data-cppathid="10146" transform="translate(-109.36 -9.06)" d="M166.52,225.82a1.53,1.53,0,1,0,3-.17,1.53,1.53,0,1,0-3,.17Z" class="cls-14"/><path data-cppathid="10147" transform="translate(-109.36 -9.06)" d="M144,361.06s4.36,26.68,24.66,29.5c13.24,1.84,39.12.33,42.68,4.57,5,5.95,22.44-24.58,22.44-24.58s-67.47-29.84-83.88-18.21" class="cls-65"/><path data-cppathid="10148" transform="translate(-109.36 -9.06)" d="M155.11,382.75l4.42,69.75s-8.26,2.42-11.68,8.06c12.83,3.08,30.26-4.35,30.26-4.35s3.61-64.73,5.2-72.14S155.11,382.75,155.11,382.75Z" class="cls-65"/><path data-cppathid="10149" transform="translate(-109.36 -9.06)" d="M190.15,380.73,193,456.84c-5.92,3.65-8,3.83-11,11.18,19,5.13,31.89-7.71,31.89-7.71s4-74.34,5-76.52-27.13-4.05-27.13-4.05" class="cls-65"/><path data-cppathid="10150" transform="translate(-109.36 -9.06)" d="M234.58,299.17c-80.09,15.64-79.41-1.12-79.41-1.12s-14.24,51.82-11.5,63.78c17.1-2.39,91,10.61,91,10.61S236.06,311.05,234.58,299.17Z" class="cls-66"/><path data-cppathid="10151" transform="translate(-109.36 -9.06)" d="M262.76,171.74s-19.34,72.17-19.34,72.85-13.54-51.64-67.7-43.43c0,0,30.16-45.92,32.24-56.18S269.71,154,262.76,171.74Z" class="cls-67"/><path data-cppathid="10152" transform="translate(-109.36 -9.06)" d="M256.86,163S241,206.63,239.93,211.5c0,0-2.56-3.07-4.1-3.33S253,161.74,253,161.74Z" class="cls-68"/><path data-cppathid="10153" transform="translate(-109.36 -9.06)" d="M236.09,157.64l-13.6,40.78a52.11,52.11,0,0,0-5.64-3.08c-1-.25,14.36-35.14,15.65-41S236.09,157.64,236.09,157.64Z" class="cls-68"/><path data-cppathid="10154" transform="translate(-109.36 -9.06)" d="M217.11,154.3,201.46,191a56.8,56.8,0,0,0-7.18-.27s18.72-31.8,19.49-38.22S217.11,154.3,217.11,154.3Z" class="cls-68"/><path data-cppathid="10155" transform="translate(-109.36 -9.06)" d="M201.94,130.9a18.63,18.63,0,0,1,6.33,1.73A19.56,19.56,0,0,1,223.06,128a21.61,21.61,0,0,1,16.08,9.52,21.91,21.91,0,0,1,11.36-2c11.3,1,20.25,9.93,20.72,20.27l.45,0c10.83,1,19.31,9.89,18.95,19.92s-9.44,17.38-20.27,16.41c-9.68-.87-17.47-8.08-18.76-16.77a21.69,21.69,0,0,1-2.54-.08,23.26,23.26,0,0,1-18.36-11.86,20.43,20.43,0,0,1-9,1.18,21.88,21.88,0,0,1-10.95-4.13,17.28,17.28,0,0,1-10,2c-9.43-.84-16.82-8.61-16.51-17.34S192.51,130.05,201.94,130.9Z" class="cls-67"/><path data-cppathid="10156" transform="translate(-109.36 -9.06)" d="M237.29,297.61a14.42,14.42,0,0,0,.34,2.73c.34,1.71-36.79-5.46-38.31,35.23-1.37,36.59,32.83,19.15,37.28,20.18l-.34,3.08-20.18,7.52.34,56.09s-54.72,6.85-74.22-7.87c-3.42-10.94-1.36-57.11-1.36-57.11S151.1,298,152.12,296.93s3.76-.35,3.76-.35-3.76,12.65-3.76,14.71,33.86,7.53,40.36,6.84C192.48,318.13,205.14,294.19,237.29,297.61Z" class="cls-67"/><path data-cppathid="10157" transform="translate(-109.36 -9.06)" d="M123.11,345.61c.5-.64.77-1,17.54.83,19,2.06,48.08,5.81,48.37,5.85l1.23.16-.35,1.18c-.1.34-10.09,33.16-37.17,30.22-11.4-1.23-25.78-8.5-29.62-36.09-.07-.5-.13-1-.16-1.09l-.2-.6Z" class="cls-69"/><path data-cppathid="10158" transform="translate(-109.36 -9.06)" d="M186,362.8c-5.89,2.57-18.65,2.85-31.12,1.5s-24.9-4.36-30.09-8.15a74.75,74.75,0,0,1-1.64-8.39c0-.12,0-.24,0-.35l66.5,7.2A58.22,58.22,0,0,1,186,362.8Z" class="cls-70"/><path data-cppathid="10159" transform="translate(-109.36 -9.06)" d="M123.06,349.67c-.45,4.19,13.94,9.19,32.15,11.17s33.34.17,33.8-4c.17-1.55.41-3.77.41-3.77l-65.95-7.15S123.23,348.12,123.06,349.67Z" class="cls-71"/><path data-cppathid="10160" transform="translate(-109.36 -9.06)" d="M123.53,345.35c-.46,4.2,13.94,9.19,32.15,11.17s33.34.18,33.8-4-13.94-9.2-32.16-11.17S124,341.16,123.53,345.35Z" class="cls-72"/><g class="cls-73"><path data-cppathid="10161" transform="translate(-109.36 -9.06)" d="M126.31,348.5c5.65-2,12.06-.72,17.82.23,9.12,1.53,18.14,4,27.45,4.06,4.44,0,8.76-1.27,13.18-1.5,2.55-.13,4.71.44,5.29,3.15a.23.23,0,0,1,0,.12c.26-.15.53-.28.8-.43a.74.74,0,0,1,.74,1.27,71.49,71.49,0,0,1-35.46,9.1,149.73,149.73,0,0,1-21.38-1.13c-4.24-.6-14.27-1.84-14.76-7.68C119.65,351.89,123.15,349.61,126.31,348.5Z" class="cls-74"/><path data-cppathid="10162" transform="translate(-109.36 -9.06)" d="M126.43,346.43c.35,0,1.16.71,1.54.64,5.27,2.78,10.73,2.13,16.6,1.75,5.1-.32,28.67-3.67,38.52,2.15a5.36,5.36,0,0,0,1.88.47l2.61.66c.47.12.27.81-.2.72l-2.88-.6c-1.65,2.9-5.06,3.27-8.18,3.43-5.74.33-11.62-.5-17.34-1-5.5-.5-11-1-16.45-1.89a48.74,48.74,0,0,1-7.62-1.79c-1.39-.45-3.69-1.1-4.64-2.33-1.34-.31-2.7-.49-4-.93A.64.64,0,0,1,126.43,346.43Z" class="cls-74"/><path data-cppathid="10163" transform="translate(-109.36 -9.06)" d="M167.47,357.84c-5.26-.26-3.85-.38-17.06-3.07-3.51-.72-6.86-2.2-10.38-2.83a29.72,29.72,0,0,1-6.16-1.92c-1.37-.58-3.44-.57-2.57-2.57.33-.28-3.81-.91-4.36-1-3.43-.67-6.44-.68-6.22,3.8s4.85,8.37,8.49,10.4c10.19,5.64,23.34,4.11,34.55,4.63,2.28.12,7.85.36,8.56-2.8S170,358,167.47,357.84Z" class="cls-75"/></g><path data-cppathid="10164" transform="translate(-109.36 -9.06)" d="M169.78,358.39a131.55,131.55,0,0,1-14.22-.81,110.32,110.32,0,0,1-23.31-4.8c-6.78-2.35-10.07-4.89-9.79-7.54.57-5.22,14.71-5.78,20.77-5.78a129,129,0,0,1,14.21.81,110.68,110.68,0,0,1,23.31,4.8c6.79,2.36,10.08,4.9,9.79,7.55-.56,5.21-14.71,5.77-20.76,5.77ZM143.23,341.6c-13.28,0-18.48,2.37-18.64,3.87-.09.85,1.57,2.93,8.37,5.29a108.19,108.19,0,0,0,22.83,4.69,130.16,130.16,0,0,0,14,.8c13.27,0,18.47-2.37,18.63-3.87.09-.85-1.56-2.93-8.36-5.29a108.43,108.43,0,0,0-22.84-4.69,127.32,127.32,0,0,0-14-.8Z" class="cls-69"/><path data-cppathid="10165" transform="translate(-109.36 -9.06)" d="M155.1,357.11c16.91,1.84,34.36.72,35-5l-.28-1.62-.64-.13-.77,1.82c-.3,2.73-12.38,6.17-32.13,3.95-13.53-1.53-3.92.78-1.15.94Z" class="cls-76"/><path data-cppathid="10166" transform="translate(-109.36 -9.06)" d="M173.5,386a21.82,21.82,0,0,1-4.28-5.3c-1.53-2.91,9.07-9.23,9.07-4.11S173.5,386,173.5,386Z" class="cls-77"/><path data-cppathid="10167" transform="translate(-109.36 -9.06)" d="M213.86,317.79c-.93,2.88-8.9,28.21-9.24,34.37s-22.57,12.31-32.32,19.67c0,0-8.55-3.94-12.14-2.74s-3.93-1.54-6-1.54-4.1,5,1.71,6a18.12,18.12,0,0,1-9.91,3.07c-6.16.17-2.91,3.6-.69,3.77,0,0-1,2.39,3.42,2.73a8.45,8.45,0,0,0,6.84,1s11.46,1,17.62-1.37c3-1.18,41.55-7.87,44.29-13.17s13.17-39.5,11.63-45.32S216.94,308.21,213.86,317.79Z" class="cls-31"/><path data-cppathid="10168" transform="translate(-109.36 -9.06)" d="M220.18,311.29s11.46,2.73,9.75,14.36-8.55,44.29-11.8,46.86-45.32,13.68-45.32,13.68,6-12-1-16.25c7.86-6,26.68-14.36,29.07-15.73S208.55,307.7,220.18,311.29Z" class="cls-61"/><path data-cppathid="10169" transform="translate(-109.36 -9.06)" d="M181.84,353.86c.58-.08,3.32-.51,3.1-1.4a.6.6,0,0,1,0-.23.2.2,0,0,1,.06-.35,1.61,1.61,0,0,1,1.76.71,1.11,1.11,0,0,1-.53,1.46c-1.17.84-3,.68-4.38.85C181.17,355,181.19,354,181.84,353.86Z" class="cls-78"/><path data-cppathid="10170" transform="translate(-109.36 -9.06)" d="M134.57,328c-1.89-4.14-6-40-18.27-41.2s-4.66,13.1-4.14,13.79,16.38,26.89,16.55,27.92C131.81,330.78,134.57,328,134.57,328Z" class="cls-79"/><path data-cppathid="10171" transform="translate(-109.36 -9.06)" d="M124.76,305.9c.86,2.44-1.88,4.12-1.28,4,2.57-.65,5.9,1.38,1.6,5.12,7.25-.51,1.16,4.69,1.16,4.69s-5.31,1.38-6.1,1.71c-2.2.94-4.72-2.72-3.27-3.76,0,0-2.61-2.36-1.38-5.13,0,0-2-1.12-1.22-4.1C114.74,306.61,124,303.8,124.76,305.9Z" class="cls-31"/><path data-cppathid="10172" transform="translate(-109.36 -9.06)" d="M134.36,328.22l-.7-3.72s-5-1.23-6.37,2.13l2.48,3.36S133.48,331.58,134.36,328.22Z" class="cls-59"/><g class="cls-80"><path data-cppathid="10173" transform="translate(-109.36 -9.06)" d="M132.56,327.85a17.53,17.53,0,0,0,4.06,6c2,2.08,4.46,4.85,5.18,8,.86,3.69-2.49,6.13-5.44,4.51-3.46-1.88-2.89-7.19-3.25-10.8s-.33-5.19-2-8.29" class="cls-81"/><path data-cppathid="10174" transform="translate(-109.36 -9.06)" d="M132.06,327.53c2.55,2.77,4.21,5.12,7.51,7,3,1.68,6.65,4,8.36,7.15,2,3.76-1.28,7.33-5.25,6.42-4.65-1.06-5.42-7-6.84-10.78s-3-7.57-5.89-10.44" class="cls-82"/><path data-cppathid="10175" transform="translate(-109.36 -9.06)" d="M130,327.37c.22,3.76.76,6.58-.2,10.24-.86,3.31-1.74,7.56-.67,11,1.29,4.08,6.17,4.17,8.28.68,2.46-4.08-1.26-8.75-3-12.41s-3.37-7.41-3.43-11.48" class="cls-83"/><path data-cppathid="10176" transform="translate(-109.36 -9.06)" d="M132,326.39c2,3.66,3.2,6.64,6.27,9.51,2.78,2.6,6.13,6.07,7.15,9.93,1.22,4.61-3.32,7.58-7.36,5.56-4.75-2.38-4-9-4.56-13.45s-1.24-9-3.59-12.83" class="cls-84"/></g><path data-cppathid="10177" transform="translate(-109.36 -9.06)" d="M135.92,348.58a.05.05,0,0,1,0-.05c.28-.59,1.07-.26,1.23.22.08,0,.15.08.22.11h0a.69.69,0,0,1,.67-.88.93.93,0,0,1,.25,0h.09a1.8,1.8,0,0,1,0-.22.69.69,0,0,1,.76-.57,1.31,1.31,0,0,1,.77.25.59.59,0,0,1,.63-.28l.34.07a.64.64,0,0,1,.31.15l.05-.17a1.17,1.17,0,0,1,2-.47.48.48,0,0,1,.21-.07,1.44,1.44,0,0,1,1.28.45c.5-1,2.17-1,2.43.09h.09a.12.12,0,0,1,.06-.06.64.64,0,0,1,.15-.86,1.36,1.36,0,0,1,1-.21,1.4,1.4,0,0,1,.11-.37,1.35,1.35,0,0,1,1.86-.53,1.64,1.64,0,0,1,1,.39,1.29,1.29,0,0,1,.44-.21,2,2,0,0,1,.31-.05,2.78,2.78,0,0,1,2.88.46,2.73,2.73,0,0,1,.41-.1h0v0h0a.56.56,0,0,0,0-.08l.11.08a2,2,0,0,1,.9-.32,1.34,1.34,0,0,1,.83.21l.46-.08a1.57,1.57,0,0,1,1.63,1.05,1.48,1.48,0,0,1,1.39,1.06l0,.16c1.35-.21,3.13.61,3.09,1.92-.05,1.79-1.95,2.17-3.24,1.47a1.18,1.18,0,0,1-.31.39,2,2,0,0,1-2.76-.32,2.62,2.62,0,0,1-2.63.38.48.48,0,0,1-.3-.29,1.92,1.92,0,0,1-2.36,0,3,3,0,0,1-.41-.09,4.06,4.06,0,0,1-1.81-.19h0a4.63,4.63,0,0,1-1.68.08,6.58,6.58,0,0,1-2.5.14,2.88,2.88,0,0,1-.86.36,3.08,3.08,0,0,1-1.88-.2,5.85,5.85,0,0,1-1.83,0,1.87,1.87,0,0,1-1.14-.65,3.88,3.88,0,0,1-1.86-.07,1.24,1.24,0,0,1-1.51,0l-.1-.07a.73.73,0,0,1-1.07-.27s0-.09,0-.14a.6.6,0,0,1-.22-.32,2.23,2.23,0,0,1-.08-.45A.68.68,0,0,1,135.92,348.58Z" class="cls-85"/><path data-cppathid="10178" transform="translate(-109.36 -9.06)" d="M290.46,317s-.49-9.14-6.86-13-6.84-9.39-8-11.44-9.6,2.06-1.18,13.75.3,15.67.3,15.67l-5.72,4.57s6.14,3.78,11.15,3.08,11.82,11.53,18.14,14.64,24.67-10,24.61-10.83-14.56-4.74-14.56-4.74Z" class="cls-31"/><path data-cppathid="10179" transform="translate(-109.36 -9.06)" d="M292,315.52s-4.78,15.12-9.56,16.07c7.65,8.62,16.26,17.61,16.26,17.61l9-13.2-3.25-11.87Z" class="cls-86"/><path data-cppathid="10180" transform="translate(-109.36 -9.06)" d="M264,303.61c10.24,15.3,26.94,36.53,28.32,35.6s-11.83-24.47-22-39.79c-7.79-11.69-13.11-16.22-13.11-16.22L254,285.29S256.18,291.94,264,303.61Z" class="cls-87"/><path data-cppathid="10181" transform="translate(-109.36 -9.06)" d="M257,291.91a12.52,12.52,0,0,0,2.79-1.39,12,12,0,0,0,2.35-2,50.41,50.41,0,0,0-5-5.28L254,285.29A50.22,50.22,0,0,0,257,291.91Z" class="cls-88"/><path data-cppathid="10182" transform="translate(-109.36 -9.06)" d="M256.19,285.12c3.27-2.18,2.22-5.79-1.05-8.37-3-2.39-8.14-3.75-8.39-5.76C244.66,274.66,249.91,289.32,256.19,285.12Z" class="cls-89"/><path data-cppathid="10183" transform="translate(-109.36 -9.06)" d="M254.92,276.6c-3-2.29-7.92-3.65-8.17-5.61-1,1.76-.31,6,1.37,9.56.47-.62.9-1.33,1.79-1.28a4.25,4.25,0,0,0,2.24,0A7,7,0,0,0,254.92,276.6Z" class="cls-90"/><path data-cppathid="10184" transform="translate(-109.36 -9.06)" d="M276,309c1,2.73-2.1,4.61-1.43,4.45,2.87-.71,6.61,1.55,1.8,5.73,8.1-.56,1.3,5.25,1.3,5.25s-5.95,1.55-6.83,1.92c-2.47,1.05-5.28-3.05-3.66-4.21,0,0-2.92-2.64-1.55-5.73,0,0-2.25-1.26-1.36-4.6C264.76,309.81,275.14,306.66,276,309Z" class="cls-31"/><path data-cppathid="10185" transform="translate(-109.36 -9.06)" d="M330.29,217.75s3.89,8.77-7.82,12c0,0,2.52,10.11-10.16,9.82,0,0,.17,11.3-10.86,8.45,0,0-4,10.57-16.26,2.65,0,0-11.57.27-16-8.09,0,0-13.25-6-16.12,1,0,0,1.61-13.47,5.05-15.47,0,0,9.81,8,11.61,12,0,0,14-3.78,16.56,6.33,0,0,8-6.17,13.09-1.88,0,0,2.44-10.32,10.31-8.05,0,0-.17-9.95,7.41-9.85,0,0-2.93-9.3,3.12-12.36C320.21,214.36,334.32,208.92,330.29,217.75Z" class="cls-91"/><path data-cppathid="10186" transform="translate(-109.36 -9.06)" d="M453.22,477.24c.19,8.09-43.27,15.7-97.08,17s-97.59-4.19-97.78-12.28,43.27-15.7,97.07-17S453,469.16,453.22,477.24Z" class="cls-32"/><path data-cppathid="10187" transform="translate(-109.36 -9.06)" d="M287.62,420.65s21.95-8.45,38.18-8.45-6.47-54.45-6.47-54.45L298,357.08Z" class="cls-92"/><path data-cppathid="10188" transform="translate(-109.36 -9.06)" d="M289.72,257.37s17.62-77.15,59.42-76.69,56.74,42.88,50.74,82.86c-1.6,10.7-2.92,26.51-4,43.94-3,47.76-19.74,48-19.74,48l-68.57-1.06,3.18-45.64-2-12s-7.18-26.14-8.64-29.05,11.54,3,11.54,3Z" class="cls-31"/><path data-cppathid="10189" transform="translate(-109.36 -9.06)" d="M338.27,221.35c.08,3.46,1.71,6.23,3.63,6.18s3.42-2.89,3.33-6.35-1.71-6.24-3.63-6.19S338.19,217.89,338.27,221.35Z" class="cls-64"/><path data-cppathid="10190" transform="translate(-109.36 -9.06)" d="M323.46,218.84c.06,2.86,1.4,5.13,3,5.1s2.82-2.38,2.75-5.24-1.42-5.12-3-5.08S323.39,216,323.46,218.84Z" class="cls-64"/><path data-cppathid="10191" transform="translate(-109.36 -9.06)" d="M342.72,218.29a1.74,1.74,0,1,0,1.7-1.89A1.8,1.8,0,0,0,342.72,218.29Z" class="cls-14"/><path data-cppathid="10192" transform="translate(-109.36 -9.06)" d="M326.54,216.66a1.74,1.74,0,1,0,1.58-2A1.78,1.78,0,0,0,326.54,216.66Z" class="cls-14"/><path data-cppathid="10193" transform="translate(-109.36 -9.06)" d="M296.68,366.85s5.7,30.23,28.88,32.88c15.1,1.73,44.51-.71,48.68,4,5.85,6.62,24.86-28.59,24.86-28.59s-77.59-32.09-96-18.41" class="cls-93"/><path data-cppathid="10194" transform="translate(-109.36 -9.06)" d="M310,391.22l7,79.25s-9.34,3-13.08,9.49c14.68,3.15,34.32-5.78,34.32-5.78s2.31-73.76,3.92-82.25S310,391.22,310,391.22Z" class="cls-93"/><path data-cppathid="10195" transform="translate(-109.36 -9.06)" d="M349.77,388l5.35,86.54c-6.63,4.31-9,4.56-12.26,13,21.74,5.31,36.07-9.65,36.07-9.65s2.47-84.7,3.62-87.21-31-3.87-31-3.87" class="cls-93"/><path data-cppathid="10196" transform="translate(-109.36 -9.06)" d="M398.08,293.93c-90.71,20-90.39.9-90.39.9s-14.77,59.36-11.33,72.9c19.39-3.19,103.81,9.56,103.81,9.56S400.09,307.39,398.08,293.93Z" class="cls-94"/><path data-cppathid="10197" transform="translate(-109.36 -9.06)" d="M342.39,187.68s12.48,30,50.72,50.06c0,0-7.27,6.24,1.89,14.21,0,0-6.61,8.06,5,13.24,0,0-5,10.14,6.17,12.29,0,0,.12,6.78,14.62,4.91,0,0,10.33,5.21,17.94-.44,0,0,14.55.25,14.11,7.86,0,0,4.33-12.86,2.09-16.14,0,0-12.31,3-15.65,5.84,0,0-11.06-9.44-17.66-1.39,0,0-5.64-4.52-12.1-2.84,2.58-12,2.53-10.33-5.85-11.7,0,0,4.43-8.9-2.46-12.08,0,0,6.64-7.14,2.48-12.5,7.66-2.59,7.8-13.61-1.06-30.93-13.64-26.68-38.16-29.73-42.16-28.72s-28.59-17.83-45.92,20.54C323.91,204.21,342.39,187.68,342.39,187.68Z" class="cls-91"/><path data-cppathid="10198" transform="translate(-109.36 -9.06)" d="M382.8,170.27c-5.59-2.86-14.07-12.43-36.92-12.74-8.68-.11-20.46,1.38-27.59,6.77-7.75,5.88-10.74,18.11-1.54,24.16,17.17,11.28,41.16-.23,59.61,9.62,9.81,5.24,13.82,16.32,25.45,17.48,9.91,1,18.75-7.67,20-18,1.89-15.43-25.57-28-39-27.3" class="cls-64"/><polygon data-cppathid="10199" points="282.89 152.8 277.42 147.29 273.58 160.44 282.89 152.8" class="cls-64"/><path data-cppathid="10200" transform="translate(-109.36 -9.06)" d="M399.27,275.87c3.3,1.55.16,6.72-.16,9.5s4.12,7,2.6,9.83-53.8,16.74-78.83,13-18.47-11-18.12-13-3.73-7-2.2-9.05,9.59,4.21,19.1,4.28C359.66,290.68,395.27,274,399.27,275.87Z" class="cls-95"/><path data-cppathid="10201" transform="translate(-109.36 -9.06)" d="M341.65,298.63s-13.84,82.26-11.15,128.1c0,0,68.87,4.46,86-12.87,0,0-14.76-53.76-14.27-66s-.49-52.62-.49-52.62Z" class="cls-86"/><polygon data-cppathid="10202" points="294.41 273.03 298.8 290.73 241.41 307.16 232.28 289.57 294.41 273.03" class="cls-86"/><path data-cppathid="10203" transform="translate(-109.36 -9.06)" d="M312.28,298.16s-15,98.91-11.55,127.71L284,423.11S296.79,312,301.35,304.36,312.28,298.16,312.28,298.16Z" class="cls-86"/><polygon data-cppathid="10204" points="205.36 289.04 196.25 305.09 183.33 294.71 191.37 283.44 205.36 289.04" class="cls-86"/><path data-cppathid="10205" transform="translate(-109.36 -9.06)" d="M331,394.42a24.72,24.72,0,0,1-5-5.91c-1.83-3.26,10.06-10.76,10.2-4.91S331,394.42,331,394.42Z" class="cls-94"/><path data-cppathid="10206" transform="translate(-109.36 -9.06)" d="M375,315.67C374,319,365.67,348,365.45,355s-25.34,14.63-36.23,23.27c0,0-9.84-4.24-13.89-2.78s-4.52-1.64-6.86-1.58-4.53,5.76,2.11,6.76a20.61,20.61,0,0,1-11.2,3.78c-7,.36-3.2,4.16-.67,4.29,0,0-1.1,2.76,4,3a9.62,9.62,0,0,0,7.81,1s13.06.85,20-2.05c3.43-1.43,47.07-10.1,50-16.21s13.89-45.3,12-51.88S378.25,304.69,375,315.67Z" class="cls-31"/><path data-cppathid="10207" transform="translate(-109.36 -9.06)" d="M383.34,308.07s13.43,2.82,11.76,16.23-8.73,51.11-12.44,54.14-52.41,17-52.41,17,6.64-13.91-1.65-18.62c9-7.1,30.68-17.25,33.43-18.9S369.7,304.28,383.34,308.07Z" class="cls-86"/><path data-cppathid="10208" transform="translate(-109.36 -9.06)" d="M304.8,380.72c-1.42-.94-.71-2.36,1.58-3.17s5.31-.72,6.73.23.71,2.36-1.59,3.18-5.3.7-6.72-.24M340.1,376c-2.38-1.57-7.18-2.31-11.74-.89-5,1.55-10.58,1.81-12.53.51-1.12-.74-1.05-2,1-3.82a.93.93,0,0,0,.42-.85c0-.2,0-1.64,0-1.64a62.75,62.75,0,0,0-19.57,2.82c-9.18,3.1-30.6,9.32-34.63,16.64-.57,1-.09,2.07.08,3.15.24,1.49,1.27,3,3.3,4.55l.62.44c14.56,9.67,58.46-4,73.39-16.59A2.65,2.65,0,0,0,341.6,378c-.1-.73,0-.57-.1-1.7" class="cls-87"/><g class="cls-2"><g class="cls-96"><path data-cppathid="10209" transform="translate(-109.36 -9.06)" d="M332.57,392.15a3.14,3.14,0,0,1-.61.3c-.9.35-2,.64-3,.93a6.34,6.34,0,0,1-3.07.2c-2.54-.64-1.44-2.39-.65-3.28a.17.17,0,0,1,.08-.12l.07-.05a4.53,4.53,0,0,1,4.85-.35c1.59.7,3.48,1.58,2.37,2.37M309.64,392c-.42-.41-.6-.8-.14-1.13a2.47,2.47,0,0,1,.43-.21l.07-.05a2.53,2.53,0,0,1,2.12-.36,6.62,6.62,0,0,1,2.49,1.43c1.2.83,3.55.51,4.68,1.3.78.55,1.22,1.21.49,1.72a1.58,1.58,0,0,1-.29.17,10.61,10.61,0,0,1-4.4.65,9.45,9.45,0,0,1-2-.35c-1.1-.27-2.21-.34-3.35-.52-1.41-.22-2.32-.83-2.33-1.47a.73.73,0,0,1,.38-.58,4.62,4.62,0,0,1,1.89-.6m6.94-11c-.06,0-.05-.07.07-.15l.26-.15c.69-.36,3-1.49,4.07-.58a2.53,2.53,0,0,0,2.49,1,2.32,2.32,0,0,1,2.47,1.27c.15,0,.24.09.2.17a1.28,1.28,0,0,1-.14.21.35.35,0,0,1-.11.09,2.61,2.61,0,0,1-.69.33.85.85,0,0,1-.42.54,5.37,5.37,0,0,1-4.17.53c-.83-.3-1.09-1.6-2.25-1.34a4.73,4.73,0,0,1-2.66,0c-1-.33-.4-1,.32-1.48a5.23,5.23,0,0,1,.56-.36M302.7,391.69a4.52,4.52,0,0,1-.5.27,8.2,8.2,0,0,1-5-.16c-1.47-.44-2.61-.13-3.94-.17a5.34,5.34,0,0,1-2.33-.71c-1.77-.89-2.73-2.23-1.68-3a4.72,4.72,0,0,1,2.57-.53h0l.05-.06a4.76,4.76,0,0,1,3.56-.35c2,.63.8,2.32,3.48,2.3,1.15,0,2.92-.06,3.68.6s.79,1.3.11,1.78m-16.64-4.39,0,0a2.51,2.51,0,0,1-1.4.3,2.72,2.72,0,0,1-1.46-.48,1.67,1.67,0,0,0-.33,0,1,1,0,0,1-.86-.2.5.5,0,0,1,.12-.75,2.1,2.1,0,0,1,1.21-.25,5.16,5.16,0,0,1,.79.09,1.84,1.84,0,0,1,.34,0c1.28.15,2.39.72,1.62,1.26m25.72-8.3a2.71,2.71,0,0,1-3.11.11c-1.63-.85-3.12-.17-4.71.07s-3.48-.32-4-1.08.74-1.25-1.13-2a2.2,2.2,0,0,1-1.42-1.19c-.14-.29,0-.54.3-.75a7.87,7.87,0,0,1,3.32-.82.88.88,0,0,1,.66.19c3.95-1.63,6.19.9,9.88,1.82,2,.5,1.8,1.64,1.35,2.4a4.28,4.28,0,0,1-1.14,1.26M292,382.63c-1.36,1-4.3,1.15-6.61.43s-3.16-2.13-1.82-3.12l.06-.05c1.37-.95,4.29-1.15,6.6-.43s3.16,2.13,1.83,3.13l-.06,0M271.05,368.3c-2.38,1.67-2.23,4.18,2.14,5.74,4.74,1.71,7.13,4.15,5.18,5.51-1.09.77-3.52,1.19-7.66.95A4.31,4.31,0,0,0,268,381c-1.9,1.33.41,4.94,9.82,8,12.16,4,42,15.23,57.57,5l.35-.24c14.59-10.22-27.15-25.11-56.65-27.17a13,13,0,0,0-8.07,1.66" class="cls-97"/><path data-cppathid="10210" transform="translate(-109.36 -9.06)" d="M297.71,374.15c-.3.21-.44.46-.3.75a2.2,2.2,0,0,0,1.42,1.19c1.87.76.61,1.26,1.13,2s2.32,1.33,4,1.08,3.08-.92,4.71-.07a2.71,2.71,0,0,0,3.11-.11,4.28,4.28,0,0,0,1.14-1.26c.45-.76.63-1.9-1.35-2.4-3.69-.92-5.93-3.45-9.88-1.82a.88.88,0,0,0-.66-.19,7.87,7.87,0,0,0-3.32.82" class="cls-90"/><path data-cppathid="10211" transform="translate(-109.36 -9.06)" d="M289.23,388c-1.05.74-.09,2.08,1.68,3a5.34,5.34,0,0,0,2.33.71c1.33,0,2.47-.27,3.94.17a8.2,8.2,0,0,0,5,.16,4.52,4.52,0,0,0,.5-.27c.68-.48.64-1.11-.11-1.78s-2.53-.61-3.68-.6c-2.68,0-1.44-1.67-3.48-2.3a4.76,4.76,0,0,0-3.56.35l-.05.06h0a4.72,4.72,0,0,0-2.57.53" class="cls-98"/><path data-cppathid="10212" transform="translate(-109.36 -9.06)" d="M282.1,386.21a.5.5,0,0,0-.12.75,1,1,0,0,0,.86.2,1.67,1.67,0,0,1,.33,0,2.72,2.72,0,0,0,1.46.48,2.51,2.51,0,0,0,1.4-.3l0,0c.77-.54-.34-1.11-1.62-1.26a1.84,1.84,0,0,0-.34,0,5.16,5.16,0,0,0-.79-.09,2.1,2.1,0,0,0-1.21.25" class="cls-98"/><path data-cppathid="10213" transform="translate(-109.36 -9.06)" d="M309.5,390.9c-.46.33-.28.72.14,1.13a4.62,4.62,0,0,0-1.89.6.73.73,0,0,0-.38.58c0,.64.92,1.25,2.33,1.47,1.14.18,2.25.25,3.35.52a9.45,9.45,0,0,0,2,.35,10.61,10.61,0,0,0,4.4-.65,1.58,1.58,0,0,0,.29-.17c.73-.51.29-1.17-.49-1.72-1.13-.79-3.48-.47-4.68-1.3a6.62,6.62,0,0,0-2.49-1.43,2.53,2.53,0,0,0-2.12.36l-.07.05a2.47,2.47,0,0,0-.43.21" class="cls-99"/><path data-cppathid="10214" transform="translate(-109.36 -9.06)" d="M325.35,390.13l-.07.05a.17.17,0,0,0-.08.12c-.79.89-1.89,2.64.65,3.28a6.34,6.34,0,0,0,3.07-.2c1-.29,2.14-.58,3-.93a3.14,3.14,0,0,0,.61-.3c1.11-.79-.78-1.67-2.37-2.37a4.53,4.53,0,0,0-4.85.35" class="cls-100"/><path data-cppathid="10215" transform="translate(-109.36 -9.06)" d="M316.65,380.87c-.12.08-.13.13-.07.15a5.23,5.23,0,0,0-.56.36c-.72.5-1.34,1.15-.32,1.48a4.73,4.73,0,0,0,2.66,0c1.16-.26,1.42,1,2.25,1.34a5.37,5.37,0,0,0,4.17-.53.85.85,0,0,0,.42-.54,2.61,2.61,0,0,0,.69-.33.35.35,0,0,0,.11-.09,1.28,1.28,0,0,0,.14-.21c0-.08-.05-.15-.2-.17a2.32,2.32,0,0,0-2.47-1.27,2.53,2.53,0,0,1-2.49-1c-1.06-.91-3.38.22-4.07.58l-.26.15" class="cls-69"/></g></g><path data-cppathid="10216" transform="translate(-109.36 -9.06)" d="M310.42,376.51c-.92-1.31-2.88-8.68-5.38-7.59s-4.23,8.86-.48,10.7S310.9,378,310.9,378Z" class="cls-31"/><path data-cppathid="10217" transform="translate(-109.36 -9.06)" d="M334.21,349.75c.1.52.83.84,1.3.83,2.86,0,5.3-.86,7-3.28a3.41,3.41,0,0,0,.26-2.79c-.63-1.43,3.35-2.56,4.25-3s5.61-2.41,5-4.26c-.54-1.64-2.26-2.26-3.9-2.67,1.48-2,3.22-3.37,2.7-6.06a2.28,2.28,0,0,0-1-1.24c-1.64-.95-2.17-2.33-3.12-3.81-2.08-3.28-4.74-3.43-8-1.74-.57-.51-1.91-.64-2.06.08-1.13,5.16-1.06,10.35-1.86,15.53C334.2,341.59,333.41,345.48,334.21,349.75Z" class="cls-90"/><path data-cppathid="10218" transform="translate(-109.36 -9.06)" d="M388.84,392.42c2.82,5.57,12.09.23,13.59,7,1.56,7,5.26,4.12,10.68,4.31.55,0,1.41-.16,1.27-.91-2.35-12.45-8.16-24-9.38-36.65a.66.66,0,0,0-.17-.38c.37-.75-1.08-1.54-1.86-1-3,2-5.81,2.92-7.19,6.45s2.85,5.79-.82,9.38C392.08,383.42,386.39,387.6,388.84,392.42Z" class="cls-90"/><path data-cppathid="10219" transform="translate(-109.36 -9.06)" d="M377.19,400.2c.41,2.21,3.6,2.94,5.31,1.74a7.69,7.69,0,0,0,3.06-4.95c.18-2.62-3.17-2.46-4.88-1.88C378.61,395.7,376.76,397.94,377.19,400.2Z" class="cls-90"/><path data-cppathid="10220" transform="translate(-109.36 -9.06)" d="M363.4,355c2.08.41,6.17,2,7-1.16s-.73-5.84,1.35-8.6a13.09,13.09,0,0,0,1.82-3.27c1.7-4.47,4.1-13.49-3.35-13.17-.57-.48-1.81-.59-2.05.12-2.65,8.17-3.89,16.7-5.72,25.07C362.31,354.55,363,354.94,363.4,355Z" class="cls-90"/><path data-cppathid="10221" transform="translate(-109.36 -9.06)" d="M298.38,345.26c.37,0,.85-.37.76-.8a7.69,7.69,0,0,1,0-2.95,2.33,2.33,0,0,0,2.07-.85,5.08,5.08,0,0,0,.27-3.54,12.13,12.13,0,0,0,1.52-2.31c1.09-2.24.64-4.42-.19-6.65-.23-1.77-1.22-3.37-3.6-4.66a1.1,1.1,0,0,0-1.5.29c-.56,0-1.05.21-.95.79.4,2.22-1,9.6-1.8,15.55C294.5,343.22,295.79,345.5,298.38,345.26Zm.65-17.21a17.35,17.35,0,0,1-.21,2.78l-.16-.05q.09-.79.15-1.53C298.9,328.85,299,328.45,299,328.05Z" class="cls-90"/><path data-cppathid="10222" transform="translate(-109.36 -9.06)" d="M315.54,166.36a18.73,18.73,0,0,1,2.54-2.33c7.37-5.59,18.91-6.68,25.13-6.83.92,0,1.81,0,2.67,0a64.09,64.09,0,0,1,16.89,2.3l-.37.39c.69-.17,2.28.44,1.92.89-1.35,1.71-2.54,3.2-4.59,4-3.2,1.29-6-1.31-9.53.54-.85.45-1.66.89-2.46,1.25-.08.12-.17.23-.25.36-2.09.92-4.27,2.05-6.42,2.05a19.09,19.09,0,0,1-2.73-.23c0,.2-.3.33-.87.23-3.47-.57-7.37-2.32-10.88-1.42a41.59,41.59,0,0,1-5.4,1.18c-1.41.18-5.26.13-4.05-2l-.45-.4Z" class="cls-90"/><path data-cppathid="10223" transform="translate(-109.36 -9.06)" d="M326.12,171.76c.44.08,1.13.56,1,1.1-.07.21-.16.41-.24.61a7.91,7.91,0,0,0,.48.7.69.69,0,0,1-.27,1.15c-1.39.44-2.57,1.63-3.85,2.31s-3.27,1.18-4.05-.38C317.3,173.57,323.45,171.31,326.12,171.76Z" class="cls-90"/></g></g></g></g></svg>