<?xml version="1.0" encoding="UTF-8"?>
<svg xmlns="http://www.w3.org/2000/svg" onmouseup="{ if(window.parent.document.onmouseup) window.parent.document.onmouseup(arguments[0]);}" viewBox="0 0 423.75 421.11" xmlns:xlink="http://www.w3.org/1999/xlink"><defs><style>.cls-1{fill:#606060;}.cls-2{stroke:#545454;stroke-linecap:round;stroke-linejoin:round;stroke-width:3px;fill:url(#linear-gradient);}.cls-3{fill:#231f20;}.cls-4{fill:#fff;}.cls-5,.cls-6,.cls-7,.cls-9{fill:#fff100;}.cls-10,.cls-6{opacity:0.5;}.cls-11,.cls-7{opacity:0.25;}.cls-8{fill:#603813;}.cls-12,.cls-9{opacity:0.12;}</style><linearGradient gradientUnits="userSpaceOnUse" y2="74.65" x2="80.75" y1="407.69" x1="80.75" id="linear-gradient"><stop stop-color="#5ed000" offset="0"/><stop stop-color="#ff0f00" offset="1"/></linearGradient></defs><g data-name="Layer 2" id="Layer_2"><g data-name="Backlog Refinement" id="Backlog_Refinement"><g data-name="jp copy" id="jp_copy"><path data-cppathid="10000" transform="translate(-0.77 -1.2)" d="M2.84,24.39a7.74,7.74,0,0,0-2.07-2c1.45-1.82,2.51-3.21,3.17-4.15a23.49,23.49,0,0,0,2.51-4.6,50.07,50.07,0,0,0,2.3-7.22l2.95,1A58.41,58.41,0,0,1,7.77,17.5,32.3,32.3,0,0,1,2.84,24.39ZM15.31,7.11l2.3-1.31a84,84,0,0,1,4.92,8.31,34.26,34.26,0,0,1,2,4.27l1.31,3.93L23,23.52c-.59-2.26-1.13-4.09-1.64-5.47a33.6,33.6,0,0,0-2-3.94c-.22-.44-.77-1.44-1.64-3S16,8.2,15.31,7.11Zm8.53.55L22.53,9,19.47,6,20.78,4.7A13,13,0,0,1,22.37,6,11,11,0,0,1,23.84,7.66ZM22,3.72,23.3,2.3A31.3,31.3,0,0,1,26.36,5L25.05,6.45A32,32,0,0,0,22,3.72Z" class="cls-1"/><path data-cppathid="10001" transform="translate(-0.77 -1.2)" d="M28.33,11.7l2.08-1.09c.36.73.78,1.51,1.25,2.35s1,1.77,1.48,2.79L31,16.84A37.36,37.36,0,0,0,28.33,11.7Zm4.05,15.64a6.34,6.34,0,0,0-1.32-2.18,24.38,24.38,0,0,0,6.13-2.85A14.23,14.23,0,0,0,41,18.16a36.18,36.18,0,0,0,3.06-8.32l2.51.88a47.84,47.84,0,0,1-3.06,7.87,16.48,16.48,0,0,1-3.72,4.6A20.45,20.45,0,0,1,32.38,27.34Zm1.53-17.28,2.18-1q1.53,3.28,2.3,5.25l-2.08,1A45.17,45.17,0,0,0,33.91,10.06Z" class="cls-1"/><path data-cppathid="10002" transform="translate(-0.77 -1.2)" d="M61,3.5,59.17,7h8.21l.43-.22,1.75,1.86c-1.68,3.87-2.73,6.16-3.17,6.89a17.54,17.54,0,0,1-3.06,4,20.64,20.64,0,0,1-4.6,3.61,35.53,35.53,0,0,1-6.56,2.73,7,7,0,0,0-1.64-2.51,40.18,40.18,0,0,0,5.8-2.08,15.36,15.36,0,0,0,4.26-2.95,21.46,21.46,0,0,0,3.18-3.94A45.57,45.57,0,0,0,66.06,9.3H58a34.68,34.68,0,0,1-3.17,4.26,26,26,0,0,1-3.72,3.61c-.37-.44-.62-.73-.77-.87a5.13,5.13,0,0,0-1.31-1,23.08,23.08,0,0,0,3-2.62c.59-.66,1.39-1.64,2.41-3a32.16,32.16,0,0,0,2.19-3.82,29.59,29.59,0,0,0,1.53-3.5Z" class="cls-1"/><path data-cppathid="10003" transform="translate(-0.77 -1.2)" d="M73.17,24.28V5.36h18.6v18.7h-3V22.31H76.12v2ZM88.81,19.8V7.88H76.12V19.8Z" class="cls-1"/><path data-cppathid="10004" transform="translate(-0.77 -1.2)" d="M105.66,7.22h8.09l.44-.11,1.75,1.64A44.17,44.17,0,0,1,112.66,16a22.15,22.15,0,0,1-3.39,4.37,24.31,24.31,0,0,1-4.71,3.39,22.38,22.38,0,0,1-6,2.52,7.43,7.43,0,0,1-.44-1.09l-1.2-1.43a31.55,31.55,0,0,0,5.68-2,15.44,15.44,0,0,0,4.27-3A18.79,18.79,0,0,0,110.14,15q1.2-2.4,2.41-5.46h-8.1a37.07,37.07,0,0,1-6.78,8c-.44-.58-.76-.91-1-1-.66-.44-1.13-.73-1.42-.88a28.49,28.49,0,0,0,5.14-5.14,44.25,44.25,0,0,0,4-7.66l2.85,1.1c-.08.14-.15.27-.22.38a5.89,5.89,0,0,0-.33.6c-.15.29-.29.6-.44.93S106,6.64,105.66,7.22ZM113.42,5l1.31-1.31c1.54,1.31,2.56,2.22,3.07,2.73l-1.32,1.32C116,7.26,115,6.34,113.42,5Zm7-1.09-1.53,1.42c-1.6-1.6-2.59-2.55-3-2.84l1.2-1.32Q119.66,3.18,120.42,3.94Z" class="cls-1"/><path data-cppathid="10005" transform="translate(-0.77 -1.2)" d="M123.05,17.72V3.94h3V17.72Zm3.61,8.86A12,12,0,0,0,125.23,24a22.71,22.71,0,0,0,4.49-1.53,6.91,6.91,0,0,0,2.62-2A6.21,6.21,0,0,0,134,17.83a28,28,0,0,0,.55-6.13v-9h2.85v9.74c0,3.94-.7,6.93-2.08,9S131,25.27,126.66,26.58Z" class="cls-1"/><path data-cppathid="10006" transform="translate(-0.77 -1.2)" d="M141.42,5h18.16l.33-.11,1.86,1.64q-1.86,4.92-2.63,6.78a24,24,0,0,1-3.06,4.71,25.17,25.17,0,0,1-4.6,4.15,29.4,29.4,0,0,1-7.32,3.5,7.86,7.86,0,0,0-.44-1.42A8.93,8.93,0,0,0,143,23a25.06,25.06,0,0,0,5.91-2.52,21,21,0,0,0,5.58-4.7,30.25,30.25,0,0,0,3.94-8.09h-17Z" class="cls-1"/><path data-cppathid="10007" transform="translate(-0.77 -1.2)" d="M164.39,11.48V9.19h15.86l1.53,1.86L178,14.66c-.73.65-1.82,1.53-3.28,2.62l-.76-1a22,22,0,0,1-.77,5A10.22,10.22,0,0,1,171,24.5,13,13,0,0,1,166.47,27a6.11,6.11,0,0,0-.27-.66,4.66,4.66,0,0,1-.28-.66,9.77,9.77,0,0,1-.87-1,11.92,11.92,0,0,0,3.5-1.42,6,6,0,0,0,1.53-1.42A5.63,5.63,0,0,0,171,19.8a11.35,11.35,0,0,0,.33-3V14.11h2.63V15.2c.21-.22,1.56-1.45,4-3.72Z" class="cls-1"/><path data-cppathid="10008" transform="translate(-0.77 -1.2)" d="M200.59,8.64l-2.29,2.08V26.25h-3V13a42.41,42.41,0,0,1-5.14,3.5q-3.27,1.86-5,2.62a9,9,0,0,0-1.42-2.62,41,41,0,0,0,6.89-3.61,40.18,40.18,0,0,0,5.91-4.49,52.42,52.42,0,0,0,5.79-6.12l2.41,2.08Z" class="cls-1"/><path data-cppathid="10009" transform="translate(-0.77 -1.2)" d="M227.5,8.31a5.66,5.66,0,0,0,.88,1.1,4.22,4.22,0,0,0,1.2,1A60.77,60.77,0,0,1,224,16.52a51.93,51.93,0,0,1-6.23,4.81,77.19,77.19,0,0,1-8.54,4.48l-1.53-3.06a31.65,31.65,0,0,0,5.47-2.19,46.7,46.7,0,0,0,5.36-3.17,39.49,39.49,0,0,0,4.59-3.94A40.34,40.34,0,0,0,227.5,8.31Zm-11.38.11-2,2.3q-2.41-2.19-3.28-2.84a7.06,7.06,0,0,0-.77-.61l-1.2-.82c-.44-.29-.81-.54-1.1-.76l1.75-2.19a24.52,24.52,0,0,1,2.14,1.31c.61.44,1,.73,1.25.88A39.89,39.89,0,0,1,216.12,8.42Z" class="cls-1"/><path data-cppathid="10010" transform="translate(-0.77 -1.2)" d="M246.31,12.91a68.3,68.3,0,0,1,5.91,4.37L250,19.69c-.22-.22-1.2-1.13-2.95-2.74L245,15.31a32,32,0,0,1-3.28,4.16,18.21,18.21,0,0,1-3.28,3q-1,.76-5,3.17a13.67,13.67,0,0,0-1.86-2.4A29.94,29.94,0,0,0,236,20.78a21.24,21.24,0,0,0,3.5-2.84,23.46,23.46,0,0,0,3.17-4.16,51.1,51.1,0,0,0-6.78-3.17l1.31-2.3q2.09,1,6.79,3.17A36.37,36.37,0,0,0,245.55,8q.87-2.29,1.64-4.92l2.95,1A76.82,76.82,0,0,1,246.31,12.91Z" class="cls-1"/><path data-cppathid="10011" transform="translate(-0.77 -1.2)" d="M274.75,8.31a6,6,0,0,0,.87,1.1,4.45,4.45,0,0,0,1.21,1,60.77,60.77,0,0,1-5.58,6.13A51.93,51.93,0,0,1,265,21.33a77.19,77.19,0,0,1-8.54,4.48L255,22.75a31.65,31.65,0,0,0,5.47-2.19,46.7,46.7,0,0,0,5.36-3.17,40.46,40.46,0,0,0,4.6-3.94A41.08,41.08,0,0,0,274.75,8.31Zm-11.37.11-2,2.3c-1.61-1.46-2.7-2.41-3.29-2.84a5.9,5.9,0,0,0-.76-.61l-1.2-.82c-.44-.29-.81-.54-1.1-.76l1.75-2.19A24.52,24.52,0,0,1,259,4.81c.61.44,1,.73,1.25.88C261.66,6.85,262.72,7.77,263.38,8.42Z" class="cls-1"/><path data-cppathid="10012" transform="translate(-0.77 -1.2)" d="M280,26.47V2.19h3.06V10q4.92,1.75,6.35,2.41c.8.37,2.66,1.31,5.57,2.84l-1.64,2.74a56.29,56.29,0,0,0-5.25-3.06,38.93,38.93,0,0,0-5-2V26.47Z" class="cls-1"/><g data-name="priority arrows" id="priority_arrows"><polygon data-cppathid="10013" points="122.75 117.17 142.27 117.17 80.75 74.65 19.23 117.17 38.75 117.17 38.75 365.17 19.23 365.17 80.75 407.69 142.27 365.17 122.75 365.17 122.75 117.17" class="cls-2"/><path data-cppathid="10014" transform="translate(-0.77 -1.2)" d="M49.51,109.25a20.5,20.5,0,0,1-1.89,2.88A9.16,9.16,0,0,0,47,111a24.7,24.7,0,0,0,4-8.12l1.42.45c0,.12-.18.19-.41.19a36.65,36.65,0,0,1-1.39,3.57l.42.13c0,.12-.13.19-.35.23v12.06H49.51Zm12.16,5.38.84.43a.45.45,0,0,1-.19.16,8.07,8.07,0,0,1-3,2.33,23.47,23.47,0,0,0,5,1,4.09,4.09,0,0,0-.68,1A20.93,20.93,0,0,1,58,118.12a24.63,24.63,0,0,1-5.78,1.35,4.26,4.26,0,0,0-.61-.91,27.67,27.67,0,0,0,5.15-1,8.83,8.83,0,0,1-2-1.55,18.14,18.14,0,0,1-2.25,1.12,3.08,3.08,0,0,0-.72-.76,12.75,12.75,0,0,0,4.41-2.57c-.54-.13-.7-.44-.7-1.08V111.5l1.35.09c0,.1-.11.2-.34.21v.89c0,.32.1.39.75.39h2.33c.45,0,.54-.09.61-.85a3.46,3.46,0,0,0,.84.29c-.09,1-.39,1.32-1.29,1.32h-2a.75.75,0,0,1-.31.11c-.23.23-.5.48-.79.72h4.84Zm-7.85-9.11H57a10.11,10.11,0,0,0,.27-1H52.45v-1H63.94v1H58.52c-.09.29-.22.65-.35,1h4.22v4.61h1.74v2.45H63V111H58.1a7.55,7.55,0,0,1,1.3,1l-.74.56a8,8,0,0,0-1.93-1.44l.18-.12H53.06v1.62H52v-2.45h1.84ZM55.17,112a7,7,0,0,1-2,2.07l-.77-.65a5.45,5.45,0,0,0,1.94-1.87Zm6.08-4.91v-.83H54.93v.83Zm0,1.53v-.85H54.93v.85Zm-6.32,1.51h6.32v-.85H54.93Zm.69,5.36A7.52,7.52,0,0,0,58.05,117a8.55,8.55,0,0,0,2.56-1.55Zm7.29-1.38A10.7,10.7,0,0,0,60.79,112l.81-.47a10.6,10.6,0,0,1,2.16,2.11Z" class="cls-3"/><path data-cppathid="10015" transform="translate(-0.77 -1.2)" d="M72.25,112.22c0,.12-.14.21-.38.23-.47,3.17-1.35,5.67-5.56,7a4.07,4.07,0,0,0-.74-1c3.92-1.12,4.79-3.35,5.1-6.39Zm4.5,5.15c0,.54.13.63.85.63h2.45c.7,0,.82-.38.9-2.79a3.4,3.4,0,0,0,1.11.5c-.14,2.75-.48,3.44-1.91,3.44H77.47c-1.55,0-1.94-.38-1.94-1.8v-5.53H65.79v-1.19h7.38v-3.81H69.26a13.64,13.64,0,0,1-1.64,2.84,8.12,8.12,0,0,0-1-.58,15.81,15.81,0,0,0,2.64-5.9l1.53.36c0,.12-.16.18-.39.18-.16.57-.36,1.24-.63,1.93h3.44v-2.92l1.58.09c0,.14-.12.23-.36.25v2.58H80.5v1.17H74.39v3.81h7.4v1.19h-5Z" class="cls-3"/><path data-cppathid="10016" transform="translate(-0.77 -1.2)" d="M85.39,110.63c0,3.35-.15,6.29-1.39,8.77a5.23,5.23,0,0,0-.83-.72c1.07-2.3,1.19-5,1.19-8.05v-7.25l1.37.09c0,.1-.11.19-.34.23Zm1.46,6.2V104.67l1.24.09c0,.11-.09.18-.31.22v11.85Zm2.5-13.51,1.37.09c0,.11-.11.2-.34.24v15.18h-1ZM95,117.11a.52.52,0,0,1-.34.13,11.49,11.49,0,0,1-3.37,2.23,5.78,5.78,0,0,0-.77-.81,10.93,10.93,0,0,0,3.33-2.18Zm-3-10.55h2.61c.15-.57.31-1.27.42-1.87H91.26v-1.08h8.91v1.08H96.26c-.12.54-.32,1.24-.52,1.87h3.82V116H92Zm6.38,2.85v-1.89H93.13v1.89Zm0,2.81v-1.89H93.13v1.89Zm0,2.86v-1.93H93.13v1.93Zm1.1,4.43a19.76,19.76,0,0,0-3-2.38l.9-.61a18.35,18.35,0,0,1,3.06,2.31Z" class="cls-3"/><path data-cppathid="10017" transform="translate(-0.77 -1.2)" d="M103.86,109.08a20.91,20.91,0,0,1-2.2,3A8.46,8.46,0,0,0,101,111a23.94,23.94,0,0,0,4.5-8.11l1.44.49c-.07.13-.2.18-.41.16a33.4,33.4,0,0,1-1.66,3.73l.49.13c0,.1-.13.19-.36.21v11.94h-1.17Zm2.28,8.34h12.08v1.17H106.14Zm.45-11h4.85v-3.61l1.56.09c0,.15-.1.22-.36.26v3.26h5.12v1.17H106.59Zm2.51,2.39a45.9,45.9,0,0,1,1.53,7.42l-1.21.25A46.12,46.12,0,0,0,108,109Zm7.56.31a.42.42,0,0,1-.42.21,59.66,59.66,0,0,1-2,7.26l-1-.34a53,53,0,0,0,1.93-7.55Z" class="cls-3"/><path data-cppathid="10018" transform="translate(-0.77 -1.2)" d="M83.3,121.49h7.44v1.08H74.82v-1.08h7.26v-1.78l1.58.11c0,.12-.11.21-.36.25Zm6.68,7.1v6.35c0,.71-.16,1.08-.72,1.28a11.64,11.64,0,0,1-3.11.2,5.25,5.25,0,0,0-.4-1.15l1.89,0c1,0,1.14,0,1.14-.38v-5.27H76.87v6.81H75.69v-7.87ZM77.9,123.65h9.8v3.73H77.9Zm8.57,2.81v-1.89h-7.4v1.89Zm-.2,8.27H80.4v1H79.31v-4.79h7Zm-1.1-2.92H80.4v2h4.77Z" class="cls-3"/><path data-cppathid="10019" transform="translate(-0.77 -1.2)" d="M48.51,108.25a20.5,20.5,0,0,1-1.89,2.88A9.16,9.16,0,0,0,46,110a24.7,24.7,0,0,0,4-8.12l1.42.45c0,.12-.18.19-.41.19a36.65,36.65,0,0,1-1.39,3.57l.42.13c0,.12-.13.19-.35.23v12.06H48.51Zm12.16,5.38.84.43a.45.45,0,0,1-.19.16,8.07,8.07,0,0,1-3,2.33,23.47,23.47,0,0,0,5,1,4.09,4.09,0,0,0-.68,1A20.93,20.93,0,0,1,57,117.12a24.63,24.63,0,0,1-5.78,1.35,4.26,4.26,0,0,0-.61-.91,27.67,27.67,0,0,0,5.15-1,8.83,8.83,0,0,1-2-1.55,18.14,18.14,0,0,1-2.25,1.12,3.08,3.08,0,0,0-.72-.76,12.75,12.75,0,0,0,4.41-2.57c-.54-.13-.7-.44-.7-1.08V110.5l1.35.09c0,.1-.11.2-.34.21v.89c0,.32.1.39.75.39h2.33c.45,0,.54-.09.61-.85a3.46,3.46,0,0,0,.84.29c-.09,1-.39,1.32-1.29,1.32h-2a.75.75,0,0,1-.31.11c-.23.23-.5.48-.79.72h4.84Zm-7.85-9.11H56a10.11,10.11,0,0,0,.27-1H51.45v-1H62.94v1H57.52c-.09.29-.22.65-.35,1h4.22v4.61h1.74v2.45H62V110H57.1a7.55,7.55,0,0,1,1.3,1l-.74.56a8,8,0,0,0-1.93-1.44l.18-.12H52.06v1.62H51v-2.45h1.84ZM54.17,111a7,7,0,0,1-2,2.07l-.77-.65a5.45,5.45,0,0,0,1.94-1.87Zm6.08-4.91v-.83H53.93v.83Zm0,1.53v-.85H53.93v.85Zm-6.32,1.51h6.32v-.85H53.93Zm.69,5.36A7.52,7.52,0,0,0,57.05,116a8.55,8.55,0,0,0,2.56-1.55Zm7.29-1.38A10.7,10.7,0,0,0,59.79,111l.81-.47a10.6,10.6,0,0,1,2.16,2.11Z" class="cls-4"/><path data-cppathid="10020" transform="translate(-0.77 -1.2)" d="M71.25,111.22c0,.12-.14.21-.38.23-.47,3.17-1.35,5.67-5.56,7a4.07,4.07,0,0,0-.74-1c3.92-1.12,4.79-3.35,5.1-6.39Zm4.5,5.15c0,.54.13.63.85.63h2.45c.7,0,.82-.38.9-2.79a3.4,3.4,0,0,0,1.11.5c-.14,2.75-.48,3.44-1.91,3.44H76.47c-1.55,0-1.94-.38-1.94-1.8v-5.53H64.79v-1.19h7.38v-3.81H68.26a13.64,13.64,0,0,1-1.64,2.84,8.12,8.12,0,0,0-1-.58,15.81,15.81,0,0,0,2.64-5.9l1.53.36c0,.12-.16.18-.39.18-.16.57-.36,1.24-.63,1.93h3.44v-2.92l1.58.09c0,.14-.12.23-.36.25v2.58H79.5v1.17H73.39v3.81h7.4v1.19h-5Z" class="cls-4"/><path data-cppathid="10021" transform="translate(-0.77 -1.2)" d="M84.39,109.63c0,3.35-.15,6.29-1.39,8.77a5.23,5.23,0,0,0-.83-.72c1.07-2.3,1.19-5,1.19-8.05v-7.25l1.37.09c0,.1-.11.19-.34.23Zm1.46,6.2V103.67l1.24.09c0,.11-.09.18-.31.22v11.85Zm2.5-13.51,1.37.09c0,.11-.11.2-.34.24v15.18h-1ZM94,116.11a.52.52,0,0,1-.34.13,11.49,11.49,0,0,1-3.37,2.23,5.78,5.78,0,0,0-.77-.81,10.93,10.93,0,0,0,3.33-2.18Zm-3-10.55h2.61c.15-.57.31-1.27.42-1.87H90.26v-1.08h8.91v1.08H95.26c-.12.54-.32,1.24-.52,1.87h3.82V115H91Zm6.38,2.85v-1.89H92.13v1.89Zm0,2.81v-1.89H92.13v1.89Zm0,2.86v-1.93H92.13v1.93Zm1.1,4.43a19.76,19.76,0,0,0-3-2.38l.9-.61a18.35,18.35,0,0,1,3.06,2.31Z" class="cls-4"/><path data-cppathid="10022" transform="translate(-0.77 -1.2)" d="M102.86,108.08a20.91,20.91,0,0,1-2.2,3A8.46,8.46,0,0,0,100,110a23.94,23.94,0,0,0,4.5-8.11l1.44.49c-.07.13-.2.18-.41.16a33.4,33.4,0,0,1-1.66,3.73l.49.13c0,.1-.13.19-.36.21v11.94h-1.17Zm2.28,8.34h12.08v1.17H105.14Zm.45-11h4.85v-3.61l1.56.09c0,.15-.1.22-.36.26v3.26h5.12v1.17H105.59Zm2.51,2.39a45.9,45.9,0,0,1,1.53,7.42l-1.21.25A46.12,46.12,0,0,0,107,108Zm7.56.31a.42.42,0,0,1-.42.21,59.66,59.66,0,0,1-2,7.26l-1-.34a53,53,0,0,0,1.93-7.55Z" class="cls-4"/><path data-cppathid="10023" transform="translate(-0.77 -1.2)" d="M82.3,120.49h7.44v1.08H73.82v-1.08h7.26v-1.78l1.58.11c0,.12-.11.21-.36.25Zm6.68,7.1v6.35c0,.71-.16,1.08-.72,1.28a11.64,11.64,0,0,1-3.11.2,5.25,5.25,0,0,0-.4-1.15l1.89,0c1,0,1.14,0,1.14-.38v-5.27H75.87v6.81H74.69v-7.87ZM76.9,122.65h9.8v3.73H76.9Zm8.57,2.81v-1.89h-7.4v1.89Zm-.2,8.27H79.4v1H78.31v-4.79h7Zm-1.1-2.92H79.4v2h4.77Z" class="cls-4"/><path data-cppathid="10024" transform="translate(-0.77 -1.2)" d="M48.29,348.61a21.9,21.9,0,0,1-1.89,2.89,10.9,10.9,0,0,0-.6-1.18,24.32,24.32,0,0,0,4-8.12l1.43.45c-.06.13-.18.2-.42.2a35.08,35.08,0,0,1-1.38,3.57l.41.12c0,.13-.13.2-.34.24v12.06H48.29ZM60.44,354l.85.43a.54.54,0,0,1-.2.16,8.18,8.18,0,0,1-3,2.33,23.47,23.47,0,0,0,5,.95,4.09,4.09,0,0,0-.68,1,21.22,21.22,0,0,1-5.67-1.41A25.39,25.39,0,0,1,51,358.84a5.24,5.24,0,0,0-.61-.92,26.93,26.93,0,0,0,5.15-1,8.69,8.69,0,0,1-2.06-1.55,17.47,17.47,0,0,1-2.25,1.11,3,3,0,0,0-.72-.75,12.5,12.5,0,0,0,4.41-2.58c-.54-.12-.7-.43-.7-1.08v-1.18l1.35.09c0,.1-.11.19-.34.21v.88c0,.33.11.4.76.4H58.3c.45,0,.54-.09.61-.85a3.7,3.7,0,0,0,.85.29c-.09,1.05-.4,1.32-1.3,1.32h-2a.56.56,0,0,1-.31.1,8,8,0,0,1-.79.72h4.85Zm-7.85-9.11h3.19a10.11,10.11,0,0,0,.27-1H51.22v-1H62.71v1H57.29c-.09.29-.22.65-.34,1h4.21v4.61h1.75V352H61.79v-1.63H56.88a8.41,8.41,0,0,1,1.29,1l-.73.56a8.22,8.22,0,0,0-1.93-1.44l.18-.13H51.83V352H50.75V349.5h1.84Zm1.35,6.48a7,7,0,0,1-2,2.07l-.77-.65a5.53,5.53,0,0,0,1.94-1.87ZM60,346.45v-.83H53.71v.83ZM60,348v-.84H53.71V348Zm-6.32,1.52H60v-.85H53.71Zm.68,5.36a7.69,7.69,0,0,0,2.43,1.55,8.43,8.43,0,0,0,2.56-1.55Zm7.29-1.38a11,11,0,0,0-2.12-2.17l.81-.46a10.32,10.32,0,0,1,2.16,2.1Z" class="cls-3"/><path data-cppathid="10025" transform="translate(-0.77 -1.2)" d="M71,351.58c0,.13-.14.22-.37.24-.47,3.17-1.36,5.67-5.57,7a4,4,0,0,0-.74-1c3.93-1.12,4.79-3.35,5.1-6.39Zm4.5,5.15c0,.54.13.63.85.63h2.45c.7,0,.83-.37.9-2.79a3.19,3.19,0,0,0,1.12.51c-.15,2.75-.49,3.44-1.91,3.44H76.25c-1.55,0-2-.38-2-1.8v-5.53H64.56V350h7.38v-3.82H68A13,13,0,0,1,66.4,349a7.61,7.61,0,0,0-1.05-.58,15.9,15.9,0,0,0,2.65-5.9l1.53.36c0,.12-.16.18-.4.18A19.34,19.34,0,0,1,68.5,345h3.44V342.1l1.59.09c0,.14-.13.23-.36.25V345h6.1v1.17h-6.1V350h7.4v1.19h-5Z" class="cls-3"/><path data-cppathid="10026" transform="translate(-0.77 -1.2)" d="M84.16,350c0,3.35-.14,6.28-1.38,8.77a5.17,5.17,0,0,0-.83-.72c1.06-2.31,1.19-5,1.19-8.05v-7.26l1.36.09c0,.11-.1.2-.34.24Zm1.46,6.19V344l1.24.09c0,.11-.09.18-.3.22v11.84Zm2.5-13.5,1.37.09c0,.11-.11.2-.34.23v15.18h-1Zm5.66,13.79a.57.57,0,0,1-.34.13,12,12,0,0,1-3.37,2.23,5.34,5.34,0,0,0-.78-.81,10.81,10.81,0,0,0,3.33-2.18Zm-3-10.55H93.4c.14-.57.31-1.28.41-1.87H90V343h8.91v1.08H95c-.13.54-.33,1.24-.52,1.87h3.81v9.47H90.79Zm6.37,2.85v-1.89H91.9v1.89Zm0,2.8v-1.89H91.9v1.89Zm0,2.87v-1.93H91.9v1.93Zm1.1,4.43a19,19,0,0,0-3-2.38l.9-.61a19.82,19.82,0,0,1,3.06,2.3Z" class="cls-3"/><path data-cppathid="10027" transform="translate(-0.77 -1.2)" d="M102.63,348.45a20.71,20.71,0,0,1-2.2,3,8.09,8.09,0,0,0-.63-1.14,23.79,23.79,0,0,0,4.5-8.1l1.45.49a.4.4,0,0,1-.42.16,33.4,33.4,0,0,1-1.66,3.73l.49.12c0,.11-.13.2-.36.22v11.94h-1.17Zm2.29,8.34H117V358H104.92Zm.45-11.06h4.84v-3.6l1.57.09c0,.15-.11.22-.36.25v3.26h5.11v1.17H105.37Zm2.5,2.4a44.85,44.85,0,0,1,1.53,7.42l-1.21.25a45.06,45.06,0,0,0-1.42-7.47Zm7.56.3c0,.13-.2.22-.41.22a61.53,61.53,0,0,1-2,7.26s-1-.33-1-.35a53.87,53.87,0,0,0,1.92-7.54Z" class="cls-3"/><path data-cppathid="10028" transform="translate(-0.77 -1.2)" d="M75.43,365.51a22.14,22.14,0,0,1-2.05,2.95,9.1,9.1,0,0,0-.63-1.14A24.19,24.19,0,0,0,77,359.2l1.43.47c0,.13-.18.2-.4.18a33.77,33.77,0,0,1-1.51,3.57l.41.12c0,.11-.12.2-.36.24v12.06H75.43Zm14.48,1.13H85.7c.55,4.05,1.71,7.24,2.91,7.26.42,0,.6-.76.67-2.54a3.23,3.23,0,0,0,1,.63c-.22,2.41-.65,3.11-1.75,3.11-2,0-3.38-3.72-4-8.46H80.28v4.95c1.38-.23,2.93-.52,4.46-.79l.05,1c-2.28.48-4.64,1-6.19,1.28a.31.31,0,0,1-.23.25L77.84,372c.38-.05.8-.13,1.25-.2V361.06l.7.23a48,48,0,0,0,8.26-1.58l1,1a.39.39,0,0,1-.2.05.44.44,0,0,1-.16,0c-.83.26-1.91.49-3.08.73a.48.48,0,0,1-.33.14,35.88,35.88,0,0,0,.24,3.92h4.34Zm-11.52,8.68v-1.1h7.86v1.1Zm1.89-9.8h4.08c-.14-1.22-.21-2.52-.25-3.8-1.26.2-2.59.38-3.83.53Z" class="cls-3"/><path data-cppathid="10029" transform="translate(-0.77 -1.2)" d="M47.29,347.61a21.9,21.9,0,0,1-1.89,2.89,10.9,10.9,0,0,0-.6-1.18,24.32,24.32,0,0,0,4-8.12l1.43.45c-.06.13-.18.2-.42.2a35.08,35.08,0,0,1-1.38,3.57l.41.12c0,.13-.13.2-.34.24v12.06H47.29ZM59.44,353l.85.43a.54.54,0,0,1-.2.16,8.18,8.18,0,0,1-3,2.33,23.47,23.47,0,0,0,5,.95,4.09,4.09,0,0,0-.68,1,21.22,21.22,0,0,1-5.67-1.41A25.39,25.39,0,0,1,50,357.84a5.24,5.24,0,0,0-.61-.92,26.93,26.93,0,0,0,5.15-1,8.69,8.69,0,0,1-2.06-1.55,17.47,17.47,0,0,1-2.25,1.11,3,3,0,0,0-.72-.75,12.5,12.5,0,0,0,4.41-2.58c-.54-.12-.7-.43-.7-1.08v-1.18l1.35.09c0,.1-.11.19-.34.21v.88c0,.33.11.4.76.4H57.3c.45,0,.54-.09.61-.85a3.7,3.7,0,0,0,.85.29c-.09,1.05-.4,1.32-1.3,1.32h-2a.56.56,0,0,1-.31.1,8,8,0,0,1-.79.72h4.85Zm-7.85-9.11h3.19a10.11,10.11,0,0,0,.27-1H50.22v-1H61.71v1H56.29c-.09.29-.22.65-.34,1h4.21v4.61h1.75V351H60.79v-1.63H55.88a8.41,8.41,0,0,1,1.29,1l-.73.56a8.22,8.22,0,0,0-1.93-1.44l.18-.13H50.83V351H49.75V348.5h1.84Zm1.35,6.48a7,7,0,0,1-2,2.07l-.77-.65a5.53,5.53,0,0,0,1.94-1.87ZM59,345.45v-.83H52.71v.83ZM59,347v-.84H52.71V347Zm-6.32,1.52H59v-.85H52.71Zm.68,5.36a7.69,7.69,0,0,0,2.43,1.55,8.43,8.43,0,0,0,2.56-1.55Zm7.29-1.38a11,11,0,0,0-2.12-2.17l.81-.46a10.32,10.32,0,0,1,2.16,2.1Z" class="cls-4"/><path data-cppathid="10030" transform="translate(-0.77 -1.2)" d="M70,350.58c0,.13-.14.22-.37.24-.47,3.17-1.36,5.67-5.57,7a4,4,0,0,0-.74-1c3.93-1.12,4.79-3.35,5.1-6.39Zm4.5,5.15c0,.54.13.63.85.63h2.45c.7,0,.83-.37.9-2.79a3.19,3.19,0,0,0,1.12.51c-.15,2.75-.49,3.44-1.91,3.44H75.25c-1.55,0-2-.38-2-1.8v-5.53H63.56V349h7.38v-3.82H67A13,13,0,0,1,65.4,348a7.61,7.61,0,0,0-1.05-.58,15.9,15.9,0,0,0,2.65-5.9l1.53.36c0,.12-.16.18-.4.18A19.34,19.34,0,0,1,67.5,344h3.44V341.1l1.59.09c0,.14-.13.23-.36.25V344h6.1v1.17h-6.1V349h7.4v1.19h-5Z" class="cls-4"/><path data-cppathid="10031" transform="translate(-0.77 -1.2)" d="M83.16,349c0,3.35-.14,6.28-1.38,8.77a5.17,5.17,0,0,0-.83-.72c1.06-2.31,1.19-5,1.19-8.05v-7.26l1.36.09c0,.11-.1.2-.34.24Zm1.46,6.19V343l1.24.09c0,.11-.09.18-.3.22v11.84Zm2.5-13.5,1.37.09c0,.11-.11.2-.34.23v15.18h-1Zm5.66,13.79a.57.57,0,0,1-.34.13,12,12,0,0,1-3.37,2.23,5.34,5.34,0,0,0-.78-.81,10.81,10.81,0,0,0,3.33-2.18Zm-3-10.55H92.4c.14-.57.31-1.28.41-1.87H89V342h8.91v1.08H94c-.13.54-.33,1.24-.52,1.87h3.81v9.47H89.79Zm6.37,2.85v-1.89H90.9v1.89Zm0,2.8v-1.89H90.9v1.89Zm0,2.87v-1.93H90.9v1.93Zm1.1,4.43a19,19,0,0,0-3-2.38l.9-.61a19.82,19.82,0,0,1,3.06,2.3Z" class="cls-4"/><path data-cppathid="10032" transform="translate(-0.77 -1.2)" d="M101.63,347.45a20.71,20.71,0,0,1-2.2,3,8.09,8.09,0,0,0-.63-1.14,23.79,23.79,0,0,0,4.5-8.1l1.45.49a.4.4,0,0,1-.42.16,33.4,33.4,0,0,1-1.66,3.73l.49.12c0,.11-.13.2-.36.22v11.94h-1.17Zm2.29,8.34H116V357H103.92Zm.45-11.06h4.84v-3.6l1.57.09c0,.15-.11.22-.36.25v3.26h5.11v1.17H104.37Zm2.5,2.4a44.85,44.85,0,0,1,1.53,7.42l-1.21.25a45.06,45.06,0,0,0-1.42-7.47Zm7.56.3c0,.13-.2.22-.41.22a61.53,61.53,0,0,1-2,7.26s-1-.33-1-.35a53.87,53.87,0,0,0,1.92-7.54Z" class="cls-4"/><path data-cppathid="10033" transform="translate(-0.77 -1.2)" d="M74.43,364.51a22.14,22.14,0,0,1-2.05,2.95,9.1,9.1,0,0,0-.63-1.14A24.19,24.19,0,0,0,76,358.2l1.43.47c0,.13-.18.2-.4.18a33.77,33.77,0,0,1-1.51,3.57l.41.12c0,.11-.12.2-.36.24v12.06H74.43Zm14.48,1.13H84.7c.55,4.05,1.71,7.24,2.91,7.26.42,0,.6-.76.67-2.54a3.23,3.23,0,0,0,1,.63c-.22,2.41-.65,3.11-1.75,3.11-2,0-3.38-3.72-4-8.46H79.28v4.95c1.38-.23,2.93-.52,4.46-.79l.05,1c-2.28.48-4.64,1-6.19,1.28a.31.31,0,0,1-.23.25L76.84,371c.38-.05.8-.13,1.25-.2V360.06l.7.23a48,48,0,0,0,8.26-1.58l1,1a.39.39,0,0,1-.2.05.44.44,0,0,1-.16,0c-.83.26-1.91.49-3.08.73a.48.48,0,0,1-.33.14,35.88,35.88,0,0,0,.24,3.92h4.34Zm-11.52,8.68v-1.1h7.86v1.1Zm1.89-9.8h4.08c-.14-1.22-.21-2.52-.25-3.8-1.26.2-2.59.38-3.83.53Z" class="cls-4"/></g><g id="PBIs"><rect data-cppathid="10034" rx="5.67" height="42.85" width="171" y="123.09" x="252.75" class="cls-5"/><rect data-cppathid="10035" rx="5.67" height="42.85" width="171" y="75.32" x="252.75" class="cls-5"/><rect data-cppathid="10036" rx="5.67" height="42.85" width="171" y="170.85" x="252.75" class="cls-5"/><rect data-cppathid="10037" rx="5.67" height="42.85" width="171" y="218.62" x="252.75" class="cls-5"/><rect data-cppathid="10038" rx="5.67" height="42.85" width="171" y="266.39" x="252.75" class="cls-5"/><rect data-cppathid="10039" rx="4.75" height="35.89" width="143.25" y="317.15" x="265.02" class="cls-6"/><rect data-cppathid="10040" rx="3.89" height="29.43" width="117.46" y="361.92" x="277.34" class="cls-7"/><path data-cppathid="10041" transform="translate(-0.77 -1.2)" d="M266.75,95.57a.41.41,0,0,1-.35.23l-.16,0-.52-.15q-.27-.11-.27-.3a.4.4,0,0,1,.07-.22l4.28-6.89h-7.34c-.26,0-.4-.12-.4-.36s.14-.36.4-.36h8.77c.23,0,.34.09.34.25a.59.59,0,0,1-.07.23ZM270.9,88a2.51,2.51,0,0,1-1-.21,1.86,1.86,0,0,1-.74-.57,1.35,1.35,0,0,1,0-1.62,1.86,1.86,0,0,1,.74-.57,2.51,2.51,0,0,1,1-.21,2.43,2.43,0,0,1,1,.21,1.86,1.86,0,0,1,.74.57,1.35,1.35,0,0,1,0,1.62,1.86,1.86,0,0,1-.74.57A2.43,2.43,0,0,1,270.9,88Zm0-.53a.68.68,0,0,0,.42-.15,1.14,1.14,0,0,0,.35-.4,1,1,0,0,0,.14-.51,1.19,1.19,0,0,0-.13-.53,1.27,1.27,0,0,0-.35-.38.7.7,0,0,0-.43-.15.72.72,0,0,0-.42.15,1.16,1.16,0,0,0-.35.38,1.07,1.07,0,0,0-.13.53.94.94,0,0,0,.14.51,1.12,1.12,0,0,0,.34.4A.72.72,0,0,0,270.86,87.47Z" class="cls-8"/><path data-cppathid="10042" transform="translate(-0.77 -1.2)" d="M283.21,95.26a.35.35,0,0,1-.4.39h-.74a.33.33,0,0,1-.37-.25h-6.11a.34.34,0,0,1-.38.25h-.74a.34.34,0,0,1-.39-.39V88a.35.35,0,0,1,.39-.4h.74l.11,0h7.49a.35.35,0,0,1,.4.39Zm-1.54-7h-6.06v6.38h6.06Z" class="cls-8"/><path data-cppathid="10043" transform="translate(-0.77 -1.2)" d="M286.8,91.85a.38.38,0,0,1-.34.23h-.08l-.09,0-.56-.14c-.19,0-.28-.15-.28-.3a.49.49,0,0,1,.06-.22l2.68-4.73a.36.36,0,0,1,.33-.22h.09l.08,0,.57.14q.27.08.27.3a.49.49,0,0,1-.06.22v0h5.08c.23,0,.34.09.34.27a.43.43,0,0,1-.07.21l-4.58,7.95a.44.44,0,0,1-.36.23h-.07l-.09,0-.54-.14c-.19,0-.29-.15-.29-.3a.42.42,0,0,1,.08-.22L290.78,92l0,0-2.3-1.36a.34.34,0,0,1-.2-.28.38.38,0,0,1,.17-.28l.14-.12a.44.44,0,0,1,.3-.12.4.4,0,0,1,.25.09l2.13,1.27,1.89-3.28h-4.09Zm8.3-4.69a.28.28,0,0,1,0,.1c0,.15-.11.24-.32.25l-.35,0c-.25,0-.4,0-.46-.24l-.62-1.9a.28.28,0,0,1,0-.1c0-.15.11-.24.32-.25l.35,0c.26,0,.41,0,.47.24Zm1.32-.55a.25.25,0,0,1,0,.1c0,.14-.1.22-.31.25l-.35.05c-.25,0-.41-.05-.47-.24L294.69,85l0,0v-.06c0-.13.11-.21.32-.24l.35,0c.26,0,.41,0,.47.24Z" class="cls-8"/><path data-cppathid="10044" transform="translate(-0.77 -1.2)" d="M297.94,91.7a.39.39,0,0,1-.52.18l-.5-.15q-.27-.11-.27-.3a.46.46,0,0,1,.08-.23L299.52,87a.4.4,0,0,1,.34-.22.34.34,0,0,1,.18,0l.5.15q.27.11.27.3a.49.49,0,0,1-.08.23l-.05.07h5.53c.23,0,.34.09.34.26a.55.55,0,0,1-.07.22l-4.8,7.72a.44.44,0,0,1-.36.23l-.16,0-.52-.15q-.27-.11-.27-.3a.4.4,0,0,1,.07-.22l4.34-7H300.2Z" class="cls-8"/><path data-cppathid="10045" transform="translate(-0.77 -1.2)" d="M310.84,95.64a.35.35,0,0,1-.39.4h-.75a.35.35,0,0,1-.39-.4V87.3a.35.35,0,0,1,.39-.4h.75a.35.35,0,0,1,.39.4v3.41l4.35,1.4c.18.07.27.16.27.29a.35.35,0,0,1-.07.2l-.05.06a.38.38,0,0,1-.34.21h-.08l-.09,0-4-1.28Z" class="cls-8"/><path data-cppathid="10046" transform="translate(-0.77 -1.2)" d="M318.64,95.12a.36.36,0,0,1-.45.3l-.7-.08a.32.32,0,0,1-.33-.34.43.43,0,0,1,0-.13l2-7a.38.38,0,0,1,.45-.3l.7.08c.22,0,.34.14.34.34a.53.53,0,0,1,0,.13Zm8-.27s0,.05,0,.07V95c0,.19-.1.3-.32.33l-.71.08a.38.38,0,0,1-.46-.3l-2-7.06a.64.64,0,0,1,0-.07V87.9c0-.19.11-.3.32-.32l.71-.09a.38.38,0,0,1,.46.31Zm-.44-6.62s0,.06,0,.11-.11.26-.33.28l-.34,0c-.25,0-.41-.05-.46-.25l-.62-2.09a.27.27,0,0,1,0-.11q0-.24.33-.27l.35,0c.25,0,.41,0,.46.26Zm1.32-.61s0,.07,0,.11-.11.25-.32.28l-.34,0c-.26,0-.41,0-.47-.26l-.61-1.94a.14.14,0,0,1,0-.06.13.13,0,0,1,0-.06q0-.22.33-.27l.35,0c.25,0,.41,0,.46.26Z" class="cls-8"/><path data-cppathid="10047" transform="translate(-0.77 -1.2)" d="M330.25,92s0,.08,0,.13-.11.3-.33.33l-.69.08a.39.39,0,0,1-.47-.32l-.45-1.85a.19.19,0,0,1,0-.07v-.06q0-.28.33-.33l.69-.08a.4.4,0,0,1,.46.32Zm2-.3a.3.3,0,0,1,0,.1c0,.21-.12.32-.36.35l-.72.06a.39.39,0,0,1-.45-.35L330.38,90a.28.28,0,0,1,0-.1c0-.2.12-.32.36-.34l.72-.06a.36.36,0,0,1,.44.34Zm.64,4a.39.39,0,0,1-.38.26h-.12l-.61-.14c-.2,0-.29-.15-.29-.3a.41.41,0,0,1,.05-.21l2.42-5a.39.39,0,0,1,.38-.26h.12l.62.14c.19.05.28.15.28.3a.52.52,0,0,1,0,.21Z" class="cls-8"/><path data-cppathid="10048" transform="translate(-0.77 -1.2)" d="M338.24,91.7a.41.41,0,0,1-.35.22.42.42,0,0,1-.18,0l-.49-.15c-.18-.07-.28-.17-.28-.3a.4.4,0,0,1,.09-.23L339.81,87a.41.41,0,0,1,.35-.22.39.39,0,0,1,.18,0l.49.15c.19.07.28.17.28.3a.42.42,0,0,1-.09.23l0,.07h5.53c.22,0,.33.09.33.26a.43.43,0,0,1-.07.22L342,95.76a.42.42,0,0,1-.36.23l-.15,0-.52-.15c-.19-.07-.28-.17-.28-.3a.42.42,0,0,1,.08-.22l4.34-7H340.5Z" class="cls-8"/><path data-cppathid="10049" transform="translate(-0.77 -1.2)" d="M358.28,95.26a.35.35,0,0,1-.4.39h-.74a.34.34,0,0,1-.37-.25h-6.11a.34.34,0,0,1-.37.25h-.75a.34.34,0,0,1-.39-.39V88a.35.35,0,0,1,.39-.4h.75l.11,0h7.48a.35.35,0,0,1,.4.39Zm-1.54-7h-6.06v6.38h6.06Z" class="cls-8"/><path data-cppathid="10050" transform="translate(-0.77 -1.2)" d="M361.81,91.7a.41.41,0,0,1-.35.22.39.39,0,0,1-.18,0l-.49-.15c-.19-.07-.28-.17-.28-.3a.4.4,0,0,1,.09-.23L363.38,87a.41.41,0,0,1,.35-.22.39.39,0,0,1,.18,0l.49.15c.18.07.28.17.28.3a.42.42,0,0,1-.09.23l0,.07h5.54c.22,0,.33.09.33.26a.43.43,0,0,1-.07.22l-4.8,7.72a.44.44,0,0,1-.36.23L365,96l-.51-.15c-.19-.07-.28-.17-.28-.3a.51.51,0,0,1,.07-.22l4.35-7h-4.59Zm8.58-4a.57.57,0,0,1,0,.14.31.31,0,0,1-.32.33l-.35,0a.36.36,0,0,1-.46-.31l-.62-2.52a.49.49,0,0,1,0-.13.31.31,0,0,1,.32-.34l.35-.05a.38.38,0,0,1,.47.31Zm1.32-.73a.49.49,0,0,1,0,.13c0,.19-.1.3-.31.34l-.35.06a.37.37,0,0,1-.47-.31L370,84.82s0,0,0-.08v-.07c0-.17.1-.28.32-.32l.35-.06a.37.37,0,0,1,.47.31Z" class="cls-8"/><path data-cppathid="10051" transform="translate(-0.77 -1.2)" d="M376,95.69a.48.48,0,0,1-.3.13.59.59,0,0,1-.26-.08l-.27-.17a.33.33,0,0,1-.19-.28.42.42,0,0,1,.13-.26,4.55,4.55,0,0,0,1-2.07,16.11,16.11,0,0,0,.35-3.57.36.36,0,0,1,.4-.41h.74c.27,0,.4.24.39.71s0,.71,0,1,0,.62-.07.9l0,0,2.7-3.66h-8.06c-.26,0-.4-.12-.4-.36s.14-.36.4-.36h9.55c.23,0,.34.08.34.24a.36.36,0,0,1-.1.24l-3.25,4.43a.44.44,0,0,1-.36.19h-.08l-.09,0-.48-.17a.39.39,0,0,1-.24-.18,7,7,0,0,1-.61,2.2A5.17,5.17,0,0,1,376,95.69Z" class="cls-8"/><path data-cppathid="10052" transform="translate(-0.77 -1.2)" d="M384.73,92.8a.59.59,0,0,1-.25.07.41.41,0,0,1-.3-.12l-.12-.1a.36.36,0,0,1-.17-.27c0-.1.07-.19.2-.28l8.43-4.87a.47.47,0,0,1,.25-.07.44.44,0,0,1,.3.12l.12.09a.41.41,0,0,1,.17.28.35.35,0,0,1-.21.27l-3.33,1.94a.37.37,0,0,1,.09.27v5.4a.35.35,0,0,1-.39.4h-.75a.35.35,0,0,1-.39-.4V90.68Z" class="cls-8"/><path data-cppathid="10053" transform="translate(-0.77 -1.2)" d="M400,95.71a.38.38,0,0,1-.48.29l-.67-.11c-.21,0-.31-.14-.31-.31V95.5s0-.06,0-.09L400,90.86h-4.85q-.39,0-.39-.36t.39-.36h9.3c.27,0,.4.12.4.36s-.13.36-.4.36h-2.95V91a.31.31,0,0,1,0,.08ZM403.87,87q.39,0,.39.36t-.39.36H396c-.26,0-.4-.12-.4-.36s.14-.36.4-.36Z" class="cls-8"/><path data-cppathid="10054" transform="translate(-0.77 -1.2)" d="M416.16,95.4a.49.49,0,0,1,.06.22c0,.15-.1.25-.28.3l-.56.14-.09,0h-.08a.36.36,0,0,1-.34-.22l-.67-1.2-7.43,1.15c-.25,0-.38,0-.38-.23a.45.45,0,0,1,.06-.2l4-7.91a.39.39,0,0,1,.37-.24h.13l.58.13c.19,0,.29.15.29.3a.54.54,0,0,1,0,.21l-3.48,6.94,5.56-.86L412.7,92a.52.52,0,0,1-.06-.22c0-.15.09-.25.28-.3l.56-.14.08,0h.09a.37.37,0,0,1,.33.23Z" class="cls-8"/><path data-cppathid="10055" transform="translate(-0.77 -1.2)" d="M328.4,112.35a.32.32,0,0,1,.06.54l-.07.09a.46.46,0,0,1-.33.15.7.7,0,0,1-.23-.06q-2.62-1.39-2.62-5t2.62-5a.7.7,0,0,1,.23-.06.44.44,0,0,1,.33.16l.08.08a.37.37,0,0,1,.12.25.35.35,0,0,1-.19.29,3.15,3.15,0,0,0-.86,1,5.66,5.66,0,0,0-.59,1.5,8,8,0,0,0,0,3.64,5.72,5.72,0,0,0,.59,1.49A3,3,0,0,0,328.4,112.35Z" class="cls-8"/><path data-cppathid="10056" transform="translate(-0.77 -1.2)" d="M332.19,112.12a.38.38,0,0,1-.12.29.4.4,0,0,1-.29.12h-.72a.4.4,0,0,1-.29-.12.38.38,0,0,1-.12-.29v-8.36a.36.36,0,0,1,.11-.26.3.3,0,0,1,.25-.12,7.88,7.88,0,0,1,.8-.07l.73,0q4.08,0,4.08,3.16a2.26,2.26,0,0,1-1,2,5.44,5.44,0,0,1-3,.68h-.41Zm0-8.12v4.42h.49a4.25,4.25,0,0,0,1.44-.2,1.31,1.31,0,0,0,.74-.64,2.49,2.49,0,0,0,.22-1.14,3.8,3.8,0,0,0-.23-1.44,1.5,1.5,0,0,0-.78-.77,3.82,3.82,0,0,0-1.5-.24Z" class="cls-8"/><path data-cppathid="10057" transform="translate(-0.77 -1.2)" d="M337.4,103.8a.38.38,0,0,1,.39-.42c.33,0,.64-.06.93-.07l.83,0a5.64,5.64,0,0,1,2.07.31,2.11,2.11,0,0,1,1.49,2.13,2.1,2.1,0,0,1-.38,1.25,2.42,2.42,0,0,1-1.37.82c1.28.44,1.92,1.18,1.92,2.2a2.59,2.59,0,0,1-.37,1.42,2.26,2.26,0,0,1-1.19.91,6.11,6.11,0,0,1-2.21.32c-.25,0-.51,0-.8,0l-.9-.06c-.27,0-.41-.16-.41-.41Zm1.39.22v3.36a7,7,0,0,0,1.81-.22,1.92,1.92,0,0,0,1-.56,1.4,1.4,0,0,0,.29-.87,2.07,2.07,0,0,0-.18-.88,1.38,1.38,0,0,0-.66-.62,3,3,0,0,0-1.29-.23h-.94Zm0,7.91h.73a2.84,2.84,0,0,0,1.78-.47,1.75,1.75,0,0,0,.61-1.47,1.53,1.53,0,0,0-.71-1.38,5,5,0,0,0-2.41-.52Z" class="cls-8"/><path data-cppathid="10058" transform="translate(-0.77 -1.2)" d="M346.16,111.76v0h.51a.46.46,0,0,1,.29.1.34.34,0,0,1,.12.26.32.32,0,0,1-.12.26.41.41,0,0,1-.29.1h-2.56a.41.41,0,0,1-.29-.1.32.32,0,0,1-.12-.26.34.34,0,0,1,.12-.26.46.46,0,0,1,.29-.1h.51v-7.68h-.51a.41.41,0,0,1-.29-.1.32.32,0,0,1-.12-.26.34.34,0,0,1,.12-.26.46.46,0,0,1,.29-.1h2.56a.46.46,0,0,1,.29.1.34.34,0,0,1,.12.26.32.32,0,0,1-.12.26.41.41,0,0,1-.29.1h-.51v7.63Z" class="cls-8"/><path data-cppathid="10059" transform="translate(-0.77 -1.2)" d="M350.5,111.34a5.71,5.71,0,0,0,.58-1.49,8,8,0,0,0,0-3.64,5.65,5.65,0,0,0-.58-1.5,3.28,3.28,0,0,0-.86-1,.35.35,0,0,1-.19-.29.37.37,0,0,1,.12-.25l.08-.08a.42.42,0,0,1,.32-.16.6.6,0,0,1,.23.06q2.63,1.38,2.63,5t-2.63,5a.6.6,0,0,1-.23.06.44.44,0,0,1-.32-.15l-.07-.09a.32.32,0,0,1,.06-.54A3.1,3.1,0,0,0,350.5,111.34Z" class="cls-8"/><rect data-cppathid="10060" rx="2.77" height="20.96" width="83.64" y="400.15" x="293.06" class="cls-9"/><path data-cppathid="10061" transform="translate(-0.77 -1.2)" d="M265.15,140.77a.44.44,0,0,1-.36.23l-.16,0-.51-.15c-.19-.07-.28-.17-.28-.3a.4.4,0,0,1,.07-.22l4.29-6.89h-7.35q-.39,0-.39-.36t.39-.36h8.77c.23,0,.34.09.34.25a.46.46,0,0,1-.07.23Zm4.14-7.57a2.54,2.54,0,0,1-1-.21,1.93,1.93,0,0,1-.74-.57,1.35,1.35,0,0,1,0-1.62,1.93,1.93,0,0,1,.74-.57,2.54,2.54,0,0,1,1-.21,2.51,2.51,0,0,1,1,.21,1.83,1.83,0,0,1,.73.57,1.35,1.35,0,0,1,0,1.62,1.83,1.83,0,0,1-.73.57A2.51,2.51,0,0,1,269.29,133.2Zm0-.53a.72.72,0,0,0,.42-.15,1.12,1.12,0,0,0,.34-.4.94.94,0,0,0,.14-.51,1.07,1.07,0,0,0-.13-.53,1.24,1.24,0,0,0-.34-.38.72.72,0,0,0-.43-.15.75.75,0,0,0-.43.15,1.27,1.27,0,0,0-.35.38,1.19,1.19,0,0,0-.13.53,1,1,0,0,0,.14.51,1.14,1.14,0,0,0,.35.4A.7.7,0,0,0,269.26,132.67Z" class="cls-8"/><path data-cppathid="10062" transform="translate(-0.77 -1.2)" d="M281.6,140.46a.34.34,0,0,1-.39.39h-.75a.34.34,0,0,1-.37-.25H274a.34.34,0,0,1-.37.25h-.74a.35.35,0,0,1-.4-.39v-7.3a.35.35,0,0,1,.4-.4h.74l.11,0h7.49a.34.34,0,0,1,.39.39Zm-1.54-7H274v6.38h6.06Z" class="cls-8"/><path data-cppathid="10063" transform="translate(-0.77 -1.2)" d="M285.19,137.05a.37.37,0,0,1-.34.23h-.08l-.09,0-.56-.14c-.18-.05-.28-.15-.28-.3a.51.51,0,0,1,.07-.22l2.67-4.73a.36.36,0,0,1,.34-.22H287l.08,0,.57.14q.27.07.27.3a.47.47,0,0,1-.05.22l0,0h5.08c.23,0,.35.09.35.27a.57.57,0,0,1-.07.21l-4.59,8a.41.41,0,0,1-.36.23h-.07l-.08,0-.54-.14c-.2-.05-.29-.15-.29-.3a.4.4,0,0,1,.07-.22l1.82-3.15,0,0-2.29-1.36c-.14-.08-.21-.17-.21-.28a.38.38,0,0,1,.17-.28l.14-.12a.44.44,0,0,1,.3-.12.43.43,0,0,1,.26.09l2.12,1.27,1.9-3.28h-4.09Zm8.3-4.69a.28.28,0,0,1,0,.1c0,.15-.1.24-.32.25l-.35,0q-.37,0-.45-.24l-.63-1.9s0-.06,0-.1.11-.24.33-.25l.34,0c.26,0,.42.05.47.24Zm1.32-.55a.22.22,0,0,1,0,.1c0,.14-.11.22-.32.25l-.34.05c-.26,0-.42-.05-.47-.24l-.62-1.78s0,0,0-.05a.13.13,0,0,1,0-.06c0-.13.11-.21.32-.24l.35-.05c.26,0,.41.05.47.24Z" class="cls-8"/><path data-cppathid="10064" transform="translate(-0.77 -1.2)" d="M296.34,136.9a.42.42,0,0,1-.35.22.39.39,0,0,1-.18,0l-.49-.15c-.19-.07-.28-.17-.28-.3a.46.46,0,0,1,.08-.23l2.79-4.21a.4.4,0,0,1,.35-.22.39.39,0,0,1,.18,0l.49.15c.18.07.28.17.28.3a.42.42,0,0,1-.09.23l-.05.07h5.54c.22,0,.33.09.33.26a.43.43,0,0,1-.07.22l-4.8,7.72a.44.44,0,0,1-.36.23l-.16,0L299,141c-.19-.07-.28-.17-.28-.3a.51.51,0,0,1,.07-.22l4.35-7h-4.59Z" class="cls-8"/><path data-cppathid="10065" transform="translate(-0.77 -1.2)" d="M309.24,140.84a.35.35,0,0,1-.4.4h-.74a.35.35,0,0,1-.4-.4V132.5a.35.35,0,0,1,.4-.4h.74a.35.35,0,0,1,.4.4v3.41l4.34,1.4c.19.07.28.16.28.29a.44.44,0,0,1-.07.2l-.05.06a.41.41,0,0,1-.35.21h-.08l-.09,0-4-1.28Z" class="cls-8"/><path data-cppathid="10066" transform="translate(-0.77 -1.2)" d="M317,140.32a.38.38,0,0,1-.46.3l-.7-.08a.32.32,0,0,1-.33-.34s0-.06,0-.13l2-7a.38.38,0,0,1,.46-.3l.69.08c.23,0,.34.14.34.34a.53.53,0,0,1,0,.13Zm7.95-.27a.19.19,0,0,1,0,.07s0,0,0,.07q0,.28-.33.33l-.71.08a.37.37,0,0,1-.45-.3l-2-7.06a.14.14,0,0,1,0-.07.17.17,0,0,1,0-.07c0-.19.11-.3.33-.32l.7-.09a.37.37,0,0,1,.46.31Zm-.44-6.62a.31.31,0,0,1,0,.11c0,.16-.11.25-.32.27l-.35,0a.36.36,0,0,1-.46-.25l-.62-2.09a.31.31,0,0,1,0-.11c0-.16.1-.25.32-.27l.35,0a.37.37,0,0,1,.47.25Zm1.32-.61a.37.37,0,0,1,0,.11c0,.15-.1.25-.31.28l-.35,0c-.26,0-.41,0-.47-.26l-.61-1.94,0-.06v-.06c0-.15.1-.24.32-.27l.35,0c.25,0,.41,0,.47.26Z" class="cls-8"/><path data-cppathid="10067" transform="translate(-0.77 -1.2)" d="M328.64,137.19a.49.49,0,0,1,0,.13c0,.2-.11.3-.32.33l-.7.08a.38.38,0,0,1-.46-.32l-.46-1.85a.17.17,0,0,1,0-.07v-.06c0-.19.1-.3.32-.33l.7-.08a.38.38,0,0,1,.45.32Zm2-.3a.31.31,0,0,1,0,.1c0,.21-.12.32-.36.35l-.72.06a.37.37,0,0,1-.44-.35l-.33-1.85a.28.28,0,0,1,0-.1c0-.2.12-.32.36-.34l.72-.06a.36.36,0,0,1,.44.34Zm.63,4a.38.38,0,0,1-.38.26h-.12l-.61-.14c-.19,0-.29-.15-.29-.3a.54.54,0,0,1,.05-.21l2.42-5a.4.4,0,0,1,.39-.26h.12l.61.14c.19,0,.29.15.29.3a.54.54,0,0,1-.05.21Z" class="cls-8"/><path data-cppathid="10068" transform="translate(-0.77 -1.2)" d="M336.63,136.9a.4.4,0,0,1-.34.22.46.46,0,0,1-.19,0l-.49-.15q-.27-.1-.27-.3a.46.46,0,0,1,.08-.23l2.79-4.21a.4.4,0,0,1,.34-.22.34.34,0,0,1,.18,0l.49.15c.19.07.28.17.28.3a.49.49,0,0,1-.08.23l-.05.07h5.53c.22,0,.34.09.34.26a.55.55,0,0,1-.07.22l-4.8,7.72a.44.44,0,0,1-.37.23l-.15,0-.52-.15q-.27-.1-.27-.3a.4.4,0,0,1,.07-.22l4.34-7h-4.58Z" class="cls-8"/><path data-cppathid="10069" transform="translate(-0.77 -1.2)" d="M356.67,140.46a.34.34,0,0,1-.39.39h-.75a.34.34,0,0,1-.37-.25h-6.11a.34.34,0,0,1-.37.25h-.74a.35.35,0,0,1-.4-.39v-7.3a.35.35,0,0,1,.4-.4h.74l.11,0h7.49a.34.34,0,0,1,.39.39Zm-1.53-7h-6.06v6.38h6.06Z" class="cls-8"/><path data-cppathid="10070" transform="translate(-0.77 -1.2)" d="M360.2,136.9a.4.4,0,0,1-.35.22.45.45,0,0,1-.18,0l-.49-.15q-.27-.1-.27-.3a.38.38,0,0,1,.08-.23l2.78-4.21a.42.42,0,0,1,.35-.22.34.34,0,0,1,.18,0l.49.15c.19.07.28.17.28.3a.49.49,0,0,1-.08.23l-.05.07h5.53c.22,0,.34.09.34.26a.46.46,0,0,1-.08.22l-4.8,7.72a.41.41,0,0,1-.36.23l-.15,0-.52-.15c-.18-.07-.28-.17-.28-.3a.42.42,0,0,1,.08-.22l4.34-7h-4.58Zm8.58-4a.57.57,0,0,1,0,.14c0,.2-.1.31-.32.33l-.35.05a.35.35,0,0,1-.45-.31l-.63-2.52a.49.49,0,0,1,0-.13.31.31,0,0,1,.32-.34l.35,0a.37.37,0,0,1,.47.31Zm1.32-.73a.49.49,0,0,1,0,.13c0,.19-.1.3-.31.34l-.35.06a.36.36,0,0,1-.46-.31l-.62-2.35s0-.05,0-.08a.15.15,0,0,1,0-.07c0-.17.11-.28.32-.32l.35-.06a.37.37,0,0,1,.47.31Z" class="cls-8"/><path data-cppathid="10071" transform="translate(-0.77 -1.2)" d="M374.41,140.89a.44.44,0,0,1-.3.13.56.56,0,0,1-.25-.08l-.28-.17a.33.33,0,0,1-.19-.28.42.42,0,0,1,.13-.26,4.55,4.55,0,0,0,1-2.07,16.65,16.65,0,0,0,.36-3.57c0-.27.13-.41.39-.41H376c.27,0,.4.24.38.71s0,.71,0,1,0,.62-.07.9l0-.05,2.7-3.66H371q-.39,0-.39-.36t.39-.36h9.56q.33,0,.33.24a.4.4,0,0,1-.09.24l-3.26,4.43a.41.41,0,0,1-.36.19h-.07l-.09,0-.48-.17a.39.39,0,0,1-.24-.18,7,7,0,0,1-.62,2.2A4.88,4.88,0,0,1,374.41,140.89Z" class="cls-8"/><path data-cppathid="10072" transform="translate(-0.77 -1.2)" d="M383.12,138a.55.55,0,0,1-.25.07.44.44,0,0,1-.3-.12l-.12-.1a.39.39,0,0,1-.17-.27c0-.1.07-.19.21-.28l8.42-4.87a.5.5,0,0,1,.25-.07.44.44,0,0,1,.3.12l.12.09a.41.41,0,0,1,.17.28.35.35,0,0,1-.2.27l-3.34,1.94a.37.37,0,0,1,.1.27v5.4a.35.35,0,0,1-.4.4h-.74a.35.35,0,0,1-.4-.4v-4.85Z" class="cls-8"/><path data-cppathid="10073" transform="translate(-0.77 -1.2)" d="M398.39,140.91a.39.39,0,0,1-.48.29l-.68-.11c-.2,0-.31-.14-.31-.31a.19.19,0,0,1,0-.08.29.29,0,0,1,0-.09l1.44-4.55h-4.85c-.27,0-.4-.12-.4-.36s.13-.36.4-.36h9.3q.39,0,.39.36t-.39.36h-2.95v.09a.16.16,0,0,1,0,.08Zm3.87-8.71c.27,0,.4.12.4.36s-.13.36-.4.36h-7.91q-.39,0-.39-.36t.39-.36Z" class="cls-8"/><path data-cppathid="10074" transform="translate(-0.77 -1.2)" d="M414.55,140.6a.49.49,0,0,1,.06.22c0,.15-.09.25-.28.3l-.56.14-.08,0h-.09a.36.36,0,0,1-.33-.22l-.68-1.2L405.17,141c-.26,0-.39,0-.39-.23a.45.45,0,0,1,.06-.2l4-7.91a.4.4,0,0,1,.37-.24h.14l.57.13c.19.05.29.15.29.3a.54.54,0,0,1-.05.21L406.64,140l5.56-.86-1.11-1.94A.52.52,0,0,1,411,137c0-.15.1-.25.28-.3l.56-.14.09,0H412a.37.37,0,0,1,.34.23Z" class="cls-8"/><path data-cppathid="10075" transform="translate(-0.77 -1.2)" d="M326.79,157.55a.32.32,0,0,1,.06.54l-.07.09a.44.44,0,0,1-.32.15.6.6,0,0,1-.23-.06q-2.62-1.4-2.63-5t2.63-5a.6.6,0,0,1,.23-.06.42.42,0,0,1,.32.16l.08.08a.37.37,0,0,1,.12.25.35.35,0,0,1-.19.29,3.28,3.28,0,0,0-.86,1,5.65,5.65,0,0,0-.58,1.5,8,8,0,0,0,0,3.64,5.71,5.71,0,0,0,.58,1.49A3.1,3.1,0,0,0,326.79,157.55Z" class="cls-8"/><path data-cppathid="10076" transform="translate(-0.77 -1.2)" d="M330.58,157.32a.38.38,0,0,1-.12.29.38.38,0,0,1-.28.12h-.72a.41.41,0,0,1-.41-.41V149a.35.35,0,0,1,.1-.26.32.32,0,0,1,.26-.12,7.64,7.64,0,0,1,.8-.07l.72,0q4.08,0,4.08,3.16a2.27,2.27,0,0,1-1,2,5.5,5.5,0,0,1-3,.68h-.41Zm0-8.12v4.42h.5a4.22,4.22,0,0,0,1.43-.2,1.25,1.25,0,0,0,.74-.64,2.48,2.48,0,0,0,.23-1.14,3.6,3.6,0,0,0-.24-1.44,1.44,1.44,0,0,0-.78-.77,3.76,3.76,0,0,0-1.49-.24Z" class="cls-8"/><path data-cppathid="10077" transform="translate(-0.77 -1.2)" d="M335.79,149a.38.38,0,0,1,.4-.42c.33,0,.64-.06.93-.07l.82,0a5.7,5.7,0,0,1,2.08.31,2.3,2.3,0,0,1,1.13.85,2.26,2.26,0,0,1,.35,1.28,2.1,2.1,0,0,1-.37,1.25,2.45,2.45,0,0,1-1.38.82c1.28.44,1.92,1.18,1.92,2.2a2.68,2.68,0,0,1-.36,1.42,2.33,2.33,0,0,1-1.2.91,6.11,6.11,0,0,1-2.21.32c-.24,0-.51,0-.79,0l-.91-.06c-.27,0-.41-.16-.41-.41Zm1.39.22v3.36a7.09,7.09,0,0,0,1.82-.22,1.88,1.88,0,0,0,1-.56,1.35,1.35,0,0,0,.3-.87,2.07,2.07,0,0,0-.19-.88,1.31,1.31,0,0,0-.65-.62,3.09,3.09,0,0,0-1.3-.23h-.94Zm0,7.91h.74a2.83,2.83,0,0,0,1.77-.47,1.75,1.75,0,0,0,.61-1.47,1.52,1.52,0,0,0-.7-1.38,5.11,5.11,0,0,0-2.42-.52Z" class="cls-8"/><path data-cppathid="10078" transform="translate(-0.77 -1.2)" d="M344.55,157v0h.52a.48.48,0,0,1,.29.1.34.34,0,0,1,.12.26.32.32,0,0,1-.12.26.43.43,0,0,1-.29.1H342.5a.43.43,0,0,1-.29-.1.32.32,0,0,1-.12-.26.34.34,0,0,1,.12-.26.48.48,0,0,1,.29-.1H343v-7.68h-.52a.43.43,0,0,1-.29-.1.32.32,0,0,1-.12-.26.34.34,0,0,1,.12-.26.48.48,0,0,1,.29-.1h2.57a.48.48,0,0,1,.29.1.34.34,0,0,1,.12.26.32.32,0,0,1-.12.26.43.43,0,0,1-.29.1h-.52V157Z" class="cls-8"/><path data-cppathid="10079" transform="translate(-0.77 -1.2)" d="M348.9,156.54a6.09,6.09,0,0,0,.58-1.49,8,8,0,0,0,0-3.64,6,6,0,0,0-.58-1.5,3.31,3.31,0,0,0-.87-1,.35.35,0,0,1-.19-.29.37.37,0,0,1,.12-.25l.08-.08a.44.44,0,0,1,.33-.16.7.7,0,0,1,.23.06q2.63,1.38,2.62,5t-2.62,5a.7.7,0,0,1-.23.06.46.46,0,0,1-.33-.15l-.07-.09a.32.32,0,0,1,.06-.54A3.13,3.13,0,0,0,348.9,156.54Z" class="cls-8"/><path data-cppathid="10080" transform="translate(-0.77 -1.2)" d="M266.75,190.63a.41.41,0,0,1-.35.23l-.16,0-.52-.15q-.27-.1-.27-.3a.4.4,0,0,1,.07-.22l4.28-6.89h-7.34c-.26,0-.4-.12-.4-.36s.14-.36.4-.36h8.77c.23,0,.34.09.34.26a.55.55,0,0,1-.07.22Zm4.15-7.57a2.51,2.51,0,0,1-1-.21,1.86,1.86,0,0,1-.74-.57,1.35,1.35,0,0,1,0-1.62,1.86,1.86,0,0,1,.74-.57,2.51,2.51,0,0,1,1-.2,2.43,2.43,0,0,1,1,.2,1.86,1.86,0,0,1,.74.57,1.35,1.35,0,0,1,0,1.62,1.86,1.86,0,0,1-.74.57A2.43,2.43,0,0,1,270.9,183.06Zm0-.53a.68.68,0,0,0,.42-.15,1.2,1.2,0,0,0,.35-.39,1.07,1.07,0,0,0,.14-.52,1.14,1.14,0,0,0-.13-.52,1.2,1.2,0,0,0-.35-.39.69.69,0,0,0-.43-.14.7.7,0,0,0-.42.14,1.1,1.1,0,0,0-.35.39,1,1,0,0,0-.13.52,1,1,0,0,0,.14.52,1.17,1.17,0,0,0,.34.39A.72.72,0,0,0,270.86,182.53Z" class="cls-8"/><path data-cppathid="10081" transform="translate(-0.77 -1.2)" d="M283.21,190.32a.35.35,0,0,1-.4.39h-.74a.33.33,0,0,1-.37-.25h-6.11a.34.34,0,0,1-.38.25h-.74a.34.34,0,0,1-.39-.39V183a.34.34,0,0,1,.39-.39h8.34a.35.35,0,0,1,.4.39Zm-1.54-7h-6.06v6.38h6.06Z" class="cls-8"/><path data-cppathid="10082" transform="translate(-0.77 -1.2)" d="M286.8,186.91a.38.38,0,0,1-.34.23h-.08l-.09,0-.56-.14c-.19-.05-.28-.15-.28-.3a.52.52,0,0,1,.06-.22l2.68-4.72a.36.36,0,0,1,.33-.23h.09l.08,0,.57.15a.29.29,0,0,1,.27.3.48.48,0,0,1-.06.21v0h5.08c.23,0,.34.08.34.26a.46.46,0,0,1-.07.22l-4.58,7.94a.44.44,0,0,1-.36.23h-.07l-.09,0-.54-.14c-.19-.05-.29-.15-.29-.3a.46.46,0,0,1,.08-.22l1.82-3.15h0l-2.3-1.37a.33.33,0,0,1-.2-.28.36.36,0,0,1,.17-.27l.14-.12a.44.44,0,0,1,.3-.12.46.46,0,0,1,.25.08l2.13,1.27,1.89-3.27h-4.09Zm8.3-4.69a.31.31,0,0,1,0,.1c0,.15-.11.24-.32.26l-.35,0c-.25,0-.4-.05-.46-.23l-.62-1.91a.28.28,0,0,1,0-.1c0-.15.11-.23.32-.25l.35,0c.26,0,.41,0,.47.24Zm1.32-.55a.28.28,0,0,1,0,.1c0,.14-.1.22-.31.25l-.35,0c-.25,0-.41,0-.47-.24l-.61-1.78s0,0,0-.05V180c0-.14.11-.22.32-.25l.35,0c.26,0,.41,0,.47.23Z" class="cls-8"/><path data-cppathid="10083" transform="translate(-0.77 -1.2)" d="M297.94,186.77a.4.4,0,0,1-.34.21.57.57,0,0,1-.18,0l-.5-.16q-.27-.09-.27-.3a.46.46,0,0,1,.08-.23l2.79-4.21a.42.42,0,0,1,.34-.22.48.48,0,0,1,.18,0l.5.16q.27.09.27.3a.46.46,0,0,1-.08.22l-.05.08h5.53c.23,0,.34.08.34.25a.65.65,0,0,1-.07.23l-4.8,7.71a.44.44,0,0,1-.36.23l-.16,0-.52-.16q-.27-.09-.27-.3a.43.43,0,0,1,.07-.22l4.34-7H300.2Z" class="cls-8"/><path data-cppathid="10084" transform="translate(-0.77 -1.2)" d="M310.84,190.7a.35.35,0,0,1-.39.4h-.75a.35.35,0,0,1-.39-.4v-8.34a.34.34,0,0,1,.39-.39h.75a.34.34,0,0,1,.39.39v3.41l4.35,1.4c.18.07.27.16.27.29a.37.37,0,0,1-.07.21l-.05.06a.39.39,0,0,1-.34.2h-.17l-4-1.29Z" class="cls-8"/><path data-cppathid="10085" transform="translate(-0.77 -1.2)" d="M318.64,190.19a.38.38,0,0,1-.45.3l-.7-.09q-.33,0-.33-.33a.45.45,0,0,1,0-.14l2-7a.38.38,0,0,1,.45-.3l.7.08c.22,0,.34.14.34.34a.53.53,0,0,1,0,.13Zm8-.28s0,.05,0,.07v.07c0,.2-.1.3-.32.33l-.71.08a.37.37,0,0,1-.46-.3l-2-7s0-.05,0-.08V183c0-.19.11-.3.32-.32l.71-.09a.39.39,0,0,1,.46.32Zm-.44-6.62s0,.06,0,.11-.11.26-.33.28l-.34,0c-.25,0-.41-.06-.46-.26l-.62-2.08a.36.36,0,0,1,0-.11c0-.17.11-.26.33-.28l.35,0c.25,0,.41.05.46.26Zm1.32-.6s0,.06,0,.1-.11.25-.32.28l-.34.05c-.26,0-.41-.05-.47-.26l-.61-1.94a.14.14,0,0,1,0-.06.13.13,0,0,1,0-.06q0-.21.33-.27l.35-.05c.25,0,.41.06.46.26Z" class="cls-8"/><path data-cppathid="10086" transform="translate(-0.77 -1.2)" d="M330.25,187.05s0,.08,0,.14-.11.3-.33.32l-.69.08a.39.39,0,0,1-.47-.32l-.45-1.85a.19.19,0,0,1,0-.07v-.06c0-.19.11-.3.33-.32l.69-.09a.4.4,0,0,1,.46.33Zm2-.3a.3.3,0,0,1,0,.1c0,.21-.12.32-.36.35l-.72.06a.38.38,0,0,1-.45-.35l-.32-1.85a.22.22,0,0,1,0-.09c0-.21.12-.33.36-.35l.72-.06c.25,0,.39.09.44.35Zm.64,3.95a.4.4,0,0,1-.38.27h-.06a.08.08,0,0,1-.06,0l-.61-.14c-.2-.05-.29-.15-.29-.3a.35.35,0,0,1,.05-.2l2.42-5a.41.41,0,0,1,.38-.26h.12l.62.14c.19.05.28.15.28.3a.49.49,0,0,1,0,.21Z" class="cls-8"/><path data-cppathid="10087" transform="translate(-0.77 -1.2)" d="M338.24,186.77a.42.42,0,0,1-.35.21l-.18,0-.49-.16c-.18-.06-.28-.16-.28-.3a.4.4,0,0,1,.09-.23l2.78-4.21a.43.43,0,0,1,.35-.22.58.58,0,0,1,.18,0l.49.16c.19.06.28.16.28.3a.4.4,0,0,1-.09.22l0,.08h5.53c.22,0,.33.08.33.25a.49.49,0,0,1-.07.23l-4.8,7.71a.42.42,0,0,1-.36.23l-.15,0-.52-.16c-.19-.06-.28-.16-.28-.3a.46.46,0,0,1,.08-.22l4.34-7H340.5Z" class="cls-8"/><path data-cppathid="10088" transform="translate(-0.77 -1.2)" d="M358.28,190.32a.35.35,0,0,1-.4.39h-.74a.34.34,0,0,1-.37-.25h-6.11a.34.34,0,0,1-.37.25h-.75a.34.34,0,0,1-.39-.39V183a.34.34,0,0,1,.39-.39h8.34a.35.35,0,0,1,.4.39Zm-1.54-7h-6.06v6.38h6.06Z" class="cls-8"/><path data-cppathid="10089" transform="translate(-0.77 -1.2)" d="M361.81,186.77a.42.42,0,0,1-.35.21.57.57,0,0,1-.18,0l-.49-.16c-.19-.06-.28-.16-.28-.3a.4.4,0,0,1,.09-.23l2.78-4.21a.43.43,0,0,1,.35-.22.58.58,0,0,1,.18,0l.49.16c.18.06.28.16.28.3a.4.4,0,0,1-.09.22l0,.08h5.54c.22,0,.33.08.33.25a.49.49,0,0,1-.07.23l-4.8,7.71a.44.44,0,0,1-.36.23l-.16,0-.51-.16c-.19-.06-.28-.16-.28-.3a.55.55,0,0,1,.07-.22l4.35-7h-4.59Zm8.58-4a.45.45,0,0,1,0,.13.31.31,0,0,1-.32.33l-.35,0a.36.36,0,0,1-.46-.31l-.62-2.52a.49.49,0,0,1,0-.13c0-.2.1-.31.32-.34l.35-.05a.38.38,0,0,1,.47.32Zm1.32-.74a.57.57,0,0,1,0,.14c0,.18-.1.29-.31.33l-.35.06a.37.37,0,0,1-.47-.31l-.61-2.35a.64.64,0,0,0,0-.07v-.08c0-.17.1-.28.32-.32l.35-.06a.38.38,0,0,1,.47.31Z" class="cls-8"/><path data-cppathid="10090" transform="translate(-0.77 -1.2)" d="M376,190.75a.48.48,0,0,1-.3.13.59.59,0,0,1-.26-.08l-.27-.17a.33.33,0,0,1-.19-.28.42.42,0,0,1,.13-.26,4.55,4.55,0,0,0,1-2.07,16.11,16.11,0,0,0,.35-3.57.36.36,0,0,1,.4-.41h.74c.27,0,.4.24.39.71s0,.71,0,1,0,.62-.07.9l0,0,2.7-3.66h-8.06c-.26,0-.4-.12-.4-.36s.14-.36.4-.36h9.55c.23,0,.34.08.34.24a.4.4,0,0,1-.1.24l-3.25,4.42a.45.45,0,0,1-.36.2h-.08l-.09,0-.48-.17a.39.39,0,0,1-.24-.18,7.11,7.11,0,0,1-.61,2.21A5.13,5.13,0,0,1,376,190.75Z" class="cls-8"/><path data-cppathid="10091" transform="translate(-0.77 -1.2)" d="M384.73,187.86a.47.47,0,0,1-.25.07.41.41,0,0,1-.3-.12l-.12-.1a.35.35,0,0,1-.17-.27c0-.1.07-.19.2-.28l8.43-4.87a.47.47,0,0,1,.25-.07.44.44,0,0,1,.3.12l.12.09a.41.41,0,0,1,.17.28c0,.1-.07.19-.21.28l-3.33,1.93a.37.37,0,0,1,.09.27v5.4a.35.35,0,0,1-.39.4h-.75a.35.35,0,0,1-.39-.4v-4.84Z" class="cls-8"/><path data-cppathid="10092" transform="translate(-0.77 -1.2)" d="M400,190.77a.38.38,0,0,1-.48.29l-.67-.11c-.21,0-.31-.14-.31-.31v-.08s0-.05,0-.09l1.44-4.54h-4.85q-.39,0-.39-.36t.39-.36h9.3c.27,0,.4.12.4.36s-.13.36-.4.36h-2.95V186a.31.31,0,0,1,0,.08Zm3.88-8.71q.39,0,.39.36t-.39.36H396c-.26,0-.4-.12-.4-.36s.14-.36.4-.36Z" class="cls-8"/><path data-cppathid="10093" transform="translate(-0.77 -1.2)" d="M416.16,190.46a.49.49,0,0,1,.06.22c0,.15-.1.25-.28.3l-.56.14-.09,0h-.08a.37.37,0,0,1-.34-.23l-.67-1.2-7.43,1.15c-.25,0-.38,0-.38-.23a.49.49,0,0,1,.06-.2l4-7.91a.39.39,0,0,1,.37-.24h.13l.58.13c.19,0,.29.15.29.3a.46.46,0,0,1,0,.21l-3.48,6.95,5.56-.87-1.11-1.94a.49.49,0,0,1-.06-.22c0-.15.09-.25.28-.3l.56-.14.08,0h.09a.37.37,0,0,1,.33.23Z" class="cls-8"/><path data-cppathid="10094" transform="translate(-0.77 -1.2)" d="M328.4,207.41a.32.32,0,0,1,.06.54l-.07.09a.46.46,0,0,1-.33.15.7.7,0,0,1-.23-.06q-2.62-1.38-2.62-5t2.62-5a.7.7,0,0,1,.23-.06.47.47,0,0,1,.33.16l.08.08a.37.37,0,0,1,.12.26.34.34,0,0,1-.19.28,3.09,3.09,0,0,0-.86,1,5.45,5.45,0,0,0-.59,1.49,7.63,7.63,0,0,0-.21,1.82,7.51,7.51,0,0,0,.21,1.82,5.8,5.8,0,0,0,.59,1.5A3,3,0,0,0,328.4,207.41Z" class="cls-8"/><path data-cppathid="10095" transform="translate(-0.77 -1.2)" d="M332.19,207.19a.38.38,0,0,1-.12.28.4.4,0,0,1-.29.12h-.72a.4.4,0,0,1-.29-.12.38.38,0,0,1-.12-.28v-8.37a.36.36,0,0,1,.11-.26.37.37,0,0,1,.25-.12c.28,0,.55-.06.8-.07l.73,0c2.72,0,4.08,1.06,4.08,3.16a2.24,2.24,0,0,1-1,2,5.44,5.44,0,0,1-3,.68h-.41Zm0-8.13v4.42h.49a4.25,4.25,0,0,0,1.44-.2,1.33,1.33,0,0,0,.74-.63,2.56,2.56,0,0,0,.22-1.15,3.71,3.71,0,0,0-.23-1.43,1.49,1.49,0,0,0-.78-.78,3.82,3.82,0,0,0-1.5-.24Z" class="cls-8"/><path data-cppathid="10096" transform="translate(-0.77 -1.2)" d="M337.4,198.86a.38.38,0,0,1,.39-.42c.33,0,.64-.06.93-.07l.83,0a5.86,5.86,0,0,1,2.07.31,2.33,2.33,0,0,1,1.14.85,2.36,2.36,0,0,1,.35,1.28,2.1,2.1,0,0,1-.38,1.25,2.48,2.48,0,0,1-1.37.83q1.92.66,1.92,2.19a2.59,2.59,0,0,1-.37,1.42,2.32,2.32,0,0,1-1.19.92,6.37,6.37,0,0,1-2.21.31h-.8l-.9-.07a.38.38,0,0,1-.41-.41Zm1.39.23v3.36a7,7,0,0,0,1.81-.23,1.92,1.92,0,0,0,1-.56,1.36,1.36,0,0,0,.29-.87,2.07,2.07,0,0,0-.18-.88,1.38,1.38,0,0,0-.66-.62,3,3,0,0,0-1.29-.23h-.45Zm0,7.9.38,0h.35a2.84,2.84,0,0,0,1.78-.48,1.72,1.72,0,0,0,.61-1.47,1.55,1.55,0,0,0-.71-1.38,5.05,5.05,0,0,0-2.41-.51Z" class="cls-8"/><path data-cppathid="10097" transform="translate(-0.77 -1.2)" d="M346.16,206.83v0h.51a.42.42,0,0,1,.29.11.3.3,0,0,1,.12.25.32.32,0,0,1-.12.26.41.41,0,0,1-.29.1h-2.56a.41.41,0,0,1-.29-.1.32.32,0,0,1-.12-.26.3.3,0,0,1,.12-.25.42.42,0,0,1,.29-.11h.51v-7.68h-.51a.41.41,0,0,1-.29-.1.32.32,0,0,1-.12-.26.3.3,0,0,1,.12-.25.42.42,0,0,1,.29-.11h2.56a.42.42,0,0,1,.29.11.3.3,0,0,1,.12.25.32.32,0,0,1-.12.26.41.41,0,0,1-.29.1h-.51v7.64Z" class="cls-8"/><path data-cppathid="10098" transform="translate(-0.77 -1.2)" d="M350.5,206.41a5.79,5.79,0,0,0,.58-1.5,7.51,7.51,0,0,0,.21-1.82,7.63,7.63,0,0,0-.21-1.82,5.45,5.45,0,0,0-.58-1.49,3.21,3.21,0,0,0-.86-1,.34.34,0,0,1-.19-.28.37.37,0,0,1,.12-.26l.08-.08A.45.45,0,0,1,350,198a.6.6,0,0,1,.23.06q2.63,1.38,2.63,5t-2.63,5a.6.6,0,0,1-.23.06.44.44,0,0,1-.32-.15l-.07-.09a.32.32,0,0,1,.06-.54A3.17,3.17,0,0,0,350.5,206.41Z" class="cls-8"/><path data-cppathid="10099" transform="translate(-0.77 -1.2)" d="M267.43,236.19a.44.44,0,0,1-.36.23l-.16,0-.51-.15c-.19-.07-.28-.17-.28-.3a.51.51,0,0,1,.07-.22l4.29-6.89h-7.35q-.39,0-.39-.36t.39-.36h8.78c.22,0,.33.09.33.26a.43.43,0,0,1-.07.22Zm4.14-7.57a2.46,2.46,0,0,1-1-.21,1.79,1.79,0,0,1-.74-.57,1.31,1.31,0,0,1,0-1.62,1.79,1.79,0,0,1,.74-.57,2.46,2.46,0,0,1,1-.21,2.51,2.51,0,0,1,1,.21,1.83,1.83,0,0,1,.73.57,1.31,1.31,0,0,1,0,1.62,1.83,1.83,0,0,1-.73.57A2.51,2.51,0,0,1,271.57,228.62Zm0-.53a.72.72,0,0,0,.42-.15,1.32,1.32,0,0,0,.35-.39,1.08,1.08,0,0,0,.13-.52,1,1,0,0,0-.13-.52,1.17,1.17,0,0,0-.34-.39.71.71,0,0,0-.43-.14.73.73,0,0,0-.43.14,1.07,1.07,0,0,0-.34.39,1,1,0,0,0-.14.52,1.1,1.1,0,0,0,.14.52,1.2,1.2,0,0,0,.35.39A.72.72,0,0,0,271.54,228.09Z" class="cls-8"/><path data-cppathid="10100" transform="translate(-0.77 -1.2)" d="M283.88,235.88a.34.34,0,0,1-.39.39h-.75a.34.34,0,0,1-.37-.25h-6.11a.34.34,0,0,1-.37.25h-.74a.35.35,0,0,1-.4-.39v-7.3a.35.35,0,0,1,.4-.39h8.34a.34.34,0,0,1,.39.39Zm-1.53-7h-6.06v6.38h6.06Z" class="cls-8"/><path data-cppathid="10101" transform="translate(-0.77 -1.2)" d="M287.47,232.47a.37.37,0,0,1-.34.23h-.08l-.08,0-.57-.14q-.27-.08-.27-.3a.52.52,0,0,1,.06-.22l2.67-4.72a.36.36,0,0,1,.34-.23h.08l.09,0,.56.15c.18,0,.28.14.28.3a.48.48,0,0,1-.06.21l0,0h5.08c.23,0,.35.08.35.26a.61.61,0,0,1-.07.22l-4.59,7.94a.41.41,0,0,1-.36.23h-.07l-.08,0-.54-.14c-.2-.05-.29-.15-.29-.3a.43.43,0,0,1,.07-.22l1.82-3.15h0l-2.29-1.37a.32.32,0,0,1-.21-.28.36.36,0,0,1,.17-.27l.15-.12a.41.41,0,0,1,.3-.12.41.41,0,0,1,.25.08l2.12,1.27,1.9-3.27h-4.09Zm8.3-4.69a.3.3,0,0,1,0,.1c0,.15-.11.24-.33.26l-.35,0c-.24,0-.4,0-.45-.23L294,226s0-.06,0-.1.11-.23.33-.25l.34,0c.26,0,.42.05.47.24Zm1.32-.55a.25.25,0,0,1,0,.1c0,.14-.11.22-.32.25l-.34,0c-.26,0-.42,0-.47-.24l-.61-1.78a.08.08,0,0,1,0-.05.13.13,0,0,1,0-.06q0-.19.33-.24l.34,0c.26,0,.42,0,.47.24Z" class="cls-8"/><path data-cppathid="10102" transform="translate(-0.77 -1.2)" d="M298.62,232.33a.42.42,0,0,1-.35.21.57.57,0,0,1-.18,0l-.49-.16c-.19-.06-.28-.16-.28-.3a.4.4,0,0,1,.09-.23l2.78-4.21a.43.43,0,0,1,.35-.22.58.58,0,0,1,.18,0l.49.16c.18.06.28.16.28.3a.4.4,0,0,1-.09.22l0,.08h5.54c.22,0,.33.08.33.25a.49.49,0,0,1-.07.23l-4.8,7.71a.44.44,0,0,1-.36.23l-.16,0-.51-.16c-.19-.06-.28-.16-.28-.3a.55.55,0,0,1,.07-.22l4.35-7h-4.59Z" class="cls-8"/><path data-cppathid="10103" transform="translate(-0.77 -1.2)" d="M311.52,236.26a.35.35,0,0,1-.4.4h-.74a.35.35,0,0,1-.4-.4v-8.34a.35.35,0,0,1,.4-.39h.74a.35.35,0,0,1,.4.39v3.41l4.34,1.4c.19.07.28.16.28.29a.47.47,0,0,1-.07.21l-.05.06a.42.42,0,0,1-.35.2h-.17l-4-1.29Z" class="cls-8"/><path data-cppathid="10104" transform="translate(-0.77 -1.2)" d="M319.32,235.75a.39.39,0,0,1-.46.3l-.69-.09c-.23,0-.34-.13-.34-.33,0,0,0-.07,0-.14l2-7a.38.38,0,0,1,.46-.3l.69.08c.23,0,.34.14.34.34,0,0,0,.07,0,.13Zm7.95-.28a.19.19,0,0,1,0,.07.2.2,0,0,1,0,.07c0,.2-.11.3-.33.33l-.7.08a.38.38,0,0,1-.46-.3l-2-7.05a.24.24,0,0,1,0-.08s0,0,0-.07c0-.19.11-.3.33-.32l.71-.09a.37.37,0,0,1,.45.32Zm-.44-6.62a.34.34,0,0,1,0,.11c0,.16-.11.26-.32.28l-.35,0a.37.37,0,0,1-.46-.26l-.62-2.08a.37.37,0,0,1,0-.11c0-.17.11-.26.32-.28l.35,0c.26,0,.41.05.47.26Zm1.32-.6a.28.28,0,0,1,0,.1c0,.16-.1.25-.31.28l-.35.05c-.25,0-.41-.05-.47-.26l-.61-1.94s0,0,0-.06v-.06c0-.15.11-.24.32-.27l.35-.05c.26,0,.41.06.47.26Z" class="cls-8"/><path data-cppathid="10105" transform="translate(-0.77 -1.2)" d="M330.92,232.61a.57.57,0,0,1,0,.14c0,.19-.1.3-.32.32l-.7.08a.38.38,0,0,1-.46-.32L329,231a.17.17,0,0,1,0-.07v-.06c0-.19.11-.3.32-.32l.7-.09a.39.39,0,0,1,.45.33Zm2-.3a.31.31,0,0,1,0,.1c0,.21-.12.32-.36.35l-.72.06a.37.37,0,0,1-.44-.35l-.33-1.85s0-.05,0-.09c0-.21.12-.33.36-.35l.72-.06a.36.36,0,0,1,.44.35Zm.63,3.95a.39.39,0,0,1-.38.27h-.06l-.06,0-.61-.14c-.19-.05-.29-.15-.29-.3a.46.46,0,0,1,.05-.2l2.42-5a.41.41,0,0,1,.39-.26h.12l.61.14c.19.05.29.15.29.3a.5.5,0,0,1-.05.21Z" class="cls-8"/><path data-cppathid="10106" transform="translate(-0.77 -1.2)" d="M338.91,232.33a.4.4,0,0,1-.34.21.57.57,0,0,1-.18,0l-.5-.16q-.27-.09-.27-.3a.46.46,0,0,1,.08-.23l2.79-4.21a.42.42,0,0,1,.34-.22.48.48,0,0,1,.18,0l.5.16q.27.09.27.3a.46.46,0,0,1-.08.22l-.05.08h5.53c.23,0,.34.08.34.25a.65.65,0,0,1-.07.23l-4.8,7.71a.44.44,0,0,1-.36.23l-.16,0-.52-.16q-.27-.09-.27-.3a.43.43,0,0,1,.07-.22l4.34-7h-4.58Z" class="cls-8"/><path data-cppathid="10107" transform="translate(-0.77 -1.2)" d="M359,235.88a.34.34,0,0,1-.39.39h-.75a.34.34,0,0,1-.37-.25h-6.11a.33.33,0,0,1-.37.25h-.74a.35.35,0,0,1-.4-.39v-7.3a.35.35,0,0,1,.4-.39h8.34a.34.34,0,0,1,.39.39Zm-1.53-7h-6.06v6.38h6.06Z" class="cls-8"/><path data-cppathid="10108" transform="translate(-0.77 -1.2)" d="M362.48,232.33a.41.41,0,0,1-.35.21l-.18,0-.49-.16q-.27-.09-.27-.3a.38.38,0,0,1,.08-.23l2.78-4.21a.45.45,0,0,1,.35-.22.48.48,0,0,1,.18,0l.49.16c.19.06.28.16.28.3a.46.46,0,0,1-.08.22l0,.08h5.53c.22,0,.34.08.34.25a.53.53,0,0,1-.08.23l-4.8,7.71a.41.41,0,0,1-.36.23l-.15,0-.52-.16q-.27-.09-.27-.3a.43.43,0,0,1,.07-.22l4.34-7h-4.58Zm8.58-4a.45.45,0,0,1,0,.13c0,.2-.1.31-.32.33l-.35,0a.35.35,0,0,1-.45-.31l-.63-2.52a.49.49,0,0,1,0-.13.32.32,0,0,1,.32-.34l.35-.05a.37.37,0,0,1,.47.32Zm1.32-.74a.57.57,0,0,1,0,.14c0,.18-.1.29-.31.33l-.35.06a.36.36,0,0,1-.46-.31l-.62-2.35s0-.05,0-.07a.22.22,0,0,1,0-.08c0-.17.11-.28.32-.32l.35-.06a.37.37,0,0,1,.47.31Z" class="cls-8"/><path data-cppathid="10109" transform="translate(-0.77 -1.2)" d="M376.69,236.31a.44.44,0,0,1-.3.13.56.56,0,0,1-.25-.08l-.28-.17a.33.33,0,0,1-.19-.28.42.42,0,0,1,.13-.26,4.55,4.55,0,0,0,1-2.07,16.65,16.65,0,0,0,.36-3.57c0-.27.13-.41.39-.41h.75c.27,0,.4.24.38.71s0,.71,0,1,0,.62-.07.9l0,0,2.7-3.66h-8.07q-.39,0-.39-.36t.39-.36h9.56q.33,0,.33.24a.45.45,0,0,1-.09.24l-3.26,4.42a.42.42,0,0,1-.36.2h-.07l-.09,0-.48-.17a.39.39,0,0,1-.24-.18,7.1,7.1,0,0,1-.62,2.21A4.84,4.84,0,0,1,376.69,236.31Z" class="cls-8"/><path data-cppathid="10110" transform="translate(-0.77 -1.2)" d="M385.4,233.42a.45.45,0,0,1-.25.07.44.44,0,0,1-.3-.12l-.12-.1a.38.38,0,0,1-.17-.27c0-.1.07-.19.21-.28l8.42-4.87a.5.5,0,0,1,.25-.07.44.44,0,0,1,.3.12l.12.09a.41.41,0,0,1,.17.28c0,.1-.07.19-.2.28l-3.34,1.93a.37.37,0,0,1,.1.27v5.4a.35.35,0,0,1-.4.4h-.74a.35.35,0,0,1-.4-.4v-4.84Z" class="cls-8"/><path data-cppathid="10111" transform="translate(-0.77 -1.2)" d="M400.67,236.33a.39.39,0,0,1-.48.29l-.68-.11c-.2,0-.31-.14-.31-.31a.19.19,0,0,1,0-.08.37.37,0,0,1,0-.09l1.44-4.54h-4.85c-.27,0-.4-.12-.4-.36s.13-.36.4-.36h9.3q.39,0,.39.36t-.39.36h-2.95v.08a.16.16,0,0,1,0,.08Zm3.87-8.71c.27,0,.4.12.4.36s-.13.36-.4.36h-7.91q-.39,0-.39-.36t.39-.36Z" class="cls-8"/><path data-cppathid="10112" transform="translate(-0.77 -1.2)" d="M416.83,236a.49.49,0,0,1,.06.22c0,.15-.09.25-.28.3l-.56.14-.08,0h-.09a.37.37,0,0,1-.33-.23l-.68-1.2-7.42,1.15c-.26,0-.39,0-.39-.23a.49.49,0,0,1,.06-.2l4-7.91a.4.4,0,0,1,.37-.24h.14l.57.13c.19,0,.29.15.29.3a.5.5,0,0,1-.05.21l-3.48,6.95,5.56-.87-1.11-1.94a.49.49,0,0,1-.06-.22c0-.15.1-.25.28-.3l.56-.14.09,0h.08a.37.37,0,0,1,.34.23Z" class="cls-8"/><path data-cppathid="10113" transform="translate(-0.77 -1.2)" d="M329.07,253a.32.32,0,0,1,.06.54l-.07.09a.42.42,0,0,1-.32.15.6.6,0,0,1-.23-.06q-2.62-1.38-2.63-5t2.63-5a.6.6,0,0,1,.23-.06.43.43,0,0,1,.32.16l.09.08a.37.37,0,0,1,.12.26.35.35,0,0,1-.2.28,3.21,3.21,0,0,0-.86,1,5.45,5.45,0,0,0-.58,1.49,7.63,7.63,0,0,0-.21,1.82,7.51,7.51,0,0,0,.21,1.82,5.79,5.79,0,0,0,.58,1.5A3.17,3.17,0,0,0,329.07,253Z" class="cls-8"/><path data-cppathid="10114" transform="translate(-0.77 -1.2)" d="M332.86,252.75a.41.41,0,0,1-.4.4h-.72a.38.38,0,0,1-.29-.12.38.38,0,0,1-.12-.28v-8.37a.35.35,0,0,1,.1-.26.4.4,0,0,1,.26-.12c.28,0,.54-.06.8-.07l.72,0c2.72,0,4.08,1.06,4.08,3.16a2.26,2.26,0,0,1-1,2,5.5,5.5,0,0,1-3,.68h-.41Zm0-8.13V249h.5a4.18,4.18,0,0,0,1.43-.2,1.27,1.27,0,0,0,.74-.63,2.56,2.56,0,0,0,.23-1.15,3.51,3.51,0,0,0-.24-1.43,1.42,1.42,0,0,0-.78-.78,3.76,3.76,0,0,0-1.49-.24Z" class="cls-8"/><path data-cppathid="10115" transform="translate(-0.77 -1.2)" d="M338.07,244.42a.38.38,0,0,1,.4-.42c.33,0,.64-.06.93-.07l.82,0a5.88,5.88,0,0,1,2.08.31,2.12,2.12,0,0,1,1.48,2.13,2.1,2.1,0,0,1-.37,1.25,2.51,2.51,0,0,1-1.38.83q1.92.66,1.92,2.19a2.68,2.68,0,0,1-.36,1.42,2.39,2.39,0,0,1-1.2.92,6.34,6.34,0,0,1-2.2.31h-.8l-.91-.07a.38.38,0,0,1-.41-.41Zm1.4.23V248a7,7,0,0,0,1.81-.23,1.84,1.84,0,0,0,1-.56,1.31,1.31,0,0,0,.3-.87,1.93,1.93,0,0,0-.19-.88,1.31,1.31,0,0,0-.65-.62,3.06,3.06,0,0,0-1.3-.23H340Zm0,7.9.38,0h.35a2.83,2.83,0,0,0,1.77-.48,1.73,1.73,0,0,0,.62-1.47,1.55,1.55,0,0,0-.71-1.38,5.11,5.11,0,0,0-2.41-.51Z" class="cls-8"/><path data-cppathid="10116" transform="translate(-0.77 -1.2)" d="M346.83,252.39v0h.52a.44.44,0,0,1,.29.11.3.3,0,0,1,.12.25.32.32,0,0,1-.12.26.43.43,0,0,1-.29.1h-2.57a.43.43,0,0,1-.29-.1.32.32,0,0,1-.12-.26.3.3,0,0,1,.12-.25.44.44,0,0,1,.29-.11h.52v-7.68h-.52a.43.43,0,0,1-.29-.1.32.32,0,0,1-.12-.26.3.3,0,0,1,.12-.25.44.44,0,0,1,.29-.11h2.57a.44.44,0,0,1,.29.11.3.3,0,0,1,.12.25.32.32,0,0,1-.12.26.43.43,0,0,1-.29.1h-.52v7.64Z" class="cls-8"/><path data-cppathid="10117" transform="translate(-0.77 -1.2)" d="M351.18,252a6.17,6.17,0,0,0,.58-1.5,7.51,7.51,0,0,0,.21-1.82,7.63,7.63,0,0,0-.21-1.82,5.79,5.79,0,0,0-.58-1.49,3.23,3.23,0,0,0-.87-1,.36.36,0,0,1-.19-.28.37.37,0,0,1,.12-.26l.08-.08a.47.47,0,0,1,.33-.16.7.7,0,0,1,.23.06q2.63,1.38,2.62,5t-2.62,5a.7.7,0,0,1-.23.06.46.46,0,0,1-.33-.15l-.07-.09a.32.32,0,0,1,.06-.54A3.19,3.19,0,0,0,351.18,252Z" class="cls-8"/><path data-cppathid="10118" transform="translate(-0.77 -1.2)" d="M268.23,283.27a.44.44,0,0,1-.36.23l-.16,0-.52-.15q-.27-.1-.27-.3a.4.4,0,0,1,.07-.22l4.28-6.89h-7.34c-.26,0-.4-.12-.4-.36s.14-.36.4-.36h8.77c.23,0,.34.09.34.25a.59.59,0,0,1-.07.23Zm4.14-7.57a2.54,2.54,0,0,1-1-.21,1.86,1.86,0,0,1-.74-.57,1.35,1.35,0,0,1,0-1.62,1.86,1.86,0,0,1,.74-.57,2.54,2.54,0,0,1,1-.21,2.43,2.43,0,0,1,1,.21,1.86,1.86,0,0,1,.74.57,1.35,1.35,0,0,1,0,1.62,1.86,1.86,0,0,1-.74.57A2.43,2.43,0,0,1,272.37,275.7Zm0-.53a.68.68,0,0,0,.42-.15,1.14,1.14,0,0,0,.35-.4,1,1,0,0,0,.14-.51,1.19,1.19,0,0,0-.13-.53,1.25,1.25,0,0,0-.34-.38.75.75,0,0,0-.44-.15.72.72,0,0,0-.42.15,1.16,1.16,0,0,0-.35.38,1.07,1.07,0,0,0-.13.53.94.94,0,0,0,.14.51,1.12,1.12,0,0,0,.34.4A.72.72,0,0,0,272.33,275.17Z" class="cls-8"/><path data-cppathid="10119" transform="translate(-0.77 -1.2)" d="M284.68,283a.35.35,0,0,1-.4.39h-.74a.33.33,0,0,1-.37-.25h-6.11a.34.34,0,0,1-.37.25h-.75a.34.34,0,0,1-.39-.39v-7.3a.35.35,0,0,1,.39-.4h.75l.1,0h7.49a.35.35,0,0,1,.4.39Zm-1.54-7h-6.06v6.38h6.06Z" class="cls-8"/><path data-cppathid="10120" transform="translate(-0.77 -1.2)" d="M288.27,279.55a.38.38,0,0,1-.34.23h-.08l-.09,0-.56-.14c-.19-.05-.28-.15-.28-.3a.49.49,0,0,1,.06-.22l2.68-4.73a.36.36,0,0,1,.33-.22h.09l.08,0,.57.14q.27.07.27.3a.49.49,0,0,1-.06.22v0H296c.23,0,.34.09.34.27a.43.43,0,0,1-.07.21l-4.58,7.95a.44.44,0,0,1-.36.23h-.07l-.09,0-.54-.14c-.19-.05-.29-.15-.29-.3a.42.42,0,0,1,.08-.22l1.82-3.15,0,0-2.3-1.36a.34.34,0,0,1-.2-.28.38.38,0,0,1,.17-.28l.14-.12a.44.44,0,0,1,.3-.12.4.4,0,0,1,.25.09l2.13,1.27,1.89-3.28h-4.09Zm8.3-4.69a.28.28,0,0,1,0,.1c0,.15-.11.24-.32.25l-.35,0c-.25,0-.4-.05-.46-.24l-.62-1.9a.31.31,0,0,1,0-.1c0-.15.11-.24.32-.26l.35,0c.26,0,.41,0,.47.24Zm1.32-.55a.25.25,0,0,1,0,.1c0,.13-.1.22-.31.25l-.35,0c-.25,0-.41,0-.47-.24l-.61-1.78,0-.05v-.06c0-.13.11-.21.32-.24l.35,0c.26,0,.41,0,.47.24Z" class="cls-8"/><path data-cppathid="10121" transform="translate(-0.77 -1.2)" d="M299.41,279.4a.39.39,0,0,1-.52.18l-.5-.15q-.27-.1-.27-.3a.46.46,0,0,1,.08-.23l2.79-4.21a.4.4,0,0,1,.34-.22.34.34,0,0,1,.18,0l.5.15q.27.1.27.3a.49.49,0,0,1-.08.23l-.05.07h5.53c.23,0,.34.09.34.26a.55.55,0,0,1-.07.22l-4.8,7.72a.44.44,0,0,1-.36.23l-.16,0-.52-.15q-.27-.11-.27-.3a.4.4,0,0,1,.07-.22l4.34-7h-4.58Z" class="cls-8"/><path data-cppathid="10122" transform="translate(-0.77 -1.2)" d="M312.31,283.34a.35.35,0,0,1-.39.4h-.75a.35.35,0,0,1-.39-.4V275a.35.35,0,0,1,.39-.4h.75a.35.35,0,0,1,.39.4v3.41l4.35,1.4c.18.07.27.16.27.29a.35.35,0,0,1-.07.2l-.05.06a.38.38,0,0,1-.34.21h-.08l-.09,0-4-1.28Z" class="cls-8"/><path data-cppathid="10123" transform="translate(-0.77 -1.2)" d="M320.11,282.82a.36.36,0,0,1-.45.3L319,283a.32.32,0,0,1-.33-.34.43.43,0,0,1,0-.13l2-7a.38.38,0,0,1,.45-.3l.7.08c.22,0,.34.14.34.34a.53.53,0,0,1,0,.13Zm8-.27s0,.05,0,.07v.07c0,.19-.1.3-.32.33l-.71.08a.38.38,0,0,1-.46-.3l-2-7.06a.15.15,0,0,1,0-.07.17.17,0,0,1,0-.07c0-.19.11-.3.32-.32l.71-.09a.38.38,0,0,1,.46.31Zm-.44-6.62s0,.06,0,.11-.11.25-.33.27l-.34,0c-.25,0-.41-.05-.46-.25l-.62-2.09a.27.27,0,0,1,0-.11q0-.24.33-.27l.35,0c.25,0,.41.05.46.25Zm1.32-.61s0,.07,0,.11-.11.25-.31.28l-.35.05c-.26,0-.41-.05-.47-.26l-.61-1.94a.14.14,0,0,1,0-.06.13.13,0,0,1,0-.06q0-.22.33-.27l.35-.05c.25,0,.41.05.46.26Z" class="cls-8"/><path data-cppathid="10124" transform="translate(-0.77 -1.2)" d="M331.72,279.69a.49.49,0,0,1,0,.13c0,.2-.11.3-.33.33l-.69.08a.39.39,0,0,1-.47-.32l-.45-1.85a.19.19,0,0,1,0-.07v-.06q0-.29.33-.33l.69-.08a.39.39,0,0,1,.46.32Zm2-.3s0,.06,0,.1c0,.21-.12.32-.36.35l-.72.06a.39.39,0,0,1-.45-.35l-.32-1.85a.28.28,0,0,1,0-.1c0-.2.12-.32.36-.34l.72-.06a.36.36,0,0,1,.44.34Zm.63,3.95a.39.39,0,0,1-.38.26h-.12l-.61-.14c-.2-.05-.29-.15-.29-.3a.41.41,0,0,1,.05-.21l2.42-5a.39.39,0,0,1,.38-.26h.12l.62.14c.19.05.28.15.28.3a.52.52,0,0,1,0,.21Z" class="cls-8"/><path data-cppathid="10125" transform="translate(-0.77 -1.2)" d="M339.71,279.4a.41.41,0,0,1-.35.22.45.45,0,0,1-.18,0l-.49-.15c-.18-.07-.28-.17-.28-.3a.4.4,0,0,1,.09-.23l2.78-4.21a.41.41,0,0,1,.35-.22.39.39,0,0,1,.18,0l.49.15c.19.07.28.17.28.3a.42.42,0,0,1-.09.23l0,.07H348c.22,0,.33.09.33.26a.43.43,0,0,1-.07.22l-4.8,7.72a.41.41,0,0,1-.36.23l-.15,0-.52-.15c-.18-.07-.28-.17-.28-.3a.42.42,0,0,1,.08-.22l4.34-7H342Z" class="cls-8"/><path data-cppathid="10126" transform="translate(-0.77 -1.2)" d="M359.75,283a.35.35,0,0,1-.4.39h-.74a.34.34,0,0,1-.37-.25h-6.11a.34.34,0,0,1-.37.25H351a.34.34,0,0,1-.39-.39v-7.3a.35.35,0,0,1,.39-.4h.75l.11,0h7.48a.35.35,0,0,1,.4.39Zm-1.54-7h-6.06v6.38h6.06Z" class="cls-8"/><path data-cppathid="10127" transform="translate(-0.77 -1.2)" d="M363.28,279.4a.41.41,0,0,1-.35.22.39.39,0,0,1-.18,0l-.49-.15c-.19-.07-.28-.17-.28-.3a.4.4,0,0,1,.09-.23l2.78-4.21a.41.41,0,0,1,.35-.22.39.39,0,0,1,.18,0l.49.15c.18.07.28.17.28.3a.42.42,0,0,1-.09.23l-.05.07h5.54c.22,0,.33.09.33.26a.43.43,0,0,1-.07.22l-4.8,7.72a.44.44,0,0,1-.36.23l-.16,0-.51-.15c-.19-.07-.28-.17-.28-.3a.51.51,0,0,1,.07-.22l4.35-7h-4.59Zm8.58-4a.57.57,0,0,1,0,.14.31.31,0,0,1-.32.33l-.35,0a.36.36,0,0,1-.46-.31l-.62-2.52a.49.49,0,0,1,0-.13.31.31,0,0,1,.32-.34l.35-.05a.38.38,0,0,1,.47.31Zm1.32-.73a.49.49,0,0,1,0,.13c0,.19-.1.3-.31.34l-.35.06a.37.37,0,0,1-.47-.31l-.61-2.35,0-.08v-.07c0-.17.1-.28.32-.32l.35-.06a.37.37,0,0,1,.47.31Z" class="cls-8"/><path data-cppathid="10128" transform="translate(-0.77 -1.2)" d="M377.49,283.39a.48.48,0,0,1-.3.13.59.59,0,0,1-.26-.08l-.27-.17a.33.33,0,0,1-.19-.28.42.42,0,0,1,.13-.26,4.55,4.55,0,0,0,1-2.07,16.11,16.11,0,0,0,.35-3.57.36.36,0,0,1,.4-.41h.74c.27,0,.4.24.39.71s0,.71,0,1,0,.62-.07.9l0-.05,2.7-3.66H374c-.26,0-.4-.12-.4-.36s.14-.36.4-.36h9.55c.23,0,.34.08.34.24a.36.36,0,0,1-.1.24l-3.25,4.43a.44.44,0,0,1-.36.19h-.08l-.09,0-.48-.17a.39.39,0,0,1-.24-.18,7,7,0,0,1-.61,2.2A5.17,5.17,0,0,1,377.49,283.39Z" class="cls-8"/><path data-cppathid="10129" transform="translate(-0.77 -1.2)" d="M386.2,280.5a.59.59,0,0,1-.25.07.41.41,0,0,1-.3-.12l-.12-.1a.36.36,0,0,1-.17-.27c0-.1.07-.19.2-.28l8.43-4.87a.47.47,0,0,1,.25-.07.44.44,0,0,1,.3.12l.12.09a.41.41,0,0,1,.17.28.35.35,0,0,1-.21.27l-3.33,1.94a.37.37,0,0,1,.09.27v5.4a.35.35,0,0,1-.39.4h-.75a.35.35,0,0,1-.39-.4v-4.85Z" class="cls-8"/><path data-cppathid="10130" transform="translate(-0.77 -1.2)" d="M401.46,283.41a.38.38,0,0,1-.48.29l-.67-.11c-.21,0-.31-.14-.31-.31v-.08s0-.06,0-.09l1.44-4.55h-4.85q-.39,0-.39-.36t.39-.36h9.3c.27,0,.4.12.4.36s-.13.36-.4.36h-3v.09a.31.31,0,0,1,0,.08Zm3.88-8.71q.39,0,.39.36t-.39.36h-7.91c-.26,0-.4-.12-.4-.36s.14-.36.4-.36Z" class="cls-8"/><path data-cppathid="10131" transform="translate(-0.77 -1.2)" d="M417.63,283.1a.49.49,0,0,1,.06.22c0,.15-.1.25-.28.3l-.56.14-.09,0h-.08a.36.36,0,0,1-.34-.22l-.67-1.2-7.43,1.15c-.25,0-.38,0-.38-.23a.45.45,0,0,1,.06-.2l4-7.91a.39.39,0,0,1,.37-.24h.13l.58.13c.19.05.29.15.29.3a.54.54,0,0,1-.05.21l-3.48,6.94,5.55-.86-1.1-1.94a.52.52,0,0,1-.06-.22c0-.15.09-.25.28-.3l.56-.14.08,0h.09a.37.37,0,0,1,.33.23Z" class="cls-8"/><path data-cppathid="10132" transform="translate(-0.77 -1.2)" d="M329.87,300.05a.32.32,0,0,1,.06.54l-.07.09a.46.46,0,0,1-.33.15.61.61,0,0,1-.22-.06c-1.76-.93-2.63-2.61-2.63-5s.87-4.12,2.63-5a.61.61,0,0,1,.22-.06.44.44,0,0,1,.33.16l.08.08a.37.37,0,0,1,.12.25.35.35,0,0,1-.19.29,3.15,3.15,0,0,0-.86,1,5.66,5.66,0,0,0-.59,1.5,8,8,0,0,0,0,3.64A5.72,5.72,0,0,0,329,299,3,3,0,0,0,329.87,300.05Z" class="cls-8"/><path data-cppathid="10133" transform="translate(-0.77 -1.2)" d="M333.66,299.82a.38.38,0,0,1-.12.29.4.4,0,0,1-.29.12h-.72a.4.4,0,0,1-.29-.12.38.38,0,0,1-.12-.29v-8.36a.36.36,0,0,1,.11-.26.3.3,0,0,1,.25-.12c.29,0,.55-.06.8-.07l.73,0q4.08,0,4.08,3.16a2.26,2.26,0,0,1-1,2,5.44,5.44,0,0,1-3,.68h-.41Zm0-8.12v4.42h.49a4.25,4.25,0,0,0,1.44-.2,1.28,1.28,0,0,0,.74-.64,2.49,2.49,0,0,0,.22-1.14,3.61,3.61,0,0,0-.23-1.44,1.5,1.5,0,0,0-.78-.77,3.82,3.82,0,0,0-1.5-.24Z" class="cls-8"/><path data-cppathid="10134" transform="translate(-0.77 -1.2)" d="M338.87,291.5a.38.38,0,0,1,.4-.42c.32,0,.63-.06.92-.07l.83,0a5.64,5.64,0,0,1,2.07.31,2.11,2.11,0,0,1,1.49,2.13,2.1,2.1,0,0,1-.38,1.25,2.42,2.42,0,0,1-1.37.82c1.28.44,1.92,1.18,1.92,2.2a2.59,2.59,0,0,1-.37,1.42,2.26,2.26,0,0,1-1.19.91,6.11,6.11,0,0,1-2.21.32c-.25,0-.51,0-.8,0l-.9-.06c-.27,0-.41-.16-.41-.41Zm1.39.22v3.36a7,7,0,0,0,1.81-.22,1.92,1.92,0,0,0,1-.56,1.4,1.4,0,0,0,.29-.87,2.07,2.07,0,0,0-.18-.88,1.34,1.34,0,0,0-.66-.62,3,3,0,0,0-1.29-.23h-.94Zm0,7.91H341a2.84,2.84,0,0,0,1.78-.47,1.75,1.75,0,0,0,.61-1.47,1.51,1.51,0,0,0-.71-1.38,5,5,0,0,0-2.41-.52Z" class="cls-8"/><path data-cppathid="10135" transform="translate(-0.77 -1.2)" d="M347.63,299.46v.05h.51a.46.46,0,0,1,.29.1.34.34,0,0,1,.12.26.32.32,0,0,1-.12.26.41.41,0,0,1-.29.1h-2.56a.41.41,0,0,1-.29-.1.32.32,0,0,1-.12-.26.34.34,0,0,1,.12-.26.46.46,0,0,1,.29-.1h.51v-7.68h-.51a.41.41,0,0,1-.29-.1.32.32,0,0,1-.12-.26.34.34,0,0,1,.12-.26.46.46,0,0,1,.29-.1h2.56a.46.46,0,0,1,.29.1.34.34,0,0,1,.12.26.32.32,0,0,1-.12.26.41.41,0,0,1-.29.1h-.51v7.63Z" class="cls-8"/><path data-cppathid="10136" transform="translate(-0.77 -1.2)" d="M352,299a5.71,5.71,0,0,0,.58-1.49,8,8,0,0,0,0-3.64,5.65,5.65,0,0,0-.58-1.5,3.28,3.28,0,0,0-.86-1,.35.35,0,0,1-.19-.29.37.37,0,0,1,.12-.25l.08-.08a.42.42,0,0,1,.32-.16.6.6,0,0,1,.23.06q2.63,1.38,2.63,5t-2.63,5a.6.6,0,0,1-.23.06.44.44,0,0,1-.32-.15l-.07-.09a.32.32,0,0,1,.06-.54A3.1,3.1,0,0,0,352,299Z" class="cls-8"/><g class="cls-10"><path data-cppathid="10137" transform="translate(-0.77 -1.2)" d="M279.47,333.13a.34.34,0,0,1-.3.19l-.13,0-.43-.13c-.15-.05-.23-.14-.23-.25a.38.38,0,0,1,.06-.18L282,327h-6.12q-.33,0-.33-.3t.33-.3h7.31c.19,0,.28.07.28.21a.41.41,0,0,1-.06.19Zm3.45-6.31a2.2,2.2,0,0,1-.86-.17,1.56,1.56,0,0,1-.61-.48,1,1,0,0,1-.23-.67,1.06,1.06,0,0,1,.23-.68,1.45,1.45,0,0,1,.61-.47,2.29,2.29,0,0,1,1.73,0,1.45,1.45,0,0,1,.61.47,1.12,1.12,0,0,1,.23.68,1.09,1.09,0,0,1-.23.67,1.56,1.56,0,0,1-.61.48A2.21,2.21,0,0,1,282.92,326.82Zm0-.44a.62.62,0,0,0,.35-.12,1.32,1.32,0,0,0,.29-.33,1,1,0,0,0,.11-.43.93.93,0,0,0-.11-.44,1,1,0,0,0-.28-.32.6.6,0,0,0-.72,0,1,1,0,0,0-.29.32.93.93,0,0,0-.11.44.85.85,0,0,0,.12.43,1,1,0,0,0,.29.33A.59.59,0,0,0,282.9,326.38Z" class="cls-8"/><path data-cppathid="10138" transform="translate(-0.77 -1.2)" d="M293.18,332.87a.29.29,0,0,1-.33.33h-.62a.29.29,0,0,1-.31-.21h-5.09a.28.28,0,0,1-.31.21h-.62a.29.29,0,0,1-.33-.33v-6.08a.29.29,0,0,1,.33-.33h7a.29.29,0,0,1,.33.33Zm-1.28-5.8h-5v5.32h5Z" class="cls-8"/><path data-cppathid="10139" transform="translate(-0.77 -1.2)" d="M296.17,330a.3.3,0,0,1-.28.19h-.07l-.07,0-.47-.12c-.15,0-.23-.12-.23-.25a.49.49,0,0,1,.05-.18l2.23-3.94a.31.31,0,0,1,.28-.19h.14l.47.12c.16,0,.23.12.23.25a.35.35,0,0,1-.05.18v0h4.23c.2,0,.29.07.29.22a.38.38,0,0,1-.06.18L299,333.13a.34.34,0,0,1-.3.19h-.06l-.07,0-.45-.12c-.16,0-.24-.12-.24-.25a.38.38,0,0,1,.06-.18l1.52-2.63h0L297.56,329a.27.27,0,0,1-.17-.23.31.31,0,0,1,.14-.23l.12-.1a.36.36,0,0,1,.25-.1.31.31,0,0,1,.21.07l1.77,1.06,1.58-2.73h-3.41Zm6.92-3.91a.22.22,0,0,1,0,.09q0,.18-.27.21l-.29,0c-.2,0-.33,0-.38-.2l-.52-1.58s0-.05,0-.09.09-.2.27-.21l.29,0c.22,0,.35,0,.39.2Zm1.1-.46a.22.22,0,0,1,0,.09c0,.11-.08.18-.26.21l-.29,0c-.21,0-.34,0-.39-.2l-.51-1.48s0,0,0-.05v0q0-.17.27-.21l.29,0c.22,0,.35,0,.39.2Z" class="cls-8"/><path data-cppathid="10140" transform="translate(-0.77 -1.2)" d="M305.46,329.91a.34.34,0,0,1-.29.18l-.15,0-.41-.13c-.15-.05-.23-.14-.23-.25a.4.4,0,0,1,.07-.19l2.32-3.51a.35.35,0,0,1,.29-.18.33.33,0,0,1,.15,0l.41.13c.16.05.23.14.23.25a.34.34,0,0,1-.07.19l0,.06h4.61c.19,0,.28.07.28.21a.41.41,0,0,1-.06.19l-4,6.43a.34.34,0,0,1-.3.19l-.13,0-.43-.13c-.15-.05-.23-.14-.23-.25a.38.38,0,0,1,.06-.18l3.62-5.84h-3.82Z" class="cls-8"/><path data-cppathid="10141" transform="translate(-0.77 -1.2)" d="M316.21,333.19a.29.29,0,0,1-.33.33h-.62a.29.29,0,0,1-.33-.33v-6.95a.29.29,0,0,1,.33-.33h.62a.29.29,0,0,1,.33.33v2.84l3.62,1.17c.16.05.23.13.23.24a.32.32,0,0,1-.06.17l0,0a.34.34,0,0,1-.29.17h-.06l-.08,0-3.32-1.07Z" class="cls-8"/><path data-cppathid="10142" transform="translate(-0.77 -1.2)" d="M322.71,332.76a.31.31,0,0,1-.38.25l-.58-.07c-.18,0-.27-.11-.27-.28a.54.54,0,0,1,0-.11l1.7-5.87a.3.3,0,0,1,.37-.25l.59.07c.18,0,.27.11.27.28a.28.28,0,0,1,0,.11Zm6.63-.23a.14.14,0,0,1,0,.06v.06q0,.24-.27.27l-.59.07a.31.31,0,0,1-.38-.25l-1.66-5.88s0,0,0-.06,0,0,0-.06.09-.25.27-.27l.59-.07a.32.32,0,0,1,.39.26ZM329,327v.09c0,.14-.08.22-.27.24l-.29,0a.3.3,0,0,1-.38-.22l-.52-1.73v-.09c0-.14.08-.22.26-.23l.29,0c.22,0,.35.05.39.22Zm1.09-.5a.22.22,0,0,1,0,.09c0,.13-.08.2-.26.23l-.29,0c-.21,0-.34,0-.38-.21l-.52-1.62a.43.43,0,0,0,0-.05s0,0,0-.05.09-.2.27-.22l.29-.05c.22,0,.35.05.39.22Z" class="cls-8"/><path data-cppathid="10143" transform="translate(-0.77 -1.2)" d="M332.38,330.15a.31.31,0,0,1,0,.11c0,.16-.1.25-.28.27l-.58.07a.34.34,0,0,1-.39-.27l-.38-1.54s0,0,0-.06v-.05q0-.24.27-.27l.58-.07a.32.32,0,0,1,.38.27Zm1.64-.25a.19.19,0,0,1,0,.08c0,.17-.1.27-.3.29l-.6.05a.32.32,0,0,1-.37-.29l-.27-1.54s0-.05,0-.08.1-.27.3-.29l.6-.05a.31.31,0,0,1,.37.29Zm.53,3.29a.32.32,0,0,1-.32.22h-.1l-.51-.12c-.16,0-.24-.12-.24-.25a.47.47,0,0,1,0-.17l2-4.17a.34.34,0,0,1,.32-.22h.1l.51.12c.16,0,.24.12.24.25a.33.33,0,0,1,0,.17Z" class="cls-8"/><path data-cppathid="10144" transform="translate(-0.77 -1.2)" d="M339,329.91a.34.34,0,0,1-.29.18l-.15,0-.41-.13c-.15-.05-.23-.14-.23-.25a.4.4,0,0,1,.07-.19l2.32-3.51a.35.35,0,0,1,.29-.18.33.33,0,0,1,.15,0l.41.13c.16.05.23.14.23.25a.34.34,0,0,1-.07.19l0,.06h4.61c.19,0,.28.07.28.21a.41.41,0,0,1-.06.19l-4,6.43a.34.34,0,0,1-.3.19l-.13,0-.43-.13c-.15-.05-.23-.14-.23-.25a.38.38,0,0,1,.06-.18l3.62-5.84h-3.82Z" class="cls-8"/><path data-cppathid="10145" transform="translate(-0.77 -1.2)" d="M355.74,332.87a.29.29,0,0,1-.33.33h-.62a.29.29,0,0,1-.31-.21H349.4a.3.3,0,0,1-.32.21h-.62a.29.29,0,0,1-.33-.33v-6.08a.29.29,0,0,1,.33-.33h7a.29.29,0,0,1,.33.33Zm-1.28-5.8h-5v5.32h5Z" class="cls-8"/><path data-cppathid="10146" transform="translate(-0.77 -1.2)" d="M358.69,329.91a.36.36,0,0,1-.29.18l-.16,0-.41-.13c-.15-.05-.23-.14-.23-.25a.34.34,0,0,1,.08-.19L360,326a.35.35,0,0,1,.29-.18.41.41,0,0,1,.16,0l.41.13c.15.05.22.14.22.25a.34.34,0,0,1-.07.19l0,.06h4.61c.19,0,.28.07.28.21a.41.41,0,0,1-.06.19l-4,6.43a.34.34,0,0,1-.3.19l-.13,0-.42-.13c-.16-.05-.24-.14-.24-.25a.41.41,0,0,1,.07-.18l3.62-5.84h-3.83Zm7.14-3.35a.31.31,0,0,1,0,.11c0,.17-.1.26-.28.28l-.29,0a.3.3,0,0,1-.38-.26l-.51-2.1a.31.31,0,0,1,0-.11c0-.17.09-.26.28-.28l.29,0a.3.3,0,0,1,.38.26Zm1.11-.61v.11a.27.27,0,0,1-.25.28l-.29.05a.31.31,0,0,1-.4-.26l-.51-2s0,0,0-.06v-.06c0-.15.08-.24.26-.27l.29,0a.31.31,0,0,1,.4.26Z" class="cls-8"/><path data-cppathid="10147" transform="translate(-0.77 -1.2)" d="M370.52,333.23a.4.4,0,0,1-.25.11.43.43,0,0,1-.21-.07l-.23-.14c-.1-.07-.16-.14-.16-.23a.41.41,0,0,1,.11-.22,3.74,3.74,0,0,0,.83-1.72,13.78,13.78,0,0,0,.29-3,.3.3,0,0,1,.33-.34h.62c.23,0,.34.2.32.59s0,.6,0,.87,0,.52-.07.75l0,0,2.25-3.05h-6.71c-.23,0-.34-.1-.34-.3s.11-.3.34-.3h8c.19,0,.28.07.28.2a.35.35,0,0,1-.07.2l-2.71,3.69a.37.37,0,0,1-.31.16h-.06l-.08,0-.4-.14a.27.27,0,0,1-.19-.15,6.31,6.31,0,0,1-.52,1.84A4,4,0,0,1,370.52,333.23Z" class="cls-8"/><path data-cppathid="10148" transform="translate(-0.77 -1.2)" d="M377.78,330.82a.37.37,0,0,1-.21.06.36.36,0,0,1-.25-.1l-.09-.08a.31.31,0,0,1-.14-.23.28.28,0,0,1,.17-.23l7-4.06a.48.48,0,0,1,.21-.06.33.33,0,0,1,.25.1l.11.08a.34.34,0,0,1,.14.23.3.3,0,0,1-.17.23L382,328.37a.28.28,0,0,1,.08.23v4.5a.29.29,0,0,1-.33.33h-.62a.3.3,0,0,1-.33-.33v-4Z" class="cls-8"/><path data-cppathid="10149" transform="translate(-0.77 -1.2)" d="M390.51,333.25a.34.34,0,0,1-.41.24l-.55-.09c-.18,0-.27-.12-.27-.26s0-.05,0-.07a.25.25,0,0,1,0-.07l1.2-3.79h-4c-.23,0-.33-.1-.33-.3s.1-.3.33-.3h7.75q.33,0,.33.3t-.33.3h-2.46v.07a.13.13,0,0,1,0,.07Zm3.22-7.26c.23,0,.33.1.33.3s-.1.3-.33.3h-6.58c-.22,0-.34-.1-.34-.3s.12-.3.34-.3Z" class="cls-8"/><path data-cppathid="10150" transform="translate(-0.77 -1.2)" d="M404,333a.45.45,0,0,1,0,.18c0,.13-.07.21-.22.25l-.48.12-.06,0h-.07a.31.31,0,0,1-.29-.19l-.55-1-6.2,1c-.21,0-.31,0-.31-.19a.32.32,0,0,1,.05-.17l3.3-6.59a.31.31,0,0,1,.3-.2h.11l.49.11c.15,0,.23.12.23.25a.33.33,0,0,1,0,.17l-2.89,5.79,4.63-.72-.92-1.62a.35.35,0,0,1-.05-.18c0-.13.07-.21.22-.25l.47-.12h.15a.31.31,0,0,1,.28.19Z" class="cls-8"/><path data-cppathid="10151" transform="translate(-0.77 -1.2)" d="M330.84,346a.27.27,0,0,1,.05.45l-.06.07a.35.35,0,0,1-.27.13.67.67,0,0,1-.19-.05,5.12,5.12,0,0,1,0-8.4.67.67,0,0,1,.19,0,.35.35,0,0,1,.27.13l.07.07a.29.29,0,0,1,.1.21.29.29,0,0,1-.16.24,2.82,2.82,0,0,0-.72.83,4.86,4.86,0,0,0-.48,1.25,6.51,6.51,0,0,0,0,3,4.93,4.93,0,0,0,.48,1.24A2.75,2.75,0,0,0,330.84,346Z" class="cls-8"/><path data-cppathid="10152" transform="translate(-0.77 -1.2)" d="M334,345.76a.33.33,0,0,1-.1.24.3.3,0,0,1-.24.1h-.6a.33.33,0,0,1-.24-.1.37.37,0,0,1-.1-.24v-7a.29.29,0,0,1,.09-.22.32.32,0,0,1,.21-.1c.24,0,.46,0,.67-.05l.6,0q3.4,0,3.4,2.63a1.89,1.89,0,0,1-.85,1.69,4.61,4.61,0,0,1-2.5.56H334Zm0-6.77v3.68h.41a3.77,3.77,0,0,0,1.2-.16,1.13,1.13,0,0,0,.62-.53,2.22,2.22,0,0,0,.18-1,3.08,3.08,0,0,0-.19-1.2,1.23,1.23,0,0,0-.65-.64,3.23,3.23,0,0,0-1.25-.2Z" class="cls-8"/><path data-cppathid="10153" transform="translate(-0.77 -1.2)" d="M338.34,338.82a.32.32,0,0,1,.33-.35c.28,0,.53,0,.78-.05l.68,0a4.81,4.81,0,0,1,1.73.26,1.87,1.87,0,0,1,.95.71,1.93,1.93,0,0,1,.29,1.06,1.78,1.78,0,0,1-.31,1.05,2.07,2.07,0,0,1-1.15.68c1.07.37,1.6,1,1.6,1.83a2.26,2.26,0,0,1-.3,1.19,2,2,0,0,1-1,.76,5.41,5.41,0,0,1-1.84.26h-.66l-.76-.06c-.22,0-.34-.13-.34-.34Zm1.16.19v2.8a5.35,5.35,0,0,0,1.51-.19,1.54,1.54,0,0,0,.81-.46,1.16,1.16,0,0,0,.24-.73,1.7,1.7,0,0,0-.15-.73,1.16,1.16,0,0,0-.55-.52,2.46,2.46,0,0,0-1.08-.19h-.78Zm0,6.59h.61a2.4,2.4,0,0,0,1.48-.39,1.48,1.48,0,0,0,.51-1.23,1.26,1.26,0,0,0-.59-1.15,4.16,4.16,0,0,0-2-.43Z" class="cls-8"/><path data-cppathid="10154" transform="translate(-0.77 -1.2)" d="M345.64,345.46v0h.43a.36.36,0,0,1,.24.08.29.29,0,0,1,0,.44.36.36,0,0,1-.24.08h-2.14a.41.41,0,0,1-.24-.08.29.29,0,0,1,0-.44.41.41,0,0,1,.24-.08h.43v-6.4h-.43a.41.41,0,0,1-.24-.08.29.29,0,0,1,0-.44.41.41,0,0,1,.24-.08h2.14a.36.36,0,0,1,.24.08.29.29,0,0,1,0,.44.36.36,0,0,1-.24.08h-.43v6.36Z" class="cls-8"/><path data-cppathid="10155" transform="translate(-0.77 -1.2)" d="M349.26,345.11a4.94,4.94,0,0,0,.49-1.24,6.88,6.88,0,0,0,0-3,4.86,4.86,0,0,0-.49-1.25,2.56,2.56,0,0,0-.72-.83.31.31,0,0,1-.16-.24.34.34,0,0,1,.1-.21l.07-.07a.35.35,0,0,1,.27-.13.59.59,0,0,1,.19,0,5.12,5.12,0,0,1,0,8.4.59.59,0,0,1-.19.05.35.35,0,0,1-.27-.13l-.06-.07a.34.34,0,0,1-.1-.21.3.3,0,0,1,.15-.24A2.5,2.5,0,0,0,349.26,345.11Z" class="cls-8"/></g><g class="cls-11"><path data-cppathid="10156" transform="translate(-0.77 -1.2)" d="M290.31,373.6a.27.27,0,0,1-.24.15.22.22,0,0,1-.1,0l-.35-.1c-.12,0-.18-.11-.18-.2a.3.3,0,0,1,.05-.14l2.86-4.6h-4.9c-.18,0-.26-.08-.26-.24s.08-.24.26-.24h5.85c.15,0,.22.06.22.17a.33.33,0,0,1,0,.15Zm2.76-5.05a1.58,1.58,0,0,1-.69-.14,1.25,1.25,0,0,1-.49-.38.9.9,0,0,1,0-1.08,1.35,1.35,0,0,1,.49-.38,1.8,1.8,0,0,1,1.39,0,1.35,1.35,0,0,1,.49.38.9.9,0,0,1,0,1.08,1.25,1.25,0,0,1-.49.38A1.59,1.59,0,0,1,293.07,368.55Zm0-.35a.44.44,0,0,0,.28-.1,1,1,0,0,0,.23-.26.74.74,0,0,0,.1-.35.73.73,0,0,0-.09-.35.79.79,0,0,0-.23-.25.46.46,0,0,0-.29-.1.46.46,0,0,0-.28.1.69.69,0,0,0-.23.25.73.73,0,0,0,0,.7,1,1,0,0,0,.23.26A.46.46,0,0,0,293.05,368.2Z" class="cls-8"/><path data-cppathid="10157" transform="translate(-0.77 -1.2)" d="M301.28,373.39a.23.23,0,0,1-.26.26h-.5a.23.23,0,0,1-.25-.16H296.2c0,.11-.11.16-.25.16h-.49c-.18,0-.27-.08-.27-.26v-4.86a.24.24,0,0,1,.27-.27H301a.23.23,0,0,1,.26.26Zm-1-4.64h-4V373h4Z" class="cls-8"/><path data-cppathid="10158" transform="translate(-0.77 -1.2)" d="M303.67,371.12a.24.24,0,0,1-.22.15h-.06l-.05,0-.38-.09a.2.2,0,0,1-.18-.2.34.34,0,0,1,0-.15l1.78-3.15a.24.24,0,0,1,.22-.15h.06l.06,0,.37.09c.13,0,.19.1.19.2a.48.48,0,0,1,0,.15h3.37c.16,0,.23.06.23.18a.3.3,0,0,1,0,.14L306,373.6a.27.27,0,0,1-.24.15h-.05l-.05,0-.36-.09c-.13,0-.2-.1-.2-.2a.37.37,0,0,1,.05-.15l1.22-2.1h0l-1.53-.91a.21.21,0,0,1-.13-.18.26.26,0,0,1,.11-.19l.1-.08a.3.3,0,0,1,.2-.08.29.29,0,0,1,.17.06l1.41.85,1.26-2.19h-2.72Zm5.54-3.13s0,0,0,.07-.07.16-.22.17l-.23,0c-.17,0-.27,0-.31-.15l-.41-1.27a.15.15,0,0,1,0-.07c0-.1.07-.16.22-.17l.23,0c.17,0,.27,0,.31.15Zm.88-.37s0,0,0,.07-.07.15-.21.17l-.23,0c-.17,0-.28,0-.32-.16l-.4-1.18s0,0,0,0v0c0-.09.07-.15.22-.17l.23,0c.17,0,.27,0,.31.16Z" class="cls-8"/><path data-cppathid="10159" transform="translate(-0.77 -1.2)" d="M311.1,371a.27.27,0,0,1-.23.15l-.12,0-.33-.1c-.12,0-.18-.11-.18-.2a.24.24,0,0,1,.06-.15l1.85-2.81a.28.28,0,0,1,.23-.15.21.21,0,0,1,.12,0l.33.1c.12.05.19.11.19.2a.24.24,0,0,1-.06.15l0,.05h3.69c.15,0,.22.06.22.17a.37.37,0,0,1,0,.15l-3.2,5.15a.27.27,0,0,1-.24.15l-.1,0-.35-.1c-.12,0-.18-.11-.18-.2a.37.37,0,0,1,0-.15l2.89-4.67h-3.05Z" class="cls-8"/><path data-cppathid="10160" transform="translate(-0.77 -1.2)" d="M319.7,373.65a.23.23,0,0,1-.26.26h-.5a.23.23,0,0,1-.26-.26v-5.56a.24.24,0,0,1,.26-.27h.5c.18,0,.26.09.26.27v2.27l2.9.93c.12,0,.18.11.18.2a.24.24,0,0,1,0,.13l0,0a.25.25,0,0,1-.23.14h-.11l-2.66-.85Z" class="cls-8"/><path data-cppathid="10161" transform="translate(-0.77 -1.2)" d="M324.9,373.3a.24.24,0,0,1-.3.2l-.46-.05c-.15,0-.23-.09-.23-.23s0,0,0-.09l1.35-4.69a.25.25,0,0,1,.3-.2l.47.05c.15,0,.22.09.22.23a.44.44,0,0,1,0,.09Zm5.31-.18a.43.43,0,0,1,0,.05v0c0,.13-.08.2-.22.22l-.47.06a.26.26,0,0,1-.31-.2l-1.33-4.71a.11.11,0,0,0,0-.05v0c0-.13.07-.2.21-.22l.48-.06a.25.25,0,0,1,.3.21Zm-.3-4.41s0,0,0,.07-.07.17-.22.18l-.23,0a.24.24,0,0,1-.3-.17l-.42-1.39s0,0,0-.07.08-.18.22-.19l.23,0c.17,0,.28,0,.31.18Zm.88-.41a.15.15,0,0,1,0,.07c0,.11-.07.17-.21.19l-.23,0c-.17,0-.27,0-.31-.17l-.41-1.3s0,0,0,0,0,0,0,0,.08-.15.22-.17l.23,0c.17,0,.28,0,.32.17Z" class="cls-8"/><path data-cppathid="10162" transform="translate(-0.77 -1.2)" d="M332.64,371.21a.28.28,0,0,1,0,.09c0,.13-.07.2-.22.22l-.46.05a.25.25,0,0,1-.31-.21l-.31-1.23V370c0-.13.07-.2.21-.22l.46-.05a.25.25,0,0,1,.31.21ZM334,371a.15.15,0,0,1,0,.07c0,.14-.08.21-.24.23l-.48,0a.25.25,0,0,1-.3-.23l-.21-1.23a.15.15,0,0,1,0-.07c0-.14.08-.21.24-.23l.48,0c.17,0,.26.06.3.23Zm.43,2.64a.28.28,0,0,1-.26.17H334l-.41-.09c-.13,0-.19-.1-.19-.2a.32.32,0,0,1,0-.14l1.62-3.33a.27.27,0,0,1,.26-.18h.07l.41.09c.13,0,.19.1.19.2a.32.32,0,0,1,0,.14Z" class="cls-8"/><path data-cppathid="10163" transform="translate(-0.77 -1.2)" d="M338,371a.28.28,0,0,1-.23.15.27.27,0,0,1-.12,0l-.33-.1c-.12,0-.19-.11-.19-.2a.24.24,0,0,1,.06-.15l1.86-2.81a.27.27,0,0,1,.23-.15l.12,0,.33.1c.12.05.18.11.18.2a.24.24,0,0,1-.06.15l0,.05h3.69c.15,0,.22.06.22.17a.34.34,0,0,1,0,.15l-3.2,5.15a.3.3,0,0,1-.24.15l-.11,0-.34-.1c-.12,0-.19-.11-.19-.2a.37.37,0,0,1,.05-.15l2.9-4.67h-3.06Z" class="cls-8"/><path data-cppathid="10164" transform="translate(-0.77 -1.2)" d="M351.33,373.39c0,.18-.09.26-.27.26h-.49a.23.23,0,0,1-.25-.16h-4.07a.23.23,0,0,1-.25.16h-.5a.23.23,0,0,1-.26-.26v-4.86a.24.24,0,0,1,.26-.27h5.56a.24.24,0,0,1,.27.26Zm-1-4.64h-4V373h4Z" class="cls-8"/><path data-cppathid="10165" transform="translate(-0.77 -1.2)" d="M353.68,371a.25.25,0,0,1-.35.12L353,371c-.12,0-.18-.11-.18-.2a.23.23,0,0,1,.05-.15l1.86-2.81a.27.27,0,0,1,.23-.15l.12,0,.33.1c.12.05.18.11.18.2a.3.3,0,0,1,0,.15l0,.05h3.69c.15,0,.23.06.23.17a.37.37,0,0,1-.05.15l-3.2,5.15a.3.3,0,0,1-.24.15l-.11,0-.34-.1c-.12,0-.18-.11-.18-.2a.34.34,0,0,1,0-.15l2.9-4.67h-3.06Zm5.72-2.68s0,.05,0,.09a.2.2,0,0,1-.22.22l-.23,0a.24.24,0,0,1-.3-.21l-.42-1.68a.22.22,0,0,1,0-.09.2.2,0,0,1,.22-.22l.23,0a.25.25,0,0,1,.31.21Zm.88-.49s0,.06,0,.09-.07.2-.21.23l-.23,0a.25.25,0,0,1-.31-.21l-.41-1.57a.09.09,0,0,1,0-.05.07.07,0,0,1,0-.05c0-.11.07-.18.22-.21l.23,0a.24.24,0,0,1,.31.21Z" class="cls-8"/><path data-cppathid="10166" transform="translate(-0.77 -1.2)" d="M363.15,373.68a.3.3,0,0,1-.2.09.35.35,0,0,1-.17-.06l-.18-.11a.23.23,0,0,1-.13-.19.31.31,0,0,1,.09-.17,3.18,3.18,0,0,0,.66-1.38,11.35,11.35,0,0,0,.24-2.38c0-.18.08-.27.26-.27h.5c.18,0,.26.15.25.47s0,.47,0,.69,0,.42-.05.6l0,0,1.8-2.44h-5.37q-.27,0-.27-.24t.27-.24h6.37c.14,0,.22.06.22.16a.29.29,0,0,1-.06.16l-2.17,3a.3.3,0,0,1-.24.13h-.12l-.32-.12a.21.21,0,0,1-.15-.12,4.7,4.7,0,0,1-.41,1.47A3.52,3.52,0,0,1,363.15,373.68Z" class="cls-8"/><path data-cppathid="10167" transform="translate(-0.77 -1.2)" d="M369,371.75a.37.37,0,0,1-.17.05.32.32,0,0,1-.2-.08l-.08-.07a.26.26,0,0,1-.11-.18.22.22,0,0,1,.13-.18l5.62-3.25a.41.41,0,0,1,.17-.05.32.32,0,0,1,.2.08l.08.06a.29.29,0,0,1,.11.19c0,.06,0,.12-.14.18l-2.22,1.29a.24.24,0,0,1,.06.18v3.6c0,.18-.08.27-.26.27h-.5a.24.24,0,0,1-.26-.27v-3.23Z" class="cls-8"/><path data-cppathid="10168" transform="translate(-0.77 -1.2)" d="M379.14,373.69a.27.27,0,0,1-.33.2l-.44-.08c-.14,0-.21-.09-.21-.2v-.06l0-.06,1-3H375.9c-.17,0-.26-.08-.26-.24s.09-.24.26-.24h6.2q.27,0,.27.24t-.27.24h-2v.06l0,.05Zm2.58-5.8c.18,0,.26.08.26.24s-.08.24-.26.24h-5.27q-.27,0-.27-.24t.27-.24Z" class="cls-8"/><path data-cppathid="10169" transform="translate(-0.77 -1.2)" d="M389.91,373.49a.27.27,0,0,1,0,.14.2.2,0,0,1-.18.2l-.38.1h-.11a.26.26,0,0,1-.23-.15l-.44-.8-5,.77c-.17,0-.25,0-.25-.15a.27.27,0,0,1,0-.14l2.64-5.27a.25.25,0,0,1,.25-.16h.08l.39.08c.13,0,.19.1.19.2a.32.32,0,0,1,0,.14l-2.32,4.63,3.7-.57-.73-1.3a.27.27,0,0,1,0-.14.2.2,0,0,1,.18-.2l.38-.1h.11a.25.25,0,0,1,.22.16Z" class="cls-8"/><path data-cppathid="10170" transform="translate(-0.77 -1.2)" d="M331.41,384.45a.24.24,0,0,1,.12.2.23.23,0,0,1-.08.16l-.05.06a.26.26,0,0,1-.21.1.41.41,0,0,1-.16,0,4.1,4.1,0,0,1,0-6.72l.16,0a.28.28,0,0,1,.21.11l.06.05a.27.27,0,0,1,.08.17.24.24,0,0,1-.13.19,2.27,2.27,0,0,0-.58.67,4.34,4.34,0,0,0-.39,1,5.74,5.74,0,0,0,0,2.43,4.44,4.44,0,0,0,.39,1A2.15,2.15,0,0,0,331.41,384.45Z" class="cls-8"/><path data-cppathid="10171" transform="translate(-0.77 -1.2)" d="M333.94,384.3a.26.26,0,0,1-.08.19.25.25,0,0,1-.19.08h-.48a.27.27,0,0,1-.28-.27v-5.57a.29.29,0,0,1,.07-.18.27.27,0,0,1,.17-.08,5.29,5.29,0,0,1,.54,0l.48,0c1.81,0,2.72.71,2.72,2.11a1.52,1.52,0,0,1-.68,1.35,3.68,3.68,0,0,1-2,.45h-.27Zm0-5.41v2.94h.33a3,3,0,0,0,1-.13.89.89,0,0,0,.5-.43,1.67,1.67,0,0,0,.14-.76,2.54,2.54,0,0,0-.15-1,1,1,0,0,0-.52-.51,2.49,2.49,0,0,0-1-.16Z" class="cls-8"/><path data-cppathid="10172" transform="translate(-0.77 -1.2)" d="M337.41,378.75a.26.26,0,0,1,.26-.28c.22,0,.43,0,.62,0l.55,0a3.8,3.8,0,0,1,1.39.21,1.44,1.44,0,0,1,1,1.42,1.43,1.43,0,0,1-.25.83,1.66,1.66,0,0,1-.92.55c.85.3,1.28.78,1.28,1.47a1.78,1.78,0,0,1-.24.94,1.54,1.54,0,0,1-.8.61,4.24,4.24,0,0,1-1.47.21h-.53l-.61,0q-.27,0-.27-.27Zm.93.15v2.24a4.72,4.72,0,0,0,1.21-.15,1.24,1.24,0,0,0,.64-.37.91.91,0,0,0,.2-.58,1.38,1.38,0,0,0-.13-.59.9.9,0,0,0-.43-.41,2.06,2.06,0,0,0-.87-.15h-.62Zm0,5.27h.49a1.91,1.91,0,0,0,1.18-.31,1.17,1.17,0,0,0,.41-1,1,1,0,0,0-.48-.92,3.26,3.26,0,0,0-1.6-.35Z" class="cls-8"/><path data-cppathid="10173" transform="translate(-0.77 -1.2)" d="M343.25,384.06v0h.34a.35.35,0,0,1,.2.07.25.25,0,0,1,.08.17.25.25,0,0,1-.08.18.34.34,0,0,1-.2.06h-1.71a.31.31,0,0,1-.19-.06.25.25,0,0,1-.08-.18.25.25,0,0,1,.08-.17.32.32,0,0,1,.19-.07h.35V379h-.35a.31.31,0,0,1-.19-.06.25.25,0,0,1-.08-.18.25.25,0,0,1,.08-.17.32.32,0,0,1,.19-.07h1.71a.35.35,0,0,1,.2.07.25.25,0,0,1,.08.17.25.25,0,0,1-.08.18.34.34,0,0,1-.2.06h-.34v5.09Z" class="cls-8"/><path data-cppathid="10174" transform="translate(-0.77 -1.2)" d="M346.15,383.78a4,4,0,0,0,.38-1,5.34,5.34,0,0,0,0-2.43,3.93,3.93,0,0,0-.38-1,2.27,2.27,0,0,0-.58-.67.22.22,0,0,1-.13-.19.27.27,0,0,1,.08-.17l.06-.05a.28.28,0,0,1,.21-.11l.16,0a4.1,4.1,0,0,1,0,6.72.41.41,0,0,1-.16,0,.26.26,0,0,1-.21-.1l-.05-.06a.23.23,0,0,1-.08-.16.24.24,0,0,1,.12-.2A2.15,2.15,0,0,0,346.15,383.78Z" class="cls-8"/></g><g class="cls-12" id="trouble"><path data-cppathid="10175" transform="translate(-0.77 -1.2)" d="M300.36,408.53a.21.21,0,0,1-.18.12l-.08,0-.26-.07c-.09,0-.14-.09-.14-.15a.25.25,0,0,1,0-.11l2.14-3.45h-3.67c-.13,0-.2-.06-.2-.18s.07-.18.2-.18h4.39c.11,0,.16.05.16.13a.26.26,0,0,1,0,.11Zm2.07-3.78a1.27,1.27,0,0,1-.52-.11.89.89,0,0,1-.37-.28.68.68,0,0,1-.14-.41.65.65,0,0,1,.14-.4.91.91,0,0,1,.37-.29,1.4,1.4,0,0,1,1,0,.94.94,0,0,1,.36.29.65.65,0,0,1,.14.4.68.68,0,0,1-.14.41.92.92,0,0,1-.36.28A1.27,1.27,0,0,1,302.43,404.75Zm0-.27a.35.35,0,0,0,.21-.07.55.55,0,0,0,.17-.2.48.48,0,0,0,.07-.26.58.58,0,0,0-.06-.26.63.63,0,0,0-.17-.19.37.37,0,0,0-.22-.08.37.37,0,0,0-.21.08.66.66,0,0,0-.18.19.58.58,0,0,0-.06.26.48.48,0,0,0,.07.26.55.55,0,0,0,.17.2A.35.35,0,0,0,302.41,404.48Z" class="cls-8"/><path data-cppathid="10176" transform="translate(-0.77 -1.2)" d="M308.58,408.38c0,.13-.06.19-.2.19H308a.16.16,0,0,1-.18-.12h-3.06a.16.16,0,0,1-.18.12h-.38a.17.17,0,0,1-.19-.19v-3.65c0-.13.06-.2.19-.2h4.17c.14,0,.2.06.2.19Zm-.77-3.48h-3v3.19h3Z" class="cls-8"/><path data-cppathid="10177" transform="translate(-0.77 -1.2)" d="M310.38,406.67a.19.19,0,0,1-.17.12h-.09l-.28-.07c-.09,0-.14-.07-.14-.15a.26.26,0,0,1,0-.11l1.34-2.36a.18.18,0,0,1,.17-.11h.08l.29.07a.14.14,0,0,1,.13.15.26.26,0,0,1,0,.11h2.54c.11,0,.17,0,.17.13a.19.19,0,0,1,0,.11l-2.29,4a.21.21,0,0,1-.18.12h-.08l-.27-.07c-.09,0-.14-.07-.14-.15a.19.19,0,0,1,0-.11l.91-1.57h0l-1.15-.68a.17.17,0,0,1-.1-.14.19.19,0,0,1,.08-.14l.07-.06a.24.24,0,0,1,.15-.06.2.2,0,0,1,.13,0l1.06.64.95-1.64H311.5Zm4.15-2.34v.05c0,.07,0,.12-.16.12l-.17,0c-.13,0-.2,0-.23-.11l-.31-1a.07.07,0,0,1,0-.05c0-.07.06-.11.16-.12l.18,0c.13,0,.2,0,.23.12Zm.66-.28v.05c0,.07-.05.11-.15.13l-.18,0c-.12,0-.2,0-.23-.12l-.31-.89v-.05c0-.07.06-.11.16-.12l.18,0c.13,0,.2,0,.23.12Z" class="cls-8"/><path data-cppathid="10178" transform="translate(-0.77 -1.2)" d="M316,406.6a.22.22,0,0,1-.17.11l-.09,0-.25-.08c-.09,0-.14-.08-.14-.15a.3.3,0,0,1,0-.11l1.4-2.11a.2.2,0,0,1,.17-.11l.09,0,.25.08c.09,0,.13.08.13.15a.19.19,0,0,1,0,.11l0,0h2.76c.12,0,.17,0,.17.13a.26.26,0,0,1,0,.11l-2.4,3.86a.22.22,0,0,1-.18.11h-.08l-.26-.08c-.09,0-.14-.08-.14-.15a.19.19,0,0,1,0-.11l2.17-3.5h-2.29Z" class="cls-8"/><path data-cppathid="10179" transform="translate(-0.77 -1.2)" d="M322.4,408.57a.18.18,0,0,1-.2.2h-.37a.18.18,0,0,1-.2-.2V404.4a.18.18,0,0,1,.2-.2h.37a.18.18,0,0,1,.2.2v1.7l2.17.7c.09,0,.14.08.14.15a.16.16,0,0,1,0,.1l0,0a.2.2,0,0,1-.17.1h-.09l-2-.64Z" class="cls-8"/><path data-cppathid="10180" transform="translate(-0.77 -1.2)" d="M326.3,408.31a.19.19,0,0,1-.23.15l-.35,0a.15.15,0,0,1-.16-.17.26.26,0,0,1,0-.07l1-3.52a.2.2,0,0,1,.23-.15l.35,0c.11,0,.16.07.16.17a.23.23,0,0,1,0,.07Zm4-.14a.06.06,0,0,0,0,0v0c0,.1-.06.15-.16.17l-.36,0a.19.19,0,0,1-.22-.15l-1-3.53s0,0,0,0v0c0-.1,0-.15.16-.16l.35-.05a.2.2,0,0,1,.23.16Zm-.22-3.31v.06c0,.08-.05.13-.16.14l-.17,0c-.13,0-.21,0-.23-.13l-.31-1a.13.13,0,0,1,0-.06c0-.08.05-.13.16-.14l.18,0a.18.18,0,0,1,.23.13Zm.66-.3v.05c0,.08-.05.13-.16.14l-.17,0c-.13,0-.2,0-.23-.13l-.31-1s0,0,0,0v0c0-.08.05-.12.16-.14l.18,0a.18.18,0,0,1,.23.13Z" class="cls-8"/><path data-cppathid="10181" transform="translate(-0.77 -1.2)" d="M332.1,406.74s0,0,0,.07-.06.15-.17.16l-.34,0a.2.2,0,0,1-.24-.16l-.22-.92a.06.06,0,0,1,0,0v0c0-.09.05-.15.16-.16l.35,0a.2.2,0,0,1,.23.16Zm1-.15v.05c0,.11-.06.16-.18.18l-.36,0a.19.19,0,0,1-.22-.18l-.16-.92a.07.07,0,0,1,0-.05c0-.1.06-.16.18-.17l.36,0a.18.18,0,0,1,.22.17Zm.31,2a.19.19,0,0,1-.19.13h-.06l-.3-.07q-.15,0-.15-.15a.19.19,0,0,1,0-.1l1.21-2.5a.19.19,0,0,1,.19-.13h.06l.3.07q.15,0,.15.15a.23.23,0,0,1,0,.11Z" class="cls-8"/><path data-cppathid="10182" transform="translate(-0.77 -1.2)" d="M336.1,406.6a.22.22,0,0,1-.18.11l-.09,0-.24-.08c-.09,0-.14-.08-.14-.15a.19.19,0,0,1,0-.11l1.39-2.11a.22.22,0,0,1,.18-.11l.09,0,.24.08c.09,0,.14.08.14.15a.19.19,0,0,1,0,.11l0,0h2.76c.11,0,.17,0,.17.13a.19.19,0,0,1,0,.11l-2.4,3.86a.21.21,0,0,1-.18.11h-.07l-.26-.08c-.1,0-.14-.08-.14-.15a.19.19,0,0,1,0-.11l2.17-3.5h-2.29Z" class="cls-8"/><path data-cppathid="10183" transform="translate(-0.77 -1.2)" d="M346.12,408.38c0,.13-.07.19-.2.19h-.37a.18.18,0,0,1-.19-.12h-3.05a.18.18,0,0,1-.19.12h-.37c-.13,0-.2-.06-.2-.19v-3.65a.18.18,0,0,1,.2-.2h4.17c.13,0,.2.06.2.19Zm-.77-3.48h-3v3.19h3Z" class="cls-8"/><path data-cppathid="10184" transform="translate(-0.77 -1.2)" d="M347.88,406.6a.22.22,0,0,1-.17.11l-.09,0-.25-.08c-.09,0-.14-.08-.14-.15a.3.3,0,0,1,0-.11l1.4-2.11a.2.2,0,0,1,.17-.11l.09,0,.25.08c.09,0,.13.08.13.15a.19.19,0,0,1,0,.11l0,0H352c.12,0,.17,0,.17.13a.26.26,0,0,1,0,.11l-2.4,3.86a.22.22,0,0,1-.18.11h-.08l-.26-.08c-.09,0-.14-.08-.14-.15a.19.19,0,0,1,0-.11l2.17-3.5H349Zm4.29-2s0,0,0,.07-.06.15-.17.16l-.17,0a.18.18,0,0,1-.23-.16l-.31-1.26s0,0,0-.06a.16.16,0,0,1,.17-.17l.17,0a.18.18,0,0,1,.23.16Zm.66-.37s0,0,0,.07a.17.17,0,0,1-.16.17l-.17,0a.19.19,0,0,1-.24-.16l-.3-1.17a.08.08,0,0,1,0,0s0,0,0,0,.06-.14.17-.16l.17,0a.18.18,0,0,1,.23.16Z" class="cls-8"/><path data-cppathid="10185" transform="translate(-0.77 -1.2)" d="M355,408.59a.21.21,0,0,1-.15.07l-.12,0-.14-.09c-.06,0-.1-.08-.1-.14a.28.28,0,0,1,.07-.13,2.26,2.26,0,0,0,.5-1,8.47,8.47,0,0,0,.17-1.79.18.18,0,0,1,.2-.2h.37c.14,0,.2.12.19.35s0,.36,0,.52,0,.31,0,.45l0,0,1.35-1.83h-4c-.14,0-.2-.06-.2-.18s.06-.18.2-.18H358c.11,0,.17,0,.17.12a.21.21,0,0,1-.05.12l-1.62,2.21a.21.21,0,0,1-.18.1h-.09l-.24-.09a.19.19,0,0,1-.12-.09,3.7,3.7,0,0,1-.3,1.11A2.51,2.51,0,0,1,355,408.59Z" class="cls-8"/><path data-cppathid="10186" transform="translate(-0.77 -1.2)" d="M359.34,407.15a.28.28,0,0,1-.13,0,.24.24,0,0,1-.15-.06l-.06-.05a.19.19,0,0,1-.08-.13.17.17,0,0,1,.1-.14l4.21-2.44.13,0a.2.2,0,0,1,.15.06l.06,0a.19.19,0,0,1,.08.14.17.17,0,0,1-.1.14l-1.67,1a.14.14,0,0,1,.05.13v2.7c0,.14-.06.2-.2.2h-.37a.18.18,0,0,1-.2-.2v-2.42Z" class="cls-8"/><path data-cppathid="10187" transform="translate(-0.77 -1.2)" d="M367,408.6a.19.19,0,0,1-.24.15l-.33-.06c-.11,0-.16-.07-.16-.15v0a.09.09,0,0,0,0-.05l.72-2.27h-2.42c-.13,0-.2-.06-.2-.18s.07-.18.2-.18h4.65c.13,0,.2.06.2.18s-.07.18-.2.18h-1.48v0a.06.06,0,0,1,0,0Zm1.94-4.35c.13,0,.2.06.2.18s-.07.18-.2.18h-4c-.14,0-.2-.06-.2-.18s.06-.18.2-.18Z" class="cls-8"/><path data-cppathid="10188" transform="translate(-0.77 -1.2)" d="M375.05,408.45a.23.23,0,0,1,0,.11c0,.07,0,.12-.13.15l-.29.07h-.08a.2.2,0,0,1-.17-.11l-.33-.6-3.72.57c-.13,0-.19,0-.19-.11a.22.22,0,0,1,0-.1l2-4a.2.2,0,0,1,.19-.12h.06l.29.06c.1,0,.14.08.14.15a.22.22,0,0,1,0,.11l-1.74,3.47,2.78-.43-.55-1a.26.26,0,0,1,0-.11.14.14,0,0,1,.13-.15l.29-.07h.08a.19.19,0,0,1,.17.12Z" class="cls-8"/><path data-cppathid="10189" transform="translate(-0.77 -1.2)" d="M331.18,417.42a.18.18,0,0,1,.09.15.17.17,0,0,1-.06.12l0,.05a.21.21,0,0,1-.16.07l-.11,0a3.07,3.07,0,0,1,0-5l.11,0a.23.23,0,0,1,.16.08l0,0a.19.19,0,0,1,.06.13.17.17,0,0,1-.09.14,1.46,1.46,0,0,0-.43.51,2.33,2.33,0,0,0-.29.74,3.84,3.84,0,0,0-.11.91,3.72,3.72,0,0,0,.11.91,2.39,2.39,0,0,0,.29.75A1.42,1.42,0,0,0,331.18,417.42Z" class="cls-8"/><path data-cppathid="10190" transform="translate(-0.77 -1.2)" d="M333.07,417.31a.21.21,0,0,1-.2.2h-.36a.21.21,0,0,1-.2-.2v-4.18a.15.15,0,0,1,.05-.13.15.15,0,0,1,.13-.06l.4,0h.36c1.36,0,2,.53,2,1.58a1.11,1.11,0,0,1-.52,1,2.67,2.67,0,0,1-1.49.34h-.21Zm0-4.06v2.21h.25a2,2,0,0,0,.72-.1.62.62,0,0,0,.37-.32,1.28,1.28,0,0,0,.11-.57,1.71,1.71,0,0,0-.12-.71.68.68,0,0,0-.39-.39,1.87,1.87,0,0,0-.74-.12Z" class="cls-8"/><path data-cppathid="10191" transform="translate(-0.77 -1.2)" d="M335.68,413.15a.19.19,0,0,1,.2-.21l.46,0h.41a3,3,0,0,1,1,.16,1,1,0,0,1,.74,1.06,1.11,1.11,0,0,1-.18.63,1.27,1.27,0,0,1-.69.41c.64.22,1,.59,1,1.1a1.36,1.36,0,0,1-.18.71,1.24,1.24,0,0,1-.6.46,3.38,3.38,0,0,1-1.11.15h-.39l-.46,0a.19.19,0,0,1-.2-.2Zm.69.11v1.68a3.52,3.52,0,0,0,.91-.11,1,1,0,0,0,.48-.28.67.67,0,0,0,.15-.44,1,1,0,0,0-.09-.44.67.67,0,0,0-.33-.31,1.62,1.62,0,0,0-.65-.11h-.47Zm0,3.95h.37a1.43,1.43,0,0,0,.89-.24.86.86,0,0,0,.3-.73.75.75,0,0,0-.35-.69,2.56,2.56,0,0,0-1.21-.26Z" class="cls-8"/><path data-cppathid="10192" transform="translate(-0.77 -1.2)" d="M340.06,417.13v0h.26a.2.2,0,0,1,.14.06.14.14,0,0,1,.06.12.15.15,0,0,1-.06.13.19.19,0,0,1-.14.05H339a.19.19,0,0,1-.14-.05.15.15,0,0,1-.06-.13.14.14,0,0,1,.06-.12.2.2,0,0,1,.14-.06h.26v-3.84H339a.19.19,0,0,1-.14-.05.15.15,0,0,1-.06-.13.14.14,0,0,1,.06-.12A.2.2,0,0,1,339,413h1.29a.2.2,0,0,1,.14.06.14.14,0,0,1,.06.12.15.15,0,0,1-.06.13.19.19,0,0,1-.14.05h-.26v3.82Z" class="cls-8"/><path data-cppathid="10193" transform="translate(-0.77 -1.2)" d="M342.23,416.92a3,3,0,0,0,.29-.75,3.72,3.72,0,0,0,.11-.91,3.84,3.84,0,0,0-.11-.91,2.93,2.93,0,0,0-.29-.74,1.57,1.57,0,0,0-.43-.51.17.17,0,0,1-.1-.14.19.19,0,0,1,.06-.13l0,0a.25.25,0,0,1,.17-.08l.11,0a3.08,3.08,0,0,1,0,5l-.11,0a.23.23,0,0,1-.17-.07l0-.05a.17.17,0,0,1-.06-.12.18.18,0,0,1,.09-.15A1.53,1.53,0,0,0,342.23,416.92Z" class="cls-8"/></g></g></g></g></g></svg>