<?xml version="1.0" encoding="UTF-8"?>
<svg xmlns="http://www.w3.org/2000/svg" onmouseup="{ if(window.parent.document.onmouseup) window.parent.document.onmouseup(arguments[0]);}" viewBox="0 0 407.75 370.18"><defs><style>.cls-1{fill:#fcc388;}.cls-2{fill:#e33d3c;}.cls-3{fill:#a8a7a5;}.cls-4{fill:#d5d3d0;}.cls-5{fill:#253d54;}.cls-6{fill:#80583a;}.cls-7{fill:#ad2526;}.cls-11,.cls-13,.cls-16,.cls-18,.cls-8{stroke:#000;}.cls-8{stroke-width:0.6px;}.cls-9{fill:#fff;}.cls-10{fill:#f2797a;}.cls-11,.cls-13,.cls-16,.cls-18{fill:none;}.cls-11{stroke-width:1.06px;}.cls-12{fill:#686868;}.cls-13{stroke-width:0.3px;}.cls-14{fill:#919191;}.cls-15{fill:#afafb0;}.cls-16{stroke-width:0.89px;}.cls-17{fill:#c5c4c4;}.cls-18{stroke-width:0.67px;}</style></defs><g data-name="Layer 2" id="Layer_2"><g id="scrumMaster"><path data-cppathid="10000" d="M173.34,177.89c1,1.08,30.56,5.76,34.81,2.87,6.19-4.19,1.32-44,4.87-45s-11.7-9.1-13.21.07S193.23,155.7,194.9,163l-30.35-1.82Z" class="cls-1"/><path data-cppathid="10001" d="M181,149l-4.28-.17c-35.66-1.27-44.14,25.51-34.84,28.31,3.22,1,18.1,2.64,36.66,4.23C183.05,175.1,186.14,161,181,149Z" class="cls-2"/><path data-cppathid="10002" d="M220.72,109.6s2,6.17.75,8.69-3.55-.42-4.57-1.92S220.72,109.6,220.72,109.6Z" class="cls-1"/><path data-cppathid="10003" d="M407.62,74.32c-1.08.84-204.15,43.91-204.15,43.91l.53-4.92S408.7,73.47,407.62,74.32Z" class="cls-3"/><path data-cppathid="10004" d="M407.74,74.16c-1.08.85-204.14,42.65-204.14,42.65l.55-4.19S408.83,73.32,407.74,74.16Z" class="cls-4"/><path data-cppathid="10005" d="M197.44,145.5s3.75-9.79,3.06-13.51.08-17.35,1.42-18.05a30.9,30.9,0,0,1,4.74-1.56l8.61-2.57-4.68,6.53s-.19,6.63-.43,7.49,3.76-12.52,6.44-10-.14,12.38-2.76,14.81,5.07,13-8.91,16.84" class="cls-1"/><path data-cppathid="10006" d="M216.56,120.94s3.65,13.51-3.54,14.82S216.56,120.94,216.56,120.94Z" class="cls-1"/><path data-cppathid="10007" d="M62.59,254.12S72.18,343,68,348.68s-8.53,16-6.45,20.7S97,356.82,102.78,352.12s8-65.39,8-71,17.88-1.41,17.88-1.41,2.77,67.74,3.29,71,31.29,9.88,38.59,8.47-4.69-13.65-4.69-13.65,7.83-98.93,5.75-104.11-107.43-2.35-107.43-2.35Z" class="cls-5"/><path data-cppathid="10008" d="M130.09,78.68c-1.52-6.32,4.45-17.93,12.38-20.7,9.17-3.21,14.09-1.76,18.25,6.18,3.88,7.41,6.17,11.18,15.88,12.33,8.1,1,15-13.82,6.15-17.78-3.19-1.42-10.82,2.53-10,6.7.56,2.74,6.37,3.63,7.6,1.1-2.33,1.11-2.59,5.69-8.6,1.89-3.67-2.33-1.46-7.76.42-10.55,8.81-13,22.54.48,19.44,13.46-4.12,17.32-22.87,23.42-35.58,24.3S131.61,85,130.09,78.68Z" class="cls-6"/><path data-cppathid="10009" d="M169.41,102.17s-15.89-78.54-60.76-76.93S48.83,73.4,56.31,116.74a423,423,0,0,1,5.12,43.57c1.39,21.25,4,35.87,4,35.87l98.12-18.62-5.67-12.82-.94-10.35s6.5-37.72,8-40.93c.75-1.6-56.86,4.71-56.86,4.71Z" class="cls-1"/><path data-cppathid="10010" d="M59.45,155.68c90.41,14.71,100.11-7.91,100.11-7.91l3.86,19.52s2.91,21.91,15.61,74.6c-31.6,13.86-123.43,6.66-123.43,6.66S58.9,164,59.45,155.68Z" class="cls-7"/><path data-cppathid="10011" d="M132.77,78.55c0,3.77-1.8,6.82-4,6.82s-4-3.05-4-6.82,1.8-6.82,4-6.82S132.77,74.77,132.77,78.55Z" class="cls-8"/><path data-cppathid="10012" d="M144,77.74c0,3.11-1.48,5.62-3.3,5.62s-3.31-2.51-3.31-5.62,1.49-5.62,3.31-5.62S144,74.64,144,77.74Z" class="cls-8"/><path data-cppathid="10013" d="M130,74.3a2,2,0,1,1-2-2A2,2,0,0,1,130,74.3Z" class="cls-9"/><path data-cppathid="10014" d="M142,74.3a2,2,0,1,1-2-2A2,2,0,0,1,142,74.3Z" class="cls-9"/><path data-cppathid="10015" d="M112,32.08S71.24,87.82,53.71,97.7c-9.2-30.58,5.48-66.09,44.92-73.86,21-4.13,27.21-5.71,43,11.76C154.07,49.48,112,32.08,112,32.08Z" class="cls-6"/><path data-cppathid="10016" d="M52.34,94s-29-42.66,12.84-72.76c38.46-27.66,67.36,1.71,68.07,7C133.25,28.31,59.46,23,52.34,94Z" class="cls-2"/><path data-cppathid="10017" d="M86.64,39.05S115.43,1,134.33.1s31.08,5.14,32.51,10.79-31.56,17.42-31.56,17.42S106.44,27.52,86.64,39.05Z" class="cls-10"/><path data-cppathid="10018" d="M55.34,98.35c-3.15-5.58-15.06-9.11-22.45-5-8.54,4.8-11,9.59-8.63,18.33,2.22,8.16,3.14,12.55-2.88,20.82-5,6.89-19.69,1.86-16.14-7.7,1.28-3.44,9.25-6.55,11.42-3,1.43,2.35-2,7.44-4.57,6.62,2.36-1,5.6,2,7.26-5.29,1-4.44-4.14-6.55-7.32-7C-2.82,113.8-3.4,133.78,7.41,140.48c14.43,8.93,31.59-1.21,41.06-10.35S58.49,103.93,55.34,98.35Z" class="cls-6"/><path data-cppathid="10019" d="M40.25,182.15c-1.41.47-17.91,26.35-16.94,31.52C24.72,221.19,61,232,60.48,235.78S76,225.9,68,220.72,53,209.9,45.42,208.49l14.12-27.76Z" class="cls-1"/><path data-cppathid="10020" d="M27.25,187.84q1.17-1.89,2.33-3.72c19.56-30.86,47.1-22.52,44.08-13.05-1,3.27-8.24,16.82-17.64,33.43C48.11,204.71,34.39,199.14,27.25,187.84Z" class="cls-2"/><path data-cppathid="10021" d="M62.36,233s-14.12,6.12-12.23,11.29-3.3-10.35-7.06-9.88,1.88,15.53,4.7,15.53,18.82,1.88,24.47-7.06.47-17.4-1.89-19.76S62.36,233,62.36,233Z" class="cls-1"/><path data-cppathid="10022" d="M61.42,156.27s32,1.41,67.74,40.93c0,0,29.64-23.52,29.64-47" class="cls-11"/><polygon data-cppathid="10023" points="122.01 212.95 131.79 217.71 134.44 212.2 128.56 205.87 122.01 212.95" class="cls-12"/><polyline data-cppathid="10024" points="140.28 225.48 133.89 222.02 131.88 223.58" class="cls-13"/><path data-cppathid="10025" d="M131.16,199.65s-.35-3.4-5-3.36c-4.3,1.06-8.24,7.73-6.18,13.78,2.33,6.85,9.24,3,9.24,3l2.11,10.72.25.12,2.35-1.88Z" class="cls-14"/><path data-cppathid="10026" d="M137.92,201.35s-6.66-5.73-11.19-5.19c-.2,0-.41.08-.61.13,4.69,0,5,3.36,5,3.36L133.89,222l-2.35,1.88,6.57,3.26,2.75-1.88Z" class="cls-15"/><line data-cppathid="10027" y2="209.59" x2="133.66" y1="211.98" x1="138.23" class="cls-16"/><polygon data-cppathid="10028" points="133.89 222.02 131.54 223.9 138.11 227.16 140.86 225.28 133.89 222.02" class="cls-17"/><line data-cppathid="10029" y2="223.86" x2="134.07" y1="225.69" x1="138.36" class="cls-18"/></g></g></svg>