<?xml version="1.0" encoding="UTF-8"?>
<svg xmlns="http://www.w3.org/2000/svg" onmouseup="{ if(window.parent.document.onmouseup) window.parent.document.onmouseup(arguments[0]);}" viewBox="0 0 595.02 315.38"><defs><style>.cls-1{fill:#fff;opacity:0;}.cls-2{fill:#fefefe;opacity:0.01;}.cls-3{fill:#fdfdfd;opacity:0.02;}.cls-4{fill:#fcfcfc;opacity:0.03;}.cls-5{fill:#fafafa;opacity:0.04;}.cls-6{fill:#f9f9f9;opacity:0.05;}.cls-7{fill:#f8f8f8;opacity:0.06;}.cls-8{fill:#f7f7f7;opacity:0.07;}.cls-9{fill:#f6f6f6;opacity:0.08;}.cls-10{fill:#f5f5f5;opacity:0.09;}.cls-11{fill:#f4f4f4;opacity:0.1;}.cls-12{fill:#f2f2f2;opacity:0.11;}.cls-13{fill:#f1f1f1;opacity:0.12;}.cls-14{fill:#f0f0f0;opacity:0.13;}.cls-15{fill:#efefef;opacity:0.14;}.cls-16{fill:#eee;opacity:0.15;}.cls-17{fill:#ededed;opacity:0.16;}.cls-18{fill:#ececec;opacity:0.17;}.cls-19{fill:#ebebeb;opacity:0.18;}.cls-20{fill:#e9e9e9;opacity:0.19;}.cls-21{fill:#e8e8e8;opacity:0.2;}.cls-22{fill:#e7e7e7;opacity:0.21;}.cls-23{fill:#e6e6e6;opacity:0.22;}.cls-24{fill:#e5e5e5;opacity:0.23;}.cls-25{fill:#e4e4e4;opacity:0.24;}.cls-26{fill:#e3e3e3;opacity:0.25;}.cls-27{fill:#e1e1e1;opacity:0.26;}.cls-28{fill:#e0e0e0;opacity:0.27;}.cls-29{fill:#dfdfdf;opacity:0.28;}.cls-30{fill:#dedede;opacity:0.29;}.cls-31{fill:#ddd;opacity:0.3;}.cls-32{fill:#dcdcdc;opacity:0.31;}.cls-33{fill:#dbdbdb;opacity:0.32;}.cls-34{fill:#d9d9d9;opacity:0.33;}.cls-35{fill:#d8d8d8;opacity:0.34;}.cls-36{fill:#d7d7d7;opacity:0.35;}.cls-37{fill:#d6d6d6;opacity:0.36;}.cls-38{fill:#d5d5d5;opacity:0.37;}.cls-39{fill:#d4d4d4;opacity:0.38;}.cls-40{fill:#d3d3d3;opacity:0.39;}.cls-41{fill:#d1d1d1;opacity:0.4;}.cls-42{fill:#d0d0d0;opacity:0.41;}.cls-43{fill:#cfcfcf;opacity:0.42;}.cls-44{fill:#cecece;opacity:0.43;}.cls-45{fill:#cdcdcd;opacity:0.44;}.cls-46{fill:#ccc;opacity:0.45;}.cls-47{fill:#cbcbcb;opacity:0.46;}.cls-48{fill:#c9c9c9;opacity:0.47;}.cls-49{fill:#c8c8c8;opacity:0.48;}.cls-50{fill:#c7c7c7;opacity:0.49;}.cls-51{fill:#c6c6c6;opacity:0.5;}.cls-52{fill:#c5c5c5;opacity:0.5;}.cls-53{fill:#c4c4c4;opacity:0.51;}.cls-54{fill:#c3c3c3;opacity:0.52;}.cls-55{fill:#c2c2c2;opacity:0.53;}.cls-56{fill:silver;opacity:0.54;}.cls-57{fill:#bfbfbf;opacity:0.55;}.cls-58{fill:#bebebe;opacity:0.56;}.cls-59{fill:#bdbdbd;opacity:0.57;}.cls-60{fill:#bcbcbc;opacity:0.58;}.cls-61{fill:#bbb;opacity:0.59;}.cls-62{fill:#bababa;opacity:0.6;}.cls-63{fill:#b8b8b8;opacity:0.61;}.cls-64{fill:#b7b7b7;opacity:0.62;}.cls-65{fill:#b6b6b6;opacity:0.63;}.cls-66{fill:#b5b5b5;opacity:0.64;}.cls-67{fill:#b4b4b4;opacity:0.65;}.cls-68{fill:#b3b3b3;opacity:0.66;}.cls-69{fill:#b2b2b2;opacity:0.67;}.cls-70{fill:#b0b0b0;opacity:0.68;}.cls-71{fill:#afafaf;opacity:0.69;}.cls-72{fill:#aeaeae;opacity:0.7;}.cls-73{fill:#adadad;opacity:0.71;}.cls-74{fill:#acacac;opacity:0.72;}.cls-75{fill:#ababab;opacity:0.73;}.cls-76{fill:#aaa;opacity:0.74;}.cls-77{fill:#a8a8a8;opacity:0.75;}.cls-78{fill:#a7a7a7;opacity:0.76;}.cls-79{fill:#a6a6a6;opacity:0.77;}.cls-80{fill:#a5a5a5;opacity:0.78;}.cls-81{fill:#a4a4a4;opacity:0.79;}.cls-82{fill:#a3a3a3;opacity:0.8;}.cls-83{fill:#a2a2a2;opacity:0.81;}.cls-84{fill:#a0a0a0;opacity:0.82;}.cls-85{fill:#9f9f9f;opacity:0.83;}.cls-86{fill:#9e9e9e;opacity:0.84;}.cls-87{fill:#9d9d9d;opacity:0.85;}.cls-88{fill:#9c9c9c;opacity:0.86;}.cls-89{fill:#9b9b9b;opacity:0.87;}.cls-90{fill:#9a9a9a;opacity:0.88;}.cls-91{fill:#999;opacity:0.89;}.cls-92{fill:#979797;opacity:0.9;}.cls-93{fill:#969696;opacity:0.91;}.cls-94{fill:#959595;opacity:0.92;}.cls-95{fill:#949494;opacity:0.93;}.cls-96{fill:#939393;opacity:0.94;}.cls-97{fill:#929292;opacity:0.95;}.cls-98{fill:#919191;opacity:0.96;}.cls-99{fill:#8f8f8f;opacity:0.97;}.cls-100{fill:#8e8e8e;opacity:0.98;}.cls-101{fill:#8d8d8d;opacity:0.99;}.cls-102{fill:#8c8c8c;}.cls-103{fill:#fff100;}.cls-104{fill:#603813;}</style></defs><g data-name="Layer 2" id="Layer_2"><g id="backlog"><g data-name="2023 jp" id="_2023_jp"><g data-name="update grades PBI" id="update_grades_PBI"><g id="Shadow"><path data-cppathid="10000" d="M0,277.59c-1.47-28.74,130.49-59.62,294.83-69S593.53,215,595,243.77,464.49,303.34,300.2,312.68,1.48,306.29,0,277.59Z" class="cls-1"/><path data-cppathid="10001" d="M2.52,277.45C1.05,249,131.89,218.33,294.83,209.08S591,215.41,592.44,243.91,463,303,300.14,312.24,4,305.9,2.52,277.45Z" class="cls-2"/><path data-cppathid="10002" d="M5,277.31c-1.45-28.26,128.26-58.61,289.8-67.79s293.58,6.28,295,34.54S461.57,302.62,300.08,311.8,6.46,305.51,5,277.31Z" class="cls-3"/><path data-cppathid="10003" d="M7.52,277.16c-1.44-28,127.15-58.09,287.29-67.19s291,6.23,292.48,34.23S460.11,302.26,300,311.35,9,305.12,7.52,277.16Z" class="cls-4"/><path data-cppathid="10004" d="M10,277c-1.42-27.76,126-57.59,284.77-66.61s288.49,6.18,289.92,33.94S458.65,301.89,300,310.91,11.44,304.74,10,277Z" class="cls-5"/><path data-cppathid="10005" d="M12.53,276.88c-1.42-27.52,124.92-57.08,282.25-66S580.72,217,582.14,244.5s-124.95,57-282.23,66S13.93,304.35,12.53,276.88Z" class="cls-6"/><path data-cppathid="10006" d="M15,276.73c-1.4-27.27,123.81-56.57,279.74-65.42s283.39,6.06,284.8,33.33S455.73,301.17,299.85,310,16.42,304,15,276.73Z" class="cls-7"/><path data-cppathid="10007" d="M17.53,276.59c-1.39-27,122.7-56.06,277.23-64.84s280.84,6,282.23,33-122.72,56-277.2,64.8S18.91,303.57,17.53,276.59Z" class="cls-8"/><path data-cppathid="10008" d="M20,276.45c-1.37-26.78,121.59-55.55,274.71-64.25s278.3,6,279.68,32.73-121.61,55.52-274.69,64.21S21.4,303.19,20,276.45Z" class="cls-9"/><path data-cppathid="10009" d="M22.54,276.31C21.17,249.77,143,221.26,294.73,212.64s275.75,5.9,277.12,32.44-120.5,55-272.18,63.62S23.89,302.8,22.54,276.31Z" class="cls-10"/><path data-cppathid="10010" d="M25,276.16c-1.35-26.29,119.36-54.53,269.68-63.07s273.2,5.85,274.55,32.14-119.38,54.49-269.66,63S26.38,302.41,25,276.16Z" class="cls-11"/><path data-cppathid="10011" d="M27.54,276c-1.34-26,118.25-54,267.17-62.48s270.64,5.79,272,31.83-118.27,54-267.14,62.45S28.87,302,27.54,276Z" class="cls-12"/><path data-cppathid="10012" d="M30.05,275.88c-1.33-25.8,117.13-53.52,264.64-61.9s268.1,5.74,269.43,31.54S447,299,299.5,307.38,31.36,301.64,30.05,275.88Z" class="cls-13"/><path data-cppathid="10013" d="M32.55,275.74c-1.31-25.56,116-53,262.13-61.31s265.55,5.68,266.87,31.23-116,53-262.11,61.27S33.85,301.25,32.55,275.74Z" class="cls-14"/><path data-cppathid="10014" d="M35.05,275.59c-1.3-25.31,114.91-52.5,259.62-60.72s263,5.63,264.31,30.94-114.93,52.46-259.6,60.68S36.34,300.86,35.05,275.59Z" class="cls-15"/><path data-cppathid="10015" d="M37.55,275.45c-1.28-25.06,113.79-52,257.11-60.13S555.11,220.89,556.4,246s-113.81,52-257.08,60.09S38.83,300.48,37.55,275.45Z" class="cls-16"/><path data-cppathid="10016" d="M40.06,275.31c-1.28-24.82,112.67-51.48,254.58-59.54s257.91,5.51,259.19,30.33-112.7,51.45-254.56,59.51S41.32,300.09,40.06,275.31Z" class="cls-17"/><path data-cppathid="10017" d="M42.56,275.17c-1.26-24.58,111.56-51,252.07-59s255.36,5.46,256.63,30-111.59,50.93-252,58.92S43.81,299.7,42.56,275.17Z" class="cls-18"/><path data-cppathid="10018" d="M45.06,275c-1.25-24.33,110.45-50.46,249.56-58.36s252.81,5.41,254.06,29.73-110.47,50.43-249.53,58.33S46.3,299.31,45.06,275Z" class="cls-19"/><path data-cppathid="10019" d="M47.56,274.88c-1.23-24.08,109.34-49.95,247.05-57.77s250.26,5.35,251.5,29.43-109.36,49.92-247,57.74S48.79,298.93,47.56,274.88Z" class="cls-20"/><path data-cppathid="10020" d="M50.07,274.74c-1.23-23.84,108.22-49.45,244.52-57.19s247.71,5.3,248.94,29.13S435.29,296.1,299,303.84,51.28,298.54,50.07,274.74Z" class="cls-21"/><path data-cppathid="10021" d="M52.57,274.6c-1.21-23.6,107.11-48.94,242-56.6S539.74,223.24,541,246.83,433.83,295.74,299,303.4,53.77,298.15,52.57,274.6Z" class="cls-22"/><path data-cppathid="10022" d="M55.07,274.45c-1.2-23.34,106-48.43,239.5-56S537.18,223.63,538.39,247s-106,48.39-239.47,56S56.26,297.76,55.07,274.45Z" class="cls-23"/><path data-cppathid="10023" d="M57.58,274.31c-1.19-23.1,104.88-47.92,237-55.42S534.62,224,535.81,247.12,430.91,295,298.86,302.52,58.75,297.38,57.58,274.31Z" class="cls-24"/><path data-cppathid="10024" d="M60.08,274.17c-1.17-22.86,103.77-47.41,234.46-54.83s237.52,5.07,238.7,27.93-103.79,47.38-234.44,54.8S61.25,297,60.08,274.17Z" class="cls-25"/><path data-cppathid="10025" d="M62.58,274c-1.16-22.61,102.66-46.9,232-54.24s235,5,236.14,27.63S428,294.29,298.74,301.63,63.74,296.6,62.58,274Z" class="cls-26"/><path data-cppathid="10026" d="M65.08,273.88c-1.14-22.36,101.55-46.39,229.44-53.65s232.42,5,233.57,27.33-101.56,46.36-229.4,53.63S66.23,296.21,65.08,273.88Z" class="cls-27"/><path data-cppathid="10027" d="M67.59,273.74C66.45,251.62,168,227.86,294.51,220.67s229.87,4.92,231,27-100.45,45.85-226.89,53S68.72,295.83,67.59,273.74Z" class="cls-28"/><path data-cppathid="10028" d="M70.09,273.6c-1.12-21.88,99.32-45.38,224.4-52.48S521.82,226,522.94,247.85s-99.33,45.35-224.37,52.46S71.21,295.44,70.09,273.6Z" class="cls-29"/><path data-cppathid="10029" d="M72.59,273.45c-1.11-21.63,98.21-44.86,221.89-51.88s224.78,4.8,225.89,26.43-98.22,44.84-221.86,51.86S73.7,295.05,72.59,273.45Z" class="cls-30"/><path data-cppathid="10030" d="M75.1,273.31C74,251.93,172.19,229,294.47,222s222.22,4.75,223.33,26.13-97.11,44.34-219.35,51.28S76.19,294.66,75.1,273.31Z" class="cls-31"/><path data-cppathid="10031" d="M77.6,273.17c-1.09-21.14,96-43.85,216.86-50.71s219.67,4.69,220.76,25.83-96,43.82-216.82,50.69S78.68,294.28,77.6,273.17Z" class="cls-32"/><path data-cppathid="10032" d="M80.1,273C79,252.13,175,229.69,294.44,222.9s217.13,4.64,218.21,25.54-94.89,43.31-214.31,50.1S81.17,293.89,80.1,273Z" class="cls-33"/><path data-cppathid="10033" d="M82.6,272.88c-1.06-20.65,93.76-42.83,211.83-49.53S509,227.94,510.08,248.58s-93.78,42.81-211.8,49.52S83.66,293.5,82.6,272.88Z" class="cls-34"/><path data-cppathid="10034" d="M85.11,272.74c-1-20.4,92.63-42.32,209.31-48.94s212,4.53,213.08,24.93S414.84,291,298.22,297.65,86.15,293.11,85.11,272.74Z" class="cls-35"/><path data-cppathid="10035" d="M87.61,272.6c-1-20.16,91.52-41.81,206.8-48.36s209.48,4.48,210.52,24.63-91.55,41.79-206.77,48.34S88.64,292.73,87.61,272.6Z" class="cls-36"/><path data-cppathid="10036" d="M90.11,272.46c-1-19.92,90.41-41.31,204.28-47.77s206.94,4.42,208,24.33S411.92,290.3,298.1,296.77,91.13,292.34,90.11,272.46Z" class="cls-37"/><path data-cppathid="10037" d="M92.61,272.31c-1-19.67,89.3-40.79,201.77-47.18s204.39,4.37,205.4,24-89.32,40.77-201.73,47.16S93.62,292,92.61,272.31Z" class="cls-38"/><path data-cppathid="10038" d="M95.12,272.17c-1-19.42,88.18-40.29,199.25-46.59s201.84,4.31,202.84,23.73S409,289.58,298,295.89,96.11,291.56,95.12,272.17Z" class="cls-39"/><path data-cppathid="10039" d="M97.62,272c-1-19.18,87.07-39.78,196.74-46s199.28,4.25,200.27,23.43-87.09,39.75-196.7,46S98.6,291.18,97.62,272Z" class="cls-40"/><path data-cppathid="10040" d="M100.12,271.88c-1-18.93,86-39.26,194.22-45.41s196.74,4.2,197.72,23.13-86,39.25-194.19,45.4S101.09,290.79,100.12,271.88Z" class="cls-41"/><path data-cppathid="10041" d="M102.63,271.74c-1-18.68,84.84-38.76,191.7-44.82s194.19,4.15,195.16,22.83-84.87,38.74-191.68,44.81S103.58,290.4,102.63,271.74Z" class="cls-42"/><path data-cppathid="10042" d="M105.13,271.6c-.95-18.44,83.73-38.25,189.19-44.24s191.64,4.1,192.59,22.53-83.75,38.24-189.15,44.23S106.07,290,105.13,271.6Z" class="cls-43"/><path data-cppathid="10043" d="M107.63,271.46c-.93-18.2,82.62-37.74,186.68-43.65s189.09,4,190,22.23S401.7,287.77,297.7,293.68,108.56,289.63,107.63,271.46Z" class="cls-44"/><path data-cppathid="10044" d="M110.13,271.31c-.92-17.95,81.51-37.23,184.16-43.05s186.55,4,187.48,21.93-81.53,37.21-184.13,43S111.05,289.24,110.13,271.31Z" class="cls-45"/><path data-cppathid="10045" d="M112.64,271.17c-.91-17.7,80.39-36.72,181.64-42.47s184,3.93,184.91,21.63S398.78,287,297.58,292.79,113.54,288.85,112.64,271.17Z" class="cls-46"/><path data-cppathid="10046" d="M115.14,271c-.9-17.46,79.28-36.22,179.13-41.88S475.72,233,476.62,250.48s-79.3,36.2-179.1,41.87S116,288.46,115.14,271Z" class="cls-47"/><path data-cppathid="10047" d="M117.64,270.89c-.88-17.22,78.17-35.71,176.62-41.29s178.9,3.81,179.78,21-78.18,35.7-176.57,41.29S118.52,288.08,117.64,270.89Z" class="cls-48"/><path data-cppathid="10048" d="M120.15,270.74c-.88-17,77-35.19,174.09-40.7s176.36,3.76,177.23,20.73S394.4,286,297.41,291.47,121,287.69,120.15,270.74Z" class="cls-49"/><path data-cppathid="10049" d="M122.65,270.6c-.86-16.72,75.94-34.69,171.58-40.11S468,234.2,468.9,250.92s-76,34.67-171.55,40.1S123.5,287.3,122.65,270.6Z" class="cls-50"/><path data-cppathid="10050" d="M125.15,270.46C124.31,254,200,236.28,294.22,230.93s171.25,3.66,172.1,20.13-74.84,34.17-169,39.52S126,286.91,125.15,270.46Z" class="cls-51"/><path data-cppathid="10051" d="M127.65,270.32c-.83-16.24,73.72-33.67,166.56-38.94s168.7,3.6,169.54,19.83S390,284.87,297.23,290.14,128.48,286.53,127.65,270.32Z" class="cls-52"/><path data-cppathid="10052" d="M130.16,270.17c-.82-16,72.6-33.16,164-38.34s166.15,3.54,167,19.52-72.62,33.16-164,38.35S131,286.14,130.16,270.17Z" class="cls-53"/><path data-cppathid="10053" d="M132.66,270c-.81-15.74,71.48-32.65,161.52-37.76s163.61,3.49,164.42,19.23-71.5,32.64-161.48,37.76S133.46,285.75,132.66,270Z" class="cls-54"/><path data-cppathid="10054" d="M135.16,269.89c-.79-15.5,70.37-32.15,159-37.17S455.23,236.15,456,251.65s-70.39,32.13-159,37.16S136,285.37,135.16,269.89Z" class="cls-55"/><path data-cppathid="10055" d="M137.66,269.75c-.78-15.26,69.26-31.64,156.5-36.59s158.51,3.38,159.29,18.63S384.18,283.42,297,288.37,138.44,285,137.66,269.75Z" class="cls-56"/><path data-cppathid="10056" d="M140.17,269.6c-.77-15,68.14-31.12,154-36s156,3.33,156.73,18.33-68.16,31.12-153.94,36S140.93,284.59,140.17,269.6Z" class="cls-57"/><path data-cppathid="10057" d="M142.67,269.46c-.76-14.76,67-30.62,151.46-35.4s153.42,3.27,154.18,18-67.05,30.61-151.43,35.41S143.43,284.2,142.67,269.46Z" class="cls-58"/><path data-cppathid="10058" d="M145.17,269.32c-.74-14.52,65.92-30.11,149-34.82S445,237.72,445.73,252.23s-65.93,30.1-148.9,34.82S145.92,283.82,145.17,269.32Z" class="cls-59"/><path data-cppathid="10059" d="M147.68,269.17c-.74-14.27,64.8-29.59,146.43-34.22s148.31,3.16,149.05,17.43S378.34,282,296.77,286.6,148.41,283.43,147.68,269.17Z" class="cls-60"/><path data-cppathid="10060" d="M150.18,269c-.72-14,63.69-29.09,143.92-33.64s145.76,3.11,146.49,17.13-63.71,29.09-143.88,33.64S150.9,283,150.18,269Z" class="cls-61"/><path data-cppathid="10061" d="M152.68,268.89c-.7-13.78,62.58-28.58,141.4-33s143.22,3,143.93,16.83-62.59,28.57-141.36,33.05S153.39,282.65,152.68,268.89Z" class="cls-62"/><path data-cppathid="10062" d="M155.18,268.75c-.69-13.54,61.47-28.08,138.89-32.46s140.67,3,141.37,16.52S374,280.88,296.59,285.28,155.88,282.27,155.18,268.75Z" class="cls-63"/><path data-cppathid="10063" d="M157.69,268.6C157,255.31,218,241,294.06,236.73s138.12,2.94,138.8,16.23-60.36,27.56-136.32,31.88S158.37,281.88,157.69,268.6Z" class="cls-64"/><path data-cppathid="10064" d="M160.19,268.46c-.67-13,59.24-27,133.86-31.28s135.57,2.89,136.24,15.92S371,280.16,296.48,284.39,160.86,281.49,160.19,268.46Z" class="cls-65"/><path data-cppathid="10065" d="M162.69,268.32c-.65-12.8,58.13-26.55,131.34-30.7s133,2.84,133.69,15.63S369.58,279.8,296.42,284,163.35,281.1,162.69,268.32Z" class="cls-66"/><path data-cppathid="10066" d="M165.19,268.18c-.64-12.56,57-26,128.83-30.11s130.48,2.78,131.12,15.33-57,26-128.78,30.11S165.84,280.72,165.19,268.18Z" class="cls-67"/><path data-cppathid="10067" d="M167.7,268c-.63-12.31,55.9-25.52,126.31-29.51s127.93,2.72,128.56,15-55.91,25.53-126.27,29.53S168.33,280.33,167.7,268Z" class="cls-68"/><path data-cppathid="10068" d="M170.2,267.89c-.62-12.06,54.79-25,123.8-28.93s125.37,2.67,126,14.73-54.8,25-123.75,28.94S170.82,279.94,170.2,267.89Z" class="cls-69"/><path data-cppathid="10069" d="M172.7,267.75c-.6-11.82,53.68-24.51,121.28-28.34S416.81,242,417.42,253.83s-53.68,24.52-121.23,28.35S173.31,279.55,172.7,267.75Z" class="cls-70"/><path data-cppathid="10070" d="M175.21,267.61c-.6-11.58,52.56-24,118.76-27.75S414.25,242.41,414.85,254s-52.57,24-118.72,27.76S175.8,279.17,175.21,267.61Z" class="cls-71"/><path data-cppathid="10071" d="M177.71,267.46C177.13,256.13,229.16,244,294,240.3s117.73,2.5,118.31,13.83-51.45,23.49-116.2,27.17S178.29,278.78,177.71,267.46Z" class="cls-72"/><path data-cppathid="10072" d="M180.21,267.32c-.57-11.08,50.33-23,113.74-26.57s115.18,2.45,115.75,13.52-50.34,23-113.69,26.59S180.78,278.39,180.21,267.32Z" class="cls-73"/><path data-cppathid="10073" d="M182.71,267.18c-.55-10.84,49.22-22.48,111.22-26s112.64,2.4,113.2,13.23S357.9,276.9,296,280.42,183.27,278,182.71,267.18Z" class="cls-74"/><path data-cppathid="10074" d="M185.22,267c-.54-10.59,48.1-22,108.7-25.39S404,244,404.55,254.56s-48.11,22-108.65,25.41S185.76,277.62,185.22,267Z" class="cls-75"/><path data-cppathid="10075" d="M187.72,266.89c-.53-10.34,47-21.45,106.19-24.8S401.45,244.37,402,254.71s-47,21.46-106.14,24.82S188.25,277.23,187.72,266.89Z" class="cls-76"/><path data-cppathid="10076" d="M190.22,266.75c-.51-10.1,45.88-20.95,103.68-24.22s105,2.23,105.51,12.33-45.89,20.95-103.63,24.23S190.74,276.84,190.22,266.75Z" class="cls-77"/><path data-cppathid="10077" d="M192.73,266.61c-.51-9.86,44.76-20.44,101.15-23.63s102.45,2.17,103,12-44.77,20.45-101.11,23.65S193.23,276.45,192.73,266.61Z" class="cls-78"/><path data-cppathid="10078" d="M195.23,266.46c-.49-9.61,43.65-19.93,98.64-23s99.89,2.12,100.39,11.73-43.66,19.94-98.6,23.06S195.72,276.07,195.23,266.46Z" class="cls-79"/><path data-cppathid="10079" d="M197.73,266.32c-.48-9.36,42.54-19.42,96.13-22.45s97.34,2.07,97.82,11.42-42.54,19.43-96.07,22.47S198.21,275.68,197.73,266.32Z" class="cls-80"/><path data-cppathid="10080" d="M200.23,266.18c-.46-9.12,41.43-18.91,93.62-21.86s94.79,2,95.26,11.12-41.43,18.92-93.56,21.88S200.7,275.29,200.23,266.18Z" class="cls-81"/><path data-cppathid="10081" d="M202.74,266c-.46-8.88,40.31-18.41,91.09-21.28s92.25,2,92.71,10.83S346.22,274,295.49,276.88,203.19,274.9,202.74,266Z" class="cls-82"/><path data-cppathid="10082" d="M205.24,265.89c-.44-8.63,39.2-17.89,88.58-20.68s89.7,1.9,90.14,10.52-39.2,17.91-88.53,20.71S205.68,274.52,205.24,265.89Z" class="cls-83"/><path data-cppathid="10083" d="M207.74,265.75c-.43-8.38,38.09-17.38,86.07-20.1s87.15,1.85,87.58,10.23-38.09,17.39-86,20.12S208.17,274.13,207.74,265.75Z" class="cls-84"/><path data-cppathid="10084" d="M210.24,265.61c-.41-8.14,37-16.88,83.56-19.51s84.6,1.79,85,9.92-37,16.89-83.5,19.53S210.66,273.74,210.24,265.61Z" class="cls-85"/><path data-cppathid="10085" d="M212.75,265.47c-.41-7.9,35.86-16.37,81-18.92s82.06,1.73,82.46,9.62-35.86,16.38-81,18.94S213.15,273.35,212.75,265.47Z" class="cls-86"/><path data-cppathid="10086" d="M215.25,265.32c-.39-7.65,34.75-15.86,78.52-18.33s79.51,1.68,79.9,9.33-34.75,15.87-78.47,18.35S215.64,273,215.25,265.32Z" class="cls-87"/><path data-cppathid="10087" d="M217.75,265.18c-.37-7.4,33.64-15.35,76-17.74s77,1.63,77.33,9-33.63,15.37-75.95,17.77S218.13,272.58,217.75,265.18Z" class="cls-88"/><path data-cppathid="10088" d="M220.26,265c-.37-7.16,32.52-14.84,73.49-17.16s74.4,1.58,74.77,8.73S336,271.46,295.08,273.79,220.62,272.19,220.26,265Z" class="cls-89"/><path data-cppathid="10089" d="M222.76,264.9c-.35-6.92,31.41-14.34,71-16.57s71.86,1.52,72.22,8.42S334.54,271.1,295,273.34,223.11,271.8,222.76,264.9Z" class="cls-90"/><path data-cppathid="10090" d="M225.26,264.75c-.34-6.67,30.3-13.82,68.46-16s69.31,1.46,69.65,8.12-30.29,13.84-68.4,16S225.61,271.42,225.26,264.75Z" class="cls-91"/><path data-cppathid="10091" d="M227.76,264.61c-.32-6.42,29.18-13.31,65.95-15.39s66.76,1.41,67.09,7.82-29.18,13.34-65.89,15.42S228.1,271,227.76,264.61Z" class="cls-92"/><path data-cppathid="10092" d="M230.27,264.47c-.32-6.18,28.06-12.81,63.43-14.8s64.21,1.35,64.53,7.52S330.16,270,294.85,272,230.59,270.64,230.27,264.47Z" class="cls-93"/><path data-cppathid="10093" d="M232.77,264.32c-.3-5.93,27-12.29,60.91-14.21s61.67,1.3,62,7.23-26.95,12.31-60.86,14.24S233.08,270.25,232.77,264.32Z" class="cls-94"/><path data-cppathid="10094" d="M235.27,264.18c-.29-5.68,25.84-11.79,58.4-13.62s59.12,1.24,59.41,6.92-25.84,11.81-58.34,13.65S235.57,269.87,235.27,264.18Z" class="cls-95"/><path data-cppathid="10095" d="M237.77,264c-.27-5.44,24.73-11.28,55.89-13s56.57,1.19,56.84,6.62-24.72,11.3-55.82,13.06S238.06,269.48,237.77,264Z" class="cls-96"/><path data-cppathid="10096" d="M240.28,263.9c-.27-5.2,23.61-10.77,53.37-12.45s54,1.14,54.28,6.32-23.61,10.8-53.31,12.48S240.55,269.09,240.28,263.9Z" class="cls-97"/><path data-cppathid="10097" d="M242.78,263.75c-.25-4.95,22.5-10.26,50.85-11.85s51.47,1.08,51.73,6-22.5,10.28-50.8,11.89S243,268.7,242.78,263.75Z" class="cls-98"/><path data-cppathid="10098" d="M245.28,263.61c-.23-4.7,21.39-9.75,48.34-11.26s48.92,1,49.16,5.72-21.38,9.77-48.28,11.3S245.53,268.32,245.28,263.61Z" class="cls-99"/><path data-cppathid="10099" d="M247.79,263.47c-.23-4.46,20.27-9.24,45.82-10.68s46.37,1,46.6,5.42-20.27,9.27-45.77,10.71S248,267.93,247.79,263.47Z" class="cls-100"/><path data-cppathid="10100" d="M250.29,263.33c-.21-4.22,19.16-8.74,43.31-10.09s43.82.91,44,5.12-19.17,8.76-43.25,10.12S250.51,267.54,250.29,263.33Z" class="cls-101"/><path data-cppathid="10101" d="M252.79,263.18c-.2-4,18-8.22,40.79-9.5s41.28.86,41.48,4.82S317,266.75,294.33,268,253,267.16,252.79,263.18Z" class="cls-102"/></g><path data-cppathid="10102" d="M103.47,0H487.09A10.41,10.41,0,0,1,497.5,10.41V257.27a10.41,10.41,0,0,1-10.41,10.41H103.47a10.41,10.41,0,0,1-10.41-10.41V10.42A10.42,10.42,0,0,1,103.47,0Z" class="cls-103"/><path data-cppathid="10103" d="M105,127.18c-.47-.05-.67-.29-.59-.71a.69.69,0,0,1,.8-.57l1.11.13v-1.22l-2.79.53-.19,0a.72.72,0,0,1-.65-.49.54.54,0,0,1-.06-.25c0-.28.19-.45.57-.52l3.12-.59v-.88a1.15,1.15,0,0,1,.36-.86L108,120.4h-2.16l-1.32,2a.66.66,0,0,1-.59.36l-.14,0a.4.4,0,0,1-.15,0l-.91-.27c-.3-.1-.46-.27-.46-.52a.66.66,0,0,1,.13-.4l2.29-3.53h-1.56q-.69,0-.69-.63t.69-.63h2.38l.21-.34V113.6h-2q-.69,0-.69-.63t.69-.63h2v-2.69a.61.61,0,0,1,.69-.69h1.3a.61.61,0,0,1,.69.69v2.65l1.6-2.46a.7.7,0,0,1,.61-.36h.14a.48.48,0,0,1,.15,0l.88.28c.33.11.49.29.49.54a.65.65,0,0,1-.13.38l-1.07,1.64a.54.54,0,0,1,.5.61q0,.63-.69.63h-.61l-1.87,2.87v.3H111q.69,0,.69.63T111,118h-3.59l-.74,1.11h4.18c.39,0,.59.14.59.4a.79.79,0,0,1-.23.46L109,122.21v.8l1.56-.3.19,0a.72.72,0,0,1,.65.48.62.62,0,0,1,.06.26c0,.28-.19.45-.57.52l-1.89.36v2.58c0,.48-.24.69-.73.65Zm8.38-.08a.76.76,0,0,1-.65.38,1.76,1.76,0,0,1-.27,0l-.91-.28c-.32-.11-.48-.28-.48-.5a.45.45,0,0,1,0-.2l.11-.2,3.32-5.19-1.77-2.75a2,2,0,0,1-.1-.21.49.49,0,0,1,0-.19c0-.23.17-.41.49-.52l.9-.27a1.12,1.12,0,0,1,.27,0,.75.75,0,0,1,.65.38l1,1.49,2.39-3.74a.76.76,0,0,1,.66-.37,1,1,0,0,1,.27,0l.9.27c.32.11.49.28.49.51a.49.49,0,0,1,0,.18,2,2,0,0,1-.1.21l-3.22,5,3.32,5.19a1.36,1.36,0,0,1,.11.2.45.45,0,0,1,0,.2c0,.24-.16.41-.48.52l-.91.28a1,1,0,0,1-.27,0,.76.76,0,0,1-.65-.38l-2.52-3.93Zm.46-11.11a.68.68,0,0,1-.67.51.47.47,0,0,1-.19,0l-1.13-.21c-.37-.06-.55-.25-.55-.54a.71.71,0,0,1,.07-.32l2.14-5.73a.67.67,0,0,1,.67-.5.5.5,0,0,1,.19,0l1.13.21c.37.07.55.25.55.54a1,1,0,0,1-.06.32l-1,2.62h5.52q.69,0,.69.63t-.69.63h-6Z" class="cls-104"/><path data-cppathid="10104" d="M131.37,126.09a.62.62,0,0,1-.7.7h-1.09a.73.73,0,0,1-.51-.17.57.57,0,0,1-.18-.44h-2a.62.62,0,0,1-.69.61h-1.3a.62.62,0,0,1-.7-.7V112a.62.62,0,0,1,.7-.69h1.3a1,1,0,0,1,.36.06l.82-1.47a.69.69,0,0,1,.63-.42h.12l.13,0,1,.25c.34.09.51.27.51.55a.85.85,0,0,1-.11.36l-.63,1.11h1.66a.61.61,0,0,1,.7.69v5.32a.61.61,0,0,1-.7.69h-1.09a.59.59,0,0,1-.67-.55h-2v2h3.78a.61.61,0,0,1,.7.69ZM128.89,113h-2v3.63h2Zm0,8.13h-2v3.76h2Zm5.73,3.63a.61.61,0,0,1-.69.69h-1.09a.61.61,0,0,1-.7-.69v-11a.62.62,0,0,1,.7-.7h1.09a.6.6,0,0,1,.67.51h.94V111h-2.75q-.69,0-.69-.63t.69-.63h8.34q.69,0,.69.63t-.69.63h-2.9v2.61h2.56a.61.61,0,0,1,.7.69v10.63c0,.47-.25.69-.74.65l-1.64-.17a.68.68,0,0,1-.65-.78.71.71,0,0,1,.12-.43.26.26,0,0,1,.26-.13l.38,0v-9.24h-1v12.18a.61.61,0,0,1-.69.69h-1.3a.62.62,0,0,1-.7-.69V114.88h-.92Z" class="cls-104"/><path data-cppathid="10105" d="M158.29,124.85a1.55,1.55,0,0,1,.4-.06.9.9,0,0,1,.28,0,.76.76,0,0,1,.26.15l.17.13a.6.6,0,0,1,.32.5c0,.24-.16.38-.47.44q-.75.17-1.86.33c-.75.1-1.52.19-2.32.25s-1.54.09-2.24.09a15.58,15.58,0,0,1-4.22-.51,6.56,6.56,0,0,1-2.8-1.47,3.1,3.1,0,0,1-1-2.28,3.32,3.32,0,0,1,.89-2.23,9.93,9.93,0,0,1,3-2.08L146,112.57a.86.86,0,0,1-.08-.36c0-.26.17-.44.5-.52l1.08-.23a.73.73,0,0,1,.88.42l2.5,5.29c1-.39,2-.8,3.26-1.22s2.6-.86,4.13-1.32a.33.33,0,0,1,.16,0h.15a.68.68,0,0,1,.63.38v0a.75.75,0,0,1,.13.4c0,.24-.17.42-.5.53q-3.36,1-5.57,1.85a22.51,22.51,0,0,0-3.47,1.55,5.55,5.55,0,0,0-1.8,1.49,2.84,2.84,0,0,0-.52,1.66,2.45,2.45,0,0,0,1.24,2.28,8.59,8.59,0,0,0,4.07.72c.67,0,1.36,0,2.06-.08s1.35-.13,2-.22A9.36,9.36,0,0,0,158.29,124.85Z" class="cls-104"/><path data-cppathid="10106" d="M173.66,120.09a.65.65,0,0,1,.71-.7h1.31a.6.6,0,0,1,.67.72,9,9,0,0,1-1,3.87,6.13,6.13,0,0,1-2.48,2.49,7.69,7.69,0,0,1-3.72.86,6.41,6.41,0,0,1-4.56-1.55,5.67,5.67,0,0,1-1.65-4.33c0-.38,0-.87,0-1.47s.06-1.26.11-2,.09-1.46.14-2.21.12-1.46.18-2.14.12-1.27.18-1.77a.61.61,0,0,1,.75-.61l1.26.08a.59.59,0,0,1,.63.74c0,.49-.11,1.06-.16,1.73s-.12,1.36-.17,2.1-.11,1.45-.15,2.16-.07,1.36-.09,1.94,0,1.07,0,1.43a5.63,5.63,0,0,0,.9,3.45,3.11,3.11,0,0,0,2.62,1.17,3.81,3.81,0,0,0,3.2-1.59A8,8,0,0,0,173.66,120.09Z" class="cls-104"/><path data-cppathid="10107" d="M191.38,125.69c.45,0,.68.25.68.65s-.24.64-.72.61a14.24,14.24,0,0,1-3.31-.52,9.49,9.49,0,0,1-2.65-1.2,6.07,6.07,0,0,1-1.78-1.75,4,4,0,0,1-.64-2.15,6.78,6.78,0,0,1,1.4-4.13,11,11,0,0,1,3.87-3.16l-8.82.63q-.75,0-.75-.72,0-.48.63-.54l13.21-1a.74.74,0,0,1,.82.55,2.23,2.23,0,0,1,0,.23c0,.28-.19.48-.57.59a11.91,11.91,0,0,0-3.82,1.66,8,8,0,0,0-2.46,2.58,6.46,6.46,0,0,0-.86,3.26,3.61,3.61,0,0,0,.52,2,3.88,3.88,0,0,0,1.36,1.31,6.6,6.6,0,0,0,1.86.75A11.69,11.69,0,0,0,191.38,125.69Z" class="cls-104"/><path data-cppathid="10108" d="M202.37,127.27a.68.68,0,0,1,.23.46c0,.2-.14.36-.4.48l-.4.19a.79.79,0,0,1-.38.09.77.77,0,0,1-.59-.28L197,124.33a.65.65,0,0,1-.23-.46c0-.2.13-.36.4-.49l.4-.19a.87.87,0,0,1,.37-.08.78.78,0,0,1,.59.27Z" class="cls-104"/><path data-cppathid="10109" d="M104.86,144.09a.68.68,0,0,1-.65.46h-.1l-.11,0-1-.21c-.35-.08-.52-.27-.52-.57a.81.81,0,0,1,.06-.31l3.68-8a.69.69,0,0,1,.65-.47h.1a.2.2,0,0,1,.11,0l1,.21c.35.08.52.26.52.52a.86.86,0,0,1-.08.36l-1.14,2.5h3.72v-3.7a.61.61,0,0,1,.69-.69h1.31a.61.61,0,0,1,.69.69v3.7h5.71q.69,0,.69.63t-.69.63h-5.71v5.27h4.87q.69,0,.69.63t-.69.63h-4.87v4.55h6.34q.69,0,.69.63t-.69.63H103.46c-.47,0-.7-.21-.7-.63s.23-.63.7-.63h7.64v-4.55h-5.63q-.69,0-.69-.63t.69-.63h5.63v-5.27h-4.3Z" class="cls-104"/><path data-cppathid="10110" d="M125.46,146.34a.8.8,0,0,1-.56.27,1.13,1.13,0,0,1-.38-.11l-.59-.27a.57.57,0,0,1-.4-.5.66.66,0,0,1,.23-.46l5.19-5.11a.8.8,0,0,1,.57-.27,1.11,1.11,0,0,1,.38.1l.58.28a.56.56,0,0,1,.4.5.62.62,0,0,1-.23.46l-1.72,1.7a.77.77,0,0,1,.13.45v8.56a.62.62,0,0,1-.7.7h-1.3a.61.61,0,0,1-.69-.7v-6.49Zm.51-5.67a.75.75,0,0,1-.61.31,1.16,1.16,0,0,1-.34-.06l-.75-.3c-.3-.12-.44-.3-.44-.52a.62.62,0,0,1,.19-.42l4.11-5.12a.76.76,0,0,1,.61-.32,1.16,1.16,0,0,1,.34.06l.75.3c.3.12.44.3.44.52a.66.66,0,0,1-.19.42Zm6.26,11a.66.66,0,0,1-.78.59l-1.26-.13a.58.58,0,0,1-.59-.77l1.28-6.28a.65.65,0,0,1,.78-.59l1.26.13a.58.58,0,0,1,.59.77l-.74,3.64,2.15.46v-6.2a.77.77,0,0,1,.1-.42h-3.78q-.69,0-.69-.63t.69-.63h3.59v-3.78h-3.59q-.69,0-.69-.63t.69-.63h3.59v-1.76a.61.61,0,0,1,.69-.69h1.31a.61.61,0,0,1,.69.69v1.76h2.88q.69,0,.69.63t-.69.63h-2.88v3.78h3.72q.69,0,.69.63t-.69.63H137.5a.77.77,0,0,1,.1.42v2.4h3.22q.69,0,.69.63t-.69.63H137.6v2.85a.7.7,0,0,1,0,.27l4,.91c.37.08.55.25.55.5a.6.6,0,0,1-.06.27l0,.05a.73.73,0,0,1-.68.46h-.1l-.11,0-8.67-1.93Z" class="cls-104"/><path data-cppathid="10111" d="M157.32,151.88a.65.65,0,0,1-.54.29.88.88,0,0,1-.4-.1l-.63-.29c-.27-.13-.4-.3-.4-.51a.85.85,0,0,1,.17-.44,7.37,7.37,0,0,0,.77-1.54,11.26,11.26,0,0,0,.53-1.92,11.92,11.92,0,0,0,.19-2,8.26,8.26,0,0,0-.95-4.2,4.14,4.14,0,0,0-2.66-2,29,29,0,0,1,.5,5,10.76,10.76,0,0,1-1.21,5.54,3.88,3.88,0,0,1-3.56,2,4.53,4.53,0,0,1-2.5-.69,4.73,4.73,0,0,1-1.66-1.9,6.36,6.36,0,0,1-.58-2.79A9.09,9.09,0,0,1,145,143a8.66,8.66,0,0,1,1.7-2.74,8,8,0,0,1,2.49-1.86,7,7,0,0,1,3-.67,8.22,8.22,0,0,1,4,.91,6.21,6.21,0,0,1,2.58,2.62,8.72,8.72,0,0,1,.9,4.09A9.51,9.51,0,0,1,157.32,151.88Zm-10.25-5.59a6.63,6.63,0,0,0,.3,2.05,4.21,4.21,0,0,0,.76,1.5,1.33,1.33,0,0,0,1,.57c.39,0,.74-.29,1-.87a8.6,8.6,0,0,0,.72-2.36,20.12,20.12,0,0,0,.26-3.36c0-.72,0-1.45-.1-2.21s-.16-1.52-.3-2.31a5.43,5.43,0,0,0-1.86,1.56,8.5,8.5,0,0,0-1.32,2.46A9,9,0,0,0,147.07,146.29Z" class="cls-104"/><path data-cppathid="10112" d="M165,151.9c0,.44-.25.65-.72.65l-1.28,0a.59.59,0,0,1-.67-.71l.59-12.87a.77.77,0,0,1,.13-.42.52.52,0,0,1-.11-.36q0-.63.69-.63h7.52l-.69-2.14a1.16,1.16,0,0,1,0-.28c0-.32.18-.5.56-.54l1.18-.17h.17a.63.63,0,0,1,.65.52l.84,2.63h5.79c.47,0,.7.21.7.63s-.23.63-.7.63h-5.39l1.8,5.61,1.91-3.07a.73.73,0,0,1,.63-.4,1.16,1.16,0,0,1,.28,0l.9.27c.32.12.48.29.48.53a.9.9,0,0,1-.12.38l-3.17,5.06,1.05,3.25,1.19-.31a1,1,0,0,1,.23,0,.7.7,0,0,1,.65.44.84.84,0,0,1,.11.33.56.56,0,0,1-.5.55l-3.09.8-.13,0h-.1a.63.63,0,0,1-.63-.51l-.55-1.7L174,151.88a.73.73,0,0,1-.63.4,1.16,1.16,0,0,1-.28,0l-.9-.28c-.32-.11-.48-.28-.48-.52a.79.79,0,0,1,.12-.38l2.4-3.82-2.71-8.44h-6a.85.85,0,0,1,0,.23l-.17,3.61h5.08c.48,0,.69.24.65.71l-.65,8.24c0,.4-.23.61-.57.61l-.23,0-3.32-.82c-.35-.08-.52-.25-.52-.5a.4.4,0,0,1,0-.15.58.58,0,0,0,0-.14l0-.07a.72.72,0,0,1,.65-.44h.13l.13,0,1.05.26.52-6.43h-3.09Zm13.77-16.08a.63.63,0,0,1,.36.5.63.63,0,0,1-.25.46l-.21.17a.88.88,0,0,1-.55.23.84.84,0,0,1-.4-.13l-2.56-1.4c-.24-.16-.36-.32-.36-.51a.61.61,0,0,1,.26-.46l.21-.17a.85.85,0,0,1,.54-.23.73.73,0,0,1,.4.13Z" class="cls-104"/><path data-cppathid="10113" d="M185,151.1a.62.62,0,0,1-.75.63l-.68,0A.59.59,0,0,1,183,151l.28-3.2a.63.63,0,0,1,.75-.63l.68.05a.58.58,0,0,1,.62.73Zm3.66.91a.62.62,0,0,1-.7.69h-1.3A.61.61,0,0,1,186,152v-6l-2.31.19c-.42,0-.63-.11-.63-.4a.78.78,0,0,1,.14-.42l1.94-3-.05-.07-1.76-2.35a.8.8,0,0,1-.19-.48.66.66,0,0,1,.19-.48l3.36-4.42a.73.73,0,0,1,.59-.33,1.05,1.05,0,0,1,.33.06l.8.27c.3.1.44.27.44.51a.77.77,0,0,1-.16.42l-3,4,.72.94.75-1.17a.77.77,0,0,1,.65-.38,1.16,1.16,0,0,1,.28,0l.9.27c.32.12.48.28.48.51a.5.5,0,0,1,0,.19,2,2,0,0,1-.1.21l-3,4.64,2.57-.21-.36-1.45a.68.68,0,0,1,0-.21.56.56,0,0,1,.57-.61l.6-.08a.63.63,0,0,1,.8.54l.78,3.21a1.25,1.25,0,0,1,0,.21.56.56,0,0,1-.57.61l-.61.09a.62.62,0,0,1-.79-.55l-.13-.5h-.06l-.49,0a.62.62,0,0,1,0,.25Zm3-1.39a.61.61,0,0,1-.65.74l-.68,0a.61.61,0,0,1-.73-.63l-.27-2.63a.7.7,0,0,1,.14-.53.66.66,0,0,1,.51-.22l.67,0a.62.62,0,0,1,.73.63Zm5.88-10.1v.06h3c.46,0,.7.21.7.63s-.24.63-.7.63h-8.71c-.46,0-.7-.21-.7-.63s.24-.63.7-.63h3v-.88h-2q-.69,0-.69-.63t.69-.63h2V137.2h-2.52q-.69,0-.69-.63t.69-.63h2.52v-.67a.61.61,0,0,1,.69-.69h1.3a.61.61,0,0,1,.7.69v.67h2.54q.69,0,.69.63t-.69.63h-2.54v1.24h2q.69,0,.69.63t-.69.63h-2ZM192,143a.61.61,0,0,1,.69-.69H194a.82.82,0,0,1,.42.1h5.77a.61.61,0,0,1,.69.69v6.52a.61.61,0,0,1-.69.69h-1.3a.77.77,0,0,1-.42-.11h-4a.82.82,0,0,1-.42.11h-1.31a.61.61,0,0,1-.69-.69Zm1.34,9.64a.87.87,0,0,1-.37.08.77.77,0,0,1-.57-.27l-.11-.11a.66.66,0,0,1-.23-.44c0-.21.14-.37.42-.5l1.83-.82a.92.92,0,0,1,.38-.08.77.77,0,0,1,.57.27l.1.1a.7.7,0,0,1,.23.45c0,.21-.14.37-.42.5Zm4.86-9h-3.51v.86h3.51Zm-3.51,3.11h3.51v-1h-3.51Zm0,2.16h3.51v-.9h-3.51Zm5.94,2.54q.42.19.42.51a.7.7,0,0,1-.19.42l-.14.14a.86.86,0,0,1-.59.3.74.74,0,0,1-.36-.09l-2.1-.92c-.28-.13-.42-.29-.42-.5a.62.62,0,0,1,.19-.42l.15-.15a.81.81,0,0,1,.58-.29.73.73,0,0,1,.36.08Z" class="cls-104"/><path data-cppathid="10114" d="M216.29,147.47c0,.48-.2.71-.69.71h-1.31q-.64,0-.69-.69a8.23,8.23,0,0,0-.17-1.24A18.51,18.51,0,0,0,210,148c-.83.58-1.24,1.11-1.24,1.58s.28.73.85.94a8.56,8.56,0,0,0,2.64.3,12.39,12.39,0,0,0,5.5-1.17.85.85,0,0,1,.44-.13.72.72,0,0,1,.5.21l.21.17a.59.59,0,0,1,.28.48.53.53,0,0,1-.38.48,12.64,12.64,0,0,1-1.94.63,18.54,18.54,0,0,1-2.29.43,16.87,16.87,0,0,1-2.32.16,13.56,13.56,0,0,1-3.09-.33,7,7,0,0,1-2.25-.91,1.57,1.57,0,0,1-.84-1.26,2.17,2.17,0,0,1,.84-1.48,10.89,10.89,0,0,1,2.41-1.6,31.76,31.76,0,0,1,3.7-1.62,3.5,3.5,0,0,0-.95-1.31,2,2,0,0,0-1.27-.48,2.37,2.37,0,0,0-1.37.43,4.34,4.34,0,0,0-1.15,1.38.87.87,0,0,1-.46.42l0,0h-.08l0,0h-.19l-.11,0-1-.23-.13,0c-.29-.1-.44-.27-.44-.51a.85.85,0,0,1,.08-.35l2.06-4.29H204.7c-.46,0-.7-.21-.7-.63s.24-.63.7-.63h3.84l.76-1.59a.7.7,0,0,1,.67-.47h.1a.18.18,0,0,1,.11,0l1.07.25c.34.08.5.26.5.52a.73.73,0,0,1-.08.36l-.44.9h6.68q.69,0,.69.63t-.69.63h-7.27l-1,2a6,6,0,0,1,1.12-.11,5.62,5.62,0,0,1,2.62.59,4.81,4.81,0,0,1,1.85,1.68q1.59-.52,3.36-1l.15,0h.12a.69.69,0,0,1,.63.42.87.87,0,0,1,.11.34c0,.28-.18.46-.53.55-1.14.3-2.22.62-3.23,1A8.5,8.5,0,0,1,216.29,147.47Z" class="cls-104"/><path data-cppathid="10115" d="M225.74,151.08a.78.78,0,0,1-.57.25.81.81,0,0,1-.38-.08l-.58-.27c-.27-.13-.4-.3-.4-.51A.65.65,0,0,1,224,150l9.57-9.62H223.43q-.69,0-.69-.63t.69-.63h10.79v-1.47a.61.61,0,0,1,.7-.69h1.3a.61.61,0,0,1,.69.69v1.47h2.82q.69,0,.69.63t-.69.63h-2.82v11.09c0,.48-.24.69-.71.65l-3.47-.25c-.42,0-.63-.22-.63-.55a.68.68,0,0,1,.23-.56.71.71,0,0,1,.57-.15l1.32.11v-8.17Z" class="cls-104"/><path data-cppathid="10116" d="M250.25,140.41c.23.16.35.32.35.49a.6.6,0,0,1-.29.48l-.25.21a.83.83,0,0,1-.51.19.86.86,0,0,1-.46-.15l-5.56-3.38q-.36-.23-.36-.48a.63.63,0,0,1,.29-.48l.26-.21a.78.78,0,0,1,.5-.19.91.91,0,0,1,.46.14Zm6.78,2.27a.86.86,0,0,1,1,0l.27.21a.66.66,0,0,1,.29.49.59.59,0,0,1-.33.48l-12.35,7.77a.9.9,0,0,1-.48.15.86.86,0,0,1-.49-.17l-.27-.21a.63.63,0,0,1-.29-.48.59.59,0,0,1,.33-.49Z" class="cls-104"/><path data-cppathid="10117" d="M271.16,152.3a.74.74,0,0,1-.59.34.89.89,0,0,1-.33-.07l-.8-.27c-.31-.11-.46-.28-.46-.5a.67.67,0,0,1,.17-.42l5.88-8H262.22c-.47,0-.7-.21-.7-.63s.23-.63.7-.63h15.41c.39,0,.59.14.59.42a.79.79,0,0,1-.17.42Zm4.43-15.22c.47,0,.7.21.7.63s-.23.63-.7.63H264q-.69,0-.69-.63t.69-.63Z" class="cls-104"/><path data-cppathid="10118" d="M281.75,146.76a.88.88,0,0,1-.44.12.76.76,0,0,1-.53-.21l-.21-.17a.63.63,0,0,1-.29-.48c0-.17.12-.33.35-.48L295.38,137a.94.94,0,0,1,.44-.12.75.75,0,0,1,.52.21l.21.16a.68.68,0,0,1,.3.49q0,.25-.36.48l-5.84,3.38a.65.65,0,0,1,.17.48v9.45a.61.61,0,0,1-.69.7h-1.31a.61.61,0,0,1-.69-.7v-8.48Z" class="cls-104"/><path data-cppathid="10119" d="M306.27,140.41c.24.16.36.32.36.49a.63.63,0,0,1-.29.48l-.25.21a.78.78,0,0,1-1,0l-5.57-3.38c-.23-.15-.35-.31-.35-.48a.63.63,0,0,1,.29-.48l.25-.21a.83.83,0,0,1,.51-.19.91.91,0,0,1,.46.14Zm6.79,2.27a.84.84,0,0,1,.48-.14.79.79,0,0,1,.48.16l.28.21a.66.66,0,0,1,.29.49.58.58,0,0,1-.34.48l-12.34,7.77a.91.91,0,0,1-.49.15.83.83,0,0,1-.48-.17l-.27-.21a.65.65,0,0,1-.3-.48.58.58,0,0,1,.34-.49Z" class="cls-104"/><path data-cppathid="10120" d="M329.48,150.89c.45,0,.67.25.67.65s-.24.64-.71.61a14.24,14.24,0,0,1-3.31-.52,9.56,9.56,0,0,1-2.66-1.2,6.15,6.15,0,0,1-1.77-1.75,3.89,3.89,0,0,1-.64-2.15,6.76,6.76,0,0,1,1.39-4.13,11.12,11.12,0,0,1,3.88-3.16l-8.82.63a.63.63,0,0,1-.76-.71c0-.33.21-.51.63-.55l13.21-1a.74.74,0,0,1,.82.55,1,1,0,0,1,0,.23c0,.28-.19.48-.56.59a12,12,0,0,0-3.83,1.66,8,8,0,0,0-2.45,2.58,6.36,6.36,0,0,0-.86,3.26,3.69,3.69,0,0,0,.51,2,3.91,3.91,0,0,0,1.37,1.31,6.42,6.42,0,0,0,1.85.75A11.8,11.8,0,0,0,329.48,150.89Zm.88-4.13a.72.72,0,0,1,0,.23c0,.35-.19.54-.57.59l-.6.08a.63.63,0,0,1-.8-.55l-1.09-4.41a.72.72,0,0,1,0-.23c0-.35.18-.54.56-.59l.61-.08a.64.64,0,0,1,.82.55Zm2.31-1.28a.72.72,0,0,1,0,.23c0,.32-.18.51-.54.58l-.61.11a.64.64,0,0,1-.82-.55l-1.07-4.11a.31.31,0,0,1,0-.13.5.5,0,0,1,0-.12q0-.47.57-.57l.61-.11a.65.65,0,0,1,.82.55Z" class="cls-104"/><path data-cppathid="10121" d="M336.49,152.59a.71.71,0,0,1-.57-.14.72.72,0,0,1-.23-.57c0-.31.2-.5.59-.57A6.54,6.54,0,0,0,340.1,149l-1.88-.59c-.33-.11-.49-.27-.49-.5a.92.92,0,0,1,.11-.34l.06-.1a.73.73,0,0,1,.61-.38.78.78,0,0,1,.31.06l2.15.68a14.91,14.91,0,0,0,.88-1.79h-2.54a.69.69,0,0,1-.46.15h-1.31a.61.61,0,0,1-.69-.69v-7.17a.61.61,0,0,1,.69-.69h1.31a.69.69,0,0,1,.54.21h4.08c0-.5,0-1,0-1.53v-.09h-7.69q-.69,0-.69-.63t.69-.63h16.65c.47,0,.7.21.7.63s-.23.63-.7.63h-6.32a3.1,3.1,0,0,1,0,.45c0,.4,0,.79,0,1.17h4.94a.61.61,0,0,1,.69.7v6.95a.61.61,0,0,1-.69.69h-1.3a.68.68,0,0,1-.47-.15h-4.76a13.57,13.57,0,0,1-1.33,2.48l9.47,2.92c.33.11.49.28.49.5a.82.82,0,0,1-.11.34l-.06.1a.71.71,0,0,1-.61.38,1,1,0,0,1-.32-.06l-9.8-3A9.64,9.64,0,0,1,336.49,152.59Zm3.05-11.1h3.55q.17-1.14.27-2.4h-3.82Zm0,3.27h2.77a16.37,16.37,0,0,0,.52-2h-3.29Zm5.46,0h4.07v-2h-3.55C345.37,143.46,345.19,144.13,345,144.76Zm4.07-5.67h-3q-.1,1.26-.3,2.4h3.32Z" class="cls-104"/><path data-cppathid="10122" d="M358.1,152a.75.75,0,0,1-.61.31,1.1,1.1,0,0,1-.33-.06l-.76-.3c-.29-.12-.44-.3-.44-.52a.61.61,0,0,1,.17-.42l3-3.82h-2.73q-.69,0-.69-.63t.69-.63h3.28v-1.66h-3.28q-.69,0-.69-.63t.69-.63h1v0l-.23-4.67v-.1h-.27c-.47,0-.7-.21-.7-.63s.23-.63.7-.63h2.62v-2.1a.61.61,0,0,1,.69-.69h1.31a.61.61,0,0,1,.69.69V137h2.41c.47,0,.7.21.7.63a.62.62,0,0,1-.17.46.6.6,0,0,1-.44.17.58.58,0,0,1,0,.19L364,143h.59q.69,0,.69.63t-.69.63h-2.18v1.66h1.82c.47,0,.7.21.7.63s-.23.63-.7.63h-1.82l2.24,1.74a.62.62,0,0,1,.3.46c0,.18-.13.35-.38.51l-.42.25a.74.74,0,0,1-.44.14.77.77,0,0,1-.53-.21l-.77-.6v2.87a.62.62,0,0,1-.7.7h-1.3a.62.62,0,0,1-.69-.7V150Zm2-9.1V143h1.24a.3.3,0,0,1,0-.19l.73-4.6h-2.2v0Zm7.64,9.1c0,.47-.27.7-.73.67l-1.3,0a.61.61,0,0,1-.66-.72l.7-12.81a.82.82,0,0,1,.14-.44.5.5,0,0,1,0-.12.56.56,0,0,1,.36-.49l6.61-3.65a.84.84,0,0,1,.4-.13.86.86,0,0,1,.55.23l.19.17a.7.7,0,0,1,.27.48.56.56,0,0,1-.36.49l-5.58,3.08a.6.6,0,0,1,.12.47l-.1,1.93h5.42q.69,0,.69.63t-.69.63H373v9.91a.61.61,0,0,1-.69.69H371a.61.61,0,0,1-.69-.69v-9.91h-2Z" class="cls-104"/><path data-cppathid="10123" d="M389.1,150.89c.45,0,.67.25.67.65s-.24.64-.71.61a14.16,14.16,0,0,1-3.31-.52,9.56,9.56,0,0,1-2.66-1.2,6,6,0,0,1-1.77-1.75,3.89,3.89,0,0,1-.64-2.15,6.76,6.76,0,0,1,1.39-4.13,11,11,0,0,1,3.88-3.16l-8.82.63a.63.63,0,0,1-.76-.71c0-.33.21-.51.63-.55l13.21-1a.74.74,0,0,1,.82.55,1,1,0,0,1,0,.23c0,.28-.19.48-.56.59a12,12,0,0,0-3.83,1.66,8,8,0,0,0-2.45,2.58,6.37,6.37,0,0,0-.87,3.26,3.69,3.69,0,0,0,.52,2,4,4,0,0,0,1.36,1.31,6.6,6.6,0,0,0,1.86.75A11.65,11.65,0,0,0,389.1,150.89Zm.88-4.13a1.21,1.21,0,0,1,0,.23c0,.35-.19.54-.57.59l-.61.08a.62.62,0,0,1-.79-.55l-1.09-4.41a.67.67,0,0,1,0-.23c0-.35.19-.54.57-.59l.61-.08a.64.64,0,0,1,.82.55Zm2.31-1.28a1.21,1.21,0,0,1,0,.23c0,.32-.18.51-.54.58l-.61.11a.64.64,0,0,1-.82-.55l-1.07-4.11a.65.65,0,0,1,0-.13s0-.08,0-.12q0-.47.57-.57l.61-.11a.65.65,0,0,1,.82.55Z" class="cls-104"/><path data-cppathid="10124" d="M406.4,150.83q.69,0,.69.63t-.69.63H400a10.16,10.16,0,0,1-2.64-.32,4.73,4.73,0,0,1-1.84-.92,1.76,1.76,0,0,1-.67-1.36,2.57,2.57,0,0,1,.36-1.29,6.42,6.42,0,0,1,1-1.3.8.8,0,0,1,.55-.25.88.88,0,0,1,.42.11l.61.31c.25.13.38.29.38.48a.92.92,0,0,1-.15.45,2.92,2.92,0,0,0-.33.74,2.37,2.37,0,0,0-.13.75,1.12,1.12,0,0,0,.51,1,4.5,4.5,0,0,0,2,.29Zm-.21-3.11a.6.6,0,0,1-.61.78l-1.26.1a.63.63,0,0,1-.77-.6l-.65-4.12h-7.1c-.47,0-.7-.21-.7-.63s.23-.63.7-.63h6.91l-.51-3.15h-6.42c-.47,0-.7-.21-.7-.63s.23-.63.7-.63H402l-.14-1a.59.59,0,0,1,.6-.77l1.26-.11a.64.64,0,0,1,.78.61l.19,1.22h3.53q.69,0,.69.63t-.69.63h-3.34l.5,3.15h3.76c.46,0,.7.21.7.63s-.24.63-.7.63h-3.57Z" class="cls-104"/><path data-cppathid="10125" d="M426.71,147.64a3.2,3.2,0,0,1-1,2.32A6.53,6.53,0,0,1,423,151.5a13.22,13.22,0,0,1-4,.55,15,15,0,0,1-3-.28,5.54,5.54,0,0,1-2.05-.81,1.52,1.52,0,0,1-.74-1.24,1.79,1.79,0,0,1,.73-1.36,5.47,5.47,0,0,1,1.88-1,7.54,7.54,0,0,1,2.43-.38,6.22,6.22,0,0,1,3.15.73,3.68,3.68,0,0,1,1.73,2.08,2.67,2.67,0,0,0,.94-2.16,3.55,3.55,0,0,0-.49-1.89,3.45,3.45,0,0,0-1.37-1.28,4.19,4.19,0,0,0-2-.46,8.05,8.05,0,0,0-2.61.45,10.29,10.29,0,0,0-2.52,1.27l-1.34,1.05a1.13,1.13,0,0,1-.72.31.88.88,0,0,1-.69-.38l-.17-.16a.66.66,0,0,1-.21-.47.59.59,0,0,1,.28-.48,8.66,8.66,0,0,1,1.17-.82l7.92-6.25h-7.69c-.46,0-.69-.21-.69-.61s.23-.61.69-.61h10.8c.39,0,.59.12.59.35a.65.65,0,0,1-.3.49l-6.05,4.74a11.81,11.81,0,0,1,1.54-.1,8.07,8.07,0,0,1,2.53.38,7.28,7.28,0,0,1,2.09,1,5.16,5.16,0,0,1,1.41,1.55A3.64,3.64,0,0,1,426.71,147.64Zm-10.86,2.08a.9.9,0,0,0,.26.68,1.87,1.87,0,0,0,.94.34,15.59,15.59,0,0,0,1.93.09,11.54,11.54,0,0,0,1.62-.1,1.26,1.26,0,0,1-.07-.28,2.16,2.16,0,0,0-2.33-2.24,3.27,3.27,0,0,0-1.72.39A1.26,1.26,0,0,0,415.85,149.72Z" class="cls-104"/><path data-cppathid="10126" d="M441.74,151.88a.65.65,0,0,1-.54.29.88.88,0,0,1-.4-.1l-.63-.29c-.27-.13-.4-.3-.4-.51a1,1,0,0,1,.17-.44,7.9,7.9,0,0,0,.78-1.54,12.25,12.25,0,0,0,.52-1.92,11,11,0,0,0,.19-2,8.26,8.26,0,0,0-.95-4.2,4.14,4.14,0,0,0-2.66-2,29,29,0,0,1,.5,5,10.76,10.76,0,0,1-1.21,5.54,3.88,3.88,0,0,1-3.56,2,4.48,4.48,0,0,1-2.49-.69,4.58,4.58,0,0,1-1.66-1.9,6.22,6.22,0,0,1-.59-2.79,8.89,8.89,0,0,1,.61-3.31,8.63,8.63,0,0,1,1.69-2.74,8,8,0,0,1,2.5-1.86,6.92,6.92,0,0,1,3-.67,8.22,8.22,0,0,1,4,.91,6.21,6.21,0,0,1,2.58,2.62,8.6,8.6,0,0,1,.91,4.09A9.47,9.47,0,0,1,441.74,151.88Zm-10.24-5.59a6.64,6.64,0,0,0,.29,2.05,4.22,4.22,0,0,0,.77,1.5,1.3,1.3,0,0,0,1,.57c.4,0,.74-.29,1-.87a8.6,8.6,0,0,0,.72-2.36,20.12,20.12,0,0,0,.26-3.36c0-.72,0-1.45-.09-2.21s-.17-1.52-.31-2.31a5.52,5.52,0,0,0-1.86,1.56,8.5,8.5,0,0,0-1.32,2.46A9,9,0,0,0,431.5,146.29Z" class="cls-104"/><path data-cppathid="10127" d="M458.52,150.89c.45,0,.67.25.67.65s-.23.64-.71.61a14.24,14.24,0,0,1-3.31-.52,9.49,9.49,0,0,1-2.65-1.2,6.07,6.07,0,0,1-1.78-1.75,3.89,3.89,0,0,1-.64-2.15,6.78,6.78,0,0,1,1.4-4.13,11,11,0,0,1,3.87-3.16l-8.82.63a.62.62,0,0,1-.75-.71c0-.33.21-.51.63-.55l13.21-1a.72.72,0,0,1,.81.55,1.21,1.21,0,0,1,.05.23c0,.28-.19.48-.57.59a11.91,11.91,0,0,0-3.82,1.66,8,8,0,0,0-2.46,2.58,6.46,6.46,0,0,0-.86,3.26,3.69,3.69,0,0,0,.51,2,4,4,0,0,0,1.37,1.31,6.6,6.6,0,0,0,1.86.75A11.54,11.54,0,0,0,458.52,150.89Zm.88-4.13a.67.67,0,0,1,0,.23c0,.35-.19.54-.57.59l-.61.08a.63.63,0,0,1-.8-.55l-1.09-4.41a1.21,1.21,0,0,1,0-.23c0-.35.19-.54.57-.59l.61-.08a.63.63,0,0,1,.81.55Zm2.31-1.28a.67.67,0,0,1,0,.23c0,.32-.19.51-.55.58l-.61.11a.64.64,0,0,1-.82-.55l-1.07-4.11,0-.13a.49.49,0,0,1,0-.12q0-.47.57-.57l.6-.11a.64.64,0,0,1,.82.55Z" class="cls-104"/><path data-cppathid="10128" d="M470.05,152.47a.64.64,0,0,1,.23.46c0,.2-.13.36-.4.48l-.4.19a.78.78,0,0,1-1-.19l-3.87-3.88a.7.7,0,0,1-.23-.46c0-.2.14-.36.4-.49l.4-.19a.92.92,0,0,1,.38-.08.79.79,0,0,1,.59.27Z" class="cls-104"/><path data-cppathid="10129" d="M114.48,171.52l0-.15a.61.61,0,0,1,.49-.71l1.08-.28.14,0h.13a.64.64,0,0,1,.61.44,8.74,8.74,0,0,1,.46,1.59,9.05,9.05,0,0,1,.17,1.69,2.72,2.72,0,0,1-1.74,2.56,11.9,11.9,0,0,1-5.05.84,6.52,6.52,0,0,1-4.32-1.3,4.55,4.55,0,0,1-1.56-3.7,16.91,16.91,0,0,1,.42-2.94h-1.89q-.69,0-.69-.63t.69-.63h2.17c.15-.73.34-1.52.56-2.37h-2.43c-.46,0-.7-.21-.7-.63s.24-.63.7-.63h2.75c.17-.62.34-1.26.52-1.91a.66.66,0,0,1,.82-.57l1.22.15c.38,0,.57.23.57.58a1.86,1.86,0,0,1,0,.26c-.14.5-.28,1-.4,1.49h6.74q.69,0,.69.63t-.69.63h-7.08q-.32,1.26-.57,2.37h7.21q.69,0,.69.63t-.69.63H108a16.91,16.91,0,0,0-.42,2.94,4.24,4.24,0,0,0,.79,2.84,3,3,0,0,0,2.4.9,13.92,13.92,0,0,0,2.59-.18,1.79,1.79,0,0,0,1.19-.64,2.34,2.34,0,0,0,.32-1.32,9.36,9.36,0,0,0-.11-1.23A11,11,0,0,0,114.48,171.52Z" class="cls-104"/><path data-cppathid="10130" d="M127.86,177.33a.93.93,0,0,1-.4.09.79.79,0,0,1-.57-.26l-.12-.12a.63.63,0,0,1-.23-.44c0-.23.14-.4.44-.53a15.33,15.33,0,0,0,4.09-2.72,3.94,3.94,0,0,0,1.35-2.76,2.1,2.1,0,0,0-1-1.9,5.12,5.12,0,0,0-2.72-.64,12.34,12.34,0,0,0-3.07.44,18.68,18.68,0,0,0-3.46,1.33.88.88,0,0,1-.44.12.92.92,0,0,1-.53-.23l-.17-.15a.63.63,0,0,1-.25-.46.56.56,0,0,1,.4-.5,17.11,17.11,0,0,1,3.8-1.31,18.36,18.36,0,0,1,3.72-.42,11.38,11.38,0,0,1,3.26.44,5.51,5.51,0,0,1,2.32,1.24,2.69,2.69,0,0,1,.86,2,4.72,4.72,0,0,1-1.83,3.37A21.8,21.8,0,0,1,127.86,177.33Zm5.56-13.16c.34.08.51.25.51.5a.62.62,0,0,1-.09.32l0,.08a.75.75,0,0,1-.63.4h-.12l-.15,0q-2.67-.74-5.27-1.3c-1.74-.37-3.47-.68-5.19-.95-.39,0-.59-.22-.59-.53,0,0,0-.06,0-.09a.84.84,0,0,1,0-.12v0a.64.64,0,0,1,.83-.5c1.82.27,3.63.59,5.41,1S131.69,163.7,133.42,164.17Z" class="cls-104"/><path data-cppathid="10131" d="M140.06,165.8a.65.65,0,0,1-.82.55L138,166.2c-.39,0-.59-.24-.59-.58a1.26,1.26,0,0,1,0-.24l1.42-5.2a.66.66,0,0,1,.82-.55l1.22.15c.39,0,.59.24.59.59a1.07,1.07,0,0,1,0,.23l-.4,1.47h4.56q.69,0,.69.63t-.69.63h-1.47l.33,1.76a.5.5,0,0,1,0,.19c0,.35-.2.54-.61.59l-1.26.12a.64.64,0,0,1-.77-.58l-.38-2a.16.16,0,0,1,0-.1h-.76Zm.44,3.36a.61.61,0,0,1-.69.7h-1.3a.62.62,0,0,1-.7-.7v-2a.62.62,0,0,1,.7-.7h1.3a.67.67,0,0,1,.46.15h5v-.31a.61.61,0,0,1,.69-.7h1.3a.61.61,0,0,1,.69.7v.31h7.4c.42,0,.63.18.63.55a1.21,1.21,0,0,1-.05.23l-.52,2a.65.65,0,0,1-.82.54l-1.22-.15c-.39,0-.59-.23-.59-.58a1.07,1.07,0,0,1,0-.23l.29-1.12H140.5Zm11.4,3a.61.61,0,0,1-.69.69h-.92a.82.82,0,0,1-.42.1h-6.28v.57h8.31a.61.61,0,0,1,.7.69V177a.61.61,0,0,1-.7.69h-1.3a.84.84,0,0,1-.33-.06h-7a.9.9,0,0,1-.34.06h-1.3a.61.61,0,0,1-.69-.69v-7.73a.61.61,0,0,1,.69-.69h.86a.74.74,0,0,1,.49-.15h8.27a.61.61,0,0,1,.69.69Zm-2.68-2.44h-5.63v2h5.63Zm.69,5.06h-6.32v1.62h6.32Zm-1.22-10a.67.67,0,0,1-.84.48l-1.11-.21c-.35-.07-.53-.25-.53-.53a.89.89,0,0,1,.07-.33l1.68-4.1a.67.67,0,0,1,.84-.48l1.11.21c.35.07.52.24.52.53a1.16,1.16,0,0,1-.06.33l-.57,1.37h5.25c.47,0,.7.21.7.63s-.23.63-.7.63h-1a.88.88,0,0,1-.06.29l-.8,2.2a.71.71,0,0,1-.84.51l-1.13-.19c-.38-.07-.57-.25-.57-.55a.65.65,0,0,1,.07-.29l.71-2h-2.1Z" class="cls-104"/><path data-cppathid="10132" d="M163.58,172.9a.9.9,0,0,1,.42-.12.89.89,0,0,1,.55.23l.16.14a.62.62,0,0,1,.26.49.56.56,0,0,1-.36.48l-4.29,2.29a.84.84,0,0,1-.42.12.86.86,0,0,1-.54-.23l-.17-.14a.67.67,0,0,1-.25-.49.56.56,0,0,1,.36-.48l1.28-.69a.77.77,0,0,1-.11-.42v-4.87h-.94c-.47,0-.7-.21-.7-.63s.23-.63.7-.63h.94v-4.44h-1.11q-.69,0-.69-.63t.69-.63h4.89q.69,0,.69.63t-.69.63h-1.09V168h.92c.47,0,.7.21.7.63s-.23.63-.7.63h-.92v3.92Zm8.71,3.15v.07h3.53c.46,0,.7.2.7.62s-.24.63-.7.63h-9.74q-.69,0-.69-.63c0-.42.23-.62.69-.62h3.53V174H167q-.69,0-.69-.63t.69-.63h2.61v-2.2h-1.39a.62.62,0,0,1-.65.4h-1.3a.62.62,0,0,1-.7-.69v-9.81a.62.62,0,0,1,.7-.69h1.3a.58.58,0,0,1,.65.42h7.41a.61.61,0,0,1,.7.69v9.39a.61.61,0,0,1-.7.69h-1.3a.63.63,0,0,1-.65-.4h-1.39v2.2h2.61q.69,0,.69.63t-.69.63h-2.61Zm-2.68-14.57v-.07h-1.35v3.49h1.35Zm-1.35,7.79h1.35v-3.11h-1.35Zm4-7.79v3.42h1.35v-3.49h-1.35Zm0,7.79h1.35v-3.11h-1.35Z" class="cls-104"/><path data-cppathid="10133" d="M182,173.09a.76.76,0,0,1-.51.21.88.88,0,0,1-.44-.13l-.46-.25c-.25-.15-.38-.32-.38-.5a.58.58,0,0,1,.27-.46l4.23-3.53h-4.65q-.69,0-.69-.63t.69-.63h6.16l1.17-1V164h-6.21c-.46,0-.7-.21-.7-.63s.24-.63.7-.63h6.21v-2.69a.61.61,0,0,1,.7-.69h1.3a.61.61,0,0,1,.69.69v2.69h1.45l3.3-2.75a.72.72,0,0,1,.5-.21.86.86,0,0,1,.44.12l.46.26a.57.57,0,0,1,.38.5.58.58,0,0,1-.27.46l-1.93,1.62h1.93q.69,0,.69.63t-.69.63H192.9l-2.82,2.35v.82h7.33q.69,0,.69.63t-.69.63h-9.83l-1.66,1.39h10.31a.61.61,0,0,1,.7.69v6.72a.61.61,0,0,1-.7.69h-1.3a.6.6,0,0,1-.67-.55h-8.65a.62.62,0,0,1-.67.47h-1.31a.61.61,0,0,1-.69-.7v-4.85Zm12.24-2h-8.61V173h8.61Zm-8.61,5.05h8.61v-1.87h-8.61Z" class="cls-104"/><path data-cppathid="10134" d="M203.67,175.25a.75.75,0,0,1,.58.16.77.77,0,0,1,.22.58c0,.31-.21.48-.63.52l-2.82.3c-.49,0-.73-.18-.73-.67V162.78a.61.61,0,0,1,.69-.69h1.3a.62.62,0,0,1,.7.69v12.54Zm9.47-8.54a.69.69,0,0,1-.61.35h-.14l-.15,0-.89-.27c-.3-.09-.46-.25-.46-.51a.74.74,0,0,1,.15-.42l1.09-1.55h-5.9q-.69,0-.69-.63t.69-.63h8.44c.39,0,.59.14.59.42a.72.72,0,0,1-.15.42Zm1.6,8.78q.69,0,.69.63c0,.41-.23.62-.69.62H211a8.57,8.57,0,0,1-2.56-.35,5,5,0,0,1-1.85-1,1.8,1.8,0,0,1-.69-1.38,4.87,4.87,0,0,1,1.21-2.55.72.72,0,0,1,.61-.35,1.16,1.16,0,0,1,.34.06l.8.32c.28.12.42.29.42.5a.77.77,0,0,1-.15.42,4.13,4.13,0,0,0-.4.82,2.33,2.33,0,0,0-.15.78,1.21,1.21,0,0,0,.56,1.1,3.69,3.69,0,0,0,1.86.35Z" class="cls-104"/><path data-cppathid="10135" d="M220.22,176.51a.66.66,0,0,1-.61.44h-.13l-.15,0-.67-.19c-.32-.08-.48-.26-.48-.52a.86.86,0,0,1,.08-.36l1.91-4a.82.82,0,0,1-.23,0h-1.09a.61.61,0,0,1-.69-.69V164.1a.61.61,0,0,1,.69-.69h1.09a.64.64,0,0,1,.59.27h.82V162h-2.27q-.69,0-.69-.63t.69-.63h2.27v-.46a.61.61,0,0,1,.69-.69h.89a.61.61,0,0,1,.69.69v.46h1.66q.69,0,.69.63t-.69.63h-1.66v1.72h2.5a.61.61,0,0,1,.69.7v6.78a.61.61,0,0,1-.69.69H225a.91.91,0,0,1-.3,0l1.45,3.21a.73.73,0,0,1,.08.34c0,.28-.16.46-.5.55l-.67.16-.23.05a.65.65,0,0,1-.63-.49l-.61-1.36v2.83a.61.61,0,0,1-.69.69H222a.61.61,0,0,1-.69-.69v-3Zm.42-6.3h.71v-5.27h-.71Zm3.69-5.27h-.71v5.27h.71Zm11.26,8.76a.61.61,0,0,1-.69.69h-1.31a.62.62,0,0,1-.65-.4h-3.15a.61.61,0,0,1-.65.4h-1.3a.61.61,0,0,1-.69-.69v-10a.61.61,0,0,1,.69-.69h1.3l.21,0,.46-1.6H227.5q-.69,0-.69-.63c0-.41.23-.62.69-.62h7.77c.47,0,.7.21.7.62s-.23.63-.7.63h-2.81v0a1,1,0,0,1,0,.23l-.51,1.72h3a.61.61,0,0,1,.69.69Zm-6.28,3.86a.73.73,0,0,1-.63.4,1,1,0,0,1-.27,0l-.91-.27c-.32-.11-.48-.29-.48-.53a.72.72,0,0,1,.13-.38l1-1.59a.73.73,0,0,1,.63-.4,1.1,1.1,0,0,1,.28,0l.9.28c.32.11.48.28.48.52a.9.9,0,0,1-.12.38Zm3.59-12.91h-3.07v1.74h3.07Zm-3.07,4.79h3.07v-1.79h-3.07Zm0,3.29h3.07v-2h-3.07Zm5.8,4a.82.82,0,0,1,.13.38c0,.25-.16.44-.49.55l-.9.27a1,1,0,0,1-.27,0,.73.73,0,0,1-.63-.4l-1-1.57a.94.94,0,0,1-.13-.38c0-.25.17-.43.49-.54l.9-.28a1,1,0,0,1,.27,0,.71.71,0,0,1,.63.4Z" class="cls-104"/><path data-cppathid="10136" d="M244.79,177.37q-.72,0-.72-.63c0-.42.25-.62.74-.62a16,16,0,0,0,3.46-.36,3,3,0,0,0,1.76-1,3.1,3.1,0,0,0,.51-1.86,1.84,1.84,0,0,0-.49-1.26,3.38,3.38,0,0,0-1.35-.86,5.52,5.52,0,0,0-1.94-.31,24.83,24.83,0,0,0-6.66.94l-.14,0h-.13c-.38,0-.53-.22-.46-.67l.75-5.23a.66.66,0,0,1,.78-.61l1.26.09c.48,0,.68.28.61.75l-.52,3.8c.7-.11,1.43-.2,2.2-.27s1.54-.1,2.31-.1a9.64,9.64,0,0,1,2.41.3,8.6,8.6,0,0,1,2.07.82,4.83,4.83,0,0,1,1.45,1.17,2.2,2.2,0,0,1,.54,1.4,3.53,3.53,0,0,1-2.12,3.3A15.11,15.11,0,0,1,244.79,177.37Zm6.38-12.72c.32.11.48.28.48.5a.33.33,0,0,1,0,.17l-.1.19-.09.11a.75.75,0,0,1-.61.35.94.94,0,0,1-.31-.06l-8.25-2.9c-.33-.11-.49-.28-.49-.5a.53.53,0,0,1,0-.19,1.63,1.63,0,0,1,.11-.17L242,162a.75.75,0,0,1,.61-.35.87.87,0,0,1,.32.06Z" class="cls-104"/><path data-cppathid="10137" d="M258.92,172.1a.65.65,0,0,1-.82.55l-1.22-.15c-.39,0-.59-.23-.59-.59a1.39,1.39,0,0,1,0-.23l1.57-5.77h-1.3q-.69,0-.69-.63t.69-.63h1.64l.82-3a.65.65,0,0,1,.82-.55l1.21.15c.4,0,.59.24.59.59a1,1,0,0,1,0,.23l-.69,2.56h1.8c.46,0,.7.21.7.63s-.24.63-.7.63H260.6Zm11.72,2a.66.66,0,0,1,.23.44c0,.22-.15.39-.44.51l-.7.27a.84.84,0,0,1-.33.06.87.87,0,0,1-.61-.29,10.42,10.42,0,0,0-1.37-1.2v.25a3,3,0,0,1-1.09,2.5,4.64,4.64,0,0,1-3,.88,5.87,5.87,0,0,1-2.33-.45,4.22,4.22,0,0,1-1.68-1.25,2.9,2.9,0,0,1-.63-1.85,2.27,2.27,0,0,1,.61-1.58,3.86,3.86,0,0,1,1.69-1.06,7.49,7.49,0,0,1,2.47-.38,6.54,6.54,0,0,1,1.28.13v-3.78a.61.61,0,0,1,.69-.7h1.3a.61.61,0,0,1,.69.7V172a13.77,13.77,0,0,1,1.82,1.05A14.43,14.43,0,0,1,270.64,174.12Zm-9.26-.13a3.46,3.46,0,0,0,.16,1,2,2,0,0,0,.6.9,1.87,1.87,0,0,0,1.19.35,1.22,1.22,0,0,0,1.07-.46,3,3,0,0,0,.34-1.66v-1.7a4.4,4.4,0,0,0-1.28-.23,2.49,2.49,0,0,0-1.62.4A1.72,1.72,0,0,0,261.38,174Zm10.18-6.78a.76.76,0,0,1,.17.42c0,.24-.16.41-.46.53l-.84.29a.87.87,0,0,1-.32.06.75.75,0,0,1-.61-.35l-3-4.14a.74.74,0,0,1-.17-.42c0-.24.16-.41.46-.53l.85-.29a.89.89,0,0,1,.31-.06.75.75,0,0,1,.61.35Z" class="cls-104"/><path data-cppathid="10138" d="M285.15,176.12a.57.57,0,0,1,.31.48.61.61,0,0,1-.31.48l-.34.23a.7.7,0,0,1-.48.17.8.8,0,0,1-.48-.17l-8.78-6a.62.62,0,0,1-.32-.48.68.68,0,0,1,.28-.5l9.07-7.9a.85.85,0,0,1,.52-.23.78.78,0,0,1,.44.13l.51.27a.63.63,0,0,1,.36.5.67.67,0,0,1-.26.47l-8.31,7.2Z" class="cls-104"/><path data-cppathid="10139" d="M301,176.09c.45,0,.68.25.68.65s-.24.64-.72.61a14.24,14.24,0,0,1-3.31-.52,9.49,9.49,0,0,1-2.65-1.2,6.07,6.07,0,0,1-1.78-1.75,4,4,0,0,1-.64-2.15,6.78,6.78,0,0,1,1.4-4.13,11,11,0,0,1,3.87-3.16l-8.82.63a.62.62,0,0,1-.75-.71c0-.33.21-.51.63-.55l13.21-.95a.74.74,0,0,1,.82.55,2.23,2.23,0,0,1,0,.23c0,.28-.19.48-.57.59a11.91,11.91,0,0,0-3.82,1.66,8,8,0,0,0-2.46,2.58,6.46,6.46,0,0,0-.86,3.26,3.61,3.61,0,0,0,.52,2,3.88,3.88,0,0,0,1.36,1.31,6.6,6.6,0,0,0,1.86.75A11.69,11.69,0,0,0,301,176.09Z" class="cls-104"/><path data-cppathid="10140" d="M308.71,172.84a.74.74,0,0,1,.59-.34.85.85,0,0,1,.33.07l.8.27c.3.1.44.27.44.5a.67.67,0,0,1-.17.42L308.29,177a.71.71,0,0,1-.59.34,1.05,1.05,0,0,1-.33-.06l-.8-.28c-.3-.11-.44-.28-.44-.5a.74.74,0,0,1,.16-.42Zm1.57-4.16a.59.59,0,0,1,.28.48.56.56,0,0,1-.36.49l-.48.25a.9.9,0,0,1-.44.13.79.79,0,0,1-.51-.21L306.59,168a.53.53,0,0,1,.1-1l.47-.25.23-.11a.78.78,0,0,1,.21,0,.83.83,0,0,1,.5.23Zm.09-5.46a.82.82,0,0,1,.23.46q0,.31-.42.51l-.61.27a1.15,1.15,0,0,1-.4.11.78.78,0,0,1-.57-.28l-2-2.08a.62.62,0,0,1-.23-.46c0-.21.14-.38.42-.5l.61-.28a1.05,1.05,0,0,1,.4-.1.73.73,0,0,1,.56.27Zm2,7.31a.78.78,0,0,1-.31.06.71.71,0,0,1-.61-.38l0-.06a.81.81,0,0,1-.13-.4c0-.24.15-.4.44-.5a13.65,13.65,0,0,0,2.14-1.1c.76-.47,1.52-1,2.29-1.59-.7-.56-1.34-1.12-1.93-1.68a21.3,21.3,0,0,1-1.51-1.58.66.66,0,0,1-.19-.42v-.06h-.4q-.69,0-.69-.63t.69-.63h4.26v-1.22a.62.62,0,0,1,.7-.69h1.3a.61.61,0,0,1,.69.69v1.22h4.37q.69,0,.69.63t-.69.63h-.63v0a.35.35,0,0,1-.1.26c-.47.51-1,1.07-1.63,1.66s-1.29,1.17-2,1.76a22.35,22.35,0,0,0,2.35,1.57,18.7,18.7,0,0,0,2.29,1.14c.31.11.47.28.47.5a.72.72,0,0,1-.13.36l-.06.1a.72.72,0,0,1-.61.38,1,1,0,0,1-.32-.06l-.4-.15v6.76a.61.61,0,0,1-.69.7h-1.3a.61.61,0,0,1-.69-.7V175.3h-4.65l-.18,1.93a.62.62,0,0,1-.74.63l-1.3-.07a.6.6,0,0,1-.65-.73l.65-6.82C312.85,170.35,312.6,170.45,312.36,170.53Zm2.71-7.71a26.31,26.31,0,0,0,2.54,2.52c.91-.8,1.77-1.64,2.59-2.52Zm.36,11.22H320v-2.23h-4.33Zm.46-4.81-.12,1.32H320v-1.09a.76.76,0,0,1,.06-.32c-.42-.22-.83-.46-1.24-.72s-.8-.52-1.18-.79c-.6.44-1.19.83-1.78,1.2A.72.72,0,0,1,315.89,169.23Z" class="cls-104"/><path data-cppathid="10141" d="M338,177.5a.75.75,0,0,1-.55.27,1.1,1.1,0,0,1-.4-.1l-.63-.32a.56.56,0,0,1-.38-.5.74.74,0,0,1,.19-.44,9.74,9.74,0,0,0,1.67-2.85,16.48,16.48,0,0,0,.92-3.93,2.87,2.87,0,0,0-1.1-.27q-.58,0-1.53,0h-.06a12.87,12.87,0,0,1-1.54,5.46,3.84,3.84,0,0,1-3.48,1.81,3.64,3.64,0,0,1-2-.57,4,4,0,0,1-1.39-1.53,4.43,4.43,0,0,1-.52-2.14,3.19,3.19,0,0,1,1.67-2.77,11,11,0,0,1,4.65-1.39c.06-.7.1-1.45.14-2.26s.06-1.66.07-2.55h-4.28q-.69,0-.69-.63t.69-.63h6.28a.62.62,0,0,1,.69.71c0,1,0,1.91,0,2.78s-.06,1.68-.12,2.45c.55,0,1,0,1.48,0a10,10,0,0,1,1.21.15c.06-.76.09-1.57.11-2.46a.62.62,0,0,1,.69-.71h1.3c.46,0,.69.36.69,1.07,0,1.21-.09,2.28-.19,3.21.24.17.49.36.74.56s.52.44.8.7a.71.71,0,0,1,.25.49c0,.19-.13.35-.38.48l-.57.27a.77.77,0,0,1-.39.11.75.75,0,0,1-.57-.28.84.84,0,0,1-.21-.21,12,12,0,0,1-1.18,3.29A12.67,12.67,0,0,1,338,177.5Zm-8.13-5.14a4.39,4.39,0,0,0,.22,1.36,5.51,5.51,0,0,0,.51,1.16c.2.3.37.46.51.46.49,0,.93-.5,1.33-1.48a18,18,0,0,0,.94-4.36,5.21,5.21,0,0,0-2.69.95A2.34,2.34,0,0,0,329.9,172.36Z" class="cls-104"/><path data-cppathid="10142" d="M361.67,172.17c.31.11.46.27.46.48a.58.58,0,0,1-.21.4l-.14.15a.83.83,0,0,1-.59.27.51.51,0,0,1-.17,0l-.19-.06c-.42-.16-.9-.32-1.45-.47s-1.12-.27-1.72-.39V174a3,3,0,0,1-1.37,2.61,6.68,6.68,0,0,1-3.77.92,8.82,8.82,0,0,1-3-.48,5.23,5.23,0,0,1-2.11-1.32,2.74,2.74,0,0,1-.77-1.89,2.21,2.21,0,0,1,.75-1.67,5.06,5.06,0,0,1,2.11-1.09,11.52,11.52,0,0,1,3.16-.39l1.13,0,1.18.09v-2h-7.35q-.69,0-.69-.63t.69-.63H355v-2.31h-7.35q-.69,0-.69-.63t.69-.63H355v-1.73a.61.61,0,0,1,.7-.69H357a.61.61,0,0,1,.69.69V164H361q.69,0,.69.63t-.69.63h-3.36v2.31H361q.69,0,.69.63t-.69.63h-3.36v2.39c.78.14,1.53.29,2.23.46S361.18,172,361.67,172.17Zm-12.35,1.68c0,1.62,1.07,2.43,3.2,2.43a2.86,2.86,0,0,0,1.92-.49A2.39,2.39,0,0,0,355,174V172.1a22.22,22.22,0,0,0-2.31-.14,7.24,7.24,0,0,0-2.14.23,1.62,1.62,0,0,0-1,.65A2,2,0,0,0,349.32,173.85Z" class="cls-104"/><path data-cppathid="10143" d="M376.33,177.29a.73.73,0,0,1-.63.4h-.13l-.14,0-1-.28c-.32-.08-.48-.25-.48-.5a.76.76,0,0,1,.08-.36,8.87,8.87,0,0,0,.55-2.71,7.18,7.18,0,0,1-2.9.57,5.76,5.76,0,0,1-2.52-.53,4,4,0,0,1-1.69-1.51,4.15,4.15,0,0,1-.6-2.24,3.15,3.15,0,0,1,.68-2,4.52,4.52,0,0,1,1.86-1.32,7.06,7.06,0,0,1,2.69-.47,8.53,8.53,0,0,1,1.4.1,5.9,5.9,0,0,1,1.12.3v-2.33h-9.11c-.47,0-.7-.21-.7-.63s.23-.64.7-.64h9.11v-1.78a.61.61,0,0,1,.69-.69h1.3a.61.61,0,0,1,.7.69v1.78h2.87c.47,0,.7.21.7.64s-.23.63-.7.63h-2.87V170a4.46,4.46,0,0,1-.05.63c0,.23,0,.44,0,.65s0,.42,0,.61v.7a17.09,17.09,0,0,1-.09,1.87,7.12,7.12,0,0,1-.29,1.46A7,7,0,0,1,376.33,177.29Zm-6.76-7.2a3.84,3.84,0,0,0,.56,2.21,1.81,1.81,0,0,0,1.56.81,2.9,2.9,0,0,0,1.94-.62,2.79,2.79,0,0,0,.94-1.75,4.71,4.71,0,0,0-.68-2.5,2.12,2.12,0,0,0-1.78-.69A2.24,2.24,0,0,0,369.57,170.09Z" class="cls-104"/><path data-cppathid="10144" d="M387,177.44a4.55,4.55,0,0,1-2-.42,3.62,3.62,0,0,1-1.42-1.16,2.68,2.68,0,0,1-.54-1.63,2.64,2.64,0,0,1,.54-1.63,3.6,3.6,0,0,1,1.42-1.15,4.55,4.55,0,0,1,2-.42,4.43,4.43,0,0,1,1.93.42,3.67,3.67,0,0,1,1.42,1.15,2.76,2.76,0,0,1,0,3.25,3.79,3.79,0,0,1-1.42,1.16A4.44,4.44,0,0,1,387,177.44Zm0-1.05a1.7,1.7,0,0,0,1.31-.63,2.37,2.37,0,0,0,0-3.06,1.72,1.72,0,0,0-1.31-.62,1.77,1.77,0,0,0-1.34.61,2.2,2.2,0,0,0-.55,1.54,2.23,2.23,0,0,0,.55,1.53A1.73,1.73,0,0,0,387,176.39Z" class="cls-104"/><path data-cppathid="10145" d="M164.29,39.79a1.14,1.14,0,0,1-.8.38,1.35,1.35,0,0,1-.64-.19l-.86-.42a.88.88,0,0,1-.58-.77,1,1,0,0,1,.36-.7l12.35-11.81a1.14,1.14,0,0,1,.8-.38,1.21,1.21,0,0,1,.64.19l.86.42a.85.85,0,0,1,.58.76v0l0,0,11.1,10.46a1,1,0,0,1,.36.71.86.86,0,0,1-.58.76l-.86.42a1.7,1.7,0,0,1-.64.16,1.11,1.11,0,0,1-.8-.35l-10.6-10Zm11.43,14.08a1.26,1.26,0,0,1-.87.41,1.6,1.6,0,0,1-.57-.16l-.9-.41c-.4-.2-.61-.45-.61-.77a1,1,0,0,1,.36-.71l8.09-8.09H164.55c-.7,0-1.06-.32-1.06-1s.36-1,1.06-1h21c.6,0,.9.2.9.61a1,1,0,0,1-.35.7Zm6.4-15.78q1,0,1,1t-1,1H167.69c-.71,0-1.06-.32-1.06-1s.35-1,1.06-1Z" class="cls-104"/><path data-cppathid="10146" d="M201.41,53.74c-.55-.13-.83-.4-.83-.8a.81.81,0,0,1,.1-.39l0-.06a1,1,0,0,1,1-.7,1.56,1.56,0,0,1,.35,0l2.63.54V47H194.57c-.71,0-1.06-.32-1.06-1s.35-1,1.06-1h10.08v-.12a1.81,1.81,0,0,1,.54-1.32l4.29-4H200c-.71,0-1.06-.32-1.06-1s.35-1,1.06-1h13.89c.59,0,.89.2.89.61a1.07,1.07,0,0,1-.38.7l-5.7,5.38V45H219.4q1,0,1,1t-1,1H208.74v7.11c0,.66-.29,1-.86,1a1,1,0,0,1-.29,0Zm-7.48-20a.93.93,0,0,1,1-1.06h1.38l-1.25-4.1a1.05,1.05,0,0,1-.05-.19,1.21,1.21,0,0,1,0-.19c0-.51.28-.8.86-.86l1.82-.26a1,1,0,0,1,1.25.77l1.35,4.45a1.06,1.06,0,0,1,0,.19.62.62,0,0,1,0,.19.93.93,0,0,1,0,.26h4.93l-1.22-4.45a1.8,1.8,0,0,1,0-.19,1.34,1.34,0,0,1,0-.2c0-.51.28-.8.86-.86l1.86-.22a1,1,0,0,1,1.24.83l1.25,4.51a1.33,1.33,0,0,1,.05.19,1.37,1.37,0,0,1,0,.19.48.48,0,0,1,0,.2H213v-.16a1.58,1.58,0,0,1,.1-.52L215,27.69a1,1,0,0,1,1.28-.74l1.7.32c.53.11.8.38.8.8a1.58,1.58,0,0,1-.1.52l-1.76,4.32h3.49c.66,0,1,.27,1,.83a.91.91,0,0,1,0,.17,1.21,1.21,0,0,1-.05.18l-1,3.84a1,1,0,0,1-1.22.86l-1.85-.22q-.9-.09-.9-.9a1.51,1.51,0,0,1,0-.32l.64-2.52H198v2.78A.94.94,0,0,1,197,38.67h-2a.94.94,0,0,1-1-1.06Z" class="cls-104"/><path data-cppathid="10147" d="M237.22,45.29v.1h.55q1,0,1,1t-1,1H226.09c-.71,0-1.06-.32-1.06-1s.35-1,1.06-1h.51V33h-.32c-.71,0-1.06-.32-1.06-1s.35-1,1.06-1h.32V27.66a.93.93,0,0,1,1.05-1.06h2a.93.93,0,0,1,1.05,1.06v3.45h2.44V27.66a.93.93,0,0,1,1.05-1.06h2a.93.93,0,0,1,1.05,1.06v3.45h.32c.71,0,1.06.32,1.06,1s-.35,1-1.06,1h-.32Zm-8.16,8.22a1,1,0,0,1-1,.74h-.16a.38.38,0,0,1-.16,0l-1.7-.35c-.53-.11-.8-.38-.8-.8a1.88,1.88,0,0,1,.1-.52l1.57-3.68a1,1,0,0,1,1-.7,1.56,1.56,0,0,1,.35,0l1.7.35c.53.11.8.38.8.8a1.88,1.88,0,0,1-.1.52Zm1.63-17.92h2.44V33h-2.44Zm0,4.64h2.44V37.51h-2.44Zm0,5.06v.1h2.44V42.15h-2.44Zm7.3,5.54a1.13,1.13,0,0,1,.13.54c0,.41-.26.67-.77.8l-1.63.35a1.62,1.62,0,0,1-.35,0,1,1,0,0,1-1-.67l-1-2a1.26,1.26,0,0,1-.12-.55c0-.4.25-.67.76-.8l1.64-.38a.35.35,0,0,1,.16,0H236a1.05,1.05,0,0,1,1,.7Zm4.86,2.94q0,1-1.08,1l-2,0a.9.9,0,0,1-1-1.09l1.21-26a1,1,0,0,1,1.09-1l2,0a.92.92,0,0,1,1,.57h7a.93.93,0,0,1,1.06,1.06V53.48c0,.75-.36,1.09-1.09,1l-5.08-.39c-.65-.06-1-.35-1-.86a1.09,1.09,0,0,1,.34-.85,1,1,0,0,1,.85-.24l1.85.16v-6h-4.76Zm.45-9.41H248V38.09h-4.38ZM248,29.16h-4l-.32,7H248Z" class="cls-104"/><path data-cppathid="10148" d="M276.29,53.07a1,1,0,0,1-.83.44,1.35,1.35,0,0,1-.61-.16l-1-.44c-.41-.2-.61-.45-.61-.77a1.36,1.36,0,0,1,.25-.67,11.3,11.3,0,0,0,1.19-2.36,17.78,17.78,0,0,0,.8-2.92,17.37,17.37,0,0,0,.28-3.11,12.58,12.58,0,0,0-1.44-6.4,6.27,6.27,0,0,0-4.06-3.1,43.44,43.44,0,0,1,.77,7.61,16.5,16.5,0,0,1-1.84,8.45,6,6,0,0,1-5.43,3.11,6.84,6.84,0,0,1-3.8-1.06,7,7,0,0,1-2.53-2.9,9.51,9.51,0,0,1-.9-4.24,13.69,13.69,0,0,1,.93-5,13.45,13.45,0,0,1,2.58-4.18,12.11,12.11,0,0,1,3.81-2.83,10.65,10.65,0,0,1,4.62-1,12.52,12.52,0,0,1,6.08,1.39,9.42,9.42,0,0,1,3.93,4,13.13,13.13,0,0,1,1.38,6.22A14.45,14.45,0,0,1,276.29,53.07Zm-15.61-8.52a10.32,10.32,0,0,0,.45,3.12A6.64,6.64,0,0,0,262.29,50a2,2,0,0,0,1.52.87c.6,0,1.13-.45,1.59-1.33a13,13,0,0,0,1.09-3.6,30.41,30.41,0,0,0,.4-5.12q0-1.64-.15-3.36c-.09-1.15-.25-2.33-.46-3.52a8.14,8.14,0,0,0-2.83,2.37,12.52,12.52,0,0,0-2,3.76A13.7,13.7,0,0,0,260.68,44.55Z" class="cls-104"/><path data-cppathid="10149" d="M288,53.1a1,1,0,0,1-1.09,1l-1.95,0a.91.91,0,0,1-1-1.09l.9-19.62a1.38,1.38,0,0,1,.19-.64.79.79,0,0,1-.16-.54c0-.64.35-1,1.06-1h11.45L296.33,28a1.52,1.52,0,0,1-.07-.42c0-.49.29-.77.87-.83l1.79-.26h.14l.11,0a1,1,0,0,1,1,.8l1.28,4h8.83q1.05,0,1.05,1t-1.05,1h-8.23l2.76,8.54L307.72,37a1.12,1.12,0,0,1,1-.61,1.51,1.51,0,0,1,.41.07l1.38.41c.49.17.74.44.74.8a1.29,1.29,0,0,1-.2.58L306.18,46l1.6,5,1.83-.48a1.78,1.78,0,0,1,.35-.06,1.07,1.07,0,0,1,1,.67,1.16,1.16,0,0,1,.16.51c0,.43-.26.71-.77.83l-4.7,1.22-.19,0h-.16a1,1,0,0,1-1-.77l-.84-2.59-1.72,2.79a1.13,1.13,0,0,1-1,.6,1.91,1.91,0,0,1-.42-.06L299,53.19c-.49-.17-.73-.43-.73-.8a1.1,1.1,0,0,1,.19-.57L302.12,46,298,33.13h-9.12a1.9,1.9,0,0,1,0,.35L288.65,39h7.74q1.1,0,1,1.08l-1,12.55c-.06.62-.35.93-.86.93a2.32,2.32,0,0,1-.36-.07l-5.05-1.25c-.54-.12-.8-.38-.8-.76a.43.43,0,0,1,.05-.23,1.13,1.13,0,0,0,.08-.22l0-.1a1.07,1.07,0,0,1,1-.67.62.62,0,0,1,.19,0l.19,0,1.6.39.8-9.79h-4.7Zm21-24.51a1,1,0,0,1,.54.76,1,1,0,0,1-.38.71l-.32.25a1.29,1.29,0,0,1-.83.36,1.31,1.31,0,0,1-.61-.2l-3.91-2.14a1,1,0,0,1-.54-.77.93.93,0,0,1,.38-.7l.32-.26a1.33,1.33,0,0,1,.84-.35,1.14,1.14,0,0,1,.6.19Z" class="cls-104"/><path data-cppathid="10150" d="M318.53,51.88a1,1,0,0,1-1.15,1l-1-.06a.9.9,0,0,1-1-1.12l.41-4.87a1,1,0,0,1,1.16-1l1,.07A.91.91,0,0,1,319,47Zm5.57,1.38a.93.93,0,0,1-1.05,1.05h-2A.93.93,0,0,1,320,53.26V44l-3.52.29c-.64,0-1-.16-1-.61a1.1,1.1,0,0,1,.22-.64l2.94-4.57-.06-.1-2.69-3.58a1.29,1.29,0,0,1-.29-.74,1.1,1.1,0,0,1,.29-.74l5.12-6.72a1.12,1.12,0,0,1,.9-.51,1.48,1.48,0,0,1,.51.1l1.22.41c.44.15.67.41.67.77a1.13,1.13,0,0,1-.26.64l-4.57,6.05,1.08,1.44,1.16-1.79a1.13,1.13,0,0,1,1-.58,1.51,1.51,0,0,1,.41.07l1.38.41c.49.17.74.43.74.77a.71.71,0,0,1-.07.29,1.91,1.91,0,0,1-.16.32l-4.54,7.07,3.9-.32-.54-2.21a1.39,1.39,0,0,1,0-.32.85.85,0,0,1,.86-.93l.93-.12a1,1,0,0,1,1.21.83L328,43.91a1.51,1.51,0,0,1,0,.32.85.85,0,0,1-.86.93l-.93.13a1,1,0,0,1-1.22-.83l-.19-.77h-.1l-.73.06a1.14,1.14,0,0,1,.06.39Zm4.55-2.11c.06.7-.27,1.07-1,1.12l-1,.06a.94.94,0,0,1-1.12-1l-.42-4a1.15,1.15,0,0,1,.23-.82,1,1,0,0,1,.77-.33l1-.07a.94.94,0,0,1,1.12,1Zm9-15.4v.1h4.64q1,0,1.05,1t-1.05,1H329c-.71,0-1.06-.32-1.06-1s.35-1,1.06-1h4.54V34.51h-3c-.7,0-1.06-.32-1.06-1s.36-1,1.06-1h3V30.7h-3.84c-.7,0-1.06-.32-1.06-1s.36-1,1.06-1h3.84v-1a.93.93,0,0,1,1.06-1.05h2a.94.94,0,0,1,1.06,1.05v1h3.87q1,0,1,1t-1,1h-3.87v1.89h3.1c.7,0,1.06.32,1.06,1s-.36,1-1.06,1h-3.1Zm-8.55,3.84a.93.93,0,0,1,1.06-1.05h2a1.15,1.15,0,0,1,.64.16h8.8a.93.93,0,0,1,1.06,1v9.92a.93.93,0,0,1-1.06,1.06h-2a1.15,1.15,0,0,1-.64-.16h-6.18a1.15,1.15,0,0,1-.64.16h-2a.93.93,0,0,1-1.06-1.06Zm2.05,14.69a1.21,1.21,0,0,1-.58.13,1.15,1.15,0,0,1-.86-.42l-.16-.16a1,1,0,0,1-.35-.67c0-.32.21-.57.64-.77l2.78-1.24a1.21,1.21,0,0,1,.58-.13,1.15,1.15,0,0,1,.86.41l.16.16a1,1,0,0,1,.35.68c0,.32-.21.57-.64.76Zm7.39-13.66h-5.34v1.31h5.34Zm-5.34,4.73h5.34v-1.5h-5.34Zm0,3.3h5.34V47.27h-5.34Zm9,3.87c.43.19.64.45.64.77a1.07,1.07,0,0,1-.28.64l-.23.22a1.28,1.28,0,0,1-.89.45,1.14,1.14,0,0,1-.55-.13l-3.2-1.4c-.42-.2-.64-.45-.64-.77a1,1,0,0,1,.29-.64l.22-.23a1.28,1.28,0,0,1,.9-.44,1.25,1.25,0,0,1,.54.12Z" class="cls-104"/><path data-cppathid="10151" d="M366.82,53.07a1,1,0,0,1-.83.44,1.35,1.35,0,0,1-.61-.16l-1-.44c-.4-.2-.61-.45-.61-.77a1.4,1.4,0,0,1,.26-.67,11.29,11.29,0,0,0,1.18-2.36,16,16,0,0,0,.8-2.92,16.52,16.52,0,0,0,.29-3.11,12.58,12.58,0,0,0-1.44-6.4,6.27,6.27,0,0,0-4.06-3.1,43.44,43.44,0,0,1,.77,7.61,16.61,16.61,0,0,1-1.84,8.45,6,6,0,0,1-5.43,3.11,6.9,6.9,0,0,1-3.81-1.06,7,7,0,0,1-2.52-2.9,9.51,9.51,0,0,1-.9-4.24,13.68,13.68,0,0,1,3.5-9.23,12.22,12.22,0,0,1,3.81-2.83,10.7,10.7,0,0,1,4.63-1,12.55,12.55,0,0,1,6.08,1.39,9.48,9.48,0,0,1,3.93,4,13.13,13.13,0,0,1,1.38,6.22A14.5,14.5,0,0,1,366.82,53.07Zm-15.61-8.52a10.64,10.64,0,0,0,.44,3.12A6.64,6.64,0,0,0,352.82,50a2,2,0,0,0,1.52.87c.6,0,1.13-.45,1.59-1.33A12.66,12.66,0,0,0,357,45.9a29.4,29.4,0,0,0,.4-5.12c0-1.09,0-2.21-.14-3.36s-.25-2.33-.46-3.52A8.26,8.26,0,0,0,354,36.27,12.73,12.73,0,0,0,352,40,13.7,13.7,0,0,0,351.21,44.55Z" class="cls-104"/><path data-cppathid="10152" d="M376.23,54.15A1,1,0,0,1,375,53.07q0-.7.9-.87a10,10,0,0,0,5.82-3.55l-2.88-.9c-.49-.17-.73-.42-.73-.76a1.24,1.24,0,0,1,.16-.52l.09-.16a1.12,1.12,0,0,1,.93-.57,1.28,1.28,0,0,1,.48.09l3.27,1a22.21,22.21,0,0,0,1.34-2.72h-3.87a1,1,0,0,1-.71.22h-2a.94.94,0,0,1-1.06-1V32.39a.94.94,0,0,1,1.06-1.05h2a1.06,1.06,0,0,1,.84.32h6.2c0-.77,0-1.55.07-2.34v-.13H375.21c-.71,0-1.06-.32-1.06-1s.35-1,1.06-1h25.37c.71,0,1.06.32,1.06,1s-.35,1-1.06,1H391a6.8,6.8,0,0,1,0,.68c0,.61,0,1.21-.06,1.79h7.52a.93.93,0,0,1,1.05,1.05v10.6a.93.93,0,0,1-1.05,1h-2a1,1,0,0,1-.7-.22h-7.26a21.4,21.4,0,0,1-2,3.77l14.43,4.45c.49.17.74.43.74.77a1.32,1.32,0,0,1-.16.51l-.1.16a1.08,1.08,0,0,1-.93.58,1.33,1.33,0,0,1-.48-.1L385,49.67A14.57,14.57,0,0,1,376.23,54.15Zm4.64-16.92h5.41c.17-1.16.31-2.37.41-3.65h-5.82Zm0,5h4.22a24.56,24.56,0,0,0,.8-3.07h-5Zm8.32,0h6.21V39.15H390C389.76,40.23,389.49,41.26,389.19,42.22Zm6.21-8.64h-4.61c-.11,1.28-.26,2.49-.45,3.65h5.06Z" class="cls-104"/><path data-cppathid="10153" d="M409.16,53.23a1.17,1.17,0,0,1-.93.48,1.76,1.76,0,0,1-.51-.1l-1.15-.45c-.45-.19-.68-.46-.68-.8a1,1,0,0,1,.26-.64l4.64-5.82h-4.16c-.7,0-1.06-.32-1.06-1s.36-1,1.06-1h5V41.45h-5c-.7,0-1.06-.32-1.06-1s.36-1,1.06-1h1.5v0l-.35-7.11v-.16h-.41c-.71,0-1.06-.32-1.06-1s.35-1,1.06-1h4v-3.2a.93.93,0,0,1,1.05-1.05h2a.93.93,0,0,1,1,1.05v3.2h3.68c.71,0,1.06.32,1.06,1a1,1,0,0,1-.26.71.9.9,0,0,1-.67.25.69.69,0,0,1,0,.29l-1.12,7h.9q1.05,0,1.05,1t-1.05,1h-3.33V44h2.78c.71,0,1.06.32,1.06,1s-.35,1-1.06,1h-2.78l3.42,2.65a1,1,0,0,1,.45.71c0,.27-.19.53-.58.77l-.64.38a1.12,1.12,0,0,1-.67.22,1.13,1.13,0,0,1-.8-.32l-1.18-.92v4.38a.94.94,0,0,1-1.06,1.06h-2a.94.94,0,0,1-1.06-1.06V50.15Zm3.07-13.86v.16h1.89a.69.69,0,0,1,0-.29l1.12-7h-3.36v0Zm11.65,13.86a1,1,0,0,1-1.12,1l-2-.06a.93.93,0,0,1-1-1.09l1.06-19.52a1.21,1.21,0,0,1,.22-.67.69.69,0,0,1,0-.2.83.83,0,0,1,.54-.73l10.08-5.57a1.32,1.32,0,0,1,.61-.19,1.24,1.24,0,0,1,.83.35l.29.26a1,1,0,0,1,.42.73.84.84,0,0,1-.55.74L424.74,33a.9.9,0,0,1,.19.71l-.16,2.94H433c.7,0,1.06.32,1.06,1s-.36,1-1.06,1h-1.25v15.1a.93.93,0,0,1-1,1.06h-2a.93.93,0,0,1-1.05-1.06V38.57h-3Z" class="cls-104"/></g></g></g></g></svg>