<?xml version="1.0" encoding="UTF-8"?>
<svg xmlns="http://www.w3.org/2000/svg" onmouseup="{ if(window.parent.document.onmouseup) window.parent.document.onmouseup(arguments[0]);}" viewBox="0 0 595.02 403.95" xmlns:xlink="http://www.w3.org/1999/xlink"><defs><style>.cls-1{isolation:isolate;}.cls-2{fill:#fff;opacity:0;}.cls-3{fill:#fefefe;opacity:0.01;}.cls-4{fill:#fdfdfd;opacity:0.02;}.cls-5{fill:#fcfcfc;opacity:0.03;}.cls-6{fill:#fafafa;opacity:0.04;}.cls-7{fill:#f9f9f9;opacity:0.05;}.cls-8{fill:#f8f8f8;opacity:0.06;}.cls-9{fill:#f7f7f7;opacity:0.07;}.cls-10{fill:#f6f6f6;opacity:0.08;}.cls-11{fill:#f5f5f5;opacity:0.09;}.cls-12{fill:#f4f4f4;opacity:0.1;}.cls-13{fill:#f2f2f2;opacity:0.11;}.cls-14{fill:#f1f1f1;opacity:0.12;}.cls-15{fill:#f0f0f0;opacity:0.13;}.cls-16{fill:#efefef;opacity:0.14;}.cls-17{fill:#eee;opacity:0.15;}.cls-18{fill:#ededed;opacity:0.16;}.cls-19{fill:#ececec;opacity:0.17;}.cls-20{fill:#ebebeb;opacity:0.18;}.cls-21{fill:#e9e9e9;opacity:0.19;}.cls-22{fill:#e8e8e8;opacity:0.2;}.cls-23{fill:#e7e7e7;opacity:0.21;}.cls-24{fill:#e6e6e6;opacity:0.22;}.cls-25{fill:#e5e5e5;opacity:0.23;}.cls-26{fill:#e4e4e4;opacity:0.24;}.cls-27{fill:#e3e3e3;opacity:0.25;}.cls-28{fill:#e1e1e1;opacity:0.26;}.cls-29{fill:#e0e0e0;opacity:0.27;}.cls-30{fill:#dfdfdf;opacity:0.28;}.cls-31{fill:#dedede;opacity:0.29;}.cls-32{fill:#ddd;opacity:0.3;}.cls-33{fill:#dcdcdc;opacity:0.31;}.cls-34{fill:#dbdbdb;opacity:0.32;}.cls-35{fill:#d9d9d9;opacity:0.33;}.cls-36{fill:#d8d8d8;opacity:0.34;}.cls-37{fill:#d7d7d7;opacity:0.35;}.cls-38{fill:#d6d6d6;opacity:0.36;}.cls-39{fill:#d5d5d5;opacity:0.37;}.cls-40{fill:#d4d4d4;opacity:0.38;}.cls-41{fill:#d3d3d3;opacity:0.39;}.cls-42{fill:#d1d1d1;opacity:0.4;}.cls-43{fill:#d0d0d0;opacity:0.41;}.cls-44{fill:#cfcfcf;opacity:0.42;}.cls-45{fill:#cecece;opacity:0.43;}.cls-46{fill:#cdcdcd;opacity:0.44;}.cls-47{fill:#ccc;opacity:0.45;}.cls-48{fill:#cbcbcb;opacity:0.46;}.cls-49{fill:#c9c9c9;opacity:0.47;}.cls-50{fill:#c8c8c8;opacity:0.48;}.cls-51{fill:#c7c7c7;opacity:0.49;}.cls-52{fill:#c6c6c6;opacity:0.5;}.cls-53{fill:#c5c5c5;opacity:0.5;}.cls-54{fill:#c4c4c4;opacity:0.51;}.cls-55{fill:#c3c3c3;opacity:0.52;}.cls-56{fill:#c2c2c2;opacity:0.53;}.cls-57{fill:silver;opacity:0.54;}.cls-58{fill:#bfbfbf;opacity:0.55;}.cls-59{fill:#bebebe;opacity:0.56;}.cls-60{fill:#bdbdbd;opacity:0.57;}.cls-61{fill:#bcbcbc;opacity:0.58;}.cls-62{fill:#bbb;opacity:0.59;}.cls-63{fill:#bababa;opacity:0.6;}.cls-64{fill:#b8b8b8;opacity:0.61;}.cls-65{fill:#b7b7b7;opacity:0.62;}.cls-66{fill:#b6b6b6;opacity:0.63;}.cls-67{fill:#b5b5b5;opacity:0.64;}.cls-68{fill:#b4b4b4;opacity:0.65;}.cls-69{fill:#b3b3b3;opacity:0.66;}.cls-70{fill:#b2b2b2;opacity:0.67;}.cls-71{fill:#b0b0b0;opacity:0.68;}.cls-72{fill:#afafaf;opacity:0.69;}.cls-73{fill:#aeaeae;opacity:0.7;}.cls-74{fill:#adadad;opacity:0.71;}.cls-75{fill:#acacac;opacity:0.72;}.cls-76{fill:#ababab;opacity:0.73;}.cls-77{fill:#aaa;opacity:0.74;}.cls-78{fill:#a8a8a8;opacity:0.75;}.cls-79{fill:#a7a7a7;opacity:0.76;}.cls-80{fill:#a6a6a6;opacity:0.77;}.cls-81{fill:#a5a5a5;opacity:0.78;}.cls-82{fill:#a4a4a4;opacity:0.79;}.cls-83{fill:#a3a3a3;opacity:0.8;}.cls-84{fill:#a2a2a2;opacity:0.81;}.cls-85{fill:#a0a0a0;opacity:0.82;}.cls-86{fill:#9f9f9f;opacity:0.83;}.cls-87{fill:#9e9e9e;opacity:0.84;}.cls-88{fill:#9d9d9d;opacity:0.85;}.cls-89{fill:#9c9c9c;opacity:0.86;}.cls-90{fill:#9b9b9b;opacity:0.87;}.cls-91{fill:#9a9a9a;opacity:0.88;}.cls-92{fill:#999;opacity:0.89;}.cls-93{fill:#979797;opacity:0.9;}.cls-94{fill:#969696;opacity:0.91;}.cls-95{fill:#959595;opacity:0.92;}.cls-96{fill:#949494;opacity:0.93;}.cls-97{fill:#939393;opacity:0.94;}.cls-98{fill:#929292;opacity:0.95;}.cls-99{fill:#919191;opacity:0.96;}.cls-100{fill:#8f8f8f;opacity:0.97;}.cls-101{fill:#8e8e8e;opacity:0.98;}.cls-102{fill:#8d8d8d;opacity:0.99;}.cls-103{fill:#8c8c8c;}.cls-104,.cls-105,.cls-106,.cls-107{stroke:#a39d9d;}.cls-104{fill:url(#linear-gradient);}.cls-105{fill:#327dea;}.cls-105,.cls-107{mix-blend-mode:darken;}.cls-106{fill:url(#linear-gradient-2);}.cls-107{fill:#94a3f7;}.cls-108{fill:#603813;}</style><linearGradient gradientUnits="userSpaceOnUse" gradientTransform="translate(-23.88 108.73) rotate(-3.1)" y2="-81.3" x2="308.28" y1="290.75" x1="308.28" id="linear-gradient"><stop stop-color="#dbdbdb" offset="0"/><stop stop-color="#e8e8e8" offset="0.13"/><stop stop-color="#f9f9f9" offset="0.36"/><stop stop-color="#fff" offset="0.53"/><stop stop-color="#fdfdfd" offset="0.74"/><stop stop-color="#f5f5f5" offset="0.83"/><stop stop-color="#e8e8e8" offset="0.91"/><stop stop-color="#d6d6d6" offset="0.97"/><stop stop-color="#cbcbcb" offset="1"/></linearGradient><linearGradient gradientUnits="userSpaceOnUse" gradientTransform="translate(-55.35 162.56) rotate(-6.52)" y2="171.54" x2="429.37" y1="215.93" x1="447.83" id="linear-gradient-2"><stop stop-color="#dbdbdb" offset="0.02"/><stop stop-color="#e7e7e7" offset="0.23"/><stop stop-color="#fff" offset="0.53"/><stop stop-color="#f8f8f8" offset="0.65"/><stop stop-color="#e5e5e5" offset="0.83"/><stop stop-color="#cbcbcb" offset="1"/></linearGradient></defs><g class="cls-1"><g data-name="Layer 2" id="Layer_2"><g id="backlog"><g data-name="2023 jp" id="_2023_jp"><g data-name="Sprint Task jp" id="Sprint_Task_jp"><g data-name="blank blue sticky" id="blank_blue_sticky"><path data-cppathid="10000" d="M0,366.16c-1.47-28.75,130.49-59.63,294.83-69S593.53,303.59,595,332.33,464.49,391.91,300.2,401.25,1.48,394.85,0,366.16Z" class="cls-2"/><path data-cppathid="10001" d="M2.52,366c-1.47-28.49,129.37-59.11,292.31-68.37S591,304,592.44,332.48,463,391.55,300.14,400.81,4,394.47,2.52,366Z" class="cls-3"/><path data-cppathid="10002" d="M5,365.87c-1.45-28.25,128.26-58.6,289.8-67.78s293.58,6.28,295,34.54-128.29,58.56-289.78,67.73S6.46,394.08,5,365.87Z" class="cls-4"/><path data-cppathid="10003" d="M7.52,365.73c-1.44-28,127.15-58.1,287.29-67.2s291,6.23,292.48,34.24S460.11,390.82,300,399.92,9,393.69,7.52,365.73Z" class="cls-5"/><path data-cppathid="10004" d="M10,365.59C8.6,337.82,136.06,308,294.79,299s288.49,6.17,289.92,33.94S458.65,390.46,300,399.48,11.44,393.3,10,365.59Z" class="cls-6"/><path data-cppathid="10005" d="M12.53,365.44c-1.42-27.51,124.92-57.08,282.25-66s285.94,6.12,287.36,33.63-124.95,57-282.23,66S13.93,392.92,12.53,365.44Z" class="cls-7"/><path data-cppathid="10006" d="M15,365.3c-1.4-27.27,123.81-56.57,279.74-65.43s283.39,6.07,284.8,33.34S455.73,389.74,299.85,398.6,16.42,392.53,15,365.3Z" class="cls-8"/><path data-cppathid="10007" d="M17.53,365.16c-1.39-27,122.7-56.06,277.23-64.84s280.84,6,282.23,33-122.72,56-277.2,64.8S18.91,392.14,17.53,365.16Z" class="cls-9"/><path data-cppathid="10008" d="M20,365c-1.37-26.78,121.59-55.56,274.71-64.25s278.3,6,279.68,32.73S452.81,389,299.73,397.71,21.4,391.75,20,365Z" class="cls-10"/><path data-cppathid="10009" d="M22.54,364.87c-1.37-26.53,120.47-55,272.19-63.66s275.75,5.9,277.12,32.44-120.5,55-272.18,63.62S23.89,391.37,22.54,364.87Z" class="cls-11"/><path data-cppathid="10010" d="M25,364.73c-1.35-26.29,119.36-54.53,269.68-63.07s273.2,5.84,274.55,32.13-119.38,54.5-269.66,63S26.38,391,25,364.73Z" class="cls-12"/><path data-cppathid="10011" d="M27.54,364.59c-1.34-26,118.25-54,267.17-62.49s270.64,5.79,272,31.84-118.27,54-267.14,62.45S28.87,390.59,27.54,364.59Z" class="cls-13"/><path data-cppathid="10012" d="M30.05,364.45c-1.33-25.8,117.13-53.52,264.64-61.9s268.1,5.73,269.43,31.53S447,387.56,299.5,395.94,31.36,390.2,30.05,364.45Z" class="cls-14"/><path data-cppathid="10013" d="M32.55,364.3c-1.31-25.55,116-53,262.13-61.3s265.55,5.68,266.87,31.23-116,53-262.11,61.27S33.85,389.82,32.55,364.3Z" class="cls-15"/><path data-cppathid="10014" d="M35.05,364.16c-1.3-25.31,114.91-52.5,259.62-60.72s263,5.63,264.31,30.94-114.93,52.46-259.6,60.68S36.34,389.43,35.05,364.16Z" class="cls-16"/><path data-cppathid="10015" d="M37.55,364C36.27,339,151.34,312,294.66,303.89s260.45,5.57,261.74,30.63-113.81,52-257.08,60.1S38.83,389,37.55,364Z" class="cls-17"/><path data-cppathid="10016" d="M40.06,363.88c-1.28-24.82,112.67-51.49,254.58-59.55s257.91,5.52,259.19,30.34-112.7,51.44-254.56,59.51S41.32,388.65,40.06,363.88Z" class="cls-18"/><path data-cppathid="10017" d="M42.56,363.73c-1.26-24.57,111.56-51,252.07-59s255.36,5.46,256.63,30-111.59,50.94-252,58.92S43.81,388.27,42.56,363.73Z" class="cls-19"/><path data-cppathid="10018" d="M45.06,363.59c-1.25-24.33,110.45-50.46,249.56-58.36s252.81,5.4,254.06,29.73-110.47,50.43-249.53,58.33S46.3,387.88,45.06,363.59Z" class="cls-20"/><path data-cppathid="10019" d="M47.56,363.45c-1.23-24.09,109.34-50,247.05-57.78s250.26,5.35,251.5,29.44-109.36,49.92-247,57.74S48.79,387.49,47.56,363.45Z" class="cls-21"/><path data-cppathid="10020" d="M50.07,363.3c-1.23-23.83,108.22-49.44,244.52-57.18s247.71,5.3,248.94,29.13S435.29,384.66,299,392.41,51.28,387.11,50.07,363.3Z" class="cls-22"/><path data-cppathid="10021" d="M52.57,363.16c-1.21-23.59,107.11-48.94,242-56.6S539.74,311.81,541,335.4,433.83,384.3,299,392,53.77,386.72,52.57,363.16Z" class="cls-23"/><path data-cppathid="10022" d="M55.07,363c-1.2-23.35,106-48.43,239.5-56s242.61,5.19,243.82,28.53-106,48.4-239.47,56S56.26,386.33,55.07,363Z" class="cls-24"/><path data-cppathid="10023" d="M57.58,362.88c-1.19-23.1,104.88-47.92,237-55.42s240.06,5.13,241.25,28.23-104.9,47.89-236.95,55.39S58.75,385.94,57.58,362.88Z" class="cls-25"/><path data-cppathid="10024" d="M60.08,362.73c-1.17-22.85,103.77-47.41,234.46-54.83s237.52,5.08,238.7,27.94-103.79,47.38-234.44,54.8S61.25,385.56,60.08,362.73Z" class="cls-26"/><path data-cppathid="10025" d="M62.58,362.59c-1.16-22.61,102.66-46.9,232-54.24s235,5,236.14,27.63S428,382.85,298.74,390.2,63.74,385.17,62.58,362.59Z" class="cls-27"/><path data-cppathid="10026" d="M65.08,362.45c-1.14-22.37,101.55-46.39,229.44-53.66s232.42,5,233.57,27.34-101.56,46.36-229.4,53.63S66.23,384.78,65.08,362.45Z" class="cls-28"/><path data-cppathid="10027" d="M67.59,362.31C66.45,340.19,168,316.42,294.51,309.24s229.87,4.91,231,27-100.45,45.86-226.89,53S68.72,384.39,67.59,362.31Z" class="cls-29"/><path data-cppathid="10028" d="M70.09,362.16c-1.12-21.87,99.32-45.37,224.4-52.47s227.33,4.86,228.45,26.73-99.33,45.35-224.37,52.45S71.21,384,70.09,362.16Z" class="cls-30"/><path data-cppathid="10029" d="M72.59,362c-1.11-21.63,98.21-44.87,221.89-51.89s224.78,4.81,225.89,26.43-98.22,44.84-221.86,51.87S73.7,383.62,72.59,362Z" class="cls-31"/><path data-cppathid="10030" d="M75.1,361.88c-1.1-21.39,97.09-44.36,219.37-51.3s222.22,4.75,223.33,26.13S420.69,381,298.45,388,76.19,383.23,75.1,361.88Z" class="cls-32"/><path data-cppathid="10031" d="M77.6,361.74c-1.09-21.14,96-43.85,216.86-50.71s219.67,4.69,220.76,25.83-96,43.82-216.82,50.69S78.68,382.84,77.6,361.74Z" class="cls-33"/><path data-cppathid="10032" d="M80.1,361.59C79,340.7,175,318.25,294.44,311.47S511.57,316.11,512.65,337s-94.89,43.32-214.31,50.1S81.17,382.46,80.1,361.59Z" class="cls-34"/><path data-cppathid="10033" d="M82.6,361.45c-1.06-20.65,93.76-42.83,211.83-49.53S509,316.5,510.08,337.15,416.3,380,298.28,386.66,83.66,382.07,82.6,361.45Z" class="cls-35"/><path data-cppathid="10034" d="M85.11,361.31c-1-20.41,92.63-42.32,209.31-48.95s212,4.53,213.08,24.93-92.66,42.3-209.28,48.93S86.15,381.68,85.11,361.31Z" class="cls-36"/><path data-cppathid="10035" d="M87.61,361.17c-1-20.16,91.52-41.82,206.8-48.36s209.48,4.47,210.52,24.63-91.55,41.79-206.77,48.34S88.64,381.29,87.61,361.17Z" class="cls-37"/><path data-cppathid="10036" d="M90.11,361c-1-19.91,90.41-41.3,204.28-47.76s206.94,4.42,208,24.33-90.44,41.28-204.26,47.75S91.13,380.91,90.11,361Z" class="cls-38"/><path data-cppathid="10037" d="M92.61,360.88c-1-19.67,89.3-40.8,201.77-47.18s204.39,4.37,205.4,24-89.32,40.78-201.73,47.16S93.62,380.52,92.61,360.88Z" class="cls-39"/><path data-cppathid="10038" d="M95.12,360.74c-1-19.43,88.18-40.29,199.25-46.59s201.84,4.31,202.84,23.73S409,378.14,298,384.45,96.11,380.13,95.12,360.74Z" class="cls-40"/><path data-cppathid="10039" d="M97.62,360.59c-1-19.17,87.07-39.77,196.74-46S493.64,318.85,494.63,338s-87.09,39.76-196.7,46S98.6,379.74,97.62,360.59Z" class="cls-41"/><path data-cppathid="10040" d="M100.12,360.45c-1-18.93,86-39.27,194.22-45.41s196.74,4.2,197.72,23.13-86,39.25-194.19,45.4S101.09,379.36,100.12,360.45Z" class="cls-42"/><path data-cppathid="10041" d="M102.63,360.31c-1-18.69,84.84-38.76,191.7-44.82s194.19,4.14,195.16,22.83-84.87,38.74-191.68,44.81S103.58,379,102.63,360.31Z" class="cls-43"/><path data-cppathid="10042" d="M105.13,360.17c-.95-18.44,83.73-38.25,189.19-44.24S486,320,486.91,338.46s-83.75,38.23-189.15,44.22S106.07,378.58,105.13,360.17Z" class="cls-44"/><path data-cppathid="10043" d="M107.63,360c-.93-18.19,82.62-37.74,186.68-43.64s189.09,4,190,22.23S401.7,376.33,297.7,382.24,108.56,378.19,107.63,360Z" class="cls-45"/><path data-cppathid="10044" d="M110.13,359.88c-.92-17.95,81.51-37.23,184.16-43.06s186.55,4,187.48,21.93S400.24,376,297.64,381.8,111.05,377.81,110.13,359.88Z" class="cls-46"/><path data-cppathid="10045" d="M112.64,359.74C111.73,342,193,323,294.28,317.27s184,3.93,184.91,21.63-80.41,36.71-181.61,42.46S113.54,377.42,112.64,359.74Z" class="cls-47"/><path data-cppathid="10046" d="M115.14,359.6c-.9-17.46,79.28-36.22,179.13-41.88s181.45,3.87,182.35,21.33-79.3,36.2-179.1,41.87S116,377,115.14,359.6Z" class="cls-48"/><path data-cppathid="10047" d="M117.64,359.45c-.88-17.21,78.17-35.7,176.62-41.29s178.9,3.82,179.78,21-78.18,35.69-176.57,41.28S118.52,376.64,117.64,359.45Z" class="cls-49"/><path data-cppathid="10048" d="M120.15,359.31c-.88-17,77-35.2,174.09-40.7s176.36,3.76,177.23,20.73S394.4,374.52,297.41,380,121,376.26,120.15,359.31Z" class="cls-50"/><path data-cppathid="10049" d="M122.65,359.17c-.86-16.73,75.94-34.69,171.58-40.12S468,322.76,468.9,339.48s-76,34.68-171.55,40.11S123.5,375.87,122.65,359.17Z" class="cls-51"/><path data-cppathid="10050" d="M125.15,359c-.84-16.48,74.83-34.18,169.07-39.53s171.25,3.65,172.1,20.13-74.84,34.17-169,39.52S126,375.48,125.15,359Z" class="cls-52"/><path data-cppathid="10051" d="M127.65,358.88c-.83-16.23,73.72-33.67,166.56-38.93s168.7,3.6,169.54,19.83S390,373.43,297.23,378.71,128.48,375.09,127.65,358.88Z" class="cls-53"/><path data-cppathid="10052" d="M130.16,358.74c-.82-16,72.6-33.16,164-38.35s166.15,3.55,167,19.53-72.62,33.15-164,38.34S131,374.71,130.16,358.74Z" class="cls-54"/><path data-cppathid="10053" d="M132.66,358.6c-.81-15.75,71.48-32.66,161.52-37.76s163.61,3.49,164.42,19.23-71.5,32.64-161.48,37.75S133.46,374.32,132.66,358.6Z" class="cls-55"/><path data-cppathid="10054" d="M135.16,358.45c-.79-15.49,70.37-32.14,159-37.17S455.23,324.72,456,340.21s-70.39,32.14-159,37.17S136,373.93,135.16,358.45Z" class="cls-56"/><path data-cppathid="10055" d="M137.66,358.31c-.78-15.25,69.26-31.63,156.5-36.58s158.51,3.38,159.29,18.63S384.18,372,297,376.94,138.44,373.54,137.66,358.31Z" class="cls-57"/><path data-cppathid="10056" d="M140.17,358.17c-.77-15,68.14-31.13,154-36s156,3.32,156.73,18.32-68.16,31.12-153.94,36S140.93,373.16,140.17,358.17Z" class="cls-58"/><path data-cppathid="10057" d="M142.67,358c-.76-14.77,67-30.62,151.46-35.41s153.42,3.27,154.18,18-67.05,30.61-151.43,35.4S143.43,372.77,142.67,358Z" class="cls-59"/><path data-cppathid="10058" d="M145.17,357.88c-.74-14.51,65.92-30.1,149-34.81S445,326.28,445.73,340.8s-65.93,30.1-148.9,34.81S145.92,372.38,145.17,357.88Z" class="cls-60"/><path data-cppathid="10059" d="M147.68,357.74c-.74-14.27,64.8-29.6,146.43-34.22s148.31,3.16,149.05,17.42-64.82,29.6-146.39,34.23S148.41,372,147.68,357.74Z" class="cls-61"/><path data-cppathid="10060" d="M150.18,357.6c-.72-14,63.69-29.09,143.92-33.64s145.76,3.11,146.49,17.13-63.71,29.08-143.88,33.64S150.9,371.61,150.18,357.6Z" class="cls-62"/><path data-cppathid="10061" d="M152.68,357.46c-.7-13.78,62.58-28.59,141.4-33s143.22,3,143.93,16.82-62.59,28.58-141.36,33.06S153.39,371.22,152.68,357.46Z" class="cls-63"/><path data-cppathid="10062" d="M155.18,357.31c-.69-13.53,61.47-28.07,138.89-32.46s140.67,3,141.37,16.53S374,369.45,296.59,373.84,155.88,370.83,155.18,357.31Z" class="cls-64"/><path data-cppathid="10063" d="M157.69,357.17C157,343.88,218,329.61,294.06,325.3s138.12,2.94,138.8,16.23S372.5,369.09,296.54,373.4,158.37,370.44,157.69,357.17Z" class="cls-65"/><path data-cppathid="10064" d="M160.19,357c-.67-13,59.24-27.06,133.86-31.28s135.57,2.88,136.24,15.92S371,368.72,296.48,373,160.86,370.06,160.19,357Z" class="cls-66"/><path data-cppathid="10065" d="M162.69,356.89c-.65-12.8,58.13-26.55,131.34-30.7s133,2.83,133.69,15.63-58.14,26.54-131.3,30.7S163.35,369.67,162.69,356.89Z" class="cls-67"/><path data-cppathid="10066" d="M165.19,356.74c-.64-12.55,57-26,128.83-30.1S424.5,329.42,425.14,342s-57,26-128.78,30.12S165.84,369.28,165.19,356.74Z" class="cls-68"/><path data-cppathid="10067" d="M167.7,356.6c-.63-12.31,55.9-25.53,126.31-29.52s127.93,2.73,128.56,15-55.91,25.53-126.27,29.52S168.33,368.9,167.7,356.6Z" class="cls-69"/><path data-cppathid="10068" d="M170.2,356.46c-.62-12.07,54.79-25,123.8-28.93s125.37,2.67,126,14.73-54.8,25-123.75,28.93S170.82,368.51,170.2,356.46Z" class="cls-70"/><path data-cppathid="10069" d="M172.7,356.32C172.1,344.5,226.38,331.8,294,328s122.83,2.61,123.44,14.42-53.68,24.51-121.23,28.35S173.31,368.12,172.7,356.32Z" class="cls-71"/><path data-cppathid="10070" d="M175.21,356.17c-.6-11.57,52.56-24,118.76-27.75S414.25,331,414.85,342.55s-52.57,24-118.72,27.76S175.8,367.73,175.21,356.17Z" class="cls-72"/><path data-cppathid="10071" d="M177.71,356c-.58-11.33,51.45-23.49,116.25-27.16s117.73,2.5,118.31,13.82-51.45,23.5-116.2,27.18S178.29,367.35,177.71,356Z" class="cls-73"/><path data-cppathid="10072" d="M180.21,355.89c-.57-11.09,50.33-23,113.74-26.58s115.18,2.45,115.75,13.53-50.34,23-113.69,26.59S180.78,367,180.21,355.89Z" class="cls-74"/><path data-cppathid="10073" d="M182.71,355.74c-.55-10.83,49.22-22.47,111.22-26s112.64,2.39,113.2,13.23S357.9,365.46,296,369,183.27,366.57,182.71,355.74Z" class="cls-75"/><path data-cppathid="10074" d="M185.22,355.6c-.54-10.59,48.1-22,108.7-25.39S404,332.55,404.55,343.13s-48.11,22-108.65,25.41S185.76,366.18,185.22,355.6Z" class="cls-76"/><path data-cppathid="10075" d="M187.72,355.46c-.53-10.35,47-21.46,106.19-24.81S401.45,332.94,402,343.28s-47,21.46-106.14,24.82S188.25,365.8,187.72,355.46Z" class="cls-77"/><path data-cppathid="10076" d="M190.22,355.32c-.51-10.11,45.88-20.95,103.68-24.22s105,2.23,105.51,12.32-45.89,21-103.63,24.24S190.74,365.41,190.22,355.32Z" class="cls-78"/><path data-cppathid="10077" d="M192.73,355.17c-.51-9.85,44.76-20.44,101.15-23.63s102.45,2.18,103,12S352.06,364,295.72,367.22,193.23,365,192.73,355.17Z" class="cls-79"/><path data-cppathid="10078" d="M195.23,355c-.49-9.61,43.65-19.93,98.64-23s99.89,2.12,100.39,11.72-43.66,19.94-98.6,23.06S195.72,364.63,195.23,355Z" class="cls-80"/><path data-cppathid="10079" d="M197.73,354.89c-.48-9.37,42.54-19.42,96.13-22.45s97.34,2.06,97.82,11.42-42.54,19.43-96.07,22.47S198.21,364.25,197.73,354.89Z" class="cls-81"/><path data-cppathid="10080" d="M200.23,354.75c-.46-9.12,41.43-18.92,93.62-21.87s94.79,2,95.26,11.13-41.43,18.92-93.56,21.88S200.7,363.86,200.23,354.75Z" class="cls-82"/><path data-cppathid="10081" d="M202.74,354.6c-.46-8.87,40.31-18.4,91.09-21.27s92.25,1.95,92.71,10.82-40.32,18.42-91.05,21.3S203.19,363.47,202.74,354.6Z" class="cls-83"/><path data-cppathid="10082" d="M205.24,354.46c-.44-8.63,39.2-17.89,88.58-20.69s89.7,1.91,90.14,10.53-39.2,17.9-88.53,20.71S205.68,363.08,205.24,354.46Z" class="cls-84"/><path data-cppathid="10083" d="M207.74,354.32c-.43-8.39,38.09-17.39,86.07-20.1s87.15,1.85,87.58,10.22-38.09,17.4-86,20.12S208.17,362.7,207.74,354.32Z" class="cls-85"/><path data-cppathid="10084" d="M210.24,354.18c-.41-8.14,37-16.88,83.56-19.51s84.6,1.79,85,9.92-37,16.89-83.5,19.53S210.66,362.31,210.24,354.18Z" class="cls-86"/><path data-cppathid="10085" d="M212.75,354c-.41-7.89,35.86-16.37,81-18.92s82.06,1.74,82.46,9.63-35.86,16.38-81,18.94S213.15,361.92,212.75,354Z" class="cls-87"/><path data-cppathid="10086" d="M215.25,353.89c-.39-7.65,34.75-15.86,78.52-18.33s79.51,1.68,79.9,9.32-34.75,15.87-78.47,18.36S215.64,361.53,215.25,353.89Z" class="cls-88"/><path data-cppathid="10087" d="M217.75,353.75c-.37-7.41,33.64-15.35,76-17.74s77,1.62,77.33,9-33.63,15.36-75.95,17.77S218.13,361.15,217.75,353.75Z" class="cls-89"/><path data-cppathid="10088" d="M220.26,353.6c-.37-7.15,32.52-14.84,73.49-17.15s74.4,1.57,74.77,8.72S336,360,295.08,362.35,220.62,360.76,220.26,353.6Z" class="cls-90"/><path data-cppathid="10089" d="M222.76,353.46c-.35-6.91,31.41-14.33,71-16.56s71.86,1.52,72.22,8.42S334.54,359.67,295,361.91,223.11,360.37,222.76,353.46Z" class="cls-91"/><path data-cppathid="10090" d="M225.26,353.32c-.34-6.67,30.3-13.82,68.46-16s69.31,1.47,69.65,8.13-30.29,13.84-68.4,16S225.61,360,225.26,353.32Z" class="cls-92"/><path data-cppathid="10091" d="M227.76,353.18c-.32-6.43,29.18-13.32,65.95-15.39s66.76,1.41,67.09,7.82S331.62,358.94,294.91,361,228.1,359.6,227.76,353.18Z" class="cls-93"/><path data-cppathid="10092" d="M230.27,353c-.32-6.17,28.06-12.8,63.43-14.79s64.21,1.35,64.53,7.52-28.07,12.82-63.38,14.83S230.59,359.21,230.27,353Z" class="cls-94"/><path data-cppathid="10093" d="M232.77,352.89c-.3-5.93,27-12.3,60.91-14.21s61.67,1.3,62,7.22-26.95,12.32-60.86,14.24S233.08,358.82,232.77,352.89Z" class="cls-95"/><path data-cppathid="10094" d="M235.27,352.75c-.29-5.69,25.84-11.79,58.4-13.62s59.12,1.24,59.41,6.92-25.84,11.81-58.34,13.65S235.57,358.43,235.27,352.75Z" class="cls-96"/><path data-cppathid="10095" d="M237.77,352.61c-.27-5.45,24.73-11.28,55.89-13s56.57,1.19,56.84,6.63-24.72,11.29-55.82,13.06S238.06,358.05,237.77,352.61Z" class="cls-97"/><path data-cppathid="10096" d="M240.28,352.46c-.27-5.19,23.61-10.77,53.37-12.44s54,1.13,54.28,6.32-23.61,10.79-53.31,12.48S240.55,357.66,240.28,352.46Z" class="cls-98"/><path data-cppathid="10097" d="M242.78,352.32c-.25-4.95,22.5-10.26,50.85-11.85s51.47,1.08,51.73,6-22.5,10.28-50.8,11.89S243,357.27,242.78,352.32Z" class="cls-99"/><path data-cppathid="10098" d="M245.28,352.18c-.23-4.71,21.39-9.75,48.34-11.27s48.92,1,49.16,5.72-21.38,9.78-48.28,11.3S245.53,356.88,245.28,352.18Z" class="cls-100"/><path data-cppathid="10099" d="M247.79,352c-.23-4.46,20.27-9.25,45.82-10.68s46.37,1,46.6,5.42-20.27,9.27-45.77,10.71S248,356.5,247.79,352Z" class="cls-101"/><path data-cppathid="10100" d="M250.29,351.89c-.21-4.21,19.16-8.73,43.31-10.09s43.82.92,44,5.12-19.17,8.76-43.25,10.13S250.51,356.11,250.29,351.89Z" class="cls-102"/><path data-cppathid="10101" d="M252.79,351.75c-.2-4,18-8.23,40.79-9.5s41.28.86,41.48,4.82-18.05,8.25-40.73,9.54S253,355.72,252.79,351.75Z" class="cls-103"/><path data-cppathid="10102" d="M142.08,390.92c-9.45.54-40-44.51-44.91-139.2S85.37,22.47,85.37,22.47L471.45.53s8.24,93.58,13.37,193.06c3.27,63.8-7,91.79-60.46,126.46C333.37,379.09,142.08,390.92,142.08,390.92Z" class="cls-104"/><path data-cppathid="10103" d="M140,393.47c-9.44.52-40-44.52-44.91-139.22S83.28,25,83.28,25l386.08-22s8.25,93.58,13.35,193.07c3.3,63.8-7,91.78-60.44,126.44C331.29,381.63,140,393.47,140,393.47Z" class="cls-105"/><path data-cppathid="10104" d="M318.76,362.6s36-8.2,57.21-34.77S398.28,280,398.28,280s31.27,2.26,55.93-6.71,31-26.84,31-26.84-14.86,45.19-50.16,67.66C389.74,343,318.76,362.6,318.76,362.6Z" class="cls-106"/><path data-cppathid="10105" d="M320.57,362.74s35.95-8.2,57.21-34.77,22.31-47.81,22.31-47.81,31.27,2.26,55.93-6.71,31-26.84,31-26.84-14.84,45.2-50.12,67.68C391.54,343.14,320.57,362.74,320.57,362.74Z" class="cls-107"/></g><path data-cppathid="10106" d="M124.45,100a1.4,1.4,0,0,1-1.17-.25,1.52,1.52,0,0,1-.5-1.16c0-.64.34-1.06,1.11-1.25A13.09,13.09,0,0,0,131.25,92l-3.82-1c-.66-.19-1-.53-1-1a1.82,1.82,0,0,1,.17-.71l.12-.23a1.43,1.43,0,0,1,1.17-.86,1.49,1.49,0,0,1,.63.1l4.34,1.16a31.2,31.2,0,0,0,1.56-3.83l-5.06.28a1.28,1.28,0,0,1-.9.36l-2.59.15c-.92,0-1.41-.4-1.46-1.37l-.77-15c-.05-1,.39-1.48,1.31-1.53l2.59-.15a1.34,1.34,0,0,1,1.11.38l8.11-.46c0-1.06-.05-2.13-.08-3.22a1.31,1.31,0,0,1,0-.17l-15.3.87c-.92,0-1.4-.36-1.45-1.24a1.2,1.2,0,0,1,1.31-1.4l33.16-1.88a1.18,1.18,0,0,1,1.44,1.23c.05.88-.39,1.35-1.31,1.4l-12.58.72c0,.26.07.57.09.92,0,.85,0,1.67,0,2.46l9.82-.55c.92-.06,1.41.4,1.46,1.37l.75,14.54c0,1-.39,1.48-1.31,1.53l-2.59.15a1.3,1.3,0,0,1-.94-.26l-9.49.54a29.61,29.61,0,0,1-2.36,5.34l19.17,5c.65.2,1,.53,1,1a1.82,1.82,0,0,1-.17.72l-.11.22a1.43,1.43,0,0,1-1.18.86,1.63,1.63,0,0,1-.63-.09L135.63,93.2A19,19,0,0,1,124.45,100Zm4.87-23.59,7.06-.41c.14-1.59.24-3.27.29-5l-7.61.44Zm.35,6.85,5.52-.31a37.75,37.75,0,0,0,.83-4.28l-6.57.37Zm10.87-.62,8.11-.46L148.43,78l-7.06.41C141.14,79.89,140.86,81.31,140.54,82.65ZM148,70.33l-6,.34c-.05,1.76-.16,3.45-.33,5l6.61-.37Z" class="cls-108"/><path data-cppathid="10107" d="M167.4,96.29a1.48,1.48,0,0,1-1.17.72,2.16,2.16,0,0,1-.68-.09L164,96.39q-.9-.35-.93-1a1.33,1.33,0,0,1,.29-.9L169,86.1l-5.44.31c-.92,0-1.4-.36-1.44-1.24s.39-1.34,1.31-1.4L170,83.4l-.17-3.34v-.13l-6.52.37a1.19,1.19,0,0,1-1.45-1.24c0-.88.39-1.34,1.31-1.39l2-.12v0l-1-9.73v-.22l-.54,0c-.92,0-1.4-.36-1.45-1.24s.39-1.34,1.31-1.39l5.23-.3v-.13l-.22-4.27a1.26,1.26,0,0,1,1.31-1.52l2.59-.15c.92-.05,1.4.4,1.45,1.37l.22,4.26v.14l4.81-.28c.92,0,1.4.36,1.45,1.24a1.38,1.38,0,0,1-.29,1,1.19,1.19,0,0,1-.86.4.93.93,0,0,1,0,.39l-1,9.71,1.17-.07c.92,0,1.41.37,1.45,1.24s-.39,1.35-1.31,1.4l-4.35.25v.13l.17,3.34,3.64-.21c.92,0,1.4.36,1.45,1.24a1.21,1.21,0,0,1-1.32,1.4l-3.63.21,4.66,3.39a1.3,1.3,0,0,1,.63.93,1.33,1.33,0,0,1-.7,1.1l-.8.57a1.45,1.45,0,0,1-.87.36,1.48,1.48,0,0,1-1.07-.38l-1.61-1.19.31,6c.05,1-.38,1.47-1.3,1.52l-2.59.15c-.92,0-1.41-.4-1.46-1.37l-.25-5Zm3-19.26v.22l2.47-.14a.79.79,0,0,1,0-.39l1-9.71-4.39.25v0Zm16.19,18.16c0,1-.46,1.5-1.39,1.49l-2.59.06a1.24,1.24,0,0,1-1.38-1.42V68.44a1.77,1.77,0,0,1,.25-.94,1.38,1.38,0,0,1-.06-.26,1.17,1.17,0,0,1,.66-1l12.78-8.4a1.83,1.83,0,0,1,.78-.31,1.65,1.65,0,0,1,1.11.42l.4.33a1.47,1.47,0,0,1,.59,1,1.17,1.17,0,0,1-.66,1l-10.79,7.1a1.28,1.28,0,0,1,.3,1v4l10.79-.61c.92,0,1.4.36,1.45,1.24a1.2,1.2,0,0,1-1.31,1.4l-1.63.09v.13L197,95.22c0,1-.38,1.48-1.3,1.53l-2.59.15c-.92,0-1.41-.41-1.46-1.38l-1.06-20.6v-.14l-3.93.23Z" class="cls-108"/><path data-cppathid="10108" d="M221.84,92.4a1.48,1.48,0,0,1-1.21.9,2.37,2.37,0,0,1-.55,0l-1.83-.47q-1-.3-1-1a1.67,1.67,0,0,1,.21-.8l13.63-26.07-25.59,1.45c-.92,0-1.4-.36-1.44-1.24s.39-1.34,1.31-1.39l30.56-1.74c.78,0,1.19.24,1.22.85a1.91,1.91,0,0,1-.21.85Z" class="cls-108"/><path data-cppathid="10109" d="M249.7,90.33a1.54,1.54,0,0,1-1.1.59,1.63,1.63,0,0,1-.77-.13l-1.2-.51a1.2,1.2,0,0,1-.89-1,1.46,1.46,0,0,1,.41-1l13.09-15.37L245,73.72c-.92,0-1.4-.36-1.44-1.24s.39-1.35,1.31-1.4l15.51-.88-.09-1.72A1.26,1.26,0,0,1,261.58,67l2.59-.15c.92,0,1.4.4,1.45,1.37l.09,1.71,3.35-.19c.92,0,1.4.36,1.44,1.24s-.39,1.35-1.31,1.4l-3.34.19.9,17.49c.05,1-.4,1.48-1.35,1.44l-5.29-.09c-.84,0-1.28-.4-1.32-1.07a1.73,1.73,0,0,1,.34-1.21,1.09,1.09,0,0,1,1-.41l1.17.06-.58-11.38Z" class="cls-108"/><path data-cppathid="10110" d="M304.25,70.83c.92,0,1.4.36,1.45,1.24a1.2,1.2,0,0,1-1.31,1.4l-28.18,1.6c-.92.05-1.4-.36-1.45-1.24s.39-1.34,1.31-1.4Z" class="cls-108"/><path data-cppathid="10111" d="M345.34,84.76a1.73,1.73,0,0,1,.25.78,1.11,1.11,0,0,1-.9,1.15l-1.94.64-.29.08-.29,0a1.27,1.27,0,0,1-1.21-.77l-2.57-4.26-25.66,5.69c-.89.2-1.35-.06-1.38-.76a1.76,1.76,0,0,1,.17-.76l12.3-29.74a1.38,1.38,0,0,1,1.25-1,1.68,1.68,0,0,1,.47,0l2,.37c.68.13,1,.48,1.06,1a1.75,1.75,0,0,1-.13.75L317.68,84.22,336.88,80l-4.21-6.9a1.73,1.73,0,0,1-.25-.78,1.1,1.1,0,0,1,.9-1.15l1.94-.64.29-.08a1.19,1.19,0,0,1,.29,0,1.27,1.27,0,0,1,1.21.77Z" class="cls-108"/><path data-cppathid="10112" d="M376.05,84.2a1.37,1.37,0,0,1-1.06.68,1.74,1.74,0,0,1-.8-.18l-1.29-.54a1.2,1.2,0,0,1-.85-1,2.08,2.08,0,0,1,.29-.94,15.71,15.71,0,0,0,1.38-3.32,25.53,25.53,0,0,0,1-8.36,18,18,0,0,0-2.34-8.68,8.25,8.25,0,0,0-5.53-4,62.73,62.73,0,0,1,1.55,10.41q.38,7.33-1.81,11.73a7.75,7.75,0,0,1-6.87,4.67,8.57,8.57,0,0,1-5.05-1.17,9.47,9.47,0,0,1-3.51-3.79A13.9,13.9,0,0,1,349.69,74a19.85,19.85,0,0,1,.86-7A18.77,18.77,0,0,1,353.62,61a16,16,0,0,1,4.77-4.17,13.39,13.39,0,0,1,6-1.75,15.67,15.67,0,0,1,8.05,1.46,12.69,12.69,0,0,1,5.42,5.2,18.81,18.81,0,0,1,2.24,8.44A20.61,20.61,0,0,1,376.05,84.2Zm-21-10.53a14.72,14.72,0,0,0,.8,4.25A9.28,9.28,0,0,0,357.54,81a2.6,2.6,0,0,0,2,1.07c.78,0,1.43-.69,2-1.94a18.13,18.13,0,0,0,1.17-5,43.56,43.56,0,0,0,.16-7.06c-.08-1.5-.22-3-.43-4.61s-.49-3.17-.85-4.8a11,11,0,0,0-3.53,3.47,17.65,17.65,0,0,0-2.37,5.31A19.28,19.28,0,0,0,355.05,73.67Z" class="cls-108"/><path data-cppathid="10113" d="M131,188.15a1.44,1.44,0,0,1-.37,1.07,1.33,1.33,0,0,1-1,.5l-2.5.14a1.3,1.3,0,0,1-1-.38,1.46,1.46,0,0,1-.47-1L124.09,158a1.47,1.47,0,0,1,.37-1.08,1.35,1.35,0,0,1,1-.49l2.51-.15a1.32,1.32,0,0,1,1,.39,1.48,1.48,0,0,1,.47,1l.81,15.69,12.21-.7L141.65,157A1.45,1.45,0,0,1,142,156a1.33,1.33,0,0,1,1-.5l2.5-.14a1.3,1.3,0,0,1,1,.38,1.48,1.48,0,0,1,.47,1l1.57,30.41a1.44,1.44,0,0,1-.37,1.07,1.3,1.3,0,0,1-1,.5l-2.51.15a1.32,1.32,0,0,1-1-.39,1.42,1.42,0,0,1-.47-1l-.62-12.08-12.21.69Z" class="cls-108"/><path data-cppathid="10114" d="M164.71,186.23a1.52,1.52,0,0,1-.37,1.08,1.32,1.32,0,0,1-1,.49l-2.51.15a1.32,1.32,0,0,1-1-.39,1.43,1.43,0,0,1-.48-1l-1.49-29.09v-.17l-6,.34a1.5,1.5,0,0,1-1-.31,1.3,1.3,0,0,1-.09-1.9,1.5,1.5,0,0,1,1-.43l17.39-1a1.45,1.45,0,0,1,1,.31,1.22,1.22,0,0,1,.46.92,1.2,1.2,0,0,1-.37,1,1.41,1.41,0,0,1-1,.43l-6,.34v.18Z" class="cls-108"/><path data-cppathid="10115" d="M189.08,180q-.33.9-.87.93c-.37,0-.69-.26-1-.83L179,163.56l1.12,21.84c0,1-.38,1.48-1.3,1.53L177,187c-.92.06-1.41-.4-1.46-1.37l-1.57-30.5a1.26,1.26,0,0,1,1.31-1.52l1.59-.09a1.66,1.66,0,0,1,1.68,1l9.17,17.64,7.26-18.57a1.66,1.66,0,0,1,1.58-1.19l1.59-.09c.92-.06,1.4.4,1.45,1.37l1.57,30.49c0,1-.38,1.48-1.3,1.53l-1.84.11c-.92,0-1.41-.41-1.46-1.37l-1.11-21.71Z" class="cls-108"/><path data-cppathid="10116" d="M222.84,181.78a1.42,1.42,0,0,1,1,.32A1.26,1.26,0,0,1,224,184a1.48,1.48,0,0,1-1,.44l-16.18.92a1.34,1.34,0,0,1-1-.39,1.46,1.46,0,0,1-.47-1l-1.57-30.41a1.49,1.49,0,0,1,.37-1.08,1.35,1.35,0,0,1,1-.49l2.51-.14a1.27,1.27,0,0,1,1,.38,1.49,1.49,0,0,1,.48,1l1.5,29.26Z" class="cls-108"/><path data-cppathid="10117" d="M234,183a1.41,1.41,0,0,1-1.62,1.15l-2.28-.26c-.73-.11-1.11-.48-1.14-1.13a1.13,1.13,0,0,1,0-.26c0-.09,0-.2,0-.32l8.75-31.21a1.41,1.41,0,0,1,1.62-1.15l2.28.27a1.15,1.15,0,0,1,1.15,1.12v.27a.84.84,0,0,1-.07.31Z" class="cls-108"/><path data-cppathid="10118" d="M266.55,175.55a1.57,1.57,0,0,1,1.6-1.33l2.3-.13a1,1,0,0,1,.88.39,1.61,1.61,0,0,1,.37,1,1.64,1.64,0,0,1-.13.76,8.69,8.69,0,0,1-2.14,3.23,11.46,11.46,0,0,1-3.41,2.26,11.2,11.2,0,0,1-3.93.95,11.52,11.52,0,0,1-6.71-1.62,13.65,13.65,0,0,1-5-5.34,19.15,19.15,0,0,1-2.17-8.29,24.15,24.15,0,0,1,.63-7,20.86,20.86,0,0,1,2.43-6,14.65,14.65,0,0,1,3.83-4.25,8.81,8.81,0,0,1,4.75-1.75,9.09,9.09,0,0,1,3.56.57,14.88,14.88,0,0,1,3.51,1.87,15.55,15.55,0,0,1,2.95,2.77,10,10,0,0,1,1.82,3.24.64.64,0,0,1,.06.22c0,.09,0,.16,0,.22a1.54,1.54,0,0,1-.29,1,1.09,1.09,0,0,1-.89.47l-2.6.14c-.78.05-1.3-.39-1.57-1.32a12.32,12.32,0,0,0-1.42-3.13,9.6,9.6,0,0,0-2.23-2.52A4,4,0,0,0,260,151a4.18,4.18,0,0,0-3,1.56A11.08,11.08,0,0,0,255,156.4a26.8,26.8,0,0,0-1.16,5.13,31.17,31.17,0,0,0-.22,5.54,20,20,0,0,0,.94,5.26,16,16,0,0,0,2,4.14,10,10,0,0,0,2.63,2.67A4.58,4.58,0,0,0,262,180a4.72,4.72,0,0,0,1.72-.48,5,5,0,0,0,1.71-1.37A6.21,6.21,0,0,0,266.55,175.55Z" class="cls-108"/><path data-cppathid="10119" d="M274.1,171.59a1.45,1.45,0,0,1,.32-1.16,1.36,1.36,0,0,1,1-.5l2.51-.14a1.21,1.21,0,0,1,1,.36,1.62,1.62,0,0,1,.47,1,11,11,0,0,0,2.05,5.61,4.7,4.7,0,0,0,4.16,1.88,5.1,5.1,0,0,0,3.92-1.81,6.26,6.26,0,0,0,1.17-4.38,6,6,0,0,0-2-3.9,26.59,26.59,0,0,0-5.4-4,40,40,0,0,1-5-2.65,7.39,7.39,0,0,1-2.66-2.75,9.93,9.93,0,0,1-.94-4.07,6.75,6.75,0,0,1,.85-3.44,8.42,8.42,0,0,1,3-3.15,10.51,10.51,0,0,1,5.21-1.5,10.92,10.92,0,0,1,4.6.73,22.37,22.37,0,0,1,4.57,2.4,1.59,1.59,0,0,1,.91,1.36,1.17,1.17,0,0,1-.61,1.14l-1,.58-.31.13a.56.56,0,0,1-.26.08,1.32,1.32,0,0,1-.9-.3,38.86,38.86,0,0,0-4-2.79,5.17,5.17,0,0,0-2.93-.79,4.16,4.16,0,0,0-3.13,1.61,5.11,5.11,0,0,0-1.09,3.57,8.42,8.42,0,0,0,1.23,4.07,9.22,9.22,0,0,0,4.38,3.15,33.14,33.14,0,0,1,5.36,2.75,15,15,0,0,1,3.78,3.34,7.08,7.08,0,0,1,1.53,4.05,7.47,7.47,0,0,1-1.15,4.48,9.53,9.53,0,0,1-3.61,3.26,12.81,12.81,0,0,1-5.42,1.44,10.63,10.63,0,0,1-7.88-2.4A11.53,11.53,0,0,1,274.1,171.59Z" class="cls-108"/><path data-cppathid="10120" d="M298.05,170.23a1.48,1.48,0,0,1,.32-1.16,1.4,1.4,0,0,1,1-.5l2.51-.15a1.25,1.25,0,0,1,1,.37,1.68,1.68,0,0,1,.47,1,10.94,10.94,0,0,0,2.05,5.61,4.71,4.71,0,0,0,4.16,1.88,5.08,5.08,0,0,0,3.91-1.81,6.33,6.33,0,0,0,1.18-4.39,6,6,0,0,0-2-3.9,27,27,0,0,0-5.4-4,40.26,40.26,0,0,1-5-2.65,7.45,7.45,0,0,1-2.65-2.76,9.83,9.83,0,0,1-.95-4.06,6.89,6.89,0,0,1,.85-3.45,8.42,8.42,0,0,1,3-3.14,10.47,10.47,0,0,1,5.2-1.51,11.3,11.3,0,0,1,4.61.73,23.21,23.21,0,0,1,4.57,2.41,1.6,1.6,0,0,1,.91,1.36,1.18,1.18,0,0,1-.62,1.14l-1,.58-.31.13a.75.75,0,0,1-.27.08,1.3,1.3,0,0,1-.89-.3,41,41,0,0,0-4-2.8,5.25,5.25,0,0,0-2.94-.78,4.15,4.15,0,0,0-3.12,1.61,5.11,5.11,0,0,0-1.1,3.57,8.32,8.32,0,0,0,1.24,4.07,9.09,9.09,0,0,0,4.38,3.14,34.87,34.87,0,0,1,5.36,2.76,15.17,15.17,0,0,1,3.77,3.34,7,7,0,0,1,1.53,4.05,7.39,7.39,0,0,1-1.15,4.47,9.37,9.37,0,0,1-3.6,3.27,12.67,12.67,0,0,1-5.42,1.43,10.55,10.55,0,0,1-7.88-2.39A11.59,11.59,0,0,1,298.05,170.23Z" class="cls-108"/><path data-cppathid="10121" d="M348.08,168.75c.11,1-.32,1.52-1.3,1.57l-2.59.15c-.87.05-1.35-.41-1.46-1.37a18.32,18.32,0,0,0-.46-2.57,35.12,35.12,0,0,0-6.67,4.1c-1.58,1.31-2.35,2.46-2.29,3.46s.64,1.5,1.79,1.86a16.09,16.09,0,0,0,5.28.34,23.81,23.81,0,0,0,10.83-3.09,1.7,1.7,0,0,1,.86-.31,1.43,1.43,0,0,1,1,.38l.43.33a1.27,1.27,0,0,1,.6,1,1.11,1.11,0,0,1-.7,1,25,25,0,0,1-3.8,1.54,41.89,41.89,0,0,1-4.51,1.16,32.74,32.74,0,0,1-4.6.59,25.23,25.23,0,0,1-6.19-.35,13.22,13.22,0,0,1-4.57-1.64,3.28,3.28,0,0,1-1.81-2.54,4.63,4.63,0,0,1,1.52-3.19,22.13,22.13,0,0,1,4.61-3.64,64.67,64.67,0,0,1,7.21-3.8,7.51,7.51,0,0,0-2.05-2.64,3.81,3.81,0,0,0-2.58-.84,4.54,4.54,0,0,0-2.67,1.05,8.94,8.94,0,0,0-2.15,3,1.67,1.67,0,0,1-.87.93l0,0h-.17a.15.15,0,0,1-.08,0h-.38a.66.66,0,0,1-.21,0l-2-.37a1.51,1.51,0,0,1-.26-.07,1.11,1.11,0,0,1-.93-1,1.79,1.79,0,0,1,.13-.76l3.63-9.19-6.43.36c-.92,0-1.41-.36-1.45-1.24s.39-1.34,1.31-1.39l7.65-.44,1.33-3.42a1.43,1.43,0,0,1,1.29-1.05h.21a.62.62,0,0,1,.21,0l2.16.41c.68.14,1,.48,1.06,1a1.65,1.65,0,0,1-.13.76l-.78,1.94,13.3-.76c.92,0,1.4.36,1.45,1.24a1.21,1.21,0,0,1-1.32,1.4l-14.46.82L334.32,158a10.84,10.84,0,0,1,2.21-.35,10.71,10.71,0,0,1,5.29.94,9.78,9.78,0,0,1,3.86,3.3c2.08-.85,4.27-1.67,6.58-2.44l.29-.09a1,1,0,0,1,.25,0,1.4,1.4,0,0,1,1.3.8,1.86,1.86,0,0,1,.24.7c0,.58-.3,1-1,1.2q-3.39,1.15-6.34,2.39A17.57,17.57,0,0,1,348.08,168.75Z" class="cls-108"/><path data-cppathid="10122" d="M381.07,161.28v.13l13.84-.79c.92-.05,1.4.36,1.45,1.24a1.21,1.21,0,0,1-1.32,1.4l-33,1.88c-.92.05-1.4-.36-1.45-1.24a1.2,1.2,0,0,1,1.31-1.4l13.84-.78v-.14l-.07-1.49-10.83.61a1.19,1.19,0,0,1-1.45-1.23,1.2,1.2,0,0,1,1.31-1.4l10.83-.62-.1-2-11.58.66a1.19,1.19,0,0,1-1.45-1.24c0-.88.39-1.34,1.31-1.39l11.58-.66-.12-2.42-14.34.82c-.92,0-1.4-.36-1.45-1.24a1.2,1.2,0,0,1,1.31-1.4l14.34-.81-.16-3.08-11.58.66c-.92,0-1.4-.36-1.44-1.24s.39-1.35,1.31-1.4l11.58-.66-.06-1.14c-.05-1,.38-1.48,1.3-1.53l2.6-.14c.92-.06,1.4.4,1.45,1.37l.06,1.14,11.75-.67c.92,0,1.4.41,1.45,1.37l.22,4.26,1.26-.07c.92,0,1.4.36,1.44,1.24s-.39,1.35-1.31,1.4l-1.25.07.22,4.31a1.27,1.27,0,0,1-1.31,1.53l-2.59.14a1.16,1.16,0,0,1-1.25-.63l-7.94.45.1,2,10.83-.62c.92-.05,1.4.36,1.45,1.24a1.2,1.2,0,0,1-1.31,1.4l-10.83.61Zm14.45,14.34a1.26,1.26,0,0,1-1.3,1.53l-2.59.14a1.39,1.39,0,0,1-1.05-.29,1.22,1.22,0,0,1-.4-.9l-21.95,1.25a1.2,1.2,0,0,1-1.28,1.17l-2.59.15c-.92.05-1.41-.41-1.46-1.37l-.51-10.07a1.26,1.26,0,0,1,1.3-1.53l2.59-.14a1.21,1.21,0,0,1,1.3.67l26-1.48c.92-.05,1.4.41,1.45,1.38Zm-5.78-8-21.9,1.24.08,1.67,21.91-1.24Zm-21.6,7.09,21.91-1.25-.08-1.54-21.91,1.25ZM388,144l-7.77.45.15,3.07,7.78-.44Zm-7.36,8.57,7.78-.44-.12-2.41-7.78.44Z" class="cls-108"/><path data-cppathid="10123" d="M424.67,171.62a1.25,1.25,0,0,1,.68,1,1.35,1.35,0,0,1-.58,1.05l-.64.52a1.36,1.36,0,0,1-.95.4,1.55,1.55,0,0,1-1-.29l-18.13-11.62a1.33,1.33,0,0,1-.68-1,1.51,1.51,0,0,1,.49-1.08l17.21-17.55a1.66,1.66,0,0,1,1-.54,1.56,1.56,0,0,1,.89.21l1,.51a1.33,1.33,0,0,1,.76,1,1.35,1.35,0,0,1-.45,1l-15.78,16Z" class="cls-108"/><path data-cppathid="10124" d="M440.7,173.49a8.59,8.59,0,0,1-3.92-.66,7.33,7.33,0,0,1-3-2.25,6,6,0,0,1-.35-6.84,7.35,7.35,0,0,1,2.72-2.55,8.91,8.91,0,0,1,7.71-.44,7.38,7.38,0,0,1,2.94,2.23,5.94,5.94,0,0,1,.35,6.81,7.66,7.66,0,0,1-2.69,2.58A8.34,8.34,0,0,1,440.7,173.49Zm-.12-2.2a3.32,3.32,0,0,0,2.55-1.46,4.88,4.88,0,0,0,.94-3.28,4.71,4.71,0,0,0-1.27-3.12,3.36,3.36,0,0,0-2.68-1.15,3.46,3.46,0,0,0-2.59,1.43,4.74,4.74,0,0,0-.94,3.27,4.81,4.81,0,0,0,1.27,3.15A3.35,3.35,0,0,0,440.58,171.29Z" class="cls-108"/></g></g></g></g></g></svg>