<?xml version="1.0" encoding="UTF-8"?>
<svg xmlns="http://www.w3.org/2000/svg" onmouseup="{ if(window.parent.document.onmouseup) window.parent.document.onmouseup(arguments[0]);}" viewBox="0 0 403.28 764.66"><defs><style>.cls-1,.cls-3,.cls-5,.cls-7{fill:#fff100;}.cls-2{fill:#603813;}.cls-3,.cls-4{opacity:0.5;}.cls-5,.cls-6{opacity:0.25;}.cls-7,.cls-8{opacity:0.12;}</style></defs><g data-name="Layer 2" id="Layer_2"><g id="backlog"><g data-name="2023 jp" id="_2023_jp"><g data-name="initial Product Backlog" id="initial_Product_Backlog"><g data-name="Attendance PBI" id="Attendance_PBI"><path data-cppathid="10000" transform="translate(0 0)" d="M403.28,232.67a12.39,12.39,0,0,1-12.39,12.38H12.38A12.38,12.38,0,0,1,0,232.67V171.25a12.38,12.38,0,0,1,12.38-12.38H390.89a12.39,12.39,0,0,1,12.39,12.38Z" class="cls-1"/><path data-cppathid="10001" transform="translate(0 0)" d="M165,210.91V211h5.33v-5.79a.72.72,0,0,1,.81-.81h1.52a.72.72,0,0,1,.81.81v6.7a.72.72,0,0,1-.81.81H171.1a.8.8,0,0,1-.64-.25h-16.3a.72.72,0,0,1-.81-.81v-6.45a.72.72,0,0,1,.81-.81h1.52a.72.72,0,0,1,.81.81V211h5.33v-9.06h-6.9a.72.72,0,0,1-.81-.81v-7.22a.72.72,0,0,1,.81-.81h1.52a.72.72,0,0,1,.81.81v6.56h4.57v-7.91a.72.72,0,0,1,.81-.81h1.52a.72.72,0,0,1,.81.81v7.91h4.57v-6.56a.72.72,0,0,1,.81-.81h1.52a.72.72,0,0,1,.81.81v7.69a.72.72,0,0,1-.81.81h-1.52a.72.72,0,0,1-.76-.47H165Z" class="cls-2"/><path data-cppathid="10002" transform="translate(0 0)" d="M180.14,212.6a.73.73,0,0,1-.86.76l-1.52-.05c-.56,0-.81-.31-.76-.86l1.37-17a.73.73,0,0,1,.86-.76l1.52.05a.81.81,0,0,1,.67.34h6.36a.93.93,0,0,1-.08-.39v-2.53a.72.72,0,0,1,.81-.81H190a.72.72,0,0,1,.81.81v2.53a.93.93,0,0,1-.08.39h7.39c.54,0,.81.25.81.74s-.27.74-.81.74H181.44Zm4.93-1.1a.72.72,0,0,1-.81.81h-1.52a.72.72,0,0,1-.81-.81v-5.38a.72.72,0,0,1,.81-.81h1.52a.82.82,0,0,1,.64.24h2.95v-1.74h-3.46a.72.72,0,0,1-.81-.81v-2.75h-1.26c-.54,0-.81-.25-.81-.74s.27-.73.81-.73h1.26v-.89a.72.72,0,0,1,.81-.81h1.52a.72.72,0,0,1,.81.81v.89h5.72v-.89a.72.72,0,0,1,.81-.81h1.53a.72.72,0,0,1,.81.81v.89h1.86c.54,0,.81.24.81.73s-.27.74-.81.74h-1.86v2.92a.72.72,0,0,1-.81.81h-1.53a.81.81,0,0,1-.54-.17H191v1.74h5.14a.72.72,0,0,1,.81.81v5c0,.59-.29.84-.86.76l-3.37-.39c-.56-.08-.78-.36-.69-.84a.81.81,0,0,1,.94-.64l.83.1V207H191v5.3a.72.72,0,0,1-.81.81h-1.52a.72.72,0,0,1-.81-.81V207h-2.78Zm1.65-9.16h5.72v-2.09h-5.72Z" class="cls-2"/><path data-cppathid="10003" transform="translate(0 0)" d="M205.58,206.24a.13.13,0,0,0,.07-.05v-6.85l-3-2.58a1.09,1.09,0,0,1-.4-.78.73.73,0,0,1,.4-.67l.56-.32a1,1,0,0,1,.35-.07.77.77,0,0,1,.51.17l1.57,1.35v-3.95a.85.85,0,0,1,.84-.84H208a.85.85,0,0,1,.84.84v19.62a.85.85,0,0,1-.84.84h-1.47a.85.85,0,0,1-.84-.84v-3.56l-2,1.33a.8.8,0,0,1-.4.12.78.78,0,0,1-.44-.15l-.17-.12a.92.92,0,0,1-.42-.79.9.9,0,0,1,.44-.78Zm6.66,6.34a.67.67,0,0,1-.57.27l-.15,0a.58.58,0,0,1-.14,0l-.74-.3a.8.8,0,0,1-.61-.81,1,1,0,0,1,.22-.61,23.45,23.45,0,0,0,2.89-5,24,24,0,0,0,1.58-5.83H211a.87.87,0,0,1-.59-.21.64.64,0,0,1-.25-.53.66.66,0,0,1,.25-.53.92.92,0,0,1,.59-.2h3.95c.1-.92.17-1.89.22-2.9s.08-2.11.1-3.27a.85.85,0,0,1,.23-.6.78.78,0,0,1,.58-.23h1.5c.23,0,.42.16.59.48a2.37,2.37,0,0,1,.22,1.19c0,1,0,1.94-.11,2.82s-.14,1.72-.23,2.51h4.12a.92.92,0,0,1,.59.2.69.69,0,0,1,.25.53.67.67,0,0,1-.25.53.87.87,0,0,1-.59.21h-4.32c-.07.41-.13.8-.2,1.18a2.1,2.1,0,0,1,.15.22l5,9.65a.91.91,0,0,1,.13.44.8.8,0,0,1-.19.53.92.92,0,0,1-.52.31l-1.11.27a.92.92,0,0,1-.49-.05.7.7,0,0,1-.37-.35l-3.71-7.09a17.81,17.81,0,0,1-1.89,3.89C213.9,210.42,213.1,211.51,212.24,212.58Zm10.68-15.7a.82.82,0,0,1-.15.69.89.89,0,0,1-.61.35l-1.45.12a.81.81,0,0,1-.57-.15.69.69,0,0,1-.29-.49l-.71-3.56a.89.89,0,0,1,.14-.71.79.79,0,0,1,.62-.32l1.45-.12a.69.69,0,0,1,.56.13.79.79,0,0,1,.3.5Z" class="cls-2"/><path data-cppathid="10004" transform="translate(0 0)" d="M230.31,207.05a1,1,0,0,1,.69-.34l.22,0a.77.77,0,0,1,.19.08l.77.32c.32.14.49.34.49.58a.76.76,0,0,1-.25.54l-3.51,3.81a1,1,0,0,1-.69.35.65.65,0,0,1-.19,0,.77.77,0,0,0-.23-.06L227,212c-.32-.15-.49-.35-.49-.59a.72.72,0,0,1,.25-.54Zm1.59-4.74a.7.7,0,0,1,.37.57.73.73,0,0,1-.37.56l-.39.27a1,1,0,0,1-.56.2,1.15,1.15,0,0,1-.57-.2l-3.26-2.26a.73.73,0,0,1-.37-.56.7.7,0,0,1,.37-.57l.39-.27a1,1,0,0,1,.56-.19.84.84,0,0,1,.57.19Zm.08-6.38a.77.77,0,0,1,.32.56.66.66,0,0,1-.42.57l-.56.29a1,1,0,0,1-.52.15.84.84,0,0,1-.59-.25l-3-2.55a.77.77,0,0,1-.32-.57.66.66,0,0,1,.42-.56l.56-.29a1.06,1.06,0,0,1,.52-.15.88.88,0,0,1,.59.24Zm2.28,16.38a.82.82,0,0,1-.73.49h-.15l-.15,0-1.15-.3c-.38-.09-.57-.3-.57-.61a1.13,1.13,0,0,1,.13-.44l4.05-7.25h-1.53a.72.72,0,0,1-.81-.81V192.69a.72.72,0,0,1,.81-.81h1.53a.7.7,0,0,1,.73.41h8.16a.72.72,0,0,1,.81.81v10.24a.72.72,0,0,1-.81.81h-1.53a.78.78,0,0,1-.22,0V211H244v-2.93a.72.72,0,0,1,.81-.81h1.52a.72.72,0,0,1,.81.81v3.59a.72.72,0,0,1-.81.81H240.5a.72.72,0,0,1-.81-.81v-7.93h-.76a1,1,0,0,1-.12.44Zm8-18.54H236.5v8.49h5.74Z" class="cls-2"/></g><g data-name="Grades PBI" id="Grades_PBI"><path data-cppathid="10005" transform="translate(0 0)" d="M403.28,133.73a12.39,12.39,0,0,1-12.39,12.38H12.38A12.38,12.38,0,0,1,0,133.73V72.3A12.37,12.37,0,0,1,12.38,59.93H390.89A12.38,12.38,0,0,1,403.28,72.3Z" class="cls-1"/><path data-cppathid="10006" transform="translate(0 0)" d="M180.65,113.19c0,.51-.29.77-.83.77l-1.5,0c-.56,0-.82-.28-.78-.83L178.22,98a1.18,1.18,0,0,1,.15-.49.66.66,0,0,1-.12-.42c0-.49.27-.73.81-.73h8.79L187,93.89a1.48,1.48,0,0,1,0-.32c0-.37.22-.59.66-.63l1.38-.2h.11l.09,0a.75.75,0,0,1,.76.62l1,3.07h6.78c.54,0,.81.24.81.73s-.27.74-.81.74h-6.31l2.11,6.56,2.23-3.59a.86.86,0,0,1,.74-.46,1.45,1.45,0,0,1,.32,0l1,.32c.38.14.57.34.57.62a1,1,0,0,1-.15.44l-3.71,5.92,1.23,3.81,1.4-.37a1,1,0,0,1,.27,0,.83.83,0,0,1,.76.51,1,1,0,0,1,.12.4c0,.32-.19.54-.58.63l-3.61.94-.15,0h-.12a.74.74,0,0,1-.74-.59l-.64-2-1.33,2.14a.85.85,0,0,1-.73.47,1.57,1.57,0,0,1-.32,0l-1.06-.32c-.37-.13-.56-.34-.56-.62a1,1,0,0,1,.14-.44l2.8-4.47-3.16-9.87h-7a2.13,2.13,0,0,1,0,.27l-.19,4.23h5.94c.56,0,.81.27.76.83l-.76,9.63c-.05.47-.27.71-.66.71l-.28-.05-3.87-1c-.41-.1-.62-.29-.62-.59a.33.33,0,0,1,0-.17l.06-.17,0-.07a.84.84,0,0,1,.77-.52h.14l.15,0,1.23.29.61-7.51h-3.61Zm16.11-18.81a.75.75,0,0,1,.42.59.77.77,0,0,1-.29.54l-.25.2a.84.84,0,0,1-1.1.12l-3-1.64a.75.75,0,0,1-.42-.59.69.69,0,0,1,.3-.54l.24-.2a1,1,0,0,1,.64-.27.92.92,0,0,1,.47.15Z" class="cls-2"/><path data-cppathid="10007" transform="translate(0 0)" d="M204.08,112.26a.73.73,0,0,1-.88.74l-.79,0a.69.69,0,0,1-.73-.86l.31-3.73a.74.74,0,0,1,.89-.74l.78,0a.7.7,0,0,1,.74.86Zm4.28,1.06a.72.72,0,0,1-.82.81H206a.72.72,0,0,1-.81-.81v-7.07l-2.7.22c-.49,0-.74-.13-.74-.47a.82.82,0,0,1,.18-.49L204.2,102l0-.08-2.07-2.75a1,1,0,0,1-.22-.56.89.89,0,0,1,.22-.57L206,92.89a.85.85,0,0,1,.69-.4,1.23,1.23,0,0,1,.39.08l.94.32c.34.11.51.31.51.59a.87.87,0,0,1-.19.49l-3.52,4.64.84,1.1.88-1.37a.87.87,0,0,1,.76-.44,1.45,1.45,0,0,1,.32,0l1.06.32c.37.14.56.33.56.59a.47.47,0,0,1,0,.22,1.15,1.15,0,0,1-.12.25l-3.49,5.43,3-.25-.42-1.69a1.69,1.69,0,0,1,0-.25.65.65,0,0,1,.66-.71l.71-.1a.74.74,0,0,1,.94.64l.91,3.76a1.44,1.44,0,0,1,0,.24.64.64,0,0,1-.66.71l-.71.1a.74.74,0,0,1-.94-.64l-.15-.59h-.07l-.56,0a.9.9,0,0,1,.05.3Zm3.48-1.62c0,.54-.2.82-.76.86l-.79,0a.72.72,0,0,1-.85-.74l-.32-3.07a.86.86,0,0,1,.17-.63.79.79,0,0,1,.59-.25l.78,0a.71.71,0,0,1,.86.73Zm6.88-11.82V100h3.56c.54,0,.81.24.81.74s-.27.73-.81.73H212.09c-.54,0-.81-.24-.81-.73s.27-.74.81-.74h3.48v-1h-2.33c-.54,0-.81-.25-.81-.74s.27-.74.81-.74h2.33V96h-2.94c-.54,0-.81-.24-.81-.73s.27-.74.81-.74h2.94v-.78a.72.72,0,0,1,.82-.81h1.52a.72.72,0,0,1,.81.81v.78h3c.54,0,.81.25.81.74s-.27.73-.81.73h-3v1.45h2.38c.54,0,.81.25.81.74s-.27.74-.81.74h-2.38Zm-6.56,3A.72.72,0,0,1,213,102h1.52a1,1,0,0,1,.5.12h6.75a.72.72,0,0,1,.81.81v7.62a.72.72,0,0,1-.81.81h-1.52a.89.89,0,0,1-.5-.13H215a.89.89,0,0,1-.5.13H213a.72.72,0,0,1-.81-.81Zm1.57,11.27a.92.92,0,0,1-.44.1.89.89,0,0,1-.66-.32l-.12-.12a.72.72,0,0,1-.27-.52c0-.24.16-.44.49-.59l2.13-1a.92.92,0,0,1,.44-.1.91.91,0,0,1,.67.32l.12.12a.76.76,0,0,1,.27.52c0,.24-.16.44-.49.59Zm5.68-10.48H215.3v1h4.11Zm-4.11,3.63h4.11V106.1H215.3Zm0,2.53h4.11v-1H215.3Zm6.95,3c.33.15.5.35.5.59a.8.8,0,0,1-.23.49l-.17.17a1,1,0,0,1-.69.35.86.86,0,0,1-.41-.1l-2.46-1.08c-.33-.15-.49-.34-.49-.59a.72.72,0,0,1,.22-.49l.17-.17a.88.88,0,0,1,1.11-.25Z" class="cls-2"/></g><g data-name="Event Calendar PBI" id="Event_Calendar_PBI"><rect data-cppathid="10008" rx="12.38" height="86.18" width="403.28" y="260.11" class="cls-1"/><path data-cppathid="10009" transform="translate(0 0)" d="M105.58,307.36a1,1,0,0,1-.51.15.91.91,0,0,1-.62-.24l-.24-.2a.82.82,0,0,1-.35-.57c0-.19.14-.38.42-.56l17.24-10a1.06,1.06,0,0,1,.52-.15.85.85,0,0,1,.61.25l.25.19a.8.8,0,0,1,.34.57c0,.2-.14.38-.42.56l-6.82,4a.76.76,0,0,1,.19.56v11a.72.72,0,0,1-.81.81h-1.52a.72.72,0,0,1-.81-.81V303Z" class="cls-2"/><path data-cppathid="10010" transform="translate(0 0)" d="M145.61,311.51a.75.75,0,0,1,.2.49c0,.27-.17.46-.52.59l-.93.32a1.29,1.29,0,0,1-.39.08.84.84,0,0,1-.69-.4l-8.84-11.46-6,10a.91.91,0,0,1-.76.47l-.15,0a.7.7,0,0,1-.14,0l-1.11-.3c-.38-.1-.56-.29-.56-.59a1,1,0,0,1,.14-.46l7.69-12.87a.64.64,0,0,1,.54-.39.76.76,0,0,1,.59.34Zm-2.38-9.4a1,1,0,0,1,0,.27.64.64,0,0,1-.66.69l-.71.1a.74.74,0,0,1-.93-.64l-1.28-5.16a1,1,0,0,1,0-.27.65.65,0,0,1,.67-.69l.71-.1a.76.76,0,0,1,1,.64Zm2.7-1.5a1,1,0,0,1,0,.27.67.67,0,0,1-.64.69l-.71.12a.75.75,0,0,1-1-.64l-1.25-4.81a.83.83,0,0,1,0-.15.76.76,0,0,1,0-.15q0-.54.66-.66l.71-.12a.76.76,0,0,1,1,.64Z" class="cls-2"/><path data-cppathid="10011" transform="translate(0 0)" d="M157.77,300c.28.18.42.37.42.56a.75.75,0,0,1-.35.57l-.29.24a1,1,0,0,1-.59.22,1,1,0,0,1-.54-.17l-6.51-3.95q-.42-.27-.42-.57a.75.75,0,0,1,.35-.56l.29-.25a.92.92,0,0,1,1.13-.05Zm7.93,2.65a1.07,1.07,0,0,1,.56-.17,1,1,0,0,1,.57.19l.32.25a.74.74,0,0,1,.34.56.68.68,0,0,1-.39.57l-14.44,9.09a1.08,1.08,0,0,1-.57.17,1,1,0,0,1-.56-.2l-.32-.24a.74.74,0,0,1-.34-.57.68.68,0,0,1,.39-.56Z" class="cls-2"/><path data-cppathid="10012" transform="translate(0 0)" d="M176.36,313.18a.72.72,0,0,1-.81.81H174a.72.72,0,0,1-.81-.81V296.12a.72.72,0,0,1,.81-.81h1.53a.72.72,0,0,1,.81.81v7l8.89,2.87c.37.14.56.33.56.59a.77.77,0,0,1-.15.42l-.09.12a.82.82,0,0,1-.72.42h-.16l-.18,0-8.15-2.63Z" class="cls-2"/><path data-cppathid="10013" transform="translate(0 0)" d="M194,313.38a.8.8,0,0,1-.76.57h-.12a.21.21,0,0,1-.12,0l-1.3-.27c-.41-.08-.62-.29-.62-.61a1.29,1.29,0,0,1,.08-.4l5.45-12.81h-6c-.54,0-.81-.25-.81-.74s.27-.74.81-.74h6.65l1.06-2.48a.8.8,0,0,1,.76-.56h.12a.22.22,0,0,1,.12,0l1.31.27c.4.08.61.29.61.61a1.25,1.25,0,0,1-.07.4l-.74,1.74H209c.51,0,.76.21.76.64a.53.53,0,0,1,0,.13l0,.14-3.47,13.9a.74.74,0,0,1-1,.64l-4.94-.81c-.44-.08-.66-.29-.66-.62a.53.53,0,0,1,0-.13,1,1,0,0,1,0-.14l0-.05a.79.79,0,0,1,.76-.59h.11a.2.2,0,0,1,.11,0l2.65.47,3.05-12.13h-6.73Z" class="cls-2"/><path data-cppathid="10014" transform="translate(0 0)" d="M230,305a1.05,1.05,0,0,1,.44-.1.88.88,0,0,1,.66.3l.13.12a.78.78,0,0,1,.27.54c0,.25-.16.44-.47.59l-15.64,7.17a.82.82,0,0,1-.4.1c-.37,0-.56-.24-.56-.71V296.29a.72.72,0,0,1,.81-.81h1.52a.72.72,0,0,1,.81.81V310.7Z" class="cls-2"/><path data-cppathid="10015" transform="translate(0 0)" d="M242.32,300c.28.18.42.37.42.56a.75.75,0,0,1-.35.57l-.29.24a1,1,0,0,1-.59.22,1,1,0,0,1-.54-.17l-6.51-3.95q-.42-.27-.42-.57a.75.75,0,0,1,.35-.56l.29-.25a.92.92,0,0,1,1.13-.05Zm7.93,2.65a1.07,1.07,0,0,1,.56-.17,1,1,0,0,1,.57.19l.32.25a.74.74,0,0,1,.34.56.68.68,0,0,1-.39.57l-14.44,9.09a1.08,1.08,0,0,1-.57.17,1,1,0,0,1-.56-.2l-.32-.24a.74.74,0,0,1-.34-.57.68.68,0,0,1,.39-.56Z" class="cls-2"/><path data-cppathid="10016" transform="translate(0 0)" d="M258.23,305.42a.74.74,0,0,1-.69.47h-.17l-.17,0-1.16-.29c-.37-.1-.56-.31-.56-.62a1,1,0,0,1,.12-.44l5.48-9.67a.74.74,0,0,1,.69-.47h.17l.17,0,1.15.29c.38.1.57.31.57.62a1,1,0,0,1-.12.44l0,.05h10.39c.47,0,.71.18.71.54a1,1,0,0,1-.15.44L265.25,313a.84.84,0,0,1-.73.46h-.15l-.17,0-1.11-.29c-.39-.1-.59-.3-.59-.61a.92.92,0,0,1,.15-.45l3.73-6.46-.05,0-4.69-2.8a.63.63,0,0,1-.41-.56.74.74,0,0,1,.34-.57l.29-.24a.88.88,0,0,1,.62-.25.89.89,0,0,1,.51.17l4.35,2.6,3.88-6.7h-8.37Zm17-9.59a.56.56,0,0,1,0,.2c0,.31-.22.49-.66.52l-.72.08c-.5.06-.82-.1-.93-.48l-1.28-3.9a1.06,1.06,0,0,1,0-.21c0-.31.22-.48.66-.52l.71-.07q.8-.09,1,.48Zm2.71-1.13a1,1,0,0,1,0,.2c0,.29-.21.46-.64.52l-.71.09c-.53.07-.84-.09-1-.48l-1.25-3.64a.36.36,0,0,1,0-.11.37.37,0,0,1,0-.11c0-.27.22-.44.66-.5l.71-.09c.53-.07.85.1,1,.48Z" class="cls-2"/><path data-cppathid="10017" transform="translate(0 0)" d="M295.41,303.63c.54,0,.81.25.81.74s-.27.73-.81.73H278.86c-.54,0-.81-.24-.81-.73s.27-.74.81-.74Z" class="cls-2"/></g><g data-name="Alumni PBI" id="Alumni_PBI"><path data-cppathid="10018" transform="translate(0 0)" d="M403.28,435.16a12.39,12.39,0,0,1-12.39,12.38H12.38A12.38,12.38,0,0,1,0,435.16V373.74a12.38,12.38,0,0,1,12.38-12.38H390.89a12.39,12.39,0,0,1,12.39,12.38Z" class="cls-1"/><path data-cppathid="10019" transform="translate(0 0)" d="M152.68,397.51v.07h8.18c.54,0,.81.25.81.74s-.27.74-.81.74h-19.5c-.54,0-.81-.25-.81-.74s.27-.74.81-.74h8.18v-2.92a.72.72,0,0,1,.81-.81h1.52a.72.72,0,0,1,.81.81Zm0,17.43a.71.71,0,0,1-.81.81h-1.52a.71.71,0,0,1-.81-.81v-2.55h-8.18c-.54,0-.81-.24-.81-.74s.27-.73.81-.73h8.18v-2a.72.72,0,0,1,.81-.81h1.52a.72.72,0,0,1,.81.81v2h8.18c.54,0,.81.24.81.73s-.27.74-.81.74h-8.18Zm-9.2-6.06a.92.92,0,0,1-.74.47l-.15,0-.17,0-1.11-.32c-.37-.13-.56-.34-.56-.62a.89.89,0,0,1,.15-.46l4.91-8.11a.89.89,0,0,1,.73-.46h.15l.17,0,1.11.31c.38.14.56.34.56.62a1.11,1.11,0,0,1-.14.47l-1.57,2.6,0,0,3.24,3a.72.72,0,0,1,.3.54q0,.35-.45.57l-.61.32a.93.93,0,0,1-.49.15.89.89,0,0,1-.64-.3l-2.55-2.38Zm11-1.45a.9.9,0,0,1-.76.44,1,1,0,0,1-.32-.05l-1.06-.32c-.38-.13-.56-.32-.56-.59a.59.59,0,0,1,0-.23l.13-.23,4.37-6.68a.86.86,0,0,1,.76-.44,1.09,1.09,0,0,1,.32.05l1,.31c.38.14.57.33.57.59a.63.63,0,0,1-.05.22,1.15,1.15,0,0,1-.12.25l-1.67,2.55a1,1,0,0,1,.22.2l3.88,4.37a.76.76,0,0,1,.24.52c0,.26-.16.46-.49.59l-.81.34a.92.92,0,0,1-.44.1.83.83,0,0,1-.66-.34l-3.29-3.71Z" class="cls-2"/><path data-cppathid="10020" transform="translate(0 0)" d="M177.24,415.14a.72.72,0,0,1-.81.81h-1.52a.72.72,0,0,1-.81-.81v-2.58l-6.39,2.63a.86.86,0,0,1-.41.1.89.89,0,0,1-.69-.37l-.08-.1a.87.87,0,0,1-.22-.51c0-.27.17-.46.49-.59l4.67-1.92h-5.55c-.54,0-.81-.24-.81-.74s.27-.73.81-.73h8.18v-1.25h-7.22c-.54,0-.81-.25-.81-.74s.27-.74.81-.74h7.22v-1.13h-7.93c-.54,0-.81-.24-.81-.73s.27-.74.81-.74h4l-.59-3.61a1.09,1.09,0,0,1,0-.22h-3.66c-.54,0-.81-.25-.81-.74s.27-.74.81-.74h5.72v-4.83a.72.72,0,0,1,.81-.81h1.53a.72.72,0,0,1,.81.81v4.83h1.89v-4.83a.72.72,0,0,1,.81-.81H179a.72.72,0,0,1,.81.81v4.83h5.92c.54,0,.81.25.81.74s-.27.74-.81.74h-3.93v0a1.69,1.69,0,0,1,0,.25L180.9,405h4.15c.54,0,.81.25.81.74s-.27.73-.81.73h-7.81v1.13h7.2c.54,0,.81.25.81.74s-.27.74-.81.74h-7.2v1.25h8.18c.54,0,.81.24.81.73s-.27.74-.81.74h-5.75l5,1.94c.36.15.54.34.54.59a.74.74,0,0,1-.2.44l-.12.15a.89.89,0,0,1-.71.37,1.29,1.29,0,0,1-.4-.08l-6.53-2.57Zm-7-17a.78.78,0,0,1,0,.24c0,.4-.23.62-.69.67l-1.48.14a.76.76,0,0,1-.93-.66l-.69-3.14a.51.51,0,0,1,0-.13v-.12c0-.39.24-.61.71-.66l1.48-.15a.77.77,0,0,1,.93.69Zm3,6.63a1.09,1.09,0,0,1,0,.22h4.55v0a.86.86,0,0,1,0-.24l.84-3.56h-6Zm11.34-6.26a.75.75,0,0,1-.91.68l-1.47-.14a.69.69,0,0,1-.69-.91l.59-2.9a.76.76,0,0,1,.91-.69l1.48.15c.55.05.78.35.68.91Z" class="cls-2"/><path data-cppathid="10021" transform="translate(0 0)" d="M192.07,405.49a.79.79,0,0,1-.76.54h-.12l-.12,0-1.23-.25c-.41-.1-.62-.32-.62-.66a.91.91,0,0,1,.08-.37l4.3-9.38a.79.79,0,0,1,.76-.54h.12l.12,0,1.23.25c.41.1.62.3.62.61a1,1,0,0,1-.1.42L195,399h4.35v-4.32a.72.72,0,0,1,.81-.81h1.52a.72.72,0,0,1,.81.81V399h6.68c.54,0,.81.25.81.74s-.27.73-.81.73h-6.68v6.17h5.7c.54,0,.81.24.81.74s-.27.73-.81.73h-5.7v5.33h7.42c.54,0,.81.25.81.74s-.27.73-.81.73h-19.5c-.54,0-.81-.24-.81-.73s.27-.74.81-.74h8.94v-5.33h-6.58c-.54,0-.81-.24-.81-.73s.27-.74.81-.74h6.58V400.5h-5Z" class="cls-2"/><path data-cppathid="10022" transform="translate(0 0)" d="M222.82,398.57c.54,0,.81.24.81.73s-.27.74-.81.74h-7.49c-.54,0-.81-.25-.81-.74s.27-.73.81-.73Zm.64,15.93a.72.72,0,0,1-.81.81h-1.53a.73.73,0,0,1-.71-.37h-2.55a.71.71,0,0,1-.81.69h-1.52a.72.72,0,0,1-.81-.81v-5.25a.72.72,0,0,1,.81-.81h1.52a.74.74,0,0,1,.69.32h4.91a.72.72,0,0,1,.81.81Zm-1-12.33c.54,0,.81.25.81.74s-.27.74-.81.74h-6.78c-.54,0-.81-.25-.81-.74s.27-.74.81-.74Zm-.07,3.69c.54,0,.81.24.81.74s-.27.73-.81.73H215.8c-.54,0-.81-.24-.81-.73s.27-.74.81-.74Zm-.47-9.65c.34.14.52.34.52.59a.77.77,0,0,1-.2.46l-.12.15a.92.92,0,0,1-.69.37.87.87,0,0,1-.42-.1l-4.69-1.94c-.34-.15-.51-.34-.51-.59a.77.77,0,0,1,.19-.47l.12-.14a.92.92,0,0,1,.69-.37.87.87,0,0,1,.42.1Zm-1.6,14.34h-2.45v2.92h2.45Zm12.26,1.4a.72.72,0,0,1,.81-.81h1.52a.72.72,0,0,1,.81.81v2.18a.72.72,0,0,1-.81.81h-9.23a.72.72,0,0,1-.81-.81V404a.72.72,0,0,1,.81-.81h1.52a.73.73,0,0,1,.69.32h3.83V397h-7.29c-.55,0-.81-.25-.81-.74s.26-.74.81-.74H234a.72.72,0,0,1,.81.81v8.11a.72.72,0,0,1-.81.81h-1.52a.73.73,0,0,1-.64-.27H228v8.47h4.57Z" class="cls-2"/><path data-cppathid="10023" transform="translate(0 0)" d="M247.06,412.66a.81.81,0,0,1,.81.34.92.92,0,0,1,.12-.27l2-3.21a.86.86,0,0,1,.76-.44,1.45,1.45,0,0,1,.32,0l1,.32c.38.14.57.33.57.59a.63.63,0,0,1,0,.22,1.15,1.15,0,0,1-.12.25l-2,3.22a.9.9,0,0,1-.76.44,1.57,1.57,0,0,1-.32-.05l-1.06-.32a1,1,0,0,1-.39-.2c0,.32-.26.49-.69.54l-6.41.74a.79.79,0,0,1-.93-.66.59.59,0,0,1,0-.2c0-.34.23-.55.71-.64l1.77-.19v-5.6H240.5c-.54,0-.81-.25-.81-.74s.27-.74.81-.74h1.92v-2.57a1,1,0,0,1,.07-.42h-.39a.82.82,0,0,1-.62-.22l-.37.71a.84.84,0,0,1-.76.52l-.27-.05-1.2-.3c-.38-.1-.57-.3-.57-.61a1,1,0,0,1,.1-.42l4.3-8.45a.83.83,0,0,1,.76-.51,1,1,0,0,1,.27.05l1.21.29c.37.1.56.3.56.61v0a1.51,1.51,0,0,1,.32.34l3.41,5.65a.89.89,0,0,1,.15.47c0,.31-.19.51-.57.61l-1.1.32a.78.78,0,0,1,0,.22c0,.49-.27.74-.81.74h-1.47a.77.77,0,0,1,.1.42v2.57h1.89c.54,0,.81.25.81.74s-.27.74-.81.74h-1.89v5.25Zm-4.94-.64c0,.53-.19.81-.56.84l-1.08.05c-.38,0-.58-.22-.59-.76l-.13-3c0-.53.15-.8.54-.84l1.08,0c.38,0,.58.22.59.76Zm0-10.39h4.49l-2.45-4Zm5.94,10.15c-.08.52-.28.76-.61.71l-1-.12c-.41-.05-.58-.36-.49-.91l.29-2.53c.08-.53.29-.76.61-.71l1,.12c.39.05.55.35.47.91Zm4.23-4.79a1,1,0,0,1,.12.44c0,.31-.19.52-.56.61l-1.16.3-.15,0h-.14a.84.84,0,0,1-.74-.49l-1.45-2.58a1,1,0,0,1-.12-.44c0-.31.19-.52.56-.62l1.16-.29.14,0h.15a.82.82,0,0,1,.74.49Zm-1,8.2c-.49-.05-.74-.25-.74-.61a.88.88,0,0,1,.26-.68.82.82,0,0,1,.68-.18l1.2.12V403.5H249c-.54,0-.81-.24-.81-.74s.27-.73.81-.73h7.12v-2.19h-6.6c-.54,0-.81-.24-.81-.73s.27-.74.81-.74h6.6v-2.19h-7c-.54,0-.81-.24-.81-.73s.27-.74.81-.74h9.36a.72.72,0,0,1,.81.81V402h.05c.54,0,.81.24.81.73s-.27.74-.81.74h-3.42V407l1.35-2.31a.88.88,0,0,1,.74-.47l.15,0,.17,0,1.1.3c.38.1.57.29.57.59a1,1,0,0,1-.15.46l-1.89,3.22a.87.87,0,0,1-.74.47l-.14,0-.17,0-.69-.17,3.61,3.88a.75.75,0,0,1,.24.54c0,.24-.16.44-.49.58l-.76.32a.87.87,0,0,1-.42.1,1,1,0,0,1-.68-.34l-1.8-1.94v2.58c0,.55-.28.81-.86.76Z" class="cls-2"/></g><g data-name="Scholarship PBI" id="Scholarship_PBI"><path data-cppathid="10024" transform="translate(0 0)" d="M403.28,538.71a12.39,12.39,0,0,1-12.39,12.38H12.38A12.38,12.38,0,0,1,0,538.71V477.28a12.37,12.37,0,0,1,12.38-12.37H390.89a12.38,12.38,0,0,1,12.39,12.37Z" class="cls-1"/><path data-cppathid="10025" transform="translate(0 0)" d="M141.76,518.71a1.29,1.29,0,0,1-.4.08.86.86,0,0,1-.71-.44l0-.05a1,1,0,0,1-.15-.47c0-.28.19-.48.56-.61a23.11,23.11,0,0,0,6.54-3.05h-6.19c-.54,0-.81-.24-.81-.74s.27-.73.81-.73h7.54a3.29,3.29,0,0,0,.34-.84.84.84,0,0,1,.86-.73h1.52a2.56,2.56,0,0,1,.42,0,.57.57,0,0,1-.1-.34.71.71,0,0,1,.86-.81l4,.17v-3.61h-8.38c-.54,0-.81-.25-.81-.74s.27-.74.81-.74h8.38a.72.72,0,0,1,.81-.71h1.52a.85.85,0,0,1,.6.2.66.66,0,0,1,.21.51h1.18c.54,0,.81.25.81.74s-.27.74-.81.74H160V511a.83.83,0,0,1-.22.62.73.73,0,0,1-.61.19l-6.44-.29-.24,0v0a3.85,3.85,0,0,1-.37,1.23h8.77c.54,0,.81.24.81.73s-.27.74-.81.74h-8l8.4,3.05c.36.13.54.32.54.59a.67.67,0,0,1-.17.44l-.1.15a.86.86,0,0,1-.69.39.48.48,0,0,1-.2,0l-.22-.06-10.41-3.78A29.37,29.37,0,0,1,141.76,518.71Zm5.13-8.12a.72.72,0,0,1-.81.81h-1.52a.72.72,0,0,1-.82-.81v-1.72l-1.52.71a1.05,1.05,0,0,1-.44.1.88.88,0,0,1-.66-.3l-.13-.12a.78.78,0,0,1-.27-.54c0-.25.16-.44.47-.59l2.53-1.18h0v-4l-2.43-1.42c-.27-.18-.41-.37-.41-.57a.79.79,0,0,1,.34-.56l.25-.2a1,1,0,0,1,.63-.24,1.05,1.05,0,0,1,.5.14l1.12.67V499a.72.72,0,0,1,.82-.81h1.52a.72.72,0,0,1,.81.81Zm2.26-10.27a.78.78,0,0,1-.89-.83c0-.4.25-.62.74-.67l11.12-.83a.8.8,0,0,1,.67.19.93.93,0,0,1,.24.67c0,.37-.24.59-.73.64Zm2.87,2.85a1.6,1.6,0,0,1,0,.27q0,.62-.69.69l-1.37.17a.8.8,0,0,1-1-.61l-.61-2.14a.83.83,0,0,1,0-.15.76.76,0,0,1,0-.15q0-.58.66-.66l1.4-.17a.8.8,0,0,1,1,.61Zm2.14,5.11c.32.14.49.34.49.59a.71.71,0,0,1-.25.49l-.17.17a.92.92,0,0,1-.66.3,1,1,0,0,1-.44-.1l-3-1.4c-.33-.15-.49-.35-.49-.59a.67.67,0,0,1,.25-.49l.17-.18a.94.94,0,0,1,1.1-.19Zm1.72-5.26a1.69,1.69,0,0,1,0,.25q0,.62-.69.69l-1.42.17a.79.79,0,0,1-.93-.67l-.5-2a.77.77,0,0,1,0-.15v-.12c0-.4.22-.62.66-.67l1.43-.17a.79.79,0,0,1,.93.66Zm3.9.27a.8.8,0,0,1-1,.62l-1.4-.22c-.44-.05-.66-.27-.66-.67a1.58,1.58,0,0,1,.05-.29l.66-2.24a.8.8,0,0,1,1-.61l1.4.22q.66.07.66.66a1,1,0,0,1-.05.3Z" class="cls-2"/><path data-cppathid="10026" transform="translate(0 0)" d="M171.4,518.67c-.43-.1-.64-.31-.64-.62a.62.62,0,0,1,.07-.29l0,0a.75.75,0,0,1,.73-.54l.27,0,2,.42v-4.15h-7.74c-.54,0-.81-.25-.81-.74s.27-.73.81-.73h7.74v-.1a1.41,1.41,0,0,1,.41-1l3.29-3.09h-7.24c-.54,0-.81-.25-.81-.74s.27-.74.81-.74H181c.46,0,.69.16.69.47a.83.83,0,0,1-.3.54L177,511.45V512h8.18c.54,0,.81.24.81.73s-.27.74-.81.74H177v5.45c0,.51-.22.76-.66.76l-.22,0Zm-5.75-15.38a.72.72,0,0,1,.81-.81h1.06l-1-3.14a.83.83,0,0,1,0-.15.76.76,0,0,1,0-.15q0-.59.66-.66l1.4-.2a.78.78,0,0,1,1,.59l1,3.42a1,1,0,0,1,0,.14.76.76,0,0,1,0,.15,1,1,0,0,1,0,.2h3.78l-.94-3.41,0-.15a.76.76,0,0,1,0-.15q0-.59.66-.66l1.42-.17a.76.76,0,0,1,1,.63l1,3.47c0,.05,0,.09,0,.14s0,.1,0,.15a.4.4,0,0,1,0,.15h2.9v-.12a1.61,1.61,0,0,1,.07-.4l1.43-3.48a.78.78,0,0,1,1-.57l1.3.25c.41.08.62.28.62.61a1.23,1.23,0,0,1-.08.39l-1.35,3.32H186c.51,0,.76.21.76.64a.53.53,0,0,1,0,.13,1,1,0,0,1,0,.14l-.74,2.94a.79.79,0,0,1-.93.67l-1.42-.17q-.69-.07-.69-.69a1.69,1.69,0,0,1,0-.25l.49-1.94H168.79v2.14a.72.72,0,0,1-.81.81h-1.52a.72.72,0,0,1-.81-.81Z" class="cls-2"/><path data-cppathid="10027" transform="translate(0 0)" d="M199.24,497.47a.86.86,0,0,1,.62-.27,1.23,1.23,0,0,1,.49.13l.66.31c.3.15.44.32.44.52a2.2,2.2,0,0,1,.25.17l9,7.88a.74.74,0,0,1,.29.54.73.73,0,0,1-.41.59l-.59.32a1,1,0,0,1-.52.15,1,1,0,0,1-.61-.27l-8.8-7.71-8.2,7.69a.84.84,0,0,1-.61.27,1.19,1.19,0,0,1-.49-.13l-.67-.32a.64.64,0,0,1-.44-.56.84.84,0,0,1,.3-.57Zm2.21,19.21a.9.9,0,0,1,0,.34h6.1c.54,0,.81.25.81.74s-.27.73-.81.73H192.27c-.54,0-.81-.24-.81-.73s.27-.74.81-.74h6.09a1.16,1.16,0,0,1-.05-.34v-5.55h-6.6c-.55,0-.82-.25-.82-.74s.27-.74.82-.74h6.6v-2.58a1.21,1.21,0,0,1,.07-.41H195c-.54,0-.81-.25-.81-.74s.27-.74.81-.74h9.68c.54,0,.81.25.81.74s-.27.74-.81.74h-3.36a.86.86,0,0,1,.09.41v2.58h6.61c.54,0,.81.25.81.74s-.27.74-.81.74h-6.61ZM197,515.4a1.57,1.57,0,0,1,0,.32c0,.38-.22.59-.66.64l-1.38.19-.1,0h-.09A.75.75,0,0,1,194,516l-1-3a1.48,1.48,0,0,1-.05-.32c0-.37.22-.59.67-.63l1.37-.2h.11l.09,0a.75.75,0,0,1,.76.62Zm9.33.52a.77.77,0,0,1-1,.61l-1.37-.22c-.44,0-.66-.26-.66-.64a1.09,1.09,0,0,1,0-.32l1-3.09a.77.77,0,0,1,1-.62l1.38.22c.44.05.66.26.66.64a1.57,1.57,0,0,1,0,.32Z" class="cls-2"/><path data-cppathid="10028" transform="translate(0 0)" d="M215.65,518.81c-.48-.08-.71-.28-.71-.61a.65.65,0,0,1,0-.22q.19-.76.66-.69l.49.07v-3.68l-.09.07a1,1,0,0,1-.57.2,1.12,1.12,0,0,1-.56-.2l-.4-.27a.72.72,0,0,1-.36-.56.71.71,0,0,1,.36-.57l1.62-1.13v-6.16h-1.3c-.54,0-.81-.24-.81-.74s.27-.73.81-.73h1.3v-5.31a.72.72,0,0,1,.82-.81h1.52a.72.72,0,0,1,.81.81v5.31h1c.54,0,.81.24.81.73s-.27.74-.81.74h-1v4a.89.89,0,0,1,.51-.17.84.84,0,0,1,.57.2l.39.27a.67.67,0,0,1,.37.56.73.73,0,0,1-.37.57l-1.47,1v6.85c0,.59-.29.84-.86.76Zm6.58-18.56a1,1,0,0,1-.66-.19.76.76,0,0,1-.27-.65c0-.37.24-.59.73-.64l12.18-1a.89.89,0,0,1,.68.17.84.84,0,0,1,.26.67c0,.37-.25.59-.74.64Zm2.48,7.36a.71.71,0,0,1-.81.81h-1.52a.71.71,0,0,1-.81-.81v-2.23a.72.72,0,0,1,.81-.81H223l-.66-2.68a.78.78,0,0,1,0-.24q0-.61.69-.69l1.42-.17a.79.79,0,0,1,.94.66l.66,2.7a.9.9,0,0,1,0,.25.78.78,0,0,1,0,.22h.71a1.42,1.42,0,0,1-.07-.22l-.57-2.9a1,1,0,0,1,0-.2c0-.42.25-.66.74-.71l1.47-.15a.76.76,0,0,1,.91.69l.54,2.9a1.09,1.09,0,0,1,0,.22.7.7,0,0,1-.09.37H230v-.08a.78.78,0,0,1,0-.14,1.22,1.22,0,0,1,0-.17l1.06-3.39a.78.78,0,0,1,1-.62l1.4.22c.42.05.64.27.64.64v.15a.41.41,0,0,1-.05.17l-1,3.22h1.35c.59,0,.84.29.76.86l-.29,2.09a.77.77,0,0,1-.89.71l-1.47-.1c-.57,0-.82-.33-.74-.88l.17-1.21h-7.24Zm-1.4,11.13-.15,0H223a.74.74,0,0,1-.72-.59,1.55,1.55,0,0,1,0-.17.77.77,0,0,1,0-.15c0-.31.2-.52.59-.64a14.48,14.48,0,0,0,2.12-.92,11.37,11.37,0,0,0,2.28-1.58l-3.09-2.12a.72.72,0,0,1-.4-.58.66.66,0,0,1,.37-.54l.39-.28a1,1,0,0,1,.57-.19.79.79,0,0,1,.56.19l3,2.07a7.29,7.29,0,0,0,.86-1.41,5.36,5.36,0,0,0,.44-1.59h-6.31c-.54,0-.81-.24-.81-.74s.27-.73.81-.73h8.67a.76.76,0,0,1,.62.26,1,1,0,0,1,.21.77,5.57,5.57,0,0,1-.77,2.55,9.73,9.73,0,0,1-1.76,2.21l3.79,2.58a.75.75,0,0,1,.39.59.72.72,0,0,1-.37.54l-.39.27a.84.84,0,0,1-.57.2,1,1,0,0,1-.56-.2L229,515.94a19.1,19.1,0,0,1-3,1.78A16.79,16.79,0,0,1,223.31,518.74Z" class="cls-2"/><path data-cppathid="10029" transform="translate(0 0)" d="M245,517c-.42-.1-.64-.3-.64-.59a.69.69,0,0,1,.08-.32l0,0a.83.83,0,0,1,.79-.54h.12l.12,0,6.56,1.45,1-4.32H239.42c-.54,0-.81-.25-.81-.74s.27-.73.81-.73h14l.62-2.68h-9.68c-.57,0-.83-.28-.79-.84l.84-9.28a.71.71,0,0,1,.86-.73l1.52.07a.7.7,0,0,1,.76.86l-.29,3.14h10.48c.54,0,.81.25.81.74s-.27.74-.81.74H247.15l-.34,3.83h9.82c.49,0,.74.21.74.63a1.69,1.69,0,0,1,0,.25l-.77,3.27h3.25c.54,0,.81.24.81.73s-.27.74-.81.74h-3.59l-1.33,5.7a.7.7,0,0,1-.71.64h-.12a.21.21,0,0,1-.12,0Z" class="cls-2"/></g><g id="heading"><g id="underline"><path data-cppathid="10030" transform="translate(0 0)" d="M336.12,43.43,325,43.11c-1.08,0-2.16,0-3.24,0a20.14,20.14,0,0,1-2.93-.09,42.14,42.14,0,0,0-5.84-.25c-4.4-.08-8.8-.23-13.21-.3-2.24,0-4.47-.32-6.73-.15-3.48-.39-7.05.06-10.54-.36a15.69,15.69,0,0,0-3.21,0,27.58,27.58,0,0,1-3.52,0c-1.84-.07-3.7-.06-5.55-.13a118,118,0,0,0-12.62.08,5.17,5.17,0,0,1-.88,0c-3.81-.37-7.65-.13-11.47-.18-.88,0-1.78,0-2.65-.06a40.22,40.22,0,0,0-7.28.12,63.41,63.41,0,0,1-7,0c-2.16,0-4.32,0-6.47,0-1.67,0-3.34.06-5,0-3.93-.12-7.85,0-11.76.15a12.92,12.92,0,0,1-1.76,0c-4.7-.34-9.41-.16-14.12-.11-1.67,0-3.34,0-5,0l-7,.15a20.45,20.45,0,0,1-2.34.05,33.18,33.18,0,0,0-5.55,0,15.51,15.51,0,0,1-2.64,0c-1.44-.16-2.91-.18-4.35-.29a63.09,63.09,0,0,0-6.74,0c-3.52.09-7.06.06-10.6.08h-8.24c-1.57,0-3.15,0-4.71,0a31,31,0,0,0-4.09.14,15.66,15.66,0,0,1-3.21,0,23.62,23.62,0,0,0-4.68,0,18.64,18.64,0,0,1-4.09,0,19.64,19.64,0,0,0-2-.09c-1,0-2,0-2.94,0-3.63-.15-7.26-.08-10.89,0-.49,0-1,0-1.46,0-4.81-.09-9.6-.2-14.41.06-1.74.09-3.52-.12-5.29-.11-3.23,0-6.47.11-9.71.1-2.74,0-5.49-.09-8.23-.18-2-.07-4.1-.14-6.16,0a28.66,28.66,0,0,1-5.56-.16,19.23,19.23,0,0,0-4.09-.13c-.48,0-1,0-1.47,0a3.72,3.72,0,0,1-3-1c-.54-.57-.21-1.58.71-2a4.32,4.32,0,0,1,1.59-.33c1.66,0,3.33,0,5,0,1.47,0,2.92.18,4.39.19,4,0,8,0,12.07,0,1.18,0,2.36,0,3.54,0a13.77,13.77,0,0,0,2,0,11,11,0,0,1,3.19-.06,5.14,5.14,0,0,0,1.17.06c3.47-.44,7,.27,10.51-.2a38,38,0,0,1,4.41,0c2,0,3.93,0,5.89,0,2.83-.05,5.67-.15,8.5,0A16.71,16.71,0,0,0,106,38a74.9,74.9,0,0,1,7.93-.12,39.09,39.09,0,0,0,5,0c.48-.05,1,0,1.47-.05,2.94-.07,5.87-.15,8.81-.2,1.07,0,2.14,0,3.22.07a11.59,11.59,0,0,0,1.75.07,35.46,35.46,0,0,1,5.83,0,12,12,0,0,0,1.47,0c4.28-.4,8.62-.13,12.92-.26,1.47-.05,2.94-.09,4.41-.11,2.24,0,4.49-.06,6.72,0,1.57,0,3.1,0,4.67-.07,1.34-.08,2.73,0,4.1,0,.87,0,1.76.11,2.62.07a67.58,67.58,0,0,1,10.26,0,5.78,5.78,0,0,0,1.17-.06,23.61,23.61,0,0,1,4.68,0,17.67,17.67,0,0,0,2.91,0,36.34,36.34,0,0,1,7.3,0,7.89,7.89,0,0,0,1.74.1c2.42-.23,4.87.05,7.28-.14a6.47,6.47,0,0,1,.88,0c5.48.36,11,.12,16.48.22,3.43,0,6.87,0,10.3,0,1,0,1.95.1,2.93.12.68,0,1.36,0,2,0a6.74,6.74,0,0,1,1.15-.09,38,38,0,0,0,6.13.14,87.46,87.46,0,0,1,9,.37,5.18,5.18,0,0,0,.88,0c2.84-.21,5.68.06,8.52,0,1.07,0,2.15.08,3.22.14a7.83,7.83,0,0,0,1.15.11c2.55-.29,5.06.13,7.6.12h.59a92.24,92.24,0,0,1,10.8.5A20.25,20.25,0,0,0,296,39c4-.07,8,.26,12,.42,1.16.05,2.28.31,3.44.37s2.14-.06,3.19,0q9.36.54,18.71,1.14c3.22.21,6.4.53,9.65.59a24.64,24.64,0,0,1,3.44.39,5.68,5.68,0,0,1,1.44.49c.42.19.21.71-.31.78a14.86,14.86,0,0,1-2,.16c-3.15,0-6.29,0-9.43,0Z" class="cls-2"/></g><path data-cppathid="10031" transform="translate(0 0)" d="M63.52,30.1a1.12,1.12,0,0,1-1,.61,1.91,1.91,0,0,1-.42-.06l-1.37-.42c-.5-.17-.74-.44-.74-.8a1.16,1.16,0,0,1,.19-.58L71.65,10.49H52.06q-1.05,0-1.05-1t1.05-1H75.45c.6,0,.9.22.9.67a1.32,1.32,0,0,1-.19.61Zm11-20.18a6.59,6.59,0,0,1-2.76-.57,4.9,4.9,0,0,1-2-1.52,3.42,3.42,0,0,1-.73-2.16,3.46,3.46,0,0,1,.73-2.16A5,5,0,0,1,71.8,2a7.23,7.23,0,0,1,5.53,0,5,5,0,0,1,2,1.51A3.51,3.51,0,0,1,80,5.67a3.47,3.47,0,0,1-.72,2.16,4.94,4.94,0,0,1-2,1.52A6.53,6.53,0,0,1,74.56,9.92ZM74.47,8.5a1.9,1.9,0,0,0,1.13-.4,3.15,3.15,0,0,0,.92-1,2.7,2.7,0,0,0,.37-1.38,2.8,2.8,0,0,0-.36-1.39,2.94,2.94,0,0,0-.91-1,1.94,1.94,0,0,0-1.15-.39,2,2,0,0,0-1.13.39,3,3,0,0,0-.93,1,2.9,2.9,0,0,0-.35,1.39,2.7,2.7,0,0,0,.37,1.38,3,3,0,0,0,.92,1A1.87,1.87,0,0,0,74.47,8.5Z" class="cls-2"/><path data-cppathid="10032" transform="translate(0 0)" d="M107.39,29.27a.94.94,0,0,1-1.06,1.06h-2a.92.92,0,0,1-1-.68H87.07a.92.92,0,0,1-1,.68h-2a.94.94,0,0,1-1-1.06V9.81a.93.93,0,0,1,1-1.05h2a1.36,1.36,0,0,1,.29,0h20a.93.93,0,0,1,1.06,1.06Zm-4.1-18.56H87.13v17h16.16Z" class="cls-2"/><path data-cppathid="10033" transform="translate(0 0)" d="M117,20.18a1,1,0,0,1-.9.61.75.75,0,0,1-.22,0l-.23,0-1.5-.39c-.49-.13-.74-.39-.74-.8a1.37,1.37,0,0,1,.16-.57l7.14-12.61a1,1,0,0,1,.9-.61.75.75,0,0,1,.22,0l.22,0,1.51.39c.49.13.73.39.73.8a1.24,1.24,0,0,1-.16.57l0,.07H137.6c.62,0,.93.23.93.7a1.33,1.33,0,0,1-.2.58L126.11,30.1a1.12,1.12,0,0,1-1,.61l-.19,0-.23,0-1.44-.39c-.51-.13-.76-.39-.76-.8a1.1,1.1,0,0,1,.19-.57l4.86-8.42-.06,0-6.12-3.65a.85.85,0,0,1-.54-.74,1,1,0,0,1,.45-.73l.38-.32a1.16,1.16,0,0,1,1.48-.1l5.66,3.39,5-8.73H123ZM139.1,7.68a1,1,0,0,1,0,.27c0,.4-.28.63-.86.67l-.93.1c-.66.08-1.07-.13-1.21-.63L134.46,3a.88.88,0,0,1,0-.26c0-.41.29-.63.86-.68l.93-.1c.68-.08,1.1.13,1.25.63Zm3.52-1.48a1,1,0,0,1,0,.27c0,.37-.27.6-.83.68l-.93.12c-.68.08-1.1-.13-1.24-.63L138,1.9a.83.83,0,0,1,0-.15.32.32,0,0,1,0-.14c0-.36.29-.57.86-.65l.93-.13c.68-.08,1.1.13,1.25.63Z" class="cls-2"/><path data-cppathid="10034" transform="translate(0 0)" d="M146.68,19.8a1.09,1.09,0,0,1-.92.57,1.45,1.45,0,0,1-.48-.09L144,19.86c-.5-.17-.74-.44-.74-.8a1.09,1.09,0,0,1,.22-.61l7.43-11.23a1.09,1.09,0,0,1,.92-.57,1.21,1.21,0,0,1,.48.09l1.32.42c.49.17.73.44.73.8a1.2,1.2,0,0,1-.22.61l-.13.19h14.75c.6,0,.9.22.9.67a1.32,1.32,0,0,1-.19.61l-12.8,20.57a1.12,1.12,0,0,1-1,.61,1.91,1.91,0,0,1-.42-.06l-1.38-.42c-.49-.17-.73-.44-.73-.8a1.1,1.1,0,0,1,.19-.57l11.58-18.69H152.7Z" class="cls-2"/><path data-cppathid="10035" transform="translate(0 0)" d="M181.08,30.29A.93.93,0,0,1,180,31.35h-2a.93.93,0,0,1-1-1.06V8.05A.93.93,0,0,1,178,7h2a.93.93,0,0,1,1.05,1.05v9.09l11.59,3.75c.49.17.73.42.73.76a1,1,0,0,1-.19.55l-.13.16a1.05,1.05,0,0,1-.92.54H192l-.24-.05-10.63-3.43Z" class="cls-2"/><path data-cppathid="10036" transform="translate(0 0)" d="M201.88,28.92a1,1,0,0,1-1.21.8l-1.86-.23c-.59-.06-.89-.36-.89-.89a1.78,1.78,0,0,1,.06-.35l5.41-18.79a1,1,0,0,1,1.21-.8l1.86.23c.6.06.9.36.9.89a1.38,1.38,0,0,1-.07.35Zm21.22-.74a1.8,1.8,0,0,1,.05.19,1.34,1.34,0,0,1,0,.2c0,.51-.28.8-.86.86l-1.89.22a1,1,0,0,1-1.21-.8L213.88,10a1.62,1.62,0,0,1,0-.19,1.36,1.36,0,0,1,0-.2c0-.51.29-.8.86-.86l1.89-.22a1,1,0,0,1,1.22.83Zm-1.18-17.65a1.12,1.12,0,0,1,0,.29c0,.44-.29.69-.87.74l-.92.11c-.66.08-1.07-.15-1.22-.69l-1.66-5.56a1.06,1.06,0,0,1,0-.29c0-.44.29-.69.87-.74l.93-.1c.68-.09,1.09.14,1.24.68Zm3.52-1.62a1.21,1.21,0,0,1,0,.3c0,.4-.28.65-.83.74l-.93.13c-.68.09-1.1-.14-1.25-.69l-1.63-5.18a1.42,1.42,0,0,1-.05-.16,1,1,0,0,1,0-.16q0-.59.87-.72l.93-.13c.68-.09,1.09.14,1.24.69Z" class="cls-2"/><path data-cppathid="10037" transform="translate(0 0)" d="M232.83,20.57a1.56,1.56,0,0,1,0,.35c0,.51-.29.8-.86.86l-1.86.23a1.07,1.07,0,0,1-1.25-.87l-1.21-4.93a.41.41,0,0,1,0-.19v-.16c0-.51.29-.8.87-.86l1.85-.23a1,1,0,0,1,1.22.87Zm5.25-.8a.85.85,0,0,1,0,.25q0,.84-1,.93l-1.92.16a1,1,0,0,1-1.19-.93l-.86-4.93a.85.85,0,0,1,0-.25q0-.84,1-.93l1.92-.16a1,1,0,0,1,1.18.93Zm1.69,10.52a1.06,1.06,0,0,1-1,.71h-.16a.35.35,0,0,1-.16,0l-1.63-.39c-.52-.13-.77-.39-.77-.8a1.13,1.13,0,0,1,.13-.54l6.46-13.35a1.05,1.05,0,0,1,1-.7h.16a.35.35,0,0,1,.16,0l1.64.39c.51.12.76.39.76.8a1.25,1.25,0,0,1-.12.54Z" class="cls-2"/><path data-cppathid="10038" transform="translate(0 0)" d="M254.14,19.8a1.12,1.12,0,0,1-.93.57,1.45,1.45,0,0,1-.48-.09l-1.31-.42c-.49-.17-.74-.44-.74-.8a1.11,1.11,0,0,1,.23-.61l7.42-11.23a1.12,1.12,0,0,1,.93-.57,1.28,1.28,0,0,1,.48.09l1.31.42c.49.17.74.44.74.8a1.22,1.22,0,0,1-.23.61l-.12.19h14.75c.59,0,.89.22.89.67a1.32,1.32,0,0,1-.19.61l-12.8,20.57a1.1,1.1,0,0,1-1,.61,1.91,1.91,0,0,1-.41-.06l-1.38-.42c-.49-.17-.74-.44-.74-.8a1.12,1.12,0,0,1,.2-.57l11.58-18.69H260.16Z" class="cls-2"/><path data-cppathid="10039" transform="translate(0 0)" d="M307.58,29.27a.94.94,0,0,1-1.06,1.06h-2a.92.92,0,0,1-1-.68H287.26a.92.92,0,0,1-1,.68h-2a.94.94,0,0,1-1-1.06V9.81a.93.93,0,0,1,1-1.05h2a1.36,1.36,0,0,1,.29,0h20a.93.93,0,0,1,1.06,1.06Zm-4.1-18.56H287.32v17h16.16Z" class="cls-2"/><path data-cppathid="10040" transform="translate(0 0)" d="M317,19.8a1.12,1.12,0,0,1-.93.57,1.45,1.45,0,0,1-.48-.09l-1.31-.42c-.49-.17-.74-.44-.74-.8a1.11,1.11,0,0,1,.23-.61l7.42-11.23a1.11,1.11,0,0,1,.93-.57,1.28,1.28,0,0,1,.48.09l1.31.42c.49.17.74.44.74.8a1.22,1.22,0,0,1-.23.61l-.13.19H339c.59,0,.89.22.89.67a1.32,1.32,0,0,1-.19.61l-12.8,20.57a1.12,1.12,0,0,1-1,.61,1.91,1.91,0,0,1-.42-.06l-1.37-.42c-.49-.17-.74-.44-.74-.8a1.2,1.2,0,0,1,.19-.57l11.59-18.69H323ZM339.87,9.08a1.56,1.56,0,0,1,0,.35.84.84,0,0,1-.86.9l-.93.12a1,1,0,0,1-1.22-.83L335.23,2.9a1.56,1.56,0,0,1,0-.35.84.84,0,0,1,.86-.9l.93-.12a1,1,0,0,1,1.25.83Zm3.52-1.95a1.56,1.56,0,0,1,0,.35.86.86,0,0,1-.83.89l-.93.16a1,1,0,0,1-1.25-.83l-1.63-6.27a1.33,1.33,0,0,1,0-.19,1.28,1.28,0,0,1,0-.19c0-.47.28-.76.86-.87l.93-.16a1,1,0,0,1,1.25.83Z" class="cls-2"/></g><g data-name="another PBI" id="another_PBI"><path data-cppathid="10041" transform="translate(0 0)" d="M360.71,629.5a9.85,9.85,0,0,1-9.86,9.85H49.6a9.85,9.85,0,0,1-9.85-9.85V580.61a9.85,9.85,0,0,1,9.85-9.85H350.85a9.85,9.85,0,0,1,9.86,9.85Z" class="cls-3"/><g class="cls-4"><path data-cppathid="10042" transform="translate(0 0)" d="M170.32,613a.65.65,0,0,1-.8.45l-1.05-.2q-.51-.09-.51-.51a.72.72,0,0,1,.06-.29l2.6-6.84a.67.67,0,0,1-.37.1H169a.57.57,0,0,1-.64-.65v-7.21a.57.57,0,0,1,.64-.65h1.22a.67.67,0,0,1,.46.16h5.56a.57.57,0,0,1,.64.65v7a.57.57,0,0,1-.64.65h-1.22a.56.56,0,0,1-.5-.22h-1.41a.89.89,0,0,1-.06.3l-.53,1.4h3.64c.39,0,.58.17.58.49a.49.49,0,0,1,0,.12.27.27,0,0,1,0,.12l-1.48,5.29a.58.58,0,0,1-.61.49h-.08l-.09,0-2.33-.45c-.34-.06-.51-.23-.51-.49,0,0,0-.06,0-.09l0-.12,0,0a.63.63,0,0,1,.78-.43l.57.1,1.08-3.79h-2Zm4.09-14.47h-3.52v5.77h3.52Zm6,10.38a.58.58,0,0,1-.65.65h-1.21a.57.57,0,0,1-.64-.65v-9.71a.57.57,0,0,1,.64-.65h1.21a.58.58,0,0,1,.65.65Zm-.57,4.34c-.39,0-.59-.2-.59-.49a.66.66,0,0,1,.21-.53.63.63,0,0,1,.54-.15l1.83.17V597.36a.57.57,0,0,1,.65-.64h1.21a.57.57,0,0,1,.65.64V613c0,.45-.23.66-.67.62Z" class="cls-2"/><path data-cppathid="10043" transform="translate(0 0)" d="M199.19,613.13a.61.61,0,0,1-.51.28.79.79,0,0,1-.37-.1l-.58-.27c-.25-.12-.38-.28-.38-.47a.9.9,0,0,1,.16-.41,6.91,6.91,0,0,0,.72-1.44,10.4,10.4,0,0,0,.49-1.79,10.24,10.24,0,0,0,.18-1.89,7.73,7.73,0,0,0-.88-3.91,3.86,3.86,0,0,0-2.48-1.9,26.69,26.69,0,0,1,.47,4.65,10.07,10.07,0,0,1-1.13,5.16,3.61,3.61,0,0,1-3.31,1.9,4.21,4.21,0,0,1-2.33-.65,4.29,4.29,0,0,1-1.54-1.77,5.73,5.73,0,0,1-.55-2.58,8.32,8.32,0,0,1,.57-3.09,8.09,8.09,0,0,1,1.57-2.55,7.27,7.27,0,0,1,2.33-1.73,6.46,6.46,0,0,1,2.82-.63,7.66,7.66,0,0,1,3.72.85,5.82,5.82,0,0,1,2.4,2.44,8.09,8.09,0,0,1,.84,3.81A8.83,8.83,0,0,1,199.19,613.13Zm-9.54-5.19a6.06,6.06,0,0,0,.28,1.9,4.08,4.08,0,0,0,.71,1.4,1.23,1.23,0,0,0,.93.53c.36,0,.69-.27,1-.81a7.9,7.9,0,0,0,.66-2.2,18.47,18.47,0,0,0,.25-3.13c0-.67,0-1.35-.09-2s-.16-1.42-.29-2.15a5.14,5.14,0,0,0-1.73,1.44,8,8,0,0,0-1.23,2.3A8.52,8.52,0,0,0,189.65,607.94Z" class="cls-2"/><path data-cppathid="10044" transform="translate(0 0)" d="M205.86,612.16a.65.65,0,0,1-.2.47.64.64,0,0,1-.47.19H204a.64.64,0,0,1-.47-.19.65.65,0,0,1-.2-.47V598.53a.62.62,0,0,1,.59-.62c.46,0,.89-.09,1.3-.11l1.18,0c4.43,0,6.65,1.72,6.65,5.14a3.71,3.71,0,0,1-1.67,3.3,9,9,0,0,1-4.88,1.1h-.32l-.34,0Zm0-13.24v7.2l.8,0a6.59,6.59,0,0,0,2.33-.33,2.12,2.12,0,0,0,1.21-1,4,4,0,0,0,.37-1.87,6,6,0,0,0-.38-2.33,2.39,2.39,0,0,0-1.28-1.26,6.14,6.14,0,0,0-2.43-.4Z" class="cls-2"/><path data-cppathid="10045" transform="translate(0 0)" d="M214.34,598.59a.62.62,0,0,1,.64-.68c.54,0,1-.09,1.52-.11l1.34,0a9.53,9.53,0,0,1,3.38.5,3.45,3.45,0,0,1,2.42,3.47,3.44,3.44,0,0,1-.61,2,4,4,0,0,1-2.24,1.34c2.08.72,3.13,1.91,3.13,3.58a4.27,4.27,0,0,1-.6,2.31,3.79,3.79,0,0,1-1.95,1.49,10.29,10.29,0,0,1-3.59.52l-1.3,0c-.46,0-1-.06-1.48-.11s-.66-.26-.66-.66Zm2.27.37v5.48a12.18,12.18,0,0,0,2.95-.36,3.15,3.15,0,0,0,1.57-.92,2.2,2.2,0,0,0,.48-1.42,3.37,3.37,0,0,0-.3-1.44,2.18,2.18,0,0,0-1.07-1,4.85,4.85,0,0,0-2.11-.38h-.73Zm0,12.88a5.92,5.92,0,0,0,.62,0h.57a4.61,4.61,0,0,0,2.89-.77,2.81,2.81,0,0,0,1-2.39,2.5,2.5,0,0,0-1.16-2.25,8.11,8.11,0,0,0-3.92-.84Z" class="cls-2"/><path data-cppathid="10046" transform="translate(0 0)" d="M228.61,611.57v.08h.84a.71.71,0,0,1,.47.16.56.56,0,0,1,.19.43.55.55,0,0,1-.19.42.71.71,0,0,1-.47.16h-4.19a.66.66,0,0,1-.46-.16.53.53,0,0,1-.2-.42.53.53,0,0,1,.2-.43.66.66,0,0,1,.46-.16h.84V599.14h-.84a.67.67,0,0,1-.46-.17.54.54,0,0,1,0-.84.66.66,0,0,1,.46-.16h4.19a.71.71,0,0,1,.47.16.56.56,0,0,1,0,.84.71.71,0,0,1-.47.17h-.84v12.43Z" class="cls-2"/></g></g><g id="etc."><rect data-cppathid="10047" rx="7.28" height="50.68" width="237.14" y="659.02" x="80.53" class="cls-5"/><g class="cls-6"><path data-cppathid="10048" transform="translate(0 0)" d="M193.68,682.57a.45.45,0,0,1-.56.38l-.84-.1c-.27,0-.4-.17-.4-.41,0,0,0-.08,0-.15l1-3.59a.44.44,0,0,1,.56-.37l.84.1c.27,0,.4.16.4.4a.69.69,0,0,1,0,.16l-.27,1h3.13c.32,0,.48.15.48.44s-.16.43-.48.43h-1l.23,1.21a.44.44,0,0,1,0,.13c0,.24-.14.38-.42.41l-.87.08a.44.44,0,0,1-.53-.4l-.26-1.36a.14.14,0,0,1,0-.07h-.52Zm4.43,8.37c-.29,0-.44-.16-.44-.41s.17-.48.5-.46l2.07.1v-2.46h-7.86c-.32,0-.48-.14-.48-.43s.16-.43.48-.43h7.86V686h-7.89c-.32,0-.47-.15-.47-.44s.15-.43.47-.43h5.07a.61.61,0,0,1,0-.14v-.87h-4c-.32,0-.48-.15-.48-.43s.16-.44.48-.44h4v0a.42.42,0,0,1,.47-.48h.9a.42.42,0,0,1,.48.48v0h4c.31,0,.47.15.47.44s-.16.43-.47.43h-4V685a.59.59,0,0,1,0,.14h5.06c.31,0,.47.14.47.43s-.16.44-.47.44h-2.21v.85h2.1c.32,0,.48.14.48.43s-.16.43-.48.43h-2.1v2.95c0,.33-.17.48-.5.46Zm-.5-2.16c.23.06.35.18.35.35a.43.43,0,0,1-.06.22l0,0a.5.5,0,0,1-.43.28h-.09l-.1,0-2.93-.81c-.23-.06-.35-.17-.35-.34a.43.43,0,0,1,.06-.22l0-.06a.5.5,0,0,1,.43-.27h.09l.1,0Zm2-6.9a.46.46,0,0,1-.58.33l-.77-.14q-.36-.08-.36-.36a.68.68,0,0,1,.05-.23l1.15-2.82a.46.46,0,0,1,.58-.33l.76.14q.36.07.36.36a.75.75,0,0,1,0,.24l-.39.93H204c.32,0,.48.15.48.44s-.16.43-.48.43h-.71a.51.51,0,0,1,0,.2l-.55,1.52a.49.49,0,0,1-.58.35l-.78-.14c-.26,0-.38-.17-.38-.37a.45.45,0,0,1,0-.2l.49-1.36H200Z" class="cls-2"/></g></g><g id="etcetc."><rect data-cppathid="10049" rx="5.07" height="35.3" width="165.16" y="729.37" x="115.69" class="cls-7"/><g class="cls-8"><path data-cppathid="10050" transform="translate(0 0)" d="M194.5,745.77a.31.31,0,0,1-.4.26l-.58-.07c-.19,0-.28-.11-.28-.28a.89.89,0,0,1,0-.11l.68-2.49a.31.31,0,0,1,.4-.26l.58.07c.19,0,.28.11.28.28s0,.05,0,.11l-.19.7h2.18q.33,0,.33.3c0,.21-.11.31-.33.31h-.7l.16.84a.22.22,0,0,1,0,.09c0,.17-.1.26-.29.28l-.61.06a.31.31,0,0,1-.37-.28l-.18-.94a.09.09,0,0,1,0,0h-.36Zm3.08,5.83c-.2,0-.31-.11-.31-.29s.12-.33.35-.32l1.44.07v-1.71h-5.47q-.33,0-.33-.3t.33-.3h5.47v-.59h-5.49c-.22,0-.33-.1-.33-.31s.11-.3.33-.3h3.53a.28.28,0,0,1,0-.1v-.6h-2.78c-.23,0-.34-.1-.34-.3s.11-.3.34-.3h2.78v0c0-.23.11-.34.33-.34h.63c.22,0,.33.11.33.34v0h2.78c.23,0,.34.1.34.3s-.11.3-.34.3h-2.78v.6a.28.28,0,0,1,0,.1h3.52q.33,0,.33.3c0,.21-.11.31-.33.31h-1.54v.59h1.47q.33,0,.33.3t-.33.3h-1.47v2.06a.28.28,0,0,1-.34.32Zm-.35-1.5q.24.06.24.24a.28.28,0,0,1,0,.15l0,0a.34.34,0,0,1-.3.19h-.06l-.07,0-2-.56q-.24-.06-.24-.24a.24.24,0,0,1,0-.15l0,0a.35.35,0,0,1,.3-.2h.13Zm1.4-4.81a.32.32,0,0,1-.4.23l-.53-.1c-.17,0-.26-.12-.26-.25a.5.5,0,0,1,0-.16l.81-2a.32.32,0,0,1,.4-.23l.53.1c.17,0,.26.11.26.25a.62.62,0,0,1,0,.16l-.27.65h2.52q.33,0,.33.3c0,.21-.11.31-.33.31h-.5a.44.44,0,0,1,0,.14l-.38,1a.33.33,0,0,1-.4.24l-.54-.09c-.18,0-.27-.12-.27-.26a.35.35,0,0,1,0-.14l.34-.94h-1Z" class="cls-2"/></g></g></g></g></g></g></svg>