<?xml version="1.0" encoding="UTF-8"?>
<svg xmlns="http://www.w3.org/2000/svg" onmouseup="{ if(window.parent.document.onmouseup) window.parent.document.onmouseup(arguments[0]);}" viewBox="0 0 407.75 376.16"><defs><style>.cls-1{fill:#d7d7d7;}.cls-2{fill:#fcc388;}.cls-3{fill:#e33d3c;}.cls-4{fill:#a8a7a5;}.cls-5{fill:#d5d3d0;}.cls-6{fill:#253d54;}.cls-7{fill:#80583a;}.cls-8{fill:#ad2526;}.cls-12,.cls-14,.cls-17,.cls-19,.cls-9{stroke:#000;}.cls-9{stroke-width:0.6px;}.cls-10{fill:#fff;}.cls-11{fill:#f2797a;}.cls-12,.cls-14,.cls-17,.cls-19{fill:none;}.cls-12{stroke-width:1.06px;}.cls-13{fill:#686868;}.cls-14{stroke-width:0.3px;}.cls-15{fill:#919191;}.cls-16{fill:#afafb0;}.cls-17{stroke-width:0.89px;}.cls-18{fill:#c5c4c4;}.cls-19{stroke-width:0.67px;}</style></defs><g data-name="Layer 2" id="Layer_2"><g id="scrumMaster"><g data-name="SM pointer" id="SM_pointer"><path data-cppathid="10000" d="M368.89,360.29c.18,7.47-39.92,14.49-89.57,15.69s-90-3.86-90.22-11.33S229,350.16,278.67,349,368.71,352.83,368.89,360.29Z" class="cls-1"/><path data-cppathid="10001" d="M234.41,177.89c-1,1.08-30.57,5.76-34.82,2.87-6.18-4.19-1.31-44-4.87-45s11.7-9.1,13.22.07,6.58,19.87,4.91,27.16l30.35-1.82Z" class="cls-2"/><path data-cppathid="10002" d="M226.77,149l4.28-.17c35.66-1.27,44.14,25.51,34.84,28.31-3.22,1-18.1,2.64-36.66,4.23C224.69,175.1,221.61,161,226.77,149Z" class="cls-3"/><path data-cppathid="10003" d="M187,109.6s-2,6.17-.75,8.69,3.55-.42,4.57-1.92S187,109.6,187,109.6Z" class="cls-2"/><path data-cppathid="10004" d="M.13,74.32c1.08.84,204.15,43.91,204.15,43.91l-.53-4.92S-.95,73.47.13,74.32Z" class="cls-4"/><path data-cppathid="10005" d="M0,74.16c1.09.85,204.15,42.65,204.15,42.65l-.55-4.19S-1.08,73.32,0,74.16Z" class="cls-5"/><path data-cppathid="10006" d="M210.3,145.5s-3.74-9.79-3.05-13.51-.08-17.35-1.42-18.05a31.26,31.26,0,0,0-4.74-1.56l-8.62-2.57,4.69,6.53s.19,6.63.43,7.49-3.77-12.52-6.44-10,.14,12.38,2.75,14.81-5.07,13,8.91,16.84" class="cls-2"/><path data-cppathid="10007" d="M191.18,120.94s-3.64,13.51,3.54,14.82S191.18,120.94,191.18,120.94Z" class="cls-2"/><path data-cppathid="10008" d="M345.15,254.12s-9.58,88.92-5.41,94.56,8.54,16,6.46,20.7S310.71,356.82,305,352.12s-8-65.39-8-71-17.88-1.41-17.88-1.41-2.77,67.74-3.29,71-31.29,9.88-38.59,8.47,4.69-13.65,4.69-13.65-7.84-98.93-5.75-104.11,107.43-2.35,107.43-2.35Z" class="cls-6"/><path data-cppathid="10009" d="M277.65,78.68c1.52-6.32-4.44-17.93-12.37-20.7-9.17-3.21-14.09-1.76-18.25,6.18-3.89,7.41-6.17,11.18-15.88,12.33-8.1,1-15-13.82-6.15-17.78,3.18-1.42,10.82,2.53,10,6.7-.56,2.74-6.38,3.63-7.6,1.1,2.32,1.11,2.59,5.69,8.6,1.89,3.67-2.33,1.46-7.76-.42-10.55-8.81-13-22.54.48-19.45,13.46,4.13,17.32,22.88,23.42,35.59,24.3S276.13,85,277.65,78.68Z" class="cls-7"/><path data-cppathid="10010" d="M238.34,102.17s15.89-78.54,60.76-76.93,59.82,48.16,52.34,91.5a423,423,0,0,0-5.12,43.57c-1.39,21.25-4,35.87-4,35.87l-98.12-18.62,5.67-12.82.94-10.35s-6.5-37.72-8-40.93c-.74-1.6,56.87,4.71,56.87,4.71Z" class="cls-2"/><path data-cppathid="10011" d="M348.3,155.68c-90.41,14.71-100.11-7.91-100.11-7.91l-3.87,19.52s-2.9,21.91-15.6,74.6c31.6,13.86,123.43,6.66,123.43,6.66S348.85,164,348.3,155.68Z" class="cls-8"/><path data-cppathid="10012" d="M275,78.55c0,3.77,1.8,6.82,4,6.82s4-3.05,4-6.82-1.8-6.82-4-6.82S275,74.77,275,78.55Z" class="cls-9"/><path data-cppathid="10013" d="M263.74,77.74c0,3.11,1.48,5.62,3.3,5.62s3.31-2.51,3.31-5.62-1.49-5.62-3.31-5.62S263.74,74.64,263.74,77.74Z" class="cls-9"/><path data-cppathid="10014" d="M277.72,74.3a2,2,0,1,0,2-2A2,2,0,0,0,277.72,74.3Z" class="cls-10"/><path data-cppathid="10015" d="M265.72,74.3a2,2,0,1,0,2-2A2,2,0,0,0,265.72,74.3Z" class="cls-10"/><path data-cppathid="10016" d="M295.75,32.08S336.51,87.82,354,97.7c9.2-30.58-5.48-66.09-44.92-73.86-21-4.13-27.22-5.71-42.95,11.76C253.68,49.48,295.75,32.08,295.75,32.08Z" class="cls-7"/><path data-cppathid="10017" d="M355.41,94s29-42.66-12.84-72.76c-38.46-27.66-67.36,1.71-68.07,7C274.5,28.31,348.29,23,355.41,94Z" class="cls-3"/><path data-cppathid="10018" d="M321.11,39.05S292.31,1,273.42.1s-31.08,5.14-32.51,10.79,31.56,17.42,31.56,17.42S301.3,27.52,321.11,39.05Z" class="cls-11"/><path data-cppathid="10019" d="M352.41,98.35c3.15-5.58,15.06-9.11,22.44-5,8.55,4.8,11,9.59,8.64,18.33-2.23,8.16-3.14,12.55,2.87,20.82,5,6.89,19.7,1.86,16.15-7.7-1.28-3.44-9.25-6.55-11.42-3-1.44,2.35,2,7.44,4.57,6.62-2.36-1-5.6,2-7.26-5.29-1-4.44,4.14-6.55,7.32-7,14.84-2.34,15.43,17.64,4.62,24.34-14.43,8.93-31.6-1.21-41.06-10.35S349.26,103.93,352.41,98.35Z" class="cls-7"/><path data-cppathid="10020" d="M367.5,182.15c1.41.47,17.91,26.35,16.94,31.52C383,221.19,346.8,232,347.27,235.78s-15.52-9.88-7.53-15.06,15.06-10.82,22.59-12.23l-14.12-27.76Z" class="cls-2"/><path data-cppathid="10021" d="M380.5,187.84q-1.17-1.89-2.33-3.72c-19.56-30.86-47.1-22.52-44.08-13.05,1,3.27,8.24,16.82,17.63,33.43C359.63,204.71,373.36,199.14,380.5,187.84Z" class="cls-3"/><path data-cppathid="10022" d="M345.39,233s14.11,6.12,12.23,11.29,3.29-10.35,7.06-9.88-1.88,15.53-4.71,15.53-18.82,1.88-24.46-7.06-.47-17.4,1.88-19.76S345.39,233,345.39,233Z" class="cls-2"/><path data-cppathid="10023" d="M346.33,156.27s-32,1.41-67.74,40.93c0,0-29.64-23.52-29.64-47" class="cls-12"/><polygon data-cppathid="10024" points="285.74 212.95 275.96 217.71 273.31 212.2 279.19 205.87 285.74 212.95" class="cls-13"/><polyline data-cppathid="10025" points="267.47 225.48 273.86 222.02 275.87 223.58" class="cls-14"/><path data-cppathid="10026" d="M276.58,199.65s.36-3.4,5.05-3.36c4.3,1.06,8.24,7.73,6.18,13.78-2.34,6.85-9.24,3-9.24,3l-2.12,10.72-.24.12L273.86,222Z" class="cls-15"/><path data-cppathid="10027" d="M269.83,201.35s6.66-5.73,11.19-5.19c.2,0,.41.08.61.13-4.69,0-5.05,3.36-5.05,3.36L273.86,222l2.35,1.88-6.57,3.26-2.75-1.88Z" class="cls-16"/><line data-cppathid="10028" y2="209.59" x2="274.09" y1="211.98" x1="269.51" class="cls-17"/><polygon data-cppathid="10029" points="273.86 222.02 276.2 223.9 269.64 227.16 266.89 225.28 273.86 222.02" class="cls-18"/><line data-cppathid="10030" y2="223.86" x2="273.68" y1="225.69" x1="269.38" class="cls-19"/></g></g></g></svg>