<?xml version="1.0" encoding="UTF-8"?>
<svg xmlns="http://www.w3.org/2000/svg" onmouseup="{ if(window.parent.document.onmouseup) window.parent.document.onmouseup(arguments[0]);}" viewBox="0 0 438.07 788.87" xmlns:xlink="http://www.w3.org/1999/xlink"><defs><style>.cls-1{fill:none;}.cls-2{isolation:isolate;}.cls-11,.cls-3,.cls-5,.cls-8{fill:#fff100;}.cls-10,.cls-4,.cls-7{fill:#603813;}.cls-5,.cls-6,.cls-7{opacity:0.5;}.cls-10,.cls-8,.cls-9{opacity:0.25;}.cls-11,.cls-12,.cls-13{opacity:0.12;}.cls-13{fill:#3b2314;}.cls-14{opacity:0.7;mix-blend-mode:lighten;}.cls-15{fill:url(#New_Gradient_Swatch_1);}.cls-16{fill:#929497;}.cls-17,.cls-30{fill:#fff;}.cls-18{fill:url(#New_Gradient_Swatch_2);}.cls-19{fill:url(#radial-gradient);}.cls-20,.cls-23,.cls-24,.cls-29{mix-blend-mode:screen;}.cls-20{fill:url(#radial-gradient-2);}.cls-21{fill:#6c5635;}.cls-22{fill:url(#Steel_Cylinder);}.cls-23{fill:url(#linear-gradient);}.cls-25{fill:url(#linear-gradient-2);}.cls-26{fill:url(#linear-gradient-3);}.cls-27{fill:url(#linear-gradient-4);}.cls-28{clip-path:url(#clip-path);}.cls-29{fill:url(#radial-gradient-3);}.cls-30{mix-blend-mode:color-dodge;}</style><linearGradient gradientUnits="userSpaceOnUse" gradientTransform="translate(5855.37 -2394.61) rotate(180)" y2="-2419.87" x2="5627.52" y1="-2569.95" x1="5627.52" id="New_Gradient_Swatch_1"><stop stop-color="#fff" offset="0"/><stop stop-color="#f7f7f7" offset="0.02"/><stop stop-color="#bebebe" offset="0.13"/><stop stop-color="#8b8b8b" offset="0.25"/><stop stop-color="#606060" offset="0.37"/><stop stop-color="#3d3d3d" offset="0.49"/><stop stop-color="#222" offset="0.62"/><stop stop-color="#0f0f0f" offset="0.74"/><stop stop-color="#040404" offset="0.87"/><stop offset="1"/></linearGradient><linearGradient gradientUnits="userSpaceOnUse" y2="113.17" x2="319.8" y1="113.17" x1="138.39" id="New_Gradient_Swatch_2"><stop stop-color="#929497" offset="0"/><stop stop-color="#dbdcdd" offset="0.5"/><stop stop-color="#c5c7c8" offset="0.56"/><stop stop-color="#afb0b3" offset="0.65"/><stop stop-color="#9fa0a3" offset="0.75"/><stop stop-color="#95979a" offset="0.86"/><stop stop-color="#929497" offset="1"/></linearGradient><radialGradient gradientUnits="userSpaceOnUse" r="83.4" cy="112.22" cx="228.16" id="radial-gradient"><stop stop-color="#fff" offset="0"/><stop stop-color="#fcfcfd" offset="0.33"/><stop stop-color="#f4f4f4" offset="0.54"/><stop stop-color="#e5e6e7" offset="0.72"/><stop stop-color="#d0d2d3" offset="0.88"/><stop stop-color="#bbbdbf" offset="1"/></radialGradient><radialGradient gradientUnits="userSpaceOnUse" gradientTransform="translate(6269.62 -2485.08) rotate(180)" r="76.23" cy="-2584.62" cx="6042.37" id="radial-gradient-2"><stop stop-color="#fff" offset="0"/><stop stop-color="#e9e9e9" offset="0.07"/><stop stop-color="#878787" offset="0.42"/><stop stop-color="#3e3e3e" offset="0.7"/><stop stop-color="#111" offset="0.9"/><stop offset="1"/></radialGradient><linearGradient gradientUnits="userSpaceOnUse" y2="242.6" x2="381.23" y1="269.85" x1="353.98" id="Steel_Cylinder"><stop stop-color="#fff" offset="0"/><stop stop-color="#0b0b0b" offset="0.17"/><stop stop-color="#7f7f7f" offset="0.26"/><stop stop-color="#8e8e8e" offset="0.4"/><stop stop-color="#636363" offset="0.54"/><stop stop-color="#5f5f5f" offset="0.63"/><stop stop-color="#eaeaea" offset="0.72"/><stop stop-color="#fff" offset="0.79"/><stop offset="1"/></linearGradient><linearGradient gradientUnits="userSpaceOnUse" gradientTransform="matrix(-1.25, -1.09, 0.28, -0.32, 7373.66, 1689.63)" y2="-8173.61" x2="3811.09" y1="-8173.61" x1="3716.07" id="linear-gradient"><stop stop-color="#fff" offset="0"/><stop stop-color="#f6f6f6" offset="0.06"/><stop stop-color="#dfdfdf" offset="0.16"/><stop stop-color="#b8b8b8" offset="0.29"/><stop stop-color="#828282" offset="0.44"/><stop stop-color="#3f3f3f" offset="0.6"/><stop offset="0.74"/></linearGradient><linearGradient gradientUnits="userSpaceOnUse" gradientTransform="translate(-154.78 -11.81)" y2="255.96" x2="493.21" y1="208.89" x1="493.21" id="linear-gradient-2"><stop stop-color="#fff" offset="0"/><stop stop-color="#fafafa" offset="0.11"/><stop stop-color="#ececec" offset="0.23"/><stop stop-color="#d5d5d5" offset="0.36"/><stop stop-color="#b5b5b5" offset="0.5"/><stop stop-color="#8b8b8b" offset="0.64"/><stop stop-color="#585858" offset="0.79"/><stop stop-color="#1d1d1d" offset="0.93"/><stop offset="1"/></linearGradient><linearGradient gradientUnits="userSpaceOnUse" y2="196.08" x2="320.18" y1="196.08" x1="298.07" id="linear-gradient-3"><stop stop-color="#808184" offset="0"/><stop stop-color="#8a8b8d" offset="0.09"/><stop stop-color="#a4a5a7" offset="0.23"/><stop stop-color="#cecfd0" offset="0.41"/><stop stop-color="#dbdcdd" offset="0.47"/><stop stop-color="#626366" offset="1"/></linearGradient><linearGradient gradientUnits="userSpaceOnUse" gradientTransform="translate(1841.67 1900.21) rotate(-45)" y2="-2288.7" x2="132.07" y1="-2288.7" x1="110.61" id="linear-gradient-4"><stop stop-color="#dddfe0" offset="0"/><stop stop-color="#fff" offset="0.5"/><stop stop-color="#f2f2f3" offset="0.63"/><stop stop-color="#d0d2d3" offset="0.87"/><stop stop-color="#bbbdbf" offset="1"/></linearGradient><clipPath transform="translate(3.6 15.29)" id="clip-path"><path data-cppathid="10000" d="M310,112.71A83.4,83.4,0,1,1,226.54,29.3,83.41,83.41,0,0,1,310,112.71Z" class="cls-1" id="SVGID"/></clipPath><radialGradient gradientUnits="userSpaceOnUse" gradientTransform="translate(6395.41 -2508.37) rotate(180)" r="75.48" cy="-2626.07" cx="6168.86" id="radial-gradient-3"><stop stop-color="#fff" offset="0"/><stop stop-color="#fbfbfb" offset="0.11"/><stop stop-color="#ededed" offset="0.24"/><stop stop-color="#d8d8d8" offset="0.37"/><stop stop-color="#b9b9b9" offset="0.5"/><stop stop-color="#929292" offset="0.64"/><stop stop-color="#616161" offset="0.77"/><stop stop-color="#292929" offset="0.91"/><stop offset="1"/></radialGradient></defs><g class="cls-2"><g data-name="Layer 2" id="Layer_2"><g id="backlog"><g data-name="2023 jp" id="_2023_jp"><g data-name="initial Product Backlog" id="initial_Product_Backlog"><g data-name="Attendance PBI" id="Attendance_PBI"><path data-cppathid="10001" transform="translate(3.6 15.29)" d="M403.28,241.59A12.39,12.39,0,0,1,390.89,254H12.38A12.38,12.38,0,0,1,0,241.59V180.17a12.38,12.38,0,0,1,12.38-12.38H390.89a12.39,12.39,0,0,1,12.39,12.38Z" class="cls-3"/><path data-cppathid="10002" transform="translate(3.6 15.29)" d="M165,219.83v.07h5.33v-5.79a.72.72,0,0,1,.81-.81h1.52a.72.72,0,0,1,.81.81v6.7a.72.72,0,0,1-.81.81H171.1a.83.83,0,0,1-.64-.24h-16.3a.72.72,0,0,1-.81-.81v-6.46a.72.72,0,0,1,.81-.81h1.52a.72.72,0,0,1,.81.81v5.79h5.33v-9.06h-6.9a.72.72,0,0,1-.81-.81v-7.22a.72.72,0,0,1,.81-.81h1.52a.72.72,0,0,1,.81.81v6.56h4.57v-7.91a.72.72,0,0,1,.81-.81h1.52a.72.72,0,0,1,.81.81v7.91h4.57v-6.56a.72.72,0,0,1,.81-.81h1.52a.72.72,0,0,1,.81.81v7.69a.72.72,0,0,1-.81.81h-1.52a.72.72,0,0,1-.76-.47H165Z" class="cls-4"/><path data-cppathid="10003" transform="translate(3.6 15.29)" d="M180.14,221.52a.74.74,0,0,1-.86.77l-1.52,0c-.56,0-.81-.32-.76-.86l1.37-17a.73.73,0,0,1,.86-.76l1.52,0a.81.81,0,0,1,.67.34h6.36a.93.93,0,0,1-.08-.39v-2.53a.72.72,0,0,1,.81-.81H190a.72.72,0,0,1,.81.81v2.53a.93.93,0,0,1-.08.39h7.39c.54,0,.81.25.81.74s-.27.74-.81.74H181.44Zm4.93-1.1a.72.72,0,0,1-.81.81h-1.52a.72.72,0,0,1-.81-.81V215a.72.72,0,0,1,.81-.81h1.52a.79.79,0,0,1,.64.25h2.95v-1.75h-3.46a.72.72,0,0,1-.81-.81v-2.75h-1.26c-.54,0-.81-.24-.81-.74s.27-.73.81-.73h1.26v-.89a.72.72,0,0,1,.81-.81h1.52a.72.72,0,0,1,.81.81v.89h5.72v-.89a.72.72,0,0,1,.81-.81h1.53a.72.72,0,0,1,.81.81v.89h1.86c.54,0,.81.24.81.73s-.27.74-.81.74h-1.86v2.92a.72.72,0,0,1-.81.81h-1.53a.76.76,0,0,1-.54-.17H191v1.75h5.14a.72.72,0,0,1,.81.81v5c0,.59-.29.84-.86.76l-3.37-.39c-.56-.08-.78-.36-.69-.84a.79.79,0,0,1,.94-.63l.83.09V216H191v5.3a.72.72,0,0,1-.81.81h-1.52a.72.72,0,0,1-.81-.81V216h-2.78Zm1.65-9.16h5.72v-2.09h-5.72Z" class="cls-4"/><path data-cppathid="10004" transform="translate(3.6 15.29)" d="M205.58,215.16a.13.13,0,0,0,.07,0v-6.85l-3-2.58a1.07,1.07,0,0,1-.4-.78.71.71,0,0,1,.4-.66l.56-.32a.78.78,0,0,1,.35-.08.77.77,0,0,1,.51.17l1.57,1.36v-4a.83.83,0,0,1,.25-.59.81.81,0,0,1,.59-.24H208a.81.81,0,0,1,.59.24.83.83,0,0,1,.25.59V221a.82.82,0,0,1-.25.59.78.78,0,0,1-.59.25h-1.47a.78.78,0,0,1-.59-.25.82.82,0,0,1-.25-.59v-3.56l-2,1.33a.8.8,0,0,1-.4.12.78.78,0,0,1-.44-.15l-.17-.12a.93.93,0,0,1,0-1.57Zm6.66,6.34a.67.67,0,0,1-.57.27h-.15l-.14,0-.74-.29a.81.81,0,0,1-.61-.81,1,1,0,0,1,.22-.62,23.2,23.2,0,0,0,2.89-4.95,23.89,23.89,0,0,0,1.58-5.83H211a.87.87,0,0,1-.59-.21.64.64,0,0,1-.25-.53.63.63,0,0,1,.25-.52.87.87,0,0,1,.59-.21h3.95c.1-.92.17-1.89.22-2.9s.08-2.1.1-3.27a.85.85,0,0,1,.23-.6.82.82,0,0,1,.58-.23h1.5c.23,0,.42.16.59.48a2.39,2.39,0,0,1,.22,1.19c0,1,0,1.94-.11,2.82s-.14,1.72-.23,2.51h4.12a.87.87,0,0,1,.59.21.65.65,0,0,1,.25.52.67.67,0,0,1-.25.53.87.87,0,0,1-.59.21h-4.32c-.07.41-.13.8-.2,1.18a2.1,2.1,0,0,1,.15.22l5,9.65a.94.94,0,0,1,.13.44.78.78,0,0,1-.19.53.86.86,0,0,1-.52.31l-1.11.27a.83.83,0,0,1-.49,0,.72.72,0,0,1-.37-.34l-3.71-7.1a17.81,17.81,0,0,1-1.89,3.89C213.9,219.34,213.1,220.44,212.24,221.5Zm10.68-15.69a.84.84,0,0,1-.15.69.88.88,0,0,1-.61.34l-1.45.12a.81.81,0,0,1-.57-.15.67.67,0,0,1-.29-.49l-.71-3.56a.9.9,0,0,1,.14-.71.79.79,0,0,1,.62-.32l1.45-.12a.73.73,0,0,1,.56.13.81.81,0,0,1,.3.51Z" class="cls-4"/><path data-cppathid="10005" transform="translate(3.6 15.29)" d="M230.31,216a1,1,0,0,1,.69-.34l.22,0,.19.08.77.32c.32.14.49.34.49.59a.79.79,0,0,1-.25.54l-3.51,3.8a1,1,0,0,1-.69.35.43.43,0,0,1-.19,0l-.23-.06-.76-.32c-.32-.15-.49-.34-.49-.59a.72.72,0,0,1,.25-.54Zm1.59-4.74a.7.7,0,0,1,.37.57.71.71,0,0,1-.37.56l-.39.27a.9.9,0,0,1-.56.2,1.06,1.06,0,0,1-.57-.2l-3.26-2.25a.74.74,0,0,1-.37-.57.67.67,0,0,1,.37-.56l.39-.28a1,1,0,0,1,.56-.19.84.84,0,0,1,.57.19Zm.08-6.38a.77.77,0,0,1,.32.56.66.66,0,0,1-.42.57l-.56.29a1,1,0,0,1-.52.15.88.88,0,0,1-.59-.24l-3-2.56a.77.77,0,0,1-.32-.56.66.66,0,0,1,.42-.57l.56-.29a1.06,1.06,0,0,1,.52-.15.84.84,0,0,1,.59.25Zm2.28,16.38a.81.81,0,0,1-.73.49h-.15l-.15,0-1.15-.29c-.38-.1-.57-.31-.57-.62a1.17,1.17,0,0,1,.13-.44l4.05-7.24h-1.53a.72.72,0,0,1-.81-.81V201.61a.72.72,0,0,1,.81-.81h1.53a.71.71,0,0,1,.73.41h8.16a.72.72,0,0,1,.81.82v10.24a.72.72,0,0,1-.81.81h-1.53a.78.78,0,0,1-.22,0v6.88H244V217a.72.72,0,0,1,.81-.81h1.52a.72.72,0,0,1,.81.81v3.59a.72.72,0,0,1-.81.81H240.5a.72.72,0,0,1-.81-.81v-7.93h-.76a1,1,0,0,1-.12.44Zm8-18.54H236.5v8.5h5.74Z" class="cls-4"/></g><g data-name="Grades PBI" id="Grades_PBI"><path data-cppathid="10006" transform="translate(3.6 15.29)" d="M403.28,142.65A12.39,12.39,0,0,1,390.89,155H12.38A12.38,12.38,0,0,1,0,142.65V81.23A12.38,12.38,0,0,1,12.38,68.85H390.89a12.39,12.39,0,0,1,12.39,12.38Z" class="cls-3"/><path data-cppathid="10007" transform="translate(3.6 15.29)" d="M180.65,122.12c0,.5-.29.76-.83.76l-1.5,0c-.56,0-.82-.27-.78-.83l.68-15.06a1.23,1.23,0,0,1,.15-.49.61.61,0,0,1-.12-.41c0-.49.27-.74.81-.74h8.79l-.81-2.51a1.5,1.5,0,0,1,0-.31c0-.38.22-.59.66-.64l1.38-.2h.2a.74.74,0,0,1,.76.61l1,3.07h6.78c.54,0,.81.25.81.74s-.27.73-.81.73h-6.31l2.11,6.56,2.23-3.59a.86.86,0,0,1,.74-.46,1.09,1.09,0,0,1,.32,0l1,.32c.38.13.57.33.57.61a1,1,0,0,1-.15.44l-3.71,5.92,1.23,3.81,1.4-.37.27,0a.82.82,0,0,1,.76.52.93.93,0,0,1,.12.39c0,.33-.19.54-.58.64l-3.61.93a.39.39,0,0,1-.15,0h-.12a.74.74,0,0,1-.74-.59l-.64-2-1.33,2.13a.85.85,0,0,1-.73.47,1.57,1.57,0,0,1-.32,0l-1.06-.32c-.37-.13-.56-.34-.56-.61a1,1,0,0,1,.14-.45l2.8-4.46-3.16-9.88h-7a2.28,2.28,0,0,1,0,.27l-.19,4.23h5.94c.56,0,.81.28.76.83l-.76,9.63c-.05.47-.27.71-.66.71l-.28,0-3.87-1c-.41-.09-.62-.29-.62-.59a.33.33,0,0,1,0-.17,1.62,1.62,0,0,0,.06-.17l0-.07a.84.84,0,0,1,.77-.52h.14l.15,0,1.23.29.61-7.51h-3.61Zm16.11-18.81c.28.18.42.37.42.59a.77.77,0,0,1-.29.54l-.25.19a.84.84,0,0,1-1.1.12l-3-1.64a.75.75,0,0,1-.42-.59.69.69,0,0,1,.3-.54l.24-.2a1,1,0,0,1,.64-.27.92.92,0,0,1,.47.15Z" class="cls-4"/><path data-cppathid="10008" transform="translate(3.6 15.29)" d="M204.08,121.18a.73.73,0,0,1-.88.74l-.79,0a.69.69,0,0,1-.73-.86l.31-3.73a.74.74,0,0,1,.89-.74l.78,0a.7.7,0,0,1,.74.86Zm4.28,1.06a.72.72,0,0,1-.82.81H206a.72.72,0,0,1-.81-.81v-7.07l-2.7.22c-.49,0-.74-.12-.74-.47a.82.82,0,0,1,.18-.49l2.25-3.51,0-.08-2.07-2.75a1,1,0,0,1-.22-.56.89.89,0,0,1,.22-.57l3.93-5.15a.86.86,0,0,1,.69-.39,1.19,1.19,0,0,1,.39.07l.94.32c.34.11.51.31.51.59a.85.85,0,0,1-.19.49l-3.52,4.64.84,1.1.88-1.37a.87.87,0,0,1,.76-.44,1.09,1.09,0,0,1,.32.05l1.06.32c.37.13.56.32.56.59a.49.49,0,0,1,0,.22,1.34,1.34,0,0,1-.12.24l-3.49,5.43,3-.25-.42-1.69a1.69,1.69,0,0,1,0-.25.65.65,0,0,1,.66-.71l.71-.1a.74.74,0,0,1,.94.64l.91,3.76a1.54,1.54,0,0,1,0,.24.66.66,0,0,1-.66.72l-.71.1a.75.75,0,0,1-.94-.64l-.15-.59h-.07l-.56,0a.84.84,0,0,1,.05.29Zm3.48-1.62a.7.7,0,0,1-.76.86l-.79,0a.72.72,0,0,1-.85-.74l-.32-3.07a.86.86,0,0,1,.17-.63.79.79,0,0,1,.59-.25l.78,0a.71.71,0,0,1,.86.73Zm6.88-11.81v.07h3.56c.54,0,.81.25.81.74s-.27.73-.81.73H212.09c-.54,0-.81-.24-.81-.73s.27-.74.81-.74h3.48v-1h-2.33c-.54,0-.81-.25-.81-.74s.27-.73.81-.73h2.33v-1.45h-2.94c-.54,0-.81-.25-.81-.74s.27-.74.81-.74h2.94v-.78a.72.72,0,0,1,.82-.81h1.52a.72.72,0,0,1,.81.81v.78h3c.54,0,.81.25.81.74s-.27.74-.81.74h-3v1.45h2.38c.54,0,.81.24.81.73s-.27.74-.81.74h-2.38Zm-6.56,2.94a.72.72,0,0,1,.81-.81h1.52a.89.89,0,0,1,.5.13h6.75a.72.72,0,0,1,.81.81v7.61a.72.72,0,0,1-.81.81h-1.52a1,1,0,0,1-.5-.12H215a1,1,0,0,1-.5.12H213a.72.72,0,0,1-.81-.81ZM213.73,123a1,1,0,0,1-.44.09.86.86,0,0,1-.66-.32l-.12-.12a.72.72,0,0,1-.27-.51c0-.25.16-.45.49-.59l2.13-1a.92.92,0,0,1,.44-.1.91.91,0,0,1,.67.32l.12.12a.76.76,0,0,1,.27.52c0,.24-.16.44-.49.59Zm5.68-10.49H215.3v1h4.11Zm-4.11,3.63h4.11V115H215.3Zm0,2.53h4.11v-1H215.3Zm6.95,3c.33.15.5.35.5.59a.78.78,0,0,1-.23.49l-.17.18a1,1,0,0,1-.69.34.86.86,0,0,1-.41-.1l-2.46-1.08c-.33-.15-.49-.34-.49-.59a.74.74,0,0,1,.22-.49l.17-.17a.92.92,0,0,1,1.11-.25Z" class="cls-4"/></g><g data-name="Event Calendar PBI" id="Event_Calendar_PBI"><rect data-cppathid="10009" rx="12.38" height="86.18" width="403.28" y="284.32" x="3.6" class="cls-3"/><path data-cppathid="10010" transform="translate(3.6 15.29)" d="M105.58,316.29a1,1,0,0,1-.51.14.91.91,0,0,1-.62-.24l-.24-.2a.79.79,0,0,1-.35-.56q0-.3.42-.57l17.24-10a1.06,1.06,0,0,1,.52-.15.9.9,0,0,1,.61.25l.25.2a.77.77,0,0,1,.34.56q0,.3-.42.57L116,310.27a.76.76,0,0,1,.19.56v11.05a.72.72,0,0,1-.81.82h-1.52a.72.72,0,0,1-.81-.82V312Z" class="cls-4"/><path data-cppathid="10011" transform="translate(3.6 15.29)" d="M145.61,320.44a.71.71,0,0,1,.2.49c0,.26-.17.46-.52.59l-.93.32a1.61,1.61,0,0,1-.39.07.85.85,0,0,1-.69-.39l-8.84-11.47-6,10a.91.91,0,0,1-.76.47h-.15l-.14,0-1.11-.3c-.38-.09-.56-.29-.56-.58a1,1,0,0,1,.14-.47l7.69-12.87a.64.64,0,0,1,.54-.39.76.76,0,0,1,.59.34ZM143.23,311a1.06,1.06,0,0,1,0,.27.64.64,0,0,1-.66.69l-.71.1a.73.73,0,0,1-.93-.64l-1.28-5.16a.91.91,0,0,1,0-.27.65.65,0,0,1,.67-.69l.71-.09a.75.75,0,0,1,1,.63Zm2.7-1.5a1,1,0,0,1,0,.27.67.67,0,0,1-.64.69l-.71.12a.74.74,0,0,1-1-.64l-1.25-4.81a.83.83,0,0,1,0-.15.66.66,0,0,1,0-.14c0-.36.22-.58.66-.67l.71-.12a.76.76,0,0,1,1,.64Z" class="cls-4"/><path data-cppathid="10012" transform="translate(3.6 15.29)" d="M157.77,308.87c.28.18.42.37.42.56a.75.75,0,0,1-.35.57l-.29.25a1.05,1.05,0,0,1-.59.22,1,1,0,0,1-.54-.18l-6.51-4c-.28-.18-.42-.37-.42-.56a.75.75,0,0,1,.35-.57l.29-.25a1,1,0,0,1,.59-.22,1,1,0,0,1,.54.18Zm7.93,2.65a1.07,1.07,0,0,1,.56-.17,1,1,0,0,1,.57.2l.32.24a.74.74,0,0,1,.34.57.68.68,0,0,1-.39.56L152.66,322a1.08,1.08,0,0,1-.57.17,1,1,0,0,1-.56-.2l-.32-.24a.74.74,0,0,1-.34-.57.68.68,0,0,1,.39-.56Z" class="cls-4"/><path data-cppathid="10013" transform="translate(3.6 15.29)" d="M176.36,322.11a.72.72,0,0,1-.81.81H174a.72.72,0,0,1-.81-.81V305a.72.72,0,0,1,.81-.81h1.53a.72.72,0,0,1,.81.81v7l8.89,2.88c.37.13.56.32.56.59a.72.72,0,0,1-.15.41l-.09.13a.83.83,0,0,1-.72.41h-.16l-.18,0-8.15-2.62Z" class="cls-4"/><path data-cppathid="10014" transform="translate(3.6 15.29)" d="M194,322.3a.8.8,0,0,1-.76.57h-.12a.21.21,0,0,1-.12,0l-1.3-.27c-.41-.08-.62-.28-.62-.61a1.18,1.18,0,0,1,.08-.39l5.45-12.82h-6c-.54,0-.81-.25-.81-.74s.27-.74.81-.74h6.65l1.06-2.48a.8.8,0,0,1,.76-.56h.12l.12,0,1.31.27c.4.08.61.29.61.62a1.24,1.24,0,0,1-.07.39l-.74,1.74H209c.51,0,.76.22.76.64a.61.61,0,0,1,0,.14l0,.13-3.47,13.9a.74.74,0,0,1-1,.64l-4.94-.81c-.44-.08-.66-.29-.66-.61a.61.61,0,0,1,0-.14.65.65,0,0,1,0-.13l0,0a.78.78,0,0,1,.76-.59h.11l.11,0,2.65.47,3.05-12.13h-6.73Z" class="cls-4"/><path data-cppathid="10015" transform="translate(3.6 15.29)" d="M230,314a1.05,1.05,0,0,1,.44-.1.88.88,0,0,1,.66.3l.13.12a.78.78,0,0,1,.27.54c0,.25-.16.44-.47.59l-15.64,7.17a.82.82,0,0,1-.4.1c-.37,0-.56-.24-.56-.71V305.21a.72.72,0,0,1,.81-.81h1.52a.72.72,0,0,1,.81.81v14.42Z" class="cls-4"/><path data-cppathid="10016" transform="translate(3.6 15.29)" d="M242.32,308.87c.28.18.42.37.42.56a.75.75,0,0,1-.35.57l-.29.25a1.05,1.05,0,0,1-.59.22,1,1,0,0,1-.54-.18l-6.51-4c-.28-.18-.42-.37-.42-.56a.75.75,0,0,1,.35-.57l.29-.25a1,1,0,0,1,.59-.22,1,1,0,0,1,.54.18Zm7.93,2.65a1.07,1.07,0,0,1,.56-.17,1,1,0,0,1,.57.2l.32.24a.74.74,0,0,1,.34.57.68.68,0,0,1-.39.56L237.21,322a1.08,1.08,0,0,1-.57.17,1,1,0,0,1-.56-.2l-.32-.24a.74.74,0,0,1-.34-.57.68.68,0,0,1,.39-.56Z" class="cls-4"/><path data-cppathid="10017" transform="translate(3.6 15.29)" d="M258.23,314.35a.74.74,0,0,1-.69.46h-.17l-.17,0-1.16-.29c-.37-.1-.56-.3-.56-.62a1,1,0,0,1,.12-.44l5.48-9.67a.75.75,0,0,1,.69-.47h.17l.17,0,1.15.29c.38.1.57.31.57.62a1,1,0,0,1-.12.44l0,.05h10.39c.47,0,.71.18.71.54a1,1,0,0,1-.15.44L265.25,322a.84.84,0,0,1-.73.46h-.15l-.17,0-1.11-.3c-.39-.1-.59-.3-.59-.61a.86.86,0,0,1,.15-.44l3.73-6.46-.05,0-4.69-2.8a.62.62,0,0,1-.41-.56.74.74,0,0,1,.34-.57l.29-.24a.88.88,0,0,1,.62-.25.89.89,0,0,1,.51.17l4.35,2.61,3.88-6.71h-8.37Zm17-9.6a.58.58,0,0,1,0,.21c0,.31-.22.48-.66.52l-.72.07c-.5.06-.82-.1-.93-.48l-1.28-3.9a1.06,1.06,0,0,1,0-.21c0-.3.22-.48.66-.51l.71-.08q.8-.09,1,.48Zm2.71-1.13a1,1,0,0,1,0,.2c0,.29-.21.46-.64.52l-.71.1c-.53.06-.84-.1-1-.49l-1.25-3.63a.56.56,0,0,1,0-.12.37.37,0,0,1,0-.11c0-.27.22-.44.66-.5l.71-.09q.8-.09,1,.48Z" class="cls-4"/><path data-cppathid="10018" transform="translate(3.6 15.29)" d="M295.41,312.55c.54,0,.81.25.81.74s-.27.74-.81.74H278.86c-.54,0-.81-.25-.81-.74s.27-.74.81-.74Z" class="cls-4"/></g><g data-name="Alumni PBI" id="Alumni_PBI"><path data-cppathid="10019" transform="translate(3.6 15.29)" d="M403.28,444.08a12.39,12.39,0,0,1-12.39,12.38H12.38A12.38,12.38,0,0,1,0,444.08V382.66a12.38,12.38,0,0,1,12.38-12.38H390.89a12.39,12.39,0,0,1,12.39,12.38Z" class="cls-3"/><path data-cppathid="10020" transform="translate(3.6 15.29)" d="M152.68,406.43v.07h8.18c.54,0,.81.25.81.74s-.27.74-.81.74h-19.5c-.54,0-.81-.25-.81-.74s.27-.74.81-.74h8.18v-2.92a.72.72,0,0,1,.81-.81h1.52a.72.72,0,0,1,.81.81Zm0,17.44a.72.72,0,0,1-.81.81h-1.52a.72.72,0,0,1-.81-.81v-2.56h-8.18c-.54,0-.81-.24-.81-.73s.27-.74.81-.74h8.18v-2a.72.72,0,0,1,.81-.82h1.52a.72.72,0,0,1,.81.82v2h8.18c.54,0,.81.25.81.74s-.27.73-.81.73h-8.18Zm-9.2-6.07a.92.92,0,0,1-.74.47l-.15,0-.17,0-1.11-.32c-.37-.13-.56-.34-.56-.61a.89.89,0,0,1,.15-.47l4.91-8.11a.89.89,0,0,1,.73-.46h.15l.17,0,1.11.32c.38.13.56.33.56.61a1.11,1.11,0,0,1-.14.47l-1.57,2.6,0,0,3.24,3a.69.69,0,0,1,.3.54c0,.23-.15.41-.45.56l-.61.32a.93.93,0,0,1-.49.15.89.89,0,0,1-.64-.3l-2.55-2.38Zm11-1.45a.87.87,0,0,1-.76.44,1.39,1.39,0,0,1-.32,0l-1.06-.32c-.38-.13-.56-.33-.56-.59a.64.64,0,0,1,0-.24l.13-.23,4.37-6.68a.88.88,0,0,1,.76-.44,1.09,1.09,0,0,1,.32.05l1,.32c.38.13.57.32.57.59a.68.68,0,0,1-.05.22,1.34,1.34,0,0,1-.12.24l-1.67,2.56a1,1,0,0,1,.22.19l3.88,4.37a.76.76,0,0,1,.24.52c0,.26-.16.46-.49.59l-.81.34a.92.92,0,0,1-.44.1.81.81,0,0,1-.66-.34l-3.29-3.71Z" class="cls-4"/><path data-cppathid="10021" transform="translate(3.6 15.29)" d="M177.24,424.06a.72.72,0,0,1-.81.81h-1.52a.72.72,0,0,1-.81-.81v-2.58l-6.39,2.63a.86.86,0,0,1-.41.1.89.89,0,0,1-.69-.37l-.08-.1a.87.87,0,0,1-.22-.51c0-.26.17-.46.49-.59l4.67-1.92h-5.55c-.54,0-.81-.24-.81-.73s.27-.74.81-.74h8.18V418h-7.22c-.54,0-.81-.25-.81-.74s.27-.74.81-.74h7.22v-1.13h-7.93c-.54,0-.81-.24-.81-.73s.27-.74.81-.74h4l-.59-3.61a1.09,1.09,0,0,1,0-.22h-3.66c-.54,0-.81-.25-.81-.74s.27-.73.81-.73h5.72v-4.84a.72.72,0,0,1,.81-.81h1.53a.72.72,0,0,1,.81.81v4.84h1.89v-4.84a.72.72,0,0,1,.81-.81H179a.72.72,0,0,1,.81.81v4.84h5.92c.54,0,.81.24.81.73s-.27.74-.81.74h-3.93v0a1.57,1.57,0,0,1,0,.25l-.84,3.56h4.15c.54,0,.81.25.81.74s-.27.73-.81.73h-7.81v1.13h7.2c.54,0,.81.25.81.74s-.27.74-.81.74h-7.2v1.25h8.18c.54,0,.81.25.81.74s-.27.73-.81.73h-5.75l5,1.94c.36.15.54.35.54.59a.74.74,0,0,1-.2.44l-.12.15a.89.89,0,0,1-.71.37,1.25,1.25,0,0,1-.4-.07l-6.53-2.58Zm-7-17a.85.85,0,0,1,0,.25q0,.58-.69.66l-1.48.15a.77.77,0,0,1-.93-.67l-.69-3.14a.37.37,0,0,1,0-.12v-.13c0-.39.24-.61.71-.66l1.48-.15a.77.77,0,0,1,.93.69Zm3,6.63a1.09,1.09,0,0,1,0,.22h4.55v0a.94.94,0,0,1,0-.25l.84-3.56h-6Zm11.34-6.26a.76.76,0,0,1-.91.69L182.2,408c-.55-.05-.78-.35-.69-.91l.59-2.9a.76.76,0,0,1,.91-.69l1.48.15c.55.05.78.35.68.91Z" class="cls-4"/><path data-cppathid="10022" transform="translate(3.6 15.29)" d="M192.07,414.41a.79.79,0,0,1-.76.54h-.12l-.12,0-1.23-.25c-.41-.1-.62-.32-.62-.66a1,1,0,0,1,.08-.37l4.3-9.38a.79.79,0,0,1,.76-.54h.12l.12,0,1.23.25c.41.1.62.3.62.61a1,1,0,0,1-.1.42L195,408h4.35v-4.32a.72.72,0,0,1,.81-.81h1.52a.72.72,0,0,1,.81.81V408h6.68c.54,0,.81.25.81.74s-.27.74-.81.74h-6.68v6.16h5.7c.54,0,.81.25.81.74s-.27.73-.81.73h-5.7v5.33h7.42c.54,0,.81.25.81.74s-.27.74-.81.74h-19.5c-.54,0-.81-.25-.81-.74s.27-.74.81-.74h8.94v-5.33h-6.58c-.54,0-.81-.24-.81-.73s.27-.74.81-.74h6.58v-6.16h-5Z" class="cls-4"/><path data-cppathid="10023" transform="translate(3.6 15.29)" d="M222.82,407.49c.54,0,.81.24.81.73s-.27.74-.81.74h-7.49c-.54,0-.81-.25-.81-.74s.27-.73.81-.73Zm.64,15.93a.72.72,0,0,1-.81.82h-1.53a.74.74,0,0,1-.71-.37h-2.55a.71.71,0,0,1-.81.68h-1.52a.72.72,0,0,1-.81-.81v-5.25a.72.72,0,0,1,.81-.81h1.52a.76.76,0,0,1,.69.32h4.91a.72.72,0,0,1,.81.81Zm-1-12.32c.54,0,.81.24.81.73s-.27.74-.81.74h-6.78c-.54,0-.81-.24-.81-.74s.27-.73.81-.73Zm-.07,3.68c.54,0,.81.25.81.74s-.27.73-.81.73H215.8c-.54,0-.81-.24-.81-.73s.27-.74.81-.74Zm-.47-9.65c.34.15.52.34.52.59a.79.79,0,0,1-.2.47l-.12.14a.92.92,0,0,1-.69.37.87.87,0,0,1-.42-.1l-4.69-1.94c-.34-.14-.51-.34-.51-.59a.75.75,0,0,1,.19-.46l.12-.15a.92.92,0,0,1,.69-.37.87.87,0,0,1,.42.1Zm-1.6,14.34h-2.45v2.92h2.45Zm12.26,1.4a.72.72,0,0,1,.81-.81h1.52a.72.72,0,0,1,.81.81v2.19a.72.72,0,0,1-.81.81h-9.23a.72.72,0,0,1-.81-.81V412.94a.72.72,0,0,1,.81-.81h1.52a.75.75,0,0,1,.69.32h3.83v-6.51h-7.29c-.55,0-.81-.25-.81-.74s.26-.73.81-.73H234a.72.72,0,0,1,.81.81v8.1a.72.72,0,0,1-.81.81h-1.52a.73.73,0,0,1-.64-.27H228v8.47h4.57Z" class="cls-4"/><path data-cppathid="10024" transform="translate(3.6 15.29)" d="M247.06,421.58a.81.81,0,0,1,.81.35.74.74,0,0,1,.12-.27l2-3.22a.86.86,0,0,1,.76-.44,1.09,1.09,0,0,1,.32.05l1,.32c.38.13.57.32.57.59a.74.74,0,0,1,0,.22,1.34,1.34,0,0,1-.12.24l-2,3.22a.9.9,0,0,1-.76.44,1.57,1.57,0,0,1-.32-.05l-1.06-.32a1.18,1.18,0,0,1-.39-.19q0,.47-.69.54l-6.41.73a.79.79,0,0,1-.93-.66.56.56,0,0,1,0-.2c0-.34.23-.55.71-.63l1.77-.2v-5.6H240.5c-.54,0-.81-.25-.81-.74s.27-.73.81-.73h1.92v-2.58a1,1,0,0,1,.07-.42h-.39a.78.78,0,0,1-.62-.22l-.37.71a.82.82,0,0,1-.76.52l-.27-.05-1.2-.3c-.38-.1-.57-.3-.57-.61a1,1,0,0,1,.1-.42l4.3-8.45a.83.83,0,0,1,.76-.51,1,1,0,0,1,.27.05L245,403c.37.1.56.31.56.62v0a1.51,1.51,0,0,1,.32.34l3.41,5.65a.92.92,0,0,1,.15.47c0,.31-.19.52-.57.61l-1.1.32a.78.78,0,0,1,0,.22c0,.49-.27.74-.81.74h-1.47a.77.77,0,0,1,.1.42V415h1.89c.54,0,.81.24.81.73s-.27.74-.81.74h-1.89v5.25Zm-4.94-.64c0,.53-.19.81-.56.84l-1.08.05c-.38,0-.58-.22-.59-.76l-.13-3c0-.52.15-.8.54-.83l1.08-.05c.38,0,.58.22.59.76Zm0-10.38h4.49l-2.45-4Zm5.94,10.14c-.08.52-.28.76-.61.71l-1-.12c-.41-.05-.58-.35-.49-.91l.29-2.53c.08-.52.29-.76.61-.71l1,.12c.39.05.55.35.47.91Zm4.23-4.79a1,1,0,0,1,.12.44c0,.31-.19.52-.56.62l-1.16.29-.15,0h-.14a.82.82,0,0,1-.74-.49l-1.45-2.58a1,1,0,0,1-.12-.44c0-.31.19-.52.56-.62l1.16-.29.14,0h.15a.82.82,0,0,1,.74.49Zm-1,8.2c-.49-.05-.74-.25-.74-.61a.88.88,0,0,1,.26-.68.85.85,0,0,1,.68-.18l1.2.12V412.42H249c-.54,0-.81-.24-.81-.73s.27-.74.81-.74h7.12v-2.19h-6.6c-.54,0-.81-.24-.81-.73s.27-.74.81-.74h6.6V405.1h-7c-.54,0-.81-.24-.81-.73s.27-.74.81-.74h9.36a.72.72,0,0,1,.81.81V411h.05c.54,0,.81.25.81.74s-.27.73-.81.73h-3.42v3.49l1.35-2.31a.88.88,0,0,1,.74-.47l.15,0,.17,0,1.1.3c.38.1.57.29.57.59a1,1,0,0,1-.15.47l-1.89,3.21a.87.87,0,0,1-.74.47H257l-.17,0-.69-.17,3.61,3.88a.75.75,0,0,1,.24.54c0,.24-.16.44-.49.59l-.76.32a1,1,0,0,1-.42.09,1,1,0,0,1-.68-.34l-1.8-1.94v2.58c0,.56-.28.81-.86.76Z" class="cls-4"/></g><g data-name="Scholarship PBI" id="Scholarship_PBI"><path data-cppathid="10025" transform="translate(3.6 15.29)" d="M403.28,547.63A12.39,12.39,0,0,1,390.89,560H12.38A12.38,12.38,0,0,1,0,547.63V486.21a12.38,12.38,0,0,1,12.38-12.38H390.89a12.39,12.39,0,0,1,12.39,12.38Z" class="cls-3"/><path data-cppathid="10026" transform="translate(3.6 15.29)" d="M141.76,527.64a1.25,1.25,0,0,1-.4.07.86.86,0,0,1-.71-.44l0,0a1,1,0,0,1-.15-.47c0-.28.19-.48.56-.61a23.11,23.11,0,0,0,6.54-3h-6.19c-.54,0-.81-.24-.81-.73s.27-.74.81-.74h7.54a3.38,3.38,0,0,0,.34-.83.85.85,0,0,1,.86-.74h1.52l.42,0a.57.57,0,0,1-.1-.34.72.72,0,0,1,.86-.81l4,.17v-3.61h-8.38c-.54,0-.81-.24-.81-.74s.27-.73.81-.73h8.38a.72.72,0,0,1,.81-.71h1.52a.85.85,0,0,1,.6.19.69.69,0,0,1,.21.52h1.18c.54,0,.81.24.81.73s-.27.74-.81.74H160v4.4a.82.82,0,0,1-.22.61.77.77,0,0,1-.61.2l-6.44-.3-.24,0v0a3.85,3.85,0,0,1-.37,1.23h8.77c.54,0,.81.25.81.74s-.27.73-.81.73h-8l8.4,3c.36.13.54.33.54.59a.67.67,0,0,1-.17.44l-.1.15a.86.86,0,0,1-.69.39.48.48,0,0,1-.2,0l-.22-.06-10.41-3.78A29.34,29.34,0,0,1,141.76,527.64Zm5.13-8.13a.72.72,0,0,1-.81.81h-1.52a.72.72,0,0,1-.82-.81v-1.72l-1.52.71a.92.92,0,0,1-.44.1.88.88,0,0,1-.66-.3l-.13-.12a.78.78,0,0,1-.27-.54c0-.24.16-.44.47-.59l2.53-1.18h0v-4l-2.43-1.43c-.27-.18-.41-.37-.41-.56a.8.8,0,0,1,.34-.57l.25-.2a1,1,0,0,1,.63-.24,1,1,0,0,1,.5.15l1.12.66v-1.77a.72.72,0,0,1,.82-.81h1.52a.72.72,0,0,1,.81.81Zm2.26-10.27a.85.85,0,0,1-.64-.19.83.83,0,0,1-.25-.64c0-.39.25-.62.74-.66l11.12-.84a.77.77,0,0,1,.67.2.89.89,0,0,1,.24.66c0,.38-.24.59-.73.64Zm2.87,2.85a1.6,1.6,0,0,1,0,.27q0,.61-.69.69l-1.37.17a.8.8,0,0,1-1-.61l-.61-2.14a.83.83,0,0,1,0-.15.66.66,0,0,1,0-.14c0-.4.22-.62.66-.67l1.4-.17a.8.8,0,0,1,1,.62Zm2.14,5.11c.32.15.49.34.49.59a.69.69,0,0,1-.25.49l-.17.17a.92.92,0,0,1-.66.3,1,1,0,0,1-.44-.1l-3-1.4c-.33-.15-.49-.34-.49-.59a.69.69,0,0,1,.25-.49L150,516a.88.88,0,0,1,.66-.3.92.92,0,0,1,.44.1Zm1.72-5.26a1.69,1.69,0,0,1,0,.25q0,.62-.69.69l-1.42.17a.79.79,0,0,1-.93-.66l-.5-2a.77.77,0,0,1,0-.15v-.12c0-.39.22-.62.66-.66l1.43-.18a.8.8,0,0,1,.93.67Zm3.9.27a.8.8,0,0,1-1,.62l-1.4-.22c-.44-.05-.66-.27-.66-.67a1.58,1.58,0,0,1,.05-.29l.66-2.23a.8.8,0,0,1,1-.62l1.4.22c.44.05.66.27.66.67a1,1,0,0,1-.05.29Z" class="cls-4"/><path data-cppathid="10027" transform="translate(3.6 15.29)" d="M171.4,527.59c-.43-.1-.64-.31-.64-.62a.65.65,0,0,1,.07-.29l0,0a.75.75,0,0,1,.73-.54l.27,0,2,.42v-4.15h-7.74c-.54,0-.81-.24-.81-.74s.27-.73.81-.73h7.74v-.1a1.41,1.41,0,0,1,.41-1l3.29-3.09h-7.24c-.54,0-.81-.25-.81-.74s.27-.73.81-.73H181c.46,0,.69.15.69.46a.79.79,0,0,1-.3.54L177,520.37v.54h8.18c.54,0,.81.24.81.73s-.27.74-.81.74H177v5.45c0,.51-.22.76-.66.76a.65.65,0,0,1-.22,0Zm-5.75-15.38a.72.72,0,0,1,.81-.81h1.06l-1-3.14a.83.83,0,0,1,0-.15.66.66,0,0,1,0-.14c0-.4.22-.62.66-.67l1.4-.19a.76.76,0,0,1,1,.59l1,3.41a.83.83,0,0,1,0,.15.71.71,0,0,1,0,.14,1,1,0,0,1,0,.2h3.78l-.94-3.41,0-.15a.76.76,0,0,1,0-.15q0-.58.66-.66l1.42-.17a.76.76,0,0,1,1,.64l1,3.46s0,.1,0,.15,0,.09,0,.14a.4.4,0,0,1,0,.15h2.9v-.12a1.46,1.46,0,0,1,.07-.39l1.43-3.49a.78.78,0,0,1,1-.57l1.3.25c.41.08.62.29.62.61a1.29,1.29,0,0,1-.08.4l-1.35,3.31H186c.51,0,.76.21.76.64a.53.53,0,0,1,0,.13.74.74,0,0,1,0,.14l-.74,3a.79.79,0,0,1-.93.66l-1.42-.17q-.69-.08-.69-.69a1.69,1.69,0,0,1,0-.25l.49-1.94H168.79v2.14a.72.72,0,0,1-.81.81h-1.52a.72.72,0,0,1-.81-.81Z" class="cls-4"/><path data-cppathid="10028" transform="translate(3.6 15.29)" d="M199.24,506.39a.86.86,0,0,1,.62-.27,1.43,1.43,0,0,1,.49.13l.66.32c.3.14.44.32.44.51a2.2,2.2,0,0,1,.25.17l9,7.89a.7.7,0,0,1,.29.54.75.75,0,0,1-.41.59l-.59.32a1.1,1.1,0,0,1-.52.14,1,1,0,0,1-.61-.27l-8.8-7.71-8.2,7.69a.84.84,0,0,1-.61.27,1.33,1.33,0,0,1-.49-.12l-.67-.32c-.29-.15-.44-.34-.44-.57a.81.81,0,0,1,.3-.56Zm2.21,19.21a.9.9,0,0,1,0,.34h6.1c.54,0,.81.25.81.74s-.27.74-.81.74H192.27c-.54,0-.81-.25-.81-.74s.27-.74.81-.74h6.09a1.16,1.16,0,0,1-.05-.34v-5.55h-6.6c-.55,0-.82-.25-.82-.74s.27-.73.82-.73h6.6V516a1.22,1.22,0,0,1,.07-.42H195c-.54,0-.81-.25-.81-.74s.27-.73.81-.73h9.68c.54,0,.81.24.81.73s-.27.74-.81.74h-3.36a.87.87,0,0,1,.09.42v2.58h6.61c.54,0,.81.24.81.73s-.27.74-.81.74h-6.61ZM197,524.32a1.57,1.57,0,0,1,0,.32c0,.38-.22.59-.66.64l-1.38.2h-.19a.74.74,0,0,1-.77-.61l-1-3a1.68,1.68,0,0,1-.05-.32c0-.38.22-.59.67-.64l1.37-.2h.2a.74.74,0,0,1,.76.61Zm9.33.52a.77.77,0,0,1-1,.61l-1.37-.22c-.44-.05-.66-.26-.66-.64a1.09,1.09,0,0,1,0-.32l1-3.09a.78.78,0,0,1,1-.62l1.38.23c.44,0,.66.26.66.63a1.48,1.48,0,0,1,0,.32Z" class="cls-4"/><path data-cppathid="10029" transform="translate(3.6 15.29)" d="M215.65,527.73c-.48-.08-.71-.28-.71-.61a.65.65,0,0,1,0-.22q.19-.76.66-.69l.49.08V522.6l-.09.08a1,1,0,0,1-.57.19,1.1,1.1,0,0,1-.56-.19l-.4-.27a.74.74,0,0,1-.36-.57.68.68,0,0,1,.36-.56l1.62-1.13V514h-1.3c-.54,0-.81-.24-.81-.73s.27-.74.81-.74h1.3v-5.3a.73.73,0,0,1,.82-.82h1.52a.72.72,0,0,1,.81.82v5.3h1c.54,0,.81.24.81.74s-.27.73-.81.73h-1v4a.86.86,0,0,1,1.08,0l.39.27a.67.67,0,0,1,.37.56.73.73,0,0,1-.37.57l-1.47,1v6.85c0,.59-.29.85-.86.76Zm6.58-18.56a.92.92,0,0,1-.66-.18.78.78,0,0,1-.27-.65c0-.38.24-.59.73-.64l12.18-1a.85.85,0,0,1,.68.18.81.81,0,0,1,.26.66c0,.38-.25.59-.74.64Zm2.48,7.37a.72.72,0,0,1-.81.81h-1.52a.72.72,0,0,1-.81-.81V514.3a.72.72,0,0,1,.81-.81H223l-.66-2.68a.78.78,0,0,1,0-.24q0-.61.69-.69l1.42-.17a.79.79,0,0,1,.94.66l.66,2.7a.9.9,0,0,1,0,.25.73.73,0,0,1,0,.22h.71a1.14,1.14,0,0,1-.07-.22l-.57-2.9a.92.92,0,0,1,0-.19c0-.43.25-.67.74-.72l1.47-.14a.76.76,0,0,1,.91.68l.54,2.9a1.09,1.09,0,0,1,0,.22.7.7,0,0,1-.09.37H230v-.07a.77.77,0,0,1,0-.15,1.22,1.22,0,0,1,0-.17l1.06-3.39a.78.78,0,0,1,1-.62l1.4.23c.42.05.64.26.64.63v.15a.41.41,0,0,1-.05.17l-1,3.22h1.35c.59,0,.84.29.76.86l-.29,2.09a.76.76,0,0,1-.89.71l-1.47-.1c-.57,0-.82-.33-.74-.88L232,515h-7.24Zm-1.4,11.12-.15,0H223a.74.74,0,0,1-.72-.59,1.55,1.55,0,0,1,0-.17.77.77,0,0,1,0-.15c0-.31.2-.52.59-.64a13.47,13.47,0,0,0,2.12-.92,11.37,11.37,0,0,0,2.28-1.58l-3.09-2.11a.74.74,0,0,1-.4-.59.66.66,0,0,1,.37-.54l.39-.27a1,1,0,0,1,.57-.2.8.8,0,0,1,.56.2l3,2.06a7.29,7.29,0,0,0,.86-1.41,5.36,5.36,0,0,0,.44-1.59h-6.31c-.54,0-.81-.24-.81-.73s.27-.74.81-.74h8.67a.79.79,0,0,1,.62.26,1,1,0,0,1,.21.77,5.64,5.64,0,0,1-.77,2.56,10.18,10.18,0,0,1-1.76,2.21l3.79,2.57a.75.75,0,0,1,.39.59.72.72,0,0,1-.37.54l-.39.27a.84.84,0,0,1-.57.2,1,1,0,0,1-.56-.2L229,524.86a18.36,18.36,0,0,1-3,1.78A15.88,15.88,0,0,1,223.31,527.66Z" class="cls-4"/><path data-cppathid="10030" transform="translate(3.6 15.29)" d="M245,525.87c-.42-.1-.64-.3-.64-.59a.72.72,0,0,1,.08-.32l0-.05a.83.83,0,0,1,.79-.54h.12l.12,0,6.56,1.45,1-4.32H239.42c-.54,0-.81-.24-.81-.73s.27-.74.81-.74h14l.62-2.68h-9.68c-.57,0-.83-.28-.79-.83l.84-9.29a.71.71,0,0,1,.86-.73l1.52.07a.7.7,0,0,1,.76.86l-.29,3.14h10.48c.54,0,.81.25.81.74s-.27.74-.81.74H247.15l-.34,3.83h9.82c.49,0,.74.21.74.64a1.54,1.54,0,0,1,0,.24l-.77,3.27h3.25c.54,0,.81.24.81.74s-.27.73-.81.73h-3.59l-1.33,5.7a.7.7,0,0,1-.71.64h-.12a.21.21,0,0,1-.12,0Z" class="cls-4"/></g><g id="heading"><g id="underline"><path data-cppathid="10031" transform="translate(3.6 15.29)" d="M336.12,52.36,325,52c-1.08,0-2.16,0-3.24,0a21.69,21.69,0,0,1-2.93-.08,39.25,39.25,0,0,0-5.84-.25c-4.4-.09-8.8-.24-13.21-.31-2.24,0-4.47-.32-6.73-.15-3.48-.39-7.05.07-10.54-.36a16.44,16.44,0,0,0-3.21,0,27.58,27.58,0,0,1-3.52,0c-1.84-.07-3.7-.06-5.55-.13a120.73,120.73,0,0,0-12.62.08,5.17,5.17,0,0,1-.88,0c-3.81-.37-7.65-.13-11.47-.17-.88,0-1.78,0-2.65-.07a41.15,41.15,0,0,0-7.28.12,61.06,61.06,0,0,1-7,0c-2.16,0-4.32,0-6.47,0-1.67,0-3.34.06-5,0-3.93-.12-7.85-.05-11.76.15a14.76,14.76,0,0,1-1.76,0c-4.7-.34-9.41-.16-14.12-.12-1.67,0-3.34,0-5,0-2.34,0-4.69.09-7,.15a23,23,0,0,1-2.34,0,33.18,33.18,0,0,0-5.55,0,15.51,15.51,0,0,1-2.64,0c-1.44-.16-2.91-.18-4.35-.29a63.09,63.09,0,0,0-6.74.05c-3.52.09-7.06.07-10.6.08-2.75,0-5.49,0-8.24,0-1.57,0-3.15,0-4.71,0a31,31,0,0,0-4.09.14,15.66,15.66,0,0,1-3.21,0,24.4,24.4,0,0,0-4.68,0,18.64,18.64,0,0,1-4.09,0,17.23,17.23,0,0,0-2-.08c-1,0-2,0-2.94,0-3.63-.14-7.26-.08-10.89,0-.49,0-1,0-1.46,0-4.81-.09-9.6-.2-14.41.06-1.74.09-3.52-.12-5.29-.11-3.23,0-6.47.11-9.71.1-2.74,0-5.49-.09-8.23-.18-2-.06-4.1-.14-6.16,0a29.47,29.47,0,0,1-5.56-.17,19.23,19.23,0,0,0-4.09-.13c-.48,0-1,0-1.47,0a3.69,3.69,0,0,1-3-1c-.54-.57-.21-1.58.71-2a4.54,4.54,0,0,1,1.59-.33c1.66,0,3.33,0,5,0,1.47,0,2.92.19,4.39.19,4,0,8,0,12.07,0,1.18,0,2.36,0,3.54,0a12.53,12.53,0,0,0,2-.05,11.37,11.37,0,0,1,3.19-.06,4.62,4.62,0,0,0,1.17.06c3.47-.44,7,.27,10.51-.2a38,38,0,0,1,4.41,0c2,0,3.93,0,5.89-.05,2.83,0,5.67-.15,8.5,0a16.72,16.72,0,0,0,2.35,0,74.9,74.9,0,0,1,7.93-.13,39.09,39.09,0,0,0,5,0c.48,0,1,0,1.47,0,2.94-.07,5.87-.15,8.81-.2,1.07,0,2.14,0,3.22.08a13,13,0,0,0,1.75.06,34.39,34.39,0,0,1,5.83,0,14.42,14.42,0,0,0,1.47,0c4.28-.4,8.62-.13,12.92-.26,1.47,0,2.94-.09,4.41-.11,2.24,0,4.49-.06,6.72,0,1.57,0,3.1,0,4.67-.07,1.34-.09,2.73,0,4.1,0,.87,0,1.76.11,2.62.07a67.58,67.58,0,0,1,10.26,0,5.14,5.14,0,0,0,1.17-.06,23.61,23.61,0,0,1,4.68,0,18.85,18.85,0,0,0,2.91,0,35.62,35.62,0,0,1,7.3,0,8.57,8.57,0,0,0,1.74.11c2.42-.24,4.87,0,7.28-.15a6.47,6.47,0,0,1,.88,0c5.48.36,11,.13,16.48.22,3.43.06,6.87,0,10.3,0,1,0,1.95.1,2.93.12.68,0,1.36,0,2,0a7.86,7.86,0,0,1,1.15-.08,39.23,39.23,0,0,0,6.13.13,87.45,87.45,0,0,1,9,.38,5.17,5.17,0,0,0,.88,0c2.84-.21,5.68.06,8.52,0,1.07,0,2.15.07,3.22.13a7.83,7.83,0,0,0,1.15.11c2.55-.28,5.06.13,7.6.12.19,0,.39,0,.59,0a90.11,90.11,0,0,1,10.8.51c.68,0,1.38.07,2.06.06,4-.07,8,.25,12,.42,1.16.05,2.28.3,3.44.37s2.14-.06,3.19,0q9.36.54,18.71,1.15c3.22.2,6.4.52,9.65.58a26.24,26.24,0,0,1,3.44.39,5.68,5.68,0,0,1,1.44.49c.42.19.21.71-.31.78a14.86,14.86,0,0,1-2,.16c-3.15,0-6.29,0-9.43,0Z" class="cls-4"/></g><path data-cppathid="10032" transform="translate(3.6 15.29)" d="M63.52,39a1.12,1.12,0,0,1-1,.61,1.91,1.91,0,0,1-.42-.06l-1.37-.42c-.5-.17-.74-.44-.74-.8a1.1,1.1,0,0,1,.19-.57L71.65,19.41H52.06q-1.05,0-1.05-1t1.05-1H75.45c.6,0,.9.22.9.67a1.32,1.32,0,0,1-.19.61Zm11-20.18a6.74,6.74,0,0,1-2.76-.56,5,5,0,0,1-2-1.53,3.42,3.42,0,0,1-.73-2.16,3.46,3.46,0,0,1,.73-2.16,5,5,0,0,1,2-1.51,7.23,7.23,0,0,1,5.53,0,5,5,0,0,1,2,1.51A3.51,3.51,0,0,1,80,14.59a3.47,3.47,0,0,1-.72,2.16,5,5,0,0,1-2,1.53A6.69,6.69,0,0,1,74.56,18.84Zm-.09-1.41A2,2,0,0,0,75.6,17,3.35,3.35,0,0,0,76.52,16a2.76,2.76,0,0,0,.37-1.39,2.8,2.8,0,0,0-.36-1.39,3,3,0,0,0-.91-1,2,2,0,0,0-1.15-.38,2,2,0,0,0-1.13.38,3.08,3.08,0,0,0-.93,1,2.9,2.9,0,0,0-.35,1.39A2.76,2.76,0,0,0,72.43,16,3.23,3.23,0,0,0,73.35,17,1.94,1.94,0,0,0,74.47,17.43Z" class="cls-4"/><path data-cppathid="10033" transform="translate(3.6 15.29)" d="M107.39,38.19a.93.93,0,0,1-1.06,1.06h-2a.92.92,0,0,1-1-.67H87.07a.92.92,0,0,1-1,.67h-2a.93.93,0,0,1-1-1.06V18.74a.93.93,0,0,1,1-1.06h2a1.36,1.36,0,0,1,.29,0h20a.93.93,0,0,1,1.06,1.06Zm-4.1-18.56H87.13v17h16.16Z" class="cls-4"/><path data-cppathid="10034" transform="translate(3.6 15.29)" d="M117,29.1a1,1,0,0,1-.9.61h-.22l-.23-.05-1.5-.39c-.49-.12-.74-.39-.74-.8a1.37,1.37,0,0,1,.16-.57l7.14-12.61a1,1,0,0,1,.9-.61l.22,0a1.12,1.12,0,0,1,.22.05l1.51.38c.49.13.73.39.73.8a1.31,1.31,0,0,1-.16.58l0,.06H137.6c.62,0,.93.24.93.7a1.29,1.29,0,0,1-.2.58L126.11,39a1.12,1.12,0,0,1-1,.61H125l-.23,0-1.44-.39c-.51-.12-.76-.39-.76-.8a1.1,1.1,0,0,1,.19-.57l4.86-8.42-.06,0-6.12-3.65a.85.85,0,0,1-.54-.73,1,1,0,0,1,.45-.74l.38-.32a1.16,1.16,0,0,1,1.48-.1l5.66,3.4,5-8.74H123ZM139.1,16.6a1,1,0,0,1,0,.27c0,.4-.28.63-.86.68l-.93.09c-.66.08-1.07-.13-1.21-.63l-1.67-5.08a.88.88,0,0,1,0-.26c0-.41.29-.63.86-.68l.93-.1c.68-.08,1.1.13,1.25.63Zm3.52-1.47a.88.88,0,0,1,0,.26c0,.37-.27.6-.83.68l-.93.12c-.68.08-1.1-.13-1.24-.63L138,10.82a1,1,0,0,1,0-.14.39.39,0,0,1,0-.15c0-.35.29-.57.86-.65l.93-.12c.68-.08,1.1.12,1.25.62Z" class="cls-4"/><path data-cppathid="10035" transform="translate(3.6 15.29)" d="M146.68,28.72a1.1,1.1,0,0,1-.92.58,1.47,1.47,0,0,1-.48-.1L144,28.78c-.5-.17-.74-.43-.74-.8a1,1,0,0,1,.22-.6l7.43-11.24a1.09,1.09,0,0,1,.92-.57,1.21,1.21,0,0,1,.48.09l1.32.42c.49.17.73.44.73.8a1.2,1.2,0,0,1-.22.61l-.13.19h14.75c.6,0,.9.22.9.67a1.28,1.28,0,0,1-.19.61l-12.8,20.58a1.13,1.13,0,0,1-1,.6,1.91,1.91,0,0,1-.42-.06l-1.38-.42c-.49-.17-.73-.43-.73-.8a1.1,1.1,0,0,1,.19-.57L164.92,19.6H152.7Z" class="cls-4"/><path data-cppathid="10036" transform="translate(3.6 15.29)" d="M181.08,39.22A.93.93,0,0,1,180,40.27h-2a.93.93,0,0,1-1-1.05V17a.93.93,0,0,1,1-1.06h2A.93.93,0,0,1,181.08,17v9.08l11.59,3.75c.49.17.73.42.73.77a1,1,0,0,1-.19.54l-.13.16a1.05,1.05,0,0,1-.92.54H192l-.24,0-10.63-3.42Z" class="cls-4"/><path data-cppathid="10037" transform="translate(3.6 15.29)" d="M201.88,37.84a1,1,0,0,1-1.21.8l-1.86-.22c-.59-.07-.89-.37-.89-.9a1.9,1.9,0,0,1,.06-.35l5.41-18.79a1,1,0,0,1,1.21-.8l1.86.23c.6.06.9.36.9.89a1.51,1.51,0,0,1-.07.36Zm21.22-.74a1.46,1.46,0,0,1,.05.2,1.15,1.15,0,0,1,0,.19c0,.51-.28.8-.86.86l-1.89.23a1,1,0,0,1-1.21-.8L213.88,19a1.29,1.29,0,0,1,0-.19,1.37,1.37,0,0,1,0-.19c0-.52.29-.8.86-.87l1.89-.22a1,1,0,0,1,1.22.83Zm-1.18-17.65a1.12,1.12,0,0,1,0,.29c0,.44-.29.69-.87.74l-.92.11c-.66.09-1.07-.14-1.22-.69l-1.66-5.56a1,1,0,0,1,0-.29c0-.44.29-.68.87-.74l.93-.1c.68-.09,1.09.14,1.24.68Zm3.52-1.61a1.07,1.07,0,0,1,0,.29c0,.4-.28.65-.83.74l-.93.13c-.68.09-1.1-.14-1.25-.69l-1.63-5.18a1,1,0,0,1-.05-.16.88.88,0,0,1,0-.16c0-.39.29-.63.87-.71l.93-.14c.68-.08,1.09.14,1.24.69Z" class="cls-4"/><path data-cppathid="10038" transform="translate(3.6 15.29)" d="M232.83,29.49a1.56,1.56,0,0,1,0,.35c0,.51-.29.8-.86.86l-1.86.23a1.07,1.07,0,0,1-1.25-.87l-1.21-4.92a.48.48,0,0,1,0-.2v-.16c0-.51.29-.8.87-.86l1.85-.22a1,1,0,0,1,1.22.86Zm5.25-.8a.85.85,0,0,1,0,.25q0,.84-1,.93l-1.92.16A1,1,0,0,1,234,29.1l-.86-4.92a.93.93,0,0,1,0-.26q0-.83,1-.93l1.92-.16a1,1,0,0,1,1.18.93Zm1.69,10.53a1.07,1.07,0,0,1-1,.7h-.16a.35.35,0,0,1-.16,0l-1.63-.39c-.52-.12-.77-.39-.77-.8a1.13,1.13,0,0,1,.13-.54l6.46-13.34a1.06,1.06,0,0,1,1-.71h.16a.35.35,0,0,1,.16,0l1.64.39c.51.13.76.39.76.8a1.25,1.25,0,0,1-.12.54Z" class="cls-4"/><path data-cppathid="10039" transform="translate(3.6 15.29)" d="M254.14,28.72a1.13,1.13,0,0,1-.93.58,1.47,1.47,0,0,1-.48-.1l-1.31-.42c-.49-.17-.74-.43-.74-.8a1.05,1.05,0,0,1,.23-.6l7.42-11.24a1.12,1.12,0,0,1,.93-.57,1.28,1.28,0,0,1,.48.09l1.31.42c.49.17.74.44.74.8a1.22,1.22,0,0,1-.23.61l-.12.19h14.75c.59,0,.89.22.89.67a1.28,1.28,0,0,1-.19.61l-12.8,20.58a1.11,1.11,0,0,1-1,.6,1.91,1.91,0,0,1-.41-.06l-1.38-.42c-.49-.17-.74-.43-.74-.8a1.12,1.12,0,0,1,.2-.57L272.38,19.6H260.16Z" class="cls-4"/><path data-cppathid="10040" transform="translate(3.6 15.29)" d="M307.58,38.19a.93.93,0,0,1-1.06,1.06h-2a.92.92,0,0,1-1-.67H287.26a.92.92,0,0,1-1,.67h-2a.93.93,0,0,1-1-1.06V18.74a.93.93,0,0,1,1-1.06h2a1.36,1.36,0,0,1,.29,0h20a.93.93,0,0,1,1.06,1.06Zm-4.1-18.56H287.32v17h16.16Z" class="cls-4"/><path data-cppathid="10041" transform="translate(3.6 15.29)" d="M317,28.72a1.13,1.13,0,0,1-.93.58,1.47,1.47,0,0,1-.48-.1l-1.31-.42c-.49-.17-.74-.43-.74-.8a1.05,1.05,0,0,1,.23-.6l7.42-11.24a1.11,1.11,0,0,1,.93-.57,1.28,1.28,0,0,1,.48.09l1.31.42c.49.17.74.44.74.8a1.22,1.22,0,0,1-.23.61l-.13.19H339c.59,0,.89.22.89.67a1.28,1.28,0,0,1-.19.61l-12.8,20.58a1.13,1.13,0,0,1-1,.6,1.91,1.91,0,0,1-.42-.06l-1.37-.42c-.49-.17-.74-.43-.74-.8a1.2,1.2,0,0,1,.19-.57L335.23,19.6H323ZM339.87,18a1.62,1.62,0,0,1,0,.35.84.84,0,0,1-.86.9l-.93.13a1,1,0,0,1-1.22-.84l-1.66-6.72a1.56,1.56,0,0,1,0-.35.83.83,0,0,1,.86-.89l.93-.13a1,1,0,0,1,1.25.83Zm3.52-1.95a1.56,1.56,0,0,1,0,.35c0,.49-.28.79-.83.9l-.93.16a1,1,0,0,1-1.25-.84l-1.63-6.27a1.33,1.33,0,0,1,0-.19,1.21,1.21,0,0,1,0-.19c0-.47.28-.76.86-.87l.93-.16a1,1,0,0,1,1.25.84Z" class="cls-4"/></g><g data-name="another PBI" id="another_PBI"><path data-cppathid="10042" transform="translate(3.6 15.29)" d="M360.71,638.42a9.85,9.85,0,0,1-9.86,9.85H49.6a9.85,9.85,0,0,1-9.85-9.85V589.53a9.85,9.85,0,0,1,9.85-9.85H350.85a9.85,9.85,0,0,1,9.86,9.85Z" class="cls-5"/><g class="cls-6"><path data-cppathid="10043" transform="translate(3.6 15.29)" d="M170.32,621.94a.63.63,0,0,1-.8.45l-1.05-.2q-.51-.09-.51-.51a.72.72,0,0,1,.06-.29l2.6-6.84a.6.6,0,0,1-.37.1H169a.57.57,0,0,1-.64-.65v-7.21a.56.56,0,0,1,.64-.64h1.22a.67.67,0,0,1,.46.15h5.56a.57.57,0,0,1,.64.65v7a.57.57,0,0,1-.64.65h-1.22a.56.56,0,0,1-.5-.22h-1.41a.89.89,0,0,1-.06.3l-.53,1.4h3.64c.39,0,.58.17.58.49a.49.49,0,0,1,0,.12.27.27,0,0,1,0,.12l-1.48,5.29a.58.58,0,0,1-.61.49h-.08a.13.13,0,0,1-.09,0l-2.33-.45q-.51-.09-.51-.48s0-.06,0-.1l0-.12,0,0a.64.64,0,0,1,.78-.43l.57.1,1.08-3.79h-2Zm4.09-14.46h-3.52v5.76h3.52Zm6,10.37a.58.58,0,0,1-.65.65h-1.21a.57.57,0,0,1-.64-.65v-9.71a.56.56,0,0,1,.64-.64h1.21a.57.57,0,0,1,.65.64Zm-.57,4.34c-.39,0-.59-.2-.59-.49a.66.66,0,0,1,.21-.53A.63.63,0,0,1,180,621l1.83.18V606.28a.57.57,0,0,1,.65-.64h1.21a.57.57,0,0,1,.65.64v15.64c0,.46-.23.66-.67.63Z" class="cls-7"/><path data-cppathid="10044" transform="translate(3.6 15.29)" d="M199.19,622.06a.63.63,0,0,1-.51.27.79.79,0,0,1-.37-.1l-.58-.27c-.25-.12-.38-.28-.38-.47a.9.9,0,0,1,.16-.41,6.67,6.67,0,0,0,.72-1.44,10.4,10.4,0,0,0,.49-1.79,10.16,10.16,0,0,0,.18-1.89,7.75,7.75,0,0,0-.88-3.91,3.89,3.89,0,0,0-2.48-1.9,26.88,26.88,0,0,1,.47,4.65,10.07,10.07,0,0,1-1.13,5.16,3.61,3.61,0,0,1-3.31,1.9,4.2,4.2,0,0,1-2.33-.64,4.29,4.29,0,0,1-1.54-1.77,5.8,5.8,0,0,1-.55-2.59,8.32,8.32,0,0,1,.57-3.09,8.2,8.2,0,0,1,1.57-2.55,7.42,7.42,0,0,1,2.33-1.73,6.46,6.46,0,0,1,2.82-.63,7.77,7.77,0,0,1,3.72.85,5.79,5.79,0,0,1,2.4,2.45,8,8,0,0,1,.84,3.8A8.87,8.87,0,0,1,199.19,622.06Zm-9.54-5.2a6.06,6.06,0,0,0,.28,1.9,4.08,4.08,0,0,0,.71,1.4,1.23,1.23,0,0,0,.93.53c.36,0,.69-.27,1-.81a7.8,7.8,0,0,0,.66-2.2,18.47,18.47,0,0,0,.25-3.13c0-.66,0-1.35-.09-2s-.16-1.42-.29-2.15a5.06,5.06,0,0,0-1.73,1.45,8,8,0,0,0-1.23,2.29A8.52,8.52,0,0,0,189.65,616.86Z" class="cls-7"/><path data-cppathid="10045" transform="translate(3.6 15.29)" d="M205.86,621.08a.65.65,0,0,1-.2.47.64.64,0,0,1-.47.19H204a.64.64,0,0,1-.47-.19.65.65,0,0,1-.2-.47V607.46a.63.63,0,0,1,.59-.63c.46-.05.89-.09,1.3-.11l1.18,0c4.43,0,6.65,1.72,6.65,5.14a3.71,3.71,0,0,1-1.67,3.3,9,9,0,0,1-4.88,1.1h-.32a1.94,1.94,0,0,1-.34,0Zm0-13.23V615l.8,0a6.86,6.86,0,0,0,2.33-.32,2.13,2.13,0,0,0,1.21-1,4,4,0,0,0,.37-1.87,6,6,0,0,0-.38-2.33,2.39,2.39,0,0,0-1.28-1.26,6.16,6.16,0,0,0-2.43-.39Z" class="cls-7"/><path data-cppathid="10046" transform="translate(3.6 15.29)" d="M214.34,607.51a.62.62,0,0,1,.64-.68c.54-.05,1-.09,1.52-.11l1.34,0a9.53,9.53,0,0,1,3.38.5,3.45,3.45,0,0,1,2.42,3.47,3.44,3.44,0,0,1-.61,2,4,4,0,0,1-2.24,1.34c2.08.72,3.13,1.91,3.13,3.58a4.33,4.33,0,0,1-.6,2.32,3.78,3.78,0,0,1-1.95,1.48,10.06,10.06,0,0,1-3.59.52l-1.3,0c-.46,0-1-.06-1.48-.11s-.66-.26-.66-.66Zm2.27.38v5.47a12.18,12.18,0,0,0,2.95-.36,3.08,3.08,0,0,0,1.57-.92,2.2,2.2,0,0,0,.48-1.42,3.37,3.37,0,0,0-.3-1.44,2.23,2.23,0,0,0-1.07-1,4.87,4.87,0,0,0-2.11-.37h-.73C217.1,607.86,216.84,607.87,216.61,607.89Zm0,12.88.62,0h.57a4.61,4.61,0,0,0,2.89-.78,2.81,2.81,0,0,0,1-2.39,2.51,2.51,0,0,0-1.16-2.25,8.23,8.23,0,0,0-3.92-.84Z" class="cls-7"/><path data-cppathid="10047" transform="translate(3.6 15.29)" d="M228.61,620.49v.08h.84a.71.71,0,0,1,.47.17.56.56,0,0,1,0,.84.71.71,0,0,1-.47.16h-4.19a.66.66,0,0,1-.46-.16.54.54,0,0,1,0-.84.67.67,0,0,1,.46-.17h.84V608.06h-.84a.66.66,0,0,1-.46-.16.54.54,0,0,1,0-.84.63.63,0,0,1,.46-.17h4.19a.67.67,0,0,1,.47.17.56.56,0,0,1,0,.84.71.71,0,0,1-.47.16h-.84v12.43Z" class="cls-7"/></g></g><g id="etc."><rect data-cppathid="10048" rx="7.28" height="50.68" width="237.14" y="683.23" x="84.13" class="cls-8"/><g class="cls-9"><path data-cppathid="10049" transform="translate(3.6 15.29)" d="M193.68,691.5a.44.44,0,0,1-.56.37l-.84-.1c-.27,0-.4-.16-.4-.4,0,0,0-.09,0-.16l1-3.58a.44.44,0,0,1,.56-.38l.84.1c.27,0,.4.17.4.41a.94.94,0,0,1,0,.16l-.27,1h3.13c.32,0,.48.14.48.43s-.16.43-.48.43h-1l.23,1.21a.44.44,0,0,1,0,.13c0,.25-.14.38-.42.41l-.87.09a.45.45,0,0,1-.53-.41l-.26-1.36a.14.14,0,0,1,0-.07h-.52Zm4.43,8.36c-.29,0-.44-.16-.44-.41a.41.41,0,0,1,.5-.46l2.07.1v-2.45h-7.86c-.32,0-.48-.15-.48-.44s.16-.43.48-.43h7.86v-.85h-7.89c-.32,0-.47-.15-.47-.43s.15-.44.47-.44h5.07a.61.61,0,0,1,0-.14V693h-4c-.32,0-.48-.14-.48-.43s.16-.44.48-.44h4v0a.42.42,0,0,1,.47-.48h.9a.42.42,0,0,1,.48.48v0h4c.31,0,.47.15.47.44s-.16.43-.47.43h-4v.87a.59.59,0,0,1,0,.14h5.06c.31,0,.47.15.47.44s-.16.43-.47.43h-2.21v.85h2.1c.32,0,.48.15.48.43s-.16.44-.48.44h-2.1v2.94c0,.33-.17.48-.5.47Zm-.5-2.15c.23,0,.35.17.35.34a.43.43,0,0,1-.06.22l0,.06a.51.51,0,0,1-.43.27h-.09l-.1,0-2.93-.81c-.23,0-.35-.17-.35-.34a.43.43,0,0,1,.06-.22l0-.06a.5.5,0,0,1,.43-.27h.09l.1,0Zm2-6.91a.46.46,0,0,1-.58.33l-.77-.14q-.36-.07-.36-.36a.74.74,0,0,1,.05-.23l1.15-2.82a.46.46,0,0,1,.58-.33l.76.14c.24.05.36.17.36.37a.74.74,0,0,1,0,.23l-.39.94H204c.32,0,.48.14.48.43s-.16.43-.48.43h-.71a.51.51,0,0,1,0,.2l-.55,1.52a.48.48,0,0,1-.58.35l-.78-.13c-.26-.05-.38-.18-.38-.38a.48.48,0,0,1,0-.2l.49-1.36H200Z" class="cls-10"/></g></g><g id="etcetc."><rect data-cppathid="10050" rx="5.07" height="35.3" width="165.16" y="753.58" x="119.29" class="cls-11"/><g class="cls-12"><path data-cppathid="10051" transform="translate(3.6 15.29)" d="M194.5,754.69a.33.33,0,0,1-.4.27l-.58-.07a.27.27,0,0,1-.28-.29s0-.05,0-.11l.68-2.49a.31.31,0,0,1,.4-.26l.58.07c.19,0,.28.11.28.28a.89.89,0,0,1,0,.11l-.19.7h2.18c.22,0,.33.1.33.31s-.11.3-.33.3h-.7l.16.84a.22.22,0,0,1,0,.09c0,.17-.1.27-.29.28l-.61.07a.32.32,0,0,1-.37-.29l-.18-.94a.07.07,0,0,1,0,0h-.36Zm3.08,5.83c-.2,0-.31-.11-.31-.28a.29.29,0,0,1,.35-.33l1.44.07v-1.7h-5.47c-.22,0-.33-.11-.33-.31s.11-.3.33-.3h5.47v-.59h-5.49q-.33,0-.33-.3c0-.2.11-.31.33-.31h3.53a.28.28,0,0,1,0-.1v-.6h-2.78c-.23,0-.34-.1-.34-.3s.11-.3.34-.3h2.78v0a.29.29,0,0,1,.33-.33h.63a.29.29,0,0,1,.33.33v0h2.78c.23,0,.34.1.34.3s-.11.3-.34.3h-2.78v.6a.28.28,0,0,1,0,.1h3.52c.22,0,.33.11.33.31s-.11.3-.33.3h-1.54v.59h1.47q.33,0,.33.3c0,.2-.11.31-.33.31h-1.47v2.05a.28.28,0,0,1-.34.32Zm-.35-1.5q.24.06.24.24a.26.26,0,0,1,0,.15l0,0a.34.34,0,0,1-.3.19h-.06l-.07,0-2-.56q-.24-.06-.24-.24a.24.24,0,0,1,0-.15l0,0a.34.34,0,0,1,.3-.19h.06l.07,0Zm1.4-4.81a.32.32,0,0,1-.4.23l-.53-.1c-.17,0-.26-.11-.26-.25a.55.55,0,0,1,0-.16l.81-2a.32.32,0,0,1,.4-.23l.53.1c.17,0,.26.12.26.25a.53.53,0,0,1,0,.16l-.27.65h2.52c.22,0,.33.1.33.31s-.11.3-.33.3h-.5a.44.44,0,0,1,0,.14l-.38,1.06a.34.34,0,0,1-.4.24l-.54-.09c-.18,0-.27-.12-.27-.27a.39.39,0,0,1,0-.14l.34-.94h-1Z" class="cls-13"/></g></g><g data-name="magnifying glass" id="magnifying_glass"><g class="cls-14"><path data-cppathid="10052" transform="translate(3.6 15.29)" d="M227.85,28.52c41.26,0,74.83,32,75.73,71.77,0-.54,0-1.09,0-1.63,0-40.52-33.95-73.4-75.77-73.4s-75.77,32.88-75.77,73.4c0,.54,0,1.09,0,1.63C153,60.51,186.57,28.52,227.85,28.52Z" class="cls-15"/></g><path data-cppathid="10053" transform="translate(3.6 15.29)" d="M111.92,114.9A114.91,114.91,0,1,0,226.83,0,115,115,0,0,0,111.92,114.9Z" class="cls-16"/><path data-cppathid="10054" transform="translate(3.6 15.29)" d="M122,112.23A106.15,106.15,0,1,0,228.14,6.07,106.28,106.28,0,0,0,122,112.23Z" class="cls-17"/><path data-cppathid="10055" transform="translate(3.6 15.29)" d="M138.39,113.16a90.71,90.71,0,1,0,90.7-90.71A90.82,90.82,0,0,0,138.39,113.16Z" class="cls-18"/><path data-cppathid="10056" transform="translate(3.6 15.29)" d="M138.39,113.16a90.71,90.71,0,1,0,90.7-90.71A90.82,90.82,0,0,0,138.39,113.16Z" class="cls-18"/><path data-cppathid="10057" transform="translate(3.6 15.29)" d="M311.56,112.23a83.4,83.4,0,1,1-83.42-83.42A83.4,83.4,0,0,1,311.56,112.23Z" class="cls-19"/><path data-cppathid="10058" transform="translate(3.6 15.29)" d="M153.46,130.58a75.49,75.49,0,0,0,147.58,0c-19.06,12.7-47.47-11.91-76.19-11.91S172.56,143.28,153.46,130.58Z" class="cls-20"/><path data-cppathid="10059" transform="translate(3.6 15.29)" d="M326.2,187.57a13.75,13.75,0,0,0-9.81,4.08h0L304.8,203.22a13.87,13.87,0,0,0,0,19.63l94.4,98a13.86,13.86,0,0,0,19.62,0l11.59-11.59a13.91,13.91,0,0,0,0-19.64L336,191.65A13.79,13.79,0,0,0,326.2,187.57Z" class="cls-21"/><path data-cppathid="10060" transform="translate(3.6 15.29)" d="M427.55,292.46a9.85,9.85,0,0,1,0,13.89L416,317.93a9.83,9.83,0,0,1-13.89,0L307.67,220a9.84,9.84,0,0,1,0-13.9l11.59-11.58a9.8,9.8,0,0,1,13.88,0Z" class="cls-22"/><path data-cppathid="10061" transform="translate(3.6 15.29)" d="M418.32,310.78c2.12,1.42,0-2.74-1.2-4.12s-99.76-104-99.76-104l.8,1.6S416.24,309.38,418.32,310.78Z" class="cls-23"/><g class="cls-24"><path data-cppathid="10062" transform="translate(3.6 15.29)" d="M368.31,236.59l-37.23-37.22a7.79,7.79,0,0,0-11,0l-9.21,9.21a7.83,7.83,0,0,0,0,11l24.51,24.51h.51A71.41,71.41,0,0,0,368.31,236.59Z" class="cls-25"/></g><path data-cppathid="10063" transform="translate(3.6 15.29)" d="M300,196a6.5,6.5,0,0,0,9.2,9.18l9.09-9.1a6.51,6.51,0,0,0-9.2-9.2Z" class="cls-26"/><path data-cppathid="10064" transform="translate(3.6 15.29)" d="M316.72,188.49a4.3,4.3,0,0,1,0,6.07l-9.1,9.1a4.29,4.29,0,0,1-6.09,0h0a4.29,4.29,0,0,1,0-6.06l9.11-9.11a4.32,4.32,0,0,1,6.08,0Z" class="cls-27"/><g class="cls-28"><rect data-cppathid="10065" rx="13.4" height="101.26" width="404.14" y="75.15" class="cls-3"/><path data-cppathid="10066" transform="translate(3.6 15.29)" d="M43.08-15.29h6.64a18.22,18.22,0,0,1,5.15.6A6.08,6.08,0,0,1,58.21-12a8.77,8.77,0,0,1,1.35,4.93,8.94,8.94,0,0,1-1.09,4.55,6.48,6.48,0,0,1-3,2.75,14.53,14.53,0,0,1-5.7.84H47.52V11.49H43.08Zm4.44,3.43v9.34h2.2c2,0,3.31-.36,4.07-1.1a4.82,4.82,0,0,0,1.12-3.57,5.41,5.41,0,0,0-.74-3,3.15,3.15,0,0,0-1.64-1.41,10.54,10.54,0,0,0-2.81-.27Z" class="cls-17"/><path data-cppathid="10067" transform="translate(3.6 15.29)" d="M62.78-8.32h3.59v4.43c1.1-3.23,2.76-4.85,5-4.85a5.6,5.6,0,0,1,.75.06v4.26a7.46,7.46,0,0,0-.83-.06q-4.4,0-4.39,5.89V11.49H62.78Z" class="cls-17"/><path data-cppathid="10068" transform="translate(3.6 15.29)" d="M89,1.39Q89,12,81.1,12a6.91,6.91,0,0,1-5.68-2.56q-2.07-2.56-2.07-7.84,0-10.36,7.85-10.37a6.94,6.94,0,0,1,5.66,2.53Q88.95-3.74,89,1.39Zm-4.35.2q0-4.17-.93-5.73A2.83,2.83,0,0,0,81.15-5.7q-3.44,0-3.44,7.29a14.32,14.32,0,0,0,.8,5.51,2.83,2.83,0,0,0,5.27,0A14.06,14.06,0,0,0,84.6,1.59Z" class="cls-17"/><path data-cppathid="10069" transform="translate(3.6 15.29)" d="M103.12-15.29h4.08V11.49h-3.77v-3a5,5,0,0,1-4.91,3.35,5.45,5.45,0,0,1-5-2.8,14.2,14.2,0,0,1-1.67-7.36c0-3.26.61-5.79,1.84-7.61A5.68,5.68,0,0,1,98.6-8.66,4.62,4.62,0,0,1,103.12-6Zm0,15.12c0-2-.39-3.46-1.16-4.28a3.28,3.28,0,0,0-2.38-1.23q-3.39,0-3.39,7,0,7.44,3.43,7.44A3.16,3.16,0,0,0,102,7.51c.72-.82,1.09-2.25,1.09-4.29Z" class="cls-17"/><path data-cppathid="10070" transform="translate(3.6 15.29)" d="M111.85-8.32h4.08V4.27a9.33,9.33,0,0,0,.43,3.52c.29.6.92.89,1.91.89a2.59,2.59,0,0,0,2.56-1.58,16.17,16.17,0,0,0,.73-5.89V-8.32h4.08V11.49h-3.77v-3a5.26,5.26,0,0,1-5,3.47,5.19,5.19,0,0,1-2.89-.74,4.11,4.11,0,0,1-1.61-2.12,15.89,15.89,0,0,1-.49-4.77Z" class="cls-17"/><path data-cppathid="10071" transform="translate(3.6 15.29)" d="M144.21-1.65l-3.94.43a7.13,7.13,0,0,0-1-3.46,2.41,2.41,0,0,0-2-.88,2.76,2.76,0,0,0-2.65,1.68Q133.79-2.2,133.8,2c0,4.4,1.15,6.6,3.47,6.6,1.78,0,2.78-1.44,3-4.3l3.94.35Q143.42,12,137,12a6.29,6.29,0,0,1-5.64-2.75,13.48,13.48,0,0,1-1.84-7.59q0-5.1,2-7.77a6.74,6.74,0,0,1,5.77-2.66Q143.35-8.79,144.21-1.65Z" class="cls-17"/><path data-cppathid="10072" transform="translate(3.6 15.29)" d="M147.63-13.48l3.69-.36v5.52h3.78V-5h-3.78V3.71a27.27,27.27,0,0,0,.11,3.06A1.94,1.94,0,0,0,152.14,8a3.13,3.13,0,0,0,2,.48,11.47,11.47,0,0,0,1.65-.14v3.28a15,15,0,0,1-3.06.35,5.9,5.9,0,0,1-3.51-.89,3.94,3.94,0,0,1-1.55-2.42A24.13,24.13,0,0,1,147.3,4V-5h-2.57V-8.32h2.68Z" class="cls-17"/><path data-cppathid="10073" transform="translate(3.6 15.29)" d="M165.5-15.29h8.1a17,17,0,0,1,4.65.49,5,5,0,0,1,2.69,2.19A7.46,7.46,0,0,1,182-8.48a5.64,5.64,0,0,1-4,5.86q4.8,1.52,4.8,6.73A7.69,7.69,0,0,1,181,9.28q-1.89,2.21-7.25,2.21H165.5Zm4.34,11.11h2.8c2,0,3.28-.37,3.91-1.09a4.21,4.21,0,0,0,.94-2.82A3.5,3.5,0,0,0,176.41-11a5.27,5.27,0,0,0-3.34-.88h-3.23Zm0,12.12h3.57q4.91,0,4.9-4.34a4.81,4.81,0,0,0-1-3c-.69-.89-2.1-1.33-4.24-1.33h-3.19Z" class="cls-17"/><path data-cppathid="10074" transform="translate(3.6 15.29)" d="M190.92-2.71,187-3.2a5.92,5.92,0,0,1,2.44-4.12,8.41,8.41,0,0,1,5-1.47,7.59,7.59,0,0,1,4.26,1.06,4.64,4.64,0,0,1,2,2.55,18,18,0,0,1,.41,4.45V6a26.52,26.52,0,0,0,.35,5.47h-3.87a15.67,15.67,0,0,1-.25-3.3Q195.5,12,191.8,12a5.41,5.41,0,0,1-4-1.54,5.71,5.71,0,0,1-1.51-4.19,6.37,6.37,0,0,1,2.22-5.12q2.22-1.87,7.7-1.88c.19,0,.47,0,.87,0v-.81a6.43,6.43,0,0,0-.64-3.19,2.41,2.41,0,0,0-2.28-1.08Q191.46-5.81,190.92-2.71Zm6.13,4.55c-.53-.05-.92-.08-1.2-.08-3.54,0-5.32,1.39-5.32,4.18,0,2,.88,3,2.64,3a3.3,3.3,0,0,0,2.71-1.65,7.71,7.71,0,0,0,1.17-4.53Z" class="cls-17"/><path data-cppathid="10075" transform="translate(3.6 15.29)" d="M219.45-1.65l-3.94.43a7.25,7.25,0,0,0-1-3.46,2.41,2.41,0,0,0-2-.88,2.76,2.76,0,0,0-2.65,1.68A14.66,14.66,0,0,0,209,2q0,6.6,3.48,6.6c1.77,0,2.77-1.44,3-4.3l3.94.35Q218.64,12,212.21,12a6.29,6.29,0,0,1-5.64-2.75,13.57,13.57,0,0,1-1.83-7.59q0-5.1,2-7.77a6.73,6.73,0,0,1,5.77-2.66Q218.58-8.79,219.45-1.65Z" class="cls-17"/><path data-cppathid="10076" transform="translate(3.6 15.29)" d="M222.49-15.29h4.08V.54L233-8.32h4L231.89-1.5l5.69,13h-4.41l-4-9.93-2.63,3.63v6.3h-4.08Z" class="cls-17"/><path data-cppathid="10077" transform="translate(3.6 15.29)" d="M239.62-15.29h4.08V11.49h-4.08Z" class="cls-17"/><path data-cppathid="10078" transform="translate(3.6 15.29)" d="M263.12,1.39q0,10.59-7.85,10.59a6.91,6.91,0,0,1-5.68-2.56q-2.07-2.56-2.07-7.84,0-10.36,7.85-10.37A6.94,6.94,0,0,1,261-6.26Q263.12-3.74,263.12,1.39Zm-4.36.2q0-4.17-.92-5.73a2.83,2.83,0,0,0-2.52-1.56q-3.44,0-3.44,7.29a14.32,14.32,0,0,0,.8,5.51,2.83,2.83,0,0,0,5.27,0A14.09,14.09,0,0,0,258.76,1.59Z" class="cls-17"/><path data-cppathid="10079" transform="translate(3.6 15.29)" d="M282.38-11.48v3a4.63,4.63,0,0,0-.94-.12c-1.2,0-1.91.73-2.14,2.18a6.66,6.66,0,0,1,1.5,4.26,6.14,6.14,0,0,1-1.87,4.53,6.81,6.81,0,0,1-5,1.84,9.85,9.85,0,0,1-2.51-.35c-1,.38-1.49.95-1.49,1.73a1.23,1.23,0,0,0,.79,1.29,19.87,19.87,0,0,0,4.21.47,24.18,24.18,0,0,1,4.43.55,4.18,4.18,0,0,1,2.39,1.6,5.22,5.22,0,0,1,.89,3.17,5.17,5.17,0,0,1-2.33,4.58,12,12,0,0,1-6.66,1.56q-4.15,0-6.07-1.37a4.23,4.23,0,0,1-1.91-3.61A3.76,3.76,0,0,1,268.53,10a3.63,3.63,0,0,1-2.15-3.24q0-2.58,2.92-4a5.68,5.68,0,0,1-2.55-5.08A6.12,6.12,0,0,1,268.69-7a7.06,7.06,0,0,1,5-1.79,8.26,8.26,0,0,1,3.75.86,4.83,4.83,0,0,1,1.19-2.86,3.65,3.65,0,0,1,2.54-.79A8.6,8.6,0,0,1,282.38-11.48ZM271.07,10.67a2.69,2.69,0,0,0-1.71,2.53,2.25,2.25,0,0,0,1.1,2.08,7.46,7.46,0,0,0,3.65.66q4.69,0,4.7-2.72a1.92,1.92,0,0,0-.89-1.84,8.92,8.92,0,0,0-3.52-.58C272.92,10.75,271.81,10.71,271.07,10.67Zm5.51-12.89q0-3.88-2.69-3.89Q271-6.11,271-2.18t2.82,3.8Q276.58,1.62,276.58-2.22Z" class="cls-17"/><path data-cppathid="10080" transform="translate(3.6 15.29)" d="M292.43-15.29h4.43V11.49h-4.43Z" class="cls-17"/><path data-cppathid="10081" transform="translate(3.6 15.29)" d="M302.57-13.48l3.69-.36v5.52h3.79V-5h-3.79V3.71a24.26,24.26,0,0,0,.12,3.06,1.93,1.93,0,0,0,.7,1.24,3.16,3.16,0,0,0,2,.48,11.46,11.46,0,0,0,1.64-.14v3.28a15,15,0,0,1-3.06.35,5.9,5.9,0,0,1-3.51-.89,3.94,3.94,0,0,1-1.55-2.42A24.13,24.13,0,0,1,302.24,4V-5h-2.57V-8.32h2.69Z" class="cls-17"/><path data-cppathid="10082" transform="translate(3.6 15.29)" d="M327.39,2.19h-11.2q0,4,1.08,5.35A3.4,3.4,0,0,0,320,8.88q2.75,0,3.46-3.69l3.75.49q-1.47,6.3-7.34,6.3a7.06,7.06,0,0,1-5.72-2.57Q312,6.85,312,1.88T314.17-6a6.9,6.9,0,0,1,5.76-2.78,6.55,6.55,0,0,1,4.26,1.39,7.41,7.41,0,0,1,2.43,3.66A21.67,21.67,0,0,1,327.39,2.19ZM323.21-.58q0-5.23-3.41-5.23-3.21,0-3.52,5.23Z" class="cls-17"/><path data-cppathid="10083" transform="translate(3.6 15.29)" d="M330.78-8.32h3.77v3a5,5,0,0,1,4.88-3.49A4.18,4.18,0,0,1,344-5.11a5,5,0,0,1,5-3.68A5.43,5.43,0,0,1,352-8a4.17,4.17,0,0,1,1.68,2.08A16.77,16.77,0,0,1,354.13-1V11.49h-4.08V-.7a9.76,9.76,0,0,0-.49-3.8,1.92,1.92,0,0,0-1.93-1q-3.12,0-3.12,5.39v11.6h-4.08v-12a16.13,16.13,0,0,0-.2-3.32,2.18,2.18,0,0,0-.77-1.19A2.26,2.26,0,0,0,338-5.5a2.57,2.57,0,0,0-2.43,1.28A9,9,0,0,0,334.86,0v11.5h-4.08Z" class="cls-17"/><path data-cppathid="10084" transform="translate(3.6 15.29)" d="M166.79,126.67a1.17,1.17,0,0,1-1.35,1.24l-2.43,0a1.13,1.13,0,0,1-1.27-1.36l1.11-24.36a1.84,1.84,0,0,1,.24-.8,1,1,0,0,1-.2-.67c0-.8.44-1.2,1.31-1.2h14.23l-1.31-4a2.36,2.36,0,0,1-.08-.52c0-.61.36-1,1.08-1l2.22-.32a.58.58,0,0,0,.18,0l.14,0a1.19,1.19,0,0,1,1.23,1l1.59,5h11q1.32,0,1.32,1.2c0,.79-.44,1.19-1.32,1.19H184.24l3.42,10.61,3.61-5.8a1.41,1.41,0,0,1,1.2-.76,2.37,2.37,0,0,1,.51.08l1.71.52c.61.21.92.54.92,1a1.59,1.59,0,0,1-.24.72l-6,9.58,2,6.16,2.27-.6a2.44,2.44,0,0,1,.44-.08,1.35,1.35,0,0,1,1.23.84,1.58,1.58,0,0,1,.2.63c0,.54-.32.88-1,1l-5.84,1.51a.67.67,0,0,1-.24,0h-.2a1.2,1.2,0,0,1-1.19-1l-1-3.22-2.15,3.46a1.39,1.39,0,0,1-1.19.76,2.36,2.36,0,0,1-.52-.08l-1.71-.52c-.61-.21-.91-.54-.91-1a1.45,1.45,0,0,1,.24-.72l4.53-7.23-5.13-16H167.86a2,2,0,0,1,0,.44l-.32,6.83h9.62c.9,0,1.31.45,1.23,1.36l-1.23,15.58c-.08.76-.43,1.15-1.07,1.15a2.44,2.44,0,0,1-.44-.08l-6.28-1.55c-.66-.16-1-.48-1-.95a.61.61,0,0,1,.06-.28,1.51,1.51,0,0,0,.1-.28l0-.12a1.35,1.35,0,0,1,1.23-.84,1,1,0,0,1,.24,0l.24,0,2,.48,1-12.16h-5.85Zm26.07-30.45a1.23,1.23,0,0,1,.68,1,1.21,1.21,0,0,1-.48.87l-.4.32a1.59,1.59,0,0,1-1,.44,1.62,1.62,0,0,1-.75-.24L186,95.91a1.21,1.21,0,0,1-.68-1,1.12,1.12,0,0,1,.48-.87l.4-.32a1.59,1.59,0,0,1,1-.44,1.43,1.43,0,0,1,.75.24Z" class="cls-4"/><path data-cppathid="10085" transform="translate(3.6 15.29)" d="M204.71,125.16a1.18,1.18,0,0,1-1.43,1.19l-1.27-.07a1.13,1.13,0,0,1-1.2-1.4l.52-6a1.19,1.19,0,0,1,1.43-1.19l1.27.08a1.13,1.13,0,0,1,1.2,1.39Zm6.92,1.71a1.16,1.16,0,0,1-1.32,1.31h-2.46a1.15,1.15,0,0,1-1.31-1.31V115.42l-4.37.36c-.8.06-1.2-.2-1.2-.75a1.44,1.44,0,0,1,.28-.8l3.66-5.68-.08-.12L201.49,104a1.56,1.56,0,0,1-.36-.92,1.31,1.31,0,0,1,.36-.91l6.36-8.35a1.39,1.39,0,0,1,1.11-.64,2,2,0,0,1,.64.12l1.51.52c.56.19.83.5.83,1a1.4,1.4,0,0,1-.31.8l-5.69,7.51,1.35,1.79,1.43-2.23a1.45,1.45,0,0,1,1.24-.71,2.37,2.37,0,0,1,.51.08l1.71.51c.61.22.92.54.92,1a1.07,1.07,0,0,1-.08.36,3.6,3.6,0,0,1-.2.39L207.17,113l4.85-.4-.67-2.74a1.54,1.54,0,0,1,0-.4,1.05,1.05,0,0,1,1.07-1.15l1.15-.16a1.19,1.19,0,0,1,1.51,1l1.47,6.08a1.54,1.54,0,0,1,0,.4,1.06,1.06,0,0,1-1.07,1.16l-1.15.15a1.18,1.18,0,0,1-1.51-1l-.24-1h-.12l-.91.08a1.32,1.32,0,0,1,.08.47Zm5.64-2.62a1.14,1.14,0,0,1-1.23,1.39l-1.27.08a1.17,1.17,0,0,1-1.4-1.19l-.51-5a1.35,1.35,0,0,1,.28-1,1.26,1.26,0,0,1,1-.41l1.27-.08a1.16,1.16,0,0,1,1.39,1.19Zm11.13-19.12v.12h5.76c.88,0,1.32.4,1.32,1.19s-.44,1.19-1.32,1.19H217.67c-.88,0-1.31-.39-1.31-1.19s.43-1.19,1.31-1.19h5.64v-1.67h-3.77c-.88,0-1.32-.4-1.32-1.19s.44-1.2,1.32-1.2h3.77V98.85h-4.77c-.87,0-1.31-.4-1.31-1.19s.44-1.2,1.31-1.2h4.77V95.19a1.16,1.16,0,0,1,1.31-1.31h2.47a1.16,1.16,0,0,1,1.31,1.31v1.27h4.81c.87,0,1.31.4,1.31,1.2s-.44,1.19-1.31,1.19H228.4v2.34h3.86c.87,0,1.31.4,1.31,1.2s-.44,1.19-1.31,1.19H228.4Zm-10.61,4.77a1.15,1.15,0,0,1,1.31-1.31h2.46a1.42,1.42,0,0,1,.8.2h10.93a1.16,1.16,0,0,1,1.31,1.31v12.32a1.16,1.16,0,0,1-1.31,1.31h-2.47a1.41,1.41,0,0,1-.79-.2h-7.67a1.42,1.42,0,0,1-.8.2H219.1a1.16,1.16,0,0,1-1.31-1.31Zm2.54,18.24a1.53,1.53,0,0,1-.72.16,1.45,1.45,0,0,1-1.07-.51l-.2-.2a1.22,1.22,0,0,1-.43-.84c0-.4.26-.71.79-1l3.46-1.55a1.51,1.51,0,0,1,.71-.16,1.43,1.43,0,0,1,1.08.52l.2.19a1.26,1.26,0,0,1,.43.84c0,.4-.26.71-.79,1Zm9.18-17h-6.64v1.63h6.64Zm-6.64,5.88h6.64v-1.86h-6.64Zm0,4.1h6.64v-1.71h-6.64ZM234.12,126c.53.24.8.55.8,1a1.34,1.34,0,0,1-.36.8l-.28.27a1.57,1.57,0,0,1-1.11.56,1.48,1.48,0,0,1-.68-.16l-4-1.75c-.53-.24-.8-.55-.8-.95a1.21,1.21,0,0,1,.36-.8l.28-.27a1.61,1.61,0,0,1,1.11-.56,1.45,1.45,0,0,1,.68.16Z" class="cls-4"/></g><path data-cppathid="10086" transform="translate(3.6 15.29)" d="M152.78,133.64a75.47,75.47,0,0,0,147.55,0c-19.06,12.71-45.08,26.59-73.79,26.59S171.82,146.34,152.78,133.64Z" class="cls-29"/><path data-cppathid="10087" transform="translate(3.6 15.29)" d="M230.29,41.4c26.67,0,51.85,14.5,67,36.54-13.35-24.89-38.35-41.7-67-41.7S176.59,53.06,163.23,78C178.38,55.92,203.59,41.4,230.29,41.4Z" class="cls-30"/><path data-cppathid="10088" transform="translate(3.6 15.29)" d="M227,186.41c-26.64,0-51.84-14.5-67-36.57,13.34,24.92,38.33,41.72,67,41.72s53.75-16.82,67.06-41.76C278.91,171.89,253.7,186.41,227,186.41Z" class="cls-30"/></g></g></g></g></g></g></svg>