<?xml version="1.0" encoding="UTF-8"?>
<svg xmlns="http://www.w3.org/2000/svg" onmouseup="{ if(window.parent.document.onmouseup) window.parent.document.onmouseup(arguments[0]);}" viewBox="0 0 336.25 29.88"><defs><style>.cls-1{fill:#606060;}</style></defs><g data-name="Layer 2" id="Layer_2"><g data-name="Backlog Refinement" id="Backlog_Refinement"><g data-name="jp copy" id="jp_copy"><path data-cppathid="10000" transform="translate(-50.26 -1.38)" d="M52.64,27.88a9,9,0,0,0-2.38-2.26q2.51-3.12,3.63-4.74a26.12,26.12,0,0,0,2.87-5.26,57.3,57.3,0,0,0,2.63-8.24L62.76,8.5A66.69,66.69,0,0,1,58.26,20,37,37,0,0,1,52.64,27.88ZM66.89,8.12l2.62-1.5a99.59,99.59,0,0,1,5.63,9.5A42.47,42.47,0,0,1,77.39,21l1.5,4.5-3.25,1.38c-.67-2.59-1.3-4.67-1.88-6.26a37.69,37.69,0,0,0-2.25-4.5c-.25-.5-.87-1.64-1.87-3.43S67.72,9.38,66.89,8.12Zm9.75.63-1.5,1.5-3.5-3.37,1.5-1.5A14.23,14.23,0,0,1,75,6.88,13.07,13.07,0,0,1,76.64,8.75Zm-2.13-4.5L76,2.62a35.85,35.85,0,0,1,3.5,3.13L78,7.38A34.5,34.5,0,0,0,74.51,4.25Z" class="cls-1"/><path data-cppathid="10001" transform="translate(-50.26 -1.38)" d="M81.76,13.38l2.38-1.26c.41.84.89,1.74,1.43,2.69s1.11,2,1.69,3.19l-2.5,1.25A42.85,42.85,0,0,0,81.76,13.38Zm4.63,17.87a7.2,7.2,0,0,0-1.5-2.5,27.6,27.6,0,0,0,7-3.25,16.22,16.22,0,0,0,4.37-4.75,41.46,41.46,0,0,0,3.5-9.5l2.88,1a56.74,56.74,0,0,1-3.5,9,19.24,19.24,0,0,1-4.25,5.25A23.54,23.54,0,0,1,86.39,31.25ZM88.14,11.5l2.5-1.12c1.16,2.5,2,4.5,2.62,6L90.89,17.5A52.24,52.24,0,0,0,88.14,11.5Z" class="cls-1"/><path data-cppathid="10002" transform="translate(-50.26 -1.38)" d="M119.14,4,117,8h9.38l.5-.25,2,2.13c-1.92,4.41-3.13,7-3.63,7.87a20.65,20.65,0,0,1-3.5,4.63,23.63,23.63,0,0,1-5.25,4.12,40.46,40.46,0,0,1-7.5,3.12,8.24,8.24,0,0,0-1.87-2.87,45.18,45.18,0,0,0,6.62-2.37A17.71,17.71,0,0,0,118.64,21a24.24,24.24,0,0,0,3.62-4.5,50.23,50.23,0,0,0,2.63-5.88h-9.25A39.17,39.17,0,0,1,112,15.5a28.68,28.68,0,0,1-4.25,4.12c-.42-.5-.71-.83-.87-1a6.62,6.62,0,0,0-1.5-1.12,27.3,27.3,0,0,0,3.37-3c.67-.75,1.58-1.88,2.75-3.38A38,38,0,0,0,114,6.75a30.09,30.09,0,0,0,1.75-4Z" class="cls-1"/><path data-cppathid="10003" transform="translate(-50.26 -1.38)" d="M133,27.75V6.12h21.25V27.5h-3.37v-2h-14.5v2.25Zm17.88-5.13V9h-14.5V22.62Z" class="cls-1"/><path data-cppathid="10004" transform="translate(-50.26 -1.38)" d="M170.14,8.25h9.25l.5-.13,2,1.88a51.54,51.54,0,0,1-3.75,8.25,25.47,25.47,0,0,1-3.88,5,28.3,28.3,0,0,1-5.37,3.87A25.46,25.46,0,0,1,162,30a9.51,9.51,0,0,1-.5-1.25l-1.37-1.63a36.39,36.39,0,0,0,6.5-2.24,17.66,17.66,0,0,0,4.87-3.38,22,22,0,0,0,3.75-4.38c.92-1.83,1.83-3.91,2.75-6.24h-9.25A42.3,42.3,0,0,1,161,20c-.5-.67-.87-1-1.12-1.12a16.62,16.62,0,0,0-1.63-1A33.09,33.09,0,0,0,164.14,12a51.47,51.47,0,0,0,4.62-8.75L172,4.5a4.31,4.31,0,0,1-.25.44,6.33,6.33,0,0,0-.37.68c-.17.34-.34.69-.5,1.07S170.47,7.58,170.14,8.25ZM179,5.75l1.5-1.5q2.63,2.25,3.5,3.13l-1.5,1.5Q181.64,8,179,5.75Zm8-1.25-1.75,1.62c-1.83-1.83-3-2.91-3.37-3.24l1.37-1.5Q186.14,3.63,187,4.5Z" class="cls-1"/><path data-cppathid="10005" transform="translate(-50.26 -1.38)" d="M190,20.25V4.5h3.38V20.25Zm4.13,10.13a13.67,13.67,0,0,0-1.63-3,26.65,26.65,0,0,0,5.13-1.76,8,8,0,0,0,3-2.24,7.32,7.32,0,0,0,1.87-3,32.24,32.24,0,0,0,.63-7V3.12h3.25V14.25q0,6.75-2.38,10.25T194.14,30.38Z" class="cls-1"/><path data-cppathid="10006" transform="translate(-50.26 -1.38)" d="M211,5.75h20.75l.38-.13,2.12,1.88q-2.13,5.63-3,7.75a27.16,27.16,0,0,1-3.5,5.37,28.59,28.59,0,0,1-5.25,4.76,34.4,34.4,0,0,1-8.37,4,8.87,8.87,0,0,0-.5-1.63,10.84,10.84,0,0,0-.88-1.5,28.78,28.78,0,0,0,6.75-2.87A24.35,24.35,0,0,0,225.89,18a34.27,34.27,0,0,0,4.5-9.25H211Z" class="cls-1"/><path data-cppathid="10007" transform="translate(-50.26 -1.38)" d="M237.26,13.12V10.5h18.13l1.75,2.12-4.38,4.13q-1.24,1.13-3.75,3l-.87-1.13a24.67,24.67,0,0,1-.88,5.76,11.41,11.41,0,0,1-2.5,3.62,14.92,14.92,0,0,1-5.12,2.88,6.15,6.15,0,0,0-.32-.76,5.82,5.82,0,0,1-.31-.74,11.14,11.14,0,0,1-1-1.13,13.27,13.27,0,0,0,4-1.63A6.68,6.68,0,0,0,243.76,25a6.61,6.61,0,0,0,1-2.38,12.93,12.93,0,0,0,.38-3.37V16.12h3v1.26c.25-.26,1.79-1.67,4.62-4.26Z" class="cls-1"/><path data-cppathid="10008" transform="translate(-50.26 -1.38)" d="M278.64,9.88,276,12.25V30h-3.37V14.88a48.84,48.84,0,0,1-5.88,4Q263,21,261,21.88a10.45,10.45,0,0,0-1.62-3,46.94,46.94,0,0,0,7.87-4.13A45.34,45.34,0,0,0,274,9.62a58.8,58.8,0,0,0,6.63-7L283.39,5Z" class="cls-1"/><path data-cppathid="10009" transform="translate(-50.26 -1.38)" d="M309.39,9.5a6.44,6.44,0,0,0,1,1.25,5.22,5.22,0,0,0,1.37,1.13,69.64,69.64,0,0,1-6.37,7,60,60,0,0,1-7.13,5.5,89.21,89.21,0,0,1-9.75,5.12L286.76,26A36.92,36.92,0,0,0,293,23.5a55.5,55.5,0,0,0,6.13-3.62,48.39,48.39,0,0,0,5.25-4.5A48.88,48.88,0,0,0,309.39,9.5Zm-13,.12-2.25,2.63q-2.76-2.5-3.75-3.25a7.76,7.76,0,0,0-.88-.69l-1.37-.93c-.5-.34-.92-.63-1.25-.88l2-2.5a24.61,24.61,0,0,1,2.43,1.5l1.44,1C294.43,7.83,295.64,8.88,296.39,9.62Z" class="cls-1"/><path data-cppathid="10010" transform="translate(-50.26 -1.38)" d="M330.89,14.75a80.55,80.55,0,0,1,6.75,5l-2.5,2.75q-.37-.37-3.38-3.12l-2.37-1.88a35.93,35.93,0,0,1-3.75,4.75,21.26,21.26,0,0,1-3.75,3.37q-1.12.89-5.75,3.63A15.22,15.22,0,0,0,314,26.5a34.42,34.42,0,0,0,5.13-2.75,24.86,24.86,0,0,0,4-3.25,27.41,27.41,0,0,0,3.62-4.75A60,60,0,0,0,319,12.12l1.5-2.62c1.58.75,4.17,2,7.75,3.62a39.45,39.45,0,0,0,1.75-4c.67-1.74,1.29-3.62,1.88-5.62l3.37,1.12A87.59,87.59,0,0,1,330.89,14.75Z" class="cls-1"/><path data-cppathid="10011" transform="translate(-50.26 -1.38)" d="M363.39,9.5a6.44,6.44,0,0,0,1,1.25,5.22,5.22,0,0,0,1.37,1.13,69.64,69.64,0,0,1-6.37,7,60,60,0,0,1-7.13,5.5,89.21,89.21,0,0,1-9.75,5.12L340.76,26A36.92,36.92,0,0,0,347,23.5a55.5,55.5,0,0,0,6.13-3.62,48.39,48.39,0,0,0,5.25-4.5A48.88,48.88,0,0,0,363.39,9.5Zm-13,.12-2.25,2.63q-2.76-2.5-3.75-3.25a7.76,7.76,0,0,0-.88-.69l-1.37-.93c-.5-.34-.92-.63-1.25-.88l2-2.5a24.61,24.61,0,0,1,2.43,1.5l1.44,1C348.43,7.83,349.64,8.88,350.39,9.62Z" class="cls-1"/><path data-cppathid="10012" transform="translate(-50.26 -1.38)" d="M369.39,30.25V2.5h3.5v8.88c3.75,1.33,6.16,2.24,7.25,2.74.91.42,3,1.5,6.37,3.26l-1.87,3.12q-2.88-1.87-6-3.5a45.6,45.6,0,0,0-5.75-2.25v15.5Z" class="cls-1"/></g></g></g></svg>