<?xml version="1.0" encoding="UTF-8"?>
<svg xmlns="http://www.w3.org/2000/svg" onmouseup="{ if(window.parent.document.onmouseup) window.parent.document.onmouseup(arguments[0]);}" viewBox="0 0 364.82 386.97" xmlns:xlink="http://www.w3.org/1999/xlink"><defs><style>.cls-1{stroke:#545454;stroke-linecap:round;stroke-linejoin:round;stroke-width:3px;fill:url(#linear-gradient);}.cls-2{fill:#231f20;}.cls-3{fill:#fff;}.cls-4,.cls-5,.cls-6,.cls-8{fill:#fff100;}.cls-5,.cls-9{opacity:0.5;}.cls-10,.cls-6{opacity:0.25;}.cls-7{fill:#603813;}.cls-11,.cls-8{opacity:0.12;}</style><linearGradient gradientUnits="userSpaceOnUse" y2="40.52" x2="63.02" y1="373.55" x1="63.02" id="linear-gradient"><stop stop-color="#5ed000" offset="0"/><stop stop-color="#ff0f00" offset="1"/></linearGradient></defs><g data-name="Layer 2" id="Layer_2"><g data-name="Backlog Refinement" id="Backlog_Refinement"><g data-name="jp copy" id="jp_copy"><g data-name="priority arrows" id="priority_arrows"><polygon data-cppathid="10000" points="105.02 83.04 124.54 83.04 63.02 40.52 1.5 83.04 21.02 83.04 21.02 331.04 1.5 331.04 63.02 373.56 124.54 331.04 105.02 331.04 105.02 83.04" class="cls-1"/><path data-cppathid="10001" transform="translate(0 0)" d="M31,73.91a20.5,20.5,0,0,1-1.89,2.88,9.16,9.16,0,0,0-.59-1.17,24.51,24.51,0,0,0,4-8.12l1.42.45c0,.13-.18.2-.41.2a37.67,37.67,0,0,1-1.39,3.57l.42.12c0,.13-.13.2-.35.24V84.14H31ZM43.17,79.3l.84.43c0,.09-.14.12-.19.16a8.06,8.06,0,0,1-3,2.32,23.46,23.46,0,0,0,5,1,4.22,4.22,0,0,0-.68,1,20.92,20.92,0,0,1-5.68-1.4,25.13,25.13,0,0,1-5.78,1.35,4.32,4.32,0,0,0-.61-.92,26.88,26.88,0,0,0,5.15-1,8.8,8.8,0,0,1-2-1.54A18.14,18.14,0,0,1,34,81.76a3.21,3.21,0,0,0-.72-.75,12.75,12.75,0,0,0,4.41-2.58c-.54-.12-.7-.43-.7-1.08V76.16l1.35.09c0,.11-.11.2-.34.22v.88c0,.33.1.4.75.4H41c.44,0,.54-.09.61-.85a3.46,3.46,0,0,0,.84.29c-.09,1-.39,1.31-1.29,1.31h-2a.63.63,0,0,1-.31.11,8,8,0,0,1-.79.72H43Zm-7.85-9.11H38.5a10.11,10.11,0,0,0,.27-1H34v-1H45.44v1H40c-.09.28-.22.65-.35,1h4.22v4.6h1.74v2.45H44.52V75.62H39.6a7.55,7.55,0,0,1,1.3,1l-.74.56a8,8,0,0,0-1.93-1.44l.18-.13H34.56v1.62H33.48V74.79h1.84Zm1.35,6.48a7,7,0,0,1-2,2.07l-.78-.65a5.57,5.57,0,0,0,2-1.87Zm6.08-4.92v-.83H36.43v.83Zm0,1.53v-.84H36.43v.84Zm-6.32,1.51h6.32V74H36.43Zm.69,5.37a7.87,7.87,0,0,0,2.43,1.55,8.55,8.55,0,0,0,2.56-1.55Zm7.29-1.39a10.7,10.7,0,0,0-2.12-2.16l.81-.46a10.57,10.57,0,0,1,2.16,2.1Z" class="cls-2"/><path data-cppathid="10002" transform="translate(0 0)" d="M53.75,76.88c0,.13-.14.22-.38.24-.47,3.17-1.35,5.67-5.56,7a4,4,0,0,0-.74-1C51,82,51.86,79.75,52.16,76.7ZM58.25,82c0,.54.13.63.85.63h2.45c.7,0,.82-.38.9-2.79a3.22,3.22,0,0,0,1.11.51c-.14,2.75-.48,3.43-1.91,3.43H59c-1.55,0-1.94-.37-1.94-1.8V76.49H47.29V75.3h7.38V71.48H50.76a13.72,13.72,0,0,1-1.64,2.85,8.12,8.12,0,0,0-1-.58,15.92,15.92,0,0,0,2.64-5.91l1.53.36c0,.13-.16.18-.39.18a18.65,18.65,0,0,1-.63,1.93h3.44V67.39l1.58.09c0,.15-.12.24-.36.26v2.57H62v1.17H55.89V75.3h7.4v1.19h-5Z" class="cls-2"/><path data-cppathid="10003" transform="translate(0 0)" d="M66.89,75.3c0,3.35-.15,6.28-1.39,8.77a4.77,4.77,0,0,0-.83-.72c1.07-2.31,1.19-5,1.19-8V68l1.37.09c0,.11-.11.2-.34.24Zm1.46,6.19V69.34l1.24.09c0,.11-.09.18-.31.22V81.49ZM70.85,68l1.37.09c0,.11-.11.2-.34.23V83.49h-1ZM76.5,81.78a.58.58,0,0,1-.34.13,11.69,11.69,0,0,1-3.37,2.23,5.28,5.28,0,0,0-.77-.81,10.93,10.93,0,0,0,3.33-2.18Zm-3-10.55h2.61c.15-.58.31-1.28.42-1.87H72.76V68.28h8.91v1.08H77.76c-.12.54-.32,1.24-.52,1.87h3.82V80.7H73.51Zm6.38,2.84V72.18H74.63v1.89Zm0,2.81V75H74.63v1.89Zm0,2.87V77.82H74.63v1.93ZM81,84.18a19.16,19.16,0,0,0-3-2.38l.9-.61a18.33,18.33,0,0,1,3.06,2.3Z" class="cls-2"/><path data-cppathid="10004" transform="translate(0 0)" d="M85.36,73.75a22.08,22.08,0,0,1-2.2,3,9.24,9.24,0,0,0-.63-1.14,23.79,23.79,0,0,0,4.5-8.1l1.44.49a.38.38,0,0,1-.41.16A33.4,33.4,0,0,1,86.4,71.9l.49.12c0,.11-.13.2-.36.22V84.18H85.36Zm2.28,8.34H99.72v1.17H87.64ZM88.09,71h4.85v-3.6l1.56.09c0,.14-.11.22-.36.25V71h5.12V72.2H88.09Zm2.51,2.4a46,46,0,0,1,1.53,7.41l-1.21.26a46.22,46.22,0,0,0-1.42-7.48Zm7.56.3c0,.13-.2.22-.42.22a59,59,0,0,1-2,7.25s-1-.32-1-.34a52.5,52.5,0,0,0,1.93-7.54Z" class="cls-2"/><path data-cppathid="10005" transform="translate(0 0)" d="M64.8,86.16h7.44v1.08H56.32V86.16h7.26V84.38l1.58.1c0,.13-.11.22-.36.26Zm6.68,7.09v6.36c0,.7-.16,1.08-.72,1.28a11.64,11.64,0,0,1-3.11.2,5.15,5.15,0,0,0-.4-1.16c.74,0,1.41,0,1.89,0,1,0,1.14,0,1.14-.38V94.32H58.37v6.8H57.19V93.25ZM59.4,88.32h9.8v3.73H59.4ZM68,91.13V89.24h-7.4v1.89Zm-.2,8.26H61.9v1H60.8V95.56h7Zm-1.1-2.91H61.9v2h4.77Z" class="cls-2"/><path data-cppathid="10006" transform="translate(0 0)" d="M30,72.91a20.5,20.5,0,0,1-1.89,2.88,9.16,9.16,0,0,0-.59-1.17,24.51,24.51,0,0,0,4-8.12l1.42.45c0,.13-.18.2-.41.2a37.67,37.67,0,0,1-1.39,3.57l.42.12c0,.13-.13.2-.35.24V83.14H30ZM42.17,78.3l.84.43c0,.09-.14.12-.19.16a8.06,8.06,0,0,1-3,2.32,23.46,23.46,0,0,0,5,1,4.22,4.22,0,0,0-.68,1,20.92,20.92,0,0,1-5.68-1.4,25.13,25.13,0,0,1-5.78,1.35,4.32,4.32,0,0,0-.61-.92,26.88,26.88,0,0,0,5.15-1,8.8,8.8,0,0,1-2-1.54A18.14,18.14,0,0,1,33,80.76a3.21,3.21,0,0,0-.72-.75,12.75,12.75,0,0,0,4.41-2.58c-.54-.12-.7-.43-.7-1.08V75.16l1.35.09c0,.11-.11.2-.34.22v.88c0,.33.1.4.75.4H40c.44,0,.54-.09.61-.85a3.46,3.46,0,0,0,.84.29c-.09,1-.39,1.31-1.29,1.31h-2a.63.63,0,0,1-.31.11,8,8,0,0,1-.79.72H42Zm-7.85-9.11H37.5a10.11,10.11,0,0,0,.27-1H33v-1H44.44v1H39c-.09.28-.22.65-.35,1h4.22v4.6h1.74v2.45H43.52V74.62H38.6a7.55,7.55,0,0,1,1.3,1l-.74.56a8,8,0,0,0-1.93-1.44l.18-.13H33.56v1.62H32.48V73.79h1.84Zm1.35,6.48a7,7,0,0,1-2,2.07l-.78-.65a5.57,5.57,0,0,0,2-1.87Zm6.08-4.92v-.83H35.43v.83Zm0,1.53v-.84H35.43v.84Zm-6.32,1.51h6.32V73H35.43Zm.69,5.37a7.87,7.87,0,0,0,2.43,1.55,8.55,8.55,0,0,0,2.56-1.55Zm7.29-1.39a10.7,10.7,0,0,0-2.12-2.16l.81-.46a10.57,10.57,0,0,1,2.16,2.1Z" class="cls-3"/><path data-cppathid="10007" transform="translate(0 0)" d="M52.75,75.88c0,.13-.14.22-.38.24-.47,3.17-1.35,5.67-5.56,7a4,4,0,0,0-.74-1C50,81,50.86,78.75,51.16,75.7ZM57.25,81c0,.54.13.63.85.63h2.45c.7,0,.82-.38.9-2.79a3.22,3.22,0,0,0,1.11.51c-.14,2.75-.48,3.43-1.91,3.43H58c-1.55,0-1.94-.37-1.94-1.8V75.49H46.29V74.3h7.38V70.48H49.76a13.72,13.72,0,0,1-1.64,2.85,8.12,8.12,0,0,0-1-.58,15.92,15.92,0,0,0,2.64-5.91l1.53.36c0,.13-.16.18-.39.18a18.65,18.65,0,0,1-.63,1.93h3.44V66.39l1.58.09c0,.15-.12.24-.36.26v2.57H61v1.17H54.89V74.3h7.4v1.19h-5Z" class="cls-3"/><path data-cppathid="10008" transform="translate(0 0)" d="M65.89,74.3c0,3.35-.15,6.28-1.39,8.77a4.77,4.77,0,0,0-.83-.72c1.07-2.31,1.19-5,1.19-8V67l1.37.09c0,.11-.11.2-.34.24Zm1.46,6.19V68.34l1.24.09c0,.11-.09.18-.31.22V80.49ZM69.85,67l1.37.09c0,.11-.11.2-.34.23V82.49h-1ZM75.5,80.78a.58.58,0,0,1-.34.13,11.69,11.69,0,0,1-3.37,2.23,5.28,5.28,0,0,0-.77-.81,10.93,10.93,0,0,0,3.33-2.18Zm-3-10.55h2.61c.15-.58.31-1.28.42-1.87H71.76V67.28h8.91v1.08H76.76c-.12.54-.32,1.24-.52,1.87h3.82V79.7H72.51Zm6.38,2.84V71.18H73.63v1.89Zm0,2.81V74H73.63v1.89Zm0,2.87V76.82H73.63v1.93ZM80,83.18a19.16,19.16,0,0,0-3-2.38l.9-.61a18.33,18.33,0,0,1,3.06,2.3Z" class="cls-3"/><path data-cppathid="10009" transform="translate(0 0)" d="M84.36,72.75a22.08,22.08,0,0,1-2.2,3,9.24,9.24,0,0,0-.63-1.14,23.79,23.79,0,0,0,4.5-8.1l1.44.49a.38.38,0,0,1-.41.16A33.4,33.4,0,0,1,85.4,70.9l.49.12c0,.11-.13.2-.36.22V83.18H84.36Zm2.28,8.34H98.72v1.17H86.64ZM87.09,70h4.85v-3.6l1.56.09c0,.14-.11.22-.36.25V70h5.12V71.2H87.09Zm2.51,2.4a46,46,0,0,1,1.53,7.41l-1.21.26a46.22,46.22,0,0,0-1.42-7.48Zm7.56.3c0,.13-.2.22-.42.22a59,59,0,0,1-2,7.25s-1-.32-1-.34a52.5,52.5,0,0,0,1.93-7.54Z" class="cls-3"/><path data-cppathid="10010" transform="translate(0 0)" d="M63.8,85.16h7.44v1.08H55.32V85.16h7.26V83.38l1.58.1c0,.13-.11.22-.36.26Zm6.68,7.09v6.36c0,.7-.16,1.08-.72,1.28a11.64,11.64,0,0,1-3.11.2,5.15,5.15,0,0,0-.4-1.16c.74,0,1.41,0,1.89,0,1,0,1.14,0,1.14-.38V93.32H57.37v6.8H56.19V92.25ZM58.4,87.32h9.8v3.73H58.4ZM67,90.13V88.24h-7.4v1.89Zm-.2,8.26H60.9v1H59.8V94.56h7Zm-1.1-2.91H60.9v2h4.77Z" class="cls-3"/><path data-cppathid="10011" transform="translate(0 0)" d="M29.79,313.28a22.44,22.44,0,0,1-1.89,2.88,10.76,10.76,0,0,0-.6-1.17,24.32,24.32,0,0,0,4-8.12l1.43.45c-.06.13-.18.2-.42.2a34.91,34.91,0,0,1-1.38,3.56l.41.13c0,.13-.13.2-.34.23v12.07H29.79Zm12.15,5.38.85.44a.66.66,0,0,1-.2.16,8.16,8.16,0,0,1-3,2.32,23.46,23.46,0,0,0,5,1,4,4,0,0,0-.68,1,20.85,20.85,0,0,1-5.67-1.4,25.39,25.39,0,0,1-5.78,1.35,5.24,5.24,0,0,0-.61-.92,27.67,27.67,0,0,0,5.15-1A8.43,8.43,0,0,1,35,320a16.27,16.27,0,0,1-2.25,1.12,3.25,3.25,0,0,0-.72-.76,12.5,12.5,0,0,0,4.41-2.57c-.54-.13-.7-.43-.7-1.08v-1.19l1.35.09c0,.11-.11.2-.34.22v.88c0,.32.11.4.76.4H39.8c.45,0,.54-.09.61-.85a3.7,3.7,0,0,0,.85.29c-.09,1-.4,1.31-1.3,1.31H38a.56.56,0,0,1-.31.11,9.42,9.42,0,0,1-.79.72h4.85Zm-7.85-9.11h3.19a8.85,8.85,0,0,0,.27-1H32.72v-1H44.21v1H38.79c-.09.29-.22.65-.34,1h4.21v4.61h1.75v2.45H43.29V315H38.38a7.34,7.34,0,0,1,1.29,1l-.74.56A8,8,0,0,0,37,315.12l.18-.13H33.33v1.62H32.25v-2.45h1.84ZM35.44,316a7.12,7.12,0,0,1-2,2.07l-.77-.65a5.56,5.56,0,0,0,1.94-1.88Zm6.09-4.92v-.83H35.21v.83Zm0,1.53v-.85H35.21v.85Zm-6.32,1.51h6.32v-.84H35.21Zm.68,5.37a7.87,7.87,0,0,0,2.43,1.55,8.63,8.63,0,0,0,2.56-1.55Zm7.29-1.39A10.7,10.7,0,0,0,41.06,316l.81-.47A10.6,10.6,0,0,1,44,317.62Z" class="cls-2"/><path data-cppathid="10012" transform="translate(0 0)" d="M52.52,316.25c0,.13-.14.22-.37.24-.47,3.16-1.36,5.67-5.57,7a3.84,3.84,0,0,0-.74-1c3.93-1.11,4.79-3.35,5.1-6.39ZM57,321.4c0,.54.13.63.85.63h2.45c.7,0,.83-.38.9-2.79a3.17,3.17,0,0,0,1.12.5c-.15,2.76-.49,3.44-1.91,3.44H57.74c-1.54,0-1.94-.38-1.94-1.8v-5.53H46.06v-1.18h7.38v-3.82H49.53a13.18,13.18,0,0,1-1.63,2.84,6.64,6.64,0,0,0-1-.57,15.94,15.94,0,0,0,2.65-5.91l1.53.36c-.06.13-.16.18-.4.18a18.65,18.65,0,0,1-.63,1.93h3.44v-2.92l1.59.09c0,.15-.13.24-.36.25v2.58h6.1v1.17h-6.1v3.82h7.4v1.18H57Z" class="cls-2"/><path data-cppathid="10013" transform="translate(0 0)" d="M65.66,314.67c0,3.35-.14,6.28-1.38,8.77a5.78,5.78,0,0,0-.83-.73c1.06-2.3,1.19-5,1.19-8v-7.26l1.36.09c0,.11-.1.2-.34.23Zm1.46,6.19V308.71l1.24.09c0,.11-.09.18-.3.21v11.85Zm2.5-13.5,1.37.09c0,.1-.11.19-.34.23v15.18h-1Zm5.66,13.79a.59.59,0,0,1-.35.12,11.58,11.58,0,0,1-3.36,2.24,4.55,4.55,0,0,0-.78-.81,11.18,11.18,0,0,0,3.33-2.18Zm-3-10.55H74.9c.14-.58.3-1.28.41-1.88H71.53v-1.08h8.91v1.08h-3.9c-.13.54-.33,1.25-.53,1.88h3.82v9.47H72.29Zm6.37,2.84v-1.89H73.4v1.89Zm0,2.81v-1.89H73.4v1.89Zm0,2.86v-1.92H73.4v1.92Zm1.1,4.43a19.63,19.63,0,0,0-3-2.37l.9-.62a19.22,19.22,0,0,1,3.06,2.31Z" class="cls-2"/><path data-cppathid="10014" transform="translate(0 0)" d="M84.13,313.12a20.6,20.6,0,0,1-2.2,3A8.59,8.59,0,0,0,81.3,315a23.88,23.88,0,0,0,4.5-8.1l1.44.48c-.07.13-.19.18-.41.17a32.46,32.46,0,0,1-1.66,3.72l.49.13c0,.11-.13.2-.36.22v11.93H84.13Zm2.29,8.33H98.5v1.17H86.42Zm.45-11.05h4.84v-3.6l1.57.09c0,.14-.11.21-.36.25v3.26H98v1.17H86.87Zm2.5,2.39a45.05,45.05,0,0,1,1.53,7.42l-1.21.25A45.25,45.25,0,0,0,88.27,313Zm7.56.31c0,.13-.2.22-.41.22a60.82,60.82,0,0,1-2,7.25s-1-.32-1-.34a53.87,53.87,0,0,0,1.92-7.54Z" class="cls-2"/><path data-cppathid="10015" transform="translate(0 0)" d="M56.93,330.17a20.91,20.91,0,0,1-2,2.95,9.75,9.75,0,0,0-.63-1.13,24.19,24.19,0,0,0,4.28-8.12l1.43.47c0,.12-.18.2-.4.18a33.61,33.61,0,0,1-1.51,3.56l.41.13c0,.11-.12.2-.36.23v12.07H56.93Zm14.48,1.14H67.2c.55,4.05,1.71,7.23,2.91,7.25.42,0,.6-.75.67-2.54a2.88,2.88,0,0,0,1,.63c-.22,2.42-.65,3.12-1.75,3.12-2,0-3.38-3.73-4-8.46H61.78v4.95l4.46-.79.05,1c-2.28.49-4.64,1-6.19,1.28a.3.3,0,0,1-.23.25l-.53-1.36,1.25-.2V325.72l.7.24a47.94,47.94,0,0,0,8.26-1.59l1,1a.32.32,0,0,1-.2.06.44.44,0,0,1-.16,0c-.83.25-1.91.49-3.08.72a.44.44,0,0,1-.33.14,36.06,36.06,0,0,0,.24,3.93h4.34ZM59.89,340v-1.1h7.86V340Zm1.89-9.8h4.08c-.14-1.22-.21-2.52-.25-3.8-1.26.2-2.59.38-3.83.52Z" class="cls-2"/><path data-cppathid="10016" transform="translate(0 0)" d="M28.79,312.28a22.44,22.44,0,0,1-1.89,2.88,10.76,10.76,0,0,0-.6-1.17,24.32,24.32,0,0,0,4-8.12l1.43.45c-.06.13-.18.2-.42.2a34.91,34.91,0,0,1-1.38,3.56l.41.13c0,.13-.13.2-.34.23v12.07H28.79Zm12.15,5.38.85.44a.66.66,0,0,1-.2.16,8.16,8.16,0,0,1-3,2.32,23.46,23.46,0,0,0,5,1,4,4,0,0,0-.68,1,20.85,20.85,0,0,1-5.67-1.4,25.39,25.39,0,0,1-5.78,1.35,5.24,5.24,0,0,0-.61-.92,27.67,27.67,0,0,0,5.15-1A8.43,8.43,0,0,1,34,319a16.27,16.27,0,0,1-2.25,1.12,3.25,3.25,0,0,0-.72-.76,12.5,12.5,0,0,0,4.41-2.57c-.54-.13-.7-.43-.7-1.08v-1.19l1.35.09c0,.11-.11.2-.34.22v.88c0,.32.11.4.76.4H38.8c.45,0,.54-.09.61-.85a3.7,3.7,0,0,0,.85.29c-.09,1-.4,1.31-1.3,1.31H37a.56.56,0,0,1-.31.11,9.42,9.42,0,0,1-.79.72h4.85Zm-7.85-9.11h3.19a8.85,8.85,0,0,0,.27-1H31.72v-1H43.21v1H37.79c-.09.29-.22.65-.34,1h4.21v4.61h1.75v2.45H42.29V314H37.38a7.34,7.34,0,0,1,1.29,1l-.74.56A8,8,0,0,0,36,314.12l.18-.13H32.33v1.62H31.25v-2.45h1.84ZM34.44,315a7.12,7.12,0,0,1-2,2.07l-.77-.65a5.56,5.56,0,0,0,1.94-1.88Zm6.09-4.92v-.83H34.21v.83Zm0,1.53v-.85H34.21v.85Zm-6.32,1.51h6.32v-.84H34.21Zm.68,5.37a7.87,7.87,0,0,0,2.43,1.55,8.63,8.63,0,0,0,2.56-1.55Zm7.29-1.39A10.7,10.7,0,0,0,40.06,315l.81-.47A10.6,10.6,0,0,1,43,316.62Z" class="cls-3"/><path data-cppathid="10017" transform="translate(0 0)" d="M51.52,315.25c0,.13-.14.22-.37.24-.47,3.16-1.36,5.67-5.57,7a3.84,3.84,0,0,0-.74-1c3.93-1.11,4.79-3.35,5.1-6.39ZM56,320.4c0,.54.13.63.85.63h2.45c.7,0,.83-.38.9-2.79a3.17,3.17,0,0,0,1.12.5c-.15,2.76-.49,3.44-1.91,3.44H56.74c-1.54,0-1.94-.38-1.94-1.8v-5.53H45.06v-1.18h7.38v-3.82H48.53a13.18,13.18,0,0,1-1.63,2.84,6.64,6.64,0,0,0-1-.57,15.94,15.94,0,0,0,2.65-5.91l1.53.36c-.06.13-.16.18-.4.18a18.65,18.65,0,0,1-.63,1.93h3.44v-2.92l1.59.09c0,.15-.13.24-.36.25v2.58h6.1v1.17h-6.1v3.82h7.4v1.18H56Z" class="cls-3"/><path data-cppathid="10018" transform="translate(0 0)" d="M64.66,313.67c0,3.35-.14,6.28-1.38,8.77a5.78,5.78,0,0,0-.83-.73c1.06-2.3,1.19-5,1.19-8v-7.26l1.36.09c0,.11-.1.2-.34.23Zm1.46,6.19V307.71l1.24.09c0,.11-.09.18-.3.21v11.85Zm2.5-13.5,1.37.09c0,.1-.11.19-.34.23v15.18h-1Zm5.66,13.79a.59.59,0,0,1-.35.12,11.58,11.58,0,0,1-3.36,2.24,4.55,4.55,0,0,0-.78-.81,11.18,11.18,0,0,0,3.33-2.18Zm-3-10.55H73.9c.14-.58.3-1.28.41-1.88H70.53v-1.08h8.91v1.08h-3.9c-.13.54-.33,1.25-.53,1.88h3.82v9.47H71.29Zm6.37,2.84v-1.89H72.4v1.89Zm0,2.81v-1.89H72.4v1.89Zm0,2.86v-1.92H72.4v1.92Zm1.1,4.43a19.63,19.63,0,0,0-3-2.37l.9-.62a19.22,19.22,0,0,1,3.06,2.31Z" class="cls-3"/><path data-cppathid="10019" transform="translate(0 0)" d="M83.13,312.12a20.6,20.6,0,0,1-2.2,3A8.59,8.59,0,0,0,80.3,314a23.88,23.88,0,0,0,4.5-8.1l1.44.48c-.07.13-.19.18-.41.17a32.46,32.46,0,0,1-1.66,3.72l.49.13c0,.11-.13.2-.36.22v11.93H83.13Zm2.29,8.33H97.5v1.17H85.42Zm.45-11.05h4.84v-3.6l1.57.09c0,.14-.11.21-.36.25v3.26H97v1.17H85.87Zm2.5,2.39a45.05,45.05,0,0,1,1.53,7.42l-1.21.25A45.25,45.25,0,0,0,87.27,312Zm7.56.31c0,.13-.2.22-.41.22a60.82,60.82,0,0,1-2,7.25s-1-.32-1-.34a53.87,53.87,0,0,0,1.92-7.54Z" class="cls-3"/><path data-cppathid="10020" transform="translate(0 0)" d="M55.93,329.17a20.91,20.91,0,0,1-2,2.95,9.75,9.75,0,0,0-.63-1.13,24.19,24.19,0,0,0,4.28-8.12l1.43.47c0,.12-.18.2-.4.18a33.61,33.61,0,0,1-1.51,3.56l.41.13c0,.11-.12.2-.36.23v12.07H55.93Zm14.48,1.14H66.2c.55,4.05,1.71,7.23,2.91,7.25.42,0,.6-.75.67-2.54a2.88,2.88,0,0,0,1,.63c-.22,2.42-.65,3.12-1.75,3.12-2,0-3.38-3.73-4-8.46H60.78v4.95l4.46-.79.05,1c-2.28.49-4.64,1-6.19,1.28a.3.3,0,0,1-.23.25l-.53-1.36,1.25-.2V324.72l.7.24a47.94,47.94,0,0,0,8.26-1.59l1,1a.32.32,0,0,1-.2.06.44.44,0,0,1-.16,0c-.83.25-1.91.49-3.08.72a.44.44,0,0,1-.33.14,36.06,36.06,0,0,0,.24,3.93h4.34ZM58.89,339v-1.1h7.86V339Zm1.89-9.8h4.08c-.14-1.22-.21-2.52-.25-3.8-1.26.2-2.59.38-3.83.52Z" class="cls-3"/></g><g data-name="generic PBIs" id="generic_PBIs"><rect data-cppathid="10021" rx="5.67" height="42.85" width="171" y="88.96" x="155.02" class="cls-4"/><rect data-cppathid="10022" rx="5.67" height="42.85" width="171" y="41.19" x="155.02" class="cls-4"/><rect data-cppathid="10023" rx="5.67" height="42.85" width="171" y="136.72" x="155.02" class="cls-4"/><rect data-cppathid="10024" rx="5.67" height="42.85" width="171" y="184.49" x="155.02" class="cls-4"/><rect data-cppathid="10025" rx="5.67" height="42.85" width="171" y="232.26" x="155.02" class="cls-4"/><rect data-cppathid="10026" rx="4.75" height="35.89" width="143.25" y="283.02" x="167.29" class="cls-5"/><rect data-cppathid="10027" rx="3.89" height="29.43" width="117.46" y="327.79" x="179.61" class="cls-6"/><path data-cppathid="10028" transform="translate(0 0)" d="M168.25,60.23a.39.39,0,0,1-.35.23l-.16,0-.52-.16q-.27-.09-.27-.3a.4.4,0,0,1,.07-.21l4.28-6.89H164c-.26,0-.4-.12-.4-.36s.14-.36.4-.36h8.77c.22,0,.34.08.34.25a.53.53,0,0,1-.08.23Zm4.15-7.56a2.36,2.36,0,0,1-1-.22,1.86,1.86,0,0,1-.74-.57,1.35,1.35,0,0,1,0-1.62,1.84,1.84,0,0,1,.74-.56,2.51,2.51,0,0,1,1-.21,2.43,2.43,0,0,1,1,.21,1.84,1.84,0,0,1,.74.56,1.35,1.35,0,0,1,0,1.62,1.86,1.86,0,0,1-.74.57A2.29,2.29,0,0,1,172.4,52.67Zm0-.53a.63.63,0,0,0,.42-.16,1.2,1.2,0,0,0,.35-.39,1,1,0,0,0,.14-.52,1.14,1.14,0,0,0-.13-.52,1.07,1.07,0,0,0-.35-.38.7.7,0,0,0-.43-.15.72.72,0,0,0-.42.15,1,1,0,0,0-.35.38,1,1,0,0,0-.13.52,1,1,0,0,0,.14.52,1.17,1.17,0,0,0,.34.39A.67.67,0,0,0,172.36,52.14Z" class="cls-7"/><path data-cppathid="10029" transform="translate(0 0)" d="M184.71,59.92a.35.35,0,0,1-.4.4h-.74a.34.34,0,0,1-.37-.25h-6.11a.36.36,0,0,1-.38.25H176a.35.35,0,0,1-.4-.4V52.63a.35.35,0,0,1,.4-.4h8.34a.35.35,0,0,1,.4.4Zm-1.54-7h-6.06v6.39h6.06Z" class="cls-7"/><path data-cppathid="10030" transform="translate(0 0)" d="M188.3,56.51a.37.37,0,0,1-.34.23h-.09l-.08,0-.56-.15c-.19,0-.28-.14-.28-.3a.48.48,0,0,1,.06-.21l2.68-4.73a.37.37,0,0,1,.33-.23h.09l.08,0,.57.14q.27.07.27.3a.52.52,0,0,1-.06.22v0H196c.24,0,.35.09.35.26a.46.46,0,0,1-.07.22l-4.58,7.94a.42.42,0,0,1-.36.23h-.07l-.09,0-.54-.15c-.19,0-.29-.14-.29-.3a.52.52,0,0,1,.07-.21l1.83-3.16h0L190,55.24a.31.31,0,0,1-.2-.27.38.38,0,0,1,.17-.28l.14-.12a.44.44,0,0,1,.3-.12.46.46,0,0,1,.25.08l2.13,1.28,1.89-3.28h-4.09Zm8.3-4.68a.25.25,0,0,1,0,.1c0,.15-.11.23-.32.25l-.35,0c-.25,0-.4,0-.46-.24l-.62-1.9a.31.31,0,0,1,0-.1c0-.16.1-.24.32-.26l.35,0c.26,0,.41,0,.47.23Zm1.32-.56a.31.31,0,0,1,0,.1c0,.14-.1.23-.31.26l-.35,0c-.25,0-.41-.05-.47-.23l-.61-1.78s0,0,0-.06v-.05c0-.13.11-.22.32-.25l.35,0c.26,0,.41.05.47.23Z" class="cls-7"/><path data-cppathid="10031" transform="translate(0 0)" d="M199.44,56.37a.42.42,0,0,1-.34.22.72.72,0,0,1-.19,0l-.49-.16q-.27-.09-.27-.3a.42.42,0,0,1,.08-.22L201,51.65a.4.4,0,0,1,.34-.21.48.48,0,0,1,.18,0l.49.16c.19.06.28.16.28.3a.53.53,0,0,1-.08.23l0,.07h5.53c.23,0,.34.08.34.25a.59.59,0,0,1-.07.23l-4.8,7.72a.42.42,0,0,1-.36.22.5.5,0,0,1-.16,0l-.52-.16q-.27-.09-.27-.3a.4.4,0,0,1,.07-.21l4.34-7H201.7Z" class="cls-7"/><path data-cppathid="10032" transform="translate(0 0)" d="M212.34,60.31a.34.34,0,0,1-.39.39h-.75a.34.34,0,0,1-.39-.39V52a.35.35,0,0,1,.39-.4H212a.35.35,0,0,1,.39.4v3.4l4.35,1.41c.18.06.27.16.27.29a.35.35,0,0,1-.07.2l0,.06a.37.37,0,0,1-.34.2h-.08l-.09,0-4-1.28Z" class="cls-7"/><path data-cppathid="10033" transform="translate(0 0)" d="M220.14,59.79a.38.38,0,0,1-.45.3L219,60c-.22,0-.33-.14-.33-.34a.4.4,0,0,1,0-.13l2-7a.38.38,0,0,1,.45-.3l.7.09c.22,0,.34.13.34.33a.58.58,0,0,1,0,.14Zm8-.28s0,.05,0,.08v.07c0,.19-.1.3-.32.32l-.71.09a.38.38,0,0,1-.46-.3l-2-7.06s0-.05,0-.07v-.07c0-.2.11-.3.32-.33l.71-.08a.38.38,0,0,1,.46.31Zm-.44-6.62s0,.07,0,.11-.11.26-.33.28l-.35,0c-.24,0-.4,0-.45-.26L225.91,51s0-.06,0-.11.11-.26.33-.28l.34,0c.26,0,.42.06.47.26Zm1.32-.6s0,.06,0,.11-.11.24-.32.28l-.34,0c-.26,0-.42-.06-.47-.26l-.61-1.95a.14.14,0,0,1,0-.06.13.13,0,0,1,0-.06c0-.14.11-.23.33-.26l.35,0c.25,0,.41,0,.46.25Z" class="cls-7"/><path data-cppathid="10034" transform="translate(0 0)" d="M231.75,56.66s0,.07,0,.13-.11.3-.33.32l-.69.09a.4.4,0,0,1-.47-.33L229.82,55a.24.24,0,0,1,0-.08v-.06c0-.19.11-.3.33-.32l.69-.08a.39.39,0,0,1,.46.32Zm2-.3a.2.2,0,0,1,0,.09c0,.21-.12.33-.36.35l-.72.06a.37.37,0,0,1-.45-.35l-.32-1.84a.31.31,0,0,1,0-.1c0-.21.12-.32.36-.35l.72-.06a.37.37,0,0,1,.44.35Zm.64,4a.41.41,0,0,1-.38.26h-.12l-.61-.15c-.2,0-.29-.14-.29-.3a.45.45,0,0,1,0-.2l2.43-5a.4.4,0,0,1,.38-.27h.12l.61.15c.2.05.29.15.29.3a.45.45,0,0,1,0,.2Z" class="cls-7"/><path data-cppathid="10035" transform="translate(0 0)" d="M239.74,56.37a.43.43,0,0,1-.35.22.65.65,0,0,1-.18,0l-.49-.16c-.19-.06-.28-.16-.28-.3a.37.37,0,0,1,.09-.22l2.78-4.22a.42.42,0,0,1,.35-.21l.18,0,.49.16c.19.06.28.16.28.3a.45.45,0,0,1-.09.23l0,.07H248c.22,0,.33.08.33.25a.46.46,0,0,1-.07.23l-4.8,7.72a.42.42,0,0,1-.36.22.53.53,0,0,1-.16,0l-.51-.16c-.19-.06-.28-.16-.28-.3a.43.43,0,0,1,.08-.21l4.34-7H242Z" class="cls-7"/><path data-cppathid="10036" transform="translate(0 0)" d="M259.78,59.92a.35.35,0,0,1-.4.4h-.74a.35.35,0,0,1-.37-.25h-6.11a.35.35,0,0,1-.37.25H251a.35.35,0,0,1-.39-.4V52.63a.35.35,0,0,1,.39-.4h8.34a.35.35,0,0,1,.4.4Zm-1.54-7h-6.06v6.39h6.06Z" class="cls-7"/><path data-cppathid="10037" transform="translate(0 0)" d="M263.31,56.37a.43.43,0,0,1-.35.22.58.58,0,0,1-.18,0l-.49-.16c-.19-.06-.28-.16-.28-.3a.37.37,0,0,1,.09-.22l2.78-4.22a.42.42,0,0,1,.35-.21l.18,0,.49.16c.18.06.28.16.28.3a.45.45,0,0,1-.09.23l0,.07h5.54c.22,0,.33.08.33.25a.46.46,0,0,1-.07.23L267,60.43a.42.42,0,0,1-.36.22.53.53,0,0,1-.16,0l-.51-.16c-.19-.06-.28-.16-.28-.3a.52.52,0,0,1,.07-.21l4.35-7h-4.59Zm8.58-4a.49.49,0,0,1,0,.13.32.32,0,0,1-.32.34l-.35,0a.37.37,0,0,1-.46-.32L270.15,50a.45.45,0,0,1,0-.13c0-.2.1-.31.32-.33l.35,0a.37.37,0,0,1,.47.31Zm1.32-.73a.45.45,0,0,1,0,.13.33.33,0,0,1-.31.34l-.35.06a.37.37,0,0,1-.47-.32l-.61-2.35s0,0,0-.07v-.07c0-.18.1-.29.32-.33l.35-.06a.38.38,0,0,1,.47.32Z" class="cls-7"/><path data-cppathid="10038" transform="translate(0 0)" d="M277.52,60.35a.4.4,0,0,1-.56,0l-.27-.17a.33.33,0,0,1-.19-.27.47.47,0,0,1,.13-.27,4.55,4.55,0,0,0,1-2.07,16,16,0,0,0,.35-3.57.35.35,0,0,1,.4-.4h.74c.27,0,.4.23.39.7s0,.72,0,1,0,.63-.07.91l0,0,2.7-3.66h-8.06c-.26,0-.4-.12-.4-.36s.14-.36.4-.36h9.55c.23,0,.34.08.34.24a.4.4,0,0,1-.1.24l-3.25,4.43a.44.44,0,0,1-.36.19h-.17l-.48-.17a.39.39,0,0,1-.24-.18,7,7,0,0,1-.61,2.2A5,5,0,0,1,277.52,60.35Z" class="cls-7"/><path data-cppathid="10039" transform="translate(0 0)" d="M286.23,57.46a.47.47,0,0,1-.25.07.41.41,0,0,1-.3-.12l-.12-.09a.38.38,0,0,1-.17-.28.35.35,0,0,1,.2-.27L294,51.89a.59.59,0,0,1,.25-.07.44.44,0,0,1,.3.12l.12.1a.39.39,0,0,1,.17.27c0,.1-.07.19-.21.28l-3.33,1.93a.41.41,0,0,1,.09.28v5.4a.34.34,0,0,1-.39.39h-.75a.34.34,0,0,1-.39-.39V55.35Z" class="cls-7"/><path data-cppathid="10040" transform="translate(0 0)" d="M301.49,60.38a.38.38,0,0,1-.48.29l-.67-.11c-.21,0-.31-.15-.31-.31v-.09s0,0,0-.08l1.44-4.55h-4.85q-.39,0-.39-.36t.39-.36h9.3c.27,0,.4.12.4.36s-.13.36-.4.36H303v.08a.29.29,0,0,1,0,.09Zm3.88-8.71q.39,0,.39.36t-.39.36h-7.91c-.26,0-.4-.12-.4-.36s.14-.36.4-.36Z" class="cls-7"/><path data-cppathid="10041" transform="translate(0 0)" d="M317.66,60.07a.48.48,0,0,1,.06.21c0,.15-.1.25-.28.3l-.56.15h-.17a.37.37,0,0,1-.34-.23l-.67-1.2-7.43,1.15c-.25,0-.38,0-.38-.22A.48.48,0,0,1,308,60l4-7.91a.39.39,0,0,1,.37-.24l.13,0L313,52c.19.05.29.15.29.3a.46.46,0,0,1,0,.2l-3.48,7,5.55-.86-1.1-2a.48.48,0,0,1-.06-.21c0-.16.09-.26.28-.3L315,56l.08,0h.09a.36.36,0,0,1,.33.23Z" class="cls-7"/><path data-cppathid="10042" transform="translate(0 0)" d="M229.9,77a.34.34,0,0,1,.18.29.37.37,0,0,1-.12.25l-.07.08a.44.44,0,0,1-.33.16.7.7,0,0,1-.23-.06q-2.62-1.39-2.62-5t2.62-5a.7.7,0,0,1,.23-.06.46.46,0,0,1,.33.15l.08.09a.35.35,0,0,1,.12.25.37.37,0,0,1-.19.29,3.19,3.19,0,0,0-.87,1,6.09,6.09,0,0,0-.58,1.49,7.65,7.65,0,0,0-.21,1.83,7.57,7.57,0,0,0,.21,1.82A6.09,6.09,0,0,0,229,76,3.23,3.23,0,0,0,229.9,77Z" class="cls-7"/><path data-cppathid="10043" transform="translate(0 0)" d="M233.69,76.79a.41.41,0,0,1-.41.41h-.72a.41.41,0,0,1-.41-.41V68.43a.4.4,0,0,1,.36-.39l.8-.06c.25,0,.5,0,.73,0q4.08,0,4.08,3.15a2.27,2.27,0,0,1-1,2,5.45,5.45,0,0,1-3,.67h-.41Zm0-8.12v4.41h.49a4.28,4.28,0,0,0,1.44-.19,1.39,1.39,0,0,0,.74-.64,2.51,2.51,0,0,0,.22-1.15,3.75,3.75,0,0,0-.23-1.43,1.47,1.47,0,0,0-.78-.77,3.82,3.82,0,0,0-1.5-.24Z" class="cls-7"/><path data-cppathid="10044" transform="translate(0 0)" d="M238.9,68.46a.39.39,0,0,1,.39-.42l.93-.06c.3,0,.57,0,.83,0a5.89,5.89,0,0,1,2.07.3,2.13,2.13,0,0,1,1.49,2.13,2.16,2.16,0,0,1-.38,1.26,2.47,2.47,0,0,1-1.37.82c1.28.44,1.92,1.17,1.92,2.2a2.61,2.61,0,0,1-.37,1.42,2.31,2.31,0,0,1-1.19.91,6.34,6.34,0,0,1-2.21.32l-.8,0c-.28,0-.58,0-.9-.07s-.41-.16-.41-.4Zm1.39.23v3.36a7.48,7.48,0,0,0,1.81-.22,1.86,1.86,0,0,0,1-.57,1.36,1.36,0,0,0,.29-.87,2.1,2.1,0,0,0-.18-.88,1.43,1.43,0,0,0-.66-.62,3,3,0,0,0-1.29-.22h-.45Zm0,7.91H241a2.9,2.9,0,0,0,1.78-.47,1.75,1.75,0,0,0,.61-1.47,1.53,1.53,0,0,0-.71-1.38,4.92,4.92,0,0,0-2.41-.52Z" class="cls-7"/><path data-cppathid="10045" transform="translate(0 0)" d="M247.66,76.43v0h.51a.41.41,0,0,1,.29.1.32.32,0,0,1,.12.26.34.34,0,0,1-.12.26.46.46,0,0,1-.29.1h-2.56a.46.46,0,0,1-.29-.1.34.34,0,0,1-.12-.26.32.32,0,0,1,.12-.26.41.41,0,0,1,.29-.1h.51V68.8h-.51a.46.46,0,0,1-.29-.1.34.34,0,0,1-.12-.26.32.32,0,0,1,.12-.26.41.41,0,0,1,.29-.1h2.56a.41.41,0,0,1,.29.1.32.32,0,0,1,.12.26.34.34,0,0,1-.12.26.46.46,0,0,1-.29.1h-.51v7.63Z" class="cls-7"/><path data-cppathid="10046" transform="translate(0 0)" d="M252,76a5.71,5.71,0,0,0,.58-1.49,7.57,7.57,0,0,0,.21-1.82,7.65,7.65,0,0,0-.21-1.83,5.71,5.71,0,0,0-.58-1.49,3.17,3.17,0,0,0-.86-1,.37.37,0,0,1-.19-.29.35.35,0,0,1,.12-.25l.08-.09a.44.44,0,0,1,.32-.15.6.6,0,0,1,.23.06q2.63,1.38,2.63,5t-2.63,5a.6.6,0,0,1-.23.06.42.42,0,0,1-.32-.16l-.07-.08a.37.37,0,0,1-.12-.25.34.34,0,0,1,.18-.29A3.21,3.21,0,0,0,252,76Z" class="cls-7"/><rect data-cppathid="10047" rx="2.77" height="20.96" width="83.64" y="366.02" x="195.33" class="cls-8"/><path data-cppathid="10048" transform="translate(0 0)" d="M166.65,105.43a.42.42,0,0,1-.36.23l-.16,0-.51-.16c-.19-.06-.28-.16-.28-.3a.4.4,0,0,1,.07-.21l4.29-6.89h-7.35q-.39,0-.39-.36t.39-.36h8.77c.23,0,.34.08.34.25a.49.49,0,0,1-.07.23Zm4.14-7.56a2.4,2.4,0,0,1-1-.22,1.93,1.93,0,0,1-.74-.57,1.35,1.35,0,0,1,0-1.62,1.91,1.91,0,0,1,.74-.56,2.54,2.54,0,0,1,1-.21,2.51,2.51,0,0,1,1,.21,1.81,1.81,0,0,1,.73.56,1.35,1.35,0,0,1,0,1.62,1.83,1.83,0,0,1-.73.57A2.36,2.36,0,0,1,170.79,97.87Zm0-.54a.66.66,0,0,0,.42-.15,1.17,1.17,0,0,0,.34-.39,1,1,0,0,0,.14-.52,1,1,0,0,0-.13-.52,1,1,0,0,0-.34-.38.72.72,0,0,0-.43-.15.75.75,0,0,0-.43.15,1.07,1.07,0,0,0-.35.38,1.14,1.14,0,0,0-.13.52,1,1,0,0,0,.14.52,1.2,1.2,0,0,0,.35.39A.64.64,0,0,0,170.76,97.33Z" class="cls-7"/><path data-cppathid="10049" transform="translate(0 0)" d="M183.1,105.12a.35.35,0,0,1-.4.4H182a.35.35,0,0,1-.37-.25h-6.11a.35.35,0,0,1-.37.25h-.74a.35.35,0,0,1-.4-.4V97.83a.35.35,0,0,1,.4-.4h8.33a.35.35,0,0,1,.4.4Zm-1.54-7H175.5v6.39h6.06Z" class="cls-7"/><path data-cppathid="10050" transform="translate(0 0)" d="M186.69,101.71a.36.36,0,0,1-.34.23h-.08l-.09,0-.56-.15c-.18,0-.28-.14-.28-.3a.52.52,0,0,1,.07-.21l2.67-4.73a.37.37,0,0,1,.34-.23h.08l.08,0,.57.14q.27.07.27.3a.49.49,0,0,1,0,.22l0,0h5.08c.23,0,.35.09.35.26a.49.49,0,0,1-.08.22l-4.58,7.94a.39.39,0,0,1-.36.23h-.07l-.08,0-.54-.15c-.2,0-.29-.14-.29-.3a.4.4,0,0,1,.07-.21l1.82-3.16h0l-2.29-1.37q-.21-.1-.21-.27a.38.38,0,0,1,.17-.28l.14-.12a.44.44,0,0,1,.3-.12.5.5,0,0,1,.26.08l2.12,1.28,1.9-3.28H189ZM195,97a.25.25,0,0,1,0,.1c0,.15-.1.23-.32.25l-.35,0q-.37,0-.45-.24l-.63-1.91a.22.22,0,0,1,0-.09c0-.16.11-.24.33-.26l.34,0c.26,0,.41,0,.47.23Zm1.32-.56a.31.31,0,0,1,0,.1c0,.14-.1.23-.31.26l-.35,0c-.25,0-.41-.05-.46-.23l-.62-1.78s0,0,0-.06a.07.07,0,0,1,0,0c0-.13.11-.22.32-.25l.35,0c.26,0,.41.05.47.23Z" class="cls-7"/><path data-cppathid="10051" transform="translate(0 0)" d="M197.84,101.57a.45.45,0,0,1-.35.22.58.58,0,0,1-.18,0l-.49-.16c-.19-.06-.28-.16-.28-.3a.42.42,0,0,1,.08-.22l2.79-4.22a.41.41,0,0,1,.35-.21.57.57,0,0,1,.18,0l.49.16q.27.09.27.3a.42.42,0,0,1-.08.23l-.05.07h5.54c.22,0,.33.08.33.25a.46.46,0,0,1-.07.23l-4.8,7.72a.42.42,0,0,1-.36.22.53.53,0,0,1-.16,0l-.51-.16c-.19-.06-.28-.16-.28-.3a.4.4,0,0,1,.07-.21l4.35-7h-4.59Z" class="cls-7"/><path data-cppathid="10052" transform="translate(0 0)" d="M210.74,105.51a.35.35,0,0,1-.4.39h-.74a.35.35,0,0,1-.4-.39V97.17a.35.35,0,0,1,.4-.4h.74a.35.35,0,0,1,.4.4v3.4l4.34,1.41c.19.06.28.16.28.29a.37.37,0,0,1-.08.2l0,.06a.4.4,0,0,1-.35.2h-.08l-.09,0-4-1.28Z" class="cls-7"/><path data-cppathid="10053" transform="translate(0 0)" d="M218.54,105a.39.39,0,0,1-.46.3l-.7-.08c-.22,0-.33-.14-.33-.34,0,0,0-.07,0-.13l2-7a.38.38,0,0,1,.46-.3l.69.09c.23,0,.34.13.34.33a.58.58,0,0,1,0,.14Zm8-.28a.24.24,0,0,1,0,.08s0,0,0,.07c0,.19-.11.3-.33.32l-.71.09a.37.37,0,0,1-.45-.3l-2-7.06a.19.19,0,0,1,0-.07.2.2,0,0,1,0-.07c0-.2.11-.3.33-.33l.7-.08a.38.38,0,0,1,.46.31Zm-.44-6.62a.37.37,0,0,1,0,.11c0,.17-.11.26-.32.28l-.35,0c-.25,0-.4,0-.46-.26l-.62-2.08a.34.34,0,0,1,0-.11c0-.17.1-.26.32-.28l.35,0a.38.38,0,0,1,.47.26Zm1.32-.6a.34.34,0,0,1,0,.11c0,.15-.1.24-.31.28l-.35.05c-.26,0-.41-.06-.47-.26l-.61-2s0,0,0-.06V95.6c0-.14.1-.23.32-.26l.35,0a.37.37,0,0,1,.47.25Z" class="cls-7"/><path data-cppathid="10054" transform="translate(0 0)" d="M230.14,101.86a.45.45,0,0,1,0,.13c0,.19-.11.3-.32.32l-.7.09a.41.41,0,0,1-.47-.33l-.45-1.84a.22.22,0,0,1,0-.08v-.06c0-.19.1-.3.32-.32l.7-.08a.37.37,0,0,1,.45.32Zm2-.3a.22.22,0,0,1,0,.09c0,.21-.12.33-.36.35l-.72.06a.36.36,0,0,1-.44-.35l-.33-1.84a.31.31,0,0,1,0-.1c0-.21.12-.32.36-.35l.72-.06a.37.37,0,0,1,.44.35Zm.63,4a.4.4,0,0,1-.38.26h-.12l-.61-.15c-.19,0-.29-.14-.29-.3a.46.46,0,0,1,0-.2l2.42-5a.4.4,0,0,1,.39-.27h.12l.61.15c.19,0,.29.15.29.3a.46.46,0,0,1-.05.2Z" class="cls-7"/><path data-cppathid="10055" transform="translate(0 0)" d="M238.13,101.57a.42.42,0,0,1-.35.22.74.74,0,0,1-.18,0l-.49-.16q-.27-.09-.27-.3a.42.42,0,0,1,.08-.22l2.78-4.22a.43.43,0,0,1,.35-.21.48.48,0,0,1,.18,0l.49.16c.19.06.28.16.28.3a.53.53,0,0,1-.08.23l0,.07h5.53c.22,0,.34.08.34.25a.49.49,0,0,1-.08.23l-4.79,7.72a.43.43,0,0,1-.37.22.44.44,0,0,1-.15,0l-.52-.16q-.27-.09-.27-.3a.4.4,0,0,1,.07-.21l4.34-7h-4.58Z" class="cls-7"/><path data-cppathid="10056" transform="translate(0 0)" d="M258.17,105.12a.35.35,0,0,1-.39.4H257a.35.35,0,0,1-.37-.25h-6.11a.35.35,0,0,1-.37.25h-.74a.35.35,0,0,1-.4-.4V97.83a.35.35,0,0,1,.4-.4h8.34a.35.35,0,0,1,.39.4Zm-1.53-7h-6.06v6.39h6.06Z" class="cls-7"/><path data-cppathid="10057" transform="translate(0 0)" d="M261.7,101.57a.42.42,0,0,1-.35.22.74.74,0,0,1-.18,0l-.49-.16q-.27-.09-.27-.3a.35.35,0,0,1,.08-.22l2.78-4.22a.43.43,0,0,1,.35-.21.52.52,0,0,1,.18,0l.49.16c.19.06.28.16.28.3a.53.53,0,0,1-.08.23l-.05.07H270c.22,0,.34.08.34.25a.49.49,0,0,1-.08.23l-4.8,7.72a.4.4,0,0,1-.36.22.44.44,0,0,1-.15,0l-.52-.16c-.18-.06-.28-.16-.28-.3a.43.43,0,0,1,.08-.21l4.34-7H264Zm8.58-4a.49.49,0,0,1,0,.13c0,.2-.1.31-.32.34l-.35,0a.37.37,0,0,1-.46-.32l-.62-2.52a.45.45,0,0,1,0-.13.31.31,0,0,1,.32-.33l.35,0a.37.37,0,0,1,.47.31Zm1.32-.73a.45.45,0,0,1,0,.13.33.33,0,0,1-.31.34l-.35.06a.36.36,0,0,1-.46-.32l-.62-2.35s0-.05,0-.07a.17.17,0,0,1,0-.07c0-.18.11-.29.32-.33l.35-.06a.37.37,0,0,1,.47.32Z" class="cls-7"/><path data-cppathid="10058" transform="translate(0 0)" d="M275.91,105.55a.46.46,0,0,1-.3.14.48.48,0,0,1-.25-.09l-.28-.17a.33.33,0,0,1-.19-.27.47.47,0,0,1,.13-.27,4.55,4.55,0,0,0,1-2.07,16.51,16.51,0,0,0,.36-3.57.35.35,0,0,1,.39-.4h.75c.27,0,.4.23.38.7s0,.72,0,1,0,.63-.07.91l0,0,2.7-3.66h-8.07q-.39,0-.39-.36t.39-.36H282q.33,0,.33.24a.4.4,0,0,1-.1.24L279,102a.41.41,0,0,1-.36.19h-.16L278,102a.41.41,0,0,1-.25-.18,6.78,6.78,0,0,1-.61,2.2A4.73,4.73,0,0,1,275.91,105.55Z" class="cls-7"/><path data-cppathid="10059" transform="translate(0 0)" d="M284.62,102.66a.45.45,0,0,1-.25.07.44.44,0,0,1-.3-.12l-.12-.09a.41.41,0,0,1-.17-.28A.35.35,0,0,1,284,102l8.42-4.88a.63.63,0,0,1,.25-.07.44.44,0,0,1,.3.12l.12.1a.39.39,0,0,1,.17.27c0,.1-.07.19-.2.28l-3.34,1.93a.41.41,0,0,1,.1.28v5.4a.35.35,0,0,1-.4.39h-.74a.35.35,0,0,1-.4-.39v-4.85Z" class="cls-7"/><path data-cppathid="10060" transform="translate(0 0)" d="M299.89,105.58a.39.39,0,0,1-.48.29l-.68-.11c-.2,0-.31-.15-.31-.31a.25.25,0,0,1,0-.09.31.31,0,0,1,0-.08l1.44-4.55H295c-.27,0-.4-.12-.4-.36s.13-.36.4-.36h9.3q.39,0,.39.36t-.39.36h-2.95v.08a.16.16,0,0,1,0,.09Zm3.87-8.71c.27,0,.4.12.4.36s-.13.36-.4.36h-7.91q-.39,0-.39-.36t.39-.36Z" class="cls-7"/><path data-cppathid="10061" transform="translate(0 0)" d="M316.05,105.27a.48.48,0,0,1,.06.21c0,.15-.09.25-.28.3l-.56.15h-.17a.37.37,0,0,1-.33-.23l-.68-1.2-7.42,1.15c-.26,0-.39,0-.39-.22a.48.48,0,0,1,.06-.21l4-7.91a.4.4,0,0,1,.37-.24l.14,0,.57.13c.19.05.29.15.29.3a.46.46,0,0,1-.05.2l-3.48,7,5.56-.86-1.11-2a.48.48,0,0,1-.06-.21c0-.16.1-.26.28-.3l.56-.15.09,0h.08a.36.36,0,0,1,.34.23Z" class="cls-7"/><path data-cppathid="10062" transform="translate(0 0)" d="M228.29,122.22a.34.34,0,0,1,.18.29.37.37,0,0,1-.12.25l-.07.08a.42.42,0,0,1-.32.16.6.6,0,0,1-.23-.06q-2.62-1.39-2.63-5t2.63-5a.6.6,0,0,1,.23-.06.44.44,0,0,1,.32.15l.08.09a.35.35,0,0,1,.12.25.37.37,0,0,1-.19.29,3.17,3.17,0,0,0-.86,1,5.71,5.71,0,0,0-.58,1.49,7.65,7.65,0,0,0-.21,1.83,7.57,7.57,0,0,0,.21,1.82,5.71,5.71,0,0,0,.58,1.49A3.21,3.21,0,0,0,228.29,122.22Z" class="cls-7"/><path data-cppathid="10063" transform="translate(0 0)" d="M232.08,122a.4.4,0,0,1-.12.29.38.38,0,0,1-.28.12H231a.38.38,0,0,1-.29-.12.4.4,0,0,1-.12-.29v-8.36a.36.36,0,0,1,.1-.27.4.4,0,0,1,.26-.12l.8-.06c.25,0,.49,0,.72,0q4.08,0,4.08,3.15a2.29,2.29,0,0,1-1,2,5.51,5.51,0,0,1-3,.67h-.41Zm0-8.12v4.41h.5a4.26,4.26,0,0,0,1.43-.19,1.32,1.32,0,0,0,.74-.64,2.5,2.5,0,0,0,.23-1.15,3.54,3.54,0,0,0-.24-1.43,1.4,1.4,0,0,0-.78-.77,3.76,3.76,0,0,0-1.49-.24Z" class="cls-7"/><path data-cppathid="10064" transform="translate(0 0)" d="M237.29,113.66a.39.39,0,0,1,.4-.42l.93-.06c.29,0,.56,0,.82,0a6,6,0,0,1,2.08.3,2.31,2.31,0,0,1,1.13.86,2.24,2.24,0,0,1,.35,1.27,2.15,2.15,0,0,1-.37,1.26,2.5,2.5,0,0,1-1.38.82c1.28.44,1.92,1.17,1.92,2.2a2.7,2.7,0,0,1-.36,1.42,2.38,2.38,0,0,1-1.2.91,6.34,6.34,0,0,1-2.21.32l-.79,0c-.29,0-.59,0-.91-.07s-.41-.16-.41-.4Zm1.39.23v3.36a7.57,7.57,0,0,0,1.82-.22,1.83,1.83,0,0,0,1-.57,1.31,1.31,0,0,0,.3-.87,2.1,2.1,0,0,0-.19-.88,1.36,1.36,0,0,0-.65-.62,3.11,3.11,0,0,0-1.3-.22h-.45Zm0,7.91h.74a2.89,2.89,0,0,0,1.77-.47,1.75,1.75,0,0,0,.61-1.47,1.52,1.52,0,0,0-.7-1.38,5,5,0,0,0-2.42-.52Z" class="cls-7"/><path data-cppathid="10065" transform="translate(0 0)" d="M246.05,121.63v.05h.52a.43.43,0,0,1,.29.1.32.32,0,0,1,.12.26.34.34,0,0,1-.12.26.48.48,0,0,1-.29.1H244a.48.48,0,0,1-.29-.1.34.34,0,0,1-.12-.26.32.32,0,0,1,.12-.26.43.43,0,0,1,.29-.1h.52V114H244a.48.48,0,0,1-.29-.1.34.34,0,0,1-.12-.26.32.32,0,0,1,.12-.26.43.43,0,0,1,.29-.1h2.57a.43.43,0,0,1,.29.1.32.32,0,0,1,.12.26.34.34,0,0,1-.12.26.48.48,0,0,1-.29.1h-.52v7.63Z" class="cls-7"/><path data-cppathid="10066" transform="translate(0 0)" d="M250.4,121.21a6.09,6.09,0,0,0,.58-1.49,7.57,7.57,0,0,0,.21-1.82,7.65,7.65,0,0,0-.21-1.83,6.09,6.09,0,0,0-.58-1.49,3.19,3.19,0,0,0-.87-1,.37.37,0,0,1-.19-.29.35.35,0,0,1,.12-.25l.08-.09a.46.46,0,0,1,.33-.15.7.7,0,0,1,.23.06q2.63,1.38,2.62,5t-2.62,5a.7.7,0,0,1-.23.06.44.44,0,0,1-.33-.16l-.07-.08a.37.37,0,0,1-.12-.25.34.34,0,0,1,.18-.29A3.23,3.23,0,0,0,250.4,121.21Z" class="cls-7"/><path data-cppathid="10067" transform="translate(0 0)" d="M168.25,155.3a.4.4,0,0,1-.35.22.47.47,0,0,1-.16,0l-.52-.16q-.27-.09-.27-.3a.4.4,0,0,1,.07-.21l4.28-6.89H164c-.26,0-.4-.12-.4-.36s.14-.36.4-.36h8.77c.22,0,.34.08.34.25a.49.49,0,0,1-.08.23Zm4.15-7.57a2.51,2.51,0,0,1-1-.21,2,2,0,0,1-.74-.57,1.32,1.32,0,0,1-.27-.81,1.28,1.28,0,0,1,.27-.81,1.86,1.86,0,0,1,.74-.57,2.51,2.51,0,0,1,1-.21,2.43,2.43,0,0,1,1,.21,1.86,1.86,0,0,1,.74.57,1.28,1.28,0,0,1,.27.81,1.32,1.32,0,0,1-.27.81,2,2,0,0,1-.74.57A2.43,2.43,0,0,1,172.4,147.73Zm0-.53a.68.68,0,0,0,.42-.15,1.14,1.14,0,0,0,.35-.4,1,1,0,0,0,.14-.51,1.19,1.19,0,0,0-.13-.53,1.16,1.16,0,0,0-.35-.38.7.7,0,0,0-.43-.15.72.72,0,0,0-.42.15,1.07,1.07,0,0,0-.48.91.94.94,0,0,0,.14.51,1.12,1.12,0,0,0,.34.4A.72.72,0,0,0,172.36,147.2Z" class="cls-7"/><path data-cppathid="10068" transform="translate(0 0)" d="M184.71,155a.35.35,0,0,1-.4.4h-.74a.33.33,0,0,1-.37-.25h-6.11a.35.35,0,0,1-.38.25H176a.35.35,0,0,1-.4-.4v-7.29a.35.35,0,0,1,.4-.4h8.34a.36.36,0,0,1,.4.4Zm-1.54-7h-6.06v6.39h6.06Z" class="cls-7"/><path data-cppathid="10069" transform="translate(0 0)" d="M188.3,151.58a.37.37,0,0,1-.34.22h-.09l-.08,0-.56-.14c-.19,0-.28-.15-.28-.3a.49.49,0,0,1,.06-.22l2.68-4.73a.37.37,0,0,1,.33-.23h.09l.08,0,.57.14q.27.07.27.3a.49.49,0,0,1-.06.22v0H196c.24,0,.35.09.35.27a.46.46,0,0,1-.07.21l-4.58,8a.42.42,0,0,1-.36.22h-.07l-.09,0-.54-.14c-.19-.05-.29-.15-.29-.3a.51.51,0,0,1,.07-.22l1.83-3.16h0L190,150.3a.31.31,0,0,1-.2-.27.38.38,0,0,1,.17-.28l.14-.12a.44.44,0,0,1,.3-.12.4.4,0,0,1,.25.09l2.13,1.27,1.89-3.28h-4.09Zm8.3-4.69a.28.28,0,0,1,0,.1c0,.15-.11.23-.32.25l-.35,0c-.25,0-.4-.05-.46-.24l-.62-1.9a.31.31,0,0,1,0-.1c0-.15.1-.24.32-.26l.35,0c.26,0,.41.05.47.23Zm1.32-.56a.34.34,0,0,1,0,.11c0,.13-.1.22-.31.25l-.35,0c-.25,0-.41,0-.47-.23l-.61-1.78s0,0,0-.05v-.06c0-.13.11-.21.32-.24l.35-.05c.26,0,.41.05.47.24Z" class="cls-7"/><path data-cppathid="10070" transform="translate(0 0)" d="M199.44,151.43a.4.4,0,0,1-.34.22.46.46,0,0,1-.19,0l-.49-.15q-.27-.11-.27-.3a.43.43,0,0,1,.08-.23l2.79-4.21a.4.4,0,0,1,.34-.22.34.34,0,0,1,.18,0l.49.15c.19.07.28.17.28.3a.49.49,0,0,1-.08.23l0,.07h5.53c.23,0,.34.09.34.25a.59.59,0,0,1-.07.23l-4.8,7.72a.44.44,0,0,1-.36.23l-.16,0-.52-.15q-.27-.1-.27-.3a.4.4,0,0,1,.07-.22l4.34-7H201.7Z" class="cls-7"/><path data-cppathid="10071" transform="translate(0 0)" d="M212.34,155.37a.34.34,0,0,1-.39.39h-.75a.34.34,0,0,1-.39-.39V147a.35.35,0,0,1,.39-.4H212a.35.35,0,0,1,.39.4v3.41l4.35,1.4c.18.06.27.16.27.29a.35.35,0,0,1-.07.2l0,.06a.38.38,0,0,1-.34.21h-.08l-.09,0-4-1.28Z" class="cls-7"/><path data-cppathid="10072" transform="translate(0 0)" d="M220.14,154.85a.38.38,0,0,1-.45.3l-.7-.08c-.22,0-.33-.14-.33-.34a.43.43,0,0,1,0-.13l2-7a.37.37,0,0,1,.45-.3l.7.08a.33.33,0,0,1,.34.34.66.66,0,0,1,0,.13Zm8-.27a.64.64,0,0,1,0,.07v.07c0,.19-.1.3-.32.32l-.71.09a.38.38,0,0,1-.46-.3l-2-7.06s0-.05,0-.07v-.07c0-.19.11-.3.32-.33l.71-.08a.38.38,0,0,1,.46.31Zm-.44-6.62s0,.06,0,.11-.11.25-.33.27l-.35,0a.35.35,0,0,1-.45-.26l-.63-2.08s0-.06,0-.11.11-.26.33-.27l.34,0c.26,0,.42,0,.47.25Zm1.32-.61s0,.06,0,.11-.11.25-.32.28l-.34,0c-.26,0-.42,0-.47-.26l-.61-1.94a.14.14,0,0,1,0-.06.13.13,0,0,1,0-.06q0-.22.33-.27l.35,0c.25,0,.41,0,.46.26Z" class="cls-7"/><path data-cppathid="10073" transform="translate(0 0)" d="M231.75,151.72s0,.08,0,.13-.11.3-.33.33l-.69.08a.4.4,0,0,1-.47-.32l-.45-1.85a.25.25,0,0,1,0-.07V150c0-.2.11-.3.33-.33l.69-.08a.39.39,0,0,1,.46.32Zm2-.3a.25.25,0,0,1,0,.1c0,.21-.12.32-.36.34l-.72.06a.37.37,0,0,1-.45-.34l-.32-1.85a.31.31,0,0,1,0-.1c0-.21.12-.32.36-.35l.72-.06a.38.38,0,0,1,.44.35Zm.64,4a.41.41,0,0,1-.38.26h-.12l-.61-.14c-.2,0-.29-.15-.29-.3a.49.49,0,0,1,0-.21l2.43-5a.4.4,0,0,1,.38-.27h.06l.06,0,.61.14c.2,0,.29.15.29.3a.45.45,0,0,1,0,.2Z" class="cls-7"/><path data-cppathid="10074" transform="translate(0 0)" d="M239.74,151.43a.41.41,0,0,1-.35.22.42.42,0,0,1-.18,0l-.49-.15c-.19-.07-.28-.17-.28-.3a.37.37,0,0,1,.09-.23l2.78-4.21a.41.41,0,0,1,.35-.22.39.39,0,0,1,.18,0l.49.15c.19.07.28.17.28.3a.42.42,0,0,1-.09.23l0,.07H248c.22,0,.33.09.33.25a.46.46,0,0,1-.07.23l-4.8,7.72a.44.44,0,0,1-.36.23l-.16,0-.51-.15c-.19-.07-.28-.17-.28-.3a.42.42,0,0,1,.08-.22l4.34-7H242Z" class="cls-7"/><path data-cppathid="10075" transform="translate(0 0)" d="M259.78,155a.35.35,0,0,1-.4.4h-.74a.34.34,0,0,1-.37-.25h-6.11a.34.34,0,0,1-.37.25H251a.35.35,0,0,1-.39-.4v-7.29a.35.35,0,0,1,.39-.4h8.34a.35.35,0,0,1,.4.4Zm-1.54-7h-6.06v6.39h6.06Z" class="cls-7"/><path data-cppathid="10076" transform="translate(0 0)" d="M263.31,151.43a.41.41,0,0,1-.35.22.39.39,0,0,1-.18,0l-.49-.15c-.19-.07-.28-.17-.28-.3a.37.37,0,0,1,.09-.23l2.78-4.21a.41.41,0,0,1,.35-.22.39.39,0,0,1,.18,0l.49.15c.18.07.28.17.28.3a.42.42,0,0,1-.09.23l0,.07h5.54c.22,0,.33.09.33.25a.46.46,0,0,1-.07.23l-4.8,7.72a.44.44,0,0,1-.36.23l-.16,0-.51-.15c-.19-.07-.28-.17-.28-.3a.51.51,0,0,1,.07-.22l4.35-7h-4.59Zm8.58-4a.49.49,0,0,1,0,.13.31.31,0,0,1-.32.34l-.35.05a.37.37,0,0,1-.46-.31l-.62-2.52a.57.57,0,0,1,0-.14c0-.2.1-.31.32-.33l.35,0a.38.38,0,0,1,.47.31Zm1.32-.73a.49.49,0,0,1,0,.13c0,.19-.1.3-.31.34l-.35.06a.37.37,0,0,1-.47-.31l-.61-2.36a.64.64,0,0,1,0-.07v-.07c0-.17.1-.28.32-.32l.35-.06a.37.37,0,0,1,.47.31Z" class="cls-7"/><path data-cppathid="10077" transform="translate(0 0)" d="M277.52,155.42a.55.55,0,0,1-.3.13.51.51,0,0,1-.26-.09l-.27-.16a.34.34,0,0,1-.19-.28.42.42,0,0,1,.13-.26,4.65,4.65,0,0,0,1-2.07,16.11,16.11,0,0,0,.35-3.57c0-.28.13-.41.4-.41h.74c.27,0,.4.23.39.71s0,.71,0,1,0,.63-.07.91l0-.05,2.7-3.66h-8.06c-.26,0-.4-.12-.4-.36s.14-.36.4-.36h9.55c.23,0,.34.08.34.24a.4.4,0,0,1-.1.24l-3.25,4.43a.44.44,0,0,1-.36.19h-.08l-.09,0-.48-.17a.39.39,0,0,1-.24-.18,7,7,0,0,1-.61,2.2A5.17,5.17,0,0,1,277.52,155.42Z" class="cls-7"/><path data-cppathid="10078" transform="translate(0 0)" d="M286.23,152.52a.49.49,0,0,1-.25.08.41.41,0,0,1-.3-.12l-.12-.1a.38.38,0,0,1-.17-.28c0-.09.07-.18.2-.27L294,147a.49.49,0,0,1,.25-.08.44.44,0,0,1,.3.12l.12.1a.41.41,0,0,1,.17.28q0,.13-.21.27l-3.33,1.93a.41.41,0,0,1,.09.28v5.4a.35.35,0,0,1-.39.4h-.75a.35.35,0,0,1-.39-.4v-4.85Z" class="cls-7"/><path data-cppathid="10079" transform="translate(0 0)" d="M301.49,155.44a.38.38,0,0,1-.48.29l-.67-.11c-.21,0-.31-.14-.31-.31v-.09s0-.05,0-.08l1.44-4.55h-4.85q-.39,0-.39-.36t.39-.36h9.3c.27,0,.4.12.4.36s-.13.36-.4.36H303v.09a.31.31,0,0,1,0,.08Zm3.88-8.71q.39,0,.39.36t-.39.36h-7.91c-.26,0-.4-.12-.4-.36s.14-.36.4-.36Z" class="cls-7"/><path data-cppathid="10080" transform="translate(0 0)" d="M317.66,155.13a.48.48,0,0,1,.06.21c0,.16-.1.26-.28.3l-.56.15-.09,0h-.08a.36.36,0,0,1-.34-.23l-.67-1.2-7.43,1.16c-.25,0-.38,0-.38-.23a.48.48,0,0,1,.06-.21l4-7.9a.39.39,0,0,1,.37-.24h.13l.58.13c.19.05.29.15.29.3a.46.46,0,0,1,0,.2l-3.48,7,5.55-.86-1.1-1.95a.45.45,0,0,1-.06-.21c0-.15.09-.25.28-.3l.56-.15h.17a.37.37,0,0,1,.33.23Z" class="cls-7"/><path data-cppathid="10081" transform="translate(0 0)" d="M229.9,172.08a.32.32,0,0,1,.06.54l-.07.08a.44.44,0,0,1-.33.16.7.7,0,0,1-.23-.06q-2.62-1.4-2.62-5t2.62-5a.7.7,0,0,1,.23-.06.44.44,0,0,1,.33.16l.08.08a.35.35,0,0,1,.12.25.35.35,0,0,1-.19.29,3.19,3.19,0,0,0-.87,1,6,6,0,0,0-.58,1.5,8,8,0,0,0,0,3.64,6.09,6.09,0,0,0,.58,1.49A3.23,3.23,0,0,0,229.9,172.08Z" class="cls-7"/><path data-cppathid="10082" transform="translate(0 0)" d="M233.69,171.85a.41.41,0,0,1-.41.41h-.72a.41.41,0,0,1-.41-.41v-8.36a.39.39,0,0,1,.11-.27.37.37,0,0,1,.25-.12l.8-.06.73,0q4.08,0,4.08,3.16a2.26,2.26,0,0,1-1,2,5.44,5.44,0,0,1-3,.68h-.2l-.21,0Zm0-8.12v4.41l.49,0a4.25,4.25,0,0,0,1.44-.2,1.35,1.35,0,0,0,.74-.64,2.49,2.49,0,0,0,.22-1.14,3.8,3.8,0,0,0-.23-1.44,1.5,1.5,0,0,0-.78-.77,3.82,3.82,0,0,0-1.5-.24Z" class="cls-7"/><path data-cppathid="10083" transform="translate(0 0)" d="M238.9,163.52a.39.39,0,0,1,.39-.42l.93-.06.83,0a5.64,5.64,0,0,1,2.07.31,2.27,2.27,0,0,1,1.14.85,2.34,2.34,0,0,1,.35,1.28,2.13,2.13,0,0,1-.38,1.25,2.42,2.42,0,0,1-1.37.82c1.28.44,1.92,1.17,1.92,2.2a2.61,2.61,0,0,1-.37,1.42,2.26,2.26,0,0,1-1.19.91,6.34,6.34,0,0,1-2.21.32l-.8,0-.9-.06c-.28,0-.41-.16-.41-.41Zm1.39.23v3.36a7,7,0,0,0,1.81-.22,1.92,1.92,0,0,0,1-.56,1.4,1.4,0,0,0,.29-.87,2.11,2.11,0,0,0-.18-.89,1.36,1.36,0,0,0-.66-.61,2.86,2.86,0,0,0-1.29-.23h-.45Zm0,7.91H241a2.9,2.9,0,0,0,1.78-.47,1.75,1.75,0,0,0,.61-1.47,1.53,1.53,0,0,0-.71-1.38,4.92,4.92,0,0,0-2.41-.52Z" class="cls-7"/><path data-cppathid="10084" transform="translate(0 0)" d="M247.66,171.49v0h.51a.41.41,0,0,1,.29.1.34.34,0,0,1,0,.52.41.41,0,0,1-.29.1h-2.56a.41.41,0,0,1-.29-.1.34.34,0,0,1,0-.52.41.41,0,0,1,.29-.1h.51v-7.68h-.51a.41.41,0,0,1-.29-.1.34.34,0,0,1,0-.52.41.41,0,0,1,.29-.1h2.56a.41.41,0,0,1,.29.1.34.34,0,0,1,0,.52.41.41,0,0,1-.29.1h-.51v7.63Z" class="cls-7"/><path data-cppathid="10085" transform="translate(0 0)" d="M252,171.07a5.71,5.71,0,0,0,.58-1.49,8,8,0,0,0,0-3.64,5.65,5.65,0,0,0-.58-1.5,3.17,3.17,0,0,0-.86-1,.35.35,0,0,1-.19-.29.35.35,0,0,1,.12-.25l.08-.08a.42.42,0,0,1,.32-.16.6.6,0,0,1,.23.06q2.63,1.38,2.63,5t-2.63,5a.6.6,0,0,1-.23.06.42.42,0,0,1-.32-.16l-.07-.08a.32.32,0,0,1,.06-.54A3.21,3.21,0,0,0,252,171.07Z" class="cls-7"/><path data-cppathid="10086" transform="translate(0 0)" d="M168.93,200.86a.42.42,0,0,1-.36.22.53.53,0,0,1-.16,0l-.51-.16c-.19-.06-.28-.16-.28-.3a.4.4,0,0,1,.07-.21L172,193.5h-7.35q-.39,0-.39-.36t.39-.36h8.78c.22,0,.33.08.33.25a.46.46,0,0,1-.07.23Zm4.14-7.57a2.46,2.46,0,0,1-1-.21,1.9,1.9,0,0,1-.74-.58,1.22,1.22,0,0,1-.28-.8,1.27,1.27,0,0,1,.28-.82,1.86,1.86,0,0,1,.74-.56,2.46,2.46,0,0,1,1-.21,2.51,2.51,0,0,1,1,.21,1.9,1.9,0,0,1,.73.56,1.33,1.33,0,0,1,.28.82,1.28,1.28,0,0,1-.28.8,1.94,1.94,0,0,1-.73.58A2.51,2.51,0,0,1,173.07,193.29Zm0-.53a.72.72,0,0,0,.42-.15,1.12,1.12,0,0,0,.34-.4.94.94,0,0,0,.14-.51,1.07,1.07,0,0,0-.13-.53,1,1,0,0,0-.34-.38.72.72,0,0,0-.43-.15.75.75,0,0,0-.43.15,1.07,1.07,0,0,0-.35.38,1.19,1.19,0,0,0-.13.53,1,1,0,0,0,.14.51,1.14,1.14,0,0,0,.35.4A.72.72,0,0,0,173,192.76Z" class="cls-7"/><path data-cppathid="10087" transform="translate(0 0)" d="M185.38,200.54a.35.35,0,0,1-.39.4h-.75a.34.34,0,0,1-.37-.25h-6.11a.34.34,0,0,1-.37.25h-.74a.35.35,0,0,1-.4-.4v-7.29a.35.35,0,0,1,.4-.4H185a.35.35,0,0,1,.39.4Zm-1.53-7h-6.06V200h6.06Z" class="cls-7"/><path data-cppathid="10088" transform="translate(0 0)" d="M189,197.14a.36.36,0,0,1-.34.22h-.08l-.08,0-.57-.14q-.27-.07-.27-.3a.49.49,0,0,1,.06-.22l2.67-4.73a.37.37,0,0,1,.34-.23h.08l.09,0,.56.14c.18.05.28.15.28.3a.49.49,0,0,1-.06.22l0,0h5.08c.23,0,.35.09.35.27a.63.63,0,0,1-.07.21l-4.59,8a.4.4,0,0,1-.36.22H192l-.08,0-.54-.14c-.2,0-.29-.15-.29-.3a.4.4,0,0,1,.07-.22l1.82-3.16h0l-2.29-1.37q-.21-.11-.21-.27a.38.38,0,0,1,.17-.28l.15-.12a.41.41,0,0,1,.3-.12.43.43,0,0,1,.25.09l2.12,1.27,1.9-3.28h-4.09Zm8.3-4.69a.25.25,0,0,1,0,.1c0,.15-.11.23-.33.25l-.35,0c-.24,0-.4-.05-.45-.24l-.63-1.9s0-.06,0-.1.11-.24.33-.26l.34,0c.26,0,.42.05.47.23Zm1.32-.56a.3.3,0,0,1,0,.1c0,.14-.11.23-.32.26l-.34,0c-.26,0-.42,0-.47-.23l-.61-1.78a.17.17,0,0,1,0-.05.13.13,0,0,1,0-.06q0-.19.33-.24l.34-.05c.26,0,.42.05.47.24Z" class="cls-7"/><path data-cppathid="10089" transform="translate(0 0)" d="M200.12,197a.41.41,0,0,1-.35.22.39.39,0,0,1-.18,0l-.49-.15c-.19-.07-.28-.17-.28-.3a.37.37,0,0,1,.09-.23l2.78-4.21a.41.41,0,0,1,.35-.22.39.39,0,0,1,.18,0l.49.15c.18.07.28.17.28.3a.42.42,0,0,1-.09.23l-.05.07h5.54c.22,0,.33.09.33.25a.46.46,0,0,1-.07.23l-4.8,7.72a.44.44,0,0,1-.36.23l-.16,0-.51-.15c-.19-.07-.28-.17-.28-.3a.51.51,0,0,1,.07-.22l4.35-7h-4.59Z" class="cls-7"/><path data-cppathid="10090" transform="translate(0 0)" d="M213,200.93a.35.35,0,0,1-.4.39h-.74a.35.35,0,0,1-.4-.39v-8.34a.35.35,0,0,1,.4-.4h.74a.35.35,0,0,1,.4.4V196l4.34,1.4c.19.06.28.16.28.29a.44.44,0,0,1-.07.2l0,.06a.41.41,0,0,1-.35.21h-.08l-.09,0-4-1.28Z" class="cls-7"/><path data-cppathid="10091" transform="translate(0 0)" d="M220.82,200.41a.39.39,0,0,1-.46.3l-.69-.08c-.23,0-.34-.14-.34-.34,0,0,0-.07,0-.13l2-7a.37.37,0,0,1,.46-.3l.69.08c.23,0,.34.14.34.34,0,0,0,.06,0,.13Zm8-.27a.14.14,0,0,1,0,.07.17.17,0,0,1,0,.07c0,.19-.11.3-.33.32l-.71.09a.37.37,0,0,1-.45-.3l-2-7.06a.19.19,0,0,1,0-.07s0,0,0-.07q0-.28.33-.33l.71-.08a.37.37,0,0,1,.45.31Zm-.44-6.62a.28.28,0,0,1,0,.1c0,.17-.11.26-.32.28l-.35,0a.36.36,0,0,1-.46-.26l-.62-2.08a.31.31,0,0,1,0-.11c0-.16.1-.26.32-.28l.35,0c.26,0,.41.06.47.26Zm1.32-.61a.34.34,0,0,1,0,.11c0,.15-.1.24-.31.28l-.35,0a.38.38,0,0,1-.47-.26l-.61-2,0-.06V191c0-.15.11-.24.32-.27l.35,0c.26,0,.41,0,.47.26Z" class="cls-7"/><path data-cppathid="10092" transform="translate(0 0)" d="M232.42,197.28a.49.49,0,0,1,0,.13c0,.19-.1.3-.32.33l-.7.08a.39.39,0,0,1-.46-.32l-.46-1.85a.2.2,0,0,1,0-.07v-.06c0-.2.11-.3.32-.33l.7-.08a.37.37,0,0,1,.45.32Zm2-.3a.28.28,0,0,1,0,.1c0,.2-.12.32-.36.34l-.72.06a.36.36,0,0,1-.44-.34l-.33-1.85s0-.06,0-.1c0-.21.12-.32.36-.35l.72-.06a.37.37,0,0,1,.44.35Zm.63,4a.4.4,0,0,1-.38.26h-.12l-.61-.14c-.19,0-.29-.15-.29-.3a.5.5,0,0,1,0-.21l2.42-5a.4.4,0,0,1,.39-.27h.06l.06,0,.61.14c.19.05.29.15.29.3a.46.46,0,0,1-.05.2Z" class="cls-7"/><path data-cppathid="10093" transform="translate(0 0)" d="M240.41,197a.39.39,0,0,1-.52.18l-.5-.15q-.27-.11-.27-.3a.43.43,0,0,1,.08-.23l2.79-4.21a.4.4,0,0,1,.34-.22.34.34,0,0,1,.18,0l.5.15q.27.1.27.3a.49.49,0,0,1-.08.23l0,.07h5.53c.23,0,.34.09.34.25a.59.59,0,0,1-.07.23l-4.8,7.72a.44.44,0,0,1-.36.23l-.16,0-.52-.15q-.27-.1-.27-.3a.4.4,0,0,1,.07-.22l4.34-7h-4.58Z" class="cls-7"/><path data-cppathid="10094" transform="translate(0 0)" d="M260.45,200.54a.35.35,0,0,1-.39.4h-.75a.34.34,0,0,1-.37-.25h-6.11a.33.33,0,0,1-.37.25h-.74a.35.35,0,0,1-.4-.4v-7.29a.35.35,0,0,1,.4-.4h8.34a.35.35,0,0,1,.39.4Zm-1.53-7h-6.06V200h6.06Z" class="cls-7"/><path data-cppathid="10095" transform="translate(0 0)" d="M264,197a.4.4,0,0,1-.35.22.45.45,0,0,1-.18,0L263,197q-.27-.11-.27-.3a.36.36,0,0,1,.08-.23l2.78-4.21a.42.42,0,0,1,.35-.22.34.34,0,0,1,.18,0l.49.15c.19.07.28.17.28.3a.49.49,0,0,1-.08.23l0,.07h5.53c.22,0,.34.09.34.25a.49.49,0,0,1-.08.23l-4.8,7.72a.41.41,0,0,1-.36.23l-.15,0-.52-.15q-.27-.1-.27-.3a.4.4,0,0,1,.07-.22l4.34-7h-4.58Zm8.58-4a.49.49,0,0,1,0,.13.31.31,0,0,1-.32.34l-.35.05a.35.35,0,0,1-.45-.31l-.63-2.52a.57.57,0,0,1,0-.14.31.31,0,0,1,.32-.33l.35-.05a.37.37,0,0,1,.47.31Zm1.32-.73a.49.49,0,0,1,0,.13c0,.19-.1.3-.31.34l-.35.06a.36.36,0,0,1-.46-.31l-.62-2.36s0,0,0-.07a.17.17,0,0,1,0-.07c0-.18.11-.28.32-.32l.35-.06a.37.37,0,0,1,.47.31Z" class="cls-7"/><path data-cppathid="10096" transform="translate(0 0)" d="M278.19,201a.5.5,0,0,1-.3.13.48.48,0,0,1-.25-.09l-.28-.16a.34.34,0,0,1-.19-.28.42.42,0,0,1,.13-.26,4.65,4.65,0,0,0,1-2.07,16.65,16.65,0,0,0,.36-3.57c0-.28.13-.41.39-.41h.75c.27,0,.4.23.38.71s0,.71,0,1,0,.63-.07.91l0,0,2.7-3.66h-8.07q-.39,0-.39-.36t.39-.36h9.56q.33,0,.33.24a.45.45,0,0,1-.09.24l-3.26,4.43a.41.41,0,0,1-.36.19h-.07l-.09,0-.48-.17a.39.39,0,0,1-.24-.18,7,7,0,0,1-.62,2.2A4.88,4.88,0,0,1,278.19,201Z" class="cls-7"/><path data-cppathid="10097" transform="translate(0 0)" d="M286.9,198.08a.46.46,0,0,1-.25.08.44.44,0,0,1-.3-.12l-.12-.1a.41.41,0,0,1-.17-.28q0-.14.21-.27l8.42-4.87a.52.52,0,0,1,.25-.08.44.44,0,0,1,.3.12l.12.1a.41.41,0,0,1,.17.28c0,.09-.07.18-.2.27L292,195.14a.41.41,0,0,1,.1.28v5.4a.36.36,0,0,1-.4.4H291a.35.35,0,0,1-.4-.4V196Z" class="cls-7"/><path data-cppathid="10098" transform="translate(0 0)" d="M302.17,201a.39.39,0,0,1-.48.29l-.68-.11c-.2,0-.31-.14-.31-.31a.28.28,0,0,1,0-.09.31.31,0,0,1,0-.08l1.44-4.55h-4.85c-.27,0-.4-.12-.4-.36s.13-.36.4-.36h9.3q.39,0,.39.36t-.39.36h-2.95v.09a.16.16,0,0,1,0,.08Zm3.87-8.71c.27,0,.4.12.4.36s-.13.36-.4.36h-7.91q-.39,0-.39-.36t.39-.36Z" class="cls-7"/><path data-cppathid="10099" transform="translate(0 0)" d="M318.33,200.69a.48.48,0,0,1,.06.21c0,.16-.09.26-.28.3l-.56.15-.08,0h-.09a.36.36,0,0,1-.33-.23l-.68-1.2L309,201.1c-.26,0-.39,0-.39-.23a.48.48,0,0,1,.06-.21l4-7.9a.4.4,0,0,1,.37-.24h.14l.57.13c.19.05.29.15.29.3a.46.46,0,0,1-.05.2l-3.48,7,5.56-.86-1.11-1.95a.48.48,0,0,1-.06-.21c0-.15.1-.25.28-.3l.56-.15h.17a.37.37,0,0,1,.34.23Z" class="cls-7"/><path data-cppathid="10100" transform="translate(0 0)" d="M230.57,217.64a.32.32,0,0,1,.06.54l-.07.08a.4.4,0,0,1-.32.16.6.6,0,0,1-.23-.06q-2.62-1.4-2.63-5t2.63-5a.6.6,0,0,1,.23-.06.4.4,0,0,1,.32.16l.08.08a.35.35,0,0,1,.12.25.35.35,0,0,1-.19.29,3.17,3.17,0,0,0-.86,1,5.65,5.65,0,0,0-.58,1.5,8,8,0,0,0,0,3.64,5.71,5.71,0,0,0,.58,1.49A3.21,3.21,0,0,0,230.57,217.64Z" class="cls-7"/><path data-cppathid="10101" transform="translate(0 0)" d="M234.36,217.41a.4.4,0,0,1-.12.29.38.38,0,0,1-.28.12h-.72a.38.38,0,0,1-.29-.12.4.4,0,0,1-.12-.29v-8.36a.38.38,0,0,1,.1-.27.4.4,0,0,1,.26-.12l.8-.06.72,0q4.08,0,4.08,3.16a2.27,2.27,0,0,1-1,2,5.5,5.5,0,0,1-3,.68h-.2l-.21,0Zm0-8.12v4.41l.5,0a4.18,4.18,0,0,0,1.43-.2,1.28,1.28,0,0,0,.74-.64,2.48,2.48,0,0,0,.23-1.14,3.6,3.6,0,0,0-.24-1.44,1.44,1.44,0,0,0-.78-.77,3.76,3.76,0,0,0-1.49-.24Z" class="cls-7"/><path data-cppathid="10102" transform="translate(0 0)" d="M239.57,209.08a.39.39,0,0,1,.4-.42l.93-.06.82,0a5.66,5.66,0,0,1,2.08.31,2.12,2.12,0,0,1,1.48,2.13,2.12,2.12,0,0,1-.37,1.25,2.45,2.45,0,0,1-1.38.82c1.28.44,1.92,1.17,1.92,2.2a2.7,2.7,0,0,1-.36,1.42,2.33,2.33,0,0,1-1.2.91,6.34,6.34,0,0,1-2.21.32l-.79,0-.91-.06c-.27,0-.41-.16-.41-.41Zm1.4.23v3.36a7.07,7.07,0,0,0,1.81-.22,1.88,1.88,0,0,0,1-.56,1.35,1.35,0,0,0,.3-.87,2.11,2.11,0,0,0-.19-.89,1.3,1.3,0,0,0-.65-.61,2.91,2.91,0,0,0-1.3-.23h-.45Zm0,7.91h.73a2.89,2.89,0,0,0,1.77-.47,1.75,1.75,0,0,0,.62-1.47,1.53,1.53,0,0,0-.71-1.38,5,5,0,0,0-2.41-.52Z" class="cls-7"/><path data-cppathid="10103" transform="translate(0 0)" d="M248.33,217.05v0h.52a.43.43,0,0,1,.29.1.34.34,0,0,1,0,.52.43.43,0,0,1-.29.1h-2.57a.43.43,0,0,1-.29-.1.34.34,0,0,1,0-.52.43.43,0,0,1,.29-.1h.52v-7.68h-.52a.43.43,0,0,1-.29-.1.34.34,0,0,1,0-.52.43.43,0,0,1,.29-.1h2.57a.43.43,0,0,1,.29.1.34.34,0,0,1,0,.52.43.43,0,0,1-.29.1h-.52v7.63Z" class="cls-7"/><path data-cppathid="10104" transform="translate(0 0)" d="M252.68,216.63a6.09,6.09,0,0,0,.58-1.49,8,8,0,0,0,0-3.64,6,6,0,0,0-.58-1.5,3.19,3.19,0,0,0-.87-1,.35.35,0,0,1-.19-.29.35.35,0,0,1,.12-.25l.08-.08a.44.44,0,0,1,.33-.16.7.7,0,0,1,.23.06q2.63,1.38,2.62,5t-2.62,5a.7.7,0,0,1-.23.06.44.44,0,0,1-.33-.16l-.07-.08a.32.32,0,0,1,.06-.54A3.23,3.23,0,0,0,252.68,216.63Z" class="cls-7"/><path data-cppathid="10105" transform="translate(0 0)" d="M169.72,247.93a.39.39,0,0,1-.35.23l-.16,0-.52-.16q-.27-.09-.27-.3a.4.4,0,0,1,.07-.21l4.28-6.89h-7.34c-.26,0-.4-.12-.4-.36s.14-.36.4-.36h8.77c.23,0,.34.08.34.25a.65.65,0,0,1-.07.23Zm4.15-7.56a2.51,2.51,0,0,1-1-.22,1.86,1.86,0,0,1-.74-.57,1.35,1.35,0,0,1,0-1.62,1.84,1.84,0,0,1,.74-.56,2.51,2.51,0,0,1,1-.21,2.43,2.43,0,0,1,1,.21,1.84,1.84,0,0,1,.74.56,1.35,1.35,0,0,1,0,1.62,1.86,1.86,0,0,1-.74.57A2.43,2.43,0,0,1,173.87,240.37Zm0-.54a.62.62,0,0,0,.42-.15,1.2,1.2,0,0,0,.35-.39,1,1,0,0,0,.14-.52,1.14,1.14,0,0,0-.13-.52,1.07,1.07,0,0,0-.35-.38.7.7,0,0,0-.43-.15.72.72,0,0,0-.42.15,1,1,0,0,0-.35.38,1,1,0,0,0-.13.52,1,1,0,0,0,.14.52,1.17,1.17,0,0,0,.34.39A.66.66,0,0,0,173.83,239.83Z" class="cls-7"/><path data-cppathid="10106" transform="translate(0 0)" d="M186.18,247.62a.35.35,0,0,1-.4.4H185a.34.34,0,0,1-.37-.25h-6.11a.35.35,0,0,1-.38.25h-.74a.35.35,0,0,1-.39-.4v-7.29a.35.35,0,0,1,.39-.4h8.34a.35.35,0,0,1,.4.4Zm-1.54-7h-6.06v6.39h6.06Z" class="cls-7"/><path data-cppathid="10107" transform="translate(0 0)" d="M189.77,244.21a.37.37,0,0,1-.34.23h-.08l-.09,0-.56-.15c-.19,0-.28-.14-.28-.3a.48.48,0,0,1,.06-.21l2.68-4.73a.37.37,0,0,1,.33-.23h.09l.08,0,.57.14q.27.08.27.3a.52.52,0,0,1-.06.22v0h5.08c.23,0,.34.09.34.26a.46.46,0,0,1-.07.22l-4.58,7.94a.42.42,0,0,1-.36.23h-.07l-.09,0-.54-.15c-.19,0-.29-.14-.29-.3a.43.43,0,0,1,.08-.21l1.82-3.16h0l-2.3-1.37a.31.31,0,0,1-.2-.27.38.38,0,0,1,.17-.28l.14-.12a.44.44,0,0,1,.3-.12.46.46,0,0,1,.25.08l2.13,1.28,1.89-3.28H192Zm8.3-4.68a.22.22,0,0,1,0,.09c0,.16-.11.24-.32.26l-.35,0c-.25,0-.4,0-.46-.24l-.62-1.91a.25.25,0,0,1,0-.1c0-.15.11-.23.32-.25l.35,0c.26,0,.41.05.47.24Zm1.32-.56a.31.31,0,0,1,0,.1c0,.14-.1.23-.31.26l-.35,0c-.25,0-.41-.05-.47-.23l-.61-1.78s0,0,0-.06v-.05c0-.13.11-.22.32-.25l.35,0c.26,0,.41,0,.47.23Z" class="cls-7"/><path data-cppathid="10108" transform="translate(0 0)" d="M200.91,244.07a.42.42,0,0,1-.34.22.58.58,0,0,1-.18,0l-.5-.16q-.27-.09-.27-.3a.42.42,0,0,1,.08-.22l2.79-4.22a.4.4,0,0,1,.34-.21.48.48,0,0,1,.18,0l.5.16q.27.09.27.3a.53.53,0,0,1-.08.23l0,.07h5.53c.23,0,.34.08.34.25a.59.59,0,0,1-.07.23l-4.8,7.72a.42.42,0,0,1-.36.22.5.5,0,0,1-.16,0l-.52-.16q-.27-.09-.27-.3a.4.4,0,0,1,.07-.21l4.34-7h-4.58Z" class="cls-7"/><path data-cppathid="10109" transform="translate(0 0)" d="M213.81,248a.34.34,0,0,1-.39.39h-.75a.34.34,0,0,1-.39-.39v-8.34a.35.35,0,0,1,.39-.4h.75a.35.35,0,0,1,.39.4v3.4l4.35,1.41c.18.06.27.16.27.29a.35.35,0,0,1-.07.2l-.05.06a.37.37,0,0,1-.34.2h-.08l-.09,0-4-1.28Z" class="cls-7"/><path data-cppathid="10110" transform="translate(0 0)" d="M221.61,247.49a.38.38,0,0,1-.45.3l-.7-.08c-.22,0-.33-.14-.33-.34a.4.4,0,0,1,0-.13l2-7.05a.38.38,0,0,1,.45-.3l.7.09c.22,0,.34.13.34.33a.58.58,0,0,1,0,.14Zm8-.28s0,0,0,.08v.07c0,.19-.1.3-.32.32l-.71.09a.38.38,0,0,1-.46-.3l-2-7.06a.17.17,0,0,1,0-.07.2.2,0,0,1,0-.07c0-.2.11-.3.32-.33l.71-.08a.38.38,0,0,1,.46.31Zm-.44-6.62s0,.07,0,.11-.11.26-.33.28l-.34,0c-.25,0-.41-.05-.46-.26l-.62-2.08a.31.31,0,0,1,0-.11c0-.17.11-.26.33-.28l.35,0c.25,0,.41.06.46.26Zm1.32-.6s0,.06,0,.11-.11.24-.32.28l-.34,0c-.26,0-.41,0-.47-.25l-.61-1.95a.14.14,0,0,1,0-.06.13.13,0,0,1,0-.06c0-.14.11-.23.33-.26l.35-.05c.25,0,.41.05.46.25Z" class="cls-7"/><path data-cppathid="10111" transform="translate(0 0)" d="M233.22,244.36s0,.07,0,.13-.11.3-.33.32l-.69.09a.4.4,0,0,1-.47-.33l-.45-1.84a.24.24,0,0,1,0-.08v-.06c0-.19.11-.3.33-.32l.69-.08a.39.39,0,0,1,.46.32Zm2-.3a.2.2,0,0,1,0,.09c0,.21-.12.33-.36.35l-.72.06a.37.37,0,0,1-.45-.35l-.32-1.84a.31.31,0,0,1,0-.1c0-.21.12-.32.36-.35l.72-.06a.37.37,0,0,1,.44.35Zm.64,3.95a.41.41,0,0,1-.38.26h-.12l-.61-.15c-.2,0-.29-.14-.29-.3a.35.35,0,0,1,.05-.2l2.42-5a.4.4,0,0,1,.38-.27h.12l.62.15c.19.05.28.15.28.3a.45.45,0,0,1,0,.2Z" class="cls-7"/><path data-cppathid="10112" transform="translate(0 0)" d="M241.21,244.07a.43.43,0,0,1-.35.22.65.65,0,0,1-.18,0l-.49-.16c-.18-.06-.28-.16-.28-.3a.37.37,0,0,1,.09-.22l2.78-4.22a.42.42,0,0,1,.35-.21l.18,0,.49.16c.19.06.28.16.28.3a.45.45,0,0,1-.09.23l0,.07h5.53c.22,0,.33.08.33.25a.46.46,0,0,1-.07.23l-4.8,7.72a.41.41,0,0,1-.36.22.44.44,0,0,1-.15,0l-.52-.16c-.19-.06-.28-.16-.28-.3a.43.43,0,0,1,.08-.21l4.34-7h-4.58Z" class="cls-7"/><path data-cppathid="10113" transform="translate(0 0)" d="M261.25,247.62a.35.35,0,0,1-.4.4h-.74a.35.35,0,0,1-.37-.25h-6.11a.35.35,0,0,1-.37.25h-.75a.35.35,0,0,1-.39-.4v-7.29a.35.35,0,0,1,.39-.4h8.34a.35.35,0,0,1,.4.4Zm-1.54-7h-6.06v6.39h6.06Z" class="cls-7"/><path data-cppathid="10114" transform="translate(0 0)" d="M264.78,244.07a.43.43,0,0,1-.35.22.58.58,0,0,1-.18,0l-.49-.16c-.19-.06-.28-.16-.28-.3a.37.37,0,0,1,.09-.22l2.78-4.22a.42.42,0,0,1,.35-.21l.18,0,.49.16c.18.06.28.16.28.3a.45.45,0,0,1-.09.23l-.05.07h5.54c.22,0,.33.08.33.25a.46.46,0,0,1-.07.23l-4.8,7.72a.42.42,0,0,1-.36.22.53.53,0,0,1-.16,0l-.51-.16c-.19-.06-.28-.16-.28-.3a.52.52,0,0,1,.07-.21l4.35-7H267Zm8.58-4a.49.49,0,0,1,0,.13.32.32,0,0,1-.32.34l-.35,0a.37.37,0,0,1-.46-.32l-.62-2.52a.45.45,0,0,1,0-.13c0-.2.1-.31.32-.33l.35-.05a.37.37,0,0,1,.47.31Zm1.32-.73a.45.45,0,0,1,0,.13.33.33,0,0,1-.31.34l-.35.06a.37.37,0,0,1-.47-.32l-.61-2.35s0-.05,0-.07V237c0-.18.1-.29.32-.33l.35-.06a.38.38,0,0,1,.47.32Z" class="cls-7"/><path data-cppathid="10115" transform="translate(0 0)" d="M279,248.05a.4.4,0,0,1-.56,0l-.27-.17a.33.33,0,0,1-.19-.27.47.47,0,0,1,.13-.27,4.55,4.55,0,0,0,1-2.07,16,16,0,0,0,.35-3.57.35.35,0,0,1,.4-.4h.74c.27,0,.4.23.39.7s0,.72,0,1,0,.63-.07.91l0-.05,2.7-3.66h-8.06c-.26,0-.4-.12-.4-.36s.14-.36.4-.36h9.55c.23,0,.34.08.34.24a.4.4,0,0,1-.1.24l-3.25,4.43a.44.44,0,0,1-.36.19h-.17l-.48-.17a.39.39,0,0,1-.24-.18,7,7,0,0,1-.61,2.2A5,5,0,0,1,279,248.05Z" class="cls-7"/><path data-cppathid="10116" transform="translate(0 0)" d="M287.7,245.16a.47.47,0,0,1-.25.07.41.41,0,0,1-.3-.12L287,245a.38.38,0,0,1-.17-.28.35.35,0,0,1,.2-.27l8.43-4.88a.59.59,0,0,1,.25-.07.44.44,0,0,1,.3.12l.12.1a.39.39,0,0,1,.17.27c0,.1-.07.19-.21.28l-3.33,1.93a.41.41,0,0,1,.09.28v5.4a.34.34,0,0,1-.39.39h-.75a.34.34,0,0,1-.39-.39v-4.85Z" class="cls-7"/><path data-cppathid="10117" transform="translate(0 0)" d="M303,248.08a.38.38,0,0,1-.48.29l-.67-.11c-.21,0-.31-.15-.31-.31v-.09s0-.05,0-.08l1.44-4.55h-4.85q-.39,0-.39-.36t.39-.36h9.3c.27,0,.4.12.4.36s-.13.36-.4.36h-3v.08a.29.29,0,0,1,0,.09Zm3.88-8.71q.39,0,.39.36t-.39.36h-7.91c-.26,0-.4-.12-.4-.36s.14-.36.4-.36Z" class="cls-7"/><path data-cppathid="10118" transform="translate(0 0)" d="M319.13,247.77a.48.48,0,0,1,.06.21c0,.15-.1.25-.28.3l-.56.15h-.17a.37.37,0,0,1-.34-.23l-.67-1.2-7.43,1.15c-.25,0-.38,0-.38-.22a.48.48,0,0,1,.06-.21l4-7.91a.39.39,0,0,1,.37-.24l.13,0,.58.13c.19,0,.29.15.29.3a.46.46,0,0,1-.05.2l-3.48,6.95,5.55-.86-1.1-2a.48.48,0,0,1-.06-.21c0-.16.09-.26.28-.3l.56-.15.08,0h.09a.36.36,0,0,1,.33.23Z" class="cls-7"/><path data-cppathid="10119" transform="translate(0 0)" d="M231.37,264.72a.34.34,0,0,1,.18.29.37.37,0,0,1-.12.25l-.07.08a.44.44,0,0,1-.33.16.7.7,0,0,1-.23-.06q-2.62-1.4-2.62-5t2.62-5a.7.7,0,0,1,.23-.06.46.46,0,0,1,.33.15l.08.09a.35.35,0,0,1,.12.25.37.37,0,0,1-.19.29,3,3,0,0,0-.86,1,5.72,5.72,0,0,0-.59,1.49,7.65,7.65,0,0,0-.21,1.83,7.57,7.57,0,0,0,.21,1.82,5.72,5.72,0,0,0,.59,1.49A3.09,3.09,0,0,0,231.37,264.72Z" class="cls-7"/><path data-cppathid="10120" transform="translate(0 0)" d="M235.16,264.49a.41.41,0,0,1-.41.41H234a.41.41,0,0,1-.41-.41v-8.36a.4.4,0,0,1,.36-.39l.8-.06c.25,0,.5,0,.73,0q4.08,0,4.08,3.15a2.27,2.27,0,0,1-1,2,5.45,5.45,0,0,1-3,.67h-.41Zm0-8.12v4.41h.49a4.28,4.28,0,0,0,1.44-.19,1.39,1.39,0,0,0,.74-.64,2.51,2.51,0,0,0,.22-1.15,3.75,3.75,0,0,0-.23-1.43,1.47,1.47,0,0,0-.78-.77,3.82,3.82,0,0,0-1.5-.24Z" class="cls-7"/><path data-cppathid="10121" transform="translate(0 0)" d="M240.37,256.16a.39.39,0,0,1,.39-.42l.93-.06c.3,0,.57,0,.83,0a5.89,5.89,0,0,1,2.07.3,2.13,2.13,0,0,1,1.49,2.13,2.16,2.16,0,0,1-.38,1.26,2.47,2.47,0,0,1-1.37.82c1.28.44,1.92,1.17,1.92,2.2a2.61,2.61,0,0,1-.37,1.42,2.31,2.31,0,0,1-1.19.91,6.34,6.34,0,0,1-2.21.32l-.8,0c-.28,0-.58,0-.9-.07s-.41-.16-.41-.4Zm1.39.23v3.36a7.48,7.48,0,0,0,1.81-.22,1.86,1.86,0,0,0,1-.57,1.36,1.36,0,0,0,.29-.87,2.1,2.1,0,0,0-.18-.88,1.43,1.43,0,0,0-.66-.62,3,3,0,0,0-1.29-.22h-.45Zm0,7.91h.73a2.9,2.9,0,0,0,1.78-.47,1.75,1.75,0,0,0,.61-1.47,1.53,1.53,0,0,0-.71-1.38,4.92,4.92,0,0,0-2.41-.52Z" class="cls-7"/><path data-cppathid="10122" transform="translate(0 0)" d="M249.13,264.13v.05h.51a.41.41,0,0,1,.29.1.32.32,0,0,1,.12.26.34.34,0,0,1-.12.26.46.46,0,0,1-.29.1h-2.56a.46.46,0,0,1-.29-.1.34.34,0,0,1-.12-.26.32.32,0,0,1,.12-.26.41.41,0,0,1,.29-.1h.51V256.5h-.51a.46.46,0,0,1-.29-.1.34.34,0,0,1-.12-.26.32.32,0,0,1,.12-.26.41.41,0,0,1,.29-.1h2.56a.41.41,0,0,1,.29.1.32.32,0,0,1,.12.26.34.34,0,0,1-.12.26.46.46,0,0,1-.29.1h-.51v7.63Z" class="cls-7"/><path data-cppathid="10123" transform="translate(0 0)" d="M253.47,263.71a5.71,5.71,0,0,0,.58-1.49,7.57,7.57,0,0,0,.21-1.82,7.65,7.65,0,0,0-.21-1.83,5.71,5.71,0,0,0-.58-1.49,3.17,3.17,0,0,0-.86-1,.37.37,0,0,1-.19-.29.35.35,0,0,1,.12-.25l.08-.09a.44.44,0,0,1,.32-.15.6.6,0,0,1,.23.06q2.63,1.38,2.63,5t-2.63,5a.6.6,0,0,1-.23.06.42.42,0,0,1-.32-.16l-.07-.08a.37.37,0,0,1-.12-.25.34.34,0,0,1,.18-.29A3.21,3.21,0,0,0,253.47,263.71Z" class="cls-7"/><g class="cls-9"><path data-cppathid="10124" transform="translate(0 0)" d="M181,297.8a.36.36,0,0,1-.3.19l-.13,0-.43-.13c-.15-.06-.23-.14-.23-.25a.32.32,0,0,1,.06-.18l3.57-5.74h-6.12q-.33,0-.33-.3t.33-.3h7.31c.19,0,.28.07.28.21a.45.45,0,0,1-.06.19Zm3.45-6.31a2,2,0,0,1-.86-.18,1.45,1.45,0,0,1-.61-.47,1.06,1.06,0,0,1-.23-.68,1,1,0,0,1,.23-.67,1.56,1.56,0,0,1,.61-.48,2.29,2.29,0,0,1,1.73,0,1.56,1.56,0,0,1,.61.48,1.09,1.09,0,0,1,.23.67,1.12,1.12,0,0,1-.23.68,1.45,1.45,0,0,1-.61.47A2.05,2.05,0,0,1,184.42,291.49Zm0-.44a.56.56,0,0,0,.35-.13,1,1,0,0,0,.29-.33.92.92,0,0,0,.11-.43.94.94,0,0,0-.39-.75.56.56,0,0,0-.72,0,.9.9,0,0,0-.29.32.89.89,0,0,0-.11.43.82.82,0,0,0,.12.43.85.85,0,0,0,.29.33A.54.54,0,0,0,184.4,291.05Z" class="cls-7"/><path data-cppathid="10125" transform="translate(0 0)" d="M194.68,297.54a.29.29,0,0,1-.33.33h-.62a.29.29,0,0,1-.31-.21h-5.09a.28.28,0,0,1-.31.21h-.62a.29.29,0,0,1-.33-.33v-6.08a.29.29,0,0,1,.33-.33h6.95a.29.29,0,0,1,.33.33Zm-1.28-5.8h-5.05v5.32h5.05Z" class="cls-7"/><path data-cppathid="10126" transform="translate(0 0)" d="M197.67,294.7a.31.31,0,0,1-.28.19h-.14l-.47-.12c-.15,0-.23-.13-.23-.25a.41.41,0,0,1,0-.18l2.23-3.94a.31.31,0,0,1,.28-.19h.07l.07,0,.47.12c.16,0,.23.12.23.25a.35.35,0,0,1,0,.18v0h4.23c.2,0,.29.07.29.22a.46.46,0,0,1-.06.18l-3.82,6.62a.36.36,0,0,1-.3.19h-.13l-.45-.12c-.16,0-.24-.13-.24-.25a.32.32,0,0,1,.06-.18l1.52-2.63h0l-1.91-1.14a.27.27,0,0,1-.17-.23.31.31,0,0,1,.14-.23l.12-.1a.36.36,0,0,1,.25-.1.31.31,0,0,1,.21.07l1.77,1.06,1.58-2.73h-3.41Zm6.92-3.91a.19.19,0,0,1,0,.08q0,.19-.27.21l-.29,0a.3.3,0,0,1-.38-.19l-.52-1.59s0-.05,0-.08.09-.2.27-.21l.29,0c.22,0,.35,0,.39.19Zm1.1-.46a.19.19,0,0,1,0,.08c0,.12-.08.19-.26.21l-.29,0c-.21,0-.34,0-.39-.2l-.51-1.48v0s0,0,0-.05.09-.18.27-.2l.29,0c.22,0,.35,0,.39.2Z" class="cls-7"/><path data-cppathid="10127" transform="translate(0 0)" d="M207,294.58a.34.34,0,0,1-.29.18l-.15,0-.41-.13c-.15-.06-.23-.14-.23-.25a.37.37,0,0,1,.07-.19l2.32-3.51a.35.35,0,0,1,.29-.18.33.33,0,0,1,.15,0l.41.13c.16.05.23.13.23.25a.37.37,0,0,1-.07.19l0,.06h4.61c.19,0,.28.07.28.21a.45.45,0,0,1-.06.19l-4,6.43a.36.36,0,0,1-.3.19l-.13,0-.43-.13c-.15-.06-.23-.14-.23-.25a.32.32,0,0,1,.06-.18l3.62-5.84h-3.82Z" class="cls-7"/><path data-cppathid="10128" transform="translate(0 0)" d="M217.71,297.86a.29.29,0,0,1-.33.33h-.62a.29.29,0,0,1-.33-.33v-6.95a.29.29,0,0,1,.33-.33h.62a.29.29,0,0,1,.33.33v2.84l3.62,1.17c.16.05.23.13.23.24a.32.32,0,0,1-.06.17l0,.05a.34.34,0,0,1-.29.17H221l-3.32-1.07Z" class="cls-7"/><path data-cppathid="10129" transform="translate(0 0)" d="M224.21,297.43a.32.32,0,0,1-.38.25l-.58-.07a.27.27,0,0,1-.28-.28.89.89,0,0,1,0-.11l1.69-5.87a.31.31,0,0,1,.38-.25l.58.07c.19,0,.28.11.28.28a.31.31,0,0,1,0,.11Zm6.63-.23a.14.14,0,0,1,0,.06v.06q0,.24-.27.27l-.59.07a.32.32,0,0,1-.38-.25L228,291.53s0,0,0-.06,0,0,0-.06.09-.25.27-.27l.59-.07a.31.31,0,0,1,.38.26Zm-.37-5.52a.22.22,0,0,1,0,.09c0,.14-.09.22-.27.23l-.29,0a.31.31,0,0,1-.38-.22l-.52-1.74s0-.05,0-.09.09-.21.27-.23l.29,0q.33,0,.39.21Zm1.1-.51a.31.31,0,0,1,0,.1c0,.12-.08.2-.26.23l-.29,0c-.21,0-.34,0-.39-.22l-.51-1.62a233227539810.49,233227539810.49,0,0,0,0-.1c0-.12.09-.19.27-.22l.29,0q.33,0,.39.21Z" class="cls-7"/><path data-cppathid="10130" transform="translate(0 0)" d="M233.88,294.82a.31.31,0,0,1,0,.11q0,.24-.27.27l-.58.07a.34.34,0,0,1-.39-.27l-.38-1.54s0,0,0-.06v0q0-.24.27-.27l.58-.07a.32.32,0,0,1,.38.27Zm1.64-.25a.17.17,0,0,1,0,.08c0,.17-.1.27-.3.29l-.6.05a.32.32,0,0,1-.37-.29l-.27-1.54s0-.05,0-.08.1-.27.3-.29l.6-.05a.31.31,0,0,1,.37.29Zm.53,3.29a.33.33,0,0,1-.32.22h-.1l-.51-.12c-.16,0-.24-.13-.24-.25a.47.47,0,0,1,0-.17l2-4.17a.34.34,0,0,1,.32-.22h.1l.51.12c.16,0,.24.12.24.25a.35.35,0,0,1,0,.17Z" class="cls-7"/><path data-cppathid="10131" transform="translate(0 0)" d="M240.54,294.58a.34.34,0,0,1-.29.18l-.15,0-.41-.13c-.15-.06-.23-.14-.23-.25a.37.37,0,0,1,.07-.19l2.32-3.51a.35.35,0,0,1,.29-.18.33.33,0,0,1,.15,0l.41.13c.16.05.23.13.23.25a.37.37,0,0,1-.07.19l0,.06h4.61c.19,0,.28.07.28.21a.45.45,0,0,1-.06.19l-4,6.43a.36.36,0,0,1-.3.19l-.13,0-.43-.13c-.15-.06-.23-.14-.23-.25a.32.32,0,0,1,.06-.18l3.62-5.84h-3.82Z" class="cls-7"/><path data-cppathid="10132" transform="translate(0 0)" d="M257.24,297.54a.29.29,0,0,1-.33.33h-.62a.29.29,0,0,1-.31-.21h-5.09a.28.28,0,0,1-.31.21H250a.29.29,0,0,1-.33-.33v-6.08a.29.29,0,0,1,.33-.33h7a.29.29,0,0,1,.33.33Zm-1.28-5.8h-5.05v5.32H256Z" class="cls-7"/><path data-cppathid="10133" transform="translate(0 0)" d="M260.18,294.58a.34.34,0,0,1-.29.18l-.15,0-.41-.13c-.15-.06-.23-.14-.23-.25a.31.31,0,0,1,.08-.19l2.31-3.51a.35.35,0,0,1,.29-.18.33.33,0,0,1,.15,0l.42.13c.15.05.22.13.22.25a.37.37,0,0,1-.07.19l0,.06h4.61c.19,0,.28.07.28.21a.45.45,0,0,1-.06.19l-4,6.43a.36.36,0,0,1-.3.19l-.13,0-.43-.13c-.15-.06-.23-.14-.23-.25a.32.32,0,0,1,.06-.18l3.63-5.84h-3.83Zm7.15-3.35a.27.27,0,0,1,0,.11.27.27,0,0,1-.28.28l-.29,0a.31.31,0,0,1-.38-.26l-.51-2.1a.36.36,0,0,1,0-.11c0-.17.09-.26.27-.28l.29,0a.3.3,0,0,1,.39.26Zm1.1-.61a.31.31,0,0,1,0,.11c0,.15-.08.24-.26.28l-.29.05a.31.31,0,0,1-.39-.26l-.51-2s0,0,0-.06,0,0,0-.06.09-.24.27-.27l.29-.05a.31.31,0,0,1,.4.26Z" class="cls-7"/><path data-cppathid="10134" transform="translate(0 0)" d="M272,297.9a.4.4,0,0,1-.25.11.52.52,0,0,1-.21-.07l-.23-.14a.31.31,0,0,1-.16-.23.38.38,0,0,1,.11-.22,3.78,3.78,0,0,0,.83-1.73,13.68,13.68,0,0,0,.29-3c0-.23.11-.34.33-.34h.62c.23,0,.34.19.32.59s0,.59,0,.86,0,.52-.06.76l0,0,2.25-3.05h-6.72q-.33,0-.33-.3t.33-.3h8c.19,0,.28.06.28.2a.32.32,0,0,1-.08.2l-2.7,3.69a.41.41,0,0,1-.31.16h-.14l-.4-.14a.41.41,0,0,1-.2-.15,5.88,5.88,0,0,1-.51,1.83A4.19,4.19,0,0,1,272,297.9Z" class="cls-7"/><path data-cppathid="10135" transform="translate(0 0)" d="M279.28,295.49a.37.37,0,0,1-.21.06.42.42,0,0,1-.25-.1l-.1-.08a.32.32,0,0,1-.13-.23.28.28,0,0,1,.17-.23l7-4.06a.48.48,0,0,1,.21-.06.33.33,0,0,1,.25.1l.11.08a.31.31,0,0,1,.13.23c0,.08-.05.15-.17.23L283.52,293a.28.28,0,0,1,.08.23v4.5a.29.29,0,0,1-.33.33h-.62a.29.29,0,0,1-.33-.33v-4Z" class="cls-7"/><path data-cppathid="10136" transform="translate(0 0)" d="M292,297.92a.34.34,0,0,1-.41.24l-.55-.09c-.18,0-.27-.12-.27-.26s0-.05,0-.07,0-.05,0-.07l1.21-3.79h-4c-.23,0-.33-.1-.33-.3s.1-.3.33-.3h7.75c.21,0,.33.1.33.3s-.12.3-.33.3h-2.46V294a.13.13,0,0,1,0,.07Zm3.22-7.26c.23,0,.33.1.33.3s-.1.3-.33.3h-6.59c-.21,0-.33-.1-.33-.3s.12-.3.33-.3Z" class="cls-7"/><path data-cppathid="10137" transform="translate(0 0)" d="M305.47,297.66a.31.31,0,0,1,0,.18.25.25,0,0,1-.22.25l-.48.12h-.14a.32.32,0,0,1-.28-.19l-.55-1-6.2,1c-.21,0-.31,0-.31-.19a.3.3,0,0,1,.05-.17l3.29-6.59a.32.32,0,0,1,.31-.2h.11l.49.11c.15,0,.23.12.23.25a.35.35,0,0,1,0,.17l-2.89,5.79,4.62-.72-.91-1.62a.35.35,0,0,1-.05-.18c0-.13.07-.21.22-.25l.47-.12.07,0h.08a.31.31,0,0,1,.28.19Z" class="cls-7"/><path data-cppathid="10138" transform="translate(0 0)" d="M232.34,310.62a.27.27,0,0,1,.15.24.29.29,0,0,1-.1.21l-.06.07a.39.39,0,0,1-.27.13.67.67,0,0,1-.19,0,4.34,4.34,0,0,1-2.19-4.2q0-3.06,2.19-4.2a.44.44,0,0,1,.19-.05.35.35,0,0,1,.27.13l.07.07a.26.26,0,0,1,.1.21.31.31,0,0,1-.16.24,2.7,2.7,0,0,0-.72.83,4.72,4.72,0,0,0-.48,1.25A6.15,6.15,0,0,0,231,307a6.07,6.07,0,0,0,.18,1.51,4.86,4.86,0,0,0,.48,1.25A2.75,2.75,0,0,0,232.34,310.62Z" class="cls-7"/><path data-cppathid="10139" transform="translate(0 0)" d="M235.5,310.43a.33.33,0,0,1-.1.24.33.33,0,0,1-.24.1h-.6a.34.34,0,0,1-.34-.34v-7a.29.29,0,0,1,.09-.22.28.28,0,0,1,.21-.1l.67-.06h.6c2.27,0,3.4.87,3.4,2.63a1.89,1.89,0,0,1-.85,1.68,4.51,4.51,0,0,1-2.5.57h-.34Zm0-6.77v3.68h.41a3.48,3.48,0,0,0,1.2-.17,1.13,1.13,0,0,0,.62-.53,2.14,2.14,0,0,0,.18-.95,3.08,3.08,0,0,0-.19-1.2,1.23,1.23,0,0,0-.65-.64,3.08,3.08,0,0,0-1.25-.2Z" class="cls-7"/><path data-cppathid="10140" transform="translate(0 0)" d="M239.84,303.49a.32.32,0,0,1,.33-.35l.78-.06h.68a4.83,4.83,0,0,1,1.73.25,1.93,1.93,0,0,1,.95.71,2,2,0,0,1,.29,1.07,1.75,1.75,0,0,1-.31,1,2,2,0,0,1-1.15.69c1.07.36,1.6,1,1.6,1.83a2.23,2.23,0,0,1-.3,1.18,2,2,0,0,1-1,.76,5.14,5.14,0,0,1-1.84.27l-.66,0-.76-.05a.33.33,0,0,1-.34-.34Zm1.16.19v2.8a6.2,6.2,0,0,0,1.51-.19,1.61,1.61,0,0,0,.81-.47,1.12,1.12,0,0,0,.24-.72,1.75,1.75,0,0,0-.15-.74,1.1,1.1,0,0,0-.55-.51,2.46,2.46,0,0,0-1.08-.19h-.37Zm0,6.59h.61a2.39,2.39,0,0,0,1.48-.4,1.44,1.44,0,0,0,.51-1.22,1.25,1.25,0,0,0-.59-1.15,4,4,0,0,0-2-.43Z" class="cls-7"/><path data-cppathid="10141" transform="translate(0 0)" d="M247.14,310.13v0h.43a.32.32,0,0,1,.24.08.27.27,0,0,1,.1.22.26.26,0,0,1-.1.21.32.32,0,0,1-.24.09h-2.14a.36.36,0,0,1-.24-.09.3.3,0,0,1-.1-.21.3.3,0,0,1,.1-.22.35.35,0,0,1,.24-.08h.43v-6.4h-.43a.36.36,0,0,1-.24-.09.3.3,0,0,1-.1-.21.3.3,0,0,1,.1-.22.35.35,0,0,1,.24-.08h2.14a.32.32,0,0,1,.24.08.27.27,0,0,1,.1.22.26.26,0,0,1-.1.21.32.32,0,0,1-.24.09h-.43v6.36Z" class="cls-7"/><path data-cppathid="10142" transform="translate(0 0)" d="M250.76,309.78a4.86,4.86,0,0,0,.49-1.25,6.59,6.59,0,0,0,.17-1.51,6.68,6.68,0,0,0-.17-1.52,4.72,4.72,0,0,0-.49-1.25,2.46,2.46,0,0,0-.72-.83.34.34,0,0,1-.16-.24.3.3,0,0,1,.1-.21l.07-.07a.35.35,0,0,1,.27-.13.41.41,0,0,1,.19.05q2.19,1.14,2.19,4.2a4.34,4.34,0,0,1-2.19,4.2.59.59,0,0,1-.19,0,.39.39,0,0,1-.27-.13l-.06-.07a.34.34,0,0,1-.1-.21.27.27,0,0,1,.15-.24A2.5,2.5,0,0,0,250.76,309.78Z" class="cls-7"/></g><g class="cls-10"><path data-cppathid="10143" transform="translate(0 0)" d="M191.81,338.26a.26.26,0,0,1-.24.16l-.1,0-.35-.1c-.12-.05-.18-.11-.18-.2A.33.33,0,0,1,191,338l2.86-4.59H189q-.27,0-.27-.24t.27-.24h5.85c.15,0,.22.06.22.17a.37.37,0,0,1-.05.15Zm2.76-5a1.74,1.74,0,0,1-.69-.14,1.35,1.35,0,0,1-.49-.38.9.9,0,0,1,0-1.08,1.25,1.25,0,0,1,.49-.38,1.8,1.8,0,0,1,1.39,0,1.25,1.25,0,0,1,.49.38.9.9,0,0,1,0,1.08,1.35,1.35,0,0,1-.49.38A1.75,1.75,0,0,1,194.57,333.22Zm0-.35a.45.45,0,0,0,.28-.11.73.73,0,0,0,.23-.26.67.67,0,0,0,0-.69.83.83,0,0,0-.23-.26.52.52,0,0,0-.29-.09.51.51,0,0,0-.28.09.72.72,0,0,0-.23.26.7.7,0,0,0-.09.35.69.69,0,0,0,.09.34.73.73,0,0,0,.23.26A.47.47,0,0,0,194.55,332.87Z" class="cls-7"/><path data-cppathid="10144" transform="translate(0 0)" d="M202.78,338.06a.23.23,0,0,1-.26.26H202a.23.23,0,0,1-.25-.17H197.7a.23.23,0,0,1-.25.17H197a.24.24,0,0,1-.27-.26v-4.87a.24.24,0,0,1,.27-.26h5.56a.23.23,0,0,1,.26.26Zm-1-4.64h-4v4.25h4Z" class="cls-7"/><path data-cppathid="10145" transform="translate(0 0)" d="M205.17,335.78a.24.24,0,0,1-.22.16h-.11l-.38-.1c-.12,0-.18-.09-.18-.2a.27.27,0,0,1,0-.14l1.78-3.15a.24.24,0,0,1,.22-.15h.12l.37.1c.12,0,.19.1.19.2a.43.43,0,0,1,0,.14v0h3.38c.16,0,.23.06.23.17a.34.34,0,0,1,0,.15l-3.06,5.29a.26.26,0,0,1-.24.16h-.1l-.36-.1c-.13,0-.2-.09-.2-.2a.3.3,0,0,1,.05-.14l1.22-2.1h0l-1.53-.91a.21.21,0,0,1-.13-.19.26.26,0,0,1,.11-.18l.1-.08a.3.3,0,0,1,.2-.08.3.3,0,0,1,.16,0l1.42.85,1.26-2.18h-2.72Zm5.54-3.12a.56.56,0,0,1,0,.07c0,.1-.08.15-.22.16l-.23,0c-.17,0-.27,0-.31-.16l-.41-1.27s0,0,0-.06.07-.16.22-.17l.23,0c.17,0,.27,0,.31.16Zm.88-.37s0,0,0,.07-.07.15-.21.17l-.23,0c-.17,0-.28,0-.32-.16l-.4-1.19,0,0v0c0-.09.07-.14.22-.16l.23,0c.17,0,.27,0,.31.15Z" class="cls-7"/><path data-cppathid="10146" transform="translate(0 0)" d="M212.6,335.69a.28.28,0,0,1-.23.14l-.12,0-.33-.11c-.12,0-.18-.1-.18-.2a.29.29,0,0,1,.06-.15l1.85-2.81a.29.29,0,0,1,.23-.14l.12,0,.33.11c.12,0,.19.11.19.2a.29.29,0,0,1-.06.15l0,.05h3.69c.15,0,.22.05.22.17a.37.37,0,0,1-.05.15l-3.2,5.14a.27.27,0,0,1-.24.15h-.1l-.35-.11c-.12,0-.18-.1-.18-.2a.3.3,0,0,1,.05-.14l2.89-4.67h-3Z" class="cls-7"/><path data-cppathid="10147" transform="translate(0 0)" d="M221.2,338.31c0,.18-.08.27-.26.27h-.5a.24.24,0,0,1-.26-.27v-5.56a.23.23,0,0,1,.26-.26h.5a.23.23,0,0,1,.26.26V335l2.9.94c.12,0,.18.11.18.19a.25.25,0,0,1,0,.14l0,0a.25.25,0,0,1-.23.13h-.11l-2.66-.86Z" class="cls-7"/><path data-cppathid="10148" transform="translate(0 0)" d="M226.4,338a.25.25,0,0,1-.3.2l-.46-.06c-.15,0-.23-.09-.23-.22a.51.51,0,0,1,0-.09l1.35-4.7a.26.26,0,0,1,.3-.2l.47.06c.15,0,.22.09.22.22a.34.34,0,0,1,0,.09Zm5.31-.19a.43.43,0,0,0,0,.05v.05c0,.13-.07.2-.21.22l-.47,0a.25.25,0,0,1-.31-.2l-1.33-4.7s0,0,0-.05v-.05q0-.19.21-.21l.48-.06a.25.25,0,0,1,.3.21Zm-.3-4.41a.15.15,0,0,1,0,.07c0,.11-.07.18-.22.19l-.23,0a.24.24,0,0,1-.3-.18l-.42-1.39a.56.56,0,0,1,0-.07c0-.11.08-.17.22-.18l.23,0c.17,0,.28,0,.31.17Zm.88-.4a.15.15,0,0,1,0,.07c0,.1-.07.16-.21.19l-.23,0c-.17,0-.27,0-.31-.17l-.41-1.3s0,0,0,0,0,0,0,0,.08-.16.22-.18l.23,0c.17,0,.28,0,.32.17Z" class="cls-7"/><path data-cppathid="10149" transform="translate(0 0)" d="M234.14,335.88a.22.22,0,0,1,0,.09c0,.13-.07.2-.22.21l-.46.06a.26.26,0,0,1-.31-.22l-.31-1.23v-.09a.2.2,0,0,1,.21-.21l.46-.06a.27.27,0,0,1,.31.22Zm1.31-.2a.13.13,0,0,1,0,.06q0,.21-.24.24l-.48,0a.26.26,0,0,1-.3-.24l-.21-1.23s0,0,0-.06.08-.22.24-.23l.48,0c.17,0,.26.06.3.23Zm.43,2.63a.28.28,0,0,1-.26.18h-.08l-.41-.1c-.13,0-.19-.09-.19-.2a.31.31,0,0,1,0-.13l1.62-3.34a.27.27,0,0,1,.26-.17h.07l.41.1c.13,0,.19.1.19.2a.35.35,0,0,1,0,.14Z" class="cls-7"/><path data-cppathid="10150" transform="translate(0 0)" d="M239.47,335.69a.29.29,0,0,1-.23.14l-.12,0-.33-.11c-.12,0-.19-.1-.19-.2a.29.29,0,0,1,.06-.15l1.86-2.81a.28.28,0,0,1,.23-.14l.12,0,.33.11c.12,0,.18.11.18.2a.29.29,0,0,1-.06.15l0,.05H245c.15,0,.22.05.22.17a.34.34,0,0,1,0,.15l-3.2,5.14a.3.3,0,0,1-.24.15h-.11l-.34-.11c-.12,0-.19-.1-.19-.2a.3.3,0,0,1,0-.14l2.9-4.67H241Z" class="cls-7"/><path data-cppathid="10151" transform="translate(0 0)" d="M252.83,338.06a.24.24,0,0,1-.27.26h-.49a.23.23,0,0,1-.25-.17h-4.07a.23.23,0,0,1-.25.17H247a.23.23,0,0,1-.26-.26v-4.87a.23.23,0,0,1,.26-.26h5.56c.18,0,.27.08.27.26Zm-1-4.64h-4v4.25h4Z" class="cls-7"/><path data-cppathid="10152" transform="translate(0 0)" d="M255.18,335.69a.28.28,0,0,1-.23.14l-.12,0-.33-.11c-.12,0-.18-.1-.18-.2a.26.26,0,0,1,.05-.15l1.86-2.81a.28.28,0,0,1,.23-.14l.12,0,.33.11c.12,0,.18.11.18.2a.37.37,0,0,1,0,.15l0,.05h3.69c.15,0,.23.05.23.17a.37.37,0,0,1-.05.15l-3.2,5.14a.3.3,0,0,1-.24.15h-.11l-.34-.11c-.12,0-.18-.1-.18-.2a.27.27,0,0,1,0-.14l2.9-4.67h-3.06ZM260.9,333s0,.05,0,.09-.07.2-.22.22l-.23,0a.23.23,0,0,1-.3-.21l-.42-1.68a.19.19,0,0,1,0-.08c0-.14.07-.21.22-.23l.23,0a.24.24,0,0,1,.31.21Zm.88-.49s0,.05,0,.09a.21.21,0,0,1-.21.22l-.23,0a.24.24,0,0,1-.31-.21l-.41-1.56a.11.11,0,0,1,0-.05.09.09,0,0,1,0-.05c0-.12.07-.19.22-.22l.23,0a.25.25,0,0,1,.31.21Z" class="cls-7"/><path data-cppathid="10153" transform="translate(0 0)" d="M264.65,338.34a.32.32,0,0,1-.2.09.45.45,0,0,1-.17-.05l-.18-.12a.21.21,0,0,1-.13-.18.3.3,0,0,1,.09-.18,3.07,3.07,0,0,0,.66-1.38,11.2,11.2,0,0,0,.24-2.38c0-.18.08-.27.26-.27h.5c.18,0,.26.16.25.47s0,.48,0,.7,0,.41-.05.6l0,0,1.8-2.44h-5.37q-.27,0-.27-.24t.27-.24h6.37c.14,0,.22.05.22.16a.29.29,0,0,1-.06.16L266.71,336a.3.3,0,0,1-.24.13h-.12L266,336a.27.27,0,0,1-.15-.12,4.86,4.86,0,0,1-.41,1.47A3.36,3.36,0,0,1,264.65,338.34Z" class="cls-7"/><path data-cppathid="10154" transform="translate(0 0)" d="M270.46,336.42a.35.35,0,0,1-.17,0,.27.27,0,0,1-.2-.08l-.08-.06a.26.26,0,0,1-.11-.18A.23.23,0,0,1,270,336l5.62-3.25a.35.35,0,0,1,.17,0,.27.27,0,0,1,.2.08l.08.06a.28.28,0,0,1,.11.18c0,.07,0,.13-.14.19l-2.22,1.29a.24.24,0,0,1,.06.18v3.6c0,.18-.08.26-.26.26h-.5a.23.23,0,0,1-.26-.26V335Z" class="cls-7"/><path data-cppathid="10155" transform="translate(0 0)" d="M280.64,338.36a.26.26,0,0,1-.33.19l-.44-.07q-.21,0-.21-.21v0s0,0,0-.06l1-3H277.4c-.17,0-.26-.08-.26-.24s.09-.24.26-.24h6.2q.27,0,.27.24t-.27.24h-2v.05a.14.14,0,0,1,0,.06Zm2.58-5.81c.17,0,.26.08.26.24s-.09.24-.26.24H278q-.27,0-.27-.24t.27-.24Z" class="cls-7"/><path data-cppathid="10156" transform="translate(0 0)" d="M291.41,338.15a.31.31,0,0,1,0,.15c0,.1-.06.16-.18.2l-.38.09h-.11a.26.26,0,0,1-.23-.15l-.44-.8-5,.76c-.17,0-.25,0-.25-.15a.27.27,0,0,1,0-.13l2.64-5.28a.26.26,0,0,1,.25-.16h.08l.39.09c.13,0,.19.1.19.2a.35.35,0,0,1,0,.14l-2.32,4.63,3.7-.58-.73-1.29a.34.34,0,0,1,0-.15.2.2,0,0,1,.18-.2l.38-.09.05,0h.06a.24.24,0,0,1,.22.15Z" class="cls-7"/><path data-cppathid="10157" transform="translate(0 0)" d="M232.91,349.12a.23.23,0,0,1,.12.19.25.25,0,0,1-.08.17l0,.06a.28.28,0,0,1-.22.1.41.41,0,0,1-.15,0,4.1,4.1,0,0,1,0-6.72.41.41,0,0,1,.15,0,.32.32,0,0,1,.22.1l.06.06a.25.25,0,0,1,.08.17c0,.07,0,.13-.13.19a2.15,2.15,0,0,0-.58.67,4.26,4.26,0,0,0-.39,1,5.3,5.3,0,0,0-.14,1.22,5.15,5.15,0,0,0,.14,1.21,4.34,4.34,0,0,0,.39,1A2.15,2.15,0,0,0,232.91,349.12Z" class="cls-7"/><path data-cppathid="10158" transform="translate(0 0)" d="M235.44,349a.27.27,0,0,1-.08.19.29.29,0,0,1-.19.08h-.49a.29.29,0,0,1-.19-.08.27.27,0,0,1-.08-.19v-5.58a.24.24,0,0,1,.07-.17.23.23,0,0,1,.17-.08l.53-.05h.49c1.81,0,2.72.7,2.72,2.1a1.52,1.52,0,0,1-.68,1.35,3.68,3.68,0,0,1-2,.45h-.27Zm0-5.42v2.95h.32a2.74,2.74,0,0,0,1-.13.92.92,0,0,0,.5-.42,1.71,1.71,0,0,0,.14-.77,2.49,2.49,0,0,0-.15-.95,1,1,0,0,0-.52-.52,2.67,2.67,0,0,0-1-.16Z" class="cls-7"/><path data-cppathid="10159" transform="translate(0 0)" d="M238.91,343.42a.25.25,0,0,1,.26-.28l.62-.05h.55a4,4,0,0,1,1.38.2,1.58,1.58,0,0,1,.76.57,1.53,1.53,0,0,1,.24.85,1.49,1.49,0,0,1-.25.84,1.66,1.66,0,0,1-.92.55c.85.29,1.28.78,1.28,1.46a1.79,1.79,0,0,1-.24.95,1.59,1.59,0,0,1-.8.61,4.24,4.24,0,0,1-1.47.21h-.53c-.19,0-.4,0-.61-.05s-.27-.1-.27-.27Zm.93.15v2.24a4.72,4.72,0,0,0,1.21-.15,1.24,1.24,0,0,0,.64-.38.89.89,0,0,0,.2-.58,1.37,1.37,0,0,0-.13-.58.92.92,0,0,0-.43-.42,2.06,2.06,0,0,0-.87-.15h-.62Zm0,5.27h.49a1.91,1.91,0,0,0,1.18-.32,1.16,1.16,0,0,0,.41-1,1,1,0,0,0-.48-.92,3.4,3.4,0,0,0-1.6-.34Z" class="cls-7"/><path data-cppathid="10160" transform="translate(0 0)" d="M244.75,348.73v0h.34a.29.29,0,0,1,.2.07.22.22,0,0,1,0,.34.29.29,0,0,1-.2.07h-1.71a.26.26,0,0,1-.19-.07.22.22,0,0,1,0-.34.26.26,0,0,1,.19-.07h.34v-5.12h-.34a.26.26,0,0,1-.19-.07.22.22,0,0,1,0-.34.26.26,0,0,1,.19-.07h1.71a.29.29,0,0,1,.2.07.22.22,0,0,1,0,.34.29.29,0,0,1-.2.07h-.34v5.09Z" class="cls-7"/><path data-cppathid="10161" transform="translate(0 0)" d="M247.64,348.45a3.6,3.6,0,0,0,.39-1,4.67,4.67,0,0,0,.14-1.21A4.8,4.8,0,0,0,248,345a3.53,3.53,0,0,0-.39-1,2,2,0,0,0-.57-.67.23.23,0,0,1-.13-.19A.25.25,0,0,1,247,343l.06-.06a.3.3,0,0,1,.21-.1.41.41,0,0,1,.16,0,4.1,4.1,0,0,1,0,6.72.41.41,0,0,1-.16,0,.26.26,0,0,1-.21-.1l-.05-.06a.25.25,0,0,1-.08-.17.23.23,0,0,1,.12-.19A2,2,0,0,0,247.64,348.45Z" class="cls-7"/></g><g class="cls-11" id="trouble"><path data-cppathid="10162" transform="translate(0 0)" d="M201.86,373.2a.22.22,0,0,1-.18.11h-.08l-.26-.08c-.09,0-.14-.08-.14-.15a.3.3,0,0,1,0-.11l2.14-3.44h-3.67c-.13,0-.2-.06-.2-.18s.07-.18.2-.18h4.39c.11,0,.16,0,.16.13a.26.26,0,0,1,0,.11Zm2.07-3.78a1.27,1.27,0,0,1-.52-.11A.91.91,0,0,1,203,369a.65.65,0,0,1-.14-.4.68.68,0,0,1,.14-.41.89.89,0,0,1,.37-.28,1.4,1.4,0,0,1,1,0,.92.92,0,0,1,.36.28.68.68,0,0,1,.14.41.65.65,0,0,1-.14.4.94.94,0,0,1-.36.29A1.27,1.27,0,0,1,203.93,369.42Zm0-.27a.37.37,0,0,0,.21-.08.52.52,0,0,0,.17-.19.48.48,0,0,0,.07-.26.55.55,0,0,0-.06-.26.67.67,0,0,0-.17-.2.37.37,0,0,0-.43,0,.7.7,0,0,0-.18.2.55.55,0,0,0-.06.26.48.48,0,0,0,.07.26.52.52,0,0,0,.17.19A.37.37,0,0,0,203.91,369.15Z" class="cls-7"/><path data-cppathid="10163" transform="translate(0 0)" d="M210.08,373a.18.18,0,0,1-.2.2h-.37a.16.16,0,0,1-.18-.13h-3.06a.16.16,0,0,1-.18.13h-.38c-.13,0-.19-.07-.19-.2v-3.65a.17.17,0,0,1,.19-.19h4.17a.18.18,0,0,1,.2.2Zm-.77-3.48h-3v3.19h3Z" class="cls-7"/><path data-cppathid="10164" transform="translate(0 0)" d="M211.88,371.34a.2.2,0,0,1-.17.11h-.09l-.28-.07c-.09,0-.14-.08-.14-.15a.26.26,0,0,1,0-.11l1.34-2.36a.19.19,0,0,1,.17-.12h.08l.29.08a.14.14,0,0,1,.13.15.22.22,0,0,1,0,.1v0h2.54c.11,0,.17,0,.17.13a.21.21,0,0,1,0,.11l-2.29,4a.22.22,0,0,1-.18.11h-.08l-.27-.07c-.09,0-.14-.08-.14-.15a.19.19,0,0,1,0-.11l.91-1.58h0l-1.15-.69a.15.15,0,0,1-.1-.14.19.19,0,0,1,.08-.13l.07-.06a.24.24,0,0,1,.15-.06.2.2,0,0,1,.13,0l1.06.63,1-1.63H213ZM216,369V369c0,.08-.05.12-.16.13l-.17,0c-.13,0-.2,0-.23-.12l-.31-.95a.07.07,0,0,1,0-.05c0-.08.06-.12.16-.13l.18,0c.13,0,.2,0,.23.12Zm.66-.27v0q0,.11-.15.12l-.18,0c-.12,0-.2,0-.23-.12l-.31-.89a0,0,0,0,0,0,0v0c0-.07.06-.11.16-.13l.18,0c.13,0,.2,0,.23.12Z" class="cls-7"/><path data-cppathid="10165" transform="translate(0 0)" d="M217.45,371.27a.21.21,0,0,1-.17.1h-.09l-.25-.08c-.09,0-.14-.08-.14-.15a.28.28,0,0,1,0-.12l1.4-2.1a.2.2,0,0,1,.17-.11l.09,0,.25.08c.09,0,.13.08.13.15a.19.19,0,0,1,0,.11l0,0h2.76c.12,0,.17,0,.17.12a.35.35,0,0,1,0,.12l-2.4,3.85a.21.21,0,0,1-.18.12h-.08l-.26-.08c-.09,0-.14-.08-.14-.15a.19.19,0,0,1,0-.11l2.17-3.5h-2.29Z" class="cls-7"/><path data-cppathid="10166" transform="translate(0 0)" d="M223.9,373.23a.18.18,0,0,1-.2.2h-.37a.18.18,0,0,1-.2-.2v-4.17c0-.13.07-.19.2-.19h.37c.13,0,.2.06.2.19v1.71l2.17.7c.09,0,.14.08.14.14a.17.17,0,0,1,0,.11l0,0a.22.22,0,0,1-.18.1h-.08l-2-.65Z" class="cls-7"/><path data-cppathid="10167" transform="translate(0 0)" d="M227.8,373a.2.2,0,0,1-.23.15l-.35-.05c-.11,0-.17-.06-.17-.16a.25.25,0,0,1,0-.07l1-3.52a.19.19,0,0,1,.23-.15l.35,0a.15.15,0,0,1,.16.17.18.18,0,0,1,0,.06Zm4-.14a0,0,0,0,0,0,0v0c0,.1-.06.15-.16.16l-.36,0a.17.17,0,0,1-.22-.15l-1-3.52s0,0,0,0v0c0-.09.05-.15.16-.16l.35,0a.19.19,0,0,1,.23.16Zm-.23-3.31a.07.07,0,0,1,0,.05c0,.09-.05.13-.16.14l-.18,0a.17.17,0,0,1-.22-.13l-.32-1v-.05c0-.09,0-.13.16-.14l.17,0c.13,0,.21,0,.24.13Zm.67-.3v0c0,.08-.05.12-.16.14l-.17,0c-.13,0-.21,0-.23-.12l-.31-1v-.06c0-.07,0-.11.16-.13l.18,0c.12,0,.2,0,.23.13Z" class="cls-7"/><path data-cppathid="10168" transform="translate(0 0)" d="M233.6,371.41s0,0,0,.07-.06.15-.17.16l-.34,0a.2.2,0,0,1-.24-.16l-.22-.93a0,0,0,0,1,0,0v0c0-.1.05-.15.16-.16l.35-.05a.2.2,0,0,1,.23.17Zm1-.15v.05c0,.1-.06.16-.18.17l-.36,0a.18.18,0,0,1-.22-.17l-.16-.93s0,0,0,0,.06-.17.18-.18l.36,0a.19.19,0,0,1,.22.18Zm.31,2a.2.2,0,0,1-.19.14h-.06l-.3-.07q-.15,0-.15-.15a.3.3,0,0,1,0-.1l1.22-2.51a.21.21,0,0,1,.19-.13h.06l.3.07q.15,0,.15.15a.17.17,0,0,1,0,.1Z" class="cls-7"/><path data-cppathid="10169" transform="translate(0 0)" d="M237.6,371.27a.21.21,0,0,1-.18.1h-.09l-.24-.08c-.09,0-.14-.08-.14-.15a.19.19,0,0,1,0-.12l1.39-2.1a.22.22,0,0,1,.18-.11l.09,0,.24.08c.09,0,.14.08.14.15a.19.19,0,0,1,0,.11l0,0h2.76c.11,0,.17,0,.17.12a.24.24,0,0,1,0,.12l-2.4,3.85a.2.2,0,0,1-.18.12h-.07l-.26-.08c-.1,0-.14-.08-.14-.15a.19.19,0,0,1,0-.11l2.17-3.5h-2.3Z" class="cls-7"/><path data-cppathid="10170" transform="translate(0 0)" d="M247.62,373a.18.18,0,0,1-.2.2h-.37a.18.18,0,0,1-.19-.13h-3.05a.18.18,0,0,1-.19.13h-.37a.18.18,0,0,1-.2-.2v-3.65c0-.13.07-.19.2-.19h4.17a.18.18,0,0,1,.2.2Zm-.77-3.48h-3v3.19h3Z" class="cls-7"/><path data-cppathid="10171" transform="translate(0 0)" d="M249.38,371.27a.21.21,0,0,1-.17.1h-.09l-.25-.08c-.09,0-.14-.08-.14-.15a.28.28,0,0,1,0-.12l1.4-2.1a.2.2,0,0,1,.17-.11l.09,0,.25.08c.09,0,.13.08.13.15a.19.19,0,0,1,0,.11l0,0h2.76c.12,0,.17,0,.17.12a.35.35,0,0,1,0,.12l-2.4,3.85a.21.21,0,0,1-.18.12H251l-.26-.08c-.09,0-.14-.08-.14-.15a.19.19,0,0,1,0-.11l2.17-3.5h-2.29Zm4.29-2a.35.35,0,0,1,0,.06.16.16,0,0,1-.17.17l-.17,0a.18.18,0,0,1-.23-.15l-.31-1.26s0,0,0-.07.06-.15.17-.17l.17,0a.18.18,0,0,1,.23.16Zm.66-.37s0,0,0,.07-.06.14-.16.16l-.17,0a.19.19,0,0,1-.24-.15l-.3-1.18a0,0,0,0,1,0,0s0,0,0,0,.06-.14.17-.16l.17,0c.13,0,.21,0,.23.15Z" class="cls-7"/><path data-cppathid="10172" transform="translate(0 0)" d="M256.48,373.26a.21.21,0,0,1-.27,0l-.14-.08a.19.19,0,0,1-.1-.14.24.24,0,0,1,.07-.13,2.3,2.3,0,0,0,.5-1,8.36,8.36,0,0,0,.17-1.78.18.18,0,0,1,.2-.21h.37c.14,0,.2.12.19.36s0,.36,0,.52,0,.31,0,.45l0,0,1.35-1.83h-4c-.14,0-.2-.06-.2-.18s.06-.18.2-.18h4.77c.11,0,.17,0,.17.12a.28.28,0,0,1-.05.12L258,371.47a.24.24,0,0,1-.18.1h-.09l-.24-.08a.19.19,0,0,1-.12-.09,3.71,3.71,0,0,1-.3,1.1A2.54,2.54,0,0,1,256.48,373.26Z" class="cls-7"/><path data-cppathid="10173" transform="translate(0 0)" d="M260.84,371.81a.2.2,0,0,1-.13,0,.24.24,0,0,1-.15-.06l-.06-.05a.21.21,0,0,1-.08-.14c0-.05,0-.09.1-.14l4.21-2.43a.24.24,0,0,1,.13,0,.2.2,0,0,1,.15.06l.06.05a.17.17,0,0,1,.08.14c0,.05,0,.09-.1.14l-1.67,1a.16.16,0,0,1,.05.14v2.7a.18.18,0,0,1-.2.2h-.37a.18.18,0,0,1-.2-.2v-2.42Z" class="cls-7"/><path data-cppathid="10174" transform="translate(0 0)" d="M268.47,373.27c0,.12-.11.16-.24.14l-.33-.05c-.11,0-.16-.07-.16-.16v0s0,0,0,0l.72-2.27h-2.42c-.13,0-.2-.06-.2-.18s.07-.18.2-.18h4.65c.13,0,.2.06.2.18s-.07.18-.2.18h-1.48v0a.08.08,0,0,1,0,0Zm1.94-4.36c.13,0,.2.06.2.18s-.07.18-.2.18h-4c-.14,0-.2-.06-.2-.18s.06-.18.2-.18Z" class="cls-7"/><path data-cppathid="10175" transform="translate(0 0)" d="M276.55,373.11a.26.26,0,0,1,0,.11.14.14,0,0,1-.13.15l-.29.07h-.08a.19.19,0,0,1-.17-.12l-.33-.6-3.72.58c-.13,0-.19,0-.19-.12a.26.26,0,0,1,0-.1l2-4a.2.2,0,0,1,.19-.12h.06l.29.07c.1,0,.14.07.14.15a.16.16,0,0,1,0,.1l-1.74,3.48,2.78-.44-.55-1a.23.23,0,0,1,0-.11c0-.07,0-.12.13-.15l.29-.07h.08a.2.2,0,0,1,.17.11Z" class="cls-7"/><path data-cppathid="10176" transform="translate(0 0)" d="M232.68,382.09a.17.17,0,0,1,.09.14.18.18,0,0,1-.06.13l0,0a.23.23,0,0,1-.16.08l-.11,0a3.07,3.07,0,0,1,0-5l.11,0a.23.23,0,0,1,.16.08l0,0a.18.18,0,0,1,.06.13.17.17,0,0,1-.09.14,1.52,1.52,0,0,0-.43.5,2.39,2.39,0,0,0-.29.75,3.82,3.82,0,0,0,0,1.82,2.49,2.49,0,0,0,.29.75A1.52,1.52,0,0,0,232.68,382.09Z" class="cls-7"/><path data-cppathid="10177" transform="translate(0 0)" d="M234.57,382a.2.2,0,0,1-.06.14.18.18,0,0,1-.14.06H234a.18.18,0,0,1-.14-.06.2.2,0,0,1-.06-.14v-4.19a.17.17,0,0,1,.05-.13.23.23,0,0,1,.13-.06l.4,0h.36c1.36,0,2,.53,2,1.58a1.12,1.12,0,0,1-.52,1,2.67,2.67,0,0,1-1.49.34h-.21Zm0-4.07v2.21h.25a2,2,0,0,0,.72-.1.66.66,0,0,0,.37-.32,1.31,1.31,0,0,0,.11-.57,1.8,1.8,0,0,0-.12-.72.68.68,0,0,0-.39-.39,1.87,1.87,0,0,0-.74-.12Z" class="cls-7"/><path data-cppathid="10178" transform="translate(0 0)" d="M237.18,377.81a.19.19,0,0,1,.2-.21l.46,0h.41a3,3,0,0,1,1,.15,1.23,1.23,0,0,1,.57.43,1.2,1.2,0,0,1,.17.64,1.11,1.11,0,0,1-.18.63,1.33,1.33,0,0,1-.69.41c.64.22,1,.58,1,1.09a1.23,1.23,0,0,1-.19.71,1.12,1.12,0,0,1-.59.46,3.1,3.1,0,0,1-1.11.16h-.39l-.46,0a.19.19,0,0,1-.2-.21Zm.69.12v1.68a4,4,0,0,0,.91-.11.9.9,0,0,0,.48-.29.64.64,0,0,0,.15-.43,1,1,0,0,0-.09-.44A.63.63,0,0,0,239,378a1.45,1.45,0,0,0-.65-.12h-.47Zm0,3.95h.37a1.43,1.43,0,0,0,.89-.24.88.88,0,0,0,.3-.74.77.77,0,0,0-.35-.69,2.58,2.58,0,0,0-1.21-.25Z" class="cls-7"/><path data-cppathid="10179" transform="translate(0 0)" d="M241.56,381.8v0h.26a.24.24,0,0,1,.14.05.18.18,0,0,1,.06.13.16.16,0,0,1-.06.13.24.24,0,0,1-.14.05h-1.29a.24.24,0,0,1-.14-.05.16.16,0,0,1-.06-.13.18.18,0,0,1,.06-.13.24.24,0,0,1,.14-.05h.26V378h-.26a.24.24,0,0,1-.14-.05.16.16,0,0,1-.06-.13.18.18,0,0,1,.06-.13.24.24,0,0,1,.14-.05h1.29a.24.24,0,0,1,.14.05.18.18,0,0,1,.06.13.16.16,0,0,1-.06.13.24.24,0,0,1-.14.05h-.26v3.82Z" class="cls-7"/><path data-cppathid="10180" transform="translate(0 0)" d="M243.73,381.59a3.17,3.17,0,0,0,.29-.75,3.82,3.82,0,0,0,0-1.82,3,3,0,0,0-.29-.75,1.64,1.64,0,0,0-.43-.5.17.17,0,0,1-.1-.14.18.18,0,0,1,.06-.13l0,0a.25.25,0,0,1,.17-.08l.11,0a3.08,3.08,0,0,1,0,5l-.11,0a.25.25,0,0,1-.17-.08l0,0a.18.18,0,0,1-.06-.13.17.17,0,0,1,.09-.14A1.64,1.64,0,0,0,243.73,381.59Z" class="cls-7"/></g><g id="header"><g id="underline"><path data-cppathid="10181" transform="translate(0 0)" d="M355.14,35.08l-9-.26c-.87,0-1.75,0-2.62,0a16.79,16.79,0,0,1-2.37-.07,32.22,32.22,0,0,0-4.71-.2c-3.56-.07-7.12-.19-10.67-.25-1.82,0-3.61-.26-5.44-.12-2.81-.32-5.7.05-8.52-.29a12.5,12.5,0,0,0-2.59,0,24.47,24.47,0,0,1-2.84,0c-1.49-.07-3-.06-4.48-.11a96.39,96.39,0,0,0-10.2.06,4.21,4.21,0,0,1-.71,0c-3.07-.3-6.18-.1-9.26-.14-.72,0-1.44,0-2.14,0a32,32,0,0,0-5.88.1,53.81,53.81,0,0,1-5.68,0c-1.75,0-3.49,0-5.23,0-1.34,0-2.69,0-4,0-3.18-.1-6.34,0-9.5.12a9.62,9.62,0,0,1-1.42,0c-3.8-.27-7.6-.13-11.41-.09-1.34,0-2.69,0-4,0-1.89,0-3.79.07-5.68.12a17.32,17.32,0,0,1-1.9,0,27.92,27.92,0,0,0-4.48,0,11.65,11.65,0,0,1-2.13,0c-1.17-.13-2.36-.14-3.52-.23a51.92,51.92,0,0,0-5.44,0c-2.85.07-5.71.06-8.56.06H194c-1.27,0-2.54,0-3.81,0a24.27,24.27,0,0,0-3.3.11,12.46,12.46,0,0,1-2.59,0,19.1,19.1,0,0,0-3.78,0,15.17,15.17,0,0,1-3.3,0,15,15,0,0,0-1.65-.06c-.79,0-1.59,0-2.37,0-2.94-.12-5.87-.07-8.8,0-.39,0-.79,0-1.18,0-3.88-.07-7.76-.16-11.64,0-1.4.07-2.85-.09-4.27-.09-2.62,0-5.23.09-7.84.09-2.22,0-4.44-.08-6.65-.15-1.66-.05-3.31-.12-5,0a24,24,0,0,1-4.49-.13,16.59,16.59,0,0,0-3.31-.11c-.38,0-.79,0-1.18,0a3,3,0,0,1-2.41-.84,1.05,1.05,0,0,1,.58-1.61,3.38,3.38,0,0,1,1.27-.27c1.35,0,2.7,0,4,0,1.18,0,2.36.15,3.54.16,3.25,0,6.51,0,9.76,0,.95,0,1.9,0,2.85,0a11.16,11.16,0,0,0,1.65,0,8.93,8.93,0,0,1,2.58,0,3.73,3.73,0,0,0,.94,0c2.81-.35,5.66.22,8.49-.16a30.07,30.07,0,0,1,3.56,0l4.76,0c2.29,0,4.58-.12,6.87,0a13.37,13.37,0,0,0,1.9,0,59.39,59.39,0,0,1,6.4-.1,33.53,33.53,0,0,0,4,0c.38,0,.79,0,1.19,0,2.37-.06,4.74-.12,7.11-.16.86,0,1.73,0,2.6.06a9.69,9.69,0,0,0,1.41.05,28.48,28.48,0,0,1,4.71,0,11.78,11.78,0,0,0,1.19,0c3.46-.32,7-.11,10.44-.21,1.19,0,2.38-.08,3.56-.09,1.81,0,3.63-.05,5.43,0,1.27,0,2.51,0,3.77-.06,1.09-.07,2.21,0,3.31,0,.71,0,1.42.09,2.12.06a56,56,0,0,1,8.29,0,3.74,3.74,0,0,0,.94-.05,19.89,19.89,0,0,1,3.78,0,14.18,14.18,0,0,0,2.35,0,28.38,28.38,0,0,1,5.9,0,7.46,7.46,0,0,0,1.41.08c2-.19,3.93,0,5.88-.12a5.58,5.58,0,0,1,.71,0c4.42.29,8.87.1,13.31.18,2.77,0,5.55,0,8.32,0,.79,0,1.57.08,2.36.09.55,0,1.1,0,1.65,0a6.09,6.09,0,0,1,.93-.07,30.32,30.32,0,0,0,4.95.11,70.7,70.7,0,0,1,7.3.3,4.21,4.21,0,0,0,.71,0c2.3-.18,4.59,0,6.89,0,.86,0,1.73.06,2.6.11a7.72,7.72,0,0,0,.92.09,54.62,54.62,0,0,1,6.14.1c.16,0,.32,0,.48,0a74.52,74.52,0,0,1,8.73.41c.54,0,1.11.06,1.66,0,3.26-.06,6.49.2,9.72.34.94,0,1.84.24,2.78.3s1.73-.05,2.58,0q7.56.43,15.12.93c2.59.16,5.16.42,7.78.47a21.45,21.45,0,0,1,2.79.31,4.67,4.67,0,0,1,1.16.4c.34.15.17.57-.25.63a12.5,12.5,0,0,1-1.63.13h-7.61Z" class="cls-7"/></g><path data-cppathid="10182" transform="translate(0 0)" d="M131.72,24.31a.92.92,0,0,1-.78.5,1.22,1.22,0,0,1-.33-.06l-1.12-.33c-.39-.14-.59-.36-.59-.65a.92.92,0,0,1,.15-.46l9.23-14.84H122.46c-.56,0-.85-.26-.85-.78s.29-.77.85-.77h18.9q.72,0,.72.54a1.08,1.08,0,0,1-.15.49ZM140.64,8a5.39,5.39,0,0,1-2.23-.45,4.18,4.18,0,0,1-1.6-1.23,2.83,2.83,0,0,1-.58-1.75,2.78,2.78,0,0,1,.58-1.74,4,4,0,0,1,1.6-1.22,5.75,5.75,0,0,1,4.46,0,3.94,3.94,0,0,1,1.59,1.22A2.78,2.78,0,0,1,145,4.58a2.83,2.83,0,0,1-.58,1.75,4.14,4.14,0,0,1-1.59,1.23A5.35,5.35,0,0,1,140.64,8Zm-.07-1.14a1.55,1.55,0,0,0,.9-.32,2.69,2.69,0,0,0,.75-.85,2.21,2.21,0,0,0,.3-1.12,2.25,2.25,0,0,0-.29-1.12,2.46,2.46,0,0,0-.73-.83,1.5,1.5,0,0,0-1.85,0,2.31,2.31,0,0,0-.75.83,2.24,2.24,0,0,0-.28,1.12,2.31,2.31,0,0,0,.29,1.12,2.69,2.69,0,0,0,.75.85A1.57,1.57,0,0,0,140.57,6.87Z" class="cls-7"/><path data-cppathid="10183" transform="translate(0 0)" d="M167.15,23.64a.76.76,0,0,1-.85.86h-1.6a.74.74,0,0,1-.8-.55H150.74a.74.74,0,0,1-.8.55h-1.6a.76.76,0,0,1-.86-.86V7.93a.76.76,0,0,1,.86-.86h1.6a.8.8,0,0,1,.23,0H166.3a.75.75,0,0,1,.85.85Zm-3.3-15H150.79V22.4h13.06Z" class="cls-7"/><path data-cppathid="10184" transform="translate(0 0)" d="M174.88,16.3a.78.78,0,0,1-.72.49H174l-.18,0-1.22-.31c-.39-.1-.59-.32-.59-.65a1,1,0,0,1,.13-.46l5.76-10.18a.79.79,0,0,1,.72-.5l.19,0,.18,0,1.21.31c.4.1.6.32.6.64a1.15,1.15,0,0,1-.13.47l0,0h10.93q.75,0,.75.57a1.05,1.05,0,0,1-.15.46l-9.87,17.11a.92.92,0,0,1-.78.5l-.16,0-.18,0L180,24.44c-.41-.1-.62-.32-.62-.64a.88.88,0,0,1,.16-.47l3.92-6.8-.05,0-4.93-3A.66.66,0,0,1,178,13a.79.79,0,0,1,.36-.6l.31-.26a.92.92,0,0,1,.64-.25,1,1,0,0,1,.55.18l4.57,2.74,4.09-7.06h-8.82ZM192.77,6.2a.69.69,0,0,1,0,.22c0,.32-.24.51-.7.55l-.75.07c-.54.07-.86-.1-1-.5L189,2.43a.62.62,0,0,1,0-.21c0-.33.23-.51.69-.55l.75-.08c.55-.06.89.11,1,.51ZM195.61,5a.65.65,0,0,1,0,.22c0,.3-.23.48-.67.54l-.75.1c-.55.07-.89-.1-1-.51l-1.32-3.83a.36.36,0,0,1,0-.11.49.49,0,0,1,0-.12c0-.29.23-.46.7-.53l.75-.1c.55-.06.88.11,1,.51Z" class="cls-7"/><path data-cppathid="10185" transform="translate(0 0)" d="M198.89,16a.88.88,0,0,1-.74.47,1.13,1.13,0,0,1-.39-.08L196.7,16c-.4-.13-.6-.35-.6-.64a.85.85,0,0,1,.18-.49l6-9.08a.9.9,0,0,1,.75-.46.85.85,0,0,1,.39.08l1.06.33c.39.14.59.36.59.65a1,1,0,0,1-.18.49l-.1.15H216.7c.49,0,.73.18.73.55a1,1,0,0,1-.16.49L206.93,24.73a.88.88,0,0,1-.77.49,1.74,1.74,0,0,1-.34,0l-1.11-.34c-.4-.14-.59-.35-.59-.64a1,1,0,0,1,.15-.47l9.36-15.1h-9.88Z" class="cls-7"/><path data-cppathid="10186" transform="translate(0 0)" d="M226.68,24.47a.75.75,0,0,1-.85.85h-1.6a.76.76,0,0,1-.86-.85v-18a.76.76,0,0,1,.86-.86h1.6a.76.76,0,0,1,.85.86v7.34l9.36,3c.39.14.59.35.59.62a.83.83,0,0,1-.15.44l-.11.13a.87.87,0,0,1-.75.44h-.16l-.2,0-8.58-2.77Z" class="cls-7"/><path data-cppathid="10187" transform="translate(0 0)" d="M243.48,23.36a.81.81,0,0,1-1,.64l-1.5-.18q-.72-.08-.72-.72a1,1,0,0,1,.05-.28L244.7,7.64a.81.81,0,0,1,1-.64l1.5.18q.72.08.72.72a1.91,1.91,0,0,1-.05.29Zm17.14-.6a1.24,1.24,0,0,1,0,.16.76.76,0,0,1,0,.15c0,.42-.23.65-.7.7l-1.52.18a.79.79,0,0,1-1-.64l-4.3-15.2a.9.9,0,0,1,0-.16.77.77,0,0,1,0-.15c0-.42.24-.65.7-.7l1.53-.18a.81.81,0,0,1,1,.67Zm-1-14.26a.78.78,0,0,1,0,.24c0,.36-.23.55-.7.6l-.75.08c-.53.07-.86-.11-1-.55l-1.35-4.49a1.34,1.34,0,0,1,0-.24c0-.35.23-.55.7-.59l.75-.09c.55-.07.88.12,1,.56Zm2.85-1.3a1.44,1.44,0,0,1,0,.24c0,.32-.22.52-.67.59l-.75.11c-.55.07-.89-.11-1-.55L258.78,3.4s0-.09,0-.13,0-.09,0-.13c0-.31.23-.5.7-.58l.75-.1c.55-.07.89.11,1,.55Z" class="cls-7"/><path data-cppathid="10188" transform="translate(0 0)" d="M268.48,16.61a2.07,2.07,0,0,1,0,.29c0,.41-.23.64-.7.69l-1.5.18a.84.84,0,0,1-1-.69l-1-4a1,1,0,0,1,0-.16v-.13c0-.41.23-.64.7-.7l1.5-.18a.84.84,0,0,1,1,.7Zm4.24-.64a1,1,0,0,1,0,.2c0,.45-.26.7-.77.75l-1.56.13a.8.8,0,0,1-1-.75l-.7-4a.58.58,0,0,1,0-.21q0-.66.78-.75l1.55-.12a.8.8,0,0,1,1,.74Zm1.37,8.5a.87.87,0,0,1-.83.57h-.13a.25.25,0,0,1-.13,0l-1.32-.31c-.41-.1-.62-.32-.62-.64a1.05,1.05,0,0,1,.1-.44l5.23-10.78a.85.85,0,0,1,.82-.57h.13a.25.25,0,0,1,.13,0l1.32.31c.41.1.62.31.62.64a1,1,0,0,1-.1.44Z" class="cls-7"/><path data-cppathid="10189" transform="translate(0 0)" d="M285.69,16a.91.91,0,0,1-.75.47,1.18,1.18,0,0,1-.39-.08L283.49,16c-.39-.13-.59-.35-.59-.64a.85.85,0,0,1,.18-.49l6-9.08a.87.87,0,0,1,.75-.46.84.84,0,0,1,.38.08l1.06.33c.4.14.6.36.6.65a1,1,0,0,1-.18.49l-.11.15H303.5c.48,0,.72.18.72.55a1.12,1.12,0,0,1-.15.49L293.73,24.73a.91.91,0,0,1-.78.49,1.76,1.76,0,0,1-.33,0l-1.11-.34c-.4-.14-.6-.35-.6-.64a.88.88,0,0,1,.16-.47l9.35-15.1h-9.87Z" class="cls-7"/><path data-cppathid="10190" transform="translate(0 0)" d="M328.86,23.64a.76.76,0,0,1-.86.86h-1.6a.74.74,0,0,1-.8-.55H312.44a.74.74,0,0,1-.8.55H310a.76.76,0,0,1-.85-.86V7.93a.76.76,0,0,1,.85-.86h1.6a.8.8,0,0,1,.23,0H328a.76.76,0,0,1,.86.85Zm-3.31-15H312.49V22.4h13.06Z" class="cls-7"/><path data-cppathid="10191" transform="translate(0 0)" d="M336.45,16a.88.88,0,0,1-.74.47,1.13,1.13,0,0,1-.39-.08L334.26,16c-.4-.13-.6-.35-.6-.64a.85.85,0,0,1,.18-.49l6-9.08a.9.9,0,0,1,.75-.46.85.85,0,0,1,.39.08l1.06.33c.39.14.59.36.59.65a1,1,0,0,1-.18.49l-.1.15h11.91c.49,0,.73.18.73.55a1,1,0,0,1-.16.49L344.49,24.73a.88.88,0,0,1-.77.49,1.74,1.74,0,0,1-.34,0l-1.11-.34c-.4-.14-.59-.35-.59-.64a1,1,0,0,1,.15-.47l9.36-15.1h-9.88Zm18.49-8.66a2.07,2.07,0,0,1,0,.29c0,.43-.23.67-.7.72l-.75.1a.77.77,0,0,1-1-.67l-1.34-5.43a1,1,0,0,1,0-.28c0-.43.23-.67.7-.72l.75-.11a.8.8,0,0,1,1,.67Zm2.84-1.57a1.06,1.06,0,0,1,0,.28c0,.4-.22.64-.67.72l-.75.13a.78.78,0,0,1-1-.67l-1.32-5.07A.83.83,0,0,1,354,1a.81.81,0,0,1,0-.16c0-.37.23-.61.69-.69l.75-.13a.79.79,0,0,1,1,.67Z" class="cls-7"/></g></g></g></g></g></svg>