<?xml version="1.0" encoding="UTF-8"?>
<svg xmlns="http://www.w3.org/2000/svg" onmouseup="{ if(window.parent.document.onmouseup) window.parent.document.onmouseup(arguments[0]);}" viewBox="0 0 1277.46 1277.46"><defs><style>.cls-1{fill:#ffb536;}.cls-2{fill:#ffc32b;}.cls-3{fill:#ffce54;}.cls-4{fill:#ffb13b;}.cls-5{fill:#ffe836;}</style></defs><g data-name="Layer 2" id="Layer_2"><g data-name="—ÎÓÈ_1" id="_ÎÓÈ_1"><path data-cppathid="10000" d="M67.56,681.78c0-343.72,278.64-622.36,622.37-622.36a619.62,619.62,0,0,1,374,124.87C952.65,80.15,803.15,16.36,638.73,16.36,295,16.36,16.36,295,16.36,638.73c0,203.36,97.55,383.93,248.39,497.5C143.42,1022.66,67.56,861.09,67.56,681.78Z" class="cls-1"/><path data-cppathid="10001" d="M1261.1,638.73c0-179.31-75.85-340.87-197.19-454.44a619.62,619.62,0,0,0-374-124.87C346.2,59.42,67.56,338.06,67.56,681.78c0,179.31,75.86,340.88,197.19,454.45a619.62,619.62,0,0,0,374,124.87C982.46,1261.1,1261.1,982.46,1261.1,638.73Z" class="cls-2"/><path data-cppathid="10002" d="M689.93,59.42C346.2,59.42,67.56,338.06,67.56,681.78a619.34,619.34,0,0,0,77.8,301.39L1019,153.46A619.36,619.36,0,0,0,689.93,59.42Z" class="cls-3"/><polygon data-cppathid="10003" points="773.02 296.7 659.1 591.02 545.17 296.7 403.94 296.7 584.88 712.39 584.88 1018.58 659.1 1018.58 733.31 1018.58 733.31 712.39 914.25 296.7 773.02 296.7" class="cls-4"/><rect data-cppathid="10004" height="68.57" width="419.55" y="691.54" x="449.32" class="cls-4"/><rect data-cppathid="10005" height="68.57" width="419.55" y="804.52" x="449.32" class="cls-4"/><polygon data-cppathid="10006" points="752.65 277.8 638.73 572.11 524.81 277.8 383.57 277.8 564.51 693.48 564.51 999.67 638.73 999.67 712.95 999.67 712.95 693.48 893.89 277.8 752.65 277.8" class="cls-5"/><rect data-cppathid="10007" height="68.57" width="419.55" y="672.63" x="428.95" class="cls-5"/><rect data-cppathid="10008" height="68.57" width="419.55" y="785.61" x="428.95" class="cls-5"/><path data-cppathid="10009" d="M638.73,1277.46c-170.61,0-331-66.44-451.65-187.08S0,809.34,0,638.73s66.44-331,187.08-451.65S468.12,0,638.73,0s331,66.44,451.65,187.08,187.08,281,187.08,451.65-66.44,331-187.08,451.65S809.34,1277.46,638.73,1277.46Zm0-1238.11c-330.5,0-599.38,268.88-599.38,599.38s268.88,599.39,599.38,599.39,599.39-268.89,599.39-599.39S969.23,39.35,638.73,39.35Z" class="cls-5"/></g></g></svg>