<?xml version="1.0" encoding="UTF-8"?>
<svg xmlns="http://www.w3.org/2000/svg" onmouseup="{ if(window.parent.document.onmouseup) window.parent.document.onmouseup(arguments[0]);}" viewBox="0 0 96.47 194.67"><defs><style>.cls-1{fill:#fcc488;}.cls-10,.cls-2,.cls-5,.cls-9{stroke:#000;}.cls-2{stroke-width:2.52px;}.cls-3{fill:#d7d7d7;}.cls-4{fill:#ccebf6;}.cls-5{stroke-width:0.63px;}.cls-6{fill:#fff;}.cls-7{fill:#332518;}.cls-8{fill:#245468;}.cls-9{fill:none;stroke-width:2px;}.cls-10{stroke-width:1.91px;}</style></defs><g data-name="Layer 2" id="Layer_2"><g id="ProductOwner"><path data-cppathid="10000" d="M86,56.32c.66-2.44,1-4.16,1-4.16s-2.14-6.51-.2-5.15S89,51.93,89,51.93s1.54-7.33,2.89-7.69-.28,4.4-.28,4.4a32.29,32.29,0,0,1,2.78-4.19c.56-.36-1.19,4.21-1.19,4.21s2.89-2.42,3.26-1.87-4.53,6.39-5.35,8.77c-.16.47-1.66,1.79-2,3.32C87.83,65,85.06,59.87,86,56.32Z" class="cls-1"/><path data-cppathid="10001" d="M55.68,88.82s-2.9-1.54-.2-4.49,19.18-9.72,21.15-12c8.48-9.6,8.27-17.93,8.27-17.93l8,2.75S87.12,70.6,83,76.62,55.68,88.82,55.68,88.82Z" class="cls-2"/><path data-cppathid="10002" d="M0,189.13c.09,3.59,19.55,6,43.47,5.46s43.25-4,43.16-7.56-19.55-6-43.47-5.46S-.09,185.53,0,189.13Z" class="cls-3"/><path data-cppathid="10003" d="M52.79,72.32s12.07,24.52,14.1,51.9c.12,1.67.26,5.05.26,5.05L45,131.63s0-1.37,0-2c0-18.75.66-40,.66-40s1.52-22.31,3.55-21.3S52.79,72.32,52.79,72.32Z" class="cls-2"/><path data-cppathid="10004" d="M65.69,124.92s.17,2.58.22,3.88c1,25.18-6,52.37-6,52.37s5.81,1.94,6.78,3.88-13.57,1-13.57,1S56,151.1,55,143.35s-7.76,40.73-9.7,43.64-9.22,5.82-9.22,5.82S37.57,187,39,184.56s5.13-36.53,5.32-54.79c0-.5,0-1.46,0-1.46Z"/><path data-cppathid="10005" d="M52.12,73.52S63.66,97,65.61,123.16c.11,1.6.25,4.83.25,4.83l-21.18,2.26s0-1.31,0-1.94c0-17.94.63-38.3.63-38.3s1.45-21.34,3.39-20.37S52.12,73.52,52.12,73.52Z" class="cls-4"/><path data-cppathid="10006" d="M54,130.91,44,132.12s0-1.4,0-2.06c0-19,.59-40.66.59-40.66s.73-12,1.81-18.12C53.22,72.06,54,130.91,54,130.91Z" class="cls-2"/><path data-cppathid="10007" d="M60,64.41s0,0,.48-1.16c.06-.15.2-.74.2-.74s-7.16-2.23-9.38-3.82c-5.69-4.06-11.25-10-7.32-8.4,10.29,4.34,22.24-5.93,22.24-5.93s.14.49.17.32c1.58-7.94,1.95-16.74-1.51-23.33C56.74,5.92,31.55-7.89,24.24,9.17s.81,28.43,6.5,39,16.49,24.3,21.39,24.91C56.46,73.61,60,64.41,60,64.41Z" class="cls-1"/><path data-cppathid="10008" d="M50.7,25.9c0,1.79-.86,3.24-1.91,3.24s-1.91-1.45-1.91-3.24.86-3.25,1.91-3.25S50.7,24.1,50.7,25.9Z" class="cls-5"/><path data-cppathid="10009" d="M48.22,24.37a1,1,0,1,1-1-1A1,1,0,0,1,48.22,24.37Z" class="cls-6"/><ellipse data-cppathid="10010" ry="2.67" rx="1.57" cy="23.72" cx="56.33" class="cls-5"/><path data-cppathid="10011" d="M56.18,22.58a1,1,0,0,1-1.91,0,1,1,0,1,1,1.91,0Z" class="cls-6"/><path data-cppathid="10012" d="M27.18,5.08s9.74,3.24,12.45,6.49a42.21,42.21,0,0,1,2.71,3.25c1.43-3.64,0-5.41,0-5.41s5.61.42,7.19,2.84a3.74,3.74,0,0,0-1.77-3.93s5.6.1,8.7,2.24a5.72,5.72,0,0,0-3.29-3.32L59.45,6.1A37.84,37.84,0,0,0,46.59.69,32.54,32.54,0,0,0,31,1.29C28.8,1.83,27.18,5.08,27.18,5.08Z" class="cls-7"/><path data-cppathid="10013" d="M27.18,5.08S28.8,14.28,28.8,17s-7,9.75-7,9.75S18,18.07,19.59,13.2,27.18,5.08,27.18,5.08Z" class="cls-7"/><polygon data-cppathid="10014" points="51.59 76.34 53.34 75.63 53.69 81.31 51.59 76.34" class="cls-8"/><polygon data-cppathid="10015" points="53.69 81.31 59.14 98.88 58.78 107.75 54.3 99.68 53.69 81.31" class="cls-8"/><path data-cppathid="10016" d="M31,26.07a51.66,51.66,0,0,0,3.38,8.79l18.27-3.38L52,22l5.07,8.45,12.18-2L67.91,17.61" class="cls-9"/><path data-cppathid="10017" d="M67.91,18.45s-29.55-.31-47.25,14.83c0,0,.11,1.75.11,2.78,0,.81.9-1.75,1.58-2.67C27,27.21,48.62,18.66,67.91,19.28,68.13,18.56,67.91,18.45,67.91,18.45Z" class="cls-10"/><path data-cppathid="10018" d="M77.45,43.25c.36-2.72.49-4.62.49-4.62S74.7,32,77,33.13s3,5,3,5,.6-8.1,2-8.67.33,4.77.33,4.77,1.85-4.44,2.39-4.92-.67,4.7-.67,4.7,2.76-3,3.23-2.47-4,7.51-4.48,10.19c-.11.53-1.53,2.16-1.66,3.86C80.64,52.33,76.92,47.21,77.45,43.25Z" class="cls-1"/><path data-cppathid="10019" d="M49.52,82.54s-3.35-1.24-.86-4.79,19.21-13.21,21-15.9C77.39,50.32,76,41.39,76,41.39l9,1.8S80.68,58.44,77.15,65.5,49.52,82.54,49.52,82.54Z" class="cls-2"/></g></g></svg>