<?xml version="1.0" encoding="UTF-8"?>
<svg xmlns="http://www.w3.org/2000/svg" onmouseup="{ if(window.parent.document.onmouseup) window.parent.document.onmouseup(arguments[0]);}" viewBox="0 0 98.9 241.19"><defs><style>.cls-1{fill:#d7d7d7;}.cls-2,.cls-7,.cls-8,.cls-9{stroke:#000;}.cls-2{stroke-width:2.52px;}.cls-3{fill:#fcc488;}.cls-4{fill:#ccebf6;}.cls-5{fill:#332518;}.cls-6{fill:#55c9ef;}.cls-7{fill:none;stroke-width:2px;}.cls-8{stroke-width:1.91px;}.cls-9{stroke-width:0.63px;}.cls-10{fill:#fff;}</style></defs><g data-name="Layer 2" id="Layer_2"><g id="ProductOwner"><g data-name="hands on hips" id="hands_on_hips"><path data-cppathid="10000" d="M98.9,233.75c0,4.11-22.14,7.44-49.45,7.44S0,237.86,0,233.75s22.14-7.43,49.45-7.43S98.9,229.65,98.9,233.75Z" class="cls-1"/><path data-cppathid="10001" d="M53.78,89.65s17.91,23.26,20.42,57.2c.15,2.07,0,10.27,0,10.27l-30.06,6s0-1.7,0-2.51c0-23.25.82-49.64.82-49.64s1.89-27.66,4.4-26.4S53.78,89.65,53.78,89.65Z" class="cls-2"/><path data-cppathid="10002" d="M71.67,134.7c-1.75,2.33-3.06,3.87-3.06,3.87s-7.43,2.63-4.82,3.45,6-1.51,6-1.51-5.59,6.58-5,8.05,3.8-3.36,3.8-3.36-1.91,4.74-1.84,5.49,3-4.06,3-4.06-.16,4.35.6,4.29,2.62-8.63,4.21-11c.32-.49,1.19-1.51,2.36-2.89C81.61,131.48,74.23,131.32,71.67,134.7Z" class="cls-3"/><path data-cppathid="10003" d="M63.29,94.49S58.18,93.16,55.66,97s27.44,18,25.89,21c-7.83,15.46-9.81,17.24-9.81,17.24L74.08,139s9.48-11.77,15-18S63.29,94.49,63.29,94.49Z" class="cls-2"/><path data-cppathid="10004" d="M34.91,138.77c2,2.12,3.46,3.51,3.46,3.51s7.68,1.81,5.17,2.9-6.12-.84-6.12-.84,6.26,5.92,5.8,7.46-4.15-2.93-4.15-2.93,2.41,4.51,2.43,5.26-3.4-3.71-3.4-3.71.62,4.3-.14,4.32-3.53-8.29-5.38-10.52c-.37-.45-1.35-1.37-2.66-2.61C24.69,136.64,32,135.67,34.91,138.77Z" class="cls-3"/><path data-cppathid="10005" d="M38.89,97.88s4.93-1.87,7.86,1.69S21.41,120.4,23.29,123.28c9.46,14.51,11.61,16.06,11.61,16.06l-1.91,4S22.28,132.63,16.07,127,38.89,97.88,38.89,97.88Z" class="cls-2"/><path data-cppathid="10006" d="M69.78,154.85s.21,3.2.27,4.81c1.21,31.22-7.48,64.92-7.48,64.92s7.21,2.4,8.41,4.81-16.83,1.2-16.83,1.2,3.61-43.28,2.41-52.9-9.62,50.5-12,54.1S33.11,239,33.11,239s1.81-7.22,3.61-10.22,6.36-45.3,6.6-67.93c0-.61,0-1.8,0-1.8Z"/><path data-cppathid="10007" d="M53,91.13s14.31,29.08,16.72,61.54c.15,2,.31,6,.31,6l-26.25,2.8s0-1.62,0-2.4c0-22.24.79-47.49.79-47.49s1.8-26.45,4.2-25.25S53,91.13,53,91.13Z" class="cls-4"/><path data-cppathid="10008" d="M61.86,150.92,42.93,163.77s0-1.73,0-2.55c0-23.61.73-50.4.73-50.4s.9-14.85,2.25-22.46C54.32,89.33,61.86,150.92,61.86,150.92Z" class="cls-2"/><path data-cppathid="10009" d="M62.7,79.84s0-.06.59-1.43c.08-.19,4.93-14.53,4.93-14.53s2.54-2.41-9.51,0c-8.49,1.71,11.91-8.5,11.91-8.5h0c1.95-9.83,2.42-20.74-1.88-28.91C58.67,7.34,27.46-9.78,18.4,11.37s1,35.24,8.05,48.33S46.89,89.82,53,90.58C58.34,91.25,62.7,79.84,62.7,79.84Z" class="cls-3"/><path data-cppathid="10010" d="M22,6.29s13.94,3,17.3,7,2.9,4.92,2.94,5.1c1.77-4.51-1.44-6.71-1.44-6.71,9.67,1.61,13.28,1.51,24-1.43-7.45.84-10.49-.1-10.49-.1S61.35,9.19,64,4A42.51,42.51,0,0,1,52.54,6.29L64.81,1.63A62.1,62.1,0,0,1,46.1.86a40.45,40.45,0,0,0-19.37.73C24,2.26,22,6.29,22,6.29Z" class="cls-5"/><path data-cppathid="10011" d="M22,6.29s2,11.42,2,14.77-8.72,12.08-8.72,12.08-4.7-10.74-2.69-16.78S22,6.29,22,6.29Z" class="cls-5"/><polygon data-cppathid="10012" points="53.55 93.77 55.7 92.82 56.35 99.84 53.55 93.77" class="cls-6"/><polygon data-cppathid="10013" points="56.35 99.84 63.79 121.39 63.7 132.4 57.83 122.57 56.35 99.84" class="cls-6"/><path data-cppathid="10014" d="M26.81,32.31c2.52,8,4.19,10.91,4.19,10.91L53.65,39l-.84-11.74L59.1,37.76l15.1-2.51L72.52,21.83" class="cls-7"/><path data-cppathid="10015" d="M72.52,22.87S35.9,22.49,14,41.26c0,0,.14,2.16.14,3.44,0,1,1.12-2.17,2-3.32,5.73-7.66,32.57-18.25,56.47-17.48C72.8,23,72.52,22.87,72.52,22.87Z" class="cls-8"/><path data-cppathid="10016" d="M49.45,34.88c0,2.21-1.06,4-2.37,4s-2.36-1.81-2.36-4,1.06-4,2.36-4S49.45,32.65,49.45,34.88Z" class="cls-9"/><path data-cppathid="10017" d="M46.38,33a1.19,1.19,0,1,1-1.19-1.18A1.19,1.19,0,0,1,46.38,33Z" class="cls-10"/><path data-cppathid="10018" d="M60.62,32.52c0,1.83-.87,3.31-1.95,3.31s-1.94-1.48-1.94-3.31.87-3.31,1.94-3.31S60.62,30.69,60.62,32.52Z" class="cls-9"/><path data-cppathid="10019" d="M58.49,31.1a1.18,1.18,0,1,1-1.18-1.18A1.18,1.18,0,0,1,58.49,31.1Z" class="cls-10"/></g></g></g></svg>