<?xml version="1.0" encoding="UTF-8"?>
<svg xmlns="http://www.w3.org/2000/svg" onmouseup="{ if(window.parent.document.onmouseup) window.parent.document.onmouseup(arguments[0]);}" viewBox="0 0 194.86 433.21"><defs><style>.cls-1{fill:#fcc488;}.cls-10,.cls-2{fill:#fff;}.cls-2{stroke:#afafb0;stroke-width:2px;}.cls-3{fill:#d7d7d7;}.cls-4{fill:#a27c52;}.cls-5{fill:#6ab8e6;}.cls-6{fill:#eca160;}.cls-14,.cls-7{fill:#272361;stroke:#272361;}.cls-7{stroke-width:0.25px;}.cls-8{fill:#c8c8c8;stroke:#c8c8c8;stroke-width:0.26px;}.cls-11,.cls-9{stroke:#000;}.cls-9{stroke-width:0.64px;}.cls-11{stroke-width:0.84px;}.cls-12{fill:#a16c29;}.cls-13{fill:#f6ac3c;}.cls-14{stroke-width:0.23px;}.cls-15{fill:#efeeee;opacity:0.4;}.cls-16{fill:gray;}</style></defs><g data-name="Layer 2" id="Layer_2"><g id="tester"><path data-cppathid="10000" d="M151.42,268.53s-1.62-2.17-3.92-5.59l0,0-.13-.11c-.36-.55-.75-1.13-1.14-1.74a9.7,9.7,0,0,0-4.2-3.38A153,153,0,0,1,120,227.86c-3.16-5.47-2.73-46.82-6.77-54.26s-11.51,3.64-11.51,3.64-.11,50.77,9.5,62.92c5.57,7.06,14.92,16,21.79,22.18a14.46,14.46,0,0,0,1.73,2.9c2,2.67,3.51,4.66,4,5.59,2.55,4.68,3.84,21.09,5.39,21.23s2.5-8.16,2.5-8.16,4.6,9.3,5,7.86-2.18-10.57-2.18-10.57,5.11,9.35,6.83,6.55-5.24-13.3-5.24-13.3a12.6,12.6,0,0,0,9.33.84C166,273.8,151.42,268.53,151.42,268.53Z" class="cls-1"/><path data-cppathid="10001" d="M107,168.57c-4.5,2.78-6.15,6.45-6.65,12.29s3.39,44.85,4.62,50.18,27.21,38.63,29.61,40.15c10.49,4,17.18-6.7,17.18-6.7s-25.25-34-30.18-37.45c-1.68-3-2.38-49-6.44-54.4S107,168.57,107,168.57Z" class="cls-2"/><path data-cppathid="10002" d="M0,420.73c.2,8.09,44,13.59,97.79,12.29s97.27-8.92,97.07-17-44-13.59-97.78-12.28S-.19,412.65,0,420.73Z" class="cls-3"/><path data-cppathid="10003" d="M124.89,273.57s.51,5.73.69,8.62c3.54,56-10.6,116.92-10.6,116.92s12.7,8.31,15,12.57-29.82-1.41-29.82-1.41,4.6-77.89,2-95.1-8.59,90.42-12.74,97-28,7.11-28,7.11,8.87-10.64,12-16.11,4.85-77,4.29-117.65c0-1.11-.06-3.24-.06-3.24Z" class="cls-4"/><path data-cppathid="10004" d="M95.15,159.81s24.62,52.38,30.44,110.56c.36,3.56.83,10.74.83,10.74l-48,6.21s0-2.93-.07-4.32c-1-39.94-.63-85.32-.63-85.32s2.15-47.57,6.62-45.52S95.15,159.81,95.15,159.81Z" class="cls-5"/><polygon data-cppathid="10005" points="83.25 152.44 82.63 157.4 92.08 164.4 95.32 156.8 83.25 152.44" class="cls-6"/><path data-cppathid="10006" d="M188.36,251.62h.37l.37,0-.37,0Z" class="cls-1"/><polygon data-cppathid="10007" points="96.92 175.79 98.95 199.74 105.65 215.73 109.2 204.44 98.93 174.9 96.92 175.79" class="cls-7"/><path data-cppathid="10008" d="M104.94,209.88s14.84,102,12.62,112.44c0,0,18.45-3.91,19.42-4.92s-17.39-115.3-26.1-127.94C107.7,201.4,104.94,209.88,104.94,209.88Z" class="cls-2"/><path data-cppathid="10009" d="M105.44,209.86s15.14,73.82,8.7,114c0,0-34.77,4.3-57.94-3.29,0,0,17.71-65,18-82.78s7-77.94,9.43-70C86.87,178.53,105.44,209.86,105.44,209.86Z" class="cls-2"/><path data-cppathid="10010" d="M93.19,157.26s17.45,29.35,12.31,53.09c0,0,7.82-16.86,3-29.43,0,0,2.84-2.16,5.37-1.33S97.85,153.88,94.4,154.1,93.19,157.26,93.19,157.26Z" class="cls-8"/><path data-cppathid="10011" d="M90.62,164.69l6.2,11.19s1.27.15,1.75-.59.55-.48.55-.48-.89-11.58-2.91-12.45C96.21,162.36,93.62,164.81,90.62,164.69Z" class="cls-7"/><path data-cppathid="10012" d="M108.92,139.16s0-.1,1-2.58L115,123.73s-6.39-6.61-22.57-3.67c10.59-5.17,27.83-8.86,27.9-9.26,3.08-17.74,5.15-53.27-2.92-67.74C98.53,9.14,41.73-20.24,26.37,18.13s3.34,63.24,16.57,86.44,38,53.21,49,54.31C101.58,159.85,108.92,139.16,108.92,139.16Z" class="cls-1"/><path data-cppathid="10013" d="M97.57,48c.1,4,2.08,7.18,4.43,7.12s4.17-3.33,4.07-7.32-2.08-7.18-4.42-7.12S97.48,44,97.57,48Z" class="cls-9"/><path data-cppathid="10014" d="M97.19,49.09a2.13,2.13,0,1,0,2.08-2.18A2.12,2.12,0,0,0,97.19,49.09Z" class="cls-10"/><path data-cppathid="10015" d="M80.48,52.66c.61,4.23,3.13,7.36,5.61,7s4-4.08,3.4-8.32-3.14-7.35-5.62-7S79.86,48.43,80.48,52.66Z" class="cls-11"/><path data-cppathid="10016" d="M80.79,53.87a2.76,2.76,0,1,0,2.34-3.13A2.75,2.75,0,0,0,80.79,53.87Z" class="cls-10"/><path data-cppathid="10017" d="M23.21,22.84s9.91,19.75,11,28.24l1.07,8.5S30,56.3,27.46,55.51l-2.57-.79S27,70,27.9,73.4A6.13,6.13,0,0,1,27,78.87S15.17,58.63,14.76,41.59,23.21,22.84,23.21,22.84Z" class="cls-12"/><path data-cppathid="10018" d="M76.66,277.28l0,0-.07-.16c-.09-.69-.18-1.41-.27-2.17A10.05,10.05,0,0,0,74,269.77a161.79,161.79,0,0,1-6.8-38.43c-.39-6.64,19.41-45.38,19.09-54.28s-12.55-2-12.55-2S49.82,222.85,53.16,238.8c1.94,9.26,6.58,22,10.12,31.11a15.09,15.09,0,0,0,.27,3.55c.63,3.45,1.12,6,1.16,7.15.22,5.6-6.28,21.66-4.89,22.52S66,296.62,66,296.62s0,10.92,1,9.73,2.9-11,2.9-11,.43,11.21,3.37,9.37,1.3-15,1.3-15,2.4,3.9,8.39,5.16-5.22-10.53-5.22-10.53S77.21,281.58,76.66,277.28Z" class="cls-1"/><path data-cppathid="10019" d="M85.4,214.54c0,.2.27.34.55.3h0c.28,0,.49-.22.47-.42l-.9-7.65c0-.2-.27-.33-.55-.3h0c-.28,0-.49.22-.47.42Z" class="cls-13"/><polygon data-cppathid="10020" points="81.76 212.41 98.53 210.52 100.17 216.92 82.43 219.82 81.76 212.41" class="cls-8"/><path data-cppathid="10021" d="M88,228.87a1.2,1.2,0,0,0,1.41.89h0a1.2,1.2,0,0,0,1.17-1.19L88,206.75a1.19,1.19,0,0,0-1.41-.88h0a1.19,1.19,0,0,0-1.17,1.18Z" class="cls-14"/><path data-cppathid="10022" d="M85.88,212.22a3.66,3.66,0,0,0,2.92-.35l.1.51a3.7,3.7,0,0,1-3,.39Z" class="cls-13"/><path data-cppathid="10023" d="M82.77,169.38c-5.56.51-8.83,3.19-12,8.46s-17.85,43.83-19.2,49.43,7.5,49.15,9,51.7c8,8.71,19.33,1.76,19.33,1.76s-7.83-43.87-10.84-49.44c-.18-3.62,20.74-47.24,19.46-54.25S82.77,169.38,82.77,169.38Z" class="cls-2"/><path data-cppathid="10024" d="M80.32,153.11,77.8,186.92l9.62-1,18,24.42S85.2,170.42,80.32,153.11Z" class="cls-8"/><path data-cppathid="10025" d="M61.13,55.83c2.81,9.25,8.41,14.4,16.64,15.31h0A30.11,30.11,0,0,0,87,70.59c5.07-1,7-5,9.12-10.41,1.5-3.83,3.21-8.17,7.75-8.17a4,4,0,0,1,.69,0c3,.33,5.7,2.82,8.53,5.45,2.32,2.17,5.2,4.86,7.25,5.09a2.24,2.24,0,0,0,1.9-.76c1.06-3.89-3.21-20.47-8.58-23.09a12.81,12.81,0,0,0-4.21-1C94.33,36,62,44.82,59.22,46.14,59.22,46.14,61,55.48,61.13,55.83Z" class="cls-15"/><path data-cppathid="10026" d="M115.22,35.57C103.54,29.89,60.71,41.32,57.58,43c0,0-35.49,18.43-37.78,20.53S24,80.39,26.12,79.74s0-9.62,0-9.62S56.91,54.45,57.59,56.29,62.86,79,87.71,74c12.34-2.46,10.88-18.53,16.18-18.53S117.4,71.73,125,64C127.92,61.12,123,39.38,115.22,35.57Zm7,26.25a2.24,2.24,0,0,1-1.9.76c-2-.23-4.93-2.92-7.25-5.09-2.83-2.63-5.49-5.12-8.53-5.45a4,4,0,0,0-.69,0c-4.54,0-6.25,4.34-7.75,8.17-2.14,5.46-4,9.41-9.12,10.41a30.11,30.11,0,0,1-9.25.55h0c-8.23-.91-13.83-6.06-16.64-15.31-.11-.35-1.91-9.69-1.91-9.69C62,44.82,94.33,36,109.47,37.72a12.81,12.81,0,0,1,4.21,1C119.05,41.35,123.32,57.93,122.26,61.82Z" class="cls-16"/></g></g></svg>