<?xml version="1.0" encoding="UTF-8"?>
<svg xmlns="http://www.w3.org/2000/svg" onmouseup="{ if(window.parent.document.onmouseup) window.parent.document.onmouseup(arguments[0]);}" viewBox="0 0 84.7 105.53" xmlns:xlink="http://www.w3.org/1999/xlink"><defs><style>.cls-1{fill:none;}.cls-2{fill:#fff;stroke:#221f1f;stroke-miterlimit:10;}.cls-3{clip-path:url(#clip-path);}.cls-4{fill:#d3e2f3;}.cls-5{fill:#231f20;}.cls-6{fill:#c7c8ca;}.cls-7{fill:#9d9fa2;}.cls-8{fill:#77787b;}</style><clipPath id="clip-path"><rect data-cppathid="10000" transform="translate(-3.54 3.04) rotate(-4)" height="94.8" width="54.17" y="4.8" x="14.64" class="cls-1" id="SVGID"/></clipPath></defs><g data-name="Layer 2" id="Layer_2"><g data-name="estimation cards" id="estimation_cards"><g data-name="XL card" id="XL_card"><rect data-cppathid="10001" transform="translate(-3.58 3.08) rotate(-4)" rx="2.05" height="99.66" width="77.21" y="2.93" x="3.74" class="cls-2" id="card"/><g data-name="XXL estimate" id="XXL_estimate"><g class="cls-3"><path data-cppathid="10002" d="M32.56,70.4A14.24,14.24,0,0,0,44.37,94.22a14.12,14.12,0,0,0,9.93-4.86A13.57,13.57,0,0,0,57.83,79a14.1,14.1,0,0,0-5-9.93,13.93,13.93,0,0,0-10.49-3.58,13.76,13.76,0,0,0-9.8,4.91M53.35,55.79q.69-1.38,4.2-3.45Q68.28,46,67.32,32.27a25,25,0,0,0-9.07-18.11A26.5,26.5,0,0,0,38.58,8,27.18,27.18,0,0,0,26.4,11.86a26.8,26.8,0,0,0-9.17,8.84Q12.64,28,13.41,39l20.86-1.46q-.57-8.22,5.35-8.64a5.17,5.17,0,0,1,5.57,4.84q.26,3.75-4.25,6.13L37,42a11.73,11.73,0,0,0-5.78,6q-1.44,3.7-.91,11.27l.27,3.81L53,61.53q-.3-4.35.39-5.74" class="cls-4"/><path data-cppathid="10003" d="M16.35,17l1.77-.13L18,15.68l-1.77.12Zm2.39-6.41A2.79,2.79,0,0,0,17,10.2a5.23,5.23,0,0,0-1.18.22,4.51,4.51,0,0,0-.85.31l.09,1.34.18,0a3.65,3.65,0,0,1,.7-.4,2.12,2.12,0,0,1,.71-.18,1.41,1.41,0,0,1,.81.13.68.68,0,0,1,.33.6,1.07,1.07,0,0,1-.11.54,1.44,1.44,0,0,1-.38.44,2.56,2.56,0,0,1-.51.33l-.55.21.1,1.48,1.55-.11-.07-1a4.88,4.88,0,0,0,.72-.42,2.8,2.8,0,0,0,.54-.48,1.94,1.94,0,0,0,.33-.62,2.28,2.28,0,0,0,.07-.8,1.52,1.52,0,0,0-.73-1.21" class="cls-5"/><path data-cppathid="10004" d="M67.1,87.46l-1.77.12.08,1.17,1.77-.13Zm-2.4,6.4a2.83,2.83,0,0,0,1.76.36A5.84,5.84,0,0,0,67.64,94a5.35,5.35,0,0,0,.85-.31l-.09-1.34h-.18a3.19,3.19,0,0,1-.7.4,2.43,2.43,0,0,1-.71.19,1.5,1.5,0,0,1-.81-.13.7.7,0,0,1-.33-.61,1.07,1.07,0,0,1,.11-.54,1.56,1.56,0,0,1,.38-.44,2.48,2.48,0,0,1,.51-.32l.55-.21-.1-1.48-1.55.1.07,1a4.86,4.86,0,0,0-.72.41,2.84,2.84,0,0,0-.54.49,1.68,1.68,0,0,0-.33.62,2.22,2.22,0,0,0-.07.79,1.52,1.52,0,0,0,.72,1.21" class="cls-5"/><polygon data-cppathid="10005" points="35.39 40.43 28.66 52.04 20.53 41.47 16.35 41.76 26.6 54.76 18.04 69.06 22 68.78 28.84 57.02 37.06 67.73 41.26 67.44 30.89 54.3 39.37 40.15 35.39 40.43" class="cls-6"/><polygon data-cppathid="10006" points="41.65 39.99 34.91 51.6 26.79 41.03 22.61 41.32 32.85 54.32 24.3 68.62 28.25 68.35 35.09 56.58 43.32 67.29 47.51 67 37.15 53.86 45.63 39.71 41.65 39.99" class="cls-7"/><polygon data-cppathid="10007" points="48.03 39.55 41.29 51.16 33.17 40.58 28.99 40.88 39.23 53.88 30.68 68.18 34.63 67.9 41.47 56.13 49.7 66.85 53.89 66.55 43.53 53.41 52.01 39.27 48.03 39.55" class="cls-8"/><polygon data-cppathid="10008" points="66.61 60.34 53.97 61.23 52.43 39.22 45.39 39.71 47.3 67 66.98 65.62 66.61 60.34" class="cls-5"/></g></g></g></g></g></svg>