<?xml version="1.0" encoding="UTF-8"?>
<svg xmlns="http://www.w3.org/2000/svg" onmouseup="{ if(window.parent.document.onmouseup) window.parent.document.onmouseup(arguments[0]);}" viewBox="0 0 81.51 102.32" xmlns:xlink="http://www.w3.org/1999/xlink"><defs><style>.cls-1{fill:none;}.cls-2{fill:#fff;stroke:#221f1f;stroke-miterlimit:10;}.cls-3{clip-path:url(#clip-path);}.cls-4{fill:#d3e2f3;}.cls-5{clip-path:url(#clip-path-2);}.cls-6{fill:#231f20;}</style><clipPath transform="translate(0.02 -3.36)" id="clip-path"><rect data-cppathid="10000" transform="translate(-16.77 92.6) rotate(-87)" height="64.46" width="107.04" y="22.91" x="-13.12" class="cls-1" id="SVGID"/></clipPath><clipPath transform="translate(0.02 -3.36)" id="clip-path-2"><rect data-cppathid="10001" transform="translate(-16.98 92.77) rotate(-87)" height="64.46" width="107.44" y="23.1" x="-13.33" class="cls-1" data-name="SVGID" id="SVGID-2"/></clipPath></defs><g data-name="Layer 2" id="Layer_2"><g data-name="estimation cards" id="estimation_cards"><g data-name="M card" id="M_card"><rect data-cppathid="10002" transform="translate(-15.81 88.99) rotate(-87)" rx="2.01" height="75.69" width="97.69" y="16.68" x="-8.1" class="cls-2"/><g class="cls-3"><path data-cppathid="10003" transform="translate(0.02 -3.36)" d="M26.38,80.17l1.81-34.46c.14-2.82,1-4.18,2.6-4.1a1.74,1.74,0,0,1,1.67.94,8.57,8.57,0,0,1,.26,3.4L30.91,80.41l16.15.85,1.82-34.73q.21-4,2.59-3.84a1.71,1.71,0,0,1,1.65.93A8.85,8.85,0,0,1,53.36,47L51.55,81.49,78.33,82.9l-6.22-17c0-.82-2.43-22-2.44-22.74q-.14-6.75-3.26-10.77c-2.45-3.14-6.1-4.84-11-5.09a16,16,0,0,0-7.85,1.32A17.79,17.79,0,0,0,41.4,34Q37.29,26.31,29,25.87a15.32,15.32,0,0,0-11.69,3.9,15.16,15.16,0,0,0-4.66,8.45C12.1,40.7,6.89,63.43,7,62.15L0,78.79" class="cls-4"/></g><g class="cls-5"><polyline data-cppathid="10004" points="56.24 39.44 47.59 38.99 40.35 53.14 34.61 38.31 25.95 37.85 24.44 66.75 31.46 67.11 32.48 47.77 37.17 60.6 42.32 60.87 48.33 48.6 47.31 67.94 54.73 68.33" class="cls-6"/><path data-cppathid="10005" transform="translate(0.02 -3.36)" d="M17.8,11.49,20,9.09l-.13,2.51m2.66.14-.95-.05.21-4.07-1.82-.1-3.45,3.86-.07,1.31,3.36.18-.09,1.61,1.71.09L21.47,13l.94,0Z" class="cls-6"/><path data-cppathid="10006" transform="translate(0.02 -3.36)" d="M62.78,98.36l-2.15,2.4.13-2.51m-2.65-.14.94,0-.21,4.07,1.82.1,3.45-3.85.07-1.32L60.83,97l.08-1.62-1.71-.09-.08,1.62-.95-.05Z" class="cls-6"/></g></g></g></g></svg>