<?xml version="1.0" encoding="UTF-8"?>
<svg xmlns="http://www.w3.org/2000/svg" onmouseup="{ if(window.parent.document.onmouseup) window.parent.document.onmouseup(arguments[0]);}" viewBox="0 0 84.05 103.93" xmlns:xlink="http://www.w3.org/1999/xlink"><defs><style>.cls-1{fill:none;}.cls-2{fill:#fff;stroke:#221f1f;stroke-miterlimit:10;}.cls-3{clip-path:url(#clip-path);}.cls-4{fill:#d3e2f3;}.cls-5{clip-path:url(#clip-path-2);}.cls-6{fill:#231f20;}</style><clipPath id="clip-path"><rect data-cppathid="10000" transform="translate(-4.45 3.72) rotate(-5)" height="99.66" width="59.89" y="2.93" x="10.45" class="cls-1" id="SVGID"/></clipPath><clipPath id="clip-path-2"><rect data-cppathid="10001" transform="translate(-4.45 3.72) rotate(-5)" height="99.82" width="59.89" y="2.93" x="10.46" class="cls-1" data-name="SVGID" id="SVGID-2"/></clipPath></defs><g data-name="Layer 2" id="Layer_2"><g data-name="estimation cards" id="estimation_cards"><g data-name="S card" id="S_card"><rect data-cppathid="10002" transform="translate(-4.37 3.86) rotate(-5)" rx="2" height="97.08" width="75.21" y="3.43" x="4.42" class="cls-2" id="card"/><g class="cls-3"><path data-cppathid="10003" d="M50.42,5a36.39,36.39,0,0,0-23.9,11.2Q17,26.16,18.06,38.66,19,49,26.72,58.78q4.84,6.16,5,8.1a6,6,0,0,1-2.23,5.19A11,11,0,0,1,23,74.63,16.38,16.38,0,0,1,15.33,73L12,71.39l2.3,26.28c.07,0,3.2.86,3.27.88a38.85,38.85,0,0,0,14.62,1.57Q47.5,98.79,57.34,88.91t8.73-22.75q-.76-8.8-7.91-17.7l-2.64-3.29c-2-2.57-3.14-4.73-3.29-6.5a6.89,6.89,0,0,1,2-5.53A8.66,8.66,0,0,1,60,30.42a19.11,19.11,0,0,1,4.95.48c.08,0,3.61,1.06,3.69,1.08L66.4,6.45,63,5.76A43.89,43.89,0,0,0,50.42,5" class="cls-4"/></g><g class="cls-5"><path data-cppathid="10004" d="M51,53.81a9.67,9.67,0,0,0-4.78-2.35,30.15,30.15,0,0,0-3-.53l-2.88-.35a9.05,9.05,0,0,1-3.15-.77,1.87,1.87,0,0,1-.95-1.55,1.84,1.84,0,0,1,.39-1.3A3.2,3.2,0,0,1,37.8,46a6.82,6.82,0,0,1,1.6-.59,13.82,13.82,0,0,1,1.71-.26,13.66,13.66,0,0,1,4.87.45,14.12,14.12,0,0,1,4.15,1.82l.74-.06-.54-6.17a24,24,0,0,0-4.58-.9,26.51,26.51,0,0,0-5.27,0,14.6,14.6,0,0,0-8.42,3.12,7.23,7.23,0,0,0-2.82,6.39,7.36,7.36,0,0,0,1.9,4.54,9.87,9.87,0,0,0,5.12,2.55,23.93,23.93,0,0,0,3.23.53c1.14.11,2.22.24,3.25.39a5.33,5.33,0,0,1,2.27.79,2,2,0,0,1,.88,1.46,1.89,1.89,0,0,1-.39,1.48,4.12,4.12,0,0,1-1.23.92,6.5,6.5,0,0,1-1.64.51c-.68.13-1.23.21-1.65.25a15.65,15.65,0,0,1-5.18-.47,16.05,16.05,0,0,1-5-2.21L30,60.6,30.59,67a31,31,0,0,0,4.76,1.08,26,26,0,0,0,5.85.08q5.76-.51,8.89-3.27a7.69,7.69,0,0,0,2.79-6.73A6.75,6.75,0,0,0,51,53.81" class="cls-6"/><path data-cppathid="10005" d="M17.71,17.52l-2.88.26.52-.48a10.15,10.15,0,0,0,.74-.73,4.8,4.8,0,0,0,.83-1.22,2.29,2.29,0,0,0,.2-1.18,1.73,1.73,0,0,0-.76-1.38,2.91,2.91,0,0,0-1.89-.35,6,6,0,0,0-1.18.24,5.29,5.29,0,0,0-.88.35l.12,1.43h.14a3.12,3.12,0,0,1,.78-.49,2.18,2.18,0,0,1,.82-.24,1.19,1.19,0,0,1,.83.17.82.82,0,0,1,.34.65,1.4,1.4,0,0,1-.15.76,4.56,4.56,0,0,1-.67.95c-.21.25-.5.54-.86.89s-.72.68-1.08,1l.1,1.06,5-.44" class="cls-6"/><path data-cppathid="10006" d="M62.27,89.1l2.88-.26-.53.48c-.24.22-.49.47-.73.73a5,5,0,0,0-.83,1.21,2.35,2.35,0,0,0-.2,1.19,1.73,1.73,0,0,0,.76,1.38,2.92,2.92,0,0,0,1.89.34,5.35,5.35,0,0,0,1.18-.23,5.29,5.29,0,0,0,.88-.35l-.12-1.43h-.14a3.94,3.94,0,0,1-.78.49,2.18,2.18,0,0,1-.82.24,1.24,1.24,0,0,1-.83-.17.82.82,0,0,1-.34-.65,1.45,1.45,0,0,1,.15-.77,4.82,4.82,0,0,1,.67-.94,11.15,11.15,0,0,1,.86-.89q.52-.53,1.08-1l-.1-1.07-5,.44" class="cls-6"/></g></g></g></g></svg>