<?xml version="1.0" encoding="UTF-8"?>
<svg xmlns="http://www.w3.org/2000/svg" onmouseup="{ if(window.parent.document.onmouseup) window.parent.document.onmouseup(arguments[0]);}" viewBox="0 0 83.11 104.36" xmlns:xlink="http://www.w3.org/1999/xlink"><defs><style>.cls-1{fill:none;}.cls-2{fill:#fff;stroke:#221f1f;stroke-miterlimit:10;}.cls-3{clip-path:url(#clip-path);}.cls-4{fill:#d3e2f3;}.cls-5{clip-path:url(#clip-path-2);}.cls-6{fill:#231f20;}</style><clipPath id="clip-path"><rect data-cppathid="10000" transform="translate(-2.75 2.2) rotate(-3)" height="99.68" width="59.73" y="3.72" x="10.82" class="cls-1" id="SVGID"/></clipPath><clipPath id="clip-path-2"><rect data-cppathid="10001" transform="translate(-2.74 2.21) rotate(-3)" height="99.83" width="59.9" y="3.56" x="10.82" class="cls-1" data-name="SVGID" id="SVGID-2"/></clipPath></defs><g data-name="Layer 2" id="Layer_2"><g data-name="estimation cards" id="estimation_cards"><g data-name="L card" id="L_card"><rect data-cppathid="10002" transform="translate(-2.67 2.25) rotate(-3)" rx="2.05" height="99.66" width="77.21" y="2.35" x="2.95" class="cls-2" id="card"/><g class="cls-3"><path data-cppathid="10003" d="M11.38,4l3.7,70.59c1.57,29.86,27.83,25.76,27.83,25.76L74.2,98.69,72.78,71.55s-14.53.88-19,1C47.6,72.75,46.3,66,46.3,66L43,2.58" class="cls-4"/></g><g class="cls-5"><polyline data-cppathid="10004" points="52.19 63.51 39.75 64.16 38.62 42.51 31.69 42.87 33.1 69.71 52.46 68.7" class="cls-6"/><path data-cppathid="10005" d="M18.33,17.15a.82.82,0,0,1-.24.25.89.89,0,0,1-.31.14,1,1,0,0,1-.32.06,1.26,1.26,0,0,1-.86-.22.91.91,0,0,1-.36-.7,1,1,0,0,1,.12-.54,1.78,1.78,0,0,1,.32-.43l.46.14a3.64,3.64,0,0,1,.43.14,2.17,2.17,0,0,1,.66.33.66.66,0,0,1,.18.47.57.57,0,0,1-.08.36m-.28-2.95a1.93,1.93,0,0,1-.26.44l-.52-.14-.34-.12a1.68,1.68,0,0,1-.49-.26.54.54,0,0,1-.16-.39.42.42,0,0,1,.07-.27.61.61,0,0,1,.19-.2,1.08,1.08,0,0,1,.29-.13l.32-.06a1.09,1.09,0,0,1,.68.16.61.61,0,0,1,.28.51,1.07,1.07,0,0,1-.06.46m1.63,1.42a2.1,2.1,0,0,0-1-.63v0a2.09,2.09,0,0,0,.84-.66,1.29,1.29,0,0,0,.25-.83A1.39,1.39,0,0,0,19,12.32a3.45,3.45,0,0,0-1.9-.34,3.2,3.2,0,0,0-1.82.58,1.47,1.47,0,0,0-.64,1.29,1.6,1.6,0,0,0,.31.9,1.89,1.89,0,0,0,.86.61v0a2.22,2.22,0,0,0-.94.71,1.34,1.34,0,0,0-.24.87,1.79,1.79,0,0,0,.19.73,1.65,1.65,0,0,0,.52.57,2.48,2.48,0,0,0,.87.36,4.6,4.6,0,0,0,1.23.09,3.37,3.37,0,0,0,2-.65,1.68,1.68,0,0,0,.66-1.45,1.66,1.66,0,0,0-.38-1" class="cls-6"/><path data-cppathid="10006" d="M63.53,90.71a.82.82,0,0,1,.24-.25,1.28,1.28,0,0,1,.31-.15,1.47,1.47,0,0,1,.33,0,1.24,1.24,0,0,1,.85.22.84.84,0,0,1,.36.7,1,1,0,0,1-.12.54,2.07,2.07,0,0,1-.31.43L64.72,92a2.87,2.87,0,0,1-.42-.14,2.17,2.17,0,0,1-.66-.33.66.66,0,0,1-.18-.47.57.57,0,0,1,.07-.36m.28,2.94a1.83,1.83,0,0,1,.27-.43l.51.14.34.11a1.55,1.55,0,0,1,.49.27.5.5,0,0,1,.16.39.42.42,0,0,1-.06.27.64.64,0,0,1-.2.2,1,1,0,0,1-.29.13,1.8,1.8,0,0,1-.32.06,1.11,1.11,0,0,1-.68-.16.61.61,0,0,1-.28-.51,1.14,1.14,0,0,1,.06-.47m-1.63-1.41a2.14,2.14,0,0,0,1,.63v0a2.24,2.24,0,0,0-.84.66,1.23,1.23,0,0,0-.24.83,1.36,1.36,0,0,0,.74,1.15,3.39,3.39,0,0,0,1.89.34,3.18,3.18,0,0,0,1.82-.58,1.5,1.5,0,0,0,.65-1.3,1.6,1.6,0,0,0-.32-.89,1.92,1.92,0,0,0-.86-.62v0a2.26,2.26,0,0,0,1-.71,1.47,1.47,0,0,0,.24-.87,1.8,1.8,0,0,0-.2-.73,1.65,1.65,0,0,0-.52-.57,2.51,2.51,0,0,0-.86-.36,4.72,4.72,0,0,0-1.24-.09,3.4,3.4,0,0,0-2,.65,1.76,1.76,0,0,0-.28,2.45" class="cls-6"/></g></g></g></g></svg>