<?xml version="1.0" encoding="UTF-8"?>
<svg xmlns="http://www.w3.org/2000/svg" onmouseup="{ if(window.parent.document.onmouseup) window.parent.document.onmouseup(arguments[0]);}" viewBox="0 0 248.46 328.44"><defs><style>.cls-1{fill:#6b6b6b;opacity:0.13;}.cls-2{fill:#322612;}.cls-3{fill:#363b35;}.cls-4{fill:#292d27;opacity:0.59;}.cls-5{fill:#fcc388;}.cls-6{fill:#a8a7a5;}.cls-7{fill:#d5d3d0;}.cls-8{fill:#ddb23a;}.cls-18,.cls-8{stroke:#7b5120;stroke-width:1.05px;}.cls-9{fill:#eba061;}.cls-10{fill:#7d7c66;}.cls-11{fill:#545147;}.cls-12{fill:#fcc287;}.cls-13,.cls-15{stroke:#000;}.cls-13{stroke-width:0.66px;}.cls-14{fill:#fff;}.cls-15{stroke-width:0.86px;}.cls-16{fill:#7b5120;}.cls-17{fill:#ffcc52;}.cls-18,.cls-20{fill:none;}.cls-19{fill:#555e53;}.cls-20{stroke:#2e332d;stroke-width:3.15px;}.cls-21{fill:#dae2d6;}.cls-22{fill:#2e332d;}.cls-23{fill:#738070;}</style></defs><g data-name="Layer 2" id="Layer_2"><g data-name="Layer 1" id="Layer_1-2"><path data-cppathid="10000" d="M177.25,320.91c0,4.16-39.68,7.53-88.62,7.53S0,325.07,0,320.91s39.68-7.52,88.63-7.52S177.25,316.76,177.25,320.91Z" class="cls-1"/><path data-cppathid="10001" d="M139.23,220s.33,4.08.43,6.14c2,39.87-12,82.91-12,82.91s11.18,6.13,13.11,9.2-26.64-1.52-26.64-1.52,5.8-55.28,3.87-67.56-9.65,64.12-13.51,68.73-25.21,4.57-25.21,4.57,8.16-7.41,11.06-11.25,6-54.64,6.38-83.54c0-.79,0-2.3,0-2.3Z" class="cls-2"/><path data-cppathid="10002" d="M137.21,75.94s32.66-25.33,23.36-43.64c-6.4-12.59-36,15.19-45.81,18.42s-54.13-13.87-70.5-6.83c-21,9-36.72,53.05,19.53,54.79C123.43,100.53,137.21,75.94,137.21,75.94Z" class="cls-3"/><path data-cppathid="10003" d="M144.92,64.73a50.68,50.68,0,0,1-6.82,6.41,16.13,16.13,0,0,1-1.52-3.06c-1.32-3.61-1.43-7.74-1.5-11.54-.07-4.2.43-13.4,6.44-10.23a.58.58,0,0,1,.15.11c4.61,1.28,5.49,10.21,6.69,14.53C145.23,64.62,144.92,64.73,144.92,64.73Z" class="cls-4"/><path data-cppathid="10004" d="M55.65,62.07c-1.95,4.41-4.57,8.23-6.37,12.68-1.5,3.69-3.35,10.81-1.83,14.94,1.77,4.78,4.94,7.33,8.68,9.56,2-.06,4.17-.2,6.44-.44.53-3.45-.12-6.92-.89-10.39-1.57-7.14-3.3-14.19-2.81-21.55C59,65.51,56.75,62.63,55.65,62.07Z" class="cls-4"/><path data-cppathid="10005" d="M200,132.83s0,4.57-1.41,6-2.28-1.06-2.63-2.29S200,132.83,200,132.83Z" class="cls-5"/><path data-cppathid="10006" d="M248.37,101.37c-.88,1.06-58.61,40.07-58.61,40.07l-.53-4.92S249.24,100.32,248.37,101.37Z" class="cls-6"/><path data-cppathid="10007" d="M248.45,101.2c-.88,1-58.87,38.84-58.87,38.84l-.35-4.22S249.33,100.14,248.45,101.2Z" class="cls-7"/><path data-cppathid="10008" d="M176.05,149.35s5.09-3.34,5.44-6,3.87-11.6,4.93-11.78a21.7,21.7,0,0,1,3.51,0l6.33.18-4.57,3.34s-1.58,4.39-1.93,4.92,5.27-7.56,6.5-5.28-2.81,8.26-5.1,9.32.53,9.84-9.67,9.31" class="cls-5"/><path data-cppathid="10009" d="M111.05,153s-5.39-7.93.79-8.57,36.56,8.55,41.15,8c19.7-2.53,27.07-8,27.07-8L183.14,155c-19.78,9.92-17.58,6.31-26.91,8.9C145.31,166.92,111.05,153,111.05,153Z" class="cls-8"/><polygon data-cppathid="10010" points="105.86 132.52 105.33 136.04 117.13 150.63 114.36 135.83 105.86 132.52" class="cls-9"/><path data-cppathid="10011" d="M139.62,66.75c-2.36,1.39,1.87,12.73,1.38,16.66-.18-.56-.4-1.07-.56-1.73-.24.9-.95,2-1.18,3-.15-.16-.47-1-.8-1-.06,1.17-.52,2.38-.59,3.48-.19-.58-.35-1.14-.53-1.76-.94,2.41-.63,4.91-2.44,6.69-.79-3.77-6.64-31.54,3.14-25.31" class="cls-10"/><path data-cppathid="10012" d="M134.05,46.77c3.29,2.3,7,5.21,7.62,8.7-.9-.51-2.48-.95-3.4-1.5a19.25,19.25,0,0,1,3.15,9.36.93.93,0,0,1-.41-.52,8.71,8.71,0,0,0-.2,4.59c-.29-.13-.66-.52-1-.62.38,2.63.16,8.67-1.42,10.83-2.69-3.28-3.78-7.25-6.32-10.66-2.85-3.84-6.17-7.47-8.94-11.35-1.45-2-5.64-8.93-2.78-10.44,3.18-1.68,4.38.3,7.92,0Z" class="cls-11"/><path data-cppathid="10013" d="M114,143.9l3.29,6.73-2.89-14.5s21.57,40.15,25.52,81.6c.24,2.53.5,7.65.5,7.65L97.36,229s0-2.08,0-3.07c0-28.4,1.29-60.65,1.29-60.65s2.42-29.55,6.37-28C106.18,137.66,114,143.9,114,143.9Z" class="cls-8"/><path data-cppathid="10014" d="M123.71,125.17s0-.06.8-1.72c.1-.23,1.86-7.57,1.86-7.57s-6.91-.8-17-6.56c10.08-.57,21.37-3.66,21.43-3.92,2.74-11.9,6.78-41.37,1.52-51.23C120,31.07,81.47,18,68.39,43.18c-15.91,30.59-4.13,43.69,4.52,59.5s29.63,33.28,37.35,34.18C117.09,137.66,123.71,125.17,123.71,125.17Z" class="cls-12"/><path data-cppathid="10015" d="M119.37,79.5c-.05,2.68,1.25,4.86,2.92,4.86s3.06-2.19,3.12-4.87-1.25-4.86-2.92-4.86S119.43,76.82,119.37,79.5Z" class="cls-13"/><path data-cppathid="10016" d="M123.34,77.2a1.44,1.44,0,0,0,1.48,1.43,1.51,1.51,0,0,0,1.54-1.43,1.43,1.43,0,0,0-1.48-1.43A1.52,1.52,0,0,0,123.34,77.2Z" class="cls-14"/><path data-cppathid="10017" d="M102.91,81.45c1,2.7,3.2,4.39,4.88,3.79S110,82,109,79.28s-3.19-4.37-4.87-3.78S101.9,78.77,102.91,81.45Z" class="cls-15"/><path data-cppathid="10018" d="M105.46,78.18a1.94,1.94,0,0,0,2.5,1.08,1.86,1.86,0,0,0,1.19-2.39,1.93,1.93,0,0,0-2.49-1.08A1.86,1.86,0,0,0,105.46,78.18Z" class="cls-14"/><path data-cppathid="10019" d="M103.26,228h0Z" class="cls-12"/><path data-cppathid="10020" d="M67.36,87.77s-8.49-5.4-7.18,4.34S73.25,102,73.25,102" class="cls-12"/><path data-cppathid="10021" d="M72.37,83.34c-3.85,2.39-.35,10,1.24,13.41-1.69-1-2.86-2.74-4.2-4.35-.62.17-.11.48-.52.87-.37,0-.51-.55-.85-.37,1.28,1.6,2.66,3.58,3.94,5.23-1.78-2.45-4.29-4-6.11-6.59a.7.7,0,0,1-.1.61,18.21,18.21,0,0,0-2-2.63c-.11.07.06,1-.1,1.29a13.46,13.46,0,0,1-2-2.28c-.09.17.15,1.1,0,1.14C59.88,86.53,58.2,79,62,77.36c4.79-2,8.78,4,9.85,7" class="cls-10"/><path data-cppathid="10022" d="M72,87.21a14.07,14.07,0,0,1-1.81-2.81c0,1.27.31,2.85-.14,4-.72-.58-.93-1.57-1.55-2.29-.07,1.31.2,2.53.22,3.81-1.11-2-3-3.61-4.11-5.49a6.34,6.34,0,0,0,0,3.56c-.66-.82-1.1-2.13-2.27-2.32,0,.73.18,1.42.15,2.15a7.53,7.53,0,0,0-1-1.59c0,.4-.07.85,0,1.26-2.11-3.56-3.71-11.9,3.16-9.79,2.71.83,3.3,2.53,4.78,4.58,1.07,1.47,3.77,3.35,2.6,5.08" class="cls-11"/><path data-cppathid="10023" d="M70.33,60.52C71.5,54.4,75,46.6,81.82,45.14c7.11-1.52,13.93,3.12,20.31,4.34,6.14,1.18,35.07,15.13,40.82-4.37-11,6.75-14.32-4.84-18-5.63-2-.42-5-3.42-6.58-4.61-6.41-4.73-9.74-9.34-17.78-10.83-12.55-2.34-29.1-7-31.12,15.32C64.9,32.29,56,48.21,56.31,51.57c.28,2.8,2.44,5,2.47,8,0,3.41-1.94,5.85-3.28,8.9a16,16,0,0,1,4.64-1.32c-.2.46-.7.6-.94,1,.67,2.28-1.7,4.38-2.44,6.75a15.35,15.35,0,0,0,.56,9.48c2,5.1.85-2.42,7.16-2.43-.56-4.28,9.23,8.71,11.42,9.93A24,24,0,0,0,75.6,89l.89-.19c-3.26-7.4,2.58-12.36,2.52-20.52-.77.65-6-.45-6.75.74-2.31-2.47-1.71-5.55-2.45-8.55" class="cls-11"/><polygon data-cppathid="10024" points="114.27 135.86 123.89 140.34 124.82 153.13 116.78 142.59 114.27 135.86" class="cls-16"/><polygon data-cppathid="10025" points="123.89 140.11 117.26 150.49 114.54 136.17 123.89 140.11" class="cls-17"/><path data-cppathid="10026" d="M117.26,150.49s19.42,62.74,13.36,75.66" class="cls-18"/><path data-cppathid="10027" d="M194.68,139.51s-.53,9.84-5.63,9.14S194.68,139.51,194.68,139.51Z" class="cls-5"/><path data-cppathid="10028" d="M114.93,51.6c-7.58,1.64-37.46-9.24-55.72-10.83C61,25.71,68.87,4.27,73.71,3.27,81.59,1.64,84.54,6.61,88,5.44c3.15-1.05.5-4,5.31-5.33,8.1-2.24,35.86,30.33,40.36,41C125.74,45.79,119,50.71,114.93,51.6Z" class="cls-19"/><path data-cppathid="10029" d="M130.35,35.05s-37.58-8.2-68.63,9" class="cls-20"/><circle data-cppathid="10030" r="1.52" cy="43.58" cx="62.91" class="cls-21"/><circle data-cppathid="10031" r="1.52" cy="41.76" cx="67.5" class="cls-21"/><circle data-cppathid="10032" r="1.52" cy="39.94" cx="72.1" class="cls-21"/><circle data-cppathid="10033" r="1.52" cy="38.13" cx="76.69" class="cls-21"/><circle data-cppathid="10034" r="1.52" cy="36.42" cx="81.31" class="cls-21"/><circle data-cppathid="10035" r="1.52" cy="35.62" cx="86.19" class="cls-21"/><circle data-cppathid="10036" r="1.52" cy="34.81" cx="91.06" class="cls-21"/><circle data-cppathid="10037" r="1.52" cy="34.01" cx="95.93" class="cls-21"/><circle data-cppathid="10038" r="1.52" cy="33.43" cx="100.83" class="cls-21"/><circle data-cppathid="10039" r="1.52" cy="33.38" cx="105.77" class="cls-21"/><circle data-cppathid="10040" r="1.52" cy="33.32" cx="110.71" class="cls-21"/><circle data-cppathid="10041" r="1.52" cy="33.32" cx="115.64" class="cls-21"/><circle data-cppathid="10042" r="1.52" cy="33.79" cx="120.56" class="cls-21"/><circle data-cppathid="10043" r="1.52" cy="34.27" cx="125.48" class="cls-21"/><circle data-cppathid="10044" r="1.52" cy="35.05" cx="130.35" class="cls-21"/><path data-cppathid="10045" d="M103.21,33.47a2.87,2.87,0,1,0,2.87-2.91A2.9,2.9,0,0,0,103.21,33.47Z" class="cls-21"/><path data-cppathid="10046" d="M104.52,33.47a1.57,1.57,0,1,0,1.56-1.59A1.57,1.57,0,0,0,104.52,33.47Z" class="cls-22"/><path data-cppathid="10047" d="M81.65,44.65s-21.08,5.74-27.13,19S48.29,43.5,48.29,43.5,57.64,36.58,81.65,44.65Z" class="cls-3"/><path data-cppathid="10048" d="M46.93,44.45c8.87-2.68,21.26-2.13,35.2,1.92,11.71,3.4,23.81,6.91,32.79,6.06,7.85-.74,16.08-7.48,24-14,8.89-7.27,15.69-9,20.63-4.78,2.28,2,2.62,10,3.12,5,.23-2.33.23-5.58-1.5-7-7-5.73-14.34-4-24.23,4.09C129.37,41.92,121.51,48.35,114.6,49c-8.41.8-20.22-2.63-31.65-5.95-14.42-4.19-27.44-3.59-37.74.22C40.06,45.19,43.41,45.51,46.93,44.45Z" class="cls-23"/><path data-cppathid="10049" d="M98.89,221.8h0l-.05-.12c0-.49-.1-1-.15-1.55a7.24,7.24,0,0,0-1.6-3.71A115.08,115.08,0,0,1,93,189c-.17-4.72,14.58-31.91,14.5-38.25s-8.88-1.61-8.88-1.61S80.75,182.65,82.86,194c1.21,6.61,4.29,15.77,6.65,22.29a10.42,10.42,0,0,0,.13,2.53c.38,2.46.69,4.3.7,5.1.06,4-4.83,15.29-3.86,15.92S91,235.36,91,235.36s-.21,7.76.53,6.93,2.25-7.76,2.25-7.76.11,8,2.23,6.73,1.18-10.63,1.18-10.63a9.41,9.41,0,0,0,5.88,3.81c4.23,1-3.53-7.57-3.53-7.57S99.21,224.86,98.89,221.8Z" class="cls-12"/><path data-cppathid="10050" d="M105.09,145.22c-4,.26-6.33,2.11-8.7,5.8S83,181.86,81.89,185.82s4.48,35.06,5.54,36.9c5.53,6.33,13.71,1.59,13.71,1.59S96.33,193,94.28,189c-.06-2.58,15.56-33.21,14.76-38.22S105.09,145.22,105.09,145.22Z" class="cls-8"/><polygon data-cppathid="10051" points="114.18 143.9 107.86 158.31 101.53 139.69 103.99 134.41 114.18 143.9" class="cls-17"/></g></g></svg>