<?xml version="1.0" encoding="UTF-8"?>
<svg xmlns="http://www.w3.org/2000/svg" onmouseup="{ if(window.parent.document.onmouseup) window.parent.document.onmouseup(arguments[0]);}" viewBox="0 0 438.07 340.16" xmlns:xlink="http://www.w3.org/1999/xlink"><defs><style>.cls-1{fill:none;}.cls-2{isolation:isolate;}.cls-3{fill:#fff100;}.cls-4{fill:#603813;}.cls-5{opacity:0.7;mix-blend-mode:lighten;}.cls-6{fill:url(#New_Gradient_Swatch_1);}.cls-7{fill:#929497;}.cls-21,.cls-8{fill:#fff;}.cls-9{fill:url(#New_Gradient_Swatch_2);}.cls-10{fill:url(#radial-gradient);}.cls-11,.cls-14,.cls-15,.cls-20{mix-blend-mode:screen;}.cls-11{fill:url(#radial-gradient-2);}.cls-12{fill:#6c5635;}.cls-13{fill:url(#Steel_Cylinder);}.cls-14{fill:url(#linear-gradient);}.cls-16{fill:url(#linear-gradient-2);}.cls-17{fill:url(#linear-gradient-3);}.cls-18{fill:url(#linear-gradient-4);}.cls-19{clip-path:url(#clip-path);}.cls-20{fill:url(#radial-gradient-3);}.cls-21{mix-blend-mode:color-dodge;}</style><linearGradient gradientUnits="userSpaceOnUse" gradientTransform="translate(5855.37 -2394.61) rotate(180)" y2="-2419.87" x2="5627.52" y1="-2569.95" x1="5627.52" id="New_Gradient_Swatch_1"><stop stop-color="#fff" offset="0"/><stop stop-color="#f7f7f7" offset="0.02"/><stop stop-color="#bebebe" offset="0.13"/><stop stop-color="#8b8b8b" offset="0.25"/><stop stop-color="#606060" offset="0.37"/><stop stop-color="#3d3d3d" offset="0.49"/><stop stop-color="#222" offset="0.62"/><stop stop-color="#0f0f0f" offset="0.74"/><stop stop-color="#040404" offset="0.87"/><stop offset="1"/></linearGradient><linearGradient gradientUnits="userSpaceOnUse" y2="113.17" x2="319.8" y1="113.17" x1="138.39" id="New_Gradient_Swatch_2"><stop stop-color="#929497" offset="0"/><stop stop-color="#dbdcdd" offset="0.5"/><stop stop-color="#c5c7c8" offset="0.56"/><stop stop-color="#afb0b3" offset="0.65"/><stop stop-color="#9fa0a3" offset="0.75"/><stop stop-color="#95979a" offset="0.86"/><stop stop-color="#929497" offset="1"/></linearGradient><radialGradient gradientUnits="userSpaceOnUse" r="83.4" cy="112.22" cx="228.16" id="radial-gradient"><stop stop-color="#fff" offset="0"/><stop stop-color="#fcfcfd" offset="0.33"/><stop stop-color="#f4f4f4" offset="0.54"/><stop stop-color="#e5e6e7" offset="0.72"/><stop stop-color="#d0d2d3" offset="0.88"/><stop stop-color="#bbbdbf" offset="1"/></radialGradient><radialGradient gradientUnits="userSpaceOnUse" gradientTransform="translate(6269.62 -2485.08) rotate(180)" r="76.23" cy="-2584.62" cx="6042.37" id="radial-gradient-2"><stop stop-color="#fff" offset="0"/><stop stop-color="#e9e9e9" offset="0.07"/><stop stop-color="#878787" offset="0.42"/><stop stop-color="#3e3e3e" offset="0.7"/><stop stop-color="#111" offset="0.9"/><stop offset="1"/></radialGradient><linearGradient gradientUnits="userSpaceOnUse" y2="242.6" x2="381.23" y1="269.85" x1="353.98" id="Steel_Cylinder"><stop stop-color="#fff" offset="0"/><stop stop-color="#0b0b0b" offset="0.17"/><stop stop-color="#7f7f7f" offset="0.26"/><stop stop-color="#8e8e8e" offset="0.4"/><stop stop-color="#636363" offset="0.54"/><stop stop-color="#5f5f5f" offset="0.63"/><stop stop-color="#eaeaea" offset="0.72"/><stop stop-color="#fff" offset="0.79"/><stop offset="1"/></linearGradient><linearGradient gradientUnits="userSpaceOnUse" gradientTransform="matrix(-1.25, -1.09, 0.28, -0.32, 7373.66, 1689.63)" y2="-8173.61" x2="3811.09" y1="-8173.61" x1="3716.07" id="linear-gradient"><stop stop-color="#fff" offset="0"/><stop stop-color="#f6f6f6" offset="0.06"/><stop stop-color="#dfdfdf" offset="0.16"/><stop stop-color="#b8b8b8" offset="0.29"/><stop stop-color="#828282" offset="0.44"/><stop stop-color="#3f3f3f" offset="0.6"/><stop offset="0.74"/></linearGradient><linearGradient gradientUnits="userSpaceOnUse" gradientTransform="translate(-154.78 -11.81)" y2="255.96" x2="493.21" y1="208.89" x1="493.21" id="linear-gradient-2"><stop stop-color="#fff" offset="0"/><stop stop-color="#fafafa" offset="0.11"/><stop stop-color="#ececec" offset="0.23"/><stop stop-color="#d5d5d5" offset="0.36"/><stop stop-color="#b5b5b5" offset="0.5"/><stop stop-color="#8b8b8b" offset="0.64"/><stop stop-color="#585858" offset="0.79"/><stop stop-color="#1d1d1d" offset="0.93"/><stop offset="1"/></linearGradient><linearGradient gradientUnits="userSpaceOnUse" y2="196.08" x2="320.18" y1="196.08" x1="298.07" id="linear-gradient-3"><stop stop-color="#808184" offset="0"/><stop stop-color="#8a8b8d" offset="0.09"/><stop stop-color="#a4a5a7" offset="0.23"/><stop stop-color="#cecfd0" offset="0.41"/><stop stop-color="#dbdcdd" offset="0.47"/><stop stop-color="#626366" offset="1"/></linearGradient><linearGradient gradientUnits="userSpaceOnUse" gradientTransform="translate(1841.67 1900.21) rotate(-45)" y2="-2288.7" x2="132.07" y1="-2288.7" x1="110.61" id="linear-gradient-4"><stop stop-color="#dddfe0" offset="0"/><stop stop-color="#fff" offset="0.5"/><stop stop-color="#f2f2f3" offset="0.63"/><stop stop-color="#d0d2d3" offset="0.87"/><stop stop-color="#bbbdbf" offset="1"/></linearGradient><clipPath transform="translate(3.6 15.29)" id="clip-path"><path data-cppathid="10000" d="M310,112.71A83.4,83.4,0,1,1,226.54,29.3,83.41,83.41,0,0,1,310,112.71Z" class="cls-1" id="SVGID"/></clipPath><radialGradient gradientUnits="userSpaceOnUse" gradientTransform="translate(6395.41 -2508.37) rotate(180)" r="75.48" cy="-2626.07" cx="6168.86" id="radial-gradient-3"><stop stop-color="#fff" offset="0"/><stop stop-color="#fbfbfb" offset="0.11"/><stop stop-color="#ededed" offset="0.24"/><stop stop-color="#d8d8d8" offset="0.37"/><stop stop-color="#b9b9b9" offset="0.5"/><stop stop-color="#929292" offset="0.64"/><stop stop-color="#616161" offset="0.77"/><stop stop-color="#292929" offset="0.91"/><stop offset="1"/></radialGradient></defs><g class="cls-2"><g data-name="Layer 2" id="Layer_2"><g id="backlog"><g data-name="2023 jp" id="_2023_jp"><g data-name="initial Product Backlog" id="initial_Product_Backlog"><g data-name="Grades PBI" id="Grades_PBI"><path data-cppathid="10001" transform="translate(3.6 15.29)" d="M403.28,142.65A12.39,12.39,0,0,1,390.89,155H12.38A12.38,12.38,0,0,1,0,142.65V81.23A12.38,12.38,0,0,1,12.38,68.85H390.89a12.39,12.39,0,0,1,12.39,12.38Z" class="cls-3"/><path data-cppathid="10002" transform="translate(3.6 15.29)" d="M180.65,122.12c0,.5-.29.76-.83.76l-1.5,0c-.56,0-.82-.27-.78-.83l.68-15.06a1.23,1.23,0,0,1,.15-.49.61.61,0,0,1-.12-.41c0-.49.27-.74.81-.74h8.79l-.81-2.51a1.5,1.5,0,0,1,0-.31c0-.38.22-.59.66-.64l1.38-.2h.2a.74.74,0,0,1,.76.61l1,3.07h6.78c.54,0,.81.25.81.74s-.27.73-.81.73h-6.31l2.11,6.56,2.23-3.59a.86.86,0,0,1,.74-.46,1.09,1.09,0,0,1,.32,0l1,.32c.38.13.57.33.57.61a1,1,0,0,1-.15.44l-3.71,5.92,1.23,3.81,1.4-.37.27,0a.82.82,0,0,1,.76.52.93.93,0,0,1,.12.39c0,.33-.19.54-.58.64l-3.61.93a.39.39,0,0,1-.15,0h-.12a.74.74,0,0,1-.74-.59l-.64-2-1.33,2.13a.85.85,0,0,1-.73.47,1.57,1.57,0,0,1-.32,0l-1.06-.32c-.37-.13-.56-.34-.56-.61a1,1,0,0,1,.14-.45l2.8-4.46-3.16-9.88h-7a2.28,2.28,0,0,1,0,.27l-.19,4.23h5.94c.56,0,.81.28.76.83l-.76,9.63c-.05.47-.27.71-.66.71l-.28,0-3.87-1c-.41-.09-.62-.29-.62-.59a.33.33,0,0,1,0-.17,1.62,1.62,0,0,0,.06-.17l0-.07a.84.84,0,0,1,.77-.52h.14l.15,0,1.23.29.61-7.51h-3.61Zm16.11-18.81c.28.18.42.37.42.59a.77.77,0,0,1-.29.54l-.25.19a.84.84,0,0,1-1.1.12l-3-1.64a.75.75,0,0,1-.42-.59.69.69,0,0,1,.3-.54l.24-.2a1,1,0,0,1,.64-.27.92.92,0,0,1,.47.15Z" class="cls-4"/><path data-cppathid="10003" transform="translate(3.6 15.29)" d="M204.08,121.18a.73.73,0,0,1-.88.74l-.79,0a.69.69,0,0,1-.73-.86l.31-3.73a.74.74,0,0,1,.89-.74l.78,0a.7.7,0,0,1,.74.86Zm4.28,1.06a.72.72,0,0,1-.82.81H206a.72.72,0,0,1-.81-.81v-7.07l-2.7.22c-.49,0-.74-.12-.74-.47a.82.82,0,0,1,.18-.49l2.25-3.51,0-.08-2.07-2.75a1,1,0,0,1-.22-.56.89.89,0,0,1,.22-.57l3.93-5.15a.86.86,0,0,1,.69-.39,1.19,1.19,0,0,1,.39.07l.94.32c.34.11.51.31.51.59a.85.85,0,0,1-.19.49l-3.52,4.64.84,1.1.88-1.37a.87.87,0,0,1,.76-.44,1.09,1.09,0,0,1,.32.05l1.06.32c.37.13.56.32.56.59a.49.49,0,0,1,0,.22,1.34,1.34,0,0,1-.12.24l-3.49,5.43,3-.25-.42-1.69a1.69,1.69,0,0,1,0-.25.65.65,0,0,1,.66-.71l.71-.1a.74.74,0,0,1,.94.64l.91,3.76a1.54,1.54,0,0,1,0,.24.66.66,0,0,1-.66.72l-.71.1a.75.75,0,0,1-.94-.64l-.15-.59h-.07l-.56,0a.84.84,0,0,1,.05.29Zm3.48-1.62a.7.7,0,0,1-.76.86l-.79,0a.72.72,0,0,1-.85-.74l-.32-3.07a.86.86,0,0,1,.17-.63.79.79,0,0,1,.59-.25l.78,0a.71.71,0,0,1,.86.73Zm6.88-11.81v.07h3.56c.54,0,.81.25.81.74s-.27.73-.81.73H212.09c-.54,0-.81-.24-.81-.73s.27-.74.81-.74h3.48v-1h-2.33c-.54,0-.81-.25-.81-.74s.27-.73.81-.73h2.33v-1.45h-2.94c-.54,0-.81-.25-.81-.74s.27-.74.81-.74h2.94v-.78a.72.72,0,0,1,.82-.81h1.52a.72.72,0,0,1,.81.81v.78h3c.54,0,.81.25.81.74s-.27.74-.81.74h-3v1.45h2.38c.54,0,.81.24.81.73s-.27.74-.81.74h-2.38Zm-6.56,2.94a.72.72,0,0,1,.81-.81h1.52a.89.89,0,0,1,.5.13h6.75a.72.72,0,0,1,.81.81v7.61a.72.72,0,0,1-.81.81h-1.52a1,1,0,0,1-.5-.12H215a1,1,0,0,1-.5.12H213a.72.72,0,0,1-.81-.81ZM213.73,123a1,1,0,0,1-.44.09.86.86,0,0,1-.66-.32l-.12-.12a.72.72,0,0,1-.27-.51c0-.25.16-.45.49-.59l2.13-1a.92.92,0,0,1,.44-.1.91.91,0,0,1,.67.32l.12.12a.76.76,0,0,1,.27.52c0,.24-.16.44-.49.59Zm5.68-10.49H215.3v1h4.11Zm-4.11,3.63h4.11V115H215.3Zm0,2.53h4.11v-1H215.3Zm6.95,3c.33.15.5.35.5.59a.78.78,0,0,1-.23.49l-.17.18a1,1,0,0,1-.69.34.86.86,0,0,1-.41-.1l-2.46-1.08c-.33-.15-.49-.34-.49-.59a.74.74,0,0,1,.22-.49l.17-.17a.92.92,0,0,1,1.11-.25Z" class="cls-4"/></g><g data-name="magnifying glass" id="magnifying_glass"><g class="cls-5"><path data-cppathid="10004" transform="translate(3.6 15.29)" d="M227.85,28.52c41.26,0,74.83,32,75.73,71.77,0-.54,0-1.09,0-1.63,0-40.52-33.95-73.4-75.77-73.4s-75.77,32.88-75.77,73.4c0,.54,0,1.09,0,1.63C153,60.51,186.57,28.52,227.85,28.52Z" class="cls-6"/></g><path data-cppathid="10005" transform="translate(3.6 15.29)" d="M111.92,114.9A114.91,114.91,0,1,0,226.83,0,115,115,0,0,0,111.92,114.9Z" class="cls-7"/><path data-cppathid="10006" transform="translate(3.6 15.29)" d="M122,112.23A106.15,106.15,0,1,0,228.14,6.07,106.28,106.28,0,0,0,122,112.23Z" class="cls-8"/><path data-cppathid="10007" transform="translate(3.6 15.29)" d="M138.39,113.16a90.71,90.71,0,1,0,90.7-90.71A90.82,90.82,0,0,0,138.39,113.16Z" class="cls-9"/><path data-cppathid="10008" transform="translate(3.6 15.29)" d="M138.39,113.16a90.71,90.71,0,1,0,90.7-90.71A90.82,90.82,0,0,0,138.39,113.16Z" class="cls-9"/><path data-cppathid="10009" transform="translate(3.6 15.29)" d="M311.56,112.23a83.4,83.4,0,1,1-83.42-83.42A83.4,83.4,0,0,1,311.56,112.23Z" class="cls-10"/><path data-cppathid="10010" transform="translate(3.6 15.29)" d="M153.46,130.58a75.49,75.49,0,0,0,147.58,0c-19.06,12.7-47.47-11.91-76.19-11.91S172.56,143.28,153.46,130.58Z" class="cls-11"/><path data-cppathid="10011" transform="translate(3.6 15.29)" d="M326.2,187.57a13.75,13.75,0,0,0-9.81,4.08h0L304.8,203.22a13.87,13.87,0,0,0,0,19.63l94.4,98a13.86,13.86,0,0,0,19.62,0l11.59-11.59a13.91,13.91,0,0,0,0-19.64L336,191.65A13.79,13.79,0,0,0,326.2,187.57Z" class="cls-12"/><path data-cppathid="10012" transform="translate(3.6 15.29)" d="M427.55,292.46a9.85,9.85,0,0,1,0,13.89L416,317.93a9.83,9.83,0,0,1-13.89,0L307.67,220a9.84,9.84,0,0,1,0-13.9l11.59-11.58a9.8,9.8,0,0,1,13.88,0Z" class="cls-13"/><path data-cppathid="10013" transform="translate(3.6 15.29)" d="M418.32,310.78c2.12,1.42,0-2.74-1.2-4.12s-99.76-104-99.76-104l.8,1.6S416.24,309.38,418.32,310.78Z" class="cls-14"/><g class="cls-15"><path data-cppathid="10014" transform="translate(3.6 15.29)" d="M368.31,236.59l-37.23-37.22a7.79,7.79,0,0,0-11,0l-9.21,9.21a7.83,7.83,0,0,0,0,11l24.51,24.51h.51A71.41,71.41,0,0,0,368.31,236.59Z" class="cls-16"/></g><path data-cppathid="10015" transform="translate(3.6 15.29)" d="M300,196a6.5,6.5,0,0,0,9.2,9.18l9.09-9.1a6.51,6.51,0,0,0-9.2-9.2Z" class="cls-17"/><path data-cppathid="10016" transform="translate(3.6 15.29)" d="M316.72,188.49a4.3,4.3,0,0,1,0,6.07l-9.1,9.1a4.29,4.29,0,0,1-6.09,0h0a4.29,4.29,0,0,1,0-6.06l9.11-9.11a4.32,4.32,0,0,1,6.08,0Z" class="cls-18"/><g class="cls-19"><rect data-cppathid="10017" rx="13.4" height="101.26" width="404.14" y="75.15" class="cls-3"/><path data-cppathid="10018" transform="translate(3.6 15.29)" d="M43.08-15.29h6.64a18.22,18.22,0,0,1,5.15.6A6.08,6.08,0,0,1,58.21-12a8.77,8.77,0,0,1,1.35,4.93,8.94,8.94,0,0,1-1.09,4.55,6.48,6.48,0,0,1-3,2.75,14.53,14.53,0,0,1-5.7.84H47.52V11.49H43.08Zm4.44,3.43v9.34h2.2c2,0,3.31-.36,4.07-1.1a4.82,4.82,0,0,0,1.12-3.57,5.41,5.41,0,0,0-.74-3,3.15,3.15,0,0,0-1.64-1.41,10.54,10.54,0,0,0-2.81-.27Z" class="cls-8"/><path data-cppathid="10019" transform="translate(3.6 15.29)" d="M62.78-8.32h3.59v4.43c1.1-3.23,2.76-4.85,5-4.85a5.6,5.6,0,0,1,.75.06v4.26a7.46,7.46,0,0,0-.83-.06q-4.4,0-4.39,5.89V11.49H62.78Z" class="cls-8"/><path data-cppathid="10020" transform="translate(3.6 15.29)" d="M89,1.39Q89,12,81.1,12a6.91,6.91,0,0,1-5.68-2.56q-2.07-2.56-2.07-7.84,0-10.36,7.85-10.37a6.94,6.94,0,0,1,5.66,2.53Q88.95-3.74,89,1.39Zm-4.35.2q0-4.17-.93-5.73A2.83,2.83,0,0,0,81.15-5.7q-3.44,0-3.44,7.29a14.32,14.32,0,0,0,.8,5.51,2.83,2.83,0,0,0,5.27,0A14.06,14.06,0,0,0,84.6,1.59Z" class="cls-8"/><path data-cppathid="10021" transform="translate(3.6 15.29)" d="M103.12-15.29h4.08V11.49h-3.77v-3a5,5,0,0,1-4.91,3.35,5.45,5.45,0,0,1-5-2.8,14.2,14.2,0,0,1-1.67-7.36c0-3.26.61-5.79,1.84-7.61A5.68,5.68,0,0,1,98.6-8.66,4.62,4.62,0,0,1,103.12-6Zm0,15.12c0-2-.39-3.46-1.16-4.28a3.28,3.28,0,0,0-2.38-1.23q-3.39,0-3.39,7,0,7.44,3.43,7.44A3.16,3.16,0,0,0,102,7.51c.72-.82,1.09-2.25,1.09-4.29Z" class="cls-8"/><path data-cppathid="10022" transform="translate(3.6 15.29)" d="M111.85-8.32h4.08V4.27a9.33,9.33,0,0,0,.43,3.52c.29.6.92.89,1.91.89a2.59,2.59,0,0,0,2.56-1.58,16.17,16.17,0,0,0,.73-5.89V-8.32h4.08V11.49h-3.77v-3a5.26,5.26,0,0,1-5,3.47,5.19,5.19,0,0,1-2.89-.74,4.11,4.11,0,0,1-1.61-2.12,15.89,15.89,0,0,1-.49-4.77Z" class="cls-8"/><path data-cppathid="10023" transform="translate(3.6 15.29)" d="M144.22-1.65l-3.95.43a7.13,7.13,0,0,0-1-3.46,2.41,2.41,0,0,0-2-.88,2.76,2.76,0,0,0-2.65,1.68Q133.79-2.2,133.8,2q0,6.6,3.47,6.6c1.78,0,2.78-1.44,3-4.3l3.95.35Q143.41,12,137,12a6.29,6.29,0,0,1-5.64-2.75,13.48,13.48,0,0,1-1.84-7.59q0-5.1,2-7.77a6.74,6.74,0,0,1,5.77-2.66Q143.35-8.79,144.22-1.65Z" class="cls-8"/><path data-cppathid="10024" transform="translate(3.6 15.29)" d="M147.63-13.48l3.69-.36v5.52h3.78V-5h-3.78V3.71a27.27,27.27,0,0,0,.11,3.06A1.94,1.94,0,0,0,152.14,8a3.13,3.13,0,0,0,2,.48,11.47,11.47,0,0,0,1.65-.14v3.28a15,15,0,0,1-3.06.35,5.9,5.9,0,0,1-3.51-.89,3.94,3.94,0,0,1-1.55-2.42A24.13,24.13,0,0,1,147.3,4V-5h-2.57V-8.32h2.68Z" class="cls-8"/><path data-cppathid="10025" transform="translate(3.6 15.29)" d="M165.5-15.29h8.1a17,17,0,0,1,4.65.49,5,5,0,0,1,2.69,2.19A7.46,7.46,0,0,1,182-8.48a5.64,5.64,0,0,1-4,5.86q4.8,1.52,4.8,6.73A7.69,7.69,0,0,1,181,9.28q-1.89,2.21-7.25,2.21H165.5Zm4.34,11.11h2.8c2,0,3.28-.37,3.91-1.09a4.21,4.21,0,0,0,.94-2.82A3.5,3.5,0,0,0,176.41-11a5.27,5.27,0,0,0-3.34-.88h-3.23Zm0,12.12h3.57q4.91,0,4.9-4.34a4.75,4.75,0,0,0-1-3c-.69-.89-2.1-1.33-4.24-1.33h-3.19Z" class="cls-8"/><path data-cppathid="10026" transform="translate(3.6 15.29)" d="M190.93-2.71l-4-.49a5.92,5.92,0,0,1,2.44-4.12,8.41,8.41,0,0,1,5-1.47,7.59,7.59,0,0,1,4.26,1.06,4.64,4.64,0,0,1,2,2.55,18,18,0,0,1,.41,4.45V6a27.28,27.28,0,0,0,.35,5.47h-3.86a15.53,15.53,0,0,1-.26-3.3Q195.5,12,191.8,12a5.41,5.41,0,0,1-4-1.54,5.71,5.71,0,0,1-1.51-4.19,6.37,6.37,0,0,1,2.22-5.12q2.22-1.87,7.71-1.88c.18,0,.46,0,.86,0v-.81a6.43,6.43,0,0,0-.64-3.19,2.41,2.41,0,0,0-2.28-1.08Q191.46-5.81,190.93-2.71Zm6.12,4.55c-.52-.05-.92-.08-1.2-.08-3.54,0-5.32,1.39-5.32,4.18,0,2,.88,3,2.64,3a3.3,3.3,0,0,0,2.71-1.65,7.71,7.71,0,0,0,1.17-4.53Z" class="cls-8"/><path data-cppathid="10027" transform="translate(3.6 15.29)" d="M219.45-1.65l-3.94.43a7.25,7.25,0,0,0-1-3.46,2.41,2.41,0,0,0-2-.88,2.76,2.76,0,0,0-2.65,1.68A14.66,14.66,0,0,0,209,2q0,6.6,3.48,6.6c1.77,0,2.77-1.44,3-4.3l3.94.35Q218.64,12,212.21,12a6.29,6.29,0,0,1-5.64-2.75,13.57,13.57,0,0,1-1.83-7.59q0-5.1,2-7.77a6.73,6.73,0,0,1,5.77-2.66Q218.58-8.79,219.45-1.65Z" class="cls-8"/><path data-cppathid="10028" transform="translate(3.6 15.29)" d="M222.49-15.29h4.08V.54L233-8.32h4L231.89-1.5l5.69,13h-4.41l-4-9.93-2.63,3.63v6.3h-4.08Z" class="cls-8"/><path data-cppathid="10029" transform="translate(3.6 15.29)" d="M239.62-15.29h4.08V11.49h-4.08Z" class="cls-8"/><path data-cppathid="10030" transform="translate(3.6 15.29)" d="M263.12,1.39q0,10.59-7.85,10.59a6.91,6.91,0,0,1-5.68-2.56q-2.07-2.56-2.07-7.84,0-10.36,7.85-10.37A6.94,6.94,0,0,1,261-6.26Q263.12-3.74,263.12,1.39Zm-4.35.2q0-4.17-.93-5.73a2.83,2.83,0,0,0-2.52-1.56q-3.44,0-3.44,7.29a14.32,14.32,0,0,0,.8,5.51,2.83,2.83,0,0,0,5.27,0A14.06,14.06,0,0,0,258.77,1.59Z" class="cls-8"/><path data-cppathid="10031" transform="translate(3.6 15.29)" d="M282.38-11.48v3a4.63,4.63,0,0,0-.94-.12c-1.2,0-1.91.73-2.14,2.18a6.66,6.66,0,0,1,1.5,4.26,6.14,6.14,0,0,1-1.87,4.53,6.81,6.81,0,0,1-5,1.84,9.91,9.91,0,0,1-2.51-.35c-1,.38-1.49.95-1.49,1.73a1.23,1.23,0,0,0,.79,1.29,19.87,19.87,0,0,0,4.21.47,24.18,24.18,0,0,1,4.43.55,4.18,4.18,0,0,1,2.39,1.6,5.22,5.22,0,0,1,.89,3.17,5.17,5.17,0,0,1-2.33,4.58,12,12,0,0,1-6.65,1.56c-2.78,0-4.8-.46-6.08-1.37a4.23,4.23,0,0,1-1.91-3.61A3.76,3.76,0,0,1,268.53,10a3.63,3.63,0,0,1-2.15-3.24q0-2.58,2.92-4a5.68,5.68,0,0,1-2.55-5.08A6.12,6.12,0,0,1,268.69-7a7.06,7.06,0,0,1,5-1.79,8.26,8.26,0,0,1,3.75.86,4.83,4.83,0,0,1,1.19-2.86,3.65,3.65,0,0,1,2.54-.79A8.49,8.49,0,0,1,282.38-11.48ZM271.07,10.67a2.69,2.69,0,0,0-1.71,2.53,2.25,2.25,0,0,0,1.1,2.08,7.46,7.46,0,0,0,3.65.66c3.14,0,4.7-.91,4.7-2.72a1.92,1.92,0,0,0-.89-1.84,8.92,8.92,0,0,0-3.52-.58C272.92,10.75,271.81,10.71,271.07,10.67Zm5.51-12.89q0-3.88-2.69-3.89Q271-6.11,271-2.18t2.82,3.8Q276.58,1.62,276.58-2.22Z" class="cls-8"/><path data-cppathid="10032" transform="translate(3.6 15.29)" d="M292.43-15.29h4.43V11.49h-4.43Z" class="cls-8"/><path data-cppathid="10033" transform="translate(3.6 15.29)" d="M302.57-13.48l3.69-.36v5.52h3.79V-5h-3.79V3.71a24.26,24.26,0,0,0,.12,3.06,1.93,1.93,0,0,0,.7,1.24,3.16,3.16,0,0,0,2,.48,11.46,11.46,0,0,0,1.64-.14v3.28a14.89,14.89,0,0,1-3.06.35,5.9,5.9,0,0,1-3.51-.89,3.94,3.94,0,0,1-1.55-2.42A24.13,24.13,0,0,1,302.24,4V-5h-2.57V-8.32h2.69Z" class="cls-8"/><path data-cppathid="10034" transform="translate(3.6 15.29)" d="M327.39,2.19h-11.2q0,4,1.08,5.35A3.4,3.4,0,0,0,320,8.88c1.83,0,3-1.23,3.47-3.69l3.74.49q-1.47,6.3-7.34,6.3a7.06,7.06,0,0,1-5.72-2.57Q312,6.85,312,1.88T314.17-6a6.9,6.9,0,0,1,5.76-2.78,6.55,6.55,0,0,1,4.26,1.39,7.41,7.41,0,0,1,2.43,3.66A21.67,21.67,0,0,1,327.39,2.19ZM323.21-.58q0-5.23-3.41-5.23-3.21,0-3.52,5.23Z" class="cls-8"/><path data-cppathid="10035" transform="translate(3.6 15.29)" d="M330.78-8.32h3.77v3a5,5,0,0,1,4.88-3.49A4.18,4.18,0,0,1,344-5.11a5,5,0,0,1,5-3.68A5.41,5.41,0,0,1,352-8a4.12,4.12,0,0,1,1.68,2.08A16.77,16.77,0,0,1,354.13-1V11.49h-4.08V-.7a9.76,9.76,0,0,0-.49-3.8,1.92,1.92,0,0,0-1.93-1q-3.12,0-3.12,5.39v11.6h-4.08v-12a16.13,16.13,0,0,0-.2-3.32,2.18,2.18,0,0,0-.77-1.19A2.26,2.26,0,0,0,338-5.5a2.57,2.57,0,0,0-2.43,1.28A9,9,0,0,0,334.86,0v11.5h-4.08Z" class="cls-8"/><path data-cppathid="10036" transform="translate(3.6 15.29)" d="M166.79,126.67a1.17,1.17,0,0,1-1.35,1.24l-2.43,0a1.13,1.13,0,0,1-1.27-1.36l1.11-24.36a1.84,1.84,0,0,1,.24-.8,1,1,0,0,1-.2-.67c0-.8.44-1.2,1.31-1.2h14.23l-1.31-4a2.36,2.36,0,0,1-.08-.52c0-.61.36-1,1.08-1l2.22-.32a.58.58,0,0,0,.18,0l.14,0a1.19,1.19,0,0,1,1.23,1l1.59,5h11q1.32,0,1.32,1.2c0,.79-.44,1.19-1.32,1.19H184.24l3.42,10.61,3.61-5.8a1.41,1.41,0,0,1,1.2-.76,2.37,2.37,0,0,1,.51.08l1.71.52c.61.21.92.54.92,1a1.59,1.59,0,0,1-.24.72l-6,9.58,2,6.16,2.27-.6a2.44,2.44,0,0,1,.44-.08,1.35,1.35,0,0,1,1.23.84,1.58,1.58,0,0,1,.2.63c0,.54-.32.88-1,1l-5.84,1.51a.67.67,0,0,1-.24,0h-.2a1.2,1.2,0,0,1-1.19-1l-1-3.22-2.15,3.46a1.39,1.39,0,0,1-1.19.76,2.36,2.36,0,0,1-.52-.08l-1.71-.52c-.61-.21-.91-.54-.91-1a1.45,1.45,0,0,1,.24-.72l4.53-7.23-5.13-16H167.86a2,2,0,0,1,0,.44l-.32,6.83h9.62c.9,0,1.31.45,1.23,1.36l-1.23,15.58c-.08.76-.43,1.15-1.07,1.15a2.44,2.44,0,0,1-.44-.08l-6.28-1.55c-.66-.16-1-.48-1-.95a.61.61,0,0,1,.06-.28,1.51,1.51,0,0,0,.1-.28l0-.12a1.35,1.35,0,0,1,1.23-.84,1,1,0,0,1,.24,0l.24,0,2,.48,1-12.16h-5.85Zm26.07-30.45a1.23,1.23,0,0,1,.68,1,1.21,1.21,0,0,1-.48.87l-.4.32a1.59,1.59,0,0,1-1,.44,1.62,1.62,0,0,1-.75-.24L186,95.91a1.21,1.21,0,0,1-.68-1,1.12,1.12,0,0,1,.48-.87l.4-.32a1.59,1.59,0,0,1,1-.44,1.43,1.43,0,0,1,.75.24Z" class="cls-4"/><path data-cppathid="10037" transform="translate(3.6 15.29)" d="M204.71,125.16a1.18,1.18,0,0,1-1.43,1.19l-1.27-.07a1.13,1.13,0,0,1-1.2-1.4l.52-6a1.19,1.19,0,0,1,1.43-1.19l1.27.08a1.13,1.13,0,0,1,1.2,1.39Zm6.92,1.71a1.16,1.16,0,0,1-1.32,1.31h-2.46a1.15,1.15,0,0,1-1.31-1.31V115.42l-4.37.36c-.8.06-1.2-.2-1.2-.75a1.44,1.44,0,0,1,.28-.8l3.66-5.68-.08-.12L201.49,104a1.56,1.56,0,0,1-.36-.92,1.31,1.31,0,0,1,.36-.91l6.36-8.35a1.39,1.39,0,0,1,1.11-.64,2,2,0,0,1,.64.12l1.51.52c.56.19.83.5.83,1a1.4,1.4,0,0,1-.31.8l-5.69,7.51,1.35,1.79,1.43-2.23a1.45,1.45,0,0,1,1.24-.71,2.37,2.37,0,0,1,.51.08l1.71.51c.61.22.92.54.92,1a1.07,1.07,0,0,1-.08.36,3.6,3.6,0,0,1-.2.39L207.17,113l4.85-.4-.67-2.74a1.54,1.54,0,0,1,0-.4,1.05,1.05,0,0,1,1.07-1.15l1.15-.16a1.19,1.19,0,0,1,1.51,1l1.47,6.08a1.54,1.54,0,0,1,0,.4,1.06,1.06,0,0,1-1.07,1.16l-1.15.15a1.18,1.18,0,0,1-1.51-1l-.24-1h-.12l-.91.08a1.32,1.32,0,0,1,.08.47Zm5.64-2.62a1.14,1.14,0,0,1-1.23,1.39l-1.27.08a1.17,1.17,0,0,1-1.4-1.19l-.51-5a1.35,1.35,0,0,1,.28-1,1.26,1.26,0,0,1,1-.41l1.27-.08a1.16,1.16,0,0,1,1.39,1.19Zm11.13-19.12v.12h5.76c.88,0,1.32.4,1.32,1.19s-.44,1.19-1.32,1.19H217.67c-.88,0-1.31-.39-1.31-1.19s.43-1.19,1.31-1.19h5.64v-1.67h-3.77c-.88,0-1.32-.4-1.32-1.19s.44-1.2,1.32-1.2h3.77V98.85h-4.77c-.87,0-1.31-.4-1.31-1.19s.44-1.2,1.31-1.2h4.77V95.19a1.16,1.16,0,0,1,1.31-1.31h2.47a1.16,1.16,0,0,1,1.31,1.31v1.27h4.81c.87,0,1.31.4,1.31,1.2s-.44,1.19-1.31,1.19H228.4v2.34h3.86c.87,0,1.31.4,1.31,1.2s-.44,1.19-1.31,1.19H228.4Zm-10.61,4.77a1.15,1.15,0,0,1,1.31-1.31h2.46a1.42,1.42,0,0,1,.8.2h10.93a1.16,1.16,0,0,1,1.31,1.31v12.32a1.16,1.16,0,0,1-1.31,1.31h-2.47a1.41,1.41,0,0,1-.79-.2h-7.67a1.42,1.42,0,0,1-.8.2H219.1a1.16,1.16,0,0,1-1.31-1.31Zm2.54,18.24a1.53,1.53,0,0,1-.72.16,1.45,1.45,0,0,1-1.07-.51l-.2-.2a1.22,1.22,0,0,1-.43-.84c0-.4.26-.71.79-1l3.46-1.55a1.51,1.51,0,0,1,.71-.16,1.43,1.43,0,0,1,1.08.52l.2.19a1.26,1.26,0,0,1,.43.84c0,.4-.26.71-.79,1Zm9.18-17h-6.64v1.63h6.64Zm-6.64,5.88h6.64v-1.86h-6.64Zm0,4.1h6.64v-1.71h-6.64ZM234.12,126c.53.24.8.55.8,1a1.34,1.34,0,0,1-.36.8l-.28.27a1.57,1.57,0,0,1-1.11.56,1.48,1.48,0,0,1-.68-.16l-4-1.75c-.53-.24-.8-.55-.8-.95a1.21,1.21,0,0,1,.36-.8l.28-.27a1.61,1.61,0,0,1,1.11-.56,1.45,1.45,0,0,1,.68.16Z" class="cls-4"/></g><path data-cppathid="10038" transform="translate(3.6 15.29)" d="M152.78,133.64a75.47,75.47,0,0,0,147.55,0c-19.06,12.71-45.08,26.59-73.79,26.59S171.82,146.34,152.78,133.64Z" class="cls-20"/><path data-cppathid="10039" transform="translate(3.6 15.29)" d="M230.29,41.4c26.67,0,51.85,14.5,67,36.54-13.35-24.89-38.35-41.7-67-41.7S176.59,53.06,163.23,78C178.38,55.92,203.59,41.4,230.29,41.4Z" class="cls-21"/><path data-cppathid="10040" transform="translate(3.6 15.29)" d="M227,186.41c-26.64,0-51.84-14.5-67-36.57,13.34,24.92,38.33,41.72,67,41.72s53.75-16.82,67.06-41.76C278.91,171.89,253.7,186.41,227,186.41Z" class="cls-21"/></g></g></g></g></g></g></svg>