<?xml version="1.0" encoding="UTF-8"?>
<svg xmlns="http://www.w3.org/2000/svg" onmouseup="{ if(window.parent.document.onmouseup) window.parent.document.onmouseup(arguments[0]);}" viewBox="0 0 403.28 154.2"><defs><style>.cls-1{fill:#fff100;}.cls-2{fill:#603813;}</style></defs><g data-name="Layer 2" id="Layer_2"><g id="backlog"><g data-name="2023 jp" id="_2023_jp"><g data-name="growing grades epic" id="growing_grades_epic"><path data-cppathid="10000" d="M75.57,77.1c0,42.58,64.79,77.1,144.72,77.1S365,119.68,365,77.1,300.22,0,220.29,0,75.57,34.52,75.57,77.1Z" class="cls-1"/><path data-cppathid="10001" d="M403.28,104.37a12.39,12.39,0,0,1-12.39,12.38H12.38A12.38,12.38,0,0,1,0,104.37V43A12.38,12.38,0,0,1,12.38,30.57H390.89A12.39,12.39,0,0,1,403.28,43Z" class="cls-1"/><path data-cppathid="10002" d="M180.65,83.84c0,.51-.29.76-.83.76l-1.5,0a.69.69,0,0,1-.78-.84l.68-15a1.13,1.13,0,0,1,.15-.49.66.66,0,0,1-.12-.42c0-.49.27-.74.81-.74h8.79l-.81-2.5a1.57,1.57,0,0,1,0-.32c0-.38.22-.59.66-.64l1.38-.2h.2A.74.74,0,0,1,190,64L191,67h6.78c.54,0,.81.25.81.74s-.27.73-.81.73h-6.31l2.11,6.56,2.23-3.58a.87.87,0,0,1,.74-.47,1.57,1.57,0,0,1,.32,0l1,.32c.38.13.57.33.57.61a1,1,0,0,1-.15.44l-3.71,5.92,1.23,3.81,1.4-.37.27,0a.82.82,0,0,1,.76.52.93.93,0,0,1,.12.39c0,.33-.19.54-.58.64l-3.61.93a.4.4,0,0,1-.15,0h-.12a.75.75,0,0,1-.74-.59l-.64-2-1.33,2.13a.83.83,0,0,1-.73.47,1.57,1.57,0,0,1-.32,0l-1.06-.32c-.37-.13-.56-.33-.56-.61a.93.93,0,0,1,.14-.44l2.8-4.47-3.16-9.88h-7a2.46,2.46,0,0,1,0,.28L181.15,73h5.94c.56,0,.81.28.76.83l-.76,9.63c-.05.47-.27.71-.66.71a1,1,0,0,1-.27-.05l-3.88-.95c-.41-.1-.62-.3-.62-.59a.34.34,0,0,1,0-.18,1.07,1.07,0,0,0,.06-.17l0-.07a.84.84,0,0,1,.77-.52l.14,0a.8.8,0,0,1,.15,0l1.23.3.61-7.52h-3.61ZM196.76,65c.28.18.42.37.42.59a.77.77,0,0,1-.29.54l-.25.19a1,1,0,0,1-.64.27,1.08,1.08,0,0,1-.46-.14l-3-1.65c-.28-.18-.42-.37-.42-.59a.72.72,0,0,1,.3-.54l.24-.19a1,1,0,0,1,.64-.27.9.9,0,0,1,.47.14Z" class="cls-2"/><path data-cppathid="10003" d="M204.08,82.91a.73.73,0,0,1-.88.73l-.79,0a.69.69,0,0,1-.73-.86L202,79a.74.74,0,0,1,.89-.74l.78,0a.7.7,0,0,1,.74.86Zm4.28,1a.72.72,0,0,1-.82.81H206a.72.72,0,0,1-.81-.81V76.89l-2.7.22c-.49,0-.74-.12-.74-.47a.85.85,0,0,1,.18-.49l2.25-3.51,0-.07-2.07-2.75a1,1,0,0,1-.22-.57.84.84,0,0,1,.22-.56L206,63.53a.86.86,0,0,1,.69-.39,1.19,1.19,0,0,1,.39.07l.94.32c.34.11.51.31.51.59a.85.85,0,0,1-.19.49l-3.52,4.64.84,1.11.88-1.38a.9.9,0,0,1,.76-.44,1.48,1.48,0,0,1,.32,0l1.06.32c.38.13.56.33.56.59a.49.49,0,0,1,0,.22,1.34,1.34,0,0,1-.12.24l-3.49,5.43,3-.24-.42-1.7a1.54,1.54,0,0,1,0-.24.66.66,0,0,1,.66-.72l.71-.1a.75.75,0,0,1,.94.64l.91,3.76a1.69,1.69,0,0,1,0,.25.65.65,0,0,1-.66.71l-.72.1a.74.74,0,0,1-.93-.64l-.15-.59h-.07l-.56,0a.84.84,0,0,1,.05.29Zm3.48-1.62a.7.7,0,0,1-.76.86l-.79,0a.71.71,0,0,1-.85-.74l-.32-3.07a.82.82,0,0,1,.17-.62.8.8,0,0,1,.59-.26l.78,0a.72.72,0,0,1,.86.74Zm6.88-11.81v.07h3.56c.54,0,.81.25.81.74s-.27.74-.81.74H212.09c-.54,0-.81-.25-.81-.74s.27-.74.81-.74h3.48v-1h-2.33c-.54,0-.81-.24-.81-.74s.27-.73.81-.73h2.33V66.65h-2.94c-.54,0-.81-.25-.81-.74s.27-.74.81-.74h2.94v-.78a.72.72,0,0,1,.82-.81h1.52a.72.72,0,0,1,.81.81v.78h3c.54,0,.81.25.81.74s-.27.74-.81.74h-3V68.1h2.38c.54,0,.81.24.81.73s-.27.74-.81.74h-2.38Zm-6.56,3a.71.71,0,0,1,.81-.81h1.52a1,1,0,0,1,.5.12h6.75a.72.72,0,0,1,.81.81v7.61a.72.72,0,0,1-.81.81h-1.52a1,1,0,0,1-.5-.12H215a1,1,0,0,1-.5.12H213a.72.72,0,0,1-.81-.81Zm1.57,11.27a1.05,1.05,0,0,1-.44.1.89.89,0,0,1-.66-.32l-.13-.13a.76.76,0,0,1-.27-.51c0-.25.17-.44.5-.59l2.13-1a1.05,1.05,0,0,1,.44-.1.91.91,0,0,1,.67.32l.12.12a.78.78,0,0,1,.27.52c0,.25-.16.44-.49.59Zm5.68-10.49H215.3v1h4.11ZM215.3,77.9h4.11V76.74H215.3Zm0,2.52h4.11v-1H215.3Zm6.95,3c.33.14.5.34.5.59a.83.83,0,0,1-.23.49l-.17.17a1,1,0,0,1-.68.34.87.87,0,0,1-.42-.1l-2.46-1.08c-.33-.14-.49-.34-.49-.59a.74.74,0,0,1,.22-.49l.17-.17a1,1,0,0,1,.69-.34.87.87,0,0,1,.42.1Z" class="cls-2"/></g></g></g></g></svg>