<?xml version="1.0" encoding="UTF-8"?>
<svg xmlns="http://www.w3.org/2000/svg" onmouseup="{ if(window.parent.document.onmouseup) window.parent.document.onmouseup(arguments[0]);}" viewBox="0 0 457.42 160.77"><defs><style>.cls-1{fill:#fff100;}.cls-2{fill:#603813;}</style></defs><g data-name="Layer 2" id="Layer_2"><g id="backlog"><g data-name="2023 jp" id="_2023_jp"><g data-name="growing grades epic" id="growing_grades_epic"><path data-cppathid="10000" d="M19.54,94.61A54.56,54.56,0,1,0,74.1,40.05,54.55,54.55,0,0,0,19.54,94.61Z" class="cls-1"/><path data-cppathid="10001" d="M318.31,87.58A69.56,69.56,0,1,0,387.86,18,69.55,69.55,0,0,0,318.31,87.58Z" class="cls-1"/><path data-cppathid="10002" d="M.37,54.56A54.56,54.56,0,1,0,54.92,0,54.55,54.55,0,0,0,.37,54.56Z" class="cls-1"/><path data-cppathid="10003" d="M75.57,83.67c0,42.58,64.79,77.1,144.72,77.1S365,126.25,365,83.67,300.22,6.57,220.29,6.57,75.57,41.09,75.57,83.67Z" class="cls-1"/><path data-cppathid="10004" d="M403.28,110.94a12.39,12.39,0,0,1-12.39,12.38H12.38A12.38,12.38,0,0,1,0,110.94V49.52A12.38,12.38,0,0,1,12.38,37.14H390.89a12.39,12.39,0,0,1,12.39,12.38Z" class="cls-1"/><path data-cppathid="10005" d="M124,90.41c0,.51-.3.76-.84.76l-1.49,0c-.56,0-.82-.27-.79-.83l.69-15a1,1,0,0,1,.14-.49.66.66,0,0,1-.12-.42c0-.49.27-.74.81-.74h8.79l-.81-2.5a1.57,1.57,0,0,1,0-.32c0-.38.23-.59.67-.64l1.37-.2h.2a.73.73,0,0,1,.76.61l1,3.07h6.78c.54,0,.81.25.81.74s-.27.73-.81.73h-6.31l2.11,6.56,2.24-3.58a.85.85,0,0,1,.73-.47,1.57,1.57,0,0,1,.32,0l1.06.32c.37.13.56.33.56.61a1,1,0,0,1-.15.44L138,84.93l1.22,3.81,1.4-.37.27-.05a.84.84,0,0,1,.77.52.93.93,0,0,1,.12.39c0,.33-.2.54-.59.64l-3.61.93a.4.4,0,0,1-.15,0h-.12a.75.75,0,0,1-.74-.59l-.64-2-1.32,2.13a.87.87,0,0,1-.74.47,1.57,1.57,0,0,1-.32,0l-1-.32c-.38-.13-.57-.33-.57-.61a.86.86,0,0,1,.15-.44l2.8-4.47-3.17-9.88h-7a1.24,1.24,0,0,1,0,.27l-.2,4.23h5.94c.56,0,.81.28.76.83L130.47,90c-.05.47-.27.71-.66.71a1,1,0,0,1-.27,0l-3.88-1c-.41-.1-.62-.3-.62-.59a.48.48,0,0,1,0-.18.43.43,0,0,0,.06-.17l0-.07a.82.82,0,0,1,.76-.52h.15l.14,0,1.23.3.62-7.52h-3.61ZM140.15,71.6c.28.18.42.37.42.59a.75.75,0,0,1-.3.54l-.25.19a1,1,0,0,1-.63.27,1.11,1.11,0,0,1-.47-.14l-3-1.65a.75.75,0,0,1-.41-.59.68.68,0,0,1,.29-.54l.25-.2a1,1,0,0,1,.64-.26.87.87,0,0,1,.46.14Z" class="cls-2"/><path data-cppathid="10006" d="M147.47,89.48a.74.74,0,0,1-.89.73l-.78,0a.7.7,0,0,1-.74-.86l.32-3.73a.74.74,0,0,1,.88-.74l.79,0a.7.7,0,0,1,.74.86Zm4.27,1a.72.72,0,0,1-.81.81h-1.52a.72.72,0,0,1-.81-.81V83.46l-2.71.22c-.49,0-.73-.12-.73-.47a.83.83,0,0,1,.17-.49l2.26-3.51-.05-.07-2.06-2.75a1,1,0,0,1-.22-.57.79.79,0,0,1,.22-.56l3.93-5.16a.83.83,0,0,1,.68-.39,1.25,1.25,0,0,1,.4.07l.93.32c.34.11.52.31.52.59a.87.87,0,0,1-.2.49l-3.51,4.64.83,1.11.89-1.38a.88.88,0,0,1,.76-.44,1.57,1.57,0,0,1,.32,0l1.05.32c.38.13.57.33.57.59a.68.68,0,0,1-.05.22l-.12.24L149,82l3-.24-.41-1.7a.85.85,0,0,1,0-.25.66.66,0,0,1,.67-.71l.71-.1a.74.74,0,0,1,.93.64l.91,3.76a.94.94,0,0,1,0,.25.65.65,0,0,1-.66.71l-.71.1a.73.73,0,0,1-.93-.64l-.15-.59h-.08l-.56,0a.84.84,0,0,1,.05.29Zm3.49-1.62a.71.71,0,0,1-.77.86l-.78,0a.72.72,0,0,1-.86-.74L152.5,86a.82.82,0,0,1,.17-.62.76.76,0,0,1,.59-.26l.79,0a.72.72,0,0,1,.86.74ZM162.1,77.1v.07h3.56c.54,0,.81.25.81.74s-.27.73-.81.73H155.47c-.54,0-.81-.24-.81-.73s.27-.74.81-.74H159v-1h-2.33c-.54,0-.82-.25-.82-.74s.28-.73.82-.73H159V73.22h-3c-.54,0-.81-.25-.81-.74s.27-.74.81-.74h3V71a.72.72,0,0,1,.81-.81h1.52a.72.72,0,0,1,.81.81v.78h3c.54,0,.81.25.81.74s-.27.74-.81.74h-3v1.45h2.38c.54,0,.81.24.81.73s-.27.74-.81.74H162.1Zm-6.56,3a.72.72,0,0,1,.82-.82h1.52a.94.94,0,0,1,.49.13h6.75a.72.72,0,0,1,.81.81v7.61a.72.72,0,0,1-.81.81H163.6a.91.91,0,0,1-.49-.12h-4.74a.94.94,0,0,1-.49.12h-1.52a.72.72,0,0,1-.82-.81Zm1.58,11.27a1.06,1.06,0,0,1-.45.1.9.9,0,0,1-.66-.32l-.12-.13a.76.76,0,0,1-.27-.51c0-.25.16-.44.49-.59l2.14-1a1,1,0,0,1,.44-.1.9.9,0,0,1,.66.32l.12.12a.78.78,0,0,1,.27.52c0,.25-.16.44-.49.59Zm5.67-10.49h-4.1v1h4.1Zm-4.1,3.64h4.1V83.31h-4.1Zm0,2.52h4.1v-1h-4.1Zm6.95,3c.33.14.49.34.49.59a.81.81,0,0,1-.22.49l-.17.17a1,1,0,0,1-.69.34.87.87,0,0,1-.42-.1l-2.45-1.08c-.33-.14-.5-.34-.5-.59a.76.76,0,0,1,.23-.49l.17-.17a1,1,0,0,1,.68-.34.87.87,0,0,1,.42.1Z" class="cls-2"/><path data-cppathid="10007" d="M180.45,82.7a1.95,1.95,0,0,1-1.92-1.92,1.93,1.93,0,0,1,1.92-1.91,1.91,1.91,0,0,1,1.91,1.91,1.93,1.93,0,0,1-1.91,1.92Z" class="cls-2"/><path data-cppathid="10008" d="M206.16,87.9V88h7.76c.54,0,.81.24.81.73s-.27.74-.81.74H195.16c-.54,0-.81-.25-.81-.74s.27-.73.81-.73H203V75.65h-7c-.54,0-.82-.25-.82-.74s.28-.73.82-.73H213.3c.54,0,.81.24.81.73s-.27.74-.81.74h-7.14V87.9Z" class="cls-2"/><path data-cppathid="10009" d="M237.39,88.3c.54,0,.81.24.81.73s-.27.74-.81.74H220a.72.72,0,0,1-.81-.81V72.9a.72.72,0,0,1,.81-.81h1.53a.72.72,0,0,1,.81.81v5.23l13.8-2.06a.78.78,0,0,1,1,.59.93.93,0,0,1,0,.13s0,.08,0,.11c0,.38-.23.59-.69.64l-14.14,2.11V88.3Zm-2.77-13.44a5.09,5.09,0,0,1-2.12-.43A3.89,3.89,0,0,1,231,73.27a2.71,2.71,0,0,1,0-3.3,3.78,3.78,0,0,1,1.51-1.15,5.59,5.59,0,0,1,4.25,0,3.81,3.81,0,0,1,1.5,1.15,2.71,2.71,0,0,1,0,3.3,3.93,3.93,0,0,1-1.5,1.16A5.07,5.07,0,0,1,234.62,74.86Zm-.07-1.08a1.45,1.45,0,0,0,.87-.31,2.37,2.37,0,0,0,.7-.8,2.08,2.08,0,0,0,.29-1,2.14,2.14,0,0,0-.27-1.06,2.31,2.31,0,0,0-.7-.78,1.44,1.44,0,0,0-1.76,0,2.22,2.22,0,0,0-1,1.84,2.07,2.07,0,0,0,.28,1,2.51,2.51,0,0,0,.71.8A1.44,1.44,0,0,0,234.55,73.78Z" class="cls-2"/><path data-cppathid="10010" d="M245.72,82.75a1.65,1.65,0,0,1,0,.27q0,.58-.66.66l-1.42.17a.81.81,0,0,1-1-.66l-.94-3.78a.77.77,0,0,1,0-.15v-.12c0-.4.22-.62.66-.67l1.43-.17a.79.79,0,0,1,.93.66Zm4-.62a1,1,0,0,1,0,.2c0,.42-.24.66-.74.71l-1.47.12a.76.76,0,0,1-.91-.71L246,78.67a.53.53,0,0,1,0-.2c0-.42.25-.66.74-.71l1.47-.12a.76.76,0,0,1,.91.71Zm1.3,8.08a.83.83,0,0,1-.79.54h-.12l-.12,0-1.26-.3c-.39-.1-.59-.3-.59-.61a1,1,0,0,1,.1-.42l5-10.24a.83.83,0,0,1,.79-.54h.12l.12,0,1.26.3c.39.1.59.3.59.61a1,1,0,0,1-.1.42Z" class="cls-2"/><path data-cppathid="10011" d="M262.07,82.16a.84.84,0,0,1-.71.44,1.07,1.07,0,0,1-.37-.08l-1-.31c-.38-.13-.57-.34-.57-.62a.82.82,0,0,1,.17-.46l5.7-8.62a.85.85,0,0,1,.71-.45.91.91,0,0,1,.37.08l1,.32c.37.13.56.33.56.61a1,1,0,0,1-.17.47l-.1.14H279c.46,0,.69.18.69.52a1,1,0,0,1-.15.47l-9.82,15.79a.86.86,0,0,1-.74.46,1.14,1.14,0,0,1-.32,0l-1-.31c-.38-.14-.57-.34-.57-.62a.86.86,0,0,1,.15-.44l8.89-14.34h-9.38Z" class="cls-2"/></g></g></g></g></svg>