<?xml version="1.0" encoding="UTF-8"?>
<svg xmlns="http://www.w3.org/2000/svg" onmouseup="{ if(window.parent.document.onmouseup) window.parent.document.onmouseup(arguments[0]);}" viewBox="0 0 232.26 377.44"><defs><style>.cls-1{fill:#fcc388;}.cls-2{fill:#e33d3c;}.cls-3{fill:#80583a;}.cls-4{fill:#d7d7d7;}.cls-5{fill:#253d54;}.cls-6{fill:#ad2526;}.cls-10,.cls-12,.cls-15,.cls-17,.cls-7{stroke:#000;}.cls-7{stroke-width:0.6px;}.cls-8{fill:#fff;}.cls-9{fill:#f2797a;}.cls-10,.cls-12,.cls-15,.cls-17{fill:none;}.cls-10{stroke-width:1.06px;}.cls-11{fill:#686868;}.cls-12{stroke-width:0.3px;}.cls-13{fill:#919191;}.cls-14{fill:#afafb0;}.cls-15{stroke-width:0.89px;}.cls-16{fill:#c5c4c4;}.cls-17{stroke-width:0.67px;}</style></defs><g data-name="Layer 2" id="Layer_2"><g id="scrumMaster"><path data-cppathid="10000" d="M53.46,185.1c-1,1.08-30.56,5.76-34.81,2.88-6.19-4.2-1.76-40.85-5.31-41.89s14.9-10.05,16.41-.87,3.82,17.69,2.15,25l30.35-1.81Z" class="cls-1"/><path data-cppathid="10001" d="M45.82,156.19,50.1,156c35.66-1.27,44.14,25.51,34.84,28.31-3.22,1-18.1,2.64-36.66,4.23C43.74,182.31,40.66,168.18,45.82,156.19Z" class="cls-2"/><path data-cppathid="10002" d="M102.16,78.68c1.53-6.32-4.44-17.93-12.37-20.7-9.17-3.21-14.09-1.77-18.25,6.18-3.89,7.41-6.17,11.18-15.88,12.33-8.1,1-15-13.82-6.15-17.78,3.18-1.42,10.82,2.53,10,6.7-.56,2.74-6.38,3.63-7.6,1.1,2.33,1.11,2.59,5.69,8.6,1.89,3.67-2.33,1.46-7.76-.42-10.55-8.81-13-22.54.47-19.45,13.46,4.13,17.32,22.88,23.42,35.59,24.3S100.64,85,102.16,78.68Z" class="cls-3"/><path data-cppathid="10003" d="M224.68,361.58c.18,7.46-39.92,14.48-89.57,15.69s-90-3.87-90.22-11.33,39.92-14.49,89.57-15.69S224.5,354.12,224.68,361.58Z" class="cls-4"/><path data-cppathid="10004" d="M65.37,112.66s14.4-85,58.22-83.45,58.4,47,51.1,89.35a410.67,410.67,0,0,0-5,42.54c-1.37,20.75-3.89,35-3.89,35L70,177.94l5.54-12.51.91-10.11s-8.6-39.38-5.17-39c18.37,2.05,15.84,1.5,26.54,1.43,37.22-.23,37-2.62,37-2.62Z" class="cls-1"/><path data-cppathid="10005" d="M169.66,254.12s-9.58,88.92-5.41,94.56,8.54,16,6.46,20.7-35.49-12.56-41.23-17.26-8-65.39-8-71-17.88-1.41-17.88-1.41-2.77,67.74-3.29,71S69,360.59,61.73,359.17s4.69-13.64,4.69-13.64-7.84-98.93-5.75-104.11,107.43-2.35,107.43-2.35Z" class="cls-5"/><path data-cppathid="10006" d="M172.81,155.68C82.4,170.38,72.7,147.77,72.7,147.77l-3.87,19.52s-2.9,21.91-15.6,74.6c31.6,13.86,123.43,6.66,123.43,6.66S173.36,164,172.81,155.68Z" class="cls-6"/><path data-cppathid="10007" d="M99.49,78.55c0,3.76,1.8,6.82,4,6.82s4-3.06,4-6.82-1.8-6.83-4-6.83S99.49,74.78,99.49,78.55Z" class="cls-7"/><path data-cppathid="10008" d="M88.25,77.74c0,3.11,1.48,5.62,3.3,5.62s3.31-2.51,3.31-5.62-1.49-5.62-3.31-5.62S88.25,74.64,88.25,77.74Z" class="cls-7"/><path data-cppathid="10009" d="M98.71,78.54a2,2,0,1,0,2-2A2,2,0,0,0,98.71,78.54Z" class="cls-8"/><path data-cppathid="10010" d="M87.54,77.74a2,2,0,1,0,2-2A2,2,0,0,0,87.54,77.74Z" class="cls-8"/><path data-cppathid="10011" d="M120.26,32.08S161,87.82,178.55,97.7c9.2-30.58-5.48-66.09-44.92-73.86-21-4.13-27.22-5.72-42.95,11.76C78.19,49.48,120.26,32.08,120.26,32.08Z" class="cls-3"/><path data-cppathid="10012" d="M179.92,94s29-42.66-12.84-72.76C128.62-6.4,99.72,23,99,28.31,99,28.31,172.8,23,179.92,94Z" class="cls-2"/><path data-cppathid="10013" d="M145.62,39.05S116.83,1,97.93.1,66.85,5.24,65.42,10.89,97,28.31,97,28.31,125.82,27.52,145.62,39.05Z" class="cls-9"/><path data-cppathid="10014" d="M176.92,98.35c3.15-5.58,15.06-9.11,22.44-5,8.55,4.81,11,9.6,8.64,18.34-2.22,8.16-3.14,12.55,2.87,20.82,5,6.89,19.7,1.86,16.15-7.7-1.28-3.45-9.25-6.55-11.42-3-1.44,2.35,2,7.44,4.57,6.62-2.36-1-5.6,2-7.26-5.29-1-4.44,4.14-6.55,7.32-7,14.84-2.34,15.43,17.64,4.62,24.33-14.43,8.94-31.59-1.2-41.06-10.34S173.77,103.93,176.92,98.35Z" class="cls-3"/><path data-cppathid="10015" d="M192,182.14c1.41.48,17.91,26.36,16.94,31.53-1.41,7.52-37.64,18.34-37.17,22.11s-15.52-9.88-7.53-15.06,15.06-10.82,22.59-12.23l-14.12-27.76Z" class="cls-1"/><path data-cppathid="10016" d="M205,187.84q-1.17-1.89-2.33-3.72c-19.56-30.86-47.1-22.52-44.08-13.05,1,3.27,8.24,16.82,17.64,33.43C184.14,204.71,197.87,199.14,205,187.84Z" class="cls-2"/><path data-cppathid="10017" d="M169.9,233s14.11,6.12,12.23,11.29,3.29-10.35,7.06-9.87-1.88,15.52-4.7,15.52-18.82,1.88-24.47-7.06-.47-17.4,1.88-19.76S169.9,233,169.9,233Z" class="cls-1"/><path data-cppathid="10018" d="M170.84,156.27s-32,1.41-67.74,40.93c0,0-29.64-23.52-29.64-47" class="cls-10"/><polygon data-cppathid="10019" points="110.25 212.95 100.47 217.71 97.81 212.19 103.7 205.87 110.25 212.95" class="cls-11"/><polyline data-cppathid="10020" points="91.98 225.48 98.37 222.02 100.38 223.58" class="cls-12"/><path data-cppathid="10021" d="M101.09,199.65s.36-3.4,5-3.36c4.3,1.06,8.24,7.73,6.18,13.78-2.33,6.85-9.24,3-9.24,3L101,223.78l-.24.12L98.37,222Z" class="cls-13"/><path data-cppathid="10022" d="M94.34,201.35s6.66-5.73,11.19-5.19c.2,0,.41.08.61.13-4.69,0-5,3.36-5,3.36L98.37,222l2.35,1.88-6.57,3.26-2.75-1.88Z" class="cls-14"/><line data-cppathid="10023" y2="209.59" x2="98.6" y1="211.98" x1="94.02" class="cls-15"/><polygon data-cppathid="10024" points="98.37 222.02 100.72 223.9 94.15 227.16 91.4 225.28 98.37 222.02" class="cls-16"/><line data-cppathid="10025" y2="223.86" x2="98.19" y1="225.69" x1="93.89" class="cls-17"/><path data-cppathid="10026" d="M28.37,150.65s1.41-11.31-.38-13c-3.32-3.17-5.07-6.48-7.5-8.66s-3.84-4.61-4.25-1.13,5.5,7.76,2.57,7.42-9.19-4.75-12-5.58-4.1.24-2.44,1.71,9.28,4.69,7.7,5.88c-1.8,1.35-12.12-3.48-12-1.4s9.56,4.14,10.46,5.58-8.83.81-10.08,1.65,10.64,5,12.07,5.37,10.28,4.11,13.3.44Z" class="cls-1"/></g></g></svg>