<?xml version="1.0" encoding="UTF-8"?>
<svg xmlns="http://www.w3.org/2000/svg" onmouseup="{ if(window.parent.document.onmouseup) window.parent.document.onmouseup(arguments[0]);}" viewBox="0 0 889.51 468.97"><defs><style>.cls-1{fill:#fff100;}.cls-2{fill:#603813;}</style></defs><g data-name="Layer 2" id="Layer_2"><g id="backlog"><g data-name="2023 jp" id="_2023_jp"><g data-name="split epic into user stories" id="split_epic_into_user_stories"><circle data-cppathid="10000" transform="translate(-10.82 12.39) rotate(-7.73)" r="86.25" cy="86.25" cx="86.25" class="cls-1"/><path data-cppathid="10001" d="M55.61,75.05c.71,0,1.06.32,1.06,1s-.35,1-1.06,1H31.55c-.7,0-1.06-.32-1.06-1s.36-1,1.06-1H46.88a3,3,0,0,1,0-.39l2.5-13.89h-15c-.71,0-1.06-.32-1.06-1s.35-1,1.06-1H52.67a.89.89,0,0,1,1,1.16l-2.69,15Z" class="cls-2"/><path data-cppathid="10002" d="M83.1,66.09c.71,0,1.06.32,1.06,1s-.35,1-1.06,1H61.53q-1.05,0-1.05-1t1.05-1Z" class="cls-2"/><path data-cppathid="10003" d="M97.25,71.17a.94.94,0,0,1-1.06,1.06h-2a.93.93,0,0,1-1.06-1.06V61.64H88.73q-1,0-1-1t1-1h4.42V56A.93.93,0,0,1,94.21,55h2A.94.94,0,0,1,97.25,56v3.71h7.93c0-.6,0-1.21,0-1.84s0-1.3,0-2,.36-1.12,1.06-1.12h2c.71,0,1.06.53,1.06,1.6V58.1q0,.85,0,1.62h5c.71,0,1.06.32,1.06,1s-.35,1-1.06,1h-5.08q-.1,2.91-.36,5a18.63,18.63,0,0,1-.8,3.76,12.75,12.75,0,0,1-1.45,3,19.79,19.79,0,0,1-2.27,2.8q-1.37,1.41-3.32,3.14a1.16,1.16,0,0,1-.83.38,1.35,1.35,0,0,1-.64-.19l-.73-.38c-.39-.24-.58-.5-.58-.77a1.09,1.09,0,0,1,.38-.71c1-.91,1.83-1.77,2.55-2.56A14.56,14.56,0,0,0,103,72.74,12.69,12.69,0,0,0,104.16,70a21.2,21.2,0,0,0,.67-3.55c.15-1.35.26-2.94.32-4.77h-7.9ZM114,57.87a2.11,2.11,0,0,1,0,.3c0,.45-.25.7-.75.76l-.82.1a.82.82,0,0,1-1.06-.7l-1.46-5.68a1.15,1.15,0,0,1,0-.3c0-.45.25-.7.76-.76l.81-.11a.85.85,0,0,1,1.09.71Zm3.08-1.65a1.15,1.15,0,0,1,0,.3c0,.41-.24.67-.73.76l-.81.13a.86.86,0,0,1-1.1-.7L113,51.4a.94.94,0,0,1,0-.16.86.86,0,0,1,0-.16c0-.4.25-.64.75-.73l.82-.14a.85.85,0,0,1,1.09.71Z" class="cls-2"/><path data-cppathid="10004" d="M143,66.09q1.05,0,1.05,1T143,68H121.44c-.71,0-1.06-.32-1.06-1s.35-1,1.06-1Z" class="cls-2"/><path data-cppathid="10005" d="M27.63,115.69a1.15,1.15,0,0,1-.86.42,1.62,1.62,0,0,1-.61-.16l-.93-.42c-.43-.19-.64-.44-.64-.76a1.22,1.22,0,0,1,.35-.71L42.77,95.82H24.59c-.7,0-1.06-.32-1.06-1s.36-1,1.06-1h22.5c.59,0,.89.21.89.61a1.2,1.2,0,0,1-.35.7l-9.73,10,10.18,8.86a.94.94,0,0,1,.38.71,1,1,0,0,1-.54.76l-.74.42a3.76,3.76,0,0,1-.37.16,1,1,0,0,1-.33.06,1.2,1.2,0,0,1-.77-.35l-9.86-8.57Z" class="cls-2"/><path data-cppathid="10006" d="M59.92,115.53a.93.93,0,0,1-1.06,1.06h-2a.93.93,0,0,1-1.06-1.06V93.29a.93.93,0,0,1,1.06-1.05h2a.93.93,0,0,1,1.06,1.05v9.09l11.58,3.75c.49.17.74.42.74.76a1,1,0,0,1-.19.55l-.13.16a1.08,1.08,0,0,1-.93.54h-.21l-.24,0-10.62-3.43Z" class="cls-2"/><path data-cppathid="10007" d="M98.83,103.09c.7,0,1.06.32,1.06,1s-.36,1-1.06,1H77.26q-1,0-1.05-1t1.05-1Z" class="cls-2"/><path data-cppathid="10008" d="M110,106.19a.94.94,0,0,1-1.06,1.06h-2a.94.94,0,0,1-1.06-1.06v-12a.93.93,0,0,1,1.06-1.06h2A.94.94,0,0,1,110,94.16Zm7.2,9.89a1.17,1.17,0,0,1-1,.61,2.05,2.05,0,0,1-.41-.07l-1.38-.41c-.49-.18-.73-.44-.73-.8a1.14,1.14,0,0,1,.19-.61,37.82,37.82,0,0,0,2-3.68,21.3,21.3,0,0,0,1.28-3.39,23.2,23.2,0,0,0,.71-3.62c.15-1.28.25-2.73.3-4.34s.08-3.47.08-5.58a1,1,0,0,1,1.06-1.09h2c.71,0,1.06.51,1.06,1.54,0,2.3-.07,4.3-.15,6a40.76,40.76,0,0,1-.41,4.48,22.93,22.93,0,0,1-.88,3.65,27.12,27.12,0,0,1-1.47,3.44Q118.51,113.93,117.17,116.08Z" class="cls-2"/><path data-cppathid="10009" d="M149.81,103.09q1,0,1.05,1t-1.05,1H128.24c-.71,0-1.06-.32-1.06-1s.35-1,1.06-1Z" class="cls-2"/><circle data-cppathid="10010" transform="translate(-31.87 18.13) rotate(-5.75)" r="86.25" cy="326.18" cx="164.49" class="cls-1"/><path data-cppathid="10011" d="M133.86,315c.7,0,1.06.32,1.06,1s-.36,1-1.06,1H109.8c-.71,0-1.06-.32-1.06-1s.35-1,1.06-1h15.32a1.82,1.82,0,0,1,0-.38l2.49-13.89h-15q-1,0-1-1t1-1h18.28a.88.88,0,0,1,1,1.15l-2.69,15Z" class="cls-2"/><path data-cppathid="10012" d="M161.35,306q1.05,0,1.05,1t-1.05,1H139.78c-.7,0-1.06-.32-1.06-1s.36-1,1.06-1Z" class="cls-2"/><path data-cppathid="10013" d="M175.49,311.11a.93.93,0,0,1-1.05,1.05h-2a.93.93,0,0,1-1-1.05v-9.54H167c-.7,0-1.06-.32-1.06-1s.36-1,1.06-1h4.42v-3.71a.94.94,0,0,1,1-1.06h2a.94.94,0,0,1,1.05,1.06v3.71h7.94c0-.6,0-1.21,0-1.84s0-1.29,0-2,.35-1.12,1.06-1.12h2c.7,0,1.06.54,1.06,1.6V298c0,.56,0,1.1,0,1.61h5.06c.7,0,1.06.32,1.06,1s-.36,1-1.06,1h-5.09c-.06,1.94-.18,3.62-.35,5a19.34,19.34,0,0,1-.8,3.76,12.85,12.85,0,0,1-1.46,3,19,19,0,0,1-2.27,2.8c-.91.93-2,2-3.31,3.13a1.15,1.15,0,0,1-.83.39,1.35,1.35,0,0,1-.64-.2l-.74-.38c-.38-.24-.57-.49-.57-.77a1,1,0,0,1,.38-.7c1-.92,1.83-1.77,2.54-2.56a14.1,14.1,0,0,0,1.8-2.43,12.76,12.76,0,0,0,1.16-2.79,21,21,0,0,0,.68-3.55c.14-1.34.25-2.93.32-4.77h-7.91Zm16.73-13.3a1.12,1.12,0,0,1,0,.29c0,.45-.25.71-.76.76l-.81.11a.84.84,0,0,1-1.07-.7l-1.46-5.69a1.24,1.24,0,0,1,0-.3q0-.67.75-.75l.82-.11a.85.85,0,0,1,1.09.7Zm3.09-1.66a1.26,1.26,0,0,1,0,.3c0,.42-.25.67-.73.76l-.82.13a.84.84,0,0,1-1.09-.7l-1.43-5.3a.53.53,0,0,1,0-.17.78.78,0,0,1,0-.16c0-.4.25-.64.76-.73l.81-.13a.86.86,0,0,1,1.1.7Z" class="cls-2"/><path data-cppathid="10014" d="M221.25,306c.71,0,1.06.32,1.06,1s-.35,1-1.06,1H199.68q-1.05,0-1.05-1t1.05-1Z" class="cls-2"/><path data-cppathid="10015" d="M105.88,355.63a1.19,1.19,0,0,1-.87.41,1.66,1.66,0,0,1-.61-.16l-.92-.41c-.43-.19-.64-.45-.64-.77a1.14,1.14,0,0,1,.35-.7L121,335.76H102.84c-.71,0-1.06-.32-1.06-1s.35-1,1.06-1h22.49q.9,0,.9.6a1.22,1.22,0,0,1-.35.71l-9.73,10L126.32,354a.89.89,0,0,1,.39.7c0,.28-.18.53-.55.77l-.73.41a2.3,2.3,0,0,1-.37.16.86.86,0,0,1-.34.07,1.23,1.23,0,0,1-.76-.35l-9.86-8.58Z" class="cls-2"/><path data-cppathid="10016" d="M138.16,355.47a.93.93,0,0,1-1,1h-2a.93.93,0,0,1-1.05-1V333.23a.93.93,0,0,1,1.05-1.06h2a.93.93,0,0,1,1,1.06v9.09l11.59,3.74c.49.17.73.43.73.77a1,1,0,0,1-.19.54l-.13.16a1.06,1.06,0,0,1-.92.55l-.21,0-.24-.05-10.63-3.42Z" class="cls-2"/><path data-cppathid="10017" d="M177.08,343q1,0,1,1t-1,1H155.51c-.71,0-1.06-.32-1.06-1s.35-1,1.06-1Z" class="cls-2"/><path data-cppathid="10018" d="M188.21,346.12a.93.93,0,0,1-1.05,1.06h-2a.93.93,0,0,1-1-1.06v-12a.93.93,0,0,1,1-1h2a.93.93,0,0,1,1.05,1Zm7.2,9.89a1.13,1.13,0,0,1-1,.61,1.91,1.91,0,0,1-.42-.06l-1.37-.42c-.49-.17-.74-.44-.74-.8a1.3,1.3,0,0,1,.19-.61,38.06,38.06,0,0,0,2-3.68,22.31,22.31,0,0,0,1.28-3.39,23.22,23.22,0,0,0,.7-3.62c.15-1.28.25-2.72.31-4.33s.08-3.47.08-5.59a.94.94,0,0,1,1.05-1.08h2q1.05,0,1.05,1.53c0,2.31-.07,4.3-.14,6A41,41,0,0,1,200,345a20.84,20.84,0,0,1-.88,3.64,24.51,24.51,0,0,1-1.47,3.44C197.05,353.29,196.31,354.58,195.41,356Z" class="cls-2"/><path data-cppathid="10019" d="M228.05,343c.71,0,1.06.32,1.06,1s-.35,1-1.06,1H206.48q-1,0-1-1t1-1Z" class="cls-2"/><circle data-cppathid="10020" transform="translate(-1.01 2.8) rotate(-0.21)" r="128.63" cy="275.79" cx="760.88" class="cls-1"/><path data-cppathid="10021" d="M731.55,262.59c.71,0,1.06.32,1.06,1s-.35,1-1.06,1H707.49c-.71,0-1.06-.32-1.06-1s.35-1,1.06-1h15.33a3,3,0,0,1,0-.38l2.49-13.89h-15c-.71,0-1.06-.32-1.06-1s.35-1,1.06-1h18.27a1,1,0,0,1,.8.3,1,1,0,0,1,.16.85l-2.69,15Z" class="cls-2"/><path data-cppathid="10022" d="M759,253.63c.7,0,1.06.32,1.06,1s-.36,1-1.06,1H737.47q-1.05,0-1.05-1t1.05-1Z" class="cls-2"/><path data-cppathid="10023" d="M773.18,258.72a.94.94,0,0,1-1,1.06h-2a.94.94,0,0,1-1-1.06v-9.54h-4.42c-.7,0-1.06-.32-1.06-1s.36-1,1.06-1h4.42v-3.71a.93.93,0,0,1,1-1.05h2a.93.93,0,0,1,1,1.05v3.71h7.94c0-.59,0-1.21,0-1.84s0-1.29,0-2,.35-1.12,1.06-1.12h2c.71,0,1.06.54,1.06,1.6v1.75c0,.56,0,1.1,0,1.61h5.06c.71,0,1.06.32,1.06,1s-.35,1-1.06,1h-5.09c-.06,1.95-.18,3.63-.35,5A19.45,19.45,0,0,1,784,258a13.35,13.35,0,0,1-1.45,3,19.21,19.21,0,0,1-2.28,2.8c-.9.94-2,2-3.31,3.14a1.18,1.18,0,0,1-.83.38,1.44,1.44,0,0,1-.64-.19l-.74-.39c-.38-.23-.57-.49-.57-.76a1,1,0,0,1,.38-.71c1-.92,1.83-1.77,2.54-2.56a14.1,14.1,0,0,0,1.8-2.43,12.57,12.57,0,0,0,1.17-2.79,21.84,21.84,0,0,0,.67-3.55c.15-1.34.25-2.93.32-4.77h-7.91Zm16.73-13.3a1.15,1.15,0,0,1,0,.3c0,.45-.25.7-.76.75l-.81.11a.84.84,0,0,1-1.07-.7l-1.45-5.68a1.26,1.26,0,0,1,0-.3c0-.45.25-.71.75-.76l.82-.11a.85.85,0,0,1,1.09.71Zm3.09-1.65a1.15,1.15,0,0,1,0,.3c0,.41-.25.66-.73.75l-.82.14a.86.86,0,0,1-1.09-.71L789,239a.94.94,0,0,1,0-.16,1,1,0,0,1,0-.17c0-.39.26-.63.76-.73l.81-.13a.86.86,0,0,1,1.1.7Z" class="cls-2"/><path data-cppathid="10024" d="M818.94,253.63c.71,0,1.06.32,1.06,1s-.35,1-1.06,1H797.38c-.71,0-1.06-.32-1.06-1s.35-1,1.06-1Z" class="cls-2"/><path data-cppathid="10025" d="M703.57,303.24a1.17,1.17,0,0,1-.87.42,1.79,1.79,0,0,1-.6-.16l-.93-.42c-.43-.19-.64-.45-.64-.77a1.17,1.17,0,0,1,.35-.7l17.82-18.24H700.53c-.71,0-1.06-.32-1.06-1s.35-1,1.06-1H723c.6,0,.9.2.9.61a1.23,1.23,0,0,1-.35.7l-9.73,10L724,301.61a.93.93,0,0,1,.38.7,1,1,0,0,1-.54.77l-.74.42-.37.16a1.05,1.05,0,0,1-.33.06,1.23,1.23,0,0,1-.77-.35l-9.86-8.58Z" class="cls-2"/><path data-cppathid="10026" d="M735.86,303.08a.94.94,0,0,1-1.06,1.06h-2a.94.94,0,0,1-1.06-1.06V280.84a.94.94,0,0,1,1.06-1.06h2a.94.94,0,0,1,1.06,1.06v9.09l11.58,3.74c.49.17.74.43.74.77a1,1,0,0,1-.2.55l-.12.15a1.07,1.07,0,0,1-.93.55l-.21,0a1,1,0,0,1-.24-.05l-10.62-3.42Z" class="cls-2"/><path data-cppathid="10027" d="M774.77,290.63q1.05,0,1.05,1t-1.05,1H753.2c-.7,0-1.06-.32-1.06-1s.36-1,1.06-1Z" class="cls-2"/><path data-cppathid="10028" d="M785.9,293.74a.93.93,0,0,1-1,1.05h-2a.93.93,0,0,1-1.05-1.05v-12a.93.93,0,0,1,1.05-1.05h2a.93.93,0,0,1,1,1.05Zm7.2,9.88a1.12,1.12,0,0,1-1,.61,2,2,0,0,1-.42-.06l-1.37-.42c-.49-.17-.74-.43-.74-.8a1.3,1.3,0,0,1,.19-.61,35,35,0,0,0,2-3.68,22.31,22.31,0,0,0,1.28-3.39,22,22,0,0,0,.7-3.61c.15-1.28.26-2.73.31-4.34s.08-3.47.08-5.58c0-.73.35-1.09,1.05-1.09h2q1,0,1,1.53c0,2.31-.06,4.3-.14,6a38.49,38.49,0,0,1-.42,4.48,21,21,0,0,1-.88,3.65,25,25,0,0,1-1.47,3.44C794.75,300.9,794,302.2,793.1,303.62Z" class="cls-2"/><path data-cppathid="10029" d="M825.74,290.63c.71,0,1.06.32,1.06,1s-.35,1-1.06,1H804.17q-1,0-1-1t1-1Z" class="cls-2"/><ellipse data-cppathid="10030" ry="108.59" rx="148.2" cy="360.38" cx="452.63" class="cls-1"/><path data-cppathid="10031" d="M425.21,348.18c.7,0,1.06.32,1.06,1s-.36,1-1.06,1H401.15c-.71,0-1.06-.32-1.06-1s.35-1,1.06-1h15.32a1.89,1.89,0,0,1,0-.38L419,333.91H404q-1,0-1.05-1t1.05-1h18.28a.88.88,0,0,1,1,1.15l-2.69,15Z" class="cls-2"/><path data-cppathid="10032" d="M452.7,339.22q1.05,0,1.05,1t-1.05,1H431.13c-.7,0-1.06-.32-1.06-1s.36-1,1.06-1Z" class="cls-2"/><path data-cppathid="10033" d="M466.84,344.31a.93.93,0,0,1-1,1.05h-2a.93.93,0,0,1-1.05-1.05v-9.54h-4.42c-.7,0-1.06-.32-1.06-1s.36-1,1.06-1h4.42v-3.71a.94.94,0,0,1,1.05-1.06h2a.94.94,0,0,1,1,1.06v3.71h7.94c0-.6,0-1.21,0-1.84s0-1.29,0-2,.35-1.12,1.06-1.12h2c.7,0,1.06.54,1.06,1.6v1.75c0,.56,0,1.1,0,1.61h5.06c.7,0,1.06.32,1.06,1s-.36,1-1.06,1h-5.09c-.06,1.94-.18,3.62-.35,5a19.34,19.34,0,0,1-.8,3.76,12.85,12.85,0,0,1-1.46,3,19,19,0,0,1-2.27,2.8c-.91.93-2,2-3.31,3.13a1.15,1.15,0,0,1-.83.39,1.35,1.35,0,0,1-.64-.2l-.74-.38c-.38-.24-.57-.49-.57-.77a1,1,0,0,1,.38-.7c1-.92,1.83-1.77,2.54-2.56a13.53,13.53,0,0,0,1.79-2.43,12.78,12.78,0,0,0,1.17-2.79,21,21,0,0,0,.68-3.55c.14-1.34.25-2.93.32-4.77h-7.91ZM483.57,331a1.12,1.12,0,0,1,0,.29c0,.45-.25.71-.76.76l-.81.11a.84.84,0,0,1-1.07-.7l-1.46-5.69a1.24,1.24,0,0,1,0-.3q0-.68.75-.75l.82-.11a.85.85,0,0,1,1.09.7Zm3.09-1.66a1.26,1.26,0,0,1,0,.3c0,.42-.25.67-.73.76l-.82.13a.84.84,0,0,1-1.09-.7l-1.43-5.3a.53.53,0,0,1,0-.17.78.78,0,0,1,0-.16c0-.39.25-.64.76-.73l.81-.13a.86.86,0,0,1,1.1.7Z" class="cls-2"/><path data-cppathid="10034" d="M512.6,339.22c.71,0,1.06.32,1.06,1s-.35,1-1.06,1H491q-1,0-1-1t1-1Z" class="cls-2"/><path data-cppathid="10035" d="M397.23,388.83a1.19,1.19,0,0,1-.87.41,1.66,1.66,0,0,1-.61-.16l-.92-.41c-.43-.19-.64-.45-.64-.77a1.14,1.14,0,0,1,.35-.7L412.36,369H394.19c-.71,0-1.06-.32-1.06-1s.35-1,1.06-1h22.49q.9,0,.9.6a1.22,1.22,0,0,1-.35.71l-9.73,10,10.17,8.87a.89.89,0,0,1,.39.7c0,.28-.18.53-.55.77l-.73.41a2.3,2.3,0,0,1-.37.16.86.86,0,0,1-.34.07,1.23,1.23,0,0,1-.76-.35l-9.86-8.58Z" class="cls-2"/><path data-cppathid="10036" d="M429.51,388.67a.93.93,0,0,1-1.05,1.05h-2a.93.93,0,0,1-1.05-1.05V366.43a.93.93,0,0,1,1.05-1.06h2a.93.93,0,0,1,1.05,1.06v9.09l11.59,3.74c.49.17.73.43.73.77a1,1,0,0,1-.19.54l-.13.16a1.06,1.06,0,0,1-.92.55l-.21,0-.24-.05-10.63-3.42Z" class="cls-2"/><path data-cppathid="10037" d="M468.43,376.22q1.05,0,1.05,1t-1.05,1H446.86c-.71,0-1.06-.32-1.06-1s.35-1,1.06-1Z" class="cls-2"/><path data-cppathid="10038" d="M479.56,379.32a.93.93,0,0,1-1.05,1.06h-2a.93.93,0,0,1-1-1.06v-12a.93.93,0,0,1,1-1.05h2a.93.93,0,0,1,1.05,1.05Zm7.2,9.89a1.13,1.13,0,0,1-1,.61,1.91,1.91,0,0,1-.42-.06l-1.37-.42c-.49-.17-.74-.44-.74-.8a1.3,1.3,0,0,1,.19-.61,38.06,38.06,0,0,0,2-3.68,22.31,22.31,0,0,0,1.28-3.39,23.22,23.22,0,0,0,.7-3.62c.15-1.28.25-2.72.31-4.33s.08-3.47.08-5.59a.94.94,0,0,1,1.05-1.08h2q1,0,1.05,1.53c0,2.31-.07,4.3-.14,6a41,41,0,0,1-.42,4.48,20.84,20.84,0,0,1-.88,3.64,24.51,24.51,0,0,1-1.47,3.44C488.4,386.49,487.66,387.78,486.76,389.21Z" class="cls-2"/><path data-cppathid="10039" d="M519.4,376.22c.71,0,1.06.32,1.06,1s-.35,1-1.06,1H497.83q-1.05,0-1.05-1t1.05-1Z" class="cls-2"/></g><circle data-cppathid="10040" transform="translate(-14.24 43.65) rotate(-7.73)" r="86.25" cy="127.21" cx="315.82" class="cls-1"/><path data-cppathid="10041" d="M285.19,116q1.05,0,1.05,1t-1.05,1H261.12q-1,0-1.05-1t1.05-1h15.33a2.87,2.87,0,0,1,0-.38l2.5-13.89H264c-.7,0-1.06-.32-1.06-1s.36-1,1.06-1h18.27a1,1,0,0,1,.8.3,1,1,0,0,1,.16.85l-2.69,15Z" class="cls-2"/><path data-cppathid="10042" d="M312.67,107.05c.71,0,1.06.32,1.06,1s-.35,1-1.06,1H291.11c-.71,0-1.06-.32-1.06-1s.35-1,1.06-1Z" class="cls-2"/><path data-cppathid="10043" d="M326.82,112.14a.93.93,0,0,1-1.06,1h-2a.93.93,0,0,1-1.06-1V102.6H318.3q-1.05,0-1.05-1t1.05-1h4.42V97a.94.94,0,0,1,1.06-1.06h2A.94.94,0,0,1,326.82,97v3.71h7.93c0-.6,0-1.21,0-1.84s0-1.29,0-2,.36-1.12,1.06-1.12h2c.71,0,1.06.54,1.06,1.6v1.75c0,.56,0,1.1,0,1.61h5.06q1.05,0,1,1t-1,1h-5.09c-.07,1.94-.18,3.62-.35,5a19.31,19.31,0,0,1-.81,3.76,12.82,12.82,0,0,1-1.45,3,20.37,20.37,0,0,1-2.27,2.8c-.91.93-2,2-3.31,3.13a1.18,1.18,0,0,1-.84.39,1.38,1.38,0,0,1-.64-.2l-.73-.38c-.39-.24-.58-.49-.58-.77a1.07,1.07,0,0,1,.38-.7c1-.92,1.83-1.77,2.55-2.56a14.56,14.56,0,0,0,1.79-2.43,12.78,12.78,0,0,0,1.17-2.79,21,21,0,0,0,.67-3.55c.15-1.34.26-2.93.32-4.77h-7.9Zm16.73-13.3a1.12,1.12,0,0,1,0,.29c0,.45-.26.71-.76.76L342,100a.83.83,0,0,1-1.06-.7l-1.46-5.69a1.15,1.15,0,0,1,0-.3c0-.45.25-.7.76-.75l.81-.11a.86.86,0,0,1,1.1.7Zm3.08-1.66a1.26,1.26,0,0,1,0,.3c0,.42-.24.67-.73.76l-.81.13a.86.86,0,0,1-1.1-.7l-1.43-5.3a1,1,0,0,1,0-.17.81.81,0,0,1,0-.16c0-.39.25-.64.76-.73l.81-.13a.85.85,0,0,1,1.09.7Z" class="cls-2"/><path data-cppathid="10044" d="M372.58,107.05q1.05,0,1.05,1t-1.05,1H351c-.71,0-1.06-.32-1.06-1s.35-1,1.06-1Z" class="cls-2"/><path data-cppathid="10045" d="M257.2,156.66a1.15,1.15,0,0,1-.86.41,1.66,1.66,0,0,1-.61-.16l-.93-.41c-.43-.19-.64-.45-.64-.77a1.2,1.2,0,0,1,.35-.7l17.83-18.24H254.16q-1,0-1-1t1-1h22.5c.59,0,.89.2.89.6a1.16,1.16,0,0,1-.35.71l-9.73,10L277.65,155a.88.88,0,0,1,.38.7,1,1,0,0,1-.54.77l-.74.41a2.22,2.22,0,0,1-.36.16.86.86,0,0,1-.34.07,1.26,1.26,0,0,1-.77-.35l-9.85-8.58Z" class="cls-2"/><path data-cppathid="10046" d="M289.49,156.5a.93.93,0,0,1-1.06,1.05h-2a.94.94,0,0,1-1.06-1.05V134.26a.94.94,0,0,1,1.06-1.06h2a.93.93,0,0,1,1.06,1.06v9.09l11.58,3.74c.49.17.74.43.74.77a1,1,0,0,1-.19.54l-.13.16a1.08,1.08,0,0,1-.93.55l-.21,0-.24-.05-10.62-3.42Z" class="cls-2"/><path data-cppathid="10047" d="M328.4,144.05c.71,0,1.06.32,1.06,1s-.35,1-1.06,1H306.83q-1.05,0-1.05-1t1.05-1Z" class="cls-2"/><path data-cppathid="10048" d="M339.54,147.15a.94.94,0,0,1-1.06,1.06h-2a.93.93,0,0,1-1.06-1.06v-12a.93.93,0,0,1,1.06-1.05h2a.94.94,0,0,1,1.06,1.05Zm7.2,9.89a1.15,1.15,0,0,1-1,.61,1.91,1.91,0,0,1-.41-.06l-1.38-.42c-.49-.17-.73-.44-.73-.8a1.2,1.2,0,0,1,.19-.61,40.35,40.35,0,0,0,2-3.68,21.24,21.24,0,0,0,1.27-3.39,22.1,22.1,0,0,0,.71-3.62c.15-1.28.25-2.72.3-4.33s.08-3.47.08-5.59a1,1,0,0,1,1.06-1.08h2c.71,0,1.06.51,1.06,1.53,0,2.31-.07,4.3-.15,6a41.23,41.23,0,0,1-.41,4.48,21.78,21.78,0,0,1-.88,3.64,25.75,25.75,0,0,1-1.47,3.44C348.38,154.32,347.63,155.61,346.74,157Z" class="cls-2"/><path data-cppathid="10049" d="M379.38,144.05q1,0,1.05,1t-1.05,1H357.81c-.71,0-1.06-.32-1.06-1s.35-1,1.06-1Z" class="cls-2"/><circle data-cppathid="10050" transform="translate(-11.39 72.88) rotate(-7.73)" r="86.25" cy="120.74" cx="533.54" class="cls-1"/><path data-cppathid="10051" d="M502.91,109.54c.7,0,1.06.32,1.06,1s-.36,1-1.06,1H478.85c-.71,0-1.06-.31-1.06-1s.35-1,1.06-1h15.32a2,2,0,0,1,0-.38l2.49-13.89h-15q-1.05,0-1.05-1t1.05-1H500a.88.88,0,0,1,1,1.15l-2.69,15Z" class="cls-2"/><path data-cppathid="10052" d="M530.4,100.58q1.05,0,1.05,1c0,.65-.35,1-1.05,1H508.83c-.7,0-1.06-.31-1.06-1s.36-1,1.06-1Z" class="cls-2"/><path data-cppathid="10053" d="M544.54,105.67a.93.93,0,0,1-1,1.06h-2a.93.93,0,0,1-1-1.06V96.14H536c-.71,0-1.06-.32-1.06-1s.35-1,1.06-1h4.42V90.5a.93.93,0,0,1,1-1h2a.93.93,0,0,1,1,1v3.72h7.94c0-.6,0-1.21,0-1.84s0-1.3,0-2,.35-1.12,1.06-1.12h2c.7,0,1.06.53,1.06,1.6V92.6c0,.57,0,1.1,0,1.62h5.06c.7,0,1.06.32,1.06,1s-.36,1-1.06,1h-5.09c-.06,1.94-.18,3.62-.35,5a19.34,19.34,0,0,1-.8,3.76,12.78,12.78,0,0,1-1.46,3,19.11,19.11,0,0,1-2.27,2.8c-.91.94-2,2-3.31,3.14a1.18,1.18,0,0,1-.83.38,1.29,1.29,0,0,1-.64-.19l-.74-.39c-.38-.23-.57-.49-.57-.76a1,1,0,0,1,.38-.71c1-.91,1.83-1.77,2.54-2.56a14,14,0,0,0,1.79-2.43,12.69,12.69,0,0,0,1.17-2.78,21.08,21.08,0,0,0,.68-3.56c.14-1.34.25-2.93.32-4.76h-7.91Zm16.73-13.3a1.15,1.15,0,0,1,0,.3c0,.45-.25.7-.76.76l-.81.1a.84.84,0,0,1-1.07-.7l-1.46-5.68a1.28,1.28,0,0,1,0-.3c0-.45.25-.7.75-.76l.82-.11a.86.86,0,0,1,1.09.71Zm3.09-1.65a1.15,1.15,0,0,1,0,.3c0,.41-.25.67-.73.76l-.82.13a.85.85,0,0,1-1.09-.7l-1.43-5.31a.47.47,0,0,1,0-.16.88.88,0,0,1,0-.16c0-.4.25-.64.76-.73l.81-.14a.86.86,0,0,1,1.1.7Z" class="cls-2"/><path data-cppathid="10054" d="M590.3,100.58c.71,0,1.06.32,1.06,1s-.35,1-1.06,1H568.73c-.7,0-1.05-.31-1.05-1s.35-1,1.05-1Z" class="cls-2"/><path data-cppathid="10055" d="M474.93,150.19a1.17,1.17,0,0,1-.87.42,1.66,1.66,0,0,1-.61-.16l-.92-.42c-.43-.19-.64-.45-.64-.77a1.17,1.17,0,0,1,.35-.7l17.82-18.24H471.89c-.71,0-1.06-.32-1.06-1s.35-1,1.06-1h22.49c.6,0,.9.2.9.61a1.2,1.2,0,0,1-.35.7l-9.73,10,10.17,8.86a.91.91,0,0,1,.39.7,1,1,0,0,1-.55.77l-.73.42a3.76,3.76,0,0,1-.37.16,1.06,1.06,0,0,1-.34.06,1.18,1.18,0,0,1-.76-.35l-9.86-8.58Z" class="cls-2"/><path data-cppathid="10056" d="M507.21,150a.93.93,0,0,1-1,1.06h-2a.93.93,0,0,1-1.05-1.06V127.79a.93.93,0,0,1,1.05-1.05h2a.93.93,0,0,1,1,1.05v9.09l11.59,3.74c.49.18.73.43.73.77a1,1,0,0,1-.19.55l-.13.16a1.05,1.05,0,0,1-.92.54.75.75,0,0,1-.21,0l-.24,0-10.63-3.43Z" class="cls-2"/><path data-cppathid="10057" d="M546.13,137.58q1.05,0,1,1c0,.65-.35,1-1,1H524.56c-.71,0-1.06-.31-1.06-1s.35-1,1.06-1Z" class="cls-2"/><path data-cppathid="10058" d="M557.26,140.69a.93.93,0,0,1-1,1.05h-2a.93.93,0,0,1-1.05-1.05v-12a.93.93,0,0,1,1.05-1.06h2a.93.93,0,0,1,1,1.06Zm7.2,9.89a1.15,1.15,0,0,1-1,.61,2,2,0,0,1-.42-.07l-1.37-.42c-.49-.17-.74-.43-.74-.8a1.23,1.23,0,0,1,.19-.6,39.27,39.27,0,0,0,2-3.68,22.31,22.31,0,0,0,1.28-3.39,23.45,23.45,0,0,0,.7-3.62c.15-1.28.25-2.73.31-4.34s.08-3.47.08-5.58c0-.73.35-1.09,1.05-1.09h2c.7,0,1.05.51,1.05,1.54,0,2.3-.07,4.3-.14,6a40.57,40.57,0,0,1-.42,4.48,21,21,0,0,1-.88,3.65,24.51,24.51,0,0,1-1.47,3.44C566.1,147.85,565.36,149.15,564.46,150.58Z" class="cls-2"/><path data-cppathid="10059" d="M597.1,137.58c.7,0,1.06.32,1.06,1s-.36,1-1.06,1H575.53c-.7,0-1-.31-1-1s.35-1,1-1Z" class="cls-2"/></g></g></g></svg>