<?xml version="1.0" encoding="UTF-8"?>
<svg xmlns="http://www.w3.org/2000/svg" onmouseup="{ if(window.parent.document.onmouseup) window.parent.document.onmouseup(arguments[0]);}" viewBox="0 0 1636.5 828.41"><defs><style>.cls-1{fill:#9f91a9;}.cls-2{fill:#ab9cb4;}.cls-3{fill:#b8a7c1;}.cls-4{fill:#c4b2cd;}.cls-5{fill:#6f6575;}.cls-6{fill:#cec0d6;}.cls-7{fill:#d9cedf;}.cls-8{fill:#f04843;}.cls-9{fill:#f59193;}.cls-10{fill:#ca3930;}.cls-11{fill:#f27279;}.cls-12{fill:#ef423b;}.cls-13{fill:#fbd0cd;}.cls-14{fill:#f16060;}.cls-15{fill:#f7a5a5;}.cls-16{fill:#f9bbb8;}.cls-17{fill:#fff;}.cls-18{fill:#e6f0f7;}</style></defs><g data-name="Layer 2" id="Layer_2"><g id="rock"><path data-cppathid="10000" d="M708.8,557.31C590.05,504.23,500.09,430.78,424.65,395.07c-114.48,105.31-6.11,142.55-6.11,142.55S601.67,550,665.9,674.35c41,79.29,197.43,108,305.38,118.35C985.22,758.82,977.71,677.51,708.8,557.31Z" class="cls-1"/><path data-cppathid="10001" d="M1512.24,513.6c-26.9-13.86-38.21-78.66-21.64-114.15-44.38-28.37-95.46-75.78-95.46-75.78s-45.23,36.07-39.64,48.42,7.65,50.29,7.65,50.29l-49,21.47c-48.94-23.64-65.19-159.73-68.59,20.25s-99.67,93.42-99.67,93.42c-65.92-59.24-91.49-112-91.49-112s-128.8,6-169.39-22.95-135.16,46.49-135.16,46.49C516.67,613,727.19,397.81,658,383.33s-105.2,47.29-92.61-57c1.32-10.9.3-19.65-2.54-26.61C498.29,336.38,454.1,368,424.65,395.07c75.44,35.71,165.4,109.16,284.15,162.24C977.71,677.51,985.22,758.82,971.28,792.7c61.3,5.9,107,5.9,107,5.9s57.63,43.11,163.25-1.31c40.66-17.1,65.29-18.82,98.12-21.78,14.6-31.83,35.89-66.36,58.8-63.81,41.89,4.66,64.41-107,92-58.85S1558.63,537.51,1512.24,513.6Z" class="cls-2"/><path data-cppathid="10002" d="M1395.14,323.67c-8.44-60.21-43.9-119.67-90.47-171.4-31.18,25.32-61.09,48.55-78.91,13.93-36.51-70.92-34.65,124.94-107,59s-146.2-10.95-146.2-10.95l-49.11,4.28-14.89-11.86-9.86-5.41-1.19,1.21s-39.81,8.75-18.41,32.17-61,53.11-61,53.11-34.88,14.58-40.78-39-22.07,24.11-99.77,39.86c-29,5.88-47-4.29-58.33-19.35q-30.42,15.78-56.32,30.47c2.84,7,3.86,15.71,2.54,26.61-12.59,104.25,23.42,42.48,92.61,57S516.67,613,749.85,469.06c0,0,94.57-75.43,135.16-46.49s169.39,22.95,169.39,22.95,25.57,52.76,91.49,112c0,0,96.28,86.56,99.67-93.42s19.65-43.89,68.59-20.25l49-21.47s-2.07-37.94-7.65-50.29S1395.14,323.67,1395.14,323.67Z" class="cls-3"/><path data-cppathid="10003" d="M818.32,178.06v0l53.24,8.35,36.94,20.25,14.89,11.86,49.11-4.28s73.81-55,146.2,10.95,70.54-129.94,107-59c17.82,34.62,47.73,11.39,78.91-13.93-56.69-63-129.85-114.52-190.86-142C1012-35.64,884.67,175,818.32,178.06Z" class="cls-4"/><path data-cppathid="10004" d="M1525.82,417.61c-10.28-3.43-22.47-10-35.22-18.16-16.57,35.49-5.26,100.29,21.64,114.15,46.39,23.91,5.7,187.36-21.85,139.25s-50.08,63.51-92,58.85c-22.91-2.55-44.2,32-58.8,63.81,39.81-3.59,91.71-9,198.92-45.84C1734.17,662.45,1571.88,433,1525.82,417.61Z" class="cls-1"/><path data-cppathid="10005" d="M677.51,288.64c77.7-15.75,93.89-93.44,99.77-39.86s40.78,39,40.78,39,82.38-29.7,61-53.11,18.41-32.17,18.41-32.17l1.19-1.21-27.08-14.84-53.24-8.35v0a25.78,25.78,0,0,1-16.55-4.61c-59.51-42-102.7,56.19-129.86,69.38-18.68,9.07-36.2,17.88-52.73,26.46C630.47,284.35,648.55,294.52,677.51,288.64Z" class="cls-4"/><path data-cppathid="10006" d="M901.79,787.75c-131-20.56-211.53-58.14-239.19-111.7-49.32-95.45-170.85-124-220.82-131.83-14.41-2.26-23.4-2.89-23.49-2.89a3.83,3.83,0,0,1-1-.2c-1.9-.65-46.39-16.38-48.84-56.61-3.85-63.44,97.68-145.88,301.78-245C677.5,236,687,224.7,697,212.75c21.7-25.89,48.7-58.12,82.49-52.81,8.2,1.28,16.43,4.81,24.46,10.47a21.2,21.2,0,0,0,9.14,3.72C837.72,178,876.17,142,916.87,103.84,973,51.28,1036.56-8.3,1095.54,1a76.88,76.88,0,0,1,19.8,5.92c105.65,47.6,263,176.63,283.29,315,9.47,8.68,86.19,78.17,128.36,92.25,30.67,10.25,109.13,107.82,109.51,197.51.25,57.71-33.21,99.76-96.75,121.59-110.69,38-162,42.64-203.17,46.33-30.68,2.75-54.91,4.93-93.64,21.21-42.48,17.86-82.36,24-118.54,18.37-27.21-4.27-43.2-14-47.32-16.78C1066.56,802.23,987.68,801.23,901.79,787.75ZM442.93,536.88c51.09,8,175.4,37.29,226.27,135.76,33,64,145.34,93.9,233.74,107.77,91.26,14.32,174.48,14.47,175.31,14.47a3.69,3.69,0,0,1,2.23.74c.15.11,15.81,11.53,45.07,16.13,34.8,5.45,73.33-.56,114.51-17.88,39.79-16.73,64.53-19,95.86-21.76,40.8-3.66,91.58-8.21,201.42-46,61.1-21,92-59.53,91.73-114.53-.37-85-76-181-104.43-190.49-46.29-15.46-128.55-91.51-132-94.74a3.69,3.69,0,0,1-1.15-2.21c-19.07-136-174.73-263.47-279.17-310.53a70,70,0,0,0-17.9-5.35C1039-.39,976.81,57.86,922,109.26c-43.89,41.13-81.8,76.65-110.06,72.22a28.89,28.89,0,0,1-12.26-5c-7.09-5-14.27-8.1-21.33-9.2-29.64-4.66-55.15,25.79-75.64,50.25-11,13.11-20.48,24.44-29.13,28.64C423.08,367.84,373.45,442.67,375.92,484c2,33.34,39,48.28,43.41,49.93C421.51,534.12,430,534.85,442.93,536.88Z" class="cls-5"/><path data-cppathid="10007" d="M1145.31,561.19a3.7,3.7,0,0,1-1.9-.91c-59-53-85.63-100.24-91.24-110.94-18.44.69-130.77,3.73-169.32-23.74C845,398.59,753.09,471.22,752.17,472a3.71,3.71,0,1,1-4.63-5.81c4-3.15,97.25-76.82,139.63-46.61,39.08,27.86,165.79,22.33,167.06,22.27a3.73,3.73,0,0,1,3.51,2.09c.26.52,26.1,52.87,90.63,110.85a3.72,3.72,0,0,1-3.06,6.44Z" class="cls-5"/><path data-cppathid="10008" d="M949.56,489.4l-54.4,24.54c-3.83-2.52-14.54-10.54-25.22-27.45-12-19-36.55-14.7-49.22-9.31l-29.35-13.09a3.72,3.72,0,0,0-3,6.79l30.85,13.76a3.78,3.78,0,0,0,3.09,0,57,57,0,0,1,11.85-3.77l-4.25,27.1a3.73,3.73,0,0,0,4.57,4.18c.12,0,12-2.9,18.94,2.92,4,3.38,5.71,9.29,5.09,17.57l-2.4,32.21a3.71,3.71,0,0,0,3.12,3.95l.3,0a3.73,3.73,0,0,0,4-3.43l2.4-32.22c.81-10.81-1.8-18.82-7.74-23.82-6.3-5.29-14.73-5.69-20.14-5.25l3.79-24.15c7.92-.23,16.46,2,21.85,10.52,14.42,22.84,28.9,30.64,29.51,31a3.76,3.76,0,0,0,1.16.38,3.64,3.64,0,0,0,2.1-.29l56.19-25.35a3.71,3.71,0,1,0-3.06-6.77Z" class="cls-5"/><path data-cppathid="10009" d="M1398,321.35a3.72,3.72,0,0,0-5.22-.59c-11.14,8.89-47,39-40.71,52.86,4,8.91,6.4,34.45,7.18,46.4l-46.63,20.43a3.72,3.72,0,0,0,3,6.81l49-21.48a3.71,3.71,0,0,0,2.22-3.61c-.08-1.57-2.17-38.77-8-51.61-2.63-5.81,17.82-27.43,38.57-44A3.71,3.71,0,0,0,1398,321.35Z" class="cls-5"/><path data-cppathid="10010" d="M817.75,181.76l52.6,8.25L890,200.8c-7.09,2.49-17.52,7.55-20.32,16.38-2,6.29.22,13,6.59,20,2.27,2.49,3,4.93,2.33,7.69-3.81,15.42-45.92,33.69-61.83,39.42a3.72,3.72,0,0,0,.69,7.17,3.85,3.85,0,0,0,1.83-.17c6.24-2.25,61.08-22.6,66.52-44.64,1.28-5.17-.12-10.18-4.05-14.48-4.45-4.86-6.13-9.14-5-12.72,2.39-7.54,16.31-12.16,21.47-13.31a3.79,3.79,0,0,0,.89-.33l7.29,4,14.64,11.67a3.78,3.78,0,0,0,1.74.76,3.4,3.4,0,0,0,.9,0L972.83,218a3.71,3.71,0,1,0-.65-7.4l-47.63,4.15-13.73-10.94a3.74,3.74,0,0,0-.53-.35l-36.94-20.25a3.94,3.94,0,0,0-1.21-.41l-53.24-8.35a3.71,3.71,0,1,0-1.15,7.34Z" class="cls-5"/><path data-cppathid="10011" d="M1304.62,628.76a3.73,3.73,0,0,0-4.92,1.85,307.71,307.71,0,0,1-16,30.12,3.17,3.17,0,0,0-.13-.67l-14.21-47.36a3.71,3.71,0,0,0-1.17-1.78c-16.69-14-34.54-31.79-35.92-37.32a3.71,3.71,0,0,0-3.85-6.28,6,6,0,0,0-3.6,4.72c-1.35,9.69,25.26,33.36,37.74,43.86l13.89,46.29a3.73,3.73,0,0,0,3,2.61,3.83,3.83,0,0,0,1.64-.11.43.43,0,0,1,.12-.05,69.85,69.85,0,0,1-8.16,10.42c-38,37.07-36.18,39.84-34.43,42.52.59.9,2.36,2.83,6.19,1.3,6.2-2.48,14.63,3.13,18.75,6.66l-7.27,40.09c-2,2.54-11.63,13.48-42,37.94a3.72,3.72,0,0,0,4.67,5.78c35.74-28.83,43.51-39.58,43.82-40a3.47,3.47,0,0,0,.62-1.48l7.8-43a3.73,3.73,0,0,0-1-3.31c-.5-.49-10.43-10.16-21.18-10.68,6-7.07,18-19.49,29.27-30.51,12.7-12.7,27.53-45.29,28.15-46.67A3.71,3.71,0,0,0,1304.62,628.76Z" class="cls-5"/><path data-cppathid="10012" d="M90.4,695.28c68.63,72,90.79-2.65,119,22.67s50.8-22.73,58.22-22.09,126.48,24,139.6,53.13S552.7,780.56,552.7,780.56l65.31,23L664.78,788,682,796.05l40.63,11.1,46-3.63c22.22-5.88,46.7-13.13,74-22.06,0,0,60-49.07-50.43-139L779,648.91s-8.47,47.78-41.4,20.05-72.29,101.49-72.35,81.67c-.38-125.37-37.06-75-121.24-1.91S464.91,621,448.59,661c-26,63.91-75.76-44.48-96-84.09s-124.24-3.79-124.24-3.79l-60.91-9.44s-7.73-13.87-7.35-40.2-34.66-31.22-34.66-31.22l-17.51-27.09c-1.38,21.9-12,53.09-79,122.7a92.6,92.6,0,0,0-25.13,68C29.94,655.82,61.1,664.53,90.4,695.28Z" class="cls-2"/><path data-cppathid="10013" d="M284,776.77C560.49,766,529.19,866.86,768.63,803.52l-46,3.63L682,796.05,664.78,788,618,803.54l-65.31-23S420.33,778.13,407.22,749,275,696.5,267.62,695.86s-30,47.42-58.22,22.09S159,767.31,90.4,695.28c-29.3-30.75-60.46-39.46-86.56-39.35C7.06,716.63,73.49,785,284,776.77Z" class="cls-1"/><path data-cppathid="10014" d="M592.41,528.29q-5.11-2.28-10.16-4.62c-54.19,4-236.58-85.56-252.59-111.31-22-35.4-74.33,10.26-97.89-15.35s-36.13,86.45-52.54,48.23c-7.34-17.11-22.61-38.86-37.23-57.66-42.26,40.62-32.55,53.48-34.07,77.63l17.51,27.09s35,4.9,34.66,31.22,7.35,40.2,7.35,40.2l60.91,9.44s104-35.83,124.24,3.79,70,148,96,84.09C464.91,621,459.78,821.83,544,748.72s120.86-123.46,121.24,1.91c.06,19.82,39.41-109.41,72.35-81.67S779,648.91,779,648.91l13.3-6.43C752,609.7,689.11,571.51,592.41,528.29Z" class="cls-3"/><path data-cppathid="10015" d="M179.23,445.24c16.41,38.22,29-73.85,52.54-48.23s75.86-20.05,97.89,15.35c16,25.75,198.4,115.27,252.59,111.31C380.59,430.33,263.07,281.48,156.87,374c-5.56,4.85-10.49,9.36-14.87,13.57C156.62,406.38,171.89,428.13,179.23,445.24Z" class="cls-4"/><path data-cppathid="10016" d="M157.89,774.65h0C46.34,757.15,14.07,708.13,4.77,680.47c-11-32.75-2.57-70.1,21.52-95.14,79.15-82.25,78.53-109.93,78-132.16-.45-20.15-.85-37.56,50.11-82,28.46-24.79,59.71-34.11,95.55-28.49,48.62,7.63,102.72,41.94,165.36,81.67,51.81,32.85,110.53,70.09,178.59,100.51,211.2,94.4,262.39,165.75,268.15,209,4.34,32.55-16.18,49.73-17.05,50.45a4,4,0,0,1-1.2.66c-145.18,47.39-208.43,47.13-255.15,39.8-23-3.6-43.73-9.63-65.71-16-25.3-7.35-54-15.68-90.69-21.44-43.45-6.81-91.92-9.06-148.18-6.87C236.79,782.33,194.33,780.37,157.89,774.65Zm90.94-424.59c-34-5.33-62.45,3.17-89.52,26.75C111,418.93,111.32,434,111.75,453c.53,23.61,1.18,53-80.11,137.49C14.79,608-.51,641.46,11.81,678.1,27,723.11,79.23,754.79,159,767.31h0c36,5.64,77.94,7.58,124.77,5.75,56.75-2.22,105.69.06,149.62,7,37.19,5.84,66.1,14.23,91.61,21.64,21.75,6.32,42.28,12.28,64.79,15.81,45.73,7.18,107.79,7.38,251-39.3,2.93-2.66,17.46-17.34,13.89-43.5-5.65-41.34-56-110.1-263.8-203-68.55-30.65-127.51-68-179.53-101C349.42,391.38,295.92,357.45,248.83,350.06Z" class="cls-5"/><path data-cppathid="10017" d="M228.94,569.49h0l-59-9.14c-1.84-4.21-6.43-16.77-6.14-36.77.32-22.45-22.59-32.28-36.16-34.68l-17.44-27a3.72,3.72,0,0,0-6.24,4l18.34,28.37a3.39,3.39,0,0,0,2.6,1.66,57.59,57.59,0,0,1,12,3.33l-18.35,20.37a3.73,3.73,0,0,0,1.55,6c.12,0,11.67,4.14,14.27,12.79,1.5,5-.29,10.89-5.32,17.49l-19.61,25.68a3.71,3.71,0,0,0,5.9,4.51L135,560.47c6.58-8.61,8.77-16.75,6.52-24.19-2.39-7.87-9.23-12.8-14-15.39l16.36-18.16c6.76,4.14,12.71,10.65,12.57,20.74-.39,27,7.48,41.46,7.81,42.06a3.69,3.69,0,0,0,2.67,1.86h0l60.91,9.44a3.71,3.71,0,0,0,1.15-7.34Z" class="cls-5"/><path data-cppathid="10018" d="M749.11,693.06c-5.54,3.64-54.16,36.17-54.34,58.87,0,5.32,2.49,9.87,7.32,13.14,5.45,3.7,8.08,7.47,7.81,11.21-.56,7.89-13,15.62-17.79,17.94a3.35,3.35,0,0,0-.7.45,206.52,206.52,0,0,1-25-10,3.69,3.69,0,0,0-2.82-.2L616.83,800a3.72,3.72,0,0,0,2.35,7.05L664.52,792c4.14,2,16.74,7.72,28.83,11a3.74,3.74,0,0,0,4.56-2.61,3.1,3.1,0,0,0,.12-.9c5.82-3.27,18.48-11.62,19.28-22.66.48-6.59-3.24-12.61-11-17.91-2.79-1.89-4.08-4.09-4-6.93.12-15.89,36.84-43.44,51-52.72a3.72,3.72,0,1,0-4.08-6.21Z" class="cls-5"/><path data-cppathid="10019" d="M1269.07,215c.93,10.19-11.2,15.09-11.2,15.09s-5.28,2.81-2.17-17.35-4.41,7.26-15,7.36c-3.94,0-5.41-5-5.71-11.4q-4.82,3.59-9,7.09a57.6,57.6,0,0,1-1.6,10c-9,37.46-.18,17.36,7.2,27.76s-33.58,74.2,5,38.3c0,0,16.88-20.84,19.75-7.21s18.95,20.88,18.95,20.88a310.6,310.6,0,0,0,3.13,47.94s5.53,38.93,18.79-27.1,5.52-14.72,9.78-2.42l7.49-4.32s2.45-14.12,2.65-19.07,8.28-14.93,8.28-14.93a269.62,269.62,0,0,0,2.56-34.06l-8.66-52.94c-1.89,2.77-19,38.67-20.13,32.65l-30.06-21.19A19.91,19.91,0,0,0,1269.07,215Z" class="cls-2"/><path data-cppathid="10020" d="M556.42,569.26c9,6,9.06,16.53,9.06,16.53s.61,5-15.51-9.8,4.69,7.35,1.21,13.89c-1.3,2.43-6.12.08-11.65-3.83q1.43,5.25,3,10.07a94.53,94.53,0,0,1,8,7.38c28.88,29.52,14.73,11.25,26.08,13.41s51.86,68.14,34.33,21.49c0,0-12-23.7.55-16.71a28.74,28.74,0,0,0,24.19,1.8,499.88,499.88,0,0,0,41.9,28.84s35,21.6-16.73-28.87-10.68-12.82,1.25-7.54l-1.15-7.35s-11.2-10.56-15.36-13.86-9.91-14.64-9.91-14.64c-8.91-8.09-18.44-16-28.15-23.42l-48-28.66c1.72,2.93,26.52,36.41,21,33.25L552.26,566A32.58,32.58,0,0,0,556.42,569.26Z" class="cls-6"/><path data-cppathid="10021" d="M1021.06,73.53c9.77,5.12,6.33,19.48,6.33,19.48s-.88,6.65-17-8.17,3.69,8.45-3,18.5c-2.51,3.75-8,2.16-14-1.32q.1,6.67.55,12.7a57.65,57.65,0,0,1,8,7.4c27.93,30.55,15.51,10.4,29.65,9.55s45.09,75.47,37.74,17.79c0,0-7.85-28.23,6.28-22.92s31-5.62,31-5.62a315.84,315.84,0,0,0,45.19,25.29s38.62,17.71-12.25-33.73-9.68-13.89,4.14-10.68l1-9.63s-11.12-10.63-15.46-13.75-8.08-16.62-8.08-16.62a271.32,271.32,0,0,0-29-22.49l-53.26-23c1.28,3.41,22.54,40.73,16.38,38.26l-38.5,16A19.52,19.52,0,0,0,1021.06,73.53Z" class="cls-7"/><path data-cppathid="10022" d="M985.31,320.27c6.09,2.64-8.13,14.55-8.13,14.55s-5.87,5.42-11.17-4S963.44,337,949.09,346c-5.35,3.35-9.75,2.88-13.17,1Q931,352.23,927,357a10,10,0,0,1,2.56,4.71c5.5,20.21,8,6,22.93,3.28s-10.63,53.4,25,8.64c0,0,13.14-21.3,23.5-19.14s35.69-9,35.69-9,9.18,7.74,26.95,13.52c0,0,26,8.45,12.77-25s.56-9.63,12.19-9.09l8.16-7.79s-3.33-6.84-5.41-8.69,4.22-12,4.22-12a51.21,51.21,0,0,0-12.62-13.66l-36.85-10.51c-1.27,2.53-7.57,29.08-12,28l-51,18.28A4.19,4.19,0,0,0,985.31,320.27Z" class="cls-4"/><path data-cppathid="10023" d="M246.38,682.29C241,678.17,259,670.22,259,670.22s7.6-3.76,10.19,6.74,4.47-5.34,21.78-10.4c6.46-1.89,10.81-.32,13.74,2.4q6.56-3.9,12.11-7.46a9.35,9.35,0,0,1-1.2-5.23c.43-21-6.32-7.85-22.41-9s26.82-49.15-22.91-14.75c0,0-19.77,17.33-29.69,12.59s-39.09-.35-39.09-.35-7.06-9.85-23.44-20c0,0-23.94-14.81-20.52,21s-3.45,9.21-15.14,5.72L131.79,657s1.36,7.48,2.92,9.8-7.9,10.61-7.9,10.61a48.53,48.53,0,0,0,8.79,16.47L170,713.48c2.05-2.13,16.42-26.31,20.59-24.16l57.46-4.77A4,4,0,0,0,246.38,682.29Z" class="cls-3"/><path data-cppathid="10024" d="M565,640.64c.35,6.35-15.26,1.12-15.26,1.12s-6.85-1.9-1.34-11.2-6.11,1.18-19.37-5.72c-4.95-2.58-6.39-6.4-6.26-10.19q-6.33-1.15-11.88-1.95a11.28,11.28,0,0,1-2.79,4.58c-14.24,15.19-1.62,9.66,6.8,20.38s-48,19.67,3.28,24.89c0,0,22.84-.62,25.35,9s22.11,24.24,22.11,24.24-2.52,11.56.1,29.07c0,0,3.83,25.57,25.73-2.89s8.1-4.65,12.47,5.08l9.74,2.51s4.21-6.33,4.86-9,11.57-3,11.57-3a56.6,56.6,0,0,0,5.93-17.5l-6.65-35.52c-2.58.31-26.89,9.27-27.84,5.13l-36-31.74A4.49,4.49,0,0,0,565,640.64Z" class="cls-2"/><path data-cppathid="10025" d="M954.39,685.21c7.27,4.79-6.14,18.16-6.14,18.16s-5.43,6.19-13.17-7.64S933.45,703.6,919.3,713c-5.27,3.49-10.24,2-14.41-1.26q-4.36,6.21-7.93,11.84a21.4,21.4,0,0,1,3.76,6.9c10.08,28.51,10,9.72,26.07,9s-1.26,70.39,29.42,16.66c0,0,10.37-26.32,22.28-21.34s37.81-5.17,37.81-5.17,11.7,12.31,32.54,23.65c0,0,30.43,16.58,9.23-31.43s-1.27-13,11.72-9.94l7.51-9s-5-9.94-7.7-12.85,2.31-15.49,2.31-15.49a104.5,104.5,0,0,0-16.69-21L1012.29,632c-.9,3.18-2.66,38-7.75,35.67l-52.92,14.77A7.89,7.89,0,0,0,954.39,685.21Z" class="cls-1"/><path data-cppathid="10026" d="M768.73,306.39c-8.16-3,1.9-19.07,1.9-19.07s3.9-7.26,14.55,4.48-.18-8,11.5-20.33c4.35-4.58,9.53-4.24,14.32-2q2.85-7,5.06-13.32a21.38,21.38,0,0,1-5.22-5.87c-16.24-25.52-11.94-7.22-27.42-2.87s-14.61-68.86-32.41-9.6c0,0-4.18,28-16.9,25.81s-35.68,13.54-35.68,13.54-14.17-9.35-37-15.72c0,0-33.38-9.3-1.91,32.72s4.16,12.34-9.18,12.32L645,316.88s7.14,8.54,10.39,10.78,1.24,15.61,1.24,15.61a104.57,104.57,0,0,0,21,16.73l46.68,11.3c.16-3.3-6-37.59-.48-36.49l48.24-26.3A7.91,7.91,0,0,0,768.73,306.39Z" class="cls-4"/><path data-cppathid="10027" d="M424.82,581.72c-8.16-3,1.9-19.07,1.9-19.07s3.9-7.26,14.56,4.48-.19-8,11.49-20.33c4.35-4.59,9.53-4.25,14.33-2q2.85-7,5.06-13.32a21.27,21.27,0,0,1-5.22-5.88c-16.24-25.51-11.95-7.21-27.42-2.86s-14.62-68.86-32.42-9.6c0,0-4.17,28-16.9,25.81s-35.67,13.54-35.67,13.54-14.18-9.35-37-15.72c0,0-33.39-9.3-1.92,32.71s4.16,12.34-9.18,12.32l-5.3,10.43s7.15,8.54,10.39,10.78,1.25,15.61,1.25,15.61a103.9,103.9,0,0,0,21,16.72l46.67,11.31c.16-3.3-6-37.6-.48-36.5l48.24-26.29A7.85,7.85,0,0,0,424.82,581.72Z" class="cls-2"/><path data-cppathid="10028" d="M1166.63,131.14c-7.53-12.57-21-22.42-36.19-29.52-4.53,8.55-9,16.51-16.19,10.51-14.77-12.3,4.06,31-18.2,23.16s-33.47,11.32-33.47,11.32l-10.49,5.56-4.42-1.23-2.7-.27-.15.38s-8,5.68-1.06,8.87-8.53,17.52-8.53,17.52-6.37,6.51-12.71-4.82-2.64,7.43-18.39,18.23c-5.87,4-10.84,3.47-14.76,1.18q-5.26,6.38-9.63,12.06a12.81,12.81,0,0,1,3.06,5.67c7,24.31,9.19,7.22,25.9,3.93s-9.76,64.24,28.44,10.38c0,0,13.89-25.63,25.62-23s39.73-10.84,39.73-10.84,10.64,9.31,30.83,16.25c0,0,29.5,10.15,13.33-30.1s.23-11.59,13.31-10.94l8.86-9.37s-4-8.23-6.43-10.44S1166.63,131.14,1166.63,131.14Z" class="cls-3"/><path data-cppathid="10029" d="M1510.12,559.74c-8-7.81-16.11-15.51-24.41-23-15.34-13.89-21.45-62.86-37.58-75.83-6.26-5-22.17,25.39-28.63,20.54-1,4.51-2.29,7.49-3.91,6.76L1362.68,503a7.83,7.83,0,0,0,2.77,2.81c7.27,4.79-6.14,18.16-6.14,18.16s-5.44,6.19-13.17-7.64-1.64,7.87-15.78,17.22c-5.27,3.48-10.24,2-14.41-1.26q-4.37,6.21-7.93,11.84a21.4,21.4,0,0,1,3.76,6.9c6.88,19.45,9,16.88,14.8,13-1.21,4.88-3.28,12.41-10.2,17-5.28,3.49-10.25,2-14.42-1.25q-4.37,6.21-7.93,11.83a21.32,21.32,0,0,1,3.76,6.9c10.08,28.52,10,9.72,26.08,9s-1.27,70.38,29.42,16.65a68,68,0,0,1,8.39-14.89c6.84,1.18,18.93,3.09,20.78,7.94,1.31,3.45-5.3,6.24-14.08,8.36q6.52,3.19,12.75,5.84a128.42,128.42,0,0,1,14.44-1.53c55.09-3.12,24.26-4.93,36.42-14.46a7.84,7.84,0,0,1,2.21-1.15c3.5,2.31,7.4,4.7,11.71,7,0,0,19,10.35,16.51-9,29.79.45,64,3.46,21.37-12.52,0,0-34.43-8.71-16.34-15.23a38.71,38.71,0,0,0,22.41-21c20,23.14,43,55.72,26.22,11A98.42,98.42,0,0,1,1510.12,559.74Z" class="cls-4"/><path data-cppathid="10030" d="M340.26,378.53l2.92,1.65h0c37.49-12.06,73.52-21.71,108.14-30.09-42.4-25.22-83.3-48.9-126.21-68.74-3.55,19-7.05,38-10.3,56.62H315q-2.21,12.7-4.25,25.17c.81.38,1.61.75,2.42,1.15C322,368.58,331,373.36,340.26,378.53Z" class="cls-8"/><path data-cppathid="10031" d="M295,356.1q1.61-9.21,3.27-18.52h-.16c2.68-14.87,5.47-29.9,8.29-44.92-24,14.46-48,28.79-71.13,42.09h.15s0,.08,0,.11q3.51,3.51,7.12,6.91c2.47.25,5,.56,7.47,1C264.47,345,279.44,349.65,295,356.1Z" class="cls-9"/><path data-cppathid="10032" d="M506.7,329q14.66-9.33,30.84-18.93l2.6-1.53c0-.75,0-1.49,0-2.24-12.35-12.75-22.47-27.68-31.4-43.57-19.66,2.29-39.36,3.76-59.73,5.75,17.07,21.35,34.46,43.26,55.45,61.95h0C505.22,330,506,329.47,506.7,329Z" class="cls-10"/><path data-cppathid="10033" d="M448.54,369.73q10.57-8.28,22.54-16.8h0c-6.62-.92-13.19-1.9-19.76-2.84q-3.1,11.27-6.13,22.29l.67-.54Z" class="cls-10"/><path data-cppathid="10034" d="M504.47,330.42c-21-18.69-38.38-40.6-55.45-61.95-.56,28.46.29,55.65,2.3,81.62,6.57.94,13.14,1.92,19.76,2.84q14.57-10.37,31.18-21.09Z" class="cls-10"/><path data-cppathid="10035" d="M399.89,414.6q16.61-19,41.94-39.53c1.32-1.07,2.67-2.15,4-3.23,2-8.4,3.85-15.93,5.46-21.75-34.62,8.38-70.65,18-108.14,30.09,1,.56,1.95,1.1,2.93,1.67C363.33,391.7,381.22,402.81,399.89,414.6Z" class="cls-11"/><path data-cppathid="10036" d="M393.68,105.08C354.23,141,315.9,174.57,280,205c11.58-.49,23.26-1.14,34.9-1.75C340.87,171.05,367.09,138.45,393.68,105.08Z" class="cls-12"/><path data-cppathid="10037" d="M325.11,281.35c36.76-33.4,73.39-67,109.84-102-37.12,20-75.93,40.56-114.4,60.55C322.23,253.42,323.66,267.36,325.11,281.35Z" class="cls-13"/><path data-cppathid="10038" d="M449,268.47c20.37-2,40.07-3.46,59.73-5.75C483,235,461.22,203.93,435,179.32,439.56,208.33,443.5,238.93,449,268.47Z" class="cls-11"/><path data-cppathid="10039" d="M320.55,239.87c38.47-20,77.28-40.56,114.4-60.55-37.72,5.9-78.87,15-120,23.89C317.19,214.86,319,227.2,320.55,239.87Z" class="cls-12"/><path data-cppathid="10040" d="M435,179.32c26.27,24.61,48,55.68,73.8,83.4-25.67-46-42-99.31-69.94-136.66C437.86,143.2,436.43,161.14,435,179.32Z" class="cls-14"/><path data-cppathid="10041" d="M435,179.32c1.48-18.18,2.91-36.12,3.86-53.26C397.75,152.78,355.64,179,314.9,203.21,356.08,194.29,397.23,185.22,435,179.32Z" class="cls-11"/><path data-cppathid="10042" d="M314.9,203.21c40.74-24.22,82.85-50.43,123.91-77.15a154,154,0,0,0-45.13-21C367.09,138.45,340.87,171.05,314.9,203.21Z" class="cls-9"/><path data-cppathid="10043" d="M325.11,281.35C368.28,274.7,410.21,270,449,268.47c-5.52-29.54-9.46-60.14-14.07-89.15C398.5,214.37,361.87,248,325.11,281.35Z" class="cls-9"/><path data-cppathid="10044" d="M451.32,350.09c-2-26-2.86-53.16-2.3-81.62-38.81,1.57-80.74,6.23-123.91,12.88C368,301.19,408.92,324.87,451.32,350.09Z" class="cls-11"/><path data-cppathid="10045" d="M308.57,281q-1.1,5.85-2.18,11.7l18.72-11.3c-2.83-27-5.49-54-10.21-78.14l-17.39.91C302.81,227.5,305.7,254.09,308.57,281Z" class="cls-14"/><path data-cppathid="10046" d="M246.07,278.15c6.29.59,12.7,1,19.18,1.39,11.35-25.92,22.26-51.28,32.26-75.42-5.85.31-11.7.6-17.51.84C269.55,228.22,258.09,252.8,246.07,278.15Z" class="cls-13"/><path data-cppathid="10047" d="M265.25,279.54c13.5,4.59,27.3,8.83,41.14,13.11q1.08-5.85,2.18-11.7c-2.87-26.86-5.76-53.45-11.06-76.83C287.51,228.26,276.6,253.62,265.25,279.54Z" class="cls-9"/><path data-cppathid="10048" d="M246.07,278.15c-3.28,18.42-7,37.45-10.81,56.59q10.89-6.25,22-12.79c2.74-14.25,5.47-28.46,8-42.41C258.77,279.19,252.36,278.74,246.07,278.15Z" class="cls-14"/><path data-cppathid="10049" d="M265.25,279.54c-2.53,13.95-5.26,28.16-8,42.41,16.19-9.51,32.64-19.37,49.14-29.3C292.55,288.37,278.75,284.13,265.25,279.54Z" class="cls-11"/><path data-cppathid="10050" d="M391.73,103.89c-39.44,35.83-77.71,69.34-113.46,99.52h0a3.29,3.29,0,0,1,1.95-.77l6.44-.32c28.09-23.91,57.54-49.68,87.74-76.82q-30.57,38.17-60.59,75.3l1.45-.09a2.07,2.07,0,0,1,2.3,1.6c.07.37.15.74.22,1.11,25.8-32,51.84-64.39,78.24-97.57a2.67,2.67,0,0,0,.61-1.35,1.5,1.5,0,0,0-.92-1.58A4,4,0,0,0,391.73,103.89Z" class="cls-10"/><path data-cppathid="10051" d="M435.14,176.44c-37.74,6.05-78.92,15.25-120.12,24.29h.23a2.07,2.07,0,0,1,2.3,1.6c.07.37.15.74.22,1.11s.19,1,.3,1.57h0c37.31-8,74.56-16,109.12-21.58-33.22,31.74-66.56,62.35-100,92.73l.33,3.17c0,.43.09.85.13,1.28a3.25,3.25,0,0,1,0,.82l-.21,1.09c36.45-33.13,72.73-66.38,108.82-101.08a4,4,0,0,0,1.09-2,3.26,3.26,0,0,0,0-1.39A1.91,1.91,0,0,0,435.14,176.44Z" class="cls-10"/><path data-cppathid="10052" d="M438.14,123.65a3.83,3.83,0,0,0-2,3c-.84,16.16-2.12,33-3.48,50.19l2.44-.4a1.91,1.91,0,0,1,2.22,1.61,3.43,3.43,0,0,1,0,1.39,4,4,0,0,1-1.09,2l-3.11,3c4.41,27.72,8.3,56.78,13.58,84.91a2.23,2.23,0,0,0,2.3,2c20.38-2,40.1-3.41,59.82-5.72a2.48,2.48,0,0,0,1.93-1.74,3.39,3.39,0,0,0,.2-.82,3.49,3.49,0,0,0-.37-2.13C485,214.85,468.88,161.38,441,124A2.2,2.2,0,0,0,438.14,123.65Zm66.4,136.63c-17.63,2-35.37,3.34-53.64,5.13-5.26-28.78-9-58.54-13.45-86.82,1.25-15.09,2.48-30,3.43-44.47C465.53,169.77,481.43,217.71,504.54,260.28Z" class="cls-10"/><path data-cppathid="10053" d="M441.37,125.92a3.83,3.83,0,0,1-.65,1.45c-1,1.37-2.65,1.88-3.71,1.16a155.58,155.58,0,0,0-45-21.17c-1.34-.38-1.67-1.68-.74-2.93a4.26,4.26,0,0,1,4.13-1.62,152.27,152.27,0,0,1,45.23,20.78A2.2,2.2,0,0,1,441.37,125.92Z" class="cls-10"/><path data-cppathid="10054" d="M542,304.43c-12.38-12.69-22.5-27.6-31.4-43.5a3.49,3.49,0,0,1,.37,2.13,3.39,3.39,0,0,1-.2.82,2.5,2.5,0,0,1-1.93,1.74l-1.25.15c8.61,15.09,18.3,29.3,30,41.6,0,.9,0,1.8,0,2.69l6.36-3.74Z" class="cls-10"/><path data-cppathid="10055" d="M454.28,270.85l-5.25.49a2.23,2.23,0,0,1-2.3-2l-.06-.33c-.52,26.58.15,52.1,1.87,76.51l3.89,2.28a2.76,2.76,0,0,1,1.33,2.22v0c-1.87-23.78-2.79-48.55-2.5-74.44,15.72,19.46,31.91,39.16,51,56.31L506.7,329C486.89,311.49,470.36,291,454.28,270.85Z" class="cls-10"/><path data-cppathid="10056" d="M453.68,350.92s0,0,0,0a2.4,2.4,0,0,1-1.72,1.77l-4.23,1.05-5.9,21.37q3.29-2.65,6.71-5.34Z" class="cls-10"/><path data-cppathid="10057" d="M452,352.65a2.46,2.46,0,0,0,1.8-2.2,2.81,2.81,0,0,0-1.33-2.67c-41.95-25.06-82.35-48.75-124.88-68.46,0,.43.09.85.13,1.28a3.25,3.25,0,0,1,0,.82c-.25,1.32-.5,2.64-.74,4,39.85,18.63,78.22,40.34,117.59,63.69-33.36,8.17-68.13,17.71-104.24,29.46,1.94,1.09,3.9,2.19,5.85,3.32C382.78,370.17,418,360.84,452,352.65Z" class="cls-10"/><path data-cppathid="10058" d="M310.72,363.14q2-12.48,4.25-25.17h-.16c3.25-18.65,6.75-37.62,10.3-56.62l-18.72,11.3c-2.82,15-5.62,30.05-8.29,44.92h.16q-1.67,9.32-3.27,18.52,6.6,2.73,13.32,5.89C309.11,362.36,309.92,362.75,310.72,363.14Z" class="cls-11"/><path data-cppathid="10059" d="M237.82,335a3.14,3.14,0,0,0,0-1c3.69-18.66,7.32-37.23,10.54-55.24,11.74-24.7,23-48.72,33.3-71.55,10.26-.4,20.59-.92,30.89-1.42,4.53,23.52,7.16,49.66,9.91,75.9-3.53,18.84-7,37.68-10.25,56.2a2.64,2.64,0,0,0,0,.93q-2,11.67-3.94,23.16c1.61.75,3.22,1.51,4.83,2.3q2.1-13,4.4-26.25a2.9,2.9,0,0,0,0-.93c3.17-18.33,6.61-37,10.11-55.69a3.25,3.25,0,0,0,0-.82c-2.82-27.07-5.46-54.06-10.13-78.28a2.07,2.07,0,0,0-2.3-1.6c-11.67.67-23.4,1.37-35,1.93a3.12,3.12,0,0,0-2.68,1.73c-10.31,23.07-21.65,47.51-33.61,72.75a3.19,3.19,0,0,0-.24.78c-3.26,18.4-7,37.44-10.81,56.59a3.21,3.21,0,0,0-.05,1l-1.14,5.69c1.62,0,3.25.06,4.88.15Z" class="cls-10"/><path data-cppathid="10060" d="M873.38,698.6c5-36,7-72.64,7.91-106.63q-6.52-2-13.36-4.19C865.16,622.27,861.23,659.1,854,695,860.68,696.23,867.15,697.42,873.38,698.6Z" class="cls-15"/><path data-cppathid="10061" d="M844.79,692.17,854,695c7.23-35.87,11.16-72.7,13.93-107.19a394.71,394.71,0,0,1-47.71,75A202.81,202.81,0,0,1,844.79,692.17Z" class="cls-14"/><path data-cppathid="10062" d="M861.23,728.9q6.6-14.71,12.15-30.3c-6.23-1.18-12.7-2.37-19.38-3.63-1,2.44-2,4.85-3,7.26a98.09,98.09,0,0,1,9.31,22.56Q860.83,726.89,861.23,728.9Z" class="cls-10"/><path data-cppathid="10063" d="M820.22,662.8a394.71,394.71,0,0,0,47.71-75q-6.76-2.14-13.79-4.53a411.67,411.67,0,0,1-46.53,67.61l2.08,1.87Q815.32,657.86,820.22,662.8Z" class="cls-12"/><path data-cppathid="10064" d="M691,562.82a715.41,715.41,0,0,0,76.78-51.41c-37.09.47-75-4.8-125.25-9.83C659,522.3,674.37,543,691,562.82Z" class="cls-11"/><path data-cppathid="10065" d="M642.53,501.58c50.27,5,88.16,10.3,125.25,9.83,11.84-14.54,23.75-29.29,35.83-43.77C760.44,483.19,710.31,493.06,642.53,501.58Z" class="cls-14"/><path data-cppathid="10066" d="M832.62,618.14c7.74-11.31,14.89-23,21.52-34.89-29.93-18.89-62.91-41.17-86.36-71.84,14.35,39.49,40.69,72.6,64.84,106.73Z" class="cls-16"/><path data-cppathid="10067" d="M881.29,592c-15.2-48.36-33.86-86.63-36.52-129.41-4.08,38.65,3.08,77.14,9.37,120.69C863.54,586.45,872.64,589.28,881.29,592Z" class="cls-12"/><path data-cppathid="10068" d="M767.78,511.41c23.45,30.67,56.43,52.95,86.36,71.84-21.93-37-46.78-71.5-50.53-115.61C791.53,482.12,779.62,496.86,767.78,511.41Z" class="cls-11"/><path data-cppathid="10069" d="M803.61,467.64c3.75,44.11,28.6,78.57,50.53,115.61-6.29-43.56-13.45-82.05-9.37-120.69A180.55,180.55,0,0,1,803.61,467.64Z" class="cls-9"/><path data-cppathid="10070" d="M855,580.23c.39.14.77.27,1.16.39-5-33.63-10.22-64.14-10.58-94,6.31,32.53,19.56,63.81,31.61,100.67l4.8,1.46a2,2,0,0,1,1.19,1.38h0C868,541.81,849.44,503.85,846.7,461.46c-.06-1.23-.83-1.84-1.82-1.42a3.4,3.4,0,0,0-1.54,1.57,4.3,4.3,0,0,0-.48,1.51c-4.29,38.52,2.64,76.76,8.78,119.77.24-.41.47-.82.7-1.24A2.39,2.39,0,0,1,855,580.23Z" class="cls-10"/><path data-cppathid="10071" d="M802.31,466.13a2.93,2.93,0,0,1,2.14-1.46A178.55,178.55,0,0,0,845.16,460c1-.25,1.7.7,1.51,2.13a3.76,3.76,0,0,1-2.24,3.1,183.24,183.24,0,0,1-41.61,5.43c-1.14,0-1.7-1.3-1.23-2.95A5,5,0,0,1,802.31,466.13Z" class="cls-10"/><path data-cppathid="10072" d="M767.78,511.41A715.41,715.41,0,0,1,691,562.82q9.27,10.35,19,20.24c35.1,20.07,62.5,38.76,83.78,56C782.73,596.2,769.88,555.1,767.78,511.41Z" class="cls-9"/><path data-cppathid="10073" d="M593.93,524.9C620.19,536.64,644,548,665.51,559l6.37,3.28q9.68.33,19.12.5c-16.63-19.78-32-40.53-48.47-61.24-23.43,2.86-49,5.42-76.6,7.31-.62.65-1.23,1.31-1.85,2l3.64,1.79Q580.59,518.92,593.93,524.9Z" class="cls-12"/><path data-cppathid="10074" d="M807.61,650.86a387.7,387.7,0,0,0,25-32.72C808.46,584,782.13,550.9,767.78,511.41c2.1,43.69,15,84.8,26,127.67q6.21,5,11.74,9.91C806.22,649.61,806.92,650.23,807.61,650.86Z" class="cls-14"/><path data-cppathid="10075" d="M681.82,567.53l2.79,1.5c2.13-2.06,4.27-4.13,6.39-6.21q-9.43-.17-19.12-.5c2.09,1.08,4.17,2.17,6.22,3.25Z" class="cls-10"/><path data-cppathid="10076" d="M710,583.06h0q-9.71-9.88-19-20.24c-2.12,2.08-4.26,4.15-6.39,6.21l2.77,1.48Q699.19,576.87,710,583.06Z" class="cls-10"/><path data-cppathid="10077" d="M793.77,639.08c1.26,1,2.5,2,3.72,3.06-10.56-41.39-23.11-80.91-26.76-122.44,22.74,27,52.43,47.37,79.91,64.95h0l1-1.76c.24-.41.47-.82.7-1.24a2.39,2.39,0,0,1,2.67-1.42l.19.07c-29.7-18.59-62.46-40.62-85.51-71.16a1.92,1.92,0,0,0-2.75-.33,3.25,3.25,0,0,0-1,1,4,4,0,0,0-.63,2.23c1.95,42.47,14,82.5,24.68,124,1.28,1,2.53,2,3.77,3Z" class="cls-10"/><path data-cppathid="10078" d="M766,509.84a3.25,3.25,0,0,1,1-1,1.92,1.92,0,0,1,2.75.33l1.49,1.93c11.09-13.83,22.22-27.81,33.48-41.57a4.79,4.79,0,0,0,1.09-3.48c-.17-1.08-.9-1.59-1.83-1.26-43,15.21-93,25-161.46,33.72a4.09,4.09,0,0,0-2.4,1.18,3.85,3.85,0,0,0-.59.8,2.79,2.79,0,0,0,.24,3.13c16.82,20.68,32.39,41.42,49.14,61.23a2.78,2.78,0,0,0,3.55.66,697.33,697.33,0,0,0,73.11-49c-.08-1.46-.14-2.91-.19-4.37A4,4,0,0,1,766,509.84Zm-117.21-5.92c60.63-7.78,107.29-17,147.77-31-10.11,12-20.1,24.17-30,36.18A733.69,733.69,0,0,1,691.64,559C676.85,541.17,663.06,522.58,648.74,503.92Z" class="cls-10"/><path data-cppathid="10079" d="M854,695l-9.2-2.79c2.32,3.44,4.36,6.79,6.17,10C852,699.82,853,697.41,854,695Z" class="cls-15"/><path data-cppathid="10080" d="M875.75,698.77c4.91-36.24,6.77-73.06,7.63-107.19,0-1.44-.52-2.6-1.38-2.86-8.59-2.61-17.64-5.36-27-8.49a2.39,2.39,0,0,0-2.67,1.42A414.87,414.87,0,0,1,805.51,649q2.15,1.89,4.18,3.74a406.66,406.66,0,0,0,45.15-65.91c8.36,2.87,16.48,5.46,24.26,7.94-1.07,33-3.14,68.33-8,103.13q-5,13.77-10.8,26.9a71.91,71.91,0,0,1,1.74,8.59c4.92-10.82,9.42-22,13.49-33.56A6.18,6.18,0,0,0,875.75,698.77Z" class="cls-10"/><path data-cppathid="10081" d="M683.72,565.73l-1.9,1.8,5.56,3c1.78-1.73,3.56-3.46,5.33-5.21l-.31.18a2.78,2.78,0,0,1-3.55-.66c-1.44-1.71-2.88-3.43-4.3-5.15q-9.39-.23-19-.63,6.43,3.29,12.59,6.53Z" class="cls-10"/><path data-cppathid="10082" d="M568.6,511.7c25.83-1.78,49.94-4.14,72.17-6.8l-1.06-1.31a2.77,2.77,0,0,1-.24-3.13,3.85,3.85,0,0,1,.59-.8,4.06,4.06,0,0,1,2.4-1.18c-23.67,2.91-49.6,5.54-77.6,7.49l-9.37.61q6.07,3.06,12.23,6.07Z" class="cls-10"/><path data-cppathid="10083" d="M490.48,136.12a3.36,3.36,0,0,0-3.89,2.95,3.71,3.71,0,0,0,2.72,4.29,3.37,3.37,0,0,0,3.89-3A3.7,3.7,0,0,0,490.48,136.12Z" class="cls-17"/><path data-cppathid="10084" d="M453.31,148.65a3.36,3.36,0,0,0-3.89,2.95,3.7,3.7,0,0,0,2.73,4.28,3.36,3.36,0,0,0,3.89-2.95A3.7,3.7,0,0,0,453.31,148.65Z" class="cls-17"/><path data-cppathid="10085" d="M429.56,202.92a3.36,3.36,0,0,0-3.89,2.94,3.71,3.71,0,0,0,2.73,4.29,3.36,3.36,0,0,0,3.88-3A3.68,3.68,0,0,0,429.56,202.92Z" class="cls-17"/><path data-cppathid="10086" d="M458.7,312.36a3.36,3.36,0,0,0-3.89,2.95,3.7,3.7,0,0,0,2.72,4.28,3.36,3.36,0,0,0,3.89-2.95A3.7,3.7,0,0,0,458.7,312.36Z" class="cls-17"/><path data-cppathid="10087" d="M394.64,327.62a3.36,3.36,0,0,0-3.89,2.95,3.7,3.7,0,0,0,2.73,4.28,3.36,3.36,0,0,0,3.89-3A3.7,3.7,0,0,0,394.64,327.62Z" class="cls-17"/><path data-cppathid="10088" d="M445.46,347.22c-1.83-.37-3.25-1.07-3.17-1.57s1.63-.61,3.46-.24,3.24,1.08,3.16,1.58S447.29,347.59,445.46,347.22Z" class="cls-17"/><path data-cppathid="10089" d="M454.84,275.63a2.1,2.1,0,0,0-2.42,1.84,2.31,2.31,0,0,0,1.7,2.68,2.1,2.1,0,0,0,2.43-1.84A2.31,2.31,0,0,0,454.84,275.63Z" class="cls-17"/><path data-cppathid="10090" d="M445.3,192.42a2.1,2.1,0,0,0-2.44,1.84,2.32,2.32,0,0,0,1.71,2.68A2.1,2.1,0,0,0,447,195.1,2.31,2.31,0,0,0,445.3,192.42Z" class="cls-17"/><path data-cppathid="10091" d="M477.86,172.05a2.11,2.11,0,0,0-2.43,1.85,2.31,2.31,0,0,0,1.71,2.68,2.11,2.11,0,0,0,2.43-1.85A2.32,2.32,0,0,0,477.86,172.05Z" class="cls-17"/><path data-cppathid="10092" d="M360.09,289.32a2.09,2.09,0,0,0-2.43,1.84,2.31,2.31,0,0,0,1.7,2.68,2.11,2.11,0,0,0,2.43-1.85A2.31,2.31,0,0,0,360.09,289.32Z" class="cls-17"/><path data-cppathid="10093" d="M419.81,158a2.11,2.11,0,0,0-2.43,1.84,2.31,2.31,0,0,0,1.7,2.68,2.09,2.09,0,0,0,2.43-1.84A2.32,2.32,0,0,0,419.81,158Z" class="cls-17"/><path data-cppathid="10094" d="M468.28,132.93a2.1,2.1,0,0,0-2.43,1.84,2.31,2.31,0,0,0,1.7,2.68,2.1,2.1,0,0,0,2.43-1.84A2.31,2.31,0,0,0,468.28,132.93Z" class="cls-17"/><path data-cppathid="10095" d="M399.4,298.05a2.1,2.1,0,0,0-2.43,1.84,2.3,2.3,0,0,0,1.7,2.67,2.08,2.08,0,0,0,2.43-1.84A2.3,2.3,0,0,0,399.4,298.05Z" class="cls-17"/><polygon data-cppathid="10096" points="443.3 256.9 485.58 229.12 451 190.04 488.5 225.71 511.52 177.98 492.42 227.77 541.19 237.34 491.87 232.44 499.03 286.12 487.65 233.26 443.3 256.9" class="cls-18"/><polygon data-cppathid="10097" points="494.65 235.98 504.29 232.52 495.75 226.19 495.53 215 487.57 221.83 477.79 218.36 481.39 228.9 475.56 237.93 485.77 237.67 491.94 246.72 494.65 235.98" class="cls-17"/><polygon data-cppathid="10098" points="362.31 271.63 388.72 254.28 367.13 229.88 390.54 252.15 404.91 222.35 392.98 253.44 423.44 259.41 392.64 256.35 397.11 289.87 390 256.86 362.31 271.63" class="cls-18"/><polygon data-cppathid="10099" points="394.38 258.56 400.4 256.41 395.07 252.46 394.93 245.47 389.95 249.72 383.85 247.56 386.1 254.14 382.46 259.78 388.83 259.62 392.69 265.27 394.38 258.56" class="cls-17"/><polygon data-cppathid="10100" points="417.89 337.11 430.87 328.57 420.26 316.57 431.77 327.53 438.84 312.87 432.97 328.16 447.95 331.1 432.8 329.59 435 346.08 431.51 329.85 417.89 337.11" class="cls-18"/><polygon data-cppathid="10101" points="433.66 330.68 436.62 329.62 433.99 327.68 433.93 324.24 431.48 326.33 428.48 325.27 429.59 328.51 427.8 331.28 430.93 331.2 432.83 333.98 433.66 330.68" class="cls-17"/><polygon data-cppathid="10102" points="441.27 135.95 454.26 127.42 443.64 115.42 455.16 126.37 462.23 111.72 456.36 127 471.34 129.95 456.19 128.44 458.39 144.92 454.9 128.69 441.27 135.95" class="cls-18"/><polygon data-cppathid="10103" points="457.05 129.53 460.01 128.46 457.38 126.52 457.32 123.08 454.87 125.18 451.87 124.12 452.98 127.35 451.19 130.13 454.32 130.05 456.21 132.83 457.05 129.53" class="cls-17"/><polygon data-cppathid="10104" points="427.29 246.78 440.28 238.25 429.66 226.25 441.17 237.2 448.24 222.54 442.37 237.84 457.35 240.78 442.21 239.27 444.41 255.75 440.91 239.52 427.29 246.78" class="cls-18"/><polygon data-cppathid="10105" points="443.06 240.35 446.02 239.29 443.4 237.35 443.33 233.91 440.88 236.01 437.88 234.95 438.99 238.18 437.2 240.96 440.33 240.88 442.23 243.66 443.06 240.35" class="cls-17"/><polygon data-cppathid="10106" points="414.39 118.52 428.44 109.29 416.95 96.3 429.41 108.15 437.06 92.29 430.71 108.84 446.92 112.02 430.53 110.39 432.91 128.22 429.13 110.66 414.39 118.52" class="cls-18"/><polygon data-cppathid="10107" points="431.46 111.57 434.66 110.42 431.82 108.31 431.75 104.6 429.1 106.86 425.85 105.71 427.05 109.22 425.11 112.22 428.5 112.13 430.55 115.14 431.46 111.57" class="cls-17"/><path data-cppathid="10108" d="M348.74,315.13a3.35,3.35,0,0,0-3.89,2.94,3.71,3.71,0,0,0,2.73,4.29,3.36,3.36,0,0,0,3.89-2.95A3.69,3.69,0,0,0,348.74,315.13Z" class="cls-17"/><path data-cppathid="10109" d="M424.44,73.31a3.36,3.36,0,0,0-3.89,2.94,3.71,3.71,0,0,0,2.73,4.29,3.36,3.36,0,0,0,3.89-3A3.7,3.7,0,0,0,424.44,73.31Z" class="cls-17"/><path data-cppathid="10110" d="M427.48,185.55a3.37,3.37,0,0,0-3.89,2.95,3.71,3.71,0,0,0,2.73,4.29,3.37,3.37,0,0,0,3.89-2.95A3.71,3.71,0,0,0,427.48,185.55Z" class="cls-17"/><path data-cppathid="10111" d="M424,269.15a3.36,3.36,0,0,0-3.89,3,3.7,3.7,0,0,0,2.73,4.28,3.36,3.36,0,0,0,3.88-2.95A3.69,3.69,0,0,0,424,269.15Z" class="cls-17"/><path data-cppathid="10112" d="M439.76,258.65a2.1,2.1,0,0,0-2.44,1.84,2.32,2.32,0,0,0,1.71,2.68,2.1,2.1,0,0,0,2.43-1.84A2.31,2.31,0,0,0,439.76,258.65Z" class="cls-17"/><path data-cppathid="10113" d="M421.94,251.78a3.38,3.38,0,0,0-3.89,2.95,3.71,3.71,0,0,0,2.73,4.29,3.36,3.36,0,0,0,3.89-2.95A3.71,3.71,0,0,0,421.94,251.78Z" class="cls-17"/><path data-cppathid="10114" d="M320.56,313.17a3.35,3.35,0,0,0-3.89,2.94,3.71,3.71,0,0,0,2.73,4.29,3.37,3.37,0,0,0,3.89-2.95A3.69,3.69,0,0,0,320.56,313.17Z" class="cls-17"/><path data-cppathid="10115" d="M256.5,328.43a3.36,3.36,0,0,0-3.89,2.94,3.71,3.71,0,0,0,2.73,4.29,3.36,3.36,0,0,0,3.89-3A3.7,3.7,0,0,0,256.5,328.43Z" class="cls-17"/><path data-cppathid="10116" d="M316.71,276.44a2.1,2.1,0,0,0-2.43,1.84A2.31,2.31,0,0,0,316,281a2.11,2.11,0,0,0,2.43-1.85A2.31,2.31,0,0,0,316.71,276.44Z" class="cls-17"/><path data-cppathid="10117" d="M470.26,202.92a2.1,2.1,0,0,0-2.44,1.84,2.31,2.31,0,0,0,1.71,2.68A2.1,2.1,0,0,0,472,205.6,2.31,2.31,0,0,0,470.26,202.92Z" class="cls-17"/><path data-cppathid="10118" d="M467.84,167.36a2.1,2.1,0,0,0-2.43,1.84,2.31,2.31,0,0,0,1.7,2.68,2.11,2.11,0,0,0,2.44-1.84A2.32,2.32,0,0,0,467.84,167.36Z" class="cls-17"/><path data-cppathid="10119" d="M374.58,270.87a3.36,3.36,0,0,0-3.89,2.94,3.71,3.71,0,0,0,2.73,4.29,3.36,3.36,0,0,0,3.89-3A3.7,3.7,0,0,0,374.58,270.87Z" class="cls-17"/><path data-cppathid="10120" d="M341.08,280.21a2.11,2.11,0,0,0-2.43,1.84,2.31,2.31,0,0,0,1.7,2.68,2.1,2.1,0,0,0,2.43-1.84A2.31,2.31,0,0,0,341.08,280.21Z" class="cls-17"/><path data-cppathid="10121" d="M389.11,289.57a2.11,2.11,0,0,0-2.43,1.85,2.32,2.32,0,0,0,1.7,2.68,2.11,2.11,0,0,0,2.44-1.85A2.32,2.32,0,0,0,389.11,289.57Z" class="cls-17"/><path data-cppathid="10122" d="M404.65,108.94a2.11,2.11,0,0,0-2.43,1.85,2.31,2.31,0,0,0,1.7,2.67,2.1,2.1,0,0,0,2.43-1.84A2.31,2.31,0,0,0,404.65,108.94Z" class="cls-17"/><path data-cppathid="10123" d="M450.8,205.52a2.1,2.1,0,0,0-2.43,1.84,2.31,2.31,0,0,0,1.7,2.68,2.1,2.1,0,0,0,2.43-1.84A2.31,2.31,0,0,0,450.8,205.52Z" class="cls-17"/><path data-cppathid="10124" d="M261.26,298.85a2.11,2.11,0,0,0-2.43,1.84,2.32,2.32,0,0,0,1.71,2.68,2.1,2.1,0,0,0,2.43-1.84A2.32,2.32,0,0,0,261.26,298.85Z" class="cls-8"/><polygon data-cppathid="10125" points="314.89 370.17 357.17 342.4 322.6 303.31 360.09 338.99 383.11 291.25 364.01 341.04 412.78 350.62 363.46 345.71 370.62 399.39 359.23 346.54 314.89 370.17" class="cls-18"/><polygon data-cppathid="10126" points="366.24 349.25 375.88 345.8 367.34 339.47 367.12 328.28 359.15 335.1 349.37 331.63 352.98 342.18 347.15 351.21 357.36 350.94 363.53 360 366.24 349.25" class="cls-17"/><polygon data-cppathid="10127" points="193.66 324.53 220.06 307.18 198.47 282.78 221.88 305.05 236.25 275.25 224.33 306.33 254.78 312.31 223.98 309.25 228.45 342.76 221.35 309.76 193.66 324.53" class="cls-18"/><polygon data-cppathid="10128" points="225.72 311.46 231.74 309.3 226.41 305.35 226.27 298.36 221.3 302.63 215.19 300.46 217.44 307.04 213.8 312.68 220.18 312.51 224.03 318.17 225.72 311.46" class="cls-17"/><polygon data-cppathid="10129" points="271.12 313.48 297.52 296.14 275.93 271.73 299.34 294 313.71 264.2 301.79 295.29 332.24 301.27 301.44 298.21 305.92 331.72 298.81 298.72 271.12 313.48" class="cls-18"/><polygon data-cppathid="10130" points="303.18 300.41 309.2 298.26 303.87 294.31 303.73 287.32 298.76 291.58 292.65 289.42 294.9 296 291.26 301.64 297.64 301.47 301.49 307.12 303.18 300.41" class="cls-17"/><polygon data-cppathid="10131" points="279.75 337.92 292.74 329.38 282.12 317.38 293.63 328.33 300.7 313.68 294.84 328.96 309.81 331.91 294.67 330.4 296.87 346.88 293.37 330.65 279.75 337.92" class="cls-18"/><polygon data-cppathid="10132" points="295.52 331.49 298.49 330.43 295.86 328.48 295.79 325.05 293.34 327.14 290.34 326.08 291.45 329.31 289.66 332.09 292.8 332 294.69 334.79 295.52 331.49" class="cls-17"/><path data-cppathid="10133" d="M760.76,449.6a3.37,3.37,0,0,0,4.19,2.5A3.71,3.71,0,0,0,767.9,448a3.36,3.36,0,0,0-4.19-2.5A3.7,3.7,0,0,0,760.76,449.6Z" class="cls-17"/><path data-cppathid="10134" d="M799,503.23a3.35,3.35,0,0,0,4.19,2.49,3.69,3.69,0,0,0,3-4.13,3.35,3.35,0,0,0-4.19-2.5A3.71,3.71,0,0,0,799,503.23Z" class="cls-17"/><path data-cppathid="10135" d="M798,448.77c.34,1.83.22,3.41-.27,3.52s-1.17-1.28-1.52-3.11-.22-3.41.28-3.53S797.69,446.93,798,448.77Z" class="cls-17"/><path data-cppathid="10136" d="M776.46,549.64a2.11,2.11,0,0,0,2.62,1.56,2.32,2.32,0,0,0,1.85-2.59,2.12,2.12,0,0,0-2.63-1.56A2.32,2.32,0,0,0,776.46,549.64Z" class="cls-17"/><path data-cppathid="10137" d="M769.78,509.93a2.1,2.1,0,0,0,2.62,1.56,2.32,2.32,0,0,0,1.84-2.59,2.11,2.11,0,0,0-2.62-1.56A2.31,2.31,0,0,0,769.78,509.93Z" class="cls-17"/><polygon data-cppathid="10138" points="759.23 554.22 733.24 536.27 718.73 565.45 730.58 535.38 697.56 533.27 730.85 532.64 724.95 502.17 733.68 531.86 763.06 515.12 735.14 534.11 759.23 554.22" class="cls-18"/><polygon data-cppathid="10139" points="735.08 529.42 730.81 524.65 729.15 531.08 722.73 533.83 728.55 536.84 728.84 543.31 734.09 538.75 740.68 540.01 738.14 534.16 741.93 528.47 735.08 529.42" class="cls-17"/><polygon data-cppathid="10140" points="799.03 478.12 786.24 469.29 779.11 483.64 784.93 468.85 768.7 467.81 785.07 467.5 782.17 452.51 786.46 467.12 800.91 458.89 787.18 468.22 799.03 478.12" class="cls-18"/><polygon data-cppathid="10141" points="787.15 465.92 785.05 463.57 784.24 466.73 781.08 468.09 783.94 469.56 784.08 472.75 786.66 470.51 789.91 471.13 788.65 468.25 790.52 465.45 787.15 465.92" class="cls-17"/><path data-cppathid="10142" d="M804.64,550.45a3.35,3.35,0,0,0,4.19,2.5,3.69,3.69,0,0,0,2.95-4.13,3.36,3.36,0,0,0-4.19-2.5A3.69,3.69,0,0,0,804.64,550.45Z" class="cls-17"/><path data-cppathid="10143" d="M733.75,498a3.36,3.36,0,0,0,4.19,2.5,3.72,3.72,0,0,0,2.95-4.14,3.36,3.36,0,0,0-4.2-2.49A3.69,3.69,0,0,0,733.75,498Z" class="cls-17"/><path data-cppathid="10144" d="M813.42,577.31a3.35,3.35,0,0,0,4.19,2.49,3.7,3.7,0,0,0,2.95-4.13,3.38,3.38,0,0,0-4.2-2.5A3.69,3.69,0,0,0,813.42,577.31Z" class="cls-17"/><path data-cppathid="10145" d="M851.63,630.94a3.35,3.35,0,0,0,4.19,2.49,3.69,3.69,0,0,0,2.95-4.13,3.35,3.35,0,0,0-4.2-2.5A3.69,3.69,0,0,0,851.63,630.94Z" class="cls-17"/><path data-cppathid="10146" d="M780.83,594.68a2.09,2.09,0,0,0,2.62,1.55,2.3,2.3,0,0,0,1.84-2.57,2.11,2.11,0,0,0-2.62-1.57A2.31,2.31,0,0,0,780.83,594.68Z" class="cls-17"/><path data-cppathid="10147" d="M753.92,543.14a3.36,3.36,0,0,0,4.19,2.5,3.71,3.71,0,0,0,2.95-4.14,3.38,3.38,0,0,0-4.2-2.5A3.7,3.7,0,0,0,753.92,543.14Z" class="cls-17"/><path data-cppathid="10148" d="M775.16,570.68a2.12,2.12,0,0,0,2.63,1.56,2.32,2.32,0,0,0,1.84-2.59A2.1,2.1,0,0,0,777,568.1,2.3,2.3,0,0,0,775.16,570.68Z" class="cls-17"/><path data-cppathid="10149" d="M765.79,522.65a2.11,2.11,0,0,0,2.62,1.56,2.32,2.32,0,0,0,1.85-2.59,2.11,2.11,0,0,0-2.63-1.56A2.32,2.32,0,0,0,765.79,522.65Z" class="cls-17"/><path data-cppathid="10150" d="M822.43,637.64a2.11,2.11,0,0,0,2.63,1.56,2.31,2.31,0,0,0,1.83-2.59,2.1,2.1,0,0,0-2.62-1.56A2.32,2.32,0,0,0,822.43,637.64Z" class="cls-17"/><polygon data-cppathid="10151" points="868.38 561.14 826.75 532.39 803.52 579.13 822.49 530.97 769.6 527.58 822.92 526.57 813.47 477.77 827.46 525.32 874.51 498.52 829.81 528.93 868.38 561.14" class="cls-18"/><polygon data-cppathid="10152" points="829.69 521.41 822.87 513.78 820.21 524.07 809.92 528.48 819.24 533.3 819.7 543.67 828.12 536.36 838.68 538.37 834.59 529.01 840.67 519.89 829.69 521.41" class="cls-17"/><polygon data-cppathid="10153" points="871.63 690.64 845.63 672.69 831.13 701.87 842.98 671.8 809.96 669.69 843.25 669.06 837.34 638.59 846.08 668.28 875.46 651.54 847.55 670.53 871.63 690.64" class="cls-18"/><polygon data-cppathid="10154" points="847.48 665.84 843.21 661.07 841.55 667.5 835.13 670.25 840.95 673.26 841.24 679.73 846.49 675.17 853.08 676.42 850.53 670.58 854.32 664.88 847.48 665.84" class="cls-17"/><polygon data-cppathid="10155" points="832.29 623.01 806.29 605.06 791.79 634.24 803.63 604.17 770.62 602.05 803.91 601.42 798 570.95 806.74 600.64 836.11 583.91 808.2 602.89 832.29 623.01" class="cls-18"/><polygon data-cppathid="10156" points="808.13 598.2 803.87 593.43 802.21 599.86 795.79 602.62 801.6 605.62 801.9 612.1 807.15 607.54 813.74 608.79 811.19 602.95 814.98 597.25 808.13 598.2" class="cls-17"/><polygon data-cppathid="10157" points="851.69 605.83 838.9 597 831.77 611.35 837.59 596.56 821.35 595.52 837.72 595.21 834.82 580.22 839.12 594.83 853.57 586.59 839.84 595.93 851.69 605.83" class="cls-18"/><polygon data-cppathid="10158" points="839.8 593.62 837.71 591.28 836.89 594.44 833.73 595.8 836.59 597.28 836.74 600.46 839.32 598.22 842.56 598.83 841.31 595.96 843.17 593.16 839.8 593.62" class="cls-17"/></g></g></svg>