<?xml version="1.0" encoding="UTF-8"?>
<svg xmlns="http://www.w3.org/2000/svg" onmouseup="{ if(window.parent.document.onmouseup) window.parent.document.onmouseup(arguments[0]);}" viewBox="0 0 403.28 392.22"><defs><style>.cls-1{fill:#fff100;}.cls-2{fill:#603813;}</style></defs><g data-name="Layer 2" id="Layer_2"><g id="backlog"><g data-name="2023 jp" id="_2023_jp"><g data-name="initial Product Backlog" id="initial_Product_Backlog"><g data-name="Attendance PBI" id="Attendance_PBI"><path data-cppathid="10000" d="M403.28,73.8a12.39,12.39,0,0,1-12.39,12.38H12.38A12.38,12.38,0,0,1,0,73.8V12.38A12.38,12.38,0,0,1,12.38,0H390.89a12.39,12.39,0,0,1,12.39,12.38Z" class="cls-1"/><path data-cppathid="10001" d="M165,52v.07h5.33V46.32a.72.72,0,0,1,.81-.81h1.52a.72.72,0,0,1,.81.81V53a.72.72,0,0,1-.81.81H171.1a.83.83,0,0,1-.64-.24h-16.3a.72.72,0,0,1-.81-.81V46.32a.72.72,0,0,1,.81-.81h1.52a.72.72,0,0,1,.81.81v5.79h5.33V43.05h-6.9a.72.72,0,0,1-.81-.81V35a.72.72,0,0,1,.81-.81h1.52a.72.72,0,0,1,.81.81v6.56h4.57V33.67a.72.72,0,0,1,.81-.81h1.52a.72.72,0,0,1,.81.81v7.91h4.57V35a.72.72,0,0,1,.81-.81h1.52a.72.72,0,0,1,.81.81v7.69a.72.72,0,0,1-.81.81h-1.52a.72.72,0,0,1-.76-.47H165Z" class="cls-2"/><path data-cppathid="10002" d="M180.14,53.73a.74.74,0,0,1-.86.77l-1.52,0c-.56,0-.81-.32-.76-.86l1.37-17a.73.73,0,0,1,.86-.76l1.52.05a.81.81,0,0,1,.67.34h6.36a.93.93,0,0,1-.08-.39V33.3a.72.72,0,0,1,.81-.81H190a.72.72,0,0,1,.81.81v2.53a.93.93,0,0,1-.08.39h7.39c.54,0,.81.25.81.74s-.27.74-.81.74H181.44Zm4.93-1.1a.72.72,0,0,1-.81.81h-1.52a.72.72,0,0,1-.81-.81V47.25a.72.72,0,0,1,.81-.81h1.52a.79.79,0,0,1,.64.25h2.95V44.94h-3.46a.72.72,0,0,1-.81-.81V41.38h-1.26c-.54,0-.81-.24-.81-.74s.27-.73.81-.73h1.26V39a.72.72,0,0,1,.81-.81h1.52a.72.72,0,0,1,.81.81v.89h5.72V39a.72.72,0,0,1,.81-.81h1.53a.72.72,0,0,1,.81.81v.89h1.86c.54,0,.81.24.81.73s-.27.74-.81.74h-1.86V44.3a.72.72,0,0,1-.81.81h-1.53a.76.76,0,0,1-.54-.17H191v1.75h5.14a.72.72,0,0,1,.81.81v5c0,.59-.29.84-.86.76l-3.37-.39c-.56-.08-.78-.36-.69-.84a.79.79,0,0,1,.94-.63l.83.09V48.16H191v5.3a.72.72,0,0,1-.81.81h-1.52a.72.72,0,0,1-.81-.81v-5.3h-2.78Zm1.65-9.16h5.72V41.38h-5.72Z" class="cls-2"/><path data-cppathid="10003" d="M205.58,47.37a.13.13,0,0,0,.07,0V40.47l-3-2.58a1.07,1.07,0,0,1-.4-.78.71.71,0,0,1,.4-.66l.56-.32a.78.78,0,0,1,.35-.08.77.77,0,0,1,.51.17l1.57,1.36v-4a.83.83,0,0,1,.25-.59.81.81,0,0,1,.59-.24H208a.81.81,0,0,1,.59.24.83.83,0,0,1,.25.59V53.24a.82.82,0,0,1-.25.59.78.78,0,0,1-.59.25h-1.47a.78.78,0,0,1-.59-.25.82.82,0,0,1-.25-.59V49.68l-2,1.33a.8.8,0,0,1-.4.12.78.78,0,0,1-.44-.15l-.17-.12a.93.93,0,0,1,0-1.57Zm6.66,6.34a.67.67,0,0,1-.57.27h-.15l-.14,0-.74-.29a.81.81,0,0,1-.61-.81,1,1,0,0,1,.22-.62,23.2,23.2,0,0,0,2.89-5,23.89,23.89,0,0,0,1.58-5.83H211a.87.87,0,0,1-.59-.21.64.64,0,0,1-.25-.53.63.63,0,0,1,.25-.52A.87.87,0,0,1,211,40h3.95c.1-.92.17-1.89.22-2.9s.08-2.1.1-3.27a.85.85,0,0,1,.23-.6A.82.82,0,0,1,216,33h1.5c.23,0,.42.16.59.48a2.39,2.39,0,0,1,.22,1.19c0,1,0,1.94-.11,2.82S218.1,39.17,218,40h4.12a.87.87,0,0,1,.59.21.65.65,0,0,1,.25.52.67.67,0,0,1-.25.53.87.87,0,0,1-.59.21h-4.32c-.07.41-.13.8-.2,1.18a2.1,2.1,0,0,1,.15.22l5,9.65a.94.94,0,0,1,.13.44.78.78,0,0,1-.19.53.86.86,0,0,1-.52.31L221.1,54a.83.83,0,0,1-.49-.05.72.72,0,0,1-.37-.34l-3.71-7.1a17.81,17.81,0,0,1-1.89,3.89C213.9,51.55,213.1,52.65,212.24,53.71ZM222.92,38a.84.84,0,0,1-.15.69.88.88,0,0,1-.61.34l-1.45.12a.81.81,0,0,1-.57-.15.67.67,0,0,1-.29-.49L219.14,35a.9.9,0,0,1,.14-.71.79.79,0,0,1,.62-.32l1.45-.12a.73.73,0,0,1,.56.13.81.81,0,0,1,.3.51Z" class="cls-2"/><path data-cppathid="10004" d="M230.31,48.18a1,1,0,0,1,.69-.34l.22,0,.19.08.77.32c.32.14.49.34.49.59a.79.79,0,0,1-.25.54l-3.51,3.8a1,1,0,0,1-.69.35.43.43,0,0,1-.19,0l-.23-.06-.76-.32c-.32-.15-.49-.34-.49-.59a.72.72,0,0,1,.25-.54Zm1.59-4.74a.7.7,0,0,1,.37.57.71.71,0,0,1-.37.56l-.39.27a.9.9,0,0,1-.56.2,1.06,1.06,0,0,1-.57-.2l-3.26-2.25a.74.74,0,0,1-.37-.57.67.67,0,0,1,.37-.56l.39-.28a1,1,0,0,1,.56-.19.84.84,0,0,1,.57.19Zm.08-6.38a.77.77,0,0,1,.32.56.66.66,0,0,1-.42.57l-.56.29a1,1,0,0,1-.52.15.88.88,0,0,1-.59-.24l-3-2.56a.77.77,0,0,1-.32-.56.66.66,0,0,1,.42-.57l.56-.29a1.06,1.06,0,0,1,.52-.15.84.84,0,0,1,.59.25Zm2.28,16.38a.81.81,0,0,1-.73.49h-.15l-.15,0-1.15-.29c-.38-.1-.57-.31-.57-.62a1.17,1.17,0,0,1,.13-.44l4.05-7.24h-1.53a.72.72,0,0,1-.81-.81V33.82a.72.72,0,0,1,.81-.81h1.53a.71.71,0,0,1,.73.41h8.16a.72.72,0,0,1,.81.82V44.48a.72.72,0,0,1-.81.81h-1.53a.78.78,0,0,1-.22,0v6.88H244V49.22a.72.72,0,0,1,.81-.82h1.52a.72.72,0,0,1,.81.82V52.8a.72.72,0,0,1-.81.81H240.5a.72.72,0,0,1-.81-.81V44.87h-.76a1,1,0,0,1-.12.44Zm8-18.54H236.5v8.5h5.74Z" class="cls-2"/></g><g data-name="Event Calendar PBI" id="Event_Calendar_PBI"><rect data-cppathid="10005" rx="12.38" height="86.18" width="403.28" y="101.24" class="cls-1"/><path data-cppathid="10006" d="M105.58,148.5a1,1,0,0,1-.51.14.91.91,0,0,1-.62-.24l-.24-.2a.79.79,0,0,1-.35-.56q0-.3.42-.57l17.24-10A1.06,1.06,0,0,1,122,137a.9.9,0,0,1,.61.25l.25.2a.77.77,0,0,1,.34.56q0,.3-.42.57L116,142.48a.76.76,0,0,1,.19.56v11.05a.72.72,0,0,1-.81.82h-1.52a.72.72,0,0,1-.81-.82v-9.92Z" class="cls-2"/><path data-cppathid="10007" d="M145.61,152.65a.71.71,0,0,1,.2.49c0,.26-.17.46-.52.59l-.93.32a1.61,1.61,0,0,1-.39.07.85.85,0,0,1-.69-.39l-8.84-11.47-6,10a.91.91,0,0,1-.76.47h-.15l-.14,0-1.11-.3c-.38-.09-.56-.29-.56-.58a1,1,0,0,1,.14-.47l7.69-12.87a.64.64,0,0,1,.54-.39.76.76,0,0,1,.59.34Zm-2.38-9.41a1.06,1.06,0,0,1,0,.27.64.64,0,0,1-.66.69l-.71.1a.73.73,0,0,1-.93-.64l-1.28-5.16a.91.91,0,0,1,0-.27.65.65,0,0,1,.67-.69l.71-.09a.75.75,0,0,1,1,.63Zm2.7-1.5a1,1,0,0,1,0,.27.67.67,0,0,1-.64.69l-.71.12a.74.74,0,0,1-1-.64l-1.25-4.81a.83.83,0,0,1,0-.15.66.66,0,0,1,0-.14c0-.36.22-.58.66-.67l.71-.12a.76.76,0,0,1,1,.64Z" class="cls-2"/><path data-cppathid="10008" d="M157.77,141.08c.28.18.42.37.42.56a.75.75,0,0,1-.35.57l-.29.25a1.05,1.05,0,0,1-.59.22,1,1,0,0,1-.54-.18l-6.51-3.95c-.28-.18-.42-.37-.42-.56a.75.75,0,0,1,.35-.57l.29-.25a1,1,0,0,1,.59-.22,1,1,0,0,1,.54.18Zm7.93,2.65a1.07,1.07,0,0,1,.56-.17,1,1,0,0,1,.57.2l.32.24a.74.74,0,0,1,.34.57.68.68,0,0,1-.39.56l-14.44,9.09a1.08,1.08,0,0,1-.57.17,1,1,0,0,1-.56-.2l-.32-.24a.74.74,0,0,1-.34-.57.68.68,0,0,1,.39-.56Z" class="cls-2"/><path data-cppathid="10009" d="M176.36,154.32a.72.72,0,0,1-.81.81H174a.72.72,0,0,1-.81-.81V137.25a.72.72,0,0,1,.81-.81h1.53a.72.72,0,0,1,.81.81v7l8.89,2.88c.37.13.56.32.56.59a.72.72,0,0,1-.15.41l-.09.13a.83.83,0,0,1-.72.41h-.16l-.18,0L176.36,146Z" class="cls-2"/><path data-cppathid="10010" d="M194,154.51a.8.8,0,0,1-.76.57h-.12a.21.21,0,0,1-.12,0l-1.3-.27c-.41-.08-.62-.28-.62-.61a1.18,1.18,0,0,1,.08-.39L196.57,141h-6c-.54,0-.81-.25-.81-.74s.27-.74.81-.74h6.65l1.06-2.48a.8.8,0,0,1,.76-.56h.12l.12,0,1.31.27c.4.08.61.29.61.62a1.24,1.24,0,0,1-.07.39l-.74,1.74H209c.51,0,.76.22.76.64a.61.61,0,0,1,0,.14l0,.13-3.47,13.9a.74.74,0,0,1-1,.64l-4.94-.81c-.44-.08-.66-.29-.66-.61a.61.61,0,0,1,0-.14.65.65,0,0,1,0-.13l0-.05a.78.78,0,0,1,.76-.59h.11l.11,0,2.65.47L206.44,141h-6.73Z" class="cls-2"/><path data-cppathid="10011" d="M230,146.16a1.05,1.05,0,0,1,.44-.1.88.88,0,0,1,.66.3l.13.12a.78.78,0,0,1,.27.54c0,.25-.16.44-.47.59l-15.64,7.17a.82.82,0,0,1-.4.1c-.37,0-.56-.24-.56-.71V137.42a.72.72,0,0,1,.81-.81h1.52a.72.72,0,0,1,.81.81v14.42Z" class="cls-2"/><path data-cppathid="10012" d="M242.32,141.08c.28.18.42.37.42.56a.75.75,0,0,1-.35.57l-.29.25a1.05,1.05,0,0,1-.59.22,1,1,0,0,1-.54-.18l-6.51-3.95c-.28-.18-.42-.37-.42-.56a.75.75,0,0,1,.35-.57l.29-.25a1,1,0,0,1,.59-.22,1,1,0,0,1,.54.18Zm7.93,2.65a1.07,1.07,0,0,1,.56-.17,1,1,0,0,1,.57.2l.32.24a.74.74,0,0,1,.34.57.68.68,0,0,1-.39.56l-14.44,9.09a1.08,1.08,0,0,1-.57.17,1,1,0,0,1-.56-.2l-.32-.24a.74.74,0,0,1-.34-.57.68.68,0,0,1,.39-.56Z" class="cls-2"/><path data-cppathid="10013" d="M258.23,146.56a.74.74,0,0,1-.69.46h-.17l-.17,0-1.16-.29c-.37-.1-.56-.3-.56-.62a1,1,0,0,1,.12-.44l5.48-9.67a.75.75,0,0,1,.69-.47h.17l.17,0,1.15.29c.38.1.57.31.57.62a1,1,0,0,1-.12.44l0,.05h10.39c.47,0,.71.18.71.54a1,1,0,0,1-.15.44l-9.38,16.26a.84.84,0,0,1-.73.46h-.15l-.17,0-1.11-.3c-.39-.1-.59-.3-.59-.61a.86.86,0,0,1,.15-.44l3.73-6.46-.05,0-4.69-2.8a.62.62,0,0,1-.41-.56.74.74,0,0,1,.34-.57l.29-.24a.88.88,0,0,1,.62-.25.89.89,0,0,1,.51.17l4.35,2.61,3.88-6.71h-8.37Zm17-9.6a.58.58,0,0,1,0,.21c0,.31-.22.48-.66.52l-.72.07c-.5.06-.82-.1-.93-.48l-1.28-3.9a1.06,1.06,0,0,1,0-.21c0-.3.22-.48.66-.51l.71-.08q.8-.09,1,.48Zm2.71-1.13a1,1,0,0,1,0,.2c0,.29-.21.46-.64.52l-.71.1c-.53.06-.84-.1-1-.49l-1.25-3.63a.56.56,0,0,1,0-.12.37.37,0,0,1,0-.11c0-.27.22-.44.66-.5l.71-.09q.8-.09,1,.48Z" class="cls-2"/><path data-cppathid="10014" d="M295.41,144.76c.54,0,.81.25.81.74s-.27.74-.81.74H278.86c-.54,0-.81-.25-.81-.74s.27-.74.81-.74Z" class="cls-2"/></g><g data-name="Alumni PBI" id="Alumni_PBI"><path data-cppathid="10015" d="M403.28,276.29a12.39,12.39,0,0,1-12.39,12.38H12.38A12.38,12.38,0,0,1,0,276.29V214.87a12.38,12.38,0,0,1,12.38-12.38H390.89a12.39,12.39,0,0,1,12.39,12.38Z" class="cls-1"/><path data-cppathid="10016" d="M152.68,238.64v.08h8.18c.54,0,.81.24.81.73s-.27.74-.81.74h-19.5c-.54,0-.81-.25-.81-.74s.27-.73.81-.73h8.18v-2.93a.72.72,0,0,1,.81-.81h1.52a.72.72,0,0,1,.81.81Zm0,17.44a.72.72,0,0,1-.81.81h-1.52a.72.72,0,0,1-.81-.81v-2.56h-8.18c-.54,0-.81-.24-.81-.73s.27-.74.81-.74h8.18v-2a.72.72,0,0,1,.81-.82h1.52a.72.72,0,0,1,.81.82v2h8.18c.54,0,.81.25.81.74s-.27.73-.81.73h-8.18Zm-9.2-6.07a.92.92,0,0,1-.74.47h-.15l-.17,0-1.11-.32c-.37-.13-.56-.34-.56-.61a.89.89,0,0,1,.15-.47l4.91-8.11a.89.89,0,0,1,.73-.46h.15l.17,0,1.11.32c.38.13.56.33.56.61a1.11,1.11,0,0,1-.14.47l-1.57,2.6,0,0,3.24,3a.69.69,0,0,1,.3.54c0,.23-.15.41-.45.56l-.61.32a.93.93,0,0,1-.49.15.89.89,0,0,1-.64-.3l-2.55-2.38Zm11-1.45a.87.87,0,0,1-.76.44,1.39,1.39,0,0,1-.32,0l-1.06-.32c-.38-.13-.56-.33-.56-.59a.67.67,0,0,1,0-.24l.13-.23,4.37-6.68a.88.88,0,0,1,.76-.44,1.09,1.09,0,0,1,.32,0l1,.32c.38.13.57.32.57.59a.68.68,0,0,1-.05.22,1.34,1.34,0,0,1-.12.24l-1.67,2.56a1,1,0,0,1,.22.19l3.88,4.37a.76.76,0,0,1,.24.52c0,.26-.16.46-.49.59l-.81.34a.92.92,0,0,1-.44.1.81.81,0,0,1-.66-.34l-3.29-3.71Z" class="cls-2"/><path data-cppathid="10017" d="M177.24,256.27a.72.72,0,0,1-.81.81h-1.52a.72.72,0,0,1-.81-.81v-2.58l-6.39,2.63a.86.86,0,0,1-.41.1.89.89,0,0,1-.69-.37l-.08-.1a.87.87,0,0,1-.22-.51c0-.26.17-.46.49-.59l4.67-1.92h-5.55c-.54,0-.81-.24-.81-.73s.27-.74.81-.74h8.18v-1.25h-7.22c-.54,0-.81-.25-.81-.74s.27-.74.81-.74h7.22V247.6h-7.93c-.54,0-.81-.24-.81-.73s.27-.74.81-.74h4l-.59-3.61a1.09,1.09,0,0,1,0-.22h-3.66c-.54,0-.81-.25-.81-.74s.27-.73.81-.73h5.72V236a.72.72,0,0,1,.81-.81h1.53a.72.72,0,0,1,.81.81v4.84h1.89V236a.72.72,0,0,1,.81-.81H179a.72.72,0,0,1,.81.81v4.84h5.92c.54,0,.81.24.81.73s-.27.74-.81.74h-3.93v0a1.57,1.57,0,0,1,0,.25l-.84,3.56h4.15c.54,0,.81.25.81.74s-.27.73-.81.73h-7.81v1.13h7.2c.54,0,.81.25.81.74s-.27.74-.81.74h-7.2v1.25h8.18c.54,0,.81.25.81.74s-.27.73-.81.73h-5.75l5,1.94c.36.15.54.35.54.59a.74.74,0,0,1-.2.44l-.12.15a.89.89,0,0,1-.71.37,1.25,1.25,0,0,1-.4-.07l-6.53-2.58Zm-7-17a.85.85,0,0,1,0,.25q0,.58-.69.66l-1.48.15a.77.77,0,0,1-.93-.67l-.69-3.14a.37.37,0,0,1,0-.12v-.13c0-.39.24-.61.71-.66l1.48-.15a.77.77,0,0,1,.93.69Zm3,6.63a1.09,1.09,0,0,1,0,.22h4.55v0a.94.94,0,0,1,0-.25l.84-3.56h-6Zm11.34-6.26a.76.76,0,0,1-.91.69l-1.47-.15c-.55-.05-.78-.35-.69-.91l.59-2.9a.76.76,0,0,1,.91-.69l1.48.15c.55,0,.78.35.68.91Z" class="cls-2"/><path data-cppathid="10018" d="M192.07,246.62a.79.79,0,0,1-.76.54h-.12l-.12,0-1.23-.25c-.41-.1-.62-.32-.62-.66a1,1,0,0,1,.08-.37l4.3-9.38a.79.79,0,0,1,.76-.54h.12l.12,0,1.23.25c.41.1.62.3.62.61a1,1,0,0,1-.1.42L195,240.16h4.35v-4.32a.72.72,0,0,1,.81-.81h1.52a.72.72,0,0,1,.81.81v4.32h6.68c.54,0,.81.25.81.74s-.27.74-.81.74h-6.68v6.16h5.7c.54,0,.81.25.81.74s-.27.73-.81.73h-5.7v5.33h7.42c.54,0,.81.25.81.74s-.27.74-.81.74h-19.5c-.54,0-.81-.25-.81-.74s.27-.74.81-.74h8.94v-5.33h-6.58c-.54,0-.81-.24-.81-.73s.27-.74.81-.74h6.58v-6.16h-5Z" class="cls-2"/><path data-cppathid="10019" d="M222.82,239.7c.54,0,.81.24.81.73s-.27.74-.81.74h-7.49c-.54,0-.81-.25-.81-.74s.27-.73.81-.73Zm.64,15.93a.72.72,0,0,1-.81.82h-1.53a.74.74,0,0,1-.71-.37h-2.55a.71.71,0,0,1-.81.68h-1.52a.72.72,0,0,1-.81-.81V250.7a.72.72,0,0,1,.81-.81h1.52a.76.76,0,0,1,.69.32h4.91a.72.72,0,0,1,.81.81Zm-1-12.32c.54,0,.81.24.81.73s-.27.74-.81.74h-6.78c-.54,0-.81-.24-.81-.74s.27-.73.81-.73Zm-.07,3.68c.54,0,.81.25.81.74s-.27.73-.81.73H215.8c-.54,0-.81-.24-.81-.73s.27-.74.81-.74Zm-.47-9.65c.34.15.52.34.52.59a.79.79,0,0,1-.2.47l-.12.14a.92.92,0,0,1-.69.37.87.87,0,0,1-.42-.1l-4.69-1.94c-.34-.14-.51-.34-.51-.59a.75.75,0,0,1,.19-.46l.12-.15a.92.92,0,0,1,.69-.37.87.87,0,0,1,.42.1Zm-1.6,14.34h-2.45v2.92h2.45Zm12.26,1.4a.72.72,0,0,1,.81-.81h1.52a.72.72,0,0,1,.81.81v2.19a.72.72,0,0,1-.81.81h-9.23a.72.72,0,0,1-.81-.81V245.15a.72.72,0,0,1,.81-.81h1.52a.75.75,0,0,1,.69.32h3.83v-6.51h-7.29c-.55,0-.81-.25-.81-.74s.26-.73.81-.73H234a.72.72,0,0,1,.81.81v8.1a.72.72,0,0,1-.81.81h-1.52a.73.73,0,0,1-.64-.27H228v8.47h4.57Z" class="cls-2"/><path data-cppathid="10020" d="M247.06,253.79a.81.81,0,0,1,.81.35.74.74,0,0,1,.12-.27l2-3.22a.86.86,0,0,1,.76-.44,1.09,1.09,0,0,1,.32,0l1,.32c.38.13.57.32.57.59a.74.74,0,0,1,0,.22,1.34,1.34,0,0,1-.12.24l-2,3.22a.9.9,0,0,1-.76.44,1.57,1.57,0,0,1-.32,0l-1.06-.32a1.18,1.18,0,0,1-.39-.19q0,.47-.69.54l-6.41.73a.79.79,0,0,1-.93-.66.56.56,0,0,1,0-.2c0-.34.23-.55.71-.63l1.77-.2v-5.6H240.5c-.54,0-.81-.25-.81-.74s.27-.73.81-.73h1.92v-2.58a1,1,0,0,1,.07-.42h-.39a.78.78,0,0,1-.62-.22l-.37.71a.82.82,0,0,1-.76.52l-.27-.05-1.2-.3c-.38-.1-.57-.3-.57-.61a1,1,0,0,1,.1-.42l4.3-8.45a.83.83,0,0,1,.76-.51,1,1,0,0,1,.27.05l1.21.29c.37.1.56.31.56.62v0a1.51,1.51,0,0,1,.32.34l3.41,5.65a.92.92,0,0,1,.15.47c0,.31-.19.52-.57.61l-1.1.32a.78.78,0,0,1,0,.22c0,.49-.27.74-.81.74h-1.47a.77.77,0,0,1,.1.42v2.58h1.89c.54,0,.81.24.81.73s-.27.74-.81.74h-1.89V254Zm-4.94-.64c0,.53-.19.81-.56.84l-1.08,0c-.38,0-.58-.22-.59-.76l-.13-3c0-.52.15-.8.54-.83l1.08,0c.38,0,.58.22.59.76Zm0-10.38h4.49l-2.45-4Zm5.94,10.14c-.08.52-.28.76-.61.71l-1-.12c-.41-.05-.58-.35-.49-.91l.29-2.53c.08-.52.29-.76.61-.71l1,.12c.39.05.55.35.47.91Zm4.23-4.79a1,1,0,0,1,.12.44c0,.31-.19.52-.56.62l-1.16.29-.15,0h-.14a.82.82,0,0,1-.74-.49l-1.45-2.58a1,1,0,0,1-.12-.44c0-.31.19-.52.56-.62l1.16-.29.14,0h.15a.82.82,0,0,1,.74.49Zm-1,8.2c-.49-.05-.74-.25-.74-.61a.88.88,0,0,1,.26-.68.85.85,0,0,1,.68-.18l1.2.12V244.63H249c-.54,0-.81-.24-.81-.73s.27-.74.81-.74h7.12V241h-6.6c-.54,0-.81-.24-.81-.73s.27-.74.81-.74h6.6v-2.19h-7c-.54,0-.81-.24-.81-.73s.27-.74.81-.74h9.36a.72.72,0,0,1,.81.81v6.51h.05c.54,0,.81.25.81.74s-.27.73-.81.73h-3.42v3.49l1.35-2.31a.88.88,0,0,1,.74-.47l.15,0,.17,0,1.1.3c.38.1.57.29.57.59a1,1,0,0,1-.15.47L257.91,250a.87.87,0,0,1-.74.47H257l-.17,0-.69-.17,3.61,3.88a.75.75,0,0,1,.24.54c0,.24-.16.44-.49.59l-.76.32a1,1,0,0,1-.42.09,1,1,0,0,1-.68-.34l-1.8-1.94v2.58c0,.56-.28.81-.86.76Z" class="cls-2"/></g><g data-name="Scholarship PBI" id="Scholarship_PBI"><path data-cppathid="10021" d="M403.28,379.84a12.39,12.39,0,0,1-12.39,12.38H12.38A12.38,12.38,0,0,1,0,379.84V318.42A12.38,12.38,0,0,1,12.38,306H390.89a12.39,12.39,0,0,1,12.39,12.38Z" class="cls-1"/><path data-cppathid="10022" d="M141.76,359.85a1.25,1.25,0,0,1-.4.07.86.86,0,0,1-.71-.44l0-.05a1,1,0,0,1-.15-.47c0-.28.19-.48.56-.61a23.11,23.11,0,0,0,6.54-3.05h-6.19c-.54,0-.81-.24-.81-.73s.27-.74.81-.74h7.54a3.38,3.38,0,0,0,.34-.83.85.85,0,0,1,.86-.74h1.52l.42,0a.57.57,0,0,1-.1-.34.72.72,0,0,1,.86-.81l4,.17v-3.61h-8.38c-.54,0-.81-.24-.81-.74s.27-.73.81-.73h8.38a.72.72,0,0,1,.81-.71h1.52a.85.85,0,0,1,.6.19.69.69,0,0,1,.21.52h1.18c.54,0,.81.24.81.73s-.27.74-.81.74H160v4.4a.82.82,0,0,1-.22.61.77.77,0,0,1-.61.2l-6.44-.3-.24,0v0a3.85,3.85,0,0,1-.37,1.23h8.77c.54,0,.81.25.81.74s-.27.73-.81.73h-8l8.4,3.05c.36.13.54.33.54.59a.67.67,0,0,1-.17.44l-.1.15a.86.86,0,0,1-.69.39.48.48,0,0,1-.2,0l-.22-.06L150.08,356A29.34,29.34,0,0,1,141.76,359.85Zm5.13-8.13a.72.72,0,0,1-.81.81h-1.52a.72.72,0,0,1-.82-.81V350l-1.52.71a.92.92,0,0,1-.44.1.88.88,0,0,1-.66-.3l-.13-.12a.78.78,0,0,1-.27-.54c0-.24.16-.44.47-.59l2.53-1.18h0v-4l-2.43-1.43c-.27-.18-.41-.37-.41-.56a.8.8,0,0,1,.34-.57l.25-.2a1,1,0,0,1,.63-.24,1,1,0,0,1,.5.15l1.12.66v-1.77a.72.72,0,0,1,.82-.81h1.52a.72.72,0,0,1,.81.81Zm2.26-10.27a.85.85,0,0,1-.64-.19.83.83,0,0,1-.25-.64c0-.39.25-.62.74-.66l11.12-.84a.77.77,0,0,1,.67.2.89.89,0,0,1,.24.66c0,.38-.24.59-.73.64ZM152,344.3a1.6,1.6,0,0,1,0,.27q0,.62-.69.69l-1.37.17a.8.8,0,0,1-1-.61l-.61-2.14a.83.83,0,0,1,0-.15.66.66,0,0,1,0-.14c0-.4.22-.62.66-.67l1.4-.17a.8.8,0,0,1,1,.62Zm2.14,5.11c.32.15.49.34.49.59a.69.69,0,0,1-.25.49l-.17.17a.92.92,0,0,1-.66.3,1,1,0,0,1-.44-.1l-3-1.4c-.33-.15-.49-.34-.49-.59a.69.69,0,0,1,.25-.49l.17-.17a.88.88,0,0,1,.66-.3.92.92,0,0,1,.44.1Zm1.72-5.26a1.69,1.69,0,0,1,0,.25q0,.62-.69.69l-1.42.17a.79.79,0,0,1-.93-.66l-.5-2a.77.77,0,0,1,0-.15v-.12c0-.39.22-.62.66-.66l1.43-.18a.8.8,0,0,1,.93.67Zm3.9.27a.8.8,0,0,1-1,.62l-1.4-.22c-.44-.05-.66-.27-.66-.67a1.58,1.58,0,0,1,.05-.29l.66-2.23a.8.8,0,0,1,1-.62l1.4.22c.44,0,.66.27.66.67a1,1,0,0,1-.05.29Z" class="cls-2"/><path data-cppathid="10023" d="M171.4,359.8c-.43-.1-.64-.31-.64-.62a.65.65,0,0,1,.07-.29l0-.05a.75.75,0,0,1,.73-.54l.27,0,2,.42v-4.15h-7.74c-.54,0-.81-.24-.81-.74s.27-.73.81-.73h7.74V353a1.41,1.41,0,0,1,.41-1l3.29-3.09h-7.24c-.54,0-.81-.25-.81-.74s.27-.73.81-.73H181c.46,0,.69.15.69.46a.79.79,0,0,1-.3.54L177,352.58v.54h8.18c.54,0,.81.24.81.73s-.27.74-.81.74H177V360c0,.51-.22.76-.66.76a.65.65,0,0,1-.22,0Zm-5.75-15.38a.72.72,0,0,1,.81-.81h1.06l-1-3.14a.83.83,0,0,1,0-.15.66.66,0,0,1,0-.14c0-.4.22-.62.66-.67l1.4-.19a.76.76,0,0,1,1,.59l1,3.41a.83.83,0,0,1,0,.15.71.71,0,0,1,0,.14,1,1,0,0,1,0,.2h3.78l-.94-3.41,0-.15a.76.76,0,0,1,0-.15q0-.59.66-.66l1.42-.17a.76.76,0,0,1,1,.64l1,3.46c0,.05,0,.1,0,.15s0,.09,0,.14a.4.4,0,0,1,0,.15h2.9v-.12a1.46,1.46,0,0,1,.07-.39l1.43-3.49a.78.78,0,0,1,1-.57l1.3.25c.41.08.62.29.62.61a1.29,1.29,0,0,1-.08.4l-1.35,3.31H186c.51,0,.76.21.76.64a.53.53,0,0,1,0,.13.74.74,0,0,1,0,.14l-.74,2.95a.79.79,0,0,1-.93.66l-1.42-.17q-.69-.07-.69-.69a1.69,1.69,0,0,1,0-.25l.49-1.94H168.79v2.14a.72.72,0,0,1-.81.81h-1.52a.72.72,0,0,1-.81-.81Z" class="cls-2"/><path data-cppathid="10024" d="M199.24,338.6a.86.86,0,0,1,.62-.27,1.43,1.43,0,0,1,.49.13l.66.32c.3.14.44.32.44.51a2.2,2.2,0,0,1,.25.17l9,7.89a.7.7,0,0,1,.29.54.75.75,0,0,1-.41.59l-.59.32a1.1,1.1,0,0,1-.52.14,1,1,0,0,1-.61-.27l-8.8-7.71-8.2,7.69a.84.84,0,0,1-.61.27,1.33,1.33,0,0,1-.49-.12l-.67-.32c-.29-.15-.44-.34-.44-.57a.81.81,0,0,1,.3-.56Zm2.21,19.21a.9.9,0,0,1,0,.34h6.1c.54,0,.81.25.81.74s-.27.74-.81.74H192.27c-.54,0-.81-.25-.81-.74s.27-.74.81-.74h6.09a1.16,1.16,0,0,1-.05-.34v-5.55h-6.6c-.55,0-.82-.25-.82-.74s.27-.73.82-.73h6.6v-2.58a1.22,1.22,0,0,1,.07-.42H195c-.54,0-.81-.25-.81-.74s.27-.73.81-.73h9.68c.54,0,.81.24.81.73s-.27.74-.81.74h-3.36a.87.87,0,0,1,.09.42v2.58h6.61c.54,0,.81.24.81.73s-.27.74-.81.74h-6.61ZM197,356.53a1.57,1.57,0,0,1,0,.32c0,.38-.22.59-.66.64l-1.38.2h-.19a.74.74,0,0,1-.77-.61l-1-3a1.68,1.68,0,0,1-.05-.32c0-.38.22-.59.67-.64L195,353h.2a.74.74,0,0,1,.76.61Zm9.33.52a.77.77,0,0,1-1,.61l-1.37-.22c-.44-.05-.66-.26-.66-.64a1.09,1.09,0,0,1,0-.32l1-3.09a.78.78,0,0,1,1-.62l1.38.23c.44,0,.66.26.66.63a1.48,1.48,0,0,1,0,.32Z" class="cls-2"/><path data-cppathid="10025" d="M215.65,359.94c-.48-.08-.71-.28-.71-.61a.65.65,0,0,1,0-.22q.19-.76.66-.69l.49.08v-3.69l-.09.08a1,1,0,0,1-.57.19,1.1,1.1,0,0,1-.56-.19l-.4-.27a.74.74,0,0,1-.36-.57.68.68,0,0,1,.36-.56l1.62-1.13v-6.17h-1.3c-.54,0-.81-.24-.81-.73s.27-.74.81-.74h1.3v-5.3a.73.73,0,0,1,.82-.82h1.52a.72.72,0,0,1,.81.82v5.3h1c.54,0,.81.25.81.74s-.27.73-.81.73h-1v4a.86.86,0,0,1,1.08,0l.39.27a.67.67,0,0,1,.37.56.73.73,0,0,1-.37.57l-1.47,1v6.85c0,.59-.29.85-.86.76Zm6.58-18.56a.92.92,0,0,1-.66-.18.78.78,0,0,1-.27-.65c0-.38.24-.59.73-.64l12.18-1a.85.85,0,0,1,.68.18.81.81,0,0,1,.26.66c0,.38-.25.59-.74.64Zm2.48,7.37a.72.72,0,0,1-.81.81h-1.52a.72.72,0,0,1-.81-.81v-2.24a.72.72,0,0,1,.81-.81H223l-.66-2.68a.78.78,0,0,1,0-.24q0-.61.69-.69l1.42-.17a.79.79,0,0,1,.94.66l.66,2.7a.9.9,0,0,1,0,.25.73.73,0,0,1,0,.22h.71a1.14,1.14,0,0,1-.07-.22l-.57-2.9a.92.92,0,0,1,0-.19c0-.43.25-.67.74-.72l1.47-.14a.76.76,0,0,1,.91.68l.54,2.9a1.09,1.09,0,0,1,0,.22.7.7,0,0,1-.09.37H230v-.07a.77.77,0,0,1,0-.15,1.22,1.22,0,0,1,0-.17l1.06-3.39a.78.78,0,0,1,1-.62l1.4.23c.42.05.64.26.64.63v.15a.41.41,0,0,1-.05.17l-1,3.22h1.35c.59,0,.84.29.76.86l-.29,2.09a.76.76,0,0,1-.89.71l-1.47-.1c-.57,0-.82-.33-.74-.88l.17-1.21h-7.24Zm-1.4,11.12-.15,0H223a.74.74,0,0,1-.72-.59,1.55,1.55,0,0,1,0-.17.77.77,0,0,1,0-.15c0-.31.2-.52.59-.64a13.47,13.47,0,0,0,2.12-.92,11.37,11.37,0,0,0,2.28-1.58l-3.09-2.11a.74.74,0,0,1-.4-.59.66.66,0,0,1,.37-.54l.39-.27a1,1,0,0,1,.57-.2.8.8,0,0,1,.56.2l3,2.06a7.29,7.29,0,0,0,.86-1.41,5.36,5.36,0,0,0,.44-1.59h-6.31c-.54,0-.81-.24-.81-.73s.27-.74.81-.74h8.67a.79.79,0,0,1,.62.26,1,1,0,0,1,.21.77,5.64,5.64,0,0,1-.77,2.56,10.18,10.18,0,0,1-1.76,2.21l3.79,2.57a.75.75,0,0,1,.39.59.72.72,0,0,1-.37.54l-.39.27a.84.84,0,0,1-.57.2,1,1,0,0,1-.56-.2L229,357.07a18.36,18.36,0,0,1-3,1.78A15.88,15.88,0,0,1,223.31,359.87Z" class="cls-2"/><path data-cppathid="10026" d="M245,358.08c-.42-.1-.64-.3-.64-.59a.72.72,0,0,1,.08-.32l0-.05a.83.83,0,0,1,.79-.54h.12l.12,0,6.56,1.45,1-4.32H239.42c-.54,0-.81-.24-.81-.73s.27-.74.81-.74h14l.62-2.68h-9.68c-.57,0-.83-.28-.79-.83l.84-9.29a.71.71,0,0,1,.86-.73l1.52.07a.7.7,0,0,1,.76.86l-.29,3.14h10.48c.54,0,.81.25.81.74s-.27.74-.81.74H247.15l-.34,3.83h9.82c.49,0,.74.21.74.64a1.54,1.54,0,0,1,0,.24l-.77,3.27h3.25c.54,0,.81.24.81.74s-.27.73-.81.73h-3.59l-1.33,5.7a.7.7,0,0,1-.71.64h-.12a.21.21,0,0,1-.12,0Z" class="cls-2"/></g></g></g></g></g></svg>