<?xml version="1.0" encoding="UTF-8"?>
<svg xmlns="http://www.w3.org/2000/svg" onmouseup="{ if(window.parent.document.onmouseup) window.parent.document.onmouseup(arguments[0]);}" viewBox="0 0 248.57 35.08"><defs><style>.cls-1{fill:#603813;}</style></defs><g data-name="Layer 2" id="Layer_2"><g data-name="Backlog Refinement" id="Backlog_Refinement"><g data-name="jp copy" id="jp_copy"><g data-name="generic PBIs" id="generic_PBIs"><g id="header"><g id="underline"><path data-cppathid="10000" transform="translate(0 0)" d="M238.89,35.08l-9-.26c-.87,0-1.75,0-2.62,0a16.79,16.79,0,0,1-2.37-.07,32.16,32.16,0,0,0-4.71-.2c-3.56-.07-7.11-.19-10.67-.25-1.82,0-3.61-.26-5.44-.12-2.81-.32-5.7.05-8.52-.29a12.5,12.5,0,0,0-2.59,0,24.47,24.47,0,0,1-2.84,0c-1.49-.07-3-.06-4.48-.11a96.39,96.39,0,0,0-10.2.06,4.21,4.21,0,0,1-.71,0c-3.07-.3-6.17-.1-9.26-.14-.72,0-1.44,0-2.14,0a32,32,0,0,0-5.88.1,53.81,53.81,0,0,1-5.68,0c-1.74,0-3.49,0-5.23,0-1.34,0-2.69,0-4,0-3.18-.1-6.34,0-9.5.12a9.62,9.62,0,0,1-1.42,0c-3.8-.27-7.6-.13-11.41-.09-1.34,0-2.69,0-4,0-1.89,0-3.79.07-5.68.12a17.32,17.32,0,0,1-1.9,0,27.92,27.92,0,0,0-4.48,0,11.65,11.65,0,0,1-2.13,0c-1.17-.13-2.36-.14-3.52-.23a51.92,51.92,0,0,0-5.44,0c-2.85.07-5.71.06-8.56.06H77.76c-1.27,0-2.54,0-3.81,0a24.27,24.27,0,0,0-3.3.11,12.46,12.46,0,0,1-2.59,0,19.1,19.1,0,0,0-3.78,0,15.17,15.17,0,0,1-3.3,0,15,15,0,0,0-1.65-.06c-.79,0-1.59,0-2.37,0-2.94-.12-5.87-.07-8.8,0-.39,0-.79,0-1.18,0-3.88-.07-7.76-.16-11.64,0-1.4.07-2.85-.09-4.27-.09-2.61,0-5.23.09-7.84.09-2.22,0-4.44-.08-6.65-.15-1.66-.05-3.31-.12-5,0a24,24,0,0,1-4.49-.13,16.49,16.49,0,0,0-3.3-.11c-.39,0-.8,0-1.19,0a3,3,0,0,1-2.41-.84,1.05,1.05,0,0,1,.58-1.61,3.38,3.38,0,0,1,1.27-.27c1.35,0,2.7,0,4,0,1.18,0,2.36.15,3.54.16,3.25,0,6.51,0,9.76,0,1,0,1.9,0,2.85,0a11.16,11.16,0,0,0,1.65,0,8.93,8.93,0,0,1,2.58,0,3.73,3.73,0,0,0,.94,0c2.81-.35,5.66.22,8.5-.16a29.88,29.88,0,0,1,3.55,0l4.76,0c2.29,0,4.58-.12,6.87,0a13.37,13.37,0,0,0,1.9,0,59.39,59.39,0,0,1,6.4-.1,33.53,33.53,0,0,0,4,0c.38,0,.79,0,1.19,0,2.37-.06,4.74-.12,7.11-.16.87,0,1.73,0,2.6.06a9.69,9.69,0,0,0,1.41.05,28.48,28.48,0,0,1,4.71,0,11.78,11.78,0,0,0,1.19,0c3.46-.32,7-.11,10.44-.21,1.19,0,2.38-.08,3.57-.09,1.8,0,3.62-.05,5.42,0,1.27,0,2.51,0,3.77-.06,1.09-.07,2.21,0,3.31,0,.71,0,1.42.09,2.12.06a56,56,0,0,1,8.29,0,3.74,3.74,0,0,0,.94-.05,19.89,19.89,0,0,1,3.78,0,14.18,14.18,0,0,0,2.35,0,28.38,28.38,0,0,1,5.9,0,7.46,7.46,0,0,0,1.41.08c2-.19,3.93,0,5.88-.12a5.61,5.61,0,0,1,.71,0c4.42.29,8.87.1,13.31.18,2.77,0,5.55,0,8.32,0,.79,0,1.57.08,2.36.09.55,0,1.1,0,1.65,0a6.19,6.19,0,0,1,.93-.07,30.32,30.32,0,0,0,4.95.11,70.7,70.7,0,0,1,7.3.3,4.24,4.24,0,0,0,.71,0c2.3-.18,4.59,0,6.89,0,.86,0,1.73.06,2.6.11a7.72,7.72,0,0,0,.92.09,54.62,54.62,0,0,1,6.14.1c.16,0,.32,0,.48,0a74.52,74.52,0,0,1,8.73.41c.54,0,1.11.06,1.66,0,3.26-.06,6.49.2,9.72.34.94,0,1.84.24,2.78.3s1.73-.05,2.58,0q7.56.43,15.12.93c2.59.16,5.16.42,7.78.47a21.45,21.45,0,0,1,2.79.31,4.67,4.67,0,0,1,1.16.4c.34.15.17.57-.25.63a12.5,12.5,0,0,1-1.63.13H238.9Z" class="cls-1"/></g><path data-cppathid="10001" transform="translate(0 0)" d="M15.47,24.31a.92.92,0,0,1-.78.5,1.22,1.22,0,0,1-.33-.06l-1.12-.33c-.39-.14-.59-.36-.59-.65a.85.85,0,0,1,.16-.46L22,8.47H6.21c-.56,0-.85-.26-.85-.78s.29-.77.85-.77h18.9q.72,0,.72.54a1.08,1.08,0,0,1-.15.49ZM24.39,8a5.39,5.39,0,0,1-2.23-.45,4.18,4.18,0,0,1-1.6-1.23A2.83,2.83,0,0,1,20,4.58a2.78,2.78,0,0,1,.58-1.74,4,4,0,0,1,1.6-1.22,5.75,5.75,0,0,1,4.46,0,3.94,3.94,0,0,1,1.59,1.22,2.78,2.78,0,0,1,.58,1.74,2.83,2.83,0,0,1-.58,1.75,4.14,4.14,0,0,1-1.59,1.23A5.35,5.35,0,0,1,24.39,8Zm-.07-1.14a1.55,1.55,0,0,0,.9-.32A2.69,2.69,0,0,0,26,5.7a2.21,2.21,0,0,0,.3-1.12A2.25,2.25,0,0,0,26,3.46a2.36,2.36,0,0,0-.73-.83,1.61,1.61,0,0,0-.93-.32,1.63,1.63,0,0,0-.92.32,2.31,2.31,0,0,0-.75.83,2.24,2.24,0,0,0-.28,1.12,2.31,2.31,0,0,0,.29,1.12,2.69,2.69,0,0,0,.75.85A1.57,1.57,0,0,0,24.32,6.87Z" class="cls-1"/><path data-cppathid="10002" transform="translate(0 0)" d="M50.9,23.64a.76.76,0,0,1-.85.86h-1.6a.74.74,0,0,1-.8-.55H34.49a.74.74,0,0,1-.8.55h-1.6a.76.76,0,0,1-.86-.86V7.93a.76.76,0,0,1,.86-.86h1.6a.8.8,0,0,1,.23,0H50.05A.75.75,0,0,1,50.9,8Zm-3.3-15H34.54V22.4H47.6Z" class="cls-1"/><path data-cppathid="10003" transform="translate(0 0)" d="M58.63,16.3a.78.78,0,0,1-.72.49h-.18l-.18,0-1.22-.31c-.39-.1-.59-.32-.59-.65a1,1,0,0,1,.13-.46L61.63,5.14a.81.81,0,0,1,.73-.5l.18,0,.18,0L63.93,5c.4.1.6.32.6.64a1.15,1.15,0,0,1-.13.47l0,0H75.3q.75,0,.75.57a1.05,1.05,0,0,1-.15.46L66,24.31a.92.92,0,0,1-.78.5l-.16,0-.18,0-1.16-.31c-.41-.1-.62-.32-.62-.64a.88.88,0,0,1,.16-.47l3.92-6.8,0,0-4.93-3a.66.66,0,0,1-.44-.59.79.79,0,0,1,.36-.6l.31-.26a.92.92,0,0,1,.64-.25,1,1,0,0,1,.55.18l4.57,2.74,4.09-7.06H63.49ZM76.52,6.2a.69.69,0,0,1,0,.22c0,.32-.24.51-.7.55L75.1,7c-.54.07-.86-.1-1-.5L72.77,2.43a.62.62,0,0,1,0-.21c0-.33.23-.51.69-.55l.75-.08c.55-.06.89.11,1,.51ZM79.36,5a.65.65,0,0,1,0,.22c0,.3-.23.48-.67.54l-.75.1c-.55.07-.89-.1-1-.51L75.64,1.53a.36.36,0,0,1,0-.11.49.49,0,0,1,0-.12c0-.29.23-.46.7-.53L77,.67c.55-.06.88.11,1,.51Z" class="cls-1"/><path data-cppathid="10004" transform="translate(0 0)" d="M82.65,16a.91.91,0,0,1-.75.47,1.13,1.13,0,0,1-.39-.08L80.45,16c-.4-.13-.6-.35-.6-.64a.85.85,0,0,1,.18-.49l6-9.08a.9.9,0,0,1,.75-.46.85.85,0,0,1,.39.08l1.06.33c.39.14.59.36.59.65a1,1,0,0,1-.18.49l-.1.15h11.91c.49,0,.73.18.73.55a1,1,0,0,1-.16.49L90.68,24.73a.88.88,0,0,1-.77.49,1.74,1.74,0,0,1-.34,0l-1.11-.34c-.4-.14-.59-.35-.59-.64a1,1,0,0,1,.15-.47l9.36-15.1H87.5Z" class="cls-1"/><path data-cppathid="10005" transform="translate(0 0)" d="M110.43,24.47a.75.75,0,0,1-.85.85H108a.76.76,0,0,1-.86-.85v-18a.76.76,0,0,1,.86-.86h1.6a.76.76,0,0,1,.85.86v7.34l9.36,3c.39.14.59.35.59.62a.83.83,0,0,1-.15.44l-.11.13a.87.87,0,0,1-.75.44h-.16l-.2,0-8.58-2.77Z" class="cls-1"/><path data-cppathid="10006" transform="translate(0 0)" d="M127.23,23.36a.81.81,0,0,1-1,.64l-1.5-.18q-.72-.08-.72-.72a1,1,0,0,1,0-.28l4.37-15.18a.81.81,0,0,1,1-.64l1.5.18q.72.08.72.72a1.91,1.91,0,0,1-.05.29Zm17.14-.6a1.24,1.24,0,0,1,0,.16.76.76,0,0,1,0,.15c0,.42-.23.65-.7.7L142.2,24a.79.79,0,0,1-1-.64l-4.29-15.2a.47.47,0,0,1,0-.16.77.77,0,0,1,0-.15c0-.42.24-.65.7-.7l1.53-.18a.81.81,0,0,1,1,.67Zm-1-14.26a.78.78,0,0,1,0,.24c0,.36-.23.55-.7.6l-.75.08c-.53.07-.86-.11-1-.55l-1.35-4.49a1.34,1.34,0,0,1,0-.24c0-.35.23-.55.7-.59l.75-.09c.55-.07.88.12,1,.56Zm2.85-1.3a1.44,1.44,0,0,1,0,.24c0,.32-.22.52-.67.59l-.75.11c-.55.07-.89-.11-1-.55L142.53,3.4s0-.09,0-.13,0-.09,0-.13c0-.31.23-.5.7-.58l.75-.1c.55-.07.89.11,1,.55Z" class="cls-1"/><path data-cppathid="10007" transform="translate(0 0)" d="M152.23,16.61a2.07,2.07,0,0,1,0,.29c0,.41-.23.64-.7.69l-1.49.18a.85.85,0,0,1-1-.69l-1-4a.5.5,0,0,1,0-.16v-.13c0-.41.23-.64.7-.7l1.5-.18a.84.84,0,0,1,1,.7Zm4.24-.64a1,1,0,0,1,0,.2c0,.45-.26.7-.77.75l-1.55.13a.8.8,0,0,1-1-.75l-.7-4a.62.62,0,0,1,0-.21c0-.44.25-.69.77-.75l1.55-.12a.8.8,0,0,1,1,.74Zm1.37,8.5A.87.87,0,0,1,157,25h-.13a.25.25,0,0,1-.13,0l-1.32-.31c-.41-.1-.62-.32-.62-.64a1.05,1.05,0,0,1,.1-.44l5.23-10.78a.85.85,0,0,1,.82-.57h.13a.25.25,0,0,1,.13,0l1.32.31c.41.1.62.31.62.64a1,1,0,0,1-.1.44Z" class="cls-1"/><path data-cppathid="10008" transform="translate(0 0)" d="M169.44,16a.91.91,0,0,1-.75.47,1.18,1.18,0,0,1-.39-.08L167.24,16c-.39-.13-.59-.35-.59-.64a.85.85,0,0,1,.18-.49l6-9.08a.87.87,0,0,1,.75-.46.84.84,0,0,1,.38.08l1.06.33c.4.14.6.36.6.65a1,1,0,0,1-.18.49l-.11.15h11.92c.48,0,.72.18.72.55a1.12,1.12,0,0,1-.15.49L177.48,24.73a.91.91,0,0,1-.78.49,1.76,1.76,0,0,1-.33,0l-1.11-.34c-.4-.14-.6-.35-.6-.64a.88.88,0,0,1,.16-.47l9.35-15.1H174.3Z" class="cls-1"/><path data-cppathid="10009" transform="translate(0 0)" d="M212.61,23.64a.76.76,0,0,1-.86.86h-1.6a.74.74,0,0,1-.8-.55H196.19a.74.74,0,0,1-.8.55h-1.6a.76.76,0,0,1-.85-.86V7.93a.76.76,0,0,1,.85-.86h1.6a.75.75,0,0,1,.23,0h16.13a.76.76,0,0,1,.86.85Zm-3.31-15H196.24V22.4H209.3Z" class="cls-1"/><path data-cppathid="10010" transform="translate(0 0)" d="M220.21,16a.91.91,0,0,1-.75.47,1.13,1.13,0,0,1-.39-.08L218,16c-.4-.13-.6-.35-.6-.64a.85.85,0,0,1,.18-.49l6-9.08a.9.9,0,0,1,.75-.46.85.85,0,0,1,.39.08l1.06.33c.39.14.59.36.59.65a1,1,0,0,1-.18.49l-.1.15H238c.49,0,.73.18.73.55a1,1,0,0,1-.16.49L228.24,24.73a.88.88,0,0,1-.77.49,1.74,1.74,0,0,1-.34,0L226,24.83c-.4-.14-.59-.35-.59-.64a1,1,0,0,1,.15-.47l9.36-15.1h-9.88Zm18.48-8.66a2.07,2.07,0,0,1,0,.29c0,.43-.23.67-.7.72l-.75.1a.77.77,0,0,1-1-.67l-1.34-5.43a1,1,0,0,1,0-.28.68.68,0,0,1,.7-.72l.75-.11a.8.8,0,0,1,1,.67Zm2.84-1.57a1,1,0,0,1,0,.28c0,.4-.23.64-.68.72l-.75.13a.78.78,0,0,1-1-.67l-1.32-5.07a.83.83,0,0,1,0-.15.81.81,0,0,1,0-.16c0-.37.23-.61.69-.69L239.2,0a.79.79,0,0,1,1,.67Z" class="cls-1"/></g></g></g></g></g></svg>