<?xml version="1.0" encoding="UTF-8"?>
<svg xmlns="http://www.w3.org/2000/svg" onmouseup="{ if(window.parent.document.onmouseup) window.parent.document.onmouseup(arguments[0]);}" viewBox="0 0 403.28 86.18"><defs><style>.cls-1{fill:#fff100;}.cls-2{fill:#603813;}</style></defs><g data-name="Layer 2" id="Layer_2"><g id="backlog"><g data-name="2023 jp" id="_2023_jp"><g data-name="report card" id="report_card"><path data-cppathid="10000" d="M403.28,73.8a12.39,12.39,0,0,1-12.39,12.38H12.38A12.38,12.38,0,0,1,0,73.8V12.38A12.38,12.38,0,0,1,12.38,0H390.89a12.39,12.39,0,0,1,12.39,12.38Z" class="cls-1"/><path data-cppathid="10001" d="M152.33,53.49a.72.72,0,0,1-.81.81H150a.72.72,0,0,1-.81-.81V50.37h-1.55c-.54,0-.81-.25-.81-.74s.27-.73.81-.73h1.55V46.59a.81.81,0,0,1,.17-.57h-2.73c-.54,0-.81-.24-.81-.73s.27-.74.81-.74h.89a.86.86,0,0,1-.23-.59l-.17-2.46a1.48,1.48,0,0,1,0-.31h-.89c-.54,0-.81-.25-.81-.74s.27-.74.81-.74h3.05V36.3H147c-.54,0-.81-.25-.81-.74s.27-.74.81-.74h2.31V33.38a.72.72,0,0,1,.81-.81h1.52a.72.72,0,0,1,.81.81v1.44h2c.54,0,.81.25.81.74s-.27.74-.81.74h-2v3.41h2.78c.54,0,.81.25.81.74s-.27.74-.81.74h-.35a1,1,0,0,1,0,.39l-.4,3h.37c.54,0,.81.25.81.74s-.27.73-.81.73h-2.72a.86.86,0,0,1,.17.57V48.9h1.55c.54,0,.81.24.81.73s-.27.74-.81.74h-1.55Zm-1.89-9.68a.75.75,0,0,1-.35.74h1.33a.32.32,0,0,1,0-.2l.42-3a.78.78,0,0,0,0-.14h-1.62a.4.4,0,0,1,0,.17Zm8.84,9.29a.72.72,0,0,1-.81.81h-1.53a.72.72,0,0,1-.81-.81V34.21a.72.72,0,0,1,.81-.81h1.53a1.13,1.13,0,0,1,.32.05h6.5a.72.72,0,0,1,.82.81v6.43c0,.58-.29.82-.86.74l-3.69-.49c-.47,0-.71-.25-.71-.61a.92.92,0,0,1,.05-.25v0a.77.77,0,0,1,1-.62l1.1.15V34.92h-3.68V43H165c.47,0,.71.19.71.56a1,1,0,0,1-.08.37l-2,5.06,2,3.09a.87.87,0,0,1,.17.47c0,.28-.19.48-.57.61l-1,.32a1,1,0,0,1-.37.08.84.84,0,0,1-.71-.44L162.47,52l-.32.83a.8.8,0,0,1-1,.57l-1.32-.25a.75.75,0,0,1-.54-.29Zm2.31-7.17.07.09.59-1.52h-3V46l.22-.09,1-.32a1,1,0,0,1,.36-.08A.86.86,0,0,1,161.59,45.93Zm-2.31,1.3v4.88l1.2-3.07Z" class="cls-2"/><path data-cppathid="10002" d="M172.86,41.77a.88.88,0,0,1-.74.47H172l-.17,0-1.1-.32c-.38-.13-.57-.34-.57-.64a.89.89,0,0,1,.15-.44l4.49-7.29a.92.92,0,0,1,.74-.47h.15l.17,0,1.1.32c.38.13.57.34.57.64a1,1,0,0,1-.15.44l-1.94,3.14h4V34.21a.72.72,0,0,1,.81-.81h1.52a.72.72,0,0,1,.81.81v3.41h5.94c.54,0,.81.25.81.74s-.27.74-.81.74h-5.94v3.53a.85.85,0,0,1,0,.3h7.69c.54,0,.81.24.81.74s-.27.73-.81.73H171c-.54,0-.81-.24-.81-.73s.27-.74.81-.74h8.43a.67.67,0,0,1,0-.3V39.1h-4.18a.85.85,0,0,1-.56-.17Zm-1,5.43a.72.72,0,0,1,.81-.81h1.52a.74.74,0,0,1,.64.27h13.6a.72.72,0,0,1,.81.81v6.12a.72.72,0,0,1-.81.81h-1.52a.85.85,0,0,1-.6-.2.64.64,0,0,1-.21-.49H175a.71.71,0,0,1-.81.69h-1.52a.72.72,0,0,1-.81-.81Zm14.24.94H175v4.1h11.1Z" class="cls-2"/><path data-cppathid="10003" d="M199.23,53.27a.8.8,0,0,1-.76.56h-.12l-.12,0-1.31-.27c-.41-.08-.61-.29-.61-.62a1.24,1.24,0,0,1,.07-.39l5.46-12.82h-6.05c-.54,0-.81-.24-.81-.73s.27-.74.81-.74h6.66l1.06-2.48a.8.8,0,0,1,.76-.57h.12a.21.21,0,0,1,.12,0l1.3.27c.41.08.62.28.62.61a1.18,1.18,0,0,1-.08.39l-.73,1.75h8.64c.51,0,.76.21.76.64a.53.53,0,0,1,0,.13,1,1,0,0,1,0,.14l-3.46,13.9a.75.75,0,0,1-1,.64l-4.93-.82c-.44-.08-.67-.28-.67-.61a.51.51,0,0,1,0-.13.89.89,0,0,1,0-.14l0-.05a.79.79,0,0,1,.76-.59h.11a.2.2,0,0,1,.11,0l2.65.46,3.05-12.13H205Z" class="cls-2"/><path data-cppathid="10004" d="M235.23,43.52c.54,0,.81.24.81.74s-.27.73-.81.73H218.68c-.54,0-.81-.24-.81-.73s.27-.74.81-.74Z" class="cls-2"/><path data-cppathid="10005" d="M244.47,53.07a.72.72,0,0,1-.81.81h-1.53a.72.72,0,0,1-.81-.81V36a.72.72,0,0,1,.81-.81h1.53a.72.72,0,0,1,.81.81v7l8.89,2.87c.37.13.56.33.56.59a.77.77,0,0,1-.15.42l-.1.12a.8.8,0,0,1-.71.42h-.16l-.18,0-8.15-2.63ZM252,39.83a1.87,1.87,0,0,1,0,.27.64.64,0,0,1-.66.69l-.71.1a.74.74,0,0,1-.94-.64L248.4,35.1a1,1,0,0,1,0-.28c0-.4.22-.63.66-.68l.72-.1a.74.74,0,0,1,.95.64Zm2.7-1.49a1.65,1.65,0,0,1,0,.27c0,.37-.21.6-.64.68l-.71.13a.76.76,0,0,1-1-.64L251.12,34a.83.83,0,0,1,0-.15s0-.1,0-.15c0-.36.22-.58.67-.66l.71-.12a.75.75,0,0,1,1,.63Z" class="cls-2"/></g></g></g></g></svg>