<?xml version="1.0" encoding="UTF-8"?>
<svg xmlns="http://www.w3.org/2000/svg" onmouseup="{ if(window.parent.document.onmouseup) window.parent.document.onmouseup(arguments[0]);}" viewBox="0 0 404.44 267.68"><defs><style>.cls-1{fill:#fff100;}.cls-2{fill:#603813;}</style></defs><g data-name="Layer 2" id="Layer_2"><g id="backlog"><g data-name="2023 jp" id="_2023_jp"><g data-name="View Grades PBI" id="View_Grades_PBI"><path data-cppathid="10000" d="M10.41,0H394a10.41,10.41,0,0,1,10.41,10.41h0V257.27A10.41,10.41,0,0,1,394,267.68H10.41A10.41,10.41,0,0,1,0,257.27H0V10.42A10.42,10.42,0,0,1,10.41,0Z" class="cls-1" data-name="big sticky" id="big_sticky"/><path data-cppathid="10001" d="M135.41,52.35c0,.67-.38,1-1.09,1l-1.95,0a.9.9,0,0,1-1-1.08l.89-19.62a1.46,1.46,0,0,1,.2-.64.81.81,0,0,1-.16-.54q0-1,1.05-1h11.46l-1.06-3.27a1.91,1.91,0,0,1-.06-.41c0-.49.29-.77.86-.84l1.79-.25.15,0h.11a1,1,0,0,1,1,.8l1.28,4h8.83c.71,0,1.06.32,1.06,1s-.35,1-1.06,1h-8.22l2.75,8.54,2.91-4.67a1.12,1.12,0,0,1,1-.61,1.91,1.91,0,0,1,.42.06l1.38.42c.49.17.73.44.73.8a1.29,1.29,0,0,1-.19.58l-4.83,7.71,1.6,5L157,49.7a2.27,2.27,0,0,1,.35-.07,1.1,1.1,0,0,1,1,.68,1.32,1.32,0,0,1,.16.51c0,.42-.26.7-.77.83L153,52.87a.58.58,0,0,1-.19,0h-.16a1,1,0,0,1-1-.77l-.83-2.59-1.73,2.78a1.1,1.1,0,0,1-1,.61,1.91,1.91,0,0,1-.41-.06l-1.38-.42c-.49-.17-.74-.44-.74-.8a1.18,1.18,0,0,1,.2-.58l3.64-5.82L145.4,32.39h-9.12a1.83,1.83,0,0,1,0,.35l-.26,5.5h7.75c.72,0,1,.37,1,1.09l-1,12.54q-.11.93-.87.93a1.9,1.9,0,0,1-.35-.06l-5.06-1.25c-.53-.13-.8-.38-.8-.77a.51.51,0,0,1,.05-.22,1.23,1.23,0,0,0,.08-.23l0-.09a1.09,1.09,0,0,1,1-.67h.19l.19,0,1.6.38.8-9.79H136Zm21-24.51c.37.24.55.49.55.77a1,1,0,0,1-.39.7l-.32.26a1.24,1.24,0,0,1-.83.35,1.32,1.32,0,0,1-.61-.19l-3.9-2.14a1,1,0,0,1-.54-.77.91.91,0,0,1,.38-.71l.32-.25a1.26,1.26,0,0,1,.83-.35,1.17,1.17,0,0,1,.61.19Z" class="cls-2"/><path data-cppathid="10002" d="M165.94,51.14a1,1,0,0,1-1.15,1l-1-.07a.91.91,0,0,1-1-1.12l.42-4.86a1,1,0,0,1,1.15-1l1,.06a.91.91,0,0,1,1,1.12Zm5.57,1.37a.93.93,0,0,1-1.06,1.06h-2a.93.93,0,0,1-1.06-1.06V43.3l-3.52.29c-.64,0-1-.16-1-.61a1.12,1.12,0,0,1,.23-.64l2.94-4.58-.06-.09-2.69-3.59a1.24,1.24,0,0,1-.29-.73,1.08,1.08,0,0,1,.29-.74l5.12-6.72a1.09,1.09,0,0,1,.89-.51,1.83,1.83,0,0,1,.52.09l1.21.42c.45.15.67.41.67.77a1.13,1.13,0,0,1-.25.64l-4.58,6.05L168,34.79l1.15-1.8a1.16,1.16,0,0,1,1-.57,1.91,1.91,0,0,1,.42.06l1.38.42c.49.17.73.42.73.77a.79.79,0,0,1-.06.28,1.91,1.91,0,0,1-.16.32l-4.55,7.08,3.91-.32-.55-2.21a1.45,1.45,0,0,1,0-.32.85.85,0,0,1,.87-.93l.92-.13a1,1,0,0,1,1.22.83l1.18,4.9a1,1,0,0,1,0,.32.85.85,0,0,1-.87.93l-.93.13a1,1,0,0,1-1.21-.84l-.19-.76h-.1l-.74.06a.89.89,0,0,1,.07.38Zm4.54-2.11c.07.71-.26,1.08-1,1.12l-1,.07a.94.94,0,0,1-1.12-1l-.42-4a1.11,1.11,0,0,1,.22-.82,1.09,1.09,0,0,1,.77-.34l1-.06a1,1,0,0,1,1.12,1ZM185,35v.1h4.64c.71,0,1.06.32,1.06,1s-.35,1-1.06,1H176.37q-1.05,0-1.05-1t1.05-1h4.55V33.76h-3c-.71,0-1.06-.32-1.06-1s.35-1,1.06-1h3V30h-3.84c-.71,0-1.06-.32-1.06-1s.35-1,1.06-1h3.84V27A.94.94,0,0,1,182,26h2A.94.94,0,0,1,185,27v1h3.87c.71,0,1.06.32,1.06,1s-.35,1-1.06,1H185v1.89h3.11q1,0,1,1t-1,1H185Zm-8.54,3.84a.94.94,0,0,1,1.05-1.06h2a1.26,1.26,0,0,1,.64.16H189A.94.94,0,0,1,190,39v9.92A.94.94,0,0,1,189,50h-2a1.26,1.26,0,0,1-.64-.16h-6.17a1.26,1.26,0,0,1-.64.16h-2a.94.94,0,0,1-1.05-1.06Zm2.05,14.69a1.37,1.37,0,0,1-.58.13,1.13,1.13,0,0,1-.86-.42l-.16-.16a1,1,0,0,1-.36-.67c0-.32.22-.58.64-.77L180,50.4a1.33,1.33,0,0,1,.57-.13,1.17,1.17,0,0,1,.87.42l.16.16a1,1,0,0,1,.35.67c0,.32-.21.58-.64.77Zm7.39-13.67h-5.35v1.32h5.35Zm-5.35,4.74h5.35v-1.5h-5.35Zm0,3.3h5.35V46.53h-5.35Zm9.06,3.87c.43.19.64.45.64.77a1.09,1.09,0,0,1-.29.64l-.22.22a1.3,1.3,0,0,1-.9.45,1.13,1.13,0,0,1-.54-.13l-3.2-1.41c-.43-.19-.64-.45-.64-.77a1,1,0,0,1,.29-.64l.22-.22a1.3,1.3,0,0,1,.9-.45,1.13,1.13,0,0,1,.54.13Z" class="cls-2"/><path data-cppathid="10003" d="M214.23,52.32a1,1,0,0,1-.83.45,1.29,1.29,0,0,1-.61-.16l-1-.45c-.41-.19-.61-.45-.61-.77a1.43,1.43,0,0,1,.26-.67,11.44,11.44,0,0,0,1.18-2.35,17,17,0,0,0,.8-2.93,17.29,17.29,0,0,0,.29-3.1,12.56,12.56,0,0,0-1.44-6.4,6.34,6.34,0,0,0-4.07-3.11,42.69,42.69,0,0,1,.77,7.62,16.53,16.53,0,0,1-1.84,8.45,5.91,5.91,0,0,1-5.42,3.1,6.9,6.9,0,0,1-3.81-1,7.07,7.07,0,0,1-2.53-2.9,9.54,9.54,0,0,1-.89-4.24,13.94,13.94,0,0,1,.92-5.06A13.41,13.41,0,0,1,198,34.58a12.07,12.07,0,0,1,3.81-2.83,10.55,10.55,0,0,1,4.62-1,12.61,12.61,0,0,1,6.08,1.39,9.56,9.56,0,0,1,3.94,4,13.17,13.17,0,0,1,1.37,6.23A14.48,14.48,0,0,1,214.23,52.32Zm-15.62-8.51a10.32,10.32,0,0,0,.45,3.12,6.73,6.73,0,0,0,1.17,2.29,2,2,0,0,0,1.52.86c.6,0,1.12-.44,1.58-1.33a12.75,12.75,0,0,0,1.09-3.6,29.32,29.32,0,0,0,.4-5.12c0-1.08,0-2.2-.14-3.36s-.25-2.32-.47-3.52a8.46,8.46,0,0,0-2.83,2.37,13.11,13.11,0,0,0-2,3.76A13.71,13.71,0,0,0,198.61,43.81Z" class="cls-2"/><path data-cppathid="10004" d="M226.42,52.42a.93.93,0,0,1-1.06,1h-2a.94.94,0,0,1-1.06-1V27.33a.94.94,0,0,1,1.06-1.06h2a1.12,1.12,0,0,1,.77.26h7.65a.94.94,0,0,1,1.06,1.06V38.37a.94.94,0,0,1-1.06,1.06h-2a1.1,1.1,0,0,1-.68-.2h-4.7Zm4.32-24h-4.32v3.68h4.32Zm-4.32,8.86h4.32V34.05h-4.32Zm4.42,15.11a1.19,1.19,0,0,1-.87.41,1.66,1.66,0,0,1-.61-.16l-.92-.41c-.43-.19-.64-.45-.64-.77a1,1,0,0,1,.35-.7l2.4-2.5a1.53,1.53,0,0,1-.45.06h-2a.93.93,0,0,1-1.06-1.05V43.59a.93.93,0,0,1,1.06-1.06h1.5l-.58-.8a1.11,1.11,0,0,1-.25-.64c0-.36.23-.63.7-.8l1.28-.45a1.45,1.45,0,0,1,.48-.09,1.13,1.13,0,0,1,.93.54l1.28,1.76a1.13,1.13,0,0,1,.26.64v0h3.74a1,1,0,0,1,.29-.67l1.47-1.82a1.17,1.17,0,0,1,.93-.48,1.72,1.72,0,0,1,.51.09l1.15.45c.45.15.67.41.67.77a1.07,1.07,0,0,1-.28.67l-.8,1h1.08a.93.93,0,0,1,1.06,1.06V47.3a.93.93,0,0,1-1.06,1.05h-2a1.07,1.07,0,0,1-.67-.19h-.77v2.69h.7v-.29c0-.17.36-.25,1.06-.25h2a.93.93,0,0,1,1.06,1v.35a.93.93,0,0,1-1.06,1.06H236A.94.94,0,0,1,235,51.71V48.16h-.35a1.08,1.08,0,0,1-.35.67Zm8.6-7.78h-8.28v1.6h8.28ZM245,52.87c-.71-.07-1-.42-.93-1.06s.2-1,.29-1l.13,0V39h-4.8a1,1,0,0,1-.9.42h-2a.94.94,0,0,1-1.06-1.06v-11a.94.94,0,0,1,1.06-1.06h2a1.12,1.12,0,0,1,.77.26h8a.93.93,0,0,1,1.05,1.06V52c0,.75-.36,1.09-1.09,1Zm-.51-24.42H239.8V32h4.64Zm-4.64,8.64h4.64V33.92H239.8Z" class="cls-2"/><path data-cppathid="10005" d="M256.15,53a1.21,1.21,0,0,1-.58.13,1.18,1.18,0,0,1-.89-.41l-.16-.16a.94.94,0,0,1-.32-.68c0-.32.21-.57.64-.76l3.9-1.76h-1.18a.94.94,0,0,1-1.06-1.06v-9a.93.93,0,0,1,1.06-1.06h2a1.07,1.07,0,0,1,.83.32h16.9a.93.93,0,0,1,1.05,1.06v8.8a.93.93,0,0,1-1.05,1h-2a1.17,1.17,0,0,1-.64-.16h-2.49v1.6h5.28V50.4q0-.48,1.05-.48h2a.93.93,0,0,1,1,1.06v.77a.93.93,0,0,1-1,1H269.11a.93.93,0,0,1-1.06-1V49.28h-4a1,1,0,0,1-.51.42Zm9.05-17.34v.1h1.67q1,0,1.05,1t-1.05,1h-8.8a1.15,1.15,0,0,1-.67.19h-2a.93.93,0,0,1-1-1.06V26.63a.93.93,0,0,1,1-1.06h2a1.09,1.09,0,0,1,.67.19h8.7c.71,0,1.06.32,1.06,1s-.35,1-1.06,1h-1.5v1.44H267a.93.93,0,0,1,1.05,1.06v3.39A.94.94,0,0,1,267,34.63H265.2Zm-4-7.87v-.1h-2.72v1.44h2.72V27.78ZM264,31h-5.54v1.47H264Zm-2.88,3.49v-.1h-2.66v1.32h2.66V34.53Zm13.12,5.92H260.6v1.09h13.63Zm-13.63,4h13.63v-1H260.6Zm0,2.94h13.63v-1H260.6ZM272.5,33a.93.93,0,0,1-1.12,1l-2-.09a.92.92,0,0,1-1-1.12l.64-6a1,1,0,0,1,1.12-1l2,.1a.91.91,0,0,1,1,1.12L273,28.32h6.94c.71,0,1.06.32,1.06,1s-.35,1-1.06,1h-7.13Zm6.78,2c.71,0,1.06.32,1.06,1s-.35,1-1.06,1h-7.39q-1,0-1.05-1t1.05-1Z" class="cls-2"/></g></g></g></g></svg>