<?xml version="1.0" encoding="UTF-8"?>
<svg xmlns="http://www.w3.org/2000/svg" onmouseup="{ if(window.parent.document.onmouseup) window.parent.document.onmouseup(arguments[0]);}" viewBox="0 0 232.26 377.44" xmlns:xlink="http://www.w3.org/1999/xlink"><defs><style>.cls-1,.cls-12,.cls-14,.cls-17,.cls-19{fill:none;}.cls-2{clip-path:url(#clip-path);}.cls-3{fill:#fcc388;}.cls-4{fill:#e33d3c;}.cls-5{fill:#80583a;}.cls-6{fill:#d7d7d7;}.cls-7{fill:#253d54;}.cls-8{fill:#ad2526;}.cls-12,.cls-14,.cls-17,.cls-19,.cls-9{stroke:#000;}.cls-9{stroke-width:0.6px;}.cls-10{fill:#fff;}.cls-11{fill:#f2797a;}.cls-12{stroke-width:1.06px;}.cls-13{fill:#686868;}.cls-14{stroke-width:0.3px;}.cls-15{fill:#919191;}.cls-16{fill:#afafb0;}.cls-17{stroke-width:0.89px;}.cls-18{fill:#c5c4c4;}.cls-19{stroke-width:0.67px;}</style><clipPath transform="translate(-18.56 -7.16)" id="clip-path"><rect data-cppathid="10000" height="266.6" width="255.36" class="cls-1"/></clipPath></defs><g data-name="Layer 2" id="Layer_2"><g id="scrumMaster"><g class="cls-2"><path data-cppathid="10001" transform="translate(-18.56 -7.16)" d="M72,192.26c-1,1.08-30.57,5.76-34.82,2.87-6.19-4.19-1.75-40.84-5.31-41.88s14.9-10.05,16.42-.88,3.81,17.7,2.14,25l30.35-1.82Z" class="cls-3"/><path data-cppathid="10002" transform="translate(-18.56 -7.16)" d="M64.39,163.35l4.28-.17c35.65-1.27,44.13,25.51,34.83,28.31-3.21,1-18.09,2.64-36.66,4.23C62.31,189.47,59.22,175.33,64.39,163.35Z" class="cls-4"/><path data-cppathid="10003" transform="translate(-18.56 -7.16)" d="M120.73,85.84c1.52-6.32-4.45-17.93-12.37-20.71-9.18-3.2-14.1-1.76-18.26,6.18-3.88,7.41-6.17,11.18-15.88,12.34-8.1,1-15-13.82-6.15-17.78,3.19-1.43,10.82,2.53,10,6.69-.57,2.75-6.38,3.64-7.61,1.11,2.33,1.11,2.59,5.69,8.6,1.88,3.67-2.32,1.46-7.75-.42-10.54-8.81-13-22.54.47-19.44,13.46C63.3,95.79,82,101.89,94.75,102.77S119.21,92.16,120.73,85.84Z" class="cls-5"/><path data-cppathid="10004" transform="translate(-18.56 -7.16)" d="M243.24,368.74c.18,7.46-39.92,14.48-89.56,15.69s-90.05-3.87-90.23-11.33,39.92-14.49,89.57-15.69S243.06,361.28,243.24,368.74Z" class="cls-6"/><path data-cppathid="10005" transform="translate(-18.56 -7.16)" d="M83.94,119.81s14.39-85,58.21-83.44,58.41,47,51.1,89.35a410.67,410.67,0,0,0-5,42.54c-1.36,20.75-3.89,35-3.89,35L88.56,185.1l5.54-12.52L95,162.47s-8.61-39.37-5.18-39c18.38,2,15.84,1.5,26.54,1.43,37.22-.23,37-2.62,37-2.62Z" class="cls-3"/><path data-cppathid="10006" transform="translate(-18.56 -7.16)" d="M188.23,261.28s-9.58,88.91-5.41,94.56,8.54,16,6.45,20.7S153.78,364,148.05,359.27s-8-65.39-8-71-17.88-1.41-17.88-1.41-2.77,67.74-3.29,71-31.29,9.89-38.59,8.47S85,352.69,85,352.69s-7.83-98.94-5.74-104.11,107.42-2.35,107.42-2.35Z" class="cls-7"/><path data-cppathid="10007" transform="translate(-18.56 -7.16)" d="M191.37,162.84c-90.41,14.7-100.11-7.91-100.11-7.91L87.4,174.44s-2.9,21.92-15.61,74.61c31.6,13.86,123.44,6.66,123.44,6.66S191.92,171.19,191.37,162.84Z" class="cls-8"/><path data-cppathid="10008" transform="translate(-18.56 -7.16)" d="M118.05,85.7c0,3.77,1.8,6.82,4,6.82s4-3,4-6.82-1.8-6.82-4-6.82S118.05,81.93,118.05,85.7Z" class="cls-9"/><path data-cppathid="10009" transform="translate(-18.56 -7.16)" d="M106.81,84.9c0,3.11,1.48,5.62,3.3,5.62s3.31-2.51,3.31-5.62-1.48-5.62-3.31-5.62S106.81,81.8,106.81,84.9Z" class="cls-9"/><path data-cppathid="10010" transform="translate(-18.56 -7.16)" d="M117.27,85.7a2,2,0,1,0,2-2A2,2,0,0,0,117.27,85.7Z" class="cls-10"/><path data-cppathid="10011" transform="translate(-18.56 -7.16)" d="M106.1,84.9a2,2,0,1,0,2-2A2,2,0,0,0,106.1,84.9Z" class="cls-10"/><path data-cppathid="10012" transform="translate(-18.56 -7.16)" d="M138.83,39.23S179.58,95,197.11,104.86c9.21-30.58-5.47-66.1-44.92-73.86-21-4.13-27.21-5.72-42.94,11.76C96.76,56.64,138.83,39.23,138.83,39.23Z" class="cls-5"/><path data-cppathid="10013" transform="translate(-18.56 -7.16)" d="M198.48,101.18s29-42.66-12.84-72.77c-38.46-27.65-67.36,1.71-68.07,7.06C117.57,35.47,191.37,30.16,198.48,101.18Z" class="cls-4"/><path data-cppathid="10014" transform="translate(-18.56 -7.16)" d="M164.18,46.2s-28.79-38-47.69-38.95S85.41,12.39,84,18s31.57,17.43,31.57,17.43S144.38,34.68,164.18,46.2Z" class="cls-11"/><path data-cppathid="10015" transform="translate(-18.56 -7.16)" d="M195.49,105.51c3.14-5.59,15-9.11,22.44-5,8.54,4.81,11,9.6,8.63,18.34-2.22,8.16-3.14,12.55,2.88,20.82,5,6.89,19.69,1.86,16.14-7.7-1.27-3.45-9.24-6.55-11.42-3-1.43,2.35,2,7.44,4.58,6.61-2.37-1-5.61,2-7.27-5.29-1-4.44,4.15-6.54,7.32-7,14.85-2.34,15.43,17.64,4.62,24.33-14.43,8.94-31.59-1.2-41.06-10.35S192.34,111.09,195.49,105.51Z" class="cls-5"/><path data-cppathid="10016" transform="translate(-18.56 -7.16)" d="M210.57,189.3c1.42.47,17.91,26.35,16.94,31.52-1.41,7.53-37.63,18.35-37.16,22.12s-15.53-9.88-7.53-15.06,15.05-10.82,22.58-12.23l-14.11-27.76Z" class="cls-3"/><path data-cppathid="10017" transform="translate(-18.56 -7.16)" d="M223.57,195c-.78-1.26-1.55-2.5-2.33-3.72-19.56-30.86-47.1-22.53-44.08-13.05,1.05,3.27,8.24,16.82,17.64,33.42C202.71,211.86,216.44,206.29,223.57,195Z" class="cls-4"/><path data-cppathid="10018" transform="translate(-18.56 -7.16)" d="M188.46,240.11s14.12,6.12,12.24,11.29,3.29-10.35,7.05-9.88-1.88,15.53-4.7,15.53-18.82,1.88-24.47-7.06-.46-17.41,1.89-19.76S188.46,240.11,188.46,240.11Z" class="cls-3"/><path data-cppathid="10019" transform="translate(-18.56 -7.16)" d="M189.41,163.43s-32,1.41-67.75,40.93c0,0-29.64-23.52-29.64-47.05" class="cls-12"/><polygon data-cppathid="10020" points="110.25 212.95 100.47 217.71 97.81 212.19 103.7 205.87 110.25 212.95" class="cls-13"/><polyline data-cppathid="10021" points="91.98 225.48 98.37 222.02 100.38 223.58" class="cls-14"/><path data-cppathid="10022" transform="translate(-18.56 -7.16)" d="M119.66,206.81s.35-3.4,5-3.36c4.31,1.06,8.24,7.73,6.18,13.78-2.33,6.85-9.24,3-9.24,3l-2.11,10.72-.25.12-2.35-1.88Z" class="cls-15"/><path data-cppathid="10023" transform="translate(-18.56 -7.16)" d="M112.91,208.51s6.65-5.73,11.18-5.19a3.32,3.32,0,0,1,.61.13c-4.69,0-5,3.36-5,3.36l-2.73,22.37,2.35,1.88-6.57,3.26L110,232.44Z" class="cls-16"/><line data-cppathid="10024" y2="209.59" x2="98.6" y1="211.98" x1="94.02" class="cls-17"/><polygon data-cppathid="10025" points="98.37 222.02 100.72 223.9 94.15 227.16 91.4 225.28 98.37 222.02" class="cls-18"/><line data-cppathid="10026" y2="223.86" x2="98.19" y1="225.69" x1="93.89" class="cls-19"/><path data-cppathid="10027" transform="translate(-18.56 -7.16)" d="M46.94,157.8s1.41-11.3-.39-13c-3.32-3.17-5.07-6.48-7.5-8.66s-3.83-4.61-4.25-1.14,5.5,7.77,2.58,7.43-9.2-4.75-12.06-5.58-4.1.24-2.44,1.71,9.29,4.69,7.71,5.88c-1.81,1.35-12.13-3.49-12-1.41s9.56,4.15,10.46,5.59-8.83.8-10.08,1.65,10.64,5,12.07,5.37,10.28,4.1,13.31.44Z" class="cls-3"/></g></g></g></svg>