<?xml version="1.0" encoding="UTF-8"?>
<svg xmlns="http://www.w3.org/2000/svg" onmouseup="{ if(window.parent.document.onmouseup) window.parent.document.onmouseup(arguments[0]);}" viewBox="0 0 276.69 527.31" xmlns:xlink="http://www.w3.org/1999/xlink"><defs><style>.cls-1,.cls-11,.cls-13,.cls-16,.cls-18{fill:none;}.cls-2{clip-path:url(#clip-path);}.cls-3{fill:#e33d3c;}.cls-4{fill:#253d54;}.cls-5{fill:#80583a;}.cls-19,.cls-6{fill:#fcc388;}.cls-7{fill:#ad2526;}.cls-11,.cls-13,.cls-16,.cls-18,.cls-8{stroke:#000;}.cls-8{stroke-width:0.6px;}.cls-9{fill:#fff;}.cls-10{fill:#f2797a;}.cls-11{stroke-width:1.06px;}.cls-12{fill:#686868;}.cls-13{stroke-width:0.3px;}.cls-14{fill:#919191;}.cls-15{fill:#afafb0;}.cls-16{stroke-width:0.89px;}.cls-17{fill:#c5c4c4;}.cls-18{stroke-width:0.67px;}.cls-19{stroke:#ed9b53;stroke-miterlimit:10;}</style><clipPath transform="translate(-14.76 -16.69)" id="clip-path"><rect data-cppathid="10000" height="391.67" width="296.55" class="cls-1"/></clipPath></defs><g data-name="Layer 2" id="Layer_2"><g id="scrumMaster"><g class="cls-2"><g id="SM"><path data-cppathid="10001" transform="translate(-14.76 -16.69)" d="M66.39,301.85c1.38-1.58,2.75-3.15,4.09-4.72,34-39.45,11.16-73.52-.5-65.48-4,2.78-33.44,24.54-52.17,44.24C20.8,286.75,48,296.82,66.39,301.85Z" class="cls-3"/><path data-cppathid="10002" transform="translate(-14.76 -16.69)" d="M202.29,378.68s-13.65,126.65-7.71,134.69,12.16,22.78,9.19,29.48S153.22,525,145.05,518.26s-11.39-93.14-11.39-101.19-25.46-2-25.46-2-4,96.49-4.7,101.18-44.56,14.08-55,12.06,6.69-19.42,6.69-19.42S44.06,368,47,360.58s153-3.35,153-3.35Z" class="cls-4"/><path data-cppathid="10003" transform="translate(-14.76 -16.69)" d="M106.14,128.76c2.16-9-6.34-25.54-17.63-29.49-13.06-4.57-20.07-2.51-26,8.8C57,118.63,53.73,124,39.89,125.65,28.35,127,18.51,106,31.13,100.32c4.54-2,15.42,3.6,14.19,9.54-.8,3.9-9.08,5.17-10.83,1.57,3.32,1.58,3.69,8.1,12.25,2.68,5.23-3.31,2.09-11-.6-15C33.6,80.52,14,99.77,18.45,118.26c5.88,24.68,32.58,33.36,50.68,34.62S104,137.76,106.14,128.76Z" class="cls-5"/><path data-cppathid="10004" transform="translate(-14.76 -16.69)" d="M50.14,162.22S72.76,50.35,136.69,52.64s85.2,68.6,74.55,130.34A600.27,600.27,0,0,0,204,245c-2,30.27-5.67,51.09-5.67,51.09L58.51,269.61l8.08-18.26,1.34-14.74s-9.27-53.73-11.39-58.3c-.45-1,57.67,8.5,77.59,6.07,27.14-3.31,18.47-18.55,18.47-18.55Z" class="cls-6"/><path data-cppathid="10005" transform="translate(-14.76 -16.69)" d="M206.76,238.45C78,259.39,64.16,227.18,64.16,227.18L58.66,255S54.53,286.2,36.43,361.25c45,19.74,175.82,9.49,175.82,9.49S207.55,250.34,206.76,238.45Z" class="cls-7"/><path data-cppathid="10006" transform="translate(-14.76 -16.69)" d="M120.21,138.29c0,5.36,2.57,9.71,5.71,9.71s5.73-4.35,5.73-9.71-2.56-9.72-5.73-9.72S120.21,132.91,120.21,138.29Z" class="cls-8"/><path data-cppathid="10007" transform="translate(-14.76 -16.69)" d="M104.2,137.14c0,4.43,2.11,8,4.7,8s4.71-3.58,4.71-8-2.11-8-4.71-8S104.2,132.72,104.2,137.14Z" class="cls-8"/><path data-cppathid="10008" transform="translate(-14.76 -16.69)" d="M127.09,137.14a2.86,2.86,0,1,0,2.85-2.86A2.86,2.86,0,0,0,127.09,137.14Z" class="cls-9"/><path data-cppathid="10009" transform="translate(-14.76 -16.69)" d="M110,137.14a2.86,2.86,0,1,0,2.86-2.86A2.86,2.86,0,0,0,110,137.14Z" class="cls-9"/><path data-cppathid="10010" transform="translate(-14.76 -16.69)" d="M131.92,62.38s58.06,79.41,83,93.48c13.11-43.56-7.8-94.16-64-105.21-29.91-5.89-38.77-8.15-61.18,16.75C72,87.17,131.92,62.38,131.92,62.38Z" class="cls-5"/><path data-cppathid="10011" transform="translate(-14.76 -16.69)" d="M216.89,150.62S258.25,89.85,198.6,47c-54.78-39.39-95.94,2.44-97,10.06C101.64,57,206.76,49.45,216.89,150.62Z" class="cls-3"/><path data-cppathid="10012" transform="translate(-14.76 -16.69)" d="M168,72.31S127,18.15,100.1,16.82,55.83,24.15,53.8,32.19,98.76,57,98.76,57,139.82,55.89,168,72.31Z" class="cls-10"/><path data-cppathid="10013" transform="translate(-14.76 -16.69)" d="M212.63,156.78c4.48-7.95,21.44-13,32-7.07,12.18,6.84,15.7,13.66,12.3,26.12-3.16,11.62-4.47,17.87,4.1,29.65,7.14,9.81,28.05,2.66,23-11-1.82-4.9-13.17-9.32-16.27-4.23-2.05,3.34,2.89,10.59,6.52,9.41-3.37-1.44-8,2.83-10.36-7.53-1.44-6.33,5.91-9.32,10.43-10,21.15-3.34,22,25.12,6.58,34.66-20.55,12.72-45-1.71-58.48-14.74S208.14,164.74,212.63,156.78Z" class="cls-5"/><path data-cppathid="10014" transform="translate(-14.76 -16.69)" d="M204,239.29s-45.57,2-96.5,58.3c0,0-42.22-33.51-42.22-67" class="cls-11"/><polygon data-cppathid="10015" points="102.89 303.35 88.96 310.12 85.18 302.26 93.56 293.25 102.89 303.35" class="cls-12"/><polyline data-cppathid="10016" points="76.87 321.19 85.97 316.26 88.84 318.48" class="cls-13"/><path data-cppathid="10017" transform="translate(-14.76 -16.69)" d="M104.61,301.08s.51-4.85,7.19-4.79c6.13,1.51,11.73,11,8.8,19.63-3.32,9.76-13.16,4.26-13.16,4.26l-3,15.27-.36.18L100.73,333Z" class="cls-14"/><path data-cppathid="10018" transform="translate(-14.76 -16.69)" d="M95,303.5s9.49-8.16,15.94-7.39a6.72,6.72,0,0,1,.87.18c-6.68-.06-7.19,4.79-7.19,4.79L100.73,333l3.34,2.68-9.35,4.64-3.92-2.68Z" class="cls-15"/><line data-cppathid="10019" y2="298.55" x2="86.29" y1="301.96" x1="79.78" class="cls-16"/><polygon data-cppathid="10020" points="85.97 316.26 89.31 318.94 79.95 323.58 76.04 320.9 85.97 316.26" class="cls-17"/><line data-cppathid="10021" y2="318.87" x2="85.71" y1="321.49" x1="79.59" class="cls-18"/><path data-cppathid="10022" transform="translate(-14.76 -16.69)" d="M134,249.46c5.53-9.41,6.08-22.26,8-35.69a6.86,6.86,0,0,0-.5-3.94,1.34,1.34,0,0,0,.17-.79c-.32-4.73-4.56-18.21-19.44-20.53s-27.84,16.62-30.49,19.66,16.06,11.76,20.09,8.16c2.87-2.56-8.25-8.25-8.2-8.16,2.68,4.86,9.71,4.33,15.73,2-.48,10.51-17.69,50.52-11.65,58.19,4.65,5.88,47.87,12.41,49.7,11.33L177,260.3Z" class="cls-19"/><path data-cppathid="10023" transform="translate(-14.76 -16.69)" d="M139.1,288.3q3.1.52,6.17,1c51.44,7.91,68.28-29.45,55.28-35.09-4.49-1.94-25.76-6.9-52.39-12.37C140.53,250.11,133.65,270.06,139.1,288.3Z" class="cls-3"/></g><path data-cppathid="10024" transform="translate(-14.76 -16.69)" d="M17.44,279.56c6.16-6.89,25.77-7.78,45.64-4.47s22.2,5.51,41.93,4.47,27.56.88,35.18,8.78,0,5.44,0,5.44l-1.51.37.49,1.75a5.68,5.68,0,0,1-4.44.15l-2.5-.92s3.44,2.56.06,2.22-8.18-2.76-10.68-2.86-17.61,2.12-19.09-.85-68.09,10-79.06,2.41C16.8,291.43,11.27,286.45,17.44,279.56Z" class="cls-6"/></g></g></g></svg>