<?xml version="1.0" encoding="UTF-8"?>
<svg xmlns="http://www.w3.org/2000/svg" onmouseup="{ if(window.parent.document.onmouseup) window.parent.document.onmouseup(arguments[0]);}" viewBox="0 0 326.59 107.5"><defs><style>.cls-1{fill:#603813;}</style></defs><g data-name="Layer 2" id="Layer_2"><g id="backlog"><g data-name="2023 jp" id="_2023_jp"><g data-name="View Grades PBI" id="View_Grades_PBI"><path data-cppathid="10000" transform="translate(-1.08 -1.2)" d="M4,12.6a.79.79,0,0,1-.74.53H3.17a.21.21,0,0,1-.12,0l-1.2-.24c-.4-.09-.6-.31-.6-.64a.86.86,0,0,1,.07-.36l4.2-9.17a.79.79,0,0,1,.74-.53h.12l.12,0,1.2.24q.6.15.6.6a1,1,0,0,1-.09.41L6.91,6.29h4.25V2.06A.7.7,0,0,1,12,1.27h1.49a.7.7,0,0,1,.79.79V6.29h6.53c.53,0,.79.24.79.72s-.26.72-.79.72H14.23v6H19.8c.53,0,.79.24.79.72s-.26.72-.79.72H14.23V20.4h7.25c.53,0,.79.24.79.72s-.26.72-.79.72H2.42c-.52,0-.79-.24-.79-.72s.27-.72.79-.72h8.74V15.19H4.73c-.53,0-.79-.24-.79-.72s.26-.72.79-.72h6.43v-6H6.24Z" class="cls-1"/><path data-cppathid="10001" transform="translate(-1.08 -1.2)" d="M27.58,15.17a.92.92,0,0,1-.65.31,1.23,1.23,0,0,1-.43-.12l-.68-.31c-.3-.15-.45-.34-.45-.58a.8.8,0,0,1,.26-.53l5.93-5.83a.9.9,0,0,1,.65-.31,1.28,1.28,0,0,1,.43.12l.67.31c.31.15.46.34.46.58a.78.78,0,0,1-.27.53l-2,1.94a.87.87,0,0,1,.14.5v9.8a.7.7,0,0,1-.79.79H29.4a.7.7,0,0,1-.79-.79V14.16Zm.57-6.48a.85.85,0,0,1-.69.36A1.54,1.54,0,0,1,27.07,9l-.86-.34q-.51-.21-.51-.6a.75.75,0,0,1,.22-.48l4.7-5.86a.89.89,0,0,1,.7-.36,1.18,1.18,0,0,1,.38.08l.87.33c.33.15.5.35.5.6a.78.78,0,0,1-.21.48ZM35.3,21.26a.74.74,0,0,1-.88.68L33,21.79c-.55-.05-.77-.34-.68-.89l1.47-7.17a.73.73,0,0,1,.89-.67l1.44.14c.54.05.76.34.67.89l-.84,4.15,2.45.53V11.69a.9.9,0,0,1,.12-.48H34.18c-.53,0-.8-.24-.8-.72s.27-.72.8-.72h4.1V5.45h-4.1c-.53,0-.8-.24-.8-.72s.27-.72.8-.72h4.1V2a.7.7,0,0,1,.79-.79h1.49a.7.7,0,0,1,.79.79V4h3.29c.53,0,.79.24.79.72s-.26.72-.79.72H41.35V9.77H45.6c.53,0,.79.24.79.72s-.26.72-.79.72H41.33a.9.9,0,0,1,.12.48v2.73h3.67c.53,0,.79.24.79.72s-.26.72-.79.72H41.45v3.27a.87.87,0,0,1-.05.31l4.61,1c.41.1.62.29.62.58a.67.67,0,0,1-.07.31l0,.05a.81.81,0,0,1-.77.53h-.12a.21.21,0,0,1-.12,0L35.62,19.7Z" class="cls-1"/><path data-cppathid="10002" transform="translate(-1.08 -1.2)" d="M65.09,19.42a1.71,1.71,0,0,1,.45-.08,1.2,1.2,0,0,1,.33.05.92.92,0,0,1,.3.17l.19.14a.7.7,0,0,1,.36.58c0,.27-.18.44-.53.5-.57.13-1.29.26-2.13.38s-1.73.21-2.64.28-1.77.11-2.57.11A17.45,17.45,0,0,1,54,21a7.41,7.41,0,0,1-3.19-1.68,3.48,3.48,0,0,1-1.13-2.6,3.8,3.8,0,0,1,1-2.54,11.2,11.2,0,0,1,3.4-2.38l-3-6.38A.86.86,0,0,1,51,5c0-.31.19-.51.58-.6L52.8,4.1l.26,0a.77.77,0,0,1,.75.5l2.85,6.05c1.09-.45,2.34-.91,3.74-1.39s3-1,4.71-1.51a.49.49,0,0,1,.18-.05h.18a.77.77,0,0,1,.72.43v0a.86.86,0,0,1,.15.45c0,.27-.2.47-.58.6q-3.84,1.19-6.36,2.11a27.51,27.51,0,0,0-4,1.78,6.34,6.34,0,0,0-2,1.7,3.27,3.27,0,0,0-.6,1.9,2.79,2.79,0,0,0,1.42,2.6,9.65,9.65,0,0,0,4.65.83c.77,0,1.55,0,2.35-.09s1.54-.15,2.23-.26A12.82,12.82,0,0,0,65.09,19.42Z" class="cls-1"/><path data-cppathid="10003" transform="translate(-1.08 -1.2)" d="M82.66,14a.73.73,0,0,1,.81-.79H85a.68.68,0,0,1,.77.81,10.24,10.24,0,0,1-1.18,4.43,7,7,0,0,1-2.83,2.84,8.69,8.69,0,0,1-4.25,1,7.3,7.3,0,0,1-5.22-1.78,6.47,6.47,0,0,1-1.88-4.94c0-.43,0-1,0-1.68s.07-1.45.12-2.27.1-1.66.16-2.52.14-1.67.21-2.45.14-1.45.2-2,.34-.72.87-.69L73.42,4a.69.69,0,0,1,.72.84c-.07.56-.13,1.22-.2,2s-.12,1.56-.19,2.4-.12,1.67-.17,2.48-.08,1.54-.1,2.22,0,1.21,0,1.63a6.33,6.33,0,0,0,1,3.93,3.55,3.55,0,0,0,3,1.35A4.33,4.33,0,0,0,81.12,19,9,9,0,0,0,82.66,14Z" class="cls-1"/><path data-cppathid="10004" transform="translate(-1.08 -1.2)" d="M102.91,20.38c.51,0,.77.28.77.74s-.27.73-.82.7a17,17,0,0,1-3.78-.6,11.11,11.11,0,0,1-3-1.37,7,7,0,0,1-2-2,4.45,4.45,0,0,1-.73-2.46,7.73,7.73,0,0,1,1.59-4.71,12.59,12.59,0,0,1,4.43-3.61l-10.08.72A.72.72,0,0,1,88.37,7c0-.37.24-.58.72-.62l15.09-1.08a.82.82,0,0,1,.94.62,1.74,1.74,0,0,1,0,.26c0,.32-.22.55-.65.68a13.63,13.63,0,0,0-4.37,1.89,9.25,9.25,0,0,0-2.81,2.95,7.39,7.39,0,0,0-1,3.72,4.22,4.22,0,0,0,.59,2.3,4.67,4.67,0,0,0,1.56,1.5,7.91,7.91,0,0,0,2.12.85A14.16,14.16,0,0,0,102.91,20.38Z" class="cls-1"/><path data-cppathid="10005" transform="translate(-1.08 -1.2)" d="M115.46,22.18a.74.74,0,0,1,.27.52c0,.23-.16.41-.46.56l-.45.21a.93.93,0,0,1-1.11-.21l-4.41-4.44a.78.78,0,0,1-.27-.53c0-.23.15-.41.46-.55l.45-.22a1.05,1.05,0,0,1,.44-.1.89.89,0,0,1,.67.32Z" class="cls-1"/><path data-cppathid="10006" transform="translate(-1.08 -1.2)" d="M136,21.53c0,.49-.29.74-.81.74l-1.47,0a.68.68,0,0,1-.77-.82l.68-14.71a1,1,0,0,1,.14-.48.63.63,0,0,1-.12-.41c0-.48.26-.72.79-.72h8.59l-.79-2.45a1.4,1.4,0,0,1-.05-.31c0-.37.22-.57.65-.62l1.35-.19.1,0h.09a.72.72,0,0,1,.74.6l1,3h6.63c.52,0,.79.24.79.72s-.27.72-.79.72h-6.17L148.63,13l2.19-3.5a.83.83,0,0,1,.72-.46,1.6,1.6,0,0,1,.31.05l1,.31c.37.13.55.33.55.6a1,1,0,0,1-.14.43l-3.63,5.79,1.2,3.72,1.37-.36a1,1,0,0,1,.27-.05.83.83,0,0,1,.74.5.93.93,0,0,1,.12.39c0,.32-.19.52-.58.62l-3.52.91a.4.4,0,0,1-.15,0H149a.74.74,0,0,1-.72-.58l-.62-1.94-1.3,2.08a.83.83,0,0,1-.72.46,1.5,1.5,0,0,1-.31-.05l-1-.31c-.37-.13-.55-.33-.55-.6a.8.8,0,0,1,.14-.43l2.74-4.37-3.1-9.65h-6.84a2.13,2.13,0,0,1,0,.27l-.19,4.12h5.81a.66.66,0,0,1,.74.82l-.74,9.41c0,.46-.26.69-.65.69a1.25,1.25,0,0,1-.26,0l-3.79-.94c-.4-.1-.6-.29-.6-.58a.38.38,0,0,1,0-.16.85.85,0,0,0,.06-.17l0-.07a.8.8,0,0,1,.74-.51H138l.15,0,1.2.29.6-7.35h-3.53ZM151.78,3.14a.72.72,0,0,1,.4.58.74.74,0,0,1-.28.53l-.24.19a1,1,0,0,1-.63.26.89.89,0,0,1-.45-.14L147.65,3a.73.73,0,0,1-.41-.57.69.69,0,0,1,.29-.53l.24-.19a.93.93,0,0,1,.62-.27.86.86,0,0,1,.46.15Z" class="cls-1"/><path data-cppathid="10007" transform="translate(-1.08 -1.2)" d="M158.93,20.62a.72.72,0,0,1-.87.72l-.76-.05a.68.68,0,0,1-.72-.84l.31-3.65a.72.72,0,0,1,.86-.72l.77.05a.68.68,0,0,1,.72.84Zm4.17,1a.7.7,0,0,1-.79.79h-1.49a.7.7,0,0,1-.79-.79V14.74l-2.64.21q-.72,0-.72-.45a.85.85,0,0,1,.17-.48l2.21-3.44-.05-.07-2-2.69a.93.93,0,0,1-.21-.55.81.81,0,0,1,.21-.55l3.84-5a.83.83,0,0,1,.68-.38,1.14,1.14,0,0,1,.38.07l.91.31c.34.11.51.3.51.58a.87.87,0,0,1-.2.48l-3.43,4.53.82,1.08L161.35,7a.86.86,0,0,1,.75-.43,1.38,1.38,0,0,1,.31,0l1,.32c.37.12.55.32.55.57a.47.47,0,0,1-.05.22,1.34,1.34,0,0,1-.12.24l-3.4,5.3,2.92-.24-.4-1.65a.88.88,0,0,1,0-.24.64.64,0,0,1,.65-.7l.7-.1a.72.72,0,0,1,.91.63l.89,3.67a1.44,1.44,0,0,1,0,.24.64.64,0,0,1-.65.7l-.69.09a.72.72,0,0,1-.92-.62l-.14-.58h-.07l-.55,0a.85.85,0,0,1,0,.29Zm3.41-1.59a.69.69,0,0,1-.74.84L165,21a.71.71,0,0,1-.84-.72l-.31-3a.81.81,0,0,1,.17-.61.73.73,0,0,1,.57-.25l.77-.05a.71.71,0,0,1,.84.72Zm6.72-11.54v.07h3.48c.53,0,.79.24.79.72s-.26.72-.79.72h-10c-.53,0-.79-.24-.79-.72s.26-.72.79-.72h3.41v-1h-2.28c-.53,0-.79-.24-.79-.72s.26-.72.79-.72h2.28V4.73h-2.88c-.53,0-.79-.24-.79-.72s.26-.72.79-.72h2.88V2.52a.7.7,0,0,1,.79-.79h1.49a.7.7,0,0,1,.79.79v.77h2.91c.52,0,.79.24.79.72s-.27.72-.79.72h-2.91V6.14h2.33c.53,0,.79.24.79.72s-.26.72-.79.72h-2.33Zm-6.41,2.88a.7.7,0,0,1,.8-.79h1.48a.88.88,0,0,1,.48.12h6.6a.7.7,0,0,1,.8.79V19a.7.7,0,0,1-.8.79H174.7a.85.85,0,0,1-.48-.12h-4.64a.88.88,0,0,1-.48.12h-1.48a.7.7,0,0,1-.8-.79Zm1.54,11a1,1,0,0,1-.43.09.86.86,0,0,1-.65-.31l-.12-.12a.72.72,0,0,1-.26-.5c0-.24.15-.44.48-.58l2.08-.94a1,1,0,0,1,.44-.09.84.84,0,0,1,.64.31l.12.12a.74.74,0,0,1,.27.5c0,.24-.16.44-.48.58Zm5.54-10.25h-4v1h4Zm-4,3.55h4V14.59h-4Zm0,2.47h4v-1h-4Zm6.79,2.91q.48.21.48.57a.74.74,0,0,1-.22.48l-.17.17a.85.85,0,0,1-1.08.24l-2.4-1.06q-.48-.21-.48-.57a.75.75,0,0,1,.22-.48l.17-.17a.85.85,0,0,1,1.08-.24Z" class="cls-1"/><path data-cppathid="10008" transform="translate(-1.08 -1.2)" d="M194.64,16.46c0,.55-.23.82-.79.82h-1.49c-.5,0-.76-.26-.79-.79a12.18,12.18,0,0,0-.19-1.42,20.76,20.76,0,0,0-3.94,2c-.95.66-1.42,1.27-1.42,1.81s.33.84,1,1.07a9.6,9.6,0,0,0,3,.35A14.05,14.05,0,0,0,196.3,19a1.08,1.08,0,0,1,.5-.14.85.85,0,0,1,.58.24l.24.19a.72.72,0,0,1,.31.55.63.63,0,0,1-.43.56,15.67,15.67,0,0,1-2.22.72,26.42,26.42,0,0,1-2.62.49,20.12,20.12,0,0,1-2.65.18,15,15,0,0,1-3.53-.39,7.81,7.81,0,0,1-2.57-1,1.79,1.79,0,0,1-1-1.44,2.46,2.46,0,0,1,1-1.69,12.89,12.89,0,0,1,2.75-1.84,35.94,35.94,0,0,1,4.24-1.84,4.07,4.07,0,0,0-1.1-1.5,2.23,2.23,0,0,0-1.45-.54,2.65,2.65,0,0,0-1.56.49,5,5,0,0,0-1.32,1.57.9.9,0,0,1-.53.48l0,0h-.1a.05.05,0,0,1,0,0h-.22a.21.21,0,0,1-.12,0l-1.15-.26-.15-.05c-.33-.11-.5-.3-.5-.57a.83.83,0,0,1,.1-.41l2.35-4.9h-3.7c-.53,0-.79-.24-.79-.72s.26-.72.79-.72h4.39l.87-1.82a.8.8,0,0,1,.77-.53h.12l.12,0,1.22.29c.38.1.58.3.58.6a1,1,0,0,1-.1.41l-.5,1h7.63c.53,0,.79.24.79.72s-.26.72-.79.72h-8.31l-1.1,2.31a6.75,6.75,0,0,1,1.27-.12,6.38,6.38,0,0,1,3,.67,5.49,5.49,0,0,1,2.11,1.92c1.22-.4,2.5-.78,3.84-1.13l.17,0h.15a.81.81,0,0,1,.72.48.93.93,0,0,1,.12.39c0,.32-.21.52-.6.62-1.32.35-2.55.72-3.7,1.1A9.55,9.55,0,0,1,194.64,16.46Z" class="cls-1"/><path data-cppathid="10009" transform="translate(-1.08 -1.2)" d="M205.44,20.59a.91.91,0,0,1-.65.29.88.88,0,0,1-.43-.1l-.67-.31c-.31-.14-.46-.33-.46-.57a.76.76,0,0,1,.26-.53l10.95-11H202.8c-.53,0-.79-.24-.79-.72s.26-.72.79-.72h12.34V5.26a.7.7,0,0,1,.79-.8h1.49a.71.71,0,0,1,.79.8V6.94h3.21c.53,0,.79.24.79.72s-.26.72-.79.72h-3.21V21.05a.66.66,0,0,1-.82.74l-4-.29c-.48,0-.72-.25-.72-.62a.81.81,0,0,1,.26-.65.86.86,0,0,1,.65-.17l1.52.12V10.85Z" class="cls-1"/><path data-cppathid="10010" transform="translate(-1.08 -1.2)" d="M233.45,8.4c.27.18.4.36.4.55a.72.72,0,0,1-.33.55l-.29.24a.92.92,0,0,1-.58.22,1,1,0,0,1-.52-.17l-6.36-3.86c-.28-.18-.41-.36-.41-.55a.74.74,0,0,1,.33-.56l.29-.24a1,1,0,0,1,.58-.21,1,1,0,0,1,.53.17ZM241.2,11a1,1,0,0,1,.55-.17.91.91,0,0,1,.55.2l.31.24a.71.71,0,0,1,.34.55.67.67,0,0,1-.38.55l-14.12,8.88a1,1,0,0,1-.55.17,1,1,0,0,1-.55-.19L227,21a.72.72,0,0,1-.34-.56.68.68,0,0,1,.39-.55Z" class="cls-1"/><path data-cppathid="10011" transform="translate(-1.08 -1.2)" d="M257.35,22a.83.83,0,0,1-.67.39,1.61,1.61,0,0,1-.39-.07l-.91-.32c-.35-.12-.53-.32-.53-.57a.82.82,0,0,1,.2-.48l6.72-9.1H247.13c-.53,0-.8-.24-.8-.72s.27-.72.8-.72h17.61c.45,0,.67.16.67.48a.8.8,0,0,1-.19.48Zm5.06-17.4c.53,0,.8.24.8.72s-.27.72-.8.72H249.12c-.53,0-.79-.24-.79-.72s.26-.72.79-.72Z" class="cls-1"/><path data-cppathid="10012" transform="translate(-1.08 -1.2)" d="M269.45,15.65a1,1,0,0,1-.51.14.88.88,0,0,1-.6-.24l-.24-.19a.79.79,0,0,1-.33-.55.7.7,0,0,1,.4-.55L285,4.51a1.16,1.16,0,0,1,.51-.14.88.88,0,0,1,.6.24l.24.19a.79.79,0,0,1,.33.55c0,.19-.13.38-.41.55l-6.67,3.87a.74.74,0,0,1,.19.55v10.8a.7.7,0,0,1-.79.79h-1.49a.7.7,0,0,1-.79-.79v-9.7Z" class="cls-1"/><path data-cppathid="10013" transform="translate(-1.08 -1.2)" d="M297.48,8.4c.27.18.41.36.41.55a.73.73,0,0,1-.34.55l-.29.24a.91.91,0,0,1-.57.22,1,1,0,0,1-.53-.17L289.8,5.93c-.27-.18-.41-.36-.41-.55a.72.72,0,0,1,.34-.56l.28-.24a1,1,0,0,1,.58-.21.92.92,0,0,1,.53.17ZM305.23,11a1,1,0,0,1,.55-.17.91.91,0,0,1,.55.2l.32.24a.72.72,0,0,1,.33.55.67.67,0,0,1-.38.55l-14.11,8.88a1,1,0,0,1-.56.17,1,1,0,0,1-.55-.19l-.31-.24a.75.75,0,0,1-.34-.56.68.68,0,0,1,.39-.55Z" class="cls-1"/><path data-cppathid="10014" transform="translate(-1.08 -1.2)" d="M324,20.38c.51,0,.77.28.77.74s-.28.73-.82.7a17,17,0,0,1-3.78-.6,11.32,11.32,0,0,1-3-1.37,6.91,6.91,0,0,1-2-2,4.46,4.46,0,0,1-.74-2.46,7.75,7.75,0,0,1,1.6-4.71,12.5,12.5,0,0,1,4.43-3.61l-10.08.72a.72.72,0,0,1-.87-.82c0-.37.24-.58.72-.62l15.1-1.08a.83.83,0,0,1,.94.62,1.35,1.35,0,0,1,0,.26c0,.32-.21.55-.64.68a13.53,13.53,0,0,0-4.37,1.89,9.14,9.14,0,0,0-2.81,2.95,7.29,7.29,0,0,0-1,3.72,4.22,4.22,0,0,0,.58,2.3,4.87,4.87,0,0,0,1.56,1.5,8,8,0,0,0,2.13.85A14.16,14.16,0,0,0,324,20.38Zm1-4.73a1.61,1.61,0,0,1,0,.26.62.62,0,0,1-.65.67l-.69.1a.73.73,0,0,1-.92-.62l-1.24-5a1,1,0,0,1,0-.27c0-.4.22-.62.65-.67l.7-.1a.73.73,0,0,1,.93.63Zm2.64-1.47a1.87,1.87,0,0,1,0,.27c0,.37-.21.59-.62.67l-.7.12a.74.74,0,0,1-.94-.62l-1.22-4.71a.74.74,0,0,1,0-.14s0-.1,0-.15c0-.35.22-.56.65-.64l.7-.12a.72.72,0,0,1,.93.62Z" class="cls-1"/><path data-cppathid="10015" transform="translate(-1.08 -1.2)" d="M5.09,50.83a.86.86,0,0,1-.65.31A1,1,0,0,1,4,51.05l-.75-.34q-.48-.21-.48-.57A.72.72,0,0,1,3,49.63l4.3-4.56H6.79a.68.68,0,0,1-.72.43H4.58a.7.7,0,0,1-.79-.79V31.78a.71.71,0,0,1,.79-.8H6.07a.69.69,0,0,1,.72.41H19.37a.7.7,0,0,1,.79.79V45.1a.7.7,0,0,1-.79.79H17.88a.7.7,0,0,1-.79-.79v0H15.53v4.47h4v-.63c0-.4.26-.6.79-.6h1.49a.7.7,0,0,1,.79.79v1.08a.7.7,0,0,1-.79.8H13.25a.7.7,0,0,1-.79-.8V45.07H10.22v0a.7.7,0,0,1-.24.5Zm12-18H6.86v2.71H17.09ZM6.86,39.55H17.09V37H6.86Zm0,4.08H17.09V41H6.86Z" class="cls-1"/><path data-cppathid="10016" transform="translate(-1.08 -1.2)" d="M42.31,45.46a3.64,3.64,0,0,1-1.13,2.65,7.33,7.33,0,0,1-3.12,1.76,15.14,15.14,0,0,1-4.58.63A16.29,16.29,0,0,1,30,50.17a6.24,6.24,0,0,1-2.34-.92,1.72,1.72,0,0,1-.84-1.42,2.06,2.06,0,0,1,.83-1.55,6.33,6.33,0,0,1,2.15-1.14,9.13,9.13,0,0,1,2.78-.43,7.1,7.1,0,0,1,3.6.84,4.16,4.16,0,0,1,2,2.38,3.07,3.07,0,0,0,1.08-2.47,4.14,4.14,0,0,0-.56-2.16,3.94,3.94,0,0,0-1.56-1.47,4.88,4.88,0,0,0-2.3-.53,9.3,9.3,0,0,0-3,.52A11.8,11.8,0,0,0,29,43.27l-1.54,1.2a1.31,1.31,0,0,1-.81.36,1,1,0,0,1-.8-.43l-.19-.19a.74.74,0,0,1-.24-.53.7.7,0,0,1,.31-.55,9.2,9.2,0,0,1,1.35-.94L36.1,35H27.31c-.53,0-.79-.23-.79-.7s.26-.69.79-.69H39.65c.45,0,.67.13.67.41a.72.72,0,0,1-.34.55L33.07,40a13.43,13.43,0,0,1,1.75-.12,9.78,9.78,0,0,1,2.9.43,8.29,8.29,0,0,1,2.38,1.19,5.77,5.77,0,0,1,1.62,1.77A4.13,4.13,0,0,1,42.31,45.46ZM29.9,47.83a1,1,0,0,0,.3.78,2,2,0,0,0,1.07.39,17.68,17.68,0,0,0,2.21.1A13.17,13.17,0,0,0,35.33,49a1.1,1.1,0,0,1-.07-.31c-.2-1.71-1.08-2.57-2.67-2.57a3.7,3.7,0,0,0-2,.46A1.43,1.43,0,0,0,29.9,47.83Z" class="cls-1"/><path data-cppathid="10017" transform="translate(-1.08 -1.2)" d="M57.14,37.56a.87.87,0,0,1-.67.34,1,1,0,0,1-.41-.1l-.79-.34a.62.62,0,0,1-.48-.57.88.88,0,0,1,.22-.51l.93-1.08H46c-.53,0-.79-.24-.79-.72s.26-.72.79-.72H59.06c.47,0,.7.16.7.48a.72.72,0,0,1-.24.51Zm2.31,11.06c.53,0,.79.24.79.72s-.26.72-.79.72H52.51a15.77,15.77,0,0,1-5.27-.7c-1.27-.48-1.9-1.17-1.9-2.08a4,4,0,0,1,.43-1.64,9.83,9.83,0,0,1,1.17-1.91,1,1,0,0,1,.68-.36.9.9,0,0,1,.4.09l.87.36c.32.15.48.34.48.58a1,1,0,0,1-.15.48,8.6,8.6,0,0,0-.57,1.27,3.52,3.52,0,0,0-.24,1.13,1.1,1.1,0,0,0,.3.84,2.22,2.22,0,0,0,1.19.4,24.26,24.26,0,0,0,2.61.1Z" class="cls-1"/><path data-cppathid="10018" transform="translate(-1.08 -1.2)" d="M78.84,48.22a1.78,1.78,0,0,1,.46-.08,1.13,1.13,0,0,1,.32,0,.92.92,0,0,1,.3.17l.19.14a.7.7,0,0,1,.36.58c0,.27-.17.44-.53.5-.57.13-1.28.26-2.13.38s-1.73.21-2.64.28-1.77.11-2.57.11a17.32,17.32,0,0,1-4.82-.59,7.45,7.45,0,0,1-3.2-1.68,3.48,3.48,0,0,1-1.12-2.6,3.8,3.8,0,0,1,1-2.54,11.13,11.13,0,0,1,3.39-2.38l-3-6.38a.86.86,0,0,1-.1-.41c0-.31.19-.51.58-.6l1.22-.27.27,0a.75.75,0,0,1,.74.5l2.86,6c1.08-.45,2.33-.91,3.73-1.39s3-1,4.71-1.51a.49.49,0,0,1,.18-.05h.18a.77.77,0,0,1,.72.43v0a.86.86,0,0,1,.15.45c0,.27-.19.47-.58.6q-3.84,1.18-6.36,2.11a27.51,27.51,0,0,0-4,1.78,6.34,6.34,0,0,0-2.05,1.7,3.27,3.27,0,0,0-.6,1.9A2.78,2.78,0,0,0,68,48.08a9.6,9.6,0,0,0,4.64.83c.77,0,1.55,0,2.35-.09s1.55-.15,2.23-.26A12.82,12.82,0,0,0,78.84,48.22Z" class="cls-1"/><path data-cppathid="10019" transform="translate(-1.08 -1.2)" d="M86.33,50.35a.76.76,0,0,1-1,.55l-1.27-.24q-.6-.12-.6-.6a1.14,1.14,0,0,1,.07-.38L88.42,37.9H84.17c-.53,0-.79-.24-.79-.72s.26-.72.79-.72H89l1.18-2.86a.76.76,0,0,1,1-.55l1.27.24q.6.12.6.6a1.14,1.14,0,0,1-.07.38L92,36.46h0a5.28,5.28,0,0,1,3.72,1.14A4.53,4.53,0,0,1,97,41.09a16.6,16.6,0,0,1-.3,3.37,10.53,10.53,0,0,1-.81,2.47,13.26,13.26,0,0,1-1.06,1.85c-.38.54-.75,1-1.12,1.52a.81.81,0,0,1-.67.41,1,1,0,0,1-.36-.07l-1-.31c-.35-.1-.52-.29-.52-.58a.8.8,0,0,1,.16-.45,20.12,20.12,0,0,0,1.18-1.77,9.72,9.72,0,0,0,1-2.53,15.66,15.66,0,0,0,.41-3.91,5.43,5.43,0,0,0-.41-2.49,1.55,1.55,0,0,0-1.47-.7h-.62Zm16.73-5.06a1.38,1.38,0,0,1,0,.31c0,.37-.21.58-.64.62l-1.37.2a.78.78,0,0,1-.94-.58L96.94,35.38a1.09,1.09,0,0,1,0-.32c0-.36.21-.57.65-.62l1.36-.19H99l.09,0a.72.72,0,0,1,.74.6Zm.81-9.12a.78.78,0,0,1,0,.24c0,.36-.22.56-.65.61l-.7.09a.72.72,0,0,1-.91-.57L100.39,32a1.44,1.44,0,0,1,0-.24c0-.36.21-.57.65-.61l.69-.09a.74.74,0,0,1,.94.57Zm2.64-1.33a.78.78,0,0,1,0,.24c0,.33-.21.54-.63.61l-.69.11a.73.73,0,0,1-.94-.57L103.06,31a.93.93,0,0,1,0-.13.62.62,0,0,1,0-.13c0-.32.21-.52.65-.59l.69-.11c.51-.07.83.11.94.56Z" class="cls-1"/><path data-cppathid="10020" transform="translate(-1.08 -1.2)" d="M121.8,49.18c.51,0,.77.28.77.74s-.28.73-.82.7A17,17,0,0,1,118,50a11.11,11.11,0,0,1-3-1.37,7,7,0,0,1-2-2,4.45,4.45,0,0,1-.73-2.46,7.73,7.73,0,0,1,1.59-4.71,12.5,12.5,0,0,1,4.43-3.61l-10.08.72a.72.72,0,0,1-.86-.82c0-.37.24-.58.72-.62l15.09-1.08a.83.83,0,0,1,.94.62,1.74,1.74,0,0,1,0,.26c0,.32-.22.55-.65.68A13.53,13.53,0,0,0,119,37.51a9.14,9.14,0,0,0-2.81,3,7.29,7.29,0,0,0-1,3.72,4.14,4.14,0,0,0,.59,2.3A4.67,4.67,0,0,0,117.4,48a7.78,7.78,0,0,0,2.12.85A14.16,14.16,0,0,0,121.8,49.18Zm1-4.73a1.61,1.61,0,0,1,0,.26.62.62,0,0,1-.65.67l-.69.1a.71.71,0,0,1-.91-.62l-1.25-5a1,1,0,0,1,0-.27c0-.4.22-.62.65-.67l.7-.1a.73.73,0,0,1,.93.63ZM125.45,43a1.87,1.87,0,0,1,0,.27c0,.37-.21.59-.62.67l-.7.12a.73.73,0,0,1-.93-.62L122,38.71a.7.7,0,0,1,0-.14.77.77,0,0,1,0-.15c0-.35.22-.56.65-.64l.7-.12a.72.72,0,0,1,.93.62Z" class="cls-1"/><path data-cppathid="10021" transform="translate(-1.08 -1.2)" d="M141.57,49.1c.53,0,.8.24.8.72s-.27.72-.8.72h-7.34a11.13,11.13,0,0,1-3-.37,5.29,5.29,0,0,1-2.1-1,2,2,0,0,1-.77-1.56,3,3,0,0,1,.41-1.48,6.9,6.9,0,0,1,1.13-1.47.84.84,0,0,1,.62-.29,1,1,0,0,1,.48.12l.7.36a.65.65,0,0,1,.43.55,1.06,1.06,0,0,1-.17.5,3.35,3.35,0,0,0-.38.86,2.77,2.77,0,0,0-.15.85,1.28,1.28,0,0,0,.59,1.2,5,5,0,0,0,2.22.33Zm-.24-3.55a.68.68,0,0,1-.69.89l-1.44.12a.73.73,0,0,1-.89-.7l-.74-4.7h-8.12c-.52,0-.79-.24-.79-.72s.27-.72.79-.72h7.9l-.58-3.6h-7.34c-.53,0-.79-.24-.79-.72s.26-.72.79-.72h7.13l-.17-1.08a.69.69,0,0,1,.7-.89l1.44-.12a.73.73,0,0,1,.88.7l.22,1.39h4c.53,0,.79.24.79.72s-.26.72-.79.72h-3.81l.57,3.6h4.3c.53,0,.79.24.79.72s-.26.72-.79.72h-4.08Z" class="cls-1"/><path data-cppathid="10022" transform="translate(-1.08 -1.2)" d="M164.78,45.46a3.64,3.64,0,0,1-1.13,2.65,7.33,7.33,0,0,1-3.12,1.76,15.14,15.14,0,0,1-4.58.63,16.29,16.29,0,0,1-3.47-.33,6.24,6.24,0,0,1-2.34-.92,1.72,1.72,0,0,1-.84-1.42,2.06,2.06,0,0,1,.83-1.55,6.33,6.33,0,0,1,2.15-1.14,9.13,9.13,0,0,1,2.78-.43,7.1,7.1,0,0,1,3.6.84,4.16,4.16,0,0,1,2,2.38,3.07,3.07,0,0,0,1.08-2.47,4.14,4.14,0,0,0-.56-2.16,3.94,3.94,0,0,0-1.56-1.47,4.88,4.88,0,0,0-2.3-.53,9.3,9.3,0,0,0-3,.52,11.8,11.8,0,0,0-2.88,1.45l-1.54,1.2a1.31,1.31,0,0,1-.81.36,1,1,0,0,1-.8-.43l-.19-.19a.74.74,0,0,1-.24-.53.7.7,0,0,1,.31-.55,9.2,9.2,0,0,1,1.35-.94l9-7.15h-8.79c-.53,0-.79-.23-.79-.7s.26-.69.79-.69h12.34c.45,0,.67.13.67.41a.72.72,0,0,1-.34.55L155.54,40a13.43,13.43,0,0,1,1.75-.12,9.78,9.78,0,0,1,2.9.43,8.29,8.29,0,0,1,2.38,1.19,5.77,5.77,0,0,1,1.62,1.77A4.13,4.13,0,0,1,164.78,45.46Zm-12.41,2.37a1,1,0,0,0,.3.78,2,2,0,0,0,1.07.39,17.68,17.68,0,0,0,2.21.1A13.17,13.17,0,0,0,157.8,49a1.1,1.1,0,0,1-.07-.31c-.2-1.71-1.08-2.57-2.67-2.57a3.7,3.7,0,0,0-2,.46A1.43,1.43,0,0,0,152.37,47.83Z" class="cls-1"/><path data-cppathid="10023" transform="translate(-1.08 -1.2)" d="M182,50.3a.78.78,0,0,1-.63.34,1,1,0,0,1-.45-.12l-.72-.34c-.31-.14-.46-.33-.46-.57a1,1,0,0,1,.19-.51,8.26,8.26,0,0,0,.89-1.76,12,12,0,0,0,.6-2.2,13.19,13.19,0,0,0,.22-2.32,9.43,9.43,0,0,0-1.08-4.8,4.71,4.71,0,0,0-3.05-2.33,32.85,32.85,0,0,1,.57,5.71,12.45,12.45,0,0,1-1.38,6.34,4.43,4.43,0,0,1-4.06,2.32,5.14,5.14,0,0,1-2.86-.79,5.28,5.28,0,0,1-1.9-2.17,7.29,7.29,0,0,1-.67-3.18,10.17,10.17,0,0,1,.7-3.79A9.91,9.91,0,0,1,169.81,37a9,9,0,0,1,2.86-2.13,8,8,0,0,1,3.46-.77,9.37,9.37,0,0,1,4.56,1,7.08,7.08,0,0,1,3,3,10,10,0,0,1,1,4.67A10.87,10.87,0,0,1,182,50.3Zm-11.72-6.38a7.87,7.87,0,0,0,.34,2.34,5,5,0,0,0,.88,1.72,1.5,1.5,0,0,0,1.14.64c.44,0,.84-.33,1.18-1a9.52,9.52,0,0,0,.82-2.7,22.34,22.34,0,0,0,.3-3.84c0-.82,0-1.66-.11-2.52s-.19-1.75-.35-2.64a6.14,6.14,0,0,0-2.12,1.77,9.5,9.5,0,0,0-1.51,2.82A10.2,10.2,0,0,0,170.25,43.92Z" class="cls-1"/><path data-cppathid="10024" transform="translate(-1.08 -1.2)" d="M201.14,49.18c.51,0,.77.28.77.74s-.27.73-.82.7a17,17,0,0,1-3.78-.6,11.11,11.11,0,0,1-3-1.37,7,7,0,0,1-2-2,4.45,4.45,0,0,1-.73-2.46,7.73,7.73,0,0,1,1.59-4.71,12.59,12.59,0,0,1,4.43-3.61l-10.08.72a.72.72,0,0,1-.86-.82c0-.37.24-.58.72-.62l15.09-1.08a.82.82,0,0,1,.94.62,1.74,1.74,0,0,1,.05.26c0,.32-.22.55-.65.68a13.63,13.63,0,0,0-4.37,1.89,9.25,9.25,0,0,0-2.81,3,7.39,7.39,0,0,0-1,3.72,4.22,4.22,0,0,0,.59,2.3,4.67,4.67,0,0,0,1.56,1.5,7.91,7.91,0,0,0,2.12.85A14.16,14.16,0,0,0,201.14,49.18Zm1-4.73a.94.94,0,0,1,0,.26.62.62,0,0,1-.64.67l-.7.1a.71.71,0,0,1-.91-.62l-1.25-5a1.06,1.06,0,0,1,0-.27.62.62,0,0,1,.64-.67l.7-.1a.74.74,0,0,1,.94.63ZM204.79,43a1.06,1.06,0,0,1,0,.27c0,.37-.2.59-.62.67l-.7.12a.73.73,0,0,1-.93-.62l-1.23-4.71,0-.14a.76.76,0,0,1,0-.15c0-.35.21-.56.64-.64l.7-.12a.74.74,0,0,1,.94.62Z" class="cls-1"/><path data-cppathid="10025" transform="translate(-1.08 -1.2)" d="M214.32,51a.76.76,0,0,1,.26.52c0,.23-.15.41-.45.56l-.46.21a.88.88,0,0,1-.43.1.9.9,0,0,1-.67-.31l-4.42-4.44a.76.76,0,0,1-.26-.53c0-.23.15-.41.45-.55l.46-.22a1,1,0,0,1,.43-.1.88.88,0,0,1,.67.32Z" class="cls-1"/><path data-cppathid="10026" transform="translate(-1.08 -1.2)" d="M233.45,42a1,1,0,0,1-.68.33l-.19,0a.65.65,0,0,0-.21-.06l-.75-.32q-.48-.21-.48-.57a.74.74,0,0,1,.24-.53l9.46-10.32a1,1,0,0,1,.67-.34.78.78,0,0,1,.22,0,.89.89,0,0,1,.19.07l.74.31c.32.15.48.34.48.58l.1.09,9.33,9.58a.89.89,0,0,1,.27.53q0,.36-.48.57l-.7.32a1.25,1.25,0,0,1-.45.12.87.87,0,0,1-.65-.32L241.7,33Zm16,8.23a.7.7,0,0,1-.8.79h-1.48a.68.68,0,0,1-.7-.38h-8.81a.74.74,0,0,1-.72.38h-1.49a.7.7,0,0,1-.79-.79v-7a.7.7,0,0,1,.79-.79h1.49a.74.74,0,0,1,.53.17h11.18a.7.7,0,0,1,.8.79Zm-2.12-10.59c.53,0,.8.24.8.72s-.27.72-.8.72H236.73c-.52,0-.79-.24-.79-.72s.27-.72.79-.72Zm-1,4.4h-8.64v5.16h8.64Z" class="cls-1"/><path data-cppathid="10027" transform="translate(-1.08 -1.2)" d="M257.85,40.54a1,1,0,0,1-.57.21.86.86,0,0,1-.53-.17l-.46-.28c-.27-.18-.4-.36-.4-.56a.73.73,0,0,1,.33-.55L265,32.4h-8.49c-.53,0-.8-.24-.8-.72s.27-.72.8-.72h19.05c.53,0,.79.24.79.72s-.26.72-.79.72h-7.46a.86.86,0,0,1-.31.46l-.36.26a1.06,1.06,0,0,1,0,.31v.1l8.16,5.69a.67.67,0,0,1,.36.55.72.72,0,0,1-.36.55l-.4.26a1.12,1.12,0,0,1-.58.2.9.9,0,0,1-.53-.2L267.45,36v5a.7.7,0,0,1-.79.79h-1.49a.7.7,0,0,1-.79-.79V35.47Zm-.57,1.92a.7.7,0,0,1,.79-.8h1.49a.71.71,0,0,1,.69.36h13.61a.7.7,0,0,1,.79.8V50.4a.7.7,0,0,1-.79.79h-1.49a.67.67,0,0,1-.76-.55H260.33a.68.68,0,0,1-.77.55h-1.49a.7.7,0,0,1-.79-.79Zm14.3,1H260.35V49.2h11.23Z" class="cls-1"/><path data-cppathid="10028" transform="translate(-1.08 -1.2)" d="M293.49,45.26c0,.55-.23.82-.79.82h-1.49a.73.73,0,0,1-.79-.79,9,9,0,0,0-.19-1.42,21.07,21.07,0,0,0-3.94,2c-.94.66-1.41,1.27-1.41,1.81s.32.84,1,1.07a9.64,9.64,0,0,0,3,.35,14,14,0,0,0,6.29-1.35,1.12,1.12,0,0,1,.5-.14.85.85,0,0,1,.58.24l.24.19a.69.69,0,0,1,.31.55.61.61,0,0,1-.43.56,15.26,15.26,0,0,1-2.22.72,25.89,25.89,0,0,1-2.62.49,20,20,0,0,1-2.65.18,15,15,0,0,1-3.53-.39,7.75,7.75,0,0,1-2.56-1,1.79,1.79,0,0,1-1-1.44,2.46,2.46,0,0,1,1-1.69,12.79,12.79,0,0,1,2.74-1.84,37.46,37.46,0,0,1,4.24-1.84,4,4,0,0,0-1.09-1.5,2.25,2.25,0,0,0-1.45-.54,2.61,2.61,0,0,0-1.56.49,4.74,4.74,0,0,0-1.32,1.57.93.93,0,0,1-.53.48l0,0h-.09s0,0-.05,0h-.22a.27.27,0,0,1-.12,0l-1.15-.26-.14-.05q-.51-.16-.51-.57a1,1,0,0,1,.1-.41l2.35-4.9h-3.69c-.53,0-.8-.24-.8-.72s.27-.72.8-.72h4.39l.86-1.82a.81.81,0,0,1,.77-.53h.12l.12,0,1.22.29c.39.1.58.3.58.6a.83.83,0,0,1-.1.41l-.5,1h7.63c.53,0,.79.24.79.72s-.26.72-.79.72H287L285.93,39a6.77,6.77,0,0,1,1.28-.12,6.44,6.44,0,0,1,3,.67,5.63,5.63,0,0,1,2.11,1.92c1.21-.4,2.49-.78,3.84-1.13l.17,0h.14a.81.81,0,0,1,.72.48.93.93,0,0,1,.12.39c0,.32-.2.52-.6.62-1.31.35-2.54.72-3.7,1.1A9.13,9.13,0,0,1,293.49,45.26Z" class="cls-1"/><path data-cppathid="10029" transform="translate(-1.08 -1.2)" d="M6.26,78.26a.7.7,0,0,1-.79.8H4a.71.71,0,0,1-.79-.8v-5a.63.63,0,0,1-.19,0L1.7,73c-.41-.08-.62-.29-.62-.62a.86.86,0,0,1,.07-.36l3.43-9H1.94c-.52,0-.79-.24-.79-.72s.27-.72.79-.72H9.62c.53,0,.8.24.8.72s-.27.72-.8.72h-2a1.27,1.27,0,0,1-.07.36L6.29,66.67H9.46a.7.7,0,0,1,.79.79V74.3l2.9-6.81-.17,0H11.5a.7.7,0,0,1-.8-.79v-3a.7.7,0,0,1,.8-.79H13a.88.88,0,0,1,.51.14h1.58l1.39-3.24a.8.8,0,0,1,.75-.55h.12a.21.21,0,0,1,.12,0l1.27.26c.4.1.6.3.6.62a1.08,1.08,0,0,1-.07.36L18.17,63h3.55a.75.75,0,0,1,.6.23.74.74,0,0,1,.12.64L22,66.24a.74.74,0,0,1-.86.7l-1.47-.12a.68.68,0,0,1-.67-.89l.24-1.47H17.54l-2,4.78h2.14v0a.59.59,0,0,1,.05-.23,1.71,1.71,0,0,1,.12-.23l.69-1.08a.88.88,0,0,1,.75-.46,1.58,1.58,0,0,1,.29,0l1,.31c.37.13.55.33.55.6a1,1,0,0,1-.14.44l-.39.62h.91c.53,0,.8.24.8.72s-.27.72-.8.72H20v1.49h1.08c.53,0,.79.24.79.72s-.26.72-.79.72H20V75.1h1.08c.53,0,.79.24.79.72s-.26.72-.79.72H20V78H21.5c.53,0,.8.24.8.72s-.27.72-.8.72H15.12a.68.68,0,0,1-.74.48H12.89a.7.7,0,0,1-.79-.79V75.55h0l-1.27-.26a.74.74,0,0,1-.53-.34v2.38a.7.7,0,0,1-.79.79H8a.68.68,0,0,1-.77-.62H6.26Zm0-10.08v7.88h.92v-8H6.26Zm7.52-3.72v1.61l.69-1.61Zm1.39,6.63v1.08H17V70.68h-1.9A.76.76,0,0,1,15.17,71.09Zm0,4H17V73.61h-1.8Zm0,2.9H17V76.54h-1.8Z" class="cls-1"/><path data-cppathid="10030" transform="translate(-1.08 -1.2)" d="M33.67,79a.7.7,0,0,1-.79.79H31.39a.71.71,0,0,1-.69-.36H29a.69.69,0,0,1-.79.67H26.71a.7.7,0,0,1-.79-.79V74.18a.7.7,0,0,1,.79-.79H28.2a.74.74,0,0,1,.67.31h4a.7.7,0,0,1,.79.8Zm-.43-15.58c.53,0,.79.24.79.72s-.26.72-.79.72H26.76c-.53,0-.79-.24-.79-.72s.26-.72.79-.72ZM32.5,67c.52,0,.79.24.79.72s-.27.72-.79.72H27.05c-.53,0-.79-.24-.79-.72s.26-.72.79-.72Zm-.08,3.6c.53,0,.8.24.8.72s-.27.72-.8.72H27.14c-.52,0-.79-.24-.79-.72s.27-.72.79-.72ZM31.75,61a.73.73,0,0,1,.39.58.69.69,0,0,1-.34.53l-.31.21a.94.94,0,0,1-.58.22,1,1,0,0,1-.53-.17l-2.3-1.46a.7.7,0,0,1-.38-.56.68.68,0,0,1,.36-.55l.31-.21a.91.91,0,0,1,.57-.22,1,1,0,0,1,.53.17ZM30.6,75.14H29V78H30.6Zm6.19,3.27a.71.71,0,0,1-.86.69L35.06,79c-.54,0-.77-.33-.69-.86l.77-5.38A.71.71,0,0,1,36,72.1l.86.07a.76.76,0,0,1,.63.33v-.12a.7.7,0,0,1,.79-.79h.91a.7.7,0,0,1,.79.79V78h3v-.51c0-.33.27-.5.8-.5h.91a.7.7,0,0,1,.79.79v.86a.7.7,0,0,1-.79.8H38.28a.7.7,0,0,1-.79-.8V73.54ZM38,70.27a.74.74,0,0,1-.72.53l-.26,0-1.23-.24q-.6-.15-.6-.63a.65.65,0,0,1,0-.19l.06-.19,2-4.51-1.27-.65a.65.65,0,0,1-.43-.58.67.67,0,0,1,.26-.5l.19-.19a.84.84,0,0,1,.63-.29,1,1,0,0,1,.48.14l.86.46,1-2.21H35.76c-.53,0-.79-.24-.79-.72s.26-.72.79-.72H45.6a.68.68,0,0,1,.77.82l-.67,9.79c-.05.45-.26.67-.63.67h-.14l-.17,0L42,70.1c-.36-.12-.55-.32-.55-.57a.72.72,0,0,1,.15-.41l.09-.12q.4-.57.72-.48l.31.12.51-7.44H42v0a.9.9,0,0,1,0,.18,1.45,1.45,0,0,1-.08.21l-1.39,3.07,1.71.86a.6.6,0,0,1,.16,1.08l-.19.2a.86.86,0,0,1-.62.28.93.93,0,0,1-.48-.14l-1.3-.67Zm4.92,6a.7.7,0,0,1-.79.79h-.91a.7.7,0,0,1-.79-.79v-3.6a.7.7,0,0,1,.79-.79h.91a.7.7,0,0,1,.79.79ZM46.22,75a.86.86,0,0,1,.05.26.65.65,0,0,1-.67.7l-.82.12a.72.72,0,0,1-.93-.6l-.72-2.57a1.6,1.6,0,0,1-.05-.27c0-.41.22-.64.67-.69l.82-.12a.73.73,0,0,1,.93.6Z" class="cls-1"/><path data-cppathid="10031" transform="translate(-1.08 -1.2)" d="M62.54,79.34a.83.83,0,0,1-.72.46h-.14l-.17,0-1.13-.31c-.36-.1-.55-.29-.55-.58a.79.79,0,0,1,.1-.4,10.35,10.35,0,0,0,.62-3.1,8.21,8.21,0,0,1-3.31.65,6.56,6.56,0,0,1-2.88-.61,4.55,4.55,0,0,1-1.93-1.72,4.75,4.75,0,0,1-.69-2.57,3.55,3.55,0,0,1,.78-2.29,5.06,5.06,0,0,1,2.13-1.51,8.16,8.16,0,0,1,3.07-.54,9.74,9.74,0,0,1,1.6.12,7.23,7.23,0,0,1,1.28.33V64.56H50.18c-.52,0-.79-.24-.79-.72s.27-.72.79-.72H60.6v-2a.7.7,0,0,1,.79-.79h1.49a.7.7,0,0,1,.79.79v2H67c.53,0,.79.24.79.72s-.26.72-.79.72H63.67V71a4.36,4.36,0,0,1-.05.72c0,.25,0,.5,0,.74s0,.47,0,.7V74c0,.81,0,1.53-.09,2.13a8.8,8.8,0,0,1-.34,1.67A7.91,7.91,0,0,1,62.54,79.34Zm-7.72-8.23a4.35,4.35,0,0,0,.64,2.53,2.07,2.07,0,0,0,1.78.93,3.38,3.38,0,0,0,2.22-.71,3.19,3.19,0,0,0,1.07-2A5.43,5.43,0,0,0,59.76,69a2.45,2.45,0,0,0-2-.79A2.56,2.56,0,0,0,54.82,71.11Z" class="cls-1"/><path data-cppathid="10032" transform="translate(-1.08 -1.2)" d="M86.78,74.26a3.66,3.66,0,0,1-1.12,2.65,7.45,7.45,0,0,1-3.12,1.76A15.25,15.25,0,0,1,78,79.3,16.29,16.29,0,0,1,74.48,79a6.24,6.24,0,0,1-2.34-.92,1.72,1.72,0,0,1-.84-1.42,2.06,2.06,0,0,1,.83-1.55,6.33,6.33,0,0,1,2.15-1.14,9.13,9.13,0,0,1,2.78-.43,7.1,7.1,0,0,1,3.6.84,4.12,4.12,0,0,1,2,2.38,3.07,3.07,0,0,0,1.08-2.47,4.14,4.14,0,0,0-.56-2.16,3.94,3.94,0,0,0-1.56-1.47,4.86,4.86,0,0,0-2.29-.53,9.31,9.31,0,0,0-3,.52,11.8,11.8,0,0,0-2.88,1.45l-1.54,1.2a1.29,1.29,0,0,1-.81.36,1,1,0,0,1-.79-.43L70.1,73a.74.74,0,0,1-.24-.53.69.69,0,0,1,.32-.55A9.09,9.09,0,0,1,71.52,71l9-7.15H71.78c-.52,0-.79-.23-.79-.7s.27-.69.79-.69H84.12c.45,0,.67.13.67.41a.73.73,0,0,1-.33.55l-6.92,5.42a13.58,13.58,0,0,1,1.76-.12,9.76,9.76,0,0,1,2.89.43,8.49,8.49,0,0,1,2.39,1.19A6,6,0,0,1,86.2,72.1,4.22,4.22,0,0,1,86.78,74.26Zm-12.4,2.37a1,1,0,0,0,.3.78,2,2,0,0,0,1.06.39,17.78,17.78,0,0,0,2.21.1,13.17,13.17,0,0,0,1.85-.12,1.1,1.1,0,0,1-.07-.31c-.19-1.71-1.08-2.57-2.67-2.57a3.67,3.67,0,0,0-2,.46A1.43,1.43,0,0,0,74.38,76.63Z" class="cls-1"/><path data-cppathid="10033" transform="translate(-1.08 -1.2)" d="M94,78.31a.72.72,0,0,1-.84.75L91.63,79a.69.69,0,0,1-.72-.86l1.3-11.76H90c-.53,0-.8-.24-.8-.72s.27-.72.8-.72h2.4l.28-2.71a.72.72,0,0,1,.84-.75l1.49.08a.69.69,0,0,1,.72.86l-.29,2.52h9.87c.53,0,.79.24.79.72s-.26.72-.79.72h-10Zm12.82-.86c.52,0,.79.24.79.72s-.27.72-.79.72h-4.25a16.55,16.55,0,0,1-3.16-.27,6.15,6.15,0,0,1-2.16-.76,1.43,1.43,0,0,1-.78-1.18,2.28,2.28,0,0,1,.75-1.51A7.23,7.23,0,0,1,99,73.78a1,1,0,0,1,.46-.15.94.94,0,0,1,.64.29l.24.22a.72.72,0,0,1,.27.5.89.89,0,0,1-.34.6,3.35,3.35,0,0,0-.54.7,1.45,1.45,0,0,0-.23.74.58.58,0,0,0,.22.48,1.85,1.85,0,0,0,.88.23c.44,0,1.08.06,1.93.06ZM104,72.14a1.06,1.06,0,0,1-.63.27,1,1,0,0,1-.48-.15l-.57-.31a.62.62,0,0,1-.41-.55.72.72,0,0,1,.31-.55l1.13-1H97.73c-.53,0-.79-.24-.79-.72s.26-.72.79-.72h9.09c.45,0,.68.14.68.43a.79.79,0,0,1-.32.55Z" class="cls-1"/><path data-cppathid="10034" transform="translate(-1.08 -1.2)" d="M123.86,80.18a.32.32,0,0,1-.14,0h-.12a.75.75,0,0,1-.74-.53.94.94,0,0,1-.08-.31q0-.44.6-.63a5.35,5.35,0,0,0,2.74-2.14,6.38,6.38,0,0,0,1-3.62,8.31,8.31,0,0,0-.55-3.26,4.26,4.26,0,0,0-1.75-2q-.63,5.72-2.67,8.7a6.3,6.3,0,0,1-5.47,3,5.51,5.51,0,0,1-4.15-1.51,6,6,0,0,1-1.46-4.37q0-5.37,4.24-7.25L115,63.07a.69.69,0,0,1,.72-.86l1.49-.07a.71.71,0,0,1,.84.74l.26,2.59a17.89,17.89,0,0,1,2.11-.12c.53,0,1,0,1.51.05,0-.77.08-1.56.1-2.38a.71.71,0,0,1,.79-.81h1.49a.71.71,0,0,1,.79.81q0,1.54-.12,2.91a6.76,6.76,0,0,1,5.23,7,6.57,6.57,0,0,1-.78,3.18,7.34,7.34,0,0,1-2.2,2.49A9.88,9.88,0,0,1,123.86,80.18Zm-4.6-5.92c0,.54-.2.83-.72.86l-1.49.07a.71.71,0,0,1-.84-.74l-.63-5.93a7.49,7.49,0,0,0-1.41,5,6.65,6.65,0,0,0,.66,3.31A2.06,2.06,0,0,0,116.71,78,2.92,2.92,0,0,0,119,76.6a12,12,0,0,0,1.79-3.86,30.35,30.35,0,0,0,1-5.88c-.43,0-.89-.07-1.39-.07a10.3,10.3,0,0,0-1.94.17Z" class="cls-1"/><path data-cppathid="10035" transform="translate(-1.08 -1.2)" d="M136.87,77a.75.75,0,0,1,.66.18.83.83,0,0,1,.25.66q0,.52-.72.6l-3.21.33A.68.68,0,0,1,133,78V62.76a.7.7,0,0,1,.79-.79h1.49a.7.7,0,0,1,.79.79V77.09Zm10.83-9.77a.81.81,0,0,1-.7.41l-.16,0-.18,0-1-.31c-.36-.1-.53-.29-.53-.58a.78.78,0,0,1,.17-.48l1.24-1.78H139.8c-.53,0-.79-.24-.79-.72s.26-.72.79-.72h9.65c.45,0,.67.16.67.48A.85.85,0,0,1,150,64Zm1.82,10c.53,0,.79.24.79.72s-.26.72-.79.72H145.3a9.93,9.93,0,0,1-2.93-.41,5.67,5.67,0,0,1-2.11-1.1,2.08,2.08,0,0,1-.8-1.59,5.58,5.58,0,0,1,1.4-2.9.79.79,0,0,1,.69-.41,1.61,1.61,0,0,1,.39.07l.91.36c.32.15.48.34.48.58a1,1,0,0,1-.17.48,5.11,5.11,0,0,0-.46.94,2.7,2.7,0,0,0-.16.88,1.37,1.37,0,0,0,.63,1.26,4.17,4.17,0,0,0,2.13.4Z" class="cls-1"/><path data-cppathid="10036" transform="translate(-1.08 -1.2)" d="M159.34,79.61q-.63-.15-.63-.6a.77.77,0,0,1,.07-.29l0,0a.74.74,0,0,1,.72-.53.88.88,0,0,1,.26,0l2,.41V74.52H154.2c-.53,0-.79-.24-.79-.72s.26-.72.79-.72h7.56V73a1.34,1.34,0,0,1,.41-1l3.21-3H158.3c-.52,0-.79-.24-.79-.72s.27-.72.79-.72h10.42c.45,0,.67.15.67.45a.77.77,0,0,1-.29.53l-4.27,4v.53h8c.53,0,.8.24.8.72s-.27.72-.8.72h-8v5.33c0,.49-.21.74-.65.74l-.21,0Zm-5.62-15a.7.7,0,0,1,.79-.79h1l-.93-3.07a1,1,0,0,1,0-.14.76.76,0,0,1,0-.15c0-.38.22-.6.65-.65l1.37-.19a.74.74,0,0,1,.93.58l1,3.33s0,.1,0,.15,0,.09,0,.14a.47.47,0,0,1,0,.19h3.7l-.91-3.33a.83.83,0,0,1,0-.15.61.61,0,0,1,0-.14c0-.38.22-.6.65-.65l1.39-.17a.75.75,0,0,1,.94.63l.93,3.38a.83.83,0,0,1,0,.15.61.61,0,0,1,0,.14.59.59,0,0,1,0,.14h2.83v-.12a1.14,1.14,0,0,1,.07-.38l1.39-3.41a.77.77,0,0,1,1-.55l1.27.24q.6.12.6.6a1.14,1.14,0,0,1-.07.38L171,64h2.62c.49,0,.74.21.74.63a.53.53,0,0,1,0,.13.93.93,0,0,1,0,.13l-.72,2.88a.77.77,0,0,1-.91.65l-1.39-.17c-.45,0-.67-.27-.67-.67a1.44,1.44,0,0,1,0-.24l.48-1.9H156.79v2.09a.7.7,0,0,1-.79.79h-1.49a.7.7,0,0,1-.79-.79Z" class="cls-1"/><path data-cppathid="10037" transform="translate(-1.08 -1.2)" d="M179.16,75.55a.74.74,0,0,1-.72.53l-.26,0L177,75.82q-.6-.15-.6-.63a.43.43,0,0,1,0-.19l.06-.19,3.72-8.35h-2.62c-.53,0-.79-.24-.79-.72s.26-.72.79-.72h2.93V59.66a.7.7,0,0,1,.79-.79h1.49a.7.7,0,0,1,.79.79V65h1c.53,0,.79.24.79.72s-.26.72-.79.72h-1v2.2l1.73,1.42a.86.86,0,0,1,.29.38l3.07-4.84a.86.86,0,0,1,.74-.44,1.57,1.57,0,0,1,.32,0l1,.31c.37.13.55.32.55.58a.68.68,0,0,1-.05.22,1.34,1.34,0,0,1-.12.24l-3.29,5.16a.78.78,0,0,1-.72.4H187l-.18,0-1-.32c-.37-.12-.55-.32-.55-.57v0l0,0-.52.29a1,1,0,0,1-.51.15.88.88,0,0,1-.6-.24v8.18a.7.7,0,0,1-.79.79h-1.49a.7.7,0,0,1-.79-.79V72.62Zm14.38-12.79v.07h4c.52,0,.79.24.79.72s-.27.72-.79.72h-11c-.53,0-.79-.24-.79-.72s.26-.72.79-.72h4V59.59a.7.7,0,0,1,.8-.79h1.48a.7.7,0,0,1,.8.79Zm-4.76,16.78a.87.87,0,0,1-.64.31,1.25,1.25,0,0,1-.46-.12l-.7-.31c-.32-.15-.48-.34-.48-.58a.91.91,0,0,1,.27-.53l3-3.07-2.11-2.14a.88.88,0,0,1-.27-.55c0-.22.15-.41.46-.55l.67-.31a1.25,1.25,0,0,1,.46-.12.84.84,0,0,1,.64.31l1.73,1.73,1.78-1.83a.89.89,0,0,1,.65-.31,1.25,1.25,0,0,1,.45.12l.7.31c.32.15.48.34.48.58a.91.91,0,0,1-.27.53L193,75.24l3,3.07a.94.94,0,0,1,.26.55c0,.23-.15.41-.45.56l-.68.31a1.25,1.25,0,0,1-.45.12.89.89,0,0,1-.65-.31l-2.66-2.67Zm9.32-8.84a.92.92,0,0,1,.19.48c0,.28-.18.48-.53.6l-1,.34a.86.86,0,0,1-.36.07.84.84,0,0,1-.7-.41L192,66.62a.82.82,0,0,1-.2-.48c0-.27.18-.47.53-.6l1-.33a1,1,0,0,1,.36-.07.84.84,0,0,1,.7.4Z" class="cls-1"/><path data-cppathid="10038" transform="translate(-1.08 -1.2)" d="M204.58,77a.75.75,0,0,1,.66.18.87.87,0,0,1,.25.66q0,.52-.72.6l-3.22.33a.68.68,0,0,1-.84-.77V62.76a.7.7,0,0,1,.79-.79H203a.7.7,0,0,1,.79.79V77.09Zm10.82-9.77a.81.81,0,0,1-.7.41l-.15,0a1.13,1.13,0,0,1-.18,0l-1-.31c-.35-.1-.53-.29-.53-.58a.85.85,0,0,1,.17-.48l1.25-1.78H207.5c-.52,0-.79-.24-.79-.72s.27-.72.79-.72h9.65c.45,0,.67.16.67.48a.84.84,0,0,1-.16.48Zm1.82,10c.53,0,.8.24.8.72s-.27.72-.8.72H213a10,10,0,0,1-2.93-.41,5.75,5.75,0,0,1-2.11-1.1,2.07,2.07,0,0,1-.79-1.59,5.54,5.54,0,0,1,1.39-2.9.81.81,0,0,1,.7-.41,1.47,1.47,0,0,1,.38.07l.91.36c.32.15.48.34.48.58a.87.87,0,0,1-.17.48,4.5,4.5,0,0,0-.45.94,2.73,2.73,0,0,0-.17.88,1.36,1.36,0,0,0,.64,1.26,4.12,4.12,0,0,0,2.12.4Z" class="cls-1"/><path data-cppathid="10039" transform="translate(-1.08 -1.2)" d="M222.72,72.86a.92.92,0,0,1-.58.27.69.69,0,0,1-.24,0l-.26-.12-.53-.29a.73.73,0,0,1-.41-.57.69.69,0,0,1,.29-.53l7-5.95a.92.92,0,0,1,.58-.27.69.69,0,0,1,.24.05l.26.12.53.29a.73.73,0,0,1,.41.57.73.73,0,0,1-.29.53l-2.31,2a.8.8,0,0,1,.15.5V79.66a.7.7,0,0,1-.79.79h-1.49a.7.7,0,0,1-.79-.79V71.35Zm.67-6.5a.86.86,0,0,1-.65.31,1,1,0,0,1-.43-.09l-.74-.34c-.32-.14-.48-.34-.48-.58a.71.71,0,0,1,.24-.5l5.57-5.93a.84.84,0,0,1,.64-.31.92.92,0,0,1,.44.1l.74.33c.32.15.48.34.48.58a.71.71,0,0,1-.24.5Zm11,13.18c-.54-.05-.76-.32-.67-.82a.78.78,0,0,1,.91-.65l1.92.22V68H232c-.52,0-.79-.24-.79-.72s.27-.72.79-.72h8.84c.52,0,.79.24.79.72s-.27.72-.79.72h-1.2v11.2a.68.68,0,0,1-.84.77Zm5.86-19.76c.53,0,.79.24.79.72s-.26.72-.79.72h-7.66c-.52,0-.79-.24-.79-.72s.27-.72.79-.72Z" class="cls-1"/><path data-cppathid="10040" transform="translate(-1.08 -1.2)" d="M247.75,79.15a.75.75,0,0,1-1,.55l-1.27-.24q-.6-.12-.6-.6a1.14,1.14,0,0,1,.07-.38l4.85-11.78h-4.25c-.53,0-.79-.24-.79-.72s.26-.72.79-.72h4.83l1.17-2.86a.77.77,0,0,1,1-.55l1.27.24q.6.12.6.6a1.14,1.14,0,0,1-.07.38l-.89,2.19h0a5.31,5.31,0,0,1,3.72,1.14,4.57,4.57,0,0,1,1.22,3.49,16.6,16.6,0,0,1-.3,3.37,11,11,0,0,1-.8,2.47,13.27,13.27,0,0,1-1.07,1.85c-.38.54-.75,1-1.12,1.52a.79.79,0,0,1-.67.41,1,1,0,0,1-.36-.07l-1-.31c-.35-.1-.53-.29-.53-.58a.82.82,0,0,1,.17-.45c.38-.52.77-1.1,1.17-1.77a9.72,9.72,0,0,0,1-2.53,15.66,15.66,0,0,0,.41-3.91A5.43,5.43,0,0,0,255,67.4a1.54,1.54,0,0,0-1.46-.7h-.63Zm16.73-5.06a1.5,1.5,0,0,1,0,.31c0,.37-.22.58-.65.62l-1.37.2a.77.77,0,0,1-.93-.58l-3.22-10.46a1.57,1.57,0,0,1-.05-.32c0-.36.22-.57.65-.62l1.37-.19h.11l.08,0a.72.72,0,0,1,.74.6Z" class="cls-1"/><path data-cppathid="10041" transform="translate(-1.08 -1.2)" d="M270.72,73.42a.75.75,0,0,1-.94.62l-1.39-.17c-.45-.05-.67-.27-.67-.67a.86.86,0,0,1,0-.26l1.8-6.6h-1.49c-.53,0-.79-.24-.79-.72s.26-.72.79-.72H270l.94-3.41a.74.74,0,0,1,.93-.63l1.39.17c.45,0,.68.27.68.67a1.6,1.6,0,0,1-.05.27l-.79,2.93h2.06c.53,0,.79.24.79.72s-.26.72-.79.72h-2.47Zm13.39,2.3a.74.74,0,0,1,.27.5c0,.26-.17.45-.51.58l-.79.31a.94.94,0,0,1-.39.07,1,1,0,0,1-.69-.33,12.75,12.75,0,0,0-1.56-1.37v.29a3.46,3.46,0,0,1-1.25,2.85,5.27,5.27,0,0,1-3.43,1,6.76,6.76,0,0,1-2.67-.51,4.85,4.85,0,0,1-1.92-1.43,3.31,3.31,0,0,1-.72-2.11,2.68,2.68,0,0,1,.7-1.82,4.54,4.54,0,0,1,1.93-1.21,8.82,8.82,0,0,1,4.29-.29V67.94a.7.7,0,0,1,.79-.79h1.49a.7.7,0,0,1,.79.79V73.3a14.77,14.77,0,0,1,2.07,1.2A15.34,15.34,0,0,1,284.11,75.72Zm-10.58-.14a3.83,3.83,0,0,0,.19,1.18,2.1,2.1,0,0,0,.68,1,2,2,0,0,0,1.36.41,1.38,1.38,0,0,0,1.22-.53,3.32,3.32,0,0,0,.39-1.89v-2a5.07,5.07,0,0,0-1.47-.26,2.84,2.84,0,0,0-1.85.46A2,2,0,0,0,273.53,75.58Zm11.64-7.76a.92.92,0,0,1,.19.48c0,.28-.18.48-.53.6l-1,.34a.86.86,0,0,1-.36.07.84.84,0,0,1-.7-.41l-3.4-4.72a.87.87,0,0,1-.2-.48c0-.28.18-.48.53-.6l1-.34a1,1,0,0,1,.36-.07.83.83,0,0,1,.7.41Z" class="cls-1"/><path data-cppathid="10042" transform="translate(-1.08 -1.2)" d="M300.69,78a.67.67,0,0,1,.36.55.71.71,0,0,1-.36.55l-.38.27a.78.78,0,0,1-.55.19.9.9,0,0,1-.55-.19l-10-6.89a.72.72,0,0,1-.36-.55.82.82,0,0,1,.32-.58l10.36-9a.86.86,0,0,1,1.11-.12l.57.31a.72.72,0,0,1,.41.58.7.7,0,0,1-.29.52l-9.5,8.24Z" class="cls-1"/><path data-cppathid="10043" transform="translate(-1.08 -1.2)" d="M318.84,78c.51,0,.77.28.77.74s-.28.73-.82.7a17,17,0,0,1-3.78-.6,11.32,11.32,0,0,1-3-1.37,6.91,6.91,0,0,1-2-2,4.46,4.46,0,0,1-.74-2.46,7.75,7.75,0,0,1,1.6-4.71,12.5,12.5,0,0,1,4.43-3.61l-10.08.72a.72.72,0,0,1-.87-.82c0-.37.24-.58.72-.62l15.1-1.08a.83.83,0,0,1,.94.62,1.35,1.35,0,0,1,0,.26c0,.32-.21.55-.64.68a13.53,13.53,0,0,0-4.37,1.89,9.14,9.14,0,0,0-2.81,3,7.29,7.29,0,0,0-1,3.72,4.22,4.22,0,0,0,.58,2.3,4.87,4.87,0,0,0,1.56,1.5,8,8,0,0,0,2.13.85A14.16,14.16,0,0,0,318.84,78Z" class="cls-1"/><path data-cppathid="10044" transform="translate(-1.08 -1.2)" d="M14.54,108.14a.83.83,0,0,1-.72.46h-.14l-.17,0-1.13-.31c-.36-.1-.55-.29-.55-.58a.79.79,0,0,1,.1-.4,10.35,10.35,0,0,0,.62-3.1,8.21,8.21,0,0,1-3.31.65,6.56,6.56,0,0,1-2.88-.61,4.55,4.55,0,0,1-1.93-1.72,4.73,4.73,0,0,1-.69-2.57,3.55,3.55,0,0,1,.78-2.29,5.06,5.06,0,0,1,2.13-1.51,8.16,8.16,0,0,1,3.07-.54,9.74,9.74,0,0,1,1.6.12A7.23,7.23,0,0,1,12.6,96V93.36H2.18c-.52,0-.79-.24-.79-.72s.27-.72.79-.72H12.6v-2a.7.7,0,0,1,.79-.79h1.49a.7.7,0,0,1,.79.79v2H19c.53,0,.79.24.79.72s-.26.72-.79.72H15.67v6.46a4.36,4.36,0,0,1-.05.72c0,.25,0,.5,0,.74s0,.47,0,.7v.79c0,.81,0,1.53-.09,2.13a8.8,8.8,0,0,1-.34,1.67A7.91,7.91,0,0,1,14.54,108.14ZM6.82,99.91a4.35,4.35,0,0,0,.64,2.53,2.07,2.07,0,0,0,1.78.93,3.38,3.38,0,0,0,2.22-.71,3.19,3.19,0,0,0,1.07-2,5.43,5.43,0,0,0-.77-2.86,2.45,2.45,0,0,0-2-.79A2.56,2.56,0,0,0,6.82,99.91Z" class="cls-1"/><path data-cppathid="10045" transform="translate(-1.08 -1.2)" d="M34.51,108.38a.84.84,0,0,1-.62.32,1.3,1.3,0,0,1-.46-.12l-.72-.36a.65.65,0,0,1-.43-.58.76.76,0,0,1,.22-.5,11.1,11.1,0,0,0,1.9-3.26,18.41,18.41,0,0,0,1.05-4.5,3.7,3.7,0,0,0-1.25-.3c-.45,0-1,0-1.75,0h-.07a14.69,14.69,0,0,1-1.76,6.24,4.39,4.39,0,0,1-4,2.06,4.1,4.1,0,0,1-2.3-.65,4.51,4.51,0,0,1-1.6-1.75,5.13,5.13,0,0,1-.59-2.45,3.63,3.63,0,0,1,1.91-3.15,12.59,12.59,0,0,1,5.32-1.6q.09-1.2.15-2.58t.09-2.91h-4.9c-.53,0-.79-.24-.79-.72s.26-.72.79-.72H31.9a.71.71,0,0,1,.79.81c0,1.12,0,2.18,0,3.17s-.07,1.93-.13,2.81c.62,0,1.19,0,1.69,0a12.53,12.53,0,0,1,1.38.16c.07-.86.11-1.8.12-2.8a.71.71,0,0,1,.79-.82H38c.53,0,.79.41.79,1.22,0,1.38-.1,2.6-.21,3.68q.41.29.84.63c.29.23.59.5.91.81a.81.81,0,0,1,.29.55.65.65,0,0,1-.43.55l-.65.31a1,1,0,0,1-.46.12.87.87,0,0,1-.65-.31,2.72,2.72,0,0,1-.24-.24,13.76,13.76,0,0,1-1.34,3.76A14.38,14.38,0,0,1,34.51,108.38Zm-9.29-5.88a5,5,0,0,0,.26,1.56,5.44,5.44,0,0,0,.58,1.32c.23.36.42.53.58.53.56,0,1.07-.56,1.52-1.69a19.86,19.86,0,0,0,1.07-5,6,6,0,0,0-3.07,1.08A2.73,2.73,0,0,0,25.22,102.5Z" class="cls-1"/><path data-cppathid="10046" transform="translate(-1.08 -1.2)" d="M61.54,102.29c.35.13.52.31.52.55a.69.69,0,0,1-.24.46l-.16.16a1,1,0,0,1-.68.32.72.72,0,0,1-.19,0l-.21-.06a16.26,16.26,0,0,0-1.66-.54c-.62-.17-1.28-.31-2-.44v1.7a3.39,3.39,0,0,1-1.57,3,7.67,7.67,0,0,1-4.31,1.05,10,10,0,0,1-3.42-.55,6,6,0,0,1-2.41-1.51,3.11,3.11,0,0,1-.89-2.16,2.52,2.52,0,0,1,.87-1.91,5.82,5.82,0,0,1,2.41-1.25,13.36,13.36,0,0,1,3.61-.44l1.28,0c.44,0,.9.06,1.36.11v-2.3h-8.4c-.53,0-.79-.24-.79-.72S45,97,45.48,97h8.4V94.37h-8.4c-.53,0-.79-.24-.79-.72s.26-.72.79-.72h8.4V91a.7.7,0,0,1,.79-.79h1.49A.7.7,0,0,1,57,91v2h3.84c.53,0,.79.24.79.72s-.26.72-.79.72H57V97h3.84c.53,0,.79.24.79.72s-.26.72-.79.72H57v2.73c.9.16,1.75.34,2.55.53S61,102.1,61.54,102.29Zm-14.12,1.92q0,2.78,3.65,2.78a3.31,3.31,0,0,0,2.2-.56,2.69,2.69,0,0,0,.61-2v-2.18a21.77,21.77,0,0,0-2.64-.17,8.77,8.77,0,0,0-2.45.26,1.86,1.86,0,0,0-1.09.75A2.3,2.3,0,0,0,47.42,104.21Z" class="cls-1"/><path data-cppathid="10047" transform="translate(-1.08 -1.2)" d="M78.29,108.14a.83.83,0,0,1-.72.46h-.15l-.16,0-1.13-.31c-.37-.1-.55-.29-.55-.58a.9.9,0,0,1,.09-.4,10,10,0,0,0,.63-3.1,8.3,8.3,0,0,1-3.32.65,6.62,6.62,0,0,1-2.88-.61,4.61,4.61,0,0,1-1.93-1.72,4.81,4.81,0,0,1-.68-2.57,3.55,3.55,0,0,1,.78-2.29,5.09,5.09,0,0,1,2.12-1.51,8.2,8.2,0,0,1,3.07-.54,9.57,9.57,0,0,1,1.6.12,7.23,7.23,0,0,1,1.28.33V93.36H65.93c-.53,0-.79-.24-.79-.72s.26-.72.79-.72H76.34v-2a.7.7,0,0,1,.8-.79h1.48a.7.7,0,0,1,.8.79v2H82.7c.53,0,.8.24.8.72s-.27.72-.8.72H79.42v6.46a5.81,5.81,0,0,1,0,.72c0,.25,0,.5,0,.74s0,.47,0,.7v.79c0,.81,0,1.53-.1,2.13a8.08,8.08,0,0,1-.34,1.67A8.45,8.45,0,0,1,78.29,108.14Zm-7.73-8.23a4.34,4.34,0,0,0,.65,2.53,2,2,0,0,0,1.77.93,3.34,3.34,0,0,0,2.22-.71,3.14,3.14,0,0,0,1.07-2,5.34,5.34,0,0,0-.77-2.86,2.42,2.42,0,0,0-2-.79A2.57,2.57,0,0,0,70.56,99.91Z" class="cls-1"/><path data-cppathid="10048" transform="translate(-1.08 -1.2)" d="M90.46,108.31a5.15,5.15,0,0,1-2.22-.48,4.21,4.21,0,0,1-1.64-1.32,3.15,3.15,0,0,1-.61-1.87,3.09,3.09,0,0,1,.61-1.86,4.28,4.28,0,0,1,1.64-1.31,5.15,5.15,0,0,1,2.22-.48,5,5,0,0,1,2.2.48,4.14,4.14,0,0,1,1.62,1.31,3.1,3.1,0,0,1,0,3.72,4.25,4.25,0,0,1-1.62,1.32A4.9,4.9,0,0,1,90.46,108.31Zm0-1.2a2,2,0,0,0,1.5-.72,2.56,2.56,0,0,0,.63-1.75A2.52,2.52,0,0,0,92,102.9a2,2,0,0,0-3,0,2.51,2.51,0,0,0-.63,1.75,2.56,2.56,0,0,0,.63,1.75A2,2,0,0,0,90.46,107.11Z" class="cls-1"/></g></g></g></g></svg>