<?xml version="1.0" encoding="UTF-8"?>
<svg xmlns="http://www.w3.org/2000/svg" onmouseup="{ if(window.parent.document.onmouseup) window.parent.document.onmouseup(arguments[0]);}" viewBox="0 0 85.17 61.2"><defs><style>.cls-1{fill:#1b75bb;}</style></defs><g data-name="Layer 2" id="Layer_2"><g id="User"><path data-cppathid="10000" transform="translate(-1.82 -0.08)" d="M20.66,18.72c.53,0,.8.24.8.72s-.27.72-.8.72h-18c-.53,0-.8-.24-.8-.72s.27-.72.8-.72H14.11a1.68,1.68,0,0,1,0-.29L16,8H4.75C4.22,8,4,7.78,4,7.3s.26-.72.79-.72H18.46a.75.75,0,0,1,.6.22.82.82,0,0,1,.12.64l-2,11.28Z" class="cls-1"/><path data-cppathid="10001" transform="translate(-1.82 -0.08)" d="M41.28,12c.53,0,.79.24.79.72s-.26.72-.79.72H25.1c-.52,0-.79-.24-.79-.72s.27-.72.79-.72Z" class="cls-1"/><path data-cppathid="10002" transform="translate(-1.82 -0.08)" d="M51.89,15.82a.7.7,0,0,1-.79.79H49.61a.7.7,0,0,1-.79-.79V8.66H45.5c-.52,0-.79-.24-.79-.72s.27-.72.79-.72h3.32V4.44a.7.7,0,0,1,.79-.79H51.1a.7.7,0,0,1,.79.79V7.22h6c0-.44,0-.9,0-1.38s0-1,0-1.5.27-.84.8-.84h1.48c.53,0,.8.4.8,1.2V6c0,.43,0,.83,0,1.21H64.7c.53,0,.8.24.8.72s-.27.72-.8.72H60.89q-.07,2.19-.27,3.78a13.15,13.15,0,0,1-.6,2.82,9.33,9.33,0,0,1-1.09,2.27,13.62,13.62,0,0,1-1.7,2.1c-.68.71-1.51,1.49-2.49,2.35a.84.84,0,0,1-.62.29,1.11,1.11,0,0,1-.48-.14l-.55-.29c-.29-.18-.43-.37-.43-.58a.77.77,0,0,1,.28-.52c.74-.69,1.38-1.33,1.91-1.92A10.62,10.62,0,0,0,56.2,17a9.17,9.17,0,0,0,.87-2.09,15.73,15.73,0,0,0,.51-2.66c.11-1,.19-2.2.24-3.58H51.89Zm12.55-10a1.18,1.18,0,0,1,0,.22q0,.51-.57.57l-.61.08a.63.63,0,0,1-.8-.53l-1.1-4.26a1.18,1.18,0,0,1,0-.22q0-.51.57-.57l.61-.08a.64.64,0,0,1,.82.53ZM66.75,4.6a1.27,1.27,0,0,1,0,.22c0,.32-.18.51-.55.57l-.61.1A.64.64,0,0,1,64.79,5L63.72,1l0-.12a.53.53,0,0,1,0-.13c0-.29.19-.48.57-.54l.61-.11a.65.65,0,0,1,.82.53Z" class="cls-1"/><path data-cppathid="10003" transform="translate(-1.82 -0.08)" d="M86.21,12c.53,0,.79.24.79.72s-.26.72-.79.72H70c-.53,0-.79-.24-.79-.72S69.5,12,70,12Z" class="cls-1"/><path data-cppathid="10004" transform="translate(-1.82 -0.08)" d="M35.46,54.46c-.08-.54-.17-1-.2-1.42-.11-1.29-.23-2.58-.27-3.88-.09-3-.27-6-.14-9,.16-3.67.38-7.34.87-11,.09-.66.1-1.33.18-2a3.34,3.34,0,0,1,.24-1,1,1,0,0,1,1-.66,1,1,0,0,1,1,.65,2.9,2.9,0,0,1,.21.78,16.55,16.55,0,0,1,0,4,112.82,112.82,0,0,0-.54,16.13q.15,2.77.33,5.55a.93.93,0,0,0,.18.52l.17-.48a4.46,4.46,0,0,1,.32-.74,1.44,1.44,0,0,1,2.67.54,2.81,2.81,0,0,1,0,1A13.61,13.61,0,0,1,41,55a30.7,30.7,0,0,0-1.16,4.43,3.32,3.32,0,0,1-.25.83,1.64,1.64,0,0,1-2.34.81,3.1,3.1,0,0,1-.81-.63c-.69-.75-1.36-1.53-2-2.32-.52-.6-1-1.21-1.52-1.82a4.39,4.39,0,0,1-.47-.66,1.49,1.49,0,0,1,2.19-1.92c.17.12.32.28.49.42Z" class="cls-1"/></g></g></svg>