<?xml version="1.0" encoding="UTF-8"?>
<svg xmlns="http://www.w3.org/2000/svg" onmouseup="{ if(window.parent.document.onmouseup) window.parent.document.onmouseup(arguments[0]);}" viewBox="0 0 194.86 433.21" xmlns:xlink="http://www.w3.org/1999/xlink"><defs><style>.cls-1{fill:none;}.cls-2{clip-path:url(#clip-path);}.cls-3{fill:#fcc488;}.cls-12,.cls-4{fill:#fff;}.cls-4{stroke:#afafb0;stroke-width:2px;}.cls-5{fill:#d7d7d7;}.cls-6{fill:#a27c52;}.cls-7{fill:#6ab8e6;}.cls-8{fill:#eca160;}.cls-16,.cls-9{fill:#272361;stroke:#272361;}.cls-9{stroke-width:0.25px;}.cls-10{fill:#c8c8c8;stroke:#c8c8c8;stroke-width:0.26px;}.cls-11,.cls-13{stroke:#000;}.cls-11{stroke-width:0.64px;}.cls-13{stroke-width:0.84px;}.cls-14{fill:#a16c29;}.cls-15{fill:#f6ac3c;}.cls-16{stroke-width:0.23px;}.cls-17{fill:#efeeee;opacity:0.4;}.cls-18{fill:gray;}</style><clipPath transform="translate(5.76 -21.69)" id="clip-path"><rect data-cppathid="10000" height="333.57" width="196.06" class="cls-1"/></clipPath></defs><g data-name="Layer 2" id="Layer_2"><g data-name="Tim Tester" id="Tim_Tester"><g class="cls-2"><path data-cppathid="10001" transform="translate(5.76 -21.69)" d="M37.68,290.22s1.62-2.17,3.92-5.59l0,0,.13-.11c.36-.55.75-1.12,1.14-1.73a9.65,9.65,0,0,1,4.2-3.39,153.38,153.38,0,0,0,22.08-29.81c3.15-5.47,2.72-46.82,6.76-54.26s11.51,3.64,11.51,3.64.11,50.77-9.5,62.93C72.32,268.91,63,277.8,56.1,284a14.78,14.78,0,0,1-1.73,2.91c-2,2.66-3.51,4.65-4,5.58-2.55,4.68-3.84,21.09-5.39,21.23s-2.5-8.16-2.5-8.16-4.6,9.3-5,7.86,2.18-10.57,2.18-10.57-5.11,9.35-6.83,6.55,5.24-13.29,5.24-13.29a12.63,12.63,0,0,1-9.33.83C23.15,295.5,37.68,290.22,37.68,290.22Z" class="cls-3"/><path data-cppathid="10002" transform="translate(5.76 -21.69)" d="M82.14,190.26c4.5,2.79,6.15,6.45,6.65,12.29s-3.39,44.85-4.62,50.19S57,291.37,54.56,292.89c-10.49,4-17.18-6.7-17.18-6.7s25.25-34,30.18-37.46c1.68-3,2.38-49,6.44-54.39S82.14,190.26,82.14,190.26Z" class="cls-4"/><path data-cppathid="10003" transform="translate(5.76 -21.69)" d="M189.1,442.42c-.2,8.09-44,13.59-97.79,12.29S-6,445.79-5.76,437.7s44-13.58,97.78-12.28S189.29,434.34,189.1,442.42Z" class="cls-5"/><path data-cppathid="10004" transform="translate(5.76 -21.69)" d="M64.21,295.27s-.51,5.72-.69,8.62c-3.54,56,10.6,116.91,10.6,116.91s-12.7,8.31-15,12.58S89,432,89,432s-4.6-77.89-2-95.1,8.59,90.42,12.75,97,28,7.11,28,7.11-8.87-10.63-12-16.11-4.85-77-4.29-117.65c0-1.11.06-3.24.06-3.24Z" class="cls-6"/><path data-cppathid="10005" transform="translate(5.76 -21.69)" d="M94,181.5S69.33,233.88,63.51,292.06c-.36,3.56-.83,10.75-.83,10.75l48,6.2s0-2.92.07-4.32c1-39.94.63-85.31.63-85.31s-2.15-47.58-6.62-45.53S94,181.5,94,181.5Z" class="cls-7"/><polygon data-cppathid="10006" points="111.61 152.44 112.23 157.4 102.79 164.4 99.54 156.8 111.61 152.44" class="cls-8"/><path data-cppathid="10007" transform="translate(5.76 -21.69)" d="M.74,273.32l-.37,0-.37,0,.37,0Z" class="cls-3"/><polygon data-cppathid="10008" points="97.95 175.79 95.92 199.74 89.21 215.73 85.66 204.44 95.93 174.9 97.95 175.79" class="cls-9"/><path data-cppathid="10009" transform="translate(5.76 -21.69)" d="M84.16,231.57S69.32,333.57,71.54,344c0,0-18.45-3.9-19.42-4.92s17.39-115.3,26.1-127.94C81.4,223.09,84.16,231.57,84.16,231.57Z" class="cls-4"/><path data-cppathid="10010" transform="translate(5.76 -21.69)" d="M83.66,231.55s-15.14,73.82-8.7,114c0,0,34.77,4.3,57.94-3.29,0,0-17.71-65-18-82.78s-7-77.94-9.43-70C102.23,200.23,83.66,231.55,83.66,231.55Z" class="cls-4"/><path data-cppathid="10011" transform="translate(5.76 -21.69)" d="M95.91,179S78.46,208.3,83.6,232.05c0,0-7.82-16.87-3-29.43,0,0-2.84-2.17-5.37-1.34s16-25.71,19.51-25.48S95.91,179,95.91,179Z" class="cls-10"/><path data-cppathid="10012" transform="translate(5.76 -21.69)" d="M98.48,186.39l-6.2,11.19s-1.27.14-1.75-.6-.55-.48-.55-.48.89-11.58,2.91-12.45C92.89,184.05,95.48,186.5,98.48,186.39Z" class="cls-9"/><path data-cppathid="10013" transform="translate(5.76 -21.69)" d="M80.18,160.85s0-.1-1-2.58c-.14-.34-5.13-12.85-5.13-12.85s6.39-6.6,22.57-3.67c-10.59-5.17-27.83-8.86-27.9-9.26-3.08-17.74-5.15-53.27,2.92-67.74,18.92-33.92,75.72-63.3,91.08-24.93s-3.34,63.25-16.57,86.45-38,53.2-49,54.3C87.52,181.54,80.18,160.85,80.18,160.85Z" class="cls-3"/><path data-cppathid="10014" transform="translate(5.76 -21.69)" d="M91.53,69.71c-.1,4-2.08,7.18-4.43,7.13S82.93,73.5,83,69.51s2.08-7.18,4.42-7.12S91.63,65.73,91.53,69.71Z" class="cls-11"/><path data-cppathid="10015" transform="translate(5.76 -21.69)" d="M91.91,70.78a2.13,2.13,0,1,1-2.08-2.18A2.12,2.12,0,0,1,91.91,70.78Z" class="cls-12"/><path data-cppathid="10016" transform="translate(5.76 -21.69)" d="M108.63,74.35c-.62,4.23-3.14,7.36-5.62,7s-4-4.07-3.4-8.31,3.14-7.36,5.62-7S109.24,70.12,108.63,74.35Z" class="cls-13"/><path data-cppathid="10017" transform="translate(5.76 -21.69)" d="M108.31,75.56A2.76,2.76,0,1,1,106,72.43,2.76,2.76,0,0,1,108.31,75.56Z" class="cls-12"/><path data-cppathid="10018" transform="translate(5.76 -21.69)" d="M165.89,44.53s-9.91,19.75-11,28.24l-1.06,8.5s5.19-3.28,7.77-4.07l2.57-.79s-2.07,15.3-3,18.68a6.16,6.16,0,0,0,.86,5.48s11.87-20.25,12.28-37.29S165.89,44.53,165.89,44.53Z" class="cls-14"/><path data-cppathid="10019" transform="translate(5.76 -21.69)" d="M112.44,299l0,0,.07-.16c.09-.69.18-1.41.27-2.17a10.05,10.05,0,0,1,2.37-5.16A161.69,161.69,0,0,0,121.9,253c.39-6.64-19.41-45.38-19.09-54.28s12.55-2,12.55-2,23.92,47.76,20.58,63.71c-1.94,9.26-6.58,22-10.12,31.11a15.09,15.09,0,0,1-.27,3.55c-.63,3.45-1.12,6-1.16,7.15-.22,5.6,6.28,21.66,4.89,22.52s-6.19-6.51-6.19-6.51,0,10.92-1,9.73-2.9-11-2.9-11-.42,11.21-3.37,9.38-1.3-15-1.3-15-2.4,3.9-8.39,5.17,5.22-10.54,5.22-10.54S111.89,303.28,112.44,299Z" class="cls-3"/><path data-cppathid="10020" transform="translate(5.76 -21.69)" d="M103.7,236.23c0,.2-.27.34-.55.3h0c-.28,0-.49-.22-.47-.42l.9-7.65c0-.2.27-.33.55-.3h0c.28,0,.5.22.47.42Z" class="cls-15"/><polygon data-cppathid="10021" points="113.1 212.41 96.33 210.52 94.69 216.92 112.43 219.82 113.1 212.41" class="cls-10"/><path data-cppathid="10022" transform="translate(5.76 -21.69)" d="M101.1,250.56a1.2,1.2,0,0,1-1.41.89h0a1.2,1.2,0,0,1-1.17-1.19l2.55-21.82a1.19,1.19,0,0,1,1.41-.88h0a1.19,1.19,0,0,1,1.17,1.18Z" class="cls-16"/><path data-cppathid="10023" transform="translate(5.76 -21.69)" d="M103.22,233.91a3.61,3.61,0,0,1-2.92-.35l-.1.51a3.72,3.72,0,0,0,3,.4Z" class="cls-15"/><path data-cppathid="10024" transform="translate(5.76 -21.69)" d="M106.33,191.08c5.56.5,8.83,3.18,12,8.45s17.85,43.83,19.2,49.43-7.5,49.15-9,51.71c-8,8.7-19.33,1.75-19.33,1.75S117,258.56,120,253c.18-3.62-20.74-47.24-19.45-54.25S106.33,191.08,106.33,191.08Z" class="cls-4"/><path data-cppathid="10025" transform="translate(5.76 -21.69)" d="M108.78,174.8l2.52,33.81-9.62-1-18,24.42S103.9,192.11,108.78,174.8Z" class="cls-10"/><path data-cppathid="10026" transform="translate(5.76 -21.69)" d="M128,77.52c-2.81,9.25-8.41,14.4-16.64,15.31h0a30.08,30.08,0,0,1-9.25-.54c-5.07-1-7-5-9.12-10.42-1.5-3.83-3.21-8.17-7.75-8.17a5.39,5.39,0,0,0-.69,0c-3,.34-5.7,2.83-8.53,5.46-2.32,2.16-5.2,4.86-7.25,5.08a2.21,2.21,0,0,1-1.9-.76C65.78,79.62,70.05,63,75.42,60.42a13.08,13.08,0,0,1,4.21-1c15.14-1.67,47.51,7.11,50.25,8.43C129.88,67.84,128.08,77.17,128,77.52Z" class="cls-17"/><path data-cppathid="10027" transform="translate(5.76 -21.69)" d="M64.08,85.72c7.62,7.7,15.83-8.52,21.13-8.52s3.84,16.07,16.18,18.53c24.86,5,29.44-15.91,30.12-17.75S163,91.81,163,91.81s-2.18,9,0,9.62,8.62-14.06,6.32-16.17-37.78-20.53-37.78-20.53c-3.13-1.71-46-13.15-57.64-7.47C66.06,61.07,61.18,82.81,64.08,85.72Zm11.34-25.3a13.08,13.08,0,0,1,4.21-1c15.14-1.67,47.51,7.11,50.25,8.43,0,0-1.8,9.33-1.91,9.68-2.81,9.25-8.41,14.4-16.64,15.31h0a30.08,30.08,0,0,1-9.25-.54c-5.07-1-7-5-9.12-10.42-1.5-3.83-3.21-8.17-7.75-8.17a5.39,5.39,0,0,0-.69,0c-3,.34-5.7,2.83-8.53,5.46-2.32,2.16-5.2,4.86-7.25,5.08a2.21,2.21,0,0,1-1.9-.76C65.78,79.62,70.05,63,75.42,60.42Z" class="cls-18"/></g></g></g></svg>