<?xml version="1.0" encoding="UTF-8"?>
<svg xmlns="http://www.w3.org/2000/svg" onmouseup="{ if(window.parent.document.onmouseup) window.parent.document.onmouseup(arguments[0]);}" viewBox="0 0 267.21 618.73" xmlns:xlink="http://www.w3.org/1999/xlink"><defs><style>.cls-1,.cls-8{fill:none;}.cls-2{clip-path:url(#clip-path);}.cls-3{fill:#fcc488;}.cls-10,.cls-4,.cls-8,.cls-9{stroke:#000;}.cls-4{stroke-width:2.52px;}.cls-5{fill:#ccebf6;}.cls-6{fill:#332518;}.cls-7{fill:#55c9ef;}.cls-8{stroke-width:2px;}.cls-9{stroke-width:1.91px;}.cls-10{stroke-width:0.63px;}.cls-11{fill:#fff;}</style><clipPath transform="translate(-19.6 -8.94)" id="clip-path"><rect data-cppathid="10000" height="438" width="290" class="cls-1"/></clipPath></defs><g data-name="Layer 2" id="Layer_2"><g id="ProductOwner"><g class="cls-2"><path data-cppathid="10001" transform="translate(-19.6 -8.94)" d="M246.16,282.28c5.09-5.55,8.39-9.61,8.39-9.61s3.22-20.17,6.52-13.89-1,16-1,16,14.12-17.32,18.17-16.41-6.78,11.27-6.78,11.27,11.17-7.1,13.12-7.29-8.93,9.51-8.93,9.51,11-2.45,11.18-.49-20.72,10.72-26.14,15.91c-1.09,1-3.28,3.75-6.24,7.38C242.62,309.09,238.73,290.39,246.16,282.28Z" class="cls-3"/><path data-cppathid="10002" transform="translate(-19.6 -8.94)" d="M139.83,279.84s-5.77-12.38,2.87-20.61,58.62,61.42,65.69,56c35.66-27.2,39.26-33.07,39.26-33.07l14.63,7s-29.56,26.84-42.89,43.94S139.83,279.84,139.83,279.84Z" class="cls-4"/><path data-cppathid="10003" transform="translate(-19.6 -8.94)" d="M127.41,241s46.36,60.23,52.87,148.08c.39,5.35,0,26.59,0,26.59l-77.82,15.66s.06-4.4.06-6.5c0-60.19,2.12-128.51,2.12-128.51S109.53,224.75,116,228,127.41,241,127.41,241Z" class="cls-4"/><path data-cppathid="10004" transform="translate(-19.6 -8.94)" d="M78.58,368.17c5.15,5.49,9,9.08,9,9.08s19.87,4.7,13.37,7.52-15.85-2.18-15.85-2.18,16.22,15.34,15,19.32-10.74-7.59-10.74-7.59S95.59,406,95.64,408s-8.82-9.61-8.82-9.61,1.63,11.13-.35,11.19-9.15-21.46-13.93-27.25c-1-1.16-3.49-3.55-6.89-6.76C52.1,362.66,71,360.17,78.58,368.17Z" class="cls-3"/><path data-cppathid="10005" transform="translate(-19.6 -8.94)" d="M88.86,262.32s12.77-4.84,20.35,4.37-65.59,53.93-60.73,61.38c24.49,37.58,30.08,41.6,30.08,41.6l-5,10.24s-27.71-27.64-43.78-42.2S88.86,262.32,88.86,262.32Z" class="cls-4"/><path data-cppathid="10006" transform="translate(-19.6 -8.94)" d="M168.83,409.81s.54,8.28.71,12.45c3.14,80.81-19.38,168.06-19.38,168.06s18.67,6.22,21.79,12.44-43.57,3.12-43.57,3.12,9.33-112,6.22-136.93S109.7,599.66,103.49,609s-29.57,18.67-29.57,18.67,4.66-18.67,9.34-26.45C87.8,593.64,99.72,484,100.35,425.37c0-1.59,0-4.67,0-4.67Z"/><path data-cppathid="10007" transform="translate(-19.6 -8.94)" d="M125.27,244.86s37.05,75.27,43.29,159.3c.37,5.13.79,15.51.79,15.51l-67.94,7.25s0-4.21,0-6.22c0-57.58,2-122.93,2-122.93s4.66-68.47,10.89-65.36S125.27,244.86,125.27,244.86Z" class="cls-5"/><path data-cppathid="10008" transform="translate(-19.6 -8.94)" d="M148.33,399.62l-49,33.28s0-4.48,0-6.61c0-61.11,1.9-130.48,1.9-130.48s2.31-38.43,5.8-58.13C128.82,240.18,148.33,399.62,148.33,399.62Z" class="cls-4"/><path data-cppathid="10009" transform="translate(-19.6 -8.94)" d="M150.51,215.62s0-.15,1.52-3.7c.22-.48,14.73-45.75,14.73-45.75S152.67,189,134.56,172L171,152.31h0c5.07-25.46,6.28-53.71-4.85-74.85C140.09,27.93,59.29-16.39,35.82,38.36s2.6,91.23,20.85,125.12,52.92,78,68.65,79.94C139.22,245.17,150.51,215.62,150.51,215.62Z" class="cls-3"/><path data-cppathid="10010" transform="translate(-19.6 -8.94)" d="M45.24,25.22S81.32,32.87,90,43.3s7.5,12.73,7.6,13.21c4.6-11.7-3.72-17.38-3.72-17.38,25,4.17,34.39,3.89,62.08-3.7-19.27,2.17-27.14-.28-27.14-.28s18.18-2.43,25-15.74c-18.55,5.81-29.59,5.81-29.59,5.81L156,13.15s-24.09,3.22-48.43-2-43.19.17-50.15,1.91S45.24,25.22,45.24,25.22Z" class="cls-6"/><path data-cppathid="10011" transform="translate(-19.6 -8.94)" d="M45.24,25.22s5.2,29.55,5.2,38.24S27.85,94.73,27.85,94.73s-12.17-27.8-7-43.44S45.24,25.22,45.24,25.22Z" class="cls-6"/><polygon data-cppathid="10012" points="107.23 242.74 112.78 240.28 114.47 258.46 107.23 242.74" class="cls-7"/><polygon data-cppathid="10013" points="114.47 258.46 133.74 314.25 133.49 342.76 118.31 317.31 114.47 258.46" class="cls-7"/><path data-cppathid="10014" transform="translate(-19.6 -8.94)" d="M57.6,92.58c6.51,20.63,10.86,28.23,10.86,28.23L127.08,110l-2.17-30.41L141.2,106.7l39.08-6.52-4.34-34.74" class="cls-8"/><path data-cppathid="10015" transform="translate(-19.6 -8.94)" d="M175.94,68.15s-94.82-1-151.63,47.59c0,0,.36,5.61.36,8.92,0,2.58,2.89-5.62,5.07-8.59,14.83-19.83,84.32-47.25,146.2-45.27C176.67,68.48,175.94,68.15,175.94,68.15Z" class="cls-9"/><path data-cppathid="10016" transform="translate(-19.6 -8.94)" d="M116.21,99.22c0,5.75-2.75,10.42-6.12,10.42S104,105,104,99.22s2.75-10.41,6.13-10.41S116.21,93.46,116.21,99.22Z" class="cls-10"/><path data-cppathid="10017" transform="translate(-19.6 -8.94)" d="M108.25,94.32a3.06,3.06,0,1,1-3.07-3.06A3.06,3.06,0,0,1,108.25,94.32Z" class="cls-11"/><path data-cppathid="10018" transform="translate(-19.6 -8.94)" d="M145.13,93.13c0,4.74-2.25,8.57-5,8.57S135,97.87,135,93.13s2.27-8.58,5.05-8.58S145.13,88.39,145.13,93.13Z" class="cls-10"/><path data-cppathid="10019" transform="translate(-19.6 -8.94)" d="M139.62,89.45a3.06,3.06,0,1,1-3.06-3.07A3.06,3.06,0,0,1,139.62,89.45Z" class="cls-11"/></g></g></g></svg>