<?xml version="1.0" encoding="UTF-8"?>
<svg xmlns="http://www.w3.org/2000/svg" onmouseup="{ if(window.parent.document.onmouseup) window.parent.document.onmouseup(arguments[0]);}" viewBox="0 0 27.43 58.64"><defs><style>.cls-1{fill:#1b75bb;}</style></defs><g data-name="Layer 2" id="Layer_2"><g id="ProductOwner"><g data-name="Layer 73" id="Layer_73"><path data-cppathid="10000" transform="translate(-1.2 -2.64)" d="M4.27,20.3a.82.82,0,0,1-.81.82H2a.78.78,0,0,1-.58-.24.78.78,0,0,1-.24-.58V3.58a.76.76,0,0,1,.2-.53.73.73,0,0,1,.52-.24c.56-.07,1.09-.11,1.6-.13s1,0,1.45,0q8.16,0,8.16,6.31A4.56,4.56,0,0,1,11.08,13a11,11,0,0,1-6,1.35h-.4l-.42,0Zm0-16.24v8.83l1,0a8.4,8.4,0,0,0,2.86-.39,2.61,2.61,0,0,0,1.49-1.28A5,5,0,0,0,10.06,9a7.34,7.34,0,0,0-.47-2.87A2.9,2.9,0,0,0,8,4.54a7.62,7.62,0,0,0-3-.48Z" class="cls-1"/><path data-cppathid="10001" transform="translate(-1.2 -2.64)" d="M28.63,12.31a11.53,11.53,0,0,1-.92,4.77,7.78,7.78,0,0,1-2.49,3.15,5.87,5.87,0,0,1-3.52,1.13,6.88,6.88,0,0,1-3.8-1.09,7.75,7.75,0,0,1-2.7-3.06,10.08,10.08,0,0,1-1-4.59,12.83,12.83,0,0,1,.56-3.79,11.17,11.17,0,0,1,1.57-3.19,8.31,8.31,0,0,1,2.32-2.2,5.26,5.26,0,0,1,2.77-.8,5.84,5.84,0,0,1,2.82.71,7.11,7.11,0,0,1,2.29,2,9.94,9.94,0,0,1,1.54,3.07A13,13,0,0,1,28.63,12.31Zm-3.07,0a16,16,0,0,0-.47-4,6.9,6.9,0,0,0-1.38-2.85,2.88,2.88,0,0,0-2.28-1.06,2.46,2.46,0,0,0-1.7.71A5.75,5.75,0,0,0,18.42,7a12.29,12.29,0,0,0-.84,2.65,14.74,14.74,0,0,0-.3,3,11.66,11.66,0,0,0,.53,3.66,5.68,5.68,0,0,0,1.52,2.5,3.42,3.42,0,0,0,2.37.9,2.66,2.66,0,0,0,2.06-1,6.53,6.53,0,0,0,1.33-2.65A14,14,0,0,0,25.56,12.31Z" class="cls-1"/><path data-cppathid="10002" transform="translate(-1.2 -2.64)" d="M12.93,54.46c.08-.54.17-1,.21-1.42.1-1.29.22-2.58.26-3.88.09-3,.28-6,.15-9-.17-3.67-.39-7.34-.88-11-.08-.66-.09-1.33-.17-2a4.09,4.09,0,0,0-.24-1,1,1,0,0,0-1-.66,1,1,0,0,0-1,.65,2.91,2.91,0,0,0-.22.78,16.55,16.55,0,0,0,0,4,114.29,114.29,0,0,1,.53,16.13c-.09,1.85-.21,3.7-.32,5.55a1,1,0,0,1-.19.52L10,52.71A5.47,5.47,0,0,0,9.67,52,1.45,1.45,0,0,0,7,52.51a3.09,3.09,0,0,0,0,1A13.61,13.61,0,0,0,7.43,55,30.73,30.73,0,0,1,8.6,59.42a3.31,3.31,0,0,0,.24.83,1.65,1.65,0,0,0,2.35.81,2.9,2.9,0,0,0,.8-.63c.69-.75,1.36-1.53,2-2.32.51-.6,1-1.21,1.51-1.82a3.78,3.78,0,0,0,.47-.66,1.48,1.48,0,0,0-2.18-1.92,4.93,4.93,0,0,0-.49.42Z" class="cls-1"/></g></g></g></svg>