<?xml version="1.0" encoding="UTF-8"?>
<svg xmlns="http://www.w3.org/2000/svg" onmouseup="{ if(window.parent.document.onmouseup) window.parent.document.onmouseup(arguments[0]);}" viewBox="0 0 323.87 373.28"><defs><style>.cls-1{isolation:isolate;}.cls-2{mix-blend-mode:multiply;}.cls-3{fill:#f1f2f2;}.cls-4{fill:#c0644b;}.cls-5{fill:#a1523e;}.cls-6{fill:#ab5842;}.cls-7{fill:#793e2f;}</style></defs><g class="cls-1"><g data-name="Layer 2" id="Layer_2"><g data-name="Layer 1" id="Layer_1-2"><g class="cls-2"><polygon data-cppathid="10000" points="172.46 280.17 0 373.28 108.56 373.28 279.39 280.17 172.46 280.17" class="cls-3"/></g><polygon data-cppathid="10001" points="281.02 0 108.56 93.11 153.04 93.11 323.87 0 281.02 0" class="cls-4"/><rect data-cppathid="10002" height="280.17" width="44.48" y="93.11" x="108.57" class="cls-5"/><polygon data-cppathid="10003" points="323.87 0 323.87 280.17 153.04 373.28 153.04 93.11 323.87 0" class="cls-6"/><path data-cppathid="10004" d="M180.3,111v27.81l-25.8,14.06-1.83,1h-44.1v2.91H153.4l.34-.16.76-.42,25.8-14.06,2.92-1.59,26.29-14.33-.06,27.84-26.23,14.3L180.3,170,154.5,184l-1.83,1h-44.1V188H153.4l.34-.17.76-.42,25.8-14.06v27.81l-25.8,14.06-1.83,1h-44.1v2.91H153l.43,0,.27-.15.76-.42,25.8-14.06,2.92-1.59,26.16-14.26-.06,27.84-26.1,14.23-2.92,1.59L154.5,246.3l-1.83,1h-44.1v2.91h44.86l.31-.16.76-.42,25.8-14.06v27.81l-25.8,14.06-1.83,1h-44.1v2.91H153.4l.34-.16.76-.42,25.8-14.06,2.92-1.59,26-14.19-.06,27.84-26,14.16-2.92,1.59-25.8,14.06-1.83,1h-44.1v2.91h44.88l.29-.17.76-.42,25.8-14.06v27.81l-25.8,14.06-1.83,1h-44.1v2.91h44.79l.38-.17.76-.42L180.3,329l2.92-1.59,25.9-14.12L209,342.76l2.92-1.59.08-29.52,25.69-14,2.91-1.59L266.49,282l0,29.5,2.92-1.59,0-29.5,25.75-14,2.91-1.59,25.8-14.06v-3.32l-25.8,14.06V233.63l25.8-14.06v-3.32l-25.8,14.06-2.91,1.59-25.71,14,0-27.82,25.68-14,2.91-1.59,25.8-14.06v-3.32l-25.8,14.06V171.37l25.8-14.06V154l-25.8,14.06-2.91,1.59-25.65,14,0-27.83,25.62-14,2.91-1.59,25.8-14.06v-3.32l-25.8,14.06V109.11l25.8-14.06V91.73l-25.8,14.06-2.91,1.59-25.58,13.94,0-27.82,25.55-13.93L298.07,78l25.8-14.06V60.6l-25.8,14.06V46.85l25.8-14.06V29.47L269.64,59l0-29.49H226.3l-2.94,1.59h43.39l0,29.49L212.5,90.17l.05-29.5H168.64l-2.94,1.59h43.93l0,29.5-55.08,30-1.83,1h-44.1v2.91h44.88l.29-.16.76-.42Zm57.43,27.64L212.37,152.5l.06-27.84,25.3-13.79,2.91-1.59,26.05-14.19,0,27.82-26,14.18Zm2.91,32.86,26-14.16,0,27.83-25.95,14.14-2.91,1.59-25.49,13.89L212.3,187l25.43-13.86Zm26.05-79.78L240.64,106V78.15l26.08-14.21,2.92-1.59,25.52-13.91V76.25L269.61,90.17Zm-.06,62.3-26,14.16V140.41l26-14.18,2.91-1.59,25.59-13.94v27.81l-25.62,14Zm-.07,62.29-25.92,14.13V202.67l25.95-14.14,2.92-1.59,25.65-14v27.81l-25.68,14Zm-25.92,48.58,25.89-14.11,2.91-1.59,25.72-14V263l-25.75,14-2.91,1.59-25.86,14.09Zm-2.91-1.73-25.62,14,.06-27.84,25.56-13.93,2.91-1.59,25.92-14.12,0,27.82-25.89,14.11ZM212.1,280.49l25.63-14v27.81l-25.68,14-2.92,1.59L183.22,324V296.23l26-14.15Zm.13-62.33,25.5-13.9v27.81L212.18,246l-2.92,1.59-26,14.19V234l26.09-14.22Zm.13-62.33L237.73,142v27.81L212.3,183.67l-2.91,1.59-26.17,14.26V171.71l26.22-14.29Zm-29.14-46.38,26.35-14.36,2.92-1.59,25.24-13.76v27.81l-25.3,13.79-2.92,1.59-26.29,14.33Z" class="cls-7"/></g></g></g></svg>