<?xml version="1.0" encoding="UTF-8"?>
<svg xmlns="http://www.w3.org/2000/svg" onmouseup="{ if(window.parent.document.onmouseup) window.parent.document.onmouseup(arguments[0]);}" viewBox="0 0 649.5 345.49" xmlns:xlink="http://www.w3.org/1999/xlink"><defs><style>.cls-1,.cls-100,.cls-101,.cls-102,.cls-40,.cls-41,.cls-5,.cls-51,.cls-59,.cls-6,.cls-66,.cls-7,.cls-8{fill:none;}.cls-2{isolation:isolate;}.cls-3{fill:#fcc488;}.cls-4{fill:#d28131;}.cls-5{stroke:#676767;stroke-width:0.91px;}.cls-6,.cls-7,.cls-8{stroke:gray;}.cls-6{stroke-width:1.52px;}.cls-7{stroke-width:1.21px;}.cls-8{stroke-width:1.69px;}.cls-9{fill:#d7d7d7;}.cls-10{fill:#fcc58a;}.cls-11,.cls-72,.cls-76,.cls-90{fill:#c8c8c8;}.cls-11,.cls-12,.cls-17,.cls-75,.cls-76,.cls-90{stroke:#c8c8c8;}.cls-11{stroke-width:2.02px;}.cls-12,.cls-18,.cls-67,.cls-75{fill:#e2e2e2;}.cls-12,.cls-17{stroke-width:0.98px;}.cls-101,.cls-13,.cls-41,.cls-49,.cls-51,.cls-56{stroke:#000;}.cls-13{stroke-width:0.59px;}.cls-14,.cls-26,.cls-29,.cls-86{fill:#fff;}.cls-15{fill:#4d4e4e;}.cls-16{fill:#d12027;stroke:#ab3124;stroke-width:1.17px;}.cls-17,.cls-94{fill:#efeeee;}.cls-19,.cls-21{fill:#2d358b;}.cls-20{opacity:0.25;}.cls-20,.cls-41{mix-blend-mode:multiply;}.cls-21{stroke:#2d358b;stroke-width:2.05px;}.cls-22{fill:#2b2b6b;}.cls-23{clip-path:url(#clip-path);}.cls-24{fill:#fde885;}.cls-25{fill:#eacf60;}.cls-26{opacity:0.87;mix-blend-mode:overlay;}.cls-27{fill:#ab3124;}.cls-28{fill:#e34445;}.cls-29{opacity:0.79;}.cls-30{fill:#f8f2dc;}.cls-31{fill:#6780a2;}.cls-32{fill:#5b462e;}.cls-33{fill:#5e4830;}.cls-34{fill:#513e29;}.cls-35{fill:#5d472f;}.cls-36{fill:#5c462e;}.cls-37{fill:url(#linear-gradient);}.cls-38{fill:#dcece9;}.cls-39{fill:#90a39f;}.cls-40{stroke:#dcece9;}.cls-102,.cls-40{stroke-width:0.3px;}.cls-41{stroke-linecap:round;stroke-linejoin:round;stroke-width:0.5px;stroke-dasharray:1.32;opacity:0.35;}.cls-42{fill:#9c1c25;}.cls-43{fill:#7f1426;}.cls-44{fill:#23376f;}.cls-45{fill:#fae6aa;}.cls-46{fill:#b92025;}.cls-47{fill:#eed214;}.cls-48{fill:#f07322;}.cls-49,.cls-51{stroke-width:0.64px;}.cls-50{fill:#eba05e;}.cls-52,.cls-65{fill:#4f3322;}.cls-53{fill:#714928;}.cls-54{fill:#352923;}.cls-55{fill:#eca160;}.cls-56{stroke-width:0.84px;}.cls-57{fill:#603a17;}.cls-58{fill:#a06932;}.cls-59{stroke:#815329;stroke-width:1.06px;}.cls-60,.cls-62{fill:#1a1a1a;}.cls-61{clip-path:url(#clip-path-2);}.cls-62{opacity:0.46;}.cls-63{fill:#ddcfb6;}.cls-64{fill:#d8a96c;}.cls-65{stroke:#66422f;}.cls-66{stroke:#965e41;}.cls-66,.cls-86{stroke-width:2px;}.cls-67,.cls-86{stroke:#afafb0;}.cls-67{stroke-width:0.31px;}.cls-68{fill:#f9c511;}.cls-69{fill:#c02226;}.cls-70{fill:#5cc6d1;}.cls-71{fill:#9d7149;}.cls-73{fill:#402312;}.cls-74{fill:#bf278b;}.cls-77{fill:#f28f20;stroke:#f28f20;stroke-width:0.61px;}.cls-78{fill:#242551;}.cls-79{fill:#7b3c7c;}.cls-80{fill:#9e549d;}.cls-81{clip-path:url(#clip-path-3);}.cls-82{fill:#c1976c;}.cls-83{fill:#ec2024;}.cls-84{fill:#3ab14a;}.cls-85{fill:#f7e91d;}.cls-87{fill:#a27c52;}.cls-88{fill:#6ab8e6;}.cls-89,.cls-93{fill:#272361;stroke:#272361;}.cls-89{stroke-width:0.25px;}.cls-90,.cls-97{stroke-width:0.26px;}.cls-91{fill:#a16c29;}.cls-92{fill:#f6ac3c;}.cls-93{stroke-width:0.23px;}.cls-94{opacity:0.4;}.cls-95{fill:gray;}.cls-96{fill:#bbe3f0;}.cls-97{fill:#73a9b8;}.cls-100,.cls-102,.cls-97{stroke:#5996a3;}.cls-104,.cls-98{fill:#ec3727;}.cls-99{fill:#cd2227;}.cls-100{stroke-width:0.24px;}.cls-101{stroke-width:0.23px;}.cls-103{opacity:0.48;}.cls-104{opacity:0.89;}</style><clipPath id="clip-path"><path data-cppathid="10000" d="M510.49,241.87c1.41,3.77,15.81,1.87,32.18-4.24s28.49-14.11,27.08-17.88-15.81-1.88-32.18,4.24S509.08,238.1,510.49,241.87Z" class="cls-1" id="SVGID"/></clipPath><linearGradient gradientUnits="userSpaceOnUse" y2="205.34" x2="454.28" y1="236.56" x1="446.06" id="linear-gradient"><stop stop-color="#abbeba" offset="0"/><stop stop-color="#b8cac6" offset="0.04"/><stop stop-color="#c3d6d2" offset="0.11"/><stop stop-color="#cadcd8" offset="0.2"/><stop stop-color="#ccdeda" offset="0.46"/><stop stop-color="#c9dbd7" offset="0.66"/><stop stop-color="#bfd1cd" offset="0.83"/><stop stop-color="#aec1bd" offset="0.98"/><stop stop-color="#abbeba" offset="1"/></linearGradient><clipPath id="clip-path-2"><polygon data-cppathid="10001" points="174.79 82.97 158.1 34.27 206.23 23.18 228.56 62.18 174.79 82.97" class="cls-1"/></clipPath><clipPath id="clip-path-3"><polygon data-cppathid="10002" points="264.73 300.76 225.05 287.78 256.53 265.74 296.2 278.72 264.73 300.76" class="cls-1"/></clipPath></defs><g class="cls-2"><g data-name="Layer 2" id="Layer_2"><g id="team"><g data-name="dejected team" id="dejected_team"><path data-cppathid="10003" d="M536.43,239.61s-8.57,1.75-11.35,8.33-7.92,7.79-9.7,9.12,3.3,8.79,13.16-.82,14.77-2.48,14.77-2.48l5.14,4.76s2.7-6.33,1.33-11,9.24-12.81,11.29-19.21-13-21.92-13.69-21.75S544.94,221,544.94,221Z" class="cls-3"/><path data-cppathid="10004" d="M528.8,267.42c3-3.83,35-25.41,30.13-37.63s-14.73,2-15.13,2.86-17.48,28.79-18.37,29.45C524.82,266.16,528.8,267.42,528.8,267.42Z" class="cls-4"/><path data-cppathid="10005" d="M530.89,254.45c2.45-1.3,4.66,1.34,4.41.73-1.09-2.62.53-6.46,5.16-2.51-1.67-7.58,4.78-2,4.78-2s2.3,5.4,2.78,6.18c1.33,2.19-2.14,5.42-3.47,4.05,0,0-2.09,3.14-5.21,2.28,0,0-.87,2.3-4.14,1.93C533.22,264.93,528.78,255.57,530.89,254.45Z" class="cls-3"/><path data-cppathid="10006" d="M528,265.42a18.76,18.76,0,0,0-3.66,6.8c-1,2.94-2.41,6.62-5,8.84-3.08,2.63-7,.65-7-2.95.08-4.21,5.41-6.29,8.66-8.41s4.77-2.86,6.87-6" class="cls-5"/><path data-cppathid="10007" d="M528,264.8c-1.37,3.78-2.79,6.51-2.93,10.56-.13,3.66-.52,8.28-2.67,11.46-2.57,3.79-7.6,2.39-8.69-1.82-1.28-4.94,4-8.59,6.87-11.81s5.71-6.57,7-10.72" class="cls-6"/><path data-cppathid="10008" d="M527.18,262.78c-3.46,2.06-5.88,4-9.83,4.85-3.57.82-8,2.07-10.76,4.78-3.24,3.22-.92,7.91,3.42,8.19,5.09.33,7.7-5.5,10.31-9s5.39-6.84,9.22-8.91" class="cls-7"/><path data-cppathid="10009" d="M529.08,264.18c-2.48,3.73-4.72,6.31-6,10.64-1.09,3.91-2.74,8.8-5.9,11.67-3.78,3.42-8.84.58-8.9-4.26-.08-5.67,6.53-8.23,10.53-10.94s7.9-5.59,10.41-9.73" class="cls-8"/><path data-cppathid="10010" d="M649.5,336.72c-.13,5.51-30,9.25-66.6,8.37S516.65,339,516.78,333.5s30-9.25,66.6-8.36S649.63,331.21,649.5,336.72Z" class="cls-9"/><path data-cppathid="10011" d="M546.57,204.07c-1-1.4-2.39-2.08-3.16-1.52s-.61,2.15.36,3.55,2.38,2.08,3.16,1.52S547.54,205.47,546.57,204.07Z" class="cls-10"/><path data-cppathid="10012" d="M549.39,202.9c-.86-1.24-2.11-1.84-2.79-1.34s-.54,1.9.32,3.14,2.1,1.84,2.79,1.34S550.25,204.14,549.39,202.9Z" class="cls-10"/><path data-cppathid="10013" d="M624,236l.33.12c-.07.13.21.25.33.11a7.28,7.28,0,0,1,4.06,2.9,12.61,12.61,0,0,1,1.2,4c.46,2.48.45,5.73,3.7,7.4,2.14,1.1,6.19,2.62,8.78,1.36,1.55-.76.09-3.78-1.31-3-.34.19,0,.55.32.57a.65.65,0,0,0,.2.15l.15.18a1.57,1.57,0,0,1,.37,1c-.1.78-1.27.92-2.17.86a13.83,13.83,0,0,1-4.28-1c-3.28-1.32-4-3.43-4.39-5.87-.27-1.87-.47-4.07-1.56-5.82a7.85,7.85,0,0,0-3.62-2.94c4.67.06,10.21,1.14,14-.89,2.06-1.09,2.71-3,1.27-4.56-1.61-1.71-4.72-2.36-7.57-1.81a16.6,16.6,0,0,0-6.24,2.56,9.55,9.55,0,0,0-2.34,2.1,4.93,4.93,0,0,0-.6,1.93,2.75,2.75,0,0,0-.41,0C623.75,235.34,623.43,235.8,624,236Zm1.14-.69a4.19,4.19,0,0,1,.57-1.35,9.13,9.13,0,0,1,2.11-2,15.85,15.85,0,0,1,5.91-2.55c2.56-.49,5.67-.15,7,1.59,1.18,1.59.13,3.3-2.27,4C634.22,236.21,629.49,235.15,625.09,235.28Z" class="cls-11"/><path data-cppathid="10014" d="M523.62,59.41a16.47,16.47,0,1,0,4.63-22.82A16.46,16.46,0,0,0,523.62,59.41Z" class="cls-12"/><path data-cppathid="10015" d="M567.38,44.55c1.8,7.79,12.3,12,23.44,9.42s18.71-11,16.91-18.77-12.3-12-23.44-9.43S565.58,36.76,567.38,44.55Z" class="cls-12"/><path data-cppathid="10016" d="M532.78,158.72s6.07-66,40.83-70.28,51.88,29.31,51.34,63.17c-.14,9.06.51,22.34,1.55,36.93,2.85,40-11.07,42.05-11.07,42.05l-57,6.73L556,199.07l-3-9.78s-5.78-14.09-7.32-16.35,14.53,3.82,24.81,1c21.38-5.8,4-13.1-9.84-10.91S532.78,158.72,532.78,158.72Z" class="cls-3"/><path data-cppathid="10017" d="M554.49,124.63c.45,2.87,2.11,5,3.7,4.74s2.52-2.78,2.07-5.65-2.12-5-3.71-4.73S554,121.77,554.49,124.63Z" class="cls-13"/><path data-cppathid="10018" d="M549.27,124.56c.38,2.36,1.74,4.1,3.05,3.89s2.07-2.28,1.69-4.65-1.74-4.09-3-3.89S548.9,122.2,549.27,124.56Z" class="cls-13"/><path data-cppathid="10019" d="M559.31,98.08s-5.47,2.75-9.5,3.39l-4,.64S562.46,88.2,570,87a72.45,72.45,0,0,1,11-1.12s21.19-26.5,36.31,9.26S626,153.82,631.19,153s9.21-5.22,9.21-5.22-2.67,16.7-10.73,18-30.27-15.85-34.23-40.88l-4-25-2.59,9.79s-23.23,2.43-26.69-4.53S559.31,98.08,559.31,98.08Z" class="cls-13"/><path data-cppathid="10020" d="M557.85,121.6a1.46,1.46,0,1,0,1.2-1.75A1.51,1.51,0,0,0,557.85,121.6Z" class="cls-14"/><path data-cppathid="10021" d="M551.59,122.4a1.46,1.46,0,1,0,2.85-.62,1.46,1.46,0,1,0-2.85.62Z" class="cls-14"/><path data-cppathid="10022" d="M540.34,239.52s4.15,25.44,23.52,28.12c12.61,1.76,37.29.32,40.69,4.37,4.76,5.66,21.4-23.45,21.4-23.45s-64.34-28.45-80-17.36" class="cls-15"/><path data-cppathid="10023" d="M551,260.2l4.22,66.51S547.3,329,544,334.4c12.23,2.94,28.86-4.15,28.86-4.15s3.43-61.72,5-68.8S551,260.2,551,260.2Z" class="cls-15"/><path data-cppathid="10024" d="M584.37,258.28l2.73,72.57c-5.64,3.48-7.6,3.65-10.53,10.66,18.1,4.89,30.4-7.35,30.4-7.35s3.79-70.89,4.8-73-25.87-3.87-25.87-3.87" class="cls-15"/><path data-cppathid="10025" d="M626.74,180.5c-76.37,14.91-75.73-1.07-75.73-1.07s-13.57,49.41-11,60.82c16.31-2.28,86.75,10.11,86.75,10.11S628.15,191.82,626.74,180.5Z" class="cls-16"/><path data-cppathid="10026" d="M591.11,32.62s13,14.21,19.23,29.46c7.25,17.65,8,36.7,8.17,37,.4.52-40.1-31.36-76.45,6.15,0,0,6.14-14.58,4.54-29.7C545.17,62.07,536.12,48.2,534.07,44,529.73,35,586.11,15.11,591.11,32.62Z" class="cls-17"/><path data-cppathid="10027" d="M581.6,29.41S594.72,71.68,596.76,76c0,0-3.73-.85-5-.16s-13.77-45.15-13.77-45.15Z" class="cls-18"/><path data-cppathid="10028" d="M562.72,37.32,576,76.12a50.34,50.34,0,0,0-6.07.92c-.92.4-9.4-35-11.83-40.17S562.72,37.32,562.72,37.32Z" class="cls-18"/><path data-cppathid="10029" d="M546.39,45.75l9.32,36.88a52.1,52.1,0,0,0-5.6,4s-4.17-34.95-7.28-40.26S546.39,45.75,546.39,45.75Z" class="cls-18"/><path data-cppathid="10030" d="M521.37,36.76a17.9,17.9,0,0,1,5.8-2.35,18.61,18.61,0,0,1,8.53-12.07,20.58,20.58,0,0,1,17.7-2.07,20.93,20.93,0,0,1,7.48-8c9.16-5.76,21.1-4.17,27.44,3.4.12-.07.22-.16.35-.24,8.78-5.52,20.37-3.65,25.89,4.17s2.87,18.64-5.91,24.16c-7.85,4.93-17.92,4-23.92-1.89a22.44,22.44,0,0,1-2,1.41A22.2,22.2,0,0,1,562,44.85a19.7,19.7,0,0,1-6.12,6.07,20.78,20.78,0,0,1-10.7,3.19,16.47,16.47,0,0,1-6.4,7.32c-7.64,4.81-17.73,3.18-22.53-3.63S513.72,41.57,521.37,36.76Z" class="cls-17"/><path data-cppathid="10031" d="M629.32,179a15,15,0,0,0,.32,2.6c.33,1.64-35.07-5.21-36.52,33.6-1.31,34.89,31.31,18.26,35.55,19.24l-.33,2.93-19.24,7.18.32,53.49s-52.18,6.52-70.77-7.51c-3.26-10.43-1.3-54.46-1.3-54.46s9.78-56.75,10.76-57.72,3.59-.33,3.59-.33-3.59,12.06-3.59,14,32.29,7.18,38.48,6.53C586.59,198.58,598.66,175.75,629.32,179Z" class="cls-17"/><path data-cppathid="10032" d="M510.25,242.26c.15-.75.23-1.17,15.3-6.79,17.1-6.39,43.46-15.61,43.72-15.7l1.12-.39.2,1.16c.07.32,5.59,32.56-18.75,41.65-10.23,3.82-25.6,3.78-40.68-18.09-.27-.39-.54-.8-.6-.86l-.42-.43Z" class="cls-19"/><path data-cppathid="10033" d="M571.16,230c-3.92,4.71-14.67,10.4-25.88,14.59s-23.09,6.93-29.13,5.93a72.42,72.42,0,0,1-5-6.45c-.06-.1-.13-.19-.18-.28l59.76-22.31A58.28,58.28,0,0,1,571.16,230Z" class="cls-20"/><path data-cppathid="10034" d="M511.93,245.75c1.41,3.77,15.82,1.87,32.18-4.24s28.5-14.12,27.09-17.88l-1.26-3.39-59.27,22.12S511.42,244.35,511.93,245.75Z" class="cls-21"/><path data-cppathid="10035" d="M510.49,241.87c1.41,3.77,15.81,1.87,32.18-4.24s28.49-14.11,27.08-17.88-15.81-1.88-32.18,4.24S509.08,238.1,510.49,241.87Z" class="cls-22"/><g class="cls-23"><path data-cppathid="10036" d="M514.2,243.36c4-4.11,10-5.77,15.29-7.42,8.43-2.6,17.19-4.32,25.13-8.29,3.79-1.89,6.92-4.83,10.6-6.92,2.11-1.19,4.19-1.63,5.85.42a.28.28,0,0,1,0,.12l.49-.71c.51-.74,1.68,0,1.17.76a68.17,68.17,0,0,1-26.32,22.93,141.89,141.89,0,0,1-18.71,8.18c-3.87,1.31-12.94,4.54-15.86-.23C510,249.09,512,245.66,514.2,243.36Z" class="cls-24"/><path data-cppathid="10037" d="M513.42,241.55c.28-.18,1.3.11,1.59-.11,5.68.11,10.06-2.78,14.89-5.61,4.21-2.46,22.87-15.4,33.75-14.65a5.45,5.45,0,0,0,1.81-.4l2.5-.56c.45-.1.58.57.14.7l-2.71.72c-.16,3.18-2.92,5-5.5,6.43-4.76,2.73-10.12,4.54-15.22,6.53-4.9,1.93-9.81,3.81-14.83,5.42a45.42,45.42,0,0,1-7.26,1.75c-1.37.2-3.61.63-5,0-1.27.31-2.51.74-3.81.93A.61.61,0,0,1,513.42,241.55Z" class="cls-24"/><path data-cppathid="10038" d="M553.28,233.71c-4.59,2-3.44,1.32-15.85,4.69-3.3.88-6.79,1.06-10.06,2a28.93,28.93,0,0,1-6.07,1c-1.41.08-3.17,1-3.29-1.09.16-.39-3.64.85-4.15,1-3.22.89-5.78,2.17-3.68,5.9s7.72,5.06,11.69,5.22c11.1.46,21.65-6.47,31.42-10.82,2-.88,6.85-3.06,6.1-6S555.47,232.75,553.28,233.71Z" class="cls-25"/></g><path data-cppathid="10039" d="M555.48,233.2A127.57,127.57,0,0,1,543,238.59a105.62,105.62,0,0,1-21.93,5.88c-6.78.89-10.68.14-11.57-2.24-1.75-4.69,10.07-11.22,15.23-13.81A124.38,124.38,0,0,1,537.22,223a105.54,105.54,0,0,1,21.92-5.88c6.79-.9,10.68-.14,11.57,2.24,1.75,4.69-10.07,11.22-15.23,13.81Zm-29.81-2.95c-11.31,5.68-14.73,9.92-14.22,11.26.29.77,2.59,1.83,9.39.94a104,104,0,0,0,21.47-5.77,123.71,123.71,0,0,0,12.26-5.31c11.31-5.67,14.73-9.92,14.22-11.26-.29-.77-2.58-1.83-9.39-.94a104,104,0,0,0-21.47,5.77,123.71,123.71,0,0,0-12.26,5.31Z" class="cls-19"/><path data-cppathid="10040" d="M542.43,238.39c15.19-5.67,29.58-14.09,27.68-19.2l-.94-1.25-.6.16.12,1.88c.92,2.45-7.9,10.56-25.69,17.11-12.18,4.48-3,2.34-.57,1.3Z" class="cls-26"/><path data-cppathid="10041" d="M568.49,263.31a20.52,20.52,0,0,1-4.07-5.05c-1.47-2.78,8.64-8.8,8.64-3.91S568.49,263.31,568.49,263.31Z" class="cls-27"/><path data-cppathid="10042" d="M607,198.25c-.88,2.75-8.48,26.9-8.81,32.77s-21.52,11.75-30.82,18.76c0,0-8.15-3.75-11.57-2.61s-3.76-1.47-5.72-1.47-3.91,4.73,1.64,5.71a17.34,17.34,0,0,1-9.46,2.94c-5.87.16-2.77,3.42-.65,3.59,0,0-1,2.27,3.26,2.6a8,8,0,0,0,6.52,1s10.93,1,16.8-1.31c2.9-1.12,39.62-7.5,42.23-12.55S623,210,621.49,204.44,609.92,189.12,607,198.25Z" class="cls-3"/><path data-cppathid="10043" d="M613,192.05s10.93,2.61,9.3,13.7-8.15,42.24-11.25,44.68-43.22,13.05-43.22,13.05,5.71-11.42-1-15.49c7.5-5.71,25.44-13.7,27.73-15S601.92,188.63,613,192.05Z" class="cls-28"/><path data-cppathid="10044" d="M576.44,232.65c.56-.08,3.18-.48,3-1.34a.55.55,0,0,1,0-.22.19.19,0,0,1,.06-.33,1.56,1.56,0,0,1,1.68.67,1.07,1.07,0,0,1-.5,1.4c-1.12.8-2.88.64-4.19.81C575.81,233.72,575.82,232.74,576.44,232.65Z" class="cls-29"/><path data-cppathid="10045" d="M532.66,227.61s0,0,0-.05c.27-.56,1-.24,1.17.22a2.14,2.14,0,0,1,.22.1h0a.66.66,0,0,1,.64-.84,1.75,1.75,0,0,1,.24,0h.09a1.48,1.48,0,0,1,0-.21.68.68,0,0,1,.73-.55,1.34,1.34,0,0,1,.73.24.55.55,0,0,1,.6-.26l.33.06a.85.85,0,0,1,.3.15.94.94,0,0,1,0-.16,1.11,1.11,0,0,1,1.93-.45.48.48,0,0,1,.21-.07,1.36,1.36,0,0,1,1.22.43c.47-1,2.07-1,2.31.09h.09s0-.05.06-.07a.6.6,0,0,1,.14-.81,1.29,1.29,0,0,1,1-.2,1.54,1.54,0,0,1,.1-.35,1.3,1.3,0,0,1,1.78-.51,1.68,1.68,0,0,1,1,.37,1,1,0,0,1,.41-.19,1.17,1.17,0,0,1,.3,0,2.62,2.62,0,0,1,2.74.43,2.59,2.59,0,0,1,.4-.09v0h0s0-.06,0-.08l.1.08a1.77,1.77,0,0,1,.86-.3,1.18,1.18,0,0,1,.79.2,3.12,3.12,0,0,1,.44-.09,1.52,1.52,0,0,1,1.55,1,1.42,1.42,0,0,1,1.33,1,.77.77,0,0,1,0,.15c1.29-.2,3,.59,3,1.83-.05,1.71-1.86,2.08-3.09,1.41a1.52,1.52,0,0,1-.3.37,1.87,1.87,0,0,1-2.63-.3,2.55,2.55,0,0,1-2.51.36.45.45,0,0,1-.28-.28,1.81,1.81,0,0,1-2.25,0,2.46,2.46,0,0,1-.39-.09,3.7,3.7,0,0,1-1.73-.18h0a4.16,4.16,0,0,1-1.59.07,6.21,6.21,0,0,1-2.39.14,2.87,2.87,0,0,1-.81.35,3,3,0,0,1-1.8-.19,6,6,0,0,1-1.75,0,1.85,1.85,0,0,1-1.09-.63,3.77,3.77,0,0,1-1.77-.06,1.16,1.16,0,0,1-1.43,0,.33.33,0,0,1-.1-.06.7.7,0,0,1-1-.25s0-.08,0-.13a.58.58,0,0,1-.21-.32,2.84,2.84,0,0,1-.08-.42A.66.66,0,0,1,532.66,227.61Z" class="cls-30"/><path data-cppathid="10046" d="M503.08,325.21c-.22,9-41.56,15.21-92.34,14S319,329.71,319.2,320.76s41.55-15.21,92.33-14S503.3,316.26,503.08,325.21Z" class="cls-9"/><path data-cppathid="10047" d="M383.89,221.07s.25,3.87.32,5.82c1.47,37.81-9.06,78.62-9.06,78.62s8.74,2.91,10.19,5.82S365,312.79,365,312.79s4.37-52.42,2.91-64.06-11.65,61.15-14.56,65.52S339.48,323,339.48,323s2.18-8.73,4.37-12.37,7.7-54.85,8-82.27c0-.74,0-2.18,0-2.18Z" class="cls-31"/><g class="cls-2"><polygon data-cppathid="10048" points="459.55 231.57 466.26 232.38 461.42 233.19 454.67 232.35 459.55 231.57" class="cls-32"/><polygon data-cppathid="10049" points="466.26 232.38 463.99 308.28 459.34 310.13 461.42 233.19 466.26 232.38" class="cls-33"/><polygon data-cppathid="10050" points="461.42 233.19 459.34 310.13 452.9 308.53 454.67 232.35 461.42 233.19" class="cls-34"/></g><g class="cls-2"><polygon data-cppathid="10051" points="494.62 235.8 502.12 236.71 497.56 237.63 490 236.7 494.62 235.8" class="cls-32"/><polygon data-cppathid="10052" points="502.12 236.71 498.1 316.62 493.7 318.7 497.56 237.63 502.12 236.71" class="cls-35"/><polygon data-cppathid="10053" points="497.56 237.63 493.7 318.7 486.52 316.91 490 236.7 497.56 237.63" class="cls-34"/></g><g class="cls-2"><polygon data-cppathid="10054" points="403.25 240.62 410.39 241.68 403.72 242.79 396.55 241.69 403.25 240.62" class="cls-32"/><polygon data-cppathid="10055" points="410.39 241.68 410.54 329.57 404.21 332.09 403.72 242.79 410.39 241.68" class="cls-33"/><polygon data-cppathid="10056" points="403.72 242.79 404.21 332.09 397.39 329.95 396.55 241.69 403.72 242.79" class="cls-34"/></g><g class="cls-2"><polygon data-cppathid="10057" points="440.88 246.23 449.02 247.44 442.62 248.74 434.41 247.49 440.88 246.23" class="cls-32"/><polygon data-cppathid="10058" points="449.02 247.44 447.13 340.75 441.04 343.64 442.62 248.74 449.02 247.44" class="cls-35"/><polygon data-cppathid="10059" points="442.62 248.74 441.04 343.64 433.29 341.21 434.41 247.49 442.62 248.74" class="cls-34"/></g><g class="cls-2"><polygon data-cppathid="10060" points="456.86 211.68 517.28 221.51 443.54 247.51 376.46 232.37 456.86 211.68" class="cls-36"/><polygon data-cppathid="10061" points="517.28 221.51 516.72 231.72 443.38 260.32 443.54 247.51 517.28 221.51" class="cls-35"/><polygon data-cppathid="10062" points="443.54 247.51 443.38 260.32 376.75 243.87 376.46 232.37 443.54 247.51" class="cls-34"/></g><path data-cppathid="10063" d="M385.41,231.11s74-19.49,72.56-19.78,54.33,9.46,54.33,9.46L442.16,244Z" class="cls-37"/><path data-cppathid="10064" d="M441.68,243.91Q413.53,237.3,385.32,231c.4-2.07.6-3.1,1-5.17l57.05,9.31Z" class="cls-38"/><path data-cppathid="10065" d="M387.35,228.66c-.33,1.67-1.2,2.51-2,2.33s-1.33-1.29-1-2.91,1.17-2.4,2-2.26S387.67,227,387.35,228.66Z" class="cls-38"/><path data-cppathid="10066" d="M444,239.82c-.47,2.45-1.53,4.28-2.36,4.09s-1.14-2.29-.67-4.69,1.52-4.24,2.37-4.09S444.52,237.38,444,239.82Z" class="cls-39"/><path data-cppathid="10067" d="M441.55,243.31c-.59-1.08-.48-3.61.26-5.68.6-1.66,1.47-2.33,1.95-1.49a5.47,5.47,0,0,1-.18,3.66c-.38,1.07-.93,1.49-1.24.94a3.52,3.52,0,0,1,.11-2.33c.25-.68.6-1,.8-.61a2.26,2.26,0,0,1-.08,1.5" class="cls-40"/><path data-cppathid="10068" d="M510.7,221.71q-26.44-4.83-52.95-9.37l.7-4.84,53.42,6C511.41,216.77,511.17,218.42,510.7,221.71Z" class="cls-38"/><path data-cppathid="10069" d="M512.71,217.81c-.33,2.29-1.23,4-2,3.9s-1.16-2.07-.84-4.32,1.22-4,2-3.91S513,215.52,512.71,217.81Z" class="cls-39"/><path data-cppathid="10070" d="M510.55,221.16c-.6-1-.6-3.32,0-5.29.47-1.56,1.25-2.23,1.73-1.47a5.07,5.07,0,0,1,0,3.41c-.3,1-.8,1.42-1.11.93a3.26,3.26,0,0,1,0-2.18c.19-.64.51-.91.71-.6a2.06,2.06,0,0,1,0,1.4" class="cls-40"/><path data-cppathid="10071" d="M393.72,226.17h0Z" class="cls-3"/><polygon data-cppathid="10072" points="454.04 216.44 487.89 223.38 465.7 230.07 435.39 221.97 454.04 216.44" class="cls-41"/><polygon data-cppathid="10073" points="432.97 223.03 417.11 227.67 423.72 229.53 431.97 227.03 447.23 231.68 454.47 229.11 432.97 223.03" class="cls-41"/><path data-cppathid="10074" d="M430.39,203.82c-3.37-1-6.13-4.12-7.79-5.19-.89-.57-28.22-8.24-30.77-10.35-10.15-8.43-3.66,16.1,21.38,15.76,5.33-.07,7.12,5.54,7.12,5.54.6,1.64,3.54-2.19,3.54-2.19S436.13,205.6,430.39,203.82Z" class="cls-3"/><path data-cppathid="10075" d="M378.68,193.72s-5.44-32.57-2.79-33.32,7.33,1.09,12.36,9.42c7.81,12.9,5,18.74,5,18.74Z" class="cls-42"/><path data-cppathid="10076" d="M397.23,191.72s2.19-2.07,1-2.73a9.71,9.71,0,0,1-2.26-2l.63-2.42-2.07-.59-4.69,3.75s-6.18,2.68-10.16,1.7-2.42,2.57-2.42,2.57,1.83,1.1,1.4,1.76-1.13,2.18-.32,2.81S387.54,198.81,397.23,191.72Z" class="cls-43"/><path data-cppathid="10077" d="M420.22,205.74l2.41,5.12,2.75,2.67,6.25-2.27s-1.81-5.33-1.88-5.46-2.82-1.4-2.93-1.58S420.22,205.74,420.22,205.74Z" class="cls-3"/><path data-cppathid="10078" d="M432.39,208.9c1.05,1.18,1.7,3.6,2,5.24.35,2.25-.38,2.76-2.38,2.07a21.6,21.6,0,0,1-1.5-3.27c-.48-1.55,0-2,.29-3.18.63-.21.86-.61,1.49-.82" class="cls-3"/><rect data-cppathid="10079" transform="translate(-44.87 289.2) rotate(-35.4)" height="25.46" width="3.9" y="202.17" x="428.73" class="cls-44"/><polygon data-cppathid="10080" points="436.45 226.47 440.52 228.69 439.58 224.15 436.45 226.47" class="cls-45"/><polygon data-cppathid="10081" points="439.09 227.91 440.52 228.69 440.2 227.13 439.09 227.91"/><path data-cppathid="10082" d="M420.42,210c.7,2.87,1.41,3.46,3.93,4.82,1.44.77,3,3.63,4.75,2.51,2.35-1.53-.64-4.23-2-5.13-.39-.25-.77-.48-1.14-.7-2.07-1.2-4.73-3.11-4.54-5.2.26-2.81,1.76-4.28-.61-2.32-1.46,1.21-.4,4.14-.44,5.88" class="cls-3"/><path data-cppathid="10083" d="M431.62,204.82c1.17.26.82,4.86,1.13,6.06s1.78,6.24-.82,3.74c-1.54-1.47-1.89-3.76-2.9-5.58-.85-1.55-3-3.39-.76-4.49,1.24-.6,1.8.14,2.94.38" class="cls-3"/><path data-cppathid="10084" d="M391.33,150.85s-7.15-8.25-25.65,5.06-21.89,76.9-21.89,76.9,12.82,9.5,24.71,7.54,28.71-18.09,28.71-18.09-3.7-27-12.54-31.23-4.29-2.83-4.29-2.83,15.91-21.67,13.43-29.51Z" class="cls-46"/><path data-cppathid="10085" d="M418.46,228.69l1.73,5.14-6.54.4-5.84-9.68S414.76,225.37,418.46,228.69Z" class="cls-3"/><path data-cppathid="10086" d="M371.28,169.88s7.85,1.56,8.18,8.07c.16,3.26-3.79,17.54-3.82,23.46,6.57,2.9,24.62,16.76,29.9,20.34,1.81.86,7.14,2.58,9,4.55.7.75-1,.9-.52,1.45a75,75,0,0,1,.58,8.49s-1.49,8.56-11.57,1.29c-1.47-1.17-2-5.38-2.76-8.84-2.59-2.57-33.13-15-35.08-24.92C364.09,198.36,371.28,169.88,371.28,169.88Z" class="cls-3"/><path data-cppathid="10087" d="M362.62,189.41c2-11.56,13.65-30.15,13.65-30.15s7-6.21,8.17.24c.61,3.23-5.45,23.38-6.59,32.94C371.56,190.15,364.21,190.19,362.62,189.41Z" class="cls-42"/><path data-cppathid="10088" d="M363.57,188.35s-2.49.66-1.88,1.64a8.39,8.39,0,0,1,.88,2.46L361.1,194l1.32,1.29,5.07-.91s5.75.5,8.36,2.86,2.88-.95,2.88-.95-.94-1.57-.34-1.9,1.75-1.18,1.38-2S373.78,187,363.57,188.35Z" class="cls-43"/><path data-cppathid="10089" d="M406.76,238.16c1.26,2.31,1.45,4.63.43,5.18s-2.85-.87-4.11-3.18-1.44-4.63-.43-5.18S405.51,235.85,406.76,238.16Z" class="cls-3"/><path data-cppathid="10090" d="M411.18,239.15c1.26,2.31,1.45,4.63.43,5.18s-2.85-.87-4.11-3.18-1.44-4.63-.43-5.18S409.93,236.84,411.18,239.15Z" class="cls-3"/><path data-cppathid="10091" d="M416.47,238.29c1.26,2.31,1.29,4.71.09,5.37s-3.2-.69-4.46-3-1.29-4.72-.08-5.37S415.22,236,416.47,238.29Z" class="cls-3"/><path data-cppathid="10092" d="M479.08,132.09s-7.76-7-9.54,8.94,7.11,13,7.54,13.68,11.51-15.23,11.86-15.62S479.08,132.09,479.08,132.09Z" class="cls-47"/><path data-cppathid="10093" d="M496.4,183.91c-.42,4.71,13.23-1.09,8.14-6.24-2.81,1.53.72,4.6,3.2,1.71,1.49-1.72,1.61-5.9-.38-7,3.22-2.09-.29-8.1-2.2-4.33,5.63,6.54,8.18-13.63,1.82-7.54,7.68-1.93,1.25-15-3.27-7.58,5.24,1.57,3.86-10-2.73-9.53.81-1.64.58-5.6-1.15-6.75-2.28-1.52-4.74,1.3-2.31,2.69,1.27-3.23-3.42-2-4.72-.55-2.28,2.58-2.26,8,.55,10.05-5.91.57-10.29,11.6-3.53,14.17-4.5,2.91-7.52,11.81-.38,13.49-2.69-1.71-4.67,5.11-2.73,7.36,1.4,1.61,8.45,2.77,6.66-.46-1.55,1.19-1.25,3.65.93,3.55,1.73-.08,2.71-3.15,3.25-3.95" class="cls-48"/><path data-cppathid="10094" d="M484.94,194c-3.9.58-3.82,7.29-1.89,9.4,2.85,3.14,9.12,0,7.83-4.49-.44,3.87,6.32-1.78,3.44-4.07-2.89,6.12,13.15-3.19,5.8-6.14a9.94,9.94,0,0,1-.62.83c2.14,3.06,5.81-.67,5.68-3.82,0-.83-2.14-5.8-2.79-6.33-4.54-3.74-14.6,3.7-9.92,9.31-1.59-3.57-6.14.84-5.67,3.86-1.73.72-4.59,2.32-3.11,4.32-.07.25-.25-.24-.07-.53" class="cls-48"/><path data-cppathid="10095" d="M423.07,178.92c-.81,1.36-1.84,1.81-2.51,1.39s-.76-1.55,0-2.87,1.79-1.72,2.48-1.33S423.89,177.56,423.07,178.92Z" class="cls-38"/><path data-cppathid="10096" d="M392.91,166.69s0,0,1.29,1.35c.17.17.91.72.91.72s-.3-19.73,4.13-15.09c4.09,8.67,7.55,27.9,7.78,28.06,10,6.9,31.14,18.22,42.28,17.38,26.11-2,60.17-28.42,41-48.67s-39.65-15.86-57.59-14.33-43.32,8.21-47.09,14.6C382.32,156.35,392.91,166.69,392.91,166.69Z" class="cls-3"/><path data-cppathid="10097" d="M444,185c-2-.88-4.1-.62-4.62.58s.71,2.87,2.74,3.76,4.1.62,4.62-.57S446.05,185.86,444,185Z" class="cls-49"/><path data-cppathid="10098" d="M441.15,186.54a1.44,1.44,0,0,0-1.88.75,1.43,1.43,0,0,0,2.63,1.14A1.44,1.44,0,0,0,441.15,186.54Z" class="cls-14"/><path data-cppathid="10099" d="M476.48,207.13c4.95-1,6.51-4.44,6.76-7.26,4.83,3,23.06-14.54,14.31-16.09,4.28.5,4.53-4,2.88-6.28,2.7-2.38,3.15-9.11,0-9.63-.14-.66-.3-1.3-.46-1.89a3.25,3.25,0,0,0-.09-1.08,4.17,4.17,0,0,0,2-.94c2,.9,5.59-1.43,6-4.86a5.85,5.85,0,0,0-2.72-5.34,3.93,3.93,0,0,0-2.39-4.66l-.29-.09c0-1.27-1-1.81-2.39-1.84,1-3,1-6-.8-6.73a5.72,5.72,0,0,0,.39-3.39,6.57,6.57,0,0,0-6.08-5.17,5.7,5.7,0,0,0-2.05-4.22,10.12,10.12,0,0,0-5.89-1.55c0-1.93-2.08-3.7-4.41-4.1a4.59,4.59,0,0,0-.91-.05,3.51,3.51,0,0,0-2-3.46,4.12,4.12,0,0,0-2.68-.46,4,4,0,0,0-.37-.31c-1.52-1-3.62-.17-5,.63A6.11,6.11,0,0,0,468,120.7c-2.67,0-6,2.15-5.25,5.48-1.89-3.43-3.95-2.38-5.41,0a3.9,3.9,0,0,0,.32,2.32c-1.41-.07-2.83-.13-2.49,2.7.31,3.18,9.63,7.28,12.39,6.73-2.73,5.34,3.07,6.91,8,6.95-1.91,1.49-2,3-1.09,4.21a4.53,4.53,0,0,0-.91,2.43c0,1.81,1.68,3.37,3,3.23-.88,2.16-.22,5.51,2.32,5.63-.62,1.51-2.3,4.18-1.95,5.84.3,1.4,1.12,2.51,2.1,2.59-2.38,2.31-3,5.87-.7,8.59-4.27,3-3.94,4.94-2.67,8.35-3,1.45-6.65,5.59-6.22,8.72.13,3.07,2.82,4.94,5.14,4.21C472.57,202.41,473.18,208,476.48,207.13Z" class="cls-48"/><path data-cppathid="10100" d="M442,157.48c.54,0,1.39-.16,1.64-.71s-.2-.86-.71-.86-1.39.15-1.63.71.19.86.7.86Z" class="cls-50"/><path data-cppathid="10101" d="M435.15,154.12c1.45,0,1.88-1.91.2-1.91-1.45,0-1.88,1.91-.2,1.91Z" class="cls-50"/><path data-cppathid="10102" d="M431.58,163.84l.31.13,0,0a.85.85,0,0,0,.38.12,1.14,1.14,0,0,0,.45,0,1.41,1.41,0,0,0,.5-.12,1.19,1.19,0,0,0,.44-.21l.22-.18a.79.79,0,0,0,.24-.4V163a.52.52,0,0,0-.26-.32l-.31-.13,0,0a.85.85,0,0,0-.38-.12,1.14,1.14,0,0,0-.45,0,1.41,1.41,0,0,0-.5.12,1.19,1.19,0,0,0-.44.21l-.22.18a.79.79,0,0,0-.24.4v.2a.49.49,0,0,0,.26.32Z" class="cls-50"/><path data-cppathid="10103" d="M446.06,180.21c-2.47-1.07-5-.76-5.61.69s.86,3.5,3.33,4.57,5,.76,5.6-.69S448.52,181.28,446.06,180.21Z" class="cls-49"/><path data-cppathid="10104" d="M443.26,183.06a1.43,1.43,0,1,0,.74,1.88A1.42,1.42,0,0,0,443.26,183.06Z" class="cls-14"/><line data-cppathid="10105" y2="193.94" x2="443.77" y1="177.24" x1="449.53" class="cls-51"/><path data-cppathid="10106" d="M134.08,220.41c-.42,3.71-.89,6.26-.89,6.26s-7.41,7.78-3.45,7a8.78,8.78,0,0,0,5.54-3.41s-1.09,8.69.86,9.9,2.23-6.2,2.23-6.2,1.25,6.46,1.92,7.26.64-6.43.64-6.43,3.17,4.87,4.09,4.3-3.37-11.18-3.23-14.88c0-.74.35-2.45.77-4.73C144.22,210.34,134.71,215,134.08,220.41Z" class="cls-3"/><path data-cppathid="10107" d="M233.45,323.27c-.16,6.4-34.81,10.76-77.41,9.72s-77-7.06-76.86-13.46,34.82-10.75,77.42-9.72S233.61,316.87,233.45,323.27Z" class="cls-9"/><path data-cppathid="10108" d="M186.7,207l-2.42,3s-4.25.95-6.88-1.8c-3.53-3.71-1.59-3.74-1.59-3.74l3-3Z" class="cls-52"/><path data-cppathid="10109" d="M205.12,124.57c.13-.14,0-.25-.06-.37s-.33-.36-.5-.53a5.94,5.94,0,0,0,.52-.49c.12-.13,0-.26-.06-.37l-.72-.62.6-.32c.21-.12.28-.27.08-.45a10.54,10.54,0,0,0-1.22-.92c2.52.55,2.62-1.37,1.69-3.15a8.9,8.9,0,0,0,2.24-2.72c.08-.14-.24-.35-.31-.38l-.14-.07c.11-.28,0-.65-.43-1.13a6,6,0,0,0,.46-.53c.17-.21-.05-.4-.23-.49l-.74-.37a1.4,1.4,0,0,0,0-1.15,2.44,2.44,0,0,0,1.52-2.91c.18-.3,0-.61-.37-.89a2.88,2.88,0,0,0,1.71-1.63,1.92,1.92,0,0,0-.29-2.36,4.32,4.32,0,0,0,.44-.86c.47-1.24.35-2-.09-2.39l.27-.51c.06-.12-.06-.25-.23-.35a3.76,3.76,0,0,0,.25-.31c2.46-.4,5.38-1.21,3.53-2.86a2.69,2.69,0,0,0-.27-.2,1.63,1.63,0,0,0,.11-.17c1.5-2.63.86-3.81-.52-4a10.41,10.41,0,0,0,1.25-1c.35-.33-.59-.66-.76-.7L211.33,89c1.51-.78,1.95-2.2,1.19-3a1.32,1.32,0,0,0,.72-1.33c0-.26-.31-.41-.55-.49h0a4.78,4.78,0,0,0,1.83-2c.68-1.23-.58-1.62-2-1.69l.1-.14a2.66,2.66,0,0,0,2.46-3c-.11-.73-.95-1.17-1.47-1.53-1-.71,1.43-2,.92-3a1.57,1.57,0,0,0-.73-.69,5.47,5.47,0,0,0,.72-.43l.06-.11c-.44-2.5-2.76.42-.17-2.43.19-.2-.08-.39-.24-.49-2.34-1.39-3.67-1.27-6.12-.13-.78.37,1.47,1.09,2,.83,1.48-.88,1.47-.61,0,.79-.69.41.65.81.94.86a.76.76,0,0,1-.32,1L210,72l.08,0-.29,0c-.88.33,1.45.93,1.83.88a2.79,2.79,0,0,1-1.33,2.25c-.24.28.28.53.48.61,1.28.35,1.91.93,1.9,1.7-.65-.35-2-.46-2.1,0a4.1,4.1,0,0,0-.11.93,2.75,2.75,0,0,1-1.4,2.35c-.54.37,1.67.88,2,.79,2.27.1,1.48.81-2.37,2.16-1.25.21.91,1,1.36,1l-1.58,1a1.66,1.66,0,0,1-.21.06c-.86.3,1.43.95,1.84.88l.21,0a4.74,4.74,0,0,1,.35,2.23,14.58,14.58,0,0,0-3.24-.34c-1.21,0-.37.72.29.91a4.64,4.64,0,0,0-2,1.53c-.29.36.53.64.76.7.65.15,1.22.25,1.74.33a1.07,1.07,0,0,0-.18.37,2.2,2.2,0,0,0-.32.21c-.59.44,1.73.83,2,.79a4.66,4.66,0,0,0,1.77-.56,6.51,6.51,0,0,1-.81,1.49,12,12,0,0,0-4.76-.13c-.22,0-.46.13-.39.39a4.66,4.66,0,0,0,1.24,2.22c-1.16.55-2.2,1.18-2.21,1.19-.17.13,0,.27.2.39a9.79,9.79,0,0,0-1.15.39c-.64.27.39.74.62.79a8.38,8.38,0,0,0,.92.16,6.75,6.75,0,0,0-1.9,1.1c-.17.15-.07.29.13.42-.25,0-.59.15-.44.38a5.33,5.33,0,0,0,3.33,2.33c-.07.65-.14,1.35-.24,2a13.7,13.7,0,0,0-1.35-.48c-.5-.12-1.84,0-1.57.35-.53,0-1,.11-1.3.16-.5.09-.49.39-.12.64a9.6,9.6,0,0,0,3.64,1.66,3.53,3.53,0,0,1-.94,1.13,4.59,4.59,0,0,0-2.81.89c-.57.38,1.54.84,1.71.83,0,0,0,0,0,0a5.63,5.63,0,0,0-1.95,1.13c-.13.11-.11.2,0,.3a6.29,6.29,0,0,0-1.34,1.14c-.26.27.28.53.47.6s.44.15.65.22a1.37,1.37,0,0,0,.45.26c-.81.28-1.56,1.15-2.08,2.94-.12.43.9.64,1.33.69-.13.1-.27.18-.4.29s.11.42.24.49.37.2.56.3a3.17,3.17,0,0,0-2.15.45c-1.41.07-2.51.58-2.48,2a2,2,0,0,0-.53,3.39l-.29.14-.2,0c-.53-1.4-3.18-3-.05-5.37.57-.43-1.72-.83-2-.79a1.64,1.64,0,0,1-1-.09,4.83,4.83,0,0,1-.09-1.61s0-.07,0-.1a.83.83,0,0,0,.15-.11c.16-.12.1-.24-.07-.35a17.55,17.55,0,0,0,.78-4.21c0-.25-.28-.37-.49-.47,1.39-1.17.45-2.48-1.3-3-.53-.67-1.19-1.31-1.38-1.63-.3-.51-2.63-.89-2.41-.18a3.44,3.44,0,0,1-.17,2.15l-.13.05c-.3.15-.22.33,0,.47a5.22,5.22,0,0,0-.32,1.51s0,0,0,0c-.62-.12-1.58-.22-1.42.31a.67.67,0,0,0,.07.17,6,6,0,0,0-1,.37c-.88.42,1.28.93,1.57.91a7.25,7.25,0,0,0,1.56-.14l.11.06c.76,1.81-.73,2.73,0,4.13a9.42,9.42,0,0,0-1.29,2.42c-.05.12,0,.22.13.31l-.18.06a.25.25,0,0,0-.08.46l.64.49s0,0,0,0c-.92,1.25.85,2.68,1.94,3.09a2.53,2.53,0,0,0,0,.28,1.9,1.9,0,0,0-.36.87c-.18,1,.83,1.4,2,1.58.14.12.27.21.4.31a2.39,2.39,0,0,0-.22.12c-.55.39,1.53.84,1.72.82l.52,0a1.51,1.51,0,0,0,.53-.11c1.73.8,2.75.63,3.5-.25a3.16,3.16,0,0,0,.84-.38,2.45,2.45,0,0,0,2.82-.89s.05-.09.08-.14A6.81,6.81,0,0,0,205.12,124.57Zm-14.65-4.89a7.87,7.87,0,0,0-1-.06,3.75,3.75,0,0,1,.44-.72,2.47,2.47,0,0,0,.54.53C190.46,119.52,190.46,119.6,190.47,119.68Z" class="cls-18"/><path data-cppathid="10110" d="M215.42,52.2s-7.23,62.49-16.55,70.86-6.6-32.66-6.6-32.66S208.83,36.46,215.42,52.2Z" class="cls-53"/><path data-cppathid="10111" d="M184.3,220.16s.17,4.24.2,6.38c.6,41.47-12,85.91-12,85.91s9.08,6.6,10.59,9.83-21.95-2.12-21.95-2.12S167.3,262.84,166,250s-9.58,66.43-12.89,71.14-20.93,4.25-20.93,4.25,6.93-7.54,9.41-11.47S148,257.31,149,227.28c0-.82.07-2.39.07-2.39Z" class="cls-54"/><polygon data-cppathid="10112" points="160.07 129.54 159.43 133.18 166.16 138.68 168.82 133.19 160.07 129.54" class="cls-55"/><path data-cppathid="10113" d="M176.29,127.17s0-.06,1.51-1.39l7.59-6.83c2,.38-6-2.06-13.29-5.75,7.57-4.66,12.67-.54,20.47,6,.58.48,4.25-11.88,4.62-12.41C205.08,95.57,214,78,213.37,66.28,211.92,37.62,183.89-.43,161.17,20s-18.47,43-17.29,62.7,7.79,47.69,14.69,52C164.67,138.48,176.29,127.17,176.29,127.17Z" class="cls-3"/><path data-cppathid="10114" d="M197,75.42c-1.24,2.68-1,5.44.6,6.17s3.86-.85,5.1-3.52,1-5.44-.6-6.17S198.2,72.75,197,75.42Z" class="cls-49"/><path data-cppathid="10115" d="M196,76.73a1.57,1.57,0,1,0,2.08-.76A1.58,1.58,0,0,0,196,76.73Z" class="cls-14"/><path data-cppathid="10116" d="M189.92,72.38c-1,3-.34,5.91,1.43,6.49s4-1.4,5-4.4.33-5.91-1.43-6.48S190.89,69.38,189.92,72.38Z" class="cls-56"/><path data-cppathid="10117" d="M192.14,76.11a2,2,0,1,0,2.57-1.31A2,2,0,0,0,192.14,76.11Z" class="cls-14"/><path data-cppathid="10118" d="M160.08,25S160.2,42.19,158,48.5l-2.19,6.3a38.78,38.78,0,0,0-4-5.53l-1.53-1.43s-3.83,11.4-4.34,14.1a4.79,4.79,0,0,1-2.49,3.53s-1.31-18.25,4.28-30.31S160.08,25,160.08,25Z" class="cls-57"/><path data-cppathid="10119" d="M156,24.45c.91-5.28,10.76-9.78,18.18-8.95,8.24.92,17.46,3.72,24.23,8.69a52.75,52.75,0,0,1,16,19.32c1.54,3.19,2.72,6.93,4.27,10,2.31,4.58,2.66,4,7.21,5.29a6.4,6.4,0,0,0,2.85-.54c.26-.11.26-.12,0,0-10.19,8-27.9-16.49-36.37-19.26,2.07,3.69,2.75,6.95,4.2,10.93-6.74-3.25-16.74-6.34-20.51-13.06-.08-.26-.07-.27,0,0-.17,3.26,1.31,6.34,2.23,9.45-4.12-2.07-8-7.11-10.37-10.83-1.21,3.12.23,6.37-.29,9.36-3-1.87-4.77-7.09-6.6-10.35-1.61-2.86-5.1-6.64-5.48-9" class="cls-57"/><path data-cppathid="10120" d="M194.92,29.44c-15.81-4.46-34.52.95-43.26,16.24-4.33,7.57-6.45,17.08-7.67,25.16-1.33,8.91-2.82,18.14-3.14,26.76-.18,4.41-.88,24.41-10.22,16.8-6.55-5.35-2.57-18.14-1.33-24.24,1.79-8.81-2.2-13.81-1.81-22.51.39-9,5.36-19.38,8-28.18S145.94,16.63,155.05,11C162,6.61,170.37-.39,177.77.45c8.47,1,14.52,7.66,22.35,12.27C206,16.19,217.88,30,221,36.43c2.6,5.33,5.57,16.19-4.23,8.08-5.84-4.83-14.69-14.41-22.62-14.79" class="cls-58"/><path data-cppathid="10121" d="M177.77.45S192.92,9.7,190.5,26.27" class="cls-59"/><path data-cppathid="10122" d="M149,15.78s8-1,9.28,15.67" class="cls-59"/><path data-cppathid="10123" d="M209.44,21.51s7.89,6.88,6.14,16.57" class="cls-59"/><path data-cppathid="10124" d="M145.5,48.14h0S145.48,48.15,145.5,48.14Z" class="cls-18"/><path data-cppathid="10125" d="M225.57,43.15l-.19,0c-.72-2.19-2.29-3-3.81-2.61a4.22,4.22,0,0,0-3.41-.62,3.45,3.45,0,0,0-.38,0h0c-.19-.09-.38-.19-.57-.27-.06-.73-.69-1.26-1.59-1.56a2.48,2.48,0,0,0-1.25-1.63c-.21-.82-1-1.56-2.51-2A2,2,0,0,0,210.41,33a6.45,6.45,0,0,0-1.28-.28c-.56-.83-1.8-1.46-4-1.55a1.76,1.76,0,0,1-.23,0h0c.08-.16-.09-.31-.29-.42a1.6,1.6,0,0,0-.46-.19c-.29-.09-.56-.15-.84-.22a.5.5,0,0,0-.25-.3l-.24-.12.16-.13c.3-.25-.27-.56-.42-.64s-.5-.21-.75-.31a2.42,2.42,0,0,0-.94-.34,7,7,0,0,0-2.23-.28c0-.32-1-.63-1.09-.65a7.49,7.49,0,0,0-1.16-.12,7.67,7.67,0,0,0,.36-.7c.14-.3-.6-.56-.75-.61-2.07-.71-3.89-.79-5.27.13l-.23,0a7.24,7.24,0,0,0,.52-.88c.28-.58-1.62-.77-1.89-.68a8.27,8.27,0,0,0-1.59.7.3.3,0,0,1-.1,0,7.74,7.74,0,0,0-5.52,0c-.21-.36-1-.5-1.53-.47,0,0,0,0,0,0,.13-.3-.6-.56-.76-.61a7.8,7.8,0,0,0-4.09-.27l-.17,0a2.93,2.93,0,0,0-1.1.64,3.92,3.92,0,0,0-2.31.59c-1.8-1.32-5.05-1-5.47,1.69A5.75,5.75,0,0,0,162,28c-2.15.08-4.2,2.08-3.77,3.48-1,.13-1.8.52-1.8,1.06a5.14,5.14,0,0,0-2.94,1.26,2.41,2.41,0,0,0-.78,1c-1.61.13-2.9.81-2.66,2.44a3.64,3.64,0,0,0-.82,0c-2.36.16-1.37,3.93-3.39,5.12l-.91.37c-.23.09-.24.31-.08.48l.58.78a9.44,9.44,0,0,0-3.09,5.49c0,.16.16.34.27.4a6.21,6.21,0,0,0,2.9.93.29.29,0,0,0,0,.09,2.69,2.69,0,0,0-.95,1,1.49,1.49,0,0,0-.59.9s0,0,0,.06a.34.34,0,0,0,0,.1.43.43,0,0,0,0,.07s0,0,0,0l-.21.09-1.45.53c-.37.13-.23.33.05.5l-.67.64c-.42.41.79.78,1,.8h.07a1.07,1.07,0,0,0,.53.32,9.92,9.92,0,0,0-.29,1.54.39.39,0,0,0,.13.32,7.53,7.53,0,0,0-.8,1.14c-.17.29.16.52.61.65a1.84,1.84,0,0,0,.25.17,5.06,5.06,0,0,1-1.06,1c-.23.19.1.4.55.55l-1.28,1c-.34.28.33.51,1,.64,0,.38.8.59,1,.64-.36-.08-.57.28-.71.83-.22,0-.41.08-.48.2l-.17.22c-.49,0-.85.19-.55.45-.45.14-.39.33-.14.49-.3.4-.6.8-.88,1.22s.19.55.71.67a4.19,4.19,0,0,1-.68.62c-.47.34.81.67,1.36.77a5.58,5.58,0,0,0-2.57,1.85c-.41.56,1,.75,1.67.74a8.78,8.78,0,0,0-1.46,1.27c-.17.18.07.39.22.48a1.93,1.93,0,0,0,.58.22c-1,.66-1.92,1.36-1.43,1.31l-.11.05c-.83.48,1.33.94,1.7.86l.68-.17c.2.19-.26,1.15-.2,1.89a10,10,0,0,0-1.31.43c-.34.14-.2.34,0,.5l-.59.31c-1.2.26,1,1,1.51.91.13,0,.3,0,.47-.08A5.71,5.71,0,0,1,140,81.06a9.28,9.28,0,0,0-1.28.92c-.32.27.39.55,1.07.68l-.26.33c-.19.24,0,.41.3.53a9.15,9.15,0,0,0-.33.88.26.26,0,0,0,0,.15,2.91,2.91,0,0,0-1.06,1.26c-.09.2.28.38.44.46a6.39,6.39,0,0,0-.9,1c-.11.14-.06.24.05.36l.12.14a1.86,1.86,0,0,0,.8.38c-.12.33-.25.67-.43,1.06a.2.2,0,0,0,0,.15l-1.14.9c-.29.24.18.45.75.59a6.34,6.34,0,0,0-.36,1.22c-.06.26.24.45.64.58l.33.1a.74.74,0,0,0,.13.31c-.12.09-.24.17-.37.28s-.06.31.17.43c-.41.16-.71.39-.71.73,0,.91-.07.86.49,1.31a9.39,9.39,0,0,0-.88.92c-.15.17-.06.3.14.42q-.3.31-.63.63c-.33.32.39.58,1,.7l.13,0c0,.11-.06.22-.08.33-1.47.51-3.5,1.24-1.72.87-1.18.25.94,1,1.5.92l.27-.05a2.59,2.59,0,0,0,.37.15c-.42.39-.69.65-.54.57l-.07.06c-.15.11,0,.25.21.39l-.06.12a3.37,3.37,0,0,0-1.18.91.19.19,0,0,0,0,.28l-.11.1-.69.52c-.21.16.1.41.22.49l.08,0a2.73,2.73,0,0,0,.8.3l-.06.11a10.43,10.43,0,0,0-1.35,1.39c-.09.06-.11.12-.09.19,0,.23.39.43.89.54a2.6,2.6,0,0,0,.45.13c.21,0,.41,0,.62,0,0,.09,0,.18,0,.26a8.36,8.36,0,0,0-2.49.12c-.14,0-.5.16-.36.39a2.18,2.18,0,0,0,1.83,1.16c-.05.06-.09.13-.14.18l-.35,0c-.3,0-.76,0-.92.28s-.37.69-.53,1.09a5.86,5.86,0,0,0-3.41.55,2.26,2.26,0,0,0-1.21-.21l.56-.54c.5-.51-1.69-.93-2.15-.63l-.45.33a14.24,14.24,0,0,1-.5-4.26c0-.67-2-1-2.28-.4a8.76,8.76,0,0,0-.36,5.06c0,.21.42.34.65.42l0,0a1.5,1.5,0,0,0-.34.32c-.25.39.33.61.86.72-.3.22.19.49.76.65a6.18,6.18,0,0,0,3.18,2.13s0,0,0,.07l.18.74c.21.85,1.44,1,2,.55l.29-.18a1.75,1.75,0,0,0,1.85.76l1.53-.57c.48-.17.5-.49.35-.78a5.17,5.17,0,0,0,2.13-1.16c.15-.11,0-.27-.08-.38.13-.11.27-.22.41-.35s-.14-.44-.62-.59c1-.31,1.78-.78,1.27-1.47l-.22-.29a.41.41,0,0,0,.07-.11v-.16h0c.28-.34.12-.62-.2-.82a.92.92,0,0,0,0-.16,4.05,4.05,0,0,1,.64-1.43.33.33,0,0,0,.07-.13h0a11.08,11.08,0,0,0,1.2-2.48,1.52,1.52,0,0,0-.41-1.36,18.57,18.57,0,0,0,1.77-3c.24-.41,0-.75-.37-1A7,7,0,0,0,142.7,98c0-.17-.16-.29-.27-.37a2.44,2.44,0,0,0-.83-.37,10.68,10.68,0,0,0,.25-1.5,13.55,13.55,0,0,0,.74-1.64.19.19,0,0,0,0-.13c.25-.47.49-.94.73-1.44s-1.8-.71-2.08-.6l-.11,0a11.8,11.8,0,0,0,1.22-1.23c.26-.3-.25-.55-.83-.68a2,2,0,0,0,.74-2.81,1.11,1.11,0,0,0-.68-.47,2.44,2.44,0,0,0,0-.38.76.76,0,0,0,.11-.14,5.29,5.29,0,0,0,1.9-2.54.22.22,0,0,0-.08-.26,7.25,7.25,0,0,0,.81-1.32c.07-.15,0-.26-.21-.36a12.19,12.19,0,0,0,.41-1.46c.09-.34-.41-.54-.94-.62l.38-.91c.09-.22-.11-.37-.42-.48a1,1,0,0,0,.15-.34c.07-.29-.27-.47-.68-.56.69-1.21.69-2.17.24-2.76A4.31,4.31,0,0,0,144,72a2.08,2.08,0,0,0,.32-1.67,2.63,2.63,0,0,0-.09-.3,11.52,11.52,0,0,0,1.2-1.31c.19-.24,0-.43-.38-.56a6.39,6.39,0,0,0,.6-2.66.56.56,0,0,0-.29-.44l0-.16a2.14,2.14,0,0,0,.45-1,1.05,1.05,0,0,0,.07-.11.27.27,0,0,0,0-.33,8.84,8.84,0,0,0,0-1.42,2.45,2.45,0,0,0,.67-1.2l.26-.5c.14-.29-.63-.54-.76-.58l-.15,0a10.15,10.15,0,0,0,.59-1.45.24.24,0,0,0-.07-.26,3,3,0,0,0,.31,0c.47-.06.9-.33.36-.71a1.69,1.69,0,0,0-.52-.26A32.88,32.88,0,0,0,149,52.69a3.75,3.75,0,0,0,2.39-2.33c.23-.46-.83-.64-1.46-.68a.47.47,0,0,0-.11-.19.76.76,0,0,1-.11-.14.84.84,0,0,0-.24-.16l.6-.78a1.73,1.73,0,0,0,1.18-1.07l.44-.06c1-.12.57-.54,0-.8.9-1.06,1.65-1.9,1.7-1.92.48-.24,0-.57-.34-.74l.06,0c.22-.16.22-.3.11-.44,2.21-.08,2.41-.48,3.36-2.72.06-.14,0-.26-.18-.36a1.83,1.83,0,0,0,.95-1.16,4.48,4.48,0,0,0,2.55-1.72c1.49.36,3,.31,3.86-.49A4.14,4.14,0,0,0,165,34.18a4.35,4.35,0,0,0,1.56-1.13l0,0,1.06-.4a8.14,8.14,0,0,0,1.48-.33,2.55,2.55,0,0,0,.66-.33.84.84,0,0,0,.28-.06l.14-.1h0c.26-.17.52-.36.76-.54a2.25,2.25,0,0,0,2,.3,4.61,4.61,0,0,0,1.43-.88,5.05,5.05,0,0,0,3.28.21,4,4,0,0,0,1.53.14,5.39,5.39,0,0,0,4-.43,5,5,0,0,0,1.37-.44,4.82,4.82,0,0,0,1.45-.45l0,0,.09,0c.9,3,3.72,2.54,6,1.16l.35-.09a2.83,2.83,0,0,0,.55-.21l.11,0,.08,0-.07.06c-.14.11-.05.3,0,.4s.49.44.74.64c-.11.2,0,.39.22.49a14.73,14.73,0,0,0,3.63,1.38,4.39,4.39,0,0,0,.25,1c.56,1.52,2.32,1.91,4.18,1.74a4.72,4.72,0,0,0,1.16.76l.2.11a15.22,15.22,0,0,0,1.89.73,5.53,5.53,0,0,0,2.38,2.33c.05.19.36.36.49.42a9.64,9.64,0,0,0,1,.41c.82,1.63,3.55,3.3,6.08,3.35a4.61,4.61,0,0,0,2.09,1.33h0c-.24.75.34,1.32,1.23,1.72.28.94,1.31,1.68,3.4,1.8a2.49,2.49,0,0,0,2.69-1.86C226.37,46.2,227.67,43.86,225.57,43.15Z" class="cls-18"/><path data-cppathid="10126" d="M143.24,45.53h0S143.22,45.54,143.24,45.53Z" class="cls-18"/><path data-cppathid="10127" d="M223.3,40.54l-.18,0c-.73-2.2-2.29-3-3.81-2.61a4.16,4.16,0,0,0-3.42-.62,1.83,1.83,0,0,0-.37,0h0l-.57-.28c-.06-.72-.69-1.26-1.59-1.56a2.53,2.53,0,0,0-1.25-1.63c-.22-.81-1-1.55-2.51-2a2,2,0,0,0-1.41-1.45,6.56,6.56,0,0,0-1.29-.28c-.56-.82-1.8-1.45-4-1.55h-.22v0c.08-.16-.1-.3-.3-.41a1.73,1.73,0,0,0-.46-.2l-.83-.21a.53.53,0,0,0-.26-.31l-.23-.12.16-.12c.29-.26-.28-.57-.43-.64s-.5-.22-.74-.32a2.64,2.64,0,0,0-1-.34,6.92,6.92,0,0,0-2.23-.27c0-.33-1-.64-1.08-.66a8.81,8.81,0,0,0-1.16-.11,7.86,7.86,0,0,0,.36-.71c.14-.3-.6-.56-.76-.61-2.07-.7-3.88-.79-5.27.14l-.23,0a7.34,7.34,0,0,0,.53-.88c.27-.58-1.62-.77-1.89-.68a8.25,8.25,0,0,0-1.59.71l-.11,0a7.71,7.71,0,0,0-5.51,0c-.21-.35-1-.49-1.53-.47h0c.14-.31-.59-.56-.75-.61a7.86,7.86,0,0,0-4.1-.28l-.16,0a2.79,2.79,0,0,0-1.11.65,4,4,0,0,0-2.3.58c-1.8-1.31-5.06-1-5.47,1.7a5.7,5.7,0,0,0-4.48,1c-2.15.07-4.2,2.08-3.76,3.47-1,.14-1.8.52-1.8,1.07a5.17,5.17,0,0,0-2.94,1.25,2.4,2.4,0,0,0-.79,1c-1.61.13-2.89.81-2.65,2.44a3.73,3.73,0,0,0-.83,0c-2.36.17-1.36,3.93-3.38,5.12l-.91.37a.29.29,0,0,0-.09.49l.58.78a9.52,9.52,0,0,0-3.09,5.49c0,.16.17.33.28.4a6.29,6.29,0,0,0,2.9.93.11.11,0,0,0,0,.08,2.67,2.67,0,0,0-1,1,1.53,1.53,0,0,0-.58.89s0,0,0,.06a.2.2,0,0,0,0,.11s0,0,0,.06a0,0,0,0,1,0,0l-.21.08-1.45.53c-.36.14-.22.33.06.51l-.68.63c-.41.41.8.78,1,.81h.06a1.38,1.38,0,0,0,.53.32,11.52,11.52,0,0,0-.28,1.54.36.36,0,0,0,.12.31,8.09,8.09,0,0,0-.79,1.15c-.17.28.15.51.6.65A2.56,2.56,0,0,0,141,57a4.88,4.88,0,0,1-1.06,1c-.23.19.1.39.56.54l-1.28,1c-.34.26.32.5,1,.63,0,.38.81.59,1.05.64-.36-.08-.58.29-.71.84a.66.66,0,0,0-.49.19c0,.08-.11.15-.17.23-.49,0-.84.18-.55.45-.44.14-.39.32-.13.49-.3.4-.6.8-.89,1.21s.19.55.71.67a4.11,4.11,0,0,1-.67.63c-.47.34.81.66,1.36.76a5.63,5.63,0,0,0-2.58,1.86c-.41.55,1,.74,1.67.74a7.87,7.87,0,0,0-1.45,1.26c-.18.19.06.4.22.49a2,2,0,0,0,.57.21c-1,.66-1.91,1.37-1.43,1.32l-.1.05c-.84.48,1.33.94,1.69.85s.47-.11.68-.17c.21.19-.26,1.16-.2,1.9a9.06,9.06,0,0,0-1.31.42c-.34.14-.2.34,0,.5l-.59.32c-1.2.25,1,1,1.5.91l.47-.09a5.41,5.41,0,0,1-1.19,1.51,11,11,0,0,0-1.27.93c-.32.26.38.55,1.06.68l-.26.32c-.19.24,0,.42.31.54a8.79,8.79,0,0,0-.33.87.22.22,0,0,0,0,.16,2.94,2.94,0,0,0-1.07,1.26c-.08.2.29.38.45.45a7.06,7.06,0,0,0-.91,1c-.1.14-.05.24.06.36l.11.13a2,2,0,0,0,.81.39c-.12.33-.26.67-.43,1.05a.14.14,0,0,0,0,.15l-1.15.91c-.29.24.19.45.75.59a8.18,8.18,0,0,0-.36,1.22c-.05.25.25.45.65.57a1.7,1.7,0,0,0,.32.1,1.15,1.15,0,0,0,.13.31l-.36.28c-.19.17-.07.31.16.43-.4.17-.71.4-.71.73,0,.92-.07.87.5,1.31a10.8,10.8,0,0,0-.88.92c-.16.17-.06.31.13.42-.2.21-.4.42-.62.63s.38.58,1,.71l.13,0-.08.32c-1.46.52-3.5,1.24-1.72.87-1.17.25.95,1,1.51.92l.26,0a2.29,2.29,0,0,0,.38.16c-.42.39-.69.64-.55.57l-.07.05c-.15.11,0,.26.22.4l-.07.11c-.44.11-.94.7-1.17.91a.21.21,0,0,0,0,.29l-.1.1-.7.51c-.21.17.1.41.22.49l.09.06a2.33,2.33,0,0,0,.79.29,1.17,1.17,0,0,1-.05.11,10,10,0,0,0-1.36,1.4c-.09.05-.11.11-.08.18,0,.23.39.44.89.55a1.68,1.68,0,0,0,.45.12c.21,0,.41,0,.62.06a1.87,1.87,0,0,0,0,.25,9.06,9.06,0,0,0-2.49.12c-.14,0-.51.17-.37.39a2.2,2.2,0,0,0,1.83,1.17l-.14.18a3.17,3.17,0,0,0-.35-.06c-.3,0-.75,0-.91.29s-.37.69-.53,1.08a5.91,5.91,0,0,0-3.42.55,2.45,2.45,0,0,0-1.2-.21l.56-.54c.5-.5-1.7-.93-2.15-.62-.16.1-.3.22-.45.32a14.23,14.23,0,0,1-.51-4.26c0-.67-2-1-2.27-.4a8.6,8.6,0,0,0-.35,5.06c0,.21.41.35.63.42l0,0a1.34,1.34,0,0,0-.34.33c-.25.38.32.6.85.71-.29.23.2.49.76.66A6.16,6.16,0,0,0,127.9,112s0,0,0,.07c.07.25.13.5.19.75.21.85,1.43.94,2,.54l.29-.18a1.72,1.72,0,0,0,1.84.76l1.54-.56c.47-.18.5-.49.35-.79a5.21,5.21,0,0,0,2.13-1.15c.15-.12,0-.27-.09-.38l.41-.35c.23-.21-.13-.44-.62-.6,1-.3,1.78-.77,1.27-1.46a2.21,2.21,0,0,0-.22-.29.29.29,0,0,0,.07-.12.86.86,0,0,0,0-.16h0c.29-.35.13-.63-.2-.83a.39.39,0,0,0,0-.15,4.42,4.42,0,0,1,.64-1.44.25.25,0,0,0,.08-.12h0a11.33,11.33,0,0,0,1.2-2.49,1.54,1.54,0,0,0-.41-1.36,20.53,20.53,0,0,0,1.77-3c.24-.42,0-.76-.38-1a7.28,7.28,0,0,0,.62-2.35c0-.17-.16-.29-.28-.37a2.28,2.28,0,0,0-.83-.37,10.49,10.49,0,0,0,.26-1.49,15.32,15.32,0,0,0,.74-1.64.22.22,0,0,0,0-.14c.24-.46.49-.94.73-1.44s-1.8-.7-2.08-.59l-.12,0a11.81,11.81,0,0,0,1.23-1.22c.26-.31-.26-.55-.83-.68a2,2,0,0,0,.74-2.81,1.16,1.16,0,0,0-.68-.48c0-.12,0-.24,0-.37l.1-.14a5.27,5.27,0,0,0,1.9-2.55.24.24,0,0,0-.07-.26,7.35,7.35,0,0,0,.8-1.31c.08-.15,0-.26-.21-.37a11.24,11.24,0,0,0,.42-1.45c.09-.35-.41-.55-.95-.63.13-.28.25-.57.39-.91s-.12-.37-.42-.47a1.11,1.11,0,0,0,.14-.34c.07-.3-.26-.47-.68-.56.7-1.21.7-2.18.24-2.76a4.35,4.35,0,0,0,.75-2.61,2.14,2.14,0,0,0,.32-1.67c0-.11-.07-.21-.1-.3a11.46,11.46,0,0,0,1.2-1.31c.2-.25,0-.43-.38-.56a6.55,6.55,0,0,0,.61-2.66.59.59,0,0,0-.3-.45l0-.15a2.06,2.06,0,0,0,.46-1s0-.08.07-.12a.24.24,0,0,0,0-.32,10,10,0,0,0,0-1.42,2.61,2.61,0,0,0,.67-1.21c.08-.15.17-.31.26-.5s-.63-.53-.77-.58l-.15,0a8.83,8.83,0,0,0,.6-1.44.27.27,0,0,0-.07-.26l.31,0c.47-.06.9-.34.36-.72a2,2,0,0,0-.53-.26,32.13,32.13,0,0,0,2.47-4.3,3.78,3.78,0,0,0,2.4-2.34c.22-.45-.84-.64-1.47-.68a.41.41,0,0,0-.1-.18l-.12-.14a.73.73,0,0,0-.23-.16l.6-.79A1.71,1.71,0,0,0,149,44.72l.45,0c1-.13.56-.54-.05-.8.91-1.07,1.65-1.9,1.7-1.93.48-.23,0-.57-.33-.73l.05,0c.23-.16.22-.31.11-.45,2.21-.08,2.41-.48,3.37-2.71.06-.14,0-.26-.18-.36a1.88,1.88,0,0,0,1-1.16,4.58,4.58,0,0,0,2.55-1.73c1.49.36,3,.32,3.85-.49a4.18,4.18,0,0,0,1.27-2.71,4.34,4.34,0,0,0,1.56-1.14l0,0c.35-.12.71-.25,1.06-.39a8,8,0,0,0,1.48-.34,3.18,3.18,0,0,0,.67-.32.67.67,0,0,0,.28-.07l.13-.09h0c.26-.17.51-.35.76-.53a2.22,2.22,0,0,0,1.94.29,4.44,4.44,0,0,0,1.44-.87,5,5,0,0,0,3.27.21,4.15,4.15,0,0,0,1.53.13,5.33,5.33,0,0,0,4-.43,4.83,4.83,0,0,0,1.38-.44,4.67,4.67,0,0,0,1.44-.45l0,0,.09,0c.89,3,3.72,2.55,6,1.16l.35-.08a4.48,4.48,0,0,0,.55-.21l.12-.05.08.05-.08.06c-.13.1,0,.3.05.39a9.19,9.19,0,0,0,.75.65c-.11.19,0,.38.22.49A14.42,14.42,0,0,0,195.5,31a4.46,4.46,0,0,0,.25,1c.56,1.52,2.31,1.9,4.17,1.74a5.25,5.25,0,0,0,1.16.76,2.21,2.21,0,0,0,.21.11,16.29,16.29,0,0,0,1.89.72,5.39,5.39,0,0,0,2.37,2.33c0,.19.37.37.5.43.35.16.68.29,1,.4.82,1.64,3.55,3.3,6.09,3.36a4.51,4.51,0,0,0,2.08,1.32h0c-.24.75.33,1.32,1.22,1.71.28,1,1.31,1.69,3.4,1.81a2.5,2.5,0,0,0,2.69-1.86C224.1,43.58,225.4,41.25,223.3,40.54Z" class="cls-18"/><path data-cppathid="10128" d="M160.61,24.15s-2.52,6.41.84,10.13S136,36.09,136,36.09l4.3-12Z" class="cls-60"/><g class="cls-2"><g class="cls-61"><path data-cppathid="10129" d="M170.53,35.12a10.39,10.39,0,0,0-1.52.49,8.29,8.29,0,0,0-1.32.7,5.87,5.87,0,0,0-1.08.9,5.43,5.43,0,0,0-.8,1.1,4.56,4.56,0,0,0-.53,2.73,6,6,0,0,0,1.14,2.78,10.53,10.53,0,0,0,2.67,2.54,17.36,17.36,0,0,0,4,2,10,10,0,0,0,2,.48,14.75,14.75,0,0,0,2.24.13,18.4,18.4,0,0,0,2.41-.21,22.22,22.22,0,0,0,2.46-.55l.34-.11.34-.11.34-.11.34-.12A18.71,18.71,0,0,0,186,46.73a14.74,14.74,0,0,0,2-1.22,8.83,8.83,0,0,0,1.44-1.3,4.51,4.51,0,0,0,.84-1.31,2.47,2.47,0,0,0,.13-.48,2.35,2.35,0,0,0,0-.45,1.56,1.56,0,0,0-.08-.42,2.37,2.37,0,0,0-.17-.41,4.67,4.67,0,0,0-1.39-1.38,15.75,15.75,0,0,0-2.31-1.28c-.89-.41-1.87-.81-2.91-1.2s-2.1-.78-3.17-1.17l-.83-.29a17.59,17.59,0,0,0-2.37-.68,18.93,18.93,0,0,0-2.33-.33,15,15,0,0,0-2.22,0,12.27,12.27,0,0,0-2.07.31" class="cls-62"/><path data-cppathid="10130" d="M200.09,44.59l-.19.06a3.73,3.73,0,0,0-.4.2,2.14,2.14,0,0,0-.32.28,1.64,1.64,0,0,0-.26.37,2.77,2.77,0,0,0-.2.46,4.31,4.31,0,0,0-.19,1.54,9.56,9.56,0,0,0,.28,1.93,16.27,16.27,0,0,0,.75,2.19A18.23,18.23,0,0,0,200.74,54a20.36,20.36,0,0,0,1.65,2.4,17.73,17.73,0,0,0,1.89,2A14.32,14.32,0,0,0,206.33,60a10,10,0,0,0,2.09,1.05,18.29,18.29,0,0,0,2.5.72,16.53,16.53,0,0,0,2.32.32,12,12,0,0,0,2.1-.07,8.27,8.27,0,0,0,1.81-.44,5.54,5.54,0,0,0,1.22-.6,4.9,4.9,0,0,0,1-.82,4.4,4.4,0,0,0,.7-1,4.88,4.88,0,0,0,.42-1.22,5.23,5.23,0,0,0,.07-1.43,6.24,6.24,0,0,0-.32-1.48,7.65,7.65,0,0,0-.68-1.5,10.6,10.6,0,0,0-1-1.48,12.28,12.28,0,0,0-1.42-1.47,14.5,14.5,0,0,0-1.67-1.29,19.19,19.19,0,0,0-1.87-1.11,19.92,19.92,0,0,0-2.06-.88l-.83-.3c-1-.37-2.08-.75-3.1-1.09s-2-.66-2.92-.91a17.92,17.92,0,0,0-2.56-.5,5.19,5.19,0,0,0-2,.1" class="cls-62"/><path data-cppathid="10131" d="M182.21,48.23a22.22,22.22,0,0,1-2.46.55,18.4,18.4,0,0,1-2.41.21,14.75,14.75,0,0,1-2.24-.13,10,10,0,0,1-2-.48,17.36,17.36,0,0,1-4-2,10.53,10.53,0,0,1-2.67-2.54A6,6,0,0,1,165.28,41a4.56,4.56,0,0,1,.53-2.73,5.43,5.43,0,0,1,.8-1.1,5.87,5.87,0,0,1,1.08-.9,8.29,8.29,0,0,1,1.32-.7,10.39,10.39,0,0,1,1.52-.49,12.27,12.27,0,0,1,2.07-.31,15,15,0,0,1,2.22,0,18.93,18.93,0,0,1,2.33.33,17.59,17.59,0,0,1,2.37.68l.83.29c1.07.39,2.14.77,3.17,1.17s2,.79,2.91,1.2a15.75,15.75,0,0,1,2.31,1.28,4.67,4.67,0,0,1,1.39,1.38,2.37,2.37,0,0,1,.17.41,1.56,1.56,0,0,1,.08.42,2.35,2.35,0,0,1,0,.45,2.47,2.47,0,0,1-.13.48,4.51,4.51,0,0,1-.84,1.31,8.83,8.83,0,0,1-1.44,1.3,14.74,14.74,0,0,1-2,1.22,18.71,18.71,0,0,1-2.39,1.05l-.34.12-.34.11-.34.11-.34.11M170.11,34a11,11,0,0,0-1.79.58,9.71,9.71,0,0,0-1.57.82,8,8,0,0,0-1.29,1.07,6.19,6.19,0,0,0-1,1.32,5.64,5.64,0,0,0-.7,3.22A6.94,6.94,0,0,0,165,44.31a12,12,0,0,0,3,2.95,19.12,19.12,0,0,0,4.54,2.32,11.83,11.83,0,0,0,2.4.57,14.68,14.68,0,0,0,2.58.13,19.52,19.52,0,0,0,2.63-.26,22.47,22.47,0,0,0,2.58-.6,21.14,21.14,0,0,0,3.07-1.15,17.83,17.83,0,0,0,2.6-1.47,11,11,0,0,0,2-1.68,5.76,5.76,0,0,0,1.14-1.75,3,3,0,0,0-.25-2.78,7.31,7.31,0,0,0-2.54-2.2,29.65,29.65,0,0,0-4-1.87c-1.5-.59-3.12-1.15-4.72-1.73a19.41,19.41,0,0,0-5.13-1.09,18.38,18.38,0,0,0-2.46,0,15.2,15.2,0,0,0-2.29.35" class="cls-63"/><path data-cppathid="10132" d="M217.15,61.59a8.27,8.27,0,0,1-1.81.44,12,12,0,0,1-2.1.07,16.53,16.53,0,0,1-2.32-.32,18.29,18.29,0,0,1-2.5-.72A10,10,0,0,1,206.33,60a14.32,14.32,0,0,1-2.05-1.61,17.73,17.73,0,0,1-1.89-2,20.36,20.36,0,0,1-1.65-2.4,18.23,18.23,0,0,1-1.18-2.33,16.27,16.27,0,0,1-.75-2.19,9.56,9.56,0,0,1-.28-1.93,4.31,4.31,0,0,1,.19-1.54,2.77,2.77,0,0,1,.2-.46,1.64,1.64,0,0,1,.26-.37,2.14,2.14,0,0,1,.32-.28,3.73,3.73,0,0,1,.4-.2l.19-.06a5.19,5.19,0,0,1,2-.1,17.92,17.92,0,0,1,2.56.5c.92.25,1.91.56,2.92.91s2.06.72,3.1,1.09l.83.3a19.92,19.92,0,0,1,2.06.88,19.19,19.19,0,0,1,1.87,1.11,14.5,14.5,0,0,1,1.67,1.29A12.28,12.28,0,0,1,218.49,52a10.6,10.6,0,0,1,1,1.48,7.65,7.65,0,0,1,.68,1.5,6.24,6.24,0,0,1,.32,1.48,5.23,5.23,0,0,1-.07,1.43,4.88,4.88,0,0,1-.42,1.22,4.4,4.4,0,0,1-.7,1,4.9,4.9,0,0,1-1,.82,5.54,5.54,0,0,1-1.22.6M199.52,43.47a3.14,3.14,0,0,0-.68.28,2.44,2.44,0,0,0-.59.42,2.65,2.65,0,0,0-.47.57,3.24,3.24,0,0,0-.35.75,7.56,7.56,0,0,0,0,4,19,19,0,0,0,2.06,5,21.93,21.93,0,0,0,3.71,4.74,14.42,14.42,0,0,0,4.85,3.14,21.2,21.2,0,0,0,2.77.79,17.55,17.55,0,0,0,2.59.34,12.84,12.84,0,0,0,2.35-.09,9.76,9.76,0,0,0,2.05-.51,7.38,7.38,0,0,0,1.46-.73,6.57,6.57,0,0,0,1.16-1,6,6,0,0,0,.84-1.25,6.43,6.43,0,0,0,.49-1.48,6.89,6.89,0,0,0-.31-3.55,11.33,11.33,0,0,0-2-3.45,16.74,16.74,0,0,0-3.34-3,19.47,19.47,0,0,0-4.37-2.21c-1.18-.43-2.37-.86-3.52-1.26s-2.28-.76-3.34-1.05a19.34,19.34,0,0,0-3-.58,6.46,6.46,0,0,0-2.41.15" class="cls-63"/><path data-cppathid="10133" d="M194.68,50.5l-.49.06h.12l.06,0h.14l.17,0m23.16,12.37a9.76,9.76,0,0,1-2.05.51,12.84,12.84,0,0,1-2.35.09,17.55,17.55,0,0,1-2.59-.34,21.2,21.2,0,0,1-2.77-.79,14.42,14.42,0,0,1-4.85-3.14,21.93,21.93,0,0,1-3.71-4.74,19,19,0,0,1-2.06-5,7.56,7.56,0,0,1,0-4,3.24,3.24,0,0,1,.35-.75,2.65,2.65,0,0,1,.47-.57,2.44,2.44,0,0,1,.59-.42,3.14,3.14,0,0,1,.68-.28,6.46,6.46,0,0,1,2.41-.15,19.34,19.34,0,0,1,3,.58c1.06.29,2.19.65,3.34,1.05s2.34.83,3.52,1.26a19.47,19.47,0,0,1,4.37,2.21,16.74,16.74,0,0,1,3.34,3,11.33,11.33,0,0,1,2,3.45,6.89,6.89,0,0,1,.31,3.55,6.43,6.43,0,0,1-.49,1.48,6,6,0,0,1-.84,1.25,6.57,6.57,0,0,1-1.16,1,7.38,7.38,0,0,1-1.46.73M182.75,49.42a22.47,22.47,0,0,1-2.58.6,19.52,19.52,0,0,1-2.63.26,14.68,14.68,0,0,1-2.58-.13,11.83,11.83,0,0,1-2.4-.57A19.12,19.12,0,0,1,168,47.26a12,12,0,0,1-3-2.95,6.94,6.94,0,0,1-1.23-3.26,5.64,5.64,0,0,1,.7-3.22,6.19,6.19,0,0,1,1-1.32,8,8,0,0,1,1.29-1.07,9.71,9.71,0,0,1,1.57-.82,11,11,0,0,1,1.79-.58,15.2,15.2,0,0,1,2.29-.35,18.38,18.38,0,0,1,2.46,0A19.41,19.41,0,0,1,180,34.79c1.6.58,3.22,1.14,4.72,1.73a29.65,29.65,0,0,1,4,1.87,7.31,7.31,0,0,1,2.54,2.2,3,3,0,0,1,.25,2.78,5.76,5.76,0,0,1-1.14,1.75,11,11,0,0,1-2,1.68,17.83,17.83,0,0,1-2.6,1.47,21.14,21.14,0,0,1-3.07,1.15m-13.56-17.7a16.1,16.1,0,0,0-2.38.74,13.15,13.15,0,0,0-2.11,1.1A10.9,10.9,0,0,0,162.93,35a9,9,0,0,0-1.34,1.79A7.93,7.93,0,0,0,160.53,41a8.93,8.93,0,0,0,1.36,4.31,14.3,14.3,0,0,0,3.68,3.9,22.32,22.32,0,0,0,5.74,3,15.26,15.26,0,0,0,3,.75,18.91,18.91,0,0,0,3.2.18,21.93,21.93,0,0,0,3.22-.31,24.68,24.68,0,0,0,3.11-.73c.47-.14.93-.3,1.38-.46s.88-.34,1.31-.53.84-.38,1.25-.58.79-.42,1.17-.64c.71,0,1.41,0,2.07.08a7,7,0,0,1,1.88.31,3.77,3.77,0,0,1,1.6,1,6.3,6.3,0,0,1,1.25,2.27,25.13,25.13,0,0,0,2,3.56,24.81,24.81,0,0,0,2.66,3.32,21.27,21.27,0,0,0,3.24,2.78,16,16,0,0,0,3.69,1.92,24.48,24.48,0,0,0,3.39,1,20.4,20.4,0,0,0,3.19.39,15.18,15.18,0,0,0,2.9-.15,12.53,12.53,0,0,0,2.55-.66,9.45,9.45,0,0,0,2-1,8.15,8.15,0,0,0,1.57-1.41,7.67,7.67,0,0,0,1.13-1.76,8.34,8.34,0,0,0,.64-2.07,9.48,9.48,0,0,0-.4-4.64,14.59,14.59,0,0,0-2.48-4.42,20.19,20.19,0,0,0-4.1-3.79,22.92,22.92,0,0,0-5.33-2.75l-1.64-.58c-.78-.28-1.63-.59-2.53-.89s-1.84-.59-2.79-.84a26.8,26.8,0,0,0-2.85-.6,13.45,13.45,0,0,0-2.73-.13c-.71-.22-1.41-.45-2.1-.7s-1.37-.5-2.05-.77-1.35-.57-2-.88-1.31-.65-2-1l0,0a17.79,17.79,0,0,0-2.12-1.34c-.75-.41-1.54-.79-2.34-1.14s-1.59-.67-2.37-1-1.52-.57-2.21-.82L181,32.59a25.07,25.07,0,0,0-3.06-.87,23,23,0,0,0-3-.42,20.74,20.74,0,0,0-3,0,18,18,0,0,0-2.79.42" class="cls-64"/></g></g><path data-cppathid="10134" d="M151.35,156.58s-2.65,18.94-2,23.71c0,0-3,2.48-.56,8,0,0-8.7,27.2-3.42,35.73,0,0,37.66-.91,41.74-3.37,0,0-.8-27.07-2.51-32.22,0,0,2-5.44-1.6-9.18.45-3.64-10.05-37.88-11.81-40.48s-2.86-4.38-2.86-4.38a4.81,4.81,0,0,1-1.51,2.74,3.35,3.35,0,0,1-1.05.6c-1.37.49-3.47.29-6.63-1.67C150.87,131,151.35,156.58,151.35,156.58Z" class="cls-65"/><path data-cppathid="10135" d="M167.9,138S183,177,178.62,221.79" class="cls-66"/><path data-cppathid="10136" d="M154.29,128.51c-1.84-.47-10.66,5.23-5.46,6.1-1,1.56-1.22,2.73.36,2.63-3.06,1-2.13,4.56.19,6-.94,2.24-.12,5.61,2.54,5a2.79,2.79,0,0,0,.82,5.29c-.47,2.72,2.54,5.68,4.32,2.73-1.34,1.66-.7,3,1.59,2.19a6.58,6.58,0,0,1,1.26-3.89c1.9,1.54,3,.27,2.64-2.12.49-.27,2-1.12,2.4-1.28,1.09,2.26,4.69-1.13,3.36-2.25,2-.67-.14-5.87-2.75-8.37a3.66,3.66,0,0,0-2.82-1.32c0,.1.11-.14.58-.43-.11,0-1.46-.34-1.65-.44.66-1.95-.51-2.68-2.57-2.3-.35.26,1-.47.77-.39a19.22,19.22,0,0,0-2.24-1.86c-.33,0-.33,0,0,.07a.44.44,0,0,0,.54-.46c-1.45-1.14-2.28-2.61-3.48-3.6" class="cls-67"/><path data-cppathid="10137" d="M172.29,133.42a3.38,3.38,0,0,0-1.83,1.28c.91.62.83,1.12,2.07,1.46-.71,0-1.72.7-2.46.81a5.15,5.15,0,0,0,3,3.92,1.52,1.52,0,0,0-.87.05c0,2.11,1.92,3.47,3.37,1.83-2.85.15-3.95,3.29-1.88,3.72l-.77.22c.06.5.67.21.87.78a8.66,8.66,0,0,0-1.27,1.67,16.43,16.43,0,0,0,5.85-.25c-.29.38-.73.89-1,1.23,5.22.12,5.94-6.78,1.4-4.68,1.61-.76,5-1.43,4.7-3.43s-3.9-2.35-5.41-2.3c.59-.32,1.05-1,1.59-1.32-.72-2.44-3.34-3.39-5.13-1.49a3.15,3.15,0,0,0,2.16-3.76c-1.24-.3-4.14.36-3.89.27" class="cls-67"/><path data-cppathid="10138" d="M143.48,222.79c2.92-.5,5.65-2.52,7.29-7.51s-1.12-20.1-2.24-33-2.27-8.87-2.27-8.87l2.27-1.63s2.4-41.31-3.12-35.63-15,41.2-14.11,56c1,16.34-2.77,24.25,4,28.17C140.92,223.6,143.48,222.79,143.48,222.79Z" class="cls-65"/><path data-cppathid="10139" d="M193.88,214.35c.69,3.56,1.33,6,1.33,6s7.76,7,3.86,6.49a8.52,8.52,0,0,1-5.63-2.89s1.71,8.34-.09,9.66-2.62-5.84-2.62-5.84-.73,6.35-1.32,7.17-1.1-6.18-1.1-6.18-2.71,4.95-3.64,4.47,2.43-11.08,2-14.66c-.08-.71-.52-2.34-1.09-4.52C183.31,205.35,192.87,209.16,193.88,214.35Z" class="cls-3"/><path data-cppathid="10140" d="M185,217.36c-2.86-.27-5.66-2-7.61-6.74s-.42-19.55-.29-32.18,1.54-8.76,1.54-8.76l-2.32-1.41s-5.39-39.84.37-34.74,17.64,38.79,17.83,53.21c.22,15.91,4.48,23.28-1.74,27.59C187.49,218,185,217.36,185,217.36Z" class="cls-65"/><path data-cppathid="10141" d="M145.73,158.11c1,0,2.24-1.14.78-1.49a9.79,9.79,0,0,0-3.39-.15c0-.05,0-.09,0-.15-.56-1.34-1.15-2.47-2.68-2.73-1-.17-2.2,1.26-.78,1.5l.25.08a3.35,3.35,0,0,0-2,.56c-.68.44-.35,1.09.31,1.24a10.21,10.21,0,0,1,1.68.5c-.74.12-1.5.17-2.21.35-1,.27-1.21,1.57.06,1.48s2.43-.08,3.64-.05a8,8,0,0,0,.27,2.54c.18,1,2.31.47,2.13-.52-.09-.47-.22-.94-.29-1.41a7.75,7.75,0,0,1,.74.66c.61.62,2.61.08,2-.88a7.36,7.36,0,0,0-1.89-1.63C144.8,158,145.35,158.1,145.73,158.11Z" class="cls-68"/><path data-cppathid="10142" d="M155.13,129.52s-5.92-1.05-7.33,9.21,7.5,17.07,0,19.41-8.32,10.56-1.48,12,2.64,3.35,0,5.29a21.09,21.09,0,0,0-4.67,5.39s13.94-2.45,15.85-1.58a6.93,6.93,0,0,0,3.63.61s2.88-12.36-4.07-15.37.53-5,2.37-8.23-9.22-8.36-6.76-17.56Z" class="cls-69"/><path data-cppathid="10143" d="M168.4,133.33s8.73-1.56,10.82,13.59-11.09,25.21,0,28.69,12.28,15.6,2.18,17.78-3.9,4.94,0,7.82a31.17,31.17,0,0,1,6.91,7.95s-20.61-3.61-23.42-2.33a10.35,10.35,0,0,1-5.36.9s-4.26-18.26,6-22.71-.78-7.36-3.51-12.15,13.62-12.35,10-26Z" class="cls-69"/><path data-cppathid="10144" d="M158.16,84.53a1.74,1.74,0,0,1-3.44,0,38.17,38.17,0,0,1,1.72-5.21A38.17,38.17,0,0,1,158.16,84.53Z" class="cls-70"/><path data-cppathid="10145" d="M159.57,71.09a3.28,3.28,0,0,1-6.5,0c0-1.55,3.25-9.81,3.25-9.81S159.57,69.54,159.57,71.09Z" class="cls-70"/><ellipse data-cppathid="10146" ry="1.15" rx="0.86" cy="71.38" cx="155.58" class="cls-14"/><ellipse data-cppathid="10147" ry="1.15" rx="0.86" cy="83.82" cx="156.32" class="cls-14"/><path data-cppathid="10148" d="M330.76,253.88s7.29,1.89,9.39,7.67,6.46,7.05,7.93,8.27-3.23,7.42-11.28-1.29-12.59-2.79-12.59-2.79l-4.62,3.86s-2-5.56-.66-9.5-7.38-11.41-8.85-17,7-17.92,7.6-17.73,6.6,12.16,6.6,12.16Z" class="cls-3"/><path data-cppathid="10149" d="M337.27,277.42c-10.67-10.76-25.07-27.69-24.1-28.65S331,262.3,341.67,273c8.17,8.2,10.95,13.23,10.95,13.23l-2.2,2.19S345.41,285.63,337.27,277.42Z" class="cls-71"/><path data-cppathid="10150" d="M345.57,285a9.75,9.75,0,0,1,1.57-2,10.07,10.07,0,0,1,2-1.57,41.52,41.52,0,0,1,3.45,4.88l-2.2,2.19A41.4,41.4,0,0,1,345.57,285Z" class="cls-72"/><path data-cppathid="10151" d="M350.91,286.73c2.29-2.28,5-.84,6.59,2.22,1.42,2.82,1.69,7.17,3.27,7.71C357.47,297.74,346.5,291.12,350.91,286.73Z" class="cls-73"/><path data-cppathid="10152" d="M357.58,289.15c1.35,2.82,1.64,7,3.19,7.51-1.59.52-4.93-.74-7.49-2.67.58-.28,1.22-.51,1.32-1.24a3.5,3.5,0,0,1,.4-1.8A5.74,5.74,0,0,1,357.58,289.15Z" class="cls-74"/><path data-cppathid="10153" d="M334.86,266.89c-2-1.23-4.06.94-3.82.43,1-2.2-.17-5.59-4.33-2.39,1.78-6.44-4-1.9-4-1.9s-2.22,4.54-2.66,5.19c-1.25,1.82,1.59,4.76,2.8,3.64,0,0,1.65,2.79,4.37,2.19,0,0,.65,2,3.48,1.85C332.39,275.79,336.63,267.94,334.86,266.89Z" class="cls-3"/><path data-cppathid="10154" d="M310.54,259.89s-13.32-36.07-13.79-52.67-.71-15.3,4.59-16.8,17.5,34.1,22.2,44.16,9.21,19.18,9.21,19.18a42.78,42.78,0,0,1-11.94,7.31C314.36,263.45,310.54,259.89,310.54,259.89Z" class="cls-75"/><path data-cppathid="10155" d="M190.15,333.64c0,6.55,35.3,11.85,78.84,11.85s78.85-5.3,78.85-11.85-35.3-11.85-78.85-11.85S190.15,327.1,190.15,333.64Z" class="cls-9"/><path data-cppathid="10156" d="M210.84,215.09h0Z" class="cls-3"/><path data-cppathid="10157" d="M327.87,286.12s-17.93-6.41-31.05-6.08S301,235.87,301,235.87l17.29-1Z" class="cls-76"/><path data-cppathid="10158" d="M289.38,122.86s-3,7.16,6.55,9.57c0,0-1.83,8.23,8.42,7.74,0,0-.92,17.15,7.95,14.62,0,0,3.41,8.48,13.2,1.83,0,0,4.06,11.55,7.49,4.7,0,0,10.12,3.49,12.58,9.13,0,0-4.68-9.5-7.5-11,0,0-4.19-3.3-5.57-.05,0,0-6.13-14.34-8-6.11,0,0-6.57-4.83-10.62-1.26,0,0-1.18-16.3-7.49-14.31,0,0-.06-8-6.19-7.82,0,0,2.18-7.58-2.77-9.94C297.46,119.91,285.94,115.79,289.38,122.86Z" class="cls-77"/><path data-cppathid="10159" d="M323,154.1s-15.77-62-49.56-60.86-45.06,35.8-39.42,68c1.5,8.62,2.88,21.39,4.09,35.46,3.33,38.57,16.92,38.43,16.92,38.43l55.43-2.2L307,196.09l1.36-9.77s5.3-21.29,6.42-23.67-10.17-2-19.82,2.77c-19.21,9.4-11-8.78,2.54-8.78A138.55,138.55,0,0,0,323,154.1Z" class="cls-3"/><path data-cppathid="10160" d="M283,125.92c0,2.8-1.26,5.07-2.81,5.07s-2.82-2.27-2.82-5.07,1.26-5.08,2.82-5.08S283,123.12,283,125.92Z" class="cls-13"/><path data-cppathid="10161" d="M294.92,123.6c0,2.31-1,4.18-2.31,4.18s-2.32-1.87-2.32-4.18,1-4.17,2.32-4.17S294.92,121.3,294.92,123.6Z" class="cls-13"/><path data-cppathid="10162" d="M279.33,123.53a1.41,1.41,0,1,1-1.41-1.49A1.45,1.45,0,0,1,279.33,123.53Z" class="cls-14"/><path data-cppathid="10163" d="M292.39,121.89a1.41,1.41,0,1,1-1.32-1.56A1.45,1.45,0,0,1,292.39,121.89Z" class="cls-14"/><path data-cppathid="10164" d="M319.48,242.78s-4,24.57-22.71,27.17c-12.18,1.69-36,.29-39.3,4.21-4.6,5.47-20.66-22.64-20.66-22.64s62.12-27.48,77.24-16.77" class="cls-78"/><path data-cppathid="10165" d="M309.22,262.75,305.15,327s7.6,2.22,10.75,7.42c-11.81,2.83-27.86-4-27.86-4s-3.32-59.6-4.79-66.44S309.22,262.75,309.22,262.75Z" class="cls-78"/><path data-cppathid="10166" d="M277,260.89,274.32,331c5.45,3.35,7.34,3.51,10.17,10.28-17.47,4.72-29.35-7.1-29.35-7.1s-3.67-68.45-4.64-70.46,25-3.74,25-3.74" class="cls-78"/><path data-cppathid="10167" d="M236,185.79c73.76,14.4,73.13-1,73.13-1s13.11,47.72,10.59,58.74C304,241.29,236,253.25,236,253.25S234.68,196.72,236,185.79Z" class="cls-79"/><path data-cppathid="10168" d="M279,98.77s-9.5,24.54-40,41.48c0,0,6,4.91-1.25,11.54,0,0,5.5,6.38-3.76,10.8,0,0,4.26,8.1-4.75,10.06,0,0,4,11.48-7.73,10.25,0,0,2.5,15.9-3.76,11.48,0,0-11.76.49-11.26,6.63,0,0-3.76-10.31-2-13,0,0,10,2.21,12.77,4.41,0,0-2-19.32,3.51-12.94,0,0,.47-9.77,5.72-8.54-2.31-9.65-2.24-8.3,4.51-9.57,0,0-3.76-7.12,1.75-9.82,0,0-5.51-5.65-2.25-10.06-6.25-1.94-6.58-10.86.25-25C241.21,94.59,261,91.65,264.24,92.38s22.77-15,37.54,15.71C294.27,111.78,279,98.77,279,98.77Z" class="cls-77"/><path data-cppathid="10169" d="M246,85.48c4.46-2.43,11.13-10.33,29.61-11,7-.27,16.57.7,22.44,4.93,6.39,4.6,24.32,24.6,17,29.67-13.66,9.46-48.57-9.55-63.3-1.22-7.83,4.43-18.83,27.26-28.21,28.43-8,1-4.66-7-4.22-14.46.75-12.56,15.78-36.61,26.68-36.33" class="cls-13"/><polygon data-cppathid="10170" points="238.16 78.86 242.48 74.31 245.85 84.87 238.16 78.86" class="cls-13"/><path data-cppathid="10171" d="M234.72,171.21c-2.64,1.32,0,5.44.32,7.68s-3.2,5.76-1.91,8,43.85,12.49,64,9,14.72-9.27,14.4-10.88,2.88-5.76,1.6-7.36-7.67,3.6-15.36,3.84C267.05,182.41,237.92,169.61,234.72,171.21Z" class="cls-80"/><path data-cppathid="10172" d="M281.78,188.49s12.8,66.26,11.52,103.39c0,0-55.61,5-69.78-8.72,0,0,10.89-43.78,10.24-53.7s-.63-42.57-.63-42.57Z" class="cls-75"/><polygon data-cppathid="10173" points="231.2 176.33 228 190.73 274.74 202.9 281.78 188.49 231.2 176.33" class="cls-75"/><path data-cppathid="10174" d="M305.52,187.53s14.08,79.71,11.84,103.07L330.8,288s-12.48-89.63-16.32-95.7S305.52,187.53,305.52,187.53Z" class="cls-75"/><polygon data-cppathid="10175" points="303.54 187.53 311.22 200.34 321.47 191.69 314.74 182.73 303.54 187.53" class="cls-75"/><path data-cppathid="10176" d="M288,219.66c-.75-4.17-.79-8.38-1.81-12.53-.13-.57-1.21-.44-1.66,0-2.64-1.31-4.79-1.13-6.41,1.56-.73,1.22-1.14,2.34-2.45,3.14a2,2,0,0,0-.77,1c-.36,2.2,1.07,3.3,2.31,4.86-1.32.36-2.7.89-3.11,2.23-.46,1.51,3.36,3,4.14,3.35s4,1.18,3.48,2.35a2.77,2.77,0,0,0,.27,2.25,6.49,6.49,0,0,0,5.74,2.52c.37,0,1-.28,1-.7C289.35,226.22,288.64,223.09,288,219.66Z" class="cls-74"/><path data-cppathid="10177" d="M240.27,255.84c-3-2.83.3-4.8-.85-7.57s-3.49-3.52-5.95-5.07c-.63-.4-1.8.26-1.48.87a.52.52,0,0,0-.13.3c-.74,10.29-5.21,19.71-6.87,29.83-.1.61.6.74,1,.71,4.38-.25,7.43,2,8.55-3.69,1.08-5.52,8.68-1.39,10.86-6C247.33,261.32,242.65,258.05,240.27,255.84Z" class="cls-74"/><path data-cppathid="10178" d="M252.1,267.29c-1.4-.44-4.11-.5-3.92,1.62a6.29,6.29,0,0,0,2.58,3.94c1.4.94,4,.28,4.26-1.52A3.88,3.88,0,0,0,252.1,267.29Z" class="cls-74"/><path data-cppathid="10179" d="M266.06,233.7c-1.64-6.74-2.81-13.61-5.12-20.16-.2-.58-1.21-.46-1.66-.06-6-.12-3.91,7.13-2.45,10.71a10.49,10.49,0,0,0,1.54,2.62c1.73,2.18.58,4.48,1.26,6.93s4,1.16,5.66.79C265.63,234.45,266.16,234.12,266.06,233.7Z" class="cls-74"/><path data-cppathid="10180" d="M320.38,221.14c-.78-4.8-2-10.74-1.76-12.54.07-.48-.33-.65-.78-.62a.9.9,0,0,0-1.22-.21,4.92,4.92,0,0,0-2.82,3.84c-.63,1.82-.95,3.59,0,5.38a10.17,10.17,0,0,0,1.28,1.85,4.07,4.07,0,0,0,.29,2.85,1.87,1.87,0,0,0,1.69.65,6.21,6.21,0,0,1,0,2.39c-.07.35.32.6.62.63C319.78,225.5,320.78,223.63,320.38,221.14ZM317,212.42q.08.59.15,1.23l-.12,0a14.18,14.18,0,0,1-.23-2.24C316.88,211.77,317,212.09,317,212.42Z" class="cls-74"/><path data-cppathid="10181" d="M300.3,81a15.38,15.38,0,0,0-2.1-1.84c-6.08-4.37-15.42-5-20.46-5-.74,0-1.46,0-2.16,0A52.37,52.37,0,0,0,262,76.37l.31.3c-.56-.12-1.83.4-1.53.77a9.17,9.17,0,0,0,3.78,3.16c2.62,1,4.85-1.18,7.72.26.7.34,1.36.68,2,1l.21.28c1.7.7,3.49,1.58,5.23,1.53a14.52,14.52,0,0,0,2.2-.24c0,.17.25.27.72.18,2.79-.54,5.91-2,8.76-1.37a34.52,34.52,0,0,0,4.4.85c1.14.12,4.25,0,3.23-1.69l.36-.33Z" class="cls-74"/><path data-cppathid="10182" d="M291.84,85.58c-.34.06-.9.47-.75.9.06.17.14.33.21.49-.12.19-.24.39-.38.58a.55.55,0,0,0,.25.92,22,22,0,0,1,3.16,1.79c1,.49,2.66.89,3.26-.39C299,86.87,294,85.16,291.84,85.58Z" class="cls-74"/><path data-cppathid="10183" d="M259.38,152.48a3.28,3.28,0,0,1-6.5,0c0-1.56,3.25-9.82,3.25-9.82S259.38,150.92,259.38,152.48Z" class="cls-70"/><ellipse data-cppathid="10184" ry="1.15" rx="0.86" cy="152.77" cx="255.39" class="cls-14"/><path data-cppathid="10185" d="M245.26,268.12s-5.5-38.05-2.5-54.39,2.5-15.11,8-15.47,10,37,12.5,47.82,5,20.68,5,20.68a42.85,42.85,0,0,1-13.2,4.65C248.26,272.39,245.26,268.12,245.26,268.12Z" class="cls-75"/><g class="cls-2"><g class="cls-81"><path data-cppathid="10186" d="M277.84,282.29l-.18.09a2.69,2.69,0,0,1-1.26.1c-1.15-.17-1.25-.71-.74-1.06l.1-.07a.79.79,0,0,1,.22-.06l.07-.06a1.79,1.79,0,0,1,.31-.16,2.3,2.3,0,0,1,2.11.35c.1.08.08.16,0,.23a.58.58,0,0,1-.27.08,1,1,0,0,0-.23.06.39.39,0,0,1-.13.5m-14.13,9.48c.3-.21.53-.44.41-.75s-.66-1-.28-1.4l.1-.08a2.74,2.74,0,0,1,1.81-.1,2.24,2.24,0,0,1,1.9.78,5.36,5.36,0,0,1,2.94.28c.82.4,1,1,.43,1.39l-.07.05-.47.29-.51.33a2,2,0,0,0-.38.33,2.69,2.69,0,0,1-.45.44,1.76,1.76,0,0,1-.39.2,8.65,8.65,0,0,1-3.58.48c-1.38-.1-2.08-.66-2.31-1.22-.13-.29.1-.51.39-.72l.23-.15.23-.15m7.56-5.61c.75-.52-1.57-1.24-1.17-2a.77.77,0,0,1,.22-.22,4.34,4.34,0,0,1,2.47-.28l.1,0h0c2.75-.85,5,.7,5.07,2a.82.82,0,0,1-.3.79.9.9,0,0,1-.24.12,10.54,10.54,0,0,0-2,.65,1,1,0,0,0-.25.25,1.86,1.86,0,0,1-.55.57,3.77,3.77,0,0,1-2.38.56,3.66,3.66,0,0,1-2.88-1.21c-.15-.23-.05-.43.19-.59a5.77,5.77,0,0,1,1.34-.54,1.32,1.32,0,0,0,.39-.17m-11.91,8.42a4.58,4.58,0,0,1-2.07.39c-1,0-2.09.07-3.11,0-2.49-.08-2.45-1.17-2.34-2a.85.85,0,0,1,.38-.61c.58-.41,1.77-.37,3.24-.13l.2,0c1.64.4,4.57,1.28,3.82,2.19l-.12.11m11.54-14.44a6.48,6.48,0,0,1-4.35.58c-2.11-.35-3.4-1.4-2.87-2.33a1.53,1.53,0,0,1,.45-.47,6.46,6.46,0,0,1,4.34-.58c2.12.35,3.4,1.39,2.88,2.33a1.53,1.53,0,0,1-.45.47m-25.41,5.79c.34-.24,0-.5-.25-.87a.24.24,0,0,1,0-.36c.5-.35,2.52-.18,3.24-.11.45,0,.61.08.61.12,1.14.14,3.18.46,2.9,1a.83.83,0,0,1-.22.24,2.83,2.83,0,0,1-1.4.32.65.65,0,0,0-.31.08c-.34.24.75.92.64,1.22a.47.47,0,0,1-.19.23c-.72.51-3.07.48-4.08,0a5.36,5.36,0,0,1-1-.1l-.36-.11c-.13,0-.16-.1-.1-.15-.41-.38-1-.8-.53-1.11a1.66,1.66,0,0,1,.45-.18,2,2,0,0,0,.59-.23m6-3.55-.06,0c-.93.45-3.27-.21-4.24-.49-1.26-.39-2.84-1.07-2.23-1.78.75-.89.17-2.1,1.08-2.74a4.65,4.65,0,0,1,2.76-.41.12.12,0,0,1,0-.19.36.36,0,0,1,.15-.06c1.12-.27,3.35-.44,4.3.25.49.36.71.63.63,1-.19.86,1.24.92,1.88,1.5a.65.65,0,0,1,0,1.12,2.39,2.39,0,0,1-1.08.36c-1,.14-2.3.09-2.82.46a.48.48,0,0,0-.23.45.44.44,0,0,1-.13.47m-2.62-11.28c-12,8.38-15,22.74,5.19,25.61,10.49,1.49,17.07-.44,21.36-3.45,5.1-3.57,7-8.66,8.33-11.36,2.49-5-3.56-8.07-6.52-6.81-6.39,2.75-11.08-.38-9.86-3.55s-8.62-5.57-13.25-3.44a33,33,0,0,0-5.25,3" class="cls-82"/><path data-cppathid="10187" d="M246.05,277.4c-.91.64-.33,1.85-1.08,2.74-.61.71,1,1.39,2.23,1.78,1,.28,3.31.94,4.24.49l.06,0a.44.44,0,0,0,.13-.47.48.48,0,0,1,.23-.45c.52-.37,1.82-.32,2.82-.46a2.39,2.39,0,0,0,1.08-.36.65.65,0,0,0,0-1.12c-.64-.58-2.07-.64-1.88-1.5.08-.4-.14-.67-.63-1-.95-.69-3.18-.52-4.3-.25a.36.36,0,0,0-.15.06.12.12,0,0,0,0,.19,4.65,4.65,0,0,0-2.76.41" class="cls-74"/><path data-cppathid="10188" d="M270.32,284a.77.77,0,0,0-.22.22c-.4.73,1.92,1.45,1.17,2a1.32,1.32,0,0,1-.39.17,5.77,5.77,0,0,0-1.34.54c-.24.16-.34.36-.19.59a3.66,3.66,0,0,0,2.88,1.21,3.77,3.77,0,0,0,2.38-.56,1.86,1.86,0,0,0,.55-.57,1,1,0,0,1,.25-.25,10.54,10.54,0,0,1,2-.65.9.9,0,0,0,.24-.12.82.82,0,0,0,.3-.79c-.07-1.32-2.32-2.87-5.07-2h0l-.1,0a4.34,4.34,0,0,0-2.47.28" class="cls-83"/><path data-cppathid="10189" d="M275.66,281.42c-.51.35-.41.89.74,1.06a2.69,2.69,0,0,0,1.26-.1l.18-.09a.39.39,0,0,0,.13-.5,1,1,0,0,1,.23-.06.58.58,0,0,0,.27-.08c.08-.07.1-.15,0-.23a2.3,2.3,0,0,0-2.11-.35,1.79,1.79,0,0,0-.31.16l-.07.06a.79.79,0,0,0-.22.06l-.1.07" class="cls-83"/><path data-cppathid="10190" d="M263.94,289.54l-.1.08c-.38.4.1,1,.28,1.4s-.11.54-.41.75l-.23.15-.23.15c-.29.21-.52.43-.39.72.23.56.93,1.12,2.31,1.22a8.65,8.65,0,0,0,3.58-.48,1.76,1.76,0,0,0,.39-.2,2.69,2.69,0,0,0,.45-.44,2,2,0,0,1,.38-.33l.51-.33.47-.29.07-.05c.6-.43.39-1-.43-1.39a5.36,5.36,0,0,0-2.94-.28,2.24,2.24,0,0,0-1.9-.78,2.74,2.74,0,0,0-1.81.1" class="cls-84"/><path data-cppathid="10191" d="M252.22,292.36a.85.85,0,0,0-.38.61c-.11.86-.15,1.95,2.34,2,1,0,2.11,0,3.11,0a4.58,4.58,0,0,0,2.07-.39l.12-.11c.75-.91-2.18-1.79-3.82-2.19l-.2,0c-1.47-.24-2.66-.28-3.24.13" class="cls-85"/><path data-cppathid="10192" d="M245.29,284.7a.24.24,0,0,0,0,.36c.23.37.59.63.25.87a2,2,0,0,1-.59.23,1.66,1.66,0,0,0-.45.18c-.43.31.12.73.53,1.11-.06.05,0,.11.1.15l.36.11a5.36,5.36,0,0,0,1,.1c1,.45,3.36.48,4.08,0a.47.47,0,0,0,.19-.23c.11-.3-1-1-.64-1.22a.65.65,0,0,1,.31-.08,2.83,2.83,0,0,0,1.4-.32.83.83,0,0,0,.22-.24c.28-.52-1.76-.84-2.9-1,0,0-.16-.08-.61-.12-.72-.07-2.74-.24-3.24.11" class="cls-19"/></g></g><path data-cppathid="10193" d="M264.6,274.22c1.24.37,7.4,0,7.2,2.18s-5.72,5.52-8.09,3.12-.37-5.29-.37-5.29Z" class="cls-3"/><path data-cppathid="10194" d="M118.79,212.86s-1.28-1.71-3.08-4.39l0,0-.1-.08c-.28-.44-.58-.89-.9-1.37a7.57,7.57,0,0,0-3.29-2.65A120.8,120.8,0,0,1,94.12,181c-2.47-4.3-2.13-36.74-5.31-42.57s-9,2.86-9,2.86-.09,39.82,7.45,49.36C91.61,196.14,99,203.12,104.33,208a11.14,11.14,0,0,0,1.36,2.28c1.56,2.09,2.75,3.65,3.15,4.38,2,3.67,3,16.55,4.23,16.66s2-6.4,2-6.4,3.6,7.29,3.88,6.16-1.72-8.29-1.72-8.29,4,7.34,5.37,5.14-4.11-10.43-4.11-10.43a9.86,9.86,0,0,0,7.31.65C130.18,217,118.79,212.86,118.79,212.86Z" class="cls-3"/><path data-cppathid="10195" d="M83.91,134.44c-3.54,2.19-4.83,5.06-5.22,9.65s2.66,35.18,3.62,39.36,21.35,30.31,23.23,31.5c8.23,3.15,13.48-5.26,13.48-5.26S99.21,183,95.35,180.31C94,178,93.48,141.89,90.29,137.64S83.91,134.44,83.91,134.44Z" class="cls-86"/><path data-cppathid="10196" d="M0,332.25c.15,6.35,34.5,10.67,76.71,9.64s76.31-7,76.15-13.34-34.49-10.66-76.71-9.63S-.15,325.91,0,332.25Z" class="cls-9"/><path data-cppathid="10197" d="M98,216.82s.4,4.49.54,6.76c2.77,43.93-8.33,91.71-8.33,91.71s10,6.52,11.74,9.87-23.39-1.11-23.39-1.11,3.61-61.1,1.59-74.61-6.74,70.94-10,76.1-22,5.58-22,5.58,7-8.35,9.39-12.64,3.8-60.4,3.37-92.3c0-.86,0-2.54,0-2.54Z" class="cls-87"/><path data-cppathid="10198" d="M74.64,127.57S94,168.66,98.52,214.3c.28,2.79.65,8.43.65,8.43L61.52,227.6s0-2.3-.06-3.39c-.76-31.33-.49-66.93-.49-66.93s1.69-37.32,5.19-35.71S74.64,127.57,74.64,127.57Z" class="cls-88"/><polygon data-cppathid="10199" points="65.31 121.79 64.82 125.68 72.23 131.17 74.78 125.21 65.31 121.79" class="cls-55"/><polygon data-cppathid="10200" points="76.03 140.11 77.62 158.89 82.88 171.44 85.66 162.59 77.61 139.41 76.03 140.11" class="cls-89"/><path data-cppathid="10201" d="M82.32,166.85s11.64,80,9.9,88.21c0,0,14.48-3.07,15.23-3.86S93.82,160.75,87,150.83C84.49,160.2,82.32,166.85,82.32,166.85Z" class="cls-86"/><path data-cppathid="10202" d="M82.71,166.84s11.88,57.9,6.83,89.45c0,0-27.27,3.37-45.46-2.59,0,0,13.9-51,14.14-64.94s5.51-61.13,7.4-54.88C68.15,142.26,82.71,166.84,82.71,166.84Z" class="cls-86"/><path data-cppathid="10203" d="M73.1,125.57s13.69,23,9.67,41.65c0,0,6.13-13.23,2.37-23.09,0,0,2.23-1.69,4.21-1s-12.59-20.17-15.3-20S73.1,125.57,73.1,125.57Z" class="cls-90"/><path data-cppathid="10204" d="M71.09,131.4,76,140.18s1,.12,1.36-.47.43-.37.43-.37-.69-9.09-2.27-9.77A7,7,0,0,1,71.09,131.4Z" class="cls-89"/><path data-cppathid="10205" d="M86.91,124.6s0-.07,1.7-1.36l8.53-6.7s-15-2.42-13.87-11.37c9.22.65,22.37,4.93,22.57,4.69C114.92,99,130.3,75.73,130.51,62.74,131,32.27,104-10,78.51,10S55.9,54.22,55.75,75.17s4.86,51.07,11.86,56.12C73.8,135.76,86.91,124.6,86.91,124.6Z" class="cls-3"/><path data-cppathid="10206" d="M115.07,58.28c-1.5,2.75-1.41,5.7.21,6.58s4.14-.62,5.64-3.37,1.41-5.69-.2-6.57S116.58,55.54,115.07,58.28Z" class="cls-49"/><path data-cppathid="10207" d="M117.56,55.23a1.66,1.66,0,1,0,2.26-.66A1.67,1.67,0,0,0,117.56,55.23Z" class="cls-14"/><path data-cppathid="10208" d="M101.65,54.7c-1.25,3.12-.77,6.23,1.06,7s4.32-1.18,5.57-4.3.77-6.23-1.06-7S102.89,51.59,101.65,54.7Z" class="cls-56"/><path data-cppathid="10209" d="M105.73,51.74a2.17,2.17,0,1,0,2.82-1.21A2.16,2.16,0,0,0,105.73,51.74Z" class="cls-14"/><path data-cppathid="10210" d="M74.51,11.93s-1,17.31-3.67,23.49L68.22,41.6a39.19,39.19,0,0,0-3.67-5.82l-1.44-1.55S58.5,45.43,57.8,48.09a4.81,4.81,0,0,1-2.73,3.38S55,33.06,61.4,21.33,74.51,11.93,74.51,11.93Z" class="cls-91"/><path data-cppathid="10211" d="M60.14,219.72h0l-.05-.13q-.1-.81-.21-1.71a7.93,7.93,0,0,0-1.86-4,126.61,126.61,0,0,1-5.33-30.15c-.31-5.2,15.23-35.6,15-42.58s-9.84-1.55-9.84-1.55-18.77,37.47-16.14,50c1.52,7.26,5.15,17.27,7.93,24.4a12,12,0,0,0,.21,2.79c.49,2.7.88,4.73.91,5.6.17,4.4-4.92,17-3.83,17.67s4.85-5.11,4.85-5.11,0,8.57.77,7.63,2.27-8.61,2.27-8.61.34,8.79,2.65,7.36,1-11.76,1-11.76a10.36,10.36,0,0,0,6.58,4.05c4.7,1-4.09-8.26-4.09-8.26S60.57,223.1,60.14,219.72Z" class="cls-3"/><path data-cppathid="10212" d="M67,170.51c0,.15.21.26.44.23h0c.22,0,.38-.17.36-.33l-.7-6c0-.16-.21-.26-.44-.24h0c-.22,0-.38.17-.36.33Z" class="cls-92"/><polygon data-cppathid="10213" points="64.14 168.84 77.3 167.35 78.58 172.37 64.67 174.65 64.14 168.84" class="cls-90"/><path data-cppathid="10214" d="M69,181.75a.93.93,0,0,0,1.1.69h0a.94.94,0,0,0,.92-.93l-2-17.12a.93.93,0,0,0-1.1-.69h0a.94.94,0,0,0-.92.93Z" class="cls-93"/><path data-cppathid="10215" d="M67.37,168.68a2.82,2.82,0,0,0,2.29-.27l.08.4a2.9,2.9,0,0,1-2.36.31Z" class="cls-92"/><path data-cppathid="10216" d="M64.93,135.08c-4.36.4-6.93,2.5-9.44,6.63s-14,34.39-15.07,38.78,5.89,38.55,7.1,40.56c6.27,6.83,15.16,1.38,15.16,1.38S56.54,188,54.17,183.65c-.13-2.85,16.28-37.06,15.27-42.56S64.93,135.08,64.93,135.08Z" class="cls-86"/><path data-cppathid="10217" d="M63,122.31l-2,26.52,7.55-.76,14.14,19.15S66.83,135.89,63,122.31Z" class="cls-90"/><path data-cppathid="10218" d="M89.74,52.52c-3.65,6.65-3.47,12.62.53,17.73h0a23.66,23.66,0,0,0,5.38,4.9c3.34,2.29,6.6,1.2,10.84-.6,3-1.26,6.34-2.68,8.84-.13a4.71,4.71,0,0,1,.35.41c1.48,1.89,1.55,4.75,1.62,7.77,0,2.49.13,5.59,1.12,6.86a1.77,1.77,0,0,0,1.47.65c2.77-1.54,9.73-13,8.25-17.47a10,10,0,0,0-1.74-2.92C119,60.31,96.37,47,94.13,46.14,94.13,46.14,89.88,52.28,89.74,52.52Z" class="cls-94"/><path data-cppathid="10219" d="M130.76,71.77C127.55,62.1,97.65,44.34,95,43.52c0,0-29.8-9.81-32.24-9.94S55.6,45.15,57.13,46s5.37-5.3,5.37-5.3,25.7,8.71,25,10.1S77.68,66.2,94.09,77.42c8.15,5.58,16.36-4,19.27-1.08s-1.69,16.48,6.81,16.53C123.39,92.9,132.9,78.25,130.76,71.77ZM119.89,90.11a1.77,1.77,0,0,1-1.47-.65c-1-1.27-1.07-4.37-1.12-6.86-.07-3-.14-5.88-1.62-7.77a4.71,4.71,0,0,0-.35-.41c-2.5-2.55-5.87-1.13-8.84.13-4.24,1.8-7.5,2.89-10.84.6a23.66,23.66,0,0,1-5.38-4.9h0c-4-5.11-4.18-11.08-.53-17.73.14-.24,4.39-6.38,4.39-6.38C96.37,47,119,60.31,126.4,69.72a10,10,0,0,1,1.74,2.92C129.62,77.09,122.66,88.57,119.89,90.11Z" class="cls-95"/><path data-cppathid="10220" d="M90.38,23.26a3.28,3.28,0,0,1-6.5,0c0-1.55,3.25-9.81,3.25-9.81S90.38,21.71,90.38,23.26Z" class="cls-70"/><path data-cppathid="10221" d="M87.25,23.55c0,.64-.38,1.15-.86,1.15s-.86-.51-.86-1.15.38-1.15.86-1.15S87.25,22.92,87.25,23.55Z" class="cls-14"/><path data-cppathid="10222" d="M142.29,201.76c-.31.51-1.62.39-1.62.39l-1.24,2-5.72,9.31-4.78,7.79-6,9.81s-3.25,5.28-7.27,2.81-.78-7.76-.78-7.76l6-9.8,11.74-19.11s-.7-1.13-.39-1.63l.77-1.26c.43-.69,3,.13,5.81,1.84s4.68,3.65,4.25,4.34Z" class="cls-96"/><path data-cppathid="10223" d="M141.85,199.8c-.27.44-2.21-.26-4.32-1.56s-3.62-2.71-3.35-3.15,2.2.26,4.32,1.56S142.12,199.36,141.85,199.8Z" class="cls-97"/><path data-cppathid="10224" d="M133.71,213.47l-4.78,7.79-6,9.81s-3.25,5.28-7.27,2.81-.78-7.76-.78-7.76l6-9.8,7-11.43s8,3.05,8.54,3.74c.31.38-.06.48-.17.66Z" class="cls-98"/><path data-cppathid="10225" d="M136.58,208.7c-.23.55-2.36.14-4.75-.91s-4.13-2.33-3.9-2.87,2.37-.13,4.76.91S136.82,208.16,136.58,208.7Z" class="cls-99"/><path data-cppathid="10226" d="M140.05,202a20.46,20.46,0,0,1-7-4.3" class="cls-100"/><path data-cppathid="10227" d="M131.7,203.79c-.26-.2-.49-.39-.7-.58-.81-.73-1.24-1.34-1.06-1.63" class="cls-101"/><path data-cppathid="10228" d="M130.26,206.12c-.25-.2-.48-.39-.69-.58-.81-.73-1.24-1.35-1.07-1.63" class="cls-101"/><path data-cppathid="10229" d="M128.83,208.44q-.37-.28-.69-.57c-.81-.73-1.25-1.35-1.07-1.64" class="cls-101"/><path data-cppathid="10230" d="M127.4,210.77q-.37-.28-.69-.57c-.81-.73-1.25-1.35-1.07-1.64" class="cls-101"/><path data-cppathid="10231" d="M126,213.1q-.37-.28-.69-.57c-.82-.73-1.25-1.35-1.07-1.64" class="cls-101"/><path data-cppathid="10232" d="M124.54,215.43q-.37-.28-.69-.57c-.82-.73-1.25-1.35-1.07-1.64" class="cls-101"/><path data-cppathid="10233" d="M123.11,217.76a8.38,8.38,0,0,1-.69-.57c-.82-.73-1.25-1.35-1.07-1.64" class="cls-101"/><path data-cppathid="10234" d="M121.68,220.09c-.26-.2-.48-.39-.69-.57-.82-.73-1.25-1.35-1.07-1.64" class="cls-101"/><path data-cppathid="10235" d="M120.25,222.42q-.39-.3-.69-.57c-.82-.73-1.25-1.35-1.07-1.64" class="cls-101"/><path data-cppathid="10236" d="M118.82,224.75q-.39-.3-.69-.57c-.82-.73-1.25-1.35-1.07-1.64" class="cls-101"/><path data-cppathid="10237" d="M142.29,201.76c-.31.51-1.62.39-1.62.39l-1.24,2-5.72,9.31-4.78,7.79-6,9.81s-3.25,5.28-7.27,2.81-.78-7.76-.78-7.76l6-9.8,11.74-19.11s-.7-1.13-.39-1.63l.77-1.26c.43-.69,3,.13,5.81,1.84s4.68,3.65,4.25,4.34Z" class="cls-102"/><g class="cls-103"><path data-cppathid="10238" d="M116.72,226.16l5.87-9.56,5-8.2a3.9,3.9,0,0,1-.72-.82l-5.21,8.47-5.87,9.56s-3.17,5.15.31,7.29a5.21,5.21,0,0,0,.47.24C113.84,230.85,116.72,226.16,116.72,226.16Z" class="cls-14"/></g><path data-cppathid="10239" d="M144.77,194.48a2.37,2.37,0,1,1-.78-3.25A2.37,2.37,0,0,1,144.77,194.48Z" class="cls-104"/><path data-cppathid="10240" d="M143.64,186.16a1.18,1.18,0,1,1-.39-1.62A1.18,1.18,0,0,1,143.64,186.16Z" class="cls-104"/><path data-cppathid="10241" d="M148.39,181.81a.89.89,0,1,1-.29-1.22A.89.89,0,0,1,148.39,181.81Z" class="cls-104"/><path data-cppathid="10242" d="M209.26,208.25l.39-.28.37-.29-.37.29Z" class="cls-3"/></g></g></g></g></svg>