<?xml version="1.0" encoding="UTF-8"?>
<svg xmlns="http://www.w3.org/2000/svg" onmouseup="{ if(window.parent.document.onmouseup) window.parent.document.onmouseup(arguments[0]);}" viewBox="0 0 1746.93 1114.08"><defs><style>.cls-1{fill:#47b8af;}.cls-2{fill:#212121;}</style></defs><g data-name="Layer 2" id="Layer_2"><g data-name="Capa 1" id="Capa_1"><path data-cppathid="10000" d="M654.18,349h444.76a37,37,0,0,0,37-37V37a37,37,0,0,0-37-37H654.18a37,37,0,0,0-37,37V312a37,37,0,0,0,37,37ZM667.06,49.89h419V299.11h-419Z" class="cls-1"/><path data-cppathid="10001" d="M654.18,1114.08h444.76a37,37,0,0,0,37-37v-275a37,37,0,0,0-37-37H654.18a37,37,0,0,0-37,37v275a37,37,0,0,0,37,37ZM667.06,815h419v249.22h-419Z" class="cls-1"/><path data-cppathid="10002" d="M481.76,765.08H37a37,37,0,0,0-37,37v275a37,37,0,0,0,37,37H481.76a37,37,0,0,0,37-37v-275a37,37,0,0,0-37-37Zm-12.89,299.11h-419V815h419Z" class="cls-1"/><path data-cppathid="10003" d="M1709.94,765.08H1265.18a37,37,0,0,0-37,37v275a37,37,0,0,0,37,37h444.76a37,37,0,0,0,37-37v-275a37,37,0,0,0-37-37ZM1697,1064.19h-419V815h419Z" class="cls-1"/><path data-cppathid="10004" d="M1462.61,765.08h49.89V490.91a25,25,0,0,0-25-25h-586V349H851.61V466H259.38a25,25,0,0,0-24.94,25V765.08h49.89V515.85H851.61V765.08H901.5V515.85h561.11Z" class="cls-2"/></g></g></svg>