<?xml version="1.0" encoding="UTF-8"?>
<svg xmlns="http://www.w3.org/2000/svg" onmouseup="{ if(window.parent.document.onmouseup) window.parent.document.onmouseup(arguments[0]);}" viewBox="0 0 29.11 58.64"><defs><style>.cls-1{fill:#1b75bb;}</style></defs><g data-name="Layer 2" id="Layer_2"><g id="scrumMaster"><path data-cppathid="10000" transform="translate(-0.55 -2.64)" d="M.55,15.72a.78.78,0,0,1,.22-.62.81.81,0,0,1,.6-.24H2.81a.72.72,0,0,1,.55.22,1,1,0,0,1,.24.57,5.83,5.83,0,0,0,1,3.12,2.74,2.74,0,0,0,2.33,1.15,3,3,0,0,0,2.29-.86A3.36,3.36,0,0,0,10,16.7a3.19,3.19,0,0,0-1-2.18,15.26,15.26,0,0,0-3-2.33,23.14,23.14,0,0,1-2.8-1.59A4.19,4.19,0,0,1,1.81,9a5.17,5.17,0,0,1-.42-2.24A3.58,3.58,0,0,1,2,4.92,4.66,4.66,0,0,1,3.77,3.3a6.22,6.22,0,0,1,3-.66,6.64,6.64,0,0,1,2.62.54A13.16,13.16,0,0,1,12,4.63a.87.87,0,0,1,.48.77.64.64,0,0,1-.38.6l-.58.29-.18.06a.44.44,0,0,1-.15,0,.79.79,0,0,1-.51-.19A23.08,23.08,0,0,0,8.45,4.55,3.05,3.05,0,0,0,6.79,4,2.4,2.4,0,0,0,5,4.81a2.69,2.69,0,0,0-.74,1.91A4.46,4.46,0,0,0,4.81,9a5.24,5.24,0,0,0,2.41,1.84,20.39,20.39,0,0,1,3,1.67,8.81,8.81,0,0,1,2.07,1.93A3.76,3.76,0,0,1,13,16.68a3.87,3.87,0,0,1-.79,2.4,5.46,5.46,0,0,1-2.16,1.67,7.58,7.58,0,0,1-3.14.61A6.3,6.3,0,0,1,2.5,19.81,6.23,6.23,0,0,1,.55,15.72Z" class="cls-1"/><path data-cppathid="10001" transform="translate(-0.55 -2.64)" d="M22.9,17.66c-.15.32-.32.48-.53.48s-.39-.16-.53-.48L17.59,8.4V20.33a.7.7,0,0,1-.79.79H15.74a.7.7,0,0,1-.79-.79V3.67a.7.7,0,0,1,.79-.79h.92a1,1,0,0,1,.93.6l4.73,9.89L27,3.48a1,1,0,0,1,.94-.6h.91a.7.7,0,0,1,.79.79V20.33a.7.7,0,0,1-.79.79H27.82a.7.7,0,0,1-.8-.79V8.47Z" class="cls-1"/><path data-cppathid="10002" transform="translate(-0.55 -2.64)" d="M12.89,54.46c-.08-.54-.17-1-.2-1.42-.1-1.29-.23-2.58-.27-3.88-.09-3-.27-6-.14-9,.17-3.67.38-7.34.87-11,.09-.66.1-1.33.18-2a3.68,3.68,0,0,1,.24-1,1,1,0,0,1,1-.66,1,1,0,0,1,1,.65,2.9,2.9,0,0,1,.21.78,16.55,16.55,0,0,1,0,4,111.37,111.37,0,0,0-.53,16.13c.09,1.85.21,3.7.32,5.55a1,1,0,0,0,.19.52,4.59,4.59,0,0,1,.17-.48,4.43,4.43,0,0,1,.31-.74,1.45,1.45,0,0,1,2.68.54,3.09,3.09,0,0,1,0,1A13.1,13.1,0,0,1,18.39,55a30.7,30.7,0,0,0-1.16,4.43,3.78,3.78,0,0,1-.24.83,1.65,1.65,0,0,1-2.35.81,3.1,3.1,0,0,1-.81-.63c-.69-.75-1.35-1.53-2-2.31l-1.52-1.83a4.39,4.39,0,0,1-.47-.66A1.49,1.49,0,0,1,12,53.71a6.4,6.4,0,0,1,.49.42Z" class="cls-1"/></g></g></svg>