<?xml version="1.0" encoding="UTF-8"?>
<svg xmlns="http://www.w3.org/2000/svg" onmouseup="{ if(window.parent.document.onmouseup) window.parent.document.onmouseup(arguments[0]);}" viewBox="0 0 63.53 58.33"><defs><style>.cls-1{fill:#1b75bb;}</style></defs><g data-name="Layer 2" id="Layer_2"><g id="team"><path data-cppathid="10000" transform="translate(-1.44 -2.95)" d="M9.82,21.5a.86.86,0,0,1-.68.36,1.14,1.14,0,0,1-.38-.07l-.84-.33c-.34-.15-.5-.34-.5-.58a.8.8,0,0,1,.21-.5,21.28,21.28,0,0,0,1.71-2.45,12.59,12.59,0,0,0,1.06-2.35A14.24,14.24,0,0,0,11,12.94H2.23c-.53,0-.79-.24-.79-.72s.26-.72.79-.72h8.91c.06-.74.1-1.54.13-2.39s0-1.8,0-2.82L5.86,7.75l-.17,0H5.54a.85.85,0,0,1-.72-.46,1,1,0,0,1-.14-.43c0-.3.19-.5.58-.6L17.5,3l.16,0h.15a.83.83,0,0,1,.72.46.9.9,0,0,1,.14.43q0,.45-.57.6l-4,1.08a1.37,1.37,0,0,1,.24.89c0,1,0,1.93-.05,2.77s-.07,1.61-.12,2.32h7.13c.52,0,.79.24.79.72s-.27.72-.79.72H14A14.88,14.88,0,0,1,13.31,16,13.19,13.19,0,0,1,12,18.65,32,32,0,0,1,9.82,21.5Z" class="cls-1"/><path data-cppathid="10001" transform="translate(-1.44 -2.95)" d="M41.74,12c.52,0,.79.24.79.72s-.27.72-.79.72H25.56c-.53,0-.79-.24-.79-.72S25,12,25.56,12Z" class="cls-1"/><path data-cppathid="10002" transform="translate(-1.44 -2.95)" d="M64.85,20.86a1,1,0,0,1,.12.43c0,.3-.19.5-.55.6l-1.13.29-.17,0H63a.73.73,0,0,1-.67-.45l-1.34-2.4-14.86,2.3c-.51.08-.77-.07-.77-.45a.93.93,0,0,1,.12-.41L53.35,5a.79.79,0,0,1,.75-.48.88.88,0,0,1,.26,0l1.15.26c.39.1.58.3.58.6a.86.86,0,0,1-.1.41L49,19.7,60.14,18l-2.2-3.89a1,1,0,0,1-.12-.43c0-.31.18-.51.55-.6l1.13-.29.16,0h.17a.73.73,0,0,1,.67.46Z" class="cls-1"/><path data-cppathid="10003" transform="translate(-1.44 -2.95)" d="M30.69,54.46c-.08-.54-.17-1-.21-1.42-.1-1.29-.22-2.58-.26-3.88-.09-3-.28-6-.14-9,.16-3.67.38-7.34.87-11,.09-.66.09-1.33.17-2a4.09,4.09,0,0,1,.24-1,1,1,0,0,1,1-.66,1,1,0,0,1,1,.65,3.32,3.32,0,0,1,.21.78,16.07,16.07,0,0,1,0,4A114.29,114.29,0,0,0,33,47.12c.09,1.85.21,3.7.32,5.55a1,1,0,0,0,.19.52l.17-.48A4.46,4.46,0,0,1,34,52a1.44,1.44,0,0,1,2.67.54,3.09,3.09,0,0,1,0,1,13.06,13.06,0,0,1-.4,1.52A32.09,32.09,0,0,0,35,59.42a2.94,2.94,0,0,1-.24.83,1.65,1.65,0,0,1-2.35.81,3.43,3.43,0,0,1-.8-.62c-.69-.76-1.36-1.54-2-2.32-.52-.61-1-1.22-1.52-1.83a3.78,3.78,0,0,1-.47-.66,1.48,1.48,0,0,1,2.18-1.92,4.93,4.93,0,0,1,.49.42Z" class="cls-1"/></g></g></svg>