<?xml version="1.0" encoding="UTF-8"?>
<svg xmlns="http://www.w3.org/2000/svg" onmouseup="{ if(window.parent.document.onmouseup) window.parent.document.onmouseup(arguments[0]);}" viewBox="0 0 327.69 78.93"><defs><style>.cls-1{fill:#603813;}</style></defs><g data-name="Layer 2" id="Layer_2"><g id="backlog"><g data-name="2023 jp" id="_2023_jp"><g data-name="Update Grades PBI" id="Update_Grades_PBI"><path data-cppathid="10000" transform="translate(-1.1 -1.18)" d="M4.22,22.08c-.54-.06-.76-.34-.67-.82a.77.77,0,0,1,.91-.64l1.28.14V19.37l-3.2.6-.21,0a.82.82,0,0,1-.75-.55.77.77,0,0,1-.07-.29c0-.32.22-.52.65-.6l3.58-.67v-1a1.34,1.34,0,0,1,.4-1l1.52-1.56H5.18L3.67,16.66a.74.74,0,0,1-.67.4H2.84l-.18,0-1-.32c-.35-.11-.53-.31-.53-.6a.76.76,0,0,1,.15-.45l2.61-4H2.09c-.53,0-.79-.24-.79-.72s.26-.72.79-.72H4.8L5,9.79V6.55H2.71c-.53,0-.79-.24-.79-.72s.26-.72.79-.72H5V2a.7.7,0,0,1,.79-.79H7.32A.7.7,0,0,1,8.11,2v3l1.83-2.8a.77.77,0,0,1,.69-.41h.16a.35.35,0,0,1,.18,0l1,.31c.36.13.55.33.55.62a.72.72,0,0,1-.15.43L11.16,5.14a.63.63,0,0,1,.58.69c0,.48-.27.72-.8.72h-.69L8.11,9.84v.34h3c.53,0,.8.24.8.72s-.27.72-.8.72H7l-.84,1.27H10.9c.44,0,.67.15.67.45a.89.89,0,0,1-.27.53L8.81,16.39v.91L10.58,17a.61.61,0,0,1,.22,0,.81.81,0,0,1,.74.56.6.6,0,0,1,.08.28c0,.32-.22.52-.65.6l-2.16.41v2.95q0,.82-.84.75ZM13.8,22a.86.86,0,0,1-.74.44,1.57,1.57,0,0,1-.32-.05l-1-.31c-.37-.13-.55-.32-.55-.58a.59.59,0,0,1,.05-.23,1.71,1.71,0,0,1,.12-.23l3.79-5.92L13.1,12,13,11.71a.59.59,0,0,1,0-.21c0-.28.18-.48.55-.6l1-.32a1.38,1.38,0,0,1,.31,0,.87.87,0,0,1,.75.43l1.1,1.7L19.42,8.4A.85.85,0,0,1,20.16,8a1,1,0,0,1,.31,0l1,.31c.37.13.56.32.56.57a.63.63,0,0,1,0,.22,1.34,1.34,0,0,1-.12.24L18.22,15.1,22,21a1.71,1.71,0,0,1,.12.23.59.59,0,0,1,.05.23c0,.27-.19.47-.56.6l-1,.31a1.5,1.5,0,0,1-.31.05.85.85,0,0,1-.74-.43l-2.88-4.49Zm.53-12.69a.78.78,0,0,1-.77.57.65.65,0,0,1-.22,0L12.05,9.6c-.42-.08-.63-.29-.63-.62a.86.86,0,0,1,.08-.36l2.44-6.56a.78.78,0,0,1,.77-.57l.22,0,1.29.24q.63.12.63.63a1.27,1.27,0,0,1-.07.36l-1.13,3H22c.53,0,.79.24.79.72s-.26.72-.79.72H15.12Z" class="cls-1"/><path data-cppathid="10001" transform="translate(-1.1 -1.18)" d="M34.32,20.83a.7.7,0,0,1-.79.79H32.28a.82.82,0,0,1-.59-.19.67.67,0,0,1-.2-.5H29.21a.7.7,0,0,1-.79.69H26.93a.7.7,0,0,1-.79-.79V4.7a.7.7,0,0,1,.79-.79h1.49a1.15,1.15,0,0,1,.4.07l.94-1.68a.81.81,0,0,1,.72-.48l.14,0a.8.8,0,0,1,.15,0l1.13.29c.38.1.57.3.57.62a.93.93,0,0,1-.12.41l-.72,1.27h1.9a.7.7,0,0,1,.79.8v6.07a.7.7,0,0,1-.79.79H32.28a.69.69,0,0,1-.77-.62h-2.3v2.25h4.32a.7.7,0,0,1,.79.79ZM31.49,5.9H29.21v4.16h2.28Zm0,9.29H29.21v4.3h2.28ZM38,19.34a.7.7,0,0,1-.79.8H36a.7.7,0,0,1-.79-.8V6.79A.7.7,0,0,1,36,6h1.25a.69.69,0,0,1,.77.58H39.1v-3H36c-.53,0-.79-.24-.79-.72s.26-.72.79-.72h9.53c.53,0,.79.24.79.72s-.26.72-.79.72H42.17v3H45.1a.7.7,0,0,1,.79.79V19.51c0,.55-.28.79-.84.75l-1.87-.2a.76.76,0,0,1-.75-.88.9.9,0,0,1,.13-.5.3.3,0,0,1,.3-.15l.44,0V8H42.17V21.94a.7.7,0,0,1-.79.79H39.89a.7.7,0,0,1-.79-.79V8H38Z" class="cls-1"/><path data-cppathid="10002" transform="translate(-1.1 -1.18)" d="M65.09,19.42a1.71,1.71,0,0,1,.45-.08,1.2,1.2,0,0,1,.33.05.92.92,0,0,1,.3.17l.19.14a.7.7,0,0,1,.36.58c0,.27-.18.44-.53.5-.57.13-1.29.26-2.13.38s-1.73.21-2.64.28-1.77.11-2.57.11A17.45,17.45,0,0,1,54,21a7.41,7.41,0,0,1-3.19-1.68,3.48,3.48,0,0,1-1.13-2.6,3.8,3.8,0,0,1,1-2.54,11.2,11.2,0,0,1,3.4-2.38l-3-6.38A.86.86,0,0,1,51,5c0-.31.19-.51.58-.6L52.8,4.1l.26,0a.77.77,0,0,1,.75.5l2.85,6.05c1.09-.45,2.34-.91,3.74-1.39s3-1,4.71-1.51a.49.49,0,0,1,.18-.05h.18a.77.77,0,0,1,.72.43v0a.86.86,0,0,1,.15.45c0,.27-.2.47-.58.6q-3.84,1.19-6.36,2.11a27.51,27.51,0,0,0-4,1.78,6.34,6.34,0,0,0-2,1.7,3.27,3.27,0,0,0-.6,1.9,2.79,2.79,0,0,0,1.42,2.6,9.65,9.65,0,0,0,4.65.83c.77,0,1.55,0,2.35-.09s1.54-.15,2.23-.26A12.82,12.82,0,0,0,65.09,19.42Z" class="cls-1"/><path data-cppathid="10003" transform="translate(-1.1 -1.18)" d="M82.66,14a.73.73,0,0,1,.81-.79H85a.68.68,0,0,1,.77.81,10.24,10.24,0,0,1-1.18,4.43,7,7,0,0,1-2.83,2.84,8.69,8.69,0,0,1-4.25,1,7.3,7.3,0,0,1-5.22-1.78,6.47,6.47,0,0,1-1.88-4.94c0-.43,0-1,0-1.68s.07-1.45.12-2.27.1-1.66.16-2.52.14-1.67.21-2.45.14-1.45.2-2,.34-.72.87-.69L73.42,4a.69.69,0,0,1,.72.84c-.07.56-.13,1.22-.2,2s-.12,1.56-.19,2.4-.12,1.67-.17,2.48-.08,1.54-.1,2.22,0,1.21,0,1.63a6.33,6.33,0,0,0,1,3.93,3.55,3.55,0,0,0,3,1.35A4.33,4.33,0,0,0,81.12,19,9,9,0,0,0,82.66,14Z" class="cls-1"/><path data-cppathid="10004" transform="translate(-1.1 -1.18)" d="M102.91,20.38c.51,0,.77.28.77.74s-.27.73-.82.7a17,17,0,0,1-3.78-.6,11.11,11.11,0,0,1-3-1.37,7,7,0,0,1-2-2,4.45,4.45,0,0,1-.73-2.46,7.73,7.73,0,0,1,1.59-4.71,12.59,12.59,0,0,1,4.43-3.61l-10.08.72A.72.72,0,0,1,88.37,7c0-.37.24-.58.72-.62l15.09-1.08a.82.82,0,0,1,.94.62,1.74,1.74,0,0,1,0,.26c0,.32-.22.55-.65.68a13.63,13.63,0,0,0-4.37,1.89,9.25,9.25,0,0,0-2.81,2.95,7.39,7.39,0,0,0-1,3.72,4.22,4.22,0,0,0,.59,2.3,4.67,4.67,0,0,0,1.56,1.5,7.91,7.91,0,0,0,2.12.85A14.16,14.16,0,0,0,102.91,20.38Z" class="cls-1"/><path data-cppathid="10005" transform="translate(-1.1 -1.18)" d="M112,21.53c0,.49-.29.74-.81.74l-1.47,0a.68.68,0,0,1-.77-.82l.68-14.71a1,1,0,0,1,.14-.48.63.63,0,0,1-.12-.41c0-.48.26-.72.79-.72h8.59l-.79-2.45a1.4,1.4,0,0,1,0-.31c0-.37.22-.57.65-.62l1.35-.19.1,0h.09a.72.72,0,0,1,.74.6l1,3h6.63c.52,0,.79.24.79.72s-.27.72-.79.72h-6.17L124.63,13l2.19-3.5a.83.83,0,0,1,.72-.46,1.6,1.6,0,0,1,.31.05l1,.31c.37.13.55.33.55.6a1,1,0,0,1-.14.43l-3.63,5.79,1.2,3.72,1.37-.36a1,1,0,0,1,.27-.05.83.83,0,0,1,.74.5.93.93,0,0,1,.12.39c0,.32-.19.52-.58.62l-3.52.91-.15,0H125a.74.74,0,0,1-.72-.58l-.62-1.94-1.3,2.08a.83.83,0,0,1-.72.46,1.5,1.5,0,0,1-.31-.05l-1-.31c-.37-.13-.55-.33-.55-.6a.8.8,0,0,1,.14-.43l2.74-4.37-3.1-9.65h-6.84a2.13,2.13,0,0,1,0,.27l-.19,4.12h5.81a.66.66,0,0,1,.74.82l-.74,9.41c0,.46-.26.69-.65.69a1.25,1.25,0,0,1-.26,0l-3.79-.94c-.4-.1-.6-.29-.6-.58a.38.38,0,0,1,0-.16.85.85,0,0,0,.06-.17l0-.07a.8.8,0,0,1,.74-.51H114l.15,0,1.2.29.6-7.35h-3.53ZM127.78,3.14a.72.72,0,0,1,.4.58.74.74,0,0,1-.28.53l-.24.19a1,1,0,0,1-.63.26.89.89,0,0,1-.45-.14L123.65,3a.73.73,0,0,1-.41-.57.69.69,0,0,1,.29-.53l.24-.19a.93.93,0,0,1,.62-.27.86.86,0,0,1,.46.15Z" class="cls-1"/><path data-cppathid="10006" transform="translate(-1.1 -1.18)" d="M134.93,20.62a.72.72,0,0,1-.87.72l-.76-.05a.68.68,0,0,1-.72-.84l.31-3.65a.72.72,0,0,1,.86-.72l.77.05a.68.68,0,0,1,.72.84Zm4.17,1a.7.7,0,0,1-.79.79h-1.49a.7.7,0,0,1-.79-.79V14.74l-2.64.21q-.72,0-.72-.45a.85.85,0,0,1,.17-.48l2.21-3.44-.05-.07-2-2.69a.93.93,0,0,1-.21-.55.81.81,0,0,1,.21-.55l3.84-5a.83.83,0,0,1,.68-.38,1.14,1.14,0,0,1,.38.07l.91.31c.34.11.51.3.51.58a.87.87,0,0,1-.2.48l-3.43,4.53.82,1.08L137.35,7a.86.86,0,0,1,.75-.43,1.38,1.38,0,0,1,.31,0l1,.32c.37.12.55.32.55.57a.47.47,0,0,1-.05.22,1.34,1.34,0,0,1-.12.24l-3.4,5.3,2.92-.24-.4-1.65a.88.88,0,0,1,0-.24.64.64,0,0,1,.65-.7l.7-.1a.72.72,0,0,1,.91.63l.89,3.67a1.44,1.44,0,0,1,0,.24.64.64,0,0,1-.65.7l-.69.09a.72.72,0,0,1-.92-.62l-.14-.58h-.07l-.55,0a.85.85,0,0,1,0,.29Zm3.41-1.59a.69.69,0,0,1-.74.84L141,21a.71.71,0,0,1-.84-.72l-.31-3a.81.81,0,0,1,.17-.61.73.73,0,0,1,.57-.25l.77-.05a.71.71,0,0,1,.84.72Zm6.72-11.54v.07h3.48c.53,0,.79.24.79.72s-.26.72-.79.72h-10c-.53,0-.79-.24-.79-.72s.26-.72.79-.72h3.41v-1h-2.28c-.53,0-.79-.24-.79-.72s.26-.72.79-.72h2.28V4.73h-2.88c-.53,0-.79-.24-.79-.72s.26-.72.79-.72h2.88V2.52a.7.7,0,0,1,.79-.79h1.49a.7.7,0,0,1,.79.79v.77h2.91c.52,0,.79.24.79.72s-.27.72-.79.72h-2.91V6.14h2.33c.53,0,.79.24.79.72s-.26.72-.79.72h-2.33Zm-6.41,2.88a.7.7,0,0,1,.8-.79h1.48a.88.88,0,0,1,.48.12h6.6a.7.7,0,0,1,.8.79V19a.7.7,0,0,1-.8.79H150.7a.85.85,0,0,1-.48-.12h-4.64a.88.88,0,0,1-.48.12h-1.48a.7.7,0,0,1-.8-.79Zm1.54,11a1,1,0,0,1-.43.09.86.86,0,0,1-.65-.31l-.12-.12a.72.72,0,0,1-.26-.5c0-.24.15-.44.48-.58l2.08-.94a1,1,0,0,1,.44-.09.84.84,0,0,1,.64.31l.12.12a.74.74,0,0,1,.27.5c0,.24-.16.44-.48.58Zm5.54-10.25h-4v1h4Zm-4,3.55h4V14.59h-4Zm0,2.47h4v-1h-4Zm6.79,2.91q.48.21.48.57a.74.74,0,0,1-.22.48l-.17.17a.85.85,0,0,1-1.08.24l-2.4-1.06q-.48-.21-.48-.57a.75.75,0,0,1,.22-.48l.17-.17a.85.85,0,0,1,1.08-.24Z" class="cls-1"/><path data-cppathid="10007" transform="translate(-1.1 -1.18)" d="M171.14,21.5a.75.75,0,0,1-.62.34,1.05,1.05,0,0,1-.46-.12l-.72-.34a.64.64,0,0,1-.45-.57,1,1,0,0,1,.19-.51,8.26,8.26,0,0,0,.89-1.76,13.83,13.83,0,0,0,.6-2.2,13.17,13.17,0,0,0,.21-2.32,9.43,9.43,0,0,0-1.08-4.8,4.69,4.69,0,0,0-3-2.33,32.85,32.85,0,0,1,.57,5.71,12.45,12.45,0,0,1-1.38,6.34,4.45,4.45,0,0,1-4.07,2.32,5.08,5.08,0,0,1-2.85-.79A5.28,5.28,0,0,1,157,18.3a7.15,7.15,0,0,1-.67-3.18,10.17,10.17,0,0,1,.7-3.79A9.73,9.73,0,0,1,159,8.2a9,9,0,0,1,2.85-2.13,8,8,0,0,1,3.47-.77,9.37,9.37,0,0,1,4.56,1,7,7,0,0,1,2.95,3,9.85,9.85,0,0,1,1,4.67A10.83,10.83,0,0,1,171.14,21.5Zm-11.71-6.38a7.56,7.56,0,0,0,.34,2.34,5,5,0,0,0,.87,1.72,1.5,1.5,0,0,0,1.14.64c.45,0,.85-.33,1.19-1a9.86,9.86,0,0,0,.82-2.7,22.34,22.34,0,0,0,.3-3.84c0-.82,0-1.66-.11-2.52s-.19-1.75-.35-2.64a6.14,6.14,0,0,0-2.12,1.77A9.5,9.5,0,0,0,160,11.72,10.2,10.2,0,0,0,159.43,15.12Z" class="cls-1"/><path data-cppathid="10008" transform="translate(-1.1 -1.18)" d="M178.2,22.32a.81.81,0,0,1-.66-.17.8.8,0,0,1-.25-.65c0-.35.22-.56.67-.64a7.57,7.57,0,0,0,4.37-2.67l-2.16-.67c-.37-.13-.55-.32-.55-.58a.94.94,0,0,1,.12-.38l.07-.12a.81.81,0,0,1,.69-.43.86.86,0,0,1,.36.07l2.45.77a16.14,16.14,0,0,0,1-2h-2.9a.8.8,0,0,1-.53.17H179.4a.7.7,0,0,1-.79-.8V6a.7.7,0,0,1,.79-.79h1.49a.78.78,0,0,1,.62.24h4.66c0-.58,0-1.16.05-1.75V3.6h-8.79c-.53,0-.79-.24-.79-.72s.26-.72.79-.72h19c.53,0,.8.24.8.72s-.27.72-.8.72h-7.22c0,.14,0,.31,0,.5,0,.47,0,.92,0,1.35h5.64a.7.7,0,0,1,.79.79v7.94a.71.71,0,0,1-.79.8h-1.49a.78.78,0,0,1-.53-.17h-5.45a15.5,15.5,0,0,1-1.51,2.83L196.7,21c.37.12.56.32.56.57a.93.93,0,0,1-.12.39l-.08.12a.84.84,0,0,1-.69.43,1.27,1.27,0,0,1-.36-.07L184.8,19A11.06,11.06,0,0,1,178.2,22.32Zm3.48-12.7h4.06c.12-.86.23-1.77.31-2.73h-4.37Zm0,3.75h3.17a18.52,18.52,0,0,0,.6-2.31h-3.77Zm6.24,0h4.66V11.06h-4.06Q188.25,12.29,187.92,13.37Zm4.66-6.48h-3.46c-.08,1-.19,1.87-.34,2.73h3.8Z" class="cls-1"/><path data-cppathid="10009" transform="translate(-1.1 -1.18)" d="M202.9,21.62a.89.89,0,0,1-.7.36,1.14,1.14,0,0,1-.38-.07l-.87-.33c-.33-.15-.5-.35-.5-.6a.68.68,0,0,1,.19-.48l3.48-4.37H201c-.53,0-.79-.24-.79-.72s.26-.72.79-.72h3.74v-1.9H201c-.53,0-.79-.24-.79-.72s.26-.72.79-.72h1.13v0L201.86,6V5.88h-.31c-.53,0-.79-.24-.79-.72s.26-.72.79-.72h3V2a.7.7,0,0,1,.79-.79h1.49a.7.7,0,0,1,.79.79v2.4h2.76c.53,0,.8.24.8.72a.72.72,0,0,1-.2.53.66.66,0,0,1-.5.19.79.79,0,0,1,0,.22l-.84,5.25h.67c.53,0,.79.24.79.72s-.26.72-.79.72h-2.49v1.9h2.08c.53,0,.8.24.8.72s-.27.72-.8.72h-2.08l2.56,2a.71.71,0,0,1,.34.53c0,.21-.14.4-.43.57l-.48.29a.86.86,0,0,1-1.11-.07l-.88-.7V22a.7.7,0,0,1-.8.79h-1.48a.7.7,0,0,1-.8-.79V19.32Zm2.3-10.39v.12h1.42a.37.37,0,0,1,0-.21l.84-5.26h-2.52v0Zm8.74,10.39c0,.55-.32.8-.84.77l-1.49-.05q-.8,0-.75-.81l.8-14.64a1,1,0,0,1,.16-.51.59.59,0,0,1,0-.14.62.62,0,0,1,.41-.55l7.56-4.18a.85.85,0,0,1,1.08.12l.21.19a.82.82,0,0,1,.32.56.65.65,0,0,1-.41.55l-6.39,3.53a.7.7,0,0,1,.15.52l-.12,2.21h6.19c.53,0,.79.24.79.72s-.26.72-.79.72h-.94V22a.7.7,0,0,1-.79.79h-1.49a.7.7,0,0,1-.79-.79V10.63h-2.25Z" class="cls-1"/><path data-cppathid="10010" transform="translate(-1.1 -1.18)" d="M227.59,21.55a.76.76,0,0,1-1,.55l-1.27-.24q-.6-.12-.6-.6a1.14,1.14,0,0,1,.07-.38L229.68,9.1h-4.25c-.53,0-.79-.24-.79-.72s.26-.72.79-.72h4.83l1.17-2.86a.77.77,0,0,1,1-.55l1.27.24q.6.12.6.6a1.14,1.14,0,0,1-.07.38l-.89,2.19h0a5.31,5.31,0,0,1,3.72,1.14,4.57,4.57,0,0,1,1.22,3.49,16.6,16.6,0,0,1-.3,3.37,11,11,0,0,1-.8,2.47A14.35,14.35,0,0,1,236.1,20c-.38.54-.75,1-1.12,1.52a.79.79,0,0,1-.67.41,1,1,0,0,1-.36-.07l-1-.31c-.36-.1-.53-.29-.53-.58a.82.82,0,0,1,.17-.45c.38-.52.77-1.1,1.17-1.77a9.72,9.72,0,0,0,1-2.53,15.66,15.66,0,0,0,.41-3.91,5.43,5.43,0,0,0-.41-2.49,1.54,1.54,0,0,0-1.46-.7h-.63Zm16.73-5.06a1.5,1.5,0,0,1,.05.31c0,.37-.22.58-.65.62l-1.37.2a.77.77,0,0,1-.93-.58L238.2,6.58a1.57,1.57,0,0,1,0-.32c0-.36.22-.57.65-.62l1.37-.19h.11l.08,0a.72.72,0,0,1,.74.6Zm.82-9.12a1.44,1.44,0,0,1,0,.24c0,.36-.22.56-.65.61l-.69.09a.72.72,0,0,1-.92-.57l-1.24-4.58a.78.78,0,0,1,0-.24c0-.36.22-.57.65-.61l.7-.09a.73.73,0,0,1,.93.57ZM247.78,6a1.44,1.44,0,0,1,0,.24c0,.33-.21.54-.62.61l-.7.11a.74.74,0,0,1-.94-.57l-1.22-4.27a.93.93,0,0,1,0-.13.62.62,0,0,1,0-.13c0-.32.22-.52.65-.59l.7-.11c.51-.07.82.11.93.56Z" class="cls-1"/><path data-cppathid="10011" transform="translate(-1.1 -1.18)" d="M5.21,49.39a.91.91,0,0,1-.65.29.88.88,0,0,1-.43-.1l-.67-.31c-.31-.14-.46-.33-.46-.57a.76.76,0,0,1,.26-.53l11-11H2.57c-.53,0-.79-.24-.79-.72s.26-.72.79-.72H14.9V34.06a.71.71,0,0,1,.8-.8h1.48a.71.71,0,0,1,.8.8v1.68h3.21c.53,0,.79.24.79.72s-.26.72-.79.72H18V49.85a.66.66,0,0,1-.82.74l-4-.29c-.48,0-.72-.25-.72-.62a.81.81,0,0,1,.26-.65.86.86,0,0,1,.65-.17L14.9,49V39.65Z" class="cls-1"/><path data-cppathid="10012" transform="translate(-1.1 -1.18)" d="M33.22,37.2c.27.18.4.36.4.55a.72.72,0,0,1-.33.55l-.29.24a.92.92,0,0,1-.58.22,1,1,0,0,1-.52-.17l-6.36-3.86c-.28-.18-.41-.36-.41-.55a.74.74,0,0,1,.33-.56l.29-.24a1,1,0,0,1,.58-.21,1,1,0,0,1,.53.17ZM41,39.79a1,1,0,0,1,.55-.17.91.91,0,0,1,.55.2l.31.24a.71.71,0,0,1,.34.55.67.67,0,0,1-.38.55L28.22,50a1,1,0,0,1-.55.17,1,1,0,0,1-.55-.19l-.31-.24a.72.72,0,0,1-.34-.56.68.68,0,0,1,.39-.55Z" class="cls-1"/><path data-cppathid="10013" transform="translate(-1.1 -1.18)" d="M57.12,50.78a.83.83,0,0,1-.67.39,1.61,1.61,0,0,1-.39-.07l-.91-.32c-.35-.12-.53-.32-.53-.57a.82.82,0,0,1,.2-.48l6.72-9.1H46.9c-.53,0-.8-.24-.8-.72s.27-.72.8-.72H64.51c.45,0,.67.16.67.48a.8.8,0,0,1-.19.48Zm5.06-17.4c.53,0,.8.24.8.72s-.27.72-.8.72H48.89c-.53,0-.79-.24-.79-.72s.26-.72.79-.72Z" class="cls-1"/><path data-cppathid="10014" transform="translate(-1.1 -1.18)" d="M69.22,44.45a1,1,0,0,1-.51.14.88.88,0,0,1-.6-.24l-.24-.19a.79.79,0,0,1-.33-.55.7.7,0,0,1,.4-.55l16.85-9.75a1.16,1.16,0,0,1,.51-.14.88.88,0,0,1,.6.24l.24.19a.79.79,0,0,1,.33.55c0,.19-.14.38-.41.55l-6.67,3.87a.74.74,0,0,1,.19.55v10.8a.7.7,0,0,1-.79.79H77.3a.7.7,0,0,1-.79-.79v-9.7Z" class="cls-1"/><path data-cppathid="10015" transform="translate(-1.1 -1.18)" d="M97.25,37.2c.27.18.41.36.41.55a.73.73,0,0,1-.34.55l-.29.24a.91.91,0,0,1-.57.22,1,1,0,0,1-.53-.17l-6.36-3.86c-.27-.18-.41-.36-.41-.55a.72.72,0,0,1,.34-.56l.28-.24a1,1,0,0,1,.58-.21.92.92,0,0,1,.53.17ZM105,39.79a1,1,0,0,1,.55-.17.91.91,0,0,1,.55.2l.32.24a.72.72,0,0,1,.33.55.67.67,0,0,1-.38.55L92.26,50a1,1,0,0,1-.56.17,1,1,0,0,1-.55-.19l-.31-.24a.75.75,0,0,1-.34-.56.68.68,0,0,1,.39-.55Z" class="cls-1"/><path data-cppathid="10016" transform="translate(-1.1 -1.18)" d="M123.77,49.18c.51,0,.77.28.77.74s-.28.73-.82.7a17,17,0,0,1-3.78-.6,11.32,11.32,0,0,1-3-1.37,6.91,6.91,0,0,1-2-2,4.46,4.46,0,0,1-.74-2.46,7.68,7.68,0,0,1,1.6-4.71,12.5,12.5,0,0,1,4.43-3.61l-10.08.72a.72.72,0,0,1-.87-.82c0-.37.24-.58.72-.62L125,34.06a.83.83,0,0,1,.94.62,1.35,1.35,0,0,1,0,.26c0,.32-.21.55-.64.68A13.53,13.53,0,0,0,121,37.51a9,9,0,0,0-2.81,3,7.29,7.29,0,0,0-1,3.72,4.22,4.22,0,0,0,.58,2.3,4.87,4.87,0,0,0,1.56,1.5,8,8,0,0,0,2.13.85A14,14,0,0,0,123.77,49.18Zm1-4.73a1.61,1.61,0,0,1,0,.26.62.62,0,0,1-.65.67l-.69.1a.73.73,0,0,1-.92-.62l-1.24-5a1,1,0,0,1,0-.27c0-.4.22-.62.65-.67l.7-.1a.73.73,0,0,1,.93.63ZM127.42,43a1.87,1.87,0,0,1,0,.27c0,.37-.21.59-.62.67l-.7.12a.74.74,0,0,1-.94-.62L124,38.71a.74.74,0,0,1,0-.14s0-.1,0-.15c0-.35.22-.56.65-.64l.7-.12a.72.72,0,0,1,.93.62Z" class="cls-1"/><path data-cppathid="10017" transform="translate(-1.1 -1.18)" d="M143.9,49.18c.51,0,.77.28.77.74s-.27.73-.82.7a17,17,0,0,1-3.78-.6,11.11,11.11,0,0,1-3-1.37,7,7,0,0,1-2-2,4.45,4.45,0,0,1-.73-2.46,7.68,7.68,0,0,1,1.6-4.71,12.46,12.46,0,0,1,4.42-3.61l-10.08.72a.72.72,0,0,1-.86-.82c0-.37.24-.58.72-.62l15.09-1.08a.82.82,0,0,1,.94.62,1.74,1.74,0,0,1,0,.26c0,.32-.22.55-.65.68a13.63,13.63,0,0,0-4.37,1.89,9.25,9.25,0,0,0-2.81,3,7.39,7.39,0,0,0-1,3.72,4.22,4.22,0,0,0,.59,2.3A4.67,4.67,0,0,0,139.5,48a7.91,7.91,0,0,0,2.12.85A14.16,14.16,0,0,0,143.9,49.18Zm1-4.73a.94.94,0,0,1,0,.26.62.62,0,0,1-.64.67l-.7.1a.71.71,0,0,1-.91-.62l-1.25-5a1.06,1.06,0,0,1,0-.27.62.62,0,0,1,.64-.67l.7-.1a.74.74,0,0,1,.94.63ZM147.55,43a1.06,1.06,0,0,1,0,.27c0,.37-.2.59-.62.67l-.7.12a.73.73,0,0,1-.93-.62l-1.23-4.71,0-.14a.76.76,0,0,1,0-.15c0-.35.21-.56.64-.64l.7-.12a.74.74,0,0,1,.94.62Z" class="cls-1"/><path data-cppathid="10018" transform="translate(-1.1 -1.18)" d="M163.68,49.1c.53,0,.79.24.79.72s-.26.72-.79.72h-7.35a11.13,11.13,0,0,1-3-.37,5.29,5.29,0,0,1-2.1-1,2,2,0,0,1-.77-1.56,3,3,0,0,1,.41-1.48A6.9,6.9,0,0,1,152,44.62a.84.84,0,0,1,.62-.29,1,1,0,0,1,.48.12l.7.36a.63.63,0,0,1,.43.55,1,1,0,0,1-.17.5,3.74,3.74,0,0,0-.38.86,2.74,2.74,0,0,0-.14.85,1.27,1.27,0,0,0,.58,1.2,5.11,5.11,0,0,0,2.22.33Zm-.24-3.55a.68.68,0,0,1-.7.89l-1.44.12a.73.73,0,0,1-.89-.7l-.74-4.7h-8.11c-.53,0-.79-.24-.79-.72s.26-.72.79-.72h7.89l-.57-3.6h-7.35c-.52,0-.79-.24-.79-.72s.27-.72.79-.72h7.13l-.17-1.08a.69.69,0,0,1,.7-.89l1.44-.12a.74.74,0,0,1,.89.7l.21,1.39h4c.52,0,.79.24.79.72s-.27.72-.79.72H162l.58,3.6h4.29c.53,0,.79.24.79.72s-.26.72-.79.72h-4.08Z" class="cls-1"/><path data-cppathid="10019" transform="translate(-1.1 -1.18)" d="M186.89,45.46a3.67,3.67,0,0,1-1.13,2.65,7.33,7.33,0,0,1-3.12,1.76,15.25,15.25,0,0,1-4.59.63,16.19,16.19,0,0,1-3.46-.33,6.24,6.24,0,0,1-2.34-.92,1.72,1.72,0,0,1-.84-1.42,2,2,0,0,1,.82-1.55,6.42,6.42,0,0,1,2.15-1.14,9.15,9.15,0,0,1,2.79-.43,7.15,7.15,0,0,1,3.6.84,4.14,4.14,0,0,1,2,2.38,3.07,3.07,0,0,0,1.08-2.47,4,4,0,0,0-.56-2.16,3.94,3.94,0,0,0-1.56-1.47,4.84,4.84,0,0,0-2.29-.53,9.31,9.31,0,0,0-3,.52,11.8,11.8,0,0,0-2.88,1.45L172,44.47a1.31,1.31,0,0,1-.82.36,1,1,0,0,1-.79-.43l-.19-.19a.74.74,0,0,1-.24-.53.68.68,0,0,1,.31-.55,9.66,9.66,0,0,1,1.34-.94l9-7.15h-8.78c-.53,0-.8-.23-.8-.7s.27-.69.8-.69h12.33c.45,0,.67.13.67.41a.73.73,0,0,1-.33.55L177.65,40a13.32,13.32,0,0,1,1.75-.12,9.71,9.71,0,0,1,2.89.43,8.49,8.49,0,0,1,2.39,1.19,5.77,5.77,0,0,1,1.62,1.77A4.23,4.23,0,0,1,186.89,45.46Zm-12.41,2.37a1,1,0,0,0,.3.78,2,2,0,0,0,1.07.39,17.5,17.5,0,0,0,2.2.1A13.07,13.07,0,0,0,179.9,49a1.61,1.61,0,0,1-.07-.31c-.19-1.71-1.08-2.57-2.66-2.57a3.68,3.68,0,0,0-2,.46A1.43,1.43,0,0,0,174.48,47.83Z" class="cls-1"/><path data-cppathid="10020" transform="translate(-1.1 -1.18)" d="M204.07,50.3a.76.76,0,0,1-.62.34,1,1,0,0,1-.46-.12l-.72-.34c-.3-.14-.46-.33-.46-.57a1.08,1.08,0,0,1,.2-.51,8.25,8.25,0,0,0,.88-1.76,12,12,0,0,0,.6-2.2,12.3,12.3,0,0,0,.22-2.32,9.43,9.43,0,0,0-1.08-4.8,4.71,4.71,0,0,0-3-2.33,32,32,0,0,1,.58,5.71,12.45,12.45,0,0,1-1.38,6.34,4.45,4.45,0,0,1-4.07,2.32,5.14,5.14,0,0,1-2.86-.79A5.33,5.33,0,0,1,190,47.1a7.15,7.15,0,0,1-.67-3.18,10.37,10.37,0,0,1,.69-3.79A10.1,10.1,0,0,1,191.91,37a9.1,9.1,0,0,1,2.86-2.13,8,8,0,0,1,3.47-.77,9.37,9.37,0,0,1,4.56,1,7.06,7.06,0,0,1,2.95,3,9.85,9.85,0,0,1,1,4.67A10.82,10.82,0,0,1,204.07,50.3Zm-11.71-6.38a7.88,7.88,0,0,0,.33,2.34,5.23,5.23,0,0,0,.88,1.72,1.5,1.5,0,0,0,1.14.64c.45,0,.84-.33,1.19-1a9.89,9.89,0,0,0,.81-2.7,22.34,22.34,0,0,0,.3-3.84c0-.82,0-1.66-.1-2.52s-.19-1.75-.35-2.64a6.17,6.17,0,0,0-2.13,1.77,9.73,9.73,0,0,0-1.51,2.82A10.45,10.45,0,0,0,192.36,43.92Z" class="cls-1"/><path data-cppathid="10021" transform="translate(-1.1 -1.18)" d="M223.25,49.18c.51,0,.76.28.76.74s-.27.73-.81.7a17,17,0,0,1-3.78-.6,11.32,11.32,0,0,1-3-1.37,7.07,7.07,0,0,1-2-2,4.53,4.53,0,0,1-.73-2.46,7.68,7.68,0,0,1,1.6-4.71,12.5,12.5,0,0,1,4.43-3.61l-10.08.72a.72.72,0,0,1-.87-.82c0-.37.24-.58.72-.62l15.1-1.08a.81.81,0,0,1,.93.62,1,1,0,0,1,.05.26c0,.32-.21.55-.65.68a13.57,13.57,0,0,0-4.36,1.89,9,9,0,0,0-2.81,3,7.3,7.3,0,0,0-1,3.72,4.22,4.22,0,0,0,.59,2.3,4.67,4.67,0,0,0,1.56,1.5,8,8,0,0,0,2.13.85A13.83,13.83,0,0,0,223.25,49.18Zm1-4.73a.88.88,0,0,1,0,.26.62.62,0,0,1-.65.67l-.7.1a.72.72,0,0,1-.91-.62l-1.25-5a1.87,1.87,0,0,1,0-.27c0-.4.22-.62.65-.67l.69-.1a.73.73,0,0,1,.94.63ZM226.89,43a1,1,0,0,1,0,.27c0,.37-.21.59-.63.67l-.69.12a.74.74,0,0,1-.94-.62l-1.22-4.71a.74.74,0,0,1,0-.14.76.76,0,0,1,0-.15c0-.35.22-.56.65-.64l.69-.12a.73.73,0,0,1,.94.62Z" class="cls-1"/><path data-cppathid="10022" transform="translate(-1.1 -1.18)" d="M236.42,51a.74.74,0,0,1,.27.52c0,.23-.16.41-.46.56l-.46.21a.85.85,0,0,1-.43.1.92.92,0,0,1-.67-.31l-4.42-4.44a.8.8,0,0,1-.26-.53c0-.23.15-.41.46-.55l.45-.22a1,1,0,0,1,.43-.1.91.91,0,0,1,.68.32Z" class="cls-1"/><path data-cppathid="10023" transform="translate(-1.1 -1.18)" d="M267.14,43.94a1.43,1.43,0,0,1,0-.16.77.77,0,0,1,0-.15.66.66,0,0,1,.58-.67l1.22-.31.17,0h.15a.72.72,0,0,1,.69.5,9.26,9.26,0,0,1,.53,1.82,9.94,9.94,0,0,1,.19,1.93,3.11,3.11,0,0,1-2,2.93,13.64,13.64,0,0,1-5.77,1,7.47,7.47,0,0,1-4.94-1.49A5.19,5.19,0,0,1,256.15,45a19.43,19.43,0,0,1,.48-3.36h-2.16c-.53,0-.79-.24-.79-.72s.26-.72.79-.72h2.47c.18-.83.39-1.73.65-2.71h-2.78c-.53,0-.8-.24-.8-.72s.27-.72.8-.72H258c.19-.7.39-1.43.6-2.18a.76.76,0,0,1,.94-.65l1.39.17c.43.05.65.27.65.67a1.58,1.58,0,0,1,0,.29c-.16.57-.31,1.14-.46,1.7h7.71c.52,0,.79.24.79.72s-.27.72-.79.72h-8.09c-.24,1-.46,1.87-.65,2.71h8.23c.53,0,.79.24.79.72s-.26.72-.79.72H259.7a19.43,19.43,0,0,0-.48,3.36,4.82,4.82,0,0,0,.9,3.24,3.46,3.46,0,0,0,2.75,1,15.46,15.46,0,0,0,2.95-.21,2.07,2.07,0,0,0,1.37-.73,2.67,2.67,0,0,0,.36-1.51,10.52,10.52,0,0,0-.12-1.41A14.86,14.86,0,0,0,267.14,43.94Z" class="cls-1"/><path data-cppathid="10024" transform="translate(-1.1 -1.18)" d="M282.43,50.59a1,1,0,0,1-.46.1.88.88,0,0,1-.64-.29l-.15-.14a.78.78,0,0,1-.26-.51c0-.25.17-.45.5-.6A17.47,17.47,0,0,0,286.1,46a4.49,4.49,0,0,0,1.54-3.15,2.38,2.38,0,0,0-1.19-2.17,5.84,5.84,0,0,0-3.11-.74,13.76,13.76,0,0,0-3.5.51,20.73,20.73,0,0,0-4,1.51.94.94,0,0,1-.51.14,1,1,0,0,1-.6-.26l-.19-.17a.73.73,0,0,1-.29-.53c0-.24.16-.43.46-.57a19.9,19.9,0,0,1,4.34-1.49,20.28,20.28,0,0,1,4.25-.48,13.06,13.06,0,0,1,3.73.49,6.49,6.49,0,0,1,2.66,1.43,3.1,3.1,0,0,1,1,2.33,5.4,5.4,0,0,1-2.1,3.85A24.82,24.82,0,0,1,282.43,50.59Zm6.36-15.05c.38.1.58.29.58.58a.75.75,0,0,1-.1.36l0,.1a.84.84,0,0,1-.72.45h-.14l-.17,0q-3-.84-6-1.47c-2-.43-4-.79-5.93-1.09-.45-.05-.67-.25-.67-.6a.41.41,0,0,1,0-.11l0-.13v0a.74.74,0,0,1,1-.57q3.12.45,6.18,1.11C284.79,34.53,286.81,35,288.79,35.54Z" class="cls-1"/><path data-cppathid="10025" transform="translate(-1.1 -1.18)" d="M4.37,66.22a.75.75,0,0,1-.94.62L2,66.67c-.45,0-.67-.27-.67-.67a.86.86,0,0,1,0-.26l1.63-6A.74.74,0,0,1,4,59.16l1.4.17c.44.05.67.27.67.67a1.38,1.38,0,0,1,0,.26l-.46,1.68h5.21c.53,0,.79.24.79.72s-.26.72-.79.72H9.07l.39,2a1.09,1.09,0,0,1,0,.22c0,.4-.23.62-.7.67l-1.44.14a.73.73,0,0,1-.88-.67L6,63.5a.37.37,0,0,1,0-.12H5.14Zm.5,3.84a.7.7,0,0,1-.79.79H2.59a.7.7,0,0,1-.79-.79V67.75A.7.7,0,0,1,2.59,67H4.08a.8.8,0,0,1,.53.17h5.66v-.36a.7.7,0,0,1,.79-.79h1.49a.7.7,0,0,1,.79.79v.36h8.45c.48,0,.72.21.72.62a1,1,0,0,1-.05.27l-.6,2.3a.73.73,0,0,1-.93.62l-1.39-.16c-.45,0-.68-.28-.68-.68a1.74,1.74,0,0,1,.05-.26l.34-1.27H4.87Zm13,3.4a.7.7,0,0,1-.79.8H16.06a.9.9,0,0,1-.48.12H8.4V75h9.5a.71.71,0,0,1,.8.8V79a.7.7,0,0,1-.8.79H16.42a.94.94,0,0,1-.39-.07H8a.92.92,0,0,1-.38.07H6.12A.7.7,0,0,1,5.33,79V70.2a.7.7,0,0,1,.79-.79h1a.85.85,0,0,1,.56-.17h9.45a.7.7,0,0,1,.79.79Zm-3.07-2.78H8.4v2.26h6.43Zm.79,5.78H8.4v1.85h7.22Zm-1.39-11.4a.77.77,0,0,1-1,.56L12,65.38q-.6-.12-.6-.6a1.19,1.19,0,0,1,.07-.39l1.92-4.68a.77.77,0,0,1,1-.55l1.27.24q.6.12.6.6a1.14,1.14,0,0,1-.07.38l-.65,1.56h6c.53,0,.8.24.8.72s-.27.72-.8.72H20.33a1.21,1.21,0,0,1-.07.34l-.92,2.52a.81.81,0,0,1-1,.58l-1.29-.22c-.43-.08-.65-.29-.65-.62a.8.8,0,0,1,.07-.34l.82-2.26h-2.4Z" class="cls-1"/><path data-cppathid="10026" transform="translate(-1.1 -1.18)" d="M31.25,74.33a1,1,0,0,1,.48-.15,1,1,0,0,1,.62.27l.19.17a.68.68,0,0,1,.29.55.62.62,0,0,1-.41.55l-4.89,2.62a1,1,0,0,1-.48.14,1.1,1.1,0,0,1-.63-.26l-.19-.17a.77.77,0,0,1-.29-.55.65.65,0,0,1,.41-.56l1.47-.79a.9.9,0,0,1-.12-.48V70.1H26.62c-.53,0-.8-.24-.8-.72s.27-.72.8-.72H27.7V63.6H26.42c-.52,0-.79-.24-.79-.72s.27-.72.79-.72H32c.52,0,.79.24.79.72s-.27.72-.79.72H30.77v5.06h1.05c.53,0,.8.24.8.72s-.27.72-.8.72H30.77v4.49Zm10,3.6V78h4c.53,0,.79.24.79.72s-.26.72-.79.72H34.1c-.52,0-.79-.24-.79-.72s.27-.72.79-.72h4V75.58h-3c-.53,0-.79-.24-.79-.72s.26-.72.79-.72h3V71.62H36.55a.7.7,0,0,1-.74.45H34.32a.7.7,0,0,1-.79-.79V60.07a.7.7,0,0,1,.79-.79h1.49a.67.67,0,0,1,.74.48H45a.7.7,0,0,1,.8.79V71.28a.7.7,0,0,1-.8.79H43.54a.71.71,0,0,1-.75-.45H41.21v2.52h3c.53,0,.8.24.8.72s-.27.72-.8.72h-3ZM38.14,61.27V61.2H36.6v4h1.54ZM36.6,70.18h1.54V66.62H36.6Zm4.61-8.91v3.91h1.53v-4H41.21Zm0,8.91h1.53V66.62H41.21Z" class="cls-1"/><path data-cppathid="10027" transform="translate(-1.1 -1.18)" d="M52.3,74.54a.85.85,0,0,1-.58.24,1,1,0,0,1-.5-.14l-.53-.29c-.29-.17-.43-.37-.43-.57a.66.66,0,0,1,.31-.53l4.82-4h-5.3c-.53,0-.79-.24-.79-.72s.26-.72.79-.72h7l1.34-1.13v-2.5h-7.1c-.53,0-.79-.24-.79-.72s.26-.72.79-.72h7.1V59.64a.7.7,0,0,1,.8-.79h1.48a.7.7,0,0,1,.8.79v3.07h1.65L67,59.57a.85.85,0,0,1,.58-.24,1,1,0,0,1,.5.14l.53.29a.68.68,0,0,1,.43.58.66.66,0,0,1-.31.52l-2.21,1.85h2.21c.53,0,.79.24.79.72s-.26.72-.79.72H64.75l-3.21,2.69v.94h8.37c.53,0,.79.24.79.72s-.26.72-.79.72H58.68l-1.9,1.58H68.57a.7.7,0,0,1,.79.79v7.68a.7.7,0,0,1-.79.79H67.08a.68.68,0,0,1-.77-.62H56.42a.7.7,0,0,1-.76.53H54.17a.7.7,0,0,1-.79-.79V73.63Zm14-2.3H56.45v2.18h9.84ZM56.45,78h9.84V75.86H56.45Z" class="cls-1"/><path data-cppathid="10028" transform="translate(-1.1 -1.18)" d="M77.06,77a.73.73,0,0,1,.66.18.84.84,0,0,1,.26.66q0,.52-.72.6L74,78.79A.68.68,0,0,1,73.2,78V62.76A.7.7,0,0,1,74,62h1.49a.7.7,0,0,1,.79.79V77.09Zm10.83-9.77a.81.81,0,0,1-.7.41l-.15,0a1.13,1.13,0,0,1-.18,0l-1-.31c-.35-.1-.53-.29-.53-.58a.85.85,0,0,1,.17-.48l1.25-1.78H80c-.53,0-.79-.24-.79-.72S79.46,63,80,63h9.65c.45,0,.67.16.67.48a.78.78,0,0,1-.17.48Zm1.82,10c.53,0,.79.24.79.72s-.26.72-.79.72H85.49a10,10,0,0,1-2.93-.41,5.75,5.75,0,0,1-2.11-1.1,2.07,2.07,0,0,1-.79-1.59,5.54,5.54,0,0,1,1.39-2.9.8.8,0,0,1,.69-.41,1.54,1.54,0,0,1,.39.07l.91.36c.32.15.48.34.48.58a1,1,0,0,1-.17.48,4.5,4.5,0,0,0-.45.94,2.48,2.48,0,0,0-.17.88,1.37,1.37,0,0,0,.63,1.26,4.19,4.19,0,0,0,2.13.4Z" class="cls-1"/><path data-cppathid="10029" transform="translate(-1.1 -1.18)" d="M96,78.46a.77.77,0,0,1-.7.5h-.14l-.17,0-.77-.21c-.37-.1-.55-.3-.55-.6a1,1,0,0,1,.09-.41l2.19-4.59a1.12,1.12,0,0,1-.27,0H94.42a.71.71,0,0,1-.8-.79V64.27a.7.7,0,0,1,.8-.79h1.24a.74.74,0,0,1,.68.31h.93v-2H94.68c-.53,0-.79-.24-.79-.72s.26-.72.79-.72h2.59v-.52a.71.71,0,0,1,.79-.8h1a.7.7,0,0,1,.79.8v.52h1.9c.53,0,.79.24.79.72s-.26.72-.79.72h-1.9v2h2.86a.7.7,0,0,1,.79.79v7.76a.7.7,0,0,1-.79.79h-1.25a1,1,0,0,1-.33,0l1.65,3.67a.81.81,0,0,1,.1.39c0,.32-.19.52-.58.62l-.77.19-.26,0a.74.74,0,0,1-.72-.55l-.7-1.56v3.24a.7.7,0,0,1-.79.79h-1a.7.7,0,0,1-.79-.79V75.74Zm.48-7.2h.81v-6h-.81Zm4.22-6h-.82v6h.82Zm12.86,10a.7.7,0,0,1-.79.79h-1.49a.7.7,0,0,1-.74-.45h-3.6a.7.7,0,0,1-.74.45h-1.49a.7.7,0,0,1-.79-.79V63.79a.7.7,0,0,1,.79-.79h1.49l.24,0,.52-1.82H104.3c-.52,0-.79-.24-.79-.72s.27-.72.79-.72h8.88c.53,0,.8.24.8.72s-.27.72-.8.72H110v0a1.6,1.6,0,0,1,0,.27l-.58,2h3.41a.7.7,0,0,1,.79.79Zm-7.17,4.42a.84.84,0,0,1-.72.45,1,1,0,0,1-.31,0l-1-.31c-.36-.13-.55-.33-.55-.6a.83.83,0,0,1,.15-.43l1.15-1.82a.83.83,0,0,1,.72-.46,1.5,1.5,0,0,1,.31,0l1,.31c.37.13.55.33.55.6a.89.89,0,0,1-.14.43Zm4.1-14.76H107v2h3.5ZM107,70.37h3.5v-2H107Zm0,3.77h3.5V71.81H107Zm6.62,4.56a.83.83,0,0,1,.15.43c0,.29-.19.49-.56.62l-1,.31a1,1,0,0,1-.31,0,.84.84,0,0,1-.72-.45L110,77.86a1,1,0,0,1-.14-.44c0-.28.18-.49.55-.62l1-.31a1.5,1.5,0,0,1,.31,0,.83.83,0,0,1,.72.46Z" class="cls-1"/><path data-cppathid="10030" transform="translate(-1.1 -1.18)" d="M124.06,79.44c-.55,0-.82-.24-.82-.72s.28-.72.84-.72a18.1,18.1,0,0,0,4-.41,3.44,3.44,0,0,0,2-1.16,3.49,3.49,0,0,0,.59-2.13,2.12,2.12,0,0,0-.56-1.44,3.89,3.89,0,0,0-1.54-1,6.38,6.38,0,0,0-2.22-.36,28.41,28.41,0,0,0-7.61,1.08l-.16,0h-.15c-.43,0-.61-.26-.53-.77l.87-6a.75.75,0,0,1,.89-.69l1.44.09c.54,0,.77.32.69.87l-.6,4.34c.8-.13,1.64-.23,2.52-.31s1.76-.12,2.64-.12a10.91,10.91,0,0,1,2.75.35,10,10,0,0,1,2.38.93,5.81,5.81,0,0,1,1.65,1.35,2.46,2.46,0,0,1,.61,1.59,4,4,0,0,1-2.42,3.77A17.29,17.29,0,0,1,124.06,79.44Zm7.29-14.54c.37.12.55.32.55.57a.41.41,0,0,1,0,.19l-.12.22-.1.12a.84.84,0,0,1-.7.41,1.27,1.27,0,0,1-.36-.07L121.15,63c-.37-.12-.55-.32-.55-.57a.54.54,0,0,1,.05-.22,1,1,0,0,1,.12-.19l.09-.12a.86.86,0,0,1,.7-.41,1,1,0,0,1,.36.07Z" class="cls-1"/><path data-cppathid="10031" transform="translate(-1.1 -1.18)" d="M140.21,73.42a.75.75,0,0,1-.94.62l-1.39-.17c-.45-.05-.67-.27-.67-.67a.86.86,0,0,1,0-.26l1.8-6.6h-1.49c-.53,0-.79-.24-.79-.72s.26-.72.79-.72h1.87l.94-3.41a.74.74,0,0,1,.93-.63l1.39.17c.45,0,.68.27.68.67a1.6,1.6,0,0,1,0,.27l-.79,2.93h2.06c.53,0,.79.24.79.72s-.26.72-.79.72h-2.47Zm13.39,2.3a.72.72,0,0,1,.26.5c0,.26-.16.45-.5.58l-.79.31a.94.94,0,0,1-.39.07,1,1,0,0,1-.69-.33,12.75,12.75,0,0,0-1.56-1.37v.29a3.46,3.46,0,0,1-1.25,2.85,5.27,5.27,0,0,1-3.43,1,6.76,6.76,0,0,1-2.67-.51,4.85,4.85,0,0,1-1.92-1.43,3.31,3.31,0,0,1-.72-2.11,2.68,2.68,0,0,1,.7-1.82,4.54,4.54,0,0,1,1.93-1.21,8.82,8.82,0,0,1,4.29-.29V67.94a.7.7,0,0,1,.79-.79h1.49a.7.7,0,0,1,.79.79V73.3A14.77,14.77,0,0,1,152,74.5,15.34,15.34,0,0,1,153.6,75.72ZM143,75.58a3.83,3.83,0,0,0,.19,1.18,2.1,2.1,0,0,0,.68,1,2,2,0,0,0,1.36.41,1.38,1.38,0,0,0,1.22-.53,3.32,3.32,0,0,0,.39-1.89v-2a5.07,5.07,0,0,0-1.47-.26,2.84,2.84,0,0,0-1.85.46A2,2,0,0,0,143,75.58Zm11.64-7.76a.92.92,0,0,1,.19.48c0,.28-.18.48-.53.6l-1,.34a.86.86,0,0,1-.36.07.84.84,0,0,1-.7-.41l-3.4-4.72a.87.87,0,0,1-.2-.48c0-.28.18-.48.53-.6l1-.34a1,1,0,0,1,.36-.07.83.83,0,0,1,.7.41Z" class="cls-1"/><path data-cppathid="10032" transform="translate(-1.1 -1.18)" d="M170.18,78a.67.67,0,0,1,.36.55.71.71,0,0,1-.36.55l-.38.27a.78.78,0,0,1-.55.19.9.9,0,0,1-.55-.19l-10-6.89a.72.72,0,0,1-.36-.55.82.82,0,0,1,.32-.58l10.36-9a.86.86,0,0,1,1.11-.12l.57.31a.72.72,0,0,1,.41.58.7.7,0,0,1-.29.52l-9.5,8.24Z" class="cls-1"/><path data-cppathid="10033" transform="translate(-1.1 -1.18)" d="M178,73.42a.75.75,0,0,1-.94.62l-1.39-.17c-.45-.05-.67-.27-.67-.67a.86.86,0,0,1,.05-.26l1.8-6.6h-1.49c-.53,0-.79-.24-.79-.72s.26-.72.79-.72h1.87l.94-3.41a.74.74,0,0,1,.93-.63l1.39.17c.45,0,.68.27.68.67a1.6,1.6,0,0,1-.05.27l-.79,2.93h2.06c.53,0,.79.24.79.72s-.26.72-.79.72h-2.47Zm13.39,2.3a.72.72,0,0,1,.26.5c0,.26-.16.45-.5.58l-.79.31a.94.94,0,0,1-.39.07,1,1,0,0,1-.69-.33,12.75,12.75,0,0,0-1.56-1.37v.29a3.46,3.46,0,0,1-1.25,2.85,5.27,5.27,0,0,1-3.43,1,6.76,6.76,0,0,1-2.67-.51,4.85,4.85,0,0,1-1.92-1.43,3.31,3.31,0,0,1-.72-2.11,2.68,2.68,0,0,1,.7-1.82,4.54,4.54,0,0,1,1.93-1.21,8.82,8.82,0,0,1,4.29-.29V67.94a.7.7,0,0,1,.79-.79h1.49a.7.7,0,0,1,.79.79V73.3a14.77,14.77,0,0,1,2.07,1.2A15.34,15.34,0,0,1,191.4,75.72Zm-10.58-.14a3.83,3.83,0,0,0,.19,1.18,2.1,2.1,0,0,0,.68,1,2,2,0,0,0,1.36.41,1.38,1.38,0,0,0,1.22-.53,3.32,3.32,0,0,0,.39-1.89v-2a5.07,5.07,0,0,0-1.47-.26,2.84,2.84,0,0,0-1.85.46A2,2,0,0,0,180.82,75.58Zm11.64-7.76a.92.92,0,0,1,.19.48c0,.28-.18.48-.53.6l-1,.34a.86.86,0,0,1-.36.07.84.84,0,0,1-.7-.41l-3.4-4.72a.87.87,0,0,1-.2-.48c0-.28.18-.48.53-.6l1-.34a1,1,0,0,1,.36-.07.83.83,0,0,1,.7.41Z" class="cls-1"/><path data-cppathid="10034" transform="translate(-1.1 -1.18)" d="M208,78a.67.67,0,0,1,.36.55.71.71,0,0,1-.36.55l-.38.27a.78.78,0,0,1-.55.19.88.88,0,0,1-.55-.19l-10-6.89a.72.72,0,0,1-.36-.55.82.82,0,0,1,.32-.58l10.36-9a.86.86,0,0,1,1.11-.12l.57.31a.61.61,0,0,1,.12,1.1l-9.5,8.24Z" class="cls-1"/><path data-cppathid="10035" transform="translate(-1.1 -1.18)" d="M226.13,78c.51,0,.76.28.76.74s-.27.73-.81.7a17,17,0,0,1-3.78-.6,11.32,11.32,0,0,1-3-1.37,7.07,7.07,0,0,1-2-2A4.53,4.53,0,0,1,216.5,73a7.68,7.68,0,0,1,1.6-4.71,12.5,12.5,0,0,1,4.43-3.61l-10.08.72a.72.72,0,0,1-.87-.82c0-.37.24-.58.72-.62l15.1-1.08a.81.81,0,0,1,.93.62,1,1,0,0,1,0,.26c0,.32-.21.55-.65.68a13.57,13.57,0,0,0-4.36,1.89,9,9,0,0,0-2.81,3,7.3,7.3,0,0,0-1,3.72,4.22,4.22,0,0,0,.59,2.3,4.67,4.67,0,0,0,1.56,1.5,8,8,0,0,0,2.13.85A13.83,13.83,0,0,0,226.13,78Z" class="cls-1"/><path data-cppathid="10036" transform="translate(-1.1 -1.18)" d="M234.91,74.26a.83.83,0,0,1,.67-.39,1.61,1.61,0,0,1,.39.07l.91.32c.33.11.5.3.5.57a.8.8,0,0,1-.19.48L234.43,79a.82.82,0,0,1-.67.38,1.24,1.24,0,0,1-.39-.07l-.91-.31c-.33-.13-.5-.32-.5-.58a.84.84,0,0,1,.19-.48Zm1.8-4.76a.69.69,0,0,1,.31.56.63.63,0,0,1-.41.55l-.55.29a1,1,0,0,1-.5.14.85.85,0,0,1-.58-.24l-2.49-2.09a.67.67,0,0,1-.32-.53c0-.22.15-.41.44-.57l.52-.29.27-.12a.69.69,0,0,1,.24,0,.9.9,0,0,1,.57.27Zm.1-6.24a1,1,0,0,1,.26.53c0,.24-.16.43-.48.58l-.7.31a1.25,1.25,0,0,1-.45.12.86.86,0,0,1-.65-.31l-2.3-2.38a.74.74,0,0,1-.27-.53q0-.36.48-.57l.7-.31a1.25,1.25,0,0,1,.45-.12.86.86,0,0,1,.65.31Zm2.28,8.36a1.15,1.15,0,0,1-.36.07.84.84,0,0,1-.7-.43l-.05-.08a1,1,0,0,1-.14-.45.61.61,0,0,1,.5-.58,14.68,14.68,0,0,0,2.45-1.26c.86-.53,1.74-1.14,2.62-1.81-.8-.64-1.54-1.28-2.21-1.92s-1.25-1.24-1.73-1.8a.85.85,0,0,1-.22-.48v-.07h-.45c-.53,0-.79-.24-.79-.72s.26-.72.79-.72h4.87V60a.7.7,0,0,1,.79-.8H246a.7.7,0,0,1,.79.8v1.39h5c.53,0,.8.24.8.72s-.27.72-.8.72H251v0a.38.38,0,0,1-.12.28A25,25,0,0,1,249,65c-.71.67-1.47,1.34-2.29,2a26.27,26.27,0,0,0,2.69,1.8,20.37,20.37,0,0,0,2.62,1.29c.35.13.52.32.52.58a.72.72,0,0,1-.14.41l-.07.12a.85.85,0,0,1-.7.43,1.27,1.27,0,0,1-.36-.07l-.45-.17v7.73a.71.71,0,0,1-.8.79h-1.48a.71.71,0,0,1-.8-.79V77.06h-5.3l-.22,2.21a.7.7,0,0,1-.84.72l-1.48-.07q-.83,0-.75-.84l.75-7.8C239.64,71.41,239.36,71.52,239.09,71.62Zm3.09-8.81a29.38,29.38,0,0,0,2.91,2.88A38.21,38.21,0,0,0,248,62.81Zm.41,12.81h5.18V73.08h-4.94Zm.53-5.49L243,71.64h4.8V70.39a.8.8,0,0,1,.08-.36c-.48-.25-1-.53-1.42-.83s-.91-.59-1.34-.9c-.69.5-1.37,1-2,1.37A1,1,0,0,1,243.12,70.13Z" class="cls-1"/><path data-cppathid="10037" transform="translate(-1.1 -1.18)" d="M268.41,79.58a.84.84,0,0,1-.62.32,1.35,1.35,0,0,1-.46-.12l-.72-.36a.67.67,0,0,1-.43-.58.76.76,0,0,1,.22-.5,11.34,11.34,0,0,0,1.91-3.26,18.91,18.91,0,0,0,1-4.5,3.64,3.64,0,0,0-1.25-.3c-.45,0-1,0-1.75,0h-.07a14.7,14.7,0,0,1-1.75,6.24,4.43,4.43,0,0,1-4,2.06,4.1,4.1,0,0,1-2.3-.65,4.58,4.58,0,0,1-1.6-1.75,5.13,5.13,0,0,1-.59-2.45A3.63,3.63,0,0,1,258,70.55a12.64,12.64,0,0,1,5.32-1.6q.09-1.2.15-2.58t.09-2.91h-4.9c-.53,0-.79-.24-.79-.72s.26-.72.79-.72h7.18a.71.71,0,0,1,.79.81c0,1.12,0,2.18,0,3.17s-.06,1.93-.13,2.81c.63,0,1.19,0,1.69,0a10.5,10.5,0,0,1,1.38.16c.07-.86.11-1.8.12-2.8a.72.72,0,0,1,.8-.82h1.48c.53,0,.8.41.8,1.22,0,1.38-.11,2.6-.22,3.68q.4.28.84.63c.29.23.59.5.91.81a.81.81,0,0,1,.29.55.63.63,0,0,1-.43.55l-.65.31a.93.93,0,0,1-.46.12.84.84,0,0,1-.64-.31,1.36,1.36,0,0,1-.24-.24,14.1,14.1,0,0,1-1.35,3.76A14.38,14.38,0,0,1,268.41,79.58Zm-9.28-5.88a5,5,0,0,0,.25,1.56,5.43,5.43,0,0,0,.59,1.32c.22.36.41.53.57.53.56,0,1.07-.56,1.53-1.69a20.39,20.39,0,0,0,1.06-5,6,6,0,0,0-3.07,1.08A2.72,2.72,0,0,0,259.13,73.7Z" class="cls-1"/><path data-cppathid="10038" transform="translate(-1.1 -1.18)" d="M295.44,73.49c.35.13.53.31.53.55a.69.69,0,0,1-.24.46l-.17.16a.94.94,0,0,1-.67.32.71.71,0,0,1-.2,0l-.21-.06a15.49,15.49,0,0,0-1.66-.54c-.62-.17-1.28-.32-2-.44v1.7a3.39,3.39,0,0,1-1.57,3,7.67,7.67,0,0,1-4.31,1,10,10,0,0,1-3.42-.55,6,6,0,0,1-2.41-1.51,3.11,3.11,0,0,1-.89-2.16,2.52,2.52,0,0,1,.87-1.91,5.82,5.82,0,0,1,2.41-1.25,13.41,13.41,0,0,1,3.61-.44l1.29,0c.44,0,.89.06,1.35.11v-2.3h-8.4c-.53,0-.79-.24-.79-.72s.26-.72.79-.72h8.4V65.57h-8.4c-.53,0-.79-.24-.79-.72s.26-.72.79-.72h8.4v-2a.7.7,0,0,1,.79-.79h1.49a.7.7,0,0,1,.79.79v2h3.84c.53,0,.8.24.8.72s-.27.72-.8.72h-3.84v2.64h3.84c.53,0,.8.24.8.72s-.27.72-.8.72h-3.84v2.73c.9.16,1.75.34,2.55.53S294.88,73.3,295.44,73.49Zm-14.11,1.92q0,2.78,3.64,2.78a3.31,3.31,0,0,0,2.2-.56,2.69,2.69,0,0,0,.61-2V73.42a21.52,21.52,0,0,0-2.64-.17,8.77,8.77,0,0,0-2.45.26,1.89,1.89,0,0,0-1.09.75A2.3,2.3,0,0,0,281.33,75.41Z" class="cls-1"/><path data-cppathid="10039" transform="translate(-1.1 -1.18)" d="M312.19,79.34a.83.83,0,0,1-.72.46h-.14l-.17,0L310,79.44c-.37-.1-.55-.29-.55-.58a.9.9,0,0,1,.09-.4,10,10,0,0,0,.63-3.1,8.25,8.25,0,0,1-3.31.65A6.56,6.56,0,0,1,304,75.4a4.58,4.58,0,0,1-1.94-1.72,4.83,4.83,0,0,1-.68-2.57,3.55,3.55,0,0,1,.78-2.29,5.09,5.09,0,0,1,2.12-1.51,8.22,8.22,0,0,1,3.08-.54,9.53,9.53,0,0,1,1.59.12,7.59,7.59,0,0,1,1.29.33V64.56H299.83c-.53,0-.79-.24-.79-.72s.26-.72.79-.72h10.42v-2a.7.7,0,0,1,.79-.79h1.49a.7.7,0,0,1,.79.79v2h3.29c.52,0,.79.24.79.72s-.27.72-.79.72h-3.29V71a5.81,5.81,0,0,1-.05.72c0,.25,0,.5,0,.74s0,.47,0,.7V74a18.91,18.91,0,0,1-.1,2.13,8.1,8.1,0,0,1-.33,1.67A8.53,8.53,0,0,1,312.19,79.34Zm-7.73-8.23a4.34,4.34,0,0,0,.65,2.53,2,2,0,0,0,1.78.93,3.38,3.38,0,0,0,2.22-.71,3.18,3.18,0,0,0,1.06-2,5.44,5.44,0,0,0-.76-2.86,2.45,2.45,0,0,0-2-.79A2.57,2.57,0,0,0,304.46,71.11Z" class="cls-1"/><path data-cppathid="10040" transform="translate(-1.1 -1.18)" d="M324.36,79.51a5.15,5.15,0,0,1-2.22-.48,4.11,4.11,0,0,1-1.63-1.32,3.09,3.09,0,0,1-.62-1.87,3,3,0,0,1,.62-1.86,4.17,4.17,0,0,1,1.63-1.31,5.35,5.35,0,0,1,4.43,0A4.29,4.29,0,0,1,328.19,74a3.14,3.14,0,0,1,0,3.72A4.41,4.41,0,0,1,326.57,79,5,5,0,0,1,324.36,79.51Zm0-1.2a2,2,0,0,0,1.5-.72,2.56,2.56,0,0,0,.63-1.75,2.52,2.52,0,0,0-.63-1.74,2,2,0,0,0-3,0,2.51,2.51,0,0,0-.63,1.75,2.56,2.56,0,0,0,.63,1.75A2,2,0,0,0,324.36,78.31Z" class="cls-1"/></g></g></g></g></svg>