<?xml version="1.0" encoding="UTF-8"?>
<svg xmlns="http://www.w3.org/2000/svg" onmouseup="{ if(window.parent.document.onmouseup) window.parent.document.onmouseup(arguments[0]);}" viewBox="0 0 404.44 267.68"><defs><style>.cls-1{fill:#fff100;}.cls-2{fill:#603813;}</style></defs><g data-name="Layer 2" id="Layer_2"><g id="backlog"><g data-name="2023 jp" id="_2023_jp"><g data-name="Update Grades PBI" id="Update_Grades_PBI"><path data-cppathid="10000" d="M10.41,0H394a10.41,10.41,0,0,1,10.41,10.41h0V257.27A10.41,10.41,0,0,1,394,267.68H10.41A10.41,10.41,0,0,1,0,257.27H0V10.42A10.42,10.42,0,0,1,10.41,0Z" class="cls-1" data-name="big sticky" id="big_sticky"/><path data-cppathid="10001" d="M16.88,103.56c-.54-.06-.76-.34-.67-.82a.77.77,0,0,1,.91-.64l1.28.14v-1.39l-3.2.6-.21,0a.82.82,0,0,1-.75-.55.77.77,0,0,1-.07-.29c0-.32.22-.52.65-.6l3.58-.67v-1a1.34,1.34,0,0,1,.4-1l1.52-1.56H17.84l-1.51,2.33a.74.74,0,0,1-.67.4H15.5l-.18,0-1-.32c-.35-.11-.53-.31-.53-.6a.76.76,0,0,1,.15-.45l2.61-4H14.75c-.53,0-.79-.24-.79-.72s.26-.72.79-.72h2.71l.24-.39V88H15.37c-.53,0-.79-.24-.79-.72s.26-.72.79-.72H17.7V83.52a.7.7,0,0,1,.79-.79H20a.7.7,0,0,1,.79.79v3l1.83-2.8a.77.77,0,0,1,.69-.41h.16a.35.35,0,0,1,.18,0l1,.31c.36.13.55.33.55.62a.72.72,0,0,1-.15.43l-1.22,1.88a.63.63,0,0,1,.58.69c0,.48-.27.72-.8.72h-.69l-2.14,3.29v.34h2.95c.53,0,.8.24.8.72s-.27.72-.8.72h-4.1l-.84,1.27h4.78c.44,0,.67.15.67.45a.89.89,0,0,1-.27.53l-2.49,2.52v.91l1.77-.33a.61.61,0,0,1,.22,0,.81.81,0,0,1,.74.56.6.6,0,0,1,.08.28c0,.32-.22.53-.65.6l-2.16.41v3q0,.82-.84.75Zm9.58-.1a.86.86,0,0,1-.74.44,1.57,1.57,0,0,1-.32-.05l-1-.31c-.37-.13-.55-.32-.55-.58a.59.59,0,0,1,.05-.23,1.71,1.71,0,0,1,.12-.23l3.79-5.92-2-3.15-.12-.24a.59.59,0,0,1,0-.21c0-.27.18-.48.55-.6l1-.32a1.38,1.38,0,0,1,.31,0,.87.87,0,0,1,.75.43l1.1,1.7,2.74-4.27a.85.85,0,0,1,.74-.43,1,1,0,0,1,.31,0l1,.31c.37.13.56.32.56.57a.63.63,0,0,1,0,.22,1.34,1.34,0,0,1-.12.24l-3.67,5.74,3.79,5.92a1.71,1.71,0,0,1,.12.23.59.59,0,0,1,.05.23c0,.27-.19.47-.56.6l-1,.31a1.5,1.5,0,0,1-.31,0,.85.85,0,0,1-.74-.43L29.32,99ZM27,90.77a.78.78,0,0,1-.77.57.65.65,0,0,1-.22,0l-1.29-.24c-.42-.08-.63-.29-.63-.62a.86.86,0,0,1,.08-.36l2.44-6.56a.78.78,0,0,1,.77-.57l.22,0,1.29.24q.63.12.63.63a1.27,1.27,0,0,1-.07.36l-1.13,3h6.31c.53,0,.79.24.79.72s-.26.72-.79.72H27.78Z" class="cls-2"/><path data-cppathid="10002" d="M47,102.31a.7.7,0,0,1-.79.79H44.94a.82.82,0,0,1-.59-.19.67.67,0,0,1-.2-.5H41.87a.7.7,0,0,1-.79.69H39.59a.7.7,0,0,1-.79-.79V86.18a.7.7,0,0,1,.79-.79h1.49a1.15,1.15,0,0,1,.4.07l.94-1.68a.81.81,0,0,1,.72-.48l.14,0,.15,0,1.13.29c.38.1.57.3.57.62a.93.93,0,0,1-.12.41l-.72,1.27h1.9a.7.7,0,0,1,.79.8v6.07a.7.7,0,0,1-.79.79H44.94a.69.69,0,0,1-.77-.62h-2.3v2.25h4.32A.7.7,0,0,1,47,96ZM44.15,87.38H41.87v4.16h2.28Zm0,9.29H41.87V101h2.28Zm6.55,4.15a.7.7,0,0,1-.79.8H48.66a.7.7,0,0,1-.79-.8V88.27a.7.7,0,0,1,.79-.79h1.25a.69.69,0,0,1,.77.58h1.08v-3H48.61c-.53,0-.79-.24-.79-.72s.26-.72.79-.72h9.53c.53,0,.79.24.79.72s-.26.72-.79.72H54.83v3h2.93a.7.7,0,0,1,.79.79V101c0,.55-.28.79-.84.75l-1.87-.2a.76.76,0,0,1-.75-.88.84.84,0,0,1,.13-.49.3.3,0,0,1,.3-.16l.44,0V89.5H54.83v13.92a.7.7,0,0,1-.79.79H52.55a.7.7,0,0,1-.79-.79V89.5H50.7Z" class="cls-2"/><path data-cppathid="10003" d="M77.75,100.9a1.71,1.71,0,0,1,.45-.08,1.2,1.2,0,0,1,.33.05,1.14,1.14,0,0,1,.3.17l.19.14a.7.7,0,0,1,.36.58c0,.27-.18.44-.53.5-.57.13-1.29.26-2.13.38s-1.73.21-2.64.28-1.77.11-2.57.11a17.45,17.45,0,0,1-4.83-.59,7.41,7.41,0,0,1-3.19-1.68,3.48,3.48,0,0,1-1.13-2.6,3.8,3.8,0,0,1,1-2.54,11.2,11.2,0,0,1,3.4-2.38l-3-6.38a.86.86,0,0,1-.1-.41c0-.31.19-.51.58-.6l1.22-.27.26,0a.77.77,0,0,1,.75.5l2.85,6c1.09-.44,2.34-.91,3.74-1.39s3-1,4.71-1.51a.49.49,0,0,1,.18,0h.18a.77.77,0,0,1,.72.43v0a.86.86,0,0,1,.15.45c0,.27-.2.47-.58.6q-3.84,1.18-6.36,2.11a27.51,27.51,0,0,0-4,1.78,6.34,6.34,0,0,0-2,1.7,3.27,3.27,0,0,0-.6,1.9,2.79,2.79,0,0,0,1.42,2.6,9.65,9.65,0,0,0,4.65.83c.77,0,1.55,0,2.35-.09s1.54-.15,2.23-.26A12.82,12.82,0,0,0,77.75,100.9Z" class="cls-2"/><path data-cppathid="10004" d="M95.32,95.45a.73.73,0,0,1,.81-.79h1.49a.68.68,0,0,1,.77.81,10.24,10.24,0,0,1-1.18,4.43,7,7,0,0,1-2.83,2.84,8.69,8.69,0,0,1-4.25,1A7.3,7.3,0,0,1,84.91,102,6.47,6.47,0,0,1,83,97c0-.43,0-1,0-1.68s.07-1.45.12-2.27.1-1.66.16-2.52.14-1.67.21-2.45.14-1.45.2-2,.34-.72.87-.69l1.44.09a.69.69,0,0,1,.72.84c-.07.57-.13,1.22-.2,2s-.12,1.56-.19,2.4-.12,1.67-.17,2.48-.08,1.54-.1,2.22,0,1.21,0,1.63a6.33,6.33,0,0,0,1,3.93,3.55,3.55,0,0,0,3,1.35,4.33,4.33,0,0,0,3.65-1.83A9,9,0,0,0,95.32,95.45Z" class="cls-2"/><path data-cppathid="10005" d="M115.57,101.86c.51,0,.77.28.77.74s-.27.73-.82.7a17,17,0,0,1-3.78-.6,11.11,11.11,0,0,1-3-1.37,7,7,0,0,1-2-2,4.43,4.43,0,0,1-.73-2.46,7.73,7.73,0,0,1,1.59-4.71A12.59,12.59,0,0,1,112,88.54l-10.08.72a.72.72,0,0,1-.86-.82c0-.37.24-.58.72-.62l15.09-1.08a.83.83,0,0,1,.94.62,1.74,1.74,0,0,1,0,.26c0,.33-.22.55-.65.68a13.63,13.63,0,0,0-4.37,1.89,9.25,9.25,0,0,0-2.81,3,7.39,7.39,0,0,0-1,3.72,4.22,4.22,0,0,0,.59,2.3,4.67,4.67,0,0,0,1.56,1.5,7.59,7.59,0,0,0,2.12.85A14.16,14.16,0,0,0,115.57,101.86Z" class="cls-2"/><path data-cppathid="10006" d="M124.69,103c0,.49-.29.74-.81.74l-1.47,0a.68.68,0,0,1-.77-.82l.68-14.71a1,1,0,0,1,.14-.48.63.63,0,0,1-.12-.41c0-.48.26-.72.79-.72h8.59l-.79-2.45a1.4,1.4,0,0,1-.05-.31c0-.37.22-.57.65-.62l1.35-.19.1,0h.09a.72.72,0,0,1,.74.6l1,3h6.63c.52,0,.79.24.79.72s-.27.72-.79.72h-6.17l2.06,6.41,2.19-3.5a.83.83,0,0,1,.72-.46,1.5,1.5,0,0,1,.31,0l1,.31c.37.13.55.33.55.6a1,1,0,0,1-.14.43l-3.63,5.79,1.2,3.72,1.37-.36a1,1,0,0,1,.27,0,.82.82,0,0,1,.74.5.93.93,0,0,1,.12.39c0,.32-.19.52-.58.62l-3.52.91a.4.4,0,0,1-.15,0h-.12a.74.74,0,0,1-.72-.58l-.62-1.94L135,103a.83.83,0,0,1-.72.46,1.5,1.5,0,0,1-.31,0l-1-.31c-.37-.13-.55-.33-.55-.6a.8.8,0,0,1,.14-.43l2.74-4.37L132.18,88h-6.84a2.13,2.13,0,0,1,0,.27l-.19,4.12H131a.66.66,0,0,1,.74.82l-.74,9.41c0,.46-.26.69-.65.69a1.25,1.25,0,0,1-.26,0l-3.79-.94c-.4-.1-.6-.29-.6-.58a.41.41,0,0,1,0-.16.49.49,0,0,0,.06-.17l0-.07a.8.8,0,0,1,.74-.51h.14l.15,0,1.2.29.6-7.35H125.1Zm15.75-18.39a.72.72,0,0,1,.4.58.74.74,0,0,1-.28.53l-.24.19a1,1,0,0,1-.63.26.89.89,0,0,1-.45-.14l-2.93-1.61a.73.73,0,0,1-.41-.57.7.7,0,0,1,.29-.53l.24-.19a.93.93,0,0,1,.62-.27.86.86,0,0,1,.46.15Z" class="cls-2"/><path data-cppathid="10007" d="M147.59,102.1a.72.72,0,0,1-.87.72l-.76,0a.68.68,0,0,1-.72-.84l.31-3.65a.72.72,0,0,1,.86-.72l.77,0a.68.68,0,0,1,.72.84Zm4.17,1a.7.7,0,0,1-.79.79h-1.49a.7.7,0,0,1-.79-.79V96.22l-2.64.21q-.72,0-.72-.45a.85.85,0,0,1,.17-.48l2.21-3.44-.05-.07-2-2.69a.93.93,0,0,1-.21-.55.81.81,0,0,1,.21-.55l3.84-5a.86.86,0,0,1,.68-.38,1.14,1.14,0,0,1,.38.07l.91.31c.34.11.51.3.51.58a.87.87,0,0,1-.2.48l-3.43,4.53.82,1.08.86-1.34a.86.86,0,0,1,.75-.43,1.38,1.38,0,0,1,.31,0l1,.32c.37.12.55.32.55.57a.47.47,0,0,1-.05.22,1.34,1.34,0,0,1-.12.24l-3.4,5.3,2.92-.24-.4-1.65a.88.88,0,0,1,0-.24.64.64,0,0,1,.65-.7l.7-.1a.72.72,0,0,1,.91.63l.89,3.67a1.44,1.44,0,0,1,0,.24.64.64,0,0,1-.65.7l-.69.09a.72.72,0,0,1-.92-.62l-.14-.58h-.07l-.55,0a.85.85,0,0,1,0,.29Zm3.41-1.59a.69.69,0,0,1-.74.84l-.77.05a.71.71,0,0,1-.84-.72l-.31-3a.81.81,0,0,1,.17-.61.75.75,0,0,1,.57-.25l.77,0a.71.71,0,0,1,.84.72ZM161.89,90v.07h3.48c.53,0,.79.24.79.72s-.26.72-.79.72h-10c-.53,0-.79-.24-.79-.72s.26-.72.79-.72h3.41v-1h-2.28c-.53,0-.79-.24-.79-.72s.26-.72.79-.72h2.28V86.21h-2.88c-.53,0-.79-.24-.79-.72s.26-.72.79-.72h2.88V84a.7.7,0,0,1,.79-.79h1.49a.7.7,0,0,1,.79.79v.77h2.91c.52,0,.79.24.79.72s-.27.72-.79.72h-2.91v1.41h2.33c.53,0,.79.24.79.72s-.26.72-.79.72h-2.33Zm-6.41,2.88a.7.7,0,0,1,.8-.79h1.48a.88.88,0,0,1,.48.12h6.6a.7.7,0,0,1,.8.79v7.44a.7.7,0,0,1-.8.79h-1.48a.85.85,0,0,1-.48-.12h-4.64a.88.88,0,0,1-.48.12h-1.48a.7.7,0,0,1-.8-.79Zm1.54,11a1,1,0,0,1-.43.09.86.86,0,0,1-.65-.31l-.12-.12a.72.72,0,0,1-.26-.5c0-.24.16-.44.48-.58l2.08-.94a1,1,0,0,1,.44-.09.84.84,0,0,1,.64.31l.12.12a.74.74,0,0,1,.27.5c0,.24-.16.44-.48.58Zm5.54-10.25h-4v1h4Zm-4,3.55h4V96.07h-4Zm0,2.47h4v-1h-4Zm6.79,2.91q.48.21.48.57a.74.74,0,0,1-.22.48l-.17.17a1,1,0,0,1-.67.34,1,1,0,0,1-.41-.1L162,103q-.48-.21-.48-.57a.75.75,0,0,1,.22-.48l.17-.17a.85.85,0,0,1,1.08-.24Z" class="cls-2"/><path data-cppathid="10008" d="M183.8,103a.75.75,0,0,1-.62.34,1.05,1.05,0,0,1-.46-.12l-.72-.34a.64.64,0,0,1-.45-.57,1,1,0,0,1,.19-.51,8.26,8.26,0,0,0,.89-1.76,13.83,13.83,0,0,0,.6-2.2,13.17,13.17,0,0,0,.21-2.32,9.43,9.43,0,0,0-1.08-4.8,4.69,4.69,0,0,0-3-2.33,32.85,32.85,0,0,1,.57,5.71,12.43,12.43,0,0,1-1.38,6.34,4.44,4.44,0,0,1-4.07,2.32,5.08,5.08,0,0,1-2.85-.79,5.28,5.28,0,0,1-1.9-2.17A7.15,7.15,0,0,1,169,96.6a10.17,10.17,0,0,1,.7-3.79,9.73,9.73,0,0,1,1.93-3.13,9,9,0,0,1,2.85-2.13,8,8,0,0,1,3.47-.77,9.37,9.37,0,0,1,4.56,1,7,7,0,0,1,2.95,3,9.85,9.85,0,0,1,1,4.67A10.83,10.83,0,0,1,183.8,103ZM172.09,96.6a7.56,7.56,0,0,0,.34,2.34,5,5,0,0,0,.87,1.72,1.5,1.5,0,0,0,1.14.64c.45,0,.85-.33,1.19-1a9.42,9.42,0,0,0,.82-2.7,22.34,22.34,0,0,0,.3-3.84c0-.82,0-1.66-.11-2.52s-.19-1.75-.35-2.64a6.14,6.14,0,0,0-2.12,1.77,9.5,9.5,0,0,0-1.51,2.82A10.2,10.2,0,0,0,172.09,96.6Z" class="cls-2"/><path data-cppathid="10009" d="M190.86,103.8a.81.81,0,0,1-.66-.17A.8.8,0,0,1,190,103c0-.35.22-.56.67-.64A7.57,7.57,0,0,0,195,99.67L192.83,99c-.37-.13-.55-.32-.55-.58a.94.94,0,0,1,.12-.38l.07-.12a.81.81,0,0,1,.69-.43.86.86,0,0,1,.36.07l2.45.77a16.14,16.14,0,0,0,1-2h-2.9a.8.8,0,0,1-.53.17h-1.49a.7.7,0,0,1-.79-.79V87.48a.7.7,0,0,1,.79-.79h1.49a.78.78,0,0,1,.62.24h4.66c0-.58,0-1.16,0-1.75v-.1h-8.79c-.53,0-.79-.24-.79-.72s.26-.72.79-.72h19c.53,0,.8.24.8.72s-.27.72-.8.72H201.9a3.78,3.78,0,0,1,0,.5c0,.47,0,.92,0,1.35h5.64a.7.7,0,0,1,.79.79v8a.7.7,0,0,1-.79.79H206a.78.78,0,0,1-.53-.17h-5.45a15.5,15.5,0,0,1-1.51,2.83l10.82,3.34c.37.12.56.32.56.57a.93.93,0,0,1-.12.39l-.08.12a.84.84,0,0,1-.69.43,1.27,1.27,0,0,1-.36-.07l-11.21-3.46A11.06,11.06,0,0,1,190.86,103.8Zm3.48-12.7h4.06c.12-.86.23-1.77.31-2.73h-4.37Zm0,3.75h3.17a18.52,18.52,0,0,0,.6-2.31h-3.77Zm6.24,0h4.66V92.54h-4.06Q200.91,93.77,200.58,94.85Zm4.66-6.48h-3.46c-.08,1-.19,1.87-.34,2.73h3.8Z" class="cls-2"/><path data-cppathid="10010" d="M215.56,103.1a.89.89,0,0,1-.7.36,1.14,1.14,0,0,1-.38-.07l-.87-.33c-.33-.15-.5-.35-.5-.6a.68.68,0,0,1,.19-.48l3.48-4.37h-3.12c-.53,0-.79-.24-.79-.72s.26-.72.79-.72h3.74v-1.9h-3.74c-.53,0-.79-.24-.79-.72s.26-.72.79-.72h1.13v0l-.27-5.33v-.12h-.31c-.53,0-.79-.24-.79-.72s.26-.72.79-.72h3v-2.4a.7.7,0,0,1,.79-.79h1.49a.7.7,0,0,1,.79.79v2.4H223c.53,0,.8.24.8.72a.71.71,0,0,1-.2.53.65.65,0,0,1-.5.19.4.4,0,0,1,0,.22l-.84,5.25H223c.53,0,.79.24.79.72s-.26.72-.79.72h-2.49v1.9h2.08c.53,0,.8.24.8.72s-.27.72-.8.72h-2.08l2.56,2a.71.71,0,0,1,.34.53c0,.21-.14.4-.43.57l-.48.29a.86.86,0,0,1-1.11-.07l-.88-.7v3.29a.7.7,0,0,1-.8.79H218.2a.7.7,0,0,1-.8-.79V100.8Zm2.3-10.39v.12h1.42a.37.37,0,0,1,0-.21l.84-5.26H217.6v0Zm8.74,10.39c0,.55-.32.8-.84.77l-1.49-.05q-.79,0-.75-.81l.8-14.64a1,1,0,0,1,.16-.51.59.59,0,0,1,0-.14.62.62,0,0,1,.41-.55L232.43,83a1,1,0,0,1,.45-.14,1,1,0,0,1,.63.26l.21.19a.82.82,0,0,1,.32.56.65.65,0,0,1-.41.55l-6.39,3.53a.7.7,0,0,1,.15.52l-.12,2.21h6.19c.53,0,.79.24.79.72s-.26.72-.79.72h-.94v11.33a.7.7,0,0,1-.79.79h-1.49a.7.7,0,0,1-.79-.79V92.11H227.2Z" class="cls-2"/><path data-cppathid="10011" d="M240.25,103a.75.75,0,0,1-1,.55l-1.27-.24q-.6-.12-.6-.6a1.14,1.14,0,0,1,.07-.38l4.85-11.78h-4.25c-.53,0-.79-.24-.79-.72s.26-.72.79-.72h4.83l1.17-2.86a.77.77,0,0,1,1-.55l1.27.24q.6.12.6.6a1.14,1.14,0,0,1-.07.38L246,89.14h0a5.31,5.31,0,0,1,3.72,1.14,4.57,4.57,0,0,1,1.22,3.49,16.6,16.6,0,0,1-.3,3.37,11,11,0,0,1-.8,2.47,14.35,14.35,0,0,1-1.07,1.85c-.38.54-.75,1-1.12,1.52a.79.79,0,0,1-.67.41,1,1,0,0,1-.36-.07l-1-.31c-.35-.1-.53-.29-.53-.58a.82.82,0,0,1,.17-.45c.38-.52.77-1.1,1.17-1.77a9.58,9.58,0,0,0,1-2.53,15.66,15.66,0,0,0,.41-3.91,5.43,5.43,0,0,0-.41-2.49,1.54,1.54,0,0,0-1.46-.7h-.63ZM257,98a1.5,1.5,0,0,1,0,.31c0,.37-.22.58-.65.62l-1.37.2a.77.77,0,0,1-.93-.58l-3.22-10.46a1.48,1.48,0,0,1-.05-.32c0-.36.22-.57.65-.62l1.37-.19h.11l.08,0a.72.72,0,0,1,.74.6Zm.82-9.12a1.44,1.44,0,0,1,0,.24c0,.36-.22.57-.65.61l-.69.09a.73.73,0,0,1-.92-.57l-1.24-4.58a.78.78,0,0,1,0-.24c0-.36.22-.57.65-.61l.7-.09a.73.73,0,0,1,.93.57Zm2.64-1.33a1.44,1.44,0,0,1,0,.24c0,.33-.21.54-.62.61l-.7.11a.74.74,0,0,1-.94-.57L257,83.64a.93.93,0,0,1,0-.13c0-.05,0-.09,0-.13,0-.32.22-.52.65-.59l.7-.11a.72.72,0,0,1,.93.57Z" class="cls-2"/><path data-cppathid="10012" d="M17.87,130.87a.91.91,0,0,1-.65.29.88.88,0,0,1-.43-.1l-.67-.31c-.31-.14-.46-.33-.46-.57a.76.76,0,0,1,.26-.53l11-11H15.23c-.53,0-.79-.24-.79-.72s.26-.72.79-.72H27.56v-1.68a.71.71,0,0,1,.8-.8h1.48a.71.71,0,0,1,.8.8v1.68h3.21c.53,0,.79.24.79.72s-.26.72-.79.72H30.64v12.67a.66.66,0,0,1-.82.74l-4-.29c-.48,0-.72-.25-.72-.62a.81.81,0,0,1,.26-.65.86.86,0,0,1,.65-.17l1.51.12v-9.33Z" class="cls-2"/><path data-cppathid="10013" d="M45.88,118.68c.27.18.4.36.4.55a.72.72,0,0,1-.33.55l-.29.24a.92.92,0,0,1-.58.22,1,1,0,0,1-.52-.17l-6.36-3.86c-.28-.18-.41-.36-.41-.55a.74.74,0,0,1,.33-.56l.29-.24a1,1,0,0,1,.58-.21,1,1,0,0,1,.53.17Zm7.75,2.59a1,1,0,0,1,.55-.17.91.91,0,0,1,.55.2l.31.24a.71.71,0,0,1,.34.55.67.67,0,0,1-.38.55l-14.12,8.88a1,1,0,0,1-.55.17,1,1,0,0,1-.55-.19l-.31-.24a.72.72,0,0,1-.34-.56.68.68,0,0,1,.39-.55Z" class="cls-2"/><path data-cppathid="10014" d="M69.78,132.26a.83.83,0,0,1-.67.39,1.61,1.61,0,0,1-.39-.07l-.91-.32c-.35-.12-.53-.32-.53-.57a.82.82,0,0,1,.2-.48l6.72-9.1H59.56c-.53,0-.8-.24-.8-.72s.27-.72.8-.72H77.17c.45,0,.67.16.67.48a.8.8,0,0,1-.19.48Zm5.06-17.4c.53,0,.8.24.8.72s-.27.72-.8.72H61.55c-.53,0-.79-.24-.79-.72s.26-.72.79-.72Z" class="cls-2"/><path data-cppathid="10015" d="M81.88,125.93a1,1,0,0,1-.51.14.88.88,0,0,1-.6-.24l-.24-.19a.79.79,0,0,1-.33-.55.7.7,0,0,1,.4-.55l16.85-9.75a1.16,1.16,0,0,1,.51-.14.88.88,0,0,1,.6.24l.24.19a.79.79,0,0,1,.33.55c0,.19-.13.38-.41.55l-6.67,3.87a.74.74,0,0,1,.19.55v10.8a.7.7,0,0,1-.79.79H90a.7.7,0,0,1-.79-.79v-9.7Z" class="cls-2"/><path data-cppathid="10016" d="M109.91,118.68c.27.18.41.36.41.55a.73.73,0,0,1-.34.55l-.29.24a.91.91,0,0,1-.57.22,1,1,0,0,1-.53-.17l-6.36-3.86c-.27-.18-.41-.36-.41-.55a.72.72,0,0,1,.34-.56l.28-.24a.91.91,0,0,1,1.11,0Zm7.75,2.59a1,1,0,0,1,.55-.17.91.91,0,0,1,.55.2l.32.24a.72.72,0,0,1,.33.55.67.67,0,0,1-.38.55l-14.11,8.88a1,1,0,0,1-.56.17,1,1,0,0,1-.55-.19l-.31-.24a.75.75,0,0,1-.34-.56.68.68,0,0,1,.39-.55Z" class="cls-2"/><path data-cppathid="10017" d="M136.43,130.66c.51,0,.77.28.77.74s-.28.73-.82.7a17,17,0,0,1-3.78-.6,11.32,11.32,0,0,1-3-1.37,6.91,6.91,0,0,1-2-2,4.46,4.46,0,0,1-.74-2.46,7.68,7.68,0,0,1,1.6-4.71,12.5,12.5,0,0,1,4.43-3.61l-10.08.72a.72.72,0,0,1-.87-.82c0-.37.24-.58.72-.62l15.1-1.08a.83.83,0,0,1,.94.62,1.35,1.35,0,0,1,0,.26c0,.33-.21.55-.64.68a13.53,13.53,0,0,0-4.37,1.89,9.14,9.14,0,0,0-2.81,3,7.29,7.29,0,0,0-1,3.72,4.22,4.22,0,0,0,.58,2.3,4.87,4.87,0,0,0,1.56,1.5,8,8,0,0,0,2.13.85A14.16,14.16,0,0,0,136.43,130.66Zm1-4.73a1.61,1.61,0,0,1,0,.26.62.62,0,0,1-.65.67l-.69.1a.73.73,0,0,1-.92-.62l-1.24-5a1,1,0,0,1,0-.27c0-.4.22-.62.65-.67l.7-.1a.73.73,0,0,1,.93.63Zm2.64-1.47a1.87,1.87,0,0,1,0,.27c0,.37-.21.59-.62.67l-.7.12a.74.74,0,0,1-.94-.62l-1.22-4.71a.74.74,0,0,1,0-.14s0-.1,0-.15c0-.35.22-.56.65-.64l.7-.12a.72.72,0,0,1,.93.62Z" class="cls-2"/><path data-cppathid="10018" d="M156.56,130.66c.51,0,.77.28.77.74s-.27.73-.81.7a16.89,16.89,0,0,1-3.78-.6,11,11,0,0,1-3-1.37,7,7,0,0,1-2-2,4.45,4.45,0,0,1-.73-2.46,7.68,7.68,0,0,1,1.6-4.71,12.46,12.46,0,0,1,4.42-3.61l-10.08.72a.72.72,0,0,1-.86-.82c0-.37.24-.58.72-.62l15.09-1.08a.82.82,0,0,1,.94.62,1.74,1.74,0,0,1,0,.26c0,.33-.22.55-.65.68A13.63,13.63,0,0,0,153.8,119a9.11,9.11,0,0,0-2.8,3,7.3,7.3,0,0,0-1,3.72,4.22,4.22,0,0,0,.59,2.3,4.67,4.67,0,0,0,1.56,1.5,8,8,0,0,0,2.12.85A14.16,14.16,0,0,0,156.56,130.66Zm1-4.73a.94.94,0,0,1,0,.26.62.62,0,0,1-.64.67l-.7.1a.71.71,0,0,1-.91-.62l-1.25-5a1.06,1.06,0,0,1,0-.27c0-.4.21-.62.65-.67l.69-.1a.74.74,0,0,1,.94.63Zm2.64-1.47a1,1,0,0,1,0,.27c0,.37-.21.59-.63.67l-.69.12a.73.73,0,0,1-.94-.62l-1.22-4.71a.74.74,0,0,1,0-.14.76.76,0,0,1,0-.15c0-.35.21-.56.64-.64l.7-.12a.74.74,0,0,1,.94.62Z" class="cls-2"/><path data-cppathid="10019" d="M176.34,130.58c.53,0,.79.24.79.72s-.26.72-.79.72H169a11.13,11.13,0,0,1-3-.37,5.29,5.29,0,0,1-2.1-1,2,2,0,0,1-.77-1.56,3,3,0,0,1,.41-1.48,6.9,6.9,0,0,1,1.13-1.47.84.84,0,0,1,.62-.29,1,1,0,0,1,.48.12l.7.36a.63.63,0,0,1,.43.55,1,1,0,0,1-.17.5,3.74,3.74,0,0,0-.38.86,2.74,2.74,0,0,0-.14.85,1.27,1.27,0,0,0,.58,1.2,5.11,5.11,0,0,0,2.22.33ZM176.1,127a.68.68,0,0,1-.7.89L174,128a.73.73,0,0,1-.89-.7l-.74-4.7h-8.11c-.53,0-.79-.24-.79-.72s.26-.72.79-.72h7.89l-.57-3.6h-7.35c-.52,0-.79-.24-.79-.72s.27-.72.79-.72h7.13l-.17-1.08a.69.69,0,0,1,.7-.89l1.44-.12a.74.74,0,0,1,.89.7l.21,1.39h4c.52,0,.79.24.79.72s-.27.72-.79.72h-3.82l.58,3.6h4.29c.53,0,.79.24.79.72s-.26.72-.79.72H175.4Z" class="cls-2"/><path data-cppathid="10020" d="M199.55,126.94a3.67,3.67,0,0,1-1.13,2.65,7.33,7.33,0,0,1-3.12,1.76,15.25,15.25,0,0,1-4.59.63,16.19,16.19,0,0,1-3.46-.33,6.24,6.24,0,0,1-2.34-.92,1.72,1.72,0,0,1-.84-1.42,2,2,0,0,1,.82-1.55,6.42,6.42,0,0,1,2.15-1.14,9.15,9.15,0,0,1,2.79-.43,7.15,7.15,0,0,1,3.6.84,4.14,4.14,0,0,1,2,2.38,3.07,3.07,0,0,0,1.08-2.47,4,4,0,0,0-.56-2.16,3.94,3.94,0,0,0-1.56-1.47,4.84,4.84,0,0,0-2.29-.53,9.31,9.31,0,0,0-3,.52,11.8,11.8,0,0,0-2.88,1.45l-1.53,1.2a1.31,1.31,0,0,1-.82.36,1,1,0,0,1-.79-.43l-.19-.19a.74.74,0,0,1-.24-.53.68.68,0,0,1,.31-.55,9.66,9.66,0,0,1,1.34-.94l9.05-7.15h-8.78c-.53,0-.8-.23-.8-.7s.27-.69.8-.69h12.33c.45,0,.67.13.67.41a.73.73,0,0,1-.33.55l-6.91,5.42a13.32,13.32,0,0,1,1.75-.12,9.71,9.71,0,0,1,2.89.43,8.49,8.49,0,0,1,2.39,1.19,5.77,5.77,0,0,1,1.62,1.77A4.23,4.23,0,0,1,199.55,126.94Zm-12.41,2.37a1,1,0,0,0,.3.78,2,2,0,0,0,1.07.39,17.5,17.5,0,0,0,2.2.1,13.07,13.07,0,0,0,1.85-.12,1.61,1.61,0,0,1-.07-.31c-.19-1.71-1.08-2.57-2.66-2.57a3.68,3.68,0,0,0-2,.46A1.43,1.43,0,0,0,187.14,129.31Z" class="cls-2"/><path data-cppathid="10021" d="M216.73,131.78a.76.76,0,0,1-.62.34,1,1,0,0,1-.46-.12l-.72-.34c-.3-.14-.46-.33-.46-.57a1.08,1.08,0,0,1,.2-.51,8.25,8.25,0,0,0,.88-1.76,12,12,0,0,0,.6-2.2,12.3,12.3,0,0,0,.22-2.32,9.43,9.43,0,0,0-1.08-4.8,4.71,4.71,0,0,0-3-2.33,32,32,0,0,1,.58,5.71,12.43,12.43,0,0,1-1.38,6.34,4.45,4.45,0,0,1-4.07,2.32,5.14,5.14,0,0,1-2.86-.79,5.33,5.33,0,0,1-1.89-2.17,7.15,7.15,0,0,1-.67-3.18,10.37,10.37,0,0,1,.69-3.79,10.1,10.1,0,0,1,1.93-3.13,9.1,9.1,0,0,1,2.86-2.13,8,8,0,0,1,3.47-.77,9.37,9.37,0,0,1,4.56,1,7.06,7.06,0,0,1,2.95,3,9.85,9.85,0,0,1,1,4.67A10.82,10.82,0,0,1,216.73,131.78ZM205,125.4a7.88,7.88,0,0,0,.33,2.34,5.23,5.23,0,0,0,.88,1.72,1.5,1.5,0,0,0,1.14.64c.45,0,.84-.33,1.19-1a9.89,9.89,0,0,0,.81-2.7,22.34,22.34,0,0,0,.3-3.84c0-.82,0-1.66-.1-2.52s-.19-1.75-.35-2.64a6.17,6.17,0,0,0-2.13,1.77,9.73,9.73,0,0,0-1.51,2.82A10.45,10.45,0,0,0,205,125.4Z" class="cls-2"/><path data-cppathid="10022" d="M235.91,130.66c.51,0,.76.28.76.74s-.27.73-.81.7a17,17,0,0,1-3.78-.6,11.32,11.32,0,0,1-3-1.37,7.07,7.07,0,0,1-2-2,4.53,4.53,0,0,1-.73-2.46,7.68,7.68,0,0,1,1.6-4.71,12.5,12.5,0,0,1,4.43-3.61l-10.08.72a.72.72,0,0,1-.87-.82c0-.37.24-.58.72-.62l15.1-1.08a.81.81,0,0,1,.93.62,1,1,0,0,1,0,.26c0,.33-.21.55-.65.68a13.57,13.57,0,0,0-4.36,1.89,9,9,0,0,0-2.81,3,7.3,7.3,0,0,0-1,3.72,4.22,4.22,0,0,0,.59,2.3,4.67,4.67,0,0,0,1.56,1.5,8,8,0,0,0,2.13.85A13.83,13.83,0,0,0,235.91,130.66Zm1-4.73a.88.88,0,0,1,0,.26.62.62,0,0,1-.65.67l-.7.1a.72.72,0,0,1-.91-.62l-1.25-5a1.87,1.87,0,0,1,0-.27c0-.4.22-.62.65-.67l.69-.1a.73.73,0,0,1,.94.63Zm2.64-1.47a1,1,0,0,1,0,.27c0,.37-.21.59-.63.67l-.69.12a.74.74,0,0,1-.94-.62l-1.22-4.71a.74.74,0,0,1,0-.14.76.76,0,0,1,0-.15c0-.35.22-.56.65-.64l.69-.12a.73.73,0,0,1,.94.62Z" class="cls-2"/><path data-cppathid="10023" d="M249.08,132.46a.74.74,0,0,1,.27.52c0,.23-.16.41-.46.56l-.46.21a.85.85,0,0,1-.43.1.92.92,0,0,1-.67-.31l-4.42-4.44a.78.78,0,0,1-.26-.53c0-.23.15-.41.46-.55l.45-.22a1,1,0,0,1,.43-.1.91.91,0,0,1,.68.32Z" class="cls-2"/><path data-cppathid="10024" d="M279.8,125.42a1.43,1.43,0,0,1,0-.16.77.77,0,0,1,0-.15.66.66,0,0,1,.58-.67l1.22-.31.17,0h.15a.72.72,0,0,1,.69.5,9.26,9.26,0,0,1,.53,1.82,9.94,9.94,0,0,1,.19,1.93,3.11,3.11,0,0,1-2,2.93,13.64,13.64,0,0,1-5.77,1,7.47,7.47,0,0,1-4.94-1.49,5.19,5.19,0,0,1-1.78-4.23,19.43,19.43,0,0,1,.48-3.36h-2.16c-.53,0-.79-.24-.79-.72s.26-.72.79-.72h2.47c.18-.83.39-1.73.65-2.71h-2.78c-.53,0-.8-.24-.8-.72s.27-.72.8-.72h3.14c.19-.7.39-1.43.6-2.18a.76.76,0,0,1,.94-.65l1.39.17c.43,0,.65.27.65.67a1.58,1.58,0,0,1-.05.29c-.16.57-.31,1.14-.46,1.7h7.71c.52,0,.79.24.79.72s-.27.72-.79.72H273.3c-.24,1-.46,1.87-.65,2.71h8.23c.53,0,.79.24.79.72s-.26.72-.79.72h-8.52a19.43,19.43,0,0,0-.48,3.36,4.82,4.82,0,0,0,.9,3.24,3.46,3.46,0,0,0,2.75,1,15.46,15.46,0,0,0,3-.21,2.07,2.07,0,0,0,1.37-.73,2.67,2.67,0,0,0,.36-1.51,10.52,10.52,0,0,0-.12-1.41A14.86,14.86,0,0,0,279.8,125.42Z" class="cls-2"/><path data-cppathid="10025" d="M295.09,132.07a1,1,0,0,1-.46.1.88.88,0,0,1-.64-.29l-.15-.14a.78.78,0,0,1-.26-.51c0-.25.17-.45.5-.6a17.47,17.47,0,0,0,4.68-3.11,4.49,4.49,0,0,0,1.54-3.15,2.38,2.38,0,0,0-1.19-2.17,5.84,5.84,0,0,0-3.11-.74,13.76,13.76,0,0,0-3.5.51,20.73,20.73,0,0,0-4,1.51.94.94,0,0,1-.51.14,1,1,0,0,1-.6-.26l-.19-.17a.73.73,0,0,1-.29-.53c0-.24.16-.43.46-.57a19.9,19.9,0,0,1,4.34-1.49,20.28,20.28,0,0,1,4.25-.48,13.06,13.06,0,0,1,3.73.49,6.49,6.49,0,0,1,2.66,1.43,3.1,3.1,0,0,1,1,2.33,5.4,5.4,0,0,1-2.1,3.85A24.82,24.82,0,0,1,295.09,132.07Zm6.36-15c.38.1.58.29.58.58a.75.75,0,0,1-.1.36l-.05.1a.84.84,0,0,1-.72.45H301l-.17,0q-3-.84-6-1.47c-2-.43-4-.79-5.93-1.09-.45-.05-.67-.25-.67-.6a.41.41,0,0,1,0-.11l0-.13v0a.74.74,0,0,1,1-.57q3.12.45,6.18,1.11C297.45,116,299.47,116.5,301.45,117Z" class="cls-2"/><path data-cppathid="10026" d="M17,147.7a.75.75,0,0,1-.94.62l-1.39-.17c-.45-.05-.67-.27-.67-.67a.86.86,0,0,1,.05-.26l1.63-6a.74.74,0,0,1,.93-.62l1.4.17c.44.05.67.27.67.67a1.38,1.38,0,0,1-.05.26l-.46,1.68h5.21c.53,0,.79.24.79.72s-.26.72-.79.72H21.73l.39,2a1.09,1.09,0,0,1,0,.22c0,.4-.23.62-.7.67l-1.44.14a.73.73,0,0,1-.88-.67L18.68,145a.37.37,0,0,1,0-.12H17.8Zm.5,3.84a.7.7,0,0,1-.79.79H15.25a.7.7,0,0,1-.79-.79v-2.31a.7.7,0,0,1,.79-.79h1.49a.8.8,0,0,1,.53.17h5.66v-.36a.7.7,0,0,1,.79-.79h1.49a.7.7,0,0,1,.79.79v.36h8.45c.48,0,.72.21.72.62a1,1,0,0,1-.05.27l-.6,2.3a.73.73,0,0,1-.93.62l-1.39-.16c-.45,0-.68-.28-.68-.68a1.74,1.74,0,0,1,.05-.26l.34-1.27H17.53Zm13,3.4a.7.7,0,0,1-.79.8H28.72a.9.9,0,0,1-.48.12H21.06v.64h9.5a.71.71,0,0,1,.8.8v3.21a.7.7,0,0,1-.8.79H29.08a.94.94,0,0,1-.39-.07h-8a.92.92,0,0,1-.38.07H18.78a.7.7,0,0,1-.79-.79v-8.83a.7.7,0,0,1,.79-.79h1a.85.85,0,0,1,.56-.17h9.45a.7.7,0,0,1,.79.79Zm-3.07-2.78H21.06v2.26h6.43Zm.79,5.78H21.06v1.85h7.22Zm-1.39-11.4a.77.77,0,0,1-1,.56l-1.27-.24q-.6-.12-.6-.6a1.19,1.19,0,0,1,.07-.39l1.92-4.68a.77.77,0,0,1,1-.55l1.27.24q.6.12.6.6a1.14,1.14,0,0,1-.07.38l-.65,1.56h6c.53,0,.8.24.8.72s-.27.72-.8.72H33a1.21,1.21,0,0,1-.07.34L32,147.72a.81.81,0,0,1-1,.58l-1.29-.22c-.43-.08-.65-.29-.65-.62a.8.8,0,0,1,.07-.34l.82-2.26h-2.4Z" class="cls-2"/><path data-cppathid="10027" d="M43.91,155.81a1,1,0,0,1,.48-.15,1,1,0,0,1,.62.27l.19.17a.68.68,0,0,1,.29.55.62.62,0,0,1-.41.55l-4.89,2.62a1,1,0,0,1-.48.14,1.1,1.1,0,0,1-.63-.26l-.19-.17a.77.77,0,0,1-.29-.55.65.65,0,0,1,.41-.56l1.47-.79a.9.9,0,0,1-.12-.48v-5.57H39.28c-.53,0-.8-.24-.8-.72s.27-.72.8-.72h1.08v-5.06H39.08c-.52,0-.79-.24-.79-.72s.27-.72.79-.72h5.6c.52,0,.79.24.79.72s-.27.72-.79.72H43.43v5.06h1c.53,0,.8.24.8.72s-.27.72-.8.72h-1v4.49Zm10,3.6v.07h4c.53,0,.79.24.79.72s-.26.72-.79.72H46.76c-.52,0-.79-.24-.79-.72s.27-.72.79-.72h4v-2.42h-3c-.53,0-.79-.24-.79-.72s.26-.72.79-.72h3V153.1H49.21a.7.7,0,0,1-.74.45H47a.7.7,0,0,1-.79-.79V141.55a.7.7,0,0,1,.79-.79h1.49a.67.67,0,0,1,.74.48h8.47a.7.7,0,0,1,.8.79v10.73a.7.7,0,0,1-.8.79H56.2a.71.71,0,0,1-.75-.45H53.87v2.52h3c.53,0,.8.24.8.72s-.27.72-.8.72h-3ZM50.8,142.75v-.07H49.26v4H50.8Zm-1.54,8.91H50.8V148.1H49.26Zm4.61-8.91v3.91H55.4v-4H53.87Zm0,8.91H55.4V148.1H53.87Z" class="cls-2"/><path data-cppathid="10028" d="M65,156a.85.85,0,0,1-.58.24,1,1,0,0,1-.5-.14l-.53-.29c-.29-.17-.43-.37-.43-.57a.66.66,0,0,1,.31-.53l4.82-4h-5.3c-.53,0-.79-.24-.79-.72s.26-.72.79-.72h7l1.34-1.13v-2.5H64c-.53,0-.79-.24-.79-.72s.26-.72.79-.72h7.1v-3.07a.7.7,0,0,1,.8-.79H73.4a.7.7,0,0,1,.8.79v3.07h1.65l3.77-3.14a.85.85,0,0,1,.58-.24,1,1,0,0,1,.5.14l.53.29a.68.68,0,0,1,.43.58.66.66,0,0,1-.31.52l-2.21,1.85h2.21c.53,0,.79.24.79.72s-.26.72-.79.72H77.41l-3.21,2.69v.94h8.37c.53,0,.79.24.79.72s-.26.72-.79.72H71.34l-1.9,1.58H81.23a.7.7,0,0,1,.79.79v7.68a.7.7,0,0,1-.79.79H79.74a.68.68,0,0,1-.77-.62H69.08a.7.7,0,0,1-.76.53H66.83a.7.7,0,0,1-.79-.79v-5.55Zm14-2.3H69.11v2.18H79Zm-9.84,5.76H79v-2.14H69.11Z" class="cls-2"/><path data-cppathid="10029" d="M89.72,158.5a.73.73,0,0,1,.66.18.84.84,0,0,1,.26.66q0,.53-.72.6l-3.22.33a.68.68,0,0,1-.84-.77V144.24a.7.7,0,0,1,.79-.79h1.49a.7.7,0,0,1,.79.79v14.33Zm10.83-9.77a.81.81,0,0,1-.7.41l-.15,0-.18,0-1-.31c-.35-.1-.53-.29-.53-.58a.85.85,0,0,1,.17-.48l1.25-1.78H92.65c-.53,0-.79-.24-.79-.72s.26-.72.79-.72h9.65c.45,0,.67.16.67.48a.78.78,0,0,1-.17.48Zm1.82,10c.53,0,.79.24.79.72s-.26.72-.79.72H98.15a10,10,0,0,1-2.93-.41,5.75,5.75,0,0,1-2.11-1.1,2.07,2.07,0,0,1-.79-1.59,5.54,5.54,0,0,1,1.39-2.9.8.8,0,0,1,.69-.41,1.54,1.54,0,0,1,.39.07l.91.36c.32.15.48.34.48.58a1,1,0,0,1-.17.48,4.5,4.5,0,0,0-.45.94,2.48,2.48,0,0,0-.17.88,1.37,1.37,0,0,0,.63,1.26,4.19,4.19,0,0,0,2.13.4Z" class="cls-2"/><path data-cppathid="10030" d="M108.64,159.94a.77.77,0,0,1-.7.5h-.14l-.17,0-.77-.21c-.37-.1-.55-.3-.55-.6a1,1,0,0,1,.09-.41l2.19-4.59a1.12,1.12,0,0,1-.27,0h-1.24a.71.71,0,0,1-.8-.79v-8.07a.7.7,0,0,1,.8-.79h1.24a.74.74,0,0,1,.68.31h.93v-2h-2.59c-.53,0-.79-.24-.79-.72s.26-.72.79-.72h2.59v-.52a.71.71,0,0,1,.79-.8h1a.7.7,0,0,1,.79.8v.52h1.9c.53,0,.79.24.79.72s-.26.72-.79.72h-1.9v2h2.86a.7.7,0,0,1,.79.79v7.76a.7.7,0,0,1-.79.79h-1.25a1,1,0,0,1-.33-.05l1.65,3.67a.81.81,0,0,1,.1.39c0,.32-.19.52-.58.62l-.77.19-.26,0a.74.74,0,0,1-.72-.55l-.7-1.56v3.24a.7.7,0,0,1-.79.79h-1a.7.7,0,0,1-.79-.79v-3.39Zm.48-7.2h.81v-6h-.81Zm4.22-6h-.82v6h.82Zm12.86,10a.7.7,0,0,1-.79.79h-1.49a.7.7,0,0,1-.74-.45h-3.6a.7.7,0,0,1-.74.45h-1.49a.7.7,0,0,1-.79-.79V145.27a.7.7,0,0,1,.79-.79h1.49l.24,0,.52-1.82H117c-.52,0-.79-.24-.79-.72s.27-.72.79-.72h8.88c.53,0,.8.24.8.72s-.27.72-.8.72h-3.21v0a1.6,1.6,0,0,1,0,.27l-.58,2h3.41a.7.7,0,0,1,.79.79ZM119,161.14a.84.84,0,0,1-.72.45,1,1,0,0,1-.31-.05l-1-.31c-.36-.13-.55-.33-.55-.6a.83.83,0,0,1,.15-.43l1.15-1.82a.83.83,0,0,1,.72-.46,1.5,1.5,0,0,1,.31.05l1,.31c.37.13.55.33.55.6a.89.89,0,0,1-.14.43Zm4.1-14.76h-3.5v2h3.5Zm-3.5,5.47h3.5v-2h-3.5Zm0,3.77h3.5v-2.33h-3.5Zm6.62,4.56a.83.83,0,0,1,.15.43c0,.29-.19.49-.56.62l-1,.31a1,1,0,0,1-.31.05.84.84,0,0,1-.72-.45l-1.13-1.8a1,1,0,0,1-.14-.44c0-.28.18-.49.55-.62l1-.31a1.5,1.5,0,0,1,.31-.05.83.83,0,0,1,.72.46Z" class="cls-2"/><path data-cppathid="10031" d="M136.72,160.92c-.55,0-.82-.24-.82-.72s.28-.72.84-.72a18.1,18.1,0,0,0,4-.41,3.44,3.44,0,0,0,2-1.16,3.49,3.49,0,0,0,.59-2.13,2.12,2.12,0,0,0-.56-1.44,3.89,3.89,0,0,0-1.54-1A6.38,6.38,0,0,0,139,153a28.41,28.41,0,0,0-7.61,1.08l-.16,0h-.15c-.43,0-.61-.26-.53-.77l.87-6a.75.75,0,0,1,.89-.69l1.44.09c.54,0,.77.32.69.87l-.6,4.34c.8-.13,1.64-.23,2.52-.31s1.76-.12,2.64-.12a10.91,10.91,0,0,1,2.75.35,10,10,0,0,1,2.38.93,5.81,5.81,0,0,1,1.65,1.35,2.46,2.46,0,0,1,.61,1.59,4,4,0,0,1-2.42,3.77A17.29,17.29,0,0,1,136.72,160.92ZM144,146.38c.37.12.55.32.55.57a.41.41,0,0,1,0,.19l-.12.22-.1.12a.84.84,0,0,1-.7.41,1.27,1.27,0,0,1-.36-.07l-9.43-3.32c-.37-.12-.55-.32-.55-.57a.54.54,0,0,1,.05-.22,1,1,0,0,1,.12-.19l.09-.12a.86.86,0,0,1,.7-.41,1,1,0,0,1,.36.07Z" class="cls-2"/><path data-cppathid="10032" d="M152.87,154.9a.75.75,0,0,1-.94.62l-1.39-.17c-.45,0-.67-.27-.67-.67a.86.86,0,0,1,0-.26l1.8-6.6h-1.49c-.53,0-.79-.24-.79-.72s.26-.72.79-.72h1.87L153,143a.74.74,0,0,1,.93-.63l1.39.17c.45.05.68.27.68.67a1.6,1.6,0,0,1,0,.27l-.79,2.93h2.06c.53,0,.79.24.79.72s-.26.72-.79.72h-2.47Zm13.39,2.3a.72.72,0,0,1,.26.5c0,.26-.16.45-.5.58l-.79.31a.94.94,0,0,1-.39.07,1,1,0,0,1-.69-.33,12.75,12.75,0,0,0-1.56-1.37v.29a3.46,3.46,0,0,1-1.25,2.85,5.27,5.27,0,0,1-3.43,1,6.76,6.76,0,0,1-2.67-.51,4.85,4.85,0,0,1-1.92-1.43,3.31,3.31,0,0,1-.72-2.11,2.68,2.68,0,0,1,.7-1.82,4.54,4.54,0,0,1,1.93-1.21,8.82,8.82,0,0,1,4.29-.29v-4.32a.7.7,0,0,1,.79-.79h1.49a.7.7,0,0,1,.79.79v5.36a14.77,14.77,0,0,1,2.07,1.2A15.34,15.34,0,0,1,166.26,157.2Zm-10.58-.14a3.83,3.83,0,0,0,.19,1.18,2.1,2.1,0,0,0,.68,1,2,2,0,0,0,1.36.41,1.38,1.38,0,0,0,1.22-.53,3.32,3.32,0,0,0,.39-1.89V155.3a5.07,5.07,0,0,0-1.47-.26,2.84,2.84,0,0,0-1.85.46A2,2,0,0,0,155.68,157.06Zm11.64-7.76a.92.92,0,0,1,.19.48c0,.28-.18.48-.53.6l-1,.34a.86.86,0,0,1-.36.07.84.84,0,0,1-.7-.41l-3.4-4.72a.87.87,0,0,1-.2-.48c0-.28.18-.48.53-.6l1-.34a1,1,0,0,1,.36-.07.83.83,0,0,1,.7.41Z" class="cls-2"/><path data-cppathid="10033" d="M182.84,159.48a.67.67,0,0,1,.36.55.71.71,0,0,1-.36.55l-.38.27a.78.78,0,0,1-.55.19.9.9,0,0,1-.55-.19l-10-6.89a.72.72,0,0,1-.36-.55.82.82,0,0,1,.32-.58l10.36-9a.86.86,0,0,1,1.11-.12l.57.31a.72.72,0,0,1,.41.58.7.7,0,0,1-.29.52l-9.5,8.24Z" class="cls-2"/><path data-cppathid="10034" d="M190.67,154.9a.75.75,0,0,1-.94.62l-1.39-.17c-.45,0-.67-.27-.67-.67a.86.86,0,0,1,.05-.26l1.8-6.6H188c-.53,0-.79-.24-.79-.72s.26-.72.79-.72h1.87l.94-3.41a.74.74,0,0,1,.93-.63l1.39.17c.45.05.68.27.68.67a1.6,1.6,0,0,1-.05.27l-.79,2.93h2.06c.53,0,.79.24.79.72s-.26.72-.79.72h-2.47Zm13.39,2.3a.72.72,0,0,1,.26.5c0,.26-.16.45-.5.58l-.79.31a.94.94,0,0,1-.39.07,1,1,0,0,1-.69-.33,12.75,12.75,0,0,0-1.56-1.37v.29a3.46,3.46,0,0,1-1.25,2.85,5.27,5.27,0,0,1-3.43,1,6.76,6.76,0,0,1-2.67-.51,4.85,4.85,0,0,1-1.92-1.43,3.31,3.31,0,0,1-.72-2.11,2.68,2.68,0,0,1,.7-1.82A4.54,4.54,0,0,1,193,154a8.82,8.82,0,0,1,4.29-.29v-4.32a.7.7,0,0,1,.79-.79h1.49a.7.7,0,0,1,.79.79v5.36a14.77,14.77,0,0,1,2.07,1.2A15.34,15.34,0,0,1,204.06,157.2Zm-10.58-.14a3.83,3.83,0,0,0,.19,1.18,2.1,2.1,0,0,0,.68,1,2,2,0,0,0,1.36.41,1.38,1.38,0,0,0,1.22-.53,3.32,3.32,0,0,0,.39-1.89V155.3a5.07,5.07,0,0,0-1.47-.26,2.84,2.84,0,0,0-1.85.46A2,2,0,0,0,193.48,157.06Zm11.64-7.76a.92.92,0,0,1,.19.48c0,.28-.18.48-.53.6l-1,.34a.86.86,0,0,1-.36.07.84.84,0,0,1-.7-.41l-3.4-4.72a.87.87,0,0,1-.2-.48c0-.28.18-.48.53-.6l1-.34a1,1,0,0,1,.36-.07.83.83,0,0,1,.7.41Z" class="cls-2"/><path data-cppathid="10035" d="M220.64,159.48a.67.67,0,0,1,.36.55.71.71,0,0,1-.36.55l-.38.27a.78.78,0,0,1-.55.19.9.9,0,0,1-.55-.19l-10-6.89a.72.72,0,0,1-.36-.55.82.82,0,0,1,.32-.58l10.36-9a.86.86,0,0,1,1.11-.12l.57.31a.74.74,0,0,1,.41.58.7.7,0,0,1-.29.52l-9.5,8.24Z" class="cls-2"/><path data-cppathid="10036" d="M238.79,159.46c.51,0,.76.28.76.74s-.27.73-.81.7a17,17,0,0,1-3.78-.6,11.32,11.32,0,0,1-3-1.37,7.07,7.07,0,0,1-2-2,4.53,4.53,0,0,1-.73-2.46,7.68,7.68,0,0,1,1.6-4.71,12.5,12.5,0,0,1,4.43-3.61l-10.08.72a.72.72,0,0,1-.87-.82c0-.37.24-.58.72-.62l15.1-1.08a.81.81,0,0,1,.93.62,1,1,0,0,1,0,.26c0,.32-.21.55-.65.68a13.57,13.57,0,0,0-4.36,1.89,9,9,0,0,0-2.81,3,7.3,7.3,0,0,0-1,3.72,4.22,4.22,0,0,0,.59,2.3,4.67,4.67,0,0,0,1.56,1.5,8,8,0,0,0,2.13.85A13.83,13.83,0,0,0,238.79,159.46Z" class="cls-2"/><path data-cppathid="10037" d="M247.57,155.74a.83.83,0,0,1,.67-.39,1.61,1.61,0,0,1,.39.07l.91.32c.33.11.5.3.5.57a.8.8,0,0,1-.19.48l-2.76,3.65a.82.82,0,0,1-.67.38,1.24,1.24,0,0,1-.39-.07l-.91-.31c-.33-.13-.5-.32-.5-.58a.84.84,0,0,1,.19-.48Zm1.8-4.76a.69.69,0,0,1,.31.56.63.63,0,0,1-.41.55l-.55.29a1,1,0,0,1-.5.14.85.85,0,0,1-.58-.24l-2.49-2.09a.67.67,0,0,1-.32-.53c0-.22.15-.41.44-.57l.52-.29.27-.12a.69.69,0,0,1,.24-.05.9.9,0,0,1,.57.27Zm.1-6.24a1,1,0,0,1,.26.53c0,.24-.16.43-.48.58l-.7.31a1.25,1.25,0,0,1-.45.12.86.86,0,0,1-.65-.31l-2.3-2.38a.74.74,0,0,1-.27-.53q0-.36.48-.57l.7-.31a1.25,1.25,0,0,1,.45-.12.86.86,0,0,1,.65.31Zm2.28,8.36a1.15,1.15,0,0,1-.36.07.84.84,0,0,1-.7-.43l-.05-.08a1,1,0,0,1-.14-.45.61.61,0,0,1,.5-.58,14.68,14.68,0,0,0,2.45-1.26c.86-.53,1.74-1.14,2.62-1.81-.8-.64-1.54-1.28-2.21-1.92s-1.25-1.24-1.73-1.8a.85.85,0,0,1-.22-.48v-.07h-.45c-.53,0-.79-.24-.79-.72s.26-.72.79-.72h4.87v-1.39a.7.7,0,0,1,.79-.8h1.49a.7.7,0,0,1,.79.8v1.39h5c.53,0,.8.24.8.72s-.27.72-.8.72h-.72v.05a.38.38,0,0,1-.12.28,25,25,0,0,1-1.86,1.9c-.71.67-1.47,1.34-2.29,2a26.27,26.27,0,0,0,2.69,1.8,20.37,20.37,0,0,0,2.62,1.29c.35.13.52.32.52.58a.72.72,0,0,1-.14.41l-.07.12a.85.85,0,0,1-.7.43,1.27,1.27,0,0,1-.36-.07l-.45-.17v7.73a.71.71,0,0,1-.8.79h-1.48a.71.71,0,0,1-.8-.79v-2.12h-5.3l-.22,2.21a.7.7,0,0,1-.84.72l-1.48-.07q-.83,0-.75-.84l.75-7.8C252.3,152.89,252,153,251.75,153.1Zm3.09-8.81a29.38,29.38,0,0,0,2.91,2.88,38.21,38.21,0,0,0,2.95-2.88Zm.41,12.81h5.18v-2.54h-4.94Zm.53-5.49-.15,1.51h4.8v-1.25a.8.8,0,0,1,.08-.36c-.48-.25-1-.53-1.42-.83s-.91-.59-1.34-.9c-.69.5-1.37,1-2,1.37A1,1,0,0,1,255.78,151.61Z" class="cls-2"/><path data-cppathid="10038" d="M281.07,161.06a.84.84,0,0,1-.62.32,1.35,1.35,0,0,1-.46-.12l-.72-.36a.67.67,0,0,1-.43-.58.76.76,0,0,1,.22-.5,11.34,11.34,0,0,0,1.91-3.26,18.91,18.91,0,0,0,1-4.5,3.64,3.64,0,0,0-1.25-.3c-.45,0-1,0-1.75,0h-.07a14.7,14.7,0,0,1-1.75,6.24,4.43,4.43,0,0,1-4,2.06,4.1,4.1,0,0,1-2.3-.65,4.58,4.58,0,0,1-1.6-1.75,5.13,5.13,0,0,1-.59-2.45,3.63,3.63,0,0,1,1.91-3.15,12.64,12.64,0,0,1,5.32-1.6q.09-1.2.15-2.58t.09-2.91h-4.9c-.53,0-.79-.24-.79-.72s.26-.72.79-.72h7.18a.71.71,0,0,1,.79.81c0,1.12,0,2.18,0,3.17s-.06,1.93-.13,2.81c.63,0,1.19,0,1.69.05a10.5,10.5,0,0,1,1.38.16c.07-.86.11-1.8.12-2.8a.72.72,0,0,1,.8-.82h1.48c.53,0,.8.41.8,1.22,0,1.38-.11,2.6-.22,3.68q.4.28.84.63c.29.23.59.5.91.81a.81.81,0,0,1,.29.55.63.63,0,0,1-.43.55l-.65.31a.93.93,0,0,1-.46.12.84.84,0,0,1-.64-.31,1.36,1.36,0,0,1-.24-.24A14.1,14.1,0,0,1,283.4,158,14.38,14.38,0,0,1,281.07,161.06Zm-9.28-5.88a5,5,0,0,0,.25,1.56,5.43,5.43,0,0,0,.59,1.32c.22.36.41.53.57.53.56,0,1.07-.56,1.53-1.69a20.39,20.39,0,0,0,1.06-5,6,6,0,0,0-3.07,1.08A2.72,2.72,0,0,0,271.79,155.18Z" class="cls-2"/><path data-cppathid="10039" d="M308.1,155c.35.13.53.31.53.55a.69.69,0,0,1-.24.46l-.17.16a.94.94,0,0,1-.67.32.71.71,0,0,1-.2,0l-.21-.06a15.49,15.49,0,0,0-1.66-.54c-.62-.17-1.28-.32-2-.44v1.7a3.39,3.39,0,0,1-1.57,3,7.67,7.67,0,0,1-4.31,1.05,10,10,0,0,1-3.42-.55,6,6,0,0,1-2.41-1.51,3.11,3.11,0,0,1-.89-2.16,2.52,2.52,0,0,1,.87-1.91,5.82,5.82,0,0,1,2.41-1.25,13.41,13.41,0,0,1,3.61-.44l1.29,0c.44,0,.89.06,1.35.11v-2.3H292c-.53,0-.79-.24-.79-.72s.26-.72.79-.72h8.4v-2.64H292c-.53,0-.79-.24-.79-.72s.26-.72.79-.72h8.4v-2a.7.7,0,0,1,.79-.79h1.49a.7.7,0,0,1,.79.79v2h3.84c.53,0,.8.24.8.72s-.27.72-.8.72h-3.84v2.64h3.84c.53,0,.8.24.8.72s-.27.72-.8.72h-3.84v2.73c.9.16,1.75.34,2.55.53S307.54,154.78,308.1,155ZM294,156.89q0,2.78,3.64,2.78a3.31,3.31,0,0,0,2.2-.56,2.69,2.69,0,0,0,.61-2V154.9a21.52,21.52,0,0,0-2.64-.17,8.77,8.77,0,0,0-2.45.26,1.89,1.89,0,0,0-1.09.75A2.3,2.3,0,0,0,294,156.89Z" class="cls-2"/><path data-cppathid="10040" d="M324.85,160.82a.83.83,0,0,1-.72.46H324l-.17,0-1.13-.31c-.37-.1-.55-.29-.55-.58a.9.9,0,0,1,.09-.4,10,10,0,0,0,.63-3.1,8.25,8.25,0,0,1-3.31.65,6.56,6.56,0,0,1-2.88-.61,4.58,4.58,0,0,1-1.94-1.72,4.83,4.83,0,0,1-.68-2.57,3.55,3.55,0,0,1,.78-2.29,5.09,5.09,0,0,1,2.12-1.51,8.22,8.22,0,0,1,3.08-.54,9.53,9.53,0,0,1,1.59.12,7.59,7.59,0,0,1,1.29.33V146H312.49c-.53,0-.79-.24-.79-.72s.26-.72.79-.72h10.42v-2a.7.7,0,0,1,.79-.79h1.49a.7.7,0,0,1,.79.79v2h3.29c.52,0,.79.24.79.72s-.27.72-.79.72H326v6.46a5.81,5.81,0,0,1-.05.72c0,.25,0,.5,0,.74s0,.47,0,.7v.79a18.91,18.91,0,0,1-.1,2.13,8.1,8.1,0,0,1-.33,1.67A8.53,8.53,0,0,1,324.85,160.82Zm-7.73-8.23a4.34,4.34,0,0,0,.65,2.53,2,2,0,0,0,1.78.93,3.38,3.38,0,0,0,2.22-.71,3.18,3.18,0,0,0,1.06-2,5.44,5.44,0,0,0-.76-2.86,2.45,2.45,0,0,0-2-.79A2.57,2.57,0,0,0,317.12,152.59Z" class="cls-2"/><path data-cppathid="10041" d="M337,161a5.15,5.15,0,0,1-2.22-.48,4.11,4.11,0,0,1-1.63-1.32,3.09,3.09,0,0,1-.62-1.87,3,3,0,0,1,.62-1.86,4.17,4.17,0,0,1,1.63-1.31,5.35,5.35,0,0,1,4.43,0,4.29,4.29,0,0,1,1.62,1.31,3.14,3.14,0,0,1,0,3.72,4.41,4.41,0,0,1-1.62,1.32A5,5,0,0,1,337,161Zm0-1.2a2,2,0,0,0,1.5-.72,2.56,2.56,0,0,0,.63-1.75,2.52,2.52,0,0,0-.63-1.74,2,2,0,0,0-3,0,2.51,2.51,0,0,0-.63,1.75,2.56,2.56,0,0,0,.63,1.75A2,2,0,0,0,337,159.79Z" class="cls-2"/><path data-cppathid="10042" d="M135.41,52.35c0,.66-.38,1-1.09,1l-1.95,0a.9.9,0,0,1-1-1.08l.89-19.62a1.46,1.46,0,0,1,.2-.64.81.81,0,0,1-.16-.54q0-1,1.05-1h11.46l-1.06-3.27a1.91,1.91,0,0,1-.06-.41c0-.5.29-.77.86-.84l1.79-.25.15,0h.11a1,1,0,0,1,1,.8l1.28,4h8.83c.71,0,1.06.32,1.06,1s-.35,1-1.06,1h-8.22l2.75,8.54,2.91-4.67a1.12,1.12,0,0,1,1-.61,1.91,1.91,0,0,1,.42.06l1.38.42c.49.17.73.44.73.8a1.29,1.29,0,0,1-.19.58l-4.83,7.71,1.6,5L157,49.7a2.27,2.27,0,0,1,.35-.07,1.1,1.1,0,0,1,1,.68,1.32,1.32,0,0,1,.16.51c0,.42-.26.7-.77.83L153,52.87a.58.58,0,0,1-.19,0h-.16a1,1,0,0,1-1-.77l-.83-2.59-1.73,2.78a1.1,1.1,0,0,1-1,.61,1.83,1.83,0,0,1-.41-.06l-1.38-.42c-.49-.17-.74-.44-.74-.8a1.18,1.18,0,0,1,.2-.58l3.64-5.82L145.4,32.39h-9.12a1.83,1.83,0,0,1,0,.35l-.26,5.5h7.75c.72,0,1,.36,1,1.09l-1,12.54q-.11.93-.87.93a1.9,1.9,0,0,1-.35-.06l-5.06-1.25c-.53-.13-.8-.38-.8-.77a.51.51,0,0,1,.05-.22,1.23,1.23,0,0,0,.08-.23l0-.09a1.09,1.09,0,0,1,1-.67h.19l.19,0,1.6.38.8-9.79H136Zm21-24.51c.37.24.55.49.55.77a1,1,0,0,1-.39.7l-.32.26a1.29,1.29,0,0,1-.83.35,1.32,1.32,0,0,1-.61-.19l-3.9-2.14a1,1,0,0,1-.54-.77.91.91,0,0,1,.38-.71l.32-.25a1.26,1.26,0,0,1,.83-.35,1.17,1.17,0,0,1,.61.19Z" class="cls-2"/><path data-cppathid="10043" d="M165.94,51.14a1,1,0,0,1-1.15,1l-1-.07a.91.91,0,0,1-1-1.12l.42-4.86a1,1,0,0,1,1.15-1l1,.06a.91.91,0,0,1,1,1.12Zm5.57,1.37a.93.93,0,0,1-1.06,1.06h-2a.93.93,0,0,1-1.06-1.06V43.3l-3.52.29c-.64,0-1-.16-1-.61a1.09,1.09,0,0,1,.23-.64l2.94-4.58-.06-.09-2.69-3.59a1.24,1.24,0,0,1-.29-.73,1.08,1.08,0,0,1,.29-.74l5.12-6.72a1.09,1.09,0,0,1,.89-.51,1.83,1.83,0,0,1,.52.09l1.21.42c.45.15.67.4.67.77a1.13,1.13,0,0,1-.25.64l-4.58,6.05L168,34.79l1.15-1.8a1.16,1.16,0,0,1,1-.57,1.91,1.91,0,0,1,.42.06l1.38.42c.49.17.73.42.73.77a.79.79,0,0,1-.06.28,3.18,3.18,0,0,1-.16.32l-4.55,7.08,3.91-.32-.55-2.21a1.45,1.45,0,0,1,0-.32.85.85,0,0,1,.87-.93l.92-.13a1,1,0,0,1,1.22.83l1.18,4.9a1,1,0,0,1,0,.32.86.86,0,0,1-.87.93l-.93.13a1,1,0,0,1-1.21-.84l-.19-.76h-.1l-.74.06a.89.89,0,0,1,.07.38Zm4.54-2.11c.07.71-.26,1.08-1,1.12l-1,.07a.94.94,0,0,1-1.12-1l-.42-4a1.11,1.11,0,0,1,.22-.82,1.09,1.09,0,0,1,.77-.34l1-.06a1,1,0,0,1,1.12,1ZM185,35v.1h4.64c.71,0,1.06.32,1.06,1s-.35,1-1.06,1H176.37q-1.05,0-1.05-1t1.05-1h4.55V33.76h-3c-.71,0-1.06-.32-1.06-1s.35-1,1.06-1h3V30h-3.84c-.71,0-1.06-.32-1.06-1s.35-1,1.06-1h3.84V27A.94.94,0,0,1,182,26h2A.94.94,0,0,1,185,27v1h3.87c.71,0,1.06.32,1.06,1s-.35,1-1.06,1H185v1.89h3.11q1,0,1,1t-1,1H185Zm-8.54,3.84a.94.94,0,0,1,1.05-1.06h2a1.26,1.26,0,0,1,.64.16H189A.94.94,0,0,1,190,39v9.92A.94.94,0,0,1,189,50h-2a1.26,1.26,0,0,1-.64-.16h-6.17a1.26,1.26,0,0,1-.64.16h-2a.94.94,0,0,1-1.05-1.06Zm2.05,14.69a1.37,1.37,0,0,1-.58.13,1.13,1.13,0,0,1-.86-.42l-.16-.16a1,1,0,0,1-.36-.67c0-.32.22-.58.64-.77L180,50.4a1.33,1.33,0,0,1,.57-.13,1.17,1.17,0,0,1,.87.42l.16.16a1,1,0,0,1,.35.67c0,.32-.21.58-.64.77Zm7.39-13.67h-5.35v1.32h5.35Zm-5.35,4.74h5.35v-1.5h-5.35Zm0,3.3h5.35V46.53h-5.35Zm9.06,3.87c.43.19.64.45.64.77a1.09,1.09,0,0,1-.29.64l-.22.22a1.3,1.3,0,0,1-.9.45,1.26,1.26,0,0,1-.54-.13l-3.2-1.41c-.43-.19-.64-.45-.64-.77a1,1,0,0,1,.29-.64l.22-.22a1.3,1.3,0,0,1,.9-.45,1.13,1.13,0,0,1,.54.13Z" class="cls-2"/><path data-cppathid="10044" d="M214.23,52.32a1,1,0,0,1-.83.45,1.29,1.29,0,0,1-.61-.16l-1-.45c-.41-.19-.61-.45-.61-.77a1.43,1.43,0,0,1,.26-.67,11.44,11.44,0,0,0,1.18-2.35,17,17,0,0,0,.8-2.93,17.29,17.29,0,0,0,.29-3.1,12.56,12.56,0,0,0-1.44-6.4,6.31,6.31,0,0,0-4.07-3.11,42.69,42.69,0,0,1,.77,7.62,16.53,16.53,0,0,1-1.84,8.45,5.91,5.91,0,0,1-5.42,3.1,6.9,6.9,0,0,1-3.81-1,7.07,7.07,0,0,1-2.53-2.9,9.54,9.54,0,0,1-.89-4.24,13.94,13.94,0,0,1,.92-5.06A13.29,13.29,0,0,1,198,34.58a12.07,12.07,0,0,1,3.81-2.83,10.55,10.55,0,0,1,4.62-1,12.61,12.61,0,0,1,6.08,1.39,9.56,9.56,0,0,1,3.94,4,13.17,13.17,0,0,1,1.37,6.23A14.48,14.48,0,0,1,214.23,52.32Zm-15.62-8.51a10.32,10.32,0,0,0,.45,3.12,6.73,6.73,0,0,0,1.17,2.29,2,2,0,0,0,1.52.86c.6,0,1.12-.44,1.58-1.33a12.75,12.75,0,0,0,1.09-3.6,29.32,29.32,0,0,0,.4-5.12c0-1.08,0-2.2-.14-3.36s-.25-2.32-.47-3.52a8.46,8.46,0,0,0-2.83,2.37,13.11,13.11,0,0,0-2,3.76A13.71,13.71,0,0,0,198.61,43.81Z" class="cls-2"/><path data-cppathid="10045" d="M223.64,53.41a1.1,1.1,0,0,1-.88-.22,1.07,1.07,0,0,1-.34-.87c0-.47.3-.76.9-.86a10,10,0,0,0,5.82-3.55l-2.88-.9c-.49-.17-.74-.43-.74-.77a1.32,1.32,0,0,1,.16-.51l.1-.16a1.12,1.12,0,0,1,.93-.58,1.29,1.29,0,0,1,.48.1l3.26,1a21.54,21.54,0,0,0,1.35-2.72h-3.88a1,1,0,0,1-.7.23h-2a.93.93,0,0,1-1.06-1.06V31.65a.94.94,0,0,1,1.06-1.06h2a1.07,1.07,0,0,1,.83.32h6.21c0-.76,0-1.54.06-2.33v-.13H222.61q-1.05,0-1.05-1t1.05-1H248q1,0,1,1t-1,1h-9.63a6.59,6.59,0,0,1,0,.67c0,.62,0,1.22-.07,1.79h7.52A.94.94,0,0,1,246.9,32V42.56a.93.93,0,0,1-1.06,1.06h-2a1,1,0,0,1-.7-.23h-7.27a21.12,21.12,0,0,1-2,3.78l14.43,4.45c.49.17.73.42.73.77a1.24,1.24,0,0,1-.16.51l-.09.16a1.12,1.12,0,0,1-.93.57,1.45,1.45,0,0,1-.48-.09l-14.94-4.61A14.74,14.74,0,0,1,223.64,53.41Zm4.64-16.93h5.4c.17-1.15.31-2.37.42-3.65h-5.82Zm0,5h4.22a24.11,24.11,0,0,0,.8-3.07h-5Zm8.32,0h6.2V38.4h-5.4C237.16,39.49,236.89,40.51,236.6,41.47Zm6.2-8.64h-4.6c-.11,1.28-.26,2.5-.45,3.65h5.05Z" class="cls-2"/><path data-cppathid="10046" d="M256.56,52.48a1.13,1.13,0,0,1-.92.48,1.83,1.83,0,0,1-.52-.09L254,52.42c-.45-.19-.67-.46-.67-.8a.89.89,0,0,1,.26-.64l4.64-5.83H254c-.71,0-1.06-.32-1.06-1s.35-1,1.06-1h5V40.71h-5c-.71,0-1.06-.32-1.06-1s.35-1,1.06-1h1.5v0l-.35-7.1v-.16h-.42q-1.05,0-1.05-1t1.05-1h4v-3.2a.94.94,0,0,1,1.06-1.06h2a.94.94,0,0,1,1.06,1.06v3.2h3.68q1.05,0,1.05,1a.94.94,0,0,1-.25.7.92.92,0,0,1-.67.26.69.69,0,0,1,0,.29l-1.12,7h.89c.71,0,1.06.32,1.06,1s-.35,1-1.06,1h-3.33v2.52h2.79q1.05,0,1,1t-1,1h-2.79l3.43,2.66a.94.94,0,0,1,.45.7c0,.28-.2.54-.58.77l-.64.39a1.14,1.14,0,0,1-.67.22,1.16,1.16,0,0,1-.8-.32l-1.19-.93V53a.93.93,0,0,1-1.05,1h-2A.93.93,0,0,1,259,53V49.41Zm3.08-13.85v.16h1.88a.69.69,0,0,1,0-.29l1.12-7h-3.36v0Zm11.64,13.85a1,1,0,0,1-1.12,1l-2-.07a.91.91,0,0,1-1-1.09l1.05-19.52a1.33,1.33,0,0,1,.23-.67.63.63,0,0,1,0-.19.86.86,0,0,1,.54-.74l10.08-5.56a1.31,1.31,0,0,1,.61-.2,1.29,1.29,0,0,1,.83.36l.29.25a1.08,1.08,0,0,1,.41.74.83.83,0,0,1-.54.73l-8.51,4.71a.92.92,0,0,1,.19.7l-.16,2.95h8.26q1.05,0,1.05,1t-1.05,1h-1.25v15.1A.94.94,0,0,1,278.13,54h-2a.94.94,0,0,1-1.06-1.06V37.83h-3Z" class="cls-2"/></g></g></g></g></svg>