<?xml version="1.0" encoding="UTF-8"?>
<svg xmlns="http://www.w3.org/2000/svg" onmouseup="{ if(window.parent.document.onmouseup) window.parent.document.onmouseup(arguments[0]);}" viewBox="0 0 224.68 377.44"><defs><style>.cls-1{fill:#fcc388;}.cls-2{fill:#e33d3c;}.cls-3{fill:#80583a;}.cls-4{fill:#d7d7d7;}.cls-5{fill:#253d54;}.cls-6{fill:#ad2526;}.cls-10,.cls-12,.cls-15,.cls-17,.cls-7{stroke:#000;}.cls-7{stroke-width:0.6px;}.cls-8{fill:#fff;}.cls-9{fill:#f2797a;}.cls-10,.cls-12,.cls-15,.cls-17{fill:none;}.cls-10{stroke-width:1.06px;}.cls-11{fill:#686868;}.cls-12{stroke-width:0.3px;}.cls-13{fill:#919191;}.cls-14{fill:#afafb0;}.cls-15{stroke-width:0.89px;}.cls-16{fill:#c5c4c4;}.cls-17{stroke-width:0.67px;}</style></defs><g data-name="Layer 2" id="Layer_2"><g id="scrumMaster"><path data-cppathid="10000" d="M171.22,185.1c1,1.08,30.57,5.76,34.81,2.88,6.19-4.2,1.76-40.85,5.31-41.89s-14.9-10.05-16.41-.87-3.82,17.69-2.15,25l-30.35-1.81Z" class="cls-1"/><path data-cppathid="10001" d="M178.86,156.19l-4.28-.17c-35.66-1.27-44.14,25.51-34.84,28.31,3.22,1,18.1,2.64,36.66,4.23C180.94,182.31,184,168.18,178.86,156.19Z" class="cls-2"/><path data-cppathid="10002" d="M81.43,78.68C83,72.36,77,60.75,69.06,58,59.88,54.77,55,56.21,50.8,64.16c-3.88,7.41-6.16,11.18-15.88,12.33-8.1,1-15-13.82-6.15-17.78,3.19-1.42,10.83,2.53,10,6.7-.57,2.74-6.38,3.63-7.61,1.1,2.33,1.11,2.59,5.69,8.6,1.89,3.67-2.33,1.46-7.76-.42-10.55-8.81-13-22.54.47-19.44,13.46C24,88.63,42.74,94.73,55.45,95.61S79.91,85,81.43,78.68Z" class="cls-3"/><path data-cppathid="10003" d="M0,361.58c-.18,7.46,39.92,14.48,89.57,15.69s90-3.87,90.22-11.33-39.92-14.49-89.57-15.69S.18,354.12,0,361.58Z" class="cls-4"/><path data-cppathid="10004" d="M43.53,101.74S59,27.64,102.85,29.21s58.41,47,51.1,89.35a410.67,410.67,0,0,0-5,42.54c-1.36,20.75-3.89,35-3.89,35L49.26,177.94l5.54-12.51.92-10.11s-9.09-32.83-5.65-32.45c18.37,2.06,20.42,1.3,35.82,1.3,37.22,0,31.65-15.93,31.65-15.93Z" class="cls-1"/><path data-cppathid="10005" d="M55,254.12S64.6,343,60.43,348.68s-8.54,16-6.45,20.7,35.48-12.56,41.22-17.26,8-65.39,8-71,17.88-1.41,17.88-1.41,2.77,67.74,3.29,71,31.29,9.88,38.59,8.46-4.69-13.63-4.69-13.63S166.1,246.6,164,241.42s-107.43-2.35-107.43-2.35Z" class="cls-5"/><path data-cppathid="10006" d="M51.87,155.68c90.41,14.7,100.11-7.91,100.11-7.91l3.87,19.52s2.9,21.91,15.6,74.6C139.85,255.75,48,248.55,48,248.55S51.32,164,51.87,155.68Z" class="cls-6"/><path data-cppathid="10007" d="M78.75,78.55c0,3.76,1.8,6.82,4,6.82s4-3.06,4-6.82-1.8-6.83-4-6.83S78.75,74.78,78.75,78.55Z" class="cls-7"/><path data-cppathid="10008" d="M67.51,77.74c0,3.11,1.48,5.62,3.31,5.62s3.3-2.51,3.3-5.62-1.48-5.62-3.3-5.62S67.51,74.64,67.51,77.74Z" class="cls-7"/><path data-cppathid="10009" d="M81.49,74.3a2,2,0,1,0,2-2A2,2,0,0,0,81.49,74.3Z" class="cls-8"/><path data-cppathid="10010" d="M69.49,74.3a2,2,0,1,0,2-2A2,2,0,0,0,69.49,74.3Z" class="cls-8"/><path data-cppathid="10011" d="M99.53,32.08s40.75,55.74,58.28,65.62c9.21-30.58-5.47-66.09-44.91-73.86C91.9,19.71,85.68,18.12,70,35.6,57.46,49.48,99.53,32.08,99.53,32.08Z" class="cls-3"/><path data-cppathid="10012" d="M159.18,94s29-42.66-12.84-72.76C107.89-6.4,79,23,78.27,28.31,78.27,28.31,152.07,23,159.18,94Z" class="cls-2"/><path data-cppathid="10013" d="M124.88,39.05S96.09,1,77.19.1,46.11,5.24,44.68,10.89,76.25,28.31,76.25,28.31,105.08,27.52,124.88,39.05Z" class="cls-9"/><path data-cppathid="10014" d="M156.19,98.35c3.15-5.58,15.06-9.11,22.44-5,8.54,4.81,11,9.6,8.63,18.34-2.22,8.16-3.14,12.55,2.88,20.82,5,6.89,19.69,1.86,16.14-7.7-1.27-3.45-9.24-6.55-11.42-3-1.43,2.35,2,7.44,4.58,6.62-2.37-1-5.61,2-7.27-5.29-1-4.44,4.15-6.55,7.32-7,14.85-2.34,15.43,17.64,4.62,24.33-14.43,8.94-31.59-1.2-41.06-10.34S153,103.93,156.19,98.35Z" class="cls-3"/><path data-cppathid="10015" d="M32.67,182.14c-1.41.48-17.91,26.36-16.94,31.53,1.42,7.52,37.64,18.34,37.17,22.11s15.52-9.88,7.53-15.06S45.37,209.9,37.85,208.49L52,180.73Z" class="cls-1"/><path data-cppathid="10016" d="M19.68,187.84c.77-1.26,1.55-2.5,2.32-3.72,19.56-30.86,47.1-22.52,44.08-13.05-1,3.27-8.23,16.82-17.63,33.43C40.54,204.71,26.81,199.14,19.68,187.84Z" class="cls-2"/><path data-cppathid="10017" d="M54.78,233s-14.11,6.12-12.23,11.29-3.29-10.35-7.06-9.87,1.88,15.52,4.71,15.52,18.82,1.88,24.46-7.06.47-17.4-1.88-19.76S54.78,233,54.78,233Z" class="cls-1"/><path data-cppathid="10018" d="M53.84,156.27s32,1.41,67.74,40.93c0,0,29.64-23.52,29.64-47" class="cls-10"/><polygon data-cppathid="10019" points="114.43 212.95 124.21 217.71 126.87 212.19 120.98 205.87 114.43 212.95" class="cls-11"/><polyline data-cppathid="10020" points="132.7 225.48 126.31 222.02 124.3 223.58" class="cls-12"/><path data-cppathid="10021" d="M123.59,199.65s-.36-3.4-5-3.36c-4.3,1.06-8.24,7.73-6.18,13.78,2.34,6.85,9.24,3,9.24,3l2.12,10.72.25.12,2.34-1.88Z" class="cls-13"/><path data-cppathid="10022" d="M130.34,201.35s-6.66-5.73-11.19-5.19c-.2,0-.41.08-.61.13,4.69,0,5,3.36,5,3.36L126.31,222,124,223.9l6.56,3.26,2.75-1.88Z" class="cls-14"/><line data-cppathid="10023" y2="209.59" x2="126.09" y1="211.98" x1="130.66" class="cls-15"/><polygon data-cppathid="10024" points="126.31 222.02 123.97 223.9 130.53 227.16 133.28 225.28 126.31 222.02" class="cls-16"/><line data-cppathid="10025" y2="223.86" x2="126.49" y1="225.69" x1="130.79" class="cls-17"/><path data-cppathid="10026" d="M196.31,150.65s-1.41-11.31.38-13c3.32-3.17,5.07-6.48,7.5-8.66s3.84-4.61,4.25-1.13-5.49,7.76-2.57,7.42,9.2-4.75,12-5.58,4.11.24,2.45,1.71-9.29,4.69-7.71,5.88c1.8,1.35,12.13-3.48,12-1.4s-9.56,4.14-10.46,5.58,8.83.81,10.08,1.65-10.64,5-12.07,5.37-10.28,4.11-13.3.44Z" class="cls-1"/></g></g></svg>