<?xml version="1.0" encoding="UTF-8"?>
<svg xmlns="http://www.w3.org/2000/svg" onmouseup="{ if(window.parent.document.onmouseup) window.parent.document.onmouseup(arguments[0]);}" viewBox="0 0 1036.34 352.28"><defs><style>.cls-1,.cls-3,.cls-6,.cls-9{fill:#fff100;}.cls-2,.cls-5,.cls-8{fill:#603813;}.cls-3,.cls-4,.cls-5{opacity:0.5;}.cls-6,.cls-7,.cls-8{opacity:0.25;}.cls-10,.cls-9{opacity:0.12;}.cls-11{fill:#3b2314;opacity:0.12;}</style></defs><g data-name="Layer 2" id="Layer_2"><g id="backlog"><g data-name="2023 jp" id="_2023_jp"><g data-name="everything all the time" id="everything_all_the_time"><path data-cppathid="10000" d="M786,153.26a12.38,12.38,0,0,1-12.38,12.38H395.1a12.38,12.38,0,0,1-12.38-12.38V91.84A12.38,12.38,0,0,1,395.1,79.46H773.61A12.38,12.38,0,0,1,786,91.84Z" class="cls-1"/><path data-cppathid="10001" d="M547.68,131.5v.07H553v-5.79a.72.72,0,0,1,.81-.81h1.52a.72.72,0,0,1,.81.81v6.7a.72.72,0,0,1-.81.81h-1.52a.83.83,0,0,1-.64-.24h-16.3a.72.72,0,0,1-.82-.81v-6.46a.72.72,0,0,1,.82-.81h1.52a.72.72,0,0,1,.81.81v5.79h5.33v-9.06h-6.9a.72.72,0,0,1-.81-.81v-7.22a.72.72,0,0,1,.81-.81h1.52a.72.72,0,0,1,.81.81V121h4.57v-7.91a.72.72,0,0,1,.81-.81h1.52a.72.72,0,0,1,.81.81V121h4.57v-6.56a.72.72,0,0,1,.81-.81h1.52a.72.72,0,0,1,.81.81v7.69a.72.72,0,0,1-.81.81h-1.52a.72.72,0,0,1-.76-.47h-4.62Z" class="cls-2"/><path data-cppathid="10002" d="M562.86,133.19a.74.74,0,0,1-.86.77l-1.53-.05c-.55,0-.81-.32-.76-.86l1.38-17a.73.73,0,0,1,.86-.76l1.52,0a.76.76,0,0,1,.66.35h6.36a1.24,1.24,0,0,1-.07-.4v-2.53a.72.72,0,0,1,.81-.81h1.52a.72.72,0,0,1,.81.81v2.53a1,1,0,0,1-.07.4h7.39c.54,0,.81.24.81.73s-.27.74-.81.74H564.16Zm4.93-1.1a.72.72,0,0,1-.81.81h-1.52a.72.72,0,0,1-.81-.81v-5.38a.72.72,0,0,1,.81-.81H567a.8.8,0,0,1,.64.25h3V124.4h-3.46a.72.72,0,0,1-.82-.81v-2.75H565c-.54,0-.81-.24-.81-.73s.27-.74.81-.74h1.25v-.89a.72.72,0,0,1,.82-.81h1.52a.72.72,0,0,1,.81.81v.89h5.72v-.89a.72.72,0,0,1,.81-.81h1.52a.72.72,0,0,1,.81.81v.89h1.87c.54,0,.81.24.81.74s-.27.73-.81.73H578.3v2.92a.72.72,0,0,1-.81.82H576a.77.77,0,0,1-.54-.18h-1.72v1.75h5.13a.72.72,0,0,1,.81.81v5c0,.59-.28.84-.86.76l-3.36-.39c-.56-.08-.79-.36-.69-.83a.79.79,0,0,1,.94-.64l.83.1v-3.32h-2.8v5.3a.72.72,0,0,1-.81.82h-1.52a.72.72,0,0,1-.81-.82v-5.3h-2.78Zm1.65-9.16h5.72v-2.09h-5.72Z" class="cls-2"/><path data-cppathid="10003" d="M588.3,126.83a.13.13,0,0,0,.07,0v-6.85l-3-2.57a1.07,1.07,0,0,1-.4-.79.69.69,0,0,1,.4-.66l.56-.32a.74.74,0,0,1,.34-.08.73.73,0,0,1,.52.18l1.57,1.35v-4a.79.79,0,0,1,.25-.59.81.81,0,0,1,.59-.24h1.47a.81.81,0,0,1,.59.24.83.83,0,0,1,.25.59V132.7a.82.82,0,0,1-.25.59.78.78,0,0,1-.59.25h-1.47a.85.85,0,0,1-.84-.84v-3.56l-2,1.33a.74.74,0,0,1-.39.12.78.78,0,0,1-.44-.15l-.17-.12a.93.93,0,0,1,0-1.57Zm6.65,6.34a.65.65,0,0,1-.56.27h-.15l-.15,0-.73-.29a.82.82,0,0,1-.62-.81,1.07,1.07,0,0,1,.22-.62,22.84,22.84,0,0,0,2.9-4.95,23.46,23.46,0,0,0,1.57-5.83h-3.75a.87.87,0,0,1-.59-.21.68.68,0,0,1,0-1.05.87.87,0,0,1,.59-.21h4c.1-.92.17-1.89.22-2.9s.08-2.1.1-3.27a.85.85,0,0,1,.23-.6.82.82,0,0,1,.58-.23h1.5c.23,0,.42.16.59.48a2.51,2.51,0,0,1,.22,1.19c0,1-.06,1.94-.11,2.82s-.14,1.72-.24,2.51h4.13a.87.87,0,0,1,.59.21.69.69,0,0,1,0,1.05.87.87,0,0,1-.59.21h-4.32c-.07.41-.13.8-.2,1.18l.15.22,5,9.65a1.07,1.07,0,0,1,.13.44.84.84,0,0,1-.19.53.86.86,0,0,1-.53.31l-1.1.27a.82.82,0,0,1-.49-.05.69.69,0,0,1-.37-.34l-3.71-7.1a17.81,17.81,0,0,1-1.89,3.89A39.39,39.39,0,0,1,595,133.17Zm10.69-15.69a.85.85,0,0,1-.77,1l-1.44.12a.8.8,0,0,1-.57-.15.67.67,0,0,1-.29-.49l-.72-3.56a.87.87,0,0,1,.15-.71.79.79,0,0,1,.62-.32l1.44-.12a.73.73,0,0,1,.86.64Z" class="cls-2"/><path data-cppathid="10004" d="M613,127.64a1,1,0,0,1,.68-.34.8.8,0,0,1,.23,0,.73.73,0,0,1,.19.07l.76.32c.33.15.49.34.49.59a.78.78,0,0,1-.24.54l-3.51,3.8a1,1,0,0,1-.69.35.48.48,0,0,1-.2,0l-.22-.06-.76-.32c-.33-.15-.49-.34-.49-.59a.74.74,0,0,1,.25-.54Zm1.59-4.73a.67.67,0,0,1,.37.56.71.71,0,0,1-.37.56l-.39.27a.9.9,0,0,1-.56.2,1,1,0,0,1-.57-.2l-3.27-2.25a.74.74,0,0,1-.36-.57.68.68,0,0,1,.36-.56l.4-.27a.9.9,0,0,1,.56-.2.8.8,0,0,1,.57.2Zm.08-6.39a.77.77,0,0,1,.32.56.66.66,0,0,1-.42.57l-.57.29a1,1,0,0,1-.51.15.88.88,0,0,1-.59-.24l-3-2.56a.77.77,0,0,1-.32-.56.66.66,0,0,1,.42-.57l.56-.29a1.06,1.06,0,0,1,.52-.15.84.84,0,0,1,.59.25ZM617,132.9a.81.81,0,0,1-.74.49h-.14l-.15,0-1.15-.29c-.38-.1-.57-.31-.57-.62a1.32,1.32,0,0,1,.12-.44l4.06-7.24h-1.53a.72.72,0,0,1-.81-.81V113.28a.72.72,0,0,1,.81-.81h1.53a.7.7,0,0,1,.73.42h8.15a.72.72,0,0,1,.82.81v10.24a.72.72,0,0,1-.82.81h-1.52a.78.78,0,0,1-.22,0v6.88h1.16v-2.92a.72.72,0,0,1,.81-.81H629a.72.72,0,0,1,.81.81v3.58a.72.72,0,0,1-.81.81h-5.82a.72.72,0,0,1-.81-.81v-7.93h-.76a.91.91,0,0,1-.13.44Zm8-18.54h-5.74v8.5H625Z" class="cls-2"/><path data-cppathid="10005" d="M403.28,225.85a12.39,12.39,0,0,1-12.39,12.38H12.38A12.38,12.38,0,0,1,0,225.85V164.42A12.38,12.38,0,0,1,12.38,152H390.89a12.39,12.39,0,0,1,12.39,12.38Z" class="cls-1"/><path data-cppathid="10006" d="M145.91,205.31c0,.51-.29.76-.83.76l-1.5,0a.7.7,0,0,1-.79-.84l.69-15.05a1.13,1.13,0,0,1,.15-.49.66.66,0,0,1-.12-.42c0-.49.27-.74.81-.74h8.79l-.81-2.5a1.57,1.57,0,0,1-.05-.32c0-.38.22-.59.66-.64l1.38-.2h.19a.73.73,0,0,1,.76.61l1,3.07H163c.54,0,.81.25.81.74s-.27.74-.81.74h-6.32l2.12,6.55L161,193a.87.87,0,0,1,.74-.47,1.57,1.57,0,0,1,.32,0l1.05.32c.38.13.57.34.57.62a1,1,0,0,1-.15.44l-3.71,5.92,1.23,3.8,1.4-.37a1.31,1.31,0,0,1,.27,0,.83.83,0,0,1,.76.51,1,1,0,0,1,.12.39c0,.33-.19.54-.58.64l-3.61.94-.15,0h-.13a.74.74,0,0,1-.73-.59l-.64-2-1.33,2.14a.84.84,0,0,1-.73.46,1.39,1.39,0,0,1-.32,0l-1.06-.32c-.38-.13-.56-.34-.56-.62a.93.93,0,0,1,.14-.44l2.8-4.47L153.58,190h-7a2.13,2.13,0,0,1,0,.27l-.2,4.22h5.95c.55,0,.81.28.76.84l-.76,9.62c0,.48-.27.72-.67.72l-.27,0-3.88-1c-.41-.1-.61-.29-.61-.59a.31.31,0,0,1,0-.17l.06-.17,0-.08a.84.84,0,0,1,.76-.51H148l.15,0,1.23.29.61-7.51h-3.61ZM162,186.5a.75.75,0,0,1,.42.59.77.77,0,0,1-.29.54l-.25.2a1,1,0,0,1-.64.27,1,1,0,0,1-.46-.15l-3-1.65c-.28-.18-.42-.37-.42-.59a.72.72,0,0,1,.3-.54l.24-.19a1,1,0,0,1,.64-.27,1,1,0,0,1,.47.14Z" class="cls-2"/><path data-cppathid="10007" d="M169.34,204.38a.74.74,0,0,1-.88.74l-.79-.05a.69.69,0,0,1-.73-.86l.32-3.74a.72.72,0,0,1,.88-.73l.79,0a.69.69,0,0,1,.73.86Zm4.28,1.06a.72.72,0,0,1-.81.81h-1.53a.72.72,0,0,1-.81-.81v-7.08l-2.7.22c-.49,0-.74-.12-.74-.46a.8.8,0,0,1,.18-.49l2.26-3.52-.05-.07-2.07-2.75a1,1,0,0,1-.22-.57.84.84,0,0,1,.22-.56l3.93-5.16a.86.86,0,0,1,.69-.39,1.19,1.19,0,0,1,.39.07l.94.32c.34.12.51.31.51.59a.85.85,0,0,1-.19.49l-3.52,4.64.84,1.11.88-1.38a.9.9,0,0,1,.76-.44,1.48,1.48,0,0,1,.32.05l1.06.32c.38.13.56.33.56.59a.64.64,0,0,1,0,.22l-.13.25-3.48,5.42,3-.24-.42-1.7a1.44,1.44,0,0,1,0-.24.65.65,0,0,1,.66-.71l.72-.1a.74.74,0,0,1,.93.64l.91,3.75a1.69,1.69,0,0,1,0,.25.65.65,0,0,1-.66.71l-.71.1a.74.74,0,0,1-.94-.64l-.14-.59h-.08l-.56,0a.85.85,0,0,1,.05.3Zm3.48-1.63c.05.55-.2.83-.76.86l-.78.05a.71.71,0,0,1-.86-.73l-.32-3.07a.86.86,0,0,1,.17-.63.8.8,0,0,1,.59-.26l.78-.05a.72.72,0,0,1,.86.74ZM184,192v.08h3.56c.54,0,.81.24.81.73s-.27.74-.81.74H177.35c-.54,0-.81-.25-.81-.74s.27-.73.81-.73h3.49v-1H178.5c-.54,0-.81-.24-.81-.73s.27-.74.81-.74h2.34v-1.45h-3c-.54,0-.81-.25-.81-.74s.27-.73.81-.73h3v-.79a.72.72,0,0,1,.81-.81h1.52a.72.72,0,0,1,.81.81v.79h3c.54,0,.81.24.81.73s-.27.74-.81.74h-3v1.45h2.38c.54,0,.81.25.81.74s-.27.73-.81.73H184ZM177.42,195a.72.72,0,0,1,.81-.81h1.53a.94.94,0,0,1,.49.12H187a.72.72,0,0,1,.81.81v7.62a.71.71,0,0,1-.81.8h-1.52a.91.91,0,0,1-.49-.12h-4.74a.94.94,0,0,1-.49.12h-1.53a.71.71,0,0,1-.81-.8ZM179,206.22a.89.89,0,0,1-.44.1.9.9,0,0,1-.66-.32l-.12-.12a.76.76,0,0,1-.27-.52c0-.24.16-.44.49-.59l2.13-1a1.1,1.1,0,0,1,.45-.09.87.87,0,0,1,.66.32l.12.12a.76.76,0,0,1,.27.51c0,.25-.16.45-.49.59Zm5.68-10.49h-4.1v1h4.1Zm-4.1,3.64h4.1v-1.16h-4.1Zm0,2.53h4.1v-1.06h-4.1Zm7,3c.32.15.49.34.49.59a.84.84,0,0,1-.22.49l-.17.17a.88.88,0,0,1-1.11.25l-2.46-1.08c-.32-.15-.49-.35-.49-.59a.75.75,0,0,1,.22-.49L184,204a1,1,0,0,1,.68-.35.87.87,0,0,1,.42.1Z" class="cls-2"/><path data-cppathid="10008" d="M206.4,205.29a.78.78,0,0,1-.63.34,1.06,1.06,0,0,1-.47-.12l-.74-.34a.67.67,0,0,1-.46-.59,1.07,1.07,0,0,1,.19-.52,8.27,8.27,0,0,0,.91-1.81,12.44,12.44,0,0,0,.61-2.24,13,13,0,0,0,.23-2.38,9.64,9.64,0,0,0-1.11-4.92,4.86,4.86,0,0,0-3.12-2.38,33.64,33.64,0,0,1,.59,5.85,12.72,12.72,0,0,1-1.41,6.48,4.54,4.54,0,0,1-4.16,2.38,5.28,5.28,0,0,1-2.93-.81A5.45,5.45,0,0,1,192,202a7.33,7.33,0,0,1-.69-3.25,10.5,10.5,0,0,1,.72-3.89,10.16,10.16,0,0,1,2-3.2,9.24,9.24,0,0,1,2.93-2.17,8.06,8.06,0,0,1,3.55-.79,9.63,9.63,0,0,1,4.66,1.07,7.22,7.22,0,0,1,3,3.07,10,10,0,0,1,1.06,4.78A11.11,11.11,0,0,1,206.4,205.29Zm-12-6.53a7.94,7.94,0,0,0,.34,2.39,5.19,5.19,0,0,0,.9,1.76,1.55,1.55,0,0,0,1.17.66c.45,0,.86-.34,1.21-1a10.07,10.07,0,0,0,.84-2.76,23.44,23.44,0,0,0,.3-3.93c0-.84,0-1.7-.11-2.58s-.19-1.79-.35-2.7a6.36,6.36,0,0,0-2.18,1.81,9.83,9.83,0,0,0-1.54,2.89A10.38,10.38,0,0,0,194.42,198.76Z" class="cls-2"/><path data-cppathid="10009" d="M213.62,206.12A.8.8,0,0,1,213,206a.84.84,0,0,1-.26-.66c0-.36.23-.58.69-.67a7.74,7.74,0,0,0,4.47-2.72l-2.21-.69c-.38-.13-.57-.33-.57-.59a.84.84,0,0,1,.13-.39l.07-.12a.85.85,0,0,1,.71-.45.91.91,0,0,1,.37.08l2.51.78a16.79,16.79,0,0,0,1-2.08h-3a.86.86,0,0,1-.55.17h-1.52a.72.72,0,0,1-.81-.81v-8.38a.72.72,0,0,1,.81-.81h1.52a.79.79,0,0,1,.64.25h4.77c0-.59,0-1.19.05-1.79V187h-9c-.54,0-.81-.25-.81-.74s.27-.74.81-.74h19.47c.54,0,.81.25.81.74s-.27.74-.81.74h-7.39a3.78,3.78,0,0,1,0,.51c0,.48,0,.94,0,1.38h5.77a.72.72,0,0,1,.81.81v8.13a.72.72,0,0,1-.81.81h-1.52a.81.81,0,0,1-.54-.17H223a15.85,15.85,0,0,1-1.55,2.89l11.08,3.42c.38.13.56.33.56.59a.93.93,0,0,1-.12.39l-.07.12a.86.86,0,0,1-.71.45,1,1,0,0,1-.37-.08l-11.47-3.53A11.26,11.26,0,0,1,213.62,206.12Zm3.57-13h4.15c.13-.88.23-1.82.32-2.8h-4.47Zm0,3.83h3.24a18.87,18.87,0,0,0,.61-2.36h-3.85Zm6.38,0h4.77V194.6h-4.16C224,195.44,223.8,196.23,223.57,197Zm4.77-6.63H224.8c-.08,1-.2,1.92-.34,2.8h3.88Z" class="cls-2"/><path data-cppathid="10010" d="M238.9,205.41a.89.89,0,0,1-.72.37,1.61,1.61,0,0,1-.39-.07l-.88-.35c-.35-.15-.52-.35-.52-.61a.71.71,0,0,1,.2-.49l3.56-4.47H237c-.54,0-.81-.25-.81-.74s.27-.74.81-.74h3.83v-1.94H237c-.54,0-.81-.24-.81-.73s.27-.74.81-.74h1.15v0l-.27-5.45v-.12h-.32c-.54,0-.81-.25-.81-.74s.27-.73.81-.73h3.07v-2.46a.72.72,0,0,1,.81-.81h1.52a.72.72,0,0,1,.81.81v2.46h2.83c.54,0,.81.24.81.73a.73.73,0,0,1-.2.54.69.69,0,0,1-.51.2.79.79,0,0,1,0,.22l-.86,5.38h.69c.54,0,.81.25.81.74s-.27.73-.81.73h-2.56v1.94h2.14c.54,0,.81.25.81.74s-.27.74-.81.74h-2.14l2.63,2a.72.72,0,0,1,.34.54c0,.21-.14.41-.44.58l-.49.3a.92.92,0,0,1-.52.17.89.89,0,0,1-.61-.24l-.91-.72v3.37a.72.72,0,0,1-.81.81H241.6a.72.72,0,0,1-.81-.81v-2.78Zm2.35-10.63v.12h1.45a.79.79,0,0,1,0-.22l.86-5.38H241v0Zm8.94,10.63a.73.73,0,0,1-.86.79l-1.52,0a.71.71,0,0,1-.76-.84l.81-15a1,1,0,0,1,.17-.51.77.77,0,0,1,0-.15.66.66,0,0,1,.42-.57l7.73-4.27a.86.86,0,0,1,1.11.12l.22.2a.82.82,0,0,1,.32.56.66.66,0,0,1-.42.57l-6.53,3.61a.71.71,0,0,1,.14.54l-.12,2.26h6.34c.54,0,.81.24.81.74s-.27.73-.81.73h-1v11.59a.72.72,0,0,1-.81.82h-1.52a.72.72,0,0,1-.81-.82V194.16h-2.31Z" class="cls-2"/><path data-cppathid="10011" d="M1012.58,73.8a12.38,12.38,0,0,1-12.38,12.38H621.69A12.38,12.38,0,0,1,609.31,73.8V12.38A12.38,12.38,0,0,1,621.69,0H1000.2a12.38,12.38,0,0,1,12.38,12.38Z" class="cls-1"/><path data-cppathid="10012" d="M714.89,47.25a1,1,0,0,1-.51.15.88.88,0,0,1-.62-.25l-.24-.19a.82.82,0,0,1-.35-.57c0-.19.14-.38.42-.56l17.24-10a1.06,1.06,0,0,1,.51-.15A.91.91,0,0,1,732,36l.24.2a.82.82,0,0,1,.35.57c0,.19-.14.38-.42.56l-6.83,4a.75.75,0,0,1,.2.56V52.85a.72.72,0,0,1-.81.81h-1.52a.72.72,0,0,1-.81-.81V42.93Z" class="cls-2"/><path data-cppathid="10013" d="M754.92,51.4a.73.73,0,0,1,.2.49c0,.27-.18.46-.52.59l-.93.32a1.25,1.25,0,0,1-.4.07.83.83,0,0,1-.68-.39L743.75,41l-6,10.05a.91.91,0,0,1-.76.46h-.15l-.15,0-1.1-.3c-.38-.1-.57-.29-.57-.59a.92.92,0,0,1,.15-.47l7.69-12.86a.61.61,0,0,1,.54-.4.77.77,0,0,1,.59.35ZM752.54,42a1.65,1.65,0,0,1,0,.27.63.63,0,0,1-.66.68l-.71.1a.74.74,0,0,1-.94-.64L749,37.26a1,1,0,0,1,0-.27c0-.41.22-.64.67-.69l.71-.1a.76.76,0,0,1,1,.64Zm2.7-1.5a1.65,1.65,0,0,1,0,.27c0,.38-.21.6-.64.69l-.71.12a.76.76,0,0,1-1-.64l-1.25-4.81a.8.8,0,0,1,0-.15.77.77,0,0,1,0-.15c0-.36.22-.58.67-.66l.71-.12a.75.75,0,0,1,1,.64Z" class="cls-2"/><path data-cppathid="10014" d="M767.08,39.83c.27.19.41.37.41.57a.72.72,0,0,1-.34.56l-.3.25a.94.94,0,0,1-.58.22,1,1,0,0,1-.55-.17l-6.5-3.95q-.42-.27-.42-.57a.72.72,0,0,1,.34-.56l.3-.25a.94.94,0,0,1,.59-.22,1,1,0,0,1,.54.17ZM775,42.49a1,1,0,0,1,.56-.17,1,1,0,0,1,.57.19l.32.25a.77.77,0,0,1,.34.56.71.71,0,0,1-.39.57L762,53a1,1,0,0,1-.57.18,1,1,0,0,1-.56-.2l-.32-.25a.75.75,0,0,1-.35-.56.72.72,0,0,1,.4-.57Z" class="cls-2"/><path data-cppathid="10015" d="M785.66,53.07a.72.72,0,0,1-.81.81h-1.52a.72.72,0,0,1-.81-.81V36a.72.72,0,0,1,.81-.81h1.52a.72.72,0,0,1,.81.81v7l8.89,2.87c.38.13.57.33.57.59a.77.77,0,0,1-.15.42l-.1.12a.81.81,0,0,1-.71.42H794l-.18,0-8.16-2.63Z" class="cls-2"/><path data-cppathid="10016" d="M803.27,53.27a.81.81,0,0,1-.76.56h-.12l-.12,0L801,53.54c-.41-.08-.61-.29-.61-.62a1.24,1.24,0,0,1,.07-.39l5.46-12.82h-6c-.54,0-.81-.24-.81-.73s.27-.74.81-.74h6.66l1-2.48a.82.82,0,0,1,.77-.57h.12a.21.21,0,0,1,.12,0l1.3.27c.41.08.62.29.62.61a1.18,1.18,0,0,1-.08.39l-.73,1.75h8.64c.51,0,.76.21.76.64a.53.53,0,0,1,0,.13,1,1,0,0,1,0,.14l-3.46,13.9a.75.75,0,0,1-1,.64l-4.93-.82c-.45-.08-.67-.28-.67-.61a.51.51,0,0,1,0-.13.89.89,0,0,1,0-.14l0-.05a.78.78,0,0,1,.76-.59h.11a.2.2,0,0,1,.11,0l2.65.46,3-12.13H809Z" class="cls-2"/><path data-cppathid="10017" d="M839.35,44.92a.89.89,0,0,1,.44-.1.92.92,0,0,1,.66.3l.12.12a.78.78,0,0,1,.27.54.67.67,0,0,1-.46.59l-15.65,7.17a.94.94,0,0,1-.39.1c-.37,0-.56-.24-.56-.72V36.18a.72.72,0,0,1,.81-.81h1.52a.72.72,0,0,1,.81.81V50.59Z" class="cls-2"/><path data-cppathid="10018" d="M851.62,39.83c.28.19.42.37.42.57a.72.72,0,0,1-.34.56l-.3.25a.94.94,0,0,1-.59.22,1,1,0,0,1-.54-.17l-6.5-3.95q-.42-.27-.42-.57a.72.72,0,0,1,.34-.56l.3-.25a.94.94,0,0,1,.59-.22,1,1,0,0,1,.54.17Zm7.94,2.66a1,1,0,0,1,.56-.17,1,1,0,0,1,.57.19l.32.25a.77.77,0,0,1,.34.56.71.71,0,0,1-.39.57L846.52,53a1,1,0,0,1-.57.18,1,1,0,0,1-.56-.2l-.32-.25a.75.75,0,0,1-.35-.56.7.7,0,0,1,.4-.57Z" class="cls-2"/><path data-cppathid="10019" d="M867.54,45.31a.78.78,0,0,1-.69.47h-.17l-.17,0-1.16-.3c-.38-.09-.56-.3-.56-.61a1,1,0,0,1,.12-.44l5.48-9.68a.74.74,0,0,1,.68-.46h.18l.17,0,1.15.3c.38.1.57.3.57.61a.94.94,0,0,1-.13.45l0,0h10.39c.47,0,.71.18.71.54a1,1,0,0,1-.15.44l-9.38,16.25a.85.85,0,0,1-.74.47h-.14l-.17,0-1.11-.29c-.39-.1-.59-.31-.59-.62A.89.89,0,0,1,872,52l3.73-6.46-.05,0L871,42.71a.66.66,0,0,1-.42-.57.75.75,0,0,1,.35-.56l.29-.25a.91.91,0,0,1,.62-.24.89.89,0,0,1,.51.17l4.35,2.6,3.88-6.7h-8.38Zm17-9.59a.53.53,0,0,1,0,.2c0,.31-.23.48-.67.52l-.71.08c-.51.06-.82-.1-.93-.49L881,32.13a.53.53,0,0,1,0-.2c0-.31.22-.48.66-.52l.71-.07c.53-.07.84.1,1,.48Zm2.7-1.14a.58.58,0,0,1,0,.21c0,.28-.22.46-.64.52l-.71.09q-.79.09-1-.48l-1.25-3.64a.49.49,0,0,1,0-.11.41.41,0,0,1,0-.11c0-.27.22-.44.66-.5l.71-.1c.53-.06.85.1,1,.49Z" class="cls-2"/><path data-cppathid="10020" d="M904.72,43.52c.54,0,.81.24.81.74s-.27.73-.81.73H888.17c-.55,0-.82-.24-.82-.73s.27-.74.82-.74Z" class="cls-2"/><path data-cppathid="10021" d="M710.54,306a12.37,12.37,0,0,1-12.38,12.37H319.65A12.37,12.37,0,0,1,307.27,306V244.6a12.38,12.38,0,0,1,12.38-12.38H698.16a12.38,12.38,0,0,1,12.38,12.38Z" class="cls-1"/><path data-cppathid="10022" d="M460,268.37v.08h8.18c.54,0,.81.24.81.73s-.27.74-.81.74h-19.5c-.54,0-.81-.25-.81-.74s.27-.73.81-.73h8.18v-2.93a.72.72,0,0,1,.81-.81h1.52a.72.72,0,0,1,.81.81Zm0,17.44a.72.72,0,0,1-.81.81h-1.52a.72.72,0,0,1-.81-.81v-2.56h-8.18c-.54,0-.81-.24-.81-.73s.27-.74.81-.74h8.18v-2a.72.72,0,0,1,.81-.81h1.52a.72.72,0,0,1,.81.81v2h8.18c.54,0,.81.25.81.74s-.27.73-.81.73H460Zm-9.21-6.07a.91.91,0,0,1-.74.47h-.14l-.17,0-1.11-.32c-.38-.13-.56-.33-.56-.61a.88.88,0,0,1,.14-.47l4.91-8.1a.92.92,0,0,1,.74-.47H454l.17,0,1.11.32c.37.13.56.33.56.61a1,1,0,0,1-.15.47l-1.57,2.6,0,0,3.24,3a.7.7,0,0,1,.29.54c0,.23-.15.41-.44.56l-.61.32a1,1,0,0,1-.49.15.88.88,0,0,1-.64-.3l-2.56-2.38Zm11-1.45a.87.87,0,0,1-.76.45,1.57,1.57,0,0,1-.32-.05l-1.05-.32c-.38-.13-.57-.33-.57-.59a.59.59,0,0,1,0-.23,1.34,1.34,0,0,1,.12-.24l4.37-6.68a.91.91,0,0,1,.77-.44,1.68,1.68,0,0,1,.32.05l1.05.32c.38.13.57.33.57.59a.68.68,0,0,1-.05.22l-.13.25-1.67,2.55a.72.72,0,0,1,.23.2l3.88,4.37a.72.72,0,0,1,.24.51c0,.26-.16.46-.49.59l-.81.35a1,1,0,0,1-.44.09.82.82,0,0,1-.67-.34l-3.29-3.71Z" class="cls-2"/><path data-cppathid="10023" d="M484.51,286a.72.72,0,0,1-.81.81h-1.53a.72.72,0,0,1-.81-.81v-2.58L475,286.05a.87.87,0,0,1-.42.1.92.92,0,0,1-.69-.37l-.07-.09a.83.83,0,0,1-.22-.52c0-.26.16-.46.49-.59l4.67-1.91h-5.55c-.54,0-.81-.25-.81-.74s.27-.74.81-.74h8.17v-1.25h-7.22c-.54,0-.81-.25-.81-.74s.27-.73.81-.73h7.22v-1.13h-7.93c-.54,0-.81-.25-.81-.74s.27-.74.81-.74h4l-.59-3.61a1.09,1.09,0,0,1,0-.22h-3.66c-.54,0-.81-.24-.81-.73s.27-.74.81-.74h5.72v-4.84a.72.72,0,0,1,.81-.81h1.52a.72.72,0,0,1,.81.81v4.84h1.89v-4.84a.72.72,0,0,1,.81-.81h1.53a.72.72,0,0,1,.81.81v4.84H493c.54,0,.81.24.81.74s-.27.73-.81.73H489v0a.78.78,0,0,1,0,.24l-.83,3.56h4.15c.54,0,.81.25.81.74s-.27.74-.81.74h-7.81v1.13h7.19c.54,0,.81.24.81.73s-.27.74-.81.74h-7.19v1.25h8.17c.55,0,.82.25.82.74s-.27.74-.82.74h-5.74l5,1.94c.36.14.54.34.54.59a.75.75,0,0,1-.19.44l-.13.14a.86.86,0,0,1-.71.37,1.24,1.24,0,0,1-.39-.07l-6.53-2.58Zm-6.95-17a1.69,1.69,0,0,1,0,.25q0,.58-.69.66l-1.47.15a.76.76,0,0,1-.93-.67l-.69-3.14a.22.22,0,0,1,0-.12V266c0-.4.23-.62.71-.67l1.47-.15a.77.77,0,0,1,.93.69Zm2.94,6.63a.61.61,0,0,1,0,.22h4.54v0a.9.9,0,0,1,0-.25l.83-3.56h-6Zm11.35-6.26a.76.76,0,0,1-.91.69l-1.47-.15a.68.68,0,0,1-.69-.91l.59-2.9a.76.76,0,0,1,.91-.68l1.47.14a.68.68,0,0,1,.69.91Z" class="cls-2"/><path data-cppathid="10024" d="M499.34,276.35a.8.8,0,0,1-.76.54h-.12a.27.27,0,0,1-.13,0l-1.22-.25c-.41-.09-.62-.31-.62-.66a1.16,1.16,0,0,1,.07-.37l4.3-9.38a.81.81,0,0,1,.76-.54h.13a.21.21,0,0,1,.12,0l1.23.24c.41.1.61.3.61.62a.86.86,0,0,1-.1.41l-1.32,2.93h4.34v-4.33a.72.72,0,0,1,.81-.81H509a.72.72,0,0,1,.81.81v4.33h6.68c.54,0,.81.24.81.73s-.27.74-.81.74h-6.68v6.16h5.69c.54,0,.81.25.81.74s-.27.74-.81.74h-5.69v5.33h7.41c.54,0,.81.24.81.73s-.27.74-.81.74h-19.5c-.54,0-.81-.25-.81-.74s.27-.73.81-.73h8.94V279h-6.58c-.54,0-.81-.25-.81-.74s.27-.74.81-.74h6.58v-6.16h-5Z" class="cls-2"/><path data-cppathid="10025" d="M530.09,269.43c.54,0,.81.24.81.74s-.27.73-.81.73H522.6c-.54,0-.81-.24-.81-.73s.27-.74.81-.74Zm.63,15.94a.72.72,0,0,1-.81.81h-1.52a.74.74,0,0,1-.71-.37h-2.55a.72.72,0,0,1-.82.69h-1.52a.72.72,0,0,1-.81-.81v-5.26a.72.72,0,0,1,.81-.81h1.52a.75.75,0,0,1,.69.32h4.91a.72.72,0,0,1,.81.81Zm-1-12.33c.54,0,.81.24.81.74s-.27.73-.81.73h-6.78c-.54,0-.81-.24-.81-.73s.27-.74.81-.74Zm-.08,3.68c.54,0,.81.25.81.74s-.27.74-.81.74h-6.58c-.54,0-.81-.25-.81-.74s.27-.74.81-.74Zm-.46-9.65c.34.15.51.35.51.59a.77.77,0,0,1-.19.47l-.13.15a.91.91,0,0,1-.68.36.87.87,0,0,1-.42-.1l-4.69-1.93c-.35-.15-.52-.35-.52-.59a.77.77,0,0,1,.2-.47l.12-.15a.93.93,0,0,1,.69-.37,1,1,0,0,1,.42.1Zm-1.6,14.34h-2.45v2.93h2.45Zm12.25,1.4a.72.72,0,0,1,.81-.81h1.53a.72.72,0,0,1,.81.81V285a.72.72,0,0,1-.81.81h-9.24a.72.72,0,0,1-.81-.81V274.88a.72.72,0,0,1,.81-.81h1.53a.74.74,0,0,1,.68.32H539v-6.51h-7.29c-.54,0-.81-.24-.81-.73s.27-.74.81-.74h9.63a.72.72,0,0,1,.81.81v8.1a.72.72,0,0,1-.81.81h-1.52a.73.73,0,0,1-.64-.27h-3.88v8.48h4.56Z" class="cls-2"/><path data-cppathid="10026" d="M554.32,283.53a.78.78,0,0,1,.81.34,1.06,1.06,0,0,1,.13-.27l2-3.22a.9.9,0,0,1,.77-.44,1.68,1.68,0,0,1,.32.05l1,.32c.38.13.57.33.57.59a.68.68,0,0,1,0,.22c0,.08-.08.16-.13.24l-2,3.22a.87.87,0,0,1-.76.44,1,1,0,0,1-.32,0l-1.06-.31a1.19,1.19,0,0,1-.39-.2q-.06.46-.69.54l-6.41.74a.8.8,0,0,1-.93-.67.5.5,0,0,1,0-.19c0-.35.24-.56.71-.64l1.77-.2v-5.6h-1.91c-.54,0-.81-.24-.81-.74s.27-.73.81-.73h1.91v-2.58a1.08,1.08,0,0,1,.08-.42h-.4a.76.76,0,0,1-.61-.22l-.37.71a.82.82,0,0,1-.76.52l-.27-.05-1.2-.29c-.38-.1-.57-.31-.57-.62a.9.9,0,0,1,.1-.42l4.3-8.44a.82.82,0,0,1,.76-.52l.27.05,1.2.29c.38.1.57.31.57.62v0a1.38,1.38,0,0,1,.32.35l3.41,5.65a.86.86,0,0,1,.15.46c0,.31-.19.52-.57.62L555,273a1.52,1.52,0,0,1,0,.23c0,.49-.27.73-.81.73h-1.47a.93.93,0,0,1,.1.42V277h1.89c.54,0,.81.24.81.73s-.27.74-.81.74h-1.89v5.26Zm-4.93-.64c0,.52-.19.8-.57.83l-1.08,0c-.37,0-.57-.22-.59-.76l-.12-3c0-.52.15-.8.54-.83l1.08-.05c.38,0,.57.22.59.76Zm0-10.39h4.49l-2.45-4Zm5.94,10.14c-.08.52-.29.76-.61.71l-1-.12c-.41-.05-.57-.35-.49-.91l.3-2.53c.08-.52.28-.76.61-.71l1,.12c.39.05.55.36.46.91Zm4.22-4.79a.94.94,0,0,1,.13.44c0,.32-.19.52-.57.62l-1.15.29-.15,0h-.15a.81.81,0,0,1-.73-.49l-1.45-2.58a1,1,0,0,1-.12-.44c0-.31.18-.52.56-.61l1.15-.3.15,0h.15a.85.85,0,0,1,.74.49Zm-.95,8.2c-.49,0-.74-.25-.74-.61a.86.86,0,0,1,.26-.67.8.8,0,0,1,.67-.19l1.21.12V274.37h-3.76c-.54,0-.81-.25-.81-.74s.27-.74.81-.74h7.12v-2.18h-6.61c-.54,0-.81-.25-.81-.74s.27-.74.81-.74h6.61v-2.18h-7c-.54,0-.81-.25-.81-.74s.27-.74.81-.74h9.35a.72.72,0,0,1,.81.81v6.51h0c.54,0,.81.25.81.74s-.27.74-.81.74h-3.41v3.48l1.35-2.31a.86.86,0,0,1,.74-.46h.14l.18,0,1.1.29c.38.1.57.3.57.59a1,1,0,0,1-.15.47l-1.89,3.21a.85.85,0,0,1-.74.47h-.15l-.17,0-.69-.17,3.61,3.88a.72.72,0,0,1,.25.54c0,.25-.16.44-.49.59l-.76.32a.88.88,0,0,1-1.11-.25l-1.79-1.94v2.58c0,.56-.29.81-.86.76Z" class="cls-2"/><path data-cppathid="10027" d="M1036.34,237.45A12.38,12.38,0,0,1,1024,249.83H645.45a12.38,12.38,0,0,1-12.39-12.38V176a12.38,12.38,0,0,1,12.39-12.38H1024A12.38,12.38,0,0,1,1036.34,176Z" class="cls-1"/><path data-cppathid="10028" d="M774.82,217.46a1.24,1.24,0,0,1-.39.07.87.87,0,0,1-.72-.44l0-.05a1,1,0,0,1-.15-.47c0-.28.19-.48.57-.61a23.17,23.17,0,0,0,6.53-3.05h-6.19c-.54,0-.81-.24-.81-.73s.27-.74.81-.74H782a3,3,0,0,0,.34-.83.85.85,0,0,1,.86-.74h1.53l.41,0a.65.65,0,0,1-.1-.34.72.72,0,0,1,.86-.81l4,.17V205.3h-8.37c-.54,0-.81-.24-.81-.74s.27-.73.81-.73h8.37a.72.72,0,0,1,.81-.71h1.52a.86.86,0,0,1,.61.19.72.72,0,0,1,.2.52h1.18c.54,0,.81.24.81.73s-.27.74-.81.74h-1.18v4.4a.82.82,0,0,1-.22.61.76.76,0,0,1-.61.2l-6.43-.3-.25,0v0a3.85,3.85,0,0,1-.37,1.23H794c.54,0,.81.25.81.74s-.27.73-.81.73h-8l8.4,3.05c.36.13.54.33.54.59a.67.67,0,0,1-.17.44l-.1.15a.85.85,0,0,1-.69.39.43.43,0,0,1-.19,0l-.22-.06-10.42-3.78A29.21,29.21,0,0,1,774.82,217.46Zm5.13-8.13a.72.72,0,0,1-.81.81h-1.52a.72.72,0,0,1-.81-.81v-1.72l-1.52.71a1,1,0,0,1-.45.1.92.92,0,0,1-.66-.3l-.12-.12a.78.78,0,0,1-.27-.54.67.67,0,0,1,.46-.59l2.53-1.18h0v-4l-2.43-1.43c-.28-.18-.42-.37-.42-.56a.8.8,0,0,1,.34-.57l.25-.2a1,1,0,0,1,.64-.24,1,1,0,0,1,.49.15l1.13.66v-1.77a.72.72,0,0,1,.81-.81h1.52a.72.72,0,0,1,.81.81Zm2.26-10.27a.86.86,0,0,1-.64-.19.83.83,0,0,1-.24-.64c0-.39.24-.62.73-.66l11.13-.84a.74.74,0,0,1,.66.2.9.9,0,0,1,.25.66c0,.38-.25.59-.74.64Zm2.87,2.85a1,1,0,0,1,0,.27c0,.41-.23.64-.68.69l-1.38.17a.8.8,0,0,1-1-.61l-.61-2.14a.83.83,0,0,1,0-.15.66.66,0,0,1,0-.14c0-.4.22-.62.66-.67l1.4-.17a.8.8,0,0,1,1,.62Zm2.14,5.11c.33.15.49.34.49.59a.71.71,0,0,1-.24.49l-.18.17a.88.88,0,0,1-.66.3,1.05,1.05,0,0,1-.44-.1l-3.05-1.4c-.32-.15-.49-.34-.49-.59a.69.69,0,0,1,.25-.49l.17-.17a.92.92,0,0,1,.66-.3,1,1,0,0,1,.45.1Zm1.72-5.26a.94.94,0,0,1,0,.25c0,.41-.23.64-.68.69l-1.43.17a.79.79,0,0,1-.93-.66l-.49-2a.4.4,0,0,1,0-.15v-.12c0-.39.22-.62.67-.66l1.42-.18a.8.8,0,0,1,.93.67Zm3.9.27a.79.79,0,0,1-1,.62l-1.4-.22c-.45-.05-.67-.27-.67-.67a1.58,1.58,0,0,1,0-.29l.67-2.23a.79.79,0,0,1,1-.62l1.4.22c.45,0,.67.27.67.67a1.58,1.58,0,0,1,0,.29Z" class="cls-2"/><path data-cppathid="10029" d="M804.46,217.41c-.43-.1-.64-.31-.64-.62a.82.82,0,0,1,.07-.29l0-.05a.76.76,0,0,1,.74-.54l.27,0,2,.42V212.2H799.2c-.54,0-.81-.24-.81-.74s.27-.73.81-.73h7.74v-.1a1.38,1.38,0,0,1,.42-1l3.29-3.09H803.4c-.54,0-.81-.25-.81-.74s.27-.73.81-.73h10.66c.46,0,.69.15.69.46a.79.79,0,0,1-.3.54l-4.37,4.13v.54h8.18c.54,0,.81.24.81.73s-.27.74-.81.74h-8.18v5.45c0,.51-.22.76-.66.76a.65.65,0,0,1-.22,0ZM798.71,202a.72.72,0,0,1,.81-.81h1.06l-1-3.14a.83.83,0,0,1,0-.15c0-.05,0-.09,0-.14,0-.4.22-.62.67-.67l1.4-.19a.75.75,0,0,1,1,.59l1,3.41a.83.83,0,0,1,0,.15.71.71,0,0,1,0,.14.56.56,0,0,1,0,.2h3.78L806.5,198a.83.83,0,0,1,0-.15.76.76,0,0,1,0-.15q0-.59.66-.66l1.43-.17a.76.76,0,0,1,1,.64l1,3.46a.83.83,0,0,1,0,.15.66.66,0,0,1,0,.14.77.77,0,0,1,0,.15h2.89v-.12a1.18,1.18,0,0,1,.08-.39l1.42-3.49a.78.78,0,0,1,1-.57l1.31.25c.4.08.61.29.61.61a1.61,1.61,0,0,1-.07.4l-1.35,3.31H819c.51,0,.76.21.76.64a.53.53,0,0,1,0,.13.74.74,0,0,1,0,.14l-.73,2.95a.79.79,0,0,1-.94.66l-1.42-.17q-.69-.08-.69-.69a.9.9,0,0,1,0-.25l.49-1.94H801.86V205a.72.72,0,0,1-.81.81h-1.53a.72.72,0,0,1-.81-.81Z" class="cls-2"/><path data-cppathid="10030" d="M832.31,196.21a.84.84,0,0,1,.61-.27,1.38,1.38,0,0,1,.49.13l.67.32c.29.14.44.32.44.51l.24.17,9,7.89a.69.69,0,0,1,.3.54.75.75,0,0,1-.42.59l-.59.32a1.1,1.1,0,0,1-.52.14,1,1,0,0,1-.61-.27l-8.79-7.71-8.2,7.69a.86.86,0,0,1-.62.27,1.38,1.38,0,0,1-.49-.12l-.66-.32c-.3-.15-.44-.34-.44-.57A.79.79,0,0,1,823,205Zm2.21,19.21a1.16,1.16,0,0,1,0,.34h6.09c.54,0,.81.25.81.74s-.27.74-.81.74H825.33c-.54,0-.81-.25-.81-.74s.27-.74.81-.74h6.09a1.16,1.16,0,0,1,0-.34v-5.55h-6.6c-.54,0-.81-.25-.81-.74s.27-.73.81-.73h6.6v-2.58a1,1,0,0,1,.08-.42h-3.34c-.54,0-.81-.25-.81-.74s.27-.73.81-.73h9.67c.54,0,.81.24.81.73s-.27.74-.81.74h-3.36a.87.87,0,0,1,.1.42v2.58h6.6c.54,0,.81.24.81.73s-.27.74-.81.74h-6.6Zm-4.5-1.28a1.09,1.09,0,0,1,.05.32c0,.38-.22.59-.66.64l-1.38.2h-.19a.73.73,0,0,1-.76-.61l-1-3a1.52,1.52,0,0,1,0-.32c0-.38.22-.59.66-.64l1.37-.2h.2a.73.73,0,0,1,.76.61Zm9.33.52a.76.76,0,0,1-1,.61l-1.38-.22c-.44-.05-.66-.26-.66-.64a1.57,1.57,0,0,1,0-.32l1-3.09a.77.77,0,0,1,1-.62l1.38.23c.44,0,.66.26.66.63a1.48,1.48,0,0,1,0,.32Z" class="cls-2"/><path data-cppathid="10031" d="M848.71,217.55c-.47-.08-.71-.28-.71-.61a1.09,1.09,0,0,1,0-.22c.13-.51.36-.74.67-.69l.49.08v-3.69l-.1.08a1,1,0,0,1-.56.19,1.1,1.1,0,0,1-.57-.19l-.39-.27a.73.73,0,0,1-.37-.57.67.67,0,0,1,.37-.56l1.62-1.13V203.8h-1.3c-.54,0-.81-.24-.81-.73s.27-.74.81-.74h1.3V197a.72.72,0,0,1,.81-.82h1.52a.72.72,0,0,1,.81.82v5.3h1c.54,0,.81.25.81.74s-.27.73-.81.73h-1v4a.86.86,0,0,1,.52-.18.82.82,0,0,1,.56.2l.39.27a.67.67,0,0,1,.37.56.73.73,0,0,1-.37.57l-1.47,1v6.85c0,.59-.29.85-.86.76ZM855.29,199a.92.92,0,0,1-.66-.18.78.78,0,0,1-.27-.65c0-.38.24-.59.74-.64l12.18-1a.83.83,0,0,1,.67.18.81.81,0,0,1,.26.66c0,.38-.25.59-.74.64Zm2.48,7.37a.72.72,0,0,1-.81.81h-1.52a.72.72,0,0,1-.81-.81v-2.24a.72.72,0,0,1,.81-.81h.66l-.66-2.68a.82.82,0,0,1,0-.24c0-.41.22-.64.68-.69l1.43-.17a.79.79,0,0,1,.93.66l.66,2.7a.9.9,0,0,1,0,.25.73.73,0,0,1,0,.22h.72a.72.72,0,0,1-.08-.22l-.56-2.9a.5.5,0,0,1,0-.19c0-.43.25-.67.74-.72l1.47-.14a.76.76,0,0,1,.91.68l.54,2.9a.61.61,0,0,1,0,.22.7.7,0,0,1-.1.37h.32v-.07a.76.76,0,0,1,0-.15,1.36,1.36,0,0,1,0-.17l1-3.39a.78.78,0,0,1,1-.62l1.4.23c.43.05.64.26.64.63V200a.41.41,0,0,1,0,.17l-1,3.22h1.35c.59,0,.85.29.76.86l-.29,2.09a.75.75,0,0,1-.88.71l-1.48-.1c-.57,0-.82-.33-.73-.88l.17-1.21h-7.25Zm-1.4,11.12-.14,0h-.15a.73.73,0,0,1-.71-.59c0-.07,0-.12,0-.17a.76.76,0,0,1,0-.15c0-.31.19-.52.59-.64a13.41,13.41,0,0,0,2.11-.92,11.37,11.37,0,0,0,2.28-1.58l-3.09-2.11a.75.75,0,0,1-.39-.59.67.67,0,0,1,.36-.54l.4-.27a.94.94,0,0,1,.56-.2.84.84,0,0,1,.57.2l3,2.06a6.83,6.83,0,0,0,.86-1.41A5.08,5.08,0,0,0,863,209h-6.31c-.54,0-.81-.24-.81-.73s.27-.74.81-.74h8.67a.83.83,0,0,1,.63.26,1.09,1.09,0,0,1,.21.77,5.66,5.66,0,0,1-.78,2.56,10.13,10.13,0,0,1-1.75,2.21l3.78,2.57a.75.75,0,0,1,.39.59.72.72,0,0,1-.37.54l-.39.27a.83.83,0,0,1-.56.2,1,1,0,0,1-.57-.2l-3.88-2.65a18.36,18.36,0,0,1-3,1.78A15.56,15.56,0,0,1,856.37,217.48Z" class="cls-2"/><path data-cppathid="10032" d="M878.11,215.69c-.43-.1-.64-.3-.64-.59a.71.71,0,0,1,.07-.32l0-.05a.81.81,0,0,1,.78-.54h.12l.13,0,6.55,1.45,1-4.32H872.48c-.54,0-.81-.24-.81-.73s.27-.74.81-.74h14l.61-2.68h-9.68c-.57,0-.83-.28-.78-.83l.83-9.29a.72.72,0,0,1,.86-.73l1.52.07a.71.71,0,0,1,.77.86l-.3,3.14h10.49c.54,0,.81.25.81.74s-.27.74-.81.74H880.22l-.35,3.83h9.83c.49,0,.73.21.73.64a.86.86,0,0,1,0,.24l-.76,3.27h3.24c.54,0,.81.24.81.74s-.27.73-.81.73H889.3L888,217a.71.71,0,0,1-.71.64h-.13a.21.21,0,0,1-.12,0Z" class="cls-2"/><path data-cppathid="10033" d="M325.2,342.43a9.85,9.85,0,0,1-9.86,9.85H14.09a9.85,9.85,0,0,1-9.85-9.85V293.54a9.85,9.85,0,0,1,9.85-9.85H315.34a9.85,9.85,0,0,1,9.86,9.85Z" class="cls-3"/><g class="cls-4"><path data-cppathid="10034" d="M134.81,326a.63.63,0,0,1-.8.45l-1-.19q-.51-.1-.51-.51a.68.68,0,0,1,.06-.29l2.6-6.85a.6.6,0,0,1-.37.1h-1.22a.57.57,0,0,1-.64-.64V310.8a.57.57,0,0,1,.64-.64h1.22a.67.67,0,0,1,.47.16h5.55a.56.56,0,0,1,.64.64v7a.56.56,0,0,1-.64.64h-1.22a.58.58,0,0,1-.5-.21h-1.41a.79.79,0,0,1-.06.29l-.53,1.41h3.64c.39,0,.58.16.58.49a.41.41,0,0,1,0,.11.5.5,0,0,1,0,.12l-1.49,5.3a.59.59,0,0,1-.61.49h-.07l-.1,0-2.33-.45c-.34-.07-.51-.23-.51-.49,0,0,0-.06,0-.1l0-.12,0,0A.64.64,0,0,1,137,325l.57.1,1.08-3.79h-2Zm4.09-14.46h-3.52v5.76h3.52Zm6,10.38a.57.57,0,0,1-.65.64h-1.21a.56.56,0,0,1-.64-.64v-9.72a.56.56,0,0,1,.64-.64h1.21a.57.57,0,0,1,.65.64Zm-.57,4.34c-.39,0-.58-.21-.58-.49a.67.67,0,0,1,.2-.54.7.7,0,0,1,.54-.15l1.84.18V310.3a.57.57,0,0,1,.64-.65h1.21a.58.58,0,0,1,.65.65v15.63c0,.46-.22.67-.67.63Z" class="cls-5"/><path data-cppathid="10035" d="M163.68,326.07a.63.63,0,0,1-.51.27.79.79,0,0,1-.37-.1l-.58-.27c-.25-.12-.37-.27-.37-.47a.9.9,0,0,1,.15-.41,6.16,6.16,0,0,0,.72-1.43,9.78,9.78,0,0,0,.49-1.79,10.27,10.27,0,0,0,.18-1.9,7.67,7.67,0,0,0-.88-3.91,3.85,3.85,0,0,0-2.48-1.89,26.69,26.69,0,0,1,.47,4.65,10.13,10.13,0,0,1-1.13,5.16,3.62,3.62,0,0,1-3.31,1.89,4.2,4.2,0,0,1-2.33-.64,4.36,4.36,0,0,1-1.54-1.77,5.91,5.91,0,0,1-.55-2.59,8.35,8.35,0,0,1,2.14-5.64,7.57,7.57,0,0,1,2.33-1.73,6.6,6.6,0,0,1,2.82-.62,7.66,7.66,0,0,1,3.72.85,5.77,5.77,0,0,1,2.4,2.44,8,8,0,0,1,.84,3.8A8.82,8.82,0,0,1,163.68,326.07Zm-9.54-5.2a6.43,6.43,0,0,0,.28,1.91,4,4,0,0,0,.71,1.39,1.22,1.22,0,0,0,.93.53c.36,0,.69-.27,1-.81a7.7,7.7,0,0,0,.66-2.2,18.38,18.38,0,0,0,.25-3.13c0-.66,0-1.34-.09-2.05s-.15-1.42-.28-2.15a5,5,0,0,0-1.73,1.45,7.79,7.79,0,0,0-1.24,2.3A8.46,8.46,0,0,0,154.14,320.87Z" class="cls-5"/><path data-cppathid="10036" d="M170.35,325.09a.68.68,0,0,1-.67.67h-1.17a.65.65,0,0,1-.47-.2.63.63,0,0,1-.19-.47V311.47A.6.6,0,0,1,168,311a.64.64,0,0,1,.42-.2c.46,0,.89-.08,1.3-.1l1.18,0q6.65,0,6.65,5.14a3.68,3.68,0,0,1-1.67,3.29,8.86,8.86,0,0,1-4.88,1.1h-.66Zm0-13.23v7.19c.28,0,.55,0,.8,0a6.86,6.86,0,0,0,2.33-.32,2.19,2.19,0,0,0,1.22-1,4.1,4.1,0,0,0,.36-1.86,6,6,0,0,0-.38-2.34,2.41,2.41,0,0,0-1.27-1.26,6.25,6.25,0,0,0-2.44-.39Z" class="cls-5"/><path data-cppathid="10037" d="M178.83,311.53a.63.63,0,0,1,.64-.69c.54,0,1-.08,1.52-.1l1.34,0a9.27,9.27,0,0,1,3.38.5,3.75,3.75,0,0,1,1.85,1.38,3.8,3.8,0,0,1,.57,2.08,3.45,3.45,0,0,1-.61,2.05,4.05,4.05,0,0,1-2.24,1.34c2.08.71,3.13,1.9,3.13,3.57a4.33,4.33,0,0,1-.6,2.32,3.75,3.75,0,0,1-1.94,1.48,10.16,10.16,0,0,1-3.6.52l-1.3,0c-.46,0-.95-.05-1.48-.1a.63.63,0,0,1-.66-.67Zm2.27.37v5.47a11.25,11.25,0,0,0,3-.36,3,3,0,0,0,1.57-.92,2.2,2.2,0,0,0,.48-1.42,3.3,3.3,0,0,0-.3-1.43,2.2,2.2,0,0,0-1.07-1,4.87,4.87,0,0,0-2.11-.37h-.73Zm0,12.88.62,0h.57a4.67,4.67,0,0,0,2.89-.77,2.85,2.85,0,0,0,1-2.4,2.49,2.49,0,0,0-1.15-2.24,8.17,8.17,0,0,0-3.93-.85Z" class="cls-5"/><path data-cppathid="10038" d="M193.1,324.51v.07h.84a.71.71,0,0,1,.47.17.56.56,0,0,1,0,.84.71.71,0,0,1-.47.17h-4.18a.7.7,0,0,1-.47-.17.54.54,0,0,1,0-.84.7.7,0,0,1,.47-.17h.84v-12.5h-.84a.7.7,0,0,1-.47-.17.54.54,0,0,1,0-.84.7.7,0,0,1,.47-.17h4.18a.71.71,0,0,1,.47.17.56.56,0,0,1,0,.84.71.71,0,0,1-.47.17h-.84v12.43Z" class="cls-5"/></g><rect data-cppathid="10039" rx="7.28" height="50.68" width="237.14" y="301.3" x="633.06" class="cls-6"/><g class="cls-7"><path data-cppathid="10040" d="M746.21,324.85a.44.44,0,0,1-.56.38l-.84-.1c-.27,0-.4-.17-.4-.41a.8.8,0,0,1,0-.16l1-3.58a.44.44,0,0,1,.56-.37l.84.1c.27,0,.4.16.4.4a.8.8,0,0,1,0,.16l-.27,1h3.13c.32,0,.48.15.48.43s-.16.44-.48.44h-1l.23,1.21a.39.39,0,0,1,0,.13c0,.24-.14.38-.42.41L748,325a.44.44,0,0,1-.53-.4l-.26-1.36a.14.14,0,0,1,0-.07h-.52Zm4.44,8.36c-.3,0-.45-.15-.45-.4s.17-.48.5-.46l2.07.1V330h-7.86c-.31,0-.47-.14-.47-.43s.16-.43.47-.43h7.86v-.86h-7.89c-.31,0-.47-.14-.47-.43s.16-.43.47-.43H750a.66.66,0,0,1,0-.15v-.86h-4c-.32,0-.48-.15-.48-.44s.16-.43.48-.43h4v0a.42.42,0,0,1,.47-.48h.9a.42.42,0,0,1,.48.48v0h4c.31,0,.47.15.47.43s-.16.44-.47.44h-4v.86a.61.61,0,0,1,0,.15h5.06c.31,0,.47.14.47.43s-.16.43-.47.43h-2.21v.86h2.11c.31,0,.47.14.47.43s-.16.43-.47.43h-2.11v2.95a.41.41,0,0,1-.49.46Zm-.51-2.15c.23.06.35.18.35.35a.37.37,0,0,1-.06.21l0,.06a.49.49,0,0,1-.43.28h-.09l-.1,0-2.93-.81c-.23-.06-.35-.17-.35-.35a.39.39,0,0,1,.06-.21l0-.06a.51.51,0,0,1,.43-.28h.09l.1,0Zm2-6.9a.46.46,0,0,1-.58.33l-.77-.14q-.36-.08-.36-.36a.79.79,0,0,1,0-.24l1.15-2.81a.46.46,0,0,1,.58-.33l.77.14q.36.08.36.36a.68.68,0,0,1-.05.23l-.39.94h3.61c.32,0,.48.15.48.43s-.16.44-.48.44h-.7a.58.58,0,0,1-.05.2l-.55,1.52a.47.47,0,0,1-.57.34l-.78-.13c-.26-.05-.39-.17-.39-.37a.45.45,0,0,1,0-.2l.49-1.36h-1.44Z" class="cls-8"/></g><rect data-cppathid="10041" rx="5.07" height="35.3" width="165.16" y="274.36" x="844.6" class="cls-9"/><g class="cls-10"><path data-cppathid="10042" d="M923.4,290.76a.3.3,0,0,1-.39.26l-.58-.07c-.19,0-.28-.11-.28-.28a.28.28,0,0,1,0-.11l.68-2.49a.31.31,0,0,1,.39-.27l.59.07a.28.28,0,0,1,.28.29s0,0,0,.11l-.19.7h2.18q.33,0,.33.3t-.33.3h-.71l.17.85s0,.05,0,.09-.1.26-.3.28l-.6.06a.3.3,0,0,1-.37-.28l-.18-.95a.07.07,0,0,1,0-.05h-.37Zm3.09,5.82c-.21,0-.31-.1-.31-.28s.12-.33.35-.32l1.44.07v-1.71H922.5q-.33,0-.33-.3t.33-.3H928v-.6h-5.49q-.33,0-.33-.3t.33-.3H926a.31.31,0,0,1,0-.1v-.6h-2.79c-.22,0-.33-.1-.33-.31s.11-.3.33-.3H926v0a.29.29,0,0,1,.33-.33H927a.3.3,0,0,1,.34.33v0h2.78q.33,0,.33.3c0,.21-.11.31-.33.31h-2.78v.6s0,.07,0,.1h3.52q.33,0,.33.3t-.33.3h-1.54v.6h1.46c.23,0,.34.1.34.3s-.11.3-.34.3h-1.46v2.05a.28.28,0,0,1-.35.32Zm-.35-1.49q.24.06.24.24a.28.28,0,0,1,0,.15l0,0a.34.34,0,0,1-.3.19h-.13l-2-.56c-.17,0-.25-.13-.25-.25a.42.42,0,0,1,0-.15l0,0a.38.38,0,0,1,.31-.19h.13Zm1.4-4.81a.33.33,0,0,1-.41.23l-.53-.1c-.17,0-.25-.12-.25-.25a.5.5,0,0,1,0-.16l.8-2a.33.33,0,0,1,.41-.23l.53.11c.17,0,.25.11.25.25a.55.55,0,0,1,0,.16l-.27.65h2.51c.23,0,.34.1.34.3s-.11.3-.34.3h-.49a.39.39,0,0,1,0,.14l-.38,1.06a.33.33,0,0,1-.4.24l-.55-.09c-.18,0-.27-.12-.27-.26a.35.35,0,0,1,0-.14l.34-.95h-1Z" class="cls-11"/></g><path data-cppathid="10043" d="M486.4,75.34A12.38,12.38,0,0,1,474,87.72H95.5A12.38,12.38,0,0,1,83.12,75.34V13.92A12.38,12.38,0,0,1,95.5,1.54H474A12.38,12.38,0,0,1,486.4,13.92Z" class="cls-1"/><path data-cppathid="10044" d="M229,54.81c0,.51-.29.76-.83.76l-1.5,0a.69.69,0,0,1-.78-.84l.68-15.05a1.23,1.23,0,0,1,.15-.5.61.61,0,0,1-.12-.41c0-.49.27-.74.81-.74h8.79l-.81-2.51a1.5,1.5,0,0,1,0-.31c0-.38.22-.59.66-.64l1.38-.2h.2a.74.74,0,0,1,.76.61l1,3.07h6.78c.54,0,.81.25.81.74s-.27.73-.81.73h-6.31L241.93,46l2.23-3.59a.87.87,0,0,1,.74-.46,1.09,1.09,0,0,1,.32,0l1.06.32c.37.13.56.33.56.61a1,1,0,0,1-.15.44L243,49.33l1.23,3.81,1.4-.37.27-.05a.82.82,0,0,1,.76.52.84.84,0,0,1,.13.39c0,.33-.2.54-.59.64l-3.61.93a.4.4,0,0,1-.15,0h-.12a.75.75,0,0,1-.74-.59l-.64-2-1.32,2.13a.86.86,0,0,1-.74.47,1.57,1.57,0,0,1-.32,0l-1.06-.32c-.37-.13-.56-.33-.56-.61a.86.86,0,0,1,.15-.44l2.8-4.47-3.17-9.88h-7a2.45,2.45,0,0,1,0,.27L229.53,44h5.94c.56,0,.81.28.76.83l-.76,9.63c-.05.47-.27.71-.66.71a1,1,0,0,1-.27,0l-3.88-1c-.41-.1-.62-.3-.62-.59a.34.34,0,0,1,0-.18,1.07,1.07,0,0,0,.06-.17l0-.07a.84.84,0,0,1,.77-.52l.14,0a.8.8,0,0,1,.15,0l1.23.3.61-7.52h-3.61ZM245.15,36a.64.64,0,0,1,.12,1.13l-.25.19a1,1,0,0,1-.64.27,1.08,1.08,0,0,1-.46-.14l-3-1.65a.75.75,0,0,1-.42-.59.69.69,0,0,1,.3-.54l.24-.2a1,1,0,0,1,.64-.27.89.89,0,0,1,.47.15Z" class="cls-2"/><path data-cppathid="10045" d="M252.46,53.88a.72.72,0,0,1-.88.73l-.79,0a.69.69,0,0,1-.73-.86l.32-3.73a.74.74,0,0,1,.88-.74l.79.05a.69.69,0,0,1,.73.86Zm4.28,1a.72.72,0,0,1-.81.81h-1.52a.72.72,0,0,1-.82-.81V47.86l-2.7.22c-.49,0-.73-.12-.73-.47a.83.83,0,0,1,.17-.49l2.26-3.51-.05-.07-2.06-2.76a.92.92,0,0,1-.23-.56.8.8,0,0,1,.23-.56l3.93-5.16a.83.83,0,0,1,.68-.39,1.25,1.25,0,0,1,.4.07l.93.32c.34.11.51.31.51.59a.87.87,0,0,1-.19.49l-3.51,4.64.83,1.11L255,40a.88.88,0,0,1,.76-.44,1.14,1.14,0,0,1,.32.05l1.05.32c.38.13.57.32.57.59a.68.68,0,0,1,0,.22c0,.08-.08.16-.13.24L254,46.36l3-.24-.41-1.7a.85.85,0,0,1,0-.25.65.65,0,0,1,.66-.71l.72-.1a.73.73,0,0,1,.93.64l.91,3.76a.94.94,0,0,1,0,.25.65.65,0,0,1-.66.71l-.71.1a.74.74,0,0,1-.94-.64l-.14-.59h-.08l-.56,0a.84.84,0,0,1,.05.29Zm3.49-1.62a.71.71,0,0,1-.77.86l-.78,0a.72.72,0,0,1-.86-.74l-.32-3.07a.82.82,0,0,1,.17-.62.76.76,0,0,1,.59-.26l.79-.05a.72.72,0,0,1,.86.74ZM267.1,41.5v.07h3.56c.54,0,.81.25.81.74s-.27.73-.81.73H260.47c-.54,0-.81-.24-.81-.73s.27-.74.81-.74H264v-1h-2.33c-.54,0-.81-.25-.81-.74s.27-.73.81-.73H264V37.62H261c-.54,0-.81-.25-.81-.74s.27-.74.81-.74H264v-.78a.72.72,0,0,1,.81-.81h1.52a.72.72,0,0,1,.81.81v.78h3c.54,0,.81.25.81.74s-.27.74-.81.74h-3v1.45h2.38c.55,0,.82.24.82.73s-.27.74-.82.74H267.1Zm-6.55,2.94a.72.72,0,0,1,.81-.81h1.52a.94.94,0,0,1,.49.13h6.75a.72.72,0,0,1,.81.81v7.61a.72.72,0,0,1-.81.81H268.6a.91.91,0,0,1-.49-.12h-4.74a.94.94,0,0,1-.49.12h-1.52a.72.72,0,0,1-.81-.81Zm1.57,11.28a1.06,1.06,0,0,1-.45.1.9.9,0,0,1-.66-.32l-.12-.13a.76.76,0,0,1-.27-.51c0-.25.16-.44.49-.59l2.14-1a1,1,0,0,1,.44-.1.89.89,0,0,1,.66.32l.12.13a.74.74,0,0,1,.27.51c0,.25-.16.44-.49.59Zm5.67-10.49h-4.1v1h4.1Zm-4.1,3.64h4.1V47.71h-4.1Zm0,2.53h4.1V50.34h-4.1Zm6.95,3c.33.14.49.34.49.59a.81.81,0,0,1-.22.49l-.17.17a.92.92,0,0,1-1.11.25l-2.45-1.09c-.33-.14-.5-.34-.5-.58a.76.76,0,0,1,.23-.5l.17-.17a1,1,0,0,1,.69-.34.86.86,0,0,1,.41.1Z" class="cls-2"/><path data-cppathid="10046" d="M289.53,54.78a.81.81,0,0,1-.64.35,1.06,1.06,0,0,1-.47-.12l-.74-.35c-.31-.15-.46-.34-.46-.59a1,1,0,0,1,.19-.51,8.27,8.27,0,0,0,.91-1.81,13.18,13.18,0,0,0,.62-2.25,13.78,13.78,0,0,0,.22-2.38,9.62,9.62,0,0,0-1.11-4.91,4.81,4.81,0,0,0-3.12-2.38,32.5,32.5,0,0,1,.59,5.84,12.73,12.73,0,0,1-1.41,6.49A4.56,4.56,0,0,1,280,54.54a5.28,5.28,0,0,1-2.93-.81,5.45,5.45,0,0,1-1.94-2.22,7.51,7.51,0,0,1-.68-3.26,10.44,10.44,0,0,1,.71-3.88,10,10,0,0,1,2-3.2A9.27,9.27,0,0,1,280,39a8.22,8.22,0,0,1,3.55-.78,9.52,9.52,0,0,1,4.66,1.07,7.25,7.25,0,0,1,3,3.06,10.07,10.07,0,0,1,1.06,4.78A11.1,11.1,0,0,1,289.53,54.78Zm-12-6.53a8.28,8.28,0,0,0,.34,2.4,5.13,5.13,0,0,0,.9,1.75,1.57,1.57,0,0,0,1.17.67c.46,0,.86-.34,1.21-1a9.71,9.71,0,0,0,.84-2.77,23.21,23.21,0,0,0,.31-3.93q0-1.24-.12-2.58c-.07-.88-.19-1.78-.35-2.7a6.49,6.49,0,0,0-2.18,1.82,9.83,9.83,0,0,0-1.54,2.89A10.32,10.32,0,0,0,277.54,48.25Z" class="cls-2"/><path data-cppathid="10047" d="M298.88,54.86a.72.72,0,0,1-.81.81h-1.52a.72.72,0,0,1-.81-.81V35.6a.72.72,0,0,1,.81-.81h1.52a.86.86,0,0,1,.59.2h5.87a.72.72,0,0,1,.81.81v8.28a.72.72,0,0,1-.81.81H303a.84.84,0,0,1-.52-.15h-3.61Zm3.32-18.4h-3.32v2.83h3.32Zm-3.32,6.81h3.32V40.76h-3.32Zm3.39,11.59a.89.89,0,0,1-.66.32,1.2,1.2,0,0,1-.47-.13l-.71-.31c-.33-.15-.49-.35-.49-.59a.78.78,0,0,1,.27-.54l1.84-1.92a1.16,1.16,0,0,1-.34.05h-1.53a.72.72,0,0,1-.81-.81V48.08a.72.72,0,0,1,.81-.81h1.16l-.44-.61a.89.89,0,0,1-.2-.5c0-.27.18-.48.54-.61l1-.34a1.07,1.07,0,0,1,.37-.08.84.84,0,0,1,.71.42l1,1.35a.85.85,0,0,1,.19.49v0h2.88a.75.75,0,0,1,.22-.52l1.13-1.4a.86.86,0,0,1,.71-.37,1.29,1.29,0,0,1,.39.08l.89.34c.34.11.51.31.51.59a.83.83,0,0,1-.22.52l-.61.76h.83a.72.72,0,0,1,.81.81v2.7a.72.72,0,0,1-.81.81h-1.52a.84.84,0,0,1-.52-.15h-.59v2.07h.54v-.23c0-.13.27-.19.81-.19h1.53a.72.72,0,0,1,.81.81v.27a.72.72,0,0,1-.81.81h-5.21a.72.72,0,0,1-.81-.81V51.59h-.27a.91.91,0,0,1-.27.52Zm6.61-6h-6.36v1.23h6.36Zm4.22,6.31c-.54-.05-.77-.32-.71-.81s.16-.73.22-.73l.1,0V44.57H309a.75.75,0,0,1-.69.32h-1.52a.72.72,0,0,1-.81-.81V35.6a.72.72,0,0,1,.81-.81h1.52a.88.88,0,0,1,.59.2H315a.72.72,0,0,1,.81.81V54.56c0,.58-.27.84-.83.79Zm-.39-18.74h-3.56v2.73h3.56Zm-3.56,6.63h3.56V40.66h-3.56Z" class="cls-2"/><path data-cppathid="10048" d="M321.7,55.3a.92.92,0,0,1-.44.1.93.93,0,0,1-.69-.32l-.12-.12a.73.73,0,0,1-.25-.52c0-.24.16-.44.49-.59l3-1.35h-.91a.72.72,0,0,1-.81-.81V44.76a.72.72,0,0,1,.81-.81h1.52a.83.83,0,0,1,.64.25h13a.72.72,0,0,1,.81.81v6.75a.72.72,0,0,1-.81.81h-1.52a.91.91,0,0,1-.49-.12H334v1.23h4v-.37c0-.24.27-.37.81-.37h1.53a.72.72,0,0,1,.81.81v.59a.72.72,0,0,1-.81.81h-8.72a.72.72,0,0,1-.81-.81V52.45h-3.1a.72.72,0,0,1-.39.32ZM328.65,42v.07h1.28c.54,0,.81.25.81.74s-.27.74-.81.74h-6.76a.88.88,0,0,1-.51.14h-1.53a.72.72,0,0,1-.81-.81V35.06a.72.72,0,0,1,.81-.81h1.53a.81.81,0,0,1,.51.15h6.68c.54,0,.81.25.81.74s-.27.73-.81.73H328.7V37h1.35a.72.72,0,0,1,.81.81v2.6a.72.72,0,0,1-.81.81h-1.4Zm-3.09-6v-.08h-2.09V37h2.09V36Zm2.16,2.5h-4.25v1.13h4.25Zm-2.21,2.68v-.07h-2v1h2v-.93Zm10.07,4.54H325.11v.84h10.47Zm-10.47,3h10.47V48H325.11Zm0,2.26h10.47v-.79H325.11Zm9.14-11a.73.73,0,0,1-.86.74l-1.52-.08a.7.7,0,0,1-.76-.86l.49-4.61a.72.72,0,0,1,.86-.74l1.52.07a.7.7,0,0,1,.74.86l-.1,1H340c.54,0,.81.25.81.74s-.27.74-.81.74h-5.48Zm5.21,1.55c.54,0,.81.24.81.73s-.27.74-.81.74h-5.68c-.54,0-.81-.24-.81-.74s.27-.73.81-.73Z" class="cls-2"/><g data-name="report card" id="report_card"><path data-cppathid="10049" d="M710.54,235.61A12.38,12.38,0,0,1,698.16,248H319.65a12.38,12.38,0,0,1-12.38-12.38V174.18a12.38,12.38,0,0,1,12.38-12.38H698.16a12.38,12.38,0,0,1,12.38,12.38Z" class="cls-1"/><path data-cppathid="10050" d="M459.6,215.29a.72.72,0,0,1-.82.81h-1.52a.72.72,0,0,1-.81-.81v-3.12H454.9c-.54,0-.81-.24-.81-.73s.27-.74.81-.74h1.55v-2.31a.85.85,0,0,1,.17-.56H453.9c-.54,0-.81-.25-.81-.74s.27-.74.81-.74h.88a.88.88,0,0,1-.22-.58l-.17-2.46c0-.11,0-.22,0-.32h-.88c-.54,0-.81-.25-.81-.74s.27-.73.81-.73h3V198.1h-2.3c-.54,0-.81-.24-.81-.73s.27-.74.81-.74h2.3v-1.45a.72.72,0,0,1,.81-.81h1.53a.72.72,0,0,1,.81.81v1.45h2c.54,0,.81.25.81.74s-.27.73-.81.73h-2v3.42h2.77c.54,0,.81.24.81.73s-.27.74-.81.74h-.34a1,1,0,0,1,0,.39l-.39,3h.37c.54,0,.81.25.81.74s-.27.74-.81.74h-2.73a.8.8,0,0,1,.18.56v2.31h1.54c.54,0,.81.25.81.74s-.27.73-.81.73H459.6Zm-1.9-9.67a.72.72,0,0,1-.34.73h1.33s0-.09,0-.19l.41-3a.4.4,0,0,0,0-.15h-1.62a.88.88,0,0,1,0,.17Zm8.84,9.28a.72.72,0,0,1-.81.81h-1.52a.72.72,0,0,1-.81-.81V196a.72.72,0,0,1,.81-.81h1.52a1,1,0,0,1,.32,0h6.51a.72.72,0,0,1,.81.82v6.43c0,.57-.29.82-.86.74l-3.68-.5c-.48,0-.71-.25-.71-.61a.6.6,0,0,1,.05-.24v0a.75.75,0,0,1,.95-.61l1.11.14v-4.66h-3.69v8.1h5.7c.48,0,.71.19.71.57a1.09,1.09,0,0,1-.07.37l-2,5,2,3.1a.79.79,0,0,1,.18.46c0,.28-.19.49-.57.62l-1,.32a.86.86,0,0,1-.36.07.87.87,0,0,1-.72-.44l-.73-1.11-.32.84a.81.81,0,0,1-1,.56l-1.33-.24a.79.79,0,0,1-.54-.3Zm2.31-7.17.08.1.59-1.52h-3v1.47l.23-.1,1-.32a1,1,0,0,1,.37-.07A.84.84,0,0,1,468.85,207.73Zm-2.31,1.3v4.89l1.21-3.07Z" class="cls-2"/><path data-cppathid="10051" d="M480.12,203.58a.89.89,0,0,1-.73.47l-.15,0-.17,0-1.11-.32c-.37-.13-.56-.35-.56-.64a.86.86,0,0,1,.15-.44l4.49-7.3a.89.89,0,0,1,.74-.46h.14l.18,0,1.1.32q.57.19.57.63a1,1,0,0,1-.15.45l-1.94,3.14h3.95V196a.72.72,0,0,1,.81-.81H489a.72.72,0,0,1,.81.81v3.41h5.94c.54,0,.81.25.81.74s-.27.73-.81.73h-5.94v3.54a.84.84,0,0,1,0,.29h7.68c.54,0,.81.25.81.74s-.27.74-.81.74H478.26c-.54,0-.81-.25-.81-.74s.27-.74.81-.74h8.42a.84.84,0,0,1-.05-.29V200.9h-4.17a.81.81,0,0,1-.57-.17Zm-1,5.43a.72.72,0,0,1,.81-.81h1.53a.72.72,0,0,1,.63.27h13.61a.72.72,0,0,1,.81.81v6.11a.72.72,0,0,1-.81.81H494.2a.86.86,0,0,1-.61-.19.66.66,0,0,1-.2-.5h-11.1a.71.71,0,0,1-.81.69H480a.72.72,0,0,1-.81-.81Zm14.25.93h-11.1V214h11.1Z" class="cls-2"/><path data-cppathid="10052" d="M506.5,215.07a.8.8,0,0,1-.76.57h-.12a.25.25,0,0,1-.13,0l-1.3-.27c-.41-.08-.61-.28-.61-.61a1.15,1.15,0,0,1,.07-.39l5.45-12.82h-6c-.54,0-.81-.25-.81-.74s.27-.74.81-.74h6.66l1-2.48a.82.82,0,0,1,.76-.56h.13l.12,0,1.3.27c.41.08.61.29.61.62a1.24,1.24,0,0,1-.07.39l-.74,1.74h8.65c.51,0,.76.22.76.64a.61.61,0,0,1,0,.14.93.93,0,0,1,0,.13l-3.46,13.9a.76.76,0,0,1-1,.64l-4.94-.81c-.44-.08-.66-.29-.66-.61a.61.61,0,0,1,0-.14.65.65,0,0,1,0-.13l0-.05a.79.79,0,0,1,.77-.59h.11l.11,0,2.65.47,3-12.13h-6.72Z" class="cls-2"/><path data-cppathid="10053" d="M542.5,205.32c.54,0,.81.25.81.74s-.27.74-.81.74H526c-.54,0-.81-.25-.81-.74s.27-.74.81-.74Z" class="cls-2"/><path data-cppathid="10054" d="M551.73,214.88a.72.72,0,0,1-.81.81H549.4a.72.72,0,0,1-.81-.81V197.81a.72.72,0,0,1,.81-.81h1.52a.72.72,0,0,1,.81.81v7l8.89,2.88c.38.13.57.32.57.59a.72.72,0,0,1-.15.41l-.1.13a.83.83,0,0,1-.71.41h-.16l-.18,0-8.16-2.62Zm7.49-13.24a1,1,0,0,1,0,.27c0,.41-.22.64-.67.69l-.71.1a.73.73,0,0,1-.93-.64l-1.28-5.16a1.87,1.87,0,0,1,0-.27.64.64,0,0,1,.66-.69l.71-.1a.75.75,0,0,1,1,.64Zm2.7-1.5a1,1,0,0,1,0,.27c0,.38-.21.61-.64.69l-.71.12a.75.75,0,0,1-1-.64l-1.25-4.81a.83.83,0,0,1,0-.15.66.66,0,0,1,0-.14c0-.36.22-.58.66-.67l.71-.12a.75.75,0,0,1,1,.64Z" class="cls-2"/></g></g></g></g></g></svg>