<?xml version="1.0" encoding="UTF-8"?>
<svg xmlns="http://www.w3.org/2000/svg" onmouseup="{ if(window.parent.document.onmouseup) window.parent.document.onmouseup(arguments[0]);}" viewBox="0 0 205.31 268.03"><defs><style>.cls-1{fill:#fcc388;}.cls-2{fill:#a8a7a5;}.cls-3{fill:#d5d3d0;}.cls-4{fill:#fcc488;}.cls-10,.cls-11,.cls-5,.cls-9{stroke:#000;}.cls-5{stroke-width:2.52px;}.cls-6{fill:#ccebf6;}.cls-7{fill:#332518;}.cls-8{fill:#55c9ef;}.cls-9{fill:none;stroke-width:2px;}.cls-10{stroke-width:1.91px;}.cls-11{stroke-width:0.63px;}.cls-12{fill:#fff;}</style></defs><g data-name="Layer 2" id="Layer_2"><g id="ProductOwner"><path data-cppathid="10000" d="M156.8,86.76s0,4.57-1.41,6-2.28-1.06-2.63-2.28S156.8,86.76,156.8,86.76Z" class="cls-1"/><path data-cppathid="10001" d="M205.21,55.31c-.87,1-58.61,40.07-58.61,40.07l-.52-4.92S206.09,54.25,205.21,55.31Z" class="cls-2"/><path data-cppathid="10002" d="M205.3,55.13C204.42,56.19,146.43,94,146.43,94l-.35-4.22S206.18,54.08,205.3,55.13Z" class="cls-3"/><path data-cppathid="10003" d="M132.9,103.28s5.09-3.33,5.44-6,3.87-11.6,4.92-11.77a21.81,21.81,0,0,1,3.52,0l6.33.17-4.57,3.34S147,93.44,146.6,94s5.28-7.56,6.51-5.27S150.29,97,148,98s.53,9.84-9.67,9.32" class="cls-1"/><path data-cppathid="10004" d="M151.52,93.44s-.52,9.85-5.62,9.14S151.52,93.44,151.52,93.44Z" class="cls-1"/><path data-cppathid="10005" d="M23.17,85.05A29.67,29.67,0,0,1,19,77.53s-1.05-12-3.26-8.46-.07,9.46-.07,9.46S8,67.73,5.62,68.09,9.14,75,9.14,75,2.85,70.37,1.7,70.17s4.87,6,4.87,6S.21,74.25,0,75.4s11.77,7.18,14.75,10.47c.59.66,1.77,2.34,3.36,4.61C24.47,99.5,27.2,90.14,23.17,85.05Z" class="cls-4"/><path data-cppathid="10006" d="M88.44,107.51a3.27,3.27,0,0,0-2.54,4.13h0a3.9,3.9,0,0,0,4,3.3s2.75,6.28,22.58,3.77,26-9.93,26-9.93l-1.83-9s-13.18,8.81-25.84,10.84A39,39,0,0,1,88.44,107.51Z"/><path data-cppathid="10007" d="M85.43,100.54s20.08,26.08,22.9,64.14c.17,2.32,0,11.52,0,11.52L74.62,183s0-1.9,0-2.81c0-26.08.91-55.67.91-55.67s2.12-31,4.94-29.6S85.43,100.54,85.43,100.54Z" class="cls-5"/><path data-cppathid="10008" d="M103.37,173.66s.23,3.58.31,5.39c1.36,35-8.4,72.8-8.4,72.8s8.09,2.7,9.44,5.39-18.88,1.35-18.88,1.35,4-48.53,2.7-59.32S77.76,255.9,75.06,259.94,62.25,268,62.25,268s2-8.09,4-11.46,7.13-50.8,7.41-76.17v-2Z"/><path data-cppathid="10009" d="M84.5,102.2s16,32.61,18.75,69c.16,2.22.35,6.72.35,6.72l-29.44,3.14s0-1.83,0-2.69c0-24.95.87-53.26.87-53.26s2-29.66,4.72-28.31S84.5,102.2,84.5,102.2Z" class="cls-6"/><path data-cppathid="10010" d="M94.49,169.25,73.26,183.66s0-1.94,0-2.86c0-26.48.83-56.53.83-56.53s1-16.65,2.51-25.18C86,100.17,94.49,169.25,94.49,169.25Z" class="cls-5"/><path data-cppathid="10011" d="M95.43,89.53s0-.06.66-1.6c.1-.21,1.71-5.81,1.71-5.81s2.88-3.5-3.31-3.5-11,4.77-12.73-.31C78.89,70.08,105.37,76,105.37,76c-.89-12.51,1.66-37.14-3.16-46.29C90.92,8.23,55.92-11,45.75,12.75s1.13,39.52,9,54.2,22.93,33.78,29.74,34.63C90.54,102.33,95.43,89.53,95.43,89.53Z" class="cls-4"/><path data-cppathid="10012" d="M49.83,7.06s15.63,3.31,19.4,7.82,3.24,5.52,3.29,5.73c2-5.07-1.61-7.53-1.61-7.53,10.85,1.8,14.9,1.68,26.89-1.61-8.35.95-11.76-.11-11.76-.11s7.88-1.06,10.82-6.82C88.82,7.06,84,7.06,84,7.06L97.8,1.83a69.53,69.53,0,0,1-21-.87,45.24,45.24,0,0,0-21.72.83C52.09,2.54,49.83,7.06,49.83,7.06Z" class="cls-7"/><polygon data-cppathid="10013" points="85.18 105.15 87.58 104.09 88.31 111.96 85.18 105.15" class="cls-8"/><polygon data-cppathid="10014" points="88.31 111.96 96.66 136.13 96.55 148.48 89.97 137.46 88.31 111.96" class="cls-8"/><path data-cppathid="10015" d="M55.19,36.24c2.82,8.93,4.7,12.22,4.7,12.22l25.39-4.7-.93-13.17L91.4,42.35l16.93-2.82-1.88-15" class="cls-9"/><path data-cppathid="10016" d="M106.45,25.65a164.86,164.86,0,0,1-23.18,6.06c-13.43,2.5-31.18,1.84-42.51,15.8,0,0,.16,2.43.16,3.86,0,1.12,1.26-2.43,2.2-3.72,6.71-11.18,21-11.37,39.81-15,7.68-1.5,15.74-4.81,23.52-4.56A5.61,5.61,0,0,0,106.45,25.65Z" class="cls-10"/><path data-cppathid="10017" d="M93.1,36.47c0,2.06-1,3.71-2.18,3.71s-2.18-1.65-2.18-3.71,1-3.71,2.18-3.71S93.1,34.42,93.1,36.47Z" class="cls-11"/><path data-cppathid="10018" d="M90.72,34.88a1.33,1.33,0,1,1-1.33-1.33A1.34,1.34,0,0,1,90.72,34.88Z" class="cls-12"/><path data-cppathid="10019" d="M76.7,107.21c2.15,1,2.81,3.77,1.46,6.15h0c-1.35,2.37-4.2,3.47-6.35,2.44,0,0-6,6.66-29.51-4.53S14.15,88.38,14.15,88.38l5.94-10.45s12.74,16.29,27.59,24A50.88,50.88,0,0,0,76.7,107.21Z"/><path data-cppathid="10020" d="M49.38,6.88s2,11.47,2,14.85-8.78,12.14-8.78,12.14S37.91,23.07,39.94,17,49.38,6.88,49.38,6.88Z" class="cls-7"/><path data-cppathid="10021" d="M77,39.55c0,2.23-1.07,4.05-2.38,4.05s-2.38-1.82-2.38-4.05,1.07-4,2.38-4S77,37.32,77,39.55Z" class="cls-11"/><path data-cppathid="10022" d="M73.85,37.65a1.19,1.19,0,1,1-1.19-1.19A1.19,1.19,0,0,1,73.85,37.65Z" class="cls-12"/></g></g></svg>