<?xml version="1.0" encoding="UTF-8"?>
<svg xmlns="http://www.w3.org/2000/svg" onmouseup="{ if(window.parent.document.onmouseup) window.parent.document.onmouseup(arguments[0]);}" viewBox="0 0 281.18 241.36"><defs><style>.cls-1{fill:#ffb300;}.cls-2{fill:#ffa000;}.cls-3{fill:#ffd54f;}.cls-4{fill:#ffecb3;}.cls-5{fill:#ffe082;}.cls-6{fill:#ffca28;}.cls-7{fill:#ff8f00;}.cls-8{fill:#ffac1f;}.cls-9{fill:#ab6000;}</style></defs><g data-name="Layer 2" id="Layer_2"><g data-name="Main Object" id="Main_Object"><path data-cppathid="10000" d="M137,84.7c-44.46,0-86.12,12.41-111.74,33.18L0,126.48v36.68H0c0,9.67,3.18,19.25,9.31,28.26a75.06,75.06,0,0,0,11.09,12.63l.07.07h0c14,12.95,34.31,23.29,58.42,29.74a226.19,226.19,0,0,0,58.09,7.5c36.33,0,71.18-8.26,96.87-23S274,183.8,274,163a1.36,1.36,0,0,0,0-.2V127.21l-25.31-9.33-1-.9c-.37-.3-.74-.6-1.12-.89-2.22-1.69-4.57-3.32-7-4.9-.64-.43-1.29-.85-1.95-1.27-2.27-1.4-4.64-2.75-7.09-4-1.24-.69-2.51-1.37-3.8-2l-2.21-1.09h0a161.41,161.41,0,0,0-15.59-6.31h0q-5.72-2-11.75-3.71l-.61-.16c-3.24-.9-6.55-1.73-9.9-2.48h0A229.66,229.66,0,0,0,137,84.7Z" class="cls-1"/><path data-cppathid="10001" d="M205.64,129.58V230.73c30.48-10.09,53-26.51,62.84-45.84V129.58Z" class="cls-2"/><path data-cppathid="10002" d="M32.12,133.28v79.88c12.66,8.68,28.45,15.69,46.29,20.55V133.28Z" class="cls-3"/><path data-cppathid="10003" d="M9.5,119.84v71.79a75.81,75.81,0,0,0,10.93,12.42l0,0V119.84Z" class="cls-4"/><path data-cppathid="10004" d="M274,127.13c0,43.25-61.33,78.32-137,78.32S0,170.38,0,127.13c0-20.78,14.44-40.7,40.13-55.39S100.68,48.8,137,48.8s71.18,8.25,96.87,22.94S274,106.35,274,127.13Z" class="cls-5"/><path data-cppathid="10005" d="M186.56,54.19,9.33,155.52a75.64,75.64,0,0,0,11.17,12.7L208.83,60.54A193,193,0,0,0,186.56,54.19Zm37.86,12.66L31.64,177.08c12.88,8.86,29,16,47.28,20.88l182-104C252.38,83.47,239.92,74.23,224.42,66.85Zm.13.45.1,0s0,0,0,.06a.06.06,0,0,1,0,.06.15.15,0,0,1-.1,0,.2.2,0,0,1-.11,0,.07.07,0,0,1,0-.06s0,0,0-.06Zm34,27.16h0c.09,0,.15,0,.15.08a.05.05,0,0,1,0,.06.2.2,0,0,1-.11,0c-.08,0-.15,0-.15-.09S258.5,94.46,258.58,94.46Z" class="cls-4"/><path data-cppathid="10006" d="M270.74,127.13c0,42.22-59.87,76.46-133.73,76.46S3.28,169.35,3.28,127.13c0-20.28,14.09-39.73,39.17-54.07s59.09-22.4,94.56-22.4,69.48,8.06,94.56,22.4S270.74,106.85,270.74,127.13Z" class="cls-6"/><path data-cppathid="10007" d="M184,55.64,11.91,154.05a72.2,72.2,0,0,0,11,12.8L206.46,61.9A189.38,189.38,0,0,0,184,55.64ZM222.1,68.18,33.94,175.76c12.86,8.89,29.07,16,47.42,20.81L258.44,95.32C250.07,84.82,237.64,75.54,222.1,68.18Zm-.19,2.45a1.55,1.55,0,0,1,.8.19.48.48,0,0,1,0,.91,1.78,1.78,0,0,1-1.6,0,.55.55,0,0,1-.33-.46C220.78,70.92,221.29,70.63,221.91,70.63Zm22.86,25c.61,0,1.11.29,1.11.64a.55.55,0,0,1-.33.45,1.58,1.58,0,0,1-.78.18,1.62,1.62,0,0,1-.79-.18.54.54,0,0,1-.32-.45C243.66,96,244.15,95.67,244.77,95.67Z" class="cls-3"/><path data-cppathid="10008" d="M253.46,127.13c0,36.77-52.14,66.57-116.45,66.57-30.88,0-60.5-7-82.34-19.5s-34.11-29.42-34.11-47.07,12.27-34.6,34.11-47.08,51.46-19.5,82.34-19.5C201.32,60.55,253.46,90.36,253.46,127.13Z" class="cls-7"/><path data-cppathid="10009" d="M170.48,63.38,25.56,146.24a57.52,57.52,0,0,0,10,13.38L193.91,69.07A174,174,0,0,0,170.48,63.38Zm39.29,11.85L46.18,168.76c12.74,9.06,29.4,16.05,48.34,20.28l150.86-86.25C237.92,92,225.64,82.48,209.77,75.23Zm.26.64c.15,0,.27.07.27.15a.12.12,0,0,1-.08.11.38.38,0,0,1-.19.05.39.39,0,0,1-.2-.05.12.12,0,0,1-.08-.11C209.75,75.94,209.88,75.87,210,75.87Zm11.28,13.21h.35a1.49,1.49,0,0,1,1.49,1.49v12.21a1.49,1.49,0,0,1-1.49,1.49h-.35a1.49,1.49,0,0,1-1.48-1.49V90.57A1.48,1.48,0,0,1,221.31,89.08Z" class="cls-1"/><path data-cppathid="10010" d="M137,63.05q4.37,0,8.72.22Q141.38,63.06,137,63.05Zm12.69.49c2.47.15,4.94.34,7.39.58C154.64,63.88,152.17,63.69,149.7,63.54Zm9.91.9q4.32.5,8.56,1.17Q163.93,64.94,159.61,64.44Zm9.77,1.4c3.23.55,6.41,1.19,9.54,1.9C175.79,67,172.61,66.39,169.38,65.84Zm9.54,1.9L45.33,142.3c-1.31-.76-2.66-1.52-2.72-1.52s-5.14,2.91-5.2,3,0,1.49,0,2.94l-5.15,2.88C48.6,174.6,90.34,191.16,137,191.2c29.72,0,58.22-6.75,79.24-18.77s32.82-28.31,32.82-45.3C249.05,101,221.29,77.51,178.92,67.74ZM32.22,149.62a49.91,49.91,0,0,1-2.73-4.84A49.91,49.91,0,0,0,32.22,149.62Zm-2.73-4.84c-.52-1-1-2.06-1.41-3.1C28.51,142.72,29,143.75,29.49,144.78Zm-1.41-3.1c-.44-1-.83-2.08-1.18-3.13C27.25,139.6,27.64,140.64,28.08,141.68Zm-1.18-3.13c-.33-1.05-.61-2.11-.85-3.17C26.29,136.44,26.57,137.5,26.9,138.55Zm-.85-3.17c-.26-1-.47-2.11-.63-3.17C25.58,133.27,25.79,134.33,26.05,135.38Zm-.63-3.17a38,38,0,0,1-.48-5.08A38,38,0,0,0,25.42,132.21Zm76.51,11.86h3.9a1.49,1.49,0,0,1,1.49,1.49v14.13a1.48,1.48,0,0,1-1.49,1.49h-3.9a1.49,1.49,0,0,1-1.49-1.49V145.56A1.49,1.49,0,0,1,101.93,144.07Zm-25.28,16.5a5.26,5.26,0,0,1,3.76,1.59,5.49,5.49,0,0,1,0,7.65,5.26,5.26,0,0,1-3.76,1.59,5.42,5.42,0,0,1,0-10.83Z" class="cls-2"/><path data-cppathid="10011" d="M137,63.05c-29.72,0-58.23,6.75-79.24,18.77s-32.83,28.31-32.83,45.31a41,41,0,0,0,7.28,22.49l146.7-81.88A188.23,188.23,0,0,0,137,63.05ZM96.8,91.88h7.42v3.93H96.8Z" class="cls-2"/><rect data-cppathid="10012" height="6.72" width="11.82" y="90.72" x="94.64" class="cls-2"/><path data-cppathid="10013" d="M166.88,65.44,29,144.26a54,54,0,0,0,9.71,13.53l97-55.46.17.11,5.17-2.86a3,3,0,0,0,0-.33l49.6-28.36A169.3,169.3,0,0,0,166.88,65.44ZM206.65,77,49.28,167c12.72,9.1,29.54,16.06,48.65,20.1l2.45-1.4,3.52-1.81.1-.26,138-78.87C234.81,93.84,222.61,84.25,206.65,77Z" class="cls-8"/><path data-cppathid="10014" d="M146.11,166.06V154.64h27.33c5.46,0,9.11-2.08,9.11-5.2s-3.65-5.19-9.11-5.19H146.11V137h27.33c5.46,0,9.11-2.08,9.11-5.2s-3.65-5.19-9.11-5.19H149.76l39.17-22.33c3.63-2.08,3.63-5.2,0-7.27a13.83,13.83,0,0,0-12.76,0L137,119.32,97.85,97A13.81,13.81,0,0,0,85.1,97c-3.65,2.07-3.65,5.19,0,7.27l39.15,22.33H100.58c-5.47,0-9.11,2.07-9.11,5.19s3.64,5.2,9.11,5.2H127.9v7.27H100.58c-5.47,0-9.11,2.07-9.11,5.19s3.64,5.2,9.11,5.2H127.9v11.42c0,3.11,3.65,5.19,9.11,5.19S146.11,168.66,146.11,166.06Z" class="cls-9"/><path data-cppathid="10015" d="M144.19,35.9c-44.46,0-86.12,12.41-111.75,33.18L7.18,77.68v36.68h0c0,9.67,3.18,19.25,9.31,28.26a75.58,75.58,0,0,0,11.1,12.63l.07.07h0c14,13,34.3,23.29,58.42,29.74a226.19,226.19,0,0,0,58.09,7.5c36.33,0,71.17-8.26,96.86-22.95s40.13-34.61,40.13-55.38c0-.07,0-.13,0-.2V78.41l-25.31-9.33-1-.9c-.37-.3-.74-.6-1.12-.89q-3.35-2.54-7-4.9c-.64-.43-1.29-.85-2-1.27q-3.42-2.1-7.09-4c-1.25-.69-2.51-1.37-3.8-2L231.6,54h0A162.66,162.66,0,0,0,216,47.65h0q-5.72-2-11.74-3.71l-.62-.16q-4.86-1.35-9.89-2.48h0A229.73,229.73,0,0,0,144.19,35.9Z" class="cls-1"/><path data-cppathid="10016" d="M212.82,80.78V181.93c30.47-10.09,53-26.51,62.84-45.84V80.78Z" class="cls-2"/><path data-cppathid="10017" d="M39.3,84.48v79.88C52,173,67.75,180.05,85.59,184.91V84.48Z" class="cls-3"/><path data-cppathid="10018" d="M16.67,71v71.79a75.48,75.48,0,0,0,10.94,12.42l0,0V71Z" class="cls-4"/><path data-cppathid="10019" d="M281.18,78.33c0,43.25-61.33,78.32-137,78.32s-137-35.07-137-78.32c0-20.78,14.43-40.7,40.13-55.39S107.85,0,144.19,0s71.17,8.25,96.87,22.94S281.18,57.55,281.18,78.33Z" class="cls-5"/><path data-cppathid="10020" d="M193.74,5.39,16.51,106.72a75.19,75.19,0,0,0,11.17,12.7L216,11.74A193.55,193.55,0,0,0,193.74,5.39ZM231.6,18.05,38.81,128.28c12.89,8.86,29,16,47.29,20.88l182-104C259.55,34.67,247.09,25.43,231.6,18.05Zm.13.45.1,0a.07.07,0,0,1,0,.06.05.05,0,0,1,0,.06.19.19,0,0,1-.1,0,.2.2,0,0,1-.11,0,.05.05,0,0,1,0-.06.07.07,0,0,1,0-.06Zm34,27.16h0c.08,0,.15,0,.15.08a.07.07,0,0,1,0,.06.2.2,0,0,1-.11,0c-.09,0-.15,0-.15-.09S265.68,45.66,265.76,45.66Z" class="cls-4"/><path data-cppathid="10021" d="M277.92,78.33c0,42.22-59.88,76.46-133.73,76.46S10.45,120.55,10.45,78.33c0-20.28,14.09-39.73,39.17-54.07s59.1-22.4,94.57-22.4,69.48,8.06,94.56,22.4S277.92,58.05,277.92,78.33Z" class="cls-6"/><path data-cppathid="10022" d="M191.2,6.84,19.09,105.25a72.13,72.13,0,0,0,11,12.8L213.64,13.1A189.92,189.92,0,0,0,191.2,6.84Zm38.07,12.54L41.12,127c12.86,8.89,29.07,16,47.42,20.81L265.62,46.52C257.24,36,244.82,26.74,229.27,19.38Zm-.18,2.45a1.55,1.55,0,0,1,.8.19.48.48,0,0,1,0,.91,1.78,1.78,0,0,1-1.6,0,.54.54,0,0,1-.33-.46C228,22.12,228.46,21.83,229.09,21.83Zm22.85,25c.62,0,1.12.29,1.12.64a.55.55,0,0,1-.33.45,1.8,1.8,0,0,1-1.57,0,.55.55,0,0,1-.33-.45C250.83,47.16,251.33,46.87,251.94,46.87Z" class="cls-3"/><path data-cppathid="10023" d="M260.63,78.33c0,36.77-52.13,66.57-116.44,66.57-30.89,0-60.51-7-82.34-19.5S27.74,96,27.74,78.33,40,43.73,61.85,31.25s51.45-19.5,82.34-19.5C208.5,11.75,260.63,41.56,260.63,78.33Z" class="cls-7"/><path data-cppathid="10024" d="M177.66,14.58,32.74,97.44a57.46,57.46,0,0,0,10,13.38L201.08,20.27A173.84,173.84,0,0,0,177.66,14.58ZM217,26.43,53.35,120c12.75,9.06,29.41,16,48.34,20.28L252.55,54C245.1,43.18,232.82,33.68,217,26.43Zm.25.64c.15,0,.27.07.27.15a.11.11,0,0,1-.08.11.39.39,0,0,1-.38,0,.12.12,0,0,1-.08-.11C216.93,27.14,217.05,27.07,217.2,27.07Zm11.29,13.21h.34a1.48,1.48,0,0,1,1.49,1.49V54a1.49,1.49,0,0,1-1.49,1.49h-.34A1.49,1.49,0,0,1,227,54V41.77A1.49,1.49,0,0,1,228.49,40.28Z" class="cls-1"/><path data-cppathid="10025" d="M144.19,14.25q4.37,0,8.72.22Q148.56,14.26,144.19,14.25Zm12.68.49q3.72.22,7.39.58Q160.59,15,156.87,14.74Zm9.92.9c2.87.33,5.73.72,8.56,1.17C172.52,16.36,169.66,16,166.79,15.64Zm9.77,1.4c3.22.55,6.41,1.19,9.54,1.9C183,18.23,179.78,17.59,176.56,17Zm9.54,1.9L52.51,93.5C51.19,92.74,49.85,92,49.79,92s-5.15,2.91-5.21,3,0,1.49,0,2.94l-5.14,2.88c16.38,25,58.12,41.54,104.79,41.58,29.72,0,58.22-6.75,79.24-18.77s32.82-28.31,32.82-45.3C256.22,52.21,228.47,28.71,186.1,18.94ZM39.4,100.82A48,48,0,0,1,36.66,96,48,48,0,0,0,39.4,100.82ZM36.66,96c-.51-1-1-2.06-1.4-3.1C35.68,93.92,36.15,95,36.66,96Zm-1.4-3.1c-.44-1-.83-2.08-1.18-3.13C34.43,90.8,34.82,91.84,35.26,92.88Zm-1.18-3.13c-.33-1-.62-2.11-.86-3.17C33.46,87.64,33.75,88.7,34.08,89.75Zm-.86-3.17c-.25-1-.46-2.11-.62-3.17C32.76,84.47,33,85.53,33.22,86.58Zm-.62-3.17a36.37,36.37,0,0,1-.48-5.08A36.37,36.37,0,0,0,32.6,83.41Zm76.51,11.86H113a1.49,1.49,0,0,1,1.49,1.49v14.13a1.49,1.49,0,0,1-1.49,1.49h-3.9a1.48,1.48,0,0,1-1.49-1.49V96.76A1.49,1.49,0,0,1,109.11,95.27Zm-25.28,16.5a5.26,5.26,0,0,1,3.76,1.59,5.49,5.49,0,0,1,0,7.65,5.26,5.26,0,0,1-3.76,1.59,5.42,5.42,0,0,1,0-10.83Z" class="cls-2"/><path data-cppathid="10026" d="M144.19,14.25C114.46,14.25,86,21,64.94,33S32.12,61.33,32.12,78.33a41,41,0,0,0,7.28,22.49L186.1,18.94A188.36,188.36,0,0,0,144.19,14.25ZM104,43.08h7.42V47H104Z" class="cls-2"/><rect data-cppathid="10027" height="6.72" width="11.82" y="41.92" x="101.81" class="cls-2"/><path data-cppathid="10028" d="M174.06,16.64,36.2,95.46A54.28,54.28,0,0,0,45.92,109l97-55.46a.82.82,0,0,0,.17.11l5.17-2.86c0-.11,0-.2,0-.33l49.6-28.36A169.62,169.62,0,0,0,174.06,16.64Zm39.77,11.57-157.37,90c12.71,9.1,29.53,16.06,48.65,20.1l2.45-1.4,3.52-1.81.1-.26L249.12,56C242,45,229.78,35.45,213.83,28.21Z" class="cls-8"/><path data-cppathid="10029" d="M153.29,117.26V105.84h27.32c5.47,0,9.12-2.08,9.12-5.2s-3.65-5.19-9.12-5.19H153.29V88.18h27.32c5.47,0,9.12-2.08,9.12-5.2s-3.65-5.19-9.12-5.19H156.94l39.17-22.33c3.63-2.08,3.63-5.2,0-7.27a13.83,13.83,0,0,0-12.76,0L144.19,70.52,105,48.19a13.79,13.79,0,0,0-12.74,0c-3.65,2.07-3.65,5.19,0,7.27l39.15,22.33H107.75c-5.46,0-9.11,2.07-9.11,5.19s3.65,5.2,9.11,5.2h27.33v7.27H107.75c-5.46,0-9.11,2.07-9.11,5.19s3.65,5.2,9.11,5.2h27.33v11.42c0,3.11,3.65,5.19,9.11,5.19S153.29,119.86,153.29,117.26Z" class="cls-9"/></g></g></svg>