<?xml version="1.0" encoding="UTF-8"?>
<svg xmlns="http://www.w3.org/2000/svg" onmouseup="{ if(window.parent.document.onmouseup) window.parent.document.onmouseup(arguments[0]);}" viewBox="0 0 290.51 326.04"><defs><style>.cls-1{fill:#ffb300;}.cls-2{fill:#ffa000;}.cls-3{fill:#ffd54f;}.cls-4{fill:#ffecb3;}.cls-5{fill:#ffe082;}.cls-6{fill:#ffca28;}.cls-7{fill:#ff8f00;}.cls-8{fill:#ffac1f;}.cls-9{fill:#ab6000;}</style></defs><g data-name="Layer 2" id="Layer_2"><g data-name="Main Object" id="Main_Object"><path data-cppathid="10000" d="M137,169.38c-44.46,0-86.12,12.41-111.74,33.19L0,211.17v36.67H0c0,9.67,3.18,19.25,9.31,28.27a75,75,0,0,0,11.09,12.62l.07.07h0c14,12.95,34.31,23.29,58.42,29.75A226.19,226.19,0,0,0,137,326c36.33,0,71.18-8.25,96.87-22.94S274,268.48,274,247.71a1.5,1.5,0,0,0,0-.2V211.89l-25.31-9.32q-.51-.47-1-.9l-1.12-.9c-2.22-1.69-4.57-3.32-7-4.9-.64-.43-1.29-.85-1.95-1.27-2.27-1.4-4.64-2.74-7.09-4-1.24-.69-2.51-1.37-3.8-2l-2.21-1.09h0a161.41,161.41,0,0,0-15.59-6.31h0q-5.72-2-11.75-3.7l-.61-.17c-3.24-.9-6.55-1.73-9.9-2.48h0A230.29,230.29,0,0,0,137,169.38Z" class="cls-1"/><path data-cppathid="10001" d="M205.64,214.26V315.41c30.48-10.09,53-26.51,62.84-45.84V214.26Z" class="cls-2"/><path data-cppathid="10002" d="M32.12,218v79.88c12.66,8.68,28.45,15.69,46.29,20.55V218Z" class="cls-3"/><path data-cppathid="10003" d="M9.5,204.52v71.79a75.41,75.41,0,0,0,10.93,12.42l0,0V204.52Z" class="cls-4"/><path data-cppathid="10004" d="M274,211.81c0,43.26-61.33,78.32-137,78.32S0,255.07,0,211.81c0-20.78,14.44-40.7,40.13-55.39s60.54-22.94,96.87-22.94,71.18,8.25,96.87,22.94S274,191,274,211.81Z" class="cls-5"/><path data-cppathid="10005" d="M186.56,138.87,9.33,240.2A75.64,75.64,0,0,0,20.5,252.9L208.83,145.22A193,193,0,0,0,186.56,138.87Zm37.86,12.66L31.64,261.76c12.88,8.86,29,16,47.28,20.88l182-104C252.38,168.15,239.92,158.91,224.42,151.53Zm.13.45a.15.15,0,0,1,.1,0,.06.06,0,0,1,0,.06s0,0,0,.06l-.1,0-.11,0s0,0,0-.06a.07.07,0,0,1,0-.06A.2.2,0,0,1,224.55,152Zm34,27.16h0c.09,0,.15,0,.15.09a.07.07,0,0,1,0,.06l-.11,0c-.08,0-.15,0-.15-.08S258.5,179.14,258.58,179.14Z" class="cls-4"/><path data-cppathid="10006" d="M270.74,211.81c0,42.23-59.87,76.46-133.73,76.46S3.28,254,3.28,211.81c0-20.28,14.09-39.73,39.17-54.07s59.09-22.39,94.56-22.39,69.48,8.05,94.56,22.39S270.74,191.53,270.74,211.81Z" class="cls-6"/><path data-cppathid="10007" d="M184,140.33,11.91,238.73a72.25,72.25,0,0,0,11,12.81l183.57-105A189.38,189.38,0,0,0,184,140.33Zm38.08,12.53L33.94,260.44c12.86,8.89,29.07,16,47.42,20.81L258.44,180C250.07,169.5,237.64,160.23,222.1,152.86Zm-.19,2.45a1.66,1.66,0,0,1,.8.19.48.48,0,0,1,0,.91,1.78,1.78,0,0,1-1.6,0,.55.55,0,0,1-.33-.45C220.78,155.6,221.29,155.31,221.91,155.31Zm22.86,25c.61,0,1.11.29,1.11.64a.55.55,0,0,1-.33.45,1.58,1.58,0,0,1-.78.19,1.62,1.62,0,0,1-.79-.19.54.54,0,0,1-.32-.45C243.66,180.64,244.15,180.35,244.77,180.35Z" class="cls-3"/><path data-cppathid="10008" d="M253.46,211.81c0,36.77-52.14,66.58-116.45,66.58-30.88,0-60.5-7-82.34-19.5s-34.11-29.42-34.11-47.08,12.27-34.59,34.11-47.08,51.46-19.5,82.34-19.5C201.32,145.23,253.46,175,253.46,211.81Z" class="cls-7"/><path data-cppathid="10009" d="M170.48,148.07,25.56,230.92a57.52,57.52,0,0,0,10,13.38l158.37-90.54A172.48,172.48,0,0,0,170.48,148.07Zm39.29,11.84L46.18,253.44c12.74,9.06,29.4,16.05,48.34,20.29l150.86-86.26C237.92,176.67,225.64,167.16,209.77,159.91Zm.26.64c.15,0,.27.07.27.16a.14.14,0,0,1-.08.11.38.38,0,0,1-.19,0,.4.4,0,0,1-.2,0,.14.14,0,0,1-.08-.11C209.75,160.62,209.88,160.55,210,160.55Zm11.28,13.21h.35a1.49,1.49,0,0,1,1.49,1.49v12.21a1.49,1.49,0,0,1-1.49,1.49h-.35a1.49,1.49,0,0,1-1.48-1.49V175.25A1.49,1.49,0,0,1,221.31,173.76Z" class="cls-1"/><path data-cppathid="10010" d="M137,147.74q4.37,0,8.72.21Q141.38,147.74,137,147.74Zm12.69.49c2.47.14,4.94.33,7.39.57C154.64,148.56,152.17,148.37,149.7,148.23Zm9.91.89q4.32.49,8.56,1.18Q163.93,149.61,159.61,149.12Zm9.77,1.4q4.85.84,9.54,1.9Q174.23,151.36,169.38,150.52Zm9.54,1.9L45.33,227c-1.31-.75-2.66-1.51-2.72-1.51s-5.14,2.9-5.2,3,0,1.49,0,3l-5.15,2.87c16.38,25,58.12,41.55,104.79,41.58,29.72,0,58.22-6.75,79.24-18.77s32.82-28.31,32.82-45.3C249.05,185.69,221.29,162.19,178.92,152.42ZM32.22,234.3a48.75,48.75,0,0,1-2.73-4.84A48.75,48.75,0,0,0,32.22,234.3Zm-2.73-4.84c-.52-1-1-2.06-1.41-3.1C28.51,227.4,29,228.43,29.49,229.46Zm-1.41-3.1c-.44-1-.83-2.08-1.18-3.13C27.25,224.28,27.64,225.32,28.08,226.36Zm-1.18-3.13c-.33-1-.61-2.11-.85-3.16C26.29,221.12,26.57,222.18,26.9,223.23Zm-.85-3.16q-.39-1.59-.63-3.18Q25.66,218.48,26.05,220.07Zm-.63-3.18a38,38,0,0,1-.48-5.08A38,38,0,0,0,25.42,216.89Zm76.51,11.86h3.9a1.49,1.49,0,0,1,1.49,1.49v14.14a1.49,1.49,0,0,1-1.49,1.49h-3.9a1.49,1.49,0,0,1-1.49-1.49V230.24A1.49,1.49,0,0,1,101.93,228.75Zm-25.28,16.5a5.26,5.26,0,0,1,3.76,1.59,5.49,5.49,0,0,1,0,7.65,5.26,5.26,0,0,1-3.76,1.59,5.42,5.42,0,0,1,0-10.83Z" class="cls-2"/><path data-cppathid="10011" d="M137,147.74c-29.72,0-58.23,6.75-79.24,18.76s-32.83,28.31-32.83,45.31a41,41,0,0,0,7.28,22.49l146.7-81.88A187.64,187.64,0,0,0,137,147.74ZM96.8,176.56h7.42v3.93H96.8Z" class="cls-2"/><rect data-cppathid="10012" height="6.72" width="11.82" y="175.4" x="94.64" class="cls-2"/><path data-cppathid="10013" d="M166.88,150.12,29,228.94a54,54,0,0,0,9.71,13.53l97-55.46.17.12,5.17-2.87a2.79,2.79,0,0,0,0-.32l49.6-28.36A167.92,167.92,0,0,0,166.88,150.12Zm39.77,11.57-157.37,90c12.72,9.11,29.54,16.06,48.65,20.1l2.45-1.4,3.52-1.81.1-.25,138-78.88C234.81,178.53,222.61,168.93,206.65,161.69Z" class="cls-8"/><path data-cppathid="10014" d="M146.11,250.74V239.32h27.33c5.46,0,9.11-2.08,9.11-5.2s-3.65-5.19-9.11-5.19H146.11v-7.27h27.33c5.46,0,9.11-2.08,9.11-5.2s-3.65-5.19-9.11-5.19H149.76l39.17-22.33c3.63-2.08,3.63-5.2,0-7.27a13.83,13.83,0,0,0-12.76,0L137,204,97.85,181.67a13.81,13.81,0,0,0-12.75,0c-3.65,2.07-3.65,5.19,0,7.27l39.15,22.33H100.58c-5.47,0-9.11,2.08-9.11,5.19s3.64,5.2,9.11,5.2H127.9v7.27H100.58c-5.47,0-9.11,2.08-9.11,5.19s3.64,5.2,9.11,5.2H127.9v11.42c0,3.12,3.65,5.2,9.11,5.2S146.11,253.34,146.11,250.74Z" class="cls-9"/><path data-cppathid="10015" d="M144.9,127.76c-44.45,0-86.12,12.41-111.74,33.18l-25.27,8.6v36.68h0c0,9.67,3.18,19.25,9.31,28.26a75.51,75.51,0,0,0,11.09,12.63l.07.07h0c14,12.95,34.31,23.29,58.43,29.74a226.06,226.06,0,0,0,58.08,7.49c36.34,0,71.18-8.25,96.87-22.94s40.13-34.61,40.13-55.38c0-.07,0-.13,0-.2V170.27l-25.31-9.33-1-.9-1.12-.9c-2.23-1.68-4.57-3.32-7-4.89-.64-.43-1.29-.85-2-1.27q-3.42-2.1-7.09-4c-1.25-.68-2.52-1.36-3.8-2l-2.21-1.09h0a164,164,0,0,0-15.59-6.32h0q-5.72-2-11.75-3.7l-.61-.17q-4.86-1.35-9.9-2.47h0A229.82,229.82,0,0,0,144.9,127.76Z" class="cls-1"/><path data-cppathid="10016" d="M213.53,172.64V273.79c30.48-10.09,53-26.51,62.85-45.84V172.64Z" class="cls-2"/><path data-cppathid="10017" d="M40,176.34v79.87c12.66,8.69,28.45,15.7,46.3,20.56V176.34Z" class="cls-3"/><path data-cppathid="10018" d="M17.39,162.9v71.79a75.81,75.81,0,0,0,10.93,12.42l.05,0V162.9Z" class="cls-4"/><path data-cppathid="10019" d="M281.9,170.18c0,43.26-61.34,78.33-137,78.33s-137-35.07-137-78.33c0-20.77,14.43-40.69,40.12-55.38s60.54-22.94,96.87-22.94,71.18,8.25,96.87,22.94S281.9,149.41,281.9,170.18Z" class="cls-5"/><path data-cppathid="10020" d="M194.46,97.25,17.23,198.58a75.56,75.56,0,0,0,11.16,12.7L216.72,103.6A193.38,193.38,0,0,0,194.46,97.25Zm37.85,12.66L39.53,220.13c12.88,8.87,29,16,47.29,20.89l182-104C260.27,126.52,247.81,117.28,232.31,109.91Zm.13.45.11,0a.07.07,0,0,1,0,.06.06.06,0,0,1,0,.06.2.2,0,0,1-.11,0,.17.17,0,0,1-.1,0,.06.06,0,0,1,0-.06.07.07,0,0,1,0-.06Zm34,27.16h0c.08,0,.15,0,.15.08a.07.07,0,0,1-.05.06.15.15,0,0,1-.1,0c-.09,0-.16,0-.16-.09A.15.15,0,0,1,266.48,137.52Z" class="cls-4"/><path data-cppathid="10021" d="M278.64,170.18c0,42.23-59.88,76.47-133.74,76.47S11.17,212.41,11.17,170.18c0-20.27,14.09-39.72,39.17-54.06s59.1-22.4,94.56-22.4,69.49,8.06,94.57,22.4S278.64,149.91,278.64,170.18Z" class="cls-6"/><path data-cppathid="10022" d="M191.92,98.7,19.8,197.11a72.62,72.62,0,0,0,11,12.8L214.36,105A190.45,190.45,0,0,0,191.92,98.7ZM230,111.24,41.84,218.81c12.86,8.9,29.07,16,47.42,20.81L266.34,138.38C258,127.88,245.53,118.6,230,111.24Zm-.18,2.45a1.69,1.69,0,0,1,.8.18.58.58,0,0,1,.33.46.57.57,0,0,1-.33.46,1.8,1.8,0,0,1-1.61,0,.57.57,0,0,1-.33-.46C228.67,114,229.18,113.69,229.81,113.69Zm22.85,25c.62,0,1.11.28,1.11.64a.55.55,0,0,1-.32.45,1.62,1.62,0,0,1-.79.18,1.58,1.58,0,0,1-.78-.18.57.57,0,0,1-.33-.45C251.55,139,252.05,138.73,252.66,138.73Z" class="cls-3"/><path data-cppathid="10023" d="M261.35,170.18c0,36.77-52.14,66.58-116.45,66.58-30.88,0-60.5-7-82.34-19.5s-34.1-29.42-34.1-47.08,12.27-34.59,34.1-47.07,51.46-19.5,82.34-19.5C209.21,103.61,261.35,133.41,261.35,170.18Z" class="cls-7"/><path data-cppathid="10024" d="M178.38,106.44,33.46,189.3a57.67,57.67,0,0,0,10,13.38L201.8,112.13A172.7,172.7,0,0,0,178.38,106.44Zm39.29,11.84L54.07,211.82c12.74,9.06,29.41,16.05,48.34,20.28l150.86-86.25C245.81,135,233.54,125.54,217.67,118.28Zm.25.65c.15,0,.27.07.27.15a.14.14,0,0,1-.08.11.39.39,0,0,1-.38,0,.14.14,0,0,1-.08-.11C217.65,119,217.77,118.93,217.92,118.93Zm11.29,13.21h.34a1.48,1.48,0,0,1,1.49,1.49v12.2a1.48,1.48,0,0,1-1.49,1.49h-.34a1.48,1.48,0,0,1-1.49-1.49v-12.2A1.48,1.48,0,0,1,229.21,132.14Z" class="cls-1"/><path data-cppathid="10025" d="M144.9,106.11q4.38,0,8.73.22Q149.28,106.12,144.9,106.11Zm12.69.49q3.72.23,7.39.58Q161.31,106.82,157.59,106.6Zm9.91.9c2.88.33,5.74.72,8.56,1.17C173.24,108.22,170.38,107.83,167.5,107.5Zm9.77,1.4c3.23.55,6.42,1.19,9.55,1.9C183.69,110.09,180.5,109.45,177.27,108.9Zm9.55,1.9L53.22,185.36c-1.31-.76-2.66-1.52-2.72-1.52s-5.14,2.91-5.2,3,0,1.5,0,3l-5.15,2.88c16.39,25,58.13,41.54,104.79,41.58,29.72,0,58.23-6.75,79.24-18.77S257,187.18,257,170.18C256.94,144.07,229.19,120.57,186.82,110.8ZM40.11,192.68a48.89,48.89,0,0,1-2.73-4.85A48.89,48.89,0,0,0,40.11,192.68Zm-2.73-4.85c-.51-1-1-2.05-1.4-3.09C36.4,185.78,36.87,186.81,37.38,187.83ZM36,184.74c-.44-1-.83-2.08-1.18-3.13C35.15,182.66,35.54,183.7,36,184.74Zm-1.18-3.13c-.33-1.05-.62-2.11-.86-3.17C34.18,179.5,34.47,180.56,34.8,181.61Zm-.86-3.17c-.25-1.05-.46-2.11-.63-3.17C33.48,176.33,33.69,177.39,33.94,178.44Zm-.63-3.17a37.92,37.92,0,0,1-.47-5.09A37.92,37.92,0,0,0,33.31,175.27Zm76.52,11.86h3.89a1.48,1.48,0,0,1,1.49,1.49v14.13a1.48,1.48,0,0,1-1.49,1.49h-3.89a1.48,1.48,0,0,1-1.49-1.49V188.62A1.48,1.48,0,0,1,109.83,187.13Zm-25.28,16.5a5.25,5.25,0,0,1,3.75,1.58,5.48,5.48,0,0,1,0,7.66,5.22,5.22,0,0,1-3.75,1.59,5.42,5.42,0,0,1,0-10.83Z" class="cls-2"/><path data-cppathid="10026" d="M144.9,106.11c-29.72,0-58.22,6.75-79.24,18.77s-32.82,28.31-32.82,45.3a41,41,0,0,0,7.27,22.5L186.82,110.8A187.8,187.8,0,0,0,144.9,106.11Zm-40.2,28.83h7.42v3.93H104.7Z" class="cls-2"/><rect data-cppathid="10027" height="6.72" width="11.82" y="133.77" x="102.53" class="cls-2"/><path data-cppathid="10028" d="M174.78,108.5,36.92,187.32a54,54,0,0,0,9.72,13.53l97-55.46.17.11,5.18-2.86c0-.11,0-.2,0-.33L198.62,114A169.94,169.94,0,0,0,174.78,108.5Zm39.77,11.57-157.38,90c12.72,9.1,29.54,16,48.66,20.1l2.45-1.4,3.52-1.81.09-.26,138-78.87C242.7,136.9,230.5,127.31,214.55,120.07Z" class="cls-8"/><path data-cppathid="10029" d="M154,209.12V197.7h27.32c5.47,0,9.11-2.08,9.11-5.2s-3.64-5.2-9.11-5.2H154V180h27.32c5.47,0,9.11-2.08,9.11-5.2s-3.64-5.19-9.11-5.19H157.65l39.17-22.33c3.64-2.08,3.64-5.2,0-7.27a13.83,13.83,0,0,0-12.76,0l-39.15,22.32-39.17-22.32a13.81,13.81,0,0,0-12.75,0c-3.64,2.07-3.64,5.19,0,7.27l39.16,22.33H108.47c-5.46,0-9.11,2.07-9.11,5.19s3.65,5.2,9.11,5.2H135.8v7.26H108.47c-5.46,0-9.11,2.08-9.11,5.2s3.65,5.2,9.11,5.2H135.8v11.42c0,3.11,3.64,5.19,9.11,5.19S154,211.72,154,209.12Z" class="cls-9"/><path data-cppathid="10030" d="M153.52,84.7c-44.46,0-86.12,12.41-111.75,33.18l-25.26,8.6v36.68h0c0,9.67,3.18,19.25,9.31,28.26a75.58,75.58,0,0,0,11.1,12.63l.07.07h0c14,12.95,34.3,23.29,58.42,29.74a226.17,226.17,0,0,0,58.08,7.5c36.34,0,71.18-8.26,96.87-23S290.51,183.8,290.51,163c0-.07,0-.13,0-.2V127.21l-25.31-9.33-1.05-.9c-.37-.3-.74-.6-1.12-.89q-3.35-2.53-7-4.9c-.64-.43-1.29-.85-1.95-1.27q-3.42-2.1-7.09-4c-1.25-.69-2.51-1.37-3.8-2l-2.21-1.09h0a161.41,161.41,0,0,0-15.59-6.31h0q-5.72-2-11.74-3.71l-.62-.16q-4.86-1.35-9.9-2.48h0A229.73,229.73,0,0,0,153.52,84.7Z" class="cls-1"/><path data-cppathid="10031" d="M222.15,129.58V230.73c30.47-10.09,53-26.51,62.84-45.84V129.58Z" class="cls-2"/><path data-cppathid="10032" d="M48.63,133.28v79.88c12.65,8.68,28.44,15.69,46.29,20.55V133.28Z" class="cls-3"/><path data-cppathid="10033" d="M26,119.84v71.79a75.42,75.42,0,0,0,10.94,12.42l0,0V119.84Z" class="cls-4"/><path data-cppathid="10034" d="M290.51,127.13c0,43.25-61.34,78.32-137,78.32s-137-35.07-137-78.32c0-20.78,14.43-40.7,40.13-55.39S117.18,48.8,153.51,48.8s71.18,8.25,96.87,22.94S290.51,106.35,290.51,127.13Z" class="cls-5"/><path data-cppathid="10035" d="M203.07,54.19,25.84,155.52A75.19,75.19,0,0,0,37,168.22L225.34,60.54A193.55,193.55,0,0,0,203.07,54.19Zm37.86,12.66L48.14,177.08c12.88,8.86,29,16,47.29,20.88l182-104C268.88,83.47,256.42,74.23,240.93,66.85Zm.12.45.11,0a.07.07,0,0,1,0,.06.05.05,0,0,1,0,.06.2.2,0,0,1-.11,0,.19.19,0,0,1-.1,0,.05.05,0,0,1,0-.06.07.07,0,0,1,0-.06Zm34,27.16h0c.08,0,.15,0,.15.08a.07.07,0,0,1,0,.06.2.2,0,0,1-.11,0c-.09,0-.15,0-.15-.09S275,94.46,275.09,94.46Z" class="cls-4"/><path data-cppathid="10036" d="M287.25,127.13c0,42.22-59.88,76.46-133.74,76.46S19.78,169.35,19.78,127.13c0-20.28,14.09-39.73,39.17-54.07s59.1-22.4,94.56-22.4,69.49,8.06,94.57,22.4S287.25,106.85,287.25,127.13Z" class="cls-6"/><path data-cppathid="10037" d="M200.53,55.64,28.41,154.05a72.62,72.62,0,0,0,11,12.8L223,61.9A190.45,190.45,0,0,0,200.53,55.64ZM238.6,68.18,50.45,175.76c12.86,8.89,29.07,16,47.42,20.81L275,95.32C266.57,84.82,254.14,75.54,238.6,68.18Zm-.18,2.45a1.55,1.55,0,0,1,.8.19.48.48,0,0,1,0,.91,1.78,1.78,0,0,1-1.6,0,.54.54,0,0,1-.33-.46C237.29,70.92,237.79,70.63,238.42,70.63Zm22.85,25c.62,0,1.12.29,1.12.64a.55.55,0,0,1-.33.45,1.8,1.8,0,0,1-1.57,0,.55.55,0,0,1-.33-.45C260.16,96,260.66,95.67,261.27,95.67Z" class="cls-3"/><path data-cppathid="10038" d="M270,127.13c0,36.77-52.13,66.57-116.45,66.57-30.88,0-60.5-7-82.33-19.5s-34.11-29.42-34.11-47.07,12.27-34.6,34.11-47.08,51.45-19.5,82.33-19.5C217.83,60.55,270,90.36,270,127.13Z" class="cls-7"/><path data-cppathid="10039" d="M187,63.38,42.07,146.24a57.46,57.46,0,0,0,10,13.38L210.41,69.07A173.84,173.84,0,0,0,187,63.38Zm39.29,11.85L62.68,168.76C75.42,177.82,92.09,184.81,111,189l150.86-86.25C254.42,92,242.15,82.48,226.28,75.23Zm.25.64c.15,0,.27.07.27.15a.11.11,0,0,1-.08.11.39.39,0,0,1-.38,0,.12.12,0,0,1-.08-.11C226.26,75.94,226.38,75.87,226.53,75.87Zm11.29,13.21h.34a1.48,1.48,0,0,1,1.49,1.49v12.21a1.49,1.49,0,0,1-1.49,1.49h-.34a1.49,1.49,0,0,1-1.49-1.49V90.57A1.49,1.49,0,0,1,237.82,89.08Z" class="cls-1"/><path data-cppathid="10040" d="M153.51,63.05q4.38,0,8.73.22Q157.89,63.06,153.51,63.05Zm12.69.49q3.72.23,7.39.58Q169.91,63.76,166.2,63.54Zm9.91.9c2.88.33,5.74.72,8.56,1.17C181.85,65.16,179,64.77,176.11,64.44Zm9.77,1.4c3.23.55,6.42,1.19,9.55,1.9C192.3,67,189.11,66.39,185.88,65.84Zm9.55,1.9L61.84,142.3c-1.32-.76-2.66-1.52-2.73-1.52s-5.14,2.91-5.2,3,0,1.49,0,2.94l-5.14,2.88c16.38,25,58.12,41.54,104.78,41.58,29.73,0,58.23-6.75,79.25-18.77s32.82-28.31,32.82-45.3C265.55,101,237.8,77.51,195.43,67.74ZM48.73,149.62A48,48,0,0,1,46,144.78,48,48,0,0,0,48.73,149.62ZM46,144.78c-.51-1-1-2.06-1.4-3.1C45,142.72,45.48,143.75,46,144.78Zm-1.4-3.1c-.44-1-.83-2.08-1.18-3.13C43.76,139.6,44.15,140.64,44.59,141.68Zm-1.18-3.13c-.33-1.05-.62-2.11-.86-3.17C42.79,136.44,43.08,137.5,43.41,138.55Zm-.86-3.17c-.25-1-.46-2.11-.62-3.17C42.09,133.27,42.3,134.33,42.55,135.38Zm-.62-3.17a36.37,36.37,0,0,1-.48-5.08A36.37,36.37,0,0,0,41.93,132.21Zm76.51,11.86h3.9a1.49,1.49,0,0,1,1.49,1.49v14.13a1.49,1.49,0,0,1-1.49,1.49h-3.9a1.48,1.48,0,0,1-1.49-1.49V145.56A1.49,1.49,0,0,1,118.44,144.07Zm-25.28,16.5a5.22,5.22,0,0,1,3.75,1.59,5.47,5.47,0,0,1,0,7.65,5.22,5.22,0,0,1-3.75,1.59,5.42,5.42,0,0,1,0-10.83Z" class="cls-2"/><path data-cppathid="10041" d="M153.51,63.05c-29.72,0-58.22,6.75-79.24,18.77s-32.82,28.31-32.82,45.31a41,41,0,0,0,7.28,22.49l146.7-81.88A188.38,188.38,0,0,0,153.51,63.05Zm-40.2,28.83h7.42v3.93h-7.42Z" class="cls-2"/><rect data-cppathid="10042" height="6.72" width="11.82" y="90.72" x="111.14" class="cls-2"/><path data-cppathid="10043" d="M183.39,65.44,45.53,144.26a54.28,54.28,0,0,0,9.72,13.53l97-55.46.18.11,5.17-2.86c0-.11,0-.2,0-.33l49.6-28.36A169.94,169.94,0,0,0,183.39,65.44ZM223.16,77,65.78,167c12.72,9.1,29.54,16.06,48.66,20.1l2.45-1.4,3.52-1.81.1-.26,137.94-78.87C251.32,93.84,239.11,84.25,223.16,77Z" class="cls-8"/><path data-cppathid="10044" d="M162.62,166.06V154.64h27.32c5.47,0,9.11-2.08,9.11-5.2s-3.64-5.19-9.11-5.19H162.62V137h27.32c5.47,0,9.11-2.08,9.11-5.2s-3.64-5.19-9.11-5.19H166.27l39.16-22.33c3.64-2.08,3.64-5.2,0-7.27a13.83,13.83,0,0,0-12.76,0l-39.15,22.33L114.35,97a13.79,13.79,0,0,0-12.74,0c-3.65,2.07-3.65,5.19,0,7.27l39.15,22.33H117.08c-5.46,0-9.11,2.07-9.11,5.19s3.65,5.2,9.11,5.2h27.33v7.27H117.08c-5.46,0-9.11,2.07-9.11,5.19s3.65,5.2,9.11,5.2h27.33v11.42c0,3.11,3.65,5.19,9.11,5.19S162.62,168.66,162.62,166.06Z" class="cls-9"/><path data-cppathid="10045" d="M146.34,35.9c-44.46,0-86.12,12.41-111.74,33.18L9.33,77.68v36.68h0c0,9.67,3.18,19.25,9.3,28.26a75.58,75.58,0,0,0,11.1,12.63l.07.07h0c14,13,34.31,23.29,58.42,29.74a226.19,226.19,0,0,0,58.09,7.5c36.33,0,71.18-8.26,96.87-22.95s40.12-34.61,40.12-55.38a1.36,1.36,0,0,0,0-.2V78.41L258,69.08l-1.05-.9c-.37-.3-.74-.6-1.12-.89-2.22-1.69-4.57-3.32-7-4.9-.64-.43-1.29-.85-2-1.27-2.27-1.4-4.64-2.75-7.09-4-1.24-.69-2.51-1.37-3.8-2L233.75,54h0a162.46,162.46,0,0,0-15.59-6.31h0q-5.72-2-11.75-3.71l-.61-.16c-3.24-.9-6.55-1.73-9.9-2.48h0A229.66,229.66,0,0,0,146.34,35.9Z" class="cls-1"/><path data-cppathid="10046" d="M215,80.78V181.93c30.48-10.09,53-26.51,62.84-45.84V80.78Z" class="cls-2"/><path data-cppathid="10047" d="M41.45,84.48v79.88C54.11,173,69.9,180.05,87.74,184.91V84.48Z" class="cls-3"/><path data-cppathid="10048" d="M18.83,71v71.79a75.81,75.81,0,0,0,10.93,12.42l0,0V71Z" class="cls-4"/><path data-cppathid="10049" d="M283.33,78.33c0,43.25-61.33,78.32-137,78.32s-137-35.07-137-78.32c0-20.78,14.44-40.7,40.13-55.39S110,0,146.34,0s71.18,8.25,96.87,22.94S283.33,57.55,283.33,78.33Z" class="cls-5"/><path data-cppathid="10050" d="M195.89,5.39,18.66,106.72a75.64,75.64,0,0,0,11.17,12.7L218.16,11.74A193,193,0,0,0,195.89,5.39Zm37.86,12.66L41,128.28c12.88,8.86,29,16,47.28,20.88l182-104C261.71,34.67,249.25,25.43,233.75,18.05Zm.13.45.1,0s.05,0,.05.06a.06.06,0,0,1-.05.06.17.17,0,0,1-.1,0,.2.2,0,0,1-.11,0,.07.07,0,0,1,0-.06s0,0,0-.06Zm34,27.16h0c.09,0,.15,0,.15.08a.05.05,0,0,1,0,.06.2.2,0,0,1-.11,0c-.08,0-.15,0-.15-.09S267.83,45.66,267.91,45.66Z" class="cls-4"/><path data-cppathid="10051" d="M280.07,78.33c0,42.22-59.87,76.46-133.73,76.46S12.61,120.55,12.61,78.33c0-20.28,14.09-39.73,39.16-54.07s59.1-22.4,94.57-22.4,69.48,8.06,94.56,22.4S280.07,58.05,280.07,78.33Z" class="cls-6"/><path data-cppathid="10052" d="M193.35,6.84,21.24,105.25a72.2,72.2,0,0,0,11,12.8L215.79,13.1A189.38,189.38,0,0,0,193.35,6.84Zm38.08,12.54L43.27,127c12.86,8.89,29.07,16,47.42,20.81L267.77,46.52C259.39,36,247,26.74,231.43,19.38Zm-.19,2.45a1.55,1.55,0,0,1,.8.19.48.48,0,0,1,0,.91,1.78,1.78,0,0,1-1.6,0,.55.55,0,0,1-.33-.46C230.11,22.12,230.62,21.83,231.24,21.83Zm22.86,25c.61,0,1.11.29,1.11.64a.55.55,0,0,1-.33.45,1.8,1.8,0,0,1-1.57,0,.55.55,0,0,1-.33-.45C253,47.16,253.48,46.87,254.1,46.87Z" class="cls-3"/><path data-cppathid="10053" d="M262.78,78.33c0,36.77-52.13,66.57-116.44,66.57-30.88,0-60.5-7-82.34-19.5S29.89,96,29.89,78.33,42.16,43.73,64,31.25s51.46-19.5,82.34-19.5C210.65,11.75,262.78,41.56,262.78,78.33Z" class="cls-7"/><path data-cppathid="10054" d="M179.81,14.58,34.89,97.44a57.75,57.75,0,0,0,10,13.38L203.24,20.27A174.35,174.35,0,0,0,179.81,14.58ZM219.1,26.43,55.51,120c12.74,9.06,29.4,16,48.34,20.28L254.71,54C247.25,43.18,235,33.68,219.1,26.43Zm.26.64c.15,0,.27.07.27.15a.12.12,0,0,1-.08.11.38.38,0,0,1-.19.05.39.39,0,0,1-.2-.05.12.12,0,0,1-.08-.11C219.08,27.14,219.2,27.07,219.36,27.07Zm11.28,13.21H231a1.49,1.49,0,0,1,1.49,1.49V54A1.49,1.49,0,0,1,231,55.47h-.35A1.49,1.49,0,0,1,229.15,54V41.77A1.49,1.49,0,0,1,230.64,40.28Z" class="cls-1"/><path data-cppathid="10055" d="M146.34,14.25q4.36,0,8.72.22Q150.71,14.26,146.34,14.25Zm12.69.49c2.47.15,4.94.34,7.39.58C164,15.08,161.5,14.89,159,14.74Zm9.91.9q4.32.5,8.56,1.17Q173.26,16.13,168.94,15.64Zm9.77,1.4c3.23.55,6.41,1.19,9.54,1.9C185.12,18.23,181.94,17.59,178.71,17Zm9.54,1.9L54.66,93.5C53.35,92.74,52,92,51.94,92s-5.14,2.91-5.2,3,0,1.49,0,2.94l-5.15,2.88c16.38,25,58.12,41.54,104.79,41.58,29.72,0,58.22-6.75,79.24-18.77s32.82-28.31,32.82-45.3C258.38,52.21,230.62,28.71,188.25,18.94ZM41.55,100.82A47.89,47.89,0,0,1,38.82,96,47.89,47.89,0,0,0,41.55,100.82ZM38.82,96c-.52-1-1-2.06-1.41-3.1C37.84,93.92,38.3,95,38.82,96Zm-1.41-3.1c-.44-1-.83-2.08-1.18-3.13C36.58,90.8,37,91.84,37.41,92.88Zm-1.18-3.13c-.33-1-.61-2.11-.85-3.17C35.62,87.64,35.9,88.7,36.23,89.75Zm-.85-3.17c-.26-1-.47-2.11-.63-3.17C34.91,84.47,35.12,85.53,35.38,86.58Zm-.63-3.17a38,38,0,0,1-.48-5.08A38,38,0,0,0,34.75,83.41Zm76.51,11.86h3.9a1.49,1.49,0,0,1,1.49,1.49v14.13a1.48,1.48,0,0,1-1.49,1.49h-3.9a1.49,1.49,0,0,1-1.49-1.49V96.76A1.49,1.49,0,0,1,111.26,95.27ZM86,111.77a5.26,5.26,0,0,1,3.76,1.59,5.49,5.49,0,0,1,0,7.65A5.26,5.26,0,0,1,86,122.6a5.42,5.42,0,0,1,0-10.83Z" class="cls-2"/><path data-cppathid="10056" d="M146.34,14.25C116.62,14.25,88.11,21,67.1,33S34.27,61.33,34.27,78.33a41,41,0,0,0,7.28,22.49l146.7-81.88A188.23,188.23,0,0,0,146.34,14.25ZM106.13,43.08h7.42V47h-7.42Z" class="cls-2"/><rect data-cppathid="10057" height="6.72" width="11.82" y="41.92" x="103.96" class="cls-2"/><path data-cppathid="10058" d="M176.21,16.64,38.36,95.46A54,54,0,0,0,48.07,109l97-55.46.17.11,5.17-2.86a3,3,0,0,0,0-.33l49.6-28.36A169.3,169.3,0,0,0,176.21,16.64ZM216,28.21l-157.37,90c12.72,9.1,29.54,16.06,48.65,20.1l2.45-1.4,3.52-1.81.1-.26L251.28,56C244.14,45,231.94,35.45,216,28.21Z" class="cls-8"/><path data-cppathid="10059" d="M155.44,117.26V105.84h27.33c5.46,0,9.11-2.08,9.11-5.2s-3.65-5.19-9.11-5.19H155.44V88.18h27.33c5.46,0,9.11-2.08,9.11-5.2s-3.65-5.19-9.11-5.19H159.09l39.17-22.33c3.63-2.08,3.63-5.2,0-7.27a13.83,13.83,0,0,0-12.76,0L146.34,70.52,107.18,48.19a13.81,13.81,0,0,0-12.75,0c-3.65,2.07-3.65,5.19,0,7.27l39.15,22.33H109.91c-5.47,0-9.11,2.07-9.11,5.19s3.64,5.2,9.11,5.2h27.32v7.27H109.91c-5.47,0-9.11,2.07-9.11,5.19s3.64,5.2,9.11,5.2h27.32v11.42c0,3.11,3.65,5.19,9.11,5.19S155.44,119.86,155.44,117.26Z" class="cls-9"/></g></g></svg>