<?xml version="1.0" encoding="UTF-8"?>
<svg xmlns="http://www.w3.org/2000/svg" onmouseup="{ if(window.parent.document.onmouseup) window.parent.document.onmouseup(arguments[0]);}" viewBox="0 0 101.36 275.17"><defs><style>.cls-1{fill:#7a4e06;}.cls-2{fill:#aa6f07;}</style></defs><g data-name="Layer 2" id="Layer_2"><g id="lader"><path data-cppathid="10000" d="M101.18,252.32c.53,2.25-.15,4.33-1.52,4.66h0c-1.36.32-2.9-1.24-3.43-3.49L37.6,4.7C37.07,2.45,37.75.36,39.12,0h0c1.37-.32,2.9,1.24,3.43,3.49Z" class="cls-1"/><path data-cppathid="10001" d="M69.63,270a4.18,4.18,0,0,1-3.11,5h0a4.18,4.18,0,0,1-5-3.11L.11,11.48a4.19,4.19,0,0,1,3.12-5h0a4.18,4.18,0,0,1,5,3.11Z" class="cls-2"/><path data-cppathid="10002" d="M46.22,25.33a2.78,2.78,0,0,1-2.29,3.19l-29.2,4.8A2.76,2.76,0,0,1,11.55,31h0a2.77,2.77,0,0,1,2.28-3.19L43,23.05a2.78,2.78,0,0,1,3.19,2.28Z" class="cls-2"/><path data-cppathid="10003" d="M56.11,67.3a2.78,2.78,0,0,1-2.29,3.19l-29.2,4.8A2.76,2.76,0,0,1,21.44,73h0a2.77,2.77,0,0,1,2.29-3.19L52.92,65a2.77,2.77,0,0,1,3.19,2.28Z" class="cls-2"/><path data-cppathid="10004" d="M66.48,111.15a2.78,2.78,0,0,1-2,3.36l-28.74,7a2.77,2.77,0,0,1-3.35-2h0a2.77,2.77,0,0,1,2-3.36l28.74-7a2.77,2.77,0,0,1,3.35,2Z" class="cls-2"/><path data-cppathid="10005" d="M77,155.65A2.77,2.77,0,0,1,75,159.08l-28.45,8.13a2.77,2.77,0,0,1-3.42-1.9h0a2.78,2.78,0,0,1,1.9-3.43l28.45-8.13a2.78,2.78,0,0,1,3.43,1.9Z" class="cls-2"/><path data-cppathid="10006" d="M88.4,204.7a2.78,2.78,0,0,1-1.65,3.55L59,218.43a2.77,2.77,0,0,1-3.55-1.65h0a2.78,2.78,0,0,1,1.64-3.56l27.79-10.17a2.77,2.77,0,0,1,3.56,1.65Z" class="cls-2"/></g></g></svg>