<?xml version="1.0" encoding="UTF-8"?>
<svg xmlns="http://www.w3.org/2000/svg" onmouseup="{ if(window.parent.document.onmouseup) window.parent.document.onmouseup(arguments[0]);}" viewBox="0 0 403.28 969.2"><defs><style>.cls-1,.cls-10,.cls-4,.cls-7{fill:#fff100;}.cls-1,.cls-2,.cls-3{opacity:0.5;}.cls-11,.cls-3,.cls-6{fill:#603813;}.cls-4,.cls-5,.cls-6{opacity:0.25;}.cls-7,.cls-8{opacity:0.12;}.cls-9{fill:#3b2314;opacity:0.12;}</style></defs><g data-name="Layer 2" id="Layer_2"><g id="backlog"><g data-name="2023 jp" id="_2023_jp"><g data-name="semi-refined Product Backlog" id="semi-refined_Product_Backlog"><g data-name="bottom faded PBIs" id="bottom_faded_PBIs"><g data-name="another PBI" id="another_PBI"><path data-cppathid="10000" transform="translate(0 0)" d="M361.08,834a9.86,9.86,0,0,1-9.85,9.85H50A9.86,9.86,0,0,1,40.12,834V785.15A9.85,9.85,0,0,1,50,775.3H351.23a9.85,9.85,0,0,1,9.85,9.85Z" class="cls-1"/><g class="cls-2"><path data-cppathid="10001" transform="translate(0 0)" d="M172.86,817.55a.64.64,0,0,1-.8.45l-1.06-.19q-.51-.1-.51-.51a.72.72,0,0,1,.06-.29l2.6-6.84a.65.65,0,0,1-.37.09h-1.21a.57.57,0,0,1-.65-.64v-7.21a.58.58,0,0,1,.65-.65h1.21a.65.65,0,0,1,.47.16h5.55a.56.56,0,0,1,.64.64v7a.57.57,0,0,1-.64.65h-1.21a.59.59,0,0,1-.51-.22h-1.41a.79.79,0,0,1-.06.29l-.52,1.41h3.63c.39,0,.59.16.59.49,0,0,0,.08,0,.12l0,.11-1.49,5.3a.58.58,0,0,1-.6.49h-.08l-.1,0-2.32-.45c-.34-.07-.51-.23-.51-.49a.38.38,0,0,1,0-.1.23.23,0,0,1,0-.11l0,0a.63.63,0,0,1,.78-.43l.56.1,1.08-3.8h-2Zm4.08-14.46h-3.51v5.77h3.51Zm6,10.38a.57.57,0,0,1-.64.65h-1.21a.58.58,0,0,1-.65-.65v-9.71a.58.58,0,0,1,.65-.65h1.21a.57.57,0,0,1,.64.65Zm-.56,4.34c-.4,0-.59-.2-.59-.49a.73.73,0,0,1,.2-.54.66.66,0,0,1,.54-.14l1.84.17V801.9a.57.57,0,0,1,.64-.65h1.22a.57.57,0,0,1,.64.65v15.64c0,.45-.22.66-.66.62Z" class="cls-3"/><path data-cppathid="10002" transform="translate(0 0)" d="M201.73,817.67a.67.67,0,0,1-.51.28.89.89,0,0,1-.37-.1l-.59-.28a.51.51,0,0,1-.37-.46.77.77,0,0,1,.16-.41,7.44,7.44,0,0,0,.72-1.44,10.4,10.4,0,0,0,.49-1.79,11.18,11.18,0,0,0,.17-1.9,7.61,7.61,0,0,0-.88-3.9,3.81,3.81,0,0,0-2.48-1.9,26.69,26.69,0,0,1,.47,4.65,10.08,10.08,0,0,1-1.12,5.16,3.64,3.64,0,0,1-3.32,1.9,4.17,4.17,0,0,1-2.32-.65,4.31,4.31,0,0,1-1.55-1.77,5.91,5.91,0,0,1-.54-2.59,8.6,8.6,0,0,1,.56-3.09,8.34,8.34,0,0,1,1.58-2.55,7.53,7.53,0,0,1,2.32-1.73,6.61,6.61,0,0,1,2.83-.62,7.62,7.62,0,0,1,3.71.85,5.82,5.82,0,0,1,2.4,2.44,8,8,0,0,1,.84,3.8A8.83,8.83,0,0,1,201.73,817.67Zm-9.54-5.2a6.44,6.44,0,0,0,.27,1.91,4,4,0,0,0,.72,1.4,1.21,1.21,0,0,0,.92.52c.37,0,.69-.27,1-.81a8,8,0,0,0,.67-2.2,18.32,18.32,0,0,0,.24-3.12c0-.67,0-1.35-.09-2.06s-.15-1.42-.28-2.15a5.1,5.1,0,0,0-1.73,1.45,7.55,7.55,0,0,0-1.23,2.3A8.24,8.24,0,0,0,192.19,812.47Z" class="cls-3"/><path data-cppathid="10003" transform="translate(0 0)" d="M208.39,816.7a.62.62,0,0,1-.19.46.65.65,0,0,1-.47.2h-1.18a.65.65,0,0,1-.47-.2.62.62,0,0,1-.19-.46V803.07a.57.57,0,0,1,.17-.43.63.63,0,0,1,.42-.19c.45-.06.88-.09,1.3-.11l1.18,0q6.64,0,6.64,5.14a3.66,3.66,0,0,1-1.67,3.29,8.82,8.82,0,0,1-4.87,1.11h-.33l-.34,0Zm0-13.24v7.2h.8a6.72,6.72,0,0,0,2.34-.32,2.15,2.15,0,0,0,1.21-1,4.18,4.18,0,0,0,.36-1.87,6,6,0,0,0-.38-2.34,2.44,2.44,0,0,0-1.27-1.26,6.16,6.16,0,0,0-2.43-.39Z" class="cls-3"/><path data-cppathid="10004" transform="translate(0 0)" d="M216.87,803.13a.62.62,0,0,1,.65-.68c.53-.06,1-.09,1.51-.11l1.34,0a9.45,9.45,0,0,1,3.38.5,3.66,3.66,0,0,1,1.85,1.39,3.75,3.75,0,0,1,.58,2.08,3.45,3.45,0,0,1-.62,2,4,4,0,0,1-2.24,1.34q3.13,1.08,3.13,3.58a4.3,4.3,0,0,1-.6,2.31,3.72,3.72,0,0,1-1.94,1.49,10.42,10.42,0,0,1-3.6.51l-1.3,0c-.46,0-.95-.06-1.47-.11s-.67-.26-.67-.67Zm2.27.37V809a11.19,11.19,0,0,0,3-.36,3,3,0,0,0,1.58-.92,2.2,2.2,0,0,0,.47-1.41,3.31,3.31,0,0,0-.3-1.44,2.22,2.22,0,0,0-1.06-1,5.05,5.05,0,0,0-2.11-.37h-.74Zm0,12.88a6,6,0,0,0,.63,0h.56a4.7,4.7,0,0,0,2.9-.77,2.83,2.83,0,0,0,1-2.39,2.48,2.48,0,0,0-1.15-2.25,8.07,8.07,0,0,0-3.93-.84Z" class="cls-3"/><path data-cppathid="10005" transform="translate(0 0)" d="M231.14,816.11v.08H232a.71.71,0,0,1,.47.16.54.54,0,0,1,0,.84.71.71,0,0,1-.47.17H227.8a.71.71,0,0,1-.47-.17.54.54,0,0,1,0-.84.71.71,0,0,1,.47-.16h.84V803.68h-.84a.71.71,0,0,1-.47-.17.54.54,0,0,1,0-.84.71.71,0,0,1,.47-.16H232a.71.71,0,0,1,.47.16.54.54,0,0,1,0,.84.71.71,0,0,1-.47.17h-.84v12.43Z" class="cls-3"/></g></g><g id="etc."><rect data-cppathid="10006" rx="7.28" height="50.68" width="237.14" y="863.56" x="80.9" class="cls-4"/><g class="cls-5"><path data-cppathid="10007" transform="translate(0 0)" d="M197.05,887.11a.46.46,0,0,1-.57.38l-.84-.1a.39.39,0,0,1-.4-.41.8.8,0,0,1,0-.16l1-3.58a.44.44,0,0,1,.56-.37l.84.1c.27,0,.41.16.41.4a.8.8,0,0,1,0,.16l-.28,1h3.14c.31,0,.47.15.47.43s-.16.44-.47.44h-1l.23,1.21a.45.45,0,0,1,0,.13c0,.24-.14.38-.42.41l-.86.08a.45.45,0,0,1-.54-.4l-.26-1.36a.15.15,0,0,1,0-.07h-.52Zm4.43,8.36c-.3,0-.45-.15-.45-.4s.17-.48.51-.46l2.06.1v-2.46h-7.85c-.32,0-.48-.14-.48-.43s.16-.43.48-.43h7.85v-.86h-7.88c-.32,0-.48-.14-.48-.43s.16-.43.48-.43h5.07a.61.61,0,0,1,0-.15v-.86h-4c-.32,0-.48-.15-.48-.44s.16-.43.48-.43h4v0a.42.42,0,0,1,.48-.48h.89a.42.42,0,0,1,.48.48v0h4c.32,0,.48.15.48.43s-.16.44-.48.44h-4v.86c0,.06,0,.11,0,.15h5c.32,0,.48.14.48.43s-.16.43-.48.43h-2.21v.86h2.11c.32,0,.47.14.47.43s-.15.43-.47.43h-2.11v3c0,.33-.16.48-.49.46Zm-.51-2.15c.23.06.35.18.35.35a.37.37,0,0,1-.06.21l0,.06a.49.49,0,0,1-.43.28h-.09l-.1,0-2.93-.81c-.23-.06-.35-.17-.35-.35a.39.39,0,0,1,.06-.21l0-.06a.52.52,0,0,1,.43-.28h.09l.1,0Zm2-6.9a.46.46,0,0,1-.58.33l-.76-.14q-.36-.08-.36-.36a.75.75,0,0,1,0-.24l1.16-2.81a.45.45,0,0,1,.57-.33l.77.14q.36.07.36.36a1,1,0,0,1,0,.23l-.39.94h3.61c.31,0,.47.15.47.43s-.16.44-.47.44h-.71a.88.88,0,0,1,0,.2l-.55,1.52a.48.48,0,0,1-.58.34l-.78-.13c-.26-.05-.39-.17-.39-.37a.45.45,0,0,1,0-.2l.49-1.36H203.4Z" class="cls-6"/></g></g><g id="etcetc."><rect data-cppathid="10008" rx="5.07" height="35.3" width="165.16" y="933.91" x="119.06" class="cls-7"/><g class="cls-8"><path data-cppathid="10009" transform="translate(0 0)" d="M194.87,950.31a.31.31,0,0,1-.39.26l-.59-.07c-.18,0-.28-.11-.28-.28a.89.89,0,0,1,0-.11l.69-2.49a.31.31,0,0,1,.39-.27l.58.07a.27.27,0,0,1,.28.29.31.31,0,0,1,0,.11l-.19.7h2.18c.23,0,.34.1.34.3s-.11.3-.34.3h-.7l.16.85a.22.22,0,0,1,0,.09c0,.17-.1.26-.29.28l-.6.06a.31.31,0,0,1-.38-.28l-.18-1a.43.43,0,0,1,0,0h-.36Zm3.09,5.82c-.21,0-.32-.1-.32-.28s.12-.33.36-.32l1.43.07v-1.71H194q-.33,0-.33-.3t.33-.3h5.47v-.6h-5.49q-.33,0-.33-.3t.33-.3h3.53s0-.06,0-.1v-.6h-2.78c-.22,0-.33-.1-.33-.31s.11-.3.33-.3h2.78v0c0-.22.11-.33.34-.33h.62a.29.29,0,0,1,.33.33v0h2.79q.33,0,.33.3c0,.21-.11.31-.33.31h-2.79v.6a.31.31,0,0,1,0,.1h3.52q.33,0,.33.3t-.33.3h-1.54v.6h1.47q.33,0,.33.3t-.33.3h-1.47v2.05c0,.23-.11.34-.34.32Zm-.36-1.49c.17,0,.25.12.25.24a.42.42,0,0,1,0,.15l0,0a.36.36,0,0,1-.31.19h-.13l-2-.56c-.16,0-.24-.13-.24-.25a.28.28,0,0,1,0-.15l0,0a.36.36,0,0,1,.3-.19h.13Zm1.4-4.81a.32.32,0,0,1-.4.23l-.53-.1c-.17,0-.25-.12-.25-.25a.5.5,0,0,1,0-.16l.8-2a.32.32,0,0,1,.4-.23l.54.11c.16,0,.25.11.25.25a.55.55,0,0,1,0,.16l-.27.65h2.51q.33,0,.33.3t-.33.3h-.49a.39.39,0,0,1,0,.14l-.39,1.06a.33.33,0,0,1-.4.24l-.54-.09c-.18,0-.27-.12-.27-.26a.35.35,0,0,1,0-.14l.34-1h-1Z" class="cls-9"/></g></g></g><g data-name="report card" id="report_card"><path data-cppathid="10010" transform="translate(0 0)" d="M403.28,746.8a12.38,12.38,0,0,1-12.39,12.37H12.38A12.37,12.37,0,0,1,0,746.8V685.37A12.38,12.38,0,0,1,12.38,673H390.89a12.39,12.39,0,0,1,12.39,12.38Z" class="cls-10"/><path data-cppathid="10011" transform="translate(0 0)" d="M152.33,726.48a.72.72,0,0,1-.81.81H150a.72.72,0,0,1-.82-.81v-3.12h-1.54c-.54,0-.81-.24-.81-.73s.27-.74.81-.74h1.54v-2.31a.79.79,0,0,1,.18-.56h-2.73c-.54,0-.81-.25-.81-.74s.27-.74.81-.74h.88a.91.91,0,0,1-.22-.59l-.17-2.45a1.58,1.58,0,0,1,0-.32h-.89c-.54,0-.81-.25-.81-.74s.27-.73.81-.73h3.05v-3.42H147c-.54,0-.81-.24-.81-.74s.27-.73.81-.73h2.31v-1.45a.72.72,0,0,1,.81-.81h1.52a.72.72,0,0,1,.81.81v1.45h2c.54,0,.81.24.81.73s-.27.74-.81.74h-2v3.42h2.78c.54,0,.81.24.81.73s-.27.74-.81.74h-.35a1,1,0,0,1,0,.39l-.4,3h.37c.54,0,.81.25.81.74s-.27.74-.81.74h-2.72a.83.83,0,0,1,.17.56v2.31h1.55c.54,0,.81.24.81.74s-.27.73-.81.73h-1.55Zm-1.89-9.67a.74.74,0,0,1-.35.73h1.33a.29.29,0,0,1,0-.19l.42-3a.77.77,0,0,0,0-.15h-1.62a.47.47,0,0,1,0,.17Zm8.84,9.28a.72.72,0,0,1-.81.81H157a.72.72,0,0,1-.82-.81V707.2a.72.72,0,0,1,.82-.81h1.52a1.13,1.13,0,0,1,.32.05h6.5a.71.71,0,0,1,.81.81v6.44c0,.57-.28.82-.85.73l-3.69-.49c-.47,0-.71-.25-.71-.61a.92.92,0,0,1,.05-.25v0a.78.78,0,0,1,1-.62l1.1.15v-4.66h-3.68V716H165c.47,0,.71.19.71.56a1,1,0,0,1-.08.37l-2,5.06,2,3.1a.84.84,0,0,1,.17.46c0,.28-.19.49-.57.62l-1,.32a1.16,1.16,0,0,1-.37.07.84.84,0,0,1-.71-.44l-.74-1.11-.32.84a.8.8,0,0,1-1,.56l-1.32-.24a.79.79,0,0,1-.54-.3Zm2.31-7.17.07.1.59-1.53h-3V719a1.12,1.12,0,0,1,.22-.1l1-.32a1,1,0,0,1,.36-.07A.85.85,0,0,1,161.59,718.92Zm-2.31,1.3v4.89l1.2-3.07Z" class="cls-11"/><path data-cppathid="10012" transform="translate(0 0)" d="M172.86,714.77a.89.89,0,0,1-.74.46H172l-.17,0-1.1-.31c-.38-.13-.57-.35-.57-.64a.86.86,0,0,1,.15-.44l4.49-7.3a.91.91,0,0,1,.74-.46h.15l.17,0,1.1.32c.38.13.57.35.57.64a1,1,0,0,1-.15.44l-1.94,3.15h4V707.2a.72.72,0,0,1,.81-.81h1.52a.72.72,0,0,1,.81.81v3.42h5.94c.54,0,.81.24.81.73s-.27.74-.81.74h-5.94v3.54a.84.84,0,0,1,0,.29h7.69c.54,0,.81.25.81.74s-.27.74-.81.74H171c-.54,0-.81-.25-.81-.74s.27-.74.81-.74h8.43a.65.65,0,0,1,0-.29v-3.54h-4.18a.85.85,0,0,1-.56-.17Zm-1,5.42a.72.72,0,0,1,.81-.81h1.52a.74.74,0,0,1,.64.27h13.6a.72.72,0,0,1,.81.81v6.12a.72.72,0,0,1-.81.81h-1.52a.85.85,0,0,1-.6-.2.64.64,0,0,1-.21-.49H175a.71.71,0,0,1-.81.69h-1.52a.72.72,0,0,1-.81-.81Zm14.24.94H175v4.1h11.1Z" class="cls-11"/><path data-cppathid="10013" transform="translate(0 0)" d="M199.23,726.26a.8.8,0,0,1-.76.57h-.12a.21.21,0,0,1-.12,0l-1.31-.27c-.41-.08-.61-.29-.61-.61a1.25,1.25,0,0,1,.07-.4l5.46-12.81h-6.05c-.54,0-.81-.25-.81-.74s.27-.74.81-.74h6.66l1.06-2.48a.8.8,0,0,1,.76-.56h.12a.22.22,0,0,1,.12,0l1.3.27c.41.08.62.29.62.61a1.29,1.29,0,0,1-.08.4l-.73,1.74h8.64c.51,0,.76.21.76.64a.53.53,0,0,1,0,.13.74.74,0,0,1,0,.14L211.51,726a.75.75,0,0,1-1,.64l-4.93-.81c-.44-.08-.67-.29-.67-.62a.51.51,0,0,1,0-.13.89.89,0,0,1,0-.14l0-.05a.79.79,0,0,1,.76-.59h.11a.2.2,0,0,1,.11,0l2.65.47,3.05-12.13H205Z" class="cls-11"/><path data-cppathid="10014" transform="translate(0 0)" d="M235.23,716.51c.54,0,.81.25.81.74s-.27.73-.81.73H218.68c-.54,0-.81-.24-.81-.73s.27-.74.81-.74Z" class="cls-11"/><path data-cppathid="10015" transform="translate(0 0)" d="M244.47,726.06a.72.72,0,0,1-.81.81h-1.53a.72.72,0,0,1-.81-.81V709a.72.72,0,0,1,.81-.81h1.53a.72.72,0,0,1,.81.81v7l8.89,2.87c.37.14.56.33.56.59a.77.77,0,0,1-.15.42l-.09.12a.82.82,0,0,1-.72.42h-.16l-.18,0-8.15-2.63ZM252,712.83a1.65,1.65,0,0,1,0,.27.64.64,0,0,1-.66.69l-.71.09a.74.74,0,0,1-.94-.63l-1.27-5.16a1,1,0,0,1,0-.27.64.64,0,0,1,.66-.69l.72-.1a.74.74,0,0,1,.95.64Zm2.7-1.5a1.87,1.87,0,0,1,0,.27c0,.38-.21.61-.64.69l-.71.12a.76.76,0,0,1-1-.64L251.12,707a.83.83,0,0,1,0-.15s0-.1,0-.15c0-.36.22-.58.67-.66l.71-.12a.76.76,0,0,1,1,.64Z" class="cls-11"/></g><g data-name="Scholarship PBI" id="Scholarship_PBI"><path data-cppathid="10016" transform="translate(0 0)" d="M403.28,644.93a12.39,12.39,0,0,1-12.39,12.38H12.38A12.38,12.38,0,0,1,0,644.93V583.5a12.37,12.37,0,0,1,12.38-12.37H390.89a12.38,12.38,0,0,1,12.39,12.37Z" class="cls-10"/><path data-cppathid="10017" transform="translate(0 0)" d="M141.76,624.93a1.29,1.29,0,0,1-.4.08.86.86,0,0,1-.71-.44l0-.05a1,1,0,0,1-.15-.47c0-.28.19-.48.56-.61a23.11,23.11,0,0,0,6.54-3.05h-6.19c-.54,0-.81-.24-.81-.74s.27-.73.81-.73h7.54a3.29,3.29,0,0,0,.34-.84.84.84,0,0,1,.86-.73h1.52a2.62,2.62,0,0,1,.42,0,.57.57,0,0,1-.1-.34.71.71,0,0,1,.86-.81l4,.17v-3.61h-8.38c-.54,0-.81-.25-.81-.74s.27-.74.81-.74h8.38a.72.72,0,0,1,.81-.71h1.52a.85.85,0,0,1,.6.2.66.66,0,0,1,.21.51h1.18c.54,0,.81.25.81.74s-.27.74-.81.74H160v4.39a.83.83,0,0,1-.22.62.73.73,0,0,1-.61.19l-6.44-.29-.24,0v0a3.85,3.85,0,0,1-.37,1.23h8.77c.54,0,.81.24.81.73s-.27.74-.81.74h-8l8.4,3.05c.36.13.54.32.54.59a.67.67,0,0,1-.17.44l-.1.15a.86.86,0,0,1-.69.39.48.48,0,0,1-.2,0l-.22-.06-10.41-3.78A29.37,29.37,0,0,1,141.76,624.93Zm5.13-8.12a.72.72,0,0,1-.81.81h-1.53a.72.72,0,0,1-.81-.81v-1.72l-1.52.71a1.05,1.05,0,0,1-.44.1.88.88,0,0,1-.66-.3l-.13-.12a.78.78,0,0,1-.27-.54c0-.25.16-.44.47-.59l2.53-1.18h0v-4l-2.43-1.42c-.28-.18-.41-.37-.41-.57a.79.79,0,0,1,.34-.56l.25-.2a1,1,0,0,1,.63-.24,1,1,0,0,1,.49.14l1.13.67v-1.77a.72.72,0,0,1,.81-.81h1.53a.72.72,0,0,1,.81.81Zm2.26-10.27a.8.8,0,0,1-.64-.2.78.78,0,0,1-.25-.63c0-.4.25-.62.74-.67l11.12-.83a.8.8,0,0,1,.67.19.93.93,0,0,1,.24.67c0,.37-.24.59-.73.64Zm2.87,2.85a1.6,1.6,0,0,1,0,.27q0,.62-.69.69l-1.37.17a.8.8,0,0,1-1-.61l-.62-2.14,0-.15a.76.76,0,0,1,0-.15q0-.59.66-.66l1.4-.17a.8.8,0,0,1,1,.61Zm2.14,5.11c.32.14.49.34.49.59a.71.71,0,0,1-.25.49l-.17.17a.91.91,0,0,1-.66.29,1,1,0,0,1-.44-.09l-3-1.4c-.33-.15-.49-.35-.49-.59a.69.69,0,0,1,.24-.49l.18-.18a.94.94,0,0,1,1.1-.19Zm1.72-5.26a1.69,1.69,0,0,1,0,.25q0,.62-.69.69l-1.42.17a.79.79,0,0,1-.93-.67l-.5-2a.77.77,0,0,1,0-.15v-.12c0-.4.22-.62.66-.67l1.43-.17a.79.79,0,0,1,.93.66Zm3.9.27a.8.8,0,0,1-1,.62l-1.4-.22c-.44,0-.66-.28-.66-.67a1.58,1.58,0,0,1,.05-.29l.66-2.24a.8.8,0,0,1,1-.61l1.4.22q.66.07.66.66a1,1,0,0,1-.05.3Z" class="cls-11"/><path data-cppathid="10018" transform="translate(0 0)" d="M171.4,624.88c-.43-.09-.64-.3-.64-.61a.62.62,0,0,1,.07-.29l0-.05a.75.75,0,0,1,.73-.54l.27,0,2,.42v-4.15h-7.74c-.54,0-.81-.25-.81-.74s.27-.73.81-.73h7.74v-.1a1.36,1.36,0,0,1,.41-1l3.29-3.09h-7.24c-.54,0-.81-.25-.81-.74s.27-.74.81-.74H181c.46,0,.69.16.69.47a.83.83,0,0,1-.3.54L177,617.67v.54h8.18c.54,0,.81.24.81.73s-.27.74-.81.74H177v5.45c0,.51-.22.76-.66.76l-.22,0Zm-5.75-15.37a.72.72,0,0,1,.81-.81h1.06l-1-3.14a.83.83,0,0,1,0-.15.76.76,0,0,1,0-.15q0-.59.66-.66l1.4-.2a.78.78,0,0,1,1,.59l1,3.42a1,1,0,0,1,0,.14.76.76,0,0,1,0,.15,1,1,0,0,1,0,.2h3.78l-.94-3.41,0-.15a.77.77,0,0,1,0-.15c0-.39.23-.61.67-.66l1.42-.17a.76.76,0,0,1,1,.63l1,3.47a.7.7,0,0,1,0,.14.77.77,0,0,1,0,.15.4.4,0,0,1,0,.15h2.9v-.12a1.25,1.25,0,0,1,.07-.4l1.43-3.48a.78.78,0,0,1,1-.57l1.3.25c.41.08.62.28.62.61a1.23,1.23,0,0,1-.08.39l-1.35,3.32H186c.51,0,.76.21.76.64a.53.53,0,0,1,0,.13,1,1,0,0,1,0,.14l-.74,2.94a.79.79,0,0,1-.93.67l-1.42-.17q-.69-.07-.69-.69a1.69,1.69,0,0,1,0-.25l.49-1.94H168.79v2.14a.72.72,0,0,1-.81.81h-1.52a.72.72,0,0,1-.81-.81Z" class="cls-11"/><path data-cppathid="10019" transform="translate(0 0)" d="M199.24,603.69a.86.86,0,0,1,.62-.27,1.38,1.38,0,0,1,.49.12l.66.32c.3.15.44.32.44.52a2.2,2.2,0,0,1,.25.17l9,7.88a.74.74,0,0,1,.29.54c0,.22-.14.41-.42.59l-.58.32a1,1,0,0,1-.52.15,1,1,0,0,1-.61-.27l-8.8-7.71-8.2,7.69a.84.84,0,0,1-.61.27,1.19,1.19,0,0,1-.49-.13l-.67-.32a.64.64,0,0,1-.44-.56.84.84,0,0,1,.3-.57Zm2.21,19.21a.9.9,0,0,1,0,.34h6.09c.55,0,.82.25.82.74s-.27.73-.82.73H192.27c-.54,0-.81-.24-.81-.73s.27-.74.81-.74h6.09a1.16,1.16,0,0,1-.05-.34v-5.55H191.7c-.54,0-.81-.25-.81-.74s.27-.74.81-.74h6.61v-2.58a1.21,1.21,0,0,1,.07-.41H195c-.54,0-.81-.25-.81-.74s.27-.74.81-.74h9.68c.54,0,.81.25.81.74s-.27.74-.81.74h-3.36a.86.86,0,0,1,.09.41v2.58h6.61c.54,0,.81.25.81.74s-.27.74-.81.74h-6.61ZM197,621.62a1.57,1.57,0,0,1,0,.32c0,.38-.22.59-.66.64l-1.38.19-.1,0h-.1a.75.75,0,0,1-.76-.62l-1-3a1.48,1.48,0,0,1-.05-.32c0-.37.22-.59.66-.64l1.38-.19h.11l.09,0a.75.75,0,0,1,.76.62Zm9.33.51a.77.77,0,0,1-1,.62l-1.37-.22c-.44,0-.66-.26-.66-.64a1.45,1.45,0,0,1,0-.32l1-3.09a.77.77,0,0,1,1-.62l1.37.22c.45,0,.67.26.67.64a1.57,1.57,0,0,1,0,.32Z" class="cls-11"/><path data-cppathid="10020" transform="translate(0 0)" d="M215.65,625c-.48-.08-.71-.28-.71-.61a.65.65,0,0,1,0-.22q.19-.76.66-.69l.49.07V619.9L216,620a1,1,0,0,1-.57.2,1.12,1.12,0,0,1-.56-.2l-.4-.27a.74.74,0,0,1-.36-.56.71.71,0,0,1,.36-.57l1.62-1.13v-6.16h-1.3c-.54,0-.81-.24-.81-.74s.27-.73.81-.73h1.3V604.5a.72.72,0,0,1,.82-.81h1.52a.72.72,0,0,1,.81.81v5.31h1c.54,0,.81.24.81.73s-.27.74-.81.74h-1v4a.89.89,0,0,1,.51-.17.84.84,0,0,1,.57.2l.39.27a.67.67,0,0,1,.37.56.73.73,0,0,1-.37.57l-1.47,1v6.85c0,.59-.29.84-.86.76Zm6.58-18.56a1,1,0,0,1-.66-.19.76.76,0,0,1-.27-.65c0-.37.24-.59.73-.64l12.18-1a.89.89,0,0,1,.68.17.84.84,0,0,1,.26.67c0,.37-.25.59-.74.64Zm2.48,7.36a.71.71,0,0,1-.81.81h-1.52a.71.71,0,0,1-.81-.81V611.6a.72.72,0,0,1,.81-.81H223l-.66-2.68a.83.83,0,0,1,0-.24q0-.61.69-.69l1.42-.17a.8.8,0,0,1,.94.66l.66,2.7a.94.94,0,0,1,0,.25.78.78,0,0,1,0,.22h.71a.81.81,0,0,1-.07-.22l-.57-2.9a1,1,0,0,1,0-.2c0-.42.24-.66.74-.71l1.47-.15a.76.76,0,0,1,.91.69l.54,2.9a1.09,1.09,0,0,1,0,.22.62.62,0,0,1-.1.37H230v-.08a.78.78,0,0,1,0-.14,1.22,1.22,0,0,1,0-.17l1.06-3.39a.78.78,0,0,1,1-.62l1.4.22c.42.05.63.27.63.64v.15a.38.38,0,0,1,0,.17l-1,3.22h1.35c.59,0,.84.28.76.86l-.29,2.09a.77.77,0,0,1-.89.71l-1.47-.1c-.57,0-.82-.33-.74-.88l.17-1.21h-7.24ZM223.31,625l-.15,0H223a.73.73,0,0,1-.71-.59,1.55,1.55,0,0,1,0-.17.77.77,0,0,1,0-.15c0-.31.2-.52.59-.64a14,14,0,0,0,2.11-.92,11.56,11.56,0,0,0,2.29-1.58l-3.1-2.12a.73.73,0,0,1-.39-.59.69.69,0,0,1,.37-.54l.39-.27a1,1,0,0,1,.57-.19.79.79,0,0,1,.56.19l3,2.07a7.36,7.36,0,0,0,.86-1.42,5.22,5.22,0,0,0,.44-1.58h-6.31c-.54,0-.81-.24-.81-.74s.27-.73.81-.73h8.67a.76.76,0,0,1,.62.26,1,1,0,0,1,.21.77,5.57,5.57,0,0,1-.77,2.55,9.73,9.73,0,0,1-1.76,2.21l3.78,2.58a.74.74,0,0,1,.4.59.72.72,0,0,1-.37.54l-.39.27a.84.84,0,0,1-.57.2,1,1,0,0,1-.56-.2L229,622.16a19.55,19.55,0,0,1-3,1.78A17.16,17.16,0,0,1,223.31,625Z" class="cls-11"/><path data-cppathid="10021" transform="translate(0 0)" d="M245,623.17c-.42-.1-.64-.3-.64-.59a.69.69,0,0,1,.08-.32l0,0a.83.83,0,0,1,.79-.54h.12l.12,0,6.56,1.45,1-4.32H239.42c-.54,0-.81-.25-.81-.74s.27-.73.81-.73h14l.62-2.68h-9.68c-.57,0-.84-.28-.79-.84l.84-9.28a.71.71,0,0,1,.86-.73l1.52.07a.7.7,0,0,1,.76.86l-.29,3.14h10.48c.54,0,.81.25.81.74s-.27.74-.81.74H247.15l-.34,3.83h9.82c.49,0,.74.21.74.63a1.69,1.69,0,0,1,0,.25l-.77,3.27h3.25c.54,0,.81.24.81.73s-.27.74-.81.74h-3.59l-1.33,5.7a.7.7,0,0,1-.71.64h-.12a.21.21,0,0,1-.12,0Z" class="cls-11"/></g><g data-name="Alumni PBI" id="Alumni_PBI"><path data-cppathid="10022" transform="translate(0 0)" d="M403.28,543.06a12.39,12.39,0,0,1-12.39,12.38H12.38A12.38,12.38,0,0,1,0,543.06V481.64a12.38,12.38,0,0,1,12.38-12.38H390.89a12.39,12.39,0,0,1,12.39,12.38Z" class="cls-10"/><path data-cppathid="10023" transform="translate(0 0)" d="M152.68,505.41v.08h8.18c.54,0,.81.24.81.73s-.27.74-.81.74h-19.5c-.54,0-.81-.25-.81-.74s.27-.73.81-.73h8.18v-2.93a.72.72,0,0,1,.81-.81h1.52a.72.72,0,0,1,.81.81Zm0,17.44a.72.72,0,0,1-.81.81h-1.52a.72.72,0,0,1-.81-.81v-2.56h-8.18c-.54,0-.81-.24-.81-.73s.27-.74.81-.74h8.18v-2a.72.72,0,0,1,.81-.82h1.52a.72.72,0,0,1,.81.82v2h8.18c.54,0,.81.25.81.74s-.27.73-.81.73h-8.18Zm-9.21-6.07a.89.89,0,0,1-.73.47h-.15l-.17,0-1.11-.32c-.37-.13-.56-.34-.56-.61a.89.89,0,0,1,.15-.47l4.91-8.1a.88.88,0,0,1,.73-.47h.15l.17,0,1.11.32c.37.13.56.33.56.61a1.11,1.11,0,0,1-.14.47l-1.58,2.6,0,0,3.24,3a.69.69,0,0,1,.3.54c0,.23-.15.41-.45.56l-.61.32a.93.93,0,0,1-.49.15.89.89,0,0,1-.64-.3l-2.55-2.38Zm11-1.45a.88.88,0,0,1-.77.44,1.38,1.38,0,0,1-.31,0l-1.06-.32c-.38-.13-.57-.33-.57-.59a.69.69,0,0,1,0-.24l.13-.23,4.37-6.68a.88.88,0,0,1,.76-.44,1.57,1.57,0,0,1,.32,0l1,.32c.38.13.57.32.57.59a.68.68,0,0,1-.05.22,1.34,1.34,0,0,1-.12.24l-1.67,2.56a1,1,0,0,1,.22.19l3.88,4.37a.76.76,0,0,1,.24.52c0,.26-.16.46-.49.59l-.81.34a.92.92,0,0,1-.44.1.81.81,0,0,1-.66-.34l-3.29-3.71Z" class="cls-11"/><path data-cppathid="10024" transform="translate(0 0)" d="M177.24,523a.72.72,0,0,1-.81.81h-1.52a.72.72,0,0,1-.81-.81v-2.58l-6.39,2.63a.87.87,0,0,1-.42.1.89.89,0,0,1-.68-.37l-.08-.1a.87.87,0,0,1-.22-.51c0-.26.17-.46.49-.59l4.67-1.92h-5.55c-.54,0-.81-.24-.81-.73s.27-.74.81-.74h8.18V517h-7.22c-.54,0-.81-.25-.81-.74s.27-.74.81-.74h7.22v-1.12h-7.93c-.55,0-.82-.25-.82-.74s.27-.74.82-.74h4l-.59-3.61a1.09,1.09,0,0,1,0-.22h-3.66c-.54,0-.81-.24-.81-.74s.27-.73.81-.73h5.72v-4.84a.72.72,0,0,1,.81-.81h1.53a.72.72,0,0,1,.81.81v4.84h1.89v-4.84a.72.72,0,0,1,.81-.81H179a.72.72,0,0,1,.81.81v4.84h5.92c.54,0,.81.24.81.73s-.27.74-.81.74h-3.93v0a.85.85,0,0,1,0,.25l-.83,3.56h4.15c.54,0,.81.25.81.74s-.27.74-.81.74h-7.81v1.12h7.2c.54,0,.81.25.81.74s-.27.74-.81.74h-7.2v1.25h8.18c.54,0,.81.25.81.74s-.27.73-.81.73h-5.75l5,1.94c.36.15.54.35.54.59a.74.74,0,0,1-.2.44l-.12.15a.89.89,0,0,1-.71.37,1.25,1.25,0,0,1-.4-.07l-6.53-2.58Zm-7-17a.9.9,0,0,1,0,.25q0,.58-.69.66l-1.48.15a.77.77,0,0,1-.93-.67l-.69-3.14a.37.37,0,0,1,0-.12v-.13c0-.39.24-.61.71-.66l1.47-.15a.77.77,0,0,1,.94.69Zm3,6.63a1.09,1.09,0,0,1,0,.22h4.55v0a.94.94,0,0,1,0-.25l.83-3.56h-6Zm11.34-6.26a.75.75,0,0,1-.91.69L182.2,507c-.56,0-.78-.35-.69-.91l.59-2.9a.76.76,0,0,1,.91-.69l1.48.15c.55.05.78.35.68.91Z" class="cls-11"/><path data-cppathid="10025" transform="translate(0 0)" d="M192.07,513.39a.79.79,0,0,1-.76.54h-.12l-.12,0-1.23-.25c-.41-.1-.62-.32-.62-.66a1,1,0,0,1,.08-.37l4.3-9.38a.79.79,0,0,1,.76-.54h.12l.12,0,1.23.25c.41.1.61.3.61.61a1,1,0,0,1-.09.42L195,506.93h4.35v-4.32a.72.72,0,0,1,.81-.81h1.52a.72.72,0,0,1,.81.81v4.32h6.68c.54,0,.81.25.81.74s-.27.74-.81.74h-6.68v6.16h5.7c.54,0,.81.25.81.74s-.27.73-.81.73h-5.7v5.33h7.42c.54,0,.81.25.81.74s-.27.74-.81.74h-19.5c-.54,0-.81-.25-.81-.74s.27-.74.81-.74h8.94V516h-6.59c-.54,0-.81-.24-.81-.73s.27-.74.81-.74h6.59v-6.16h-5Z" class="cls-11"/><path data-cppathid="10026" transform="translate(0 0)" d="M222.82,506.47c.54,0,.81.24.81.73s-.27.74-.81.74h-7.49c-.54,0-.81-.24-.81-.74s.27-.73.81-.73Zm.64,15.94a.72.72,0,0,1-.81.81h-1.53a.74.74,0,0,1-.71-.37h-2.55a.71.71,0,0,1-.81.69h-1.52a.73.73,0,0,1-.82-.82v-5.25a.72.72,0,0,1,.82-.81h1.52a.77.77,0,0,1,.69.32h4.91a.72.72,0,0,1,.81.81Zm-1-12.33c.54,0,.81.24.81.73s-.27.74-.81.74h-6.78c-.54,0-.81-.24-.81-.74s.27-.73.81-.73Zm-.07,3.68c.54,0,.81.25.81.74s-.27.73-.81.73H215.8c-.54,0-.82-.24-.82-.73s.28-.74.82-.74Zm-.47-9.65c.34.15.52.34.52.59a.79.79,0,0,1-.2.47l-.12.14a.92.92,0,0,1-.69.37.87.87,0,0,1-.42-.1l-4.69-1.94c-.34-.14-.51-.34-.51-.59a.75.75,0,0,1,.19-.46l.12-.15a.92.92,0,0,1,.69-.37.87.87,0,0,1,.42.1Zm-1.6,14.34h-2.45v2.92h2.45Zm12.26,1.4a.72.72,0,0,1,.81-.81h1.52a.72.72,0,0,1,.81.81V522a.72.72,0,0,1-.81.81h-9.23a.72.72,0,0,1-.81-.81V511.92a.72.72,0,0,1,.81-.81h1.52a.75.75,0,0,1,.69.32h3.83v-6.51h-7.3c-.54,0-.81-.25-.81-.74s.27-.73.81-.73H234a.72.72,0,0,1,.81.81v8.1a.72.72,0,0,1-.81.81h-1.52a.73.73,0,0,1-.64-.27H228v8.47h4.57Z" class="cls-11"/><path data-cppathid="10027" transform="translate(0 0)" d="M247.06,520.56a.81.81,0,0,1,.81.35.74.74,0,0,1,.12-.27l2-3.22a.86.86,0,0,1,.76-.44,1.09,1.09,0,0,1,.32,0l1,.32c.38.13.57.32.57.59a.68.68,0,0,1,0,.22,1.34,1.34,0,0,1-.12.24l-2,3.22a.9.9,0,0,1-.76.44,1.57,1.57,0,0,1-.32,0l-1.06-.32a1.18,1.18,0,0,1-.39-.19q0,.46-.69.54l-6.41.73a.79.79,0,0,1-.93-.66.53.53,0,0,1,0-.2q0-.51.72-.63l1.77-.2v-5.6H240.5c-.54,0-.81-.25-.81-.74s.27-.73.81-.73h1.92v-2.58a1,1,0,0,1,.07-.42h-.39a.78.78,0,0,1-.62-.22l-.37.71a.82.82,0,0,1-.76.52l-.27,0-1.2-.3c-.38-.09-.57-.3-.57-.61a1,1,0,0,1,.1-.42l4.3-8.45a.83.83,0,0,1,.76-.51l.27.05,1.2.29c.38.1.57.31.57.62v0a1.51,1.51,0,0,1,.32.34l3.41,5.65a.92.92,0,0,1,.15.47c0,.31-.19.52-.57.61l-1.1.32a.78.78,0,0,1,0,.22c0,.49-.27.74-.81.74h-1.47a.77.77,0,0,1,.1.42V514h1.89c.54,0,.81.24.81.73s-.27.74-.81.74h-1.89v5.26Zm-4.94-.64c0,.53-.19.81-.56.84l-1.09,0c-.37,0-.57-.22-.58-.76l-.13-3c0-.52.15-.8.54-.83l1.08-.05c.38,0,.58.22.59.76Zm0-10.38h4.49l-2.45-4Zm5.94,10.14c-.08.52-.28.76-.61.71l-1-.12c-.41,0-.58-.35-.49-.91l.29-2.53c.08-.52.29-.76.61-.71l1,.12c.39,0,.55.35.47.91Zm4.23-4.79a1,1,0,0,1,.12.44c0,.31-.19.52-.57.62l-1.15.29-.15,0h-.14a.81.81,0,0,1-.74-.49l-1.45-2.58a1,1,0,0,1-.12-.44c0-.31.19-.52.56-.61l1.16-.3.14,0h.15a.82.82,0,0,1,.74.49Zm-1,8.2c-.49-.05-.74-.25-.74-.61a.88.88,0,0,1,.26-.68.85.85,0,0,1,.68-.18l1.2.12V511.4H249c-.54,0-.81-.24-.81-.73s.27-.74.81-.74h7.12v-2.19h-6.6c-.54,0-.81-.24-.81-.73s.27-.74.81-.74h6.6v-2.19h-7c-.54,0-.81-.24-.81-.73s.27-.74.81-.74h9.36a.72.72,0,0,1,.81.81v6.51h.05c.54,0,.81.25.81.74s-.27.73-.81.73h-3.42v3.49l1.35-2.31a.86.86,0,0,1,.74-.46h.15l.17,0,1.1.29c.38.1.57.29.57.59a1,1,0,0,1-.15.47l-1.89,3.21a.87.87,0,0,1-.74.47H257l-.18,0-.68-.17,3.61,3.88a.75.75,0,0,1,.24.54c0,.24-.16.44-.49.59l-.76.32a.88.88,0,0,1-1.11-.25l-1.79-1.94v2.58c0,.56-.28.81-.86.76Z" class="cls-11"/></g><g data-name="Event Calendar PBI" id="Event_Calendar_PBI"><path data-cppathid="10028" transform="translate(0 0)" d="M403.28,441.2a12.38,12.38,0,0,1-12.39,12.37H12.38A12.37,12.37,0,0,1,0,441.2V379.77a12.38,12.38,0,0,1,12.38-12.38H390.89a12.39,12.39,0,0,1,12.39,12.38Z" class="cls-10"/><path data-cppathid="10029" transform="translate(0 0)" d="M105.58,414.65a1,1,0,0,1-.51.14.91.91,0,0,1-.62-.24l-.24-.2a.8.8,0,0,1-.35-.56q0-.3.42-.57l17.24-10a1.06,1.06,0,0,1,.52-.15.9.9,0,0,1,.61.25l.25.19a.8.8,0,0,1,.34.57c0,.2-.14.39-.42.56l-6.82,4a.76.76,0,0,1,.19.56v11.05a.72.72,0,0,1-.81.81h-1.52a.72.72,0,0,1-.81-.81v-9.92Z" class="cls-11"/><path data-cppathid="10030" transform="translate(0 0)" d="M145.61,418.79a.76.76,0,0,1,.2.5c0,.26-.17.46-.52.59l-.93.32a1.61,1.61,0,0,1-.39.07.85.85,0,0,1-.69-.39l-8.84-11.47-6,10a.91.91,0,0,1-.76.47h-.15l-.14,0-1.11-.3c-.38-.09-.56-.29-.56-.58a.88.88,0,0,1,.14-.47l7.69-12.87a.64.64,0,0,1,.54-.39.76.76,0,0,1,.59.34Zm-2.38-9.4a1.06,1.06,0,0,1,0,.27.64.64,0,0,1-.66.69l-.71.1a.73.73,0,0,1-.93-.64l-1.28-5.16a1,1,0,0,1,0-.27.65.65,0,0,1,.67-.69l.71-.1a.76.76,0,0,1,1,.64Zm2.7-1.5a1,1,0,0,1,0,.27.67.67,0,0,1-.64.69l-.71.12a.75.75,0,0,1-1-.64l-1.26-4.81,0-.15a.66.66,0,0,1,0-.14c0-.36.22-.58.66-.67l.71-.12a.76.76,0,0,1,1,.64Z" class="cls-11"/><path data-cppathid="10031" transform="translate(0 0)" d="M157.77,407.23c.28.18.41.37.41.56a.74.74,0,0,1-.34.57l-.29.24a1,1,0,0,1-.59.23,1,1,0,0,1-.54-.18l-6.51-3.95q-.42-.27-.42-.57a.75.75,0,0,1,.35-.56l.29-.25a1,1,0,0,1,.59-.22,1,1,0,0,1,.54.18Zm7.93,2.65a1.07,1.07,0,0,1,.56-.17.9.9,0,0,1,.57.2l.32.24a.74.74,0,0,1,.34.57.68.68,0,0,1-.39.56l-14.44,9.09a1.08,1.08,0,0,1-.57.17,1,1,0,0,1-.56-.2l-.32-.24a.74.74,0,0,1-.34-.57.68.68,0,0,1,.39-.56Z" class="cls-11"/><path data-cppathid="10032" transform="translate(0 0)" d="M176.36,420.46a.72.72,0,0,1-.81.82H174a.72.72,0,0,1-.81-.82V403.4a.72.72,0,0,1,.81-.81h1.53a.72.72,0,0,1,.81.81v7l8.89,2.88c.37.13.56.32.56.58a.74.74,0,0,1-.15.42l-.09.13a.83.83,0,0,1-.72.41h-.16l-.18,0-8.15-2.62Z" class="cls-11"/><path data-cppathid="10033" transform="translate(0 0)" d="M194,420.66a.8.8,0,0,1-.76.57h-.12a.21.21,0,0,1-.12,0l-1.3-.27c-.41-.08-.62-.28-.62-.61a1.29,1.29,0,0,1,.08-.4l5.45-12.81h-6c-.54,0-.81-.25-.81-.74s.27-.74.81-.74h6.65l1.06-2.48a.8.8,0,0,1,.76-.56h.12l.12,0,1.31.27c.4.08.61.29.61.62a1.61,1.61,0,0,1-.07.39l-.74,1.74H209c.51,0,.76.22.76.64a.61.61,0,0,1,0,.14l0,.13-3.47,13.9a.74.74,0,0,1-1,.64l-4.94-.81c-.44-.08-.66-.29-.66-.62a.57.57,0,0,1,0-.13,1,1,0,0,1,0-.14l0,0a.78.78,0,0,1,.76-.59h.11a.2.2,0,0,1,.11,0l2.65.47,3.05-12.13h-6.73Z" class="cls-11"/><path data-cppathid="10034" transform="translate(0 0)" d="M230,412.31a1.05,1.05,0,0,1,.44-.1.88.88,0,0,1,.66.3l.13.12a.78.78,0,0,1,.27.54c0,.25-.16.44-.47.59l-15.64,7.17a.85.85,0,0,1-.4.1c-.37,0-.56-.24-.56-.71V403.57a.72.72,0,0,1,.81-.81h1.52a.72.72,0,0,1,.81.81V418Z" class="cls-11"/><path data-cppathid="10035" transform="translate(0 0)" d="M242.32,407.23c.27.18.41.37.41.56a.74.74,0,0,1-.34.57l-.29.24a1,1,0,0,1-.59.23,1,1,0,0,1-.54-.18l-6.51-3.95q-.42-.27-.42-.57a.77.77,0,0,1,.34-.56l.3-.25a1,1,0,0,1,.59-.22,1,1,0,0,1,.54.18Zm7.93,2.65a1.07,1.07,0,0,1,.56-.17.9.9,0,0,1,.57.2l.32.24a.74.74,0,0,1,.34.57.68.68,0,0,1-.39.56l-14.44,9.09a1.08,1.08,0,0,1-.57.17,1,1,0,0,1-.56-.2l-.32-.24a.74.74,0,0,1-.34-.57.68.68,0,0,1,.39-.56Z" class="cls-11"/><path data-cppathid="10036" transform="translate(0 0)" d="M258.23,412.71a.74.74,0,0,1-.69.46h-.17l-.17,0-1.16-.29c-.37-.1-.56-.3-.56-.62a1,1,0,0,1,.12-.44l5.48-9.67a.75.75,0,0,1,.69-.47h.17l.17,0,1.15.29c.38.1.57.31.57.62a1,1,0,0,1-.12.44l0,.05h10.39c.47,0,.71.18.71.54a1,1,0,0,1-.15.44l-9.38,16.26a.84.84,0,0,1-.73.46h-.15l-.17,0-1.11-.3c-.39-.1-.59-.3-.59-.61a.92.92,0,0,1,.15-.45l3.73-6.45-.05,0-4.69-2.8a.62.62,0,0,1-.41-.56.74.74,0,0,1,.34-.57l.29-.24a.88.88,0,0,1,.62-.25.89.89,0,0,1,.51.17l4.35,2.61,3.88-6.71h-8.37Zm17-9.6a.58.58,0,0,1,0,.21c0,.3-.22.48-.66.51l-.72.08c-.5.06-.82-.1-.93-.48l-1.28-3.9a1.06,1.06,0,0,1,0-.21c0-.31.22-.48.66-.52l.71-.07q.8-.09,1,.48Zm2.71-1.13a1,1,0,0,1,0,.2c0,.29-.21.46-.64.52l-.71.1c-.53.06-.84-.1-1-.49l-1.25-3.64a.36.36,0,0,1,0-.11.37.37,0,0,1,0-.11c0-.27.22-.44.66-.5l.71-.09q.8-.09,1,.48Z" class="cls-11"/><path data-cppathid="10037" transform="translate(0 0)" d="M295.41,410.91c.54,0,.81.25.81.74s-.27.74-.81.74H278.86c-.54,0-.81-.25-.81-.74s.27-.74.81-.74Z" class="cls-11"/></g><g data-name="Attendance PBI" id="Attendance_PBI"><path data-cppathid="10038" transform="translate(0 0)" d="M403.28,339.33a12.39,12.39,0,0,1-12.39,12.38H12.38A12.38,12.38,0,0,1,0,339.33V277.9a12.37,12.37,0,0,1,12.38-12.37H390.89a12.38,12.38,0,0,1,12.39,12.37Z" class="cls-10"/><path data-cppathid="10039" transform="translate(0 0)" d="M165,317.57v.07h5.33v-5.8a.72.72,0,0,1,.81-.81h1.52a.72.72,0,0,1,.81.81v6.71a.72.72,0,0,1-.81.81H171.1a.8.8,0,0,1-.64-.25h-16.3a.72.72,0,0,1-.81-.81v-6.46a.72.72,0,0,1,.81-.81h1.52a.72.72,0,0,1,.81.81v5.8h5.33v-9.06h-6.9a.72.72,0,0,1-.81-.81v-7.22a.72.72,0,0,1,.81-.81h1.52a.72.72,0,0,1,.81.81v6.55h4.57v-7.9a.72.72,0,0,1,.81-.81h1.52a.72.72,0,0,1,.81.81v7.9h4.57v-6.55a.72.72,0,0,1,.81-.81h1.52a.72.72,0,0,1,.81.81v7.68a.72.72,0,0,1-.81.81h-1.52a.72.72,0,0,1-.76-.46H165Z" class="cls-11"/><path data-cppathid="10040" transform="translate(0 0)" d="M180.14,319.26a.73.73,0,0,1-.86.76l-1.52,0a.71.71,0,0,1-.77-.86l1.38-17a.73.73,0,0,1,.86-.76l1.52.05a.78.78,0,0,1,.67.34h6.36a1,1,0,0,1-.08-.39v-2.53a.72.72,0,0,1,.81-.81H190a.72.72,0,0,1,.81.81v2.53a1,1,0,0,1-.07.39h7.39c.54,0,.81.25.81.74s-.27.73-.81.73H181.44Zm4.93-1.1a.72.72,0,0,1-.81.81h-1.52a.72.72,0,0,1-.81-.81v-5.38a.72.72,0,0,1,.81-.81h1.52a.82.82,0,0,1,.64.24h2.95v-1.74h-3.46a.72.72,0,0,1-.81-.81v-2.75h-1.26c-.54,0-.81-.25-.81-.74s.27-.74.81-.74h1.26v-.88a.72.72,0,0,1,.81-.81h1.52a.72.72,0,0,1,.81.81v.88h5.72v-.88a.72.72,0,0,1,.81-.81h1.52a.72.72,0,0,1,.81.81v.88h1.87c.54,0,.81.25.81.74s-.27.74-.81.74h-1.87v2.92a.72.72,0,0,1-.81.81h-1.52a.81.81,0,0,1-.54-.17H191v1.74h5.13a.72.72,0,0,1,.82.81v5c0,.59-.29.84-.86.76l-3.37-.39c-.56-.09-.78-.36-.69-.84a.8.8,0,0,1,.94-.64l.83.1v-3.31H191V319a.72.72,0,0,1-.81.81h-1.52a.72.72,0,0,1-.81-.81v-5.3h-2.78Zm1.65-9.16h5.72v-2.09h-5.72Z" class="cls-11"/><path data-cppathid="10041" transform="translate(0 0)" d="M205.58,312.9s.06,0,.07,0V306l-3-2.58a1.1,1.1,0,0,1-.4-.79.73.73,0,0,1,.4-.66l.56-.32a.75.75,0,0,1,.35-.07.77.77,0,0,1,.51.17l1.57,1.35v-4a.85.85,0,0,1,.84-.84H208a.78.78,0,0,1,.59.25.82.82,0,0,1,.25.59v19.62a.83.83,0,0,1-.25.59.81.81,0,0,1-.59.24h-1.47a.81.81,0,0,1-.59-.24.79.79,0,0,1-.25-.59v-3.56l-2,1.32a.67.67,0,0,1-.39.13.78.78,0,0,1-.44-.15l-.17-.12a.92.92,0,0,1-.42-.79.89.89,0,0,1,.44-.78Zm6.65,6.34a.64.64,0,0,1-.56.27l-.15,0-.15,0-.73-.3a.82.82,0,0,1-.62-.81,1,1,0,0,1,.23-.61A22.24,22.24,0,0,0,214.71,307H211a.87.87,0,0,1-.59-.21.69.69,0,0,1,0-1.06.87.87,0,0,1,.59-.21h3.95c.1-.91.17-1.88.22-2.89s.08-2.11.1-3.27a.81.81,0,0,1,.23-.6.78.78,0,0,1,.58-.24h1.5c.23,0,.42.16.59.48a2.42,2.42,0,0,1,.22,1.19c0,1,0,1.94-.11,2.83s-.14,1.72-.23,2.5h4.12a.87.87,0,0,1,.59.21.69.69,0,0,1,0,1.06.87.87,0,0,1-.59.21h-4.32c-.07.41-.13.8-.2,1.18a2.1,2.1,0,0,1,.15.22l5,9.65a.91.91,0,0,1,.13.44.8.8,0,0,1-.19.53.85.85,0,0,1-.53.3l-1.1.27a.83.83,0,0,1-.49,0,.67.67,0,0,1-.37-.35l-3.71-7.1a17.68,17.68,0,0,1-1.89,3.9C213.9,317.08,213.1,318.17,212.23,319.24Zm10.69-15.7a.83.83,0,0,1-.15.69.89.89,0,0,1-.61.35l-1.45.12a.86.86,0,0,1-.57-.15.69.69,0,0,1-.29-.49l-.72-3.56a.89.89,0,0,1,.15-.71.77.77,0,0,1,.62-.32l1.44-.13a.75.75,0,0,1,.57.14.74.74,0,0,1,.29.5Z" class="cls-11"/><path data-cppathid="10042" transform="translate(0 0)" d="M230.31,313.71a1,1,0,0,1,.69-.34l.22,0,.19.07.76.32c.33.15.5.35.5.59a.76.76,0,0,1-.25.54l-3.51,3.81a1,1,0,0,1-.69.34l-.2,0a.64.64,0,0,0-.22-.06l-.76-.32c-.33-.15-.49-.35-.49-.59a.72.72,0,0,1,.25-.54ZM231.9,309a.68.68,0,0,1,.37.57.73.73,0,0,1-.37.56l-.39.27a1,1,0,0,1-.56.2,1.12,1.12,0,0,1-.57-.2l-3.26-2.26a.73.73,0,0,1-.37-.56.69.69,0,0,1,.37-.57l.39-.27a1,1,0,0,1,.56-.2.84.84,0,0,1,.57.2Zm.08-6.38a.75.75,0,0,1,.32.56.66.66,0,0,1-.42.57l-.56.29a1,1,0,0,1-.52.15.84.84,0,0,1-.59-.25l-3-2.55a.77.77,0,0,1-.32-.57.65.65,0,0,1,.42-.56l.56-.3a1,1,0,0,1,.52-.14.88.88,0,0,1,.59.24ZM234.26,319a.82.82,0,0,1-.73.49l-.15,0-.15,0-1.15-.3c-.38-.1-.57-.3-.57-.61a1.27,1.27,0,0,1,.12-.44l4.06-7.25h-1.53a.72.72,0,0,1-.81-.81V299.34a.72.72,0,0,1,.81-.81h1.53a.7.7,0,0,1,.73.42h8.16a.72.72,0,0,1,.81.81V310a.72.72,0,0,1-.81.81h-1.53l-.22,0v6.87H244v-2.92a.72.72,0,0,1,.81-.81h1.52a.72.72,0,0,1,.81.81v3.59a.72.72,0,0,1-.81.81H240.5a.72.72,0,0,1-.81-.81v-7.94h-.76a1,1,0,0,1-.12.45Zm8-18.55H236.5v8.5h5.74Z" class="cls-11"/></g><g data-name="View Grades compact" id="View_Grades_compact"><path data-cppathid="10043" transform="translate(0 0)" d="M403.28,135.6A12.38,12.38,0,0,1,390.89,148H12.38A12.37,12.37,0,0,1,0,135.6V74.17A12.38,12.38,0,0,1,12.38,61.79H390.89a12.39,12.39,0,0,1,12.39,12.38Z" class="cls-10"/><path data-cppathid="10044" transform="translate(0 0)" d="M145.91,115.06c0,.51-.29.76-.83.76l-1.5,0a.7.7,0,0,1-.79-.84l.69-15a1.13,1.13,0,0,1,.15-.49.66.66,0,0,1-.12-.42c0-.49.27-.74.81-.74h8.79l-.81-2.5a1.09,1.09,0,0,1-.05-.32c0-.38.22-.59.66-.64l1.38-.2h.19a.73.73,0,0,1,.76.61l1,3.07H163c.54,0,.81.25.81.74s-.27.74-.81.74h-6.32l2.12,6.55,2.23-3.58a.87.87,0,0,1,.74-.47,1.57,1.57,0,0,1,.32.05l1.05.32c.38.13.57.34.57.61a1,1,0,0,1-.15.45l-3.71,5.91,1.23,3.81,1.4-.37.27,0a.84.84,0,0,1,.76.52,1,1,0,0,1,.12.39c0,.33-.19.54-.59.64l-3.61.94-.14,0h-.13a.74.74,0,0,1-.73-.59l-.64-2L156.47,115a.84.84,0,0,1-.73.46,1.39,1.39,0,0,1-.32,0l-1.06-.32c-.38-.14-.56-.34-.56-.62a.83.83,0,0,1,.14-.44l2.8-4.47-3.17-9.87h-7a1.12,1.12,0,0,1,0,.27l-.2,4.22h5.95c.55,0,.81.28.76.84l-.76,9.62c0,.48-.27.72-.67.72l-.27,0-3.88-1c-.41-.1-.61-.3-.61-.59a.31.31,0,0,1,0-.17l.06-.17,0-.08a.84.84,0,0,1,.76-.51H148l.15,0,1.23.29.61-7.51h-3.61ZM162,96.25a.75.75,0,0,1,.42.59.77.77,0,0,1-.29.54l-.25.2a1,1,0,0,1-.64.27,1,1,0,0,1-.46-.15l-3-1.65c-.28-.18-.42-.37-.42-.59a.72.72,0,0,1,.3-.54l.24-.19a1,1,0,0,1,.64-.27.9.9,0,0,1,.47.14Z" class="cls-11"/><path data-cppathid="10045" transform="translate(0 0)" d="M169.34,114.13a.74.74,0,0,1-.88.74l-.79-.05a.69.69,0,0,1-.73-.86l.31-3.74a.73.73,0,0,1,.89-.73l.78.05a.69.69,0,0,1,.74.86Zm4.28,1.05a.72.72,0,0,1-.82.82h-1.52a.72.72,0,0,1-.81-.82v-7.07l-2.7.22c-.49,0-.74-.12-.74-.46a.8.8,0,0,1,.18-.49l2.26-3.52-.05-.07L167.35,101a1,1,0,0,1-.22-.57.84.84,0,0,1,.22-.56l3.93-5.16a.86.86,0,0,1,.69-.39,1.19,1.19,0,0,1,.39.07l.94.32c.34.12.51.31.51.59a.85.85,0,0,1-.19.49l-3.52,4.64.84,1.11.88-1.38a.9.9,0,0,1,.76-.44,1.48,1.48,0,0,1,.32,0l1.06.32c.38.13.56.33.56.59a.64.64,0,0,1,0,.22l-.13.25-3.49,5.42,3-.24-.42-1.7a1.44,1.44,0,0,1,0-.24.66.66,0,0,1,.66-.72l.71-.09a.74.74,0,0,1,.94.64l.91,3.75a1.69,1.69,0,0,1,0,.25.65.65,0,0,1-.66.71l-.71.1a.74.74,0,0,1-.94-.64l-.15-.59h-.07l-.56,0a.85.85,0,0,1,.05.3Zm3.48-1.62a.7.7,0,0,1-.76.86l-.78,0a.71.71,0,0,1-.86-.73l-.32-3.07a.85.85,0,0,1,.17-.63.8.8,0,0,1,.59-.26l.78,0a.72.72,0,0,1,.86.74ZM184,101.75v.07h3.56c.54,0,.81.25.81.74s-.27.74-.81.74H177.35c-.54,0-.81-.25-.81-.74s.27-.74.81-.74h3.49v-1H178.5c-.54,0-.81-.24-.81-.73s.27-.74.81-.74h2.34V97.87h-3c-.54,0-.81-.25-.81-.74s.27-.73.81-.73h3v-.79a.72.72,0,0,1,.81-.81h1.52a.72.72,0,0,1,.81.81v.79h3c.54,0,.81.24.81.73s-.27.74-.81.74h-3v1.45h2.38c.54,0,.81.24.81.74s-.27.73-.81.73H184Zm-6.56,3a.72.72,0,0,1,.81-.81h1.53a.94.94,0,0,1,.49.12H187a.72.72,0,0,1,.81.81v7.61a.72.72,0,0,1-.81.81h-1.52a.91.91,0,0,1-.49-.12h-4.74a.94.94,0,0,1-.49.12h-1.53a.72.72,0,0,1-.81-.81ZM179,116a.89.89,0,0,1-.44.1.9.9,0,0,1-.66-.32l-.12-.12a.78.78,0,0,1-.27-.52c0-.24.16-.44.49-.59l2.13-1a1.06,1.06,0,0,1,.45-.09.87.87,0,0,1,.66.32l.12.12a.76.76,0,0,1,.27.51c0,.25-.16.45-.49.59Zm5.68-10.49h-4.1v1h4.1Zm-4.1,3.64h4.1V108h-4.1Zm0,2.53h4.1v-1.06h-4.1Zm7,3c.32.15.49.34.49.59a.84.84,0,0,1-.22.49l-.18.17a1,1,0,0,1-.68.35,1,1,0,0,1-.42-.1L184.05,115c-.32-.15-.49-.35-.49-.59a.75.75,0,0,1,.22-.49l.18-.17a1,1,0,0,1,.68-.35.87.87,0,0,1,.42.1Z" class="cls-11"/><path data-cppathid="10046" transform="translate(0 0)" d="M206.4,115a.78.78,0,0,1-.64.34,1.05,1.05,0,0,1-.46-.12l-.74-.34c-.31-.15-.47-.35-.47-.59a1.07,1.07,0,0,1,.2-.52,8.73,8.73,0,0,0,.91-1.81,12.44,12.44,0,0,0,.61-2.24,12.93,12.93,0,0,0,.22-2.38,9.64,9.64,0,0,0-1.1-4.92,4.86,4.86,0,0,0-3.12-2.38,33.64,33.64,0,0,1,.59,5.85,12.72,12.72,0,0,1-1.41,6.48,4.55,4.55,0,0,1-4.17,2.38,5.27,5.27,0,0,1-2.92-.81,5.45,5.45,0,0,1-1.94-2.22,7.34,7.34,0,0,1-.69-3.26,10.49,10.49,0,0,1,.72-3.88,10.16,10.16,0,0,1,2-3.2,9.24,9.24,0,0,1,2.93-2.17,8.06,8.06,0,0,1,3.55-.79,9.63,9.63,0,0,1,4.66,1.07,7.22,7.22,0,0,1,3,3.07,10,10,0,0,1,1.06,4.78A11.13,11.13,0,0,1,206.4,115Zm-12-6.54a8,8,0,0,0,.34,2.4,5.19,5.19,0,0,0,.9,1.76,1.55,1.55,0,0,0,1.16.66c.46,0,.87-.34,1.22-1a10.07,10.07,0,0,0,.84-2.76,23.44,23.44,0,0,0,.3-3.93c0-.84,0-1.7-.11-2.58s-.19-1.79-.35-2.7a6.36,6.36,0,0,0-2.18,1.81A10.09,10.09,0,0,0,195,105,10.57,10.57,0,0,0,194.42,108.5Z" class="cls-11"/><path data-cppathid="10047" transform="translate(0 0)" d="M215.76,115.11a.72.72,0,0,1-.81.81h-1.52a.72.72,0,0,1-.81-.81V95.86a.72.72,0,0,1,.81-.81H215a.85.85,0,0,1,.59.19h5.87a.72.72,0,0,1,.81.81v8.28a.72.72,0,0,1-.81.81h-1.52a.82.82,0,0,1-.52-.15h-3.61Zm3.32-18.39h-3.32v2.82h3.32Zm-3.32,6.8h3.32V101h-3.32Zm3.39,11.59a.9.9,0,0,1-.66.32,1.34,1.34,0,0,1-.47-.12l-.71-.32c-.33-.15-.49-.35-.49-.59a.78.78,0,0,1,.27-.54l1.84-1.92a.92.92,0,0,1-.35,0h-1.52a.72.72,0,0,1-.81-.81v-2.85a.72.72,0,0,1,.81-.81h1.16l-.45-.61a.87.87,0,0,1-.19-.49c0-.28.18-.49.54-.62l1-.34a1,1,0,0,1,.37-.07.84.84,0,0,1,.71.41l1,1.35a.89.89,0,0,1,.2.49v0h2.87a.82.82,0,0,1,.22-.52l1.13-1.4a.91.91,0,0,1,.72-.36,1.24,1.24,0,0,1,.39.07l.88.34c.35.12.52.31.52.59a.81.81,0,0,1-.22.52l-.62.76h.84a.72.72,0,0,1,.81.81v2.7a.72.72,0,0,1-.81.81h-1.52a.82.82,0,0,1-.52-.15h-.59v2.07H226v-.22c0-.13.27-.2.81-.2h1.53a.72.72,0,0,1,.81.81v.27a.72.72,0,0,1-.81.81h-5.21a.72.72,0,0,1-.81-.81v-2.73h-.27a.85.85,0,0,1-.27.52Zm6.61-6H219.4v1.23h6.36Zm4.22,6.32c-.54,0-.78-.32-.71-.82s.15-.73.22-.73l.1,0v-9.11H225.9a.74.74,0,0,1-.68.32h-1.53a.72.72,0,0,1-.81-.81V95.86a.72.72,0,0,1,.81-.81h1.53a.87.87,0,0,1,.59.19h6.11a.72.72,0,0,1,.81.81v18.77c0,.57-.28.83-.83.78Zm-.39-18.74H226v2.72h3.56ZM226,103.35h3.56v-2.43H226Z" class="cls-11"/><path data-cppathid="10048" transform="translate(0 0)" d="M238.58,115.55a.93.93,0,0,1-.45.1.9.9,0,0,1-.68-.32l-.13-.12a.74.74,0,0,1-.24-.52c0-.24.16-.44.49-.59l3-1.35h-.91a.72.72,0,0,1-.81-.81V105a.72.72,0,0,1,.81-.81h1.52a.83.83,0,0,1,.64.24h13a.72.72,0,0,1,.81.81V112a.72.72,0,0,1-.81.81h-1.53a.85.85,0,0,1-.49-.13h-1.91v1.23h4v-.37q0-.36.81-.36h1.52a.72.72,0,0,1,.81.81v.59a.72.72,0,0,1-.81.81h-8.72a.72.72,0,0,1-.81-.81v-1.9h-3.09a.71.71,0,0,1-.39.32Zm6.95-13.31v.08h1.27c.54,0,.81.24.81.73s-.27.74-.81.74h-6.75a.82.82,0,0,1-.52.15H238a.72.72,0,0,1-.81-.81V95.32a.72.72,0,0,1,.81-.82h1.52a.82.82,0,0,1,.52.15h6.68c.54,0,.81.25.81.74s-.27.74-.81.74h-1.15v1.1h1.35a.72.72,0,0,1,.81.81v2.61a.72.72,0,0,1-.81.81h-1.4Zm-3.1-6v-.07h-2.09v1.1h2.09v-1Zm2.16,2.51h-4.25v1.12h4.25Zm-2.21,2.67v-.07h-2v1h2v-.94Zm10.07,4.55H242v.83h10.46ZM242,109h10.46v-.74H242Zm0,2.26h10.46v-.79H242Zm9.14-11a.72.72,0,0,1-.86.74l-1.53-.07c-.55,0-.81-.32-.76-.86l.49-4.62a.73.73,0,0,1,.86-.74l1.53.08a.69.69,0,0,1,.73.86l-.1,1h5.33c.54,0,.82.24.82.73s-.28.74-.82.74h-5.47Zm5.2,1.55c.54,0,.81.25.81.74s-.27.73-.81.73h-5.67c-.54,0-.81-.24-.81-.73s.27-.74.81-.74Z" class="cls-11"/></g><g id="heading"><g id="underline"><path data-cppathid="10049" transform="translate(0 0)" d="M343.52,43.43l-11.17-.32c-1.08,0-2.16,0-3.24,0a20.14,20.14,0,0,1-2.93-.09,42.07,42.07,0,0,0-5.84-.25c-4.4-.08-8.8-.23-13.21-.3-2.24,0-4.47-.32-6.73-.15-3.47-.39-7,.06-10.54-.36a15.7,15.7,0,0,0-3.21,0,27.57,27.57,0,0,1-3.52,0c-1.84-.07-3.7-.06-5.55-.13A118,118,0,0,0,265,42a5.17,5.17,0,0,1-.88,0c-3.81-.37-7.65-.13-11.47-.18-.88,0-1.78,0-2.65-.06a40.22,40.22,0,0,0-7.28.12,63.41,63.41,0,0,1-7,0c-2.16,0-4.31,0-6.47,0-1.67,0-3.34.06-5,0-3.93-.12-7.85,0-11.76.15a12.92,12.92,0,0,1-1.76,0c-4.7-.34-9.41-.16-14.12-.11-1.67,0-3.34,0-5,0L184.5,42a20.45,20.45,0,0,1-2.34.05,33.18,33.18,0,0,0-5.55,0A15.37,15.37,0,0,1,174,42c-1.45-.16-2.92-.18-4.36-.29a63.09,63.09,0,0,0-6.74,0c-3.52.09-7.06.06-10.6.08H144c-1.57,0-3.14,0-4.71,0a31,31,0,0,0-4.09.14A15.66,15.66,0,0,1,132,42a23.62,23.62,0,0,0-4.68,0,18.64,18.64,0,0,1-4.09,0,19.64,19.64,0,0,0-2-.09c-1,0-2,0-2.93,0-3.64-.15-7.27-.08-10.9,0-.48,0-1,0-1.46,0-4.8-.09-9.6-.2-14.41.06-1.74.09-3.52-.12-5.28-.11-3.24,0-6.48.11-9.71.1-2.75,0-5.49-.09-8.24-.18-2.05-.07-4.09-.14-6.16,0a28.66,28.66,0,0,1-5.56-.16,19.23,19.23,0,0,0-4.09-.13c-.48,0-1,0-1.47,0a3.74,3.74,0,0,1-3-1c-.54-.57-.21-1.58.71-2a4.32,4.32,0,0,1,1.59-.33c1.66,0,3.33,0,5,0,1.47,0,2.93.18,4.39.19,4,0,8.05,0,12.08,0,1.17,0,2.35,0,3.53,0a13.73,13.73,0,0,0,2,0,11,11,0,0,1,3.19-.06,5.16,5.16,0,0,0,1.17.06c3.47-.44,7,.27,10.51-.2a38,38,0,0,1,4.41,0c2,0,3.93,0,5.89,0,2.83-.05,5.67-.15,8.51,0a16.59,16.59,0,0,0,2.34,0,74.9,74.9,0,0,1,7.93-.12,39.09,39.09,0,0,0,5,0c.48-.05,1,0,1.47-.05,2.94-.07,5.87-.15,8.81-.2,1.07,0,2.14,0,3.22.07a11.59,11.59,0,0,0,1.75.07,35.46,35.46,0,0,1,5.83,0,12,12,0,0,0,1.47,0c4.28-.4,8.62-.13,12.93-.26,1.46-.05,2.94-.09,4.41-.11,2.24,0,4.48-.06,6.71,0,1.57,0,3.11,0,4.67-.07,1.35-.08,2.73,0,4.1,0,.88,0,1.76.11,2.63.07a67.58,67.58,0,0,1,10.26,0,5.72,5.72,0,0,0,1.16-.06,23.61,23.61,0,0,1,4.68,0,17.67,17.67,0,0,0,2.91,0,36.34,36.34,0,0,1,7.3,0,7.89,7.89,0,0,0,1.74.1c2.42-.23,4.87.05,7.28-.14a6.5,6.5,0,0,1,.88,0c5.48.36,11,.12,16.48.22,3.43,0,6.87,0,10.31,0,1,0,1.94.1,2.92.12.68,0,1.36,0,2,0a6.74,6.74,0,0,1,1.15-.09,38,38,0,0,0,6.13.14,87.46,87.46,0,0,1,9,.37,5.18,5.18,0,0,0,.88,0c2.84-.21,5.68.06,8.52,0,1.07,0,2.15.08,3.22.14a8,8,0,0,0,1.15.11c2.56-.29,5.06.13,7.6.12h.59a92.24,92.24,0,0,1,10.8.5,20.25,20.25,0,0,0,2.06.06c4-.07,8,.26,12,.42,1.16.05,2.28.31,3.44.37s2.14-.06,3.19,0q9.38.54,18.72,1.14c3.21.21,6.39.53,9.64.59a24.47,24.47,0,0,1,3.44.39,5.68,5.68,0,0,1,1.44.49c.42.19.21.71-.31.78a14.86,14.86,0,0,1-2,.16c-3.15,0-6.29,0-9.43,0Z" class="cls-11"/></g><path data-cppathid="10050" transform="translate(0 0)" d="M70.92,30.1a1.12,1.12,0,0,1-1,.61,1.91,1.91,0,0,1-.42-.06l-1.37-.42c-.49-.17-.74-.44-.74-.8a1.16,1.16,0,0,1,.19-.58L79.05,10.49H59.46q-1.05,0-1.05-1t1.05-1H82.85c.6,0,.9.22.9.67a1.32,1.32,0,0,1-.19.61ZM82,9.92a6.62,6.62,0,0,1-2.76-.57,4.9,4.9,0,0,1-2-1.52,3.48,3.48,0,0,1-.73-2.16,3.52,3.52,0,0,1,.73-2.16A5,5,0,0,1,79.2,2,6.77,6.77,0,0,1,82,1.45,6.68,6.68,0,0,1,84.73,2a5,5,0,0,1,2,1.51,3.52,3.52,0,0,1,.73,2.16,3.48,3.48,0,0,1-.73,2.16,4.94,4.94,0,0,1-2,1.52A6.53,6.53,0,0,1,82,9.92ZM81.87,8.5A1.9,1.9,0,0,0,83,8.1a3.15,3.15,0,0,0,.92-1,2.7,2.7,0,0,0,.37-1.38,2.8,2.8,0,0,0-.36-1.39,3,3,0,0,0-.9-1,1.88,1.88,0,0,0-2.29,0,3,3,0,0,0-.93,1,2.9,2.9,0,0,0-.35,1.39,2.7,2.7,0,0,0,.37,1.38,3,3,0,0,0,.92,1A1.9,1.9,0,0,0,81.87,8.5Z" class="cls-11"/><path data-cppathid="10051" transform="translate(0 0)" d="M114.79,29.27a.94.94,0,0,1-1.05,1.06h-2a.92.92,0,0,1-1-.68H94.47a.92.92,0,0,1-1,.68h-2a.94.94,0,0,1-1-1.06V9.81a.93.93,0,0,1,1-1.05h2a1.29,1.29,0,0,1,.29,0h20a.93.93,0,0,1,1.05,1.06ZM110.7,10.71H94.53v17H110.7Z" class="cls-11"/><path data-cppathid="10052" transform="translate(0 0)" d="M124.36,20.18a1,1,0,0,1-.9.61.75.75,0,0,1-.22,0l-.23,0-1.5-.39c-.49-.13-.74-.39-.74-.8a1.37,1.37,0,0,1,.16-.57l7.14-12.61a1,1,0,0,1,.9-.61.75.75,0,0,1,.22,0l.22,0,1.51.39c.49.13.73.39.73.8a1.24,1.24,0,0,1-.16.57l0,.07H145c.62,0,.93.23.93.7a1.33,1.33,0,0,1-.2.58L133.51,30.1a1.12,1.12,0,0,1-1,.61l-.19,0-.23,0-1.44-.39c-.51-.13-.76-.39-.76-.8a1.1,1.1,0,0,1,.19-.57L135,20.47l-.06,0-6.11-3.65a.84.84,0,0,1-.55-.74,1,1,0,0,1,.45-.73l.38-.32a1.2,1.2,0,0,1,.8-.32,1.17,1.17,0,0,1,.68.22l5.66,3.39,5.06-8.73H130.37ZM146.5,7.68a1,1,0,0,1,0,.27c0,.4-.28.63-.86.67l-.93.1c-.66.08-1.06-.13-1.21-.63L141.86,3a.88.88,0,0,1,0-.26c0-.41.29-.63.86-.68l.93-.1c.68-.08,1.1.13,1.25.63ZM150,6.2a1,1,0,0,1,0,.27c0,.37-.27.6-.83.68l-.93.12c-.68.08-1.09-.13-1.24-.63L145.41,1.9a.83.83,0,0,1,0-.15.59.59,0,0,1,0-.14c0-.36.29-.57.86-.65l.93-.13c.68-.08,1.1.13,1.25.63Z" class="cls-11"/><path data-cppathid="10053" transform="translate(0 0)" d="M154.09,19.8a1.12,1.12,0,0,1-.93.57,1.45,1.45,0,0,1-.48-.09l-1.31-.42c-.49-.17-.74-.44-.74-.8a1.09,1.09,0,0,1,.22-.61l7.43-11.23a1.09,1.09,0,0,1,.93-.57,1.28,1.28,0,0,1,.48.09l1.31.42c.49.17.73.44.73.8a1.2,1.2,0,0,1-.22.61l-.13.19h14.75c.6,0,.9.22.9.67a1.32,1.32,0,0,1-.19.61L164,30.61a1.12,1.12,0,0,1-1,.61,1.91,1.91,0,0,1-.42-.06l-1.37-.42c-.49-.17-.74-.44-.74-.8a1.1,1.1,0,0,1,.19-.57l11.59-18.69H160.1Z" class="cls-11"/><path data-cppathid="10054" transform="translate(0 0)" d="M188.49,30.29a.94.94,0,0,1-1.06,1.06h-2a.93.93,0,0,1-1.06-1.06V8.05A.93.93,0,0,1,185.45,7h2a.94.94,0,0,1,1.06,1.05v9.09l11.58,3.75c.49.17.74.42.74.76a1,1,0,0,1-.2.55l-.12.16a1.08,1.08,0,0,1-.93.54h-.21l-.24-.05-10.62-3.43Z" class="cls-11"/><path data-cppathid="10055" transform="translate(0 0)" d="M209.29,28.92a1,1,0,0,1-1.22.8l-1.86-.23c-.59-.06-.89-.36-.89-.89a1.78,1.78,0,0,1,.06-.35l5.41-18.79a1,1,0,0,1,1.22-.8l1.85.23c.6.06.9.36.9.89a1.38,1.38,0,0,1-.07.35Zm21.21-.74a1.8,1.8,0,0,1,.05.19,1.36,1.36,0,0,1,0,.2c0,.51-.29.8-.87.86l-1.89.22a1,1,0,0,1-1.21-.8L221.29,10a.77.77,0,0,1,0-.19,1.36,1.36,0,0,1,0-.2c0-.51.29-.8.87-.86L224,8.57a1,1,0,0,1,1.22.83Zm-1.18-17.65a1.12,1.12,0,0,1,0,.29c0,.44-.29.69-.86.74l-.93.11c-.66.08-1.07-.15-1.22-.69l-1.66-5.56a1.12,1.12,0,0,1,0-.29c0-.44.28-.69.86-.74l.93-.1c.68-.09,1.1.14,1.25.68Zm3.52-1.62a1.21,1.21,0,0,1,0,.3c0,.4-.28.65-.83.74l-.93.13c-.68.09-1.1-.14-1.25-.69l-1.63-5.18a1.42,1.42,0,0,1,0-.16.92.92,0,0,1,0-.16c0-.39.28-.63.86-.72L230,3c.68-.09,1.1.14,1.25.69Z" class="cls-11"/><path data-cppathid="10056" transform="translate(0 0)" d="M240.23,20.57a1.56,1.56,0,0,1,0,.35c0,.51-.29.8-.86.86l-1.86.23a1.07,1.07,0,0,1-1.25-.87l-1.21-4.93a.58.58,0,0,1,0-.19v-.16c0-.51.28-.8.86-.86l1.86-.23a1,1,0,0,1,1.21.87Zm5.25-.8a.85.85,0,0,1,0,.25q0,.84-1,.93l-1.92.16a1,1,0,0,1-1.18-.93l-.87-4.93a.85.85,0,0,1,0-.25q0-.84,1-.93l1.92-.16a1,1,0,0,1,1.18.93Zm1.69,10.52a1.06,1.06,0,0,1-1,.71H246a.38.38,0,0,1-.16,0l-1.63-.39c-.51-.13-.77-.39-.77-.8a1.13,1.13,0,0,1,.13-.54L250,15.89a1.07,1.07,0,0,1,1-.7h.16a.41.41,0,0,1,.16,0l1.63.39c.51.12.77.39.77.8a1.26,1.26,0,0,1-.13.54Z" class="cls-11"/><path data-cppathid="10057" transform="translate(0 0)" d="M261.54,19.8a1.09,1.09,0,0,1-.93.57,1.45,1.45,0,0,1-.48-.09l-1.31-.42c-.49-.17-.73-.44-.73-.8a1.09,1.09,0,0,1,.22-.61l7.42-11.23a1.12,1.12,0,0,1,.93-.57,1.28,1.28,0,0,1,.48.09l1.31.42c.49.17.74.44.74.8a1.3,1.3,0,0,1-.22.61l-.13.19h14.75c.6,0,.9.22.9.67a1.35,1.35,0,0,1-.2.61l-12.8,20.57a1.1,1.1,0,0,1-1,.61,1.91,1.91,0,0,1-.41-.06l-1.38-.42c-.49-.17-.73-.44-.73-.8a1.1,1.1,0,0,1,.19-.57l11.58-18.69H267.56Z" class="cls-11"/><path data-cppathid="10058" transform="translate(0 0)" d="M315,29.27a.94.94,0,0,1-1.05,1.06h-2a.92.92,0,0,1-1-.68H294.66a.92.92,0,0,1-1,.68h-2a.94.94,0,0,1-1.06-1.06V9.81a.93.93,0,0,1,1.06-1.05h2a1.29,1.29,0,0,1,.29,0h20A.93.93,0,0,1,315,9.85Zm-4.09-18.56H294.73v17h16.16Z" class="cls-11"/><path data-cppathid="10059" transform="translate(0 0)" d="M324.39,19.8a1.12,1.12,0,0,1-.93.57,1.45,1.45,0,0,1-.48-.09l-1.31-.42c-.49-.17-.74-.44-.74-.8a1.11,1.11,0,0,1,.23-.61l7.42-11.23a1.12,1.12,0,0,1,.93-.57,1.28,1.28,0,0,1,.48.09l1.31.42c.49.17.74.44.74.8a1.22,1.22,0,0,1-.23.61l-.13.19h14.76c.59,0,.89.22.89.67a1.32,1.32,0,0,1-.19.61l-12.8,20.57a1.11,1.11,0,0,1-1,.61,1.83,1.83,0,0,1-.41-.06l-1.38-.42c-.49-.17-.74-.44-.74-.8a1.12,1.12,0,0,1,.2-.57l11.58-18.69H330.41ZM347.27,9.08a1.56,1.56,0,0,1,0,.35.84.84,0,0,1-.86.9l-.93.12a1,1,0,0,1-1.22-.83L342.63,2.9a1.56,1.56,0,0,1,0-.35.84.84,0,0,1,.86-.9l.93-.12a1,1,0,0,1,1.25.83Zm3.52-1.95a1.56,1.56,0,0,1,0,.35.86.86,0,0,1-.83.89l-.93.16a1,1,0,0,1-1.25-.83l-1.63-6.27a1.33,1.33,0,0,1-.05-.19,1.28,1.28,0,0,1,0-.19c0-.47.29-.76.86-.87l.93-.16a1,1,0,0,1,1.25.83Z" class="cls-11"/></g></g></g></g></g></svg>