<?xml version="1.0" encoding="UTF-8"?>
<svg xmlns="http://www.w3.org/2000/svg" onmouseup="{ if(window.parent.document.onmouseup) window.parent.document.onmouseup(arguments[0]);}" viewBox="0 0 403.28 86.18"><defs><style>.cls-1{fill:#fff100;}.cls-2{fill:#603813;}</style></defs><g data-name="Layer 2" id="Layer_2"><g id="backlog"><g data-name="2023 jp" id="_2023_jp"><g data-name="semi-refined Product Backlog" id="semi-refined_Product_Backlog"><g data-name="Update Grades compact" id="Update_Grades_compact"><path data-cppathid="10000" transform="translate(0)" d="M403.28,73.8a12.39,12.39,0,0,1-12.39,12.38H12.38A12.38,12.38,0,0,1,0,73.8V12.38A12.38,12.38,0,0,1,12.38,0H390.89a12.39,12.39,0,0,1,12.39,12.38Z" class="cls-1"/><path data-cppathid="10001" transform="translate(0)" d="M145.91,53.27c0,.51-.29.76-.83.76l-1.5,0a.7.7,0,0,1-.79-.84l.69-15.05a1.13,1.13,0,0,1,.15-.49.66.66,0,0,1-.12-.42c0-.49.27-.74.81-.74h8.79L152.3,34a1.09,1.09,0,0,1-.05-.32c0-.38.22-.59.66-.64l1.38-.2h.19a.73.73,0,0,1,.76.61l1,3.07H163c.54,0,.81.25.81.74s-.27.73-.81.73h-6.32l2.12,6.56L161,40.92a.87.87,0,0,1,.74-.47,1.57,1.57,0,0,1,.32,0l1.05.32c.38.13.57.33.57.61a1,1,0,0,1-.15.44l-3.71,5.92,1.23,3.81,1.4-.37.27,0a.82.82,0,0,1,.76.52.93.93,0,0,1,.12.39c0,.33-.19.54-.59.64l-3.61.93a.32.32,0,0,1-.14,0h-.13a.74.74,0,0,1-.73-.59l-.64-2-1.33,2.14a.84.84,0,0,1-.73.46,1,1,0,0,1-.32-.05l-1.06-.32c-.38-.13-.56-.33-.56-.61a.83.83,0,0,1,.14-.44l2.8-4.47-3.17-9.88h-7a1.24,1.24,0,0,1,0,.27l-.2,4.23h5.95a.67.67,0,0,1,.76.83l-.76,9.63c0,.48-.27.71-.67.71a1,1,0,0,1-.27,0l-3.88-1c-.41-.1-.61-.3-.61-.59a.29.29,0,0,1,0-.17l.06-.18,0-.07a.85.85,0,0,1,.76-.52l.15,0a.8.8,0,0,1,.15,0l1.23.3.61-7.52h-3.61ZM162,34.46c.28.18.42.37.42.59a.77.77,0,0,1-.29.54l-.25.19a1,1,0,0,1-.64.27,1.08,1.08,0,0,1-.46-.14l-3-1.65a.75.75,0,0,1-.42-.59.7.7,0,0,1,.3-.54l.24-.2a1.05,1.05,0,0,1,.64-.27.92.92,0,0,1,.47.15Z" class="cls-2"/><path data-cppathid="10002" transform="translate(0)" d="M169.34,52.34a.73.73,0,0,1-.88.73l-.79,0a.68.68,0,0,1-.73-.85l.31-3.74a.73.73,0,0,1,.89-.73l.78,0a.7.7,0,0,1,.74.86Zm4.28,1a.72.72,0,0,1-.82.81h-1.52a.72.72,0,0,1-.81-.81V46.32l-2.7.22c-.49,0-.74-.12-.74-.47a.85.85,0,0,1,.18-.49l2.26-3.51-.05-.07-2.07-2.75a1,1,0,0,1-.22-.57.84.84,0,0,1,.22-.56L171.28,33a.86.86,0,0,1,.69-.39,1.19,1.19,0,0,1,.39.07l.94.32c.34.11.51.31.51.59a.85.85,0,0,1-.19.49l-3.52,4.64.84,1.11.88-1.38a.9.9,0,0,1,.76-.44,1.48,1.48,0,0,1,.32.05l1.06.32c.38.13.56.33.56.59a.64.64,0,0,1,0,.22c0,.08-.08.16-.13.24l-3.49,5.43,3-.24-.42-1.7a1.54,1.54,0,0,1,0-.24.66.66,0,0,1,.66-.72l.71-.09a.74.74,0,0,1,.94.63l.91,3.76a1.69,1.69,0,0,1,0,.25.65.65,0,0,1-.66.71l-.71.1a.74.74,0,0,1-.94-.64l-.15-.59h-.07l-.56.05a.84.84,0,0,1,.05.29Zm3.48-1.62a.7.7,0,0,1-.76.86l-.78,0a.72.72,0,0,1-.86-.74l-.32-3.07a.82.82,0,0,1,.17-.62.8.8,0,0,1,.59-.26l.78-.05a.72.72,0,0,1,.86.74ZM184,40V40h3.56c.54,0,.81.25.81.74s-.27.74-.81.74H177.35c-.54,0-.81-.25-.81-.74s.27-.74.81-.74h3.49V39H178.5c-.54,0-.81-.24-.81-.74s.27-.73.81-.73h2.34V36.08h-3c-.54,0-.81-.25-.81-.74s.27-.74.81-.74h3v-.78a.72.72,0,0,1,.81-.81h1.52a.72.72,0,0,1,.81.81v.78h3c.54,0,.81.25.81.74s-.27.74-.81.74h-3v1.45h2.38c.54,0,.81.24.81.73s-.27.74-.81.74H184Zm-6.56,2.95a.72.72,0,0,1,.81-.81h1.53a.94.94,0,0,1,.49.12H187a.72.72,0,0,1,.81.81v7.61a.72.72,0,0,1-.81.81h-1.52a.91.91,0,0,1-.49-.12h-4.74a.94.94,0,0,1-.49.12h-1.53a.72.72,0,0,1-.81-.81ZM179,54.18a1,1,0,0,1-.44.1.9.9,0,0,1-.66-.32l-.12-.12a.8.8,0,0,1-.27-.52c0-.25.16-.44.49-.59l2.13-1a1.06,1.06,0,0,1,.45-.1.9.9,0,0,1,.66.32l.12.13a.76.76,0,0,1,.27.51c0,.25-.16.44-.49.59Zm5.68-10.49h-4.1v1h4.1Zm-4.1,3.64h4.1V46.17h-4.1Zm0,2.53h4.1V48.8h-4.1Zm7,3c.32.15.49.34.49.59a.87.87,0,0,1-.22.49l-.18.17a1,1,0,0,1-.68.34,1,1,0,0,1-.42-.09l-2.46-1.08c-.32-.15-.49-.35-.49-.59a.75.75,0,0,1,.22-.49L184,52a1,1,0,0,1,.68-.34.87.87,0,0,1,.42.1Z" class="cls-2"/><path data-cppathid="10003" transform="translate(0)" d="M206.4,53.25a.81.81,0,0,1-.64.34,1.05,1.05,0,0,1-.46-.12l-.74-.35a.66.66,0,0,1-.47-.59,1.08,1.08,0,0,1,.2-.51,8.73,8.73,0,0,0,.91-1.81,12.32,12.32,0,0,0,.61-2.25,12.86,12.86,0,0,0,.22-2.38,9.62,9.62,0,0,0-1.1-4.91,4.86,4.86,0,0,0-3.12-2.38,33.53,33.53,0,0,1,.59,5.84A12.73,12.73,0,0,1,201,50.62,4.55,4.55,0,0,1,196.82,53a5.27,5.27,0,0,1-2.92-.81A5.45,5.45,0,0,1,192,50a7.34,7.34,0,0,1-.69-3.26,10.45,10.45,0,0,1,.72-3.88,10.16,10.16,0,0,1,2-3.2,9.43,9.43,0,0,1,2.93-2.18,8.19,8.19,0,0,1,3.55-.78,9.52,9.52,0,0,1,4.66,1.07,7.22,7.22,0,0,1,3,3.07,10,10,0,0,1,1.06,4.77A11.14,11.14,0,0,1,206.4,53.25Zm-12-6.54a8,8,0,0,0,.34,2.4,5,5,0,0,0,.9,1.75,1.54,1.54,0,0,0,1.16.67c.46,0,.87-.34,1.22-1a10,10,0,0,0,.84-2.77,23.27,23.27,0,0,0,.3-3.93c0-.83,0-1.69-.11-2.57s-.19-1.79-.35-2.71a6.4,6.4,0,0,0-2.18,1.82A10.09,10.09,0,0,0,195,43.24,10.57,10.57,0,0,0,194.42,46.71Z" class="cls-2"/><path data-cppathid="10004" transform="translate(0)" d="M213.62,54.08a.82.82,0,0,1-.67-.17.84.84,0,0,1-.26-.66c0-.37.23-.59.69-.67a7.74,7.74,0,0,0,4.47-2.72l-2.21-.69c-.38-.13-.57-.33-.57-.59a.84.84,0,0,1,.13-.39l.07-.13a.86.86,0,0,1,.71-.44.91.91,0,0,1,.37.08l2.51.78a16.94,16.94,0,0,0,1-2.09h-3a.77.77,0,0,1-.54.18h-1.52a.72.72,0,0,1-.81-.81V37.38a.72.72,0,0,1,.81-.81h1.52a.82.82,0,0,1,.64.24h4.77c0-.58,0-1.18.05-1.79v-.1h-9c-.54,0-.81-.24-.81-.73s.27-.74.81-.74h19.47c.54,0,.81.25.81.74s-.27.73-.81.73h-7.39a3.94,3.94,0,0,1,0,.52c0,.48,0,.93,0,1.37h5.77a.72.72,0,0,1,.81.82v8.13a.72.72,0,0,1-.81.81h-1.52a.77.77,0,0,1-.54-.18H223a15.94,15.94,0,0,1-1.55,2.9l11.08,3.42c.38.13.56.32.56.59a1,1,0,0,1-.12.39l-.07.12a.85.85,0,0,1-.71.44,1,1,0,0,1-.37-.07l-11.47-3.54A11.28,11.28,0,0,1,213.62,54.08Zm3.56-13h4.16c.13-.89.23-1.82.32-2.8h-4.48Zm0,3.83h3.25a19.33,19.33,0,0,0,.61-2.36h-3.86Zm6.39,0h4.77V42.56h-4.16C224,43.4,223.8,44.18,223.57,44.92Zm4.77-6.63H224.8c-.08,1-.2,1.91-.35,2.8h3.89Z" class="cls-2"/><path data-cppathid="10005" transform="translate(0)" d="M238.9,53.37a.92.92,0,0,1-.72.37,1.29,1.29,0,0,1-.39-.08l-.88-.34c-.35-.15-.52-.35-.52-.61a.76.76,0,0,1,.2-.5l3.56-4.47H237c-.54,0-.81-.24-.81-.73s.27-.74.81-.74h3.83V44.33H237c-.54,0-.81-.24-.81-.74s.27-.73.81-.73h1.15v0l-.27-5.45v-.12h-.32c-.54,0-.81-.25-.81-.74s.27-.74.81-.74h3.07V33.33a.72.72,0,0,1,.81-.81h1.52a.72.72,0,0,1,.81.81v2.45h2.83c.54,0,.81.25.81.74a.73.73,0,0,1-.2.54.69.69,0,0,1-.51.2.79.79,0,0,1,0,.22l-.86,5.38h.69c.54,0,.81.24.81.73s-.27.74-.81.74h-2.56v1.94h2.14c.54,0,.81.25.81.74s-.27.73-.81.73h-2.14l2.63,2a.72.72,0,0,1,.34.54c0,.22-.14.41-.44.59l-.49.3a.92.92,0,0,1-.52.17.85.85,0,0,1-.61-.25l-.91-.71v3.37a.72.72,0,0,1-.81.81H241.6a.72.72,0,0,1-.81-.81V51Zm2.35-10.64v.13h1.45a.8.8,0,0,1,0-.22l.86-5.38H241v0Zm8.94,10.64a.72.72,0,0,1-.86.78l-1.52,0a.71.71,0,0,1-.76-.84l.81-15a1,1,0,0,1,.17-.52.78.78,0,0,1,0-.14.66.66,0,0,1,.42-.57l7.73-4.27a.86.86,0,0,1,1.11.12l.22.2a.8.8,0,0,1,.32.56.66.66,0,0,1-.42.57l-6.53,3.61a.71.71,0,0,1,.14.54l-.12,2.26h6.34c.54,0,.81.24.81.73s-.27.74-.81.74h-1V53.71a.72.72,0,0,1-.81.81h-1.52a.72.72,0,0,1-.81-.81V42.12h-2.31Z" class="cls-2"/></g></g></g></g></g></svg>