<?xml version="1.0" encoding="UTF-8"?>
<svg xmlns="http://www.w3.org/2000/svg" onmouseup="{ if(window.parent.document.onmouseup) window.parent.document.onmouseup(arguments[0]);}" viewBox="0 0 204.97 572.95" xmlns:xlink="http://www.w3.org/1999/xlink"><defs><style>.cls-1,.cls-17,.cls-25{fill:none;}.cls-2{fill:#d7d7d7;}.cls-3{fill:#fcc388;}.cls-24,.cls-4,.cls-5{fill:#4f3322;}.cls-24,.cls-5{stroke:#66422f;}.cls-5{stroke-width:0.92px;}.cls-26,.cls-6{fill:#e2e2e2;}.cls-7{fill:#714928;}.cls-8{fill:#c02226;}.cls-9{fill:#352923;}.cls-10{fill:#eca160;}.cls-11{fill:#fcc488;}.cls-12,.cls-14{stroke:#000;}.cls-12{stroke-width:0.64px;}.cls-13{fill:#fff;}.cls-14{stroke-width:0.84px;}.cls-15{fill:#603a17;}.cls-16{fill:#a06932;}.cls-17{stroke:#815329;stroke-width:1.06px;}.cls-18,.cls-21{fill:#1a1a1a;}.cls-19{isolation:isolate;}.cls-20{clip-path:url(#clip-path);}.cls-21{opacity:0.46;}.cls-22{fill:#ddcfb6;}.cls-23{fill:#d8a96c;}.cls-25{stroke:#965e41;stroke-width:2px;}.cls-26{stroke:#afafb0;stroke-width:0.31px;}.cls-27{fill:#f9c511;}</style><clipPath id="clip-path"><polygon data-cppathid="10000" points="56.5 85.61 47.15 37.72 150.76 12.9 171.17 42.86 56.5 85.61" class="cls-1"/></clipPath></defs><g data-name="Layer 2" id="Layer_2"><g data-name="Peter Pilot" id="Peter_Pilot"><path data-cppathid="10001" d="M0,560.08c.16,8.09,43.91,13.79,97.73,12.75s97.31-8.45,97.15-16.54S151,542.49,97.16,543.54-.16,552,0,560.08Z" class="cls-2"/><path data-cppathid="10002" d="M44.48,284.73c-1.58.53-23.35,18.24-22.27,24,1.59,8.44,38.43,52.29,37.91,56.51s17.41-11.08,8.44-16.89-25.6-41-34-42.56l26.37-24Z" class="cls-3"/><path data-cppathid="10003" d="M62.23,362.11S46.39,369,48.5,374.78s-3.69-11.62-7.91-11.09,2.11,17.42,5.27,17.42S67,383.22,73.3,373.19s.53-19.52-2.11-22.16S62.23,362.11,62.23,362.11Z" class="cls-3"/><path data-cppathid="10004" d="M52.35,353.81l4.11,5.28s7.36,1.83,12.05-2.86c6.31-6.31,2.93-6.44,2.93-6.44l-5-5.35Z" class="cls-4"/><path data-cppathid="10005" d="M73.2,240.78c-11.13,2.93-52.75,54.51-54.5,67.4s24,45.71,32.23,48.64c0,0,10.27,1,16.27-3,0,0,5.41-7,3.65-12.83s-19.33-25.79-21.68-31.07c1.76-1.17,2.93-1.75,1.17-4.68,7-9.38,34.64-36.22,34.32-48.59S73.2,240.78,73.2,240.78Z" class="cls-5"/><path data-cppathid="10006" d="M33.73,184.33a2.66,2.66,0,0,1,0,.28,4.28,4.28,0,0,0,3.81,3.48,5.58,5.58,0,0,0,1,1.21c.53,1.94,2,2.95,5.35,3a2.56,2.56,0,0,0,.76.55l.79.46c.29.16,3.9,1,3.32-.05-.08-.12-.18-.23-.27-.35.29-.06.56-.11.87-.19,2,.57,3.9.63,4.32-1a3.46,3.46,0,0,0,.07-1.64c.06-.15.13-.3.18-.45,2,.16,5.88-.81,5.34-3.46,0,0,0,0,0-.07l1.37-.31a.43.43,0,0,0,.21-.78l-.25-.23c.25-.06.43-.16.44-.4a16.36,16.36,0,0,0-.27-4.77c2.2-1.68.5-4.23,3-6.53h.2a12.58,12.58,0,0,0,2.38,1.36c.44.24,4.22,1,3.15-.28a10.29,10.29,0,0,0-1.26-1.29c.07-.08.15-.14.23-.24.64-.71-.95-1.26-2-1.52,0,0,0-.05,0-.07a9.22,9.22,0,0,0,.6-2.63c.4-.1.65-.31.28-.77l-.17-.18a6.07,6.07,0,0,1,1.31-3.52c.87-1-3.09-2.07-3.94-1.49-.53.37-2,.9-3.38,1.57-3.13-.49-5.58.89-4.24,3.76-.4,0-.9,0-1.12.39C54.82,170,54.56,173,54,175.32c-.34.05-.53.19-.37.49,0,.09.11.2.16.29a1.54,1.54,0,0,1,0,.17,8.2,8.2,0,0,1-1.33,2.47,2.69,2.69,0,0,1-1.59-.57c-.37-.25-4.29-1.29-3.71-.19,3.22,6.05-2.15,6.63-4,8.46a3.06,3.06,0,0,1-.29-.21l-.36-.43c2.78-1.06,3.33-3.77,1.66-5.76,1.07-2.18-.29-3.81-2.48-4.95a5.46,5.46,0,0,0-3.06-2.28l1.1-.06c.26,0,.94-.17.74-.61-.13-.28-.28-.5-.42-.75.72.23,2.49.65,2.61-.11.49-3.22-.06-5.15-1.13-6.18a2.44,2.44,0,0,0,.89-.08c.39,0,.76.1,1.2.13s1.39,0,1.19-.61a11.61,11.61,0,0,0-1.28-2.79c.21-.08.32-.21.2-.47a10,10,0,0,0-2.26-3.23h0c.27.14,3.94,1,3.32,0A7.87,7.87,0,0,0,41,154.54a6.14,6.14,0,0,1-.66-2.47,16.55,16.55,0,0,0,7,0c.77-.11,1-.59.29-1.08-.46-.31-1.14-.76-2-1.21.71-.4-1.34-1.53-2.21-1.71a22.86,22.86,0,0,0-2.49-.23c.34-1.17.74-2.32,1.11-3.4a9.34,9.34,0,0,0,7-1.24c.41-.26,0-.68-.41-.93.4-.06.67-.21.52-.57a11.59,11.59,0,0,0-2.21-3.13,13.15,13.15,0,0,0,1.57.42c.41.08,2.39.11,1.56-.8a16.67,16.67,0,0,0-1.52-1.46c.47,0,.76-.13.6-.47,0,0-1.19-1.78-2.63-3.49a8.39,8.39,0,0,0,3.6-2.61c.3-.36,0-.68-.33-.9A21,21,0,0,0,42.15,126a10.73,10.73,0,0,1-.2-3,7.94,7.94,0,0,0,2.38,2.2c.35.23,4.31,1.31,3.71.19-.1-.19-.23-.38-.35-.57a1.77,1.77,0,0,0,0-.71c.89.26,1.86.5,3,.75.39.08,1.9.23,1.72-.55a8.39,8.39,0,0,0-2-3.86c1.19.19,3-.3,1.13-1.21a25.24,25.24,0,0,0-5.37-1.85,8.32,8.32,0,0,1,2.19-3.27l.31.21c.59.41,4.69,1,3.56,0-.1-.1-.2-.16-.3-.25-.59-.91-1.18-1.82-1.78-2.73.7.37,4.7.73,2.87-.52q-7.65-7.44-2.17-5.15c.43.36,4.29,1.17,3.71.19a4.79,4.79,0,0,1-.49-4.74,6.4,6.4,0,0,0,.51-1.55c.15-.84-2-1.65-3.32-1.57.56-1.23,2-1.68,4.27-1.3.37,0,1.38,0,1.2-.61a4.83,4.83,0,0,1-.45-4.53c.55.36,4.69,1.11,3.55,0a2.55,2.55,0,0,1-.44-.25h.15l-.93-.61a1.3,1.3,0,0,1,.18-1.73c.49.14,2.92.48,2.12-.67q-2-5,.51-1.28c.71.83,4.8,1.34,3.84.19-3-3.61-5.05-4.77-9.78-4.29-.32,0-.88.14-.74.6,2,6.4.49.09-2.05,3.71,0,.08,0,.15,0,.23a11.65,11.65,0,0,0,.82,1.21,2.71,2.71,0,0,0-1.66.55c-1.53,1.19,1.36,5-.75,5.43-1.09.2-2.73.27-3.44,1.35a4.64,4.64,0,0,0,1.66,6.6l.06.28c-2.34-.94-4.62-1.26-4.45,1.19a8.23,8.23,0,0,0,1.45,4.43h0a1.25,1.25,0,0,0-1.21.39,2.27,2.27,0,0,0,.15,2.62c-1.82.77-2.16,3.35-.35,5.68l-2.61-.54c-.29-.06-2-.22-1.72.56a19.58,19.58,0,0,0,1.24,2.51c-2.34-.67-4.22.73-3.78,6,0,.13,0,.23.05.35a5,5,0,0,0-.56.11c-4.14,1.26-.11,4.68,3.48,7.12a5.2,5.2,0,0,0,.17.68c-.35,0-.62.14-.62.38s0,.67,0,1c-1,.32-1.74,1.4-1.9,3.7a7.55,7.55,0,0,0,.07,1.68,3.37,3.37,0,0,0-2.18,3.53,5,5,0,0,0,1.5,3.83c-.78.19-1.3.54-1.23,1.13a4.29,4.29,0,0,0,.25,5.73,2.43,2.43,0,0,0-.88,1.8l-1.43,0c-.36,0-.85.16-.74.61s.22.79.34,1.17c-1,.44-1.47.94-1.51,1.48h-.27c-.13,0-.78.1-.76.38a15.31,15.31,0,0,0,1.54,6c-2.78,2.13-4,5.24.36,6.22a19,19,0,0,0-2.59.55c-.47.14-.45.44-.21.79s.48.63.71.94c-.49.12-1,.27-1.59.44-.26.09-.46.25-.37.54s.3.78.46,1.17a11.43,11.43,0,0,0-1.17.47c-.26.11-.47.22-.37.53A11.91,11.91,0,0,0,33.73,184.33Zm21.92-3.71a4.19,4.19,0,0,0,1.24-.45,6.48,6.48,0,0,1,.17,1.46,14.1,14.1,0,0,0-1.63-.63Z" class="cls-6"/><path data-cppathid="10007" d="M65.46,56S31.07,160.12,39.67,180.19s34.39-46.82,34.39-46.82S87.43,35.92,65.46,56Z" class="cls-7"/><path data-cppathid="10008" d="M121.22,222s25.47.64,33.75,21.66-1.27,49.68,28.67,48.41c0,0-28.67,23.56-22.93,34.38,0,0-35.67-27.38-33.13-40.12s24.21-38.21-12.73-56S121.22,222,121.22,222Z" class="cls-8"/><path data-cppathid="10009" d="M56,376.85s-.48,7.39-.62,11.12c-2.81,72.24,17.31,150.24,17.31,150.24s-16.1,11.11-18.87,16.67,38.34-2.77,38.34-2.77S83.81,452,86.58,429.7,100.47,545.89,106,554.24s36.31,8.29,36.31,8.29-11.76-13.43-15.93-20.39c-4-6.77-8.64-99-9.19-151.38,0-1.43,0-4.17,0-4.17Z" class="cls-9"/><polygon data-cppathid="10010" points="102.04 219.94 103 226.31 91.05 235.62 86.63 225.94 102.04 219.94" class="cls-10"/><path data-cppathid="10011" d="M72.37,203.25s0-.13-1.37-3.31c-.18-.43-9.21-22.86-9.21-22.86s28.84,15.36,43.13,3.75c-10.61-20-33.88-21.25-50.49-24-1.29-.22,0,0-.19-1.1-4.23-23.58-5.36-57.93,4.14-76C81.69,35.47,153.93-4.14,174.9,44.8s-2.33,81.55-18.64,111.84S109,226.36,94.89,228.11C82.46,229.66,72.37,203.25,72.37,203.25Z" class="cls-11"/><path data-cppathid="10012" d="M87.48,88.06c0,5.15-2.46,9.31-5.48,9.31s-5.47-4.16-5.47-9.31S79,78.76,82,78.76,87.48,82.92,87.48,88.06Z" class="cls-12"/><path data-cppathid="10013" d="M81.16,87.82a2.74,2.74,0,1,1-2.74-2.73A2.73,2.73,0,0,1,81.16,87.82Z" class="cls-13"/><path data-cppathid="10014" d="M106.29,91c-.65,5.47-3.8,9.58-7,9.19S94,95,94.65,89.55s3.81-9.58,7-9.19S107,85.49,106.29,91Z" class="cls-14"/><path data-cppathid="10015" d="M101.4,90.75a3.56,3.56,0,1,1-3.11-4A3.56,3.56,0,0,1,101.4,90.75Z" class="cls-13"/><path data-cppathid="10016" d="M173,53.48s-12.82,27.16-14,38.74l-1.16,11.59s6.95-4.63,10.43-5.8l3.47-1.15s-2.31,20.85-3.47,25.49a8.33,8.33,0,0,0,1.35,7.41s15.45-27.9,15.45-51.07S173,53.48,173,53.48Z" class="cls-15"/><path data-cppathid="10017" d="M179.79,55.66c2.43-9-9.84-23.36-22.19-27.49-13.7-4.59-30.35-6.92-44.69-4A91.73,91.73,0,0,0,73.48,43c-4.77,3.9-9.39,9-14.09,12.68-7,5.56-7.13,4.33-15.29,3.09-1.32-.21-3.13-2-4.1-2.93-.33-.38-.33-.39,0,0C50.3,75.88,96.25,50.19,111.67,52c-6,4.32-9.45,9-14.66,14.21,13-.2,31.13,2.24,42-5.61.3-.36.29-.38,0,0-2.13,5.29-6.72,9.07-10.45,13.33,8-.25,17.92-5.37,24.33-9.54-.36,5.83-5,9.92-6.4,15,6.16-.75,12.74-7.73,18-11.54,4.65-3.34,12.94-6.75,15.29-10.27" class="cls-15"/><path data-cppathid="10018" d="M114.58,35c28.26,4.55,53.9,26.82,56.5,57.42,1.3,15.14-2.32,31.74-6.32,45.42-4.42,15.07-8.85,30.76-14.64,44.63-3,7.1-16.53,39.25,3.82,34.05,14.29-3.64,17.38-26.8,19.89-37.35,3.64-15.25,13.6-20.24,19.38-34.28,6-14.58,5.72-34.58,8.07-50.41,2.32-15.64.16-43.81-10.08-59.48C183.36,23,175.28,5.84,163,1.74c-14.11-4.71-28.6,1.46-44.36,3C106.76,5.93,77.83,19.12,68.2,26.94c-8,6.52-20.68,21.53.76,15.88,12.79-3.36,33.82-12,46.63-6.81" class="cls-16"/><path data-cppathid="10019" d="M163,1.74S132.22,5.26,123.9,33.23" class="cls-17"/><path data-cppathid="10020" d="M197.25,47.1s-12-7.42-26.17,18" class="cls-17"/><path data-cppathid="10021" d="M97.44,11.82s-17.53,5.09-21.87,21.7" class="cls-17"/><path data-cppathid="10022" d="M179,100.84v0h0C179.05,100.87,179,100.86,179,100.84Z" class="cls-6"/><path data-cppathid="10023" d="M56.05,34.22l.33.05c2.75-2.94,5.79-3,7.94-1.33a7.38,7.38,0,0,1,5.86,1.53,3.36,3.36,0,0,1,.56.32l.07.05c.37,0,.74,0,1.09,0,.64-1.11,2-1.48,3.67-1.3a4.34,4.34,0,0,1,3.16-1.67c1-1.12,2.74-1.72,5.42-1.27a3.39,3.39,0,0,1,3.29-1.25,11,11,0,0,1,2.24.49c1.49-.9,3.92-1,7.48.5l.36.16s0,0,0,0c0-.3.37-.41.77-.44a3.34,3.34,0,0,1,.87,0c.52.08,1,.17,1.48.28a.88.88,0,0,1,.63-.3l.45,0c-.06-.11-.11-.21-.16-.32-.28-.61.85-.68,1.14-.7.5,0,1,0,1.41.05a4.26,4.26,0,0,1,1.74.16,12.18,12.18,0,0,1,3.73,1.19c.19-.53,2-.29,2.2-.23a14.09,14.09,0,0,1,1.92.67c0-.46,0-.92,0-1.37S115,29,115.28,29c3.79.4,6.73,1.6,8.23,4.08l.39.12a10.73,10.73,0,0,1-.18-1.77c0-1.11,3.12,0,3.48.31a14.42,14.42,0,0,1,2,2.29h.2c3.69.49,6.68,1.77,8.7,4.1.58-.41,1.91-.07,2.76.38v0c0-.58,1.35-.46,1.64-.41a13.69,13.69,0,0,1,6.68,2.56,2.11,2.11,0,0,1,.23.19,4.8,4.8,0,0,1,1.28,1.83,6.76,6.76,0,0,1,3.21,2.62c3.81-.76,8.73,2.13,7.41,6.68a10,10,0,0,1,6.37,4.83c3.34,1.69,5.11,6.36,3.4,8.24,1.54,1,2.47,2.15,2.07,3a8.93,8.93,0,0,1,3.73,4.15,4.08,4.08,0,0,1,.53,2.09c2.46,1.4,4,3.41,2.41,5.81a7,7,0,0,1,1.33.55c3.62,2-.72,7.22,1.61,10.59.36.39.74.79,1.15,1.25s.16.68-.22.83l-1.48.81c1.72,3.84,1.63,6.71.86,10.94-.06.28-.5.41-.73.43a10.88,10.88,0,0,1-5.27-.65.47.47,0,0,1-.09.12,4.63,4.63,0,0,1,.77,2.28,2.69,2.69,0,0,1,.27,1.85s0,.06-.05.09a.62.62,0,0,1-.1.16,1.25,1.25,0,0,1-.12.08l0,0a3.71,3.71,0,0,1,.27.29l1.91,1.9c.48.48.12.69-.46.76.18.45.38.94.6,1.5.36,1-1.83.65-2.16.54l-.11,0a2.08,2.08,0,0,1-1.08.11,17.59,17.59,0,0,1-.67,2.65.67.67,0,0,1-.43.41A15,15,0,0,1,176,120c.06.57-.63.7-1.44.59a3.27,3.27,0,0,1-.51.07A8.53,8.53,0,0,0,175,123c.23.47-.45.57-1.27.47L175,126c.34.67-.88.56-2,.27-.22.63-1.71.34-2.14.25.64.13.71.87.52,1.84.34.2.59.43.63.66s.06.32.1.48c.74.43,1.19.92.54,1.11.59.56.37.81-.15.88.19.85.37,1.71.51,2.57.12.65-.7.73-1.61.54a6.83,6.83,0,0,0,.61,1.48c.49.89-1.78.46-2.71.22a9.71,9.71,0,0,1,2.71,4.82c.24,1.18-2.09.47-3.2-.06a13.77,13.77,0,0,1,1.38,3.07c.15.42-.39.58-.69.61a3.56,3.56,0,0,1-1.08-.08c1.13,1.79,2,3.56,1.31,3.12a.61.61,0,0,0,.12.16c1,1.38-2.79.51-3.31.11-.36-.28-.65-.52-1-.77-.46.15-.43,2-1.07,3.15a16.83,16.83,0,0,1,1.76,1.63c.44.47.07.68-.42.77l.7.93c1.72,1.28-2.28.85-3,.34l-.68-.49a9.6,9.6,0,0,0,.78,3.26,19.91,19.91,0,0,1,1.34,2.4c.31.66-1,.59-2.19.3.06.22.11.44.18.7.12.52-.3.66-.88.62a15,15,0,0,1-.12,1.63.41.41,0,0,1-.13.23,5.17,5.17,0,0,1,.76,2.77c0,.38-.73.41-1,.41a11.26,11.26,0,0,1,.68,2.29c.05.3-.08.42-.35.54l-.28.12a3.34,3.34,0,0,1-1.57,0c-.05.61-.08,1.25-.09,2a.3.3,0,0,1-.13.23c.38.76.76,1.51,1.13,2.27.29.58-.61.58-1.61.38a13.73,13.73,0,0,1-.32,2.2c-.1.44-.72.53-1.45.43a4,4,0,0,1-.58-.08,1.6,1.6,0,0,1-.45.4,7.81,7.81,0,0,1,.38.71c.18.4-.12.53-.58.56.53.55.84,1.14.59,1.67-.67,1.44-.52,1.42-1.74,1.71a17,17,0,0,1,.72,2.1c.12.38-.13.53-.52.57.15.47.33,1,.52,1.45.29.76-1,.64-2.13.36h-.25c0,.19-.06.39-.11.57,1.95,1.89,4.63,4.53,2.08,2.64,1.68,1.25-2.24.94-3,.35l-.38-.28a4.4,4.4,0,0,1-.71,0c.38.93.62,1.53.44,1.3l.07.14c.16.3-.15.43-.62.47a1.93,1.93,0,0,0,0,.24,5.71,5.71,0,0,1,1.19,2.3.34.34,0,0,1-.2.45,2.18,2.18,0,0,1,.09.23c.25.41.48.85.72,1.32s-.45.59-.7.61a.52.52,0,0,1-.18,0,4.59,4.59,0,0,1-1.47-.11v.22a16.35,16.35,0,0,1,1.13,3.19.26.26,0,0,1,0,.36c-.13.38-.94.4-1.81.21a3.68,3.68,0,0,1-.8-.14c-.34-.14-.68-.24-1-.36-.09.13-.17.26-.26.37a14.77,14.77,0,0,1,3.85,2c.2.14.69.62.3.88a3.85,3.85,0,0,1-3.75.5c0,.13,0,.27.08.39a4.5,4.5,0,0,1,.6.17c.5.16,1.21.52,1.24,1.12s.08,1.36,0,2.11a10.08,10.08,0,0,1,5,3.37,4.05,4.05,0,0,1,2.07.56c-.17-.42-.34-.85-.49-1.28-.42-1.17,3.36-.22,3.86.6.17.27.32.56.47.84a25,25,0,0,0,3.92-6.37c.44-1.09,4-.11,3.9,1-.26,3.46-1.27,5.46-3.15,8.25-.21.3-.92.24-1.32.19l-.1.06a2.19,2.19,0,0,1,.3.76c.11.79-1,.72-1.87.5.31.58-.67.64-1.69.48a10.72,10.72,0,0,1-6.58,1s0,.08,0,.11l-.84,1c-1,1.19-3,.45-3.65-.63-.1-.17-.2-.34-.31-.51a3,3,0,0,1-3.48-.15l-2-2a.89.89,0,0,1,0-1.5,9,9,0,0,1-2.52-3.38c-.16-.3.13-.46.4-.54-.12-.28-.26-.56-.38-.86-.21-.48.54-.59,1.41-.48-1.3-1.19-2.24-2.53-.93-3.25.2-.11.37-.21.56-.3a.6.6,0,0,1,0-.23c0-.09.07-.17.1-.25s0,0,0,0c-.19-.75.27-1.08.93-1.16a1.2,1.2,0,0,1,.09-.25,7.19,7.19,0,0,0,0-2.74.52.52,0,0,1,0-.25h0a19.63,19.63,0,0,1-.08-4.8,2.69,2.69,0,0,1,1.65-1.86c-.56-1.91-.38-4-.59-6.06-.07-.83.56-1.19,1.3-1.25a12.68,12.68,0,0,1,.75-4.17c.08-.29.47-.34.71-.39a4.39,4.39,0,0,1,1.58,0,20,20,0,0,1,.7-2.55,25.72,25.72,0,0,1,0-3.13.41.41,0,0,1,.1-.22c-.05-.91-.09-1.84-.1-2.81,0-1.17,3.37.21,3.73.59l.15.15a19.75,19.75,0,0,1-1-2.84c-.19-.67.8-.68,1.81-.46a3.5,3.5,0,0,1,.89-5,2,2,0,0,1,1.43-.25,6.23,6.23,0,0,1,.28-.59c0-.1,0-.21-.06-.3a9.31,9.31,0,0,1-1.15-5.43.42.42,0,0,1,.32-.34,14.15,14.15,0,0,1-.32-2.68c0-.28.25-.39.61-.41a22.52,22.52,0,0,1,.41-2.61c.12-.62,1-.56,2-.3,0-.52,0-1.08.06-1.72,0-.41.44-.5,1-.44a2.36,2.36,0,0,1,0-.65c.11-.51.77-.54,1.5-.39-.21-2.41.48-3.94,1.64-4.53-.36-1.17-.06-2.54.74-4.68a3.59,3.59,0,0,1,.71-2.87,3.64,3.64,0,0,1,.37-.4,20.47,20.47,0,0,1-.93-3c-.13-.53.38-.65,1-.6a11.21,11.21,0,0,1,1-4.66,1,1,0,0,1,.79-.48c0-.09.05-.18.07-.28a3.78,3.78,0,0,1,0-2c0-.08,0-.15,0-.24a.44.44,0,0,1,.26-.5,17.87,17.87,0,0,1,1.09-2.22,4.53,4.53,0,0,1-.17-2.4c0-.3,0-.62,0-1,0-.56,1.38-.38,1.63-.36a2.61,2.61,0,0,1,.27.06,17.2,17.2,0,0,1,.11-2.73.48.48,0,0,1,.3-.36c-.14-.1-.31-.18-.46-.28-.7-.44-1.17-1.18,0-1.39a3.41,3.41,0,0,1,1,0,57.75,57.75,0,0,1-.75-8.62c-1.49-1.54-2-2.61-2.07-5.45,0-.88,1.79-.4,2.82,0a.7.7,0,0,1,.3-.21l.28-.13a1.58,1.58,0,0,1,.49-.1c-.12-.53-.24-1.08-.38-1.66a3.07,3.07,0,0,1-1.07-2.57c-.21-.12-.43-.26-.66-.41-1.46-.92-.5-1.26.65-1.24-.64-2.34-1.21-4.21-1.27-4.28-.59-.72.4-.91,1.07-.92l-.06-.09c-.25-.41-.13-.64.14-.78-3.43-1.75-3.45-2.53-3.32-6.76,0-.27.24-.39.55-.44a3.23,3.23,0,0,1-.65-2.54,7.86,7.86,0,0,1-2.78-4.59c-2.61-.52-5-1.71-5.73-3.6a7.22,7.22,0,0,1,0-5.22,7.63,7.63,0,0,1-1.63-2.93.33.33,0,0,0,0-.06c-.47-.46-.94-.92-1.39-1.4a14.56,14.56,0,0,1-2.09-1.62,5.2,5.2,0,0,1-.82-1,1.51,1.51,0,0,1-.39-.31L152,56.9h0c-.29-.46-.56-.94-.82-1.4-.95.42-2.73-.41-3.29-1a8.09,8.09,0,0,1-1.63-2.44A8.77,8.77,0,0,1,140.88,50a7,7,0,0,1-2.51-.9,9.38,9.38,0,0,1-6-3.61,8.53,8.53,0,0,1-1.85-1.7,8.14,8.14,0,0,1-2-1.77h-.09l-.17,0c-3.63,4.14-7.74,1.29-10.36-2.57l-.49-.4a5.51,5.51,0,0,1-.71-.74l-.15-.15-.16,0,.07.14c.13.27-.15.51-.36.59-.56.19-1.11.34-1.66.47,0,.4-.33.59-.7.62a26.06,26.06,0,0,1-6.76-.48A8.27,8.27,0,0,1,105.88,41c-2,2-5.06,1.31-7.88-.31a9.06,9.06,0,0,1-2.39.34,2.18,2.18,0,0,1-.41,0,27.79,27.79,0,0,1-3.52-.23,9.59,9.59,0,0,1-5.46,1.93c-.22.27-.85.31-1.09.31-.69,0-1.3,0-1.89-.08-2.48,2-8,2.61-12.07.84a8.06,8.06,0,0,1-4.27.57h0c-.17,1.36-1.5,1.83-3.21,1.82-1.13,1.28-3.3,1.7-6.69.35a4.34,4.34,0,0,1-2.89-4.92C52.56,38.45,52.21,33.8,56.05,34.22Z" class="cls-6"/><path data-cppathid="10024" d="M184.52,98.36v0h0S184.54,98.39,184.52,98.36Z" class="cls-6"/><path data-cppathid="10025" d="M61.55,31.75l.33.05c2.75-2.94,5.79-3,7.93-1.33A7.32,7.32,0,0,1,75.68,32a3.36,3.36,0,0,1,.56.32l.06,0c.38,0,.75,0,1.1,0,.63-1.1,2-1.48,3.66-1.3a4.34,4.34,0,0,1,3.17-1.66c1-1.13,2.73-1.72,5.42-1.28a3.41,3.41,0,0,1,3.29-1.25,10.57,10.57,0,0,1,2.24.5c1.49-.9,3.92-1,7.48.49L103,28v0c0-.3.37-.4.77-.43a2.66,2.66,0,0,1,.87,0c.52.07,1,.17,1.48.27a.92.92,0,0,1,.63-.3l.45,0c-.06-.11-.11-.2-.16-.31-.28-.62.85-.69,1.14-.7.49,0,1,0,1.41,0a4.63,4.63,0,0,1,1.74.16,12.72,12.72,0,0,1,3.74,1.2c.18-.53,2-.3,2.2-.24a19.72,19.72,0,0,1,1.91.67c0-.45,0-.91,0-1.38s1.36-.44,1.64-.4c3.79.4,6.73,1.59,8.24,4.08a2.91,2.91,0,0,1,.39.12,10.9,10.9,0,0,1-.2-1.78c0-1.11,3.13,0,3.48.31a14,14,0,0,1,2,2.28l.2,0c3.69.49,6.68,1.76,8.69,4.09.6-.41,1.92-.06,2.77.38v0c0-.58,1.35-.45,1.64-.41a13.65,13.65,0,0,1,6.68,2.57l.23.18a5,5,0,0,1,1.28,1.84,6.85,6.85,0,0,1,3.21,2.61c3.81-.76,8.73,2.13,7.41,6.69a10,10,0,0,1,6.37,4.82c3.34,1.69,5.11,6.37,3.4,8.25,1.54,1,2.47,2.14,2.07,3a9,9,0,0,1,3.73,4.14,4.11,4.11,0,0,1,.53,2.1c2.46,1.4,4,3.41,2.41,5.81a6.15,6.15,0,0,1,1.33.55c3.62,2-.72,7.22,1.6,10.58L189.42,90a.49.49,0,0,1-.22.83l-1.49.81c1.72,3.85,1.62,6.72.85,11-.05.28-.5.4-.73.43a11,11,0,0,1-5.26-.66.3.3,0,0,1-.09.13,4.7,4.7,0,0,1,.77,2.28,2.67,2.67,0,0,1,.27,1.85s0,0-.05.09a.51.51,0,0,1-.11.16s-.07,0-.11.07,0,0,0,0,.19.19.27.29l1.91,1.9c.48.48.12.69-.46.76.19.46.38,1,.6,1.51.36.94-1.84.64-2.16.54l-.11,0a2.19,2.19,0,0,1-1.07.11,20.68,20.68,0,0,1-.68,2.64.63.63,0,0,1-.43.41,13,13,0,0,1,.41,2.4c.07.57-.62.7-1.43.58a2.49,2.49,0,0,1-.51.07,8.46,8.46,0,0,0,.93,2.37c.23.48-.44.56-1.28.46.43.86.86,1.71,1.28,2.56.34.67-.89.56-2,.27-.22.64-1.72.34-2.14.25.63.14.71.88.52,1.84.34.21.6.43.63.67a4.1,4.1,0,0,0,.1.48c.74.43,1.2.91.54,1.11.59.55.38.8-.15.87.19.86.36,1.72.52,2.58.11.65-.71.73-1.62.54a7.27,7.27,0,0,0,.61,1.48c.49.88-1.78.45-2.71.21a9.74,9.74,0,0,1,2.71,4.83c.24,1.17-2.09.46-3.19-.06a14.42,14.42,0,0,1,1.38,3.06c.14.43-.4.59-.71.61a3.21,3.21,0,0,1-1.07-.08c1.13,1.79,2,3.56,1.3,3.13,0,.06.09.1.13.16,1,1.37-2.79.51-3.31.11-.36-.28-.65-.52-1-.77-.46.14-.43,2-1.07,3.14a19.3,19.3,0,0,1,1.76,1.63c.44.47.06.69-.42.77.23.31.46.62.7.92,1.71,1.29-2.28.86-3,.35-.2-.13-.44-.31-.67-.48a9.08,9.08,0,0,0,.77,3.25,20.07,20.07,0,0,1,1.34,2.4c.31.66-1,.6-2.19.3.06.23.12.44.18.71.12.51-.3.66-.88.62,0,.41,0,.91-.12,1.62a.4.4,0,0,1-.14.24,5.16,5.16,0,0,1,.77,2.77c0,.38-.73.4-1,.4a11.35,11.35,0,0,1,.68,2.3c.06.3-.09.42-.36.54a1.69,1.69,0,0,0-.28.12,3.31,3.31,0,0,1-1.56,0c-.05.62-.08,1.25-.09,2a.26.26,0,0,1-.14.22l1.14,2.28c.29.59-.61.57-1.61.37a13.9,13.9,0,0,1-.32,2.2c-.11.44-.73.53-1.45.43a2.89,2.89,0,0,1-.58-.08,1.43,1.43,0,0,1-.44.4,7.86,7.86,0,0,1,.36.71c.19.4-.11.54-.56.56.52.56.83,1.15.58,1.68-.68,1.43-.52,1.42-1.74,1.71a17,17,0,0,1,.72,2.1c.12.37-.13.53-.52.56.16.48.33,1,.52,1.46.29.75-1,.63-2.13.36l-.25,0c0,.2-.07.39-.1.58,1.93,1.88,4.62,4.52,2.07,2.63,1.68,1.26-2.25,1-3,.36a3.64,3.64,0,0,0-.38-.28,6,6,0,0,1-.71,0c.38.92.62,1.52.44,1.3l.08.14c.15.29-.16.42-.64.46a1.94,1.94,0,0,1,0,.24,5.68,5.68,0,0,1,1.18,2.3.35.35,0,0,1-.18.46c0,.07,0,.15.08.23.25.41.48.84.72,1.32s-.45.58-.7.61l-.18,0a4.3,4.3,0,0,1-1.46-.12,1.61,1.61,0,0,0,0,.22,17.1,17.1,0,0,1,1.12,3.2.25.25,0,0,1,0,.35c-.13.38-.94.4-1.81.21a2.5,2.5,0,0,1-.8-.14c-.34-.14-.68-.24-1-.35-.09.13-.17.25-.26.36a15.4,15.4,0,0,1,3.85,2c.2.15.68.63.29.88a3.79,3.79,0,0,1-3.75.5c0,.14.06.27.1.4s.38.09.59.16c.5.16,1.2.52,1.23,1.12a20.22,20.22,0,0,1,0,2.11,10.26,10.26,0,0,1,5,3.37,4,4,0,0,1,2.06.56c-.17-.42-.34-.85-.49-1.28-.42-1.16,3.36-.21,3.86.6.17.28.31.57.48.84a24.91,24.91,0,0,0,3.91-6.36c.45-1.09,4-.12,3.9,1-.26,3.46-1.27,5.46-3.16,8.25-.2.32-.91.25-1.31.19l-.1.06a2.55,2.55,0,0,1,.3.77c.11.78-1,.72-1.88.5.31.57-.66.63-1.68.48a10.79,10.79,0,0,1-6.58,1s0,.08,0,.12l-.84,1c-.95,1.19-3,.44-3.64-.64-.11-.17-.21-.34-.32-.5a3,3,0,0,1-3.48-.16l-2-2a.9.9,0,0,1,0-1.5,9.21,9.21,0,0,1-2.52-3.39c-.15-.29.14-.46.42-.54-.14-.27-.27-.55-.39-.85-.22-.49.53-.6,1.42-.49-1.32-1.18-2.25-2.52-.94-3.25.19-.11.37-.2.56-.29a.63.63,0,0,1,0-.24c0-.09.08-.17.11-.26h0c-.2-.76.26-1.09.92-1.17a1.1,1.1,0,0,1,.09-.24,7.21,7.21,0,0,0,0-2.74.52.52,0,0,1,0-.25h0a18.67,18.67,0,0,1-.07-4.81,2.64,2.64,0,0,1,1.64-1.85c-.56-1.92-.38-4-.58-6.07-.09-.83.55-1.19,1.3-1.25a12.31,12.31,0,0,1,.74-4.16c.08-.3.47-.34.72-.39a4.13,4.13,0,0,1,1.57,0,19.15,19.15,0,0,1,.7-2.55,25.88,25.88,0,0,1,0-3.14.32.32,0,0,1,.1-.21c-.05-.92-.09-1.85-.1-2.81,0-1.19,3.37.2,3.73.58l.15.15a21.46,21.46,0,0,1-1.05-2.83c-.18-.67.81-.68,1.82-.47a3.49,3.49,0,0,1,.89-5,1.85,1.85,0,0,1,1.42-.25c.1-.2.17-.39.28-.6s0-.2,0-.3a9.25,9.25,0,0,1-1.14-5.42c0-.18.14-.28.31-.35a12.73,12.73,0,0,1-.31-2.67c0-.29.24-.39.6-.42a23.2,23.2,0,0,1,.41-2.61c.12-.62,1-.56,1.95-.3,0-.52,0-1.08.07-1.71,0-.41.45-.5,1-.45a2,2,0,0,1,0-.64c.11-.52.77-.54,1.49-.39-.21-2.42.49-3.95,1.64-4.54-.35-1.16,0-2.53.75-4.67a3.65,3.65,0,0,1,.71-2.88c.13-.15.25-.27.38-.4a19.08,19.08,0,0,1-.94-2.95c-.13-.54.37-.65,1-.61a11.33,11.33,0,0,1,1-4.65,1,1,0,0,1,.79-.49c0-.09.05-.18.07-.27a3.77,3.77,0,0,1,0-2,1.85,1.85,0,0,0,0-.24.42.42,0,0,1,.26-.5,16.75,16.75,0,0,1,1.1-2.22,4.45,4.45,0,0,1-.18-2.4c0-.3,0-.62,0-1,0-.56,1.38-.38,1.63-.35l.27,0a14.26,14.26,0,0,1,.12-2.72.43.43,0,0,1,.3-.36c-.16-.1-.32-.18-.47-.28-.71-.44-1.18-1.19,0-1.39a3.41,3.41,0,0,1,1,0,57.87,57.87,0,0,1-.75-8.62c-1.49-1.54-2-2.61-2.07-5.46,0-.87,1.79-.39,2.82,0a.82.82,0,0,1,.3-.21l.28-.13a1.52,1.52,0,0,1,.49-.09c-.11-.53-.24-1.09-.37-1.67A3,3,0,0,1,176,92.87l-.66-.41c-1.46-.93-.5-1.27.65-1.23-.64-2.36-1.21-4.22-1.27-4.29-.59-.73.4-.92,1.06-.92l-.05-.09c-.25-.41-.13-.64.14-.78-3.43-1.76-3.45-2.54-3.32-6.76,0-.28.24-.4.55-.45a3.2,3.2,0,0,1-.65-2.53,7.85,7.85,0,0,1-2.77-4.6c-2.62-.52-5-1.71-5.74-3.6A7.22,7.22,0,0,1,164,62a7.49,7.49,0,0,1-1.63-2.93l0-.06c-.47-.45-.94-.92-1.39-1.4A14,14,0,0,1,158.81,56a5.52,5.52,0,0,1-.82-1,1.33,1.33,0,0,1-.39-.32l-.14-.24h0v0c-.29-.46-.56-.93-.81-1.4-1,.43-2.74-.4-3.29-1a8.17,8.17,0,0,1-1.63-2.43,8.77,8.77,0,0,1-5.34-2.08,7.14,7.14,0,0,1-2.51-.9,9.4,9.4,0,0,1-6-3.61,8.8,8.8,0,0,1-1.85-1.7,8,8,0,0,1-2-1.78H134l-.17,0c-3.63,4.14-7.74,1.3-10.35-2.57-.17-.13-.34-.25-.49-.39a5.59,5.59,0,0,1-.72-.74l-.15-.16-.16,0,.07.15c.13.26-.15.51-.36.58-.56.19-1.11.35-1.66.48,0,.39-.33.59-.71.61a25.58,25.58,0,0,1-6.75-.48,7.22,7.22,0,0,1-1.15,1.45c-2,2-5.06,1.32-7.88-.31a9.09,9.09,0,0,1-2.39.35l-.4,0a26.26,26.26,0,0,1-3.53-.25,9.54,9.54,0,0,1-5.46,2,1.75,1.75,0,0,1-1.1.31c-.68,0-1.29,0-1.87-.09-2.49,2-8,2.62-12.08.85a8.07,8.07,0,0,1-4.27.56h0c-.17,1.37-1.5,1.85-3.2,1.82-1.14,1.28-3.31,1.7-6.69.36a4.35,4.35,0,0,1-2.9-4.92C58.05,36,57.71,31.33,61.55,31.75Z" class="cls-6"/><path data-cppathid="10026" d="M172.71,51.81s-.7,12-8.75,15.4,39,21.56,39,21.56l2-22.18Z" class="cls-18"/><g class="cls-19"><g class="cls-20"><path data-cppathid="10027" d="M134.18,22l-1.2.31-.29.07-.3.08-.29.07-.29.08c-1.51.39-3,.79-4.48,1.21s-2.87.9-4.13,1.4A17.18,17.18,0,0,0,119.9,27a5.64,5.64,0,0,0-2,2.1,3.18,3.18,0,0,0-.26.79,3.07,3.07,0,0,0,0,.86,4,4,0,0,0,.17.92,5.63,5.63,0,0,0,.39,1A16.19,16.19,0,0,0,123,37.88a37.58,37.58,0,0,0,8,4.53A37,37,0,0,0,140.14,45a17.46,17.46,0,0,0,8-.48,18.25,18.25,0,0,0,5.61-3,11.11,11.11,0,0,0,3.18-3.95,8.42,8.42,0,0,0,.73-4.42,10.22,10.22,0,0,0-1.7-4.51,14,14,0,0,0-3.87-3.84,19.57,19.57,0,0,0-5.28-2.48A23.58,23.58,0,0,0,134.18,22" class="cls-21"/><path data-cppathid="10028" d="M83.22,35.13l-.39.1-.4.1-.4.11-.4.1L80,36a35.31,35.31,0,0,0-8.4,3.33,28.69,28.69,0,0,0-6.68,5.06,18.53,18.53,0,0,0-4.13,6.28,11.55,11.55,0,0,0-.58,6.8,11.1,11.1,0,0,0,3.36,5.74A15.52,15.52,0,0,0,70,66.61a26.19,26.19,0,0,0,8.7.75,38,38,0,0,0,9.8-2.07,23.78,23.78,0,0,0,8.73-5.68,33.67,33.67,0,0,0,6.09-8.29,27.88,27.88,0,0,0,2.9-8.44,12.58,12.58,0,0,0-.55-6.81,6.65,6.65,0,0,0-.54-1,4.82,4.82,0,0,0-.66-.83,5,5,0,0,0-.79-.66,4.62,4.62,0,0,0-.93-.51,10,10,0,0,0-3.61-.72,27.33,27.33,0,0,0-4.62.3c-1.69.24-3.51.59-5.4,1s-3.9.93-5.92,1.45" class="cls-21"/><path data-cppathid="10029" d="M148.12,44.52a17.46,17.46,0,0,1-8,.48A37,37,0,0,1,131,42.41a37.58,37.58,0,0,1-8-4.53,16.19,16.19,0,0,1-4.81-5.27,5.63,5.63,0,0,1-.39-1,4,4,0,0,1-.17-.92,3.07,3.07,0,0,1,0-.86,3.18,3.18,0,0,1,.26-.79,5.64,5.64,0,0,1,2-2.1,17.18,17.18,0,0,1,3.3-1.69c1.26-.5,2.66-1,4.13-1.4s3-.82,4.48-1.21l.29-.08.29-.07.3-.08.29-.07,1.2-.31a23.58,23.58,0,0,1,12.61.27,19.57,19.57,0,0,1,5.28,2.48,14,14,0,0,1,3.87,3.84,10.22,10.22,0,0,1,1.7,4.51,8.42,8.42,0,0,1-.73,4.42,11.11,11.11,0,0,1-3.18,3.95,18.25,18.25,0,0,1-5.61,3M131.23,21.69c-2.15.54-4.3,1.1-6.26,1.74a26.47,26.47,0,0,0-5.24,2.2,7.16,7.16,0,0,0-3.08,3A4.88,4.88,0,0,0,117,33a17.37,17.37,0,0,0,5,5.59,40.17,40.17,0,0,0,8.48,4.88,38.38,38.38,0,0,0,9.72,2.8,18.61,18.61,0,0,0,8.6-.54,19.55,19.55,0,0,0,6-3.27,11.86,11.86,0,0,0,3.34-4.3,9.2,9.2,0,0,0,.71-4.83,11.47,11.47,0,0,0-1.92-4.94,15.57,15.57,0,0,0-4.19-4.18,20.92,20.92,0,0,0-5.65-2.7,24.26,24.26,0,0,0-6.53-1.1,25,25,0,0,0-6.91.72l-.59.15-.6.16-.6.15-.6.15" class="cls-22"/><path data-cppathid="10030" d="M88.52,65.29a38,38,0,0,1-9.8,2.07,26.19,26.19,0,0,1-8.7-.75,15.52,15.52,0,0,1-6.49-3.43,11.1,11.1,0,0,1-3.36-5.74,11.55,11.55,0,0,1,.58-6.8,18.53,18.53,0,0,1,4.13-6.28,28.69,28.69,0,0,1,6.68-5.06A35.31,35.31,0,0,1,80,36l1.67-.43.4-.1.4-.11.4-.1.39-.1c2-.52,4-1,5.92-1.45s3.71-.78,5.4-1a27.33,27.33,0,0,1,4.62-.3,10,10,0,0,1,3.61.72,4.62,4.62,0,0,1,.93.51,5,5,0,0,1,.79.66,4.82,4.82,0,0,1,.66.83,6.65,6.65,0,0,1,.54,1,12.58,12.58,0,0,1,.55,6.81,27.88,27.88,0,0,1-2.9,8.44,33.67,33.67,0,0,1-6.09,8.29,23.78,23.78,0,0,1-8.73,5.68M82.85,33.94l-.81.21-.82.2-.82.21-.83.21a36.81,36.81,0,0,0-9,3.54,30.24,30.24,0,0,0-7.14,5.42A20.29,20.29,0,0,0,59,50.53,13,13,0,0,0,58.4,58,12.28,12.28,0,0,0,62,64.35a16.74,16.74,0,0,0,7.05,3.82A27.7,27.7,0,0,0,78.5,69,39.69,39.69,0,0,0,89,66.8a25.4,25.4,0,0,0,9.38-6.16,35.31,35.31,0,0,0,6.34-8.87,29.29,29.29,0,0,0,2.92-8.93,13.45,13.45,0,0,0-.67-7.13,6.8,6.8,0,0,0-3.45-3.58,12.31,12.31,0,0,0-5.43-1,39.52,39.52,0,0,0-7,.85c-2.58.5-5.36,1.19-8.21,1.91" class="cls-22"/><path data-cppathid="10031" d="M113.73,45.12l-.85-.16h.28l.12.06.14,0,.15,0,.16,0M89,66.8A39.69,39.69,0,0,1,78.5,69a27.7,27.7,0,0,1-9.41-.87A16.74,16.74,0,0,1,62,64.35,12.28,12.28,0,0,1,58.4,58,13,13,0,0,1,59,50.53a20.29,20.29,0,0,1,4.44-6.8,30.24,30.24,0,0,1,7.14-5.42,36.81,36.81,0,0,1,9-3.54l.83-.21.82-.21.82-.2.81-.21c2.85-.72,5.63-1.41,8.21-1.91a39.52,39.52,0,0,1,7-.85,12.31,12.31,0,0,1,5.43,1A6.8,6.8,0,0,1,107,35.71a13.45,13.45,0,0,1,.67,7.13,29.29,29.29,0,0,1-2.92,8.93,35.31,35.31,0,0,1-6.34,8.87A25.4,25.4,0,0,1,89,66.8M148.8,45.68a18.61,18.61,0,0,1-8.6.54,38.38,38.38,0,0,1-9.72-2.8A40.17,40.17,0,0,1,122,38.54,17.37,17.37,0,0,1,117,33a4.88,4.88,0,0,1-.31-4.28,7.16,7.16,0,0,1,3.08-3,26.47,26.47,0,0,1,5.24-2.2c2-.64,4.11-1.2,6.26-1.74l.6-.15.6-.15.6-.16.59-.15a25,25,0,0,1,6.91-.72,24.26,24.26,0,0,1,6.53,1.1,20.92,20.92,0,0,1,5.65,2.7,15.57,15.57,0,0,1,4.19,4.18,11.47,11.47,0,0,1,1.92,4.94,9.2,9.2,0,0,1-.71,4.83,11.86,11.86,0,0,1-3.34,4.3,19.55,19.55,0,0,1-6,3.27M131.54,17.5l-2.39.58c-1,.24-2.13.51-3.28.81s-2.38.65-3.59,1-2.42.85-3.58,1.36a22.35,22.35,0,0,0-3.25,1.76l-.07,0c-.72.33-1.46.64-2.21.93s-1.53.58-2.31.84-1.59.51-2.41.74-1.64.45-2.49.66l-1,.25-1,.23-1,.23-1.06.22a25.46,25.46,0,0,0-5-.27,46.13,46.13,0,0,0-5.29.51c-1.78.26-3.57.61-5.28,1s-3.39.77-4.92,1.14l-3.24.78a43.72,43.72,0,0,0-11,4.24,37.25,37.25,0,0,0-8.92,6.81,26.48,26.48,0,0,0-5.7,8.79,17.9,17.9,0,0,0-1,9.9,17.34,17.34,0,0,0,4.57,8.81,21.76,21.76,0,0,0,9.11,5.46A33.59,33.59,0,0,0,77.4,75.71,46.75,46.75,0,0,0,91,72.76a29.9,29.9,0,0,0,7.26-4,36.17,36.17,0,0,0,5.9-5.49,39.87,39.87,0,0,0,4.43-6.3,38.37,38.37,0,0,0,2.95-6.51,13,13,0,0,1,.77-2.31,7.32,7.32,0,0,1,1-1.62,5.06,5.06,0,0,1,1.18-1.06,5.19,5.19,0,0,1,1.35-.63,8,8,0,0,1,1.58-.31,15.75,15.75,0,0,1,1.7-.08l1.8,0c.6,0,1.22,0,1.84,0a49,49,0,0,0,7.08,3.6,45.69,45.69,0,0,0,7.65,2.39,32.56,32.56,0,0,0,7.47.78,19.93,19.93,0,0,0,6.57-1.14,22.54,22.54,0,0,0,7.42-4.39,14.22,14.22,0,0,0,3.89-5.74,12.48,12.48,0,0,0,.5-6.37,16.51,16.51,0,0,0-2.74-6.46,21.28,21.28,0,0,0-5.39-5.4,27.81,27.81,0,0,0-7.06-3.54A31,31,0,0,0,140,16.76a29.69,29.69,0,0,0-8.48.74" class="cls-23"/></g></g><path data-cppathid="10032" d="M116.09,267.44s3.82,33.12,2.55,41.4c0,0,5.1,4.45.64,14,0,0,14,47.77,4.46,62.42,0,0-65.6-3.18-72.61-7.64,0,0,2.55-47.14,5.73-56.06,0,0-3.18-9.55,3.19-15.92-.64-6.36,19.11-65.6,22.29-70.06s5.16-7.5,5.16-7.5A8.39,8.39,0,0,0,90,232.93,5.76,5.76,0,0,0,91.83,234c2.37.93,6,.65,11.63-2.63C118,222.86,116.09,267.44,116.09,267.44Z" class="cls-24"/><path data-cppathid="10033" d="M120.38,364.27s17.21,7.46,14.92,13.76,4-12.62,8.6-12-2.3,18.92-5.73,18.92-22.95,2.3-29.83-8.6-.57-21.22,2.29-24.08S120.38,364.27,120.38,364.27Z" class="cls-3"/><path data-cppathid="10034" d="M88,234.42s-28,67.18-22.22,145.52" class="cls-25"/><path data-cppathid="10035" d="M108.45,232.41c12.1,3.18,57.33,59.23,59.24,73.24s-26.12,49.68-35,52.87c0,0-11.15,1.13-17.68-3.26,0,0-5.88-7.58-4-13.94s21-28,23.56-33.76c-1.92-1.27-3.19-1.91-1.28-5.09-7.64-10.19-37.64-39.36-37.29-52.8S108.45,232.41,108.45,232.41Z" class="cls-24"/><path data-cppathid="10036" d="M112.16,218.4c3.22-.74,18.36,9.56,9.25,10.86,1.7,2.76,2,4.8-.74,4.56,5.29,1.94,3.52,8.05-.58,10.54,1.54,3.94,0,9.78-4.65,8.57,4.34,2.32,3.26,8.29-1.64,9.19.7,4.76-4.67,9.78-7.65,4.57,2.26,3,1.1,5.23-2.87,3.75.31-2.26-.73-4.53-2-6.84-3.38,2.61-5.19.35-4.51-3.79-.84-.5-3.51-2-4.13-2.33-2,3.89-8.13-2.17-5.77-4.07-3.41-1.26.5-10.23,5.15-14.48,1.66-1.53,3.42-2.44,5-2.17-.09.17-.19-.25-1-.77.2-.06,2.56-.54,2.89-.71-1.06-3.42,1-4.65,4.59-3.9.59.48-1.65-.85-1.34-.71,1.31-.91,2.27-2.24,4-3.14.57,0,.57.06,0,.11a.75.75,0,0,1-.92-.81c2.57-1.93,4.1-4.46,6.21-6.13" class="cls-26"/><path data-cppathid="10037" d="M79.81,226.2c.44.16-4.59-1.12-6.76-.65-.55,3.14.74,5.62,3.6,6.65-3.05-3.38-7.65-1.85-9,2.39.94.57,1.71,1.78,2.72,2.35-2.63-.14-9,.2-9.53,3.79s5.28,4.79,8,6.17c-7.81-3.85-6.86,8.22,2.26,8.22-.52-.61-1.27-1.52-1.75-2.19a28.8,28.8,0,0,0,10.18.69,15,15,0,0,0-2.13-3c.37-1,1.42-.45,1.54-1.32-.45-.13-.89-.28-1.34-.42,3.62-.65,1.85-6.17-3.11-6.56,2.46,2.92,5.86.63,5.94-3a2.59,2.59,0,0,0-1.51-.13c1.67-.44,5.11-3.45,5.35-6.71C83,232.26,81.27,231,80,231c2.18-.54,2.06-1.41,3.67-2.46-.79-1.31-1.78-1.65-3.13-2.29" class="cls-26"/><path data-cppathid="10038" d="M125.65,218.49S97.85,256.41,80.86,241,83,229.76,83,229.76s-12.75-14.08-4.47-12c0,0,22.29,19.68,40.76-7,0,0,5.73-1.4,1.28,6.33C120.56,217.09,128.2,211.46,125.65,218.49Z" class="cls-8"/><path data-cppathid="10039" d="M125.82,270.35c-1.69,0-3.85-2.09-1.29-2.64a17.47,17.47,0,0,1,5.92-.12.81.81,0,0,1,0-.25c1-2.32,2.1-4.26,4.79-4.65,1.79-.25,3.77,2.29,1.28,2.65a1.36,1.36,0,0,0-.43.14,5.72,5.72,0,0,1,3.4,1c1.17.78.56,1.91-.58,2.15a17.53,17.53,0,0,0-2.95.8c1.28.23,2.6.35,3.83.7,1.81.51,2,2.78-.16,2.57s-4.23-.24-6.35-.24a13.88,13.88,0,0,1-.57,4.42c-.35,1.68-4.05.73-3.69-1,.17-.81.42-1.63.56-2.45a12.81,12.81,0,0,0-1.32,1.12c-1.09,1.05-4.55,0-3.39-1.62a12.18,12.18,0,0,1,3.36-2.75A23,23,0,0,0,125.82,270.35Z" class="cls-27"/></g></g></svg>