<?xml version="1.0" encoding="UTF-8"?>
<svg xmlns="http://www.w3.org/2000/svg" onmouseup="{ if(window.parent.document.onmouseup) window.parent.document.onmouseup(arguments[0]);}" viewBox="0 0 318.15 556.04" xmlns:xlink="http://www.w3.org/1999/xlink"><defs><style>.cls-1,.cls-17,.cls-18,.cls-19{fill:none;}.cls-2{clip-path:url(#clip-path);}.cls-3{fill:#a27c52;}.cls-21,.cls-4{fill:#fff;}.cls-4{stroke:#afafb0;stroke-width:2px;}.cls-5{fill:#6ab8e6;}.cls-6{fill:#eca160;}.cls-7{fill:#c8c8c8;stroke:#c8c8c8;}.cls-14,.cls-7{stroke-width:0.26px;}.cls-26,.cls-8{fill:#272361;stroke:#272361;}.cls-8{stroke-width:0.25px;}.cls-9{fill:#fcc488;}.cls-10{fill:#a16c29;}.cls-11{fill:#efeeee;opacity:0.4;}.cls-12{fill:#fcc58a;}.cls-13{fill:#bbe3f0;}.cls-14{fill:#73a9b8;}.cls-14,.cls-17,.cls-19{stroke:#5996a3;}.cls-15{fill:#ec3727;}.cls-16{fill:#cd2227;}.cls-17{stroke-width:0.24px;}.cls-18,.cls-23,.cls-24{stroke:#000;}.cls-18{stroke-width:0.23px;}.cls-19{stroke-width:0.3px;}.cls-20{opacity:0.48;}.cls-22{fill:#cd2027;opacity:0.57;}.cls-23{stroke-width:0.64px;}.cls-24{stroke-width:0.84px;}.cls-25{fill:#f6ac3c;}.cls-26{stroke-width:0.23px;}.cls-27{fill:gray;}</style><clipPath transform="translate(-34.99 -12.71)" id="clip-path"><rect data-cppathid="10000" height="434" width="360.73" class="cls-1"/></clipPath></defs><g data-name="Layer 2" id="Layer_2"><g data-name="Tim Tester" id="Tim_Tester"><g class="cls-2"><path data-cppathid="10001" transform="translate(-34.99 -12.71)" d="M173.52,377.66s.49,7.61.64,11.45c2.88,74.35-17.82,154.62-17.82,154.62s16.56,11.43,19.42,17.16-39.47-2.84-39.47-2.84,8.59-103.09,5.73-126-14.29,119.58-20,128.17-37.37,8.52-37.37,8.52,12.1-13.81,16.39-21c4.18-7,8.9-101.9,9.47-155.81,0-1.46,0-4.3,0-4.3Z" class="cls-3"/><path data-cppathid="10002" transform="translate(-34.99 -12.71)" d="M136.53,254.61s-3.66-17.49,7.45-14.23,57,40.67,65.33,42.92c35.78,9.6,52.38,5.38,52.38,5.38l-2.17,20.4c-41.15,3.1-34.8-1.58-52.73-3.73C185.81,302.83,136.53,254.61,136.53,254.61Z" class="cls-4"/><path data-cppathid="10003" transform="translate(-34.99 -12.71)" d="M137.74,225.91s31,70.22,36.81,147.53c.35,4.72.74,14.27.74,14.27l-63.82,6.67s0-3.87,0-5.72c0-53,1.9-113.11,1.9-113.11s4.39-63,10.24-60.13S137.74,225.91,137.74,225.91Z" class="cls-5"/><polygon data-cppathid="10004" points="87.22 203.05 86.24 209.6 98.54 219.18 103.08 209.22 87.22 203.05" class="cls-6"/><path data-cppathid="10005" transform="translate(-34.99 -12.71)" d="M149.78,292.59s17.7,98.32,7.86,151.42c0,0-46.22,4.58-76.69-6.23,0,0,25.56-85.55,26.54-109.15s11.81-103.08,14.75-92.42C126.17,250.46,149.78,292.59,149.78,292.59Z" class="cls-4"/><path data-cppathid="10006" transform="translate(-34.99 -12.71)" d="M135.23,222.47s22.19,39.46,14.62,70.77c0,0,10.9-22.1,5-38.91,0,0,3.83-2.78,7.15-1.6s-20.44-34.6-25-34.41S135.23,222.47,135.23,222.47Z" class="cls-7"/><path data-cppathid="10007" transform="translate(-34.99 -12.71)" d="M131.59,232.24l7.86,15s1.67.24,2.33-.74.74-.61.74-.61-.8-15.38-3.45-16.59C139.07,229.33,135.55,232.49,131.59,232.24Z" class="cls-8"/><path data-cppathid="10008" transform="translate(-34.99 -12.71)" d="M109.46,381l.07,0a2.19,2.19,0,0,1-.09-.22c-.1-.92-.19-1.88-.28-2.89a13.52,13.52,0,0,0-3-6.91,214,214,0,0,1-7.77-51.16c-.32-8.8,27.18-59.52,27-71.33s-16.57-3-16.57-3S75.64,308,79.56,329.27c2.27,12.33,8,29.4,12.41,41.56a19.86,19.86,0,0,0,.24,4.71c.72,4.59,1.29,8,1.31,9.51.1,7.43-9,28.51-7.2,29.7s8.41-8.43,8.41-8.43-.39,14.47,1,12.92,4.19-14.46,4.19-14.46.21,14.87,4.17,12.54,2.2-19.82,2.2-19.82,3.07,5.25,11,7.11-6.58-14.13-6.58-14.13S110.06,386.75,109.46,381Z" class="cls-9"/><path data-cppathid="10009" transform="translate(-34.99 -12.71)" d="M121,238.2c-7.37.5-11.79,3.94-16.22,10.82s-25.07,57.53-27,64.9,8.36,65.39,10.33,68.83c10.32,11.8,25.56,2.95,25.56,2.95s-9-58.39-12.79-65.88c-.11-4.81,29-61.95,27.54-71.28S121,238.2,121,238.2Z" class="cls-4"/><path data-cppathid="10010" transform="translate(-34.99 -12.71)" d="M118.31,216.55l-4.43,44.73,12.79-1,23.11,32.94S124.21,239.65,118.31,216.55Z" class="cls-7"/><path data-cppathid="10011" transform="translate(-34.99 -12.71)" d="M156.66,199s0-.13,1.4-3.39l7.21-16.87s-16.54-2.23-40-18.25c19.82,3.67,47.39,1.82,47.5,1.29,4.65-23.41,8.53-70.44-1.7-89.88-24-45.57-98.33-86.34-119.91-36S53.53,119.84,70.32,151s48.68,71.75,63.16,73.55C146.27,226.17,156.66,199,156.66,199Z" class="cls-9"/><path data-cppathid="10012" transform="translate(-34.99 -12.71)" d="M46.79,42s12.5,26.5,13.62,37.79l1.14,11.3s-6.78-4.51-10.17-5.64L48,84.35s2.25,20.35,3.39,24.87a8.11,8.11,0,0,1-1.32,7.22S35,89.23,35,66.62,46.79,42,46.79,42Z" class="cls-10"/><path data-cppathid="10013" transform="translate(-34.99 -12.71)" d="M96,87c3.43,12.35,10.69,19.36,21.56,20.83h0a40.08,40.08,0,0,0,12.29-.42c6.75-1.18,9.4-6.34,12.42-13.52,2.11-5,4.51-10.73,10.54-10.58a7.25,7.25,0,0,1,.91.07c4,.54,7.47,3.92,11.12,7.5,3,2.95,6.75,6.61,9.45,7a3,3,0,0,0,2.55-1c1.53-5.12-3.59-27.23-10.63-30.87a16.88,16.88,0,0,0-5.54-1.48c-20-2.71-63.21,7.89-66.89,9.55C93.77,74.09,95.86,86.53,96,87Z" class="cls-11"/><path data-cppathid="10014" transform="translate(-34.99 -12.71)" d="M290,299.74s9.17.38,7.5-2.49-6.89,1-5-4.36-14.83-.75-14.83-.75-4.18.26-10.21.28c-8.8.06-17.66,12.49-2.75,11.58,3.73-.23,6.51-.42,7.71-.35,6,.37,22.29,6.37,23.32,5.19s-4.79-4.11-4.79-4.11,7.78-1.57,6.6-2.61S290,299.74,290,299.74Z" class="cls-12"/><path data-cppathid="10015" transform="translate(-34.99 -12.71)" d="M341.65,244.32c-.6,1-3.23.85-3.23.85L336,249.25l-11,18.87-9.2,15.8L304.28,303.8s-6.24,10.71-14.39,6S288,294.3,288,294.3l11.58-19.88,22.56-38.74s-1.45-2.22-.85-3.23l1.48-2.55c.82-1.41,6,.11,11.68,3.39s9.53,7.07,8.72,8.48Z" class="cls-13"/><path data-cppathid="10016" transform="translate(-34.99 -12.71)" d="M340.66,240.42c-.51.89-4.42-.42-8.7-2.91s-7.35-5.25-6.84-6.13,4.42.41,8.71,2.91S341.18,239.53,340.66,240.42Z" class="cls-14"/><path data-cppathid="10017" transform="translate(-34.99 -12.71)" d="M325.06,268.12l-9.2,15.8L304.28,303.8s-6.24,10.71-14.39,6S288,294.3,288,294.3l11.58-19.88,13.51-23.18s16.11,5.72,17.25,7.08c.63.74-.1,1-.31,1.32Z" class="cls-15"/><path data-cppathid="10018" transform="translate(-34.99 -12.71)" d="M330.57,258.46c-.44,1.09-4.71.39-9.55-1.59s-8.37-4.46-7.92-5.56,4.72-.37,9.55,1.6S331,257.37,330.57,258.46Z" class="cls-16"/><path data-cppathid="10019" transform="translate(-34.99 -12.71)" d="M337.17,244.85A40.84,40.84,0,0,1,323,236.57" class="cls-17"/><path data-cppathid="10020" transform="translate(-34.99 -12.71)" d="M320.57,248.87c-.52-.38-1-.76-1.41-1.12-1.67-1.42-2.56-2.63-2.22-3.21" class="cls-18"/><path data-cppathid="10021" transform="translate(-34.99 -12.71)" d="M317.82,253.59q-.78-.57-1.41-1.11c-1.66-1.43-2.56-2.64-2.22-3.22" class="cls-18"/><path data-cppathid="10022" transform="translate(-34.99 -12.71)" d="M315.07,258.31q-.78-.57-1.41-1.11c-1.66-1.42-2.56-2.63-2.22-3.22" class="cls-18"/><path data-cppathid="10023" transform="translate(-34.99 -12.71)" d="M312.32,263q-.78-.57-1.41-1.11c-1.66-1.42-2.56-2.63-2.21-3.22" class="cls-18"/><path data-cppathid="10024" transform="translate(-34.99 -12.71)" d="M309.57,267.76c-.52-.38-1-.76-1.41-1.12-1.66-1.42-2.56-2.63-2.21-3.22" class="cls-18"/><path data-cppathid="10025" transform="translate(-34.99 -12.71)" d="M306.82,272.48c-.52-.38-1-.75-1.41-1.11-1.66-1.42-2.56-2.64-2.21-3.22" class="cls-18"/><path data-cppathid="10026" transform="translate(-34.99 -12.71)" d="M304.07,277.2c-.52-.38-1-.75-1.41-1.11-1.66-1.42-2.56-2.64-2.21-3.22" class="cls-18"/><path data-cppathid="10027" transform="translate(-34.99 -12.71)" d="M301.32,281.92c-.52-.38-1-.75-1.41-1.11-1.66-1.42-2.56-2.63-2.21-3.22" class="cls-18"/><path data-cppathid="10028" transform="translate(-34.99 -12.71)" d="M298.57,286.65c-.52-.39-1-.75-1.41-1.12-1.66-1.41-2.55-2.63-2.21-3.22" class="cls-18"/><path data-cppathid="10029" transform="translate(-34.99 -12.71)" d="M295.82,291.37c-.52-.38-1-.75-1.41-1.11-1.66-1.42-2.55-2.64-2.21-3.22" class="cls-18"/><path data-cppathid="10030" transform="translate(-34.99 -12.71)" d="M341.65,244.32c-.6,1-3.23.85-3.23.85L336,249.25l-11,18.87-9.2,15.8L304.28,303.8s-6.24,10.71-14.39,6S288,294.3,288,294.3l11.58-19.88,22.56-38.74s-1.45-2.22-.85-3.23l1.48-2.55c.82-1.41,6,.11,11.68,3.39s9.53,7.07,8.72,8.48Z" class="cls-19"/><g class="cls-20"><path data-cppathid="10031" transform="translate(-34.99 -12.71)" d="M291.7,294.28,303,274.89l9.67-16.6a9.32,9.32,0,0,1-1.47-1.61l-10,17.16-11.29,19.39s-6.08,10.44,1,14.54a9,9,0,0,0,.94.46C286.16,303.79,291.7,294.28,291.7,294.28Z" class="cls-21"/></g><path data-cppathid="10032" transform="translate(-34.99 -12.71)" d="M346.25,229.64a4.72,4.72,0,1,1-1.71-6.45A4.73,4.73,0,0,1,346.25,229.64Z" class="cls-22"/><path data-cppathid="10033" transform="translate(-34.99 -12.71)" d="M343.6,213.09a2.36,2.36,0,0,1-4.08-2.38,2.36,2.36,0,0,1,4.08,2.38Z" class="cls-22"/><path data-cppathid="10034" transform="translate(-34.99 -12.71)" d="M352.89,204.16a1.77,1.77,0,1,1-.63-2.42A1.78,1.78,0,0,1,352.89,204.16Z" class="cls-22"/><path data-cppathid="10035" transform="translate(-34.99 -12.71)" d="M298.11,266.58l.39-.3.38-.3-.38.3Z" class="cls-9"/><polygon data-cppathid="10036" points="104.59 234.44 106.51 266.25 114.88 287.66 119.95 272.81 107.29 233.33 104.59 234.44" class="cls-8"/><path data-cppathid="10037" transform="translate(-34.99 -12.71)" d="M149.12,292.59S165.5,428.28,162.23,442c0,0,24.58-4.59,25.89-5.9s-19.34-153.39-30.48-170.43C153.05,281.44,149.12,292.59,149.12,292.59Z" class="cls-4"/><path data-cppathid="10038" transform="translate(-34.99 -12.71)" d="M144.55,77.81c0,5.3,2.53,9.59,5.64,9.59s5.63-4.29,5.63-9.59-2.52-9.57-5.63-9.57S144.55,72.53,144.55,77.81Z" class="cls-23"/><path data-cppathid="10039" transform="translate(-34.99 -12.71)" d="M150.81,75.06a2.82,2.82,0,1,0,2.82-2.82A2.82,2.82,0,0,0,150.81,75.06Z" class="cls-21"/><path data-cppathid="10040" transform="translate(-34.99 -12.71)" d="M121.74,83.41c.67,5.63,3.91,9.86,7.22,9.46S134.4,87.6,133.72,82s-3.92-9.85-7.21-9.46S121.06,77.79,121.74,83.41Z" class="cls-24"/><path data-cppathid="10041" transform="translate(-34.99 -12.71)" d="M126.13,81.33a3.66,3.66,0,1,0,3.21-4.08A3.67,3.67,0,0,0,126.13,81.33Z" class="cls-21"/><path data-cppathid="10042" transform="translate(-34.99 -12.71)" d="M123.06,298.14c0,.27.35.46.72.42h0c.38,0,.66-.28.64-.54l-1-10.17c0-.27-.34-.46-.72-.42h0c-.38,0-.66.27-.63.54Z" class="cls-25"/><polygon data-cppathid="10043" points="83.32 282.5 105.61 280.53 107.58 289.05 83.98 292.33 83.32 282.5" class="cls-7"/><path data-cppathid="10044" transform="translate(-34.99 -12.71)" d="M126.05,317.22a1.58,1.58,0,0,0,1.84,1.22h0a1.59,1.59,0,0,0,1.59-1.54l-2.68-29a1.58,1.58,0,0,0-1.84-1.21h0a1.58,1.58,0,0,0-1.59,1.52Z" class="cls-26"/><path data-cppathid="10045" transform="translate(-34.99 -12.71)" d="M123.78,295.08a4.79,4.79,0,0,0,3.87-.37l.12.68a4.9,4.9,0,0,1-4,.43Z" class="cls-25"/><path data-cppathid="10046" transform="translate(-34.99 -12.71)" d="M168.33,61.88C153,54,95.91,67.75,91.7,69.93c0,0-47.64,23.28-50.74,26s5,22.42,7.87,21.63.24-12.75.24-12.75S90.44,85,91.28,87.48s6.26,30.28,39.36,24.5c16.44-2.87,15-24.2,22-24s17.39,21.93,27.74,12C184.35,96.15,178.58,67.18,168.33,61.88Zm8.5,35a3,3,0,0,1-2.55,1c-2.7-.36-6.44-4-9.45-7-3.65-3.58-7.11-7-11.12-7.5a7.25,7.25,0,0,0-.91-.07c-6-.15-8.43,5.55-10.54,10.58-3,7.18-5.67,12.34-12.42,13.52a40.08,40.08,0,0,1-12.29.42h0C106.68,106.35,99.42,99.34,96,87c-.13-.46-2.22-12.9-2.22-12.9,3.68-1.66,46.86-12.26,66.89-9.55A16.88,16.88,0,0,1,166.2,66C173.24,69.66,178.36,91.77,176.83,96.89Z" class="cls-27"/></g></g></g></svg>