<?xml version="1.0" encoding="UTF-8"?>
<svg xmlns="http://www.w3.org/2000/svg" onmouseup="{ if(window.parent.document.onmouseup) window.parent.document.onmouseup(arguments[0]);}" viewBox="0 0 440.18 328.09"><defs><style>.cls-1{fill:#fff100;}.cls-2{fill:#603813;}</style></defs><g data-name="Layer 2" id="Layer_2"><g id="backlog"><g data-name="2023 jp" id="_2023_jp"><g data-name="almost-fully-refined Product Backlog" id="almost-fully-refined_Product_Backlog"><g data-name="今学期の View Grades PBI" id="今学期の_View_Grades_PBI"><path data-cppathid="10000" d="M53.24.15,431.5,64A10.42,10.42,0,0,1,440,76h0l-41.1,243.41A10.41,10.41,0,0,1,387,328h0L8.68,264.09a10.41,10.41,0,0,1-8.53-12h0L41.24,8.69A10.41,10.41,0,0,1,53.24.15Z" class="cls-1" data-name="big sticky" id="big_sticky"/><path data-cppathid="10001" d="M43.77,94a.8.8,0,0,1-.82.4l-.12,0a.16.16,0,0,1-.11,0l-1.15-.43c-.38-.17-.54-.41-.48-.74a.87.87,0,0,1,.13-.35l5.67-8.34a.77.77,0,0,1,.82-.39l.12,0a.21.21,0,0,1,.11,0l1.14.43c.38.17.55.4.5.7a.87.87,0,0,1-.17.38l-1.75,2.6,4.19.71.7-4.16a.7.7,0,0,1,.91-.65l1.47.24a.71.71,0,0,1,.65.92l-.7,4.16,6.44,1.09q.78.14.66.84c-.08.47-.38.67-.9.58l-6.44-1.09-1,5.94,5.49.93q.78.14.66.84c-.08.47-.38.67-.9.58l-5.49-.93-.86,5.07v.07l7.15,1.2c.52.09.74.37.66.85s-.38.66-.9.57L40.65,102.8c-.52-.09-.74-.37-.67-.84a.68.68,0,0,1,.91-.58l8.61,1.46v-.08l.86-5.06L44,96.63q-.78-.13-.66-.84c.08-.47.38-.67.9-.58l6.35,1.07,1-5.94-4.85-.82Z" class="cls-2"/><path data-cppathid="10002" d="M66.56,100.41a.91.91,0,0,1-.69.2,1.38,1.38,0,0,1-.41-.19l-.61-.42a.64.64,0,0,1-.35-.64.74.74,0,0,1,.34-.48l6.82-4.76a1,1,0,0,1,.69-.21,1.23,1.23,0,0,1,.41.2l.61.42a.65.65,0,0,1,.35.64.77.77,0,0,1-.35.48l-2.26,1.58a.91.91,0,0,1,.06.53l-1.63,9.65a.7.7,0,0,1-.91.65l-1.47-.25a.7.7,0,0,1-.65-.91l1.23-7.31Zm1.64-6.29a.84.84,0,0,1-.74.23,1.1,1.1,0,0,1-.37-.13l-.79-.48a.67.67,0,0,1-.4-.67.74.74,0,0,1,.29-.44l5.61-5a.9.9,0,0,1,.75-.24,1.44,1.44,0,0,1,.37.14l.79.47a.69.69,0,0,1,.4.68.73.73,0,0,1-.29.43Zm5,13.59a.73.73,0,0,1-1,.51l-1.4-.38a.66.66,0,0,1-.51-1L72.9,100a.75.75,0,0,1,1-.52l1.4.39a.65.65,0,0,1,.51,1l-1.52,4,2.33.93,1.18-7a.92.92,0,0,1,.19-.46l-4.25-.72c-.53-.09-.75-.37-.67-.84s.38-.66.9-.58l4.05.69V96.8l.71-4.19-4-.69c-.52-.08-.74-.37-.66-.84s.38-.67.9-.58l4,.69.34-2a.7.7,0,0,1,.91-.65l1.47.25a.7.7,0,0,1,.65.91l-.34,2,3.24.54c.52.09.74.37.66.85s-.38.66-.9.58l-3.24-.55-.71,4.19v.07l4.19.71q.78.12.66.84t-.9.57l-4.21-.71a1,1,0,0,1,0,.5L80.36,102l3.62.62q.78.12.66.84c-.08.47-.38.66-.9.58l-3.62-.61-.54,3.21a.87.87,0,0,1-.1.3l4.37,1.79c.39.16.57.39.52.67a.69.69,0,0,1-.12.29l0,0a.78.78,0,0,1-.84.39l-.12,0-.11,0-9.41-3.83Z" class="cls-2"/><path data-cppathid="10003" d="M102.84,110.84a1.71,1.71,0,0,1,.46,0,1,1,0,0,1,.31.1.9.9,0,0,1,.27.21l.17.18a.68.68,0,0,1,.25.63c0,.27-.24.4-.6.41-.59,0-1.31,0-2.17,0s-1.74-.08-2.65-.16-1.76-.19-2.55-.32a18.1,18.1,0,0,1-4.66-1.38,7.53,7.53,0,0,1-2.87-2.19,3.49,3.49,0,0,1-.67-2.76,3.79,3.79,0,0,1,1.42-2.34,11.41,11.41,0,0,1,3.75-1.77l-1.92-6.8a1,1,0,0,1,0-.42c.05-.3.28-.46.67-.5l1.25,0a.9.9,0,0,1,.27,0,.76.76,0,0,1,.65.62L96,100.78c1.14-.26,2.45-.51,3.91-.75s3.09-.48,4.9-.71a.4.4,0,0,1,.18,0l.18,0a.79.79,0,0,1,.64.55v0a.94.94,0,0,1,.06.48c0,.27-.27.43-.67.49q-4,.52-6.62,1A26.39,26.39,0,0,0,94.37,103a6.16,6.16,0,0,0-2.31,1.34,3.29,3.29,0,0,0-.91,1.76,2.81,2.81,0,0,0,1,2.81,9.81,9.81,0,0,0,4.44,1.59q1.14.2,2.34.3c.8.07,1.54.11,2.24.12A11.68,11.68,0,0,0,102.84,110.84Z" class="cls-2"/><path data-cppathid="10004" d="M121.07,108.39a.74.74,0,0,1,.94-.64l1.46.25a.67.67,0,0,1,.62.93,10.28,10.28,0,0,1-1.89,4.17,7.05,7.05,0,0,1-3.27,2.33,8.69,8.69,0,0,1-4.35.27,7.33,7.33,0,0,1-4.85-2.62,6.49,6.49,0,0,1-1-5.19q.11-.65.33-1.65c.15-.67.31-1.41.5-2.22s.38-1.62.58-2.45.41-1.63.61-2.38.38-1.41.54-2a.71.71,0,0,1,1-.54l1.4.33a.68.68,0,0,1,.57.95c-.16.54-.33,1.18-.52,1.92s-.39,1.52-.59,2.33-.39,1.63-.58,2.41-.34,1.52-.47,2.18-.24,1.19-.31,1.6a6.36,6.36,0,0,0,.36,4,3.56,3.56,0,0,0,2.74,1.83,4.34,4.34,0,0,0,3.9-1.2A9,9,0,0,0,121.07,108.39Z" class="cls-2"/><path data-cppathid="10005" d="M140,118.08c.49.12.71.41.63.87s-.39.67-.92.55a16.64,16.64,0,0,1-3.63-1.22,11.18,11.18,0,0,1-2.77-1.86,6.9,6.9,0,0,1-1.66-2.31,4.4,4.4,0,0,1-.31-2.55,7.66,7.66,0,0,1,2.36-4.38,12.5,12.5,0,0,1,5-2.83l-10.06-1a.71.71,0,0,1-.71-.95c.06-.36.33-.52.81-.49l15.07,1.45a.83.83,0,0,1,.82.77,1.16,1.16,0,0,1,0,.27c0,.31-.3.5-.75.55a13.63,13.63,0,0,0-4.62,1.14,9.07,9.07,0,0,0-3.26,2.45,7.24,7.24,0,0,0-1.59,3.5,4.16,4.16,0,0,0,.19,2.36,4.77,4.77,0,0,0,1.29,1.74,7.72,7.72,0,0,0,1.95,1.19A13.14,13.14,0,0,0,140,118.08Z" class="cls-2"/><path data-cppathid="10006" d="M152.05,122a.78.78,0,0,1,.18.56c0,.22-.22.38-.55.47l-.48.14a.93.93,0,0,1-.44,0,.85.85,0,0,1-.61-.42l-3.62-5.11a.77.77,0,0,1-.17-.57c0-.22.21-.37.54-.46l.48-.14a1,1,0,0,1,.45,0,.89.89,0,0,1,.61.42Z" class="cls-2"/><path data-cppathid="10007" d="M189.07,126a.82.82,0,0,1,.56.24.7.7,0,0,1,.16.64.61.61,0,0,1-.29.42.94.94,0,0,1-.58.16l-6.82-.27-.2,0-.38-.1L171,124.17a1,1,0,0,1-.64-.43.9.9,0,0,1-.14-.67,1.18,1.18,0,0,1,.4-.69l1.81-1.47-1.17-2.71a.63.63,0,0,1-.06-.37.7.7,0,0,1,.15-.32l3.08-4.1L172,113a.83.83,0,0,1-.53-.29.69.69,0,0,1-.15-.55.63.63,0,0,1,.32-.47.88.88,0,0,1,.6-.11l4.64.79a1,1,0,0,1,.66.38.87.87,0,0,1,.16.68,1,1,0,0,1-.2.48l-3.33,4.45,1.14,2.6a.63.63,0,0,1,0,.4.83.83,0,0,1-.27.49l-1.78,1.45,9,2.44Zm-11.7-16.21a.84.84,0,0,1,0,.39.82.82,0,0,1-.26.48.87.87,0,0,1-.56.21l-1.15,0a.69.69,0,0,1-.76-.57L173.51,106a1.62,1.62,0,0,0,0-.2.61.61,0,0,1,0-.19.76.76,0,0,1,.29-.48,1,1,0,0,1,.56-.21l1.12,0a.69.69,0,0,1,.76.57Zm2.6,12.83a.72.72,0,0,1-.33.52.79.79,0,0,1-.61.15l-1.42-.24a.85.85,0,0,1-.67-1l1.71-10.08a.72.72,0,0,1,.33-.52.83.83,0,0,1,.61-.15l1.42.24a.83.83,0,0,1,.4.19l3.08.52-2.13-1.79a1,1,0,0,1-.43-1,.53.53,0,0,1,.27-.39l.43-.25a.57.57,0,0,1,.45-.09.69.69,0,0,1,.36.18l2.6,2.17.15-.15,2.23-1.81-8.17-1.38a.86.86,0,0,1-.53-.3.67.67,0,0,1,.17-1,.83.83,0,0,1,.6-.11l10.13,1.71a1.12,1.12,0,0,1,.77.45,1,1,0,0,1,.17.76,1.14,1.14,0,0,1-.44.73l-3.38,2.76,0,0,3,.51a.79.79,0,0,1,.53.34.76.76,0,0,1,.14.6l-1.7,10.08a.8.8,0,0,1-.35.57.83.83,0,0,1-.66.09l-2.11-.5a1.07,1.07,0,0,1-.56-.36.55.55,0,0,1-.09-.55v0c.16-.46.35-.65.57-.58l.3.07.25-1.49-1.89-.32-.36,2.15a.83.83,0,0,1-1,.67l-1.42-.24a.72.72,0,0,1-.52-.33.78.78,0,0,1-.14-.61l.36-2.15-1.82-.31Zm.61-3.58,1.82.31.33-1.94-1.83-.31Zm2.78-5.37v-.09l-1.82-.31-.41,2.41L183,116Zm2.07,6.19,1.89.32.33-1.94-1.89-.32Zm1-5.68-.39,2.32,1.89.32.41-2.41-1.9-.32Z" class="cls-2"/><path data-cppathid="10008" d="M195.75,129.08a.84.84,0,0,1-.78.31,1.3,1.3,0,0,1-.3-.1l-1-.48c-.32-.17-.47-.39-.42-.66a.86.86,0,0,1,.22-.42,27,27,0,0,0,4.38-7.37l-2.32-.39q-.78-.14-.66-.84c.08-.48.38-.67.9-.58l2.6.44a36.62,36.62,0,0,0,1.51-5.76v-.07l-1.06-.18-1.22,4.18a.71.71,0,0,1-1,.56l-1.45-.34a.71.71,0,0,1-.57-1l2.18-7.4a.71.71,0,0,1,1-.57l1.45.35a.78.78,0,0,1,.53.34.79.79,0,0,1,0,.63l-.53,1.83,5.37.91q.78.14.66.84c-.08.47-.38.67-.9.58l-1.54-.26a4.34,4.34,0,0,1-.06.65c-.2,1-.41,1.89-.65,2.75s-.49,1.67-.76,2.43l2.25.38c.52.09.74.37.66.85s-.38.66-.9.57l-2.51-.42-.08.18a.85.85,0,0,1,.08.24l1.77,7.38a.71.71,0,0,1,0,.2.41.41,0,0,1,0,.19c-.05.3-.28.47-.69.49l-1.29,0h-.13l-.12,0a.8.8,0,0,1-.64-.67l-1-4a23,23,0,0,1-1.49,2.21C196.83,127.81,196.3,128.46,195.75,129.08Zm10.09-15.5a.71.71,0,0,1,.92-.65l1.46.25a.7.7,0,0,1,.63.47l6,1a.69.69,0,0,1,.64.91L212.93,131a.7.7,0,0,1-.91.65l-1.47-.25a.7.7,0,0,1-.65-.91l-3.69-.63a.7.7,0,0,1-.91.65l-1.47-.24a.71.71,0,0,1-.65-.92Zm6.56,2.13-3.69-.63-2.26,13.37,3.69.63Z" class="cls-2"/><path data-cppathid="10009" d="M219.13,130.91a.94.94,0,0,1-.72.22.45.45,0,0,1-.18-.07L218,131l-.68-.43c-.29-.2-.42-.41-.38-.65a.75.75,0,0,1,.33-.48l6.3-4.88-5.11-.86q-.78-.14-.66-.84c.08-.47.38-.67.9-.58l8.26,1.39v-.07l.31-1.82-6.21-1q-.78-.12-.66-.84c.08-.47.38-.66.9-.58l6.2,1,.41-2.41-7.22-1.22q-.78-.14-.66-.84c.08-.48.38-.67.9-.58l7.22,1.22.27-1.59a.7.7,0,0,1,.91-.65l1.47.25a.7.7,0,0,1,.65.91l-.27,1.59,7.24,1.22q.78.13.66.84c-.08.48-.38.67-.9.58L231,118.43l-.41,2.41,6.23,1c.52.09.74.37.66.85s-.38.66-.9.57l-6.23-1-.3,1.82,0,.08,8.26,1.39q.78.14.66.84c-.07.48-.38.67-.9.58L226.52,125a.74.74,0,0,1-.31.41l-1.65,1.28a.74.74,0,0,1,.12.6l-.93,5.47,2,.16a.81.81,0,0,1,.62.3.83.83,0,0,1,.14.68c-.06.37-.33.53-.81.5l-4.44-.39a.66.66,0,0,1-.68-.87l.66-3.88Zm17.28,3.87a.64.64,0,0,1,.38.65.66.66,0,0,1-.29.41l-.19.14a.88.88,0,0,1-.69.2,1,1,0,0,1-.41-.17l-9.44-6.24c-.29-.2-.42-.41-.38-.65a.67.67,0,0,1,.29-.41l.2-.14a.87.87,0,0,1,.69-.2,1,1,0,0,1,.41.17Zm-4.9-4.09a.89.89,0,0,1-.5.06.9.9,0,0,1-.57-.39l-.16-.2a.76.76,0,0,1-.17-.56c0-.24.21-.4.52-.49l5.4-1.7a1.11,1.11,0,0,1,.49-.06.9.9,0,0,1,.57.39l.16.19a.81.81,0,0,1,.18.57c0,.24-.22.4-.53.49Z" class="cls-2"/><path data-cppathid="10010" d="M254.74,133.49a.68.68,0,0,1-.92.67l-1.46-.24a.73.73,0,0,1-.65-.92,9.78,9.78,0,0,0,0-1.42,20.06,20.06,0,0,0-4.22,1.34c-1,.5-1.6,1-1.69,1.55s.18.88.78,1.22a9.92,9.92,0,0,0,2.91.84,14.12,14.12,0,0,0,6.42-.28,1.23,1.23,0,0,1,.52-.06.84.84,0,0,1,.53.34l.21.22a.68.68,0,0,1,.21.6c0,.24-.21.39-.52.47a13.18,13.18,0,0,1-2.3.34,21.45,21.45,0,0,1-2.67.05,20.35,20.35,0,0,1-2.64-.26,15.23,15.23,0,0,1-3.42-1,8,8,0,0,1-2.36-1.44,1.78,1.78,0,0,1-.7-1.58,2.47,2.47,0,0,1,1.23-1.51,12.46,12.46,0,0,1,3-1.35,36.71,36.71,0,0,1,4.49-1.12,4.12,4.12,0,0,0-.83-1.66,2.27,2.27,0,0,0-1.34-.78,2.73,2.73,0,0,0-1.62.23,4.86,4.86,0,0,0-1.57,1.33.93.93,0,0,1-.6.39l0,0-.09,0-.05,0h0l-.12,0-.11,0-.12,0L244,129a.37.37,0,0,1-.13-.07.61.61,0,0,1-.41-.65.87.87,0,0,1,.17-.38l3.13-4.44-3.64-.62c-.52-.08-.74-.37-.66-.84s.38-.66.9-.58l4.33.73,1.15-1.65a.8.8,0,0,1,.85-.39l.12,0,.11,0,1.16.49c.36.16.52.39.47.69a1,1,0,0,1-.16.38l-.67.94,7.52,1.27q.78.12.66.84c-.08.47-.38.66-.9.58l-8.19-1.39L248.33,126a6.89,6.89,0,0,1,1.28.09,6.38,6.38,0,0,1,2.84,1.17,5.5,5.5,0,0,1,1.77,2.24c1.26-.19,2.59-.35,4-.47h.32a.83.83,0,0,1,.63.6.88.88,0,0,1,.05.4c-.05.31-.29.48-.7.51-1.35.13-2.62.29-3.82.47A9.46,9.46,0,0,1,254.74,133.49Z" class="cls-2"/><path data-cppathid="10011" d="M264,139.23a.68.68,0,0,1-.93.6l-1.46-.29c-.53-.12-.74-.43-.62-.93l.84-3.56a.68.68,0,0,1,.93-.6l1.46.29a.72.72,0,0,1,.62,1Zm3.54,1.67a.7.7,0,0,1-.92.65l-1.46-.24a.71.71,0,0,1-.65-.92l1.14-6.74v-.07l-2.9-.27q-.72-.08-.63-.57a.7.7,0,0,1,.24-.42l2.88-3.1-1.71-3a.88.88,0,0,1-.12-.56.76.76,0,0,1,.36-.52l6-4.24a1,1,0,0,1,.69-.2,1.38,1.38,0,0,1,.41.19l.61.42a.66.66,0,0,1,.35.65.73.73,0,0,1-.35.47l-5.25,3.72.7,1.21,2.05-2.19a.8.8,0,0,1,1.1-.17l.92.47c.34.18.49.41.44.68a.83.83,0,0,1-.24.42l-5.21,5.6,2.64.25-.14-1.75a.9.9,0,0,1,0-.27.61.61,0,0,1,.74-.53l1.41.06a.8.8,0,0,1,.81.8l.07,1L276,123a.76.76,0,0,1,1-.44l1.31.44q.6.18.51.72a.78.78,0,0,0,0,.14.48.48,0,0,1-.08.16l-4,7.9,5.63,1-.71-8.79a.85.85,0,0,1,0-.26c.06-.38.31-.56.75-.53l1.4.06a.79.79,0,0,1,.81.8l.85,10.41a1.42,1.42,0,0,1,0,.27c-.07.38-.31.55-.75.53l-1.4-.07h-.07l-1.7,7.62a.69.69,0,0,1-1,.57l-2.56-.7c-.53-.14-.71-.44-.53-.92s.47-.65.78-.55l.46.15,1.65-7.46-.52-.09a1,1,0,0,1-.07.24l-3.46,8a.79.79,0,0,1-1,.49l-1.34-.4a.65.65,0,0,1-.56-.78,1,1,0,0,1,.07-.23l3.38-7.8-.73-.12-.07,0-.11.21a.75.75,0,0,1-1,.43l-1.2-.4.08,1a1.16,1.16,0,0,1,0,.27c-.06.38-.32.55-.77.53l-1.4-.07a.79.79,0,0,1-.81-.8l-.05-.56-.12,0a.7.7,0,0,1,0,.29Zm4-1c-.05.55-.33.79-.86.74l-1.47-.18a.72.72,0,0,1-.71-.88l.19-3a.7.7,0,0,1,.86-.73l1.48.18a.71.71,0,0,1,.7.87Z" class="cls-2"/><path data-cppathid="10012" d="M286.43,144.75a1,1,0,0,1-.39,0,.85.85,0,0,1-.63-.47l-.06-.11a.82.82,0,0,1-.12-.53c0-.24.23-.4.56-.49a14.66,14.66,0,0,0,4.32-1.76,11.41,11.41,0,0,0,3.22-3.1l-6.69-1.13c-.52-.09-.75-.37-.67-.84s.39-.67.91-.58l7.28,1.23a23.43,23.43,0,0,0,2.19-5.59l-4.57-.77-2.06,3.83a.75.75,0,0,1-1,.41l-1.29-.43a.65.65,0,0,1-.51-.75,1,1,0,0,1,0-.14.91.91,0,0,0,.06-.16l4.44-8.28a.77.77,0,0,1,1.05-.4l1.28.43q.6.23.51.75s0,.09,0,.14a.34.34,0,0,1-.08.16l-1.66,3.1,4.21.71c.23-1,.45-2.05.66-3.2a.71.71,0,0,1,.92-.67l1.46.25c.52.08.73.47.61,1.17-.2,1-.4,2-.62,3l6.46,1.09q.78.14.66.84c-.08.47-.38.67-.9.58l-6.58-1.11a31.27,31.27,0,0,1-1,3,22.41,22.41,0,0,1-1.17,2.55l8.45,1.42c.52.09.74.37.66.85s-.38.66-.9.57l-6.18-1,5.77,7.33a.79.79,0,0,1,.19.59c0,.22-.21.38-.51.47l-.65.21a1.18,1.18,0,0,1-.47,0,1,1,0,0,1-.59-.39l-6.49-8.25a1.14,1.14,0,0,1-.18-.37,12.64,12.64,0,0,1-4.06,3.69A20.39,20.39,0,0,1,286.43,144.75Z" class="cls-2"/><path data-cppathid="10013" d="M322.41,142.38a.74.74,0,0,1,.94-.64l1.47.25a.68.68,0,0,1,.62.93,10.29,10.29,0,0,1-1.9,4.17,7,7,0,0,1-3.27,2.33,8.69,8.69,0,0,1-4.35.27,7.34,7.34,0,0,1-4.85-2.63,6.45,6.45,0,0,1-1-5.18q.12-.65.33-1.65c.15-.68.31-1.41.5-2.22s.38-1.62.58-2.46.41-1.62.61-2.38.38-1.4.54-2a.71.71,0,0,1,1-.54l1.4.33a.68.68,0,0,1,.57.95c-.15.54-.33,1.18-.52,1.92s-.38,1.52-.59,2.33-.39,1.62-.57,2.41-.34,1.52-.48,2.17-.24,1.2-.31,1.61a6.42,6.42,0,0,0,.37,4.05,3.56,3.56,0,0,0,2.73,1.83,4.34,4.34,0,0,0,3.9-1.2A9,9,0,0,0,322.41,142.38Z" class="cls-2"/><path data-cppathid="10014" d="M332.1,150.86a.71.71,0,0,1-1,.59l-1.45-.32a.69.69,0,0,1-.57-1l3.24-11.38-2.21-.37q-.78-.14-.66-.84c.08-.47.38-.67.9-.58l2.37.4.74-2.63a.71.71,0,0,1,.95-.59l1.45.32a.69.69,0,0,1,.57,1l-.7,2.44,9.72,1.64q.78.14.66.84c-.08.48-.38.67-.9.58l-9.87-1.67Zm12.78,1.28c.53.09.75.37.67.84s-.38.67-.91.58l-4.18-.71a16.92,16.92,0,0,1-3.07-.78,6.05,6.05,0,0,1-2-1.12,1.44,1.44,0,0,1-.58-1.29,2.3,2.3,0,0,1,1-1.37,7.64,7.64,0,0,1,2-1.07,1.06,1.06,0,0,1,.47-.06,1,1,0,0,1,.59.39l.2.25a.73.73,0,0,1,.18.54.9.9,0,0,1-.43.54,3.36,3.36,0,0,0-.65.6,1.46,1.46,0,0,0-.35.69.59.59,0,0,0,.13.51,1.79,1.79,0,0,0,.83.37c.43.11,1.06.24,1.9.38Zm-1.83-5.69a1,1,0,0,1-.66.16,1,1,0,0,1-.45-.23l-.52-.4a.64.64,0,0,1-.31-.61.74.74,0,0,1,.4-.49l1.27-.76-5.56-.94q-.78-.13-.66-.84c.08-.48.38-.67.9-.58l9,1.51c.44.08.64.26.59.54a.76.76,0,0,1-.4.49Z" class="cls-2"/><path data-cppathid="10015" d="M353.59,154.49a.71.71,0,0,1-.95.59l-1.46-.32a.69.69,0,0,1-.56-1l3.23-11.38-2.2-.37q-.78-.14-.66-.84c.08-.48.38-.67.9-.58l2.37.4.73-2.63a.72.72,0,0,1,1-.59l1.45.32a.69.69,0,0,1,.57,1l-.71,2.44,9.73,1.64q.78.12.66.84c-.08.47-.38.66-.9.58l-9.87-1.67Zm12.78,1.28q.78.14.66.84c-.08.47-.38.67-.9.58l-4.19-.71a17.66,17.66,0,0,1-3.06-.78,6.41,6.41,0,0,1-2-1.12,1.45,1.45,0,0,1-.57-1.29,2.3,2.3,0,0,1,1-1.37,7.37,7.37,0,0,1,2-1.07.92.92,0,0,1,.47-.06.89.89,0,0,1,.59.39l.2.25a.74.74,0,0,1,.18.54,1,1,0,0,1-.43.54,3.65,3.65,0,0,0-.65.59,1.49,1.49,0,0,0-.35.7.58.58,0,0,0,.13.51,1.89,1.89,0,0,0,.83.37c.43.11,1.06.24,1.89.38Zm-1.84-5.69a1.1,1.1,0,0,1-.66.16,1,1,0,0,1-.44-.23l-.52-.4a.62.62,0,0,1-.31-.61.73.73,0,0,1,.4-.5l1.27-.75-5.56-.94c-.52-.09-.74-.37-.66-.85s.38-.66.9-.57l9,1.51c.44.08.64.25.59.54a.78.78,0,0,1-.4.49Z" class="cls-2"/><path data-cppathid="10016" d="M382.77,161.31h-.15l-.12,0a.74.74,0,0,1-.64-.65.69.69,0,0,1,0-.31c.05-.29.28-.46.69-.52a5.4,5.4,0,0,0,3.06-1.66,6.38,6.38,0,0,0,1.62-3.39,8.51,8.51,0,0,0,0-3.31,4.19,4.19,0,0,0-1.4-2.28c-1,3.68-2.4,6.4-4.07,8.13a6.32,6.32,0,0,1-5.89,2,5.56,5.56,0,0,1-3.85-2.18,6,6,0,0,1-.71-4.55q.88-5.31,5.39-6.44l.2-3.21c.05-.54.33-.79.86-.73l1.47.18a.71.71,0,0,1,.71.87l-.17,2.6a17.71,17.71,0,0,1,2.1.23c.52.09,1,.19,1.48.3.18-.75.34-1.52.49-2.33a.72.72,0,0,1,.92-.67l1.47.25a.71.71,0,0,1,.64.94c-.18,1-.38,2-.6,2.84a6.79,6.79,0,0,1,4,7.83,6.72,6.72,0,0,1-1.3,3,7.41,7.41,0,0,1-2.59,2.09A10.11,10.11,0,0,1,382.77,161.31Zm-3.56-6.61a.69.69,0,0,1-.85.73l-1.48-.18a.71.71,0,0,1-.71-.87l.37-5.95a7.48,7.48,0,0,0-2.22,4.69,6.55,6.55,0,0,0,.1,3.37,2.06,2.06,0,0,0,1.67,1.43,3,3,0,0,0,2.46-1,12,12,0,0,0,2.4-3.5,30.13,30.13,0,0,0,2-5.63c-.42-.11-.87-.21-1.36-.3a9.74,9.74,0,0,0-1.94-.15Z" class="cls-2"/><path data-cppathid="10017" d="M398.86,163.61a.77.77,0,0,1,.17.57c0,.22-.22.37-.54.46l-.49.14a1.07,1.07,0,0,1-.44,0,.91.91,0,0,1-.61-.43l-3.62-5.11a.76.76,0,0,1-.17-.56c0-.22.22-.38.54-.47l.49-.14a.92.92,0,0,1,.44,0,.87.87,0,0,1,.61.42Z" class="cls-2"/><path data-cppathid="10018" d="M38.81,130.43a.91.91,0,0,1-1.1,0L37.1,130a.64.64,0,0,1-.36-.64.78.78,0,0,1,.35-.48l12.62-9L38.24,118c-.53-.09-.75-.37-.67-.84s.38-.67.91-.58l12.16,2,.28-1.66a.69.69,0,0,1,.91-.64l1.47.24a.71.71,0,0,1,.65.92l-.28,1.65,3.17.54q.78.14.66.84c-.08.47-.38.66-.9.58l-3.17-.54L51.32,133a.66.66,0,0,1-.93.6l-3.86-1c-.46-.13-.66-.37-.6-.73a.78.78,0,0,1,.37-.6.83.83,0,0,1,.66-.06l1.47.37,1.56-9.2Z" class="cls-2"/><path data-cppathid="10019" d="M75.66,126.92a1.08,1.08,0,0,1,.58-.08,1,1,0,0,1,.51.29l.27.28a.77.77,0,0,1,.24.61.68.68,0,0,1-.48.47L61.39,134.9a1,1,0,0,1-.57.08,1,1,0,0,1-.51-.28l-.27-.29a.74.74,0,0,1-.24-.6c0-.21.19-.37.47-.48Zm-7.21-3.85a.71.71,0,0,1,.31.61.7.7,0,0,1-.42.49l-.33.19a.88.88,0,0,1-1.09-.13l-5.63-4.87a.73.73,0,0,1-.31-.62.71.71,0,0,1,.42-.48l.33-.19a1,1,0,0,1,.6-.12,1,1,0,0,1,.49.25Z" class="cls-2"/><path data-cppathid="10020" d="M89.76,140.45a.8.8,0,0,1-.73.26,1,1,0,0,1-.36-.13l-.85-.46c-.33-.19-.47-.4-.42-.66a.83.83,0,0,1,.26-.44l8.15-7.85-14.44-2.44q-.78-.12-.66-.84c.08-.47.38-.66.9-.58L99,130.25c.44.07.64.27.58.58a.79.79,0,0,1-.27.44Zm7.89-16.32q.78.14.66.84c-.08.48-.38.67-.9.58L84.3,123.34q-.78-.14-.66-.84c.08-.48.38-.67.9-.58Z" class="cls-2"/><path data-cppathid="10021" d="M102.74,136.21a.94.94,0,0,1-.52.06.88.88,0,0,1-.55-.34l-.21-.23a.77.77,0,0,1-.23-.59c0-.2.19-.35.49-.48L120,127.82a1.1,1.1,0,0,1,.53,0,.86.86,0,0,1,.55.33l.2.23a.78.78,0,0,1,.24.6c0,.19-.2.35-.49.48l-7.23,2.7a.72.72,0,0,1,.1.57l-1.8,10.65a.7.7,0,0,1-.91.65l-1.47-.25a.69.69,0,0,1-.64-.91l1.61-9.56Z" class="cls-2"/><path data-cppathid="10022" d="M138.8,137.58a1,1,0,0,1,.57-.08,1,1,0,0,1,.52.28l.26.29a.68.68,0,0,1,.24.6c0,.21-.19.37-.47.48l-15.39,6.41a1,1,0,0,1-.57.07.87.87,0,0,1-.51-.28l-.27-.28a.77.77,0,0,1-.24-.61c0-.2.19-.36.47-.48Zm-7.21-3.85a.71.71,0,0,1,.31.61.7.7,0,0,1-.42.49l-.33.19a1,1,0,0,1-.6.12,1,1,0,0,1-.49-.26L124.43,130a.7.7,0,0,1-.31-.61.72.72,0,0,1,.42-.49l.33-.18a.88.88,0,0,1,1.09.13Z" class="cls-2"/><path data-cppathid="10023" d="M155.75,150q.75.18.63.87c-.08.48-.39.67-.92.55a16.64,16.64,0,0,1-3.63-1.22,10.93,10.93,0,0,1-2.76-1.86A6.79,6.79,0,0,1,147.4,146a4.4,4.4,0,0,1-.31-2.55,7.66,7.66,0,0,1,2.36-4.38,12.5,12.5,0,0,1,5-2.83l-10.06-1a.71.71,0,0,1-.71-.95c.06-.36.33-.52.81-.49l15.07,1.45a.83.83,0,0,1,.82.77,1.16,1.16,0,0,1,0,.27c-.05.31-.3.5-.75.55A13.4,13.4,0,0,0,155,138a9.07,9.07,0,0,0-3.26,2.45,7.24,7.24,0,0,0-1.59,3.5,4.07,4.07,0,0,0,.2,2.36A4.63,4.63,0,0,0,151.6,148a7.61,7.61,0,0,0,2,1.19A12.75,12.75,0,0,0,155.75,150Zm1.78-4.49a1.33,1.33,0,0,1,0,.26.63.63,0,0,1-.75.56l-.71,0a.72.72,0,0,1-.79-.77l-.39-5.18a.85.85,0,0,1,0-.26.63.63,0,0,1,.75-.56l.7,0a.73.73,0,0,1,.82.77Zm2.84-1a.85.85,0,0,1,0,.26.65.65,0,0,1-.72.56h-.71a.73.73,0,0,1-.82-.77l-.42-4.84a.76.76,0,0,1,0-.15.61.61,0,0,1,0-.14c.06-.35.31-.53.74-.53h.71a.74.74,0,0,1,.82.77Z" class="cls-2"/><path data-cppathid="10024" d="M181.72,154a.74.74,0,0,1,.81.77.57.57,0,0,1,0,.22c-.06.34-.31.5-.76.48l-6.53-.28h-.3l-.27,0-.18,0-.2-.05L162.93,152c-.42-.12-.6-.33-.55-.61a.67.67,0,0,1,.32-.46l2.45-2-1.08-2.52a1.13,1.13,0,0,1-.12-.63,1.52,1.52,0,0,1,.2-.45l2.57-4-2.06-.35q-.78-.14-.66-.84c.08-.48.38-.67.9-.58l4.71.79q.69.12.6.66a1.1,1.1,0,0,1-.16.37l-3.2,5,1.09,2.49a1.14,1.14,0,0,1,.1.56,1,1,0,0,1-.36.52L166,151.27l9,2.44Zm-11.56-16a1.42,1.42,0,0,1,0,.2,1.21,1.21,0,0,1,0,.19c-.06.32-.29.49-.7.52l-1.24,0a.28.28,0,0,1-.13,0H168a.8.8,0,0,1-.64-.65l-1.2-4.46a1.17,1.17,0,0,1,0-.37c.06-.33.29-.51.7-.54l1.23,0a.23.23,0,0,1,.12,0l.12,0a.79.79,0,0,1,.64.65Zm1.46,12.68a.7.7,0,0,1-.92.65l-1.46-.25a.7.7,0,0,1-.65-.91l1.3-7.69a.7.7,0,0,1,.91-.65l1.06.18,0-.09,1.19-7.06a.7.7,0,0,1,.91-.65l1.47.25a.87.87,0,0,1,.37.14l6.74,1.13a.71.71,0,0,1,.65.92l-1.17,7,0,.08,1.07.18a.7.7,0,0,1,.65.91l-1.4,8.31c-.09.53-.41.73-1,.59l-2.3-.63c-.54-.14-.73-.44-.55-.9s.38-.67.61-.6l.32.1,1.14-6.74-7.78-1.32Zm1.41-5.6a.7.7,0,0,1,.91-.65l1.47.25a.78.78,0,0,1,.55.31l3.24.55a.7.7,0,0,1,.65.91l-.68,4a.7.7,0,0,1-.91.65l-1.47-.25a.73.73,0,0,1-.49-.26L175,150.4a.76.76,0,0,1-.55.08l-1.46-.25a.7.7,0,0,1-.65-.91Zm1.88-2.65v0l.59.1,0-.07.72-4.3a.7.7,0,0,1,.92-.65l1.46.25a.8.8,0,0,1,.48.22l.75.13.23-1.37-4.09-.69Zm1.81,4.15-.81-.14-.44,2.6.81.14Zm1.81-3.57v.08l.48.08v-.08l.59-3.52-.47-.08Z" class="cls-2"/><path data-cppathid="10025" d="M199.25,148.44v.07l7.65,1.29q.78.13.66.84c-.08.48-.38.67-.9.58l-9.14-1.54a1,1,0,0,1-.21.4l-5.15,5.83,9.59,1.17-2-4.08a.83.83,0,0,1-.11-.5c0-.27.25-.44.62-.51l1-.17a.93.93,0,0,1,.37,0,.86.86,0,0,1,.62.52l3.2,6.55a.86.86,0,0,1,.11.51c-.05.26-.25.43-.62.5l-1,.17a.92.92,0,0,1-.37,0,.82.82,0,0,1-.62-.52l-.47-1a1.16,1.16,0,0,1-.32,0L189,157c-.46,0-.67-.23-.61-.57a1,1,0,0,1,.25-.44l6-6.78-6.76-1.14c-.53-.09-.75-.37-.67-.84s.38-.67.9-.58l8.12,1.37v-.07l.89-5.26-6.7-1.13c-.52-.08-.74-.37-.66-.84s.38-.67.9-.58l6.7,1.13.44-2.62a.71.71,0,0,1,.92-.65l1.46.25a.7.7,0,0,1,.65.91l-.44,2.63,6.25,1q.78.13.66.84c-.08.48-.38.67-.9.58l-6.25-1.05Z" class="cls-2"/><path data-cppathid="10026" d="M223.45,162.53a.77.77,0,0,1-.67.22,1,1,0,0,1-.43-.19l-.65-.45a.65.65,0,0,1-.36-.64,1.22,1.22,0,0,1,.28-.47,8.62,8.62,0,0,0,1.17-1.59,13.13,13.13,0,0,0,1-2.07,12.2,12.2,0,0,0,.61-2.26,9.56,9.56,0,0,0-.27-4.91,4.74,4.74,0,0,0-2.62-2.8,32,32,0,0,1-.38,5.73,12.46,12.46,0,0,1-2.42,6,4.45,4.45,0,0,1-4.4,1.61,5.18,5.18,0,0,1-2.68-1.25,5.3,5.3,0,0,1-1.51-2.46,7.16,7.16,0,0,1-.13-3.25,10.28,10.28,0,0,1,3.74-6.39,9.35,9.35,0,0,1,3.17-1.62,8.15,8.15,0,0,1,3.55-.18,9.47,9.47,0,0,1,4.32,1.79,7.09,7.09,0,0,1,2.41,3.45,9.8,9.8,0,0,1,.24,4.78A10.84,10.84,0,0,1,223.45,162.53ZM213,154.28a7.93,7.93,0,0,0-.06,2.37,4.75,4.75,0,0,0,.58,1.83,1.48,1.48,0,0,0,1,.83c.45.08.89-.18,1.34-.78A9.72,9.72,0,0,0,217.1,156a23.07,23.07,0,0,0,.93-3.73c.14-.81.24-1.64.31-2.51a25.74,25.74,0,0,0,.1-2.66,6.28,6.28,0,0,0-2.39,1.4,9.49,9.49,0,0,0-2,2.53A10.11,10.11,0,0,0,213,154.28Z" class="cls-2"/><path data-cppathid="10027" d="M232.11,164a.7.7,0,0,1-.93.6l-1.44-.27a.68.68,0,0,1-.62-.93L232.23,149a1.05,1.05,0,0,1,.22-.45.7.7,0,0,1,0-.42c.08-.48.38-.67.91-.58l8.47,1.43-.38-2.55a1.44,1.44,0,0,1,0-.31c.06-.37.31-.54.74-.51l1.36,0h.19a.73.73,0,0,1,.64.72l.44,3.11,6.53,1.11c.53.09.75.37.67.84s-.38.66-.91.58L245,151l1,6.66,2.74-3.09a.82.82,0,0,1,.78-.33,1.3,1.3,0,0,1,.3.1l1,.48c.34.19.49.42.44.68a1.06,1.06,0,0,1-.21.41l-4.54,5.1.57,3.86,1.41-.12h.26a.81.81,0,0,1,.65.62.94.94,0,0,1,.06.4c0,.32-.28.49-.67.52l-3.63.31h-.15l-.12,0a.71.71,0,0,1-.61-.68l-.29-2-1.63,1.84a.85.85,0,0,1-.79.33l-.29-.1-1-.48c-.34-.19-.49-.42-.45-.68a1,1,0,0,1,.22-.41l3.42-3.85-1.44-10-6.75-1.14a1.27,1.27,0,0,1,0,.27l-.87,4,5.72,1a.66.66,0,0,1,.6.93l-2.3,9.16c-.12.45-.38.64-.75.57a1,1,0,0,1-.26-.09l-3.58-1.55c-.38-.16-.54-.39-.5-.67a.77.77,0,0,1,.07-.16,1,1,0,0,0,.09-.15l0-.07a.81.81,0,0,1,.82-.37.7.7,0,0,1,.14,0l.13.06,1.14.48,1.81-7.14-3.47-.59Zm18.59-15.5a.72.72,0,0,1,.3.63.75.75,0,0,1-.37.48l-.27.15a1,1,0,0,1-.66.15.9.9,0,0,1-.42-.22l-2.62-2.07a.74.74,0,0,1-.31-.64.72.72,0,0,1,.37-.47l.27-.15a.92.92,0,0,1,.66-.15.9.9,0,0,1,.43.21Z" class="cls-2"/><path data-cppathid="10028" d="M254.84,166.93a.72.72,0,0,1-1,.56l-.75-.17a.68.68,0,0,1-.57-.95l.91-3.55a.72.72,0,0,1,1-.56l.75.17a.68.68,0,0,1,.57.95Zm4,1.71a.71.71,0,0,1-.92.65l-1.46-.25a.69.69,0,0,1-.65-.91l1.13-6.75,0-.07-2.64-.23c-.48,0-.69-.23-.64-.56a.85.85,0,0,1,.25-.45l2.75-3,0-.08-1.54-3a.92.92,0,0,1-.12-.58.81.81,0,0,1,.31-.51l4.62-4.33a.84.84,0,0,1,.73-.27,1.26,1.26,0,0,1,.36.14l.85.46a.6.6,0,0,1,.4.65.79.79,0,0,1-.27.44l-4.14,3.9.63,1.2,1.07-1.18a.88.88,0,0,1,.81-.3,1.3,1.3,0,0,1,.3.1l1,.48c.34.18.49.41.44.66a.47.47,0,0,1-.08.2,1.12,1.12,0,0,1-.16.22l-4.24,4.66,2.93.25-.13-1.7a.72.72,0,0,1,0-.24.63.63,0,0,1,.75-.58l.7,0a.73.73,0,0,1,.8.77l.26,3.77a1,1,0,0,1,0,.24.64.64,0,0,1-.76.58l-.7,0a.73.73,0,0,1-.8-.77l0-.59h-.07l-.56-.05a.71.71,0,0,1,0,.29Zm3.62-1a.69.69,0,0,1-.87.71l-.77-.08a.71.71,0,0,1-.71-.85l.19-3a.86.86,0,0,1,.27-.58.76.76,0,0,1,.61-.15l.77.08a.71.71,0,0,1,.71.85Zm1.43,2.63a.93.93,0,0,1-.44,0,.86.86,0,0,1-.59-.41l-.1-.14a.73.73,0,0,1-.17-.54c0-.24.23-.4.57-.49l2.21-.58a1.07,1.07,0,0,1,.44,0,.87.87,0,0,1,.59.42l.1.14a.73.73,0,0,1,.17.54c0,.23-.23.4-.57.49Zm.32-11.12a.7.7,0,0,1,.91-.65l1.47.25a.85.85,0,0,1,.45.2l6.51,1.1a.7.7,0,0,1,.65.91l-1.24,7.34a.7.7,0,0,1-.91.65l-1.47-.25a.85.85,0,0,1-.45-.2l-4.57-.77a.87.87,0,0,1-.49,0l-1.47-.25a.7.7,0,0,1-.65-.91Zm6.8-1.77v.07l3.43.58q.78.14.66.84c-.08.47-.38.67-.9.58l-9.82-1.66c-.53-.09-.75-.37-.67-.84s.38-.67.91-.58l3.36.57v-.07l.15-.92-2.24-.38c-.52-.09-.75-.37-.67-.85s.38-.66.91-.57l2.24.38.24-1.4-2.84-.48q-.78-.14-.66-.84c.08-.48.38-.67.9-.58l2.84.48.13-.76a.7.7,0,0,1,.91-.65l1.47.25a.7.7,0,0,1,.65.91l-.13.76,2.86.48c.52.09.74.37.66.85s-.38.66-.9.57l-2.86-.48-.24,1.4,2.3.38c.52.09.74.37.66.85s-.38.66-.9.57l-2.3-.38Zm-4.9,9L270,167l.17-1-3.95-.67Zm.41-2.44,3.95.67.19-1.11-3.95-.67Zm4.54-2.83-3.95-.67-.16,1,4,.67Zm1.26,9.27c.29.19.42.41.38.64a.75.75,0,0,1-.29.44l-.2.14a1,1,0,0,1-.72.22,1,1,0,0,1-.38-.16l-2.19-1.45c-.29-.19-.42-.41-.38-.64a.72.72,0,0,1,.29-.44l.2-.14a1,1,0,0,1,.71-.22,1,1,0,0,1,.39.16Z" class="cls-2"/><path data-cppathid="10029" d="M290.74,168.78c-.05.54-.36.76-.91.67l-1.47-.25a.72.72,0,0,1-.65-.91,10,10,0,0,0,.05-1.43,21.09,21.09,0,0,0-4.22,1.34c-1,.5-1.61,1-1.7,1.56s.18.87.78,1.21a9.57,9.57,0,0,0,2.91.85,14.17,14.17,0,0,0,6.43-.28,1,1,0,0,1,.52-.06.83.83,0,0,1,.53.33l.2.23a.7.7,0,0,1,.22.6.62.62,0,0,1-.52.47,15.74,15.74,0,0,1-2.31.34,26,26,0,0,1-2.66.05,20.69,20.69,0,0,1-2.65-.26,15.52,15.52,0,0,1-3.41-1,7.65,7.65,0,0,1-2.36-1.45,1.79,1.79,0,0,1-.71-1.58,2.46,2.46,0,0,1,1.23-1.5,12.53,12.53,0,0,1,3-1.36,36.64,36.64,0,0,1,4.48-1.11,4,4,0,0,0-.83-1.67,2.27,2.27,0,0,0-1.34-.77,2.65,2.65,0,0,0-1.62.23,4.81,4.81,0,0,0-1.56,1.33,1,1,0,0,1-.6.38l0,0h-.24l-.12,0a.23.23,0,0,1-.11,0l-1.1-.45-.13-.07c-.31-.17-.45-.39-.4-.65a.9.9,0,0,1,.16-.39l3.14-4.44-3.65-.61q-.78-.14-.66-.84c.08-.48.38-.67.9-.58l4.33.73,1.16-1.66a.81.81,0,0,1,.84-.39l.12,0a.33.33,0,0,1,.12.05l1.15.48c.37.16.52.39.47.69a1,1,0,0,1-.16.39l-.67.93,7.53,1.27q.78.13.66.84c-.08.48-.38.67-.9.58l-8.19-1.38-1.47,2.09a6.85,6.85,0,0,1,1.27.09,6.53,6.53,0,0,1,2.85,1.16,5.66,5.66,0,0,1,1.76,2.25c1.27-.2,2.59-.35,4-.48h.32a.8.8,0,0,1,.63.59.9.9,0,0,1,.05.4c-.05.32-.28.49-.69.52-1.35.13-2.63.28-3.83.47A9.44,9.44,0,0,1,290.74,168.78Z" class="cls-2"/><path data-cppathid="10030" d="M300.35,176a.85.85,0,0,1-.69.2.88.88,0,0,1-.41-.16l-.68-.46a.66.66,0,0,1-.38-.65.72.72,0,0,1,.32-.45l5-3.78-.52-.09a.7.7,0,0,1-.78.3l-1.47-.24a.71.71,0,0,1-.65-.92L302.24,157a.7.7,0,0,1,.91-.65l1.47.25a.68.68,0,0,1,.64.52l12.4,2.09a.69.69,0,0,1,.65.91l-2.15,12.74a.7.7,0,0,1-.91.65l-1.47-.25a.7.7,0,0,1-.64-.92v0l-1.54-.26v.07l-.73,4.33,3.9.66.11-.61c.06-.4.36-.55.88-.46l1.46.24a.7.7,0,0,1,.65.92l-.18,1.06a.7.7,0,0,1-.91.65l-8.4-1.42a.7.7,0,0,1-.65-.91l.84-5v-.07l-2.2-.37v.05a.69.69,0,0,1-.32.45Zm2.95-6.8,10.08,1.7.44-2.6-10.08-1.7Zm.68-4,10.08,1.7.43-2.53-10.09-1.7Zm11.2-4.93-10.08-1.7-.46,2.68,10.09,1.7Z" class="cls-2"/><path data-cppathid="10031" d="M338,176.94a3.69,3.69,0,0,1-1.56,2.43,7.44,7.44,0,0,1-3.37,1.22,15.23,15.23,0,0,1-4.62-.15,16.72,16.72,0,0,1-3.37-.9,6.33,6.33,0,0,1-2.15-1.3,1.72,1.72,0,0,1-.59-1.54,2,2,0,0,1,1.07-1.38,6.16,6.16,0,0,1,2.31-.77,8.91,8.91,0,0,1,2.82,0A7.13,7.13,0,0,1,331.9,176a4.13,4.13,0,0,1,1.54,2.67,3.08,3.08,0,0,0,1.48-2.26,4.15,4.15,0,0,0-.2-2.23,4,4,0,0,0-1.29-1.7,4.77,4.77,0,0,0-2.17-.9,9.34,9.34,0,0,0-3,0,12,12,0,0,0-3.08.95l-1.71.93a1.32,1.32,0,0,1-.87.22,1,1,0,0,1-.7-.56l-.16-.22a.74.74,0,0,1-.15-.56.68.68,0,0,1,.4-.49,8.79,8.79,0,0,1,1.48-.7l10.11-5.55-8.66-1.46c-.52-.09-.74-.36-.66-.82s.37-.64.89-.55l12.17,2c.44.08.64.25.59.52a.72.72,0,0,1-.42.49l-7.72,4.19a13.81,13.81,0,0,1,1.75.18,9.65,9.65,0,0,1,2.78.9,8.34,8.34,0,0,1,2.15,1.57,5.81,5.81,0,0,1,1.31,2A4.25,4.25,0,0,1,338,176.94Zm-12.63.28a1,1,0,0,0,.16.82,2,2,0,0,0,1,.55,16.75,16.75,0,0,0,2.16.48,14.38,14.38,0,0,0,1.84.19,2.88,2.88,0,0,1,0-.32c.1-1.72-.63-2.72-2.19-3a3.64,3.64,0,0,0-2,.12A1.42,1.42,0,0,0,325.32,177.22Z" class="cls-2"/><path data-cppathid="10032" d="M44.72,159.86q.78.13.66.84c-.08.47-.38.67-.9.58l-6.84-1.16a15.57,15.57,0,0,1-5.08-1.57c-1.17-.68-1.69-1.47-1.53-2.36a3.92,3.92,0,0,1,.7-1.55A9.41,9.41,0,0,1,33.2,153a.93.93,0,0,1,.73-.24.76.76,0,0,1,.38.16l.79.5a.64.64,0,0,1,.38.65,1,1,0,0,1-.22.45,7.74,7.74,0,0,0-.78,1.15,3.58,3.58,0,0,0-.42,1.08,1.11,1.11,0,0,0,.15.88,2.19,2.19,0,0,0,1.11.58,22.68,22.68,0,0,0,2.56.54Zm-.43-11.29a.87.87,0,0,1-.72.21.83.83,0,0,1-.39-.16l-.72-.46a.63.63,0,0,1-.38-.65.86.86,0,0,1,.3-.46l1.1-.91-9.8-1.65q-.78-.13-.66-.84c.08-.48.38-.67.9-.58l12.88,2.17c.45.08.66.28.6.59a.7.7,0,0,1-.32.46Z" class="cls-2"/><path data-cppathid="10033" d="M63.91,162.68a2.26,2.26,0,0,1,.46,0,1.12,1.12,0,0,1,.31.1A.8.8,0,0,1,65,163l.16.17a.69.69,0,0,1,.26.63c0,.27-.24.4-.6.41-.59,0-1.31,0-2.17,0s-1.74-.08-2.65-.16-1.76-.19-2.55-.32a17.23,17.23,0,0,1-4.66-1.38,7.43,7.43,0,0,1-2.87-2.19,3.48,3.48,0,0,1-.68-2.75,3.81,3.81,0,0,1,1.43-2.34,11.1,11.1,0,0,1,3.75-1.78l-1.92-6.8a.85.85,0,0,1,0-.42c0-.3.27-.46.67-.49l1.25-.06a.85.85,0,0,1,.26,0,.75.75,0,0,1,.65.62l1.81,6.44c1.15-.26,2.45-.51,3.91-.75s3.1-.48,4.91-.71a.37.37,0,0,1,.18,0,1.13,1.13,0,0,1,.18,0,.77.77,0,0,1,.64.54v0a1,1,0,0,1,.07.48c0,.27-.27.43-.67.49q-4,.53-6.62,1a26.11,26.11,0,0,0-4.21,1.09,6.3,6.3,0,0,0-2.31,1.34,3.29,3.29,0,0,0-.91,1.77,2.78,2.78,0,0,0,1,2.8,9.49,9.49,0,0,0,4.44,1.59c.76.13,1.53.23,2.33.3s1.55.11,2.25.12A11.75,11.75,0,0,0,63.91,162.68Z" class="cls-2"/><path data-cppathid="10034" d="M70.93,166a.76.76,0,0,1-1,.38L68.68,166c-.38-.14-.54-.37-.49-.69a1.15,1.15,0,0,1,.14-.37l6.74-10.81-4.19-.7c-.52-.09-.74-.37-.66-.85s.38-.66.9-.57l4.75.8,1.64-2.62a.77.77,0,0,1,1-.39l1.21.45c.38.15.55.38.49.69a1,1,0,0,1-.13.37l-1.24,2h0A5.34,5.34,0,0,1,82.38,155a4.56,4.56,0,0,1,.63,3.65,16.38,16.38,0,0,1-.86,3.27,11.29,11.29,0,0,1-1.2,2.31,13.93,13.93,0,0,1-1.36,1.64c-.46.47-.92.91-1.36,1.32a.81.81,0,0,1-.73.29,1,1,0,0,1-.34-.13l-.92-.47c-.33-.16-.47-.37-.42-.66a.76.76,0,0,1,.24-.42c.46-.44.94-1,1.45-1.54A9.82,9.82,0,0,0,78.92,162,15.9,15.9,0,0,0,80,158.17a5.33,5.33,0,0,0,0-2.52,1.55,1.55,0,0,0-1.33-.94l-.61-.1Zm17.34-2.21a1.57,1.57,0,0,1,0,.31q-.09.56-.75.51l-1.38,0a.75.75,0,0,1-.82-.72L83.89,153a1.69,1.69,0,0,1,0-.32c.06-.36.31-.53.74-.51l1.39,0h.19a.71.71,0,0,1,.63.72ZM90.59,155a.67.67,0,0,1,0,.24c-.06.36-.31.53-.74.5l-.7,0a.72.72,0,0,1-.81-.71l-.47-4.73a1.15,1.15,0,0,1,0-.24c.06-.36.31-.52.74-.49l.7,0c.52,0,.79.25.83.71Zm2.83-.87a.72.72,0,0,1,0,.24c-.05.33-.29.5-.71.5H92c-.52,0-.79-.25-.83-.71l-.49-4.42a.68.68,0,0,1,0-.14s0-.09,0-.13c.06-.31.3-.47.74-.47h.71c.51,0,.79.25.82.71Z" class="cls-2"/><path data-cppathid="10035" d="M106.11,170.78c.5.12.71.41.63.86s-.39.68-.92.55a16.13,16.13,0,0,1-3.63-1.22,10.65,10.65,0,0,1-2.76-1.85,6.93,6.93,0,0,1-1.67-2.31,4.49,4.49,0,0,1-.31-2.55,7.72,7.72,0,0,1,2.36-4.39,12.61,12.61,0,0,1,5-2.82l-10-1a.72.72,0,0,1-.72-1c.06-.36.33-.53.81-.49l15.07,1.44a.84.84,0,0,1,.82.78,1.06,1.06,0,0,1,0,.26c0,.32-.3.5-.75.56a13.46,13.46,0,0,0-4.62,1.14,9.05,9.05,0,0,0-3.26,2.44,7.28,7.28,0,0,0-1.59,3.51,4.16,4.16,0,0,0,.2,2.36,4.63,4.63,0,0,0,1.28,1.74,7.89,7.89,0,0,0,2,1.19A12.75,12.75,0,0,0,106.11,170.78Zm1.78-4.49a1.38,1.38,0,0,1,0,.26.63.63,0,0,1-.75.56l-.71,0a.71.71,0,0,1-.79-.76l-.39-5.18a.85.85,0,0,1,0-.26c.06-.4.31-.58.75-.56l.7,0a.74.74,0,0,1,.82.77Zm2.84-1a.9.9,0,0,1,0,.27.65.65,0,0,1-.72.56h-.71a.73.73,0,0,1-.82-.77L108,160.5a1.13,1.13,0,0,1,0-.3c.06-.34.31-.52.75-.53h.7a.73.73,0,0,1,.82.77Z" class="cls-2"/><path data-cppathid="10036" d="M125.62,174q.78.13.66.84c-.08.48-.38.67-.9.58l-7.24-1.22a11.33,11.33,0,0,1-2.91-.87,5.31,5.31,0,0,1-1.9-1.38,2,2,0,0,1-.49-1.66,3,3,0,0,1,.64-1.39,7.3,7.3,0,0,1,1.36-1.27.84.84,0,0,1,.66-.18,1,1,0,0,1,.46.2l.62.47a.64.64,0,0,1,.34.62,1.14,1.14,0,0,1-.25.47,3.25,3.25,0,0,0-.52.77,3.12,3.12,0,0,0-.29.82,1.27,1.27,0,0,0,.38,1.28,4.92,4.92,0,0,0,2.14.7Zm.35-3.54a.68.68,0,0,1-.83.76l-1.44-.12a.73.73,0,0,1-.76-.83l0-4.77-8-1.35q-.78-.14-.66-.84c.08-.47.38-.67.9-.58l7.79,1.32,0-3.65-7.24-1.22c-.53-.09-.75-.37-.67-.84s.38-.67.91-.58l7,1.19,0-1.1a.68.68,0,0,1,.83-.76l1.44.12a.74.74,0,0,1,.76.84l0,1.41,4,.67q.78.13.66.84c-.08.47-.38.67-.9.58l-3.76-.64,0,3.65,4.24.71q.78.14.66.84c-.08.48-.38.67-.9.58l-4-.68Z" class="cls-2"/><path data-cppathid="10037" d="M150.37,173.7c.33.19.47.4.43.64a.63.63,0,0,1-.31.4l-.19.14a1,1,0,0,1-.72.2.45.45,0,0,1-.18-.07l-.2-.09a15.69,15.69,0,0,0-1.55-.81c-.58-.27-1.21-.53-1.86-.77L145.5,175a3.39,3.39,0,0,1-2,2.68A7.78,7.78,0,0,1,139,178a10.07,10.07,0,0,1-3.28-1.11,6,6,0,0,1-2.12-1.9,3.09,3.09,0,0,1-.52-2.27,2.5,2.5,0,0,1,1.17-1.74,5.91,5.91,0,0,1,2.59-.83,13.09,13.09,0,0,1,3.63.16c.41.07.83.15,1.26.25l1.32.33.38-2.27-8.28-1.4q-.78-.12-.66-.84c.08-.47.38-.66.9-.58l8.28,1.4.44-2.6-8.28-1.4q-.78-.14-.66-.84c.08-.47.38-.67.9-.58l8.28,1.4.33-1.94a.7.7,0,0,1,.91-.65l1.47.25a.7.7,0,0,1,.65.91l-.33,1.94,3.79.64q.78.14.66.84c-.08.47-.38.67-.9.58l-3.79-.64-.44,2.6,3.79.64q.78.13.66.84c-.08.48-.38.67-.9.58l-3.79-.64-.45,2.7c.85.31,1.66.62,2.42,1S149.85,173.42,150.37,173.7Zm-14.23-.45c-.31,1.83.74,2.94,3.13,3.35a3.26,3.26,0,0,0,2.26-.19,2.67,2.67,0,0,0,.94-1.9l.37-2.15a22.35,22.35,0,0,0-2.58-.61,8.23,8.23,0,0,0-2.46-.14,1.83,1.83,0,0,0-1.2.55A2.26,2.26,0,0,0,136.14,173.25Z" class="cls-2"/><path data-cppathid="10038" d="M165.92,182.27a.88.88,0,0,1-.79.33l-.14,0-.16-.06-1.06-.5c-.35-.15-.49-.38-.45-.66a.87.87,0,0,1,.17-.38,10.33,10.33,0,0,0,1.13-3,8.13,8.13,0,0,1-3.38.08A6.52,6.52,0,0,1,158.5,177a4.53,4.53,0,0,1-1.61-2,4.79,4.79,0,0,1-.25-2.65,3.51,3.51,0,0,1,1.15-2.13,5.13,5.13,0,0,1,2.35-1.14,8.3,8.3,0,0,1,3.11,0,9.34,9.34,0,0,1,1.56.39A7.11,7.11,0,0,1,166,170l.44-2.63-10.27-1.73q-.78-.13-.66-.84c.08-.47.38-.67.9-.58L166.7,166l.34-2a.7.7,0,0,1,.91-.65l1.47.25a.7.7,0,0,1,.65.92l-.34,2L173,167q.78.13.66.84c-.08.48-.38.67-.9.58l-3.24-.54-1.07,6.36a5.49,5.49,0,0,1-.17.7c0,.26-.06.5-.09.74s-.07.47-.1.69l-.14.78a17.76,17.76,0,0,1-.45,2.09,8.22,8.22,0,0,1-.6,1.59A9.38,9.38,0,0,1,165.92,182.27Zm-6.25-9.41a4.3,4.3,0,0,0,.22,2.61,2,2,0,0,0,1.59,1.2,3.27,3.27,0,0,0,2.31-.33,3.2,3.2,0,0,0,1.39-1.79,5.39,5.39,0,0,0-.29-3,2.43,2.43,0,0,0-1.88-1.12A2.56,2.56,0,0,0,159.67,172.86Z" class="cls-2"/><path data-cppathid="10039" d="M177.89,184.46a5.25,5.25,0,0,1-2.11-.85,4.09,4.09,0,0,1-1.39-1.57,3.16,3.16,0,0,1,.62-3.68,4.21,4.21,0,0,1,1.83-1,5.23,5.23,0,0,1,2.27-.1,5,5,0,0,1,2.09.84,4.27,4.27,0,0,1,1.38,1.56,3.11,3.11,0,0,1-.62,3.67,4.38,4.38,0,0,1-1.81,1A5,5,0,0,1,177.89,184.46Zm.2-1.19a1.91,1.91,0,0,0,1.6-.46,2.6,2.6,0,0,0,.92-1.62,2.53,2.53,0,0,0-.34-1.82,2,2,0,0,0-3-.51,2.46,2.46,0,0,0-.92,1.62,2.55,2.55,0,0,0,.33,1.83A2,2,0,0,0,178.09,183.27Z" class="cls-2"/><path data-cppathid="10040" d="M108.29,62.34a1,1,0,0,1-.45.7,1,1,0,0,1-.81.19l-1.89-.32a1.07,1.07,0,0,1-.89-1.25L107,45.19a1,1,0,0,1,.44-.71,1.07,1.07,0,0,1,.81-.19l1.89.32a1,1,0,0,1,.88.8l7.88,1.33a1.09,1.09,0,0,1,.9,1.25l-2.68,15.88a1.1,1.1,0,0,1-.5.76,1.19,1.19,0,0,1-1,.1l-4.56-1.42a1.33,1.33,0,0,1-.75-.55.71.71,0,0,1-.07-.76l.05-.09a1,1,0,0,1,1.23-.54l1.72.55.75-4.45-4.83-.81Zm8.62-19.77a1.36,1.36,0,0,1,0,.2,1.23,1.23,0,0,1,0,.19.71.71,0,0,1-.07.22l7.86,1.32a.92.92,0,0,1,0-.49,1.06,1.06,0,0,1,.09-.25,1.08,1.08,0,0,0,.12-.24L128,38.88a.92.92,0,0,1,1.2-.38l1.43.57a1.06,1.06,0,0,1,.77,1.23,1.25,1.25,0,0,1-.07.23c0,.07-.08.16-.14.25l-2.88,4.32,4.55.77a1.13,1.13,0,0,1,.71.4.89.89,0,0,1-.23,1.35,1.11,1.11,0,0,1-.8.14l-25.15-4.24a1.13,1.13,0,0,1-.71-.4.89.89,0,0,1,.23-1.35,1.11,1.11,0,0,1,.8-.14l5.3.89-.74-4.86a1.81,1.81,0,0,1,0-.42,1,1,0,0,1,.37-.64,1.06,1.06,0,0,1,.75-.24l1.72,0a1.11,1.11,0,0,1,.67.23,1,1,0,0,1,.35.63Zm-7.35,12.2,4.83.81.52-3.06-4.83-.81Zm6.09-6.64-4.83-.81-.42,2.49,4.83.82Zm8.48,12a1.06,1.06,0,0,1-.44.7,1,1,0,0,1-.81.19l-1.9-.32a1.06,1.06,0,0,1-.7-.44,1,1,0,0,1-.19-.81L121.86,49a1.06,1.06,0,0,1,.44-.7,1,1,0,0,1,.81-.19l1.9.32a1,1,0,0,1,.7.44,1,1,0,0,1,.19.81Zm-1.2,5.18a1.31,1.31,0,0,1-.74-.51.72.72,0,0,1-.09-.73l0-.06a1.19,1.19,0,0,1,.49-.55.85.85,0,0,1,.72-.06l2.08.58,2.49-14.77a1.08,1.08,0,0,1,.44-.7,1,1,0,0,1,.81-.19l1.9.32a1.06,1.06,0,0,1,.7.44A1.09,1.09,0,0,1,132,50l-2.69,15.93a1.08,1.08,0,0,1-.5.76,1.23,1.23,0,0,1-.92.14Z" class="cls-2"/><path data-cppathid="10041" d="M142.7,69q-.8-.33-.69-.93a1,1,0,0,1,.16-.36l0-.06a1,1,0,0,1,1.07-.53,1.18,1.18,0,0,1,.34.09l2.49,1,.9-5.33-9.94-1.68c-.69-.12-1-.49-.88-1.12s.51-.89,1.2-.77L147.33,61l0-.13a1.75,1.75,0,0,1,.75-1.2l4.9-3.26-9.31-1.58c-.69-.11-1-.49-.88-1.12s.51-.89,1.2-.77l13.69,2.31c.59.1.85.35.79.75a1.07,1.07,0,0,1-.5.63l-6.51,4.35-.12.7,10.51,1.77c.69.12,1,.49.88,1.13s-.51.88-1.2.77l-10.51-1.78-1.18,7c-.11.65-.45.93-1,.83a1.07,1.07,0,0,1-.28-.08Zm-4-21a.93.93,0,0,1,1.22-.86l1.35.23-.55-4.25a1.34,1.34,0,0,1,0-.2,1.21,1.21,0,0,1,0-.19c.09-.51.42-.74,1-.71l1.84.05a1,1,0,0,1,1.1,1l.59,4.61a1.91,1.91,0,0,1,0,.39.67.67,0,0,1-.08.24l4.86.82-.46-4.58a1.41,1.41,0,0,1,0-.2.58.58,0,0,1,0-.19c.08-.51.41-.74,1-.71l1.87.09a1,1,0,0,1,1.09,1l.48,4.66a1.36,1.36,0,0,1,0,.2,1.23,1.23,0,0,1,0,.19.55.55,0,0,1-.06.18l3.72.63,0-.15a1.41,1.41,0,0,1,.18-.49l2.58-4.17a1,1,0,0,1,1.39-.52l1.62.6c.5.19.72.5.65.92a1.41,1.41,0,0,1-.18.49l-2.45,4,3.44.58c.65.11.93.44.84,1a1,1,0,0,1-.05.18.79.79,0,0,1-.08.16L164,56.56a1,1,0,0,1-1.34.65l-1.8-.53c-.58-.17-.82-.51-.73-1a1.73,1.73,0,0,1,.08-.31L161.28,53,142.5,49.78,142,52.52a.94.94,0,0,1-1.22.87l-2-.33a.93.93,0,0,1-.86-1.22Z" class="cls-2"/><path data-cppathid="10042" d="M170,73.37a1,1,0,0,1-1.1.56l-.16,0a.52.52,0,0,1-.15-.06L167,73.22c-.51-.2-.72-.5-.65-.92a1.41,1.41,0,0,1,.18-.49l2.16-3.37a1,1,0,0,1,1.06-.53,1.09,1.09,0,0,1,.34.09l1.62.63c.5.19.72.5.65.92a1.48,1.48,0,0,1-.18.49Zm9.41-6.75v.1l.53.09c.7.11,1,.49.88,1.12s-.5.89-1.2.77L168.1,66.76c-.7-.12-1-.5-.89-1.13s.51-.88,1.21-.77l.5.09,0-.1,2-12.08-.32-.06c-.69-.11-1-.49-.88-1.12s.51-.89,1.2-.77l.32,0,.57-3.4a.93.93,0,0,1,1.22-.87l2,.33a.93.93,0,0,1,.86,1.22l-.57,3.41,2.39.4.58-3.41a.93.93,0,0,1,1.22-.86l1.95.33a.94.94,0,0,1,.87,1.22l-.58,3.4.32.06c.69.11,1,.49.88,1.12s-.51.89-1.2.77l-.32-.05ZM173,65.53l0,.1,2.4.4v-.09l.53-3.09-2.4-.41Zm.84-5,2.4.4.45-2.68-2.4-.4Zm.77-4.58,2.4.41.42-2.52L175,53.45Zm4.66,16.24a1.18,1.18,0,0,1,0,.56c-.06.4-.36.62-.89.66l-1.66.07a1.61,1.61,0,0,1-.36,0,1,1,0,0,1-.86-.83l-.62-2.12a1.06,1.06,0,0,1,0-.56c.06-.4.36-.62.89-.66l1.67-.1a.28.28,0,0,1,.16,0l.16,0a1.06,1.06,0,0,1,.89.86Zm4.3,3.71a.94.94,0,0,1-1.23.8l-1.95-.36a.91.91,0,0,1-.83-1.25l5.53-25.45a.93.93,0,0,1,1.23-.79l2,.36a.92.92,0,0,1,.85.72L196,51.12a.93.93,0,0,1,.86,1.22l-4.19,24.83a.89.89,0,0,1-1.24.83l-5-1.23c-.62-.17-.88-.5-.8-1a1.09,1.09,0,0,1,.47-.78,1,1,0,0,1,.88-.09l1.8.46,1-6-4.7-.79Zm2-9.2,4.61.78,1-6.19-4.32-.73Zm7.14-14.21-3.91-.66L187.3,58.7l4.23.72Z" class="cls-2"/><path data-cppathid="10043" d="M216.65,80.79a1.05,1.05,0,0,1-.9.31,1.45,1.45,0,0,1-.57-.26l-.87-.61a.87.87,0,0,1-.48-.85,1.35,1.35,0,0,1,.37-.62,11.51,11.51,0,0,0,1.56-2.13A17,17,0,0,0,217,73.88a16.54,16.54,0,0,0,.8-3,12.58,12.58,0,0,0-.35-6.55A6.3,6.3,0,0,0,214,60.58a44,44,0,0,1-.51,7.64,16.62,16.62,0,0,1-3.22,8,5.93,5.93,0,0,1-5.87,2.16,6.83,6.83,0,0,1-3.58-1.68,7.07,7.07,0,0,1-2-3.27,9.59,9.59,0,0,1-.17-4.33,13.56,13.56,0,0,1,1.75-4.83,13.1,13.1,0,0,1,3.24-3.69,12,12,0,0,1,4.22-2.16,10.76,10.76,0,0,1,4.73-.24,12.53,12.53,0,0,1,5.77,2.38,9.54,9.54,0,0,1,3.21,4.6,13.14,13.14,0,0,1,.32,6.37A14.47,14.47,0,0,1,216.65,80.79Zm-14-11a10.49,10.49,0,0,0-.07,3.15,6.49,6.49,0,0,0,.77,2.45,2,2,0,0,0,1.35,1.11c.59.1,1.19-.25,1.78-1.05a13,13,0,0,0,1.68-3.37,29.68,29.68,0,0,0,1.24-5c.18-1.07.32-2.19.42-3.34s.14-2.33.13-3.55a8.42,8.42,0,0,0-3.19,1.87,12.58,12.58,0,0,0-2.61,3.37A13.71,13.71,0,0,0,202.66,69.8Z" class="cls-2"/><path data-cppathid="10044" d="M228.19,82.77a.94.94,0,0,1-1.24.8L225,83.21A.9.9,0,0,1,224.2,82l4.15-19.19a1.31,1.31,0,0,1,.3-.6.79.79,0,0,1-.07-.56c.11-.64.51-.89,1.2-.78l11.3,1.91-.5-3.39a1.38,1.38,0,0,1,0-.42c.08-.49.41-.71,1-.68l1.81.05h.25a1,1,0,0,1,.85,1l.59,4.16,8.71,1.47c.7.12,1,.49.88,1.12s-.5.89-1.2.77l-8.11-1.37,1.3,8.89,3.64-4.13a1.15,1.15,0,0,1,1-.44,1.93,1.93,0,0,1,.4.14l1.29.64c.45.25.65.55.59.91a1.3,1.3,0,0,1-.28.53l-6,6.8.75,5.16,1.88-.17a2.07,2.07,0,0,1,.36,0,1.06,1.06,0,0,1,.86.82,1.32,1.32,0,0,1,.08.54c-.08.42-.37.65-.9.69l-4.84.41a.67.67,0,0,1-.2,0l-.15,0a1,1,0,0,1-.82-.92l-.39-2.69L241.76,85a1.1,1.1,0,0,1-1,.44,2.23,2.23,0,0,1-.4-.13L239,84.7c-.46-.25-.66-.55-.6-.91a1.2,1.2,0,0,1,.29-.54l4.57-5.13-1.93-13.37-9-1.52a1.42,1.42,0,0,1,0,.35L231.17,69l7.63,1.29a.87.87,0,0,1,.8,1.24L236.53,83.7c-.16.6-.5.85-1,.77a1.76,1.76,0,0,1-.34-.12l-4.78-2.08c-.5-.21-.72-.51-.66-.89a.67.67,0,0,1,.09-.21A1,1,0,0,0,230,81l.05-.09a1.07,1.07,0,0,1,1.09-.49l.19,0,.18.08,1.51.65,2.42-9.53-4.64-.78ZM253,62.1a1,1,0,0,1,.41.85,1,1,0,0,1-.5.63l-.36.2a1.28,1.28,0,0,1-.88.2,1.16,1.16,0,0,1-.56-.29l-3.5-2.76a1,1,0,0,1-.41-.85,1,1,0,0,1,.5-.63l.36-.2a1.35,1.35,0,0,1,.88-.21,1.21,1.21,0,0,1,.56.29Z" class="cls-2"/><path data-cppathid="10045" d="M258.49,86.66a1,1,0,0,1-1.29.75l-1-.23a.91.91,0,0,1-.76-1.27l1.22-4.72a1,1,0,0,1,1.29-.76l1,.24a.9.9,0,0,1,.76,1.26Zm5.26,2.28a.92.92,0,0,1-1.21.86l-2-.33a.92.92,0,0,1-.86-1.21l1.51-9,0-.1-3.52-.3c-.64-.07-.92-.32-.84-.76a1.05,1.05,0,0,1,.32-.59l3.67-4-.05-.1-2.05-4a1.31,1.31,0,0,1-.17-.78A1.13,1.13,0,0,1,259,68l6.17-5.77a1.1,1.1,0,0,1,1-.35,1.48,1.48,0,0,1,.49.18l1.13.61a.81.81,0,0,1,.53.87,1.12,1.12,0,0,1-.36.59l-5.52,5.2.84,1.6,1.43-1.58a1.15,1.15,0,0,1,1.07-.4,1.82,1.82,0,0,1,.4.13l1.29.64c.46.25.66.55.6.88a.9.9,0,0,1-.11.28,2.55,2.55,0,0,1-.21.28l-5.66,6.22,3.9.34-.17-2.27a1.89,1.89,0,0,1,0-.32.85.85,0,0,1,1-.77l.94,0a1,1,0,0,1,1.06,1l.35,5a1.22,1.22,0,0,1,0,.32.85.85,0,0,1-1,.77l-.93,0a1,1,0,0,1-1.06-1l-.07-.79H266l-.74-.06a.85.85,0,0,1,0,.39Zm4.84-1.33a.92.92,0,0,1-1.17.94l-1-.1a.94.94,0,0,1-.94-1.14l.25-4a1.14,1.14,0,0,1,.36-.77,1,1,0,0,1,.81-.2l1,.11a.94.94,0,0,1,1,1.13Zm1.9,3.51a1.44,1.44,0,0,1-.59,0,1.19,1.19,0,0,1-.78-.56l-.13-.18a1,1,0,0,1-.23-.72c.05-.32.3-.54.75-.65l3-.77a1.19,1.19,0,0,1,1.37.52L274,89a1,1,0,0,1,.24.72c-.06.31-.31.53-.76.65Zm.43-14.83a.93.93,0,0,1,1.22-.86l1.95.33a1.22,1.22,0,0,1,.61.26l8.67,1.47a.93.93,0,0,1,.87,1.21l-1.65,9.79a.93.93,0,0,1-1.22.86L279.42,89a1.18,1.18,0,0,1-.61-.26l-6.09-1a1.29,1.29,0,0,1-.66,0l-1.95-.33a.93.93,0,0,1-.87-1.22ZM280,73.93V74l4.57.77c.7.12,1,.5.88,1.13s-.5.89-1.2.77l-13.09-2.21c-.7-.12-1-.49-.88-1.13s.5-.88,1.2-.77l4.48.76v-.09l.21-1.23-3-.51c-.69-.12-1-.49-.88-1.12s.51-.89,1.2-.77l3,.5.32-1.86L273,67.62c-.69-.12-1-.49-.88-1.12s.51-.89,1.2-.77l3.79.64.17-1a.93.93,0,0,1,1.21-.87l2,.33a1,1,0,0,1,.87,1.22l-.18,1,3.82.64c.7.12,1,.5.88,1.13s-.5.88-1.2.77l-3.82-.65-.31,1.86,3.06.52c.7.12,1,.49.88,1.12s-.5.89-1.2.77l-3.06-.51Zm-6.53,12,5.27.89.23-1.35-5.27-.89Zm.55-3.25,5.27.89.25-1.48-5.27-.89Zm6.06-3.78L274.79,78l-.22,1.3,5.27.89Zm1.68,12.36c.38.26.55.55.5.86a1,1,0,0,1-.39.59l-.26.18a1.3,1.3,0,0,1-1,.29,1.15,1.15,0,0,1-.51-.21L277.2,91c-.39-.26-.56-.54-.51-.86a1,1,0,0,1,.39-.58l.26-.19a1.31,1.31,0,0,1,1-.29,1.17,1.17,0,0,1,.51.22Z" class="cls-2"/><path data-cppathid="10046" d="M305.91,95.86a1,1,0,0,1-.9.3,1.35,1.35,0,0,1-.57-.25l-.87-.61a.84.84,0,0,1-.47-.85,1.41,1.41,0,0,1,.36-.62A11.51,11.51,0,0,0,305,91.7,17,17,0,0,0,306.3,89a17.4,17.4,0,0,0,.8-3,12.47,12.47,0,0,0-.36-6.55,6.27,6.27,0,0,0-3.49-3.74,42.07,42.07,0,0,1-.51,7.64,16.47,16.47,0,0,1-3.22,8,5.91,5.91,0,0,1-5.86,2.16,6.8,6.8,0,0,1-3.58-1.68,6.91,6.91,0,0,1-2-3.27,9.45,9.45,0,0,1-.18-4.33,13.58,13.58,0,0,1,1.76-4.83,13.22,13.22,0,0,1,3.23-3.69,12,12,0,0,1,4.23-2.16,10.76,10.76,0,0,1,4.73-.24,12.54,12.54,0,0,1,5.76,2.38,9.56,9.56,0,0,1,3.22,4.6,13.27,13.27,0,0,1,.32,6.37A14.48,14.48,0,0,1,305.91,95.86Zm-14-11a10.18,10.18,0,0,0-.08,3.15,6.67,6.67,0,0,0,.77,2.45A2,2,0,0,0,294,91.58c.59.1,1.18-.25,1.78-1a12.69,12.69,0,0,0,1.67-3.37,29.64,29.64,0,0,0,1.25-5c.18-1.07.32-2.19.42-3.34s.14-2.33.12-3.55A8.33,8.33,0,0,0,296,77.16a12.81,12.81,0,0,0-2.62,3.37A13.7,13.7,0,0,0,291.93,84.87Z" class="cls-2"/><path data-cppathid="10047" d="M317.92,98a.94.94,0,0,1-1.22.86l-2-.33a.93.93,0,0,1-.86-1.22l4.17-24.73a.94.94,0,0,1,1.22-.87l2,.33a1.1,1.1,0,0,1,.71.38l7.54,1.27a.94.94,0,0,1,.87,1.22l-1.8,10.63a.93.93,0,0,1-1.21.87l-2-.33a1.17,1.17,0,0,1-.63-.3L320.11,85Zm4.35.73a1.18,1.18,0,0,1-.92.27,1.7,1.7,0,0,1-.57-.26l-.85-.57c-.39-.26-.56-.54-.5-.86a1,1,0,0,1,.46-.64l2.78-2.06a1.38,1.38,0,0,1-.45,0l-2-.33A.93.93,0,0,1,319.4,93l.62-3.66a.92.92,0,0,1,1.21-.86l1.49.25-.44-.89a1,1,0,0,1-.14-.67c.06-.36.33-.58.82-.67l1.34-.23a1.37,1.37,0,0,1,.49,0,1.1,1.1,0,0,1,.82.7l1,1.94a1.16,1.16,0,0,1,.15.68v0l3.7.62a1,1,0,0,1,.39-.61l1.76-1.56a1.11,1.11,0,0,1,1-.31,1.59,1.59,0,0,1,.49.17l1.06.64a.81.81,0,0,1,.54.87,1.1,1.1,0,0,1-.4.61l-.95.85,1.07.18a.93.93,0,0,1,.86,1.22l-.58,3.47a.93.93,0,0,1-1.22.86l-1.95-.33a1,1,0,0,1-.63-.3l-.76-.13,0,.1-.43,2.55.69.12.05-.28c0-.17.39-.2,1.09-.08l1.95.33a.93.93,0,0,1,.87,1.22l-.06.35a.93.93,0,0,1-1.22.86l-6.69-1.13a.93.93,0,0,1-.86-1.22l.57-3.4,0-.1-.35-.06a1.1,1.1,0,0,1-.46.61Zm-1.84-15.63,4.26.72.54-3.22L321,79.87Zm5.74-8-4.26-.72L321.29,78l4.26.72Zm5.88,17.42-8.17-1.38-.27,1.57,8.18,1.38Zm4.06,9c-.68-.18-.93-.58-.74-1.19s.36-.92.45-.9l.12,0,2-11.71-4.73-.8a1,1,0,0,1-.95.27l-2-.33a1,1,0,0,1-.87-1.22l1.84-10.89a.94.94,0,0,1,1.22-.86l2,.33a1.1,1.1,0,0,1,.71.38L343,76a.94.94,0,0,1,.86,1.22l-4.07,24.11a.89.89,0,0,1-1.24.83ZM333.66,85.1l4.57.77.53-3.12L334.18,82Zm6-7.75-4.58-.77-.59,3.5,4.58.77Z" class="cls-2"/><path data-cppathid="10048" d="M347.13,103.5a1.23,1.23,0,0,1-1.4-.53l-.13-.18a1,1,0,0,1-.21-.72c.06-.31.31-.53.76-.65l4.15-1.08-1.17-.2a.94.94,0,0,1-.87-1.22l1.51-8.9a.92.92,0,0,1,1.21-.86l2,.33a1.08,1.08,0,0,1,.77.45l16.66,2.81a.94.94,0,0,1,.86,1.22l-1.46,8.68a.94.94,0,0,1-1.22.86l-2-.33a1.18,1.18,0,0,1-.6-.26l-2.46-.42,0,.1-.25,1.48,5.21.88.08-.47c.05-.32.42-.42,1.12-.3l2,.33a.93.93,0,0,1,.86,1.22l-.13.75a.93.93,0,0,1-1.21.87l-11.21-1.89a.93.93,0,0,1-.86-1.22l.39-2.33,0-.1-4-.67a.93.93,0,0,1-.57.33ZM359,87.91l0,.09,1.64.28c.7.12,1,.49.89,1.12s-.51.89-1.21.77l-8.67-1.46a1.07,1.07,0,0,1-.7.07l-1.95-.33a.93.93,0,0,1-.87-1.21l1.7-10a.92.92,0,0,1,1.21-.86l2,.33a1,1,0,0,1,.63.3l8.58,1.45c.7.12,1,.49.88,1.12s-.5.89-1.2.77l-1.48-.25,0,.1-.2,1.23,0,.09,1.74.29A.94.94,0,0,1,362.7,83l-.56,3.35a.94.94,0,0,1-1.22.86l-1.8-.3Zm-3.85-1.79V86l-2.62-.45-.21,1.3,2.62.44v-.09Zm-2.64,12.57L365.9,101l.17-1-13.44-2.27Zm6.06-15.53-5.46-.92-.25,1.45,5.46.92ZM353,95.79l13.44,2.27.16-1-13.44-2.27Zm3.33-16.32,0-.09-2.68-.45-.24,1.42,2.68.45,0-.1Zm10.77,14.67-13.44-2.27L353.43,93l13.44,2.26Zm-.46-7.64a.94.94,0,0,1-1.27.76l-1.94-.42a.92.92,0,0,1-.79-1.27l1.63-5.83a1,1,0,0,1,1.27-.76l1.94.43a.91.91,0,0,1,.76,1.26L367.84,82l6.84,1.15c.7.12,1,.49.89,1.12s-.51.89-1.21.78l-7-1.19Zm6.35,3.12c.69.12,1,.49.88,1.12s-.51.89-1.2.77l-7.29-1.23c-.69-.11-1-.49-.88-1.12s.51-.89,1.2-.77Z" class="cls-2"/></g></g></g></g></g></svg>