<?xml version="1.0" encoding="UTF-8"?>
<svg xmlns="http://www.w3.org/2000/svg" onmouseup="{ if(window.parent.document.onmouseup) window.parent.document.onmouseup(arguments[0]);}" viewBox="0 0 553.05 1070.98"><defs><style>.cls-1,.cls-10,.cls-4,.cls-7{fill:#fff100;}.cls-1,.cls-2,.cls-3{opacity:0.5;}.cls-11,.cls-3,.cls-6{fill:#603813;}.cls-4,.cls-5,.cls-6{opacity:0.25;}.cls-7,.cls-8{opacity:0.12;}.cls-9{fill:#3b2314;opacity:0.12;}.cls-12{fill:#7a4e06;}.cls-13{fill:#aa6f07;}</style></defs><g data-name="Layer 2" id="Layer_2"><g id="backlog"><g data-name="2023 jp" id="_2023_jp"><g data-name="fully-refined Product Backlog" id="fully-refined_Product_Backlog"><g data-name="bottom faded PBIs" id="bottom_faded_PBIs"><g data-name="another PBI" id="another_PBI"><path data-cppathid="10000" transform="translate(0 0)" d="M362.49,935.81a9.86,9.86,0,0,1-9.85,9.86H51.38a9.86,9.86,0,0,1-9.85-9.86V886.93a9.85,9.85,0,0,1,9.85-9.85H352.64a9.85,9.85,0,0,1,9.85,9.85Z" class="cls-1"/><g class="cls-2"><path data-cppathid="10001" transform="translate(0 0)" d="M174.27,919.33a.63.63,0,0,1-.8.45l-1.06-.19q-.51-.11-.51-.51a.72.72,0,0,1,.06-.29l2.6-6.84a.65.65,0,0,1-.37.09H173a.57.57,0,0,1-.65-.64v-7.21a.58.58,0,0,1,.65-.65h1.21a.65.65,0,0,1,.47.16h5.55a.57.57,0,0,1,.65.64v7a.57.57,0,0,1-.65.64H179a.61.61,0,0,1-.51-.21h-1.41a1,1,0,0,1-.05.29l-.53,1.41h3.63c.39,0,.59.16.59.49a.49.49,0,0,1,0,.12l0,.11-1.49,5.3a.58.58,0,0,1-.6.49h-.08l-.1,0-2.32-.45c-.34-.07-.51-.23-.51-.49a.38.38,0,0,1,0-.1.35.35,0,0,1,0-.11l0,0a.63.63,0,0,1,.78-.43l.57.09,1.07-3.79h-2Zm4.08-14.46h-3.51v5.77h3.51Zm6,10.38a.56.56,0,0,1-.64.64h-1.21a.57.57,0,0,1-.65-.64v-9.71a.58.58,0,0,1,.65-.65h1.21a.57.57,0,0,1,.64.65Zm-.56,4.34c-.39,0-.59-.2-.59-.49a.7.7,0,0,1,.21-.54.63.63,0,0,1,.53-.14l1.84.17V903.68a.58.58,0,0,1,.65-.65h1.21a.57.57,0,0,1,.64.65v15.63q0,.69-.66.63Z" class="cls-3"/><path data-cppathid="10002" transform="translate(0 0)" d="M203.14,919.45a.66.66,0,0,1-.51.27.87.87,0,0,1-.37-.09l-.59-.28a.52.52,0,0,1-.37-.47.83.83,0,0,1,.16-.41,7.06,7.06,0,0,0,.72-1.43,10.65,10.65,0,0,0,.49-1.79,10.25,10.25,0,0,0,.17-1.9,7.67,7.67,0,0,0-.88-3.91,3.82,3.82,0,0,0-2.48-1.89,25.76,25.76,0,0,1,.47,4.65,10.08,10.08,0,0,1-1.12,5.16,3.64,3.64,0,0,1-3.31,1.9,4.18,4.18,0,0,1-2.33-.65,4.31,4.31,0,0,1-1.55-1.77,5.91,5.91,0,0,1-.54-2.59,8.6,8.6,0,0,1,.56-3.09,8.34,8.34,0,0,1,1.58-2.55,7.53,7.53,0,0,1,2.32-1.73,6.61,6.61,0,0,1,2.83-.62,7.62,7.62,0,0,1,3.71.85,5.85,5.85,0,0,1,2.41,2.44,8,8,0,0,1,.84,3.8A8.85,8.85,0,0,1,203.14,919.45Zm-9.54-5.2a6.44,6.44,0,0,0,.27,1.91,4.18,4.18,0,0,0,.72,1.4,1.22,1.22,0,0,0,.93.52q.54,0,1-.81a8,8,0,0,0,.67-2.2,18.32,18.32,0,0,0,.24-3.12c0-.67,0-1.35-.09-2.06s-.15-1.42-.28-2.15a5.1,5.1,0,0,0-1.73,1.45,7.77,7.77,0,0,0-1.23,2.3A8.24,8.24,0,0,0,193.6,914.25Z" class="cls-3"/><path data-cppathid="10003" transform="translate(0 0)" d="M209.8,918.47a.63.63,0,0,1-.19.47.65.65,0,0,1-.47.2H208a.68.68,0,0,1-.66-.67V904.85a.61.61,0,0,1,.17-.43.59.59,0,0,1,.42-.19c.45-.06.89-.09,1.3-.11l1.18,0q6.65,0,6.64,5.14a3.66,3.66,0,0,1-1.67,3.29,8.82,8.82,0,0,1-4.87,1.11h-.33l-.34,0Zm0-13.23v7.19c.29,0,.56,0,.8,0a6.72,6.72,0,0,0,2.34-.32,2.12,2.12,0,0,0,1.21-1,4.18,4.18,0,0,0,.36-1.87,5.83,5.83,0,0,0-.38-2.34,2.37,2.37,0,0,0-1.27-1.26,6.16,6.16,0,0,0-2.43-.39Z" class="cls-3"/><path data-cppathid="10004" transform="translate(0 0)" d="M218.28,904.91a.62.62,0,0,1,.65-.68c.53-.06,1-.09,1.51-.11l1.34,0a9.45,9.45,0,0,1,3.38.5,3.48,3.48,0,0,1,2.43,3.47,3.45,3.45,0,0,1-.62,2,4,4,0,0,1-2.24,1.34q3.14,1.08,3.13,3.57a4.39,4.39,0,0,1-.59,2.32,3.79,3.79,0,0,1-2,1.49,10.42,10.42,0,0,1-3.6.51l-1.3,0c-.46,0-.95,0-1.47-.1s-.67-.26-.67-.67Zm2.27.37v5.47a11.19,11.19,0,0,0,2.95-.36,3,3,0,0,0,1.58-.92,2.17,2.17,0,0,0,.48-1.41,3.31,3.31,0,0,0-.31-1.44,2.18,2.18,0,0,0-1.06-1,5,5,0,0,0-2.11-.37h-.74Zm0,12.88.63,0h.56a4.7,4.7,0,0,0,2.9-.77,2.85,2.85,0,0,0,1-2.4,2.47,2.47,0,0,0-1.15-2.24,8.07,8.07,0,0,0-3.93-.84Z" class="cls-3"/><path data-cppathid="10005" transform="translate(0 0)" d="M232.55,917.89V918h.84a.71.71,0,0,1,.47.16.54.54,0,0,1,0,.84.71.71,0,0,1-.47.17h-4.18a.71.71,0,0,1-.47-.17.56.56,0,0,1,0-.84.71.71,0,0,1,.47-.16h.84V905.46h-.84a.71.71,0,0,1-.47-.17.56.56,0,0,1,0-.84.71.71,0,0,1,.47-.16h4.18a.71.71,0,0,1,.47.16.54.54,0,0,1,0,.84.71.71,0,0,1-.47.17h-.84v12.43Z" class="cls-3"/></g></g><g id="etc."><rect data-cppathid="10006" rx="7.28" height="50.68" width="237.14" y="965.34" x="82.32" class="cls-4"/><g class="cls-5"><path data-cppathid="10007" transform="translate(0 0)" d="M198.46,988.89a.46.46,0,0,1-.57.38l-.83-.1c-.27,0-.41-.17-.41-.41a.8.8,0,0,1,0-.16l1-3.58a.45.45,0,0,1,.57-.37l.83.1c.27,0,.41.16.41.4a.8.8,0,0,1,0,.16l-.28,1h3.14c.32,0,.47.15.47.43s-.15.44-.47.44h-1l.23,1.21a.45.45,0,0,1,0,.13c0,.24-.14.38-.42.41l-.86.08a.45.45,0,0,1-.54-.4l-.26-1.36a.15.15,0,0,1,0-.07h-.52Zm4.43,8.36c-.3,0-.45-.15-.45-.4s.17-.48.51-.46l2.06.1V994h-7.85c-.32,0-.48-.14-.48-.43s.16-.43.48-.43H205v-.86h-7.88c-.32,0-.48-.14-.48-.43s.16-.43.48-.43h5.07a.61.61,0,0,1,0-.15v-.86h-4c-.32,0-.47-.15-.47-.44s.15-.43.47-.43h4v0a.42.42,0,0,1,.48-.48h.89a.42.42,0,0,1,.48.48v0h4c.32,0,.48.15.48.43s-.16.44-.48.44h-4v.86a.66.66,0,0,1,0,.15h5c.32,0,.48.14.48.43s-.16.43-.48.43h-2.21v.86H209c.32,0,.48.14.48.43s-.16.43-.48.43h-2.11v3c0,.33-.16.48-.49.46Zm-.51-2.15c.24.06.35.18.35.35a.43.43,0,0,1-.06.22l0,.05a.49.49,0,0,1-.43.28h-.09l-.1,0-2.93-.81c-.23-.06-.34-.17-.34-.35a.38.38,0,0,1,.05-.21l0-.06a.53.53,0,0,1,.44-.28h.08l.1,0Zm2-6.9a.46.46,0,0,1-.58.33l-.76-.14q-.36-.07-.36-.36a.75.75,0,0,1,0-.24l1.16-2.81a.45.45,0,0,1,.57-.33l.77.14q.36.08.36.36a.66.66,0,0,1,0,.23l-.39.94h3.61c.31,0,.47.15.47.43s-.16.44-.47.44h-.71a.54.54,0,0,1,0,.2l-.55,1.52a.48.48,0,0,1-.58.34l-.78-.13c-.26,0-.39-.17-.39-.37a.45.45,0,0,1,0-.2l.49-1.36h-1.44Z" class="cls-6"/></g></g><g id="etcetc."><rect data-cppathid="10008" rx="5.07" height="35.3" width="165.16" y="1035.69" x="120.47" class="cls-7"/><g class="cls-8"><path data-cppathid="10009" transform="translate(0 0)" d="M196.28,1052.09a.3.3,0,0,1-.39.26l-.59-.07c-.18,0-.28-.11-.28-.28a.89.89,0,0,1,0-.11l.69-2.5a.31.31,0,0,1,.39-.26l.58.07a.27.27,0,0,1,.28.29.31.31,0,0,1,0,.11l-.19.7H199q.33,0,.33.3t-.33.3h-.71l.16.85a.22.22,0,0,1,0,.09c0,.17-.09.26-.29.28l-.6.06a.3.3,0,0,1-.37-.28l-.19-1a.43.43,0,0,1,0,0h-.36Zm3.09,5.82c-.21,0-.31-.1-.31-.28s.11-.33.35-.32l1.44.07v-1.71h-5.47c-.23,0-.34-.1-.34-.3s.11-.3.34-.3h5.47v-.6h-5.49c-.23,0-.34-.1-.34-.3s.11-.3.34-.3h3.52v-.7h-2.79c-.22,0-.33-.1-.33-.31s.11-.3.33-.3h2.79v0a.29.29,0,0,1,.33-.33h.62a.29.29,0,0,1,.33.33v0H203q.33,0,.33.3c0,.21-.11.31-.33.31h-2.79v.6a.31.31,0,0,1,0,.1h3.52q.33,0,.33.3t-.33.3h-1.54v.6h1.47q.33,0,.33.3t-.33.3h-1.47v2c0,.23-.11.34-.34.32Zm-.35-1.49q.24.06.24.24a.42.42,0,0,1,0,.15l0,0a.36.36,0,0,1-.3.19h-.14l-2-.56c-.16,0-.24-.13-.24-.25a.28.28,0,0,1,0-.15l0,0a.36.36,0,0,1,.3-.19H197Zm1.39-4.81a.32.32,0,0,1-.4.23l-.53-.1c-.17,0-.25-.12-.25-.25a.5.5,0,0,1,0-.16l.8-2a.33.33,0,0,1,.4-.23l.54.1c.16,0,.25.12.25.26a.55.55,0,0,1,0,.16l-.27.65h2.51q.33,0,.33.3t-.33.3H203a.39.39,0,0,1,0,.14l-.38,1.06a.34.34,0,0,1-.41.24l-.54-.09c-.18,0-.27-.12-.27-.26a.35.35,0,0,1,0-.14l.34-.95h-1Z" class="cls-9"/></g></g></g><g data-name="report card" id="report_card"><path data-cppathid="10010" transform="translate(0 0)" d="M404,848.58A12.37,12.37,0,0,1,391.6,861H13.09A12.37,12.37,0,0,1,.71,848.58V787.15a12.38,12.38,0,0,1,12.38-12.38H391.6A12.38,12.38,0,0,1,404,787.15Z" class="cls-10"/><path data-cppathid="10011" transform="translate(0 0)" d="M153,828.26a.72.72,0,0,1-.81.81H150.7a.72.72,0,0,1-.81-.81v-3.12h-1.55c-.54,0-.81-.24-.81-.73s.27-.74.81-.74h1.55v-2.31a.85.85,0,0,1,.17-.56h-2.72c-.54,0-.81-.25-.81-.74s.27-.74.81-.74h.88a.89.89,0,0,1-.22-.59l-.17-2.45a3,3,0,0,1,0-.32H147c-.54,0-.81-.25-.81-.74s.27-.73.81-.73h3v-3.42h-2.3c-.55,0-.82-.24-.82-.74s.27-.73.82-.73H150v-1.45a.72.72,0,0,1,.81-.81h1.53a.72.72,0,0,1,.81.81v1.45h2c.54,0,.81.24.81.73s-.27.74-.81.74h-2v3.42h2.77c.54,0,.81.24.81.73s-.27.74-.81.74h-.34a1,1,0,0,1,0,.39l-.39,3h.37c.54,0,.81.25.81.74s-.27.74-.81.74h-2.73a.8.8,0,0,1,.17.56v2.31h1.55c.54,0,.81.25.81.74s-.27.73-.81.73H153Zm-1.89-9.67a.72.72,0,0,1-.34.73h1.33a.29.29,0,0,1,0-.19l.41-3a.4.4,0,0,0,0-.15H151a.88.88,0,0,1,0,.17Zm8.84,9.28a.72.72,0,0,1-.81.81h-1.52a.72.72,0,0,1-.81-.81V809a.72.72,0,0,1,.81-.81h1.52a1.07,1.07,0,0,1,.32.05H166a.72.72,0,0,1,.81.81v6.44c0,.57-.29.82-.86.73l-3.68-.49c-.48-.05-.71-.25-.71-.61a.85.85,0,0,1,0-.25v0a.78.78,0,0,1,1-.62l1.11.15V809.7H160v8.1h5.7c.48,0,.71.19.71.57a1,1,0,0,1-.07.36l-2,5.06,2,3.1a.79.79,0,0,1,.18.46c0,.28-.19.49-.57.62l-1,.32a1,1,0,0,1-.36.07.87.87,0,0,1-.72-.44l-.73-1.11-.32.84a.81.81,0,0,1-1,.56l-1.33-.24a.79.79,0,0,1-.54-.3Zm2.31-7.17.08.1.59-1.53h-3v1.48l.22-.1,1-.32a1,1,0,0,1,.37-.07A.82.82,0,0,1,162.29,820.7ZM160,822v4.89l1.21-3.07Z" class="cls-11"/><path data-cppathid="10012" transform="translate(0 0)" d="M173.56,816.55a.88.88,0,0,1-.73.46h-.15l-.17,0-1.11-.31c-.37-.13-.56-.35-.56-.64a.86.86,0,0,1,.15-.44l4.49-7.3a.89.89,0,0,1,.74-.46h.14l.18,0,1.1.32c.38.13.57.35.57.64a1,1,0,0,1-.15.44l-1.94,3.15h3.95V809a.72.72,0,0,1,.81-.81h1.52a.72.72,0,0,1,.81.81v3.42h5.95c.54,0,.81.24.81.73s-.27.74-.81.74h-5.95v3.54a.85.85,0,0,1,0,.29h7.68c.54,0,.81.25.81.74s-.27.74-.81.74H171.7c-.54,0-.81-.25-.81-.74s.27-.74.81-.74h8.42a.84.84,0,0,1-.05-.29v-3.54H175.9a.86.86,0,0,1-.57-.17Zm-1,5.42a.72.72,0,0,1,.81-.81h1.52a.73.73,0,0,1,.64.27h13.61a.72.72,0,0,1,.81.82v6.11a.72.72,0,0,1-.81.81h-1.52a.86.86,0,0,1-.61-.2.64.64,0,0,1-.21-.49h-11.1a.7.7,0,0,1-.81.69h-1.52a.72.72,0,0,1-.81-.81Zm14.24.94h-11.1V827h11.1Z" class="cls-11"/><path data-cppathid="10013" transform="translate(0 0)" d="M199.94,828a.81.81,0,0,1-.76.57h-.13a.21.21,0,0,1-.12,0l-1.3-.27c-.41-.08-.61-.29-.61-.61a1.25,1.25,0,0,1,.07-.4l5.45-12.81h-6c-.54,0-.81-.25-.81-.74s.27-.74.81-.74h6.66l1.05-2.48A.81.81,0,0,1,205,810h.13a.25.25,0,0,1,.12,0l1.3.27c.41.08.61.29.61.62a1.24,1.24,0,0,1-.07.39l-.74,1.74H215c.5,0,.76.21.76.64,0,.05,0,.09,0,.14a.93.93,0,0,1,0,.13l-3.46,13.9a.76.76,0,0,1-1,.64l-4.94-.81c-.44-.08-.66-.29-.66-.62a.53.53,0,0,1,0-.13,1,1,0,0,1,0-.14l0,0a.79.79,0,0,1,.76-.59h.12a.23.23,0,0,1,.11,0l2.65.47,3-12.13h-6.73Z" class="cls-11"/><path data-cppathid="10014" transform="translate(0 0)" d="M235.94,818.29c.54,0,.81.25.81.74s-.27.73-.81.73H219.39c-.54,0-.81-.24-.81-.73s.27-.74.81-.74Z" class="cls-11"/><path data-cppathid="10015" transform="translate(0 0)" d="M245.17,827.84a.72.72,0,0,1-.81.81h-1.52a.72.72,0,0,1-.81-.81V810.78a.72.72,0,0,1,.81-.81h1.52a.72.72,0,0,1,.81.81v7l8.89,2.87c.38.14.57.33.57.59a.77.77,0,0,1-.15.42l-.1.12a.82.82,0,0,1-.71.42h-.16l-.19,0-8.15-2.63Zm7.49-13.23a.91.91,0,0,1,0,.27c0,.41-.22.64-.67.69l-.71.09a.72.72,0,0,1-.93-.63l-1.28-5.16a1.06,1.06,0,0,1,0-.27.64.64,0,0,1,.66-.69l.71-.1a.75.75,0,0,1,1,.64Zm2.7-1.5a1,1,0,0,1,0,.27.67.67,0,0,1-.64.69l-.71.12a.75.75,0,0,1-1-.64l-1.25-4.81a.83.83,0,0,1,0-.15.76.76,0,0,1,0-.15q0-.54.66-.66l.71-.12a.75.75,0,0,1,1,.64Z" class="cls-11"/></g><g data-name="Scholarship PBI" id="Scholarship_PBI"><path data-cppathid="10016" transform="translate(0 0)" d="M404.69,746.71a12.39,12.39,0,0,1-12.38,12.38H13.79A12.38,12.38,0,0,1,1.41,746.71V685.28a12.37,12.37,0,0,1,12.38-12.37H392.31a12.38,12.38,0,0,1,12.38,12.37Z" class="cls-10"/><path data-cppathid="10017" transform="translate(0 0)" d="M143.17,726.71a1.29,1.29,0,0,1-.4.08.87.87,0,0,1-.71-.44l0-.05a1,1,0,0,1-.15-.47c0-.28.19-.48.56-.61a23.11,23.11,0,0,0,6.54-3.05H142.8c-.54,0-.81-.25-.81-.74s.27-.73.81-.73h7.54a3,3,0,0,0,.34-.84.85.85,0,0,1,.86-.74h1.52a2.42,2.42,0,0,1,.42,0,.65.65,0,0,1-.1-.34.71.71,0,0,1,.86-.81l4,.17v-3.61H149.9c-.54,0-.81-.25-.81-.74s.27-.74.81-.74h8.37a.72.72,0,0,1,.81-.71h1.52a.85.85,0,0,1,.6.2.66.66,0,0,1,.21.51h1.18c.54,0,.81.25.81.74s-.27.74-.81.74h-1.18V719a.83.83,0,0,1-.22.62.77.77,0,0,1-.61.19l-6.44-.29a.83.83,0,0,1-.24,0v0a3.85,3.85,0,0,1-.37,1.23h8.77c.54,0,.81.24.81.73s-.27.74-.81.74h-8l8.4,3.05c.36.13.54.32.54.58a.68.68,0,0,1-.17.45l-.1.14a.85.85,0,0,1-.69.4.51.51,0,0,1-.2,0l-.22-.06-10.41-3.78A29.37,29.37,0,0,1,143.17,726.71Zm5.13-8.13a.72.72,0,0,1-.81.82H146a.72.72,0,0,1-.81-.82v-1.71l-1.53.71a1.05,1.05,0,0,1-.44.1.9.9,0,0,1-.66-.3l-.12-.12a.78.78,0,0,1-.27-.54c0-.25.15-.44.46-.59l2.53-1.18h0v-4l-2.44-1.42c-.27-.18-.41-.37-.41-.57a.79.79,0,0,1,.34-.56l.25-.2a1,1,0,0,1,1.13-.1l1.13.67V707a.72.72,0,0,1,.81-.81h1.52a.72.72,0,0,1,.81.81Zm2.26-10.26a.78.78,0,0,1-.89-.83c0-.4.25-.62.74-.67l11.13-.83a.79.79,0,0,1,.66.19.93.93,0,0,1,.24.67c0,.37-.24.59-.73.64Zm2.87,2.85a1.6,1.6,0,0,1,0,.27q0,.62-.69.69l-1.37.17a.8.8,0,0,1-1-.62l-.61-2.13a.83.83,0,0,1,0-.15.76.76,0,0,1,0-.15q0-.59.66-.66l1.4-.17a.8.8,0,0,1,1,.61Zm2.14,5.11c.33.14.49.34.49.59a.71.71,0,0,1-.25.49l-.17.17a.89.89,0,0,1-.66.29,1,1,0,0,1-.44-.09l-3-1.4c-.33-.15-.49-.35-.49-.59a.67.67,0,0,1,.25-.49l.17-.18a.94.94,0,0,1,1.1-.19Zm1.72-5.26a1.69,1.69,0,0,1,0,.25q0,.62-.69.69l-1.42.17a.79.79,0,0,1-.93-.67l-.49-2a.4.4,0,0,1,0-.15v-.12c0-.4.22-.62.66-.67l1.43-.17a.79.79,0,0,1,.93.66Zm3.9.27a.8.8,0,0,1-1,.62l-1.4-.23c-.44,0-.66-.27-.66-.66a1.58,1.58,0,0,1,.05-.29l.66-2.24a.8.8,0,0,1,1-.61l1.4.22q.66.07.66.66a1,1,0,0,1-.05.3Z" class="cls-11"/><path data-cppathid="10018" transform="translate(0 0)" d="M172.81,726.66c-.43-.09-.64-.3-.64-.61a.59.59,0,0,1,.07-.29l0,0a.75.75,0,0,1,.73-.54,1,1,0,0,1,.27,0l2,.42v-4.15h-7.74c-.54,0-.81-.25-.81-.74s.27-.73.81-.73h7.74v-.1a1.4,1.4,0,0,1,.41-1l3.3-3.09h-7.25c-.54,0-.81-.25-.81-.74s.27-.74.81-.74h10.66c.46,0,.69.16.69.47a.83.83,0,0,1-.3.54l-4.37,4.12V720h8.18c.54,0,.81.24.81.73s-.27.74-.81.74h-8.18v5.45c0,.51-.22.76-.66.76l-.22,0Zm-5.75-15.37a.72.72,0,0,1,.81-.81h1.06l-1-3.14a.83.83,0,0,1,0-.15.76.76,0,0,1,0-.15q0-.59.66-.66l1.4-.2a.78.78,0,0,1,1,.59l1,3.42a1,1,0,0,1,0,.14.76.76,0,0,1,0,.15,1,1,0,0,1,0,.2h3.78l-.93-3.42a.74.74,0,0,1,0-.14.76.76,0,0,1,0-.15q0-.59.66-.66l1.42-.18a.77.77,0,0,1,1,.64l1,3.47a.74.74,0,0,1,0,.14s0,.1,0,.15a.4.4,0,0,1,0,.15h2.9v-.13a1.29,1.29,0,0,1,.08-.39l1.42-3.49a.78.78,0,0,1,1-.56l1.3.25c.41.08.62.28.62.61a1.29,1.29,0,0,1-.08.39l-1.35,3.32h2.68c.51,0,.76.21.76.64a.53.53,0,0,1,0,.13,1,1,0,0,1,0,.14l-.73,2.94a.81.81,0,0,1-.94.67L185,715c-.46,0-.69-.27-.69-.68a1.69,1.69,0,0,1,0-.25l.5-1.94H170.2v2.14a.72.72,0,0,1-.81.81h-1.52a.72.72,0,0,1-.81-.81Z" class="cls-11"/><path data-cppathid="10019" transform="translate(0 0)" d="M200.66,705.47a.84.84,0,0,1,.61-.27,1.38,1.38,0,0,1,.49.12l.66.32c.3.15.45.32.45.52l.24.17,9,7.88a.7.7,0,0,1,.29.54.74.74,0,0,1-.41.59l-.59.32a1,1,0,0,1-.52.15,1,1,0,0,1-.61-.27l-8.79-7.71-8.21,7.69a.84.84,0,0,1-.61.27,1.19,1.19,0,0,1-.49-.13l-.66-.32c-.3-.14-.45-.33-.45-.56a.84.84,0,0,1,.3-.57Zm2.21,19.21a1.16,1.16,0,0,1-.05.34h6.09c.54,0,.81.24.81.74s-.27.73-.81.73H193.68c-.54,0-.81-.24-.81-.73s.27-.74.81-.74h6.09a1.16,1.16,0,0,1-.05-.34v-5.56h-6.6c-.54,0-.81-.24-.81-.73s.27-.74.81-.74h6.6v-2.58a1,1,0,0,1,.08-.41h-3.34c-.54,0-.81-.25-.81-.74s.27-.74.81-.74h9.67c.54,0,.81.25.81.74s-.27.74-.81.74h-3.36a.86.86,0,0,1,.1.41v2.58h6.6c.54,0,.81.25.81.74s-.27.73-.81.73h-6.6Zm-4.5-1.28a1.57,1.57,0,0,1,0,.32c0,.37-.22.59-.66.64l-1.38.19h-.1l-.09,0a.75.75,0,0,1-.77-.62l-1-3a1.57,1.57,0,0,1-.05-.32c0-.37.22-.59.67-.64l1.37-.19h.11l.09,0a.75.75,0,0,1,.76.62Zm9.33.51a.76.76,0,0,1-.95.62l-1.38-.22c-.44,0-.66-.27-.66-.64a1.09,1.09,0,0,1,0-.32l1-3.1a.77.77,0,0,1,1-.61l1.38.22c.44,0,.66.26.66.64a1.57,1.57,0,0,1,0,.32Z" class="cls-11"/><path data-cppathid="10020" transform="translate(0 0)" d="M217.06,726.81c-.48-.08-.71-.28-.71-.61a1.09,1.09,0,0,1,0-.22q.19-.76.66-.69l.5.07v-3.68l-.1.07a1,1,0,0,1-.57.2,1.12,1.12,0,0,1-.56-.2l-.4-.27a.74.74,0,0,1-.36-.56.71.71,0,0,1,.36-.57l1.63-1.13v-6.16h-1.31c-.54,0-.81-.25-.81-.74s.27-.73.81-.73h1.31v-5.31a.72.72,0,0,1,.81-.81h1.52a.72.72,0,0,1,.81.81v5.31h1c.54,0,.81.24.81.73s-.27.74-.81.74h-1v4a.89.89,0,0,1,.51-.17.84.84,0,0,1,.57.2l.39.27a.67.67,0,0,1,.37.56.73.73,0,0,1-.37.57l-1.47,1v6.85c0,.59-.29.84-.86.76Zm6.58-18.56a1,1,0,0,1-.66-.19.76.76,0,0,1-.27-.65c0-.37.24-.59.73-.64l12.18-1a.89.89,0,0,1,.68.17.84.84,0,0,1,.26.67c0,.37-.25.58-.74.63Zm2.48,7.36a.72.72,0,0,1-.81.81h-1.52a.72.72,0,0,1-.81-.81v-2.23a.72.72,0,0,1,.81-.81h.66l-.66-2.68a.83.83,0,0,1,0-.24q0-.61.69-.69l1.43-.17a.79.79,0,0,1,.93.66l.66,2.7a.9.9,0,0,1,0,.25.78.78,0,0,1,0,.22h.71a1.42,1.42,0,0,1-.07-.22l-.56-2.9a.56.56,0,0,1,0-.2c0-.42.25-.66.74-.71l1.47-.15a.76.76,0,0,1,.91.69l.54,2.9a.65.65,0,0,1,0,.22.7.7,0,0,1-.09.37h.32v-.08a.71.71,0,0,1,0-.14l0-.18,1.06-3.38a.77.77,0,0,1,1-.62l1.4.22c.42,0,.64.27.64.64v.15a.41.41,0,0,1-.05.17l-1,3.22h1.35c.59,0,.84.28.76.86l-.29,2.08a.76.76,0,0,1-.89.72l-1.47-.1a.69.69,0,0,1-.74-.89l.18-1.2h-7.25Zm-1.4,11.13-.15,0h-.14a.74.74,0,0,1-.72-.59c0-.07,0-.12,0-.17a.76.76,0,0,1,0-.15c0-.31.19-.53.58-.64a14.48,14.48,0,0,0,2.12-.92,11.79,11.79,0,0,0,2.28-1.58l-3.09-2.12a.73.73,0,0,1-.4-.59.71.71,0,0,1,.37-.54l.39-.27a1,1,0,0,1,.57-.19.79.79,0,0,1,.56.19l3,2.07a7.68,7.68,0,0,0,.86-1.42,5,5,0,0,0,.44-1.58H225c-.54,0-.81-.25-.81-.74s.27-.73.81-.73h8.67a.79.79,0,0,1,.63.26,1,1,0,0,1,.2.77,5.57,5.57,0,0,1-.77,2.55,9.73,9.73,0,0,1-1.76,2.21l3.79,2.58a.75.75,0,0,1,.39.59.72.72,0,0,1-.37.54l-.39.27a.84.84,0,0,1-.57.2,1,1,0,0,1-.56-.2l-3.88-2.65a19.1,19.1,0,0,1-3,1.78A16.79,16.79,0,0,1,224.72,726.74Z" class="cls-11"/><path data-cppathid="10021" transform="translate(0 0)" d="M246.45,725c-.42-.1-.63-.3-.63-.59a.66.66,0,0,1,.07-.32l0,0a.83.83,0,0,1,.79-.54h.12l.13,0,6.55,1.45,1-4.32H240.83c-.54,0-.81-.25-.81-.74s.27-.74.81-.74h14l.62-2.67h-9.68q-.85,0-.78-.84l.83-9.28a.73.73,0,0,1,.86-.74l1.52.08a.7.7,0,0,1,.76.86l-.29,3.14h10.48c.54,0,.82.25.82.74s-.28.73-.82.73h-10.6l-.35,3.84h9.83c.49,0,.73.21.73.63a1.69,1.69,0,0,1,0,.25l-.76,3.26h3.24c.54,0,.81.25.81.74s-.27.74-.81.74h-3.59l-1.32,5.7a.7.7,0,0,1-.72.63h-.12a.22.22,0,0,1-.12,0Z" class="cls-11"/></g><g data-name="Alumni PBI" id="Alumni_PBI"><path data-cppathid="10022" transform="translate(0 0)" d="M404.69,644.84a12.38,12.38,0,0,1-12.38,12.38H13.79A12.38,12.38,0,0,1,1.41,644.84V583.42A12.38,12.38,0,0,1,13.79,571H392.31a12.38,12.38,0,0,1,12.38,12.38Z" class="cls-10"/><path data-cppathid="10023" transform="translate(0 0)" d="M154.09,607.19v.08h8.18c.54,0,.81.24.81.73s-.27.74-.81.74h-19.5c-.54,0-.81-.25-.81-.74s.27-.73.81-.73H151v-2.93a.72.72,0,0,1,.81-.81h1.52a.72.72,0,0,1,.81.81Zm0,17.44a.72.72,0,0,1-.81.81h-1.52a.72.72,0,0,1-.81-.81v-2.56h-8.18c-.54,0-.81-.24-.81-.73s.27-.74.81-.74H151v-2a.71.71,0,0,1,.81-.81h1.52a.71.71,0,0,1,.81.81v2h8.18c.54,0,.81.25.81.74s-.27.73-.81.73h-8.18Zm-9.2-6.07a.92.92,0,0,1-.74.47H144l-.17,0-1.11-.32c-.37-.13-.56-.34-.56-.61a.89.89,0,0,1,.15-.47l4.91-8.1A.91.91,0,0,1,148,609h.14l.17,0,1.11.32c.38.13.56.33.56.61a1,1,0,0,1-.14.47l-1.57,2.6,0,0,3.24,3a.69.69,0,0,1,.3.54c0,.23-.15.41-.45.56l-.61.32a.93.93,0,0,1-.49.15.89.89,0,0,1-.64-.3L147.05,615Zm11-1.45a.87.87,0,0,1-.76.44,1.39,1.39,0,0,1-.32,0l-1.06-.32c-.38-.13-.56-.33-.56-.59a.52.52,0,0,1,.05-.24,1.71,1.71,0,0,1,.12-.23l4.37-6.68a.9.9,0,0,1,.76-.44,1.57,1.57,0,0,1,.32,0l1.06.32c.37.13.56.33.56.59a.68.68,0,0,1-.05.22,1.34,1.34,0,0,1-.12.24L158.59,613a1,1,0,0,1,.22.19l3.88,4.37a.77.77,0,0,1,.25.52c0,.26-.17.46-.5.59l-.81.34a.89.89,0,0,1-.44.1.81.81,0,0,1-.66-.34l-3.29-3.71Z" class="cls-11"/><path data-cppathid="10024" transform="translate(0 0)" d="M178.65,624.82a.72.72,0,0,1-.81.81h-1.52a.72.72,0,0,1-.81-.81v-2.57l-6.39,2.62a.86.86,0,0,1-.41.1.89.89,0,0,1-.69-.37l-.08-.1a.87.87,0,0,1-.22-.51c0-.26.17-.46.49-.59l4.67-1.92h-5.55c-.54,0-.81-.24-.81-.73s.27-.74.81-.74h8.18v-1.25h-7.22c-.54,0-.81-.25-.81-.74s.27-.73.81-.73h7.22v-1.13h-7.93c-.54,0-.81-.25-.81-.74s.27-.74.81-.74h4l-.58-3.61a.61.61,0,0,1,0-.22h-3.66c-.54,0-.81-.24-.81-.74s.27-.73.81-.73H173v-4.84a.72.72,0,0,1,.81-.81h1.53a.72.72,0,0,1,.81.81v4.84H178v-4.84a.72.72,0,0,1,.81-.81h1.52a.72.72,0,0,1,.81.81v4.84h5.92c.54,0,.81.24.81.73s-.27.74-.81.74h-3.93v0a1.54,1.54,0,0,1,0,.24l-.84,3.56h4.15c.54,0,.81.25.81.74s-.27.74-.81.74h-7.81v1.13h7.2c.54,0,.81.24.81.73s-.27.74-.81.74h-7.2V620h8.18c.54,0,.81.25.81.74s-.27.73-.81.73h-5.75l5,1.94c.36.15.54.35.54.59a.79.79,0,0,1-.2.45l-.12.14a.87.87,0,0,1-.71.37,1.25,1.25,0,0,1-.4-.07l-6.53-2.58Zm-7-17a.9.9,0,0,1,0,.25q0,.58-.69.66l-1.47.15a.77.77,0,0,1-.94-.67l-.69-3.14a.37.37,0,0,1,0-.12v-.13c0-.39.24-.61.71-.66l1.48-.15a.77.77,0,0,1,.93.69Zm3,6.63a.65.65,0,0,1,0,.22h4.55v0a.94.94,0,0,1,0-.25l.84-3.56h-6ZM186,608.2a.75.75,0,0,1-.9.69l-1.48-.15c-.55,0-.78-.35-.69-.91l.59-2.9a.75.75,0,0,1,.91-.68l1.48.14c.55.05.78.35.68.91Z" class="cls-11"/><path data-cppathid="10025" transform="translate(0 0)" d="M193.48,615.17a.79.79,0,0,1-.76.54h-.12a.22.22,0,0,1-.12,0l-1.23-.25c-.41-.1-.61-.32-.61-.66a.94.94,0,0,1,.07-.37L195,605a.79.79,0,0,1,.76-.54h.12l.12,0,1.23.25c.41.1.62.3.62.61a1,1,0,0,1-.1.42l-1.33,2.92h4.35v-4.32a.72.72,0,0,1,.81-.81h1.52a.72.72,0,0,1,.81.81v4.32h6.68c.54,0,.81.25.81.74s-.27.74-.81.74h-6.68v6.16h5.7c.54,0,.81.25.81.74s-.27.74-.81.74h-5.7v5.32h7.42c.54,0,.81.25.81.74s-.27.74-.81.74h-19.5c-.54,0-.81-.25-.81-.74s.27-.74.81-.74h8.94v-5.32H194.2c-.54,0-.81-.25-.81-.74s.27-.74.81-.74h6.58v-6.16h-5Z" class="cls-11"/><path data-cppathid="10026" transform="translate(0 0)" d="M224.23,608.25c.54,0,.81.24.81.73s-.27.74-.81.74h-7.49c-.54,0-.81-.24-.81-.74s.27-.73.81-.73Zm.64,15.94a.72.72,0,0,1-.81.81h-1.52a.75.75,0,0,1-.72-.37h-2.55a.71.71,0,0,1-.81.69h-1.52a.72.72,0,0,1-.81-.82v-5.25a.72.72,0,0,1,.81-.81h1.52a.75.75,0,0,1,.69.32h4.91a.72.72,0,0,1,.81.81Zm-1-12.33c.54,0,.81.24.81.73s-.27.74-.81.74h-6.78c-.54,0-.81-.24-.81-.74s.27-.73.81-.73Zm-.07,3.68c.54,0,.81.25.81.74s-.27.73-.81.73h-6.58c-.54,0-.81-.24-.81-.73s.27-.74.81-.74Zm-.47-9.65c.35.15.52.34.52.59a.79.79,0,0,1-.2.47l-.12.14a.91.91,0,0,1-.69.37.87.87,0,0,1-.42-.1l-4.69-1.94c-.34-.14-.51-.34-.51-.59a.75.75,0,0,1,.19-.46l.13-.15a.89.89,0,0,1,.68-.37.87.87,0,0,1,.42.1Zm-1.6,14.34h-2.45v2.92h2.45Zm12.26,1.4a.72.72,0,0,1,.81-.81h1.52a.72.72,0,0,1,.81.81v2.19a.72.72,0,0,1-.81.81h-9.23a.72.72,0,0,1-.81-.81V613.7a.72.72,0,0,1,.81-.81h1.52a.75.75,0,0,1,.69.32h3.83V606.7h-7.29c-.54,0-.81-.24-.81-.74s.27-.73.81-.73h9.62a.72.72,0,0,1,.81.81v8.1a.72.72,0,0,1-.81.81h-1.52a.74.74,0,0,1-.64-.27h-3.88v8.47H234Z" class="cls-11"/><path data-cppathid="10027" transform="translate(0 0)" d="M248.47,622.34a.81.81,0,0,1,.81.35,1,1,0,0,1,.12-.27l2-3.22a.9.9,0,0,1,.76-.44,1.09,1.09,0,0,1,.32,0l1.06.32c.37.13.56.32.56.59a.68.68,0,0,1,0,.22,1.34,1.34,0,0,1-.12.24l-2,3.22a.9.9,0,0,1-.76.44,1.09,1.09,0,0,1-.32-.05l-1.06-.32a1.18,1.18,0,0,1-.39-.19q0,.47-.69.54l-6.41.73a.79.79,0,0,1-.93-.66.56.56,0,0,1,0-.2c0-.34.23-.55.71-.63l1.77-.2v-5.6h-1.92c-.54,0-.81-.25-.81-.74s.27-.73.81-.73h1.92v-2.58a1.06,1.06,0,0,1,.07-.42h-.39a.78.78,0,0,1-.62-.22l-.36.71a.85.85,0,0,1-.77.52l-.27,0-1.2-.3c-.38-.09-.56-.3-.56-.61a1,1,0,0,1,.09-.42l4.3-8.45a.83.83,0,0,1,.76-.51l.27,0,1.21.29c.37.1.56.31.56.62v0a1.22,1.22,0,0,1,.32.35l3.41,5.64a.92.92,0,0,1,.15.47c0,.31-.19.52-.56.61l-1.11.32a.78.78,0,0,1,0,.22c0,.49-.27.74-.81.74h-1.48a.79.79,0,0,1,.1.42v2.58h1.89c.54,0,.81.24.81.73s-.27.74-.81.74H247v5.26Zm-4.94-.63c0,.52-.19.8-.56.83l-1.08.05c-.38,0-.58-.22-.59-.76l-.13-3c0-.52.15-.8.54-.83l1.09,0c.37,0,.57.22.58.76Zm0-10.39H248l-2.46-4Zm5.94,10.14c-.08.52-.28.76-.61.71l-1-.12c-.41,0-.57-.35-.49-.91l.29-2.53c.08-.52.29-.76.62-.71l1,.12c.4.05.55.35.47.91Zm4.23-4.79a1,1,0,0,1,.12.44c0,.31-.19.52-.56.62l-1.16.29-.14,0h-.15a.82.82,0,0,1-.74-.49L249.62,615a1,1,0,0,1-.12-.44c0-.31.19-.52.56-.61l1.16-.3.15,0h.14a.82.82,0,0,1,.74.49Zm-1,8.2c-.49,0-.74-.25-.74-.61a.88.88,0,0,1,.26-.68.85.85,0,0,1,.68-.18l1.2.12V613.18h-3.76c-.54,0-.81-.24-.81-.73s.27-.74.81-.74h7.12v-2.19h-6.6c-.54,0-.81-.24-.81-.73s.27-.74.81-.74h6.6v-2.18h-7c-.54,0-.81-.25-.81-.74s.27-.74.81-.74h9.36a.72.72,0,0,1,.81.81v6.51h.05c.54,0,.81.25.81.74s-.27.73-.81.73h-3.42v3.49l1.35-2.31a.87.87,0,0,1,.74-.46h.15l.17,0,1.11.29c.37.1.56.29.56.59a1,1,0,0,1-.15.47l-1.89,3.21a.85.85,0,0,1-.73.47h-.15l-.17,0-.69-.17,3.61,3.88a.75.75,0,0,1,.24.54c0,.24-.16.44-.49.59l-.76.32a1,1,0,0,1-.42.1,1,1,0,0,1-.68-.35l-1.8-1.94v2.58c0,.56-.28.81-.86.76Z" class="cls-11"/></g><g data-name="Event Calendar PBI" id="Event_Calendar_PBI"><path data-cppathid="10028" transform="translate(0 0)" d="M403.28,441.2a12.38,12.38,0,0,1-12.39,12.37H12.38A12.37,12.37,0,0,1,0,441.2V379.77a12.38,12.38,0,0,1,12.38-12.38H390.89a12.39,12.39,0,0,1,12.39,12.38Z" class="cls-10"/><path data-cppathid="10029" transform="translate(0 0)" d="M105.58,414.65a1,1,0,0,1-.51.14.91.91,0,0,1-.62-.24l-.24-.2a.8.8,0,0,1-.35-.56q0-.3.42-.57l17.24-10a1.06,1.06,0,0,1,.52-.15.9.9,0,0,1,.61.25l.25.19a.8.8,0,0,1,.34.57c0,.2-.14.39-.42.56l-6.82,4a.76.76,0,0,1,.19.56v11.05a.72.72,0,0,1-.81.81h-1.52a.72.72,0,0,1-.81-.81v-9.92Z" class="cls-11"/><path data-cppathid="10030" transform="translate(0 0)" d="M145.61,418.79a.76.76,0,0,1,.2.5c0,.26-.17.46-.52.59l-.93.32a1.61,1.61,0,0,1-.39.07.85.85,0,0,1-.69-.39l-8.84-11.47-6,10a.91.91,0,0,1-.76.47h-.15l-.14,0-1.11-.3c-.38-.09-.56-.29-.56-.58a.88.88,0,0,1,.14-.47l7.69-12.87a.64.64,0,0,1,.54-.39.76.76,0,0,1,.59.34Zm-2.38-9.4a1.06,1.06,0,0,1,0,.27.64.64,0,0,1-.66.69l-.71.1a.73.73,0,0,1-.93-.64l-1.28-5.16a1,1,0,0,1,0-.27.65.65,0,0,1,.67-.69l.71-.1a.76.76,0,0,1,1,.64Zm2.7-1.5a1,1,0,0,1,0,.27.67.67,0,0,1-.64.69l-.71.12a.75.75,0,0,1-1-.64l-1.26-4.81,0-.15a.66.66,0,0,1,0-.14c0-.36.22-.58.66-.67l.71-.12a.76.76,0,0,1,1,.64Z" class="cls-11"/><path data-cppathid="10031" transform="translate(0 0)" d="M157.77,407.23c.28.18.41.37.41.56a.74.74,0,0,1-.34.57l-.29.24a1,1,0,0,1-.59.23,1,1,0,0,1-.54-.18l-6.51-3.95q-.42-.27-.42-.57a.75.75,0,0,1,.35-.56l.29-.25a1,1,0,0,1,.59-.22,1,1,0,0,1,.54.18Zm7.93,2.65a1.07,1.07,0,0,1,.56-.17.9.9,0,0,1,.57.2l.32.24a.74.74,0,0,1,.34.57.68.68,0,0,1-.39.56l-14.44,9.09a1.08,1.08,0,0,1-.57.17,1,1,0,0,1-.56-.2l-.32-.24a.74.74,0,0,1-.34-.57.68.68,0,0,1,.39-.56Z" class="cls-11"/><path data-cppathid="10032" transform="translate(0 0)" d="M176.36,420.46a.72.72,0,0,1-.81.82H174a.72.72,0,0,1-.81-.82V403.4a.72.72,0,0,1,.81-.81h1.53a.72.72,0,0,1,.81.81v7l8.89,2.88c.37.13.56.32.56.58a.74.74,0,0,1-.15.42l-.09.13a.83.83,0,0,1-.72.41h-.16l-.18,0-8.15-2.62Z" class="cls-11"/><path data-cppathid="10033" transform="translate(0 0)" d="M194,420.66a.8.8,0,0,1-.76.57h-.12a.21.21,0,0,1-.12,0l-1.3-.27c-.41-.08-.62-.28-.62-.61a1.29,1.29,0,0,1,.08-.4l5.45-12.81h-6c-.54,0-.81-.25-.81-.74s.27-.74.81-.74h6.65l1.06-2.48a.8.8,0,0,1,.76-.56h.12l.12,0,1.31.27c.4.08.61.29.61.62a1.24,1.24,0,0,1-.07.39l-.74,1.74H209c.51,0,.76.22.76.64a.61.61,0,0,1,0,.14l0,.13-3.47,13.9a.74.74,0,0,1-1,.64l-4.94-.81c-.44-.08-.66-.29-.66-.62a.57.57,0,0,1,0-.13,1,1,0,0,1,0-.14l0,0a.78.78,0,0,1,.76-.59h.11a.2.2,0,0,1,.11,0l2.65.47,3.05-12.13h-6.73Z" class="cls-11"/><path data-cppathid="10034" transform="translate(0 0)" d="M230,412.31a1.05,1.05,0,0,1,.44-.1.88.88,0,0,1,.66.3l.13.12a.78.78,0,0,1,.27.54c0,.25-.16.44-.47.59l-15.64,7.17a.85.85,0,0,1-.4.1c-.37,0-.56-.24-.56-.71V403.57a.72.72,0,0,1,.81-.81h1.52a.72.72,0,0,1,.81.81V418Z" class="cls-11"/><path data-cppathid="10035" transform="translate(0 0)" d="M242.32,407.23c.28.18.41.37.41.56a.74.74,0,0,1-.34.57l-.29.24a1,1,0,0,1-.59.23,1,1,0,0,1-.54-.18l-6.51-3.95q-.42-.27-.42-.57a.75.75,0,0,1,.35-.56l.29-.25a1,1,0,0,1,.59-.22,1,1,0,0,1,.54.18Zm7.93,2.65a1.07,1.07,0,0,1,.56-.17.9.9,0,0,1,.57.2l.32.24a.74.74,0,0,1,.34.57.68.68,0,0,1-.39.56l-14.44,9.09a1.08,1.08,0,0,1-.57.17,1,1,0,0,1-.56-.2l-.32-.24a.74.74,0,0,1-.34-.57.68.68,0,0,1,.39-.56Z" class="cls-11"/><path data-cppathid="10036" transform="translate(0 0)" d="M258.23,412.71a.74.74,0,0,1-.69.46h-.17l-.17,0-1.16-.29c-.37-.1-.56-.3-.56-.62a1,1,0,0,1,.12-.44l5.48-9.67a.75.75,0,0,1,.69-.47h.17l.17,0,1.15.29c.38.1.57.31.57.62a1,1,0,0,1-.12.44l0,.05h10.39c.47,0,.71.18.71.54a1,1,0,0,1-.15.44l-9.38,16.26a.84.84,0,0,1-.73.46h-.15l-.17,0-1.11-.3c-.39-.1-.59-.3-.59-.61a.92.92,0,0,1,.15-.45l3.73-6.45-.05,0-4.69-2.8a.64.64,0,0,1-.41-.56.74.74,0,0,1,.34-.57l.29-.24a.88.88,0,0,1,.62-.25.89.89,0,0,1,.51.17l4.35,2.61,3.88-6.71h-8.37Zm17-9.6a.58.58,0,0,1,0,.21c0,.3-.22.48-.66.51l-.72.08c-.5.06-.82-.1-.93-.48l-1.28-3.9a1.06,1.06,0,0,1,0-.21c0-.31.22-.48.66-.52l.71-.07q.8-.09,1,.48Zm2.71-1.13a1,1,0,0,1,0,.2c0,.29-.21.46-.64.52l-.71.1c-.53.06-.84-.1-1-.49l-1.25-3.64a.36.36,0,0,1,0-.11.37.37,0,0,1,0-.11c0-.27.22-.44.66-.5l.71-.09q.8-.09,1,.48Z" class="cls-11"/><path data-cppathid="10037" transform="translate(0 0)" d="M295.41,410.91c.54,0,.81.25.81.74s-.27.74-.81.74H278.86c-.54,0-.81-.25-.81-.74s.27-.74.81-.74Z" class="cls-11"/></g><g data-name="Attendance PBI" id="Attendance_PBI"><path data-cppathid="10038" transform="translate(0 0)" d="M403.28,339.33a12.39,12.39,0,0,1-12.39,12.38H12.38A12.38,12.38,0,0,1,0,339.33V277.9a12.37,12.37,0,0,1,12.38-12.37H390.89a12.38,12.38,0,0,1,12.39,12.37Z" class="cls-10"/><path data-cppathid="10039" transform="translate(0 0)" d="M165,317.57v.07h5.33v-5.8a.72.72,0,0,1,.81-.81h1.52a.72.72,0,0,1,.81.81v6.71a.72.72,0,0,1-.81.81H171.1a.8.8,0,0,1-.64-.25h-16.3a.72.72,0,0,1-.81-.81v-6.46a.72.72,0,0,1,.81-.81h1.52a.72.72,0,0,1,.81.81v5.8h5.33v-9.06h-6.9a.72.72,0,0,1-.81-.81v-7.22a.72.72,0,0,1,.81-.81h1.52a.72.72,0,0,1,.81.81v6.56h4.57V299.2a.72.72,0,0,1,.81-.81h1.52a.72.72,0,0,1,.81.81v7.91h4.57v-6.56a.72.72,0,0,1,.81-.81h1.52a.72.72,0,0,1,.81.81v7.68a.71.71,0,0,1-.81.81h-1.52a.72.72,0,0,1-.76-.46H165Z" class="cls-11"/><path data-cppathid="10040" transform="translate(0 0)" d="M180.14,319.26a.73.73,0,0,1-.86.76l-1.52,0a.71.71,0,0,1-.77-.86l1.38-17a.73.73,0,0,1,.86-.76l1.52.05a.78.78,0,0,1,.67.34h6.36a.93.93,0,0,1-.08-.39v-2.53a.72.72,0,0,1,.81-.81H190a.72.72,0,0,1,.82.81v2.53a.93.93,0,0,1-.08.39h7.39c.54,0,.81.25.81.74s-.27.74-.81.74H181.44Zm4.93-1.1a.72.72,0,0,1-.81.81h-1.52a.72.72,0,0,1-.81-.81v-5.38a.72.72,0,0,1,.81-.81h1.52a.83.83,0,0,1,.64.24h2.95v-1.74h-3.46a.72.72,0,0,1-.81-.81v-2.75h-1.26c-.54,0-.81-.25-.81-.74s.27-.73.81-.73h1.26v-.89a.72.72,0,0,1,.81-.81h1.52a.72.72,0,0,1,.81.81v.89h5.72v-.89a.72.72,0,0,1,.81-.81h1.52a.72.72,0,0,1,.81.81v.89h1.87c.54,0,.81.24.81.73s-.27.74-.81.74h-1.87v2.92a.72.72,0,0,1-.81.81h-1.52a.81.81,0,0,1-.54-.17H191v1.74h5.13a.72.72,0,0,1,.82.81v5c0,.59-.29.84-.86.76l-3.37-.39c-.56-.09-.78-.36-.69-.84a.8.8,0,0,1,.94-.64l.83.1v-3.31H191V319a.72.72,0,0,1-.81.81h-1.52a.72.72,0,0,1-.81-.81v-5.3h-2.78Zm1.65-9.16h5.72v-2.09h-5.72Z" class="cls-11"/><path data-cppathid="10041" transform="translate(0 0)" d="M205.58,312.9s.06,0,.07,0V306l-3-2.58a1.09,1.09,0,0,1-.4-.78.73.73,0,0,1,.4-.67l.56-.32a.75.75,0,0,1,.35-.07.77.77,0,0,1,.51.17l1.57,1.35v-4a.78.78,0,0,1,.25-.59.82.82,0,0,1,.59-.25H208a.85.85,0,0,1,.84.84v19.62a.82.82,0,0,1-.25.59.81.81,0,0,1-.59.24h-1.47a.81.81,0,0,1-.59-.24.78.78,0,0,1-.25-.59v-3.56l-2,1.33a.74.74,0,0,1-.39.12.78.78,0,0,1-.44-.15l-.17-.12a.92.92,0,0,1-.42-.79.89.89,0,0,1,.44-.78Zm6.65,6.34a.64.64,0,0,1-.56.27l-.15,0-.15,0-.73-.3a.81.81,0,0,1-.62-.81,1,1,0,0,1,.23-.61A22.24,22.24,0,0,0,214.71,307H211a.87.87,0,0,1-.59-.21.69.69,0,0,1,0-1.06.87.87,0,0,1,.59-.21h3.95c.1-.91.17-1.88.22-2.89s.08-2.11.1-3.27a.85.85,0,0,1,.23-.6.78.78,0,0,1,.58-.23h1.5c.23,0,.42.16.59.47a2.43,2.43,0,0,1,.22,1.2c0,1,0,1.94-.11,2.82s-.14,1.72-.23,2.5h4.12a.87.87,0,0,1,.59.21.69.69,0,0,1,0,1.06.87.87,0,0,1-.59.21h-4.32c-.07.41-.13.8-.2,1.18a2.1,2.1,0,0,1,.15.22l5,9.65a.91.91,0,0,1,.13.44.8.8,0,0,1-.19.53.91.91,0,0,1-.53.31l-1.1.27a.92.92,0,0,1-.49-.05.67.67,0,0,1-.37-.35l-3.71-7.09a17.81,17.81,0,0,1-1.89,3.89C213.9,317.08,213.1,318.17,212.23,319.24Zm10.69-15.7a.82.82,0,0,1-.15.69.89.89,0,0,1-.61.35l-1.45.12a.86.86,0,0,1-.57-.15.69.69,0,0,1-.29-.49l-.72-3.56a.89.89,0,0,1,.15-.71.77.77,0,0,1,.62-.32l1.45-.13a.74.74,0,0,1,.85.64Z" class="cls-11"/><path data-cppathid="10042" transform="translate(0 0)" d="M230.31,313.71a1,1,0,0,1,.69-.34l.22,0a.77.77,0,0,1,.19.08l.76.32c.33.14.5.34.5.58a.76.76,0,0,1-.25.54l-3.51,3.81a1,1,0,0,1-.69.34l-.2,0a.64.64,0,0,0-.22-.06l-.76-.32c-.33-.15-.49-.35-.49-.59a.72.72,0,0,1,.25-.54ZM231.9,309a.69.69,0,0,1,.37.57.73.73,0,0,1-.37.56l-.39.27a1,1,0,0,1-.56.2,1.12,1.12,0,0,1-.57-.2l-3.26-2.26a.73.73,0,0,1-.37-.56.69.69,0,0,1,.37-.57l.39-.27a1,1,0,0,1,.56-.19.84.84,0,0,1,.57.19Zm.08-6.38a.77.77,0,0,1,.32.56.66.66,0,0,1-.42.57l-.56.29a1,1,0,0,1-.52.15.84.84,0,0,1-.59-.25l-3-2.55a.77.77,0,0,1-.32-.57.65.65,0,0,1,.42-.56l.56-.3a1.16,1.16,0,0,1,.52-.14.88.88,0,0,1,.59.24ZM234.26,319a.82.82,0,0,1-.73.49h-.15l-.15,0-1.15-.3c-.38-.09-.57-.3-.57-.61a1.27,1.27,0,0,1,.12-.44l4.06-7.25h-1.53a.72.72,0,0,1-.81-.81V299.34a.71.71,0,0,1,.81-.8h1.53a.7.7,0,0,1,.73.41h8.16a.72.72,0,0,1,.81.81V310a.72.72,0,0,1-.81.81h-1.53a.78.78,0,0,1-.22,0v6.88H244v-2.93a.72.72,0,0,1,.81-.81h1.52a.72.72,0,0,1,.81.81v3.59a.72.72,0,0,1-.81.81H240.5a.72.72,0,0,1-.81-.81V310.4h-.76a1,1,0,0,1-.12.44Zm8-18.54H236.5v8.49h5.74Z" class="cls-11"/></g><g data-name="Update Grades compact" id="Update_Grades_compact"><path data-cppathid="10043" transform="translate(0 0)" d="M403.28,237.46a12.39,12.39,0,0,1-12.39,12.38H12.38A12.38,12.38,0,0,1,0,237.46V176a12.38,12.38,0,0,1,12.38-12.38H390.89A12.39,12.39,0,0,1,403.28,176Z" class="cls-10"/><path data-cppathid="10044" transform="translate(0 0)" d="M145.91,216.93c0,.51-.29.76-.83.76l-1.5,0a.7.7,0,0,1-.79-.84l.69-15.05a1.23,1.23,0,0,1,.15-.5.61.61,0,0,1-.13-.41c0-.49.28-.74.82-.74h8.79l-.81-2.51a1,1,0,0,1-.05-.31c0-.38.22-.59.66-.64l1.38-.2h.19a.73.73,0,0,1,.76.61l1,3.07H163c.54,0,.81.25.81.74s-.27.73-.81.73h-6.32l2.12,6.56,2.23-3.58a.85.85,0,0,1,.74-.47,1.09,1.09,0,0,1,.32,0l1.05.32c.38.13.57.33.57.61a1,1,0,0,1-.15.44l-3.71,5.92,1.23,3.81,1.4-.37.27,0a.82.82,0,0,1,.76.52.93.93,0,0,1,.12.39c0,.33-.19.54-.59.64l-3.61.93a.32.32,0,0,1-.14,0h-.13a.74.74,0,0,1-.73-.59l-.64-2-1.33,2.13a.83.83,0,0,1-.73.47,1.48,1.48,0,0,1-.32-.05l-1.06-.32c-.38-.13-.56-.33-.56-.61a.83.83,0,0,1,.14-.44l2.8-4.47-3.17-9.88h-7a1.24,1.24,0,0,1,0,.27l-.2,4.23h5.95a.67.67,0,0,1,.76.83l-.76,9.63c0,.48-.27.71-.67.71a1,1,0,0,1-.27-.05l-3.88-.95c-.41-.1-.61-.3-.61-.59a.34.34,0,0,1,0-.18,1.07,1.07,0,0,0,.06-.17l0-.07a.85.85,0,0,1,.76-.52l.15,0,.15,0,1.23.3.61-7.52h-3.61ZM162,198.12c.28.18.42.37.42.59a.77.77,0,0,1-.29.54l-.25.19a1,1,0,0,1-.64.27,1.08,1.08,0,0,1-.46-.14l-3-1.65a.75.75,0,0,1-.42-.59.69.69,0,0,1,.3-.54l.24-.2a1,1,0,0,1,.64-.27.92.92,0,0,1,.47.15Z" class="cls-11"/><path data-cppathid="10045" transform="translate(0 0)" d="M169.34,216a.73.73,0,0,1-.88.73l-.79,0a.69.69,0,0,1-.73-.86l.31-3.73a.74.74,0,0,1,.89-.74l.78.05a.7.7,0,0,1,.74.86Zm4.28,1.05a.72.72,0,0,1-.81.81h-1.53a.72.72,0,0,1-.81-.81V210l-2.7.22c-.49,0-.74-.12-.74-.47a.85.85,0,0,1,.18-.49l2.25-3.51,0-.07-2.07-2.75a1,1,0,0,1-.22-.57.84.84,0,0,1,.22-.56l3.93-5.16a.86.86,0,0,1,.69-.39,1.19,1.19,0,0,1,.39.07l.94.32c.34.11.51.31.51.59a.87.87,0,0,1-.19.49l-3.52,4.64.84,1.11.88-1.38a.9.9,0,0,1,.76-.44,1,1,0,0,1,.32.05L174,202c.38.13.56.32.56.59a.64.64,0,0,1,0,.22c0,.08-.08.16-.13.24l-3.49,5.43,3-.24-.42-1.7a1.57,1.57,0,0,1,0-.25.65.65,0,0,1,.66-.71l.71-.1a.75.75,0,0,1,.94.64l.91,3.76a1.69,1.69,0,0,1,0,.25.65.65,0,0,1-.66.71l-.71.1a.74.74,0,0,1-.94-.64l-.15-.59h-.07l-.56,0a.84.84,0,0,1,.05.29Zm3.48-1.62a.7.7,0,0,1-.76.86l-.78.05a.72.72,0,0,1-.86-.74l-.32-3.07a.82.82,0,0,1,.17-.62.8.8,0,0,1,.59-.26l.78-.05a.72.72,0,0,1,.86.74ZM184,203.62v.07h3.56c.54,0,.81.25.81.74s-.27.74-.81.74H177.35c-.54,0-.81-.25-.81-.74s.27-.74.81-.74h3.49v-1H178.5c-.54,0-.81-.25-.81-.74s.27-.73.81-.73h2.34v-1.45h-3c-.54,0-.81-.25-.81-.74s.27-.74.81-.74h3v-.78a.72.72,0,0,1,.81-.81h1.52a.72.72,0,0,1,.81.81v.78h3c.54,0,.81.25.81.74s-.27.74-.81.74h-3v1.45h2.38c.54,0,.81.24.81.73s-.27.74-.81.74H184Zm-6.56,2.94a.72.72,0,0,1,.81-.81h1.53a.94.94,0,0,1,.49.13H187a.72.72,0,0,1,.81.81v7.61a.72.72,0,0,1-.81.81h-1.52A.91.91,0,0,1,185,215h-4.74a.94.94,0,0,1-.49.12h-1.53a.72.72,0,0,1-.81-.81ZM179,217.84a1,1,0,0,1-.44.1.9.9,0,0,1-.66-.32l-.12-.13a.76.76,0,0,1-.27-.51c0-.25.16-.44.49-.59l2.13-1a1.06,1.06,0,0,1,.45-.1.9.9,0,0,1,.66.32l.12.13a.76.76,0,0,1,.27.51c0,.25-.16.44-.49.59Zm5.68-10.49h-4.1v1h4.1Zm-4.1,3.64h4.1v-1.16h-4.1Zm0,2.53h4.1v-1.06h-4.1Zm7,3c.32.14.49.34.49.59a.87.87,0,0,1-.22.49l-.18.17a1,1,0,0,1-.68.34,1,1,0,0,1-.42-.09l-2.46-1.09c-.32-.14-.49-.34-.49-.58a.8.8,0,0,1,.22-.5l.18-.17a1,1,0,0,1,.68-.34.87.87,0,0,1,.42.1Z" class="cls-11"/><path data-cppathid="10046" transform="translate(0 0)" d="M206.4,216.9a.8.8,0,0,1-.64.35,1.05,1.05,0,0,1-.46-.12l-.74-.35c-.31-.15-.47-.34-.47-.59a1.08,1.08,0,0,1,.2-.51,8.73,8.73,0,0,0,.91-1.81,12.32,12.32,0,0,0,.61-2.25,12.86,12.86,0,0,0,.22-2.38,9.62,9.62,0,0,0-1.1-4.91,4.86,4.86,0,0,0-3.12-2.38,33.44,33.44,0,0,1,.59,5.84,12.73,12.73,0,0,1-1.41,6.49,4.55,4.55,0,0,1-4.17,2.38,5.27,5.27,0,0,1-2.92-.81,5.45,5.45,0,0,1-1.94-2.22,7.37,7.37,0,0,1-.69-3.26,10.45,10.45,0,0,1,.72-3.88,10.16,10.16,0,0,1,2-3.2,9.43,9.43,0,0,1,2.93-2.18,8.19,8.19,0,0,1,3.55-.78,9.52,9.52,0,0,1,4.66,1.07,7.25,7.25,0,0,1,3,3.06,10.07,10.07,0,0,1,1.06,4.78A11.09,11.09,0,0,1,206.4,216.9Zm-12-6.53a8,8,0,0,0,.34,2.4,5,5,0,0,0,.9,1.75,1.57,1.57,0,0,0,1.16.67c.46,0,.87-.34,1.22-1a10,10,0,0,0,.84-2.77,23.27,23.27,0,0,0,.3-3.93c0-.83,0-1.69-.11-2.58s-.19-1.78-.35-2.7a6.4,6.4,0,0,0-2.18,1.82A10.09,10.09,0,0,0,195,206.9,10.57,10.57,0,0,0,194.42,210.37Z" class="cls-11"/><path data-cppathid="10047" transform="translate(0 0)" d="M213.62,217.74a.87.87,0,0,1-.67-.17.84.84,0,0,1-.26-.67q0-.54.69-.66a7.74,7.74,0,0,0,4.47-2.72l-2.21-.69c-.38-.13-.57-.33-.57-.59a.84.84,0,0,1,.13-.39l.07-.13a.86.86,0,0,1,.71-.44.9.9,0,0,1,.37.07l2.51.79a16.94,16.94,0,0,0,1-2.09h-3a.76.76,0,0,1-.54.17h-1.52a.72.72,0,0,1-.81-.81V201a.72.72,0,0,1,.81-.81h1.52a.82.82,0,0,1,.64.24h4.77c0-.59,0-1.18.05-1.79v-.1h-9c-.54,0-.81-.24-.81-.73s.27-.74.81-.74h19.47c.54,0,.81.24.81.74s-.27.73-.81.73h-7.39a3.94,3.94,0,0,1,0,.52c0,.47,0,.93,0,1.37h5.77a.72.72,0,0,1,.81.81v8.13a.72.72,0,0,1-.81.81h-1.52a.76.76,0,0,1-.54-.17H223a15.94,15.94,0,0,1-1.55,2.9l11.08,3.41c.38.14.56.33.56.59a1,1,0,0,1-.12.4l-.07.12a.87.87,0,0,1-.71.44,1,1,0,0,1-.37-.07l-11.47-3.54A11.28,11.28,0,0,1,213.62,217.74Zm3.56-13h4.16c.13-.89.23-1.82.31-2.8h-4.47Zm0,3.83h3.25a19.33,19.33,0,0,0,.61-2.36h-3.86Zm6.39,0h4.77v-2.36h-4.16C224,207.06,223.8,207.84,223.57,208.58Zm4.77-6.63H224.8c-.08,1-.2,1.91-.35,2.8h3.89Z" class="cls-11"/><path data-cppathid="10048" transform="translate(0 0)" d="M238.9,217a.92.92,0,0,1-.72.37,1.29,1.29,0,0,1-.39-.08l-.88-.34c-.35-.15-.52-.35-.52-.62a.73.73,0,0,1,.2-.49l3.56-4.47H237c-.54,0-.81-.24-.81-.73s.27-.74.81-.74h3.83V208H237c-.54,0-.81-.25-.81-.74s.27-.73.81-.73h1.15v0l-.27-5.45v-.12h-.32c-.54,0-.81-.25-.81-.74s.27-.74.81-.74h3.07V197a.72.72,0,0,1,.81-.81h1.52a.72.72,0,0,1,.81.81v2.45h2.83c.54,0,.81.25.81.74a.73.73,0,0,1-.2.54.69.69,0,0,1-.51.2.78.78,0,0,1,0,.22l-.86,5.38h.68c.55,0,.82.24.82.73s-.27.74-.82.74h-2.55v1.94h2.14c.54,0,.81.24.81.74s-.27.73-.81.73h-2.14l2.63,2a.72.72,0,0,1,.34.54c0,.22-.14.41-.44.59l-.49.3a.92.92,0,0,1-.52.17.85.85,0,0,1-.61-.25l-.91-.71v3.37a.72.72,0,0,1-.81.81H241.6a.72.72,0,0,1-.81-.81v-2.78Zm2.35-10.64v.13h1.45a.86.86,0,0,1,0-.23l.86-5.37H241v0ZM250.19,217a.72.72,0,0,1-.86.78l-1.52-.05a.7.7,0,0,1-.76-.83l.81-15a1,1,0,0,1,.17-.52.77.77,0,0,1,0-.15.66.66,0,0,1,.42-.56l7.73-4.27a.86.86,0,0,1,1.11.12l.22.2a.8.8,0,0,1,.32.56.66.66,0,0,1-.42.57l-6.53,3.61a.71.71,0,0,1,.14.54l-.12,2.26h6.34c.54,0,.81.24.81.73s-.27.74-.81.74h-1v11.59a.72.72,0,0,1-.81.81h-1.52a.72.72,0,0,1-.81-.81V205.78h-2.31Z" class="cls-11"/></g><g id="heading"><g id="underline"><path data-cppathid="10049" transform="translate(0 0)" d="M343.52,43.44c-3.72-.11-7.44-.23-11.17-.33-1.08,0-2.16,0-3.24,0a20.14,20.14,0,0,1-2.93-.09,42.07,42.07,0,0,0-5.84-.25c-4.4-.08-8.8-.23-13.21-.3-2.24,0-4.47-.32-6.73-.15-3.47-.39-7,.07-10.54-.36a15.7,15.7,0,0,0-3.21,0,27.57,27.57,0,0,1-3.52,0c-1.84-.07-3.7-.06-5.55-.13A118,118,0,0,0,265,42a5.17,5.17,0,0,1-.88,0c-3.81-.37-7.65-.13-11.47-.17-.88,0-1.78,0-2.65-.07a40.22,40.22,0,0,0-7.28.12,63.41,63.41,0,0,1-7,0c-2.16,0-4.31,0-6.47,0-1.67,0-3.34.06-5,0-3.93-.12-7.85,0-11.76.15a14.76,14.76,0,0,1-1.76,0c-4.7-.34-9.41-.17-14.12-.12-1.67,0-3.34,0-5,0-2.35,0-4.7.1-7.05.16a23,23,0,0,1-2.34,0,33.18,33.18,0,0,0-5.55,0A15.37,15.37,0,0,1,174,42c-1.45-.16-2.92-.18-4.36-.29a63.09,63.09,0,0,0-6.74,0c-3.52.09-7.06.07-10.6.08-2.75,0-5.49,0-8.24,0-1.57,0-3.14,0-4.71,0a31,31,0,0,0-4.09.14A15.66,15.66,0,0,1,132,42a23.62,23.62,0,0,0-4.68,0,18.64,18.64,0,0,1-4.09,0,17.23,17.23,0,0,0-2-.08c-1,0-2,0-2.93,0-3.64-.15-7.27-.08-10.9,0-.48,0-1,0-1.46,0-4.8-.09-9.6-.2-14.41.06-1.74.09-3.52-.12-5.28-.11-3.24,0-6.48.11-9.71.1-2.75,0-5.49-.09-8.24-.18-2.05-.06-4.09-.14-6.16,0a28.66,28.66,0,0,1-5.56-.16,19.23,19.23,0,0,0-4.09-.13c-.48,0-1,0-1.47,0a3.74,3.74,0,0,1-3-1c-.54-.57-.21-1.58.71-2a4.32,4.32,0,0,1,1.59-.33c1.66,0,3.33,0,5,0,1.47,0,2.93.19,4.39.19,4,0,8.05,0,12.08,0,1.17,0,2.35,0,3.53,0a13.73,13.73,0,0,0,2,0,11,11,0,0,1,3.19-.06,4.65,4.65,0,0,0,1.17.06c3.47-.44,7,.27,10.51-.2a38,38,0,0,1,4.41,0c2,0,3.93,0,5.89,0,2.83-.05,5.67-.15,8.51,0a16.59,16.59,0,0,0,2.34,0,74.9,74.9,0,0,1,7.93-.12,39.09,39.09,0,0,0,5,0c.48-.05,1,0,1.47-.05,2.94-.07,5.87-.15,8.81-.2,1.07,0,2.14,0,3.22.07a11.59,11.59,0,0,0,1.75.07,35.46,35.46,0,0,1,5.83,0,12,12,0,0,0,1.47,0c4.28-.4,8.62-.13,12.93-.26,1.46-.05,2.94-.09,4.41-.11,2.24,0,4.48-.06,6.71,0,1.57,0,3.11,0,4.67-.07,1.35-.08,2.73,0,4.1,0,.88,0,1.76.11,2.63.07a67.58,67.58,0,0,1,10.26,0,5.72,5.72,0,0,0,1.16-.06,23.61,23.61,0,0,1,4.68,0,17.67,17.67,0,0,0,2.91,0,36.34,36.34,0,0,1,7.3,0,7.89,7.89,0,0,0,1.74.1c2.42-.23,4.87.05,7.28-.14a6.5,6.5,0,0,1,.88,0c5.48.36,11,.12,16.48.22,3.43.06,6.87,0,10.31,0,1,0,1.94.1,2.92.12.68,0,1.36,0,2,0a7.93,7.93,0,0,1,1.15-.09,38,38,0,0,0,6.13.14,87.46,87.46,0,0,1,9,.37,5.18,5.18,0,0,0,.88,0c2.84-.21,5.68.06,8.52,0,1.07,0,2.15.08,3.22.14a8,8,0,0,0,1.15.11c2.56-.28,5.06.13,7.6.12h.59a92.24,92.24,0,0,1,10.8.5,17.72,17.72,0,0,0,2.06.06c4-.07,8,.26,12,.43,1.16,0,2.28.3,3.44.36s2.14-.06,3.19,0q9.38.54,18.72,1.14c3.21.21,6.39.53,9.64.59a24.47,24.47,0,0,1,3.44.39,5.68,5.68,0,0,1,1.44.49c.42.19.21.71-.31.78a14.86,14.86,0,0,1-2,.16c-3.15,0-6.29,0-9.43,0Z" class="cls-11"/></g><path data-cppathid="10050" transform="translate(0 0)" d="M70.92,30.1a1.12,1.12,0,0,1-1,.61,1.91,1.91,0,0,1-.42-.06l-1.37-.42c-.49-.17-.74-.44-.74-.8a1.16,1.16,0,0,1,.19-.58L79.05,10.49H59.46q-1.05,0-1.05-1t1.05-1H82.85c.6,0,.9.22.9.67a1.32,1.32,0,0,1-.19.61ZM82,9.92a6.62,6.62,0,0,1-2.76-.57,4.9,4.9,0,0,1-2-1.52,3.48,3.48,0,0,1-.73-2.16,3.52,3.52,0,0,1,.73-2.16A5,5,0,0,1,79.2,2,6.77,6.77,0,0,1,82,1.45,6.68,6.68,0,0,1,84.73,2a4.94,4.94,0,0,1,2,1.51,3.52,3.52,0,0,1,.73,2.16,3.48,3.48,0,0,1-.73,2.16,4.87,4.87,0,0,1-2,1.52A6.53,6.53,0,0,1,82,9.92ZM81.87,8.5A1.9,1.9,0,0,0,83,8.1a3.15,3.15,0,0,0,.92-1,2.7,2.7,0,0,0,.37-1.38,2.8,2.8,0,0,0-.36-1.39,3,3,0,0,0-.9-1,1.88,1.88,0,0,0-2.29,0,3,3,0,0,0-.93,1,2.9,2.9,0,0,0-.35,1.39,2.7,2.7,0,0,0,.37,1.38,3.15,3.15,0,0,0,.92,1A1.9,1.9,0,0,0,81.87,8.5Z" class="cls-11"/><path data-cppathid="10051" transform="translate(0 0)" d="M114.79,29.27a.94.94,0,0,1-1.05,1.06h-2a.92.92,0,0,1-1-.68H94.47a.92.92,0,0,1-1,.68h-2a.94.94,0,0,1-1-1.06V9.81a.93.93,0,0,1,1-1.05h2a1.29,1.29,0,0,1,.29,0h20a.93.93,0,0,1,1.05,1.06ZM110.7,10.71H94.54v17H110.7Z" class="cls-11"/><path data-cppathid="10052" transform="translate(0 0)" d="M124.36,20.18a1,1,0,0,1-.9.61.75.75,0,0,1-.22,0l-.23,0-1.5-.39c-.49-.13-.74-.39-.74-.8a1.37,1.37,0,0,1,.16-.57l7.14-12.61a1,1,0,0,1,.9-.61.75.75,0,0,1,.22,0l.22,0,1.51.39c.49.13.73.39.73.8a1.24,1.24,0,0,1-.16.57l0,.07H145c.62,0,.93.23.93.7a1.33,1.33,0,0,1-.2.58L133.51,30.1a1.12,1.12,0,0,1-1,.61l-.19,0-.23,0-1.44-.39c-.51-.13-.76-.39-.76-.8a1.1,1.1,0,0,1,.19-.57L135,20.47l-.06,0-6.11-3.65a.84.84,0,0,1-.55-.74,1,1,0,0,1,.45-.73l.38-.32a1.2,1.2,0,0,1,.8-.32,1.17,1.17,0,0,1,.68.22l5.66,3.39,5.06-8.73H130.37ZM146.5,7.68a1,1,0,0,1,0,.27c0,.4-.28.63-.86.67l-.93.1c-.66.08-1.06-.13-1.21-.63L141.86,3a.88.88,0,0,1,0-.26c0-.41.29-.63.86-.68l.93-.1c.69-.08,1.1.13,1.25.63ZM150,6.2a1,1,0,0,1,0,.27c0,.37-.27.6-.83.68l-.93.12c-.68.08-1.09-.13-1.24-.63L145.41,1.9a.83.83,0,0,1,0-.15.59.59,0,0,1,0-.14c0-.36.29-.57.86-.65l.93-.13c.69-.08,1.1.13,1.25.63Z" class="cls-11"/><path data-cppathid="10053" transform="translate(0 0)" d="M154.09,19.8a1.12,1.12,0,0,1-.93.57,1.45,1.45,0,0,1-.48-.09l-1.31-.42c-.49-.17-.74-.44-.74-.8a1.09,1.09,0,0,1,.22-.61l7.43-11.23a1.09,1.09,0,0,1,.93-.57,1.28,1.28,0,0,1,.48.09l1.31.42c.49.17.73.44.73.8a1.2,1.2,0,0,1-.22.61l-.13.19h14.75c.6,0,.9.22.9.67a1.32,1.32,0,0,1-.19.61L164,30.61a1.12,1.12,0,0,1-1,.61,1.91,1.91,0,0,1-.42-.06l-1.37-.42c-.49-.17-.74-.44-.74-.8a1.1,1.1,0,0,1,.19-.57l11.59-18.69H160.1Z" class="cls-11"/><path data-cppathid="10054" transform="translate(0 0)" d="M188.49,30.29a.94.94,0,0,1-1.06,1.06h-2a.93.93,0,0,1-1.06-1.06V8.05A.93.93,0,0,1,185.45,7h2a.94.94,0,0,1,1.06,1.05v9.09l11.58,3.75c.49.17.74.42.74.76a1,1,0,0,1-.2.55l-.12.16a1.08,1.08,0,0,1-.93.54h-.21l-.24-.05-10.62-3.43Z" class="cls-11"/><path data-cppathid="10055" transform="translate(0 0)" d="M209.29,28.92a1,1,0,0,1-1.22.8l-1.86-.23c-.59-.06-.89-.36-.89-.89a1.78,1.78,0,0,1,.06-.35l5.41-18.79a1,1,0,0,1,1.22-.8l1.85.23c.6.06.9.36.9.89a1.38,1.38,0,0,1-.07.35Zm21.21-.74a1.8,1.8,0,0,1,.05.19,1.36,1.36,0,0,1,0,.2c0,.51-.29.8-.87.86l-1.89.22a1,1,0,0,1-1.21-.8L221.29,10a.77.77,0,0,1,0-.19,1.36,1.36,0,0,1,0-.2c0-.51.29-.8.87-.86L224,8.57a1,1,0,0,1,1.22.83Zm-1.18-17.65a1.12,1.12,0,0,1,0,.29c0,.44-.29.69-.86.74l-.93.11c-.66.08-1.07-.15-1.22-.69l-1.66-5.56a1.12,1.12,0,0,1,0-.29c0-.44.28-.69.86-.74l.93-.1c.68-.09,1.1.14,1.25.68Zm3.52-1.62a1.21,1.21,0,0,1,0,.3c0,.4-.28.65-.83.74l-.93.13c-.68.09-1.1-.14-1.25-.69l-1.63-5.18a1.42,1.42,0,0,1,0-.16.92.92,0,0,1,0-.16c0-.39.28-.63.86-.72L230,3c.68-.09,1.1.14,1.25.69Z" class="cls-11"/><path data-cppathid="10056" transform="translate(0 0)" d="M240.23,20.57a1.56,1.56,0,0,1,0,.35c0,.51-.29.8-.86.86l-1.86.23a1.07,1.07,0,0,1-1.25-.87l-1.21-4.93a.58.58,0,0,1,0-.19v-.16c0-.51.28-.8.86-.86l1.86-.23a1,1,0,0,1,1.21.87Zm5.25-.8a.85.85,0,0,1,0,.25q0,.84-1,.93l-1.92.16a1,1,0,0,1-1.18-.93l-.87-4.93a.85.85,0,0,1,0-.25q0-.84,1-.93l1.92-.16a1,1,0,0,1,1.18.93Zm1.69,10.52a1.06,1.06,0,0,1-1,.71H246a.38.38,0,0,1-.16,0l-1.63-.39c-.51-.13-.77-.39-.77-.8a1.13,1.13,0,0,1,.13-.54L250,15.89a1.07,1.07,0,0,1,1-.7h.16a.41.41,0,0,1,.16,0l1.63.39c.51.12.77.39.77.8a1.26,1.26,0,0,1-.13.54Z" class="cls-11"/><path data-cppathid="10057" transform="translate(0 0)" d="M261.54,19.8a1.09,1.09,0,0,1-.93.57,1.45,1.45,0,0,1-.48-.09l-1.31-.42c-.49-.17-.73-.44-.73-.8a1.09,1.09,0,0,1,.22-.61l7.42-11.23a1.12,1.12,0,0,1,.93-.57,1.28,1.28,0,0,1,.48.09l1.31.42c.49.17.74.44.74.8a1.3,1.3,0,0,1-.22.61l-.13.19h14.75c.6,0,.9.22.9.67a1.35,1.35,0,0,1-.2.61l-12.8,20.57a1.1,1.1,0,0,1-1,.61,1.91,1.91,0,0,1-.41-.06l-1.38-.42c-.49-.17-.73-.44-.73-.8a1.1,1.1,0,0,1,.19-.57l11.58-18.69H267.56Z" class="cls-11"/><path data-cppathid="10058" transform="translate(0 0)" d="M315,29.27a.94.94,0,0,1-1.05,1.06h-2a.92.92,0,0,1-1-.68H294.66a.92.92,0,0,1-1,.68h-2a.94.94,0,0,1-1.06-1.06V9.81a.93.93,0,0,1,1.06-1.05h2a1.29,1.29,0,0,1,.29,0h20A.93.93,0,0,1,315,9.85Zm-4.09-18.56H294.73v17h16.16Z" class="cls-11"/><path data-cppathid="10059" transform="translate(0 0)" d="M324.39,19.8a1.12,1.12,0,0,1-.93.57,1.45,1.45,0,0,1-.48-.09l-1.31-.42c-.49-.17-.74-.44-.74-.8a1.11,1.11,0,0,1,.23-.61l7.42-11.23a1.12,1.12,0,0,1,.93-.57,1.28,1.28,0,0,1,.48.09l1.31.42c.49.17.74.44.74.8a1.22,1.22,0,0,1-.23.61l-.13.19h14.76c.59,0,.89.22.89.67a1.32,1.32,0,0,1-.19.61l-12.8,20.57a1.1,1.1,0,0,1-1,.61,1.83,1.83,0,0,1-.41-.06l-1.38-.42c-.49-.17-.74-.44-.74-.8a1.12,1.12,0,0,1,.2-.57l11.58-18.69H330.41ZM347.27,9.08a1.56,1.56,0,0,1,0,.35.84.84,0,0,1-.86.9l-.93.12a1,1,0,0,1-1.22-.83L342.63,2.9a1.56,1.56,0,0,1,0-.35.84.84,0,0,1,.86-.9l.93-.12a1,1,0,0,1,1.25.83Zm3.52-1.95a1.56,1.56,0,0,1,0,.35.86.86,0,0,1-.83.89l-.93.16a1,1,0,0,1-1.25-.83l-1.63-6.27a1.33,1.33,0,0,1-.05-.19,1.28,1.28,0,0,1,0-.19c0-.47.29-.76.86-.87l.93-.16a1,1,0,0,1,1.25.83Z" class="cls-11"/></g></g></g></g><g id="lader"><path data-cppathid="10060" transform="translate(0 0)" d="M552.87,1017.77c.53,2.25-.15,4.33-1.52,4.65h0c-1.36.33-2.9-1.24-3.43-3.48L489.3,770.15c-.53-2.25.14-4.34,1.51-4.66h0c1.37-.32,2.91,1.24,3.44,3.49Z" class="cls-12"/><path data-cppathid="10061" transform="translate(0 0)" d="M521.33,1035.48a4.2,4.2,0,0,1-3.12,5h0a4.19,4.19,0,0,1-5-3.11L451.8,776.93a4.2,4.2,0,0,1,3.12-5h0a4.19,4.19,0,0,1,5,3.12Z" class="cls-13"/><path data-cppathid="10062" transform="translate(0 0)" d="M497.91,790.78a2.78,2.78,0,0,1-2.29,3.19l-29.19,4.8a2.77,2.77,0,0,1-3.19-2.28h0a2.78,2.78,0,0,1,2.29-3.19l29.19-4.8a2.77,2.77,0,0,1,3.19,2.28Z" class="cls-13"/><path data-cppathid="10063" transform="translate(0 0)" d="M507.8,832.75a2.78,2.78,0,0,1-2.29,3.19l-29.19,4.8a2.77,2.77,0,0,1-3.19-2.28h0a2.77,2.77,0,0,1,2.29-3.19l29.19-4.8a2.77,2.77,0,0,1,3.19,2.28Z" class="cls-13"/><path data-cppathid="10064" transform="translate(0 0)" d="M518.17,876.6a2.76,2.76,0,0,1-2,3.35l-28.74,7a2.77,2.77,0,0,1-3.35-2h0a2.77,2.77,0,0,1,2-3.35l28.74-7a2.77,2.77,0,0,1,3.35,2Z" class="cls-13"/><path data-cppathid="10065" transform="translate(0 0)" d="M528.64,921.1a2.78,2.78,0,0,1-1.9,3.43l-28.45,8.13a2.77,2.77,0,0,1-3.43-1.9h0a2.78,2.78,0,0,1,1.9-3.43l28.45-8.13a2.77,2.77,0,0,1,3.43,1.9Z" class="cls-13"/><path data-cppathid="10066" transform="translate(0 0)" d="M540.09,970.15a2.77,2.77,0,0,1-1.65,3.55l-27.79,10.18a2.77,2.77,0,0,1-3.55-1.65h0a2.77,2.77,0,0,1,1.65-3.56l27.78-10.17a2.77,2.77,0,0,1,3.56,1.65Z" class="cls-13"/><path data-cppathid="10067" transform="translate(0 0)" d="M494.57,763.56c.53,2.25-.15,4.33-1.51,4.66h0c-1.37.32-2.91-1.24-3.44-3.49L431,515.94c-.53-2.25.14-4.33,1.51-4.66h0c1.37-.32,2.91,1.24,3.44,3.49Z" class="cls-12"/><path data-cppathid="10068" transform="translate(0 0)" d="M463,781.27a4.19,4.19,0,0,1-3.12,5h0a4.18,4.18,0,0,1-5-3.11L393.5,522.72a4.19,4.19,0,0,1,3.12-5h0a4.18,4.18,0,0,1,5,3.11Z" class="cls-13"/><path data-cppathid="10069" transform="translate(0 0)" d="M439.61,536.58a2.77,2.77,0,0,1-2.29,3.18l-29.19,4.8a2.77,2.77,0,0,1-3.19-2.28h0a2.78,2.78,0,0,1,2.29-3.19l29.19-4.8a2.78,2.78,0,0,1,3.19,2.29Z" class="cls-13"/><path data-cppathid="10070" transform="translate(0 0)" d="M449.5,578.55a2.77,2.77,0,0,1-2.29,3.18L418,586.53a2.77,2.77,0,0,1-3.19-2.28h0a2.77,2.77,0,0,1,2.29-3.19l29.19-4.8a2.78,2.78,0,0,1,3.19,2.29Z" class="cls-13"/><path data-cppathid="10071" transform="translate(0 0)" d="M459.87,622.39a2.77,2.77,0,0,1-2,3.36l-28.74,7a2.77,2.77,0,0,1-3.35-2h0a2.78,2.78,0,0,1,2-3.36l28.74-7a2.77,2.77,0,0,1,3.35,2Z" class="cls-13"/><path data-cppathid="10072" transform="translate(0 0)" d="M470.34,666.89a2.78,2.78,0,0,1-1.9,3.43L440,678.45a2.77,2.77,0,0,1-3.43-1.9h0a2.78,2.78,0,0,1,1.9-3.43L466.91,665a2.78,2.78,0,0,1,3.43,1.9Z" class="cls-13"/><path data-cppathid="10073" transform="translate(0 0)" d="M481.79,715.94a2.77,2.77,0,0,1-1.65,3.55l-27.79,10.18A2.77,2.77,0,0,1,448.8,728h0a2.77,2.77,0,0,1,1.65-3.56l27.78-10.17a2.77,2.77,0,0,1,3.56,1.65Z" class="cls-13"/></g></g></svg>