<?xml version="1.0" encoding="UTF-8"?>
<svg xmlns="http://www.w3.org/2000/svg" onmouseup="{ if(window.parent.document.onmouseup) window.parent.document.onmouseup(arguments[0]);}" viewBox="0 0 404.44 267.68"><defs><style>.cls-1{fill:#fff100;}.cls-2{fill:#603813;}</style></defs><g data-name="Layer 2" id="Layer_2"><g id="backlog"><g data-name="2023 jp" id="_2023_jp"><g data-name="almost-fully-refined Product Backlog" id="almost-fully-refined_Product_Backlog"><g data-name="今学期の View Grades PBI" id="今学期の_View_Grades_PBI"><path data-cppathid="10000" d="M10.41,0H394a10.41,10.41,0,0,1,10.41,10.41h0V257.27A10.41,10.41,0,0,1,394,267.68H10.41A10.41,10.41,0,0,1,0,257.27H0V10.42A10.42,10.42,0,0,1,10.41,0Z" class="cls-1" data-name="big sticky" id="big_sticky"/><path data-cppathid="10001" d="M16.69,94.08a.79.79,0,0,1-.74.53h-.12a.21.21,0,0,1-.12,0l-1.2-.24c-.4-.09-.6-.31-.6-.64a.86.86,0,0,1,.07-.36l4.2-9.17a.79.79,0,0,1,.74-.53H19l.12,0,1.2.24q.6.15.6.6a1,1,0,0,1-.09.41l-1.3,2.86h4.25V83.54a.7.7,0,0,1,.79-.79H26.1a.7.7,0,0,1,.79.79v4.23h6.53c.53,0,.79.24.79.72s-.26.72-.79.72H26.89v6h5.57c.53,0,.79.24.79.72s-.26.72-.79.72H26.89v5.21h7.25c.53,0,.79.24.79.72s-.26.72-.79.72H15.08c-.52,0-.79-.24-.79-.72s.27-.72.79-.72h8.74V96.67H17.39c-.53,0-.79-.24-.79-.72s.26-.72.79-.72h6.43v-6H18.9Z" class="cls-2"/><path data-cppathid="10002" d="M40.24,96.65a.92.92,0,0,1-.65.31,1.23,1.23,0,0,1-.43-.12l-.68-.31c-.3-.15-.45-.34-.45-.58a.8.8,0,0,1,.26-.53l5.93-5.83a.9.9,0,0,1,.65-.31,1.28,1.28,0,0,1,.43.12l.67.31c.31.15.46.34.46.58a.78.78,0,0,1-.27.53l-2,1.94a.87.87,0,0,1,.14.5v9.8a.7.7,0,0,1-.79.79H42.06a.7.7,0,0,1-.79-.79V95.64Zm.57-6.48a.85.85,0,0,1-.69.36,1.54,1.54,0,0,1-.39-.07l-.86-.34q-.51-.21-.51-.6a.75.75,0,0,1,.22-.48l4.7-5.86a.89.89,0,0,1,.7-.36,1.18,1.18,0,0,1,.38.08l.87.33c.33.15.5.35.5.6a.78.78,0,0,1-.21.48ZM48,102.74a.74.74,0,0,1-.88.68l-1.44-.15c-.55,0-.77-.34-.68-.89l1.47-7.17a.73.73,0,0,1,.89-.67l1.44.14c.54,0,.76.34.67.89l-.84,4.15,2.45.53V93.17a.9.9,0,0,1,.12-.48H46.84c-.53,0-.8-.24-.8-.72s.27-.72.8-.72h4.1V86.93h-4.1c-.53,0-.8-.24-.8-.72s.27-.72.8-.72h4.1v-2a.7.7,0,0,1,.79-.79h1.49a.7.7,0,0,1,.79.79v2H57.3c.53,0,.79.24.79.72s-.26.72-.79.72H54v4.32h4.25c.53,0,.79.24.79.72s-.26.72-.79.72H54a.9.9,0,0,1,.12.48V95.9h3.67c.53,0,.79.24.79.72s-.26.72-.79.72H54.11v3.27a.87.87,0,0,1,0,.31l4.61,1c.41.1.62.29.62.58a.67.67,0,0,1-.07.31l0,0a.81.81,0,0,1-.77.53h-.12a.21.21,0,0,1-.12,0l-9.91-2.21Z" class="cls-2"/><path data-cppathid="10003" d="M77.75,100.9a1.71,1.71,0,0,1,.45-.08,1.2,1.2,0,0,1,.33.05.92.92,0,0,1,.3.17l.19.14a.7.7,0,0,1,.36.58c0,.27-.18.44-.53.5-.57.13-1.29.26-2.13.38s-1.73.21-2.64.28-1.77.11-2.57.11a17.45,17.45,0,0,1-4.83-.59,7.41,7.41,0,0,1-3.19-1.68,3.48,3.48,0,0,1-1.13-2.6,3.8,3.8,0,0,1,1-2.54,11.2,11.2,0,0,1,3.4-2.38l-3-6.38a.86.86,0,0,1-.1-.41c0-.31.19-.51.58-.6l1.22-.27.26,0a.77.77,0,0,1,.75.5l2.85,6c1.09-.45,2.34-.91,3.74-1.39s3-1,4.71-1.51a.49.49,0,0,1,.18,0h.18a.77.77,0,0,1,.72.43v0a.86.86,0,0,1,.15.45c0,.27-.2.47-.58.6q-3.84,1.18-6.36,2.11a27.51,27.51,0,0,0-4,1.78,6.34,6.34,0,0,0-2,1.7,3.27,3.27,0,0,0-.6,1.9,2.79,2.79,0,0,0,1.42,2.6,9.65,9.65,0,0,0,4.65.83c.77,0,1.55,0,2.35-.09s1.54-.15,2.23-.26A12.82,12.82,0,0,0,77.75,100.9Z" class="cls-2"/><path data-cppathid="10004" d="M95.32,95.45a.73.73,0,0,1,.81-.79h1.49a.68.68,0,0,1,.77.81,10.24,10.24,0,0,1-1.18,4.43,7,7,0,0,1-2.83,2.84,8.69,8.69,0,0,1-4.25,1A7.3,7.3,0,0,1,84.91,102,6.47,6.47,0,0,1,83,97c0-.43,0-1,0-1.68s.07-1.45.12-2.27.1-1.66.16-2.52.14-1.67.21-2.45.14-1.45.2-2,.34-.72.87-.69l1.44.09a.69.69,0,0,1,.72.84c-.07.56-.13,1.22-.2,2s-.12,1.56-.19,2.4-.12,1.67-.17,2.48-.08,1.54-.1,2.22,0,1.21,0,1.63a6.33,6.33,0,0,0,1,3.93,3.55,3.55,0,0,0,3,1.35,4.33,4.33,0,0,0,3.65-1.83A9,9,0,0,0,95.32,95.45Z" class="cls-2"/><path data-cppathid="10005" d="M115.57,101.86c.51,0,.77.28.77.74s-.27.73-.82.7a17,17,0,0,1-3.78-.6,11.11,11.11,0,0,1-3-1.37,7,7,0,0,1-2-2,4.45,4.45,0,0,1-.73-2.46,7.73,7.73,0,0,1,1.59-4.71A12.59,12.59,0,0,1,112,88.54l-10.08.72a.72.72,0,0,1-.86-.82c0-.37.24-.58.72-.62l15.09-1.08a.82.82,0,0,1,.94.62,1.74,1.74,0,0,1,0,.26c0,.32-.22.55-.65.68a13.63,13.63,0,0,0-4.37,1.89,9.25,9.25,0,0,0-2.81,3,7.39,7.39,0,0,0-1,3.72,4.22,4.22,0,0,0,.59,2.3,4.67,4.67,0,0,0,1.56,1.5,7.91,7.91,0,0,0,2.12.85A14.16,14.16,0,0,0,115.57,101.86Z" class="cls-2"/><path data-cppathid="10006" d="M128.12,103.66a.74.74,0,0,1,.27.52c0,.23-.15.41-.46.56l-.45.21a.93.93,0,0,1-1.11-.21L122,100.3a.78.78,0,0,1-.27-.53c0-.23.15-.41.46-.55l.45-.22a1.05,1.05,0,0,1,.44-.1.89.89,0,0,1,.67.32Z" class="cls-2"/><path data-cppathid="10007" d="M165.3,101.52a.84.84,0,0,1,.6.14.68.68,0,0,1,.26.6.62.62,0,0,1-.21.47,1,1,0,0,1-.55.25l-6.77.87h-.21l-.39,0-10.85-1.1a1.1,1.1,0,0,1-.71-.33.88.88,0,0,1-.25-.63,1.2,1.2,0,0,1,.29-.75L148,99.24l-1.6-2.47a.62.62,0,0,1-.12-.36.82.82,0,0,1,.09-.34l2.35-4.56h-2.49a.89.89,0,0,1-.58-.2.66.66,0,0,1-.24-.52.63.63,0,0,1,.24-.51.84.84,0,0,1,.58-.21H151a1,1,0,0,1,.71.27A.86.86,0,0,1,152,91a1,1,0,0,1-.12.51l-2.55,4.94,1.56,2.38a.71.71,0,0,1,.12.38.82.82,0,0,1-.19.53l-1.51,1.73,9.24.91Zm-14.23-14a.79.79,0,0,1,.09.38.8.8,0,0,1-.18.52.88.88,0,0,1-.51.3l-1.13.24a.68.68,0,0,1-.84-.43l-1.87-4.13-.06-.19a.46.46,0,0,1,0-.19.73.73,0,0,1,.21-.52.94.94,0,0,1,.51-.3l1.11-.24a.68.68,0,0,1,.84.43Zm4.7,12.22a.82.82,0,0,1-.81.81h-1.44a.82.82,0,0,1-.82-.81V89.47a.82.82,0,0,1,.82-.81H155a.82.82,0,0,1,.43.12h3.12l-2.4-1.42a1,1,0,0,1-.58-.86.56.56,0,0,1,.19-.44l.39-.31a.58.58,0,0,1,.43-.17.68.68,0,0,1,.38.12l2.93,1.71a1.36,1.36,0,0,1,.12-.17l1.9-2.16h-8.28a.89.89,0,0,1-.58-.2.68.68,0,0,1,0-1,.89.89,0,0,1,.58-.2h10.27a1.09,1.09,0,0,1,.83.31,1,1,0,0,1,.3.72,1.14,1.14,0,0,1-.31.79l-2.88,3.29,0,0h3.1a.82.82,0,0,1,.81.81V99.82a.78.78,0,0,1-.25.61.82.82,0,0,1-.63.2l-2.16-.14a1,1,0,0,1-.62-.27.57.57,0,0,1-.18-.52v0c.08-.48.24-.7.46-.67l.31,0V97.51h-1.92V99.7a.82.82,0,0,1-.81.81h-1.44a.82.82,0,0,1-.82-.81V97.51h-1.85Zm1.85-9.39v-.09h-1.85v2.44h1.85Zm-1.85,5.76h1.85v-2h-1.85Zm4.92-5.76v2.35h1.92V90.22h-1.92Zm0,5.76h1.92v-2h-1.92Z" class="cls-2"/><path data-cppathid="10008" d="M172.4,103.42a.86.86,0,0,1-.72.43,1.5,1.5,0,0,1-.31,0l-1.05-.31c-.36-.11-.53-.31-.53-.58a.94.94,0,0,1,.14-.45,27.11,27.11,0,0,0,3.1-8h-2.35c-.53,0-.8-.24-.8-.72s.27-.72.8-.72h2.64a37.69,37.69,0,0,0,.52-5.92V87h-1.08l-.5,4.32a.71.71,0,0,1-.86.72L169.91,92a.81.81,0,0,1-.58-.25.79.79,0,0,1-.14-.62l.91-7.65a.72.72,0,0,1,.86-.72l1.49.09a.77.77,0,0,1,.58.26.75.75,0,0,1,.14.61L173,85.58h5.44c.53,0,.8.24.8.72s-.27.72-.8.72h-1.56a3.12,3.12,0,0,1,0,.65q0,1.48-.18,2.82c-.09.89-.2,1.73-.35,2.53h2.28c.53,0,.8.24.8.72s-.27.72-.8.72H176.1l0,.2a.72.72,0,0,1,.12.21l3,7a1.07,1.07,0,0,1,.07.19.62.62,0,0,1,0,.19q0,.45-.6.6l-1.27.26a.21.21,0,0,1-.12,0h-.12a.8.8,0,0,1-.74-.55l-1.63-3.8a23.92,23.92,0,0,1-1.11,2.44C173.25,102,172.84,102.71,172.4,103.42Zm7.37-17a.7.7,0,0,1,.79-.79h1.49a.72.72,0,0,1,.7.36h6.12a.7.7,0,0,1,.79.79v15.65a.7.7,0,0,1-.79.79h-1.49a.7.7,0,0,1-.79-.79h-3.75a.7.7,0,0,1-.79.79h-1.49a.7.7,0,0,1-.79-.79Zm6.82,1h-3.75V101h3.75Z" class="cls-2"/><path data-cppathid="10009" d="M195.76,101.33a1,1,0,0,1-.68.33l-.19,0a.65.65,0,0,0-.21-.06l-.75-.31c-.32-.15-.48-.34-.48-.58a.74.74,0,0,1,.24-.53l5.4-5.85h-5.18c-.53,0-.79-.24-.79-.72s.26-.72.79-.72h8.37V90.94H196c-.53,0-.8-.24-.8-.72s.27-.72.8-.72h6.28V87.05H195c-.52,0-.79-.24-.79-.72s.27-.72.79-.72h7.32V84a.7.7,0,0,1,.8-.79h1.48a.7.7,0,0,1,.8.79v1.61h7.34c.53,0,.79.24.79.72s-.26.72-.79.72h-7.34V89.5h6.31c.53,0,.79.24.79.72s-.26.72-.79.72h-6.31v1.92h8.37c.53,0,.79.24.79.72s-.26.72-.79.72H202.07a.77.77,0,0,1-.24.45l-1.42,1.54a.71.71,0,0,1,.22.57v5.55l2-.17a.79.79,0,0,1,.66.19.85.85,0,0,1,.25.65c0,.37-.24.58-.72.62l-4.44.36a.65.65,0,0,1-.81-.74V99.38Zm17.68.93c.32.15.48.34.48.58a.67.67,0,0,1-.21.46l-.17.16a.87.87,0,0,1-.65.32,1,1,0,0,1-.43-.1L202.12,99.1c-.32-.15-.48-.34-.48-.58a.67.67,0,0,1,.21-.46l.17-.16a.87.87,0,0,1,.65-.32,1,1,0,0,1,.43.1Zm-5.52-3.21a1,1,0,0,1-.48.14.84.84,0,0,1-.62-.29l-.19-.16a.78.78,0,0,1-.27-.53.67.67,0,0,1,.44-.58l5-2.57a1,1,0,0,1,.48-.14.88.88,0,0,1,.62.29l.19.17a.74.74,0,0,1,.27.52.66.66,0,0,1-.44.58Z" class="cls-2"/><path data-cppathid="10010" d="M231.3,97.94c0,.55-.23.82-.79.82H229c-.5,0-.76-.26-.79-.79a10.36,10.36,0,0,0-.19-1.42,20.76,20.76,0,0,0-3.94,2c-.94.66-1.42,1.27-1.42,1.81s.33.84,1,1.07a9.6,9.6,0,0,0,3,.35,14.05,14.05,0,0,0,6.29-1.35,1.08,1.08,0,0,1,.5-.14.85.85,0,0,1,.58.24l.24.19a.72.72,0,0,1,.31.55.63.63,0,0,1-.43.56,15.26,15.26,0,0,1-2.22.72,26.42,26.42,0,0,1-2.62.49,20.12,20.12,0,0,1-2.65.18,15,15,0,0,1-3.53-.39,7.81,7.81,0,0,1-2.57-1,1.79,1.79,0,0,1-1-1.44,2.46,2.46,0,0,1,1-1.69,12.89,12.89,0,0,1,2.75-1.84A35.94,35.94,0,0,1,227.56,95a4.07,4.07,0,0,0-1.1-1.5A2.23,2.23,0,0,0,225,93a2.65,2.65,0,0,0-1.56.49A5,5,0,0,0,222.13,95a.9.9,0,0,1-.53.48l0,0h-.1a.05.05,0,0,1,0,0h-.22a.21.21,0,0,1-.12,0L220,95.28l-.15,0c-.33-.11-.5-.3-.5-.57a.83.83,0,0,1,.1-.41l2.35-4.9h-3.7c-.53,0-.79-.24-.79-.72s.26-.72.79-.72h4.39l.87-1.82a.8.8,0,0,1,.77-.53h.12l.12,0,1.22.29c.38.1.58.3.58.6a1,1,0,0,1-.1.41l-.5,1h7.63c.53,0,.79.24.79.72s-.26.72-.79.72h-8.31l-1.1,2.31a6.75,6.75,0,0,1,1.27-.12,6.38,6.38,0,0,1,3,.67,5.49,5.49,0,0,1,2.11,1.92c1.22-.4,2.5-.78,3.84-1.13l.17,0h.15a.81.81,0,0,1,.72.48.93.93,0,0,1,.12.39c0,.32-.2.52-.6.62-1.32.35-2.55.72-3.7,1.1A9.13,9.13,0,0,1,231.3,97.94Z" class="cls-2"/><path data-cppathid="10011" d="M241.36,102.07a.69.69,0,0,1-.82.75l-1.49,0c-.54,0-.8-.31-.77-.82l.24-3.65a.68.68,0,0,1,.82-.74l1.49,0a.71.71,0,0,1,.77.84Zm3.76,1.06a.7.7,0,0,1-.79.79h-1.49a.7.7,0,0,1-.79-.79V96.22l-2.9.21q-.72,0-.72-.45a.75.75,0,0,1,.17-.46L240.92,92l-2.18-2.69a.92.92,0,0,1-.22-.52.81.81,0,0,1,.27-.58L244,83a.94.94,0,0,1,.65-.32,1.23,1.23,0,0,1,.43.12l.68.32a.64.64,0,0,1,.45.57.78.78,0,0,1-.26.53l-4.56,4.54.89,1.08,1.65-2.5a.82.82,0,0,1,.7-.43A.89.89,0,0,1,245,87l1,.31c.37.13.55.33.55.6a.91.91,0,0,1-.16.46l-4.2,6.38,2.64-.19-.44-1.7a1.87,1.87,0,0,1,0-.27c0-.38.22-.6.65-.65l1.39-.16a.79.79,0,0,1,.94.64l.24,1,2.88-9.31a.75.75,0,0,1,.93-.6l1.37.21c.42.05.62.26.62.63v.14a.41.41,0,0,1,0,.17l-2.62,8.45h5.71l-2.16-8.55a.94.94,0,0,1,0-.26c0-.39.21-.6.65-.65l1.39-.17a.79.79,0,0,1,.93.65l2.57,10.13a.88.88,0,0,1,0,.26c0,.39-.22.6-.65.65l-1.39.17h-.08l-.4,7.8a.7.7,0,0,1-.87.72l-2.64-.27c-.54,0-.77-.32-.67-.81s.35-.72.67-.67l.48.07.39-7.63h-.53a.88.88,0,0,1,0,.24L252,103.22a.79.79,0,0,1-.92.65l-1.39-.17c-.45,0-.67-.27-.67-.67a1.66,1.66,0,0,1,0-.24l2-8.25h-.81l-.07.21a.76.76,0,0,1-.94.6l-1.25-.19.24,1a1.74,1.74,0,0,1,.05.26c0,.39-.23.6-.67.65l-1.39.17a.79.79,0,0,1-.94-.65L245.2,96h-.12a.85.85,0,0,1,0,.29Zm3.82-1.61a.69.69,0,0,1-.72.86l-1.49.08a.72.72,0,0,1-.84-.75l-.31-3a.69.69,0,0,1,.72-.86l1.49-.07a.71.71,0,0,1,.84.74Z" class="cls-2"/><path data-cppathid="10012" d="M264.42,103.78a1.47,1.47,0,0,1-.38.07.86.86,0,0,1-.7-.36l-.07-.1a.85.85,0,0,1-.22-.5c0-.24.16-.43.48-.58a14.63,14.63,0,0,0,4-2.46,11.31,11.31,0,0,0,2.67-3.59h-6.8c-.52,0-.79-.24-.79-.72s.27-.72.79-.72h7.4A24.25,24.25,0,0,0,272,88.94h-4.63L266,93.07a.77.77,0,0,1-1,.58l-1.35-.22c-.42-.08-.62-.29-.62-.65a.71.71,0,0,1,0-.14s0-.1,0-.17l3-8.9a.76.76,0,0,1,1-.58l1.34.22c.41.08.62.29.62.65V84a.41.41,0,0,1,0,.17l-1.13,3.33h4.27c.06-1,.1-2.09.12-3.26a.71.71,0,0,1,.79-.82h1.49c.53,0,.79.36.79,1.06,0,1.07-.06,2.08-.12,3h6.55c.53,0,.8.24.8.72s-.27.72-.8.72h-6.67a30,30,0,0,1-.47,3.17,20.85,20.85,0,0,1-.73,2.71h8.57c.53,0,.79.24.79.72s-.26.72-.79.72h-6.26l6.91,6.27a.81.81,0,0,1,.29.55c0,.22-.15.41-.44.55l-.6.31a1.25,1.25,0,0,1-.45.12,1,1,0,0,1-.65-.28l-7.78-7.06a1.06,1.06,0,0,1-.24-.34,12.54,12.54,0,0,1-3.38,4.32A20.87,20.87,0,0,1,264.42,103.78Z" class="cls-2"/><path data-cppathid="10013" d="M299.51,95.45a.73.73,0,0,1,.81-.79h1.49a.68.68,0,0,1,.77.81,10.24,10.24,0,0,1-1.18,4.43,7,7,0,0,1-2.83,2.84,8.67,8.67,0,0,1-4.25,1A7.3,7.3,0,0,1,289.1,102,6.47,6.47,0,0,1,287.22,97c0-.43,0-1,0-1.68s.07-1.45.12-2.27.1-1.66.17-2.52.13-1.67.2-2.45.14-1.45.2-2,.34-.72.87-.69l1.44.09a.68.68,0,0,1,.72.84c-.07.56-.13,1.22-.19,2s-.13,1.56-.2,2.4-.12,1.67-.16,2.48-.09,1.54-.11,2.22,0,1.21,0,1.63a6.4,6.4,0,0,0,1,3.93,3.55,3.55,0,0,0,3,1.35,4.33,4.33,0,0,0,3.65-1.83A9,9,0,0,0,299.51,95.45Z" class="cls-2"/><path data-cppathid="10014" d="M310.47,102.19a.71.71,0,0,1-.84.75l-1.48-.08a.69.69,0,0,1-.72-.86l1.29-11.76h-2.23c-.53,0-.79-.24-.79-.72s.26-.72.79-.72h2.4l.29-2.71a.72.72,0,0,1,.84-.75l1.49.08c.52,0,.76.32.72.86l-.29,2.52h9.86c.53,0,.79.24.79.72s-.26.72-.79.72h-10Zm12.82-.86c.53,0,.79.24.79.72s-.26.72-.79.72H319a16.51,16.51,0,0,1-3.15-.27,6.15,6.15,0,0,1-2.16-.76,1.43,1.43,0,0,1-.78-1.18,2.26,2.26,0,0,1,.74-1.51,7.42,7.42,0,0,1,1.82-1.39.83.83,0,0,1,1.11.14l.24.22a.74.74,0,0,1,.26.5.91.91,0,0,1-.33.6,3.35,3.35,0,0,0-.54.7,1.36,1.36,0,0,0-.23.74.57.57,0,0,0,.21.48,1.89,1.89,0,0,0,.88.23c.44,0,1.08.06,1.93.06ZM320.53,96a1,1,0,0,1-.62.27,1,1,0,0,1-.48-.15l-.58-.31a.64.64,0,0,1-.41-.55.75.75,0,0,1,.31-.55l1.13-1h-5.64c-.53,0-.79-.24-.79-.72s.26-.72.79-.72h9.1c.45,0,.67.14.67.43a.77.77,0,0,1-.31.55Z" class="cls-2"/><path data-cppathid="10015" d="M332.27,102.19a.72.72,0,0,1-.84.75l-1.49-.08a.69.69,0,0,1-.72-.86l1.29-11.76h-2.23c-.53,0-.79-.24-.79-.72s.26-.72.79-.72h2.4l.29-2.71a.72.72,0,0,1,.84-.75l1.49.08a.69.69,0,0,1,.72.86l-.29,2.52h9.86c.53,0,.8.24.8.72s-.27.72-.8.72h-10Zm12.81-.86c.53,0,.79.24.79.72s-.26.72-.79.72h-4.25a16.51,16.51,0,0,1-3.15-.27,6.15,6.15,0,0,1-2.16-.76,1.43,1.43,0,0,1-.78-1.18,2.3,2.3,0,0,1,.74-1.51,7.48,7.48,0,0,1,1.83-1.39.92.92,0,0,1,.45-.15,1,1,0,0,1,.65.29l.24.22a.7.7,0,0,1,.26.5.91.91,0,0,1-.33.6,3.35,3.35,0,0,0-.54.7,1.45,1.45,0,0,0-.23.74.55.55,0,0,0,.22.48,1.8,1.8,0,0,0,.87.23c.44,0,1.09.06,1.93.06ZM342.32,96a1,1,0,0,1-.62.27,1,1,0,0,1-.48-.15l-.58-.31a.64.64,0,0,1-.41-.55.73.73,0,0,1,.32-.55l1.12-1H336c-.52,0-.79-.24-.79-.72s.27-.72.79-.72h9.1c.45,0,.67.14.67.43a.77.77,0,0,1-.31.55Z" class="cls-2"/><path data-cppathid="10016" d="M362.17,104.06l-.14,0h-.12a.77.77,0,0,1-.75-.53.88.88,0,0,1-.07-.31q0-.44.6-.63a5.35,5.35,0,0,0,2.74-2.14,6.46,6.46,0,0,0,1-3.62,8.49,8.49,0,0,0-.55-3.26,4.28,4.28,0,0,0-1.76-2q-.61,5.72-2.66,8.7a6.3,6.3,0,0,1-5.47,3,5.49,5.49,0,0,1-4.15-1.51,6,6,0,0,1-1.47-4.37q0-5.37,4.25-7.25L353.31,87c0-.54.2-.83.72-.86l1.49-.07a.71.71,0,0,1,.84.74l.27,2.59a17.76,17.76,0,0,1,2.11-.12c.53,0,1,0,1.51,0,.05-.77.08-1.56.1-2.38a.71.71,0,0,1,.79-.81h1.49a.71.71,0,0,1,.79.81q0,1.55-.12,2.91a6.76,6.76,0,0,1,5.23,7,6.57,6.57,0,0,1-.78,3.18,7.37,7.37,0,0,1-2.21,2.49A9.74,9.74,0,0,1,362.17,104.06Zm-4.61-5.92a.69.69,0,0,1-.72.86l-1.49.07a.71.71,0,0,1-.84-.74l-.62-5.93a7.49,7.49,0,0,0-1.42,5,6.65,6.65,0,0,0,.66,3.31,2.07,2.07,0,0,0,1.89,1.13,2.93,2.93,0,0,0,2.27-1.35,12,12,0,0,0,1.78-3.86,30.3,30.3,0,0,0,1.06-5.88c-.43,0-.9-.07-1.39-.07a10.49,10.49,0,0,0-1.95.17Z" class="cls-2"/><path data-cppathid="10017" d="M378.42,103.66a.76.76,0,0,1,.26.52c0,.23-.15.41-.45.56l-.46.21a.88.88,0,0,1-.43.1.9.9,0,0,1-.67-.31l-4.42-4.44a.76.76,0,0,1-.26-.53c0-.23.15-.41.45-.55l.46-.22a1,1,0,0,1,.43-.1.88.88,0,0,1,.67.32Z" class="cls-2"/><path data-cppathid="10018" d="M17.87,130.87a.91.91,0,0,1-.65.29.88.88,0,0,1-.43-.1l-.67-.31c-.31-.14-.46-.33-.46-.57a.76.76,0,0,1,.26-.53l11-11H15.23c-.53,0-.79-.24-.79-.72s.26-.72.79-.72H27.56v-1.68a.71.71,0,0,1,.8-.8h1.48a.71.71,0,0,1,.8.8v1.68h3.21c.53,0,.79.24.79.72s-.26.72-.79.72H30.64v12.67a.66.66,0,0,1-.82.74l-4-.29c-.48,0-.72-.25-.72-.62a.81.81,0,0,1,.26-.65.86.86,0,0,1,.65-.17l1.51.12v-9.33Z" class="cls-2"/><path data-cppathid="10019" d="M45.88,118.68c.27.18.4.36.4.55a.72.72,0,0,1-.33.55l-.29.24a.92.92,0,0,1-.58.22,1,1,0,0,1-.52-.17l-6.36-3.86c-.28-.18-.41-.36-.41-.55a.74.74,0,0,1,.33-.56l.29-.24a1,1,0,0,1,.58-.21,1,1,0,0,1,.53.17Zm7.75,2.59a1,1,0,0,1,.55-.17.91.91,0,0,1,.55.2l.31.24a.71.71,0,0,1,.34.55.67.67,0,0,1-.38.55l-14.12,8.88a1,1,0,0,1-.55.17,1,1,0,0,1-.55-.19l-.31-.24a.72.72,0,0,1-.34-.56.68.68,0,0,1,.39-.55Z" class="cls-2"/><path data-cppathid="10020" d="M69.78,132.26a.83.83,0,0,1-.67.39,1.61,1.61,0,0,1-.39-.07l-.91-.32c-.35-.12-.53-.32-.53-.57a.82.82,0,0,1,.2-.48l6.72-9.1H59.56c-.53,0-.8-.24-.8-.72s.27-.72.8-.72H77.17c.45,0,.67.16.67.48a.8.8,0,0,1-.19.48Zm5.06-17.4c.53,0,.8.24.8.72s-.27.72-.8.72H61.55c-.53,0-.79-.24-.79-.72s.26-.72.79-.72Z" class="cls-2"/><path data-cppathid="10021" d="M81.88,125.93a1,1,0,0,1-.51.14.88.88,0,0,1-.6-.24l-.24-.19a.79.79,0,0,1-.33-.55.7.7,0,0,1,.4-.55l16.85-9.75a1.16,1.16,0,0,1,.51-.14.88.88,0,0,1,.6.24l.24.19a.79.79,0,0,1,.33.55c0,.19-.13.38-.41.55l-6.67,3.87a.74.74,0,0,1,.19.55v10.8a.7.7,0,0,1-.79.79H90a.7.7,0,0,1-.79-.79v-9.7Z" class="cls-2"/><path data-cppathid="10022" d="M109.91,118.68c.27.18.41.36.41.55a.73.73,0,0,1-.34.55l-.29.24a.91.91,0,0,1-.57.22,1,1,0,0,1-.53-.17l-6.36-3.86c-.27-.18-.41-.36-.41-.55a.72.72,0,0,1,.34-.56l.28-.24a1,1,0,0,1,.58-.21.92.92,0,0,1,.53.17Zm7.75,2.59a1,1,0,0,1,.55-.17.91.91,0,0,1,.55.2l.32.24a.72.72,0,0,1,.33.55.67.67,0,0,1-.38.55l-14.11,8.88a1,1,0,0,1-.56.17,1,1,0,0,1-.55-.19l-.31-.24a.75.75,0,0,1-.34-.56.68.68,0,0,1,.39-.55Z" class="cls-2"/><path data-cppathid="10023" d="M136.43,130.66c.51,0,.77.28.77.74s-.28.73-.82.7a17,17,0,0,1-3.78-.6,11.32,11.32,0,0,1-3-1.37,6.91,6.91,0,0,1-2-2,4.46,4.46,0,0,1-.74-2.46,7.68,7.68,0,0,1,1.6-4.71,12.5,12.5,0,0,1,4.43-3.61l-10.08.72a.72.72,0,0,1-.87-.82c0-.37.24-.58.72-.62l15.1-1.08a.83.83,0,0,1,.94.62,1.35,1.35,0,0,1,0,.26c0,.32-.21.55-.64.68a13.53,13.53,0,0,0-4.37,1.89,9.14,9.14,0,0,0-2.81,3,7.29,7.29,0,0,0-1,3.72,4.22,4.22,0,0,0,.58,2.3,4.87,4.87,0,0,0,1.56,1.5,8,8,0,0,0,2.13.85A14.16,14.16,0,0,0,136.43,130.66Zm1-4.73a1.61,1.61,0,0,1,0,.26.62.62,0,0,1-.65.67l-.69.1a.73.73,0,0,1-.92-.62l-1.24-5a1,1,0,0,1,0-.27c0-.4.22-.62.65-.67l.7-.1a.73.73,0,0,1,.93.63Zm2.64-1.47a1.87,1.87,0,0,1,0,.27c0,.37-.21.59-.62.67l-.7.12a.74.74,0,0,1-.94-.62l-1.22-4.71a.74.74,0,0,1,0-.14s0-.1,0-.15c0-.35.22-.56.65-.64l.7-.12a.72.72,0,0,1,.93.62Z" class="cls-2"/><path data-cppathid="10024" d="M162.71,130.32a.74.74,0,0,1,.93.62.61.61,0,0,1,0,.22c0,.35-.23.55-.67.6l-6.48.82-.3,0h-.46a.75.75,0,0,1-.2,0l-11.72-1.18c-.43,0-.64-.21-.64-.5a.66.66,0,0,1,.24-.5l2.08-2.38-1.48-2.3a1.14,1.14,0,0,1-.22-.6,1.29,1.29,0,0,1,.12-.48l1.87-4.35h-2.09c-.52,0-.79-.24-.79-.72s.27-.72.79-.72h4.78c.46,0,.7.19.7.55a.94.94,0,0,1-.1.39l-2.33,5.42,1.49,2.28a1.07,1.07,0,0,1,.19.53,1,1,0,0,1-.26.58l-1.44,1.63,9.24.91Zm-14.07-13.87a.77.77,0,0,1,.08.19,1.23,1.23,0,0,1,0,.19q0,.48-.6.63l-1.22.24-.12,0h-.12a.79.79,0,0,1-.75-.53L144,113a1,1,0,0,1-.07-.36c0-.33.2-.55.6-.65l1.2-.24.12,0H146a.78.78,0,0,1,.74.53Zm3.56,12.26a.7.7,0,0,1-.8.79h-1.48a.7.7,0,0,1-.8-.79v-7.8a.7.7,0,0,1,.8-.79H151v-7.25a.7.7,0,0,1,.79-.79h1.49a.92.92,0,0,1,.38.07h6.84a.7.7,0,0,1,.79.79v7.13h1.08a.7.7,0,0,1,.79.79v8.43c0,.54-.28.79-.84.74l-2.37-.24c-.56,0-.79-.31-.7-.79s.27-.73.51-.7l.33,0v-6.84H152.2Zm.45-5.76a.7.7,0,0,1,.79-.79h1.49a.78.78,0,0,1,.6.22h3.29a.7.7,0,0,1,.79.79v4.1a.7.7,0,0,1-.79.79h-1.49a.8.8,0,0,1-.53-.16h-1.34a.78.78,0,0,1-.53.16h-1.49a.7.7,0,0,1-.79-.79Zm1.42-2.93v0h.6v-4.44a.7.7,0,0,1,.79-.79H157a.87.87,0,0,1,.5.14h.77v-1.39h-4.15Zm2.47,3.8h-.82v2.64h.82Zm1.2-3.82v.07h.48v-3.65h-.48Z" class="cls-2"/><path data-cppathid="10025" d="M179.07,121.92V122h7.76c.52,0,.79.24.79.72s-.27.72-.79.72h-9.27a.89.89,0,0,1-.14.43l-4.1,6.6L183,130l-2.64-3.69a.84.84,0,0,1-.19-.48c0-.28.18-.48.53-.6l1-.34a1,1,0,0,1,.36-.07.84.84,0,0,1,.7.41l4.24,5.92a.84.84,0,0,1,.19.48c0,.28-.17.48-.52.6l-1,.34a.89.89,0,0,1-.36.07.82.82,0,0,1-.7-.41l-.62-.86a1.06,1.06,0,0,1-.31,0l-13.25.6c-.47,0-.7-.12-.7-.46a1,1,0,0,1,.17-.48l4.78-7.68h-6.87c-.53,0-.79-.24-.79-.72s.26-.72.79-.72H176v-5.4h-6.79c-.53,0-.79-.24-.79-.72s.26-.72.79-.72H176v-2.66a.7.7,0,0,1,.8-.79h1.48a.7.7,0,0,1,.79.79v2.66h6.34c.53,0,.79.24.79.72s-.26.72-.79.72h-6.34Z" class="cls-2"/><path data-cppathid="10026" d="M205.28,131.78a.75.75,0,0,1-.62.34,1.05,1.05,0,0,1-.46-.12l-.72-.34a.64.64,0,0,1-.45-.57,1,1,0,0,1,.19-.51,8.26,8.26,0,0,0,.89-1.76,13.83,13.83,0,0,0,.6-2.2,13.17,13.17,0,0,0,.21-2.32,9.43,9.43,0,0,0-1.08-4.8,4.69,4.69,0,0,0-3-2.33,32.85,32.85,0,0,1,.57,5.71,12.45,12.45,0,0,1-1.38,6.34,4.45,4.45,0,0,1-4.07,2.32,5.08,5.08,0,0,1-2.85-.79,5.28,5.28,0,0,1-1.9-2.17,7.15,7.15,0,0,1-.67-3.18,10.17,10.17,0,0,1,.7-3.79,9.73,9.73,0,0,1,1.93-3.13,9,9,0,0,1,2.85-2.13,8,8,0,0,1,3.47-.77,9.37,9.37,0,0,1,4.56,1,7.06,7.06,0,0,1,3,3,9.85,9.85,0,0,1,1,4.67A10.83,10.83,0,0,1,205.28,131.78Zm-11.71-6.38a7.56,7.56,0,0,0,.34,2.34,5,5,0,0,0,.87,1.72,1.5,1.5,0,0,0,1.14.64c.45,0,.85-.33,1.19-1a9.86,9.86,0,0,0,.82-2.7,22.34,22.34,0,0,0,.3-3.84c0-.82,0-1.66-.11-2.52s-.19-1.75-.35-2.64a6.14,6.14,0,0,0-2.12,1.77,9.28,9.28,0,0,0-1.51,2.82A10.2,10.2,0,0,0,193.57,125.4Z" class="cls-2"/><path data-cppathid="10027" d="M214.07,131.81c0,.49-.29.74-.82.74l-1.46,0c-.55,0-.8-.27-.77-.82l.67-14.71a1.13,1.13,0,0,1,.14-.48.63.63,0,0,1-.12-.41c0-.48.27-.72.8-.72h8.59l-.79-2.45a1,1,0,0,1-.05-.31c0-.37.21-.57.65-.62l1.34-.19.11,0h.08a.73.73,0,0,1,.75.6l1,3h6.62c.53,0,.79.24.79.72s-.26.72-.79.72H224.6l2.07,6.41,2.18-3.5a.83.83,0,0,1,.72-.46,1.5,1.5,0,0,1,.31,0l1,.31c.37.13.56.33.56.6a.92.92,0,0,1-.15.43l-3.62,5.79,1.2,3.72,1.37-.36a.86.86,0,0,1,.26,0,.81.81,0,0,1,.74.5.93.93,0,0,1,.12.39c0,.32-.19.52-.57.62l-3.53.91-.14,0H227a.72.72,0,0,1-.72-.58l-.63-1.94-1.29,2.08a.85.85,0,0,1-.72.46,1.57,1.57,0,0,1-.32-.05l-1-.31c-.37-.13-.55-.33-.55-.6a.9.9,0,0,1,.14-.43l2.74-4.37-3.1-9.65h-6.84a1.12,1.12,0,0,1,0,.27l-.19,4.12h5.8a.66.66,0,0,1,.75.82l-.75,9.41c0,.46-.26.69-.64.69a1.31,1.31,0,0,1-.27,0l-3.79-.94c-.4-.1-.6-.29-.6-.58a.27.27,0,0,1,0-.16l.06-.17,0-.07a.81.81,0,0,1,.74-.51h.15l.14,0,1.2.29.6-7.35h-3.53Zm15.74-18.39a.74.74,0,0,1,.41.58.75.75,0,0,1-.29.53l-.24.19a.85.85,0,0,1-1.08.12l-2.93-1.61a.73.73,0,0,1-.41-.57.69.69,0,0,1,.29-.53l.24-.19a1,1,0,0,1,.63-.27.86.86,0,0,1,.45.15Z" class="cls-2"/><path data-cppathid="10028" d="M237,130.9a.72.72,0,0,1-.86.72l-.77-.05a.68.68,0,0,1-.72-.84l.31-3.65a.72.72,0,0,1,.87-.72l.76,0a.68.68,0,0,1,.72.84Zm4.18,1a.7.7,0,0,1-.79.79h-1.49a.7.7,0,0,1-.79-.79V125l-2.64.21q-.72,0-.72-.45a.84.84,0,0,1,.16-.48l2.21-3.44-.05-.07-2-2.69a.88.88,0,0,1-.22-.55A.77.77,0,0,1,235,117l3.84-5a.8.8,0,0,1,.67-.38,1.14,1.14,0,0,1,.38.07l.92.31c.33.11.5.3.5.58a.84.84,0,0,1-.19.48l-3.43,4.53.81,1.08.87-1.34a.85.85,0,0,1,.74-.43,1.38,1.38,0,0,1,.31,0l1,.32c.37.12.56.32.56.57a.63.63,0,0,1-.05.22,1.34,1.34,0,0,1-.12.24l-3.41,5.3,2.93-.24-.41-1.65a.9.9,0,0,1,0-.24.64.64,0,0,1,.64-.7l.7-.1a.72.72,0,0,1,.91.63l.89,3.67a.82.82,0,0,1,0,.24.64.64,0,0,1-.64.7l-.7.09a.71.71,0,0,1-.91-.62l-.15-.58h-.07l-.55,0a.84.84,0,0,1,0,.29Zm3.41-1.59a.69.69,0,0,1-.75.84l-.77,0a.71.71,0,0,1-.84-.72l-.31-3a.85.85,0,0,1,.17-.61.77.77,0,0,1,.58-.25l.76-.05a.7.7,0,0,1,.84.72Zm6.72-11.54v.07h3.48c.52,0,.79.24.79.72s-.27.72-.79.72h-10c-.53,0-.8-.24-.8-.72s.27-.72.8-.72h3.4v-1h-2.28c-.52,0-.79-.24-.79-.72s.27-.72.79-.72h2.28V115h-2.88c-.52,0-.79-.24-.79-.72s.27-.72.79-.72h2.88v-.77a.7.7,0,0,1,.8-.79h1.48a.7.7,0,0,1,.8.79v.77h2.9c.53,0,.79.24.79.72s-.26.72-.79.72h-2.9v1.41h2.32c.53,0,.8.24.8.72s-.27.72-.8.72h-2.32Zm-6.41,2.88a.7.7,0,0,1,.79-.79h1.49a.9.9,0,0,1,.48.12h6.6a.7.7,0,0,1,.79.79v7.44a.7.7,0,0,1-.79.79h-1.49a.9.9,0,0,1-.48-.12h-4.63a.9.9,0,0,1-.48.12h-1.49a.7.7,0,0,1-.79-.79Zm1.53,11a1,1,0,0,1-.43.09.87.87,0,0,1-.65-.31l-.12-.12a.76.76,0,0,1-.26-.5c0-.24.16-.44.48-.58l2.09-.94a1,1,0,0,1,.43-.09.86.86,0,0,1,.65.31l.12.12a.76.76,0,0,1,.26.5c0,.24-.16.44-.48.58Zm5.55-10.25h-4v1h4Zm-4,3.55h4v-1.13h-4Zm0,2.47h4v-1h-4Zm6.79,2.91q.48.21.48.57a.78.78,0,0,1-.21.48l-.17.17a1,1,0,0,1-.67.34,1,1,0,0,1-.41-.1l-2.4-1.06q-.48-.21-.48-.57a.73.73,0,0,1,.21-.48l.17-.17a1,1,0,0,1,.67-.34,1,1,0,0,1,.41.1Z" class="cls-2"/><path data-cppathid="10029" d="M272.67,126.74c0,.55-.23.82-.79.82h-1.49a.73.73,0,0,1-.79-.79,9,9,0,0,0-.19-1.42,21.07,21.07,0,0,0-3.94,2c-.94.66-1.41,1.27-1.41,1.81s.32.84,1,1.07a9.64,9.64,0,0,0,3,.35,14,14,0,0,0,6.29-1.35,1.12,1.12,0,0,1,.5-.14.85.85,0,0,1,.58.24l.24.19a.69.69,0,0,1,.31.55.61.61,0,0,1-.43.56,15.26,15.26,0,0,1-2.22.72,25.89,25.89,0,0,1-2.62.49,20,20,0,0,1-2.65.18,15,15,0,0,1-3.53-.39,7.75,7.75,0,0,1-2.56-1,1.79,1.79,0,0,1-1-1.44,2.46,2.46,0,0,1,1-1.69,12.79,12.79,0,0,1,2.74-1.84,37.46,37.46,0,0,1,4.24-1.84,4,4,0,0,0-1.09-1.5,2.25,2.25,0,0,0-1.45-.54,2.61,2.61,0,0,0-1.56.49,4.74,4.74,0,0,0-1.32,1.57.93.93,0,0,1-.53.48l0,0h-.09s0,0-.05,0h-.22a.27.27,0,0,1-.12,0l-1.15-.26-.14,0q-.51-.16-.51-.57a1,1,0,0,1,.1-.41l2.35-4.9h-3.69c-.53,0-.8-.24-.8-.72s.27-.72.8-.72h4.39l.86-1.82a.81.81,0,0,1,.77-.53h.12l.12,0,1.22.29c.39.1.58.3.58.6a.83.83,0,0,1-.1.41l-.5,1h7.63c.53,0,.79.24.79.72s-.26.72-.79.72h-8.3l-1.11,2.31a6.77,6.77,0,0,1,1.28-.12,6.44,6.44,0,0,1,3,.67,5.63,5.63,0,0,1,2.11,1.92c1.21-.4,2.49-.78,3.84-1.13l.17,0h.14a.81.81,0,0,1,.72.48.93.93,0,0,1,.12.39c0,.32-.2.52-.6.62-1.31.35-2.54.72-3.7,1.1A9.13,9.13,0,0,1,272.67,126.74Z" class="cls-2"/><path data-cppathid="10030" d="M283.35,132.31a.84.84,0,0,1-.64.31,1,1,0,0,1-.44-.09l-.74-.34q-.48-.21-.48-.57a.72.72,0,0,1,.24-.51l4.3-4.56h-.53a.68.68,0,0,1-.72.43h-1.49a.7.7,0,0,1-.79-.79V113.26a.7.7,0,0,1,.79-.8h1.49a.69.69,0,0,1,.72.41h12.57a.71.71,0,0,1,.8.79v12.92a.71.71,0,0,1-.8.79h-1.48a.71.71,0,0,1-.8-.79v0h-1.56V131h4v-.63c0-.4.27-.6.8-.6H300a.71.71,0,0,1,.8.79v1.08a.71.71,0,0,1-.8.8h-8.52a.71.71,0,0,1-.79-.8v-5.11h-2.23v0a.7.7,0,0,1-.24.5Zm12-18H285.13V117h10.22ZM285.13,121h10.22v-2.57H285.13Zm0,4.08h10.22v-2.64H285.13Z" class="cls-2"/><path data-cppathid="10031" d="M320.58,126.94a3.67,3.67,0,0,1-1.13,2.65,7.33,7.33,0,0,1-3.12,1.76,15.23,15.23,0,0,1-4.58.63,16.23,16.23,0,0,1-3.47-.33,6.24,6.24,0,0,1-2.34-.92,1.72,1.72,0,0,1-.84-1.42,2,2,0,0,1,.83-1.55,6.27,6.27,0,0,1,2.14-1.14,9.15,9.15,0,0,1,2.79-.43,7.15,7.15,0,0,1,3.6.84,4.2,4.2,0,0,1,2,2.38,3.07,3.07,0,0,0,1.08-2.47,4,4,0,0,0-.57-2.16,3.82,3.82,0,0,0-1.56-1.47,4.84,4.84,0,0,0-2.29-.53,9.31,9.31,0,0,0-3,.52,12.17,12.17,0,0,0-2.88,1.45L305.7,126a1.31,1.31,0,0,1-.82.36,1,1,0,0,1-.79-.43l-.19-.19a.74.74,0,0,1-.24-.53.68.68,0,0,1,.31-.55,9.66,9.66,0,0,1,1.34-.94l9.05-7.15h-8.78c-.53,0-.79-.23-.79-.7s.26-.69.79-.69h12.33c.45,0,.68.13.68.41a.75.75,0,0,1-.34.55l-6.91,5.42a13.43,13.43,0,0,1,1.75-.12,9.71,9.71,0,0,1,2.89.43,8.35,8.35,0,0,1,2.39,1.19,5.77,5.77,0,0,1,1.62,1.77A4.23,4.23,0,0,1,320.58,126.94Zm-12.41,2.37a1,1,0,0,0,.3.78,2,2,0,0,0,1.07.39,17.68,17.68,0,0,0,2.21.1,13,13,0,0,0,1.84-.12,1.61,1.61,0,0,1-.07-.31c-.19-1.71-1.08-2.57-2.66-2.57a3.7,3.7,0,0,0-2,.46A1.43,1.43,0,0,0,308.17,129.31Z" class="cls-2"/><path data-cppathid="10032" d="M26.29,147.84a.87.87,0,0,1-.67.34,1,1,0,0,1-.41-.1l-.79-.34a.62.62,0,0,1-.48-.57.88.88,0,0,1,.22-.51l.93-1.08H15.16c-.53,0-.8-.24-.8-.72s.27-.72.8-.72H28.21c.47,0,.7.16.7.48a.72.72,0,0,1-.24.51ZM28.6,158.9c.52,0,.79.24.79.72s-.27.72-.79.72H21.66a15.73,15.73,0,0,1-5.27-.7c-1.27-.48-1.91-1.17-1.91-2.08a4.07,4.07,0,0,1,.44-1.64A9.36,9.36,0,0,1,16.09,154a1,1,0,0,1,.67-.36,1,1,0,0,1,.41.09l.87.36c.32.15.48.34.48.58a1,1,0,0,1-.15.48,8.6,8.6,0,0,0-.57,1.27,3.52,3.52,0,0,0-.24,1.13,1.1,1.1,0,0,0,.3.84,2.21,2.21,0,0,0,1.18.4,24.6,24.6,0,0,0,2.62.1Z" class="cls-2"/><path data-cppathid="10033" d="M48,158.5a1.71,1.71,0,0,1,.45-.08,1.2,1.2,0,0,1,.33.05.92.92,0,0,1,.3.17l.19.14a.7.7,0,0,1,.36.58c0,.27-.18.44-.53.5-.57.13-1.29.26-2.13.38s-1.73.21-2.64.28-1.77.11-2.57.11a17.45,17.45,0,0,1-4.83-.59,7.41,7.41,0,0,1-3.19-1.68,3.48,3.48,0,0,1-1.13-2.6,3.8,3.8,0,0,1,1-2.54,11.2,11.2,0,0,1,3.4-2.38l-3-6.38a.86.86,0,0,1-.1-.41c0-.31.19-.51.58-.6l1.22-.27.26,0a.77.77,0,0,1,.75.5l2.85,6.05c1.09-.45,2.34-.91,3.74-1.39s3-1,4.71-1.51a.49.49,0,0,1,.18-.05h.18a.77.77,0,0,1,.72.43v0a.86.86,0,0,1,.15.45c0,.27-.2.47-.58.6q-3.84,1.18-6.36,2.11a27.51,27.51,0,0,0-4,1.78,6.34,6.34,0,0,0-2,1.7,3.27,3.27,0,0,0-.6,1.9,2.79,2.79,0,0,0,1.42,2.6,9.65,9.65,0,0,0,4.65.83c.77,0,1.55,0,2.35-.09s1.54-.15,2.23-.26A12.82,12.82,0,0,0,48,158.5Z" class="cls-2"/><path data-cppathid="10034" d="M55.48,160.63a.77.77,0,0,1-1,.55l-1.28-.24q-.6-.12-.6-.6a1.18,1.18,0,0,1,.08-.38l4.84-11.78H53.32c-.53,0-.8-.24-.8-.72s.27-.72.8-.72h4.82l1.18-2.86a.76.76,0,0,1,1-.55l1.27.24q.6.12.6.6a1.47,1.47,0,0,1-.07.38l-.89,2.19h0a5.28,5.28,0,0,1,3.72,1.14,4.53,4.53,0,0,1,1.23,3.49,16.6,16.6,0,0,1-.3,3.37,10.53,10.53,0,0,1-.81,2.47A12.34,12.34,0,0,1,64,159.06c-.37.54-.74,1-1.11,1.52a.81.81,0,0,1-.67.41.92.92,0,0,1-.36-.07l-1-.31c-.35-.1-.53-.29-.53-.58a.82.82,0,0,1,.17-.45,20.12,20.12,0,0,0,1.18-1.77,10.08,10.08,0,0,0,1-2.53,15.72,15.72,0,0,0,.4-3.91,5.45,5.45,0,0,0-.4-2.49,1.56,1.56,0,0,0-1.47-.7h-.62Zm16.72-5.06a1,1,0,0,1,0,.31c0,.37-.21.58-.65.62l-1.36.2a.78.78,0,0,1-.94-.58l-3.22-10.46a1.45,1.45,0,0,1,0-.32c0-.36.21-.57.64-.62l1.37-.19h.11l.08,0a.72.72,0,0,1,.75.6Zm.82-9.12a.82.82,0,0,1,0,.24c0,.36-.21.56-.64.61l-.7.09a.71.71,0,0,1-.91-.57l-1.25-4.58a.82.82,0,0,1,0-.24c0-.36.21-.57.64-.61l.7-.09a.74.74,0,0,1,.94.57Zm2.64-1.33a.82.82,0,0,1,0,.24c0,.33-.2.54-.62.61l-.7.11a.73.73,0,0,1-.93-.57l-1.23-4.27,0-.13a.66.66,0,0,1,0-.14c0-.31.21-.51.64-.58l.7-.11a.74.74,0,0,1,.94.56Z" class="cls-2"/><path data-cppathid="10035" d="M91,159.46c.51,0,.77.28.77.74s-.28.73-.82.7a17,17,0,0,1-3.78-.6,11.32,11.32,0,0,1-3-1.37,6.91,6.91,0,0,1-2-2,4.46,4.46,0,0,1-.74-2.46,7.75,7.75,0,0,1,1.6-4.71,12.5,12.5,0,0,1,4.43-3.61l-10.08.72a.72.72,0,0,1-.87-.82c0-.37.24-.58.72-.62l15.1-1.08a.83.83,0,0,1,.94.62,1.35,1.35,0,0,1,0,.26c0,.32-.21.55-.64.68a13.53,13.53,0,0,0-4.37,1.89,9.14,9.14,0,0,0-2.81,3,7.29,7.29,0,0,0-1,3.72,4.22,4.22,0,0,0,.58,2.3,4.87,4.87,0,0,0,1.56,1.5,8,8,0,0,0,2.13.85A14.16,14.16,0,0,0,91,159.46Zm1-4.73a1.61,1.61,0,0,1,0,.26.62.62,0,0,1-.65.67l-.69.1a.73.73,0,0,1-.92-.62l-1.24-5a1,1,0,0,1,0-.27c0-.4.22-.62.65-.67l.7-.1a.73.73,0,0,1,.93.63Zm2.64-1.47a1.87,1.87,0,0,1,0,.27c0,.37-.21.59-.62.67l-.7.12a.74.74,0,0,1-.94-.62L91.14,149a.74.74,0,0,1,0-.14s0-.1,0-.15c0-.35.22-.56.65-.64l.7-.12a.72.72,0,0,1,.93.62Z" class="cls-2"/><path data-cppathid="10036" d="M110.72,159.38c.53,0,.8.24.8.72s-.27.72-.8.72h-7.34a11.13,11.13,0,0,1-3-.37,5.29,5.29,0,0,1-2.1-1,2,2,0,0,1-.77-1.56,3,3,0,0,1,.41-1.48A6.9,6.9,0,0,1,99,154.9a.84.84,0,0,1,.62-.29,1,1,0,0,1,.48.12l.7.36a.65.65,0,0,1,.43.55,1.06,1.06,0,0,1-.17.5,3.35,3.35,0,0,0-.38.86,2.77,2.77,0,0,0-.15.85,1.28,1.28,0,0,0,.59,1.2,5,5,0,0,0,2.22.33Zm-.24-3.55a.68.68,0,0,1-.69.89l-1.44.12a.73.73,0,0,1-.89-.7l-.74-4.7H98.6c-.52,0-.79-.24-.79-.72s.27-.72.79-.72h7.9l-.58-3.6H98.58c-.53,0-.79-.24-.79-.72s.26-.72.79-.72h7.13l-.17-1.08a.69.69,0,0,1,.7-.89l1.44-.12a.73.73,0,0,1,.88.7l.22,1.39h4c.53,0,.79.24.79.72s-.26.72-.79.72H109l.57,3.6h4.3c.53,0,.79.24.79.72s-.26.72-.79.72h-4.08Z" class="cls-2"/><path data-cppathid="10037" d="M135.08,155c.35.13.53.31.53.55a.69.69,0,0,1-.24.46l-.17.16a.93.93,0,0,1-.67.32.65.65,0,0,1-.19,0l-.22-.06a16,16,0,0,0-1.65-.54c-.63-.17-1.28-.32-2-.44v1.7a3.41,3.41,0,0,1-1.57,3,7.7,7.7,0,0,1-4.31,1.05,9.94,9.94,0,0,1-3.42-.55,6,6,0,0,1-2.41-1.51,3.11,3.11,0,0,1-.89-2.16,2.54,2.54,0,0,1,.86-1.91,5.87,5.87,0,0,1,2.42-1.25,13.36,13.36,0,0,1,3.61-.44l1.28,0c.44,0,.89.06,1.36.11v-2.3H119c-.53,0-.79-.24-.79-.72s.26-.72.79-.72h8.4v-2.64H119c-.53,0-.79-.24-.79-.72s.26-.72.79-.72h8.4v-2a.7.7,0,0,1,.79-.79h1.49a.7.7,0,0,1,.79.79v2h3.84c.53,0,.79.24.79.72s-.26.72-.79.72H130.5v2.64h3.84c.53,0,.79.24.79.72s-.26.72-.79.72H130.5v2.73c.9.16,1.74.34,2.54.53S134.52,154.78,135.08,155ZM121,156.89q0,2.78,3.65,2.78a3.31,3.31,0,0,0,2.2-.56,2.73,2.73,0,0,0,.61-2V154.9a21.77,21.77,0,0,0-2.64-.17,8.72,8.72,0,0,0-2.45.26,1.83,1.83,0,0,0-1.09.75A2.2,2.2,0,0,0,121,156.89Z" class="cls-2"/><path data-cppathid="10038" d="M151.84,160.82a.85.85,0,0,1-.72.46H151l-.17,0-1.12-.31c-.37-.1-.56-.29-.56-.58a.91.91,0,0,1,.1-.4,10.05,10.05,0,0,0,.62-3.1,8.21,8.21,0,0,1-3.31.65,6.56,6.56,0,0,1-2.88-.61,4.61,4.61,0,0,1-1.93-1.72,4.75,4.75,0,0,1-.68-2.57,3.55,3.55,0,0,1,.78-2.29,5,5,0,0,1,2.12-1.51,8.2,8.2,0,0,1,3.07-.54,9.66,9.66,0,0,1,1.6.12,7.23,7.23,0,0,1,1.28.33V146H139.48c-.53,0-.8-.24-.8-.72s.27-.72.8-.72h10.41v-2a.7.7,0,0,1,.79-.79h1.49a.7.7,0,0,1,.79.79v2h3.29c.53,0,.79.24.79.72s-.26.72-.79.72H153v6.46a5.79,5.79,0,0,1,0,.72l0,.74c0,.24,0,.47,0,.7v.79c0,.81,0,1.53-.09,2.13a8.8,8.8,0,0,1-.34,1.67A8.45,8.45,0,0,1,151.84,160.82Zm-7.73-8.23a4.27,4.27,0,0,0,.65,2.53,2,2,0,0,0,1.77.93,3.38,3.38,0,0,0,2.22-.71,3.14,3.14,0,0,0,1.07-2,5.43,5.43,0,0,0-.77-2.86,2.42,2.42,0,0,0-2-.79A2.57,2.57,0,0,0,144.11,152.59Z" class="cls-2"/><path data-cppathid="10039" d="M164,161a5.15,5.15,0,0,1-2.22-.48,4.18,4.18,0,0,1-1.63-1.32,3.08,3.08,0,0,1-.61-1.87,3,3,0,0,1,.61-1.86,4.25,4.25,0,0,1,1.63-1.31,5.15,5.15,0,0,1,2.22-.48,5.07,5.07,0,0,1,2.21.48,4.29,4.29,0,0,1,1.62,1.31,3.14,3.14,0,0,1,0,3.72,4.41,4.41,0,0,1-1.62,1.32A4.94,4.94,0,0,1,164,161Zm0-1.2a1.93,1.93,0,0,0,1.5-.72,2.52,2.52,0,0,0,.64-1.75,2.48,2.48,0,0,0-.64-1.74,2,2,0,0,0-3,0,2.51,2.51,0,0,0-.64,1.75,2.57,2.57,0,0,0,.64,1.75A2,2,0,0,0,164,159.79Z" class="cls-2"/><path data-cppathid="10040" d="M80.26,31.23a1.46,1.46,0,0,1,0,.2,1.15,1.15,0,0,1,0,.19.73.73,0,0,1,0,.22h8a.91.91,0,0,1-.13-.48.74.74,0,0,1,.05-.25,2.58,2.58,0,0,0,.08-.26l2.27-5.09a.91.91,0,0,1,1.12-.57l1.51.32a1.06,1.06,0,0,1,1,1.08.86.86,0,0,1,0,.24,2.9,2.9,0,0,1-.09.28l-2.11,4.73h4.6a1.15,1.15,0,0,1,.77.27.86.86,0,0,1,.32.69.84.84,0,0,1-.32.69,1.15,1.15,0,0,1-.77.27H71a1.17,1.17,0,0,1-.77-.27.87.87,0,0,1-.32-.69.89.89,0,0,1,.32-.69,1.17,1.17,0,0,1,.77-.27h5.38l-1.54-4.67a1.91,1.91,0,0,1-.06-.42,1,1,0,0,1,.25-.68,1.05,1.05,0,0,1,.71-.37l1.69-.26a1.14,1.14,0,0,1,.71.11,1,1,0,0,1,.44.56ZM75,52.16a1,1,0,0,1-.32.77,1.05,1.05,0,0,1-.76.32H72a1.06,1.06,0,0,1-.77-.32,1,1,0,0,1-.32-.77V35.46a1,1,0,0,1,.32-.77,1.06,1.06,0,0,1,.77-.32H74A1,1,0,0,1,75,35h8a1.07,1.07,0,0,1,.77.32,1.06,1.06,0,0,1,.32.77V52.19a1.1,1.1,0,0,1-.37.84,1.15,1.15,0,0,1-.91.25L78,52.64a1.3,1.3,0,0,1-.83-.41.69.69,0,0,1-.19-.74l0-.1a.94.94,0,0,1,1.12-.73l1.79.25V46.4H75Zm4.9-15.23H75v2.53h4.9ZM75,44.48h4.9v-3.1H75Zm15.27,2.91a1.06,1.06,0,0,1-.32.77,1,1,0,0,1-.77.32H87.3a1,1,0,0,1-.77-.32,1.06,1.06,0,0,1-.32-.77V36.77a1.09,1.09,0,0,1,1.09-1.09h1.92a1.09,1.09,0,0,1,1.09,1.09ZM90,52.71a1.38,1.38,0,0,1-.82-.39.73.73,0,0,1-.21-.7l0-.07a1.15,1.15,0,0,1,.38-.62.85.85,0,0,1,.7-.18l2.15.23V36a1,1,0,0,1,.32-.77,1.06,1.06,0,0,1,.77-.32h1.92a1.05,1.05,0,0,1,.76.32,1,1,0,0,1,.32.77V52.16A1.05,1.05,0,0,1,96,53a1.17,1.17,0,0,1-.88.29Z" class="cls-2"/><path data-cppathid="10041" d="M110.08,53c-.55-.12-.83-.39-.83-.8a.8.8,0,0,1,.1-.38l0-.06a1,1,0,0,1,1-.71,1.56,1.56,0,0,1,.35,0l2.63.55V46.21H103.24c-.71,0-1.06-.32-1.06-1s.35-1,1.06-1h10.08v-.13a1.79,1.79,0,0,1,.54-1.31l4.29-4h-9.44c-.71,0-1.06-.32-1.06-1s.35-1,1.06-1H122.6c.59,0,.89.2.89.61a1.09,1.09,0,0,1-.38.7l-5.7,5.38v.7h10.66q1.05,0,1.05,1t-1.05,1H117.41v7.1c0,.66-.29,1-.86,1a.71.71,0,0,1-.29,0ZM102.6,33a.93.93,0,0,1,1.05-1.05H105l-1.25-4.1a1.33,1.33,0,0,1,0-.19,1.28,1.28,0,0,1,0-.19c0-.52.28-.8.86-.87l1.82-.25a1,1,0,0,1,1.25.76L109,31.52a1.62,1.62,0,0,1,0,.19,1.36,1.36,0,0,1,0,.2.85.85,0,0,1,0,.25H114l-1.22-4.45a1.05,1.05,0,0,1,0-.19,1.21,1.21,0,0,1,0-.19c0-.51.28-.8.86-.86l1.86-.23a1,1,0,0,1,1.24.83l1.25,4.52a1.05,1.05,0,0,1,0,.19,1.23,1.23,0,0,1,0,.19.43.43,0,0,1,0,.19h3.78V32a1.48,1.48,0,0,1,.1-.51L123.65,27a1,1,0,0,1,1.28-.74l1.7.32c.53.11.8.37.8.8a1.48,1.48,0,0,1-.1.51l-1.76,4.32h3.49c.66,0,1,.28,1,.83a1,1,0,0,1,0,.18s0,.11,0,.18l-1,3.84a1,1,0,0,1-1.22.86L126,37.83q-.9-.11-.9-.9a1.45,1.45,0,0,1,0-.32l.64-2.53h-19v2.79a.93.93,0,0,1-1,1.05h-2a.93.93,0,0,1-1.05-1.05Z" class="cls-2"/><path data-cppathid="10042" d="M145.89,44.55v.09h.55q1,0,1.05,1t-1.05,1H134.76c-.71,0-1.06-.32-1.06-1s.35-1,1.06-1h.51V32.29H135c-.71,0-1.06-.32-1.06-1s.35-1,1.06-1h.32V26.91a.93.93,0,0,1,1-1.05h2a.93.93,0,0,1,1.05,1.05v3.46h2.44V26.91a.93.93,0,0,1,1-1.05h2a.93.93,0,0,1,1,1.05v3.46h.32c.71,0,1.06.32,1.06,1s-.35,1-1.06,1h-.32Zm-8.16,8.22a1,1,0,0,1-1,.74h-.16a.38.38,0,0,1-.16,0l-1.7-.35c-.53-.11-.8-.37-.8-.8a1.76,1.76,0,0,1,.1-.51l1.57-3.68a1,1,0,0,1,1-.7,1.62,1.62,0,0,1,.35,0l1.7.35c.53.11.8.37.8.8a1.76,1.76,0,0,1-.1.51Zm1.63-17.92h2.44V32.29h-2.44Zm0,4.64h2.44V36.77h-2.44Zm0,5.06v.09h2.44V41.41h-2.44Zm7.3,5.53a1.14,1.14,0,0,1,.13.55c0,.4-.26.67-.77.8l-1.63.35a1.62,1.62,0,0,1-.35,0,1,1,0,0,1-1-.67l-1-2a1.25,1.25,0,0,1-.12-.54c0-.41.25-.67.76-.8l1.64-.38a.25.25,0,0,1,.16,0h.16a1.06,1.06,0,0,1,1,.71Zm4.86,3q0,1-1.08,1l-2,0a.91.91,0,0,1-1-1.09l1.21-26a1,1,0,0,1,1.09-1l2,0a.92.92,0,0,1,1,.58h7a.93.93,0,0,1,1.06,1.05V52.74c0,.74-.36,1.09-1.09,1l-5.09-.38c-.64-.07-1-.35-1-.87a1.08,1.08,0,0,1,.34-.84,1,1,0,0,1,.85-.24l1.85.16V45.54h-4.76Zm.45-9.41h4.67V37.35h-4.38Zm4.67-15.2h-4l-.32,7h4.28Z" class="cls-2"/><path data-cppathid="10043" d="M185,52.32a1,1,0,0,1-.83.45,1.35,1.35,0,0,1-.61-.16l-1-.45a.87.87,0,0,1-.6-.77,1.39,1.39,0,0,1,.25-.67,11.45,11.45,0,0,0,1.19-2.35,17.91,17.91,0,0,0,.8-2.93,17.26,17.26,0,0,0,.28-3.1,12.56,12.56,0,0,0-1.44-6.4A6.32,6.32,0,0,0,179,32.83a43.64,43.64,0,0,1,.77,7.62,16.63,16.63,0,0,1-1.84,8.45,5.94,5.94,0,0,1-5.43,3.1,6.84,6.84,0,0,1-3.8-1,7.07,7.07,0,0,1-2.53-2.9,9.54,9.54,0,0,1-.9-4.24,13.74,13.74,0,0,1,.93-5.06,13.41,13.41,0,0,1,2.58-4.17,11.92,11.92,0,0,1,3.8-2.83,10.59,10.59,0,0,1,4.63-1,12.67,12.67,0,0,1,6.08,1.39,9.53,9.53,0,0,1,3.93,4,13.17,13.17,0,0,1,1.38,6.23A14.49,14.49,0,0,1,185,52.32Zm-15.61-8.51a10.32,10.32,0,0,0,.45,3.12A6.55,6.55,0,0,0,171,49.22a2,2,0,0,0,1.52.86c.6,0,1.13-.44,1.59-1.33a12.75,12.75,0,0,0,1.09-3.6,30.33,30.33,0,0,0,.4-5.12q0-1.62-.15-3.36c-.09-1.15-.25-2.32-.46-3.52a8.37,8.37,0,0,0-2.83,2.37,12.64,12.64,0,0,0-2,3.76A13.71,13.71,0,0,0,169.35,43.81Z" class="cls-2"/><path data-cppathid="10044" d="M196.68,52.35a1,1,0,0,1-1.09,1l-2,0a.9.9,0,0,1-1-1.08l.9-19.62a1.34,1.34,0,0,1,.19-.64.81.81,0,0,1-.16-.54c0-.64.35-1,1.06-1h11.45L205,27.2a1.51,1.51,0,0,1-.07-.41q0-.73.87-.84l1.79-.25.14,0h.11a1,1,0,0,1,1,.8l1.28,4H219q1.05,0,1.05,1t-1.05,1h-8.23l2.76,8.54,2.91-4.67a1.1,1.1,0,0,1,1-.61,1.91,1.91,0,0,1,.41.06l1.38.42c.49.17.74.44.74.8a1.33,1.33,0,0,1-.2.58l-4.83,7.71,1.6,5,1.83-.48a2.06,2.06,0,0,1,.35-.07,1.09,1.09,0,0,1,1,.68,1.16,1.16,0,0,1,.16.51c0,.42-.26.7-.77.83l-4.7,1.22-.19,0H214a1,1,0,0,1-1-.77l-.84-2.59-1.72,2.78a1.12,1.12,0,0,1-1,.61,1.91,1.91,0,0,1-.42-.06l-1.38-.42c-.49-.17-.73-.44-.73-.8a1.16,1.16,0,0,1,.19-.58l3.65-5.82-4.13-12.86h-9.12a1.83,1.83,0,0,1,0,.35l-.25,5.5h7.74a.87.87,0,0,1,1,1.09l-1,12.54c-.06.62-.35.93-.86.93a1.84,1.84,0,0,1-.36-.06l-5.05-1.25c-.54-.13-.8-.38-.8-.77a.4.4,0,0,1,0-.22c0-.07.05-.14.08-.23l0-.09a1.07,1.07,0,0,1,1-.67h.19l.19,0,1.6.38.8-9.79h-4.7Zm21-24.51a1,1,0,0,1,.54.77,1,1,0,0,1-.38.7l-.32.26a1.33,1.33,0,0,1-.83.35,1.25,1.25,0,0,1-.61-.19l-3.91-2.14a1,1,0,0,1-.54-.77.94.94,0,0,1,.38-.71l.32-.25a1.28,1.28,0,0,1,.84-.35,1.14,1.14,0,0,1,.6.19Z" class="cls-2"/><path data-cppathid="10045" d="M227.2,51.14a1,1,0,0,1-1.15,1L225,52a.9.9,0,0,1-1-1.12l.41-4.86a1,1,0,0,1,1.16-1l1,.06a.91.91,0,0,1,1,1.12Zm5.57,1.37a.93.93,0,0,1-1.05,1.06h-2a.93.93,0,0,1-1-1.06V43.3l-3.52.29c-.64,0-1-.16-1-.61a1.08,1.08,0,0,1,.22-.64l2.94-4.58-.06-.09-2.69-3.59a1.24,1.24,0,0,1-.29-.73,1.08,1.08,0,0,1,.29-.74l5.12-6.72a1.12,1.12,0,0,1,.9-.51,1.72,1.72,0,0,1,.51.09l1.22.42c.44.15.67.41.67.77a1.16,1.16,0,0,1-.26.64l-4.57,6.05,1.08,1.44,1.16-1.8a1.14,1.14,0,0,1,1-.57,1.91,1.91,0,0,1,.41.06l1.38.42c.49.17.74.42.74.77a.82.82,0,0,1-.07.28,1.37,1.37,0,0,1-.16.32l-4.54,7.08,3.9-.32-.54-2.21a1.45,1.45,0,0,1,0-.32.84.84,0,0,1,.86-.93l.93-.13a1,1,0,0,1,1.21.83l1.19,4.9a1.45,1.45,0,0,1,0,.32.85.85,0,0,1-.86.93l-.93.13a1,1,0,0,1-1.22-.84l-.19-.76h-.1l-.73.06a1.08,1.08,0,0,1,.06.38Zm4.55-2.11c.06.71-.27,1.08-1,1.12l-1,.07a.94.94,0,0,1-1.12-1l-.42-4a1.12,1.12,0,0,1,.23-.82,1.07,1.07,0,0,1,.77-.34l1-.06a.94.94,0,0,1,1.12,1Zm9-15.39v.1h4.64q1.05,0,1.05,1t-1.05,1H237.64c-.71,0-1.06-.32-1.06-1s.35-1,1.06-1h4.54V33.76h-3c-.7,0-1.06-.32-1.06-1s.36-1,1.06-1h3V30h-3.84c-.7,0-1.06-.32-1.06-1s.36-1,1.06-1h3.84V27A.94.94,0,0,1,243.24,26h2A.94.94,0,0,1,246.28,27v1h3.87q1,0,1,1t-1,1h-3.87v1.89h3.1c.7,0,1.06.32,1.06,1s-.36,1-1.06,1h-3.1Zm-8.55,3.84a.94.94,0,0,1,1.06-1.06h2a1.24,1.24,0,0,1,.64.16h8.8A.94.94,0,0,1,251.27,39v9.92A.94.94,0,0,1,250.21,50h-2a1.24,1.24,0,0,1-.64-.16h-6.18a1.24,1.24,0,0,1-.64.16h-2a.94.94,0,0,1-1.06-1.06Zm2.05,14.69a1.34,1.34,0,0,1-.58.13,1.15,1.15,0,0,1-.86-.42l-.16-.16a1,1,0,0,1-.35-.67c0-.32.21-.58.64-.77l2.78-1.25a1.34,1.34,0,0,1,.58-.13,1.13,1.13,0,0,1,.86.42l.16.16a1,1,0,0,1,.35.67c0,.32-.21.58-.64.77Zm7.39-13.67h-5.34v1.32h5.34Zm-5.34,4.74h5.34v-1.5h-5.34Zm0,3.3h5.34V46.53h-5.34Zm9,3.87c.43.19.64.45.64.77a1.07,1.07,0,0,1-.28.64l-.23.22a1.3,1.3,0,0,1-.89.45,1.27,1.27,0,0,1-.55-.13l-3.2-1.41c-.43-.19-.64-.45-.64-.77a1,1,0,0,1,.29-.64l.22-.22a1.3,1.3,0,0,1,.9-.45,1.13,1.13,0,0,1,.54.13Z" class="cls-2"/><path data-cppathid="10046" d="M275.49,52.32a1,1,0,0,1-.83.45,1.32,1.32,0,0,1-.61-.16l-1-.45a.88.88,0,0,1-.61-.77,1.43,1.43,0,0,1,.26-.67,11,11,0,0,0,1.18-2.35,17,17,0,0,0,.8-2.93,16.42,16.42,0,0,0,.29-3.1,12.56,12.56,0,0,0-1.44-6.4,6.32,6.32,0,0,0-4.06-3.11,43.64,43.64,0,0,1,.77,7.62,16.63,16.63,0,0,1-1.84,8.45A5.94,5.94,0,0,1,263,52a6.9,6.9,0,0,1-3.81-1,7.05,7.05,0,0,1-2.52-2.9,9.54,9.54,0,0,1-.9-4.24,13.74,13.74,0,0,1,.93-5.06,13.38,13.38,0,0,1,2.57-4.17,12.07,12.07,0,0,1,3.81-2.83,10.56,10.56,0,0,1,4.63-1,12.67,12.67,0,0,1,6.08,1.39,9.59,9.59,0,0,1,3.93,4,13.17,13.17,0,0,1,1.38,6.23A14.49,14.49,0,0,1,275.49,52.32Zm-15.61-8.51a10.32,10.32,0,0,0,.44,3.12,6.73,6.73,0,0,0,1.17,2.29,2,2,0,0,0,1.52.86c.6,0,1.13-.44,1.59-1.33a12.78,12.78,0,0,0,1.08-3.6,29.32,29.32,0,0,0,.4-5.12c0-1.08,0-2.2-.14-3.36s-.25-2.32-.46-3.52a8.49,8.49,0,0,0-2.84,2.37,12.85,12.85,0,0,0-2,3.76A13.71,13.71,0,0,0,259.88,43.81Z" class="cls-2"/><path data-cppathid="10047" d="M287.68,52.42a.93.93,0,0,1-1.05,1h-2a.93.93,0,0,1-1.05-1V27.33a.94.94,0,0,1,1.05-1.06h2a1.14,1.14,0,0,1,.77.26H295a.93.93,0,0,1,1.06,1.06V38.37A.94.94,0,0,1,295,39.43h-2a1.07,1.07,0,0,1-.67-.2h-4.71Zm4.32-24h-4.32v3.68H292Zm-4.32,8.86H292V34.05h-4.32Zm4.42,15.11a1.17,1.17,0,0,1-.86.41,1.62,1.62,0,0,1-.61-.16l-.93-.41c-.43-.19-.64-.45-.64-.77a1,1,0,0,1,.35-.7l2.4-2.5a1.53,1.53,0,0,1-.45.06h-2a.94.94,0,0,1-1.06-1.05V43.59a.94.94,0,0,1,1.06-1.06h1.5l-.57-.8a1.13,1.13,0,0,1-.26-.64c0-.36.24-.63.71-.8l1.28-.45a1.45,1.45,0,0,1,.48-.09,1.1,1.1,0,0,1,.92.54l1.28,1.76a1.13,1.13,0,0,1,.26.64v0h3.74a1,1,0,0,1,.29-.67l1.47-1.82a1.17,1.17,0,0,1,.93-.48,1.72,1.72,0,0,1,.51.09l1.16.45c.44.15.67.41.67.77a1.09,1.09,0,0,1-.29.67l-.8,1h1.09a.93.93,0,0,1,1.05,1.06V47.3a.93.93,0,0,1-1.05,1.05h-2a1.09,1.09,0,0,1-.67-.19h-.77v2.69H301v-.29c0-.17.35-.25,1.05-.25h2a.93.93,0,0,1,1.05,1v.35a.93.93,0,0,1-1.05,1.06h-6.79a.93.93,0,0,1-1-1.06V48.16h-.35a1.09,1.09,0,0,1-.36.67Zm8.61-7.78h-8.29v1.6h8.29Zm5.5,8.23c-.7-.07-1-.42-.93-1.06s.21-1,.29-1l.13,0V39h-4.8a1,1,0,0,1-.9.42h-2A.94.94,0,0,1,297,38.37v-11A.94.94,0,0,1,298,26.27h2a1.12,1.12,0,0,1,.77.26h8a.94.94,0,0,1,1.06,1.06V52c0,.75-.37,1.09-1.09,1Zm-.51-24.42h-4.64V32h4.64Zm-4.64,8.64h4.64V33.92h-4.64Z" class="cls-2"/><path data-cppathid="10048" d="M317.41,53a1.23,1.23,0,0,1-1.47-.28l-.16-.16a1,1,0,0,1-.32-.68c0-.32.21-.57.64-.76l3.9-1.76h-1.18a.94.94,0,0,1-1.06-1.06v-9a.94.94,0,0,1,1.06-1.06h2a1.09,1.09,0,0,1,.84.32h16.89a.93.93,0,0,1,1.06,1.06v8.8a.93.93,0,0,1-1.06,1h-2a1.15,1.15,0,0,1-.64-.16h-2.5v1.6h5.28V50.4c0-.32.35-.48,1.06-.48h2A.93.93,0,0,1,342.79,51v.77a.93.93,0,0,1-1.06,1H330.37a.93.93,0,0,1-1.05-1V49.28h-4a.92.92,0,0,1-.51.42Zm9.06-17.34v.1h1.66c.71,0,1.06.32,1.06,1s-.35,1-1.06,1h-8.8a1.13,1.13,0,0,1-.67.19h-2a.93.93,0,0,1-1.06-1.06V26.63a.93.93,0,0,1,1.06-1.06h2a1.07,1.07,0,0,1,.67.19H328q1.05,0,1,1t-1,1h-1.51v1.44h1.76a.93.93,0,0,1,1.06,1.06v3.39a.94.94,0,0,1-1.06,1.06h-1.82Zm-4-7.87v-.1h-2.72v1.44h2.72V27.78ZM325.25,31h-5.53v1.47h5.53Zm-2.88,3.49v-.1h-2.65v1.32h2.65V34.53Zm13.12,5.92H321.86v1.09h13.63Zm-13.63,4h13.63v-1H321.86Zm0,2.94h13.63v-1H321.86ZM333.76,33a.93.93,0,0,1-1.12,1l-2-.09c-.73,0-1.06-.42-1-1.12l.64-6a.94.94,0,0,1,1.12-1l2,.1a.9.9,0,0,1,1,1.12l-.13,1.34h6.95q1.05,0,1.05,1t-1.05,1h-7.14Zm6.79,2q1.05,0,1.05,1t-1.05,1h-7.39c-.71,0-1.06-.32-1.06-1s.35-1,1.06-1Z" class="cls-2"/></g></g></g></g></g></svg>