<?xml version="1.0" encoding="UTF-8"?>
<svg xmlns="http://www.w3.org/2000/svg" onmouseup="{ if(window.parent.document.onmouseup) window.parent.document.onmouseup(arguments[0]);}" viewBox="0 0 406.7 113.09"><defs><style>.cls-1{fill:#fff100;}.cls-2{fill:#603813;}</style></defs><g data-name="Layer 2" id="Layer_2"><g id="backlog"><g data-name="2023 jp" id="_2023_jp"><g data-name="fully-refined Product Backlog" id="fully-refined_Product_Backlog"><g data-name="View Grades current semester compact going in" id="View_Grades_current_semester_compact_going_in"><path data-cppathid="10000" transform="translate(-0.69)" d="M403,101.59a12.39,12.39,0,0,1-13.23,11.47L12.19,86A12.38,12.38,0,0,1,.72,72.76L5.11,11.49A12.38,12.38,0,0,1,18.35,0L395.89,27.09a12.4,12.4,0,0,1,11.47,13.24Z" class="cls-1"/><path data-cppathid="10001" transform="translate(-0.69)" d="M100.65,49.09a.82.82,0,0,1-.63.25,1,1,0,0,1-.48-.18l-.64-.36a.67.67,0,0,1-.4-.62.77.77,0,0,1,.31-.52l10.1-8.37a.85.85,0,0,1,.64-.24,1,1,0,0,1,.48.18l.63.36a.66.66,0,0,1,.4.62v0l0,0L119,48.88a.79.79,0,0,1,.23.56.67.67,0,0,1-.48.56l-.69.27a1.26,1.26,0,0,1-.5.09A.86.86,0,0,1,117,50l-7.56-8.22Zm8,11.41a.89.89,0,0,1-.68.27,1.46,1.46,0,0,1-.43-.15l-.67-.37a.66.66,0,0,1-.42-.62.77.77,0,0,1,.31-.52l6.64-5.76-12.76-.91c-.54,0-.79-.3-.76-.79s.32-.72.86-.68l16.1,1.15c.46,0,.67.21.65.52a.75.75,0,0,1-.31.52Zm5.77-11.73c.54,0,.79.31.75.8s-.32.71-.86.67l-11-.79c-.54,0-.8-.3-.76-.79s.32-.72.86-.68Z" class="cls-2"/><path data-cppathid="10002" transform="translate(-0.69)" d="M128.3,61.81c-.42-.13-.61-.35-.59-.66a.81.81,0,0,1,.09-.29l0,0a.77.77,0,0,1,.78-.49.8.8,0,0,1,.26.05l2,.56.3-4.14-7.72-.56c-.54,0-.79-.3-.75-.79s.32-.72.86-.68l7.71.56v-.1a1.39,1.39,0,0,1,.49-1l3.5-2.85L128,50.88c-.54,0-.79-.3-.76-.79s.32-.72.86-.68l10.63.77q.69,0,.66.51a.88.88,0,0,1-.34.52L134.43,55l0,.54,8.16.58c.54,0,.79.31.75.8s-.32.71-.86.67L134.28,57l-.39,5.44c0,.51-.27.74-.71.71a.87.87,0,0,1-.22,0Zm-4.63-15.75a.73.73,0,0,1,.87-.75l1,.08-.73-3.2,0-.15v-.15c0-.39.26-.6.71-.62l1.41-.09a.76.76,0,0,1,.91.65l.79,3.48a.77.77,0,0,1,0,.15.76.76,0,0,1,0,.15.88.88,0,0,1,0,.2l3.77.27-.69-3.48a.78.78,0,0,1,0-.14.81.81,0,0,1,0-.15c0-.4.27-.6.71-.62l1.44-.07a.77.77,0,0,1,.91.71l.7,3.52a.4.4,0,0,1,0,.15.38.38,0,0,1,0,.15.32.32,0,0,1,0,.14l2.89.21v-.12a1.07,1.07,0,0,1,.1-.39l1.67-3.37a.78.78,0,0,1,1-.5l1.28.34q.6.16.57.66a1.26,1.26,0,0,1-.1.38l-1.59,3.21,2.67.19c.51,0,.75.27.72.7a.61.61,0,0,1,0,.13.93.93,0,0,1,0,.13l-1,2.89a.79.79,0,0,1-1,.59l-1.4-.27c-.46-.08-.67-.33-.64-.73a1.45,1.45,0,0,1,0-.25l.63-1.9-14.58-1-.15,2.13a.72.72,0,0,1-.87.75l-1.51-.11a.72.72,0,0,1-.75-.87Z" class="cls-2"/><path data-cppathid="10003" transform="translate(-0.69)" d="M149.48,63.16a.82.82,0,0,1-.8.51h-.12a.34.34,0,0,1-.12,0l-1.28-.36q-.6-.16-.57-.66a1.26,1.26,0,0,1,.1-.38l1.4-2.73a.78.78,0,0,1,.78-.49.8.8,0,0,1,.26,0l1.28.36c.41.11.6.33.57.65a1.25,1.25,0,0,1-.1.39Zm6.7-5.85v.07l.42,0c.54,0,.79.31.75.8s-.32.71-.86.67l-8.94-.64c-.54,0-.79-.3-.75-.79s.32-.72.86-.68l.39,0v-.07l.67-9.39h-.25c-.54,0-.79-.31-.75-.8s.32-.71.86-.67h.24l.19-2.64a.72.72,0,0,1,.87-.75l1.52.11a.71.71,0,0,1,.75.86L152,46.1l1.86.13.19-2.64a.72.72,0,0,1,.87-.75l1.52.1a.73.73,0,0,1,.75.87L157,46.46h.24c.54,0,.79.31.76.8s-.33.71-.86.67h-.25Zm-5-.36V57l1.86.14v-.08l.17-2.4-1.86-.13Zm.28-3.87,1.86.13.15-2.08L151.61,51Zm.25-3.55,1.86.13.14-2-1.86-.13Zm4.75,12.06a.87.87,0,0,1,.07.42q0,.47-.63.57l-1.27.18a1.12,1.12,0,0,1-.27,0,.78.78,0,0,1-.72-.57L153,60.63a.91.91,0,0,1-.07-.43q0-.47.63-.57l1.27-.2.13,0h.12a.84.84,0,0,1,.75.6ZM160,64.11a.72.72,0,0,1-.88.7l-1.52-.13a.69.69,0,0,1-.72-.89l2.35-19.85a.72.72,0,0,1,.89-.7l1.52.13a.71.71,0,0,1,.7.49l5.37.39a.72.72,0,0,1,.75.87L167.1,64.39c0,.58-.34.82-.89.73l-3.88-.57q-.72-.14-.69-.72a.84.84,0,0,1,.31-.63.79.79,0,0,1,.66-.14l1.41.23.33-4.63-3.65-.26Zm.86-7.18,3.58.26.34-4.8-3.35-.24Zm4.41-11.38-3-.22-.63,5.35,3.28.24Z" class="cls-2"/><path data-cppathid="10004" transform="translate(-0.69)" d="M185.66,65.41a.78.78,0,0,1-.66.29,1.08,1.08,0,0,1-.46-.15l-.71-.4c-.3-.17-.44-.37-.42-.62a1.12,1.12,0,0,1,.23-.5,8.43,8.43,0,0,0,1-1.74,12.53,12.53,0,0,0,.77-2.19,12.24,12.24,0,0,0,.39-2.36,9.54,9.54,0,0,0-.75-5,4.8,4.8,0,0,0-2.94-2.6,33.19,33.19,0,0,1,.17,5.87,12.69,12.69,0,0,1-1.87,6.37,4.56,4.56,0,0,1-4.32,2.08,5.25,5.25,0,0,1-2.86-1,5.4,5.4,0,0,1-1.78-2.36,7.3,7.3,0,0,1-.45-3.29A10.57,10.57,0,0,1,172,54a10.14,10.14,0,0,1,2.2-3.06,9.51,9.51,0,0,1,3.07-2,8.25,8.25,0,0,1,3.6-.53,9.66,9.66,0,0,1,4.57,1.4,7.33,7.33,0,0,1,2.8,3.28A10.23,10.23,0,0,1,189,58,11.14,11.14,0,0,1,185.66,65.41ZM174.18,58a7.65,7.65,0,0,0,.17,2.42,5,5,0,0,0,.77,1.81,1.52,1.52,0,0,0,1.11.75q.69,0,1.29-.93a10,10,0,0,0,1-2.7,23,23,0,0,0,.58-3.9c.06-.83.09-1.69.08-2.58s-.07-1.79-.16-2.72a6.38,6.38,0,0,0-2.3,1.66A9.56,9.56,0,0,0,175,54.61,10.33,10.33,0,0,0,174.18,58Z" class="cls-2"/><path data-cppathid="10005" transform="translate(-0.69)" d="M194.63,66.07a.72.72,0,0,1-.89.7l-1.49-.13a.7.7,0,0,1-.73-.89l1.76-15a1.15,1.15,0,0,1,.19-.48.6.6,0,0,1-.1-.42c0-.49.33-.72.87-.68l8.77.63-.63-2.56a1,1,0,0,1,0-.32c0-.37.26-.57.71-.59l1.38-.09h.2a.74.74,0,0,1,.72.66l.76,3.13,6.76.49c.54,0,.79.3.75.79s-.32.72-.86.68l-6.29-.45,1.63,6.69,2.49-3.42a.87.87,0,0,1,.77-.41,1.82,1.82,0,0,1,.31.07l1,.4c.37.15.54.37.52.65a.82.82,0,0,1-.18.43l-4.12,5.64,1,3.88,1.42-.27a1,1,0,0,1,.27,0,.82.82,0,0,1,.72.56,1.14,1.14,0,0,1,.1.4c0,.33-.24.53-.64.6l-3.66.67-.15,0h-.12a.75.75,0,0,1-.7-.64l-.49-2-1.48,2a.86.86,0,0,1-.77.42,1.28,1.28,0,0,1-.31-.08l-1-.39c-.37-.16-.54-.37-.52-.65a.87.87,0,0,1,.18-.43l3.11-4.26-2.45-10.08-7-.5a1.29,1.29,0,0,1,0,.28l-.5,4.19,5.93.43a.68.68,0,0,1,.7.89l-1.45,9.55c-.08.46-.32.69-.71.66a1.32,1.32,0,0,1-.27-.07l-3.8-1.23q-.6-.19-.57-.63a.38.38,0,0,1,.05-.17.87.87,0,0,0,.07-.17l0-.07a.83.83,0,0,1,.8-.46l.15,0,.14,0,1.2.38L199.31,57l-3.6-.26ZM212,48.46a.76.76,0,0,1,.38.62.76.76,0,0,1-.34.51l-.26.18a1,1,0,0,1-.65.23,1.08,1.08,0,0,1-.46-.18L207.84,48a.73.73,0,0,1-.37-.62.68.68,0,0,1,.33-.51l.26-.18a1,1,0,0,1,.66-.23.93.93,0,0,1,.45.18Z" class="cls-2"/><path data-cppathid="10006" transform="translate(-0.69)" d="M218.06,66.82a.73.73,0,0,1-.93.67l-.78-.11a.69.69,0,0,1-.67-.91l.58-3.7a.74.74,0,0,1,.94-.67l.78.11a.69.69,0,0,1,.67.91Zm4.19,1.36a.72.72,0,0,1-.87.75l-1.51-.11a.73.73,0,0,1-.76-.87l.51-7V60.9l-2.71,0c-.49,0-.73-.17-.7-.51a.8.8,0,0,1,.21-.48l2.5-3.34,0-.08L217,53.62a.87.87,0,0,1-.18-.58.8.8,0,0,1,.26-.55l4.28-4.86a.85.85,0,0,1,.72-.34,1,1,0,0,1,.38.1l.91.38q.51.21.48.63a.92.92,0,0,1-.24.47l-3.83,4.38.75,1.16,1-1.31a.88.88,0,0,1,.79-.38,1.16,1.16,0,0,1,.32.07l1,.39c.37.16.54.37.52.63a.66.66,0,0,1-.06.22,1.76,1.76,0,0,1-.14.23l-3.87,5.17,3,0-.3-1.72a1.85,1.85,0,0,1,0-.25.66.66,0,0,1,.72-.66l.71-.05a.74.74,0,0,1,.89.71l.64,3.81a1,1,0,0,1,0,.25.65.65,0,0,1-.71.66l-.72.05a.74.74,0,0,1-.88-.71l-.11-.6h-.64a.67.67,0,0,1,0,.29Zm3.6-1.37c0,.54-.27.81-.83.8h-.78a.72.72,0,0,1-.81-.79l-.1-3.09a.9.9,0,0,1,.22-.61.78.78,0,0,1,.61-.21h.78a.73.73,0,0,1,.81.8Zm7.7-11.29v.07l3.56.26c.53,0,.79.3.75.79s-.32.71-.86.68l-10.17-.73c-.53,0-.79-.31-.75-.8s.32-.71.86-.67l3.48.25v-.08l.07-.95-2.33-.17c-.53,0-.79-.3-.75-.79s.32-.72.86-.68l2.33.17.1-1.45-2.94-.21c-.54,0-.79-.3-.75-.79s.32-.72.86-.68l2.94.21,0-.78a.72.72,0,0,1,.87-.75l1.52.11a.71.71,0,0,1,.75.86l-.06.79,3,.21c.54,0,.79.3.75.79s-.32.72-.86.68l-3-.21-.11,1.44,2.38.17c.54,0,.79.31.75.79s-.32.72-.86.68l-2.37-.17Zm-6,13.82a1,1,0,0,1-.45.07.92.92,0,0,1-.64-.36l-.11-.14a.7.7,0,0,1-.23-.53c0-.25.19-.43.53-.55l2.2-.81a1.07,1.07,0,0,1,.45-.06.9.9,0,0,1,.63.36l.12.14a.74.74,0,0,1,.23.53c0,.24-.19.43-.53.55ZM226.8,58a.71.71,0,0,1,.86-.75l1.52.11a.86.86,0,0,1,.48.15l6.74.49a.71.71,0,0,1,.75.86l-.54,7.6a.72.72,0,0,1-.87.75l-1.52-.11a1,1,0,0,1-.48-.16L229,66.59a.87.87,0,0,1-.5.09L227,66.57a.72.72,0,0,1-.75-.86Zm2.64,7.16,4.09.29.07-1.06-4.09-.29Zm.18-2.53,4.09.3.08-1.16-4.09-.29ZM234,59.29,229.88,59l-.08,1,4.1.29Zm2.19,9.32c.31.17.46.37.44.62a.78.78,0,0,1-.25.47l-.18.16a1.07,1.07,0,0,1-.72.3A1,1,0,0,1,235,70l-2.37-1.26c-.31-.17-.46-.37-.45-.62a.77.77,0,0,1,.26-.47l.18-.16a1,1,0,0,1,.71-.29.93.93,0,0,1,.41.12Z" class="cls-2"/><path data-cppathid="10007" transform="translate(-0.69)" d="M255,70.37a.79.79,0,0,1-.67.3,1,1,0,0,1-.45-.15l-.71-.4a.69.69,0,0,1-.43-.62A1.06,1.06,0,0,1,253,69a8.42,8.42,0,0,0,1-1.74,12.64,12.64,0,0,0,.77-2.2,12.94,12.94,0,0,0,.4-2.36,9.62,9.62,0,0,0-.76-5,4.8,4.8,0,0,0-2.94-2.6,32.24,32.24,0,0,1,.17,5.87,12.61,12.61,0,0,1-1.87,6.36,4.52,4.52,0,0,1-4.32,2.08,5.16,5.16,0,0,1-4.63-3.37,7.16,7.16,0,0,1-.46-3.29,10.51,10.51,0,0,1,1-3.82,10.14,10.14,0,0,1,2.2-3.06,9.34,9.34,0,0,1,3.07-2,8.25,8.25,0,0,1,3.6-.53,9.74,9.74,0,0,1,4.58,1.4,7.32,7.32,0,0,1,2.79,3.28,10.09,10.09,0,0,1,.71,4.84A11.13,11.13,0,0,1,255,70.37ZM243.48,63a7.87,7.87,0,0,0,.17,2.41,5.1,5.1,0,0,0,.77,1.82,1.53,1.53,0,0,0,1.11.74q.69.06,1.29-.93a9.89,9.89,0,0,0,1-2.69,23.25,23.25,0,0,0,.59-3.9c.06-.83.08-1.69.07-2.58s-.06-1.79-.16-2.72a6.27,6.27,0,0,0-2.3,1.66,9.86,9.86,0,0,0-1.75,2.76A10.44,10.44,0,0,0,243.48,63Z" class="cls-2"/><path data-cppathid="10008" transform="translate(-0.69)" d="M264.29,71.12a.71.71,0,0,1-.86.75l-1.52-.11a.72.72,0,0,1-.75-.87l1.37-19.2a.72.72,0,0,1,.87-.75l1.52.1a.86.86,0,0,1,.57.24l5.86.42a.72.72,0,0,1,.75.87l-.59,8.25a.72.72,0,0,1-.87.75l-1.52-.1a.84.84,0,0,1-.5-.19L265,61Zm3.38.24a.87.87,0,0,1-.68.27,1.26,1.26,0,0,1-.46-.16l-.68-.37c-.32-.17-.47-.37-.45-.62a.75.75,0,0,1,.31-.52l2-1.78a1,1,0,0,1-.35,0l-1.52-.11a.72.72,0,0,1-.75-.87l.21-2.84a.71.71,0,0,1,.86-.75l1.16.08-.4-.64a.86.86,0,0,1-.16-.51c0-.27.21-.46.58-.57l1-.27a1,1,0,0,1,.38,0,.88.88,0,0,1,.68.47l.88,1.41a.86.86,0,0,1,.16.51v0l2.87.21a.78.78,0,0,1,.25-.5l1.23-1.32a.88.88,0,0,1,.74-.31,1.26,1.26,0,0,1,.38.1l.86.41c.34.14.49.34.47.62a.82.82,0,0,1-.25.5l-.67.71.83.06a.72.72,0,0,1,.75.87l-.19,2.7a.72.72,0,0,1-.87.75l-1.52-.11a.84.84,0,0,1-.5-.19l-.59,0v.07l-.14,2,.53,0,0-.22c0-.13.28-.18.82-.14l1.52.11a.71.71,0,0,1,.75.86l0,.27a.71.71,0,0,1-.86.75l-5.2-.37a.71.71,0,0,1-.75-.86l.19-2.65v-.07l-.27,0a.81.81,0,0,1-.31.49Zm-2.55-11.81,3.31.24.18-2.5-3.31-.24Zm3.8-6.55-3.31-.23-.2,2.82,3.3.23Zm5.77,12.88-6.34-.46-.09,1.23,6.34.45Zm3.76,6.6c-.53-.09-.75-.38-.65-.86s.21-.73.27-.72l.1,0,.65-9.09-3.67-.26a.77.77,0,0,1-.71.27l-1.52-.11a.72.72,0,0,1-.75-.87l.6-8.45a.72.72,0,0,1,.87-.75l1.52.11a.81.81,0,0,1,.57.24l6.1.43a.72.72,0,0,1,.75.87L281.24,72c0,.57-.34.81-.89.72Zm-3.08-12.36,3.56.25.17-2.43-3.55-.25Zm4-6.36-3.55-.26-.2,2.72,3.55.25Z" class="cls-2"/><path data-cppathid="10009" transform="translate(-0.69)" d="M287,73.19a1.12,1.12,0,0,1-.45.07.93.93,0,0,1-.66-.37l-.12-.13a.72.72,0,0,1-.2-.54c0-.24.19-.43.53-.55l3.08-1.13-.9-.07a.71.71,0,0,1-.75-.86L288,62.7a.72.72,0,0,1,.87-.75l1.52.11a.82.82,0,0,1,.62.29l12.93.92a.72.72,0,0,1,.75.87l-.48,6.74a.72.72,0,0,1-.87.75l-1.52-.11a.92.92,0,0,1-.48-.16l-1.91-.14v.08l-.09,1.15,4.05.29,0-.37c0-.24.3-.35.84-.31l1.52.11a.73.73,0,0,1,.75.87l-.05.59a.72.72,0,0,1-.86.75l-8.7-.63a.71.71,0,0,1-.75-.86l.13-1.82V71l-3.09-.22a.72.72,0,0,1-.42.29Zm7.88-12.78v.07l1.27.09c.54,0,.79.31.76.8s-.32.71-.86.67l-6.74-.48a.86.86,0,0,1-.52.11l-1.52-.11a.72.72,0,0,1-.75-.87l.55-7.79a.72.72,0,0,1,.87-.75l1.52.11a.84.84,0,0,1,.5.19l6.67.47c.54,0,.79.31.75.8s-.32.71-.86.67l-1.15-.08v.08l-.06,1v.07l1.35.1a.72.72,0,0,1,.75.87L297.22,59a.71.71,0,0,1-.86.75l-1.4-.1Zm-3.07-1.08v-.08l-2-.14-.07,1,2,.15v-.08Zm2.4-2.52-4.24-.3-.08,1.13,4.24.3Zm-2-2.65v-.07l-2.08-.15-.08,1.1,2.09.15v-.07Zm-1.52,15,10.44.75.06-.79-10.44-.74Zm.16-2.25,10.44.74.05-.73L291,66.13Zm10.66-2.29-10.44-.75-.06.83,10.44.75Zm-.92-5.81a.72.72,0,0,1-.91.68l-1.51-.18a.72.72,0,0,1-.7-.92l.82-4.57a.72.72,0,0,1,.91-.67l1.52.18a.7.7,0,0,1,.67.91l-.17,1,5.31.38c.54,0,.8.31.76.8s-.32.71-.86.68l-5.46-.4Zm5.09,1.92c.54,0,.79.3.75.79s-.32.72-.86.68l-5.66-.4c-.54,0-.79-.31-.75-.8s.32-.71.86-.67Z" class="cls-2"/></g></g></g></g></g></svg>