<?xml version="1.0" encoding="UTF-8"?>
<svg xmlns="http://www.w3.org/2000/svg" onmouseup="{ if(window.parent.document.onmouseup) window.parent.document.onmouseup(arguments[0]);}" viewBox="0 0 77.29 192.81"><defs><style>.cls-1{fill:#fcc488;}.cls-2,.cls-4,.cls-8,.cls-9{stroke:#000;}.cls-2{stroke-width:2.52px;}.cls-3{fill:#ccebf6;}.cls-4{stroke-width:0.63px;}.cls-5{fill:#fff;}.cls-6{fill:#332518;}.cls-7{fill:#245468;}.cls-8{fill:none;stroke-width:2px;}.cls-9{stroke-width:1.91px;}</style></defs><g data-name="Layer 2" id="Layer_2"><g id="ProductOwner"><path data-cppathid="10000" d="M10.45,56.32c-.66-2.44-1-4.16-1-4.16s2.15-6.51.2-5.15-2.16,4.92-2.16,4.92S5.93,44.6,4.59,44.24s.28,4.4.28,4.4a32.49,32.49,0,0,0-2.79-4.19c-.55-.36,1.2,4.21,1.2,4.21S.38,46.24,0,46.79s4.52,6.39,5.34,8.77c.17.47,1.67,1.79,2,3.32C8.64,65,11.41,59.87,10.45,56.32Z" class="cls-1"/><path data-cppathid="10001" d="M40.79,88.82s2.91-1.54.2-4.49-19.18-9.72-21.15-12c-8.47-9.6-8.26-17.93-8.26-17.93l-8,2.75S9.36,70.6,13.45,76.62,40.79,88.82,40.79,88.82Z" class="cls-2"/><path data-cppathid="10002" d="M43.69,72.32s-12.07,24.52-14.1,51.9c-.13,1.67-.26,5.05-.26,5.05l22.13,2.36s0-1.37,0-2c0-18.75-.66-40-.66-40s-1.52-22.31-3.54-21.3S43.69,72.32,43.69,72.32Z" class="cls-2"/><path data-cppathid="10003" d="M30.78,124.92s-.17,2.58-.22,3.88c-1,25.18,6,52.37,6,52.37s-5.82,1.94-6.79,3.88,13.58,1,13.58,1-2.91-34.92-1.94-42.67,7.76,40.73,9.7,43.64,9.21,5.82,9.21,5.82-1.46-5.82-2.91-8.25S52.32,148,52.12,129.77v-1.46Z"/><path data-cppathid="10004" d="M44.36,73.52S32.81,97,30.87,123.16c-.12,1.6-.25,4.83-.25,4.83l21.17,2.26s0-1.31,0-1.94c0-17.94-.63-38.3-.63-38.3s-1.46-21.34-3.4-20.37S44.36,73.52,44.36,73.52Z" class="cls-3"/><path data-cppathid="10005" d="M42.51,130.91l9.93,1.21s0-1.4,0-2.06c0-19-.59-40.66-.59-40.66s-.72-12-1.81-18.12C43.25,72.06,42.51,130.91,42.51,130.91Z" class="cls-2"/><path data-cppathid="10006" d="M36.49,64.41s0,0-.47-1.16a7.29,7.29,0,0,1-.21-.74S43,60.28,45.2,58.69c5.69-4.06,11.24-10,7.31-8.4-10.29,4.34-22.24-5.93-22.24-5.93s-.13.49-.17.32c-1.57-7.94-2-16.74,1.52-23.33C39.74,5.92,64.92-7.89,72.23,9.17s-.81,28.43-6.5,39S49.24,72.46,44.34,73.07C40,73.61,36.49,64.41,36.49,64.41Z" class="cls-1"/><path data-cppathid="10007" d="M45.77,25.9c0,1.79.86,3.24,1.91,3.24s1.91-1.45,1.91-3.24-.86-3.25-1.91-3.25S45.77,24.1,45.77,25.9Z" class="cls-4"/><path data-cppathid="10008" d="M48.25,24.37a1,1,0,1,0,1-1A1,1,0,0,0,48.25,24.37Z" class="cls-5"/><ellipse data-cppathid="10009" ry="2.67" rx="1.57" cy="23.72" cx="40.15" class="cls-4"/><path data-cppathid="10010" d="M40.29,22.58a1,1,0,1,0,1-1A1,1,0,0,0,40.29,22.58Z" class="cls-5"/><path data-cppathid="10011" d="M69.3,5.08s-9.75,3.24-12.46,6.49-2.67,3.11-2.71,3.25c-1.43-3.64,0-5.41,0-5.41s-5.6.42-7.18,2.84a3.72,3.72,0,0,1,1.77-3.93s-5.61.1-8.71,2.24A5.75,5.75,0,0,1,43.3,7.24L37,6.1A37.85,37.85,0,0,1,49.88.69a32.6,32.6,0,0,1,15.63.6C67.67,1.83,69.3,5.08,69.3,5.08Z" class="cls-6"/><path data-cppathid="10012" d="M69.3,5.08S67.67,14.28,67.67,17s7,9.75,7,9.75,3.8-8.67,2.17-13.54S69.3,5.08,69.3,5.08Z" class="cls-6"/><polygon data-cppathid="10013" points="44.89 76.34 43.13 75.63 42.79 81.31 44.89 76.34" class="cls-7"/><polygon data-cppathid="10014" points="42.79 81.31 37.33 98.88 37.69 107.75 42.17 99.68 42.79 81.31" class="cls-7"/><path data-cppathid="10015" d="M65.44,26.07a51.66,51.66,0,0,1-3.38,8.79L43.79,31.48,44.47,22l-5.08,8.45-12.18-2,1.36-10.82" class="cls-8"/><path data-cppathid="10016" d="M28.57,18.45s29.54-.31,47.25,14.83c0,0-.11,1.75-.11,2.78,0,.81-.91-1.75-1.58-2.67C69.5,27.21,47.85,18.66,28.57,19.28,28.34,18.56,28.57,18.45,28.57,18.45Z" class="cls-9"/><path data-cppathid="10017" d="M19,43.25c-.36-2.72-.5-4.62-.5-4.62s3.24-6.68.95-5.5-3,5-3,5-.59-8.1-2-8.67-.33,4.77-.33,4.77-1.85-4.44-2.39-4.92.68,4.7.68,4.7-2.76-3-3.23-2.47S13.13,39,13.67,41.7c.1.53,1.53,2.16,1.66,3.86C15.83,52.33,19.55,47.21,19,43.25Z" class="cls-1"/><path data-cppathid="10018" d="M47,82.54s3.35-1.24.86-4.79-19.22-13.21-21-15.9c-7.73-11.53-6.3-20.46-6.3-20.46l-9,1.8S15.8,58.44,19.33,65.5,47,82.54,47,82.54Z" class="cls-2"/></g></g></svg>