<?xml version="1.0" encoding="UTF-8"?>
<svg xmlns="http://www.w3.org/2000/svg" onmouseup="{ if(window.parent.document.onmouseup) window.parent.document.onmouseup(arguments[0]);}" viewBox="0 0 403.28 86.18"><defs><style>.cls-1{fill:#fff100;}.cls-2{fill:#603813;}</style></defs><g data-name="Layer 2" id="Layer_2"><g id="backlog"><g data-name="2023 jp" id="_2023_jp"><g data-name="fully-refined Product Backlog" id="fully-refined_Product_Backlog"><g data-name="View Grades previous semester compact" id="View_Grades_previous_semester_compact"><path data-cppathid="10000" d="M403.28,73.8a12.39,12.39,0,0,1-12.39,12.38H12.38A12.38,12.38,0,0,1,0,73.8V12.38A12.38,12.38,0,0,1,12.38,0H390.89a12.39,12.39,0,0,1,12.39,12.38Z" class="cls-1"/><path data-cppathid="10001" d="M103.58,37.06a.83.83,0,0,1,0,.15.76.76,0,0,1,0,.15.88.88,0,0,1,0,.17h6.11a.82.82,0,0,1-.1-.37.71.71,0,0,1,0-.2.7.7,0,0,0,.06-.19l1.75-3.91a.69.69,0,0,1,.86-.44l1.15.24a.83.83,0,0,1,.74.84.52.52,0,0,1,0,.18,1.28,1.28,0,0,1-.07.21l-1.62,3.64H116a.87.87,0,0,1,.59.21.63.63,0,0,1,.25.52.64.64,0,0,1-.25.53A.87.87,0,0,1,116,39H96.46a.87.87,0,0,1-.59-.21.66.66,0,0,1-.24-.53.64.64,0,0,1,.24-.52.87.87,0,0,1,.59-.21h4.13l-1.18-3.59a1.09,1.09,0,0,1,0-.32.82.82,0,0,1,.19-.53.89.89,0,0,1,.55-.28l1.3-.2a.84.84,0,0,1,.54.09.71.71,0,0,1,.34.43Zm-4,16.06a.85.85,0,0,1-.84.84H97.27a.78.78,0,0,1-.59-.25.81.81,0,0,1-.24-.59V40.3a.82.82,0,0,1,.24-.59.81.81,0,0,1,.59-.24h1.47a.78.78,0,0,1,.77.49h6.14a.84.84,0,0,1,.59.24.82.82,0,0,1,.24.59V53.15a.81.81,0,0,1-.28.64.89.89,0,0,1-.7.19l-3.64-.49a1,1,0,0,1-.63-.32.52.52,0,0,1-.15-.56l0-.08A.73.73,0,0,1,102,52l1.38.19V48.7H99.58Zm3.76-11.69H99.58v1.94h3.76Zm-3.76,5.8h3.76V44.85H99.58Zm11.71,2.23a.81.81,0,0,1-.24.59.78.78,0,0,1-.59.25H109a.85.85,0,0,1-.84-.84V41.31a.78.78,0,0,1,.25-.59.82.82,0,0,1,.59-.25h1.47a.82.82,0,0,1,.59.25.81.81,0,0,1,.24.59Zm-.24,4.08a1,1,0,0,1-.63-.3.56.56,0,0,1-.16-.54l0,0a.91.91,0,0,1,.29-.48.64.64,0,0,1,.54-.14l1.65.17V40.72a.81.81,0,0,1,.24-.59.83.83,0,0,1,.59-.25h1.48a.83.83,0,0,1,.59.25.81.81,0,0,1,.24.59v12.4a.8.8,0,0,1-.28.64A.91.91,0,0,1,115,54Z" class="cls-2"/><path data-cppathid="10002" d="M126.47,53.76c-.42-.1-.64-.3-.64-.61a.67.67,0,0,1,.08-.3l0-.05a.77.77,0,0,1,.74-.54,1,1,0,0,1,.27,0l2,.41V48.55h-7.73c-.54,0-.81-.24-.81-.73s.27-.74.81-.74H129V47a1.34,1.34,0,0,1,.42-1l3.29-3.1h-7.24c-.54,0-.81-.24-.81-.74s.27-.73.81-.73h10.66c.45,0,.68.15.68.46a.77.77,0,0,1-.29.54l-4.37,4.13v.54h8.18c.54,0,.81.25.81.74s-.27.73-.81.73H132.1V54c0,.5-.22.76-.67.76a.65.65,0,0,1-.22,0Zm-5.74-15.37a.72.72,0,0,1,.81-.81h1l-1-3.15,0-.15a.61.61,0,0,1,0-.14c0-.4.22-.62.66-.67l1.4-.19a.77.77,0,0,1,1,.59l1,3.41a.8.8,0,0,1,0,.15.77.77,0,0,1,0,.15.5.5,0,0,1,0,.19h3.78l-.93-3.41a.83.83,0,0,1,0-.15c0-.05,0-.1,0-.15,0-.39.22-.61.67-.66l1.42-.17a.76.76,0,0,1,1,.64l1,3.46,0,.15a.71.71,0,0,1,0,.14.39.39,0,0,1,0,.15h2.9v-.12a1.15,1.15,0,0,1,.07-.39l1.43-3.49a.79.79,0,0,1,1-.57l1.3.25c.41.08.61.29.61.61a1.25,1.25,0,0,1-.07.4l-1.35,3.31H141c.5,0,.76.22.76.64,0,.05,0,.1,0,.14a.93.93,0,0,1,0,.13l-.74,3a.79.79,0,0,1-.93.66l-1.43-.17c-.45,0-.68-.28-.68-.69a1.44,1.44,0,0,1,0-.24l.49-1.94H123.87v2.13a.72.72,0,0,1-.81.81h-1.52a.72.72,0,0,1-.81-.81Z" class="cls-2"/><path data-cppathid="10003" d="M154,47.28v.07h.41c.54,0,.81.25.81.74s-.27.73-.81.73h-9c-.54,0-.81-.24-.81-.73s.27-.74.81-.74h.39V37.87h-.24c-.54,0-.81-.25-.81-.74s.27-.73.81-.73h.24V33.74a.72.72,0,0,1,.81-.81h1.52a.72.72,0,0,1,.82.81V36.4h1.86V33.74a.72.72,0,0,1,.81-.81h1.52a.72.72,0,0,1,.82.81V36.4h.24c.54,0,.81.24.81.73s-.27.74-.81.74H154Zm-6.27,6.31a.79.79,0,0,1-.76.56h-.12a.22.22,0,0,1-.12,0l-1.31-.27c-.41-.08-.61-.29-.61-.62a1.24,1.24,0,0,1,.07-.39L146.05,50a.75.75,0,0,1,.73-.54l.27,0,1.31.27c.4.08.61.29.61.62a1.24,1.24,0,0,1-.07.39ZM149,39.84h1.86v-2H149Zm0,3.56h1.86V41.31H149Zm0,3.88v.07h1.86V44.87H149Zm5.59,4.25a.86.86,0,0,1,.1.41c0,.31-.19.52-.59.62l-1.25.27-.27,0a.77.77,0,0,1-.76-.51L151,50.81a1,1,0,0,1-.1-.41c0-.31.2-.52.59-.62l1.26-.29a.21.21,0,0,1,.12,0H153a.83.83,0,0,1,.79.54Zm3.74,2.26a.73.73,0,0,1-.84.76l-1.52,0a.69.69,0,0,1-.79-.83l.94-20c0-.51.29-.76.83-.76l1.53,0a.7.7,0,0,1,.73.45h5.38a.72.72,0,0,1,.81.81V53.56c0,.58-.28.84-.83.79l-3.91-.29c-.49-.05-.74-.27-.74-.67a.84.84,0,0,1,.26-.65.8.8,0,0,1,.65-.18l1.43.12V48h-3.66Zm.34-7.22h3.59V41.75h-3.37Zm3.59-11.67h-3.05l-.24,5.38h3.29Z" class="cls-2"/><path data-cppathid="10004" d="M183.94,53.24a.8.8,0,0,1-.64.35,1.05,1.05,0,0,1-.46-.12l-.74-.35a.66.66,0,0,1-.47-.59,1.08,1.08,0,0,1,.2-.51,8.27,8.27,0,0,0,.91-1.81,12.32,12.32,0,0,0,.61-2.25,12.86,12.86,0,0,0,.22-2.38,9.62,9.62,0,0,0-1.1-4.91,4.86,4.86,0,0,0-3.12-2.38,33.53,33.53,0,0,1,.59,5.84,12.73,12.73,0,0,1-1.41,6.49A4.55,4.55,0,0,1,174.36,53a5.27,5.27,0,0,1-2.92-.81A5.45,5.45,0,0,1,169.5,50a7.34,7.34,0,0,1-.69-3.26,10.45,10.45,0,0,1,.72-3.88,10.16,10.16,0,0,1,2-3.2,9.43,9.43,0,0,1,2.93-2.18,8.19,8.19,0,0,1,3.55-.78,9.52,9.52,0,0,1,4.66,1.07,7.22,7.22,0,0,1,3,3.07,10,10,0,0,1,1.06,4.77A11.09,11.09,0,0,1,183.94,53.24Zm-12-6.53a8,8,0,0,0,.34,2.4,5,5,0,0,0,.9,1.75,1.54,1.54,0,0,0,1.16.67c.46,0,.87-.34,1.22-1a10,10,0,0,0,.84-2.77,23.27,23.27,0,0,0,.3-3.93c0-.83,0-1.69-.11-2.57s-.19-1.79-.35-2.71a6.4,6.4,0,0,0-2.18,1.82,9.83,9.83,0,0,0-1.54,2.89A10.32,10.32,0,0,0,172,46.71Z" class="cls-2"/><path data-cppathid="10005" d="M192.93,53.27c0,.51-.29.76-.83.76l-1.5,0a.7.7,0,0,1-.79-.84l.69-15.05a1.23,1.23,0,0,1,.15-.5.61.61,0,0,1-.12-.41c0-.49.27-.74.81-.74h8.79l-.81-2.5a1.14,1.14,0,0,1,0-.32c0-.38.22-.59.66-.64l1.38-.2h.19a.73.73,0,0,1,.76.61l1,3.07H210c.54,0,.81.25.81.74s-.27.73-.81.73h-6.32l2.12,6.56,2.23-3.58a.87.87,0,0,1,.74-.47,1.57,1.57,0,0,1,.32,0l1,.32c.38.13.57.33.57.61a1,1,0,0,1-.15.44l-3.71,5.92,1.23,3.81,1.4-.37.27,0a.82.82,0,0,1,.76.52.93.93,0,0,1,.12.39c0,.33-.19.54-.58.64l-3.62.93a.32.32,0,0,1-.14,0h-.13a.74.74,0,0,1-.73-.59l-.64-2-1.33,2.13a.83.83,0,0,1-.73.47,1,1,0,0,1-.32-.05l-1.06-.32c-.38-.13-.56-.33-.56-.61a.83.83,0,0,1,.14-.44l2.8-4.47-3.17-9.88h-7a2.45,2.45,0,0,1,0,.27l-.2,4.23h6a.67.67,0,0,1,.76.83l-.76,9.63c-.05.48-.27.71-.67.71a1,1,0,0,1-.27,0l-3.88-1c-.41-.1-.61-.3-.61-.59a.29.29,0,0,1,0-.17,1.89,1.89,0,0,0,.06-.18l0-.07a.85.85,0,0,1,.76-.52l.15,0a.8.8,0,0,1,.15,0l1.23.3.61-7.52h-3.61ZM209,34.46c.28.18.42.37.42.59a.77.77,0,0,1-.29.54l-.25.19a1,1,0,0,1-.64.27,1.08,1.08,0,0,1-.46-.14l-3-1.65a.75.75,0,0,1-.42-.59.69.69,0,0,1,.3-.54l.24-.2a1,1,0,0,1,.64-.27.92.92,0,0,1,.47.15Z" class="cls-2"/><path data-cppathid="10006" d="M216.36,52.34a.73.73,0,0,1-.88.73l-.79,0a.69.69,0,0,1-.73-.86l.31-3.73a.73.73,0,0,1,.89-.73l.79,0a.69.69,0,0,1,.73.86Zm4.28,1a.72.72,0,0,1-.81.81H218.3a.72.72,0,0,1-.81-.81V46.32l-2.7.22c-.49,0-.74-.12-.74-.47a.85.85,0,0,1,.18-.49l2.26-3.51-.05-.07-2.07-2.75a1,1,0,0,1-.22-.57.84.84,0,0,1,.22-.56L218.3,33a.86.86,0,0,1,.69-.39,1.19,1.19,0,0,1,.39.07l.94.32c.34.11.51.31.51.59a.85.85,0,0,1-.19.49l-3.52,4.64.84,1.11.88-1.38a.9.9,0,0,1,.76-.44,1.48,1.48,0,0,1,.32.05l1.06.32c.38.13.56.32.56.59a.64.64,0,0,1,0,.22c0,.08-.08.16-.13.24l-3.48,5.43,3-.24-.42-1.7a1.54,1.54,0,0,1,0-.24.66.66,0,0,1,.66-.72l.71-.1a.75.75,0,0,1,.94.64l.91,3.76a1.69,1.69,0,0,1,0,.25.65.65,0,0,1-.66.71l-.71.1a.74.74,0,0,1-.94-.64l-.14-.59h-.08l-.56.05a.84.84,0,0,1,0,.29Zm3.48-1.62a.7.7,0,0,1-.76.86l-.78,0a.72.72,0,0,1-.86-.74l-.32-3.07a.82.82,0,0,1,.17-.62.8.8,0,0,1,.59-.26l.78-.05a.72.72,0,0,1,.86.74ZM231,40V40h3.56c.54,0,.81.25.81.74s-.27.74-.81.74H224.37c-.54,0-.81-.25-.81-.74s.27-.74.81-.74h3.49V39h-2.34c-.54,0-.81-.25-.81-.74s.27-.73.81-.73h2.34V36.08h-3c-.54,0-.81-.25-.81-.74s.27-.74.81-.74h3v-.78a.72.72,0,0,1,.81-.81h1.52a.72.72,0,0,1,.81.81v.78h3c.54,0,.81.25.81.74s-.27.74-.81.74h-3v1.45h2.38c.54,0,.81.24.81.73s-.27.74-.81.74H231Zm-6.56,2.94a.71.71,0,0,1,.81-.8h1.53a.94.94,0,0,1,.49.12H234a.72.72,0,0,1,.81.81v7.61a.72.72,0,0,1-.81.81H232.5a.91.91,0,0,1-.49-.12h-4.74a.94.94,0,0,1-.49.12h-1.53a.72.72,0,0,1-.81-.81ZM226,54.18a1,1,0,0,1-.44.1.9.9,0,0,1-.66-.32l-.12-.13a.76.76,0,0,1-.27-.51c0-.25.16-.44.49-.59l2.13-1a1.1,1.1,0,0,1,.45-.1.9.9,0,0,1,.66.32l.12.13a.76.76,0,0,1,.27.51c0,.25-.16.44-.49.59Zm5.68-10.49h-4.1v1h4.1Zm-4.1,3.64h4.1V46.17h-4.1Zm0,2.53h4.1V48.8h-4.1Zm6.95,3c.32.15.49.34.49.59a.87.87,0,0,1-.22.49l-.17.17a.92.92,0,0,1-1.11.25l-2.46-1.09c-.32-.14-.49-.34-.49-.58a.8.8,0,0,1,.22-.5L231,52a1,1,0,0,1,.68-.34.87.87,0,0,1,.42.1Z" class="cls-2"/><path data-cppathid="10007" d="M253.42,53.24a.79.79,0,0,1-.63.35,1.06,1.06,0,0,1-.47-.12l-.74-.35a.65.65,0,0,1-.46-.59,1,1,0,0,1,.19-.51,8.27,8.27,0,0,0,.91-1.81,12.32,12.32,0,0,0,.61-2.25,12.87,12.87,0,0,0,.23-2.38A9.62,9.62,0,0,0,252,40.67a4.86,4.86,0,0,0-3.12-2.38,33.53,33.53,0,0,1,.59,5.84A12.73,12.73,0,0,1,248,50.62,4.54,4.54,0,0,1,243.85,53a5.28,5.28,0,0,1-2.93-.81A5.45,5.45,0,0,1,239,50a7.34,7.34,0,0,1-.69-3.26,10.45,10.45,0,0,1,.72-3.88,10.16,10.16,0,0,1,2-3.2,9.43,9.43,0,0,1,2.93-2.18,8.19,8.19,0,0,1,3.55-.78,9.52,9.52,0,0,1,4.66,1.07,7.22,7.22,0,0,1,3,3.07,10,10,0,0,1,1.06,4.77A11.09,11.09,0,0,1,253.42,53.24Zm-12-6.53a8,8,0,0,0,.34,2.4,5,5,0,0,0,.9,1.75,1.54,1.54,0,0,0,1.17.67c.45,0,.86-.34,1.21-1a10,10,0,0,0,.84-2.77,23.27,23.27,0,0,0,.3-3.93c0-.83,0-1.69-.11-2.57s-.19-1.79-.35-2.71a6.4,6.4,0,0,0-2.18,1.82A9.83,9.83,0,0,0,242,43.24,10.32,10.32,0,0,0,241.44,46.71Z" class="cls-2"/><path data-cppathid="10008" d="M262.78,53.32a.72.72,0,0,1-.81.81h-1.52a.72.72,0,0,1-.81-.81V34.06a.72.72,0,0,1,.81-.81H262a.86.86,0,0,1,.59.2h5.87a.72.72,0,0,1,.81.81v8.28a.72.72,0,0,1-.81.81h-1.52a.82.82,0,0,1-.52-.15h-3.61Zm3.32-18.4h-3.32v2.83h3.32Zm-3.32,6.81h3.32V39.22h-3.32Zm3.39,11.59a.9.9,0,0,1-.66.32,1.34,1.34,0,0,1-.47-.12l-.71-.32c-.33-.15-.49-.35-.49-.59a.78.78,0,0,1,.27-.54L266,50.15a1.16,1.16,0,0,1-.34.05h-1.53a.72.72,0,0,1-.81-.81V46.54a.72.72,0,0,1,.81-.81h1.16l-.45-.61a.87.87,0,0,1-.19-.5c0-.27.18-.48.54-.61l1-.34a1,1,0,0,1,.37-.08.84.84,0,0,1,.71.42l1,1.35a.89.89,0,0,1,.2.49v0h2.87a.79.79,0,0,1,.23-.52L272.6,44a.92.92,0,0,1,.72-.37,1.29,1.29,0,0,1,.39.08l.88.34c.35.12.52.31.52.59a.83.83,0,0,1-.22.52l-.62.76h.84a.72.72,0,0,1,.81.81v2.7a.72.72,0,0,1-.81.81h-1.52a.82.82,0,0,1-.52-.15h-.59v2.07H273v-.23c0-.13.27-.19.81-.19h1.53a.72.72,0,0,1,.81.81v.27a.72.72,0,0,1-.81.81h-5.21a.72.72,0,0,1-.81-.81V50.05h-.27a.91.91,0,0,1-.27.52Zm6.61-6h-6.36v1.23h6.36ZM277,53.66c-.54,0-.78-.32-.71-.81s.15-.73.22-.73l.1,0V43h-3.69a.74.74,0,0,1-.68.32h-1.53a.72.72,0,0,1-.81-.81V34.06a.72.72,0,0,1,.81-.81h1.53a.88.88,0,0,1,.59.2h6.11a.72.72,0,0,1,.81.81V53c0,.58-.28.84-.83.79Zm-.39-18.74h-3.56v2.73h3.56Zm-3.56,6.63h3.56V39.12h-3.56Z" class="cls-2"/><path data-cppathid="10009" d="M285.6,53.76a.92.92,0,0,1-.44.1.9.9,0,0,1-.69-.32l-.13-.12a.76.76,0,0,1-.24-.52c0-.24.16-.44.49-.59l3-1.35h-.91a.72.72,0,0,1-.81-.81V43.22a.72.72,0,0,1,.81-.81h1.52a.83.83,0,0,1,.64.25h13a.72.72,0,0,1,.81.81v6.75a.72.72,0,0,1-.81.81h-1.53a.94.94,0,0,1-.49-.12h-1.91v1.23h4.05v-.37c0-.24.27-.37.81-.37h1.52a.72.72,0,0,1,.81.81v.59a.72.72,0,0,1-.81.81h-8.72a.72.72,0,0,1-.81-.81V50.91h-3.09a.75.75,0,0,1-.39.32Zm6.95-13.31v.07h1.27c.55,0,.82.25.82.74s-.27.74-.82.74h-6.75a.81.81,0,0,1-.51.14H285a.72.72,0,0,1-.81-.81V33.52a.72.72,0,0,1,.81-.81h1.53a.81.81,0,0,1,.51.15h6.68c.54,0,.81.25.81.74s-.27.73-.81.73H292.6v1.11H294a.72.72,0,0,1,.81.81v2.6a.72.72,0,0,1-.81.81h-1.4Zm-3.1-6v-.08h-2.08v1.11h2.08v-1Zm2.16,2.5h-4.24V38h4.24Zm-2.21,2.68v-.07h-2v1h2v-.93Zm10.07,4.54H289V45h10.46Zm-10.46,3h10.46v-.74H289Zm0,2.26h10.46v-.79H289Zm9.14-11a.72.72,0,0,1-.86.74l-1.52-.08c-.56,0-.82-.32-.77-.86l.49-4.61a.72.72,0,0,1,.86-.74l1.53.07a.69.69,0,0,1,.73.86l-.09,1h5.33c.54,0,.81.25.81.74s-.27.74-.81.74h-5.48Zm5.2,1.55c.54,0,.81.24.81.74s-.27.73-.81.73h-5.67c-.54,0-.81-.24-.81-.73s.27-.74.81-.74Z" class="cls-2"/></g></g></g></g></g></svg>