<?xml version="1.0" encoding="UTF-8"?>
<svg xmlns="http://www.w3.org/2000/svg" onmouseup="{ if(window.parent.document.onmouseup) window.parent.document.onmouseup(arguments[0]);}" viewBox="0 0 308.28 51.27"><defs><style>.cls-1{fill:#603813;}</style></defs><g data-name="Layer 2" id="Layer_2"><g id="backlog"><g data-name="2023 jp" id="_2023_jp"><g data-name="almost-fully-refined Product Backlog" id="almost-fully-refined_Product_Backlog"><g data-name="今学期の View Grades PBI" id="今学期の_View_Grades_PBI"><path data-cppathid="10000" transform="translate(-2.06 -0.08)" d="M113.06,18a.7.7,0,0,1-.35.37.78.78,0,0,1-.51.09L111,18.24a.85.85,0,0,1-.72-.82,1.15,1.15,0,0,1,.07-.36l3.29-8.2H111.5a.82.82,0,0,1-.57-.21.64.64,0,0,1-.24-.51.66.66,0,0,1,.24-.52.81.81,0,0,1,.57-.2h2.43V2.33a.75.75,0,0,1,.24-.58.76.76,0,0,1,.57-.24h1.44a.8.8,0,0,1,.58.24.78.78,0,0,1,.24.58V7.42h.74a.85.85,0,0,1,.58.2.66.66,0,0,1,.24.52.64.64,0,0,1-.24.51.86.86,0,0,1-.58.21H117v2.2l1.17,1a1,1,0,0,1,.43.8.69.69,0,0,1-.33.6l-.53.31a.74.74,0,0,1-.36.09.52.52,0,0,1-.38-.12v8.24a.78.78,0,0,1-.24.57.8.8,0,0,1-.58.24h-1.44a.76.76,0,0,1-.57-.24.74.74,0,0,1-.24-.57v-6.1Zm18.5-6.48a.83.83,0,0,1-.23.58.8.8,0,0,1-.58.24h-1.44a.75.75,0,0,1-.62-.29H121.2l-.19,0h-1.45a.82.82,0,0,1-.81-.81V6a.82.82,0,0,1,.81-.81H121a.78.78,0,0,1,.57.24h.77V3.6h-2.74a.88.88,0,0,1-.57-.2.68.68,0,0,1,0-1,.88.88,0,0,1,.57-.2H130.7a.91.91,0,0,1,.58.2.68.68,0,0,1,0,1,.91.91,0,0,1-.58.2h-2.62V5.45h2.67a.8.8,0,0,1,.58.24.81.81,0,0,1,.23.57Zm-8.11,10.9a1,1,0,0,1-.64-.33.51.51,0,0,1-.12-.54l0-.09A.86.86,0,0,1,123,21a.49.49,0,0,1,.4-.11l.45.08V17.57a.78.78,0,0,1,0-.22h-4.28a.88.88,0,0,1-.57-.2.66.66,0,0,1-.24-.52.63.63,0,0,1,.24-.51.84.84,0,0,1,.57-.21H130.7a.86.86,0,0,1,.58.21.63.63,0,0,1,.24.51.66.66,0,0,1-.24.52.91.91,0,0,1-.58.2h-3.79a1.5,1.5,0,0,1,0,.22V22a.84.84,0,0,1-.28.66.8.8,0,0,1-.7.18Zm-2.3-.7a.72.72,0,0,1-.6.31.6.6,0,0,1-.24-.05l-.79-.28a.82.82,0,0,1-.6-.82,1,1,0,0,1,.19-.58l1.56-2.06a.72.72,0,0,1,.6-.31.64.64,0,0,1,.24.05l.79.28a.82.82,0,0,1,.6.82,1,1,0,0,1-.19.58ZM130.27,13a.91.91,0,0,1,.58.2.68.68,0,0,1,.23.52.65.65,0,0,1-.23.51.86.86,0,0,1-.58.21H120a.84.84,0,0,1-.57-.21.63.63,0,0,1-.24-.51.66.66,0,0,1,.24-.52A.88.88,0,0,1,120,13Zm-7.92-2.5V6.89h-.53v3.72h.53Zm2.59-6.81V5.45h.55V3.6h-.55Zm0,6.81v.1h.55V6.89h-.55Zm6.39,10.2a1,1,0,0,1,.07.36.82.82,0,0,1-.18.52.9.9,0,0,1-.52.3l-1.2.21a.68.68,0,0,1-.84-.45l-.86-2.16a1.07,1.07,0,0,1-.07-.39.76.76,0,0,1,.69-.79l1.18-.21a.76.76,0,0,1,.51.07.65.65,0,0,1,.35.38Zm-3.25-10.2v.1h.41V6.89h-.41Z" class="cls-1"/><path data-cppathid="10001" transform="translate(-2.06 -0.08)" d="M147,22a.7.7,0,0,1-.79.8h-1.49a.71.71,0,0,1-.79-.8V19.34h-8c-.53,0-.79-.24-.79-.72s.26-.72.79-.72h8v-.48a.7.7,0,0,1,.79-.79h1.49a.7.7,0,0,1,.79.79v.48h8c.52,0,.79.24.79.72s-.27.72-.79.72h-8Zm-8.9-10.39a.88.88,0,0,1,.62-.29.9.9,0,0,1,.48.15l.6.31c.29.14.44.33.44.55a.75.75,0,0,1-.29.53l-2.52,2.33a.88.88,0,0,1-.63.29,1,1,0,0,1-.48-.15l-.6-.31a.65.65,0,0,1-.43-.55.7.7,0,0,1,.29-.53Zm1.39-2.95c.27.18.41.36.41.55a.75.75,0,0,1-.34.55l-.24.2a1,1,0,0,1-.62.24,1,1,0,0,1-.48-.15l-2.33-1.37c-.27-.17-.41-.36-.41-.55a.77.77,0,0,1,.34-.55l.24-.19a1,1,0,0,1,.62-.24,1,1,0,0,1,.48.14Zm.07-4.87a.67.67,0,0,1,.36.55.67.67,0,0,1-.38.55l-.41.27a1.14,1.14,0,0,1-.53.19.91.91,0,0,1-.57-.22L135.89,3.6a.74.74,0,0,1-.37-.55.67.67,0,0,1,.39-.55l.41-.27a1,1,0,0,1,.53-.19.91.91,0,0,1,.57.22Zm2.72,4.73a.86.86,0,0,1-.68.38,1.14,1.14,0,0,1-.38-.07l-.91-.31c-.34-.13-.51-.32-.51-.58a.87.87,0,0,1,.2-.48l4.24-5.71a.85.85,0,0,1,.68-.39,1.23,1.23,0,0,1,.38.08l.91.31q.51.17.51.57a.82.82,0,0,1-.2.48l-.69.94h4.39V3.67a.84.84,0,0,1,.19-.48l1.15-1.53a.85.85,0,0,1,.68-.39,1.47,1.47,0,0,1,.38.07l.91.32q.51.17.51.57a.82.82,0,0,1-.2.48l-.74,1h2.16c.53,0,.79.24.79.72s-.26.72-.79.72h-2.81a.84.84,0,0,1,.05.29V7.13h2.26c.52,0,.79.24.79.72s-.27.72-.79.72h-2.26V10.8h2.26c.52,0,.79.24.79.72s-.27.72-.79.72h-2.26v2h2.76c.53,0,.79.24.79.72s-.26.72-.79.72H145.8a.71.71,0,0,1-.68.34h-1.48a.7.7,0,0,1-.79-.79V7.68Zm3.67-2.88V7.13h3.48V5.45a.65.65,0,0,1,0-.29H145.8A.76.76,0,0,1,145.92,5.62Zm0,5.18h3.48V8.57h-3.48Zm3.48,3.36V12.24h-3.48v2h3.48Z" class="cls-1"/><path data-cppathid="10002" transform="translate(-2.06 -0.08)" d="M168.55,21.67a.83.83,0,0,1-.72.46,1.5,1.5,0,0,1-.31-.05l-1-.31c-.37-.13-.56-.33-.56-.6a.83.83,0,0,1,.15-.43L174.65,7H160c-.53,0-.79-.24-.79-.72s.26-.72.79-.72H177.5c.45,0,.67.17.67.5a1.08,1.08,0,0,1-.14.46ZM178.8,7.38a1.27,1.27,0,0,1,0,.22c0,.34-.22.53-.65.57l-.69.08a.73.73,0,0,1-.92-.53l-1.24-4.23a.65.65,0,0,1,0-.22c0-.34.22-.53.65-.57l.7-.08c.51-.06.82.11.93.53Zm2.64-1.23a1.27,1.27,0,0,1,0,.22c0,.31-.21.5-.62.57l-.7.1c-.51.07-.82-.11-.93-.53L178,2.56a.27.27,0,0,1,0-.12.5.5,0,0,1,0-.12c0-.3.22-.48.65-.54l.7-.11c.51-.06.82.11.93.53Z" class="cls-1"/><path data-cppathid="10003" transform="translate(-2.06 -0.08)" d="M193.22,22a.83.83,0,0,1-.67.39,1.47,1.47,0,0,1-.38-.07l-.92-.32c-.35-.12-.52-.32-.52-.57a.8.8,0,0,1,.19-.48l6.72-9.1H183c-.53,0-.79-.24-.79-.72s.26-.72.79-.72h17.61c.45,0,.67.16.67.48a.8.8,0,0,1-.19.48Zm5.06-17.4c.53,0,.8.24.8.72s-.27.72-.8.72H185c-.53,0-.79-.24-.79-.72s.26-.72.79-.72Z" class="cls-1"/><path data-cppathid="10004" transform="translate(-2.06 -0.08)" d="M207.24,13.44a.7.7,0,0,1-.8.79H205a.7.7,0,0,1-.8-.79V6.91a.7.7,0,0,1,.8-.79h1.48a.68.68,0,0,1,.77.6h4.92a.92.92,0,0,1,0-.19V3.67a.7.7,0,0,1,.79-.79h1.49a.7.7,0,0,1,.79.79V6.53a.92.92,0,0,1,0,.19h8.52c.44,0,.67.18.67.53a.86.86,0,0,1-.1.41l-7.1,14.16a.79.79,0,0,1-.75.48.88.88,0,0,1-.26,0L215,22c-.39-.1-.58-.3-.58-.6a.83.83,0,0,1,.1-.41l6.43-12.84h-13.7Z" class="cls-1"/><path data-cppathid="10005" transform="translate(-2.06 -0.08)" d="M234.24,15.82a.71.71,0,0,1-.8.79H232a.71.71,0,0,1-.8-.79V8.66h-3.31c-.53,0-.79-.24-.79-.72s.26-.72.79-.72h3.31V4.44a.7.7,0,0,1,.8-.79h1.48a.7.7,0,0,1,.8.79V7.22h5.95c0-.44,0-.9,0-1.38s0-1,0-1.5.27-.84.79-.84h1.49c.53,0,.79.4.79,1.2V6c0,.43,0,.83,0,1.21h3.79c.53,0,.79.24.79.72s-.26.72-.79.72h-3.81q-.08,2.19-.27,3.78a14.49,14.49,0,0,1-.6,2.82,9.33,9.33,0,0,1-1.09,2.27,14.24,14.24,0,0,1-1.7,2.1c-.68.71-1.51,1.49-2.49,2.35a.84.84,0,0,1-.62.29,1,1,0,0,1-.48-.14l-.55-.29c-.29-.18-.44-.37-.44-.58a.79.79,0,0,1,.29-.52c.74-.69,1.37-1.33,1.91-1.92A10.55,10.55,0,0,0,238.54,17a9.18,9.18,0,0,0,.88-2.09,15.79,15.79,0,0,0,.5-2.66c.12-1,.2-2.2.24-3.58h-5.92Zm12.54-10a.65.65,0,0,1,0,.22q0,.51-.57.57l-.61.08a.63.63,0,0,1-.8-.53l-1.1-4.26a1.18,1.18,0,0,1,0-.22q0-.51.57-.57l.61-.08a.64.64,0,0,1,.82.53ZM249.1,4.6a1.27,1.27,0,0,1,0,.22c0,.32-.18.51-.55.57l-.61.1a.64.64,0,0,1-.82-.52l-1.07-4a.27.27,0,0,1,0-.12.53.53,0,0,1,0-.13c0-.29.19-.48.57-.54l.61-.11a.65.65,0,0,1,.82.53Z" class="cls-1"/><path data-cppathid="10006" transform="translate(-2.06 -0.08)" d="M266.32,21.5a.75.75,0,0,1-.62.34,1.05,1.05,0,0,1-.46-.12l-.72-.34a.64.64,0,0,1-.45-.57,1,1,0,0,1,.19-.51,8.26,8.26,0,0,0,.89-1.76,13.83,13.83,0,0,0,.6-2.2A13.17,13.17,0,0,0,266,14a9.43,9.43,0,0,0-1.08-4.8,4.69,4.69,0,0,0-3-2.33,32.85,32.85,0,0,1,.57,5.71A12.45,12.45,0,0,1,261,18.94,4.44,4.44,0,0,1,257,21.26a5.11,5.11,0,0,1-2.85-.79,5.28,5.28,0,0,1-1.9-2.17,7.15,7.15,0,0,1-.67-3.18,10.17,10.17,0,0,1,.7-3.79,9.73,9.73,0,0,1,1.93-3.13A9,9,0,0,1,257,6.07a8,8,0,0,1,3.47-.77,9.37,9.37,0,0,1,4.56,1,7,7,0,0,1,2.95,3A9.85,9.85,0,0,1,269,14,10.83,10.83,0,0,1,266.32,21.5Zm-11.71-6.38a7.56,7.56,0,0,0,.34,2.34,5,5,0,0,0,.87,1.72,1.5,1.5,0,0,0,1.14.64c.45,0,.85-.33,1.19-1a9.52,9.52,0,0,0,.82-2.7,22.34,22.34,0,0,0,.3-3.84c0-.82,0-1.66-.11-2.52S259,8,258.81,7.13a6.14,6.14,0,0,0-2.12,1.77,9.5,9.5,0,0,0-1.51,2.82A10.2,10.2,0,0,0,254.61,15.12Z" class="cls-1"/><path data-cppathid="10007" transform="translate(-2.06 -0.08)" d="M284.28,22a.86.86,0,0,1-.63.32,1.25,1.25,0,0,1-.45-.12l-.72-.36a.67.67,0,0,1-.44-.58.82.82,0,0,1,.22-.5,11.34,11.34,0,0,0,1.91-3.26,18.44,18.44,0,0,0,1-4.5,3.64,3.64,0,0,0-1.25-.3c-.44,0-1,0-1.75,0h-.07a14.7,14.7,0,0,1-1.75,6.24,4.43,4.43,0,0,1-4,2.06,4.1,4.1,0,0,1-2.3-.65,4.66,4.66,0,0,1-1.6-1.75,5.12,5.12,0,0,1-.58-2.45,3.62,3.62,0,0,1,1.9-3.15,12.68,12.68,0,0,1,5.32-1.6c.06-.8.12-1.66.16-2.58s.06-1.89.08-2.91h-4.9c-.52,0-.79-.24-.79-.72s.27-.72.79-.72h7.18a.71.71,0,0,1,.79.81c0,1.12,0,2.18,0,3.17s-.07,1.93-.14,2.81c.63,0,1.19,0,1.7,0a10.92,10.92,0,0,1,1.38.16c.06-.86.1-1.8.12-2.8,0-.55.26-.82.79-.82h1.49c.52,0,.79.41.79,1.22,0,1.38-.11,2.6-.22,3.68q.41.29.84.63c.29.23.59.5.91.81a.77.77,0,0,1,.29.55.63.63,0,0,1-.43.55l-.65.31a.89.89,0,0,1-.45.12.86.86,0,0,1-.65-.31,1.36,1.36,0,0,1-.24-.24,13.77,13.77,0,0,1-1.35,3.76A14.33,14.33,0,0,1,284.28,22ZM275,16.1a5,5,0,0,0,.25,1.56,5.43,5.43,0,0,0,.59,1.32c.22.36.41.53.57.53.56,0,1.07-.56,1.53-1.69a20.8,20.8,0,0,0,1.07-5,6,6,0,0,0-3.08,1.08A2.72,2.72,0,0,0,275,16.1Z" class="cls-1"/><path data-cppathid="10008" transform="translate(-2.06 -0.08)" d="M296.9,19.42a.75.75,0,0,1,.66.18.83.83,0,0,1,.25.66q0,.52-.72.6l-3.21.33a.68.68,0,0,1-.84-.77V5.16a.7.7,0,0,1,.79-.79h1.49a.7.7,0,0,1,.79.79V19.49Zm10.82-9.77a.79.79,0,0,1-.69.41l-.16,0-.18,0-1-.31c-.35-.1-.52-.29-.52-.58a.84.84,0,0,1,.16-.48l1.25-1.78h-6.74c-.53,0-.79-.24-.79-.72s.26-.72.79-.72h9.65c.44,0,.67.16.67.48a.85.85,0,0,1-.17.48Zm1.83,10c.53,0,.79.24.79.72s-.26.72-.79.72h-4.23a9.91,9.91,0,0,1-2.92-.41,5.8,5.8,0,0,1-2.12-1.1,2.1,2.1,0,0,1-.79-1.59,5.62,5.62,0,0,1,1.39-2.9.81.81,0,0,1,.7-.41,1.47,1.47,0,0,1,.38.07l.92.36c.32.15.48.34.48.58a1,1,0,0,1-.17.48,4.54,4.54,0,0,0-.46.94,2.73,2.73,0,0,0-.17.88,1.38,1.38,0,0,0,.64,1.26,4.12,4.12,0,0,0,2.12.4Z" class="cls-1"/><path data-cppathid="10009" transform="translate(-2.06 -0.08)" d="M4.44,50.83a1,1,0,0,1-.6.27,1,1,0,0,1-.5-.15l-.6-.33c-.29-.18-.44-.36-.44-.56a.74.74,0,0,1,.27-.5,13,13,0,0,0,1.74-2.51,33.66,33.66,0,0,0,1.81-4L3.6,39.41A.82.82,0,0,1,3.43,39c0-.27.18-.47.53-.6L5,38a.41.41,0,0,1,.18,0H5.3a.81.81,0,0,1,.7.41l1.18,1.7c.19-.54.38-1.11.58-1.71l.62-1.86H2.86c-.53,0-.8-.24-.8-.72s.27-.72.8-.72H5.57v-3.6a.7.7,0,0,1,.79-.79H7.85a.7.7,0,0,1,.79.79v3.6h3.14c.53,0,.8.24.8.72s-.27.72-.8.72h-.6a1.48,1.48,0,0,1,0,.31,3.44,3.44,0,0,1-.22,1.1c-.32,1-.63,1.91-.92,2.75S9.48,42.31,9.19,43l2.67,3.84a.8.8,0,0,1,.16.46c0,.27-.17.47-.52.6l-1,.31-.18,0h-.16a.79.79,0,0,1-.69-.41L8,45.79a19,19,0,0,1-1.65,2.85A14.84,14.84,0,0,1,4.44,50.83Zm11.35-.29c-.45,0-.67-.24-.67-.6a.38.38,0,0,1,0-.1,1,1,0,0,1,0-.14v0a.77.77,0,0,1,1-.58l2.54.39v-12h-5.3c-.53,0-.79-.24-.79-.72s.26-.72.79-.72h5.3V30.82a.71.71,0,0,1,.79-.8H21a.7.7,0,0,1,.79.8v5.25h.1c.53,0,.79.24.79.72s-.26.72-.79.72h-.1V50.59q0,.87-.84.75Zm1.92-6.43a.86.86,0,0,1,.07.36c0,.34-.2.55-.62.63l-1.3.24a.81.81,0,0,1-1-.56l-1.63-4.2a.92.92,0,0,1-.07-.36c0-.33.2-.54.62-.62l1.3-.24a.81.81,0,0,1,1,.55Z" class="cls-1"/><path data-cppathid="10010" transform="translate(-2.06 -0.08)" d="M28.58,50.38a.69.69,0,0,1-.81.74l-1.49,0a.71.71,0,0,1-.77-.84L26.66,34a.69.69,0,0,1,.82-.74l1.49.05a.79.79,0,0,1,.67.33h6.19a.92.92,0,0,1-.07-.38V30.82a.7.7,0,0,1,.79-.8H38a.7.7,0,0,1,.79.8v2.47a.92.92,0,0,1-.07.38H46c.53,0,.8.24.8.72s-.27.72-.8.72H29.66Zm4-.8a.7.7,0,0,1-.84.72l-1.49-.07a.69.69,0,0,1-.74-.84l1.08-10.61a.7.7,0,0,1,.84-.72l1.48.08q.83,0,.75.84Zm9.65-2.06a.7.7,0,0,1,.79-.79H44.5a.7.7,0,0,1,.79.79v2.33a.7.7,0,0,1-.79.79H35a.7.7,0,0,1-.79-.79V37a.7.7,0,0,1,.79-.79h1.49a.7.7,0,0,1,.79.79V49.2h4.95Zm-.68-1.42a.7.7,0,0,1-.79.8H39.26a.71.71,0,0,1-.79-.8V38.71a.7.7,0,0,1,.79-.79h1.49a.7.7,0,0,1,.79.79Zm4.66-1.46a.79.79,0,0,1-.14.61.77.77,0,0,1-.58.25L44,45.6a.72.72,0,0,1-.86-.72l-.72-6.05a.7.7,0,0,1,.72-.86l1.49-.1a.72.72,0,0,1,.86.72Z" class="cls-1"/><path data-cppathid="10011" transform="translate(-2.06 -0.08)" d="M62.62,42.77a.73.73,0,0,1,.81-.79h1.49a.68.68,0,0,1,.77.81,10.24,10.24,0,0,1-1.18,4.43,7,7,0,0,1-2.83,2.84,8.69,8.69,0,0,1-4.25,1,7.3,7.3,0,0,1-5.22-1.78,6.47,6.47,0,0,1-1.88-4.94c0-.43,0-1,.05-1.68s.07-1.45.12-2.27.1-1.66.16-2.52.14-1.67.21-2.45.14-1.45.2-2,.34-.72.87-.69l1.44.09a.69.69,0,0,1,.72.84c-.07.56-.13,1.22-.2,2s-.12,1.56-.19,2.4-.12,1.67-.17,2.48-.08,1.54-.1,2.22,0,1.21,0,1.63a6.33,6.33,0,0,0,1,3.93,3.55,3.55,0,0,0,3,1.35,4.33,4.33,0,0,0,3.65-1.83A9,9,0,0,0,62.62,42.77Z" class="cls-1"/><path data-cppathid="10012" transform="translate(-2.06 -0.08)" d="M82.87,49.18c.51,0,.77.28.77.74s-.27.73-.82.7A17,17,0,0,1,79,50a11.11,11.11,0,0,1-3-1.37,7,7,0,0,1-2-2,4.45,4.45,0,0,1-.73-2.46,7.73,7.73,0,0,1,1.59-4.71,12.59,12.59,0,0,1,4.43-3.61l-10.08.72a.72.72,0,0,1-.86-.82c0-.37.24-.58.72-.62l15.09-1.08a.82.82,0,0,1,.94.62,1.74,1.74,0,0,1,0,.26c0,.32-.22.55-.65.68a13.63,13.63,0,0,0-4.37,1.89,9.25,9.25,0,0,0-2.81,3,7.39,7.39,0,0,0-1,3.72,4.22,4.22,0,0,0,.59,2.3A4.67,4.67,0,0,0,78.47,48a7.91,7.91,0,0,0,2.12.85A14.16,14.16,0,0,0,82.87,49.18Z" class="cls-1"/><path data-cppathid="10013" transform="translate(-2.06 -0.08)" d="M95.11,47.45a1,1,0,0,1,.48-.15.9.9,0,0,1,.63.29l.19.17a.71.71,0,0,1,.29.55c0,.23-.15.41-.44.55-.44.2-.9.38-1.38.56s-.95.32-1.45.45a1.12,1.12,0,0,1-.5.1,1.4,1.4,0,0,1-.51-.1l-.76-.24a1,1,0,0,1-.75-.79q-.6-3.15-1-6.55c-.24-2.27-.41-4.71-.5-7.3,0-.56.22-.84.77-.84l1.48,0a.73.73,0,0,1,.82.79,86.82,86.82,0,0,0,1.32,13.13c.19-.08.4-.17.61-.28Zm13.27-1c.08.54-.16.83-.72.86l-1.48.1a.76.76,0,0,1-.87-.72c-.19-1.52-.43-3-.71-4.52s-.6-3-1-4.43a.8.8,0,0,1,0-.15.59.59,0,0,1,0-.14c0-.38.23-.6.68-.65l1.39-.17c.49-.08.81.16.93.7.42,1.58.77,3.13,1.06,4.63S108.18,45,108.38,46.44Z" class="cls-1"/><path data-cppathid="10014" transform="translate(-2.06 -0.08)" d="M130.08,44.69c.35.13.53.31.53.55a.69.69,0,0,1-.24.46l-.17.16a.94.94,0,0,1-.67.32.58.58,0,0,1-.19,0l-.22-.06a15.49,15.49,0,0,0-1.66-.54c-.62-.17-1.28-.32-2-.44v1.7a3.4,3.4,0,0,1-1.58,3,7.64,7.64,0,0,1-4.3,1,9.9,9.9,0,0,1-3.42-.55,6.07,6.07,0,0,1-2.42-1.51,3.1,3.1,0,0,1-.88-2.16,2.51,2.51,0,0,1,.86-1.91,5.89,5.89,0,0,1,2.41-1.25,13.41,13.41,0,0,1,3.61-.44l1.29,0c.44,0,.89.06,1.35.11v-2.3H114c-.52,0-.79-.24-.79-.72s.27-.72.79-.72h8.4V36.77H114c-.52,0-.79-.24-.79-.72s.27-.72.79-.72h8.4v-2a.7.7,0,0,1,.8-.79h1.48a.7.7,0,0,1,.8.79v2h3.84c.52,0,.79.24.79.72s-.27.72-.79.72H125.5v2.64h3.84c.52,0,.79.24.79.72s-.27.72-.79.72H125.5v2.73c.89.16,1.74.34,2.54.53S129.52,44.5,130.08,44.69ZM116,46.61c0,1.85,1.21,2.78,3.65,2.78a3.3,3.3,0,0,0,2.19-.56,2.69,2.69,0,0,0,.61-2V44.62a21.52,21.52,0,0,0-2.64-.17,8.69,8.69,0,0,0-2.44.26,1.89,1.89,0,0,0-1.1.75A2.3,2.3,0,0,0,116,46.61Z" class="cls-1"/><path data-cppathid="10015" transform="translate(-2.06 -0.08)" d="M146.83,50.54a.83.83,0,0,1-.72.46H146l-.17,0-1.13-.31c-.37-.1-.55-.29-.55-.58a.79.79,0,0,1,.1-.4,10.35,10.35,0,0,0,.62-3.1,8.25,8.25,0,0,1-3.31.65,6.56,6.56,0,0,1-2.88-.61,4.5,4.5,0,0,1-1.93-1.72,4.75,4.75,0,0,1-.69-2.57,3.55,3.55,0,0,1,.78-2.29,5.06,5.06,0,0,1,2.13-1.51A8.16,8.16,0,0,1,142,38a9.53,9.53,0,0,1,1.59.12,7.35,7.35,0,0,1,1.29.33V35.76H134.47c-.53,0-.79-.24-.79-.72s.26-.72.79-.72h10.42v-2a.7.7,0,0,1,.79-.79h1.49a.7.7,0,0,1,.79.79v2h3.29c.53,0,.79.24.79.72s-.26.72-.79.72H148v6.46a5.81,5.81,0,0,1-.05.72c0,.25,0,.5,0,.74s0,.47,0,.7v.79a18.91,18.91,0,0,1-.1,2.13,8.1,8.1,0,0,1-.33,1.67A8.53,8.53,0,0,1,146.83,50.54Zm-7.73-8.23a4.34,4.34,0,0,0,.65,2.53,2,2,0,0,0,1.78.93,3.38,3.38,0,0,0,2.22-.71,3.24,3.24,0,0,0,1.07-2,5.53,5.53,0,0,0-.77-2.86,2.45,2.45,0,0,0-2-.79A2.57,2.57,0,0,0,139.1,42.31Z" class="cls-1"/><path data-cppathid="10016" transform="translate(-2.06 -0.08)" d="M159,50.71a5.15,5.15,0,0,1-2.22-.48,4.18,4.18,0,0,1-1.63-1.32,3.08,3.08,0,0,1-.61-1.87,3,3,0,0,1,.61-1.86,4.25,4.25,0,0,1,1.63-1.31,5.15,5.15,0,0,1,2.22-.48,5.07,5.07,0,0,1,2.21.48,4.29,4.29,0,0,1,1.62,1.31,3.14,3.14,0,0,1,0,3.72,4.41,4.41,0,0,1-1.62,1.32A4.94,4.94,0,0,1,159,50.71Zm0-1.2a1.93,1.93,0,0,0,1.5-.72,2.57,2.57,0,0,0,.64-1.75,2.52,2.52,0,0,0-.64-1.74,2,2,0,0,0-3,0,2.47,2.47,0,0,0-.64,1.75,2.52,2.52,0,0,0,.64,1.75A2,2,0,0,0,159,49.51Z" class="cls-1"/></g></g></g></g></g></svg>