<?xml version="1.0" encoding="UTF-8"?>
<svg xmlns="http://www.w3.org/2000/svg" onmouseup="{ if(window.parent.document.onmouseup) window.parent.document.onmouseup(arguments[0]);}" viewBox="0 0 45.84 66.14"><defs><style>.cls-1{fill:#1b75bb;}</style></defs><g data-name="Layer 2" id="Layer_2"><g id="User"><path data-cppathid="10000" transform="translate(-0.91 -1.13)" d="M3.74,21.29c0,.49-.28.74-.81.74L1.68,22a.68.68,0,0,1-.77-.82L1.66,5.11c0-.49.28-.74.81-.74l1.25,0a.66.66,0,0,1,.74.53h6.46a.7.7,0,0,1,.79.79v3.6a.7.7,0,0,1-.79.79H9.67a.78.78,0,0,1-.62-.24H4.27L4.13,13.1,5,10.85a.74.74,0,0,1,.72-.53l.26,0,.84.17c.4.1.6.31.6.65a1.08,1.08,0,0,1-.07.36l-.22.55H8V12a1.61,1.61,0,0,1,0-.26l.2-.8a.73.73,0,0,1,.91-.64l.93.12a.62.62,0,0,1,.65.67,1.61,1.61,0,0,1,0,.26l-.17.72H11c.53,0,.79.24.79.72s-.26.72-.79.72h-.48a.9.9,0,0,1,0,.24v1.13h.2c.52,0,.79.24.79.72s-.27.72-.79.72h-.2v1.56h.2c.52,0,.79.24.79.72s-.27.72-.79.72h-.2V20.9H11c.53,0,.79.24.79.72s-.26.72-.79.72H6.79a.9.9,0,0,1-.31,0l-.22,0h-1a.7.7,0,0,1-.8-.79V17.26l-.14,0-.38-.07ZM10.51,2.21c.53,0,.79.24.79.72s-.26.72-.79.72H2.66c-.52,0-.79-.24-.79-.72s.27-.72.79-.72ZM8.88,6.36H4.44l-.1,2.06H8.88ZM7.06,13.87v1H8V13.75a.88.88,0,0,1,0-.24H7A.8.8,0,0,1,7.06,13.87Zm0,4H8V16.32H7.06ZM8,20.83V19.32H7.06V20.9H8Zm13.85-3.19a.7.7,0,0,1-.79.79H19.56a.7.7,0,0,1-.74-.45h-3.6a.72.72,0,0,1-.75.45H13a.7.7,0,0,1-.79-.79V6.19A.7.7,0,0,1,13,5.4h1.49l.24,0,.53-1.82H12.6c-.53,0-.79-.24-.79-.72s.26-.72.79-.72h8.88c.53,0,.79.24.79.72s-.26.72-.79.72H18.26v0a1.31,1.31,0,0,1,0,.27l-.58,2h3.41a.7.7,0,0,1,.79.79Zm-7.18,4.42a.84.84,0,0,1-.72.45,1,1,0,0,1-.31-.05l-1-.31c-.37-.13-.55-.33-.55-.6a.9.9,0,0,1,.14-.43l1.15-1.82a.85.85,0,0,1,.72-.46,1.57,1.57,0,0,1,.32.05l1,.31c.37.13.55.33.55.6a1,1,0,0,1-.14.43ZM18.77,7.3H15.26v2h3.51Zm-3.51,5.47h3.51v-2H15.26Zm0,3.77h3.51V14.21H15.26Zm6.63,4.56a.9.9,0,0,1,.14.43c0,.29-.18.49-.55.62l-1,.31a1,1,0,0,1-.31.05.84.84,0,0,1-.72-.45l-1.13-1.8a1,1,0,0,1-.15-.44c0-.28.19-.49.56-.62l1-.31a1.5,1.5,0,0,1,.31-.05.83.83,0,0,1,.72.46Z" class="cls-1"/><path data-cppathid="10001" transform="translate(-0.91 -1.13)" d="M27.43,17.76a.88.88,0,0,1-.48.14.86.86,0,0,1-.62-.28l-.22-.2a.81.81,0,0,1-.31-.52c0-.21.15-.4.46-.58l7.44-3.91L31,11.06a1.1,1.1,0,0,1-.21-.14l-2.16,1.92a.9.9,0,0,1-.63.29,1,1,0,0,1-.48-.15L27,12.7c-.3-.18-.46-.37-.46-.58a.88.88,0,0,1,.32-.53l5.35-4.73a.86.86,0,0,1,.62-.28.88.88,0,0,1,.48.14l.55.29c.31.17.46.37.46.57a.72.72,0,0,1-.26.48h9l.48-1.92H29.11V8.86a.7.7,0,0,1-.79.79H26.83A.7.7,0,0,1,26,8.86V5a.7.7,0,0,1,.79-.79h1.49a.7.7,0,0,1,.77.52h5.18V1.92a.7.7,0,0,1,.79-.79h1.49a.7.7,0,0,1,.79.79V4.7H46c.49,0,.74.21.74.63a.53.53,0,0,1,0,.13.93.93,0,0,1,0,.13L45.84,9.1a.77.77,0,0,1-.91.64l-1.39-.16a.88.88,0,0,1-.41-.15l-5.5,2.93,8,4c.31.15.46.33.46.56a.73.73,0,0,1-.29.52l-.21.2a.94.94,0,0,1-.63.28,1.25,1.25,0,0,1-.45-.12l-1.13-.55V21.6a.7.7,0,0,1-.79.79H41.09a.68.68,0,0,1-.77-.55H31.66a.68.68,0,0,1-.77.55H29.4a.7.7,0,0,1-.79-.79V17.14Zm12.87-1H31.68V20.4H40.3ZM32,15.34H39.6l-3.91-1.95ZM39.19,9.5H32.42l-.16.17,3.4,1.71Z" class="cls-1"/><path data-cppathid="10002" transform="translate(-0.91 -1.13)" d="M22.65,60.45c-.08-.54-.17-1-.21-1.42-.1-1.29-.23-2.58-.26-3.88-.09-3-.28-6-.15-9,.17-3.67.39-7.33.87-11,.09-.66.1-1.33.18-2a3.68,3.68,0,0,1,.24-1,1,1,0,0,1,1.94,0,3.14,3.14,0,0,1,.22.78,17.06,17.06,0,0,1,0,4,114.34,114.34,0,0,0-.53,16.13c.09,1.85.21,3.71.32,5.56a1,1,0,0,0,.19.52c.06-.17.11-.33.17-.49a6.07,6.07,0,0,1,.31-.74,1.45,1.45,0,0,1,2.68.54,3.15,3.15,0,0,1,0,1,12.9,12.9,0,0,1-.4,1.51A30.86,30.86,0,0,0,27,65.42a3.36,3.36,0,0,1-.24.82,1.64,1.64,0,0,1-2.35.81,2.69,2.69,0,0,1-.8-.62c-.7-.76-1.36-1.54-2-2.32-.51-.6-1-1.22-1.51-1.83a3.78,3.78,0,0,1-.47-.66,1.48,1.48,0,0,1,2.18-1.92,4.93,4.93,0,0,1,.49.42Z" class="cls-1"/></g></g></svg>