<?xml version="1.0" encoding="UTF-8"?>
<svg xmlns="http://www.w3.org/2000/svg" onmouseup="{ if(window.parent.document.onmouseup) window.parent.document.onmouseup(arguments[0]);}" viewBox="0 0 404.44 267.68"><defs><style>.cls-1{fill:#fff100;}.cls-2{fill:#603813;}</style></defs><g data-name="Layer 2" id="Layer_2"><g id="backlog"><g data-name="2023 jp" id="_2023_jp"><g data-name="almost-fully-refined Product Backlog" id="almost-fully-refined_Product_Backlog"><g data-name="今学期の View Grades PBI" id="今学期の_View_Grades_PBI"><path data-cppathid="10000" d="M10.41,0H394a10.41,10.41,0,0,1,10.41,10.41h0V257.27A10.41,10.41,0,0,1,394,267.68H10.41A10.41,10.41,0,0,1,0,257.27H0V10.42A10.42,10.42,0,0,1,10.41,0Z" class="cls-1" data-name="big sticky" id="big_sticky"/><path data-cppathid="10001" d="M126,185.88a.74.74,0,0,1-.35.37.8.8,0,0,1-.52.09l-1.17-.22a.82.82,0,0,1-.52-.28.8.8,0,0,1-.2-.54.84.84,0,0,1,.07-.35l3.29-8.21h-2.16a.84.84,0,0,1-.58-.21.63.63,0,0,1-.24-.51.66.66,0,0,1,.24-.52.89.89,0,0,1,.58-.2h2.42v-5.09a.8.8,0,0,1,.24-.58.78.78,0,0,1,.58-.24h1.44a.78.78,0,0,1,.57.24.8.8,0,0,1,.24.58v5.09h.75a.88.88,0,0,1,.57.2.66.66,0,0,1,.24.52.63.63,0,0,1-.24.51.84.84,0,0,1-.57.21H130V179l1.18,1a1,1,0,0,1,.43.79.69.69,0,0,1-.33.6l-.53.31a.74.74,0,0,1-.36.09.54.54,0,0,1-.39-.12v8.24a.82.82,0,0,1-.81.81H127.7a.82.82,0,0,1-.82-.81v-6.1Zm18.5-6.48a.8.8,0,0,1-.24.58.78.78,0,0,1-.57.24h-1.44a.79.79,0,0,1-.63-.29h-7.49a.58.58,0,0,1-.19,0h-1.44a.82.82,0,0,1-.81-.81v-5.23a.82.82,0,0,1,.81-.82H134a.78.78,0,0,1,.58.24h.77v-1.85h-2.74a.91.91,0,0,1-.58-.2.68.68,0,0,1,0-1,.91.91,0,0,1,.58-.2h11.09a.88.88,0,0,1,.57.2.68.68,0,0,1,0,1,.88.88,0,0,1-.57.2H141v1.85h2.67a.82.82,0,0,1,.81.81Zm-8.11,10.9a1.07,1.07,0,0,1-.65-.33.55.55,0,0,1-.12-.54l0-.09a.86.86,0,0,1,.3-.45.46.46,0,0,1,.39-.11l.46.08v-3.41a1.5,1.5,0,0,1,0-.22h-4.27a.91.91,0,0,1-.58-.2.66.66,0,0,1-.24-.52A.64.64,0,0,1,132,184a.86.86,0,0,1,.58-.21h11.09a.84.84,0,0,1,.57.21.64.64,0,0,1,.24.51.66.66,0,0,1-.24.52.88.88,0,0,1-.57.2h-3.79a1.5,1.5,0,0,1,0,.22v4.39a.85.85,0,0,1-.29.66.77.77,0,0,1-.69.18Zm-2.3-.7a.72.72,0,0,1-.6.31.75.75,0,0,1-.24,0l-.8-.29a.82.82,0,0,1-.6-.82,1,1,0,0,1,.2-.58l1.56-2.06a.72.72,0,0,1,.6-.31.64.64,0,0,1,.24.05l.79.28a.82.82,0,0,1,.6.82,1,1,0,0,1-.19.58Zm9.12-8.71a.88.88,0,0,1,.57.2.66.66,0,0,1,.24.52.63.63,0,0,1-.24.51.84.84,0,0,1-.57.21H133a.84.84,0,0,1-.57-.21.63.63,0,0,1-.24-.51.66.66,0,0,1,.24-.52.88.88,0,0,1,.57-.2Zm-7.92-2.5v-3.62h-.53v3.72h.53Zm2.59-6.81v1.75h.55v-1.85h-.55Zm0,6.81v.1h.55v-3.72h-.55Zm6.38,10.2a.86.86,0,0,1,.07.36.82.82,0,0,1-.18.52.88.88,0,0,1-.51.3l-1.2.22a.7.7,0,0,1-.84-.46l-.87-2.16a1.33,1.33,0,0,1-.07-.38.76.76,0,0,1,.7-.8l1.17-.21a.85.85,0,0,1,.52.07.69.69,0,0,1,.35.38ZM141,178.39v.1h.41v-3.72H141Z" class="cls-2"/><path data-cppathid="10002" d="M159.93,189.87a.7.7,0,0,1-.79.79h-1.49a.7.7,0,0,1-.79-.79v-2.65h-8c-.53,0-.8-.23-.8-.72s.27-.72.8-.72h8v-.48a.7.7,0,0,1,.79-.79h1.49a.7.7,0,0,1,.79.79v.48h8c.53,0,.79.25.79.72s-.26.72-.79.72h-8Zm-8.9-10.4a.88.88,0,0,1,.62-.29.9.9,0,0,1,.48.15l.6.31a.63.63,0,0,1,.43.55.72.72,0,0,1-.29.53l-2.52,2.33a.88.88,0,0,1-.62.29,1,1,0,0,1-.48-.15l-.6-.31a.63.63,0,0,1-.43-.55.67.67,0,0,1,.29-.53Zm1.39-2.95c.27.18.41.36.41.55a.79.79,0,0,1-.34.55l-.24.2a1,1,0,0,1-.62.24,1,1,0,0,1-.48-.15l-2.33-1.37c-.27-.17-.41-.36-.41-.55a.77.77,0,0,1,.34-.55l.24-.19a1,1,0,0,1,.62-.24,1,1,0,0,1,.48.14Zm.07-4.87a.59.59,0,0,1,0,1.1l-.41.27a1.07,1.07,0,0,1-.53.19A1,1,0,0,1,151,173l-2.11-1.51a.72.72,0,0,1-.36-.55.67.67,0,0,1,.39-.55l.4-.27a1.18,1.18,0,0,1,.53-.19.94.94,0,0,1,.58.22Zm2.71,4.73a.83.83,0,0,1-.67.38,1.14,1.14,0,0,1-.38-.07l-.92-.31c-.33-.13-.5-.32-.5-.58a.84.84,0,0,1,.19-.48l4.25-5.71a.83.83,0,0,1,.67-.39,1.29,1.29,0,0,1,.39.08l.91.31c.33.11.5.3.5.57a.8.8,0,0,1-.19.48l-.7.94h4.4v0a.84.84,0,0,1,.19-.48l1.15-1.53a.83.83,0,0,1,.67-.39,1.61,1.61,0,0,1,.39.07l.91.32c.33.11.5.3.5.57a.8.8,0,0,1-.19.48l-.74,1h2.16c.52,0,.79.24.79.72s-.27.72-.79.72h-2.81a.84.84,0,0,1,.05.29V175h2.25c.53,0,.79.24.79.72s-.26.72-.79.72h-2.25v2.23h2.25c.53,0,.79.24.79.72s-.26.72-.79.72h-2.25v2h2.76c.52,0,.79.24.79.72s-.27.72-.79.72h-9.44a.69.69,0,0,1-.67.34h-1.49a.7.7,0,0,1-.79-.79v-7.54Zm3.67-2.88V175h3.48v-1.68a.84.84,0,0,1,.05-.29h-3.65A.76.76,0,0,1,158.87,173.5Zm0,5.18h3.48v-2.23h-3.48Zm3.48,3.36v-1.92h-3.48v2h3.48Z" class="cls-2"/><path data-cppathid="10003" d="M181.51,189.55a.85.85,0,0,1-.72.46,1.57,1.57,0,0,1-.32,0l-1-.31c-.37-.13-.55-.33-.55-.6a.9.9,0,0,1,.14-.43l8.57-13.78H172.91c-.52,0-.79-.24-.79-.72s.27-.72.79-.72h17.55c.45,0,.67.17.67.51a1,1,0,0,1-.14.45Zm10.24-14.29a.69.69,0,0,1,0,.22c0,.34-.22.53-.65.57l-.7.08a.72.72,0,0,1-.91-.52l-1.25-4.24a1.18,1.18,0,0,1,0-.22c0-.34.22-.53.65-.57l.69-.08c.52-.06.83.11.94.53Zm2.64-1.23a.69.69,0,0,1,0,.22q0,.47-.63.57l-.69.1c-.51.07-.83-.11-.94-.52l-1.22-4a.56.56,0,0,1,0-.12.49.49,0,0,1,0-.12c0-.29.22-.48.65-.54l.69-.1c.52-.07.83.1.94.52Z" class="cls-2"/><path data-cppathid="10004" d="M206.18,189.87a.84.84,0,0,1-.67.38,1.54,1.54,0,0,1-.39-.07l-.91-.31c-.35-.13-.53-.33-.53-.58a.89.89,0,0,1,.19-.48l6.72-9.1H196c-.52,0-.79-.24-.79-.72s.27-.72.79-.72h17.62c.45,0,.67.16.67.48a.8.8,0,0,1-.19.48Zm5.06-17.41c.53,0,.79.24.79.72s-.26.73-.79.73H198c-.53,0-.8-.25-.8-.73s.27-.72.8-.72Z" class="cls-2"/><path data-cppathid="10005" d="M220.19,181.32a.7.7,0,0,1-.79.79h-1.49a.7.7,0,0,1-.79-.79v-6.53a.7.7,0,0,1,.79-.79h1.49a.68.68,0,0,1,.77.6h4.92a.53.53,0,0,1,0-.19v-2.86a.7.7,0,0,1,.79-.79h1.49a.7.7,0,0,1,.79.79v2.86a.5.5,0,0,1,0,.19h8.52c.45,0,.68.18.68.53a1,1,0,0,1-.1.41l-7.1,14.16a.79.79,0,0,1-.75.48.88.88,0,0,1-.26,0l-1.15-.26c-.39-.1-.58-.3-.58-.6a.83.83,0,0,1,.1-.41L233.9,176H220.19Z" class="cls-2"/><path data-cppathid="10006" d="M247.19,183.7a.7.7,0,0,1-.79.79h-1.49a.7.7,0,0,1-.79-.79v-7.16h-3.31c-.53,0-.79-.24-.79-.72s.26-.72.79-.72h3.31v-2.78a.7.7,0,0,1,.79-.79h1.49a.7.7,0,0,1,.79.79v2.78h6c0-.44,0-.9,0-1.38s0-1,0-1.5.26-.84.79-.84h1.49c.53,0,.79.4.79,1.2v1.31c0,.43,0,.83,0,1.21H260c.53,0,.79.24.79.72s-.26.72-.79.72h-3.82c0,1.46-.13,2.72-.26,3.78a14.49,14.49,0,0,1-.6,2.82,9.71,9.71,0,0,1-1.09,2.27,14.34,14.34,0,0,1-1.71,2.1c-.68.71-1.5,1.49-2.48,2.36a.86.86,0,0,1-.62.28A1,1,0,0,1,249,190l-.56-.29c-.28-.18-.43-.37-.43-.58a.81.81,0,0,1,.29-.52c.74-.69,1.37-1.33,1.91-1.92a10.69,10.69,0,0,0,1.34-1.83,9.65,9.65,0,0,0,.88-2.09,15.79,15.79,0,0,0,.5-2.66c.11-1,.19-2.2.24-3.58h-5.93Zm12.55-10a.68.68,0,0,1,0,.22q0,.51-.57.57l-.61.08a.62.62,0,0,1-.8-.52l-1.09-4.27a1.18,1.18,0,0,1,0-.22q0-.51.57-.57l.61-.08a.64.64,0,0,1,.82.53Zm2.32-1.24a1.27,1.27,0,0,1,0,.22c0,.32-.19.51-.55.57l-.61.1a.64.64,0,0,1-.82-.52l-1.07-4a.56.56,0,0,1,0-.12s0-.08,0-.13c0-.29.19-.48.57-.54l.61-.1a.64.64,0,0,1,.82.52Z" class="cls-2"/><path data-cppathid="10007" d="M279.28,189.38a.75.75,0,0,1-.62.34,1,1,0,0,1-.46-.12l-.72-.34a.64.64,0,0,1-.45-.57,1,1,0,0,1,.19-.51,8.75,8.75,0,0,0,.89-1.76,13.83,13.83,0,0,0,.6-2.2,13.17,13.17,0,0,0,.21-2.32,9.43,9.43,0,0,0-1.08-4.8,4.72,4.72,0,0,0-3-2.33,32,32,0,0,1,.58,5.71,12.43,12.43,0,0,1-1.38,6.34,4.45,4.45,0,0,1-4.07,2.32,5.08,5.08,0,0,1-2.85-.79,5.28,5.28,0,0,1-1.9-2.17,7.15,7.15,0,0,1-.67-3.18,10.37,10.37,0,0,1,.69-3.79,10.05,10.05,0,0,1,1.94-3.13A9,9,0,0,1,270,174a8,8,0,0,1,3.47-.77,9.37,9.37,0,0,1,4.56,1,7.06,7.06,0,0,1,2.95,3,9.85,9.85,0,0,1,1,4.67A10.82,10.82,0,0,1,279.28,189.38ZM267.57,183a7.56,7.56,0,0,0,.34,2.34,5,5,0,0,0,.87,1.72,1.5,1.5,0,0,0,1.14.64c.45,0,.85-.33,1.19-1a9.75,9.75,0,0,0,.82-2.7,22.34,22.34,0,0,0,.3-3.84c0-.82,0-1.66-.11-2.52s-.19-1.74-.35-2.64a6.26,6.26,0,0,0-2.12,1.77,9.64,9.64,0,0,0-1.52,2.82A10.45,10.45,0,0,0,267.57,183Z" class="cls-2"/><path data-cppathid="10008" d="M297.23,189.87a.87.87,0,0,1-.62.31,1.35,1.35,0,0,1-.46-.12l-.72-.36a.67.67,0,0,1-.43-.58.76.76,0,0,1,.22-.5,11.42,11.42,0,0,0,1.91-3.25,19.14,19.14,0,0,0,1-4.5,3.24,3.24,0,0,0-1.25-.3c-.45,0-1,0-1.75,0h-.07a14.7,14.7,0,0,1-1.75,6.24,4.41,4.41,0,0,1-4,2.06,4.1,4.1,0,0,1-2.3-.65,4.58,4.58,0,0,1-1.6-1.75,5.12,5.12,0,0,1-.59-2.44,3.64,3.64,0,0,1,1.91-3.16,12.64,12.64,0,0,1,5.32-1.6q.09-1.2.15-2.58t.09-2.91h-4.9c-.53,0-.79-.24-.79-.72s.26-.72.79-.72h7.18a.71.71,0,0,1,.79.81c0,1.12,0,2.18,0,3.17s-.06,1.93-.13,2.81c.63,0,1.19,0,1.69,0a12.53,12.53,0,0,1,1.38.16c.07-.86.11-1.8.12-2.8a.72.72,0,0,1,.8-.82h1.48c.53,0,.8.41.8,1.23,0,1.37-.11,2.59-.22,3.67q.4.28.84.63c.29.24.59.5.91.81a.81.81,0,0,1,.29.55.63.63,0,0,1-.43.55l-.65.31a.93.93,0,0,1-.46.12.84.84,0,0,1-.64-.31,1.36,1.36,0,0,1-.24-.24,14.1,14.1,0,0,1-1.35,3.76A14.68,14.68,0,0,1,297.23,189.87ZM288,184a5,5,0,0,0,.25,1.55,5.7,5.7,0,0,0,.59,1.33c.22.35.41.52.57.52.56,0,1.07-.56,1.53-1.69a20.39,20.39,0,0,0,1.06-5,6,6,0,0,0-3.07,1.08A2.73,2.73,0,0,0,288,184Z" class="cls-2"/><path data-cppathid="10009" d="M309.86,187.3a.75.75,0,0,1,.66.18.87.87,0,0,1,.25.66q0,.53-.72.6l-3.22.33c-.56.05-.84-.2-.84-.77V173a.7.7,0,0,1,.8-.79h1.48a.7.7,0,0,1,.79.79v14.33Zm10.82-9.77a.81.81,0,0,1-.7.41l-.15,0a.57.57,0,0,1-.18,0l-1-.31c-.35-.1-.53-.29-.53-.58a.85.85,0,0,1,.17-.48l1.25-1.78h-6.74c-.53,0-.8-.24-.8-.71s.27-.73.8-.73h9.64c.45,0,.67.16.67.48a.79.79,0,0,1-.16.48Zm1.82,10c.53,0,.8.24.8.72s-.27.72-.8.72h-4.22a9.65,9.65,0,0,1-2.93-.41,5.75,5.75,0,0,1-2.11-1.1,2,2,0,0,1-.79-1.58,5.53,5.53,0,0,1,1.39-2.91.81.81,0,0,1,.7-.41,1.47,1.47,0,0,1,.38.07l.91.37q.48.21.48.57a.85.85,0,0,1-.17.48,4.5,4.5,0,0,0-.45.94,2.73,2.73,0,0,0-.17.89,1.35,1.35,0,0,0,.64,1.25,4.12,4.12,0,0,0,2.12.4Z" class="cls-2"/><path data-cppathid="10010" d="M17.4,218.71a1,1,0,0,1-.6.27,1.06,1.06,0,0,1-.51-.15l-.6-.33c-.28-.18-.43-.36-.43-.56a.74.74,0,0,1,.27-.5,13,13,0,0,0,1.74-2.51,35.34,35.34,0,0,0,1.81-4l-2.52-3.62a.75.75,0,0,1-.17-.46c0-.27.17-.47.53-.6l1-.31a.41.41,0,0,1,.17,0h.16a.81.81,0,0,1,.7.41l1.17,1.7c.2-.54.39-1.11.59-1.71l.61-1.86H15.81c-.52,0-.79-.24-.79-.72s.27-.72.79-.72h2.72v-3.6a.7.7,0,0,1,.79-.79h1.49a.7.7,0,0,1,.79.79V203h3.14c.53,0,.79.24.79.72s-.26.72-.79.72h-.6a1.51,1.51,0,0,1,0,.31,3.62,3.62,0,0,1-.21,1.1c-.32,1-.63,1.91-.92,2.75s-.59,1.62-.88,2.34l2.66,3.84a.82.82,0,0,1,.17.46c0,.27-.18.47-.53.6l-1,.31-.18,0h-.16a.81.81,0,0,1-.7-.41L21,213.67a18.19,18.19,0,0,1-1.64,2.85A14.84,14.84,0,0,1,17.4,218.71Zm11.35-.29c-.45,0-.67-.24-.67-.6a.38.38,0,0,1,0-.1l0-.14v0a.78.78,0,0,1,1-.58l2.55.39v-12h-5.3c-.53,0-.8-.24-.8-.72s.27-.72.8-.72h5.3V198.7a.7.7,0,0,1,.79-.8h1.49a.7.7,0,0,1,.79.8V204h.1c.53,0,.79.24.79.72s-.26.72-.79.72h-.1v13.08q0,.87-.84.75ZM30.67,212a.86.86,0,0,1,.07.36c0,.34-.21.55-.62.63l-1.3.24a.81.81,0,0,1-1-.56l-1.63-4.2a.94.94,0,0,1-.08-.36c0-.33.21-.54.63-.62l1.29-.24a.82.82,0,0,1,1,.55Z" class="cls-2"/><path data-cppathid="10011" d="M41.54,218.26a.69.69,0,0,1-.81.74L39.24,219a.71.71,0,0,1-.77-.84l1.15-16.2a.69.69,0,0,1,.82-.74l1.49.05a.8.8,0,0,1,.67.33h6.19a.92.92,0,0,1-.07-.38V198.7a.7.7,0,0,1,.79-.8H51a.7.7,0,0,1,.79.8v2.47a.92.92,0,0,1-.07.38h7.22c.53,0,.79.24.79.72s-.26.72-.79.72H42.62Zm4-.8a.7.7,0,0,1-.85.72l-1.48-.07a.69.69,0,0,1-.75-.84l1.08-10.61a.71.71,0,0,1,.84-.72l1.49.08a.69.69,0,0,1,.74.84Zm9.64-2.06a.7.7,0,0,1,.8-.79h1.48a.7.7,0,0,1,.8.79v2.33a.7.7,0,0,1-.8.79H48a.7.7,0,0,1-.79-.79V204.91a.7.7,0,0,1,.79-.79h1.49a.7.7,0,0,1,.79.79v12.17h4.94ZM54.5,214a.7.7,0,0,1-.79.8H52.22a.7.7,0,0,1-.79-.8v-7.39a.7.7,0,0,1,.79-.79h1.49a.7.7,0,0,1,.79.79Zm4.66-1.46a.75.75,0,0,1-.15.61.76.76,0,0,1-.57.25l-1.49.1a.72.72,0,0,1-.87-.72l-.71-6a.73.73,0,0,1,.14-.61.8.8,0,0,1,.57-.25l1.49-.1a.72.72,0,0,1,.87.72Z" class="cls-2"/><path data-cppathid="10012" d="M75.57,210.65a.74.74,0,0,1,.82-.79h1.49a.67.67,0,0,1,.76.81,10.1,10.1,0,0,1-1.17,4.43,7,7,0,0,1-2.83,2.84,8.69,8.69,0,0,1-4.25,1,7.26,7.26,0,0,1-5.22-1.78,6.44,6.44,0,0,1-1.88-4.94c0-.43,0-1,0-1.68s.08-1.45.12-2.27.11-1.66.17-2.52.13-1.67.21-2.45.13-1.45.2-2a.71.71,0,0,1,.86-.69l1.44.09a.68.68,0,0,1,.72.84c-.06.57-.13,1.22-.19,2s-.13,1.56-.19,2.4-.12,1.67-.17,2.48-.08,1.54-.11,2.22,0,1.21,0,1.63a6.33,6.33,0,0,0,1,3.93,3.55,3.55,0,0,0,3,1.35A4.34,4.34,0,0,0,74,215.66,9,9,0,0,0,75.57,210.65Z" class="cls-2"/><path data-cppathid="10013" d="M95.83,217.06c.51,0,.77.28.77.74s-.28.73-.82.7a17,17,0,0,1-3.78-.6,11.32,11.32,0,0,1-3-1.37,6.91,6.91,0,0,1-2-2,4.44,4.44,0,0,1-.74-2.46,7.75,7.75,0,0,1,1.6-4.71,12.5,12.5,0,0,1,4.43-3.61l-10.08.72a.72.72,0,0,1-.87-.82c0-.37.24-.58.72-.62l15.1-1.08a.83.83,0,0,1,.94.62,1.35,1.35,0,0,1,0,.26c0,.33-.21.55-.64.68a13.53,13.53,0,0,0-4.37,1.89,9.14,9.14,0,0,0-2.81,3,7.29,7.29,0,0,0-1,3.72,4.22,4.22,0,0,0,.58,2.3,4.87,4.87,0,0,0,1.56,1.5,7.66,7.66,0,0,0,2.13.85A14.16,14.16,0,0,0,95.83,217.06Z" class="cls-2"/><path data-cppathid="10014" d="M108.07,215.33a1,1,0,0,1,.48-.15.88.88,0,0,1,.62.29l.19.17a.69.69,0,0,1,.29.55c0,.23-.14.41-.43.55-.45.2-.91.38-1.38.56s-1,.32-1.45.45a1.16,1.16,0,0,1-.51.1,1.35,1.35,0,0,1-.5-.1l-.77-.24a.94.94,0,0,1-.74-.79q-.6-3.15-1-6.55c-.24-2.27-.41-4.71-.51-7.3,0-.56.23-.84.77-.84l1.49,0a.73.73,0,0,1,.82.79,86.82,86.82,0,0,0,1.32,13.13l.61-.28Zm13.27-1c.08.55-.16.83-.72.86l-1.49.1a.76.76,0,0,1-.86-.72c-.19-1.52-.43-3-.71-4.52s-.6-3-1-4.43a.83.83,0,0,1,0-.15.61.61,0,0,1,0-.14c0-.38.22-.6.67-.65l1.39-.17c.5-.08.81.16.94.7.42,1.58.77,3.13,1.06,4.63S121.13,212.83,121.34,214.32Z" class="cls-2"/><path data-cppathid="10015" d="M143,212.57c.35.13.52.31.52.55a.69.69,0,0,1-.24.46l-.16.16a1,1,0,0,1-.68.32.72.72,0,0,1-.19,0l-.21-.06a16.26,16.26,0,0,0-1.66-.54c-.62-.17-1.28-.31-2-.44v1.7a3.39,3.39,0,0,1-1.57,3,7.67,7.67,0,0,1-4.31,1.05,10,10,0,0,1-3.42-.55,6,6,0,0,1-2.41-1.51,3.11,3.11,0,0,1-.89-2.16,2.52,2.52,0,0,1,.87-1.91,5.82,5.82,0,0,1,2.41-1.25,13.36,13.36,0,0,1,3.61-.44l1.28,0c.44,0,.9.06,1.36.11v-2.3H127c-.53,0-.79-.24-.79-.72s.26-.72.79-.72h8.4v-2.64H127c-.53,0-.79-.24-.79-.72s.26-.72.79-.72h8.4v-2a.7.7,0,0,1,.79-.79h1.49a.7.7,0,0,1,.79.79v2h3.84c.53,0,.79.24.79.72s-.26.72-.79.72h-3.84v2.64h3.84c.53,0,.79.24.79.72s-.26.72-.79.72h-3.84v2.73c.9.16,1.75.34,2.55.53S142.48,212.38,143,212.57Zm-14.12,1.92q0,2.77,3.65,2.78a3.31,3.31,0,0,0,2.2-.56,2.69,2.69,0,0,0,.61-2V212.5a21.77,21.77,0,0,0-2.64-.17,8.77,8.77,0,0,0-2.45.26,1.86,1.86,0,0,0-1.09.75A2.3,2.3,0,0,0,128.92,214.49Z" class="cls-2"/><path data-cppathid="10016" d="M159.79,218.42a.83.83,0,0,1-.72.46h-.15l-.16,0-1.13-.31c-.37-.1-.55-.29-.55-.58a.9.9,0,0,1,.09-.4,10,10,0,0,0,.63-3.1,8.3,8.3,0,0,1-3.32.65,6.62,6.62,0,0,1-2.88-.61,4.61,4.61,0,0,1-1.93-1.72,4.81,4.81,0,0,1-.68-2.57,3.55,3.55,0,0,1,.78-2.29,5.09,5.09,0,0,1,2.12-1.51,8.2,8.2,0,0,1,3.07-.54,9.57,9.57,0,0,1,1.6.12,7.23,7.23,0,0,1,1.28.33v-2.66H147.43c-.53,0-.79-.24-.79-.72s.26-.72.79-.72h10.41v-2a.7.7,0,0,1,.8-.79h1.48a.7.7,0,0,1,.8.79v2h3.28c.53,0,.8.24.8.72s-.27.72-.8.72h-3.28v6.46a5.81,5.81,0,0,1,0,.72c0,.25,0,.5,0,.74s0,.47,0,.7v.79c0,.82,0,1.53-.1,2.13a8.08,8.08,0,0,1-.34,1.67A8.45,8.45,0,0,1,159.79,218.42Zm-7.73-8.23a4.34,4.34,0,0,0,.65,2.53,2,2,0,0,0,1.77.93,3.34,3.34,0,0,0,2.22-.71,3.14,3.14,0,0,0,1.07-2,5.34,5.34,0,0,0-.77-2.86,2.42,2.42,0,0,0-2-.79A2.57,2.57,0,0,0,152.06,210.19Z" class="cls-2"/><path data-cppathid="10017" d="M172,218.59a5.15,5.15,0,0,1-2.22-.48,4.21,4.21,0,0,1-1.64-1.32,3.15,3.15,0,0,1-.61-1.87,3.09,3.09,0,0,1,.61-1.86,4.28,4.28,0,0,1,1.64-1.31,5.15,5.15,0,0,1,2.22-.48,5,5,0,0,1,2.2.48,4.14,4.14,0,0,1,1.62,1.31,3.1,3.1,0,0,1,0,3.72,4.25,4.25,0,0,1-1.62,1.32A4.9,4.9,0,0,1,172,218.59Zm0-1.2a2,2,0,0,0,1.5-.72,2.56,2.56,0,0,0,.63-1.75,2.52,2.52,0,0,0-.63-1.74,2,2,0,0,0-3,0,2.51,2.51,0,0,0-.63,1.75,2.56,2.56,0,0,0,.63,1.75A2,2,0,0,0,172,217.39Z" class="cls-2"/><path data-cppathid="10018" d="M16.69,94.08a.79.79,0,0,1-.74.53h-.12a.21.21,0,0,1-.12,0l-1.2-.24c-.4-.09-.6-.31-.6-.64a.86.86,0,0,1,.07-.36l4.2-9.17a.79.79,0,0,1,.74-.53H19l.12,0,1.2.24q.6.15.6.6a1,1,0,0,1-.09.41l-1.3,2.86h4.25V83.54a.7.7,0,0,1,.79-.79H26.1a.7.7,0,0,1,.79.79v4.23h6.53c.53,0,.79.24.79.72s-.26.72-.79.72H26.89v6h5.57c.53,0,.79.24.79.72s-.26.72-.79.72H26.89v5.21h7.25c.53,0,.79.24.79.72s-.26.72-.79.72H15.08c-.52,0-.79-.24-.79-.72s.27-.72.79-.72h8.74V96.67H17.39c-.53,0-.79-.24-.79-.72s.26-.72.79-.72h6.43v-6H18.9Z" class="cls-2"/><path data-cppathid="10019" d="M40.24,96.65a.92.92,0,0,1-.65.31,1.23,1.23,0,0,1-.43-.12l-.68-.31c-.3-.15-.45-.34-.45-.58a.8.8,0,0,1,.26-.53l5.93-5.83a.9.9,0,0,1,.65-.31,1.28,1.28,0,0,1,.43.12l.67.31c.31.15.46.34.46.58a.78.78,0,0,1-.27.53l-2,1.94a.87.87,0,0,1,.14.5v9.8a.7.7,0,0,1-.79.79H42.06a.7.7,0,0,1-.79-.79V95.64Zm.57-6.48a.85.85,0,0,1-.69.36,1.54,1.54,0,0,1-.39-.07l-.86-.34q-.51-.21-.51-.6a.75.75,0,0,1,.22-.48l4.7-5.86a.89.89,0,0,1,.7-.36,1.18,1.18,0,0,1,.38.08l.87.33c.33.15.5.35.5.6a.78.78,0,0,1-.21.48ZM48,102.74a.74.74,0,0,1-.88.68l-1.44-.15c-.55,0-.77-.34-.68-.89l1.47-7.17a.73.73,0,0,1,.89-.67l1.44.14c.54,0,.76.34.67.89l-.84,4.15,2.45.53V93.17a.9.9,0,0,1,.12-.48H46.84c-.53,0-.8-.24-.8-.72s.27-.72.8-.72h4.1V86.93h-4.1c-.53,0-.8-.24-.8-.72s.27-.72.8-.72h4.1v-2a.7.7,0,0,1,.79-.79h1.49a.7.7,0,0,1,.79.79v2H57.3c.53,0,.79.24.79.72s-.26.72-.79.72H54v4.32h4.25c.53,0,.79.24.79.72s-.26.72-.79.72H54a.9.9,0,0,1,.12.48V95.9h3.67c.53,0,.79.24.79.72s-.26.72-.79.72H54.11v3.27a.87.87,0,0,1,0,.31l4.61,1c.41.1.62.29.62.58a.67.67,0,0,1-.07.31l0,0a.81.81,0,0,1-.77.53h-.12a.21.21,0,0,1-.12,0l-9.91-2.21Z" class="cls-2"/><path data-cppathid="10020" d="M77.75,100.9a1.71,1.71,0,0,1,.45-.08,1.2,1.2,0,0,1,.33.05,1.14,1.14,0,0,1,.3.17l.19.14a.7.7,0,0,1,.36.58c0,.27-.18.44-.53.5-.57.13-1.29.26-2.13.38s-1.73.21-2.64.28-1.77.11-2.57.11a17.45,17.45,0,0,1-4.83-.59,7.41,7.41,0,0,1-3.19-1.68,3.48,3.48,0,0,1-1.13-2.6,3.8,3.8,0,0,1,1-2.54,11.2,11.2,0,0,1,3.4-2.38l-3-6.38a.86.86,0,0,1-.1-.41c0-.31.19-.51.58-.6l1.22-.27.26,0a.77.77,0,0,1,.75.5l2.85,6c1.09-.45,2.34-.91,3.74-1.39s3-1,4.71-1.51a.49.49,0,0,1,.18,0h.18a.77.77,0,0,1,.72.43v0a.86.86,0,0,1,.15.45c0,.27-.2.47-.58.6q-3.84,1.18-6.36,2.11a27.51,27.51,0,0,0-4,1.78,6.34,6.34,0,0,0-2,1.7,3.27,3.27,0,0,0-.6,1.9,2.79,2.79,0,0,0,1.42,2.6,9.65,9.65,0,0,0,4.65.83c.77,0,1.55,0,2.35-.09s1.54-.15,2.23-.26A12.82,12.82,0,0,0,77.75,100.9Z" class="cls-2"/><path data-cppathid="10021" d="M95.32,95.45a.73.73,0,0,1,.81-.79h1.49a.68.68,0,0,1,.77.81,10.24,10.24,0,0,1-1.18,4.43,7,7,0,0,1-2.83,2.84,8.69,8.69,0,0,1-4.25,1A7.3,7.3,0,0,1,84.91,102,6.47,6.47,0,0,1,83,97c0-.43,0-1,0-1.68s.07-1.45.12-2.27.1-1.66.16-2.52.14-1.67.21-2.45.14-1.45.2-2,.34-.72.87-.69l1.44.09a.69.69,0,0,1,.72.84c-.07.57-.13,1.22-.2,2s-.12,1.56-.19,2.4-.12,1.67-.17,2.48-.08,1.54-.1,2.22,0,1.21,0,1.63a6.33,6.33,0,0,0,1,3.93,3.55,3.55,0,0,0,3,1.35,4.33,4.33,0,0,0,3.65-1.83A9,9,0,0,0,95.32,95.45Z" class="cls-2"/><path data-cppathid="10022" d="M115.57,101.86c.51,0,.77.28.77.74s-.27.73-.82.7a17,17,0,0,1-3.78-.6,11.11,11.11,0,0,1-3-1.37,7,7,0,0,1-2-2,4.45,4.45,0,0,1-.73-2.46,7.73,7.73,0,0,1,1.59-4.71A12.59,12.59,0,0,1,112,88.54l-10.08.72a.72.72,0,0,1-.86-.82c0-.37.24-.58.72-.62l15.09-1.08a.82.82,0,0,1,.94.62,1.74,1.74,0,0,1,0,.26c0,.33-.22.55-.65.68a13.63,13.63,0,0,0-4.37,1.89,9.25,9.25,0,0,0-2.81,3,7.39,7.39,0,0,0-1,3.72,4.22,4.22,0,0,0,.59,2.3,4.67,4.67,0,0,0,1.56,1.5,7.91,7.91,0,0,0,2.12.85A14.16,14.16,0,0,0,115.57,101.86Z" class="cls-2"/><path data-cppathid="10023" d="M128.12,103.66a.74.74,0,0,1,.27.52c0,.23-.15.41-.46.56l-.45.21a.93.93,0,0,1-1.11-.21L122,100.3a.76.76,0,0,1-.27-.53c0-.23.15-.41.46-.55l.45-.22a1.05,1.05,0,0,1,.44-.1.89.89,0,0,1,.67.32Z" class="cls-2"/><path data-cppathid="10024" d="M148.69,103c0,.49-.29.74-.81.74l-1.47,0a.68.68,0,0,1-.77-.82l.68-14.71a1,1,0,0,1,.14-.48.63.63,0,0,1-.12-.41c0-.48.26-.72.79-.72h8.59l-.79-2.45a1.4,1.4,0,0,1-.05-.31c0-.37.22-.57.65-.62l1.35-.19.1,0h.09a.72.72,0,0,1,.74.6l1,3h6.63c.52,0,.79.24.79.72s-.27.72-.79.72h-6.17l2.06,6.41,2.19-3.5a.83.83,0,0,1,.72-.46,1.5,1.5,0,0,1,.31,0l1,.31c.37.13.55.33.55.6a1,1,0,0,1-.14.43l-3.63,5.79,1.2,3.72,1.37-.36a1,1,0,0,1,.27,0,.82.82,0,0,1,.74.5.93.93,0,0,1,.12.39c0,.32-.19.52-.58.62l-3.52.91a.4.4,0,0,1-.15,0h-.12a.74.74,0,0,1-.72-.58l-.62-1.94L159,103a.83.83,0,0,1-.72.46,1.5,1.5,0,0,1-.31,0l-1-.31c-.37-.13-.55-.33-.55-.6a.8.8,0,0,1,.14-.43l2.74-4.37L156.18,88h-6.84a2.13,2.13,0,0,1,0,.27l-.19,4.12H155a.66.66,0,0,1,.74.82l-.74,9.41c0,.46-.26.69-.65.69a1.25,1.25,0,0,1-.26,0l-3.79-.94c-.4-.1-.6-.29-.6-.58a.38.38,0,0,1,0-.16.49.49,0,0,0,.06-.17l0-.07a.8.8,0,0,1,.74-.51h.14l.15,0,1.2.29.6-7.35H149.1Zm15.75-18.39a.72.72,0,0,1,.4.58.74.74,0,0,1-.28.53l-.24.19a1,1,0,0,1-.63.26.89.89,0,0,1-.45-.14l-2.93-1.61a.73.73,0,0,1-.41-.57.69.69,0,0,1,.29-.53l.24-.19a.93.93,0,0,1,.62-.27.86.86,0,0,1,.46.15Z" class="cls-2"/><path data-cppathid="10025" d="M171.59,102.1a.72.72,0,0,1-.87.72l-.76,0a.68.68,0,0,1-.72-.84l.31-3.65a.72.72,0,0,1,.86-.72l.77,0a.68.68,0,0,1,.72.84Zm4.17,1a.7.7,0,0,1-.79.79h-1.49a.7.7,0,0,1-.79-.79V96.22l-2.64.21q-.72,0-.72-.45a.85.85,0,0,1,.17-.48l2.21-3.44-.05-.07-2-2.69a.93.93,0,0,1-.21-.55.81.81,0,0,1,.21-.55l3.84-5a.86.86,0,0,1,.68-.38,1.14,1.14,0,0,1,.38.07l.91.31c.34.11.51.3.51.58a.87.87,0,0,1-.2.48l-3.43,4.53.82,1.08.86-1.34a.86.86,0,0,1,.75-.43,1.38,1.38,0,0,1,.31,0l1,.32c.37.12.55.32.55.57a.47.47,0,0,1-.05.22,1.34,1.34,0,0,1-.12.24l-3.4,5.3,2.92-.24-.4-1.65a.88.88,0,0,1,0-.24.64.64,0,0,1,.65-.7l.7-.1a.72.72,0,0,1,.91.63l.89,3.67a1.44,1.44,0,0,1,0,.24.64.64,0,0,1-.65.7l-.69.09a.72.72,0,0,1-.92-.62l-.14-.58h-.07l-.55,0a.85.85,0,0,1,0,.29Zm3.41-1.59a.69.69,0,0,1-.74.84l-.77.05a.71.71,0,0,1-.84-.72l-.31-3a.81.81,0,0,1,.17-.61.75.75,0,0,1,.57-.25l.77,0a.71.71,0,0,1,.84.72ZM185.89,90v.07h3.48c.53,0,.79.24.79.72s-.26.72-.79.72h-10c-.53,0-.79-.24-.79-.72s.26-.72.79-.72h3.41v-1h-2.28c-.53,0-.79-.24-.79-.72s.26-.72.79-.72h2.28V86.21h-2.88c-.53,0-.79-.24-.79-.72s.26-.72.79-.72h2.88V84a.7.7,0,0,1,.79-.79h1.49a.7.7,0,0,1,.79.79v.77h2.91c.52,0,.79.24.79.72s-.27.72-.79.72h-2.91v1.41h2.33c.53,0,.79.24.79.72s-.26.72-.79.72h-2.33Zm-6.41,2.88a.7.7,0,0,1,.8-.79h1.48a.88.88,0,0,1,.48.12h6.6a.7.7,0,0,1,.8.79v7.44a.7.7,0,0,1-.8.79h-1.48a.85.85,0,0,1-.48-.12h-4.64a.88.88,0,0,1-.48.12h-1.48a.7.7,0,0,1-.8-.79Zm1.54,11a1,1,0,0,1-.43.09.86.86,0,0,1-.65-.31l-.12-.12a.72.72,0,0,1-.26-.5c0-.24.16-.44.48-.58l2.08-.94a1,1,0,0,1,.44-.09.84.84,0,0,1,.64.31l.12.12a.74.74,0,0,1,.27.5c0,.24-.16.44-.48.58Zm5.54-10.25h-4v1h4Zm-4,3.55h4V96.07h-4Zm0,2.47h4v-1h-4Zm6.79,2.91q.48.21.48.57a.74.74,0,0,1-.22.48l-.17.17a1,1,0,0,1-.67.34,1,1,0,0,1-.41-.1L186,103q-.48-.21-.48-.57a.75.75,0,0,1,.22-.48l.17-.17a.85.85,0,0,1,1.08-.24Z" class="cls-2"/><path data-cppathid="10026" d="M207.3,97.94c0,.55-.23.82-.79.82H205c-.5,0-.76-.26-.79-.79a10.36,10.36,0,0,0-.19-1.42,20.76,20.76,0,0,0-3.94,2c-.95.66-1.42,1.27-1.42,1.81s.33.84,1,1.07a9.6,9.6,0,0,0,3,.35,14.05,14.05,0,0,0,6.29-1.35,1.08,1.08,0,0,1,.5-.14.85.85,0,0,1,.58.24l.24.19a.72.72,0,0,1,.31.55.63.63,0,0,1-.43.56,15.26,15.26,0,0,1-2.22.72,26.42,26.42,0,0,1-2.62.49,20.12,20.12,0,0,1-2.65.18,15,15,0,0,1-3.53-.39,7.81,7.81,0,0,1-2.57-1,1.79,1.79,0,0,1-1-1.44,2.46,2.46,0,0,1,1-1.69,12.89,12.89,0,0,1,2.75-1.84A35.94,35.94,0,0,1,203.56,95a4.07,4.07,0,0,0-1.1-1.5A2.23,2.23,0,0,0,201,93a2.65,2.65,0,0,0-1.56.49A5,5,0,0,0,198.13,95a.9.9,0,0,1-.53.48l0,0h-.1a.05.05,0,0,1,0,0h-.22a.21.21,0,0,1-.12,0L196,95.28l-.15,0c-.33-.11-.5-.3-.5-.57a.83.83,0,0,1,.1-.41l2.35-4.9h-3.7c-.53,0-.79-.24-.79-.72s.26-.72.79-.72h4.39l.87-1.82a.8.8,0,0,1,.77-.53h.12l.12,0,1.22.29c.38.1.58.3.58.6a1,1,0,0,1-.1.41l-.5,1h7.63c.53,0,.79.24.79.72s-.26.72-.79.72h-8.31l-1.1,2.31a6.75,6.75,0,0,1,1.27-.12,6.38,6.38,0,0,1,3,.67,5.49,5.49,0,0,1,2.11,1.92c1.22-.4,2.5-.78,3.84-1.13l.17,0h.15a.81.81,0,0,1,.72.48.93.93,0,0,1,.12.39c0,.32-.21.52-.6.62-1.32.35-2.55.72-3.7,1.1A9.13,9.13,0,0,1,207.3,97.94Z" class="cls-2"/><path data-cppathid="10027" d="M218.1,102.07a.91.91,0,0,1-.65.29.88.88,0,0,1-.43-.1l-.67-.31c-.31-.14-.46-.33-.46-.57a.76.76,0,0,1,.26-.53l10.95-11H215.46c-.53,0-.79-.24-.79-.72s.26-.72.79-.72H227.8V86.74a.7.7,0,0,1,.79-.8h1.49a.71.71,0,0,1,.79.8v1.68h3.21c.53,0,.79.24.79.72s-.26.72-.79.72h-3.21v12.67a.66.66,0,0,1-.82.74l-4-.29c-.48,0-.72-.25-.72-.62a.81.81,0,0,1,.26-.65.86.86,0,0,1,.65-.17l1.52.12V92.33Z" class="cls-2"/><path data-cppathid="10028" d="M246.11,89.88c.27.18.4.36.4.55a.72.72,0,0,1-.33.55l-.29.24a.92.92,0,0,1-.58.22,1,1,0,0,1-.52-.17l-6.36-3.86c-.28-.18-.41-.36-.41-.55a.74.74,0,0,1,.33-.56l.29-.24a1,1,0,0,1,.58-.21,1,1,0,0,1,.53.17Zm7.75,2.59a1,1,0,0,1,.55-.17.91.91,0,0,1,.55.2l.31.24a.71.71,0,0,1,.34.55.67.67,0,0,1-.38.55l-14.12,8.88a1,1,0,0,1-.55.17,1,1,0,0,1-.55-.19l-.31-.24a.72.72,0,0,1-.34-.56.68.68,0,0,1,.39-.55Z" class="cls-2"/><path data-cppathid="10029" d="M270,103.46a.83.83,0,0,1-.67.39,1.61,1.61,0,0,1-.39-.07l-.91-.32c-.35-.12-.53-.32-.53-.57a.82.82,0,0,1,.2-.48l6.72-9.1H259.79c-.53,0-.8-.24-.8-.72s.27-.72.8-.72H277.4c.45,0,.67.16.67.48a.8.8,0,0,1-.19.48Zm5.06-17.4c.53,0,.8.24.8.72s-.27.72-.8.72H261.78c-.53,0-.79-.24-.79-.72s.26-.72.79-.72Z" class="cls-2"/><path data-cppathid="10030" d="M282.11,97.13a1,1,0,0,1-.51.14A.88.88,0,0,1,281,97l-.24-.19a.79.79,0,0,1-.33-.55.7.7,0,0,1,.4-.55L297.68,86a1.16,1.16,0,0,1,.51-.14.88.88,0,0,1,.6.24l.24.19a.79.79,0,0,1,.33.55c0,.19-.13.38-.41.55l-6.67,3.87a.74.74,0,0,1,.19.55v10.8a.7.7,0,0,1-.79.79h-1.49a.7.7,0,0,1-.79-.79V92.9Z" class="cls-2"/><path data-cppathid="10031" d="M310.14,89.88c.27.18.41.36.41.55a.73.73,0,0,1-.34.55l-.29.24a.91.91,0,0,1-.57.22,1,1,0,0,1-.53-.17l-6.36-3.86c-.27-.18-.41-.36-.41-.55a.72.72,0,0,1,.34-.56l.28-.24a.91.91,0,0,1,1.11,0Zm7.75,2.59a1,1,0,0,1,.55-.17.91.91,0,0,1,.55.2l.32.24a.72.72,0,0,1,.33.55.67.67,0,0,1-.38.55l-14.11,8.88a1,1,0,0,1-.56.17,1,1,0,0,1-.55-.19l-.31-.24a.75.75,0,0,1-.34-.56.68.68,0,0,1,.39-.55Z" class="cls-2"/><path data-cppathid="10032" d="M336.66,101.86c.51,0,.77.28.77.74s-.28.73-.82.7a17,17,0,0,1-3.78-.6,11.32,11.32,0,0,1-3-1.37,6.91,6.91,0,0,1-2-2,4.46,4.46,0,0,1-.74-2.46,7.75,7.75,0,0,1,1.6-4.71,12.5,12.5,0,0,1,4.43-3.61L323,89.26a.72.72,0,0,1-.87-.82c0-.37.24-.58.72-.62l15.1-1.08a.83.83,0,0,1,.94.62,1.35,1.35,0,0,1,0,.26c0,.33-.21.55-.64.68a13.53,13.53,0,0,0-4.37,1.89,9.14,9.14,0,0,0-2.81,3,7.29,7.29,0,0,0-1,3.72,4.22,4.22,0,0,0,.58,2.3,4.87,4.87,0,0,0,1.56,1.5,8,8,0,0,0,2.13.85A14.16,14.16,0,0,0,336.66,101.86Zm1-4.73a1.61,1.61,0,0,1,0,.26.62.62,0,0,1-.65.67l-.69.1a.73.73,0,0,1-.92-.62l-1.24-5a1,1,0,0,1,0-.27c0-.4.22-.62.65-.67l.7-.1a.73.73,0,0,1,.93.63Zm2.64-1.47a1.87,1.87,0,0,1,0,.27c0,.37-.21.59-.62.67l-.7.12a.74.74,0,0,1-.94-.62l-1.22-4.71a.74.74,0,0,1,0-.14s0-.1,0-.15c0-.35.22-.56.65-.64l.7-.12a.72.72,0,0,1,.93.62Z" class="cls-2"/><path data-cppathid="10033" d="M17.75,132.31a.86.86,0,0,1-.65.31,1,1,0,0,1-.43-.09l-.75-.34q-.48-.21-.48-.57a.72.72,0,0,1,.24-.51l4.3-4.56h-.53a.68.68,0,0,1-.72.43H17.24a.7.7,0,0,1-.79-.79V113.26a.71.71,0,0,1,.79-.8h1.49a.69.69,0,0,1,.72.41H32a.7.7,0,0,1,.79.79v12.92a.7.7,0,0,1-.79.79H30.54a.7.7,0,0,1-.79-.79v0H28.19V131h4v-.63c0-.4.26-.6.79-.6h1.49a.7.7,0,0,1,.79.79v1.08a.7.7,0,0,1-.79.8H25.91a.7.7,0,0,1-.79-.8v-5.11H22.88v0a.7.7,0,0,1-.24.5Zm12-18H19.52V117H29.75ZM19.52,121H29.75v-2.57H19.52Zm0,4.08H29.75v-2.64H19.52Z" class="cls-2"/><path data-cppathid="10034" d="M55,126.94a3.64,3.64,0,0,1-1.13,2.65,7.33,7.33,0,0,1-3.12,1.76,15.14,15.14,0,0,1-4.58.63,16.29,16.29,0,0,1-3.47-.33,6.24,6.24,0,0,1-2.34-.92,1.72,1.72,0,0,1-.84-1.42,2.06,2.06,0,0,1,.83-1.55,6.33,6.33,0,0,1,2.15-1.14,9.13,9.13,0,0,1,2.78-.43,7.1,7.1,0,0,1,3.6.84,4.16,4.16,0,0,1,2,2.38,3.07,3.07,0,0,0,1.08-2.47,4.14,4.14,0,0,0-.56-2.16,3.94,3.94,0,0,0-1.56-1.47,4.88,4.88,0,0,0-2.3-.53,9.3,9.3,0,0,0-3,.52,11.8,11.8,0,0,0-2.88,1.45L40.09,126a1.31,1.31,0,0,1-.81.36,1,1,0,0,1-.8-.43l-.19-.19a.74.74,0,0,1-.24-.53.7.7,0,0,1,.31-.55,9.2,9.2,0,0,1,1.35-.94l9-7.15H40c-.53,0-.79-.23-.79-.7s.26-.69.79-.69H52.31c.45,0,.67.13.67.41a.72.72,0,0,1-.34.55l-6.91,5.42a13.43,13.43,0,0,1,1.75-.12,9.78,9.78,0,0,1,2.9.43A8.29,8.29,0,0,1,52.76,123a5.77,5.77,0,0,1,1.62,1.77A4.13,4.13,0,0,1,55,126.94Zm-12.41,2.37a1,1,0,0,0,.3.78,2,2,0,0,0,1.07.39,17.68,17.68,0,0,0,2.21.1,13.17,13.17,0,0,0,1.85-.12,1.1,1.1,0,0,1-.07-.31c-.2-1.71-1.08-2.57-2.67-2.57a3.7,3.7,0,0,0-2,.46A1.43,1.43,0,0,0,42.56,129.31Z" class="cls-2"/><path data-cppathid="10035" d="M69.8,119a.87.87,0,0,1-.67.34,1,1,0,0,1-.41-.1l-.79-.34a.62.62,0,0,1-.48-.57.88.88,0,0,1,.22-.51l.93-1.08H58.67c-.53,0-.79-.24-.79-.72s.26-.72.79-.72h13c.47,0,.7.16.7.48a.72.72,0,0,1-.24.51Zm2.31,11.06c.53,0,.79.24.79.72s-.26.72-.79.72H65.17a15.77,15.77,0,0,1-5.27-.7c-1.27-.48-1.9-1.17-1.9-2.08a4,4,0,0,1,.43-1.64,9.83,9.83,0,0,1,1.17-1.91,1,1,0,0,1,.68-.36.9.9,0,0,1,.4.09l.87.36c.32.15.48.34.48.58a1,1,0,0,1-.15.48,8.6,8.6,0,0,0-.57,1.27,3.52,3.52,0,0,0-.24,1.13,1.1,1.1,0,0,0,.3.84,2.22,2.22,0,0,0,1.19.4,24.26,24.26,0,0,0,2.61.1Z" class="cls-2"/><path data-cppathid="10036" d="M91.5,129.7a1.78,1.78,0,0,1,.46-.08,1.13,1.13,0,0,1,.32,0,.92.92,0,0,1,.3.17l.19.14a.7.7,0,0,1,.36.58c0,.27-.17.44-.53.5-.57.13-1.28.26-2.13.38s-1.73.21-2.64.28-1.77.11-2.57.11a17.32,17.32,0,0,1-4.82-.59,7.45,7.45,0,0,1-3.2-1.68,3.48,3.48,0,0,1-1.12-2.6,3.8,3.8,0,0,1,1-2.54A11.13,11.13,0,0,1,80.53,122l-3-6.38a.86.86,0,0,1-.1-.41c0-.31.19-.51.58-.6l1.22-.27.27,0a.75.75,0,0,1,.74.5l2.86,6c1.08-.45,2.33-.91,3.73-1.39s3-1,4.71-1.51a.49.49,0,0,1,.18-.05h.18a.77.77,0,0,1,.72.43v0a.86.86,0,0,1,.15.45c0,.27-.19.47-.58.6q-3.84,1.19-6.36,2.11a27.51,27.51,0,0,0-4,1.78,6.34,6.34,0,0,0-2,1.7,3.27,3.27,0,0,0-.6,1.9,2.78,2.78,0,0,0,1.43,2.6,9.6,9.6,0,0,0,4.64.83c.77,0,1.55,0,2.35-.09s1.55-.15,2.23-.26A12.82,12.82,0,0,0,91.5,129.7Z" class="cls-2"/><path data-cppathid="10037" d="M99,131.83a.76.76,0,0,1-1,.55l-1.27-.24q-.6-.12-.6-.6a1.14,1.14,0,0,1,.07-.38l4.85-11.78H96.83c-.53,0-.79-.24-.79-.72s.26-.72.79-.72h4.82l1.18-2.86a.76.76,0,0,1,1-.55l1.27.24q.6.12.6.6a1.14,1.14,0,0,1-.07.38l-.89,2.19h0a5.28,5.28,0,0,1,3.72,1.14,4.53,4.53,0,0,1,1.23,3.49,16.6,16.6,0,0,1-.3,3.37,10.53,10.53,0,0,1-.81,2.47,13.26,13.26,0,0,1-1.06,1.85c-.38.54-.75,1-1.12,1.52a.81.81,0,0,1-.67.41,1,1,0,0,1-.36-.07l-1-.31c-.35-.1-.52-.29-.52-.58a.8.8,0,0,1,.16-.45,20.12,20.12,0,0,0,1.18-1.77,9.72,9.72,0,0,0,1-2.53,15.66,15.66,0,0,0,.41-3.91,5.43,5.43,0,0,0-.41-2.49,1.55,1.55,0,0,0-1.47-.7h-.62Zm16.73-5.06a1.38,1.38,0,0,1,0,.31c0,.37-.21.58-.64.62l-1.37.2a.78.78,0,0,1-.94-.58l-3.21-10.46a1.09,1.09,0,0,1,0-.32c0-.36.21-.57.65-.62l1.36-.19h.11l.09,0a.72.72,0,0,1,.74.6Zm.81-9.12a.78.78,0,0,1,0,.24c0,.36-.22.56-.65.61l-.7.09a.72.72,0,0,1-.91-.57l-1.25-4.58a1.44,1.44,0,0,1,0-.24c0-.36.21-.57.65-.61l.69-.09a.74.74,0,0,1,.94.57Zm2.64-1.33a.78.78,0,0,1,0,.24c0,.33-.21.54-.63.61l-.69.11a.73.73,0,0,1-.94-.57l-1.22-4.27a.93.93,0,0,1,0-.13.62.62,0,0,1,0-.13c0-.32.21-.52.65-.59l.69-.11c.51-.07.83.11.94.56Z" class="cls-2"/><path data-cppathid="10038" d="M134.46,130.66c.51,0,.77.28.77.74s-.27.73-.82.7a17,17,0,0,1-3.78-.6,11.11,11.11,0,0,1-3-1.37,7,7,0,0,1-2-2,4.45,4.45,0,0,1-.73-2.46,7.73,7.73,0,0,1,1.59-4.71,12.59,12.59,0,0,1,4.43-3.61l-10.08.72a.72.72,0,0,1-.86-.82c0-.37.24-.58.72-.62l15.09-1.08a.83.83,0,0,1,.94.62,1.74,1.74,0,0,1,.05.26c0,.32-.22.55-.65.68A13.53,13.53,0,0,0,131.7,119a9.14,9.14,0,0,0-2.81,3,7.39,7.39,0,0,0-1,3.72,4.14,4.14,0,0,0,.59,2.3,4.67,4.67,0,0,0,1.56,1.5,7.78,7.78,0,0,0,2.12.85A14.16,14.16,0,0,0,134.46,130.66Zm1-4.73a1.61,1.61,0,0,1,0,.26.62.62,0,0,1-.65.67l-.69.1a.71.71,0,0,1-.91-.62l-1.25-5a1,1,0,0,1,0-.27c0-.4.22-.62.65-.67l.7-.1a.73.73,0,0,1,.93.63Zm2.64-1.47a1.87,1.87,0,0,1,0,.27c0,.37-.21.59-.62.67l-.7.12a.73.73,0,0,1-.93-.62l-1.23-4.71a.7.7,0,0,1,0-.14.77.77,0,0,1,0-.15c0-.35.22-.56.65-.64l.7-.12a.72.72,0,0,1,.93.62Z" class="cls-2"/><path data-cppathid="10039" d="M154.24,130.58c.52,0,.79.24.79.72s-.27.72-.79.72h-7.35a11.13,11.13,0,0,1-3-.37,5.29,5.29,0,0,1-2.1-1,2,2,0,0,1-.77-1.56,3,3,0,0,1,.41-1.48,6.9,6.9,0,0,1,1.13-1.47.84.84,0,0,1,.62-.29,1,1,0,0,1,.48.12l.7.36a.65.65,0,0,1,.43.55,1.06,1.06,0,0,1-.17.5,3.35,3.35,0,0,0-.38.86,2.77,2.77,0,0,0-.15.85,1.28,1.28,0,0,0,.59,1.2,5,5,0,0,0,2.22.33ZM154,127a.69.69,0,0,1-.7.89l-1.44.12a.73.73,0,0,1-.89-.7l-.74-4.7h-8.12c-.52,0-.79-.24-.79-.72s.27-.72.79-.72H150l-.58-3.6h-7.34c-.53,0-.79-.24-.79-.72s.26-.72.79-.72h7.13l-.17-1.08a.69.69,0,0,1,.7-.89l1.44-.12a.73.73,0,0,1,.88.7l.22,1.39h4c.53,0,.79.24.79.72s-.26.72-.79.72h-3.81l.57,3.6h4.3c.53,0,.79.24.79.72s-.26.72-.79.72H153.3Z" class="cls-2"/><path data-cppathid="10040" d="M177.44,126.94a3.64,3.64,0,0,1-1.13,2.65,7.33,7.33,0,0,1-3.12,1.76,15.14,15.14,0,0,1-4.58.63,16.29,16.29,0,0,1-3.47-.33,6.24,6.24,0,0,1-2.34-.92,1.72,1.72,0,0,1-.84-1.42,2.06,2.06,0,0,1,.83-1.55,6.33,6.33,0,0,1,2.15-1.14,9.13,9.13,0,0,1,2.78-.43,7.1,7.1,0,0,1,3.6.84,4.16,4.16,0,0,1,2,2.38,3.07,3.07,0,0,0,1.08-2.47,4.14,4.14,0,0,0-.56-2.16,3.94,3.94,0,0,0-1.56-1.47,4.88,4.88,0,0,0-2.3-.53,9.3,9.3,0,0,0-3,.52,11.8,11.8,0,0,0-2.88,1.45l-1.54,1.2a1.31,1.31,0,0,1-.81.36,1,1,0,0,1-.8-.43l-.19-.19a.74.74,0,0,1-.24-.53.7.7,0,0,1,.31-.55,9.2,9.2,0,0,1,1.35-.94l9-7.15h-8.79c-.53,0-.79-.23-.79-.7s.26-.69.79-.69h12.34c.45,0,.67.13.67.41a.72.72,0,0,1-.34.55l-6.91,5.42a13.43,13.43,0,0,1,1.75-.12,9.78,9.78,0,0,1,2.9.43,8.29,8.29,0,0,1,2.38,1.19,5.77,5.77,0,0,1,1.62,1.77A4.13,4.13,0,0,1,177.44,126.94ZM165,129.31a1,1,0,0,0,.3.78,2,2,0,0,0,1.07.39,17.68,17.68,0,0,0,2.21.1,13.17,13.17,0,0,0,1.85-.12,1.1,1.1,0,0,1-.07-.31c-.2-1.71-1.08-2.57-2.67-2.57a3.7,3.7,0,0,0-2,.46A1.43,1.43,0,0,0,165,129.31Z" class="cls-2"/><path data-cppathid="10041" d="M194.63,131.78a.78.78,0,0,1-.63.34,1,1,0,0,1-.45-.12l-.72-.34c-.31-.14-.46-.33-.46-.57a1,1,0,0,1,.19-.51,8.26,8.26,0,0,0,.89-1.76,12,12,0,0,0,.6-2.2,13.19,13.19,0,0,0,.22-2.32,9.43,9.43,0,0,0-1.08-4.8,4.71,4.71,0,0,0-3.05-2.33,32.85,32.85,0,0,1,.57,5.71,12.45,12.45,0,0,1-1.38,6.34,4.43,4.43,0,0,1-4.06,2.32,5.14,5.14,0,0,1-2.86-.79,5.28,5.28,0,0,1-1.9-2.17,7.29,7.29,0,0,1-.67-3.18,10.17,10.17,0,0,1,.7-3.79,9.91,9.91,0,0,1,1.93-3.13,9,9,0,0,1,2.86-2.13,8,8,0,0,1,3.46-.77,9.37,9.37,0,0,1,4.56,1,7.08,7.08,0,0,1,3,3,10,10,0,0,1,1,4.67A10.87,10.87,0,0,1,194.63,131.78Zm-11.72-6.38a7.87,7.87,0,0,0,.34,2.34,5,5,0,0,0,.88,1.72,1.5,1.5,0,0,0,1.14.64c.44,0,.84-.33,1.18-1a9.52,9.52,0,0,0,.82-2.7,22.34,22.34,0,0,0,.3-3.84c0-.82,0-1.66-.11-2.52s-.19-1.75-.35-2.64a6.14,6.14,0,0,0-2.12,1.77,9.5,9.5,0,0,0-1.51,2.82A10.2,10.2,0,0,0,182.91,125.4Z" class="cls-2"/><path data-cppathid="10042" d="M213.8,130.66c.51,0,.77.28.77.74s-.27.73-.82.7a17,17,0,0,1-3.78-.6,11.11,11.11,0,0,1-3-1.37,7,7,0,0,1-2-2,4.45,4.45,0,0,1-.73-2.46,7.73,7.73,0,0,1,1.59-4.71,12.59,12.59,0,0,1,4.43-3.61l-10.08.72a.72.72,0,0,1-.86-.82c0-.37.24-.58.72-.62l15.09-1.08a.82.82,0,0,1,.94.62,1.74,1.74,0,0,1,.05.26c0,.32-.22.55-.65.68A13.63,13.63,0,0,0,211,119a9.25,9.25,0,0,0-2.81,3,7.39,7.39,0,0,0-1,3.72,4.22,4.22,0,0,0,.59,2.3,4.67,4.67,0,0,0,1.56,1.5,7.91,7.91,0,0,0,2.12.85A14.16,14.16,0,0,0,213.8,130.66Zm1-4.73a.94.94,0,0,1,0,.26.62.62,0,0,1-.64.67l-.7.1a.71.71,0,0,1-.91-.62l-1.25-5a1.06,1.06,0,0,1,0-.27.62.62,0,0,1,.64-.67l.7-.1a.74.74,0,0,1,.94.63Zm2.64-1.47a1.06,1.06,0,0,1,0,.27c0,.37-.2.59-.62.67l-.7.12a.73.73,0,0,1-.93-.62L214,120.19l0-.14a.76.76,0,0,1,0-.15c0-.35.21-.56.64-.64l.7-.12a.74.74,0,0,1,.94.62Z" class="cls-2"/><path data-cppathid="10043" d="M227,132.46a.76.76,0,0,1,.26.52c0,.23-.15.41-.45.56l-.46.21a.88.88,0,0,1-.43.1.9.9,0,0,1-.67-.31l-4.42-4.44a.76.76,0,0,1-.26-.53c0-.23.15-.41.45-.55l.46-.22a1,1,0,0,1,.43-.1.88.88,0,0,1,.67.32Z" class="cls-2"/><path data-cppathid="10044" d="M246.11,123.46a1,1,0,0,1-.68.33l-.19,0a.65.65,0,0,0-.21-.06l-.75-.32q-.48-.21-.48-.57a.74.74,0,0,1,.24-.53L253.5,112a1,1,0,0,1,.67-.34.78.78,0,0,1,.22,0,.89.89,0,0,1,.19.07l.74.31c.32.15.48.34.48.58l.1.09,9.33,9.58a.89.89,0,0,1,.27.53q0,.36-.48.57l-.7.32a1.25,1.25,0,0,1-.45.12.87.87,0,0,1-.65-.32l-8.86-9.07Zm16,8.23a.7.7,0,0,1-.8.79h-1.48a.68.68,0,0,1-.7-.38h-8.81a.74.74,0,0,1-.72.38h-1.49a.7.7,0,0,1-.79-.79v-7a.7.7,0,0,1,.79-.79h1.49a.74.74,0,0,1,.53.17h11.18a.7.7,0,0,1,.8.79ZM260,121.1c.53,0,.8.24.8.72s-.27.72-.8.72H249.39c-.52,0-.79-.24-.79-.72s.27-.72.79-.72Zm-1,4.4h-8.64v5.16H259Z" class="cls-2"/><path data-cppathid="10045" d="M270.51,122a1,1,0,0,1-.57.21.86.86,0,0,1-.53-.17l-.46-.28c-.27-.18-.4-.36-.4-.56a.73.73,0,0,1,.33-.55l8.76-6.79h-8.49c-.53,0-.8-.24-.8-.72s.27-.72.8-.72H288.2c.53,0,.79.24.79.72s-.26.72-.79.72h-7.46a.86.86,0,0,1-.31.46l-.36.26a1.06,1.06,0,0,1,0,.31v.1l8.16,5.69a.67.67,0,0,1,.36.55.72.72,0,0,1-.36.55l-.4.26a1.12,1.12,0,0,1-.58.2.9.9,0,0,1-.53-.2l-6.65-4.63v5a.7.7,0,0,1-.79.79h-1.49a.7.7,0,0,1-.79-.79V117Zm-.57,1.92a.7.7,0,0,1,.79-.8h1.49a.71.71,0,0,1,.69.36h13.61a.7.7,0,0,1,.79.8v7.58a.7.7,0,0,1-.79.79H285a.67.67,0,0,1-.76-.55H273a.68.68,0,0,1-.77.55h-1.49a.7.7,0,0,1-.79-.79Zm14.3,1H273v5.74h11.23Z" class="cls-2"/><path data-cppathid="10046" d="M306.15,126.74c0,.55-.23.82-.79.82h-1.49a.73.73,0,0,1-.79-.79,9,9,0,0,0-.19-1.42,21.07,21.07,0,0,0-3.94,2c-.94.66-1.41,1.27-1.41,1.81s.32.84,1,1.07a9.64,9.64,0,0,0,3,.35,14,14,0,0,0,6.29-1.35,1.12,1.12,0,0,1,.5-.14.85.85,0,0,1,.58.24l.24.19a.69.69,0,0,1,.31.55.61.61,0,0,1-.43.56,15.26,15.26,0,0,1-2.22.72,25.89,25.89,0,0,1-2.62.49,20,20,0,0,1-2.65.18,15,15,0,0,1-3.53-.39,7.75,7.75,0,0,1-2.56-1,1.79,1.79,0,0,1-1-1.44,2.46,2.46,0,0,1,1-1.69,12.79,12.79,0,0,1,2.74-1.84,37.46,37.46,0,0,1,4.24-1.84,4,4,0,0,0-1.09-1.5,2.25,2.25,0,0,0-1.45-.54,2.61,2.61,0,0,0-1.56.49,4.74,4.74,0,0,0-1.32,1.57.93.93,0,0,1-.53.48l0,0h-.09s0,0,0,0h-.22a.27.27,0,0,1-.12,0l-1.15-.26-.14,0q-.51-.16-.51-.57a1,1,0,0,1,.1-.41l2.35-4.9h-3.69c-.53,0-.8-.24-.8-.72s.27-.72.8-.72h4.39l.86-1.82a.81.81,0,0,1,.77-.53h.12l.12,0,1.22.29c.39.1.58.3.58.6a.83.83,0,0,1-.1.41l-.5,1H308c.53,0,.79.24.79.72s-.26.72-.79.72h-8.3l-1.11,2.31a6.77,6.77,0,0,1,1.28-.12,6.44,6.44,0,0,1,3,.67,5.63,5.63,0,0,1,2.11,1.92c1.21-.4,2.49-.78,3.84-1.13l.17,0h.14a.81.81,0,0,1,.72.48.93.93,0,0,1,.12.39c0,.32-.2.52-.6.62-1.31.35-2.54.72-3.7,1.1A9.13,9.13,0,0,1,306.15,126.74Z" class="cls-2"/><path data-cppathid="10047" d="M18.92,159.74a.7.7,0,0,1-.79.8H16.64a.71.71,0,0,1-.79-.8v-5a.63.63,0,0,1-.19,0l-1.3-.24c-.41-.08-.62-.29-.62-.62a.86.86,0,0,1,.07-.36l3.43-9.05H14.6c-.52,0-.79-.24-.79-.72s.27-.72.79-.72h7.68c.53,0,.8.24.8.72s-.27.72-.8.72h-2a1.27,1.27,0,0,1-.07.36L19,148.15h3.17a.7.7,0,0,1,.79.79v6.84l2.9-6.81-.17,0H24.16a.7.7,0,0,1-.8-.79v-3a.7.7,0,0,1,.8-.79h1.48a.88.88,0,0,1,.51.14h1.58l1.39-3.24a.8.8,0,0,1,.75-.55H30a.21.21,0,0,1,.12,0l1.27.26c.4.1.6.3.6.62a1.08,1.08,0,0,1-.07.36l-1.08,2.52h3.55a.75.75,0,0,1,.6.23.74.74,0,0,1,.12.64l-.41,2.35a.74.74,0,0,1-.86.7l-1.47-.12a.68.68,0,0,1-.67-.89l.24-1.47H30.2l-2,4.78H30.3v0a.59.59,0,0,1,.05-.23,1.71,1.71,0,0,1,.12-.23l.69-1.08a.88.88,0,0,1,.75-.46,1.58,1.58,0,0,1,.29.05l1,.31c.37.13.55.33.55.6a1,1,0,0,1-.14.44l-.39.62h.91c.53,0,.8.24.8.72s-.27.72-.8.72H32.7v1.49h1.08c.53,0,.79.24.79.72s-.26.72-.79.72H32.7v1.49h1.08c.53,0,.79.24.79.72s-.26.72-.79.72H32.7v1.46h1.46c.53,0,.8.24.8.72s-.27.72-.8.72H27.78a.68.68,0,0,1-.74.48H25.55a.7.7,0,0,1-.79-.79V157h-.05l-1.27-.26a.74.74,0,0,1-.53-.34v2.38a.7.7,0,0,1-.79.79H20.63a.68.68,0,0,1-.77-.62h-.94Zm0-10.08v7.88h.92v-7.95h-.92Zm7.52-3.72v1.61l.69-1.61Zm1.39,6.63v1.08h1.8v-1.49h-1.9A.76.76,0,0,1,27.83,152.57Zm0,4h1.8v-1.49h-1.8Zm0,2.9h1.8V158h-1.8Z" class="cls-2"/><path data-cppathid="10048" d="M46.33,160.49a.7.7,0,0,1-.79.79H44.05a.71.71,0,0,1-.69-.36H41.65a.69.69,0,0,1-.79.67H39.37a.7.7,0,0,1-.79-.79v-5.14a.7.7,0,0,1,.79-.79h1.49a.74.74,0,0,1,.67.31h4a.7.7,0,0,1,.79.8Zm-.43-15.58c.53,0,.79.24.79.72s-.26.72-.79.72H39.42c-.53,0-.79-.24-.79-.72s.26-.72.79-.72Zm-.74,3.53c.52,0,.79.24.79.72s-.27.72-.79.72H39.71c-.53,0-.79-.24-.79-.72s.26-.72.79-.72Zm-.08,3.6c.53,0,.8.24.8.72s-.27.72-.8.72H39.8c-.52,0-.79-.24-.79-.72s.27-.72.79-.72Zm-.67-9.53a.73.73,0,0,1,.39.58.69.69,0,0,1-.34.53l-.31.21a.94.94,0,0,1-.58.22,1,1,0,0,1-.53-.17l-2.3-1.46a.7.7,0,0,1-.38-.56.68.68,0,0,1,.36-.55l.31-.21a.91.91,0,0,1,.57-.22,1,1,0,0,1,.53.17Zm-1.15,14.11H41.65v2.86h1.61Zm6.19,3.27a.71.71,0,0,1-.86.69l-.87-.07c-.54,0-.77-.33-.69-.86l.77-5.38a.71.71,0,0,1,.86-.69l.86.07a.76.76,0,0,1,.63.33v-.12a.7.7,0,0,1,.79-.79h.91a.7.7,0,0,1,.79.79v5.6h3V159c0-.33.27-.5.8-.5h.91a.7.7,0,0,1,.79.79v.86a.7.7,0,0,1-.79.8H50.94a.7.7,0,0,1-.79-.8V155Zm1.2-8.14a.74.74,0,0,1-.72.53l-.26,0L48.44,152q-.6-.15-.6-.63a.65.65,0,0,1,0-.19l.06-.19,2-4.51-1.27-.65a.65.65,0,0,1-.43-.58.67.67,0,0,1,.26-.5l.19-.19a.84.84,0,0,1,.63-.29,1,1,0,0,1,.48.14l.86.46,1-2.21H48.42c-.53,0-.79-.24-.79-.72s.26-.72.79-.72h9.84a.68.68,0,0,1,.77.82l-.67,9.79c0,.45-.26.67-.63.67h-.14l-.17,0-2.74-.89c-.36-.12-.55-.32-.55-.57a.72.72,0,0,1,.15-.41l.09-.12q.41-.57.72-.48l.31.12.51-7.44H54.66v0a.9.9,0,0,1,0,.18,1.45,1.45,0,0,1-.08.21l-1.39,3.07,1.71.86A.6.6,0,0,1,55,148.1l-.19.2a.86.86,0,0,1-.62.28.93.93,0,0,1-.48-.14l-1.3-.67Zm4.92,6a.7.7,0,0,1-.79.79h-.91a.7.7,0,0,1-.79-.79v-3.6a.7.7,0,0,1,.79-.79h.91a.7.7,0,0,1,.79.79Zm3.31-1.29a.86.86,0,0,1,0,.26.65.65,0,0,1-.67.7l-.82.12a.72.72,0,0,1-.93-.6l-.72-2.57a1.6,1.6,0,0,1,0-.27c0-.41.22-.64.67-.69l.82-.12a.73.73,0,0,1,.93.6Z" class="cls-2"/><path data-cppathid="10049" d="M75.2,160.82a.83.83,0,0,1-.72.46h-.14l-.17,0L73,160.92c-.36-.1-.55-.29-.55-.58a.79.79,0,0,1,.1-.4,10.35,10.35,0,0,0,.62-3.1,8.21,8.21,0,0,1-3.31.65,6.56,6.56,0,0,1-2.88-.61,4.55,4.55,0,0,1-1.93-1.72,4.75,4.75,0,0,1-.69-2.57,3.55,3.55,0,0,1,.78-2.29,5.06,5.06,0,0,1,2.13-1.51,8.16,8.16,0,0,1,3.07-.54,9.74,9.74,0,0,1,1.6.12,7.23,7.23,0,0,1,1.28.33V146H62.84c-.52,0-.79-.24-.79-.72s.27-.72.79-.72H73.26v-2a.7.7,0,0,1,.79-.79h1.49a.7.7,0,0,1,.79.79v2h3.29c.53,0,.79.24.79.72s-.26.72-.79.72H76.33v6.46a4.36,4.36,0,0,1,0,.72c0,.25,0,.5,0,.74s0,.47,0,.7v.79c0,.81,0,1.53-.09,2.13a8.8,8.8,0,0,1-.34,1.67A7.91,7.91,0,0,1,75.2,160.82Zm-7.72-8.23a4.35,4.35,0,0,0,.64,2.53,2.07,2.07,0,0,0,1.78.93,3.38,3.38,0,0,0,2.22-.71,3.19,3.19,0,0,0,1.07-2,5.43,5.43,0,0,0-.77-2.86,2.45,2.45,0,0,0-2-.79A2.56,2.56,0,0,0,67.48,152.59Z" class="cls-2"/><path data-cppathid="10050" d="M99.44,155.74a3.66,3.66,0,0,1-1.12,2.65,7.45,7.45,0,0,1-3.12,1.76,15.25,15.25,0,0,1-4.59.63,16.29,16.29,0,0,1-3.47-.33,6.24,6.24,0,0,1-2.34-.92,1.72,1.72,0,0,1-.84-1.42,2.06,2.06,0,0,1,.83-1.55,6.33,6.33,0,0,1,2.15-1.14,9.13,9.13,0,0,1,2.78-.43,7.1,7.1,0,0,1,3.6.84,4.12,4.12,0,0,1,2,2.38,3.07,3.07,0,0,0,1.08-2.47,4.14,4.14,0,0,0-.56-2.16,3.94,3.94,0,0,0-1.56-1.47,4.86,4.86,0,0,0-2.29-.53,9.31,9.31,0,0,0-3,.52,11.8,11.8,0,0,0-2.88,1.45l-1.54,1.2a1.29,1.29,0,0,1-.81.36,1,1,0,0,1-.79-.43l-.2-.19a.74.74,0,0,1-.24-.53.69.69,0,0,1,.32-.55,9.09,9.09,0,0,1,1.34-.94l9-7.15H84.44c-.52,0-.79-.23-.79-.7s.27-.69.79-.69H96.78c.45,0,.67.13.67.41a.73.73,0,0,1-.33.55l-6.92,5.42a13.58,13.58,0,0,1,1.76-.12,9.76,9.76,0,0,1,2.89.43,8.49,8.49,0,0,1,2.39,1.19,6,6,0,0,1,1.62,1.77A4.22,4.22,0,0,1,99.44,155.74ZM87,158.11a1,1,0,0,0,.3.78,2,2,0,0,0,1.06.39,17.78,17.78,0,0,0,2.21.1,13.17,13.17,0,0,0,1.85-.12,1.1,1.1,0,0,1-.07-.31c-.19-1.71-1.08-2.57-2.67-2.57a3.67,3.67,0,0,0-2,.46A1.43,1.43,0,0,0,87,158.11Z" class="cls-2"/><path data-cppathid="10051" d="M106.62,159.79a.72.72,0,0,1-.84.75l-1.49-.08a.69.69,0,0,1-.72-.86l1.3-11.76h-2.23c-.53,0-.8-.24-.8-.72s.27-.72.8-.72H105l.28-2.71a.72.72,0,0,1,.84-.75l1.49.08a.69.69,0,0,1,.72.86l-.29,2.52H118c.53,0,.79.24.79.72s-.26.72-.79.72h-10Zm12.82-.86c.52,0,.79.24.79.72s-.27.72-.79.72h-4.25a16.55,16.55,0,0,1-3.16-.27,6.15,6.15,0,0,1-2.16-.76,1.43,1.43,0,0,1-.78-1.18,2.28,2.28,0,0,1,.75-1.51,7.23,7.23,0,0,1,1.82-1.39,1,1,0,0,1,.46-.15.94.94,0,0,1,.64.29l.24.22a.72.72,0,0,1,.27.5.89.89,0,0,1-.34.6,3.35,3.35,0,0,0-.54.7,1.45,1.45,0,0,0-.23.74.58.58,0,0,0,.22.48,1.85,1.85,0,0,0,.88.23c.44,0,1.08.06,1.93.06Zm-2.76-5.31a1.06,1.06,0,0,1-.63.27,1,1,0,0,1-.48-.15l-.57-.31a.62.62,0,0,1-.41-.55.72.72,0,0,1,.31-.55l1.13-1h-5.64c-.53,0-.79-.24-.79-.72s.26-.72.79-.72h9.09c.45,0,.68.14.68.43a.79.79,0,0,1-.32.55Z" class="cls-2"/><path data-cppathid="10052" d="M136.52,161.66a.32.32,0,0,1-.14,0h-.12a.75.75,0,0,1-.74-.53.94.94,0,0,1-.08-.31q0-.43.6-.63a5.35,5.35,0,0,0,2.74-2.14,6.38,6.38,0,0,0,1-3.62,8.31,8.31,0,0,0-.55-3.26,4.26,4.26,0,0,0-1.75-2q-.63,5.72-2.67,8.7a6.3,6.3,0,0,1-5.47,3,5.51,5.51,0,0,1-4.15-1.51,6,6,0,0,1-1.46-4.37q0-5.37,4.24-7.25l-.33-3.19a.69.69,0,0,1,.72-.86l1.49-.07a.71.71,0,0,1,.84.74L131,147a17.89,17.89,0,0,1,2.11-.12c.53,0,1,0,1.51,0,.05-.77.08-1.56.1-2.38a.71.71,0,0,1,.79-.81H137a.71.71,0,0,1,.79.81q0,1.55-.12,2.91a6.76,6.76,0,0,1,5.23,7.05,6.57,6.57,0,0,1-.78,3.18,7.34,7.34,0,0,1-2.2,2.49A9.88,9.88,0,0,1,136.52,161.66Zm-4.6-5.92c0,.54-.2.83-.72.86l-1.49.07a.71.71,0,0,1-.84-.74l-.63-5.93a7.49,7.49,0,0,0-1.41,5,6.65,6.65,0,0,0,.66,3.31,2.06,2.06,0,0,0,1.88,1.13,2.92,2.92,0,0,0,2.27-1.35,12,12,0,0,0,1.79-3.86,30.35,30.35,0,0,0,1-5.88c-.43,0-.89-.07-1.39-.07a10.3,10.3,0,0,0-1.94.17Z" class="cls-2"/><path data-cppathid="10053" d="M149.53,158.5a.75.75,0,0,1,.66.18.83.83,0,0,1,.25.66q0,.53-.72.6l-3.21.33a.68.68,0,0,1-.84-.77V144.24a.7.7,0,0,1,.79-.79H148a.7.7,0,0,1,.79.79v14.33Zm10.83-9.77a.81.81,0,0,1-.7.41l-.16,0-.18,0-1-.31c-.36-.1-.53-.29-.53-.58a.78.78,0,0,1,.17-.48l1.24-1.78h-6.74c-.53,0-.79-.24-.79-.72s.26-.72.79-.72h9.65c.45,0,.67.16.67.48a.85.85,0,0,1-.17.48Zm1.82,10c.53,0,.79.24.79.72s-.26.72-.79.72H158a9.93,9.93,0,0,1-2.93-.41,5.67,5.67,0,0,1-2.11-1.1,2.08,2.08,0,0,1-.8-1.59,5.58,5.58,0,0,1,1.4-2.9.79.79,0,0,1,.69-.41,1.61,1.61,0,0,1,.39.07l.91.36c.32.15.48.34.48.58a1,1,0,0,1-.17.48,5.11,5.11,0,0,0-.46.94,2.7,2.7,0,0,0-.16.88,1.37,1.37,0,0,0,.63,1.26,4.17,4.17,0,0,0,2.13.4Z" class="cls-2"/><path data-cppathid="10054" d="M172,161.09q-.63-.15-.63-.6a.77.77,0,0,1,.07-.29l0,0a.74.74,0,0,1,.72-.53.88.88,0,0,1,.26,0l2,.41V156h-7.56c-.53,0-.79-.24-.79-.72s.26-.72.79-.72h7.56v-.1a1.34,1.34,0,0,1,.41-1l3.21-3H171c-.52,0-.79-.24-.79-.72s.27-.72.79-.72h10.42c.45,0,.67.15.67.45a.77.77,0,0,1-.29.53l-4.27,4v.53h8c.53,0,.8.24.8.72s-.27.72-.8.72h-8v5.33c0,.49-.21.74-.65.74l-.21,0Zm-5.62-15a.7.7,0,0,1,.79-.79h1l-.93-3.07a1,1,0,0,1,0-.14.76.76,0,0,1,0-.15c0-.38.22-.6.65-.65l1.37-.19a.74.74,0,0,1,.93.58l1,3.33a.83.83,0,0,1,0,.15c0,.05,0,.09,0,.14a.47.47,0,0,1,0,.19h3.7l-.91-3.33a.83.83,0,0,1,0-.15.61.61,0,0,1,0-.14c0-.38.22-.6.65-.65L176,141a.75.75,0,0,1,.94.63l.93,3.38a.83.83,0,0,1,0,.15.61.61,0,0,1,0,.14.59.59,0,0,1,0,.14h2.83v-.12a1.14,1.14,0,0,1,.07-.38l1.39-3.41a.77.77,0,0,1,1-.55l1.27.24q.6.12.6.6a1.14,1.14,0,0,1-.07.38l-1.32,3.24h2.62c.49,0,.74.21.74.63a.53.53,0,0,1,0,.13.93.93,0,0,1,0,.13l-.72,2.88a.77.77,0,0,1-.91.65l-1.39-.17c-.45-.05-.67-.27-.67-.67a1.44,1.44,0,0,1,0-.24l.48-1.9H169.45V149a.7.7,0,0,1-.79.79h-1.49a.7.7,0,0,1-.79-.79Z" class="cls-2"/><path data-cppathid="10055" d="M191.82,157a.74.74,0,0,1-.72.53l-.26,0-1.23-.24q-.6-.15-.6-.63a.43.43,0,0,1,0-.19l.06-.19,3.72-8.35h-2.62c-.53,0-.79-.24-.79-.72s.26-.72.79-.72h2.93v-5.36a.7.7,0,0,1,.79-.79h1.49a.7.7,0,0,1,.79.79v5.36h1c.53,0,.79.24.79.72s-.26.72-.79.72h-1v2.2l1.73,1.42a.86.86,0,0,1,.29.38l3.07-4.84a.86.86,0,0,1,.74-.44,1.57,1.57,0,0,1,.32.05l1,.31c.37.13.55.32.55.58a.68.68,0,0,1-.05.22,1.34,1.34,0,0,1-.12.24l-3.29,5.16a.78.78,0,0,1-.72.4h-.15l-.18,0-1-.32c-.37-.12-.55-.32-.55-.57v-.05l0,0-.52.29a1,1,0,0,1-.51.15.88.88,0,0,1-.6-.24V161a.7.7,0,0,1-.79.79h-1.49a.7.7,0,0,1-.79-.79V154.1Zm14.38-12.79v.07h4c.52,0,.79.24.79.72s-.27.72-.79.72h-11c-.53,0-.79-.24-.79-.72s.26-.72.79-.72h4v-3.24a.7.7,0,0,1,.8-.79h1.48a.7.7,0,0,1,.8.79ZM201.44,161a.87.87,0,0,1-.64.31,1.25,1.25,0,0,1-.46-.12l-.7-.31c-.32-.15-.48-.34-.48-.58a.91.91,0,0,1,.27-.53l3-3.07-2.11-2.14a.88.88,0,0,1-.27-.55c0-.22.15-.41.46-.55l.67-.31a1.25,1.25,0,0,1,.46-.12.84.84,0,0,1,.64.31l1.73,1.73,1.78-1.83a.89.89,0,0,1,.65-.31,1.25,1.25,0,0,1,.45.12l.7.31c.32.15.48.34.48.58a.91.91,0,0,1-.27.53l-2.18,2.23,3,3.07a.94.94,0,0,1,.26.55c0,.23-.15.41-.45.56l-.68.31a1.25,1.25,0,0,1-.45.12.89.89,0,0,1-.65-.31L204,158.35Zm9.32-8.84a.92.92,0,0,1,.19.48c0,.28-.18.48-.53.6l-1,.34a.86.86,0,0,1-.36.07.84.84,0,0,1-.7-.41l-3.76-5.16a.82.82,0,0,1-.2-.48c0-.27.18-.47.53-.6l1-.33a1,1,0,0,1,.36-.07.84.84,0,0,1,.7.4Z" class="cls-2"/><path data-cppathid="10056" d="M217.24,158.5a.75.75,0,0,1,.66.18.87.87,0,0,1,.25.66q0,.53-.72.6l-3.22.33a.68.68,0,0,1-.84-.77V144.24a.7.7,0,0,1,.79-.79h1.49a.7.7,0,0,1,.79.79v14.33Zm10.82-9.77a.81.81,0,0,1-.7.41l-.15,0-.18,0-1-.31c-.35-.1-.53-.29-.53-.58a.85.85,0,0,1,.17-.48l1.25-1.78h-6.75c-.52,0-.79-.24-.79-.72s.27-.72.79-.72h9.65c.45,0,.67.16.67.48a.84.84,0,0,1-.16.48Zm1.82,10c.53,0,.8.24.8.72s-.27.72-.8.72h-4.22a10,10,0,0,1-2.93-.41,5.75,5.75,0,0,1-2.11-1.1,2.07,2.07,0,0,1-.79-1.59,5.54,5.54,0,0,1,1.39-2.9.81.81,0,0,1,.7-.41,1.47,1.47,0,0,1,.38.07l.91.36c.32.15.48.34.48.58a.87.87,0,0,1-.17.48,4.5,4.5,0,0,0-.45.94,2.73,2.73,0,0,0-.17.88,1.36,1.36,0,0,0,.64,1.26,4.12,4.12,0,0,0,2.12.4Z" class="cls-2"/><path data-cppathid="10057" d="M235.38,154.34a.92.92,0,0,1-.58.27.69.69,0,0,1-.24-.05l-.26-.12-.53-.29a.73.73,0,0,1-.41-.57.69.69,0,0,1,.29-.53l7-6a.92.92,0,0,1,.58-.27.69.69,0,0,1,.24,0l.26.12.53.29a.73.73,0,0,1,.41.57.73.73,0,0,1-.29.53l-2.31,2a.8.8,0,0,1,.15.5v10.28a.7.7,0,0,1-.79.79H238a.7.7,0,0,1-.79-.79v-8.31Zm.67-6.5a.86.86,0,0,1-.65.31,1,1,0,0,1-.43-.09l-.74-.34c-.32-.14-.48-.34-.48-.58a.71.71,0,0,1,.24-.5l5.57-5.93a.84.84,0,0,1,.64-.31.92.92,0,0,1,.44.1l.74.33c.32.15.48.34.48.58a.71.71,0,0,1-.24.5ZM247,161c-.54-.05-.76-.32-.67-.82a.78.78,0,0,1,.91-.65l1.92.22V149.5h-4.56c-.52,0-.79-.24-.79-.72s.27-.72.79-.72h8.84c.52,0,.79.24.79.72s-.27.72-.79.72h-1.2v11.2a.68.68,0,0,1-.84.77Zm5.86-19.76c.53,0,.79.24.79.72s-.26.72-.79.72h-7.66c-.52,0-.79-.24-.79-.72s.27-.72.79-.72Z" class="cls-2"/><path data-cppathid="10058" d="M260.41,160.63a.75.75,0,0,1-1,.55l-1.27-.24q-.6-.12-.6-.6a1.14,1.14,0,0,1,.07-.38l4.85-11.78h-4.25c-.53,0-.79-.24-.79-.72s.26-.72.79-.72h4.83l1.17-2.86a.77.77,0,0,1,1-.55l1.27.24q.6.12.6.6a1.14,1.14,0,0,1-.07.38l-.89,2.19h0a5.31,5.31,0,0,1,3.72,1.14,4.57,4.57,0,0,1,1.22,3.49,16.6,16.6,0,0,1-.3,3.37,11,11,0,0,1-.8,2.47,13.27,13.27,0,0,1-1.07,1.85c-.38.54-.75,1-1.12,1.52a.79.79,0,0,1-.67.41,1,1,0,0,1-.36-.07l-1-.31c-.35-.1-.53-.29-.53-.58a.82.82,0,0,1,.17-.45c.38-.52.77-1.1,1.17-1.77a9.72,9.72,0,0,0,1-2.53,15.66,15.66,0,0,0,.41-3.91,5.43,5.43,0,0,0-.41-2.49,1.54,1.54,0,0,0-1.46-.7h-.63Zm16.73-5.06a1.5,1.5,0,0,1,.05.31c0,.37-.22.58-.65.62l-1.37.2a.77.77,0,0,1-.93-.58L271,145.66a1.57,1.57,0,0,1,0-.32c0-.36.22-.57.65-.62l1.37-.19h.11l.08,0a.72.72,0,0,1,.74.6Z" class="cls-2"/><path data-cppathid="10059" d="M283.38,154.9a.75.75,0,0,1-.94.62l-1.39-.17c-.45,0-.67-.27-.67-.67a.86.86,0,0,1,.05-.26l1.8-6.6h-1.49c-.53,0-.79-.24-.79-.72s.26-.72.79-.72h1.87l.94-3.41a.74.74,0,0,1,.93-.63l1.39.17c.45.05.68.27.68.67a1.6,1.6,0,0,1-.05.27l-.79,2.93h2.06c.53,0,.79.24.79.72s-.26.72-.79.72H285.3Zm13.39,2.3a.74.74,0,0,1,.27.5c0,.26-.17.45-.51.58l-.79.31a.94.94,0,0,1-.39.07,1,1,0,0,1-.69-.33A12.75,12.75,0,0,0,293.1,157v.29a3.46,3.46,0,0,1-1.25,2.85,5.27,5.27,0,0,1-3.43,1,6.68,6.68,0,0,1-2.66-.51,4.82,4.82,0,0,1-1.93-1.43,3.31,3.31,0,0,1-.72-2.11,2.68,2.68,0,0,1,.7-1.82,4.54,4.54,0,0,1,1.93-1.21,8.82,8.82,0,0,1,4.29-.29v-4.32a.7.7,0,0,1,.79-.79h1.49a.7.7,0,0,1,.79.79v5.36a14.77,14.77,0,0,1,2.07,1.2A15.34,15.34,0,0,1,296.77,157.2Zm-10.58-.14a3.83,3.83,0,0,0,.19,1.18,2.1,2.1,0,0,0,.68,1,2,2,0,0,0,1.36.41,1.38,1.38,0,0,0,1.22-.53,3.32,3.32,0,0,0,.39-1.89V155.3a5,5,0,0,0-1.47-.26,2.79,2.79,0,0,0-1.84.46A1.93,1.93,0,0,0,286.19,157.06Zm11.64-7.76a.92.92,0,0,1,.19.48c0,.28-.18.48-.53.6l-1,.34a.86.86,0,0,1-.36.07.81.81,0,0,1-.69-.41l-3.41-4.72a.87.87,0,0,1-.2-.48c0-.28.18-.48.53-.6l1-.34a1,1,0,0,1,.36-.07.83.83,0,0,1,.7.41Z" class="cls-2"/><path data-cppathid="10060" d="M313.35,159.48a.67.67,0,0,1,.36.55.71.71,0,0,1-.36.55l-.38.27a.78.78,0,0,1-.55.19.9.9,0,0,1-.55-.19l-10-6.89a.72.72,0,0,1-.36-.55.82.82,0,0,1,.32-.58l10.36-9a.86.86,0,0,1,1.11-.12l.57.31a.72.72,0,0,1,.41.58.7.7,0,0,1-.29.52l-9.5,8.24Z" class="cls-2"/><path data-cppathid="10061" d="M331.5,159.46c.51,0,.77.28.77.74s-.28.73-.82.7a17,17,0,0,1-3.78-.6,11.32,11.32,0,0,1-3-1.37,6.91,6.91,0,0,1-2-2,4.46,4.46,0,0,1-.74-2.46,7.75,7.75,0,0,1,1.6-4.71,12.5,12.5,0,0,1,4.43-3.61l-10.08.72A.72.72,0,0,1,317,146c0-.37.24-.58.72-.62l15.1-1.08a.83.83,0,0,1,.94.62,1.35,1.35,0,0,1,0,.26c0,.32-.21.55-.64.68a13.53,13.53,0,0,0-4.37,1.89,9.14,9.14,0,0,0-2.81,3,7.29,7.29,0,0,0-1,3.72,4.22,4.22,0,0,0,.58,2.3,4.87,4.87,0,0,0,1.56,1.5,8,8,0,0,0,2.13.85A14.16,14.16,0,0,0,331.5,159.46Z" class="cls-2"/><path data-cppathid="10062" d="M27.2,189.62a.83.83,0,0,1-.72.46h-.14l-.17,0L25,189.72c-.36-.1-.55-.29-.55-.58a.82.82,0,0,1,.1-.4,10.29,10.29,0,0,0,.62-3.1,8.21,8.21,0,0,1-3.31.65,6.56,6.56,0,0,1-2.88-.61A4.55,4.55,0,0,1,17.09,184a4.73,4.73,0,0,1-.69-2.57,3.55,3.55,0,0,1,.78-2.29,5.06,5.06,0,0,1,2.13-1.51,8.16,8.16,0,0,1,3.07-.54,9.74,9.74,0,0,1,1.6.12,7.23,7.23,0,0,1,1.28.33v-2.66H14.84c-.52,0-.79-.24-.79-.72s.27-.72.79-.72H25.26v-2a.7.7,0,0,1,.79-.79h1.49a.7.7,0,0,1,.79.79v2h3.29c.53,0,.79.24.79.72s-.26.72-.79.72H28.33v6.46a4.36,4.36,0,0,1,0,.72c0,.25,0,.5,0,.74s0,.47,0,.7v.79q0,1.23-.09,2.13a8.8,8.8,0,0,1-.34,1.67A7.91,7.91,0,0,1,27.2,189.62Zm-7.72-8.23a4.35,4.35,0,0,0,.64,2.53,2.07,2.07,0,0,0,1.78.93,3.38,3.38,0,0,0,2.22-.71,3.19,3.19,0,0,0,1.07-2,5.43,5.43,0,0,0-.77-2.86,2.45,2.45,0,0,0-2-.79A2.56,2.56,0,0,0,19.48,181.39Z" class="cls-2"/><path data-cppathid="10063" d="M47.17,189.87a.87.87,0,0,1-.62.31,1.3,1.3,0,0,1-.46-.12l-.72-.36a.65.65,0,0,1-.43-.58.76.76,0,0,1,.22-.5,11.17,11.17,0,0,0,1.9-3.25,18.64,18.64,0,0,0,1-4.5,3.28,3.28,0,0,0-1.25-.3c-.45,0-1,0-1.75,0H45a14.69,14.69,0,0,1-1.76,6.24,4.39,4.39,0,0,1-4,2.06,4.1,4.1,0,0,1-2.3-.65,4.51,4.51,0,0,1-1.6-1.75,5.12,5.12,0,0,1-.59-2.44,3.64,3.64,0,0,1,1.91-3.16,12.59,12.59,0,0,1,5.32-1.6q.09-1.2.15-2.58t.09-2.91h-4.9c-.53,0-.79-.24-.79-.72s.26-.72.79-.72h7.18a.71.71,0,0,1,.79.81c0,1.12,0,2.18,0,3.17s-.07,1.93-.13,2.81c.62,0,1.19,0,1.69,0a12.53,12.53,0,0,1,1.38.16c.07-.86.11-1.8.12-2.8a.71.71,0,0,1,.79-.82h1.49c.53,0,.79.41.79,1.23,0,1.37-.1,2.59-.21,3.67q.41.28.84.63c.29.24.59.5.91.81a.81.81,0,0,1,.29.55.65.65,0,0,1-.43.55l-.65.31a1,1,0,0,1-.46.12.87.87,0,0,1-.65-.31,2.72,2.72,0,0,1-.24-.24,13.76,13.76,0,0,1-1.34,3.76A14.68,14.68,0,0,1,47.17,189.87ZM37.88,184a5,5,0,0,0,.26,1.55,5.7,5.7,0,0,0,.58,1.33c.23.35.42.52.58.52.56,0,1.07-.56,1.52-1.69a19.86,19.86,0,0,0,1.07-5,6,6,0,0,0-3.07,1.08A2.74,2.74,0,0,0,37.88,184Z" class="cls-2"/><path data-cppathid="10064" d="M74.2,183.77c.35.13.52.31.52.55a.69.69,0,0,1-.24.46l-.16.17a1,1,0,0,1-.68.31.72.72,0,0,1-.19,0l-.21-.06a16.26,16.26,0,0,0-1.66-.54c-.62-.17-1.28-.31-2-.44v1.7a3.39,3.39,0,0,1-1.57,3,7.67,7.67,0,0,1-4.31,1,10,10,0,0,1-3.42-.55,6,6,0,0,1-2.41-1.51,3.11,3.11,0,0,1-.89-2.16,2.52,2.52,0,0,1,.87-1.91,5.82,5.82,0,0,1,2.41-1.25,13.36,13.36,0,0,1,3.61-.44l1.28,0c.44,0,.9.06,1.36.11v-2.3h-8.4c-.53,0-.79-.24-.79-.72s.26-.72.79-.72h8.4v-2.64h-8.4c-.53,0-.79-.24-.79-.72s.26-.72.79-.72h8.4v-2a.7.7,0,0,1,.79-.79h1.49a.7.7,0,0,1,.79.79v2h3.84c.53,0,.79.24.79.72s-.26.72-.79.72H69.61v2.64h3.84c.53,0,.79.24.79.72s-.26.72-.79.72H69.61v2.73c.9.16,1.75.34,2.55.53S73.64,183.58,74.2,183.77Zm-14.12,1.92q0,2.77,3.65,2.78a3.31,3.31,0,0,0,2.2-.56,2.69,2.69,0,0,0,.61-2V183.7a21.77,21.77,0,0,0-2.64-.17,8.77,8.77,0,0,0-2.45.26,1.86,1.86,0,0,0-1.09.75A2.3,2.3,0,0,0,60.08,185.69Z" class="cls-2"/><path data-cppathid="10065" d="M91,189.62a.83.83,0,0,1-.72.46h-.15l-.16,0-1.13-.31c-.37-.1-.55-.29-.55-.58a.93.93,0,0,1,.09-.4,10,10,0,0,0,.63-3.1,8.3,8.3,0,0,1-3.32.65,6.62,6.62,0,0,1-2.88-.61A4.61,4.61,0,0,1,80.83,184a4.81,4.81,0,0,1-.68-2.57,3.55,3.55,0,0,1,.78-2.29,5.09,5.09,0,0,1,2.12-1.51,8.2,8.2,0,0,1,3.07-.54,9.57,9.57,0,0,1,1.6.12,7.23,7.23,0,0,1,1.28.33v-2.66H78.59c-.53,0-.79-.24-.79-.72s.26-.72.79-.72H89v-2a.7.7,0,0,1,.8-.79h1.48a.7.7,0,0,1,.8.79v2h3.28c.53,0,.8.24.8.72s-.27.72-.8.72H92.08v6.46a5.81,5.81,0,0,1,0,.72c0,.25,0,.5,0,.74s0,.47,0,.7v.79c0,.82,0,1.53-.1,2.13a8.08,8.08,0,0,1-.34,1.67A8.45,8.45,0,0,1,91,189.62Zm-7.73-8.23a4.34,4.34,0,0,0,.65,2.53,2,2,0,0,0,1.77.93,3.34,3.34,0,0,0,2.22-.71,3.14,3.14,0,0,0,1.07-2,5.34,5.34,0,0,0-.77-2.86,2.42,2.42,0,0,0-2-.79A2.57,2.57,0,0,0,83.22,181.39Z" class="cls-2"/><path data-cppathid="10066" d="M103.12,189.79a5.15,5.15,0,0,1-2.22-.48A4.21,4.21,0,0,1,99.26,188a3.15,3.15,0,0,1-.61-1.87,3.09,3.09,0,0,1,.61-1.86A4.28,4.28,0,0,1,100.9,183a5.15,5.15,0,0,1,2.22-.48,5,5,0,0,1,2.2.48,4.14,4.14,0,0,1,1.62,1.31,3.1,3.1,0,0,1,0,3.72,4.25,4.25,0,0,1-1.62,1.32A4.9,4.9,0,0,1,103.12,189.79Zm0-1.2a2,2,0,0,0,1.5-.72,2.56,2.56,0,0,0,.63-1.75,2.52,2.52,0,0,0-.63-1.74,2,2,0,0,0-1.5-.71,2,2,0,0,0-1.53.7,2.51,2.51,0,0,0-.63,1.75,2.56,2.56,0,0,0,.63,1.75A2,2,0,0,0,103.12,188.59Z" class="cls-2"/><path data-cppathid="10067" d="M73,39a1.11,1.11,0,0,1-.8.39,1.38,1.38,0,0,1-.64-.2l-.86-.41a.88.88,0,0,1-.58-.77,1,1,0,0,1,.36-.7L82.79,25.54a1.11,1.11,0,0,1,.8-.39,1.26,1.26,0,0,1,.64.2l.86.41a.86.86,0,0,1,.58.77v0l0,0L96.8,37.06a1,1,0,0,1,.36.7.88.88,0,0,1-.58.77l-.86.42a1.91,1.91,0,0,1-.64.16,1.08,1.08,0,0,1-.8-.36l-10.6-10ZM84.39,53.12a1.23,1.23,0,0,1-.87.42,1.85,1.85,0,0,1-.57-.16l-.9-.42a.88.88,0,0,1-.61-.77,1,1,0,0,1,.36-.7l8.09-8.1H73.22c-.7,0-1.06-.32-1.06-1s.36-1,1.06-1h21c.6,0,.9.21.9.61a1,1,0,0,1-.35.7Zm6.4-15.77q1,0,1,1t-1,1H76.36c-.71,0-1.06-.32-1.06-1s.35-1,1.06-1Z" class="cls-2"/><path data-cppathid="10068" d="M110.08,53c-.55-.12-.83-.39-.83-.8a.8.8,0,0,1,.1-.38l0-.07a1,1,0,0,1,1-.7,1.56,1.56,0,0,1,.35,0l2.63.55V46.21H103.24c-.71,0-1.06-.32-1.06-1s.35-1,1.06-1h10.08v-.13a1.79,1.79,0,0,1,.54-1.31l4.29-4h-9.44c-.71,0-1.06-.32-1.06-1s.35-1,1.06-1H122.6c.59,0,.89.2.89.61a1.09,1.09,0,0,1-.38.7l-5.7,5.38v.7h10.66q1.05,0,1.05,1t-1.05,1H117.41v7.1c0,.66-.29,1-.86,1a1,1,0,0,1-.29,0ZM102.6,33a.93.93,0,0,1,1.05-1.05H105l-1.25-4.1a1.8,1.8,0,0,1,0-.19,1.28,1.28,0,0,1,0-.19c0-.52.28-.8.86-.87l1.82-.25a1,1,0,0,1,1.25.76L109,31.52a1.62,1.62,0,0,1,0,.19,1.36,1.36,0,0,1,0,.2.85.85,0,0,1,0,.25H114l-1.22-4.45a1.05,1.05,0,0,1,0-.19,1.21,1.21,0,0,1,0-.19c0-.51.28-.8.86-.86l1.86-.23a1,1,0,0,1,1.24.83l1.25,4.52a1.05,1.05,0,0,1,0,.19,1.23,1.23,0,0,1,0,.19.43.43,0,0,1,0,.19h3.78V32a1.48,1.48,0,0,1,.1-.51L123.65,27a1,1,0,0,1,1.28-.74l1.7.32c.53.11.8.37.8.8a1.48,1.48,0,0,1-.1.51l-1.76,4.32h3.49c.66,0,1,.28,1,.83a1,1,0,0,1,0,.18s0,.11,0,.18l-1,3.84a1,1,0,0,1-1.22.86L126,37.82c-.6-.06-.9-.36-.9-.89a1.45,1.45,0,0,1,0-.32l.64-2.53h-19v2.79a.93.93,0,0,1-1,1.05h-2a.93.93,0,0,1-1.05-1.05Z" class="cls-2"/><path data-cppathid="10069" d="M145.89,44.55v.09h.55q1,0,1.05,1t-1.05,1H134.76c-.71,0-1.06-.32-1.06-1s.35-1,1.06-1h.51V32.29H135c-.71,0-1.06-.32-1.06-1s.35-1,1.06-1h.32V26.91a.93.93,0,0,1,1-1.05h2a.93.93,0,0,1,1.05,1.05v3.46h2.44V26.91a.93.93,0,0,1,1-1.05h2a.93.93,0,0,1,1,1.05v3.46h.32c.71,0,1.06.32,1.06,1s-.35,1-1.06,1h-.32Zm-8.16,8.22a1,1,0,0,1-1,.74h-.16a.38.38,0,0,1-.16,0l-1.7-.35c-.53-.11-.8-.37-.8-.8a1.76,1.76,0,0,1,.1-.51l1.57-3.68a1,1,0,0,1,1-.7,1.62,1.62,0,0,1,.35,0l1.7.35c.53.11.8.37.8.8a1.76,1.76,0,0,1-.1.51Zm1.63-17.92h2.44V32.29h-2.44Zm0,4.64h2.44V36.77h-2.44Zm0,5.06v.09h2.44V41.41h-2.44Zm7.3,5.53a1.14,1.14,0,0,1,.13.55c0,.4-.26.67-.77.8l-1.63.35a1.62,1.62,0,0,1-.35,0,1,1,0,0,1-1-.67l-1-2a1.25,1.25,0,0,1-.12-.54c0-.41.25-.67.76-.8l1.64-.38a.25.25,0,0,1,.16,0h.16a1.06,1.06,0,0,1,1,.71Zm4.86,3q0,1-1.08,1l-2,0a.91.91,0,0,1-1-1.09l1.21-26a1,1,0,0,1,1.09-1l2,0a.92.92,0,0,1,1,.58h7a.93.93,0,0,1,1.06,1.05V52.74c0,.74-.36,1.08-1.09,1l-5.09-.38c-.64-.07-1-.35-1-.87a1.08,1.08,0,0,1,.34-.84,1,1,0,0,1,.85-.24l1.85.16V45.54h-4.76Zm.45-9.41h4.67V37.35h-4.38Zm4.67-15.2h-4l-.32,7h4.28Z" class="cls-2"/><path data-cppathid="10070" d="M185,52.32a1,1,0,0,1-.83.45,1.35,1.35,0,0,1-.61-.16l-1-.45a.87.87,0,0,1-.6-.77,1.39,1.39,0,0,1,.25-.67,11.45,11.45,0,0,0,1.19-2.35,17.91,17.91,0,0,0,.8-2.93,17.26,17.26,0,0,0,.28-3.1,12.56,12.56,0,0,0-1.44-6.4A6.29,6.29,0,0,0,179,32.83a43.64,43.64,0,0,1,.77,7.62,16.63,16.63,0,0,1-1.84,8.45,5.94,5.94,0,0,1-5.43,3.1,6.84,6.84,0,0,1-3.8-1,7.07,7.07,0,0,1-2.53-2.9,9.54,9.54,0,0,1-.9-4.24,13.74,13.74,0,0,1,.93-5.06,13.29,13.29,0,0,1,2.58-4.17,12.1,12.1,0,0,1,3.8-2.84,10.73,10.73,0,0,1,4.63-1,12.67,12.67,0,0,1,6.08,1.39,9.48,9.48,0,0,1,3.93,4,13.17,13.17,0,0,1,1.38,6.23A14.49,14.49,0,0,1,185,52.32Zm-15.61-8.51a10.32,10.32,0,0,0,.45,3.12A6.55,6.55,0,0,0,171,49.22a2,2,0,0,0,1.52.86c.6,0,1.13-.44,1.59-1.33a12.75,12.75,0,0,0,1.09-3.6,30.33,30.33,0,0,0,.4-5.12c0-1.08-.05-2.21-.15-3.36s-.25-2.32-.46-3.52a8.25,8.25,0,0,0-2.83,2.37,12.64,12.64,0,0,0-2,3.76A13.71,13.71,0,0,0,169.35,43.81Z" class="cls-2"/><path data-cppathid="10071" d="M196.68,52.35a1,1,0,0,1-1.09,1l-2,0a.9.9,0,0,1-1-1.08l.9-19.62a1.34,1.34,0,0,1,.19-.64.81.81,0,0,1-.16-.54c0-.65.35-1,1.06-1h11.45L205,27.2a1.52,1.52,0,0,1-.07-.42c0-.49.29-.76.87-.83l1.79-.25.14,0h.11a1,1,0,0,1,1,.8l1.28,4H219c.7,0,1.05.31,1.05,1s-.35,1-1.05,1h-8.23l2.76,8.54,2.91-4.67a1.1,1.1,0,0,1,1-.61,1.91,1.91,0,0,1,.41.06l1.38.42c.49.17.74.44.74.8a1.33,1.33,0,0,1-.2.58l-4.83,7.71,1.6,5,1.83-.48a2.06,2.06,0,0,1,.35-.07,1.09,1.09,0,0,1,1,.68,1.16,1.16,0,0,1,.16.51c0,.42-.26.7-.77.83l-4.7,1.22-.19,0H214a1,1,0,0,1-1-.77l-.84-2.59-1.72,2.78a1.12,1.12,0,0,1-1,.61,1.91,1.91,0,0,1-.42-.06l-1.38-.42c-.49-.17-.73-.44-.73-.8a1.16,1.16,0,0,1,.19-.58l3.65-5.82-4.13-12.86h-9.12a1.83,1.83,0,0,1,0,.35l-.25,5.5h7.74c.73,0,1.06.36,1,1.09l-1,12.54c-.06.62-.35.93-.86.93a1.84,1.84,0,0,1-.36-.06l-5.05-1.25c-.54-.13-.8-.38-.8-.77a.4.4,0,0,1,0-.22c0-.07.05-.14.08-.23l0-.09a1.07,1.07,0,0,1,1-.67h.19l.19,0,1.6.38.8-9.79h-4.7Zm21-24.51a1,1,0,0,1,.54.77,1,1,0,0,1-.38.7l-.32.26a1.33,1.33,0,0,1-.83.35,1.28,1.28,0,0,1-.61-.19l-3.91-2.14a1,1,0,0,1-.54-.77.94.94,0,0,1,.38-.71l.32-.25a1.28,1.28,0,0,1,.84-.35,1.14,1.14,0,0,1,.6.19Z" class="cls-2"/><path data-cppathid="10072" d="M227.2,51.14a1,1,0,0,1-1.15,1L225,52a.9.9,0,0,1-1-1.12l.41-4.86a1,1,0,0,1,1.16-1l1,.06a.91.91,0,0,1,1,1.12Zm5.57,1.37a.93.93,0,0,1-1.05,1.06h-2a.93.93,0,0,1-1-1.06V43.3l-3.52.29c-.64,0-1-.16-1-.61a1.08,1.08,0,0,1,.22-.64l2.94-4.58-.06-.09-2.69-3.59a1.26,1.26,0,0,1-.29-.73,1.08,1.08,0,0,1,.29-.74l5.12-6.72a1.12,1.12,0,0,1,.9-.51,1.72,1.72,0,0,1,.51.09l1.22.42c.44.15.67.4.67.77a1.16,1.16,0,0,1-.26.64l-4.57,6.05,1.08,1.43L230.44,33a1.14,1.14,0,0,1,1-.57,1.91,1.91,0,0,1,.41.06l1.38.42c.49.17.74.42.74.77a.82.82,0,0,1-.07.28,1.37,1.37,0,0,1-.16.32l-4.54,7.08,3.9-.32-.54-2.21a1.45,1.45,0,0,1,0-.32.84.84,0,0,1,.86-.93l.93-.13a1,1,0,0,1,1.21.83l1.19,4.9a1.39,1.39,0,0,1,0,.32.86.86,0,0,1-.86.93l-.93.13a1,1,0,0,1-1.22-.84l-.19-.76h-.1l-.73.06a1.08,1.08,0,0,1,.06.38Zm4.55-2.11c.06.71-.27,1.08-1,1.12l-1,.07a.94.94,0,0,1-1.12-1l-.42-4a1.12,1.12,0,0,1,.23-.82,1,1,0,0,1,.77-.34l1-.06a.94.94,0,0,1,1.12,1Zm9-15.39v.1h4.64q1.05,0,1.05,1t-1.05,1H237.64c-.71,0-1.06-.32-1.06-1s.35-1,1.06-1h4.54V33.76h-3c-.7,0-1.06-.32-1.06-1s.36-1,1.06-1h3V30h-3.84c-.7,0-1.06-.32-1.06-1s.36-1,1.06-1h3.84V27A.94.94,0,0,1,243.24,26h2A.94.94,0,0,1,246.28,27v1h3.87q1,0,1,1t-1,1h-3.87v1.89h3.1c.7,0,1.06.32,1.06,1s-.36,1-1.06,1h-3.1Zm-8.55,3.84a.94.94,0,0,1,1.06-1.06h2a1.24,1.24,0,0,1,.64.16h8.8A.94.94,0,0,1,251.27,39v9.92A.94.94,0,0,1,250.21,50h-2a1.15,1.15,0,0,1-.64-.17h-6.18a1.15,1.15,0,0,1-.64.17h-2a.94.94,0,0,1-1.06-1.06Zm2.05,14.69a1.34,1.34,0,0,1-.58.13,1.15,1.15,0,0,1-.86-.42l-.16-.16a1,1,0,0,1-.35-.67c0-.32.21-.58.64-.77l2.78-1.25a1.34,1.34,0,0,1,.58-.13,1.13,1.13,0,0,1,.86.42l.16.16a1,1,0,0,1,.35.67c0,.32-.21.58-.64.77Zm7.39-13.67h-5.34v1.32h5.34Zm-5.34,4.74h5.34v-1.5h-5.34Zm0,3.3h5.34V46.53h-5.34Zm9,3.87c.43.19.64.45.64.77a1.07,1.07,0,0,1-.28.64l-.23.22a1.3,1.3,0,0,1-.89.45,1.27,1.27,0,0,1-.55-.13l-3.2-1.41c-.42-.19-.64-.45-.64-.77a1,1,0,0,1,.29-.64l.22-.22a1.3,1.3,0,0,1,.9-.45,1.13,1.13,0,0,1,.54.13Z" class="cls-2"/><path data-cppathid="10073" d="M275.49,52.32a1,1,0,0,1-.83.45,1.35,1.35,0,0,1-.61-.16l-1-.45a.88.88,0,0,1-.61-.77,1.43,1.43,0,0,1,.26-.67,11,11,0,0,0,1.18-2.35,16.11,16.11,0,0,0,.8-2.93,16.42,16.42,0,0,0,.29-3.1,12.56,12.56,0,0,0-1.44-6.4,6.29,6.29,0,0,0-4.06-3.11,43.64,43.64,0,0,1,.77,7.62,16.63,16.63,0,0,1-1.84,8.45A5.94,5.94,0,0,1,263,52a6.9,6.9,0,0,1-3.81-1,7.05,7.05,0,0,1-2.52-2.9,9.54,9.54,0,0,1-.9-4.24,13.74,13.74,0,0,1,.93-5.06,13.27,13.27,0,0,1,2.57-4.17,12.25,12.25,0,0,1,3.81-2.84,10.7,10.7,0,0,1,4.63-1,12.67,12.67,0,0,1,6.08,1.39,9.54,9.54,0,0,1,3.93,4,13.17,13.17,0,0,1,1.38,6.23A14.49,14.49,0,0,1,275.49,52.32Zm-15.61-8.51a10.64,10.64,0,0,0,.44,3.12,6.73,6.73,0,0,0,1.17,2.29,2,2,0,0,0,1.52.86c.6,0,1.13-.44,1.59-1.33a12.78,12.78,0,0,0,1.08-3.6,29.32,29.32,0,0,0,.4-5.12c0-1.08,0-2.21-.14-3.36s-.25-2.32-.46-3.52a8.38,8.38,0,0,0-2.84,2.37,12.85,12.85,0,0,0-2,3.76A13.71,13.71,0,0,0,259.88,43.81Z" class="cls-2"/><path data-cppathid="10074" d="M287.68,52.42a.93.93,0,0,1-1.05,1h-2a.93.93,0,0,1-1.05-1V27.33a.94.94,0,0,1,1.05-1.06h2a1.14,1.14,0,0,1,.77.26H295a.93.93,0,0,1,1.06,1.06V38.37A.94.94,0,0,1,295,39.43h-2a1.07,1.07,0,0,1-.67-.2h-4.71Zm4.32-24h-4.32v3.68H292Zm-4.32,8.86H292V34.05h-4.32Zm4.42,15.11a1.17,1.17,0,0,1-.86.41,1.62,1.62,0,0,1-.61-.16l-.93-.41c-.43-.19-.64-.45-.64-.77a1,1,0,0,1,.35-.71l2.4-2.49a1.53,1.53,0,0,1-.45.06h-2a.94.94,0,0,1-1.06-1.05V43.59a.94.94,0,0,1,1.06-1.06h1.5l-.57-.8a1.16,1.16,0,0,1-.26-.64c0-.36.24-.63.71-.8l1.28-.45a1.47,1.47,0,0,1,.48-.1,1.11,1.11,0,0,1,.92.55l1.28,1.76a1.13,1.13,0,0,1,.26.64v0h3.74a1,1,0,0,1,.29-.67l1.47-1.82a1.18,1.18,0,0,1,.93-.49,1.76,1.76,0,0,1,.51.1l1.16.45c.44.15.67.41.67.77a1.11,1.11,0,0,1-.29.67l-.8,1h1.09a.93.93,0,0,1,1.05,1.06V47.3a.93.93,0,0,1-1.05,1.05h-2a1.09,1.09,0,0,1-.67-.19h-.77v2.69H301v-.29c0-.17.35-.25,1.05-.25h2a.93.93,0,0,1,1.05,1v.35a.93.93,0,0,1-1.05,1.06h-6.79a.93.93,0,0,1-1-1.06V48.16h-.35a1.09,1.09,0,0,1-.36.67Zm8.61-7.78h-8.29v1.6h8.29Zm5.5,8.23c-.7-.07-1-.42-.93-1.06s.21-1,.29-1l.13,0V39h-4.8a1,1,0,0,1-.9.42h-2A.94.94,0,0,1,297,38.37v-11A.94.94,0,0,1,298,26.27h2a1.12,1.12,0,0,1,.77.26h8a.94.94,0,0,1,1.06,1.06V52c0,.75-.37,1.09-1.09,1Zm-.51-24.42h-4.64V32h4.64Zm-4.64,8.64h4.64V33.92h-4.64Z" class="cls-2"/><path data-cppathid="10075" d="M317.41,53a1.23,1.23,0,0,1-1.47-.28l-.16-.16a1,1,0,0,1-.32-.68c0-.32.21-.57.64-.76l3.9-1.76h-1.18a.94.94,0,0,1-1.06-1.06v-9a.94.94,0,0,1,1.06-1.06h2a1.09,1.09,0,0,1,.84.32h16.89a.93.93,0,0,1,1.06,1.06v8.8a.93.93,0,0,1-1.06,1h-2a1.15,1.15,0,0,1-.64-.16h-2.5v1.6h5.28V50.4c0-.32.35-.48,1.06-.48h2A.93.93,0,0,1,342.79,51v.76a.93.93,0,0,1-1.06,1.06H330.37a.93.93,0,0,1-1.05-1.06V49.28h-4a.92.92,0,0,1-.51.42Zm9.06-17.34v.09h1.66c.71,0,1.06.33,1.06,1s-.35,1-1.06,1h-8.8a1.13,1.13,0,0,1-.67.19h-2a.93.93,0,0,1-1.06-1.06V26.63a.93.93,0,0,1,1.06-1.06h2a1.07,1.07,0,0,1,.67.19H328q1.05,0,1,1t-1,1h-1.51v1.44h1.76a.93.93,0,0,1,1.06,1.06v3.39a.94.94,0,0,1-1.06,1.06h-1.82Zm-4-7.87v-.1h-2.72v1.44h2.72V27.78ZM325.25,31h-5.53v1.47h5.53Zm-2.88,3.49v-.1h-2.65v1.31h2.65V34.53Zm13.12,5.92H321.86v1.09h13.63Zm-13.63,4h13.63v-1H321.86Zm0,2.94h13.63v-1H321.86ZM333.76,33a.93.93,0,0,1-1.12,1l-2-.09c-.73,0-1.06-.42-1-1.12l.64-6a.94.94,0,0,1,1.12-1l2,.1a.9.9,0,0,1,1,1.12l-.13,1.34h6.95q1.05,0,1.05,1t-1.05,1h-7.14Zm6.79,2q1.05,0,1.05,1t-1.05,1h-7.39c-.71,0-1.06-.32-1.06-1s.35-1,1.06-1Z" class="cls-2"/></g></g></g></g></g></svg>