<?xml version="1.0" encoding="UTF-8"?>
<svg xmlns="http://www.w3.org/2000/svg" onmouseup="{ if(window.parent.document.onmouseup) window.parent.document.onmouseup(arguments[0]);}" viewBox="0 0 408.59 710.01" xmlns:xlink="http://www.w3.org/1999/xlink"><defs><style>.cls-1,.cls-24,.cls-25{fill:none;}.cls-2{isolation:isolate;}.cls-3{clip-path:url(#clip-path);}.cls-4{fill:#fcc488;}.cls-5{fill:#9c1c25;}.cls-6{fill:#7f1426;}.cls-7{fill:#6780a2;}.cls-8{fill:#b92025;}.cls-9{fill:#610a24;}.cls-10{fill:#eca160;}.cls-11{fill:#eed214;}.cls-12,.cls-25{stroke:#000;}.cls-12{stroke-width:0.64px;}.cls-13{fill:#fff;}.cls-14{fill:#f07322;}.cls-15{fill:#eba05e;}.cls-16{fill:#5b462e;}.cls-17{fill:#5e4830;}.cls-18{fill:#513e29;}.cls-19{fill:#5c472f;}.cls-20{fill:#5c462e;}.cls-21{fill:url(#linear-gradient);}.cls-22{fill:#dcece9;}.cls-23{fill:#90a39f;}.cls-24{stroke:#dcece9;stroke-width:0.3px;}.cls-25{stroke-linecap:round;stroke-linejoin:round;stroke-width:0.5px;stroke-dasharray:1.32;opacity:0.35;mix-blend-mode:multiply;}.cls-26{fill:#23376f;}.cls-27{fill:#fae6aa;}</style><clipPath transform="translate(-27.95 -5.34)" id="clip-path"><rect data-cppathid="10000" height="483.57" width="331.7" class="cls-1"/></clipPath><linearGradient gradientUnits="userSpaceOnUse" y2="439.8" x2="301.73" y1="511.68" x1="282.81" id="linear-gradient"><stop stop-color="#abbeba" offset="0"/><stop stop-color="#b8cac6" offset="0.04"/><stop stop-color="#c3d6d2" offset="0.11"/><stop stop-color="#cadcd8" offset="0.2"/><stop stop-color="#ccdeda" offset="0.46"/><stop stop-color="#c9dbd7" offset="0.66"/><stop stop-color="#bfd1cd" offset="0.83"/><stop stop-color="#aec1bd" offset="0.98"/><stop stop-color="#abbeba" offset="1"/></linearGradient></defs><g class="cls-2"><g data-name="Layer 2" id="Layer_2"><g data-name="Andy Architect" id="Andy_Architect"><g class="cls-3"><path data-cppathid="10001" transform="translate(-27.95 -5.34)" d="M278.65,425.07c-6.91-4.3-11.27-12.75-14.34-16.07-1.65-1.8-58.1-34.77-62.53-40.95-17.73-24.69-17.52,33.73,38.46,47.53,11.91,2.94,12.65,16.49,12.65,16.49.38,4,9.15-2.83,9.15-2.83S290.4,432.39,278.65,425.07Z" class="cls-4"/><path data-cppathid="10002" transform="translate(-27.95 -5.34)" d="M168.66,336.61s7.47-39.81,13.8-39.94,15.69,6.69,22.08,28.16c9.89,33.29.26,44.66.26,44.66Z" class="cls-5"/><path data-cppathid="10003" transform="translate(-27.95 -5.34)" d="M211.8,378.84s6.08-3.33,3.86-5.49a22.42,22.42,0,0,1-3.86-5.85l2.81-5L210.35,360l-12.63,5.61s-15.31,2.39-23.61-2.11-6.9,4.32-6.9,4.32,3.45,3.51,2.1,4.74-3.8,4.2-2.34,6.07S186.08,389,211.8,378.84Z" class="cls-6"/><path data-cppathid="10004" transform="translate(-27.95 -5.34)" d="M227.75,470.16s.57,8.92.74,13.4c3.39,87.06-20.86,181-20.86,181s20.12,6.69,23.46,13.4-46.92,3.35-46.92,3.35,10.05-120.68,6.71-147.5-26.83,140.8-33.53,150.86-31.85,20.11-31.85,20.11,5-20.11,10.05-28.5C140.44,668.17,153.3,550,154,486.92c0-1.71,0-5,0-5Z" class="cls-7"/><path data-cppathid="10005" transform="translate(-27.95 -5.34)" d="M180.81,293.63s39.92,81.08,46.63,171.59c.41,5.53.85,16.71.85,16.71l-73.18,7.81s0-4.53,0-6.7c0-62,2.2-132.42,2.2-132.42s5-73.75,11.73-70.4S180.81,293.63,180.81,293.63Z" class="cls-8"/><path data-cppathid="10006" transform="translate(-27.95 -5.34)" d="M183.19,279.55v26.06s8.17-16.33,14.69,9.48c-.53-23.46-6.56-25.65-7.47-25.32S183.19,279.55,183.19,279.55Z" class="cls-9"/><polygon data-cppathid="10007" points="139.73 275.27 138.58 282.94 152.98 294.16 158.3 282.5 139.73 275.27" class="cls-10"/><path data-cppathid="10008" transform="translate(-27.95 -5.34)" d="M56,110.61s-7.68,22.78,27.63,12,20.94-26.93,22-28.46S62.91,83.75,61.76,83.37,56,110.61,56,110.61Z" class="cls-11"/><path data-cppathid="10009" transform="translate(-27.95 -5.34)" d="M208,261s0-.15,1.64-4c.22-.52.7-2.57.7-2.57s-35.82-12.06-30.06-25.65c17.5,12.25,46.44-10.77,46.55-11.39,5.45-27.41,10-82.47-2-105.24C196.78,58.8,109.73,11.06,84.46,70s2.81,98.28,22.47,134.77,57,84,73.94,86.12C195.85,292.8,208,261,208,261Z" class="cls-4"/><path data-cppathid="10010" transform="translate(-27.95 -5.34)" d="M187.89,136.31c0,6.2,3,11.22,6.6,11.22s6.6-5,6.6-11.22-3-11.21-6.6-11.21S187.89,130.12,187.89,136.31Z" class="cls-12"/><path data-cppathid="10011" transform="translate(-27.95 -5.34)" d="M196.47,139.61a3.3,3.3,0,1,0,3.3-3.3A3.3,3.3,0,0,0,196.47,139.61Z" class="cls-13"/><path data-cppathid="10012" transform="translate(-27.95 -5.34)" d="M169.42,135c0,5.11,2.44,9.24,5.44,9.24s5.43-4.13,5.43-9.24-2.44-9.23-5.43-9.23S169.42,129.89,169.42,135Z" class="cls-12"/><path data-cppathid="10013" transform="translate(-27.95 -5.34)" d="M175.36,139.61a3.3,3.3,0,1,0,3.3-3.3A3.3,3.3,0,0,0,175.36,139.61Z" class="cls-13"/><path data-cppathid="10014" transform="translate(-27.95 -5.34)" d="M216.91,47.39c-6.69-9.52-15.33-9.68-21.52-7.63,2-13-51.82-35.4-47.1-15.5-2.87-9.49-12.61-5.9-15.9-.34-7.5-3.52-22.14,1.68-20.33,8.89-1.25.9-2.46,1.82-3.57,2.7a7.3,7.3,0,0,0-2.19,1.19,9.37,9.37,0,0,0-3.84-3.41c.06-5.12-8.12-10.51-15.78-8.29-4.74,1.37-8.11,6.26-8.79,10.64-4,.86-7.91,4-7.64,9.33,0,.25,0,.46.06.69-2.71,1.09-2.9,3.74-1.69,6.72-7.23.63-13.51,3.46-13.5,7.86a13.15,13.15,0,0,0-7.5,2.29C41.83,66.33,40.08,74,42.26,80.1a13.18,13.18,0,0,0-7,8.2c-.76,3-.16,9.69,2.13,13.85-4.08,1.76-5.92,7.79-4.62,13.07a9.8,9.8,0,0,0,.72,2A8.12,8.12,0,0,0,28,124.61a9.26,9.26,0,0,0,1.49,6.09,4.54,4.54,0,0,0-.33,1.06c-.62,4.08,3,7.8,5.92,10a13.84,13.84,0,0,0,7,2.62c2.36,5.69,10,10.81,16.37,6.09-5.51,7.14-1.41,10.51,5,11.4,1.2,0,3-1.32,4.6-2.8,1.15,3,2.34,6.1,8,2.8,6.44-3.57,6.56-27,2.88-32.36,13.78.89,11.77-12.8,7.36-23.2,4.9,2.67,8.19,1.39,9.9-1.56a10.38,10.38,0,0,0,6-.3c3.79-1.71,5.58-6.63,4-9.36,5.37-.12,11.85-4.58,9.76-10,3.76-.09,10.94,1,14.13-1.24,2.68-1.9,4.27-4.65,3.55-6.8,7,2.91,15.17,1,18.79-6.38,10.27,6.25,14.05,3.78,20.08-2,5.83,5.05,17.91,8.92,24.11,5.15,6.38-3.1,7.88-10.49,4.2-14.72C210.52,60,221.85,53.55,216.91,47.39Z" class="cls-14"/><path data-cppathid="10015" transform="translate(-27.95 -5.34)" d="M141,166.1c.76,0,2.69-1.14,1-1.14-.77,0-2.7,1.14-1,1.14Z" class="cls-15"/><path data-cppathid="10016" transform="translate(-27.95 -5.34)" d="M140.55,184.8c1.41,0,1.92-1.8.23-1.8-1.41,0-1.92,1.8-.23,1.8Z" class="cls-15"/><path data-cppathid="10017" transform="translate(-27.95 -5.34)" d="M165.55,180.29v-.87a.36.36,0,0,0-.06-.32.43.43,0,0,0-.23-.25.84.84,0,0,0-.37-.14,1.25,1.25,0,0,0-.47,0l-.33.07a1.63,1.63,0,0,0-.6.27l-.22.19a.83.83,0,0,0-.23.43v.88a.42.42,0,0,0,.06.31.49.49,0,0,0,.23.26,1,1,0,0,0,.38.13,1.18,1.18,0,0,0,.46,0l.34-.06a2,2,0,0,0,.6-.28l.21-.19a.79.79,0,0,0,.23-.43Z" class="cls-15"/><g class="cls-2"><polygon data-cppathid="10018" points="282.51 553.02 296.29 554.49 286.77 555.94 272.79 554.39 282.51 553.02" class="cls-16"/><polygon data-cppathid="10019" points="296.29 554.49 293.73 622.01 284.51 625.4 286.77 555.94 296.29 554.49" class="cls-17"/><polygon data-cppathid="10020" points="286.77 555.94 284.51 625.4 271.11 622.41 272.79 554.39 286.77 555.94" class="cls-18"/></g><g class="cls-2"><polygon data-cppathid="10021" points="358.14 561.11 375.55 562.97 367.56 564.9 349.76 562.92 358.14 561.11" class="cls-16"/><polygon data-cppathid="10022" points="375.55 562.97 369.32 638.24 361.46 642.59 367.56 564.9 375.55 562.97" class="cls-19"/><polygon data-cppathid="10023" points="367.56 564.9 361.46 642.59 344.58 638.82 349.76 562.92 367.56 564.9" class="cls-18"/></g><g class="cls-2"><polygon data-cppathid="10024" points="149.1 571.82 164.51 574.52 144.87 577.51 129.43 574.59 149.1 571.82" class="cls-16"/><polygon data-cppathid="10025" points="164.51 574.52 167.94 668.25 149.54 675.01 144.87 577.51 164.51 574.52" class="cls-17"/><polygon data-cppathid="10026" points="144.87 577.51 149.54 675.01 134.78 669.29 129.43 574.59 144.87 577.51" class="cls-18"/></g><g class="cls-2"><polygon data-cppathid="10027" points="237.39 587.29 259.06 591.09 240.57 595.55 218.49 591.39 237.39 587.29" class="cls-16"/><polygon data-cppathid="10028" points="259.06 591.09 257.17 700.38 239.8 710.01 240.57 595.55 259.06 591.09" class="cls-19"/><polygon data-cppathid="10029" points="240.57 595.55 239.8 710.01 219.15 702 218.49 591.39 240.57 595.55" class="cls-18"/></g><g class="cls-2"><polygon data-cppathid="10030" points="277.58 461.51 407.82 479.6 242.6 555.65 77.91 505.04 277.58 461.51" class="cls-20"/><polygon data-cppathid="10031" points="407.82 479.6 406.89 489.11 242.54 572.5 242.6 555.65 407.82 479.6" class="cls-20"/><polygon data-cppathid="10032" points="242.6 555.65 242.54 572.5 79.06 517.57 77.91 505.04 242.6 555.65" class="cls-18"/></g><path data-cppathid="10033" transform="translate(-27.95 -5.34)" d="M143.16,499.14s170.45-44.89,167.06-45.56,125.1,21.78,125.1,21.78L273.84,528.83Z" class="cls-21"/><path data-cppathid="10034" transform="translate(-27.95 -5.34)" d="M272.71,528.6q-64.8-15.23-129.77-29.76c.94-4.75,1.4-7.13,2.33-11.89l131.36,21.42C275.06,516.45,274.27,520.5,272.71,528.6Z" class="cls-22"/><path data-cppathid="10035" transform="translate(-27.95 -5.34)" d="M147.62,493.49c-.75,3.84-2.75,5.77-4.68,5.35s-3.06-2.95-2.32-6.7,2.71-5.52,4.65-5.19S148.37,489.64,147.62,493.49Z" class="cls-22"/><path data-cppathid="10036" transform="translate(-27.95 -5.34)" d="M278.16,519.19c-1.09,5.63-3.53,9.84-5.45,9.41s-2.62-5.28-1.54-10.81,3.51-9.75,5.46-9.42S279.25,513.57,278.16,519.19Z" class="cls-23"/><path data-cppathid="10037" transform="translate(-27.95 -5.34)" d="M272.41,527.22c-1.36-2.48-1.09-8.31.62-13.08,1.36-3.82,3.37-5.38,4.48-3.43.88,1.55.7,5.33-.41,8.42-.88,2.47-2.16,3.44-2.86,2.18-.56-1-.44-3.42.26-5.39.56-1.56,1.38-2.19,1.83-1.39a5.13,5.13,0,0,1-.17,3.44" class="cls-24"/><path data-cppathid="10038" transform="translate(-27.95 -5.34)" d="M431.63,477.49q-60.9-11.12-121.91-21.57c.64-4.46,1-6.71,1.61-11.17l123,13.78C433.26,466.11,432.71,469.9,431.63,477.49Z" class="cls-22"/><path data-cppathid="10039" transform="translate(-27.95 -5.34)" d="M313.82,450.72c-.52,3.61-2.29,5.49-4.1,5.2s-3-2.61-2.48-6.13,2.27-5.25,4.09-5S314.34,447.11,313.82,450.72Z" class="cls-22"/><path data-cppathid="10040" transform="translate(-27.95 -5.34)" d="M436.26,468.5c-.75,5.28-2.83,9.3-4.63,9s-2.67-4.77-1.93-10,2.81-9.23,4.63-9S437,463.22,436.26,468.5Z" class="cls-23"/><path data-cppathid="10041" transform="translate(-27.95 -5.34)" d="M431.29,476.23c-1.37-2.25-1.39-7.67,0-12.18,1.08-3.61,2.88-5.15,4-3.4.9,1.4.9,4.93,0,7.85-.7,2.33-1.85,3.28-2.55,2.14-.57-.91-.59-3.15,0-5,.44-1.47,1.17-2.1,1.63-1.38a4.72,4.72,0,0,1,0,3.22" class="cls-24"/><path data-cppathid="10042" transform="translate(-27.95 -5.34)" d="M162.28,487.74l.58,0h0Z" class="cls-4"/><path data-cppathid="10043" transform="translate(-27.95 -5.34)" d="M208.75,485l.87,12.46-14.81-2.91-7.37-24.94S202.44,475.44,208.75,485Z" class="cls-4"/><path data-cppathid="10044" transform="translate(-27.95 -5.34)" d="M137.82,326.54s16.58,8,13.53,22.73c-1.54,7.36-18.64,36.87-22.13,50C142.17,409.59,174.33,451,184,462c3.54,3,14.4,9.91,17.33,15.34,1.11,2.08-2.83,1.42-2,3a174.14,174.14,0,0,1-3.64,19.23s-8.31,18.22-26.53-3.84c-2.6-3.46-1.3-13.14-1-21.3-4.27-7.22-65.09-52.73-63.67-75.92C105.25,385.81,137.82,326.54,137.82,326.54Z" class="cls-4"/><path data-cppathid="10045" transform="translate(-27.95 -5.34)" d="M107.17,365c11.12-24.6,47.94-59.22,47.94-59.22s19.1-9.8,18.07,5.29c-.52,7.54-25.75,48.9-33.83,69.55C126.67,371.85,110.28,367.67,107.17,365Z" class="cls-5"/><path data-cppathid="10046" transform="translate(-27.95 -5.34)" d="M109.92,363.19s-5.94,0-5.15,2.57a19.14,19.14,0,0,1,.52,6l-4.17,2.64,2.2,3.64,11.81.93s12.53,4.45,17,11.23,7-.44,7-.44-1.17-4.05.35-4.43,4.58-1.62,4.24-3.63S133.48,366,109.92,363.19Z" class="cls-6"/><path data-cppathid="10047" transform="translate(-27.95 -5.34)" d="M177.18,499.29c1.45,5.87.53,11.14-2.05,11.79s-5.85-3.61-7.3-9.49-.54-11.15,2-11.79S175.73,493.41,177.18,499.29Z" class="cls-4"/><path data-cppathid="10048" transform="translate(-27.95 -5.34)" d="M186.46,504.05c1.45,5.88.54,11.15-2.05,11.79s-5.86-3.6-7.31-9.47-.53-11.16,2.06-11.79S185,498.18,186.46,504.05Z" class="cls-4"/><path data-cppathid="10049" transform="translate(-27.95 -5.34)" d="M198.74,505.22c1.45,5.87.14,11.24-2.93,12s-6.73-3.39-8.18-9.26-.14-11.25,2.93-12S197.29,499.34,198.74,505.22Z" class="cls-4"/><path data-cppathid="10050" transform="translate(-27.95 -5.34)" d="M254.86,423.43l2.41,12.81,4.57,7.56,15.25-1.42s-.95-12.92-1-13.25-5.47-4.77-5.62-5.23S254.86,423.43,254.86,423.43Z" class="cls-4"/><path data-cppathid="10051" transform="translate(-27.95 -5.34)" d="M280.15,437.55c1.65,3.25,1.69,9,1.31,12.82-.52,5.22-2.44,5.92-6.51,3.23a52.25,52.25,0,0,1-1.44-8.16c-.16-3.74,1.13-4.41,2.5-6.92,1.52-.09,2.28-.86,3.81-1" class="cls-4"/><polygon data-cppathid="10052" points="273.23 460 351.18 475.98 300.07 491.4 230.3 472.75 273.23 460" class="cls-25"/><rect data-cppathid="10053" transform="translate(-169.8 120.7) rotate(-20.78)" height="58.62" width="8.97" y="420.63" x="268.35" class="cls-26"/><polygon data-cppathid="10054" points="251.03 473.73 258.82 481.04 259.34 470.37 251.03 473.73" class="cls-27"/><polygon data-cppathid="10055" points="256.08 478.47 258.82 481.04 259 477.36 256.08 478.47"/><path data-cppathid="10056" transform="translate(-27.95 -5.34)" d="M252.86,433c-.12,6.79,1.11,8.53,5.94,13,2.77,2.56,4.69,9.86,9.12,8.36,6.12-2.05,1-9.81-1.43-12.58-.71-.79-1.42-1.52-2.13-2.21-3.92-3.89-8.74-9.7-7.09-14.24,2.21-6.1,6.4-8.51,0-5.53-4,1.85-3.29,9-4.41,12.86" class="cls-4"/><path data-cppathid="10057" transform="translate(-27.95 -5.34)" d="M280.81,428c2.44,1.23-1,11.29-1,14.14s.34,14.94-4,7.87c-2.58-4.19-2-9.5-3.2-14.13-1-3.94-4.74-9.31.9-10.44,3.11-.62,3.92,1.35,6.33,2.56" class="cls-4"/><polygon data-cppathid="10058" points="224.71 475.18 188.2 485.86 203.41 490.14 222.41 484.41 257.54 495.11 274.21 489.18 224.71 475.18" class="cls-25"/><path data-cppathid="10059" transform="translate(-27.95 -5.34)" d="M164.83,283.27s-10.69,22.72-7.75,37c2.5-8.86,15.27-26.71,29.57-13.73C171.29,289.78,164.83,283.27,164.83,283.27Z" class="cls-9"/><path data-cppathid="10060" transform="translate(-27.95 -5.34)" d="M149.62,26.55C160,23.14,135.21-.38,129,15.08c5.81,4.54,9.06-5.73.69-8.33-5-1.55-13.94,2-14.52,7.25-7.37-4.87-16.85,8-7.14,8.62,8.66-17.87-36.28-4.79-17.6,3.05-11.11-14.44-32.74,11-13,13.85C75.91,27,52.63,40.57,59.75,54c-4.2-.21-12.34,3.89-13.19,8.6-1.13,6.21,7.07,8.82,7.8,2.42-8,.26-1.14,9.07,3.15,10.47C65.06,78,76.47,73,78.23,65.16c6.62,12,33.93,11.12,33.18-5.53,10.26,6.85,31.84,5.09,28.84-11.53-1.15,7.25,15.07,5.19,18-1,2.14-4.42-1.87-20.38-7-13.64,3.92,2.19,8.85-.7,6.63-5.22-1.75-3.58-9.12-2.84-11.31-3.24" class="cls-14"/><path data-cppathid="10061" transform="translate(-27.95 -5.34)" d="M181.38,41.56c4.79,7.71,18.9,1.39,21.6-4.62,4-8.89-8.45-19.22-16.65-12.44,8.57-2.6-9.56-11.71-11.75-3.53,15.56.5-18.77-24.86-18.29-6.62a20.53,20.53,0,0,1,2.32.54c4.5-7.33-6.73-11.66-13.27-8.51-1.72.83-10.29,9.85-10.83,11.71-3.73,13,21.2,27.45,28.76,12.42-6.08,6.63,7.4,12.2,13.35,8.45,3.1,3,9.1,7.57,12,2.6.58-.06-.28.75-1.07.64" class="cls-14"/></g></g></g></g></svg>