<?xml version="1.0" encoding="UTF-8"?>
<svg xmlns="http://www.w3.org/2000/svg" onmouseup="{ if(window.parent.document.onmouseup) window.parent.document.onmouseup(arguments[0]);}" viewBox="0 0 30.28 45.41"><defs><style>.cls-1{fill:#ec1c24;}</style></defs><g data-name="Layer 2" id="Layer_2"><g id="backlog"><g data-name="2023 jp" id="_2023_jp"><g data-name="almost-fully-refined Product Backlog" id="almost-fully-refined_Product_Backlog"><g data-name="今学期の View Grades PBI" id="今学期の_View_Grades_PBI"><path data-cppathid="10000" transform="translate(-1.33 -6.4)" d="M1.34,38.13a1.84,1.84,0,0,1,.52-1.51A2,2,0,0,1,3.32,36H6.81a1.77,1.77,0,0,1,1.34.56A2.14,2.14,0,0,1,8.73,38a14,14,0,0,0,2.45,7.57,6.69,6.69,0,0,0,5.64,2.8,7.21,7.21,0,0,0,5.56-2.1,8,8,0,0,0,1.95-5.7,7.79,7.79,0,0,0-2.44-5.3,37.39,37.39,0,0,0-7.22-5.65A55.5,55.5,0,0,1,7.89,25.7,10,10,0,0,1,4.4,21.86a12.6,12.6,0,0,1-1-5.44A8.63,8.63,0,0,1,4.8,11.93,11.36,11.36,0,0,1,9.14,8a15.15,15.15,0,0,1,7.33-1.6,16.15,16.15,0,0,1,6.35,1.31A32.41,32.41,0,0,1,29,11.24a2.08,2.08,0,0,1,1.16,1.86,1.52,1.52,0,0,1-.93,1.45l-1.39.7a2.52,2.52,0,0,0-.44.15.93.93,0,0,1-.38.08A1.92,1.92,0,0,1,25.79,15a58,58,0,0,0-5.3-4,7.48,7.48,0,0,0-4-1.25A5.85,5.85,0,0,0,12,11.67a6.53,6.53,0,0,0-1.77,4.63,10.65,10.65,0,0,0,1.42,5.47c.95,1.63,2.9,3.13,5.85,4.48a48.32,48.32,0,0,1,7.25,4.05,20.69,20.69,0,0,1,5,4.69,9,9,0,0,1,1.83,5.47,9.46,9.46,0,0,1-1.92,5.82,13,13,0,0,1-5.24,4,18.52,18.52,0,0,1-7.63,1.49q-6.69,0-10.77-3.76A15.12,15.12,0,0,1,1.34,38.13Z" class="cls-1"/></g></g></g></g></g></svg>