<?xml version="1.0" encoding="UTF-8"?>
<svg xmlns="http://www.w3.org/2000/svg" onmouseup="{ if(window.parent.document.onmouseup) window.parent.document.onmouseup(arguments[0]);}" viewBox="0 0 3934.9 2109.69"><defs><style>.cls-1{isolation:isolate;}.cls-2{fill:#bf9907;}.cls-3{fill:#d4aa08;}.cls-4{fill:#1d1d1b;}.cls-5{fill:#ffcc03;}.cls-6{fill:#f0c006;}.cls-7{fill:#cba305;}.cls-8{fill:#ffdd5a;}.cls-9{fill:#f5c400;}.cls-10{fill:#c19710;opacity:0.32;mix-blend-mode:multiply;}</style></defs><g class="cls-1"><g data-name="Layer 2" id="Layer_2"><g data-name="Layer 1" id="Layer_1-2"><polygon data-cppathid="10000" points="3442.93 20.74 3447.47 1960.68 3462.13 1969.65 3567.16 1969.65 3563.2 21.51 3442.93 20.74" class="cls-2"/><polygon data-cppathid="10001" points="3450.99 21.28 3462.13 1969.65 3567.16 1969.65 3563.2 21.51 3450.99 21.28" class="cls-3"/><polygon data-cppathid="10002" points="472.37 1.57 467.83 1941.51 453.17 1950.48 348.15 1950.48 348.15 1950.48 352.11 2.34 472.37 1.57" class="cls-2"/><polygon data-cppathid="10003" points="464.32 2.11 453.17 1950.48 348.15 1950.48 352.11 2.34 464.32 2.11" class="cls-3"/><rect data-cppathid="10004" rx="39.41" height="397.75" width="3871.91" y="229.26" x="39.77" class="cls-4"/><path data-cppathid="10005" d="M3865.92,650.23H85.53a69.06,69.06,0,0,1-69-69V275a69.07,69.07,0,0,1,69-69H3865.92a69.06,69.06,0,0,1,69,69V581.25A69.05,69.05,0,0,1,3865.92,650.23ZM85.53,252.49A22.56,22.56,0,0,0,63,275V581.25a22.56,22.56,0,0,0,22.54,22.54H3865.92a22.56,22.56,0,0,0,22.54-22.54V275a22.56,22.56,0,0,0-22.54-22.53Z" class="cls-4"/><polygon data-cppathid="10006" points="627.21 229.26 296.78 229.26 174.4 627.01 498.71 627.01 627.21 229.26" class="cls-5"/><polygon data-cppathid="10007" points="1274.32 229.26 943.88 229.26 821.5 627.01 1145.81 627.01 1274.32 229.26" class="cls-5"/><polygon data-cppathid="10008" points="1921.42 229.26 1590.98 229.26 1468.6 627.01 1792.92 627.01 1921.42 229.26" class="cls-5"/><polygon data-cppathid="10009" points="2568.52 229.26 2238.09 229.26 2115.7 627.01 2440.02 627.01 2568.52 229.26" class="cls-5"/><polygon data-cppathid="10010" points="3215.63 229.26 2885.19 229.26 2762.81 627.01 3087.12 627.01 3215.63 229.26" class="cls-5"/><polygon data-cppathid="10011" points="3862.73 229.26 3532.29 229.26 3409.91 627.01 3734.23 627.01 3862.73 229.26" class="cls-5"/><polygon data-cppathid="10012" points="150.71 1827.11 164.78 1737 348.16 1648.53 454.88 1652.18 150.71 1827.11" class="cls-6"/><polygon data-cppathid="10013" points="454.88 1652.18 454.74 1675.94 147.12 1850.09 150.71 1827.11 454.88 1652.18" class="cls-7"/><path data-cppathid="10014" d="M445.84,11.91,123.09,2079l-26.45,11.57H0l6.8-42.13L329.91,26.74l99.93-.3Z" class="cls-7"/><polygon data-cppathid="10015" points="429.84 26.43 96.64 2090.52 0 2090.52 310.6 26.8 429.84 26.43" class="cls-6"/><polygon data-cppathid="10016" points="429.58 8.39 472.38 0 352.11 1.06 310.33 9.42 429.58 8.39" class="cls-8"/><polygon data-cppathid="10017" points="310.33 9.42 310.6 26.8 430 26.43 429.58 8.39 310.33 9.42" class="cls-9"/><polygon data-cppathid="10018" points="472.38 0 472.38 14.5 430 26.43 429.58 8.39 472.38 0" class="cls-7"/><polygon data-cppathid="10019" points="433.52 205.95 400.8 650.11 346.19 650.11 415.52 206.05 433.52 205.95" class="cls-10"/><polygon data-cppathid="10020" points="3764.6 1846.28 3750.52 1756.17 3567.14 1667.7 3460.43 1671.35 3764.6 1846.28" class="cls-6"/><polygon data-cppathid="10021" points="3460.43 1671.35 3460.56 1695.11 3768.19 1869.26 3764.6 1846.28 3460.43 1671.35" class="cls-7"/><polygon data-cppathid="10022" points="3480.29 205.95 3509.07 650.11 3567.62 650.11 3498.28 206.05 3480.29 205.95" class="cls-10"/><path data-cppathid="10023" d="M3469.47,31.08l322.75,2067,26.44,11.57h96.64l-6.79-42.13L3585.4,45.91l-99.93-.3Z" class="cls-7"/><polygon data-cppathid="10024" points="3485.47 45.6 3818.66 2109.69 3915.3 2109.69 3604.7 45.97 3485.47 45.6" class="cls-6"/><polygon data-cppathid="10025" points="3485.72 27.56 3442.93 19.17 3563.19 20.23 3604.98 28.59 3485.72 27.56" class="cls-8"/><polygon data-cppathid="10026" points="3604.98 28.59 3604.7 45.97 3485.3 45.6 3485.72 27.56 3604.98 28.59" class="cls-9"/><polygon data-cppathid="10027" points="3442.93 19.17 3442.93 33.67 3485.3 45.6 3485.72 27.56 3442.93 19.17" class="cls-7"/></g></g></g></svg>