<?xml version="1.0" encoding="UTF-8"?>
<svg xmlns="http://www.w3.org/2000/svg" onmouseup="{ if(window.parent.document.onmouseup) window.parent.document.onmouseup(arguments[0]);}" viewBox="0 0 403.28 1153.13"><defs><style>.cls-1,.cls-10,.cls-4,.cls-7{fill:#fff100;}.cls-1,.cls-2,.cls-3{opacity:0.5;}.cls-11,.cls-3,.cls-6{fill:#603813;}.cls-4,.cls-5,.cls-6{opacity:0.25;}.cls-7,.cls-8{opacity:0.12;}.cls-9{fill:#3b2314;opacity:0.12;}.cls-12{fill:#ec1c24;}</style></defs><g data-name="Layer 2" id="Layer_2"><g id="backlog"><g data-name="2023 jp" id="_2023_jp"><g data-name="final shot of Backlog Refinement module" id="final_shot_of_Backlog_Refinement_module"><g data-name="bottom faded PBIs" id="bottom_faded_PBIs"><g id="etcetc."><path data-cppathid="10000" transform="translate(0 0)" d="M361.7,1018a9.85,9.85,0,0,1-9.85,9.85H50.6a9.85,9.85,0,0,1-9.86-9.85V969.07a9.85,9.85,0,0,1,9.86-9.85H351.85a9.85,9.85,0,0,1,9.85,9.85Z" class="cls-1"/><g class="cls-2"><path data-cppathid="10001" transform="translate(0 0)" d="M173.48,1001.48a.63.63,0,0,1-.8.45l-1.06-.2c-.34-.06-.5-.23-.5-.5a.94.94,0,0,1,0-.3l2.6-6.84a.58.58,0,0,1-.37.1h-1.21a.57.57,0,0,1-.64-.65v-7.21a.56.56,0,0,1,.64-.64h1.21a.7.7,0,0,1,.47.15h5.55a.58.58,0,0,1,.65.65v7a.57.57,0,0,1-.65.64h-1.21a.61.61,0,0,1-.51-.21h-1.4a.83.83,0,0,1-.06.29l-.53,1.41h3.63c.4,0,.59.16.59.48a.49.49,0,0,1,0,.12l0,.12-1.48,5.29a.6.6,0,0,1-.61.49h-.08a.16.16,0,0,1-.1,0l-2.32-.45q-.51-.09-.51-.48a.38.38,0,0,1,0-.1l0-.12,0,0a.64.64,0,0,1,.78-.43l.57.1,1.07-3.79h-2ZM177.57,987h-3.52v5.76h3.52Zm6,10.37a.57.57,0,0,1-.64.65h-1.21a.57.57,0,0,1-.65-.65v-9.71a.57.57,0,0,1,.65-.64H183a.56.56,0,0,1,.64.64Zm-.56,4.34c-.39,0-.59-.2-.59-.48a.67.67,0,0,1,.21-.54.63.63,0,0,1,.53-.15l1.84.18V985.82a.57.57,0,0,1,.65-.64h1.21a.56.56,0,0,1,.64.64v15.64c0,.46-.22.66-.66.63Z" class="cls-3"/><path data-cppathid="10002" transform="translate(0 0)" d="M202.35,1001.6a.64.64,0,0,1-.51.27.76.76,0,0,1-.37-.1l-.59-.27c-.25-.12-.37-.27-.37-.47a.83.83,0,0,1,.16-.41,6.9,6.9,0,0,0,.72-1.44,10.4,10.4,0,0,0,.49-1.79,10.16,10.16,0,0,0,.18-1.89,7.75,7.75,0,0,0-.88-3.91,3.91,3.91,0,0,0-2.49-1.9,25.94,25.94,0,0,1,.47,4.66,10.13,10.13,0,0,1-1.12,5.16,3.62,3.62,0,0,1-3.31,1.89,4.18,4.18,0,0,1-2.33-.64,4.29,4.29,0,0,1-1.54-1.77,5.77,5.77,0,0,1-.55-2.59,8.32,8.32,0,0,1,.57-3.09,8.13,8.13,0,0,1,1.57-2.55,7.42,7.42,0,0,1,2.33-1.73,6.43,6.43,0,0,1,2.82-.63,7.73,7.73,0,0,1,3.71.85,5.87,5.87,0,0,1,2.41,2.45,8,8,0,0,1,.84,3.8A8.87,8.87,0,0,1,202.35,1001.6Zm-9.54-5.2a6.37,6.37,0,0,0,.27,1.9,4.09,4.09,0,0,0,.72,1.4,1.23,1.23,0,0,0,.93.53q.54,0,1-.81a8.11,8.11,0,0,0,.67-2.2,18.53,18.53,0,0,0,.24-3.13c0-.66,0-1.35-.09-2.05a20.78,20.78,0,0,0-.28-2.15,5,5,0,0,0-1.73,1.45,8,8,0,0,0-1.23,2.29A8.26,8.26,0,0,0,192.81,996.4Z" class="cls-3"/><path data-cppathid="10003" transform="translate(0 0)" d="M209,1000.62a.65.65,0,0,1-.66.66h-1.17a.63.63,0,0,1-.47-.19.65.65,0,0,1-.2-.47V987a.63.63,0,0,1,.59-.63c.45,0,.89-.09,1.3-.11l1.18,0q6.64,0,6.65,5.15a3.69,3.69,0,0,1-1.68,3.29,8.91,8.91,0,0,1-4.87,1.1h-.32a2.06,2.06,0,0,1-.35,0Zm0-13.23v7.19l.8,0a7,7,0,0,0,2.34-.32,2.13,2.13,0,0,0,1.21-1,4.13,4.13,0,0,0,.36-1.86,5.83,5.83,0,0,0-.38-2.34,2.37,2.37,0,0,0-1.27-1.26,6.16,6.16,0,0,0-2.43-.39Z" class="cls-3"/><path data-cppathid="10004" transform="translate(0 0)" d="M217.5,987.06a.62.62,0,0,1,.64-.69c.53,0,1-.09,1.52-.11l1.33,0a9.55,9.55,0,0,1,3.39.5,3.79,3.79,0,0,1,1.84,1.39,3.7,3.7,0,0,1,.58,2.08,3.48,3.48,0,0,1-.62,2,4,4,0,0,1-2.23,1.33q3.12,1.08,3.12,3.58a4.42,4.42,0,0,1-.59,2.32,3.78,3.78,0,0,1-1.95,1.48,10.14,10.14,0,0,1-3.59.52l-1.3,0c-.47,0-1-.06-1.48-.11s-.66-.26-.66-.66Zm2.26.37v5.47a12.11,12.11,0,0,0,3-.36,3.11,3.11,0,0,0,1.58-.92,2.2,2.2,0,0,0,.48-1.42,3.16,3.16,0,0,0-.31-1.43,2.14,2.14,0,0,0-1.06-1,4.87,4.87,0,0,0-2.11-.37h-.74C220.26,987.4,220,987.41,219.76,987.43Zm0,12.88.63,0H221a4.63,4.63,0,0,0,2.89-.78,2.83,2.83,0,0,0,1-2.39,2.5,2.5,0,0,0-1.15-2.25,8.31,8.31,0,0,0-3.93-.84Z" class="cls-3"/><path data-cppathid="10005" transform="translate(0 0)" d="M231.76,1000v.08h.84a.7.7,0,0,1,.47.17.54.54,0,0,1,0,.84.69.69,0,0,1-.47.16h-4.18a.71.71,0,0,1-.47-.16.56.56,0,0,1,0-.84.71.71,0,0,1,.47-.17h.84V987.6h-.84a.71.71,0,0,1-.47-.16.56.56,0,0,1,0-.84.71.71,0,0,1,.47-.17h4.18a.7.7,0,0,1,.47.17.54.54,0,0,1,0,.84.69.69,0,0,1-.47.16h-.84V1000Z" class="cls-3"/></g><rect data-cppathid="10006" rx="7.28" height="50.68" width="237.14" y="1047.48" x="81.53" class="cls-4"/><g class="cls-5"><path data-cppathid="10007" transform="translate(0 0)" d="M197.67,1071a.45.45,0,0,1-.57.37l-.83-.1c-.27,0-.41-.16-.41-.4a.8.8,0,0,1,0-.16l1-3.58a.46.46,0,0,1,.57-.38l.83.1c.27,0,.41.17.41.41a.8.8,0,0,1,0,.16l-.27,1h3.13c.32,0,.48.14.48.43s-.16.43-.48.43h-1l.23,1.22a.45.45,0,0,1,0,.13c0,.24-.14.37-.42.4l-.86.09a.45.45,0,0,1-.54-.41l-.26-1.35a.19.19,0,0,1,0-.08h-.52Zm4.43,8.36c-.3,0-.45-.16-.45-.41s.17-.48.51-.46l2.06.1v-2.45h-7.85c-.32,0-.48-.15-.48-.44s.16-.43.48-.43h7.85v-.85h-7.88c-.32,0-.48-.14-.48-.43s.16-.44.48-.44h5.07a.52.52,0,0,1,0-.14v-.87h-4c-.31,0-.47-.14-.47-.43s.16-.43.47-.43h4v0a.42.42,0,0,1,.48-.47h.9a.41.41,0,0,1,.47.47v0h4c.32,0,.48.14.48.43s-.16.43-.48.43h-4v.87a.57.57,0,0,1,0,.14h5.05c.32,0,.48.15.48.44s-.16.43-.48.43h-2.21v.85h2.11c.32,0,.48.15.48.43s-.16.44-.48.44h-2.11v2.94c0,.33-.16.49-.49.47Zm-.5-2.15c.23,0,.34.17.34.34a.43.43,0,0,1-.06.22l0,.06a.51.51,0,0,1-.44.27h-.08l-.11,0-2.93-.81c-.23,0-.34-.17-.34-.34a.54.54,0,0,1,0-.22l0-.06a.51.51,0,0,1,.44-.27h.08l.1,0Zm2-6.91a.47.47,0,0,1-.57.34l-.77-.15q-.36-.08-.36-.36a.7.7,0,0,1,0-.23l1.16-2.82a.46.46,0,0,1,.58-.33l.76.15q.36.06.36.36a.74.74,0,0,1,0,.23l-.39.94H208c.32,0,.48.14.48.43s-.16.43-.48.43h-.71a.59.59,0,0,1,0,.21l-.55,1.51a.49.49,0,0,1-.58.35l-.78-.13c-.26,0-.39-.18-.39-.38a.79.79,0,0,1,0-.2l.5-1.36H204Z" class="cls-6"/></g><rect data-cppathid="10008" rx="5.07" height="35.3" width="165.16" y="1117.83" x="119.68" class="cls-7"/><g class="cls-8"><path data-cppathid="10009" transform="translate(0 0)" d="M195.49,1134.24a.31.31,0,0,1-.39.26l-.58-.07c-.19,0-.29-.12-.29-.28a1,1,0,0,1,0-.12l.69-2.49a.31.31,0,0,1,.39-.26l.58.07c.19,0,.29.11.29.28a.89.89,0,0,1,0,.11l-.2.71h2.19q.33,0,.33.3t-.33.3h-.71l.16.84a.22.22,0,0,1,0,.09c0,.17-.09.27-.29.29l-.6.06a.31.31,0,0,1-.37-.29l-.18-.94a.07.07,0,0,1,0,0h-.37Zm3.09,5.82c-.21,0-.31-.11-.31-.28s.11-.34.35-.32l1.44.07v-1.71h-5.47c-.22,0-.34-.1-.34-.31s.12-.3.34-.3h5.47v-.59h-5.49c-.22,0-.34-.1-.34-.3s.12-.3.34-.3h3.53a.31.31,0,0,1,0-.1v-.61H195.3q-.33,0-.33-.3t.33-.3h2.79v0a.29.29,0,0,1,.33-.33H199a.29.29,0,0,1,.33.33v0h2.79q.33,0,.33.3t-.33.3h-2.79v.61a.31.31,0,0,1,0,.1h3.52c.22,0,.34.1.34.3s-.12.3-.34.3h-1.54v.59h1.47q.33,0,.33.3c0,.21-.11.31-.33.31h-1.47v2c0,.23-.11.33-.34.32Zm-.35-1.5q.24.06.24.24a.33.33,0,0,1,0,.15l0,0a.34.34,0,0,1-.3.19h-.06l-.07,0-2-.56q-.24-.06-.24-.24a.37.37,0,0,1,0-.15l0,0a.34.34,0,0,1,.3-.19h.07l.07,0Zm1.39-4.81a.31.31,0,0,1-.4.23l-.53-.1c-.17,0-.25-.11-.25-.25a.55.55,0,0,1,0-.16l.8-2a.33.33,0,0,1,.41-.23l.53.1c.17,0,.25.12.25.25a.5.5,0,0,1,0,.16l-.27.66h2.51q.33,0,.33.3t-.33.3h-.49a.39.39,0,0,1,0,.14l-.38,1.06a.35.35,0,0,1-.4.24l-.55-.09c-.18,0-.27-.12-.27-.27a.39.39,0,0,1,0-.14l.34-.94h-1Z" class="cls-9"/></g></g></g><g data-name="report card" id="report_card"><path data-cppathid="10010" transform="translate(0 0)" d="M403.28,634.17a12.38,12.38,0,0,1-12.39,12.37H12.38A12.37,12.37,0,0,1,0,634.17V572.74a12.38,12.38,0,0,1,12.38-12.38H390.89a12.39,12.39,0,0,1,12.39,12.38Z" class="cls-10"/><path data-cppathid="10011" transform="translate(0 0)" d="M152.33,613.85a.72.72,0,0,1-.81.81H150a.72.72,0,0,1-.82-.81v-3.12h-1.54c-.54,0-.81-.24-.81-.73s.27-.74.81-.74h1.54V607a.8.8,0,0,1,.18-.56h-2.73c-.54,0-.81-.25-.81-.74s.27-.74.81-.74h.88a.88.88,0,0,1-.22-.58l-.17-2.46a1.58,1.58,0,0,1,0-.32h-.89c-.54,0-.81-.25-.81-.74s.27-.73.81-.73h3.05v-3.42H147c-.54,0-.81-.24-.81-.73s.27-.74.81-.74h2.31v-1.45a.72.72,0,0,1,.81-.81h1.52a.72.72,0,0,1,.81.81v1.45h2c.54,0,.81.25.81.74s-.27.73-.81.73h-2v3.42h2.78c.54,0,.81.24.81.73s-.27.74-.81.74h-.35a1.24,1.24,0,0,1,0,.39l-.4,3h.37c.54,0,.81.25.81.74s-.27.74-.81.74h-2.72a.85.85,0,0,1,.17.56v2.31h1.55c.54,0,.81.25.81.74s-.27.73-.81.73h-1.55Zm-1.89-9.67a.74.74,0,0,1-.35.73h1.33s0-.09,0-.19l.42-3a.77.77,0,0,0,0-.15h-1.62a.47.47,0,0,1,0,.17Zm8.84,9.28a.72.72,0,0,1-.81.81h-1.53a.72.72,0,0,1-.81-.81V594.58a.72.72,0,0,1,.81-.81h1.53a1.12,1.12,0,0,1,.32,0h6.5a.72.72,0,0,1,.81.81v6.44c0,.57-.28.82-.85.74l-3.69-.5c-.47,0-.71-.25-.71-.61a.79.79,0,0,1,.05-.24v0a.77.77,0,0,1,1-.61l1.1.14v-4.66h-3.68v8.1H165c.47,0,.71.19.71.57a1.12,1.12,0,0,1-.08.37l-2,5,2,3.1a.84.84,0,0,1,.17.46c0,.28-.19.49-.57.62l-1,.32a.94.94,0,0,1-.37.07.84.84,0,0,1-.71-.44l-.74-1.11-.32.84a.8.8,0,0,1-1,.56l-1.32-.24a.79.79,0,0,1-.54-.3Zm2.31-7.17.07.1.59-1.52h-3v1.47l.22-.1,1-.32a1,1,0,0,1,.36-.07A.87.87,0,0,1,161.59,606.29Zm-2.31,1.3v4.89l1.2-3.07Z" class="cls-11"/><path data-cppathid="10012" transform="translate(0 0)" d="M172.86,602.14a.92.92,0,0,1-.74.47l-.15,0-.17,0-1.1-.32c-.38-.13-.57-.35-.57-.64a.86.86,0,0,1,.15-.44l4.49-7.3a.91.91,0,0,1,.74-.46h.15l.17,0,1.1.32q.57.19.57.63a1,1,0,0,1-.15.45L175.41,598h4v-3.41a.72.72,0,0,1,.81-.81h1.52a.72.72,0,0,1,.81.81V598h5.94c.54,0,.81.25.81.74s-.27.73-.81.73h-5.94V603a.84.84,0,0,1,0,.29h7.69c.54,0,.81.25.81.74s-.27.74-.81.74H171c-.54,0-.81-.25-.81-.74s.27-.74.81-.74h8.42a.85.85,0,0,1,0-.29v-3.54h-4.18a.8.8,0,0,1-.56-.17Zm-1,5.43a.72.72,0,0,1,.81-.81h1.52a.74.74,0,0,1,.64.27h13.6a.72.72,0,0,1,.81.81V614a.72.72,0,0,1-.81.81h-1.52a.85.85,0,0,1-.6-.19.67.67,0,0,1-.21-.5H175a.71.71,0,0,1-.81.69h-1.52a.72.72,0,0,1-.81-.81Zm14.24.93H175v4.1h11.1Z" class="cls-11"/><path data-cppathid="10013" transform="translate(0 0)" d="M199.23,613.63a.8.8,0,0,1-.76.57h-.12a.21.21,0,0,1-.12,0l-1.31-.27c-.41-.08-.61-.28-.61-.61a1.15,1.15,0,0,1,.07-.39l5.46-12.82h-6.05c-.54,0-.81-.25-.81-.74s.27-.74.81-.74h6.66l1.06-2.48a.8.8,0,0,1,.76-.56h.12l.12,0,1.3.27c.41.08.62.29.62.62a1.29,1.29,0,0,1-.08.39l-.73,1.74h8.64c.51,0,.76.22.76.64a.61.61,0,0,1,0,.14.93.93,0,0,1,0,.13l-3.46,13.9a.75.75,0,0,1-1,.64l-4.93-.81c-.45-.08-.67-.29-.67-.62a.59.59,0,0,1,0-.13.61.61,0,0,1,0-.13l0-.05a.77.77,0,0,1,.76-.59h.11l.11,0,2.65.47,3.05-12.13H205Z" class="cls-11"/><path data-cppathid="10014" transform="translate(0 0)" d="M235.23,603.88c.54,0,.81.25.81.74s-.27.74-.81.74H218.68c-.54,0-.81-.25-.81-.74s.27-.74.81-.74Z" class="cls-11"/><path data-cppathid="10015" transform="translate(0 0)" d="M244.47,613.44a.72.72,0,0,1-.81.81h-1.53a.72.72,0,0,1-.81-.81V596.37a.72.72,0,0,1,.81-.81h1.53a.72.72,0,0,1,.81.81v7l8.89,2.88c.37.13.56.32.56.59a.72.72,0,0,1-.15.41l-.1.13a.82.82,0,0,1-.71.41h-.16l-.18,0-8.15-2.62ZM252,600.2a1.87,1.87,0,0,1,0,.27.64.64,0,0,1-.66.69l-.71.1a.75.75,0,0,1-.94-.64l-1.28-5.16a1.87,1.87,0,0,1,0-.27.64.64,0,0,1,.66-.69l.72-.1a.75.75,0,0,1,.95.64Zm2.7-1.5a1.87,1.87,0,0,1,0,.27c0,.38-.21.61-.64.69l-.71.12a.76.76,0,0,1-1-.64l-1.25-4.81a.83.83,0,0,1,0-.15s0-.1,0-.14c0-.36.22-.58.66-.67l.72-.12a.74.74,0,0,1,1,.64Z" class="cls-11"/><path data-cppathid="10016" transform="translate(0 0)" d="M360.4,637.18a.67.67,0,0,1-.42.4,1.9,1.9,0,0,1-.63.11h-1.41q-1.08,0-1.08-.75a2.6,2.6,0,0,1,.33-1.11l4.68-9.54-4.68-9.54a3.17,3.17,0,0,1-.36-1.17.56.56,0,0,1,.28-.56,2,2,0,0,1,.83-.13h1.41a1.89,1.89,0,0,1,.63.1.68.68,0,0,1,.42.41l3.42,7,3.42-7a.79.79,0,0,1,.45-.41,1.8,1.8,0,0,1,.6-.1h1.41q1.08,0,1.08.75a2.46,2.46,0,0,1-.33,1.11l-4.68,9.54,4.68,9.54a3,3,0,0,1,.39,1.2.51.51,0,0,1-.3.52,2.09,2.09,0,0,1-.84.14h-1.41a1.81,1.81,0,0,1-.6-.11.77.77,0,0,1-.45-.4l-3.42-7Z" class="cls-12"/><path data-cppathid="10017" transform="translate(0 0)" d="M385.81,635.89a1.07,1.07,0,0,1,.72.25.82.82,0,0,1,.3.65.8.8,0,0,1-.3.64,1.08,1.08,0,0,1-.72.26H374.2a1,1,0,0,1-1-1V615.91a1,1,0,0,1,1-1H376a1,1,0,0,1,1,1v20Z" class="cls-12"/></g><g data-name="Scholarship PBI" id="Scholarship_PBI"><path data-cppathid="10018" transform="translate(0 0)" d="M403.28,933.31a12.39,12.39,0,0,1-12.39,12.38H12.38A12.38,12.38,0,0,1,0,933.31V871.88a12.37,12.37,0,0,1,12.38-12.37H390.89a12.38,12.38,0,0,1,12.39,12.37Z" class="cls-10"/><path data-cppathid="10019" transform="translate(0 0)" d="M141.76,913.32a1.61,1.61,0,0,1-.4.07.86.86,0,0,1-.71-.44l0-.05a1,1,0,0,1-.15-.47c0-.28.19-.48.56-.61a23.11,23.11,0,0,0,6.54-3.05h-6.19c-.54,0-.81-.24-.81-.73s.27-.74.81-.74h7.54a3.29,3.29,0,0,0,.34-.84.84.84,0,0,1,.86-.73h1.52l.42,0a.57.57,0,0,1-.1-.34.71.71,0,0,1,.86-.81l4,.17v-3.61h-8.38c-.54,0-.81-.25-.81-.74s.27-.73.81-.73h8.38a.72.72,0,0,1,.81-.72h1.52a.85.85,0,0,1,.6.2.67.67,0,0,1,.21.52h1.18c.54,0,.81.24.81.73s-.27.74-.81.74H160v4.39a.83.83,0,0,1-.22.62.77.77,0,0,1-.61.2l-6.44-.3-.24,0v0a3.85,3.85,0,0,1-.37,1.23h8.77c.54,0,.81.24.81.74s-.27.73-.81.73h-8l8.4,3.05c.36.13.54.32.54.59a.67.67,0,0,1-.17.44l-.1.15a.86.86,0,0,1-.69.39.48.48,0,0,1-.2,0l-.22-.06-10.41-3.78A29.62,29.62,0,0,1,141.76,913.32Zm5.13-8.13a.72.72,0,0,1-.81.81h-1.52a.72.72,0,0,1-.82-.81v-1.72l-1.52.71a.92.92,0,0,1-.44.1.88.88,0,0,1-.66-.3l-.13-.12a.78.78,0,0,1-.27-.54c0-.24.16-.44.47-.59l2.53-1.18h0v-4l-2.43-1.42c-.28-.18-.41-.37-.41-.57a.8.8,0,0,1,.34-.56l.25-.2a1,1,0,0,1,.63-.24.91.91,0,0,1,.49.15l1.13.66v-1.77a.72.72,0,0,1,.82-.81h1.52a.72.72,0,0,1,.81.81Zm2.26-10.27a.85.85,0,0,1-.64-.19.8.8,0,0,1-.25-.64c0-.4.25-.62.74-.67l11.12-.83a.77.77,0,0,1,.67.2.89.89,0,0,1,.24.66c0,.38-.24.59-.73.64Zm2.87,2.85a1.6,1.6,0,0,1,0,.27q0,.62-.69.69l-1.37.17a.8.8,0,0,1-1-.61l-.62-2.14,0-.15a.71.71,0,0,1,0-.14c0-.4.22-.62.66-.67l1.4-.17a.8.8,0,0,1,1,.61Zm2.14,5.11c.32.15.49.34.49.59a.71.71,0,0,1-.25.49l-.17.17a.92.92,0,0,1-.66.3,1,1,0,0,1-.44-.1l-3-1.4c-.33-.15-.49-.35-.49-.59a.69.69,0,0,1,.24-.49l.18-.18a.94.94,0,0,1,1.1-.19Zm1.72-5.26a1.69,1.69,0,0,1,0,.25q0,.61-.69.69l-1.42.17a.79.79,0,0,1-.93-.66l-.5-2a.77.77,0,0,1,0-.15v-.12c0-.4.22-.62.66-.67l1.43-.17a.79.79,0,0,1,.93.66Zm3.9.27a.8.8,0,0,1-1,.62l-1.4-.22c-.44,0-.66-.27-.66-.67a1.58,1.58,0,0,1,.05-.29l.66-2.24a.8.8,0,0,1,1-.61l1.4.22q.66.07.66.66a1,1,0,0,1-.05.3Z" class="cls-11"/><path data-cppathid="10020" transform="translate(0 0)" d="M171.4,913.27c-.43-.1-.64-.31-.64-.62a.62.62,0,0,1,.07-.29l0-.05a.75.75,0,0,1,.73-.54l.27,0,2,.42v-4.15h-7.74c-.54,0-.81-.25-.81-.74s.27-.73.81-.73h7.74v-.1a1.41,1.41,0,0,1,.41-1l3.29-3.09h-7.24c-.54,0-.81-.25-.81-.74s.27-.74.81-.74H181c.46,0,.69.16.69.47a.83.83,0,0,1-.3.54L177,906.05v.54h8.18c.54,0,.81.24.81.73s-.27.74-.81.74H177v5.45c0,.51-.22.76-.66.76l-.22,0Zm-5.75-15.38a.72.72,0,0,1,.81-.81h1.06l-1-3.14a.83.83,0,0,1,0-.15.76.76,0,0,1,0-.15q0-.58.66-.66l1.4-.19a.76.76,0,0,1,1,.59l1,3.41a.83.83,0,0,1,0,.15.61.61,0,0,1,0,.14,1,1,0,0,1,0,.2h3.78l-.94-3.41,0-.15a.76.76,0,0,1,0-.15q0-.59.66-.66l1.42-.17a.76.76,0,0,1,1,.64l1,3.46a.89.89,0,0,1,0,.14.77.77,0,0,1,0,.15.4.4,0,0,1,0,.15h2.9v-.12a1.25,1.25,0,0,1,.07-.4l1.43-3.48a.78.78,0,0,1,1-.57l1.3.25c.41.08.62.28.62.61a1.18,1.18,0,0,1-.08.39l-1.35,3.32H186c.51,0,.76.21.76.64a.53.53,0,0,1,0,.13,1,1,0,0,1,0,.14l-.74,2.94a.79.79,0,0,1-.93.67l-1.42-.17q-.69-.07-.69-.69a1.69,1.69,0,0,1,0-.25l.49-1.94H168.79v2.14a.72.72,0,0,1-.81.81h-1.52a.72.72,0,0,1-.81-.81Z" class="cls-11"/><path data-cppathid="10021" transform="translate(0 0)" d="M199.24,892.07a.86.86,0,0,1,.62-.27,1.23,1.23,0,0,1,.49.13l.66.32c.3.14.44.31.44.51a2.2,2.2,0,0,1,.25.17l9,7.89a.7.7,0,0,1,.29.54.75.75,0,0,1-.42.59l-.58.31a1,1,0,0,1-.52.15,1,1,0,0,1-.61-.27l-8.8-7.71-8.2,7.69a.84.84,0,0,1-.61.27,1.19,1.19,0,0,1-.49-.13l-.67-.31c-.29-.15-.44-.34-.44-.57a.81.81,0,0,1,.3-.56Zm2.21,19.21a.9.9,0,0,1,0,.34h6.1c.54,0,.81.25.81.74s-.27.73-.81.73H192.27c-.54,0-.81-.24-.81-.73s.27-.74.81-.74h6.09a1.16,1.16,0,0,1-.05-.34v-5.55H191.7c-.54,0-.81-.25-.81-.74s.27-.74.81-.74h6.61v-2.58a1.21,1.21,0,0,1,.07-.41H195c-.54,0-.81-.25-.81-.74s.27-.74.81-.74h9.68c.54,0,.81.25.81.74s-.27.74-.81.74h-3.36a.86.86,0,0,1,.09.41v2.58h6.61c.54,0,.81.25.81.74s-.27.74-.81.74h-6.61ZM197,910a1.57,1.57,0,0,1,0,.32c0,.38-.22.59-.66.64l-1.38.19-.1,0h-.1a.75.75,0,0,1-.76-.62l-1-3a1.48,1.48,0,0,1-.05-.32c0-.37.22-.59.66-.63l1.38-.2h.2a.74.74,0,0,1,.76.61Zm9.33.52a.77.77,0,0,1-1,.61l-1.37-.22c-.44,0-.66-.26-.66-.64a1.45,1.45,0,0,1,0-.32l1-3.09a.78.78,0,0,1,1-.62l1.37.22c.45,0,.67.27.67.64a1.57,1.57,0,0,1,0,.32Z" class="cls-11"/><path data-cppathid="10022" transform="translate(0 0)" d="M215.65,913.41c-.48-.08-.71-.28-.71-.61a.65.65,0,0,1,0-.22q.19-.76.66-.69l.49.07v-3.68l-.09.07a.9.9,0,0,1-.57.2,1,1,0,0,1-.56-.2l-.4-.27a.72.72,0,0,1-.36-.56.68.68,0,0,1,.36-.56l1.62-1.13v-6.17h-1.3c-.54,0-.81-.24-.81-.74s.27-.73.81-.73h1.3v-5.31a.72.72,0,0,1,.81-.81h1.53a.72.72,0,0,1,.81.81v5.31h1c.54,0,.81.24.81.73s-.27.74-.81.74h-1v4a.89.89,0,0,1,.51-.17.84.84,0,0,1,.57.2l.39.27a.67.67,0,0,1,.37.56.73.73,0,0,1-.37.57l-1.47,1V913c0,.59-.29.84-.86.76Zm6.58-18.56a1,1,0,0,1-.66-.19.75.75,0,0,1-.27-.65c0-.37.24-.59.73-.63l12.18-1a.89.89,0,0,1,.68.17.84.84,0,0,1,.26.67c0,.37-.25.59-.74.64Zm2.48,7.36a.72.72,0,0,1-.81.82h-1.52a.72.72,0,0,1-.81-.82V900a.72.72,0,0,1,.81-.81H223l-.66-2.68a.78.78,0,0,1,0-.24q0-.62.69-.69l1.42-.17a.8.8,0,0,1,.94.66l.66,2.7a.94.94,0,0,1,0,.25.78.78,0,0,1,0,.22h.71a.81.81,0,0,1-.07-.22l-.57-2.9a1,1,0,0,1,0-.2c0-.42.24-.66.74-.71l1.47-.15a.76.76,0,0,1,.91.69l.54,2.9a1.09,1.09,0,0,1,0,.22.62.62,0,0,1-.1.37H230v-.07a.77.77,0,0,1,0-.15,1.22,1.22,0,0,1,0-.17l1.06-3.39a.78.78,0,0,1,1-.62l1.4.22c.42.05.63.27.63.64v.15a.38.38,0,0,1,0,.17l-1,3.22h1.35c.59,0,.84.29.76.86l-.29,2.09a.77.77,0,0,1-.89.71l-1.47-.1c-.57,0-.82-.33-.74-.88l.17-1.21h-7.24Zm-1.4,11.13-.15,0H223a.74.74,0,0,1-.72-.59,1.55,1.55,0,0,1,0-.17.77.77,0,0,1,0-.15c0-.31.2-.52.59-.64a13,13,0,0,0,2.11-.92,11.15,11.15,0,0,0,2.29-1.58l-3.1-2.12a.73.73,0,0,1-.39-.58.66.66,0,0,1,.37-.54l.39-.27a.9.9,0,0,1,.57-.2.76.76,0,0,1,.56.2l3,2.06a7.29,7.29,0,0,0,.86-1.41,5.36,5.36,0,0,0,.44-1.59h-6.31c-.54,0-.81-.24-.81-.73s.27-.74.81-.74h8.67a.76.76,0,0,1,.62.26,1,1,0,0,1,.21.77,5.57,5.57,0,0,1-.77,2.55,9.73,9.73,0,0,1-1.76,2.21l3.78,2.58a.74.74,0,0,1,.4.59.72.72,0,0,1-.37.54l-.39.27a.84.84,0,0,1-.57.2,1,1,0,0,1-.56-.2L229,910.54a19.55,19.55,0,0,1-3,1.78A17.16,17.16,0,0,1,223.31,913.34Z" class="cls-11"/><path data-cppathid="10023" transform="translate(0 0)" d="M245,911.55c-.42-.1-.64-.3-.64-.59a.69.69,0,0,1,.08-.32l0,0a.83.83,0,0,1,.79-.54h.12l.12,0,6.56,1.45,1-4.32H239.42c-.54,0-.81-.24-.81-.74s.27-.73.81-.73h14l.62-2.68h-9.68c-.57,0-.84-.28-.79-.84l.84-9.28a.71.71,0,0,1,.86-.73l1.52.07a.7.7,0,0,1,.76.86l-.29,3.14h10.48c.54,0,.81.25.81.74s-.27.74-.81.74H247.15l-.34,3.83h9.82c.49,0,.74.21.74.63a1.57,1.57,0,0,1,0,.25l-.77,3.27h3.25c.54,0,.81.24.81.73s-.27.74-.81.74h-3.59l-1.33,5.7a.7.7,0,0,1-.71.64h-.12a.21.21,0,0,1-.12,0Z" class="cls-11"/></g><g data-name="Alumni PBI" id="Alumni_PBI"><path data-cppathid="10024" transform="translate(0 0)" d="M403.28,833.6A12.38,12.38,0,0,1,390.89,846H12.38A12.37,12.37,0,0,1,0,833.6V772.17a12.38,12.38,0,0,1,12.38-12.38H390.89a12.39,12.39,0,0,1,12.39,12.38Z" class="cls-10"/><path data-cppathid="10025" transform="translate(0 0)" d="M152.68,795.94V796h8.18c.54,0,.81.24.81.73s-.27.74-.81.74h-19.5c-.54,0-.81-.24-.81-.74s.27-.73.81-.73h8.18V793.1a.72.72,0,0,1,.81-.81h1.52a.72.72,0,0,1,.81.81Zm0,17.44a.72.72,0,0,1-.81.81h-1.52a.72.72,0,0,1-.81-.81v-2.55h-8.18c-.54,0-.81-.25-.81-.74s.27-.74.81-.74h8.18v-2a.72.72,0,0,1,.81-.81h1.52a.72.72,0,0,1,.81.81v2h8.18c.54,0,.81.25.81.74s-.27.74-.81.74h-8.18Zm-9.21-6.07a.87.87,0,0,1-.73.47h-.15l-.17,0-1.11-.32c-.37-.13-.56-.33-.56-.61a.92.92,0,0,1,.15-.47l4.91-8.1a.9.9,0,0,1,.73-.47h.15l.17,0,1.11.32c.37.13.56.34.56.61a1.08,1.08,0,0,1-.14.47l-1.58,2.6,0,0,3.24,3a.69.69,0,0,1,.3.54c0,.23-.15.42-.45.56l-.61.32a.93.93,0,0,1-.49.15.92.92,0,0,1-.64-.29l-2.55-2.39Zm11-1.44a.9.9,0,0,1-.77.44,1.5,1.5,0,0,1-.31,0l-1.06-.32c-.38-.13-.57-.33-.57-.59a.59.59,0,0,1,0-.23l.13-.24,4.37-6.68a.88.88,0,0,1,.76-.44,1.57,1.57,0,0,1,.32,0l1,.32c.38.13.57.33.57.59a.63.63,0,0,1-.05.22,1.87,1.87,0,0,1-.12.25l-1.67,2.55a.82.82,0,0,1,.22.2l3.88,4.37a.72.72,0,0,1,.24.51c0,.27-.16.46-.49.59l-.81.35a1,1,0,0,1-.44.09.81.81,0,0,1-.66-.34l-3.29-3.71Z" class="cls-11"/><path data-cppathid="10026" transform="translate(0 0)" d="M177.24,813.58a.72.72,0,0,1-.81.81h-1.52a.72.72,0,0,1-.81-.81V811l-6.39,2.63a1,1,0,0,1-.42.09.91.91,0,0,1-.68-.36l-.08-.1a.87.87,0,0,1-.22-.52c0-.26.17-.46.49-.59l4.67-1.91h-5.55c-.54,0-.81-.25-.81-.74s.27-.74.81-.74h8.18v-1.25h-7.22c-.54,0-.81-.24-.81-.74s.27-.73.81-.73h7.22v-1.13h-7.93c-.55,0-.82-.25-.82-.74s.27-.74.82-.74h4l-.59-3.61a1,1,0,0,1,0-.22h-3.66c-.54,0-.81-.24-.81-.73s.27-.74.81-.74h5.72v-4.84a.72.72,0,0,1,.81-.81h1.53a.72.72,0,0,1,.81.81v4.84h1.89v-4.84a.72.72,0,0,1,.81-.81H179a.72.72,0,0,1,.81.81v4.84h5.92c.54,0,.81.25.81.74s-.27.73-.81.73h-3.93v0a.78.78,0,0,1,0,.24l-.83,3.56h4.15c.54,0,.81.25.81.74s-.27.74-.81.74h-7.81V806h7.2c.54,0,.81.24.81.73s-.27.74-.81.74h-7.2v1.25h8.18c.54,0,.81.25.81.74s-.27.74-.81.74h-5.75l5,1.94c.36.14.54.34.54.59a.77.77,0,0,1-.2.44l-.12.15a.9.9,0,0,1-.71.36,1.25,1.25,0,0,1-.4-.07l-6.53-2.58Zm-7-17a.9.9,0,0,1,0,.25q0,.58-.69.66l-1.48.15a.76.76,0,0,1-.93-.66l-.69-3.15a.37.37,0,0,1,0-.12v-.12c0-.4.24-.62.71-.67l1.47-.14a.77.77,0,0,1,.94.68Zm3,6.63a1.18,1.18,0,0,1,0,.22h4.55v0a.94.94,0,0,1,0-.25l.83-3.56h-6ZM184.58,797a.75.75,0,0,1-.91.69l-1.47-.15c-.56,0-.78-.35-.69-.91l.59-2.89A.76.76,0,0,1,183,793l1.48.15c.55,0,.78.35.68.9Z" class="cls-11"/><path data-cppathid="10027" transform="translate(0 0)" d="M192.07,803.93a.79.79,0,0,1-.76.54h-.12a.21.21,0,0,1-.12,0l-1.23-.24c-.41-.1-.62-.32-.62-.67a1,1,0,0,1,.08-.37l4.3-9.38a.79.79,0,0,1,.76-.54h.12a.21.21,0,0,1,.12,0l1.23.24c.41.1.61.31.61.62a1,1,0,0,1-.09.41L195,797.47h4.35v-4.32a.72.72,0,0,1,.81-.82h1.52a.72.72,0,0,1,.81.82v4.32h6.68c.54,0,.81.24.81.73s-.27.74-.81.74h-6.68v6.16h5.7c.54,0,.81.25.81.74s-.27.74-.81.74h-5.7v5.33h7.42c.54,0,.81.24.81.73s-.27.74-.81.74h-19.5c-.54,0-.81-.25-.81-.74s.27-.73.81-.73h8.94v-5.33h-6.58c-.54,0-.82-.25-.82-.74s.28-.74.82-.74h6.58v-6.16h-5Z" class="cls-11"/><path data-cppathid="10028" transform="translate(0 0)" d="M222.82,797c.54,0,.81.25.81.74s-.27.73-.81.73h-7.49c-.54,0-.81-.24-.81-.73s.27-.74.81-.74Zm.64,15.94a.72.72,0,0,1-.81.81h-1.53a.73.73,0,0,1-.71-.37h-2.55a.71.71,0,0,1-.81.69h-1.52a.72.72,0,0,1-.82-.81V808a.72.72,0,0,1,.82-.81h1.52a.77.77,0,0,1,.69.32h4.91a.72.72,0,0,1,.81.81Zm-1-12.33c.54,0,.81.25.81.74s-.27.73-.81.73h-6.78c-.54,0-.81-.24-.81-.73s.27-.74.81-.74Zm-.07,3.68c.54,0,.81.25.81.74s-.27.74-.81.74H215.8c-.54,0-.82-.25-.82-.74s.28-.74.82-.74Zm-.47-9.65c.34.15.52.35.52.59a.77.77,0,0,1-.2.47l-.12.15a.94.94,0,0,1-.69.36,1,1,0,0,1-.42-.09l-4.69-1.94c-.34-.15-.51-.35-.51-.59a.75.75,0,0,1,.19-.47l.12-.15a1,1,0,0,1,.69-.37,1,1,0,0,1,.42.1ZM220.31,809h-2.45v2.93h2.45Zm12.26,1.4a.72.72,0,0,1,.81-.81h1.52a.72.72,0,0,1,.81.81v2.19a.72.72,0,0,1-.81.81h-9.23a.72.72,0,0,1-.81-.81V802.45a.72.72,0,0,1,.81-.81h1.52a.75.75,0,0,1,.69.32h3.83v-6.51h-7.3c-.54,0-.81-.24-.81-.73s.27-.74.81-.74H234a.72.72,0,0,1,.81.81v8.1a.72.72,0,0,1-.81.82h-1.52a.71.71,0,0,1-.64-.28H228v8.48h4.57Z" class="cls-11"/><path data-cppathid="10029" transform="translate(0 0)" d="M247.06,811.1a.79.79,0,0,1,.81.34.92.92,0,0,1,.12-.27l2-3.22a.88.88,0,0,1,.76-.44,1.57,1.57,0,0,1,.32,0l1,.32c.38.13.57.33.57.59a.68.68,0,0,1,0,.22,1.87,1.87,0,0,1-.12.25l-2,3.21a.87.87,0,0,1-.76.44,1.09,1.09,0,0,1-.32-.05l-1.06-.31a1.19,1.19,0,0,1-.39-.2q0,.47-.69.54l-6.41.74a.8.8,0,0,1-.93-.67.5.5,0,0,1,0-.19c0-.35.24-.56.72-.64l1.77-.2V806H240.5c-.54,0-.81-.24-.81-.73s.27-.74.81-.74h1.92V802a1.09,1.09,0,0,1,.07-.42h-.39a.78.78,0,0,1-.62-.22l-.37.72a.83.83,0,0,1-.76.51l-.27,0-1.2-.29c-.38-.1-.57-.31-.57-.62a1,1,0,0,1,.1-.41l4.3-8.45a.82.82,0,0,1,.76-.52l.27,0,1.2.3c.38.09.57.3.57.61v0a1.57,1.57,0,0,1,.32.35l3.41,5.65a.89.89,0,0,1,.15.46c0,.31-.19.52-.57.62l-1.1.32a.75.75,0,0,1,0,.22c0,.49-.27.73-.81.73h-1.47a.82.82,0,0,1,.1.42v2.58h1.89c.54,0,.81.25.81.74s-.27.73-.81.73h-1.89v5.26Zm-4.94-.64c0,.52-.19.8-.56.83l-1.08.05c-.38,0-.58-.22-.59-.76l-.13-3c0-.52.15-.8.54-.83l1.08,0c.38,0,.58.22.59.76Zm0-10.39h4.49l-2.45-4Zm5.94,10.14c-.08.53-.28.76-.61.71l-1-.12c-.41,0-.58-.35-.49-.91l.29-2.53c.08-.52.29-.76.61-.71l1,.12c.39.05.55.36.47.91Zm4.23-4.79a1.08,1.08,0,0,1,.12.45c0,.31-.19.51-.57.61l-1.15.29-.15,0h-.14a.81.81,0,0,1-.74-.49l-1.45-2.58a1,1,0,0,1-.12-.44c0-.31.19-.51.56-.61l1.16-.3.14,0,.15,0a.83.83,0,0,1,.74.5Zm-1,8.21c-.49,0-.74-.26-.74-.62a.86.86,0,0,1,.26-.67.82.82,0,0,1,.68-.19l1.2.13V801.94H249c-.54,0-.81-.25-.81-.74s.27-.74.81-.74h7.12v-2.18h-6.6c-.54,0-.81-.25-.81-.74s.27-.74.81-.74h6.6v-2.18h-7c-.54,0-.81-.25-.81-.74s.27-.73.81-.73h9.36a.72.72,0,0,1,.81.81v6.5h.05c.54,0,.81.25.81.74s-.27.74-.81.74h-3.42v3.48l1.35-2.3a.85.85,0,0,1,.74-.47h.15l.17,0,1.1.29c.38.1.57.3.57.59a1,1,0,0,1-.15.47l-1.89,3.22a.86.86,0,0,1-.74.46H257l-.18,0-.68-.17,3.61,3.88a.76.76,0,0,1,.24.54c0,.25-.16.44-.49.59l-.76.32a.87.87,0,0,1-.42.1,1,1,0,0,1-.69-.35l-1.79-1.94v2.58c0,.56-.28.81-.86.76Z" class="cls-11"/></g><g id="GPA"><path data-cppathid="10030" transform="translate(0 0)" d="M403.28,534.45a12.39,12.39,0,0,1-12.39,12.38H12.38A12.38,12.38,0,0,1,0,534.45V473a12.38,12.38,0,0,1,12.38-12.38H390.89A12.39,12.39,0,0,1,403.28,473Z" class="cls-10"/><path data-cppathid="10031" transform="translate(0 0)" d="M187.9,507c-.54,0-.81-.25-.81-.74s.27-.74.81-.74h5.65a.73.73,0,0,1,.83.81,9.17,9.17,0,0,1-.76,3.86,6,6,0,0,1-2.2,2.6,6.25,6.25,0,0,1-3.52.94,7.06,7.06,0,0,1-3.88-1.12,7.87,7.87,0,0,1-2.76-3.13,10.25,10.25,0,0,1-1-4.69,12.34,12.34,0,0,1,.59-3.87,11.87,11.87,0,0,1,1.61-3.27,8,8,0,0,1,2.35-2.25,5.33,5.33,0,0,1,2.84-.83,6.64,6.64,0,0,1,3.25.75,6.83,6.83,0,0,1,2.23,1.92,7.3,7.3,0,0,1,1.2,2.46,1.21,1.21,0,0,1,0,.23c0,.42-.24.65-.73.68l-1.53.08a.84.84,0,0,1-.88-.74,7.94,7.94,0,0,0-.69-1.8,5,5,0,0,0-1.16-1.5,2.55,2.55,0,0,0-1.71-.6,2.3,2.3,0,0,0-1.68.77,6.58,6.58,0,0,0-1.35,2.06,13.3,13.3,0,0,0-.9,2.84,15.32,15.32,0,0,0-.32,3.07,11.57,11.57,0,0,0,.59,3.8,6.54,6.54,0,0,0,1.62,2.68,3.25,3.25,0,0,0,2.31,1,2.3,2.3,0,0,0,1.67-.7,5,5,0,0,0,1.14-1.89,8.74,8.74,0,0,0,.5-2.66Z" class="cls-11"/><path data-cppathid="10032" transform="translate(0 0)" d="M199.12,512.67a.82.82,0,0,1-.83.83h-1.48a.82.82,0,0,1-.83-.83V495.55a.76.76,0,0,1,.21-.54.78.78,0,0,1,.52-.25c.58-.06,1.12-.11,1.64-.13s1,0,1.48,0q8.35,0,8.35,6.46a4.65,4.65,0,0,1-2.1,4.14,11.18,11.18,0,0,1-6.12,1.39h-.41l-.43,0Zm0-16.63v9l1,0a8.53,8.53,0,0,0,2.93-.4,2.76,2.76,0,0,0,1.53-1.3,5.26,5.26,0,0,0,.45-2.35,7.36,7.36,0,0,0-.48-2.93,3,3,0,0,0-1.6-1.59,7.85,7.85,0,0,0-3.05-.49Z" class="cls-11"/><path data-cppathid="10033" transform="translate(0 0)" d="M220.17,512.59a1.6,1.6,0,0,1,.05.27c0,.43-.25.64-.74.64h-1.25a.84.84,0,0,1-.89-.71l-1-4.08h-5l-1,4.08a.84.84,0,0,1-.88.71h-1.26c-.49,0-.73-.21-.73-.64a1,1,0,0,1,.05-.27l4.61-17.06a.85.85,0,0,1,.91-.69h1.62a.84.84,0,0,1,.91.69Zm-8.5-5.35H216l-2.16-8.84Z" class="cls-11"/><path data-cppathid="10034" transform="translate(0 0)" d="M360.71,531.66a1,1,0,0,1,.27-.78,1,1,0,0,1,.75-.3h1.8a.91.91,0,0,1,.69.29,1.09,1.09,0,0,1,.3.7,7.28,7.28,0,0,0,1.26,3.9,3.45,3.45,0,0,0,2.91,1.44,3.73,3.73,0,0,0,2.87-1.08,4.14,4.14,0,0,0,1-2.94,4,4,0,0,0-1.26-2.73,19.25,19.25,0,0,0-3.72-2.91,29.24,29.24,0,0,1-3.49-2,5.21,5.21,0,0,1-1.8-2,6.52,6.52,0,0,1-.53-2.81,4.44,4.44,0,0,1,.74-2.31,5.8,5.8,0,0,1,2.23-2,7.77,7.77,0,0,1,3.78-.83,8.3,8.3,0,0,1,3.27.68A16.6,16.6,0,0,1,375,517.8a1.08,1.08,0,0,1,.6,1,.79.79,0,0,1-.48.75l-.72.36-.22.08a.51.51,0,0,1-.2,0,1,1,0,0,1-.63-.24,28.9,28.9,0,0,0-2.73-2,3.84,3.84,0,0,0-2.07-.65,3,3,0,0,0-2.29,1,3.35,3.35,0,0,0-.92,2.38,5.5,5.5,0,0,0,.74,2.82,6.51,6.51,0,0,0,3,2.31,24.76,24.76,0,0,1,3.74,2.09,10.58,10.58,0,0,1,2.58,2.41,4.66,4.66,0,0,1,.94,2.82,4.87,4.87,0,0,1-1,3,6.73,6.73,0,0,1-2.7,2.09,9.54,9.54,0,0,1-3.93.76,7.47,7.47,0,0,1-8-7.05Z" class="cls-12"/></g><g data-name="Event Calendar PBI" id="Event_Calendar_PBI"><path data-cppathid="10035" transform="translate(0 0)" d="M403.28,733.88a12.39,12.39,0,0,1-12.39,12.38H12.38A12.38,12.38,0,0,1,0,733.88V672.46a12.38,12.38,0,0,1,12.38-12.38H390.89a12.39,12.39,0,0,1,12.39,12.38Z" class="cls-10"/><path data-cppathid="10036" transform="translate(0 0)" d="M105.58,707.33a1,1,0,0,1-.51.15.88.88,0,0,1-.62-.25l-.24-.19a.82.82,0,0,1-.35-.57c0-.2.14-.38.42-.56l17.24-10a1.06,1.06,0,0,1,.52-.15.89.89,0,0,1,.61.24l.25.2a.8.8,0,0,1,.34.57c0,.19-.14.38-.42.56L116,701.31a.79.79,0,0,1,.19.57v11a.72.72,0,0,1-.81.81h-1.52a.72.72,0,0,1-.81-.81V703Z" class="cls-11"/><path data-cppathid="10037" transform="translate(0 0)" d="M145.61,711.48a.73.73,0,0,1,.2.49c0,.26-.17.46-.52.59l-.93.32a1.24,1.24,0,0,1-.39.07.85.85,0,0,1-.69-.39l-8.84-11.47-6,10a.9.9,0,0,1-.76.46h-.15l-.14,0-1.11-.29c-.38-.1-.56-.3-.56-.59a1,1,0,0,1,.14-.47l7.69-12.86a.64.64,0,0,1,.54-.4.77.77,0,0,1,.59.35Zm-2.38-9.4a1,1,0,0,1,0,.27c0,.4-.22.63-.66.68l-.71.1a.73.73,0,0,1-.93-.64l-1.28-5.15a1,1,0,0,1,0-.27.65.65,0,0,1,.67-.69l.71-.1a.76.76,0,0,1,1,.64Zm2.7-1.5a.91.91,0,0,1,0,.27c0,.37-.22.6-.64.69l-.71.12a.75.75,0,0,1-1-.64l-1.26-4.81,0-.15a.76.76,0,0,1,0-.15q0-.54.66-.66l.71-.12a.75.75,0,0,1,1,.63Z" class="cls-11"/><path data-cppathid="10038" transform="translate(0 0)" d="M157.77,699.91c.28.18.41.37.41.57a.72.72,0,0,1-.34.56l-.29.25a1,1,0,0,1-.59.22,1,1,0,0,1-.54-.17l-6.51-4c-.28-.17-.42-.36-.42-.56a.77.77,0,0,1,.35-.57l.29-.24a1,1,0,0,1,.59-.22,1,1,0,0,1,.54.17Zm7.93,2.66a1,1,0,0,1,.56-.18,1,1,0,0,1,.57.2l.32.25a.74.74,0,0,1,.34.56.71.71,0,0,1-.39.57l-14.44,9.08a1,1,0,0,1-.57.17,1,1,0,0,1-.56-.19l-.32-.25a.74.74,0,0,1-.34-.56.69.69,0,0,1,.39-.57Z" class="cls-11"/><path data-cppathid="10039" transform="translate(0 0)" d="M176.36,713.15a.72.72,0,0,1-.81.81H174a.72.72,0,0,1-.81-.81V696.08a.72.72,0,0,1,.81-.81h1.53a.72.72,0,0,1,.81.81v7l8.89,2.87c.37.13.56.33.56.59a.77.77,0,0,1-.15.42l-.09.12a.82.82,0,0,1-.72.42h-.16l-.18,0-8.15-2.63Z" class="cls-11"/><path data-cppathid="10040" transform="translate(0 0)" d="M194,713.35a.8.8,0,0,1-.76.56h-.12l-.12,0-1.3-.27c-.41-.08-.62-.29-.62-.62a1.29,1.29,0,0,1,.08-.39l5.45-12.82h-6c-.54,0-.81-.24-.81-.74s.27-.73.81-.73h6.65l1.06-2.48a.8.8,0,0,1,.76-.57h.12a.21.21,0,0,1,.12,0l1.31.27c.4.08.61.28.61.61a1.15,1.15,0,0,1-.07.39l-.74,1.75H209c.51,0,.76.21.76.64a.53.53,0,0,1,0,.13l0,.14-3.47,13.9a.74.74,0,0,1-1,.63l-4.94-.81c-.44-.08-.66-.28-.66-.61a.53.53,0,0,1,0-.13,1,1,0,0,1,0-.14l0-.05a.79.79,0,0,1,.76-.59h.11a.2.2,0,0,1,.11,0l2.65.46,3.05-12.13h-6.73Z" class="cls-11"/><path data-cppathid="10041" transform="translate(0 0)" d="M230,705a.94.94,0,0,1,1.1.19l.13.13a.78.78,0,0,1,.27.54c0,.24-.16.44-.47.59l-15.64,7.17a1,1,0,0,1-.4.1c-.37,0-.56-.24-.56-.72V696.25a.71.71,0,0,1,.81-.8h1.52a.71.71,0,0,1,.81.8v14.42Z" class="cls-11"/><path data-cppathid="10042" transform="translate(0 0)" d="M242.32,699.91c.28.18.41.37.41.57a.72.72,0,0,1-.34.56l-.29.25a1,1,0,0,1-.59.22,1,1,0,0,1-.54-.17l-6.51-4c-.28-.17-.42-.36-.42-.56a.77.77,0,0,1,.35-.57l.29-.24a1,1,0,0,1,.59-.22,1,1,0,0,1,.54.17Zm7.93,2.66a1,1,0,0,1,.56-.18,1,1,0,0,1,.57.2l.32.25a.74.74,0,0,1,.34.56.71.71,0,0,1-.39.57l-14.44,9.08a1,1,0,0,1-.57.17,1,1,0,0,1-.56-.19l-.32-.25a.74.74,0,0,1-.34-.56.69.69,0,0,1,.39-.57Z" class="cls-11"/><path data-cppathid="10043" transform="translate(0 0)" d="M258.23,705.39a.75.75,0,0,1-.69.47l-.17,0-.17,0-1.16-.3c-.37-.09-.56-.3-.56-.61a1,1,0,0,1,.12-.44l5.48-9.68a.74.74,0,0,1,.69-.46h.17l.17,0,1.15.3c.38.1.57.3.57.61a1,1,0,0,1-.12.44l0,0h10.39c.47,0,.71.18.71.54a1,1,0,0,1-.15.45L265.25,713a.85.85,0,0,1-.73.47h-.15l-.17,0-1.11-.29c-.39-.1-.59-.31-.59-.62a.86.86,0,0,1,.15-.44l3.73-6.46-.05,0-4.69-2.8a.66.66,0,0,1-.41-.57.74.74,0,0,1,.34-.56l.29-.25a.91.91,0,0,1,.62-.24.82.82,0,0,1,.51.17l4.35,2.6,3.88-6.7h-8.37Zm17-9.59a.53.53,0,0,1,0,.2c0,.31-.22.48-.66.52l-.72.07c-.5.07-.82-.09-.93-.48l-1.28-3.9a.88.88,0,0,1,0-.2c0-.31.22-.48.66-.52l.71-.07q.8-.1,1,.48Zm2.71-1.14a1.06,1.06,0,0,1,0,.21c0,.28-.21.46-.64.52l-.71.09c-.53.06-.84-.1-1-.48l-1.25-3.64a.49.49,0,0,1,0-.11.45.45,0,0,1,0-.11c0-.27.22-.44.66-.5l.71-.1c.53-.06.85.1,1,.49Z" class="cls-11"/><path data-cppathid="10044" transform="translate(0 0)" d="M295.41,703.6c.54,0,.81.24.81.73s-.27.74-.81.74H278.86c-.54,0-.81-.24-.81-.74s.27-.73.81-.73Z" class="cls-11"/><path data-cppathid="10045" transform="translate(0 0)" d="M375.81,735.45a1.08,1.08,0,0,1,.72.26.8.8,0,0,1,.3.64.82.82,0,0,1-.3.65,1.07,1.07,0,0,1-.72.25H364.2a1,1,0,0,1-1-1V715.47a1,1,0,0,1,1-1H366a1,1,0,0,1,1,1v20Z" class="cls-12"/></g><g data-name="Attendance PBI" id="Attendance_PBI"><path data-cppathid="10046" transform="translate(0 0)" d="M403.28,434.74a12.39,12.39,0,0,1-12.39,12.38H12.38A12.38,12.38,0,0,1,0,434.74V373.31a12.37,12.37,0,0,1,12.38-12.37H390.89a12.38,12.38,0,0,1,12.39,12.37Z" class="cls-10"/><path data-cppathid="10047" transform="translate(0 0)" d="M165,413v.07h5.33v-5.8a.72.72,0,0,1,.81-.81h1.52a.72.72,0,0,1,.81.81V414a.72.72,0,0,1-.81.81H171.1a.8.8,0,0,1-.64-.25h-16.3a.72.72,0,0,1-.81-.81v-6.46a.72.72,0,0,1,.81-.81h1.52a.72.72,0,0,1,.81.81v5.8h5.33V404h-6.9a.72.72,0,0,1-.81-.81V396a.72.72,0,0,1,.81-.81h1.52a.72.72,0,0,1,.81.81v6.55h4.57v-7.9a.72.72,0,0,1,.81-.81h1.52a.72.72,0,0,1,.81.81v7.9h4.57V396a.72.72,0,0,1,.81-.81h1.52a.72.72,0,0,1,.81.81v7.68a.72.72,0,0,1-.81.81h-1.52a.72.72,0,0,1-.76-.46H165Z" class="cls-11"/><path data-cppathid="10048" transform="translate(0 0)" d="M180.14,414.67a.73.73,0,0,1-.86.76l-1.52-.05a.7.7,0,0,1-.76-.86l1.37-17a.73.73,0,0,1,.86-.76l1.52.05a.78.78,0,0,1,.67.34h6.36a.93.93,0,0,1-.08-.39v-2.53a.72.72,0,0,1,.81-.81H190a.72.72,0,0,1,.81.81v2.53a.93.93,0,0,1-.08.39h7.39c.54,0,.81.25.81.74s-.27.73-.81.73H181.44Zm4.93-1.1a.72.72,0,0,1-.81.81h-1.52a.72.72,0,0,1-.81-.81v-5.38a.72.72,0,0,1,.81-.81h1.52a.82.82,0,0,1,.64.24h2.95v-1.74h-3.46a.72.72,0,0,1-.81-.81v-2.75h-1.26c-.54,0-.81-.25-.81-.74s.27-.74.81-.74h1.26V400a.72.72,0,0,1,.81-.81h1.52a.72.72,0,0,1,.81.81v.88h5.72V400a.72.72,0,0,1,.81-.81h1.52a.72.72,0,0,1,.82.81v.88h1.86c.54,0,.81.25.81.74s-.27.74-.81.74h-1.86v2.92a.72.72,0,0,1-.82.81h-1.52a.81.81,0,0,1-.54-.17H191v1.74h5.14a.72.72,0,0,1,.81.81v5c0,.59-.29.84-.86.76l-3.37-.39c-.55-.09-.78-.36-.69-.84a.81.81,0,0,1,.94-.64l.83.1V409.1H191v5.3a.72.72,0,0,1-.81.81h-1.52a.72.72,0,0,1-.81-.81v-5.3h-2.78Zm1.65-9.16h5.72v-2.09h-5.72Z" class="cls-11"/><path data-cppathid="10049" transform="translate(0 0)" d="M205.58,408.31s.06,0,.07-.05v-6.85l-3-2.58a1.1,1.1,0,0,1-.4-.79.73.73,0,0,1,.4-.66l.56-.32a.75.75,0,0,1,.35-.07.77.77,0,0,1,.51.17l1.57,1.35v-3.95a.82.82,0,0,1,.25-.59.78.78,0,0,1,.59-.25H208a.78.78,0,0,1,.59.25.82.82,0,0,1,.25.59v19.62a.83.83,0,0,1-.25.59.81.81,0,0,1-.59.24h-1.47a.81.81,0,0,1-.59-.24.83.83,0,0,1-.25-.59v-3.56l-2,1.32a.73.73,0,0,1-.4.13.8.8,0,0,1-.44-.15l-.17-.12a.92.92,0,0,1-.42-.79.89.89,0,0,1,.44-.78Zm6.66,6.34a.67.67,0,0,1-.57.27l-.15,0a.58.58,0,0,1-.14,0l-.74-.3a.82.82,0,0,1-.62-.81,1,1,0,0,1,.23-.61,23.7,23.7,0,0,0,2.89-4.95,24.15,24.15,0,0,0,1.58-5.83H211a.87.87,0,0,1-.59-.21.69.69,0,0,1,0-1.06.87.87,0,0,1,.59-.21h3.95c.1-.91.17-1.88.22-2.89s.08-2.11.1-3.27a.81.81,0,0,1,.23-.6.78.78,0,0,1,.58-.24h1.5c.23,0,.42.16.59.48a2.42,2.42,0,0,1,.22,1.19c0,1,0,1.94-.11,2.83s-.14,1.72-.23,2.5h4.12a.87.87,0,0,1,.59.21.69.69,0,0,1,0,1.06.87.87,0,0,1-.59.21h-4.32c-.07.41-.13.8-.2,1.18a2.1,2.1,0,0,1,.15.22l5,9.65a.91.91,0,0,1,.13.44.8.8,0,0,1-.19.53.85.85,0,0,1-.52.3l-1.11.27a.83.83,0,0,1-.49,0,.67.67,0,0,1-.37-.35l-3.71-7.1a17.68,17.68,0,0,1-1.89,3.9C213.9,412.49,213.1,413.58,212.24,414.65ZM222.92,399a.83.83,0,0,1-.15.69.89.89,0,0,1-.61.35l-1.45.12a.86.86,0,0,1-.57-.15.69.69,0,0,1-.29-.49l-.71-3.56a.89.89,0,0,1,.14-.71.77.77,0,0,1,.62-.32l1.45-.13a.73.73,0,0,1,.56.14.79.79,0,0,1,.3.5Z" class="cls-11"/><path data-cppathid="10050" transform="translate(0 0)" d="M230.31,409.12a1,1,0,0,1,.69-.34l.22,0a.77.77,0,0,1,.19.08l.77.31c.32.15.49.35.49.59a.76.76,0,0,1-.25.54l-3.51,3.81a1,1,0,0,1-.69.34.63.63,0,0,1-.19,0,.77.77,0,0,0-.23-.06l-.76-.32c-.32-.15-.49-.35-.49-.59a.72.72,0,0,1,.25-.54Zm1.6-4.74a.68.68,0,0,1,.36.57.74.74,0,0,1-.36.56l-.4.27a1,1,0,0,1-.56.2,1.15,1.15,0,0,1-.57-.2l-3.26-2.26a.73.73,0,0,1-.37-.56.69.69,0,0,1,.37-.57l.39-.27a1,1,0,0,1,.56-.2.84.84,0,0,1,.57.2ZM232,398a.75.75,0,0,1,.32.56.66.66,0,0,1-.42.57l-.56.29a1,1,0,0,1-.52.15.84.84,0,0,1-.59-.25l-3-2.55a.77.77,0,0,1-.32-.57.65.65,0,0,1,.42-.56l.56-.3a1.16,1.16,0,0,1,.52-.14.88.88,0,0,1,.59.24Zm2.28,16.38a.82.82,0,0,1-.73.49l-.15,0-.15,0-1.15-.3c-.38-.1-.57-.3-.57-.61a1.13,1.13,0,0,1,.13-.44l4.05-7.25h-1.53a.72.72,0,0,1-.81-.81V394.75a.72.72,0,0,1,.81-.81h1.53a.7.7,0,0,1,.73.42h8.16a.72.72,0,0,1,.81.81v10.24a.72.72,0,0,1-.81.81h-1.53l-.22,0v6.87H244v-2.92a.72.72,0,0,1,.81-.81h1.52a.72.72,0,0,1,.81.81v3.59a.72.72,0,0,1-.81.81H240.5a.72.72,0,0,1-.81-.81V405.8h-.76a1,1,0,0,1-.12.45Zm8-18.55H236.5v8.5h5.74Z" class="cls-11"/><path data-cppathid="10051" transform="translate(0 0)" d="M371.46,433.71c-.17.41-.4.61-.65.61s-.48-.2-.66-.61l-5.31-11.58V437a.88.88,0,0,1-1,1h-1.32a.88.88,0,0,1-1-1V416.23a.88.88,0,0,1,1-1h1.13a1.23,1.23,0,0,1,1.18.75l5.91,12.35L376.63,416a1.17,1.17,0,0,1,1.17-.75h1.13a.87.87,0,0,1,1,1V437a.87.87,0,0,1-1,1h-1.31a.87.87,0,0,1-1-1V422.23Z" class="cls-12"/></g><g data-name="View Grades previous semester compact" id="View_Grades_previous_semester_compact"><path data-cppathid="10052" transform="translate(0 0)" d="M403.28,335a12.39,12.39,0,0,1-12.39,12.38H12.38A12.38,12.38,0,0,1,0,335V273.6a12.38,12.38,0,0,1,12.38-12.38H390.89a12.39,12.39,0,0,1,12.39,12.38Z" class="cls-10"/><path data-cppathid="10053" transform="translate(0 0)" d="M103.58,298.28a.83.83,0,0,1,0,.15.76.76,0,0,1,0,.15.88.88,0,0,1,0,.17h6.11a.82.82,0,0,1-.1-.37.71.71,0,0,1,0-.2.7.7,0,0,0,.06-.19l1.75-3.91a.7.7,0,0,1,.86-.44l1.15.24a.83.83,0,0,1,.74.84.48.48,0,0,1,0,.18,1.28,1.28,0,0,1-.07.21l-1.62,3.64H116a.86.86,0,0,1,.58.21.68.68,0,0,1,0,1.05.86.86,0,0,1-.58.21H96.46a.87.87,0,0,1-.59-.21.69.69,0,0,1,0-1.05.87.87,0,0,1,.59-.21h4.13l-1.18-3.59a1.09,1.09,0,0,1,0-.32.78.78,0,0,1,.2-.53.88.88,0,0,1,.54-.28l1.3-.19a.78.78,0,0,1,.54.08.74.74,0,0,1,.34.43Zm-4,16.06a.85.85,0,0,1-.84.84H97.27a.79.79,0,0,1-.59-.25.81.81,0,0,1-.24-.59V301.52a.82.82,0,0,1,.83-.83h1.47a.78.78,0,0,1,.77.49h6.14a.82.82,0,0,1,.59.24.84.84,0,0,1,.24.59v12.36a.81.81,0,0,1-.28.64.85.85,0,0,1-.7.19l-3.64-.49a1,1,0,0,1-.63-.32.52.52,0,0,1-.15-.56l0-.08a.73.73,0,0,1,.86-.56l1.38.2v-3.47H99.58Zm3.76-11.69H99.58v1.94h3.76Zm-3.76,5.8h3.76v-2.38H99.58Zm11.71,2.23a.81.81,0,0,1-.24.59.78.78,0,0,1-.59.25H109a.85.85,0,0,1-.84-.84v-8.15a.78.78,0,0,1,.25-.59.81.81,0,0,1,.59-.24h1.47a.82.82,0,0,1,.83.83Zm-.24,4.08a1,1,0,0,1-.63-.29.57.57,0,0,1-.16-.54l0-.05a.91.91,0,0,1,.29-.48.68.68,0,0,1,.54-.14l1.65.17V301.94a.81.81,0,0,1,.24-.59.82.82,0,0,1,.59-.24h1.48a.82.82,0,0,1,.59.24.81.81,0,0,1,.24.59v12.4a.79.79,0,0,1-.28.64.87.87,0,0,1-.68.22Z" class="cls-11"/><path data-cppathid="10054" transform="translate(0 0)" d="M126.47,315c-.42-.1-.64-.3-.64-.61a.67.67,0,0,1,.08-.3l0-.05a.77.77,0,0,1,.74-.54,1,1,0,0,1,.27,0l2,.42v-4.15h-7.73c-.54,0-.81-.25-.81-.74s.27-.74.81-.74H129v-.1a1.34,1.34,0,0,1,.42-1l3.29-3.1h-7.24c-.54,0-.81-.24-.81-.73s.27-.74.81-.74h10.66c.45,0,.68.15.68.46a.77.77,0,0,1-.29.54l-4.37,4.13v.54h8.18c.54,0,.81.25.81.74s-.27.74-.81.74H132.1v5.45c0,.51-.22.76-.67.76a.65.65,0,0,1-.22,0Zm-5.74-15.37a.72.72,0,0,1,.81-.81h1l-1-3.15,0-.14a.76.76,0,0,1,0-.15c0-.39.22-.62.66-.66l1.4-.2a.77.77,0,0,1,1,.59l1,3.41a.8.8,0,0,1,0,.15.77.77,0,0,1,0,.15.5.5,0,0,1,0,.19h3.78l-.93-3.41c0-.05,0-.1,0-.15s0-.1,0-.14c0-.4.22-.62.67-.67l1.42-.17a.76.76,0,0,1,1,.64l1,3.46,0,.15a.76.76,0,0,1,0,.15.34.34,0,0,1,0,.14h2.9v-.12a1.19,1.19,0,0,1,.07-.39l1.43-3.49a.79.79,0,0,1,1-.57l1.3.25c.41.08.61.29.61.62a1.24,1.24,0,0,1-.07.39L138.36,299H141c.5,0,.76.22.76.64,0,.05,0,.1,0,.14a.93.93,0,0,1,0,.13l-.74,3a.79.79,0,0,1-.93.66l-1.43-.17c-.45,0-.68-.28-.68-.69a1.44,1.44,0,0,1,0-.24l.49-1.94H123.87v2.13a.72.72,0,0,1-.81.81h-1.52a.72.72,0,0,1-.81-.81Z" class="cls-11"/><path data-cppathid="10055" transform="translate(0 0)" d="M154,308.5v.07h.41c.54,0,.81.25.81.74s-.27.73-.81.73h-9c-.54,0-.81-.24-.81-.73s.27-.74.81-.74h.39v-9.48h-.24c-.54,0-.81-.24-.81-.74s.27-.73.81-.73h.24V295a.71.71,0,0,1,.81-.81h1.52a.72.72,0,0,1,.82.81v2.65h1.86V295a.71.71,0,0,1,.81-.81h1.53a.71.71,0,0,1,.81.81v2.65h.24c.54,0,.81.24.81.73s-.27.74-.81.74H154Zm-6.27,6.31a.8.8,0,0,1-.76.57h-.12a.21.21,0,0,1-.12,0l-1.31-.27c-.41-.08-.61-.29-.61-.61a1.25,1.25,0,0,1,.07-.4l1.21-2.82a.75.75,0,0,1,.73-.54l.27,0,1.31.27c.41.08.61.29.61.62a1.24,1.24,0,0,1-.07.39ZM149,301.06h1.86v-2H149Zm0,3.56h1.86v-2.09H149Zm0,3.88v.07h1.86v-2.48H149Zm5.6,4.25a1,1,0,0,1,.09.41c0,.32-.19.52-.59.62l-1.25.27a1,1,0,0,1-.27,0,.77.77,0,0,1-.76-.51L151,312a1.07,1.07,0,0,1-.1-.42c0-.31.2-.52.59-.62l1.26-.29a.21.21,0,0,1,.12,0H153a.83.83,0,0,1,.79.54Zm3.73,2.26a.73.73,0,0,1-.84.76l-1.52,0a.69.69,0,0,1-.79-.83l.94-20c0-.51.29-.76.83-.76l1.53,0a.7.7,0,0,1,.73.45h5.38a.72.72,0,0,1,.81.81v19.33c0,.57-.28.83-.83.78l-3.91-.29c-.49,0-.74-.27-.74-.67a.84.84,0,0,1,.26-.65.8.8,0,0,1,.65-.18l1.43.12v-4.64h-3.66Zm.34-7.22h3.59V303h-3.37Zm3.59-11.67h-3.05l-.24,5.38h3.29Z" class="cls-11"/><path data-cppathid="10056" transform="translate(0 0)" d="M183.94,314.47a.78.78,0,0,1-.63.34,1.06,1.06,0,0,1-.47-.12l-.74-.35a.66.66,0,0,1-.47-.59,1.08,1.08,0,0,1,.2-.51,8.27,8.27,0,0,0,.91-1.81,12.44,12.44,0,0,0,.61-2.24,13.06,13.06,0,0,0,.23-2.39,9.62,9.62,0,0,0-1.11-4.91,4.86,4.86,0,0,0-3.12-2.38,33.53,33.53,0,0,1,.59,5.84,12.73,12.73,0,0,1-1.41,6.49,4.54,4.54,0,0,1-4.16,2.38,5.28,5.28,0,0,1-2.93-.81,5.45,5.45,0,0,1-1.94-2.22,7.34,7.34,0,0,1-.69-3.26,10.45,10.45,0,0,1,.72-3.88,10.16,10.16,0,0,1,2-3.2,9.43,9.43,0,0,1,2.93-2.18,8.19,8.19,0,0,1,3.55-.78,9.52,9.52,0,0,1,4.66,1.07,7.22,7.22,0,0,1,3,3.07,10,10,0,0,1,1.06,4.77A11.14,11.14,0,0,1,183.94,314.47Zm-12-6.54a8,8,0,0,0,.34,2.4,5,5,0,0,0,.9,1.75,1.54,1.54,0,0,0,1.17.67c.45,0,.86-.34,1.21-1a10,10,0,0,0,.84-2.77,23.23,23.23,0,0,0,.3-3.92c0-.84,0-1.7-.11-2.58s-.19-1.79-.35-2.71a6.4,6.4,0,0,0-2.18,1.82,9.83,9.83,0,0,0-1.54,2.89A10.32,10.32,0,0,0,172,307.93Z" class="cls-11"/><path data-cppathid="10057" transform="translate(0 0)" d="M192.93,314.49c0,.51-.29.76-.83.76l-1.5,0a.7.7,0,0,1-.79-.84l.69-15.05a1.13,1.13,0,0,1,.15-.49.66.66,0,0,1-.12-.42c0-.49.27-.74.81-.74h8.79l-.81-2.5a1.57,1.57,0,0,1,0-.32c0-.38.22-.59.66-.64l1.38-.2h.19a.74.74,0,0,1,.77.61l1,3.07H210c.54,0,.81.25.81.74s-.27.74-.81.74h-6.32l2.12,6.55,2.23-3.58a.87.87,0,0,1,.74-.47,1.57,1.57,0,0,1,.32.05l1,.32c.38.13.57.34.57.61a.92.92,0,0,1-.15.44L206.88,309l1.23,3.81,1.4-.37.27-.05a.84.84,0,0,1,.76.52.93.93,0,0,1,.12.39c0,.33-.19.54-.58.64l-3.62.93a.32.32,0,0,1-.14,0h-.13a.74.74,0,0,1-.73-.59l-.64-2-1.33,2.14a.84.84,0,0,1-.73.46,1,1,0,0,1-.32-.05l-1.06-.32c-.38-.13-.56-.33-.56-.61a.93.93,0,0,1,.14-.44l2.8-4.47-3.16-9.87h-7a2.13,2.13,0,0,1,0,.27l-.2,4.22h6c.55,0,.81.28.76.84l-.76,9.62c-.05.48-.27.71-.67.71a1.31,1.31,0,0,1-.27,0l-3.88-1c-.41-.1-.61-.3-.61-.59a.31.31,0,0,1,0-.17,1.89,1.89,0,0,0,.06-.18l0-.07a.85.85,0,0,1,.76-.52l.15,0,.15,0,1.23.3.61-7.52h-3.61ZM209,295.68c.28.18.42.37.42.59a.77.77,0,0,1-.29.54l-.25.19a1,1,0,0,1-.64.27,1.08,1.08,0,0,1-.46-.14l-3-1.65a.75.75,0,0,1-.42-.59.72.72,0,0,1,.3-.54l.24-.19a1,1,0,0,1,.64-.28.92.92,0,0,1,.47.15Z" class="cls-11"/><path data-cppathid="10058" transform="translate(0 0)" d="M216.36,313.56a.73.73,0,0,1-.88.73l-.79,0a.69.69,0,0,1-.73-.86l.32-3.74a.72.72,0,0,1,.88-.73l.79,0a.69.69,0,0,1,.73.86Zm4.28,1.05a.72.72,0,0,1-.81.81H218.3a.72.72,0,0,1-.81-.81v-7.07l-2.7.22c-.49,0-.74-.12-.74-.47a.85.85,0,0,1,.18-.49l2.26-3.51-.05-.07-2.07-2.75a1,1,0,0,1-.22-.57.84.84,0,0,1,.22-.56l3.93-5.16a.86.86,0,0,1,.69-.39,1.19,1.19,0,0,1,.39.07l.94.32c.34.11.51.31.51.59a.85.85,0,0,1-.19.49l-3.52,4.64L218,301l.88-1.38a.9.9,0,0,1,.76-.44,1.48,1.48,0,0,1,.32.05l1.06.32c.38.13.56.33.56.59a.64.64,0,0,1,0,.22c0,.08-.08.16-.13.24L217.89,306l3-.24-.42-1.7a1.54,1.54,0,0,1,0-.24.66.66,0,0,1,.66-.72l.72-.09a.73.73,0,0,1,.93.63l.91,3.76a1.69,1.69,0,0,1,0,.25.65.65,0,0,1-.66.71l-.71.1a.74.74,0,0,1-.94-.64l-.14-.59h-.08l-.56.05a.84.84,0,0,1,0,.29Zm3.48-1.62a.7.7,0,0,1-.76.86l-.78,0a.72.72,0,0,1-.86-.74l-.32-3.07a.82.82,0,0,1,.17-.62.8.8,0,0,1,.59-.26l.78,0a.72.72,0,0,1,.86.74ZM231,301.18v.07h3.56c.54,0,.81.25.81.74s-.27.74-.81.74H224.37c-.54,0-.81-.25-.81-.74s.27-.74.81-.74h3.49v-1h-2.34c-.54,0-.81-.24-.81-.74s.27-.73.81-.73h2.34V297.3h-3c-.54,0-.81-.25-.81-.74s.27-.73.81-.73h3V295a.72.72,0,0,1,.81-.81h1.52a.72.72,0,0,1,.81.81v.79h3c.54,0,.81.24.81.73s-.27.74-.81.74h-3v1.45h2.38c.54,0,.81.24.81.73s-.27.74-.81.74H231Zm-6.56,2.95a.72.72,0,0,1,.81-.81h1.53a.94.94,0,0,1,.49.12H234a.72.72,0,0,1,.81.81v7.61a.72.72,0,0,1-.81.81H232.5a.91.91,0,0,1-.49-.12h-4.74a.94.94,0,0,1-.49.12h-1.53a.72.72,0,0,1-.81-.81ZM226,315.4a1,1,0,0,1-.44.1.9.9,0,0,1-.66-.32l-.12-.12a.78.78,0,0,1-.27-.52c0-.25.16-.44.49-.59l2.13-1a1.1,1.1,0,0,1,.45-.1.9.9,0,0,1,.66.32l.12.13a.76.76,0,0,1,.27.51c0,.25-.16.44-.49.59Zm5.68-10.49h-4.1v1h4.1Zm-4.1,3.64h4.1v-1.16h-4.1Zm0,2.53h4.1V310h-4.1Zm6.95,3c.32.15.49.34.49.59a.84.84,0,0,1-.22.49l-.17.17a.88.88,0,0,1-1.11.25l-2.46-1.08c-.32-.15-.49-.35-.49-.59a.75.75,0,0,1,.22-.49l.18-.18a1,1,0,0,1,.68-.34.87.87,0,0,1,.42.1Z" class="cls-11"/><path data-cppathid="10059" transform="translate(0 0)" d="M253.42,314.47a.78.78,0,0,1-.63.34,1.06,1.06,0,0,1-.47-.12l-.74-.35a.65.65,0,0,1-.46-.59,1,1,0,0,1,.19-.51,8.27,8.27,0,0,0,.91-1.81,12.44,12.44,0,0,0,.61-2.24,13.06,13.06,0,0,0,.23-2.39,9.62,9.62,0,0,0-1.11-4.91,4.86,4.86,0,0,0-3.12-2.38,33.53,33.53,0,0,1,.59,5.84,12.73,12.73,0,0,1-1.41,6.49,4.54,4.54,0,0,1-4.16,2.38,5.28,5.28,0,0,1-2.93-.81,5.45,5.45,0,0,1-1.94-2.22,7.34,7.34,0,0,1-.69-3.26,10.45,10.45,0,0,1,.72-3.88,10.16,10.16,0,0,1,2-3.2,9.43,9.43,0,0,1,2.93-2.18,8.19,8.19,0,0,1,3.55-.78,9.52,9.52,0,0,1,4.66,1.07,7.22,7.22,0,0,1,3,3.07,10,10,0,0,1,1.06,4.77A11.14,11.14,0,0,1,253.42,314.47Zm-12-6.54a8,8,0,0,0,.34,2.4,5,5,0,0,0,.9,1.75,1.54,1.54,0,0,0,1.17.67c.45,0,.86-.34,1.21-1a10,10,0,0,0,.84-2.77,23.23,23.23,0,0,0,.3-3.92c0-.84,0-1.7-.11-2.58s-.19-1.79-.35-2.71a6.4,6.4,0,0,0-2.18,1.82,9.83,9.83,0,0,0-1.54,2.89A10.32,10.32,0,0,0,241.44,307.93Z" class="cls-11"/><path data-cppathid="10060" transform="translate(0 0)" d="M262.78,314.54a.72.72,0,0,1-.81.81h-1.52a.72.72,0,0,1-.81-.81V295.29a.72.72,0,0,1,.81-.82H262a.86.86,0,0,1,.59.2h5.87a.72.72,0,0,1,.81.81v8.28a.72.72,0,0,1-.81.81h-1.52a.82.82,0,0,1-.52-.15h-3.61Zm3.32-18.4h-3.32V299h3.32ZM262.78,303h3.32v-2.51h-3.32Zm3.39,11.59a.9.9,0,0,1-.66.32,1.34,1.34,0,0,1-.47-.12l-.71-.32c-.33-.15-.49-.35-.49-.59a.78.78,0,0,1,.27-.54l1.84-1.92a1.16,1.16,0,0,1-.34.05h-1.53a.72.72,0,0,1-.81-.81v-2.85a.72.72,0,0,1,.81-.81h1.16l-.45-.61a.87.87,0,0,1-.19-.49c0-.28.18-.49.54-.62l1-.34a1,1,0,0,1,.37-.08.84.84,0,0,1,.71.42l1,1.35a.89.89,0,0,1,.2.49v0h2.87a.79.79,0,0,1,.23-.52l1.12-1.4a.92.92,0,0,1,.72-.37,1.29,1.29,0,0,1,.39.08l.88.34c.35.12.52.31.52.59a.81.81,0,0,1-.22.52l-.62.76h.84a.72.72,0,0,1,.81.81v2.7a.72.72,0,0,1-.81.81h-1.52a.82.82,0,0,1-.52-.15h-.59v2.07H273v-.22c0-.14.27-.2.81-.2h1.53a.72.72,0,0,1,.81.81V314a.72.72,0,0,1-.81.81h-5.21a.72.72,0,0,1-.81-.81v-2.73h-.27a.88.88,0,0,1-.27.52Zm6.61-6h-6.36v1.23h6.36Zm4.22,6.31c-.54-.05-.78-.32-.71-.81s.15-.73.22-.73l.1,0v-9.11h-3.69a.74.74,0,0,1-.68.32h-1.53a.72.72,0,0,1-.81-.81v-8.47a.72.72,0,0,1,.81-.82h1.53a.88.88,0,0,1,.59.2h6.11a.72.72,0,0,1,.81.81v18.77c0,.57-.28.83-.83.78Zm-.39-18.74h-3.56v2.73h3.56Zm-3.56,6.64h3.56v-2.44h-3.56Z" class="cls-11"/><path data-cppathid="10061" transform="translate(0 0)" d="M285.6,315a.92.92,0,0,1-.44.1.9.9,0,0,1-.69-.32l-.13-.12a.76.76,0,0,1-.24-.52c0-.24.16-.44.49-.59l3-1.35h-.91a.72.72,0,0,1-.81-.81v-6.92a.72.72,0,0,1,.81-.82h1.52a.83.83,0,0,1,.64.25h13a.72.72,0,0,1,.81.81v6.76a.72.72,0,0,1-.81.81h-1.53a.94.94,0,0,1-.49-.13h-1.91v1.23h4.05V313c0-.24.27-.37.81-.37h1.52a.72.72,0,0,1,.81.81V314a.72.72,0,0,1-.81.81h-8.72a.72.72,0,0,1-.81-.81v-1.89h-3.09a.75.75,0,0,1-.39.32Zm6.95-13.31v.07h1.27c.55,0,.82.25.82.74s-.27.74-.82.74h-6.75a.81.81,0,0,1-.51.15H285a.72.72,0,0,1-.81-.82v-7.81a.72.72,0,0,1,.81-.81h1.53a.81.81,0,0,1,.51.15h6.68c.54,0,.81.25.81.74s-.27.73-.81.73H292.6v1.11H294a.72.72,0,0,1,.81.81v2.6a.72.72,0,0,1-.81.81h-1.4Zm-3.1-6v-.08h-2.08v1.11h2.08v-1Zm2.16,2.5h-4.24v1.13h4.24Zm-2.21,2.68v-.07h-2v1h2v-.93Zm10.07,4.54H289v.84h10.46Zm-10.46,3h10.46v-.74H289Zm0,2.26h10.46v-.79H289Zm9.14-11a.72.72,0,0,1-.86.74l-1.52-.08c-.56,0-.82-.31-.77-.85l.49-4.62a.72.72,0,0,1,.86-.74l1.53.08a.68.68,0,0,1,.73.85l-.09,1h5.33c.54,0,.81.24.81.73s-.27.74-.81.74h-5.48Zm5.2,1.55c.54,0,.81.24.81.74s-.27.73-.81.73h-5.67c-.54,0-.81-.24-.81-.73s.27-.74.81-.74Z" class="cls-11"/><path data-cppathid="10062" transform="translate(0 0)" d="M362.35,331.81a1,1,0,0,1,.27-.78,1,1,0,0,1,.75-.3h1.8a.91.91,0,0,1,.69.29,1.09,1.09,0,0,1,.3.7,7.36,7.36,0,0,0,1.26,3.9,3.45,3.45,0,0,0,2.91,1.44A3.73,3.73,0,0,0,373.2,336a4.14,4.14,0,0,0,1-2.94,4,4,0,0,0-1.26-2.73,19.46,19.46,0,0,0-3.71-2.91,28.7,28.7,0,0,1-3.5-2,5.21,5.21,0,0,1-1.8-2,6.52,6.52,0,0,1-.53-2.81,4.44,4.44,0,0,1,.74-2.31,5.8,5.8,0,0,1,2.23-2,7.77,7.77,0,0,1,3.78-.83,8.3,8.3,0,0,1,3.27.68A16.6,16.6,0,0,1,376.6,318a1.08,1.08,0,0,1,.6,1,.8.8,0,0,1-.47.75L376,320a1.23,1.23,0,0,0-.23.08.51.51,0,0,1-.2,0,1,1,0,0,1-.63-.24,30.41,30.41,0,0,0-2.72-2,3.9,3.9,0,0,0-2.08-.65,3,3,0,0,0-2.29,1,3.35,3.35,0,0,0-.92,2.38,5.5,5.5,0,0,0,.74,2.82,6.51,6.51,0,0,0,3,2.31,24.76,24.76,0,0,1,3.74,2.09,10.58,10.58,0,0,1,2.58,2.41A4.66,4.66,0,0,1,378,333a4.87,4.87,0,0,1-1,3,6.77,6.77,0,0,1-2.69,2.09,9.62,9.62,0,0,1-3.94.76,7.49,7.49,0,0,1-8-7.05Z" class="cls-12"/></g><g data-name="Update Grades current semester, compact" id="Update_Grades_current_semester_compact"><path data-cppathid="10063" transform="translate(0 0)" d="M403.28,235.31a12.39,12.39,0,0,1-12.39,12.38H12.38A12.38,12.38,0,0,1,0,235.31V173.88a12.37,12.37,0,0,1,12.38-12.37H390.89a12.38,12.38,0,0,1,12.39,12.37Z" class="cls-10"/><path data-cppathid="10064" transform="translate(0 0)" d="M98,204.56a.83.83,0,0,1-.61.29,1.11,1.11,0,0,1-.49-.14l-.67-.32a.68.68,0,0,1-.44-.59.78.78,0,0,1,.27-.54l9.48-9.07a.89.89,0,0,1,.62-.29,1,1,0,0,1,.49.15l.66.32a.64.64,0,0,1,.44.59v0l0,0,8.52,8a.78.78,0,0,1,.27.54.68.68,0,0,1-.44.59l-.66.32a1.38,1.38,0,0,1-.5.12.84.84,0,0,1-.61-.27l-8.13-7.67Zm8.77,10.81a.93.93,0,0,1-.66.31,1.27,1.27,0,0,1-.44-.12l-.69-.32c-.31-.15-.47-.34-.47-.59a.78.78,0,0,1,.27-.54L111,207.9H98.18c-.54,0-.81-.25-.81-.74s.27-.73.81-.73h16.14c.45,0,.68.15.68.46a.78.78,0,0,1-.27.54Zm4.91-12.11c.54,0,.81.24.81.73s-.27.74-.81.74H100.59c-.54,0-.81-.24-.81-.74s.27-.73.81-.73Z" class="cls-11"/><path data-cppathid="10065" transform="translate(0 0)" d="M126.47,215.27c-.42-.1-.64-.31-.64-.62a.63.63,0,0,1,.08-.29l0-.05a.77.77,0,0,1,.74-.54l.27,0,2,.42v-4.15h-7.73c-.54,0-.81-.25-.81-.74s.27-.73.81-.73H129v-.1a1.38,1.38,0,0,1,.42-1l3.29-3.09h-7.24c-.54,0-.81-.25-.81-.74s.27-.74.81-.74h10.66c.45,0,.68.16.68.47a.81.81,0,0,1-.29.54l-4.37,4.13v.54h8.18c.54,0,.81.24.81.73s-.27.74-.81.74H132.1v5.45c0,.51-.22.76-.67.76a.68.68,0,0,1-.22,0Zm-5.74-15.38a.72.72,0,0,1,.81-.81h1l-1-3.14,0-.15a.76.76,0,0,1,0-.15q0-.58.66-.66l1.4-.2a.78.78,0,0,1,1,.59l1,3.42a.89.89,0,0,1,0,.14.77.77,0,0,1,0,.15.56.56,0,0,1,0,.2h3.78l-.93-3.42s0-.09,0-.14,0-.1,0-.15c0-.39.22-.61.67-.66l1.42-.17a.76.76,0,0,1,1,.63l1,3.47,0,.14a.76.76,0,0,1,0,.15.39.39,0,0,1,0,.15h2.9v-.12a1.25,1.25,0,0,1,.07-.4l1.43-3.48a.78.78,0,0,1,1-.57l1.3.25c.41.08.61.28.61.61a1.19,1.19,0,0,1-.07.39l-1.35,3.32H141c.5,0,.76.21.76.64,0,.05,0,.09,0,.13a1,1,0,0,1,0,.14l-.74,2.94a.79.79,0,0,1-.93.67l-1.43-.17c-.45,0-.68-.28-.68-.69a1.69,1.69,0,0,1,0-.25l.49-1.94H123.87v2.14a.72.72,0,0,1-.81.81h-1.52a.72.72,0,0,1-.81-.81Z" class="cls-11"/><path data-cppathid="10066" transform="translate(0 0)" d="M154,208.78v.08h.41c.54,0,.81.24.81.73s-.27.74-.81.74h-9c-.54,0-.81-.25-.81-.74s.27-.73.81-.73h.39v-9.48h-.24c-.54,0-.81-.25-.81-.74s.27-.74.81-.74h.24v-2.65a.72.72,0,0,1,.81-.81h1.52a.72.72,0,0,1,.82.81v2.65h1.86v-2.65a.72.72,0,0,1,.81-.81h1.53a.72.72,0,0,1,.81.81v2.65h.24c.54,0,.81.25.81.74s-.27.74-.81.74H154Zm-6.27,6.31a.8.8,0,0,1-.76.57h-.12l-.12,0-1.31-.27c-.41-.09-.61-.29-.61-.62a1.24,1.24,0,0,1,.07-.39l1.21-2.83a.75.75,0,0,1,.73-.54.91.91,0,0,1,.27,0l1.31.27c.41.08.61.29.61.61a1.15,1.15,0,0,1-.07.39ZM149,201.34h1.86v-2H149Zm0,3.56h1.86v-2.08H149Zm0,3.88v.08h1.86v-2.48H149Zm5.6,4.25a1,1,0,0,1,.09.42c0,.31-.19.52-.59.61l-1.25.27a.91.91,0,0,1-.27,0,.77.77,0,0,1-.76-.52l-.74-1.52a1,1,0,0,1-.1-.42c0-.31.2-.51.59-.61l1.26-.3.12,0H153a.83.83,0,0,1,.79.54Zm3.73,2.26c0,.51-.3.76-.84.76l-1.52,0a.7.7,0,0,1-.79-.84l.94-20c0-.51.29-.77.83-.77l1.53,0a.7.7,0,0,1,.73.44h5.38a.72.72,0,0,1,.81.81v19.33c0,.57-.28.84-.83.79l-3.91-.3c-.49-.05-.74-.27-.74-.66a.83.83,0,0,1,.26-.65.77.77,0,0,1,.65-.19l1.43.13v-4.65h-3.66Zm.34-7.22h3.59v-4.81h-3.37Zm3.59-11.66h-3.05l-.24,5.37h3.29Z" class="cls-11"/><path data-cppathid="10067" transform="translate(0 0)" d="M183.94,214.75a.78.78,0,0,1-.63.34,1.06,1.06,0,0,1-.47-.12l-.74-.34c-.31-.15-.47-.34-.47-.59a1.14,1.14,0,0,1,.2-.52,8.18,8.18,0,0,0,.91-1.8,14,14,0,0,0,.84-4.63,9.62,9.62,0,0,0-1.11-4.91,4.87,4.87,0,0,0-3.12-2.39,33.64,33.64,0,0,1,.59,5.85,12.69,12.69,0,0,1-1.41,6.48,4.55,4.55,0,0,1-4.16,2.39,5.28,5.28,0,0,1-2.93-.81,5.48,5.48,0,0,1-1.94-2.23,7.29,7.29,0,0,1-.69-3.25,10.57,10.57,0,0,1,2.69-7.09,9.39,9.39,0,0,1,2.93-2.17,8.2,8.2,0,0,1,3.55-.79,9.63,9.63,0,0,1,4.66,1.07,7.27,7.27,0,0,1,3,3.07,10.07,10.07,0,0,1,1.06,4.78A11.11,11.11,0,0,1,183.94,214.75Zm-12-6.53a7.89,7.89,0,0,0,.34,2.39,5.1,5.1,0,0,0,.9,1.76,1.55,1.55,0,0,0,1.17.66c.45,0,.86-.34,1.21-1a10.07,10.07,0,0,0,.84-2.76,23.27,23.27,0,0,0,.3-3.93c0-.83,0-1.69-.11-2.58s-.19-1.78-.35-2.7a6.29,6.29,0,0,0-2.18,1.82,9.9,9.9,0,0,0-1.54,2.88A10.42,10.42,0,0,0,172,208.22Z" class="cls-11"/><path data-cppathid="10068" transform="translate(0 0)" d="M192.93,214.78c0,.5-.29.76-.83.76l-1.5,0a.69.69,0,0,1-.79-.83l.69-15.06a1.18,1.18,0,0,1,.15-.49.66.66,0,0,1-.12-.42c0-.49.27-.73.81-.73h8.79l-.81-2.51a1.57,1.57,0,0,1,0-.32c0-.37.22-.59.66-.64l1.38-.19.11,0h.08a.75.75,0,0,1,.77.62l1,3.07H210c.54,0,.81.24.81.73s-.27.74-.81.74h-6.32l2.12,6.56,2.23-3.59a.86.86,0,0,1,.74-.46,1.45,1.45,0,0,1,.32,0l1,.32c.38.14.57.34.57.62a1,1,0,0,1-.15.44l-3.71,5.92,1.23,3.81,1.4-.37.27-.05a.83.83,0,0,1,.76.51,1,1,0,0,1,.12.4c0,.32-.19.54-.58.64l-3.62.93-.14,0h-.13a.73.73,0,0,1-.73-.59l-.64-2-1.33,2.14a.85.85,0,0,1-.73.47,1.48,1.48,0,0,1-.32-.05l-1.06-.32c-.38-.13-.56-.34-.56-.61a1,1,0,0,1,.14-.45l2.8-4.47-3.16-9.87h-7a2.13,2.13,0,0,1,0,.27l-.2,4.23h6c.55,0,.81.27.76.83l-.76,9.63c-.05.47-.27.71-.67.71l-.27-.05-3.88-1c-.41-.1-.61-.29-.61-.59a.33.33,0,0,1,0-.17,1.62,1.62,0,0,0,.06-.17l0-.07a.83.83,0,0,1,.76-.52H195l.15,0,1.23.29.61-7.51h-3.61ZM209,196a.75.75,0,0,1,.42.59.77.77,0,0,1-.29.54l-.25.2a.84.84,0,0,1-1.1.12l-3-1.64a.75.75,0,0,1-.42-.59.69.69,0,0,1,.3-.54l.24-.2a1,1,0,0,1,.64-.27.92.92,0,0,1,.47.15Z" class="cls-11"/><path data-cppathid="10069" transform="translate(0 0)" d="M216.36,213.84a.73.73,0,0,1-.88.74l-.79-.05a.69.69,0,0,1-.73-.86l.32-3.73a.73.73,0,0,1,.88-.74l.79.05a.69.69,0,0,1,.73.86Zm4.28,1.06a.72.72,0,0,1-.81.81H218.3a.72.72,0,0,1-.81-.81v-7.07l-2.7.22c-.49,0-.74-.13-.74-.47a.82.82,0,0,1,.18-.49l2.26-3.51-.05-.08-2.07-2.75a1,1,0,0,1-.22-.56.87.87,0,0,1,.22-.57l3.93-5.16a.86.86,0,0,1,.69-.39,1.23,1.23,0,0,1,.39.08l.94.31c.34.12.51.32.51.59a.87.87,0,0,1-.19.5l-3.52,4.64.84,1.1.88-1.37a.88.88,0,0,1,.76-.45,1.48,1.48,0,0,1,.32.05l1.06.32c.38.13.56.33.56.59a.6.6,0,0,1,0,.22,2,2,0,0,1-.13.25l-3.48,5.43,3-.25-.42-1.69a1.69,1.69,0,0,1,0-.25.65.65,0,0,1,.66-.71l.72-.1a.74.74,0,0,1,.93.64l.91,3.76a1.54,1.54,0,0,1,0,.24.64.64,0,0,1-.66.71l-.71.1a.74.74,0,0,1-.94-.64l-.14-.58h-.08l-.56,0a.94.94,0,0,1,0,.3Zm3.48-1.62c0,.54-.2.82-.76.86l-.78.05a.72.72,0,0,1-.86-.74l-.32-3.07a.86.86,0,0,1,.17-.63.79.79,0,0,1,.59-.25l.78-.05a.71.71,0,0,1,.86.73ZM231,201.46v.08h3.56c.54,0,.81.24.81.73s-.27.74-.81.74H224.37c-.54,0-.81-.24-.81-.74s.27-.73.81-.73h3.49v-1h-2.34c-.54,0-.81-.25-.81-.74s.27-.74.81-.74h2.34v-1.45h-3c-.54,0-.81-.24-.81-.73s.27-.74.81-.74h3v-.79a.72.72,0,0,1,.81-.81h1.52a.72.72,0,0,1,.81.81v.79h3c.54,0,.81.25.81.74s-.27.73-.81.73h-3V199h2.38c.54,0,.81.25.81.74s-.27.74-.81.74H231Zm-6.56,2.95a.72.72,0,0,1,.81-.81h1.53a.94.94,0,0,1,.49.12H234a.72.72,0,0,1,.81.81v7.62a.72.72,0,0,1-.81.81H232.5a.91.91,0,0,1-.49-.12h-4.74a.94.94,0,0,1-.49.12h-1.53a.72.72,0,0,1-.81-.81ZM226,215.68a.89.89,0,0,1-.44.1.87.87,0,0,1-.66-.32l-.12-.12a.76.76,0,0,1-.27-.51c0-.25.16-.45.49-.59l2.13-1a1,1,0,0,1,.45-.1.9.9,0,0,1,.66.32l.12.12a.76.76,0,0,1,.27.52c0,.24-.16.44-.49.59Zm5.68-10.48h-4.1v1h4.1Zm-4.1,3.63h4.1v-1.15h-4.1Zm0,2.53h4.1v-1.05h-4.1Zm6.95,3c.32.15.49.35.49.59a.84.84,0,0,1-.22.49l-.17.18a1,1,0,0,1-.69.34.87.87,0,0,1-.42-.1l-2.46-1.08c-.32-.15-.49-.34-.49-.59a.77.77,0,0,1,.22-.49l.18-.17a1,1,0,0,1,.68-.34,1,1,0,0,1,.42.09Z" class="cls-11"/><path data-cppathid="10070" transform="translate(0 0)" d="M253.42,214.75a.78.78,0,0,1-.63.34,1.06,1.06,0,0,1-.47-.12l-.74-.34c-.31-.15-.46-.34-.46-.59a1.1,1.1,0,0,1,.19-.52,8.18,8.18,0,0,0,.91-1.8,14,14,0,0,0,.84-4.63,9.62,9.62,0,0,0-1.11-4.91,4.87,4.87,0,0,0-3.12-2.39,33.64,33.64,0,0,1,.59,5.85,12.69,12.69,0,0,1-1.41,6.48,4.55,4.55,0,0,1-4.16,2.39,5.28,5.28,0,0,1-2.93-.81,5.48,5.48,0,0,1-1.94-2.23,7.29,7.29,0,0,1-.69-3.25,10.57,10.57,0,0,1,2.69-7.09,9.39,9.39,0,0,1,2.93-2.17,8.2,8.2,0,0,1,3.55-.79,9.63,9.63,0,0,1,4.66,1.07,7.27,7.27,0,0,1,3,3.07,10.07,10.07,0,0,1,1.06,4.78A11.11,11.11,0,0,1,253.42,214.75Zm-12-6.53a7.89,7.89,0,0,0,.34,2.39,5.1,5.1,0,0,0,.9,1.76,1.55,1.55,0,0,0,1.17.66c.45,0,.86-.34,1.21-1a10.07,10.07,0,0,0,.84-2.76,23.27,23.27,0,0,0,.3-3.93c0-.83,0-1.69-.11-2.58s-.19-1.78-.35-2.7a6.29,6.29,0,0,0-2.18,1.82,9.9,9.9,0,0,0-1.54,2.88A10.42,10.42,0,0,0,241.44,208.22Z" class="cls-11"/><path data-cppathid="10071" transform="translate(0 0)" d="M260.64,215.59a.84.84,0,0,1-.67-.18.81.81,0,0,1-.26-.66q0-.54.69-.66a7.75,7.75,0,0,0,4.47-2.73l-2.21-.69c-.38-.13-.57-.32-.57-.59a.92.92,0,0,1,.13-.39l.07-.12a.83.83,0,0,1,.71-.44.9.9,0,0,1,.37.07l2.51.79a17.67,17.67,0,0,0,1-2.09h-3a.81.81,0,0,1-.54.17h-1.52a.72.72,0,0,1-.81-.81v-8.37a.72.72,0,0,1,.81-.81h1.52a.82.82,0,0,1,.64.24h4.77c0-.59,0-1.19.05-1.79v-.1h-9c-.54,0-.81-.25-.81-.74s.27-.73.81-.73h19.47c.54,0,.81.24.81.73s-.27.74-.81.74h-7.39a3.94,3.94,0,0,1,0,.52c0,.47,0,.93-.05,1.37h5.77a.72.72,0,0,1,.81.81v8.13a.72.72,0,0,1-.81.81h-1.52a.81.81,0,0,1-.54-.17h-5.58a16.28,16.28,0,0,1-1.55,2.9l11.08,3.41c.38.13.56.33.56.59a.93.93,0,0,1-.12.39l-.07.13a.87.87,0,0,1-.71.44,1,1,0,0,1-.37-.08l-11.47-3.53A11.33,11.33,0,0,1,260.64,215.59Zm3.56-13h4.16c.13-.88.23-1.81.32-2.8H264.2Zm0,3.84h3.25a19.82,19.82,0,0,0,.61-2.36H264.2Zm6.39,0h4.77v-2.36H271.2C271,204.9,270.82,205.69,270.59,206.43Zm4.77-6.64h-3.54c-.08,1-.2,1.92-.34,2.8h3.88Z" class="cls-11"/><path data-cppathid="10072" transform="translate(0 0)" d="M285.92,214.87a.89.89,0,0,1-.72.37,1.24,1.24,0,0,1-.39-.07l-.88-.34c-.35-.15-.52-.36-.52-.62a.73.73,0,0,1,.2-.49l3.56-4.47H284c-.54,0-.81-.25-.81-.74s.27-.73.81-.73h3.83v-1.94H284c-.54,0-.81-.25-.81-.74s.27-.74.81-.74h1.15v0l-.27-5.45v-.13h-.32c-.54,0-.81-.24-.81-.73s.27-.74.81-.74h3.07v-2.46a.72.72,0,0,1,.81-.81h1.52a.72.72,0,0,1,.81.81v2.46h2.83c.54,0,.81.25.81.74a.73.73,0,0,1-.2.54.69.69,0,0,1-.51.19.8.8,0,0,1,0,.22l-.86,5.38h.69c.54,0,.81.25.81.74s-.27.74-.81.74H291v1.94h2.14c.54,0,.81.24.81.73s-.27.74-.81.74H291l2.63,2a.72.72,0,0,1,.34.54c0,.21-.14.41-.44.59l-.49.29a.85.85,0,0,1-.52.17.89.89,0,0,1-.61-.24l-.91-.71v3.36a.72.72,0,0,1-.81.81h-1.52a.72.72,0,0,1-.81-.81v-2.77Zm2.35-10.63v.12h1.45a.79.79,0,0,1,0-.22l.86-5.38H288v0Zm8.94,10.63a.73.73,0,0,1-.86.79l-1.52,0a.7.7,0,0,1-.76-.83l.81-15a1,1,0,0,1,.17-.51.77.77,0,0,1,0-.15.63.63,0,0,1,.42-.56l7.73-4.28a1,1,0,0,1,.47-.14,1,1,0,0,1,.64.27l.22.19a.84.84,0,0,1,.32.57.65.65,0,0,1-.42.56l-6.53,3.61a.71.71,0,0,1,.14.54l-.12,2.26h6.34c.54,0,.81.25.81.74s-.27.74-.81.74h-1v11.59a.72.72,0,0,1-.81.81H301a.72.72,0,0,1-.81-.81V203.63h-2.31Z" class="cls-11"/><path data-cppathid="10073" transform="translate(0 0)" d="M371.31,236.06c-.18.4-.4.61-.66.61s-.48-.21-.66-.61l-5.31-11.58v14.91a.88.88,0,0,1-1,1h-1.32a.88.88,0,0,1-1-1V218.58a.88.88,0,0,1,1-1h1.14a1.21,1.21,0,0,1,1.17.75l5.91,12.36,5.88-12.36a1.18,1.18,0,0,1,1.17-.75h1.14a.88.88,0,0,1,1,1v20.81a.88.88,0,0,1-1,1h-1.32a.88.88,0,0,1-1-1V224.58Z" class="cls-12"/></g><g data-name="View Grades current semester compact" id="View_Grades_current_semester_compact"><path data-cppathid="10074" transform="translate(0 0)" d="M403.28,135.6A12.38,12.38,0,0,1,390.89,148H12.38A12.37,12.37,0,0,1,0,135.6V74.17A12.38,12.38,0,0,1,12.38,61.79H390.89a12.39,12.39,0,0,1,12.39,12.38Z" class="cls-10"/><path data-cppathid="10075" transform="translate(0 0)" d="M98,104.84a.85.85,0,0,1-.61.3,1,1,0,0,1-.49-.15l-.67-.32a.66.66,0,0,1-.44-.59.78.78,0,0,1,.27-.54l9.48-9.06a.86.86,0,0,1,.62-.29,1,1,0,0,1,.49.14l.66.32a.66.66,0,0,1,.44.59v0l0,0,8.52,8a.78.78,0,0,1,.27.54.67.67,0,0,1-.44.59l-.66.32a1.38,1.38,0,0,1-.5.12.84.84,0,0,1-.61-.27L106.21,97Zm8.77,10.81a.94.94,0,0,1-.66.32,1.27,1.27,0,0,1-.44-.12l-.69-.32c-.31-.15-.47-.35-.47-.59a.78.78,0,0,1,.27-.54l6.22-6.21H98.18c-.54,0-.81-.25-.81-.74s.27-.74.81-.74h16.14c.45,0,.68.16.68.47a.78.78,0,0,1-.27.54Zm4.91-12.11c.54,0,.81.25.81.74s-.27.74-.81.74H100.59c-.54,0-.81-.25-.81-.74s.27-.74.81-.74Z" class="cls-11"/><path data-cppathid="10076" transform="translate(0 0)" d="M126.47,115.55c-.42-.09-.64-.3-.64-.61a.67.67,0,0,1,.08-.3l0,0a.78.78,0,0,1,.74-.55,1,1,0,0,1,.27,0l2,.42v-4.15h-7.73c-.54,0-.81-.25-.81-.74s.27-.74.81-.74H129v-.1a1.36,1.36,0,0,1,.42-1l3.29-3.1h-7.24c-.54,0-.81-.24-.81-.73s.27-.74.81-.74h10.66c.45,0,.68.16.68.47a.81.81,0,0,1-.29.54l-4.37,4.12v.54h8.18c.54,0,.81.25.81.74s-.27.74-.81.74H132.1v5.45c0,.51-.22.76-.67.76l-.22,0Zm-5.74-15.37a.72.72,0,0,1,.81-.81h1l-1-3.15,0-.14a.76.76,0,0,1,0-.15q0-.59.66-.66l1.4-.2a.77.77,0,0,1,1,.59l1,3.41a.8.8,0,0,1,0,.15.77.77,0,0,1,0,.15.47.47,0,0,1,0,.19h3.78l-.93-3.41a.83.83,0,0,1,0-.15s0-.09,0-.14c0-.4.22-.62.67-.67l1.42-.17a.76.76,0,0,1,1,.64l1,3.46,0,.15a.76.76,0,0,1,0,.15.32.32,0,0,1,0,.14h2.9v-.12a1.24,1.24,0,0,1,.07-.39l1.43-3.49a.78.78,0,0,1,1-.56l1.3.24c.41.08.61.29.61.62a1.24,1.24,0,0,1-.07.39l-1.35,3.31H141c.5,0,.76.22.76.64,0,0,0,.1,0,.14a.93.93,0,0,1,0,.13l-.74,3a.79.79,0,0,1-.93.66l-1.43-.17c-.45,0-.68-.28-.68-.69a1.54,1.54,0,0,1,0-.24l.49-1.94H123.87v2.13a.72.72,0,0,1-.81.82h-1.52a.72.72,0,0,1-.81-.82Z" class="cls-11"/><path data-cppathid="10077" transform="translate(0 0)" d="M154,109.07v.07h.41c.54,0,.81.25.81.74s-.27.74-.81.74h-9c-.54,0-.81-.25-.81-.74s.27-.74.81-.74h.39V99.66h-.24c-.54,0-.81-.24-.81-.73s.27-.74.81-.74h.24V95.54a.72.72,0,0,1,.81-.81h1.52a.72.72,0,0,1,.82.81v2.65h1.86V95.54a.72.72,0,0,1,.81-.81h1.53a.72.72,0,0,1,.81.81v2.65h.24c.54,0,.81.24.81.74s-.27.73-.81.73H154Zm-6.27,6.31a.8.8,0,0,1-.76.57h-.12a.21.21,0,0,1-.12,0l-1.31-.27c-.41-.08-.61-.28-.61-.61a1.25,1.25,0,0,1,.07-.4l1.21-2.82a.75.75,0,0,1,.73-.54l.27,0,1.31.27c.4.09.61.29.61.62a1.24,1.24,0,0,1-.07.39ZM149,101.63h1.86v-2H149Zm0,3.56h1.86V103.1H149Zm0,3.88v.07h1.86v-2.48H149Zm5.6,4.25a1,1,0,0,1,.09.42c0,.31-.19.51-.59.61l-1.25.27a1,1,0,0,1-.27,0,.77.77,0,0,1-.76-.51l-.74-1.52a1,1,0,0,1-.1-.42c0-.31.2-.52.59-.62l1.26-.29a.21.21,0,0,1,.12,0H153a.84.84,0,0,1,.79.55Zm3.73,2.26a.73.73,0,0,1-.84.76l-1.52,0c-.56,0-.82-.27-.79-.83l.94-20c0-.51.29-.76.83-.76l1.53,0a.69.69,0,0,1,.73.44h5.38a.72.72,0,0,1,.81.81v19.33c0,.57-.28.83-.83.78l-3.91-.29c-.49,0-.74-.27-.74-.67a.86.86,0,0,1,.26-.65.8.8,0,0,1,.65-.18l1.43.12v-4.64h-3.66Zm.34-7.22h3.59v-4.82h-3.37Zm3.59-11.67h-3.05l-.24,5.38h3.29Z" class="cls-11"/><path data-cppathid="10078" transform="translate(0 0)" d="M183.94,115a.78.78,0,0,1-.64.34,1.05,1.05,0,0,1-.46-.12l-.74-.34c-.31-.15-.47-.35-.47-.59a1.07,1.07,0,0,1,.2-.52,8.73,8.73,0,0,0,.91-1.81,12.44,12.44,0,0,0,.61-2.24,12.93,12.93,0,0,0,.22-2.38,9.64,9.64,0,0,0-1.1-4.92,4.86,4.86,0,0,0-3.12-2.38,33.64,33.64,0,0,1,.59,5.85,12.72,12.72,0,0,1-1.41,6.48,4.55,4.55,0,0,1-4.17,2.38,5.27,5.27,0,0,1-2.92-.81,5.45,5.45,0,0,1-1.94-2.22,7.34,7.34,0,0,1-.69-3.26,10.49,10.49,0,0,1,.72-3.88,10.16,10.16,0,0,1,2-3.2,9.24,9.24,0,0,1,2.93-2.17,8.06,8.06,0,0,1,3.55-.79,9.63,9.63,0,0,1,4.66,1.07,7.22,7.22,0,0,1,3,3.07,10,10,0,0,1,1.06,4.78A11.13,11.13,0,0,1,183.94,115Zm-12-6.54a8,8,0,0,0,.34,2.4,5.19,5.19,0,0,0,.9,1.76,1.55,1.55,0,0,0,1.16.66c.46,0,.87-.34,1.22-1a10.07,10.07,0,0,0,.84-2.76,23.44,23.44,0,0,0,.3-3.93c0-.84,0-1.7-.11-2.58s-.19-1.79-.35-2.7a6.36,6.36,0,0,0-2.18,1.81,9.83,9.83,0,0,0-1.54,2.89A10.32,10.32,0,0,0,172,108.5Z" class="cls-11"/><path data-cppathid="10079" transform="translate(0 0)" d="M192.93,115.06c0,.51-.29.76-.83.76l-1.5,0a.7.7,0,0,1-.79-.84l.69-15a1.13,1.13,0,0,1,.15-.49.66.66,0,0,1-.12-.42c0-.49.27-.74.81-.74h8.79l-.81-2.5a1.09,1.09,0,0,1,0-.32c0-.38.22-.59.66-.64l1.38-.2h.19a.73.73,0,0,1,.76.61l1,3.07H210c.54,0,.81.25.81.74s-.27.74-.81.74h-6.32l2.12,6.55,2.23-3.58a.87.87,0,0,1,.74-.47,1.57,1.57,0,0,1,.32.05l1,.32c.38.13.57.34.57.61a1,1,0,0,1-.15.45l-3.71,5.91,1.23,3.81,1.4-.37.27,0a.84.84,0,0,1,.76.52,1,1,0,0,1,.12.39c0,.33-.19.54-.58.64l-3.62.94-.14,0h-.13a.74.74,0,0,1-.73-.59l-.64-2L203.49,115a.84.84,0,0,1-.73.46,1.39,1.39,0,0,1-.32,0l-1.06-.32c-.38-.14-.56-.34-.56-.62a.83.83,0,0,1,.14-.44l2.8-4.47-3.17-9.87h-7a2.13,2.13,0,0,1,0,.27l-.2,4.22h6c.55,0,.81.28.76.84l-.76,9.62c-.05.48-.27.72-.67.72l-.27,0-3.88-1c-.41-.1-.61-.3-.61-.59a.31.31,0,0,1,0-.17l.06-.17,0-.08a.84.84,0,0,1,.76-.51H195l.15,0,1.23.29.61-7.51h-3.61ZM209,96.25a.75.75,0,0,1,.42.59.77.77,0,0,1-.29.54l-.25.2a1,1,0,0,1-.64.27,1,1,0,0,1-.46-.15l-3-1.65c-.28-.18-.42-.37-.42-.59a.72.72,0,0,1,.3-.54l.24-.19a1,1,0,0,1,.64-.27.9.9,0,0,1,.47.14Z" class="cls-11"/><path data-cppathid="10080" transform="translate(0 0)" d="M216.36,114.13a.74.74,0,0,1-.88.74l-.79-.05A.69.69,0,0,1,214,114l.32-3.74a.72.72,0,0,1,.88-.73l.78.05a.69.69,0,0,1,.74.86Zm4.28,1.05a.72.72,0,0,1-.81.82H218.3a.72.72,0,0,1-.81-.82v-7.07l-2.7.22c-.49,0-.74-.12-.74-.46a.8.8,0,0,1,.18-.49l2.26-3.52-.05-.07L214.37,101a1,1,0,0,1-.22-.57.84.84,0,0,1,.22-.56l3.93-5.16a.86.86,0,0,1,.69-.39,1.19,1.19,0,0,1,.39.07l.94.32c.34.12.51.31.51.59a.85.85,0,0,1-.19.49l-3.52,4.64.84,1.11.88-1.38a.9.9,0,0,1,.76-.44,1.48,1.48,0,0,1,.32,0l1.06.32c.38.13.56.33.56.59a.64.64,0,0,1,0,.22l-.13.25-3.48,5.42,3-.24-.42-1.7a1.44,1.44,0,0,1,0-.24.66.66,0,0,1,.66-.72l.72-.09a.74.74,0,0,1,.93.64l.91,3.75a1.69,1.69,0,0,1,0,.25.65.65,0,0,1-.66.71l-.71.1a.74.74,0,0,1-.94-.64l-.14-.59h-.08l-.56,0a.85.85,0,0,1,0,.3Zm3.48-1.62a.7.7,0,0,1-.76.86l-.78,0a.71.71,0,0,1-.86-.73l-.32-3.07a.85.85,0,0,1,.17-.63.8.8,0,0,1,.59-.26l.78,0a.72.72,0,0,1,.86.74ZM231,101.75v.07h3.56c.54,0,.81.25.81.74s-.27.74-.81.74H224.37c-.54,0-.81-.25-.81-.74s.27-.74.81-.74h3.49v-1h-2.34c-.54,0-.81-.24-.81-.73s.27-.74.81-.74h2.34V97.87h-3c-.54,0-.81-.25-.81-.74s.27-.73.81-.73h3v-.79a.72.72,0,0,1,.81-.81h1.52a.72.72,0,0,1,.81.81v.79h3c.54,0,.81.24.81.73s-.27.74-.81.74h-3v1.45h2.38c.54,0,.81.24.81.74s-.27.73-.81.73H231Zm-6.56,3a.72.72,0,0,1,.81-.81h1.53a.94.94,0,0,1,.49.12H234a.72.72,0,0,1,.81.81v7.61a.72.72,0,0,1-.81.81H232.5a.91.91,0,0,1-.49-.12h-4.74a.94.94,0,0,1-.49.12h-1.53a.72.72,0,0,1-.81-.81ZM226,116a.89.89,0,0,1-.44.1.9.9,0,0,1-.66-.32l-.12-.12a.78.78,0,0,1-.27-.52c0-.24.16-.44.49-.59l2.13-1a1.1,1.1,0,0,1,.45-.09.87.87,0,0,1,.66.32l.12.12a.76.76,0,0,1,.27.51c0,.25-.16.45-.49.59Zm5.68-10.49h-4.1v1h4.1Zm-4.1,3.64h4.1V108h-4.1Zm0,2.53h4.1v-1.06h-4.1Zm6.95,3c.32.15.49.34.49.59a.84.84,0,0,1-.22.49l-.17.17a.88.88,0,0,1-1.11.25L231.07,115c-.32-.15-.49-.35-.49-.59a.75.75,0,0,1,.22-.49l.18-.17a1,1,0,0,1,.68-.35.87.87,0,0,1,.42.1Z" class="cls-11"/><path data-cppathid="10081" transform="translate(0 0)" d="M253.42,115a.78.78,0,0,1-.64.34,1.05,1.05,0,0,1-.46-.12l-.74-.34c-.31-.15-.47-.35-.47-.59a1.07,1.07,0,0,1,.2-.52,8.27,8.27,0,0,0,.91-1.81,12.44,12.44,0,0,0,.61-2.24,13,13,0,0,0,.23-2.38,9.64,9.64,0,0,0-1.11-4.92,4.86,4.86,0,0,0-3.12-2.38,33.64,33.64,0,0,1,.59,5.85,12.72,12.72,0,0,1-1.41,6.48,4.54,4.54,0,0,1-4.16,2.38,5.28,5.28,0,0,1-2.93-.81,5.45,5.45,0,0,1-1.94-2.22,7.34,7.34,0,0,1-.69-3.26,10.49,10.49,0,0,1,.72-3.88,10.16,10.16,0,0,1,2-3.2,9.24,9.24,0,0,1,2.93-2.17,8.06,8.06,0,0,1,3.55-.79,9.63,9.63,0,0,1,4.66,1.07,7.22,7.22,0,0,1,3,3.07,10,10,0,0,1,1.06,4.78A11.13,11.13,0,0,1,253.42,115Zm-12-6.54a8,8,0,0,0,.34,2.4,5.19,5.19,0,0,0,.9,1.76,1.55,1.55,0,0,0,1.17.66c.45,0,.86-.34,1.21-1a10.07,10.07,0,0,0,.84-2.76,23.44,23.44,0,0,0,.3-3.93c0-.84,0-1.7-.11-2.58s-.19-1.79-.35-2.7a6.36,6.36,0,0,0-2.18,1.81A9.83,9.83,0,0,0,242,105,10.32,10.32,0,0,0,241.44,108.5Z" class="cls-11"/><path data-cppathid="10082" transform="translate(0 0)" d="M262.78,115.11a.72.72,0,0,1-.81.81h-1.52a.72.72,0,0,1-.81-.81V95.86a.72.72,0,0,1,.81-.81H262a.85.85,0,0,1,.59.19h5.87a.72.72,0,0,1,.81.81v8.28a.72.72,0,0,1-.81.81h-1.52a.82.82,0,0,1-.52-.15h-3.61Zm3.32-18.39h-3.32v2.82h3.32Zm-3.32,6.8h3.32V101h-3.32Zm3.39,11.59a.9.9,0,0,1-.66.32,1.34,1.34,0,0,1-.47-.12l-.71-.32c-.33-.15-.49-.35-.49-.59a.78.78,0,0,1,.27-.54l1.84-1.92a.9.9,0,0,1-.34,0h-1.53a.72.72,0,0,1-.81-.81v-2.85a.72.72,0,0,1,.81-.81h1.16l-.45-.61a.87.87,0,0,1-.19-.49c0-.28.18-.49.54-.62l1-.34a1,1,0,0,1,.37-.07.83.83,0,0,1,.71.41l1,1.35a.89.89,0,0,1,.2.49v0h2.87a.82.82,0,0,1,.22-.52l1.13-1.4a.91.91,0,0,1,.72-.36,1.24,1.24,0,0,1,.39.07l.88.34c.35.12.52.31.52.59a.81.81,0,0,1-.22.52l-.62.76h.84a.72.72,0,0,1,.81.81v2.7a.72.72,0,0,1-.81.81h-1.52a.82.82,0,0,1-.52-.15h-.59v2.07H273v-.22c0-.13.27-.2.81-.2h1.53a.72.72,0,0,1,.81.81v.27a.72.72,0,0,1-.81.81h-5.21a.72.72,0,0,1-.81-.81v-2.73h-.27a.85.85,0,0,1-.27.52Zm6.61-6h-6.36v1.23h6.36Zm4.22,6.32c-.54,0-.78-.32-.71-.82s.15-.73.22-.73l.1,0v-9.11h-3.69a.74.74,0,0,1-.68.32h-1.53a.72.72,0,0,1-.81-.81V95.86a.72.72,0,0,1,.81-.81h1.53a.87.87,0,0,1,.59.19h6.11a.72.72,0,0,1,.81.81v18.77c0,.57-.28.83-.83.78Zm-.39-18.74h-3.56v2.72h3.56Zm-3.56,6.63h3.56v-2.43h-3.56Z" class="cls-11"/><path data-cppathid="10083" transform="translate(0 0)" d="M285.6,115.55a.93.93,0,0,1-.45.1.9.9,0,0,1-.68-.32l-.13-.12a.74.74,0,0,1-.24-.52c0-.24.16-.44.49-.59l3-1.35h-.91a.72.72,0,0,1-.81-.81V105a.72.72,0,0,1,.81-.81h1.52a.83.83,0,0,1,.64.24h13a.72.72,0,0,1,.81.81V112a.72.72,0,0,1-.81.81h-1.53a.85.85,0,0,1-.49-.13h-1.91v1.23h4.05v-.37q0-.36.81-.36h1.52a.72.72,0,0,1,.81.81v.59a.72.72,0,0,1-.81.81h-8.72a.72.72,0,0,1-.81-.81v-1.9h-3.09a.71.71,0,0,1-.39.32Zm6.95-13.31v.08h1.27c.54,0,.81.24.81.73s-.27.74-.81.74h-6.75a.82.82,0,0,1-.52.15H285a.72.72,0,0,1-.81-.81V95.32a.72.72,0,0,1,.81-.82h1.52a.82.82,0,0,1,.52.15h6.68c.54,0,.81.25.81.74s-.27.74-.81.74H292.6v1.1H294a.72.72,0,0,1,.81.81v2.61a.72.72,0,0,1-.81.81h-1.4Zm-3.1-6v-.07h-2.09v1.1h2.09v-1Zm2.16,2.51h-4.25v1.12h4.25Zm-2.21,2.67v-.07h-2v1h2v-.94Zm10.07,4.55H289v.83h10.46ZM289,109h10.46v-.74H289Zm0,2.26h10.46v-.79H289Zm9.14-11a.72.72,0,0,1-.86.74l-1.53-.07c-.55,0-.81-.32-.76-.86l.49-4.62a.73.73,0,0,1,.86-.74l1.53.08a.69.69,0,0,1,.73.86l-.09,1h5.32c.55,0,.82.24.82.73s-.27.74-.82.74h-5.47Zm5.2,1.55c.54,0,.81.25.81.74s-.27.73-.81.73h-5.67c-.54,0-.81-.24-.81-.73s.27-.74.81-.74Z" class="cls-11"/><path data-cppathid="10084" transform="translate(0 0)" d="M360.43,133.66a1,1,0,0,1,.27-.78,1,1,0,0,1,.75-.3h1.8a.9.9,0,0,1,.69.28,1.12,1.12,0,0,1,.3.71,7.28,7.28,0,0,0,1.26,3.9,3.45,3.45,0,0,0,2.91,1.44,3.73,3.73,0,0,0,2.87-1.08,4.14,4.14,0,0,0,1-2.94,4,4,0,0,0-1.26-2.73,19.25,19.25,0,0,0-3.72-2.91,29.1,29.1,0,0,1-3.49-2,5.21,5.21,0,0,1-1.8-2,6.47,6.47,0,0,1-.53-2.8,4.44,4.44,0,0,1,.74-2.31,5.82,5.82,0,0,1,2.23-2,7.78,7.78,0,0,1,3.78-.82,8.29,8.29,0,0,1,3.27.67,16.67,16.67,0,0,1,3.18,1.82,1.08,1.08,0,0,1,.6,1,.79.79,0,0,1-.48.75l-.72.36-.22.07a.53.53,0,0,1-.2,0,1,1,0,0,1-.63-.24,29.35,29.35,0,0,0-2.73-2.06,3.83,3.83,0,0,0-2.07-.64,3,3,0,0,0-2.29,1,3.37,3.37,0,0,0-.92,2.39,5.5,5.5,0,0,0,.74,2.82,6.51,6.51,0,0,0,3,2.31,24.75,24.75,0,0,1,3.74,2.08,10.6,10.6,0,0,1,2.58,2.42,4.66,4.66,0,0,1,.94,2.82,4.87,4.87,0,0,1-1,3,6.71,6.71,0,0,1-2.7,2.08,9.54,9.54,0,0,1-3.93.77,7.87,7.87,0,0,1-5.55-1.94A7.76,7.76,0,0,1,360.43,133.66Z" class="cls-12"/></g><g id="heading"><g id="underline"><path data-cppathid="10085" transform="translate(0 0)" d="M342.73,43.44c-3.72-.11-7.44-.23-11.17-.33-1.07,0-2.16,0-3.24,0a20.18,20.18,0,0,1-2.93-.09,42.07,42.07,0,0,0-5.84-.25c-4.4-.08-8.8-.23-13.21-.3-2.24,0-4.47-.32-6.73-.15-3.47-.39-7.05.07-10.54-.36a15.7,15.7,0,0,0-3.21,0,27.42,27.42,0,0,1-3.51,0c-1.85-.07-3.71-.06-5.56-.13a118,118,0,0,0-12.62.08,5.17,5.17,0,0,1-.88,0c-3.81-.37-7.65-.13-11.47-.17-.88,0-1.77,0-2.65-.07a40.09,40.09,0,0,0-7.27.12,63.59,63.59,0,0,1-7,0c-2.16,0-4.31,0-6.47,0-1.66,0-3.33.06-5,0-3.93-.12-7.84,0-11.76.15a14.76,14.76,0,0,1-1.76,0c-4.7-.34-9.41-.17-14.12-.12-1.67,0-3.34,0-5,0-2.35,0-4.7.1-7,.16a23.23,23.23,0,0,1-2.35,0,33.18,33.18,0,0,0-5.55,0,15.39,15.39,0,0,1-2.63,0c-1.45-.16-2.92-.18-4.36-.29a62.88,62.88,0,0,0-6.73,0c-3.53.09-7.07.07-10.61.08-2.74,0-5.49,0-8.24,0-1.57,0-3.14,0-4.71,0a31,31,0,0,0-4.09.14,15.66,15.66,0,0,1-3.21,0,23.61,23.61,0,0,0-4.68,0,18.64,18.64,0,0,1-4.09,0,17.14,17.14,0,0,0-2-.08c-1,0-2,0-2.93,0-3.64-.15-7.27-.08-10.9,0-.48,0-1,0-1.46,0-4.8-.09-9.6-.2-14.41.06-1.73.09-3.52-.12-5.28-.11-3.24,0-6.48.11-9.71.1-2.75,0-5.49-.09-8.23-.18-2.06-.06-4.1-.14-6.17,0a28.68,28.68,0,0,1-5.56-.16,19.23,19.23,0,0,0-4.09-.13c-.48,0-1,0-1.47,0a3.74,3.74,0,0,1-3-1c-.54-.57-.21-1.58.71-2a4.41,4.41,0,0,1,1.59-.33c1.66,0,3.33,0,5,0,1.47,0,2.93.19,4.39.19,4,0,8,0,12.08,0,1.18,0,2.35,0,3.53,0a13.7,13.7,0,0,0,2,0,11,11,0,0,1,3.19-.06,5.16,5.16,0,0,0,1.17.06c3.47-.44,7,.27,10.52-.2a37.81,37.81,0,0,1,4.4,0c2,0,3.93,0,5.89,0,2.84-.05,5.67-.15,8.51,0a16.76,16.76,0,0,0,2.35,0,74.67,74.67,0,0,1,7.92-.12,39.09,39.09,0,0,0,5,0c.48-.05,1,0,1.47-.05,2.94-.07,5.87-.15,8.81-.2,1.07,0,2.15,0,3.22.07a11.59,11.59,0,0,0,1.75.07,35.46,35.46,0,0,1,5.83,0,12,12,0,0,0,1.47,0c4.29-.4,8.62-.13,12.93-.26,1.47-.05,2.94-.09,4.41-.11,2.24,0,4.48-.06,6.72,0,1.56,0,3.1,0,4.66-.07,1.35-.08,2.73,0,4.1,0,.88,0,1.76.11,2.63.07a67.58,67.58,0,0,1,10.26,0,5.72,5.72,0,0,0,1.16-.06,23.61,23.61,0,0,1,4.68,0,17.67,17.67,0,0,0,2.91,0,36.34,36.34,0,0,1,7.3,0,7.89,7.89,0,0,0,1.74.1c2.42-.23,4.87.05,7.28-.14a6.5,6.5,0,0,1,.88,0c5.48.36,11,.12,16.48.22,3.43.06,6.87,0,10.31,0,1,0,1.94.1,2.92.12.68,0,1.36,0,2,0a7.93,7.93,0,0,1,1.15-.09,38,38,0,0,0,6.13.14,87.46,87.46,0,0,1,9,.37,5.2,5.2,0,0,0,.88,0c2.84-.21,5.68.06,8.52,0,1.07,0,2.15.08,3.22.14a8,8,0,0,0,1.15.11c2.56-.28,5.06.13,7.6.12h.59a92.51,92.51,0,0,1,10.81.5,17.48,17.48,0,0,0,2.05.06c4-.07,8,.26,12,.43,1.16,0,2.28.3,3.44.36s2.14-.06,3.2,0q9.36.54,18.71,1.14c3.21.21,6.39.53,9.64.59a24.47,24.47,0,0,1,3.44.39,5.89,5.89,0,0,1,1.45.49c.41.19.2.71-.32.78a14.86,14.86,0,0,1-2,.16c-3.14,0-6.29,0-9.43,0Z" class="cls-11"/></g><path data-cppathid="10086" transform="translate(0 0)" d="M70.13,30.1a1.12,1.12,0,0,1-1,.61,1.91,1.91,0,0,1-.42-.06l-1.37-.42c-.49-.17-.74-.44-.74-.8a1.27,1.27,0,0,1,.19-.58L78.26,10.49H58.67q-1.05,0-1.05-1t1.05-1h23.4c.59,0,.89.22.89.67a1.32,1.32,0,0,1-.19.61Zm11-20.18a6.62,6.62,0,0,1-2.76-.57,4.9,4.9,0,0,1-2-1.52,3.47,3.47,0,0,1-.72-2.16,3.51,3.51,0,0,1,.72-2.16,5,5,0,0,1,2-1.51,6.77,6.77,0,0,1,2.76-.55A6.68,6.68,0,0,1,83.94,2a4.94,4.94,0,0,1,2,1.51,3.46,3.46,0,0,1,.73,2.16,3.42,3.42,0,0,1-.73,2.16,4.87,4.87,0,0,1-2,1.52A6.53,6.53,0,0,1,81.17,9.92ZM81.09,8.5a1.87,1.87,0,0,0,1.12-.4,3,3,0,0,0,.92-1,2.7,2.7,0,0,0,.37-1.38,2.9,2.9,0,0,0-.35-1.39,3,3,0,0,0-.91-1,1.88,1.88,0,0,0-2.29,0,2.87,2.87,0,0,0-.92,1,2.8,2.8,0,0,0-.36,1.39A2.7,2.7,0,0,0,79,7.05a3.15,3.15,0,0,0,.92,1A1.9,1.9,0,0,0,81.09,8.5Z" class="cls-11"/><path data-cppathid="10087" transform="translate(0 0)" d="M114,29.27a.94.94,0,0,1-1,1.06h-2a.92.92,0,0,1-1-.68H93.68a.92.92,0,0,1-1,.68h-2a.94.94,0,0,1-1.06-1.06V9.81a.93.93,0,0,1,1.06-1.05h2a1.29,1.29,0,0,1,.29,0h20a.93.93,0,0,1,1,1.06Zm-4.09-18.56H93.75v17h16.16Z" class="cls-11"/><path data-cppathid="10088" transform="translate(0 0)" d="M123.57,20.18a1,1,0,0,1-.9.61.75.75,0,0,1-.22,0l-.22,0-1.51-.39c-.49-.13-.73-.39-.73-.8a1.24,1.24,0,0,1,.16-.57l7.13-12.61a1,1,0,0,1,.9-.61.75.75,0,0,1,.22,0l.23,0,1.5.39c.49.13.74.39.74.8a1.37,1.37,0,0,1-.16.57l0,.07h13.54c.62,0,.93.23.93.7a1.43,1.43,0,0,1-.19.58L132.72,30.1a1.1,1.1,0,0,1-1,.61l-.19,0-.22,0-1.44-.39c-.52-.13-.77-.39-.77-.8a1.1,1.1,0,0,1,.19-.57l4.86-8.42-.06,0L128,16.79a.84.84,0,0,1-.55-.74,1,1,0,0,1,.45-.73l.39-.32a1.15,1.15,0,0,1,1.47-.1l5.66,3.39,5.06-8.73H129.59Zm22.14-12.5a.67.67,0,0,1,0,.27c0,.4-.29.63-.87.67l-.93.1c-.66.08-1.06-.13-1.21-.63L141.07,3a.88.88,0,0,1,0-.26c0-.41.29-.63.87-.68l.92-.1c.69-.08,1.1.13,1.25.63Zm3.52-1.48a.7.7,0,0,1,0,.27c0,.37-.28.6-.84.68l-.92.12c-.69.08-1.1-.13-1.25-.63L144.63,1.9a.44.44,0,0,1,0-.15.59.59,0,0,1,0-.14c0-.36.29-.57.87-.65l.92-.13c.69-.08,1.1.13,1.25.63Z" class="cls-11"/><path data-cppathid="10089" transform="translate(0 0)" d="M153.3,19.8a1.12,1.12,0,0,1-.93.57,1.45,1.45,0,0,1-.48-.09l-1.31-.42c-.49-.17-.74-.44-.74-.8a1.11,1.11,0,0,1,.23-.61l7.42-11.23a1.11,1.11,0,0,1,.93-.57,1.28,1.28,0,0,1,.48.09l1.31.42c.49.17.74.44.74.8a1.22,1.22,0,0,1-.23.61l-.13.19h14.76c.59,0,.89.22.89.67a1.32,1.32,0,0,1-.19.61l-12.8,20.57a1.12,1.12,0,0,1-1,.61,1.91,1.91,0,0,1-.42-.06l-1.37-.42c-.49-.17-.74-.44-.74-.8a1.2,1.2,0,0,1,.19-.57l11.59-18.69H159.31Z" class="cls-11"/><path data-cppathid="10090" transform="translate(0 0)" d="M187.7,30.29a.93.93,0,0,1-1.06,1.06h-2a.93.93,0,0,1-1.06-1.06V8.05A.93.93,0,0,1,184.66,7h2a.93.93,0,0,1,1.06,1.05v9.09l11.58,3.75c.49.17.74.42.74.76a1,1,0,0,1-.19.55l-.13.16a1.08,1.08,0,0,1-.93.54h-.21l-.24-.05L187.7,19.41Z" class="cls-11"/><path data-cppathid="10091" transform="translate(0 0)" d="M208.5,28.92a1,1,0,0,1-1.22.8l-1.85-.23c-.6-.06-.9-.36-.9-.89a1.78,1.78,0,0,1,.06-.35L210,9.46a1,1,0,0,1,1.22-.8l1.85.23c.6.06.9.36.9.89a1.78,1.78,0,0,1-.06.35Zm21.21-.74a1.8,1.8,0,0,1,0,.19,1.36,1.36,0,0,1,0,.2c0,.51-.29.8-.87.86l-1.88.22a1,1,0,0,1-1.22-.8L220.5,10a1.8,1.8,0,0,1-.05-.19,1.36,1.36,0,0,1,0-.2c0-.51.29-.8.87-.86l1.89-.22a1,1,0,0,1,1.21.83Zm-1.18-17.65a1.12,1.12,0,0,1,0,.29c0,.44-.29.69-.86.74l-.93.11c-.66.08-1.07-.15-1.22-.69l-1.66-5.56a1.12,1.12,0,0,1,0-.29c0-.44.29-.69.86-.74l.93-.1c.68-.09,1.1.14,1.25.68Zm3.52-1.62a1.21,1.21,0,0,1,0,.3c0,.4-.28.65-.83.74l-.93.13c-.68.09-1.1-.14-1.25-.69l-1.63-5.18a1.42,1.42,0,0,1-.05-.16.92.92,0,0,1,0-.16c0-.39.29-.63.86-.72l.93-.13c.68-.09,1.1.14,1.25.69Z" class="cls-11"/><path data-cppathid="10092" transform="translate(0 0)" d="M239.44,20.57a1.56,1.56,0,0,1,0,.35c0,.51-.28.8-.86.86l-1.86.23a1.06,1.06,0,0,1-1.24-.87l-1.22-4.93a.58.58,0,0,1,0-.19v-.16c0-.51.29-.8.86-.86l1.86-.23a1,1,0,0,1,1.21.87Zm5.25-.8a.85.85,0,0,1,0,.25q0,.84-1,.93l-1.92.16a1,1,0,0,1-1.18-.93l-.87-4.93a.85.85,0,0,1,0-.25q0-.84,1-.93l1.92-.16a1,1,0,0,1,1.18.93Zm1.69,10.52a1.06,1.06,0,0,1-1,.71h-.16a.38.38,0,0,1-.16,0l-1.63-.39c-.51-.13-.77-.39-.77-.8a1.13,1.13,0,0,1,.13-.54l6.46-13.35a1.08,1.08,0,0,1,1-.7h.16a.41.41,0,0,1,.16,0l1.63.39c.51.12.77.39.77.8a1.26,1.26,0,0,1-.13.54Z" class="cls-11"/><path data-cppathid="10093" transform="translate(0 0)" d="M260.75,19.8a1.09,1.09,0,0,1-.93.57,1.54,1.54,0,0,1-.48-.09L258,19.86c-.49-.17-.73-.44-.73-.8a1.09,1.09,0,0,1,.22-.61l7.42-11.23a1.12,1.12,0,0,1,.93-.57,1.28,1.28,0,0,1,.48.09l1.31.42c.5.17.74.44.74.8a1.2,1.2,0,0,1-.22.61l-.13.19H282.8c.6,0,.9.22.9.67a1.35,1.35,0,0,1-.2.61L270.7,30.61a1.1,1.1,0,0,1-1,.61,1.91,1.91,0,0,1-.41-.06L268,30.74c-.49-.17-.73-.44-.73-.8a1.1,1.1,0,0,1,.19-.57L279,10.68H266.77Z" class="cls-11"/><path data-cppathid="10094" transform="translate(0 0)" d="M314.19,29.27a.94.94,0,0,1-1.05,1.06h-2a.92.92,0,0,1-1-.68H293.87a.92.92,0,0,1-1,.68h-2a.94.94,0,0,1-1.06-1.06V9.81a.93.93,0,0,1,1.06-1.05h2a1.29,1.29,0,0,1,.29,0h20a.93.93,0,0,1,1.05,1.06ZM310.1,10.71H293.94v17H310.1Z" class="cls-11"/><path data-cppathid="10095" transform="translate(0 0)" d="M323.6,19.8a1.12,1.12,0,0,1-.93.57,1.45,1.45,0,0,1-.48-.09l-1.31-.42c-.49-.17-.74-.44-.74-.8a1.11,1.11,0,0,1,.23-.61l7.42-11.23a1.12,1.12,0,0,1,.93-.57,1.28,1.28,0,0,1,.48.09l1.31.42c.49.17.74.44.74.8a1.22,1.22,0,0,1-.23.61l-.12.19h14.75c.6,0,.89.22.89.67a1.32,1.32,0,0,1-.19.61l-12.8,20.57a1.1,1.1,0,0,1-1,.61,1.91,1.91,0,0,1-.41-.06l-1.38-.42c-.49-.17-.74-.44-.74-.8a1.12,1.12,0,0,1,.2-.57l11.58-18.69H329.62ZM346.48,9.08a1.56,1.56,0,0,1,0,.35.84.84,0,0,1-.86.9l-.93.12a1,1,0,0,1-1.22-.83L341.84,2.9a1.56,1.56,0,0,1,0-.35.84.84,0,0,1,.86-.9l.93-.12a1,1,0,0,1,1.25.83ZM350,7.13a1.56,1.56,0,0,1,0,.35c0,.49-.27.79-.83.89l-.93.16A1,1,0,0,1,347,7.7l-1.63-6.27a1.33,1.33,0,0,1-.05-.19,1.28,1.28,0,0,1,0-.19c0-.47.29-.76.86-.87l.93-.16a1,1,0,0,1,1.25.83Z" class="cls-11"/></g></g></g></g></g></svg>