<?xml version="1.0" encoding="UTF-8"?>
<svg xmlns="http://www.w3.org/2000/svg" onmouseup="{ if(window.parent.document.onmouseup) window.parent.document.onmouseup(arguments[0]);}" viewBox="0 0 355.85 148.26" xmlns:xlink="http://www.w3.org/1999/xlink"><defs><style>.cls-1{fill:url(#linear-gradient);}.cls-2{fill:url(#linear-gradient-2);}.cls-3{fill:#fff;}.cls-4{fill:url(#radial-gradient);}.cls-5{fill:#ef4a50;}.cls-6{fill:#ffd12b;}.cls-7{fill:#75bf37;}.cls-10,.cls-8{fill:none;stroke-miterlimit:10;}.cls-8{stroke:#1a1a1a;stroke-width:0.91px;}.cls-9{fill:#1f1f1f;}.cls-10{stroke:#515154;stroke-width:0.94px;}</style><linearGradient gradientUnits="userSpaceOnUse" y2="210.5" x2="214.4" y1="-57.75" x1="142.52" id="linear-gradient"><stop stop-color="#383838" offset="0"/><stop stop-color="#292929" offset="1"/></linearGradient><linearGradient gradientUnits="userSpaceOnUse" y2="112.97" x2="280.32" y1="95.64" x1="272.62" id="linear-gradient-2"><stop stop-color="#b7b7b7" offset="0"/><stop stop-color="#a6a6a6" offset="1"/></linearGradient><radialGradient gradientUnits="userSpaceOnUse" gradientTransform="translate(-223.6 -5447.49) scale(0.83 0.33)" r="216.2" cy="16501.17" cx="401.23" id="radial-gradient"><stop stop-color="#383838" offset="0"/><stop stop-color="#262626" offset="1"/></radialGradient></defs><g data-name="Layer 2" id="Layer_2"><g data-name="Layer 1" id="Layer_1-2"><rect data-cppathid="10000" height="147.79" width="355.85" y="0.47" class="cls-1"/><rect data-cppathid="10001" rx="3.94" height="17.19" width="80.97" y="109.23" x="242" class="cls-2"/><path data-cppathid="10002" d="M281.3,117.88a4.17,4.17,0,0,1-.38,1.82,2.72,2.72,0,0,1-1.08,1.19,3.37,3.37,0,0,1-3.22,0,2.75,2.75,0,0,1-1.08-1.18,3.85,3.85,0,0,1-.4-1.77v-.51a4.15,4.15,0,0,1,.38-1.81,2.77,2.77,0,0,1,1.09-1.2,3.06,3.06,0,0,1,1.6-.42,3.21,3.21,0,0,1,1.63.41,2.75,2.75,0,0,1,1.08,1.2,4.17,4.17,0,0,1,.38,1.82Zm-1-.46a3,3,0,0,0-.55-1.94,1.85,1.85,0,0,0-1.53-.68,1.83,1.83,0,0,0-1.5.68,3,3,0,0,0-.57,1.88v.52a3,3,0,0,0,.56,1.92,2,2,0,0,0,3,0,3,3,0,0,0,.55-1.89Z" class="cls-3"/><path data-cppathid="10003" d="M284.76,117.9l-.94.9v2.4h-1v-7.1h1v3.51l3.4-3.51h1.22l-3,3.13,3.25,4h-1.21Z" class="cls-3"/><rect data-cppathid="10004" height="30.5" width="355.85" y="0.47" class="cls-4"/><path data-cppathid="10005" d="M32.39,15.72a6,6,0,1,1-6-6A6,6,0,0,1,32.39,15.72Z" class="cls-5"/><path data-cppathid="10006" d="M55.89,15.72a6,6,0,1,1-6-6A6,6,0,0,1,55.89,15.72Z" class="cls-6"/><path data-cppathid="10007" d="M79.39,15.72a6,6,0,1,1-6-6A6,6,0,0,1,79.39,15.72Z" class="cls-7"/><line data-cppathid="10008" y2="30.98" x2="355.85" y1="30.98" class="cls-8"/><path data-cppathid="10009" d="M31.79,59.23,19.17,82.43a2.55,2.55,0,0,0,2.24,3.77H46.65a2.55,2.55,0,0,0,2.24-3.77L36.27,59.23A2.55,2.55,0,0,0,31.79,59.23Z" class="cls-6"/><path data-cppathid="10010" d="M33.17,76.92l-.76-11a2.45,2.45,0,0,1,.41-1.5A1.34,1.34,0,0,1,34,63.88c1,0,1.55.77,1.55,2.31l-.82,10.73ZM33.91,79a1.83,1.83,0,1,0,1.82,1.83A1.83,1.83,0,0,0,33.91,79Z" class="cls-9"/><line data-cppathid="10011" y2="0.47" x2="355.85" y1="0.47" class="cls-10"/><path data-cppathid="10012" d="M125.31,58.86l2.25-10.69,7.31,2.53q-4.78,17.71-4.78,30.66A156.83,156.83,0,0,0,132.34,105l-7,1.69a155.48,155.48,0,0,1-2-23.34A144.57,144.57,0,0,1,125.31,58.86Zm43.59,1.4q2.81-.55,10.69-3.09l.28,6.75c-5.63,1.31-9.28,2.07-11,2.25q-.28,7.32.28,22.22a69.57,69.57,0,0,1,14.34,8.16l-4.5,5.62a104.08,104.08,0,0,0-9.56-7c-.19,3.56-1.12,6.19-2.81,7.87q-2.82,2.53-9.84,2.54t-11-3.38c-2.82-2.25-4.22-4.78-4.22-7.59A7.52,7.52,0,0,1,145,88.39q3.38-2.53,11-2.53,1.13,0,6.75.56L162.15,67q-6.75.57-12.09.57a77.8,77.8,0,0,1-8.44-.57V60.55q9.84.84,12.37.84,4.78,0,8.16-.28l-.28-3.66V47.05h7.31Q168.9,51,168.9,60.26ZM163,92.05a49.83,49.83,0,0,0-7.59-.85,12.26,12.26,0,0,0-6.47,1.41,2.7,2.7,0,0,0-1.69,2.53,3.43,3.43,0,0,0,2,3.09,10.07,10.07,0,0,0,6.19,1.69q4.22,0,5.91-1.69Q163,96.84,163,92.05Z" class="cls-6"/><path data-cppathid="10013" d="M211.09,78.55v9.28h-5.91V76.58A5.63,5.63,0,0,1,206,73.2a4.25,4.25,0,0,1,3.38-1.69c3.75-.93,6.19-2.06,7.31-3.37a6.46,6.46,0,0,0,1.69-4.78,8.41,8.41,0,0,0-2.53-6.19q-3.1-2.25-8.44-2.25A11,11,0,0,0,199.27,58c-1.68,1.69-2.53,4.41-2.53,8.16h-7.31c.37-5.44,1.59-9.18,3.66-11.25q5.06-5.34,14.34-5.34t14.06,3.93a12.36,12.36,0,0,1,4.22,9.85A11.57,11.57,0,0,1,223.18,71a14.57,14.57,0,0,1-8.44,4.78,5.36,5.36,0,0,0-3.09,1.13A2.28,2.28,0,0,0,211.09,78.55Zm-7,21.65V94.86l1.12-1.13h5.63l1.4,1.41v5.06l-1.4,1.41h-5.63Z" class="cls-6"/></g></g></svg>