<?xml version="1.0" encoding="UTF-8"?>
<svg xmlns="http://www.w3.org/2000/svg" onmouseup="{ if(window.parent.document.onmouseup) window.parent.document.onmouseup(arguments[0]);}" viewBox="0 0 248.46 328.44"><defs><style>.cls-1{fill:#6b6b6b;opacity:0.13;}.cls-2{fill:#322612;}.cls-3{fill:#363b35;}.cls-4{fill:#292d27;opacity:0.59;}.cls-5{fill:#fcc388;}.cls-6{fill:#a8a7a5;}.cls-7{fill:#d5d3d0;}.cls-8{fill:#ddb23a;}.cls-18,.cls-8{stroke:#7b5120;stroke-width:1.05px;}.cls-9{fill:#eba061;}.cls-10{fill:#7d7c66;}.cls-11{fill:#545147;}.cls-12{fill:#fcc287;}.cls-13,.cls-15{stroke:#000;}.cls-13{stroke-width:0.66px;}.cls-14{fill:#fff;}.cls-15{stroke-width:0.86px;}.cls-16{fill:#7b5120;}.cls-17{fill:#ffcc52;}.cls-18,.cls-20{fill:none;}.cls-19{fill:#555e53;}.cls-20{stroke:#2e332d;stroke-width:3.15px;}.cls-21{fill:#dae2d6;}.cls-22{fill:#2e332d;}.cls-23{fill:#738070;}</style></defs><g data-name="Layer 2" id="Layer_2"><g data-name="Layer 1" id="Layer_1-2"><path data-cppathid="10000" d="M71.21,320.91c0,4.16,39.68,7.53,88.63,7.53s88.62-3.37,88.62-7.53-39.68-7.52-88.62-7.52S71.21,316.76,71.21,320.91Z" class="cls-1"/><path data-cppathid="10001" d="M109.23,220s-.33,4.08-.43,6.14c-2,39.87,12,82.91,12,82.91s-11.18,6.13-13.11,9.2,26.63-1.52,26.63-1.52-5.79-55.28-3.86-67.56,9.64,64.12,13.5,68.73,25.22,4.57,25.22,4.57-8.17-7.41-11.06-11.25-6-54.64-6.39-83.54c0-.79,0-2.3,0-2.3Z" class="cls-2"/><path data-cppathid="10002" d="M111.26,75.94S78.59,50.61,87.9,32.3c6.4-12.59,36,15.19,45.8,18.42s54.13-13.87,70.5-6.83c21.06,9,36.72,53.05-19.53,54.79C125,100.53,111.26,75.94,111.26,75.94Z" class="cls-3"/><path data-cppathid="10003" d="M103.54,64.73a50.68,50.68,0,0,0,6.82,6.41,15,15,0,0,0,1.52-3.06c1.32-3.61,1.44-7.74,1.5-11.54.07-4.2-.43-13.4-6.44-10.23a.53.53,0,0,0-.14.11c-4.61,1.28-5.49,10.21-6.69,14.53C103.23,64.62,103.54,64.73,103.54,64.73Z" class="cls-4"/><path data-cppathid="10004" d="M192.82,62.07c1.94,4.41,4.56,8.23,6.37,12.68,1.49,3.69,3.35,10.81,1.83,14.94-1.77,4.78-5,7.33-8.68,9.56-2-.06-4.17-.2-6.44-.44-.54-3.45.12-6.92.88-10.39,1.58-7.14,3.3-14.19,2.81-21.55C189.5,65.51,191.71,62.63,192.82,62.07Z" class="cls-4"/><path data-cppathid="10005" d="M48.52,132.83s0,4.57,1.4,6,2.29-1.06,2.64-2.29S48.52,132.83,48.52,132.83Z" class="cls-5"/><path data-cppathid="10006" d="M.1,101.37c.88,1.06,58.61,40.07,58.61,40.07l.53-4.92S-.78,100.32.1,101.37Z" class="cls-6"/><path data-cppathid="10007" d="M0,101.2c.88,1,58.88,38.84,58.88,38.84l.35-4.22S-.87,100.14,0,101.2Z" class="cls-7"/><path data-cppathid="10008" d="M72.42,149.35s-5.1-3.34-5.45-6-3.87-11.6-4.92-11.78a21.81,21.81,0,0,0-3.52,0l-6.32.18,4.57,3.34s1.58,4.39,1.93,4.92-5.27-7.56-6.5-5.28S55,143,57.3,144.08s-.52,9.84,9.67,9.31" class="cls-5"/><path data-cppathid="10009" d="M137.42,153s5.38-7.93-.79-8.57-36.57,8.55-41.15,8c-19.71-2.53-27.08-8-27.08-8L65.32,155c19.78,9.92,17.58,6.31,26.91,8.9C103.15,166.92,137.42,153,137.42,153Z" class="cls-8"/><polygon data-cppathid="10010" points="142.61 132.52 143.13 136.04 131.34 150.63 134.1 135.83 142.61 132.52" class="cls-9"/><path data-cppathid="10011" d="M108.84,66.75c2.36,1.39-1.86,12.73-1.37,16.66.17-.56.4-1.07.55-1.73.24.9,1,2,1.18,3,.15-.16.47-1,.81-1,.06,1.17.51,2.38.58,3.48.19-.58.36-1.14.53-1.76.94,2.41.64,4.91,2.45,6.69.79-3.77,6.64-31.54-3.15-25.31" class="cls-10"/><path data-cppathid="10012" d="M114.41,46.77c-3.28,2.3-7,5.21-7.61,8.7.9-.51,2.48-.95,3.4-1.5A19.17,19.17,0,0,0,107,63.33a.89.89,0,0,0,.41-.52,8.71,8.71,0,0,1,.2,4.59c.29-.13.66-.52,1-.62-.38,2.63-.15,8.67,1.43,10.83,2.68-3.28,3.77-7.25,6.31-10.66,2.85-3.84,6.17-7.47,8.94-11.35,1.45-2,5.64-8.93,2.78-10.44-3.17-1.68-4.37.3-7.91,0Z" class="cls-11"/><path data-cppathid="10013" d="M134.45,143.9l-3.29,6.73,2.9-14.5s-21.58,40.15-25.52,81.6c-.25,2.53-.51,7.65-.51,7.65L151.1,229s0-2.08,0-3.07c0-28.4-1.29-60.65-1.29-60.65s-2.41-29.55-6.36-28C142.29,137.66,134.45,143.9,134.45,143.9Z" class="cls-8"/><path data-cppathid="10014" d="M124.75,125.17s0-.06-.79-1.72c-.1-.23-1.87-7.57-1.87-7.57s6.92-.8,17-6.56c-10.08-.57-21.37-3.66-21.43-3.92-2.75-11.9-6.79-41.37-1.52-51.23,12.33-23.1,50.85-36.14,63.93-11,15.91,30.59,4.13,43.69-4.52,59.5S145.93,136,138.2,136.86C131.37,137.66,124.75,125.17,124.75,125.17Z" class="cls-12"/><path data-cppathid="10015" d="M129.09,79.5c.06,2.68-1.25,4.86-2.91,4.86s-3.07-2.19-3.12-4.87,1.24-4.86,2.91-4.86S129,76.82,129.09,79.5Z" class="cls-13"/><path data-cppathid="10016" d="M125.12,77.2a1.43,1.43,0,0,1-1.48,1.43,1.51,1.51,0,0,1-1.54-1.43,1.44,1.44,0,0,1,1.48-1.43A1.52,1.52,0,0,1,125.12,77.2Z" class="cls-14"/><path data-cppathid="10017" d="M145.55,81.45c-1,2.7-3.2,4.39-4.88,3.79s-2.22-3.26-1.21-6,3.2-4.37,4.87-3.78S146.56,78.77,145.55,81.45Z" class="cls-15"/><path data-cppathid="10018" d="M143,78.18a2,2,0,0,1-2.51,1.08,1.86,1.86,0,0,1-1.19-2.39,1.94,1.94,0,0,1,2.5-1.08A1.87,1.87,0,0,1,143,78.18Z" class="cls-14"/><path data-cppathid="10019" d="M145.21,228h0Z" class="cls-12"/><path data-cppathid="10020" d="M181.11,87.77s8.49-5.4,7.17,4.34S175.21,102,175.21,102" class="cls-12"/><path data-cppathid="10021" d="M176.09,83.34c3.85,2.39.35,10-1.24,13.41,1.69-1,2.86-2.74,4.21-4.35.61.17.1.48.52.87.36,0,.5-.55.84-.37-1.27,1.6-2.66,3.58-3.93,5.23,1.78-2.45,4.28-4,6.1-6.59a.74.74,0,0,0,.1.61,18.29,18.29,0,0,1,2-2.63c.1.07-.07,1,.09,1.29a14,14,0,0,0,2-2.28c.09.17-.15,1.1,0,1.14,1.86-3.14,3.54-10.7-.24-12.31-4.79-2-8.78,4-9.84,7" class="cls-10"/><path data-cppathid="10022" d="M176.43,87.21a14.57,14.57,0,0,0,1.82-2.81c-.05,1.27-.32,2.85.13,4,.72-.58.93-1.57,1.55-2.29.07,1.31-.2,2.53-.21,3.81,1.11-2,3-3.61,4.1-5.49a6.34,6.34,0,0,1,0,3.56c.65-.82,1.09-2.13,2.26-2.32,0,.73-.18,1.42-.15,2.15a8.41,8.41,0,0,1,1-1.59c0,.4.07.85,0,1.26,2.11-3.56,3.71-11.9-3.16-9.79-2.71.83-3.3,2.53-4.78,4.58-1.06,1.47-3.76,3.35-2.59,5.08" class="cls-11"/><path data-cppathid="10023" d="M178.13,60.52C177,54.4,173.5,46.6,166.64,45.14c-7.11-1.52-13.93,3.12-20.31,4.34-6.14,1.18-35.07,15.13-40.82-4.37,11,6.75,14.33-4.84,18-5.63,2-.42,5-3.42,6.58-4.61,6.41-4.73,9.75-9.34,17.79-10.83,12.54-2.34,29.1-7,31.11,15.32,4.55-7.07,13.48,8.85,13.14,12.21-.28,2.8-2.43,5-2.47,8,0,3.41,1.94,5.85,3.28,8.9a16,16,0,0,0-4.64-1.32c.2.46.7.6.94,1-.66,2.28,1.7,4.38,2.44,6.75a15.35,15.35,0,0,1-.55,9.48c-2,5.1-.86-2.42-7.17-2.43.56-4.28-9.22,8.71-11.41,9.93a24,24,0,0,1,.29-2.84l-.88-.19c3.26-7.4-2.59-12.36-2.53-20.52.78.65,6-.45,6.76.74,2.31-2.47,1.71-5.55,2.45-8.55" class="cls-11"/><polygon data-cppathid="10024" points="134.19 135.86 124.57 140.34 123.65 153.13 131.69 142.59 134.19 135.86" class="cls-16"/><polygon data-cppathid="10025" points="124.57 140.11 131.2 150.49 133.93 136.17 124.57 140.11" class="cls-17"/><path data-cppathid="10026" d="M131.2,150.49s-19.42,62.74-13.35,75.66" class="cls-18"/><path data-cppathid="10027" d="M53.79,139.51s.52,9.84,5.62,9.14S53.79,139.51,53.79,139.51Z" class="cls-5"/><path data-cppathid="10028" d="M133.54,51.6c7.58,1.64,37.45-9.24,55.72-10.83-1.82-15.06-9.67-36.5-14.5-37.5-7.88-1.63-10.84,3.34-14.34,2.17-3.15-1.05-.5-4-5.31-5.33-8.1-2.24-35.85,30.33-40.35,41C122.72,45.79,129.43,50.71,133.54,51.6Z" class="cls-19"/><path data-cppathid="10029" d="M118.11,35.05s37.58-8.2,68.64,9" class="cls-20"/><circle data-cppathid="10030" r="1.52" cy="43.58" cx="185.56" class="cls-21"/><circle data-cppathid="10031" r="1.52" cy="41.76" cx="180.96" class="cls-21"/><circle data-cppathid="10032" r="1.52" cy="39.94" cx="176.37" class="cls-21"/><circle data-cppathid="10033" r="1.52" cy="38.13" cx="171.77" class="cls-21"/><circle data-cppathid="10034" r="1.52" cy="36.42" cx="167.15" class="cls-21"/><circle data-cppathid="10035" r="1.52" cy="35.62" cx="162.28" class="cls-21"/><circle data-cppathid="10036" r="1.52" cy="34.81" cx="157.4" class="cls-21"/><circle data-cppathid="10037" r="1.52" cy="34.01" cx="152.53" class="cls-21"/><circle data-cppathid="10038" r="1.52" cy="33.43" cx="147.64" class="cls-21"/><circle data-cppathid="10039" r="1.52" cy="33.38" cx="142.7" class="cls-21"/><circle data-cppathid="10040" r="1.52" cy="33.32" cx="137.76" class="cls-21"/><circle data-cppathid="10041" r="1.52" cy="33.32" cx="132.82" class="cls-21"/><circle data-cppathid="10042" r="1.52" cy="33.79" cx="127.9" class="cls-21"/><circle data-cppathid="10043" r="1.52" cy="34.27" cx="122.99" class="cls-21"/><circle data-cppathid="10044" r="1.52" cy="35.05" cx="118.11" class="cls-21"/><path data-cppathid="10045" d="M145.25,33.47a2.87,2.87,0,1,1-2.87-2.91A2.89,2.89,0,0,1,145.25,33.47Z" class="cls-21"/><path data-cppathid="10046" d="M144,33.47a1.57,1.57,0,1,1-1.57-1.59A1.57,1.57,0,0,1,144,33.47Z" class="cls-22"/><path data-cppathid="10047" d="M166.81,44.65s21.09,5.74,27.13,19,6.23-20.12,6.23-20.12S190.83,36.58,166.81,44.65Z" class="cls-3"/><path data-cppathid="10048" d="M201.54,44.45c-8.88-2.68-21.26-2.13-35.21,1.92-11.7,3.4-23.81,6.91-32.79,6.06-7.84-.74-16.08-7.48-24-14-8.89-7.27-15.69-9-20.63-4.78-2.28,2-2.61,10-3.11,5-.24-2.33-.24-5.58,1.5-7,7-5.73,14.33-4,24.23,4.09C119.09,41.92,127,48.35,133.87,49c8.4.8,20.22-2.63,31.64-5.95,14.42-4.19,27.44-3.59,37.74.22C208.4,45.19,205.06,45.51,201.54,44.45Z" class="cls-23"/><path data-cppathid="10049" d="M149.57,221.8h0l.05-.12c0-.49.1-1,.14-1.55a7.32,7.32,0,0,1,1.6-3.71A114.56,114.56,0,0,0,155.5,189c.17-4.72-14.57-31.91-14.5-38.25s8.88-1.61,8.88-1.61,17.83,33.53,15.73,44.92c-1.22,6.61-4.29,15.77-6.66,22.29a10.88,10.88,0,0,1-.12,2.53c-.39,2.46-.7,4.3-.71,5.1-.05,4,4.84,15.29,3.86,15.92s-4.51-4.52-4.51-4.52.22,7.76-.52,6.93-2.25-7.76-2.25-7.76-.11,8-2.24,6.73-1.18-10.63-1.18-10.63a9.4,9.4,0,0,1-5.87,3.81c-4.24,1,3.53-7.57,3.53-7.57S149.26,224.86,149.57,221.8Z" class="cls-12"/><path data-cppathid="10050" d="M143.37,145.22c4,.26,6.33,2.11,8.7,5.8s13.45,30.84,14.5,34.8-4.48,35.06-5.53,36.9c-5.54,6.33-13.71,1.59-13.71,1.59S152.14,193,154.18,189c.07-2.58-15.55-33.21-14.76-38.22S143.37,145.22,143.37,145.22Z" class="cls-8"/><polygon data-cppathid="10051" points="134.28 143.9 140.61 158.31 146.93 139.69 144.47 134.41 134.28 143.9" class="cls-17"/></g></g></svg>