<?xml version="1.0" encoding="UTF-8"?>
<svg xmlns="http://www.w3.org/2000/svg" onmouseup="{ if(window.parent.document.onmouseup) window.parent.document.onmouseup(arguments[0]);}" viewBox="0 0 110.99 298.84"><defs><style>.cls-1{fill:#d7d7d7;}.cls-2{fill:#ffc589;}.cls-3,.cls-7,.cls-8,.cls-9{stroke:#000;}.cls-3{stroke-width:2.52px;}.cls-4{fill:#c9f5ff;}.cls-5{fill:#332518;}.cls-6{fill:#4ecdf4;}.cls-7{fill:none;stroke-width:2px;}.cls-8{stroke-width:1.91px;}.cls-9{stroke-width:0.63px;}.cls-10{fill:#fff;}</style></defs><g data-name="Layer 2" id="Layer_2"><g id="ProductOwner"><path data-cppathid="10000" d="M15.88,293.2c.09,3.6,19.55,6,43.47,5.46s43.25-4,43.16-7.56S83,285.06,59,285.64,15.8,289.61,15.88,293.2Z" class="cls-1"/><path data-cppathid="10001" d="M7.21,73.36C6.49,69.61,5.77,67,5.77,67s-9.09-7.83-4.45-7,7.85,5.62,7.85,5.62-3-11-.84-12.24,3,6.26,3,6.26,1-6.55,1.76-7.36,1.16,6.5,1.16,6.5,3.36-4.95,4.46-4.38S15.51,65.76,15.91,69.5a45.84,45.84,0,0,0,1.2,4.78C19.62,83.49,8.29,78.83,7.21,73.36Z" class="cls-2"/><path data-cppathid="10002" d="M53.16,117.32c1.42,1.85.77,4.53-1.46,6h0c-2.23,1.47-5.19,1.15-6.61-.7,0,0-8.15,3.15-23.65-17S7.1,73.17,7.1,73.17l9.81-6.45s3.85,19.83,13.36,33.1A49.71,49.71,0,0,0,53.16,117.32Z"/><path data-cppathid="10003" d="M58.92,112.09s-22.39,29.09-25.54,71.52c-.19,2.59,0,12.84,0,12.84L71,204s0-2.12,0-3.13c0-29.08-1-62.08-1-62.08s-2.37-34.57-5.5-33S58.92,112.09,58.92,112.09Z" class="cls-3"/><path data-cppathid="10004" d="M38.91,193.62s-.26,4-.34,6c-1.52,39,9.36,81.17,9.36,81.17s-9,3-10.52,6,21,1.5,21,1.5-4.51-54.11-3-66.13,12,63.13,15,67.64,14.28,9,14.28,9-2.26-9-4.52-12.78S72.29,229.42,72,201.13c0-.77,0-2.25,0-2.25Z"/><path data-cppathid="10005" d="M60,114S42.06,150.3,39,190.89c-.18,2.48-.38,7.49-.38,7.49l32.82,3.5s0-2,0-3c0-27.81-1-59.38-1-59.38s-2.26-33.07-5.27-31.57S60,114,60,114Z" class="cls-4"/><path data-cppathid="10006" d="M48.81,188.7l23.67,16.07s0-2.16,0-3.19c0-29.52-.92-63-.92-63s-1.12-18.57-2.8-28.08C58.24,111.69,48.81,188.7,48.81,188.7Z" class="cls-3"/><path data-cppathid="10007" d="M47.76,99.82s0-.07-.74-1.78c-.1-.23-1.89-6.48-1.89-6.48s-3.22-3.9,3.68-3.9S61,93,63,87.31c3.2-9.18-26.33-2.59-26.33-2.59,1-14-1.85-41.41,3.53-51.62,12.58-23.93,51.61-45.33,63-18.89S101.9,58.27,93.08,74.64,67.53,112.3,59.93,113.25C53.21,114.09,47.76,99.82,47.76,99.82Z" class="cls-2"/><path data-cppathid="10008" d="M98.61,7.87S81.18,11.56,77,16.59,73.36,22.75,73.31,23c-2.22-5.64,1.8-8.39,1.8-8.39-12.1,2-16.61,1.88-30-1.79,9.3,1.05,13.1-.13,13.1-.13s-8.78-1.17-12-7.6c9,2.81,14.28,2.81,14.28,2.81L45.13,2a77.24,77.24,0,0,0,23.38-1A50.62,50.62,0,0,1,92.74,2C96.09,2.83,98.61,7.87,98.61,7.87Z" class="cls-5"/><path data-cppathid="10009" d="M98.61,7.87s-2.52,14.27-2.52,18.46S107,41.44,107,41.44s5.88-13.43,3.36-21S98.61,7.87,98.61,7.87Z" class="cls-5"/><polygon data-cppathid="10010" points="59.2 117.24 56.52 116.05 55.7 124.83 59.2 117.24" class="cls-6"/><polygon data-cppathid="10011" points="55.7 124.83 46.4 151.78 46.51 165.55 53.85 153.26 55.7 124.83" class="cls-6"/><path data-cppathid="10012" d="M92.63,40.4C89.49,50.36,87.39,54,87.39,54L59.08,48.79l1-14.68L52.26,47.22,33.38,44.07l2.1-16.78" class="cls-7"/><path data-cppathid="10013" d="M35.48,28.6a183.14,183.14,0,0,0,25.85,6.76c15,2.78,34.76,2,47.39,17.61,0,0-.18,2.71-.18,4.31,0,1.24-1.4-2.72-2.45-4.15C98.61,40.66,82.63,40.45,61.7,36.35,53.14,34.67,44.15,31,35.48,31.26A6.15,6.15,0,0,1,35.48,28.6Z" class="cls-8"/><path data-cppathid="10014" d="M64.33,43.6c0,2.78,1.32,5,3,5s3-2.26,3-5-1.32-5-3-5S64.33,40.82,64.33,43.6Z" class="cls-9"/><path data-cppathid="10015" d="M68.17,41.24a1.48,1.48,0,1,0,1.48-1.48A1.48,1.48,0,0,0,68.17,41.24Z" class="cls-10"/><path data-cppathid="10016" d="M50.36,40.66c0,2.29,1.09,4.14,2.43,4.14s2.44-1.85,2.44-4.14-1.09-4.14-2.44-4.14S50.36,38.37,50.36,40.66Z" class="cls-9"/><path data-cppathid="10017" d="M53,38.89a1.48,1.48,0,1,0,1.48-1.48A1.48,1.48,0,0,0,53,38.89Z" class="cls-10"/><path data-cppathid="10018" d="M63,191.11a32.88,32.88,0,0,1-4.29,8.59S48.3,208.22,53,208s8.76-5.87,8.76-5.87-5.19,13.76-3.32,15.77,4.17-7.59,4.17-7.59-.34,8.71.2,9.89S65.23,212,65.23,212s2.25,7.06,3.43,6.53-.77-15.35.39-20.16c.23-1,1-3.11,2.13-6C75.5,180.83,65.16,184.19,63,191.11Z" class="cls-2"/><path data-cppathid="10019" d="M65.44,128.58c.25-2.61,2.86-4.31,5.82-3.8h0c2.95.51,13.11,18.69,9.91,47.15-2.27,20.28-11.88,28.32-11.88,28.32l-13-2.25s12.45-12.83,14.85-31S65.44,128.58,65.44,128.58Z"/></g></g></svg>