<?xml version="1.0" encoding="UTF-8"?>
<svg xmlns="http://www.w3.org/2000/svg" onmouseup="{ if(window.parent.document.onmouseup) window.parent.document.onmouseup(arguments[0]);}" viewBox="0 0 447.06 485.37" xmlns:xlink="http://www.w3.org/1999/xlink"><defs><style>.cls-1,.cls-17,.cls-24,.cls-29,.cls-48,.cls-80,.cls-81,.cls-82,.cls-83{fill:none;}.cls-2{isolation:isolate;}.cls-3{fill:#ffc488;}.cls-23,.cls-4,.cls-5{fill:#4f3322;}.cls-23,.cls-5{stroke:#66422e;}.cls-5{stroke-width:0.92px;}.cls-25,.cls-6{fill:#e3e3e3;}.cls-7{fill:#704828;}.cls-8{fill:#c21b00;}.cls-9{fill:#352923;}.cls-10{fill:#eda260;}.cls-11{fill:#ffc589;}.cls-12,.cls-14,.cls-48,.cls-63{stroke:#000;}.cls-12{stroke-width:0.64px;}.cls-13,.cls-49,.cls-75,.cls-77{fill:#fff;}.cls-14{stroke-width:0.84px;}.cls-15{fill:#603813;}.cls-16{fill:#a16832;}.cls-17{stroke:#82522a;stroke-width:1.06px;}.cls-18,.cls-20{fill:#1a1a1a;}.cls-19{clip-path:url(#clip-path);}.cls-20{opacity:0.46;}.cls-21{fill:#ded0b6;}.cls-22{fill:#d8a96c;}.cls-24{stroke:#965d41;}.cls-24,.cls-49{stroke-width:2px;}.cls-25{stroke:#b0b0b0;stroke-width:0.31px;}.cls-26{fill:#3a2517;stroke:#fac608;stroke-width:0.88px;}.cls-27{fill:#fac608;}.cls-28{fill:#90a39f;}.cls-29{stroke:#dcece9;stroke-width:0.3px;}.cls-30{fill:#fcc488;}.cls-31{fill:#d7d7d7;}.cls-32{fill:#9c1c25;}.cls-33{fill:#7f1426;}.cls-34{fill:#6780a2;}.cls-35{fill:#b92025;}.cls-36{fill:#610a24;}.cls-37{fill:#eca160;}.cls-38{fill:#eed214;}.cls-39{fill:#f07322;}.cls-40{fill:#eba05e;}.cls-41{fill:#5b462e;}.cls-42{fill:#5e4830;}.cls-43{fill:#513e29;}.cls-44{fill:#5d472f;}.cls-45{fill:#5c462e;}.cls-46{fill:url(#linear-gradient);}.cls-47{fill:#dcece9;}.cls-48{stroke-linecap:round;stroke-linejoin:round;stroke-width:0.5px;stroke-dasharray:1.32;opacity:0.35;}.cls-48,.cls-69{mix-blend-mode:multiply;}.cls-49{stroke:#afafb0;}.cls-50{fill:#a27c52;}.cls-51{fill:#6ab8e6;}.cls-52,.cls-56{fill:#272361;stroke:#272361;}.cls-52{stroke-width:0.25px;}.cls-53,.cls-61,.cls-87,.cls-91{fill:#c8c8c8;}.cls-53,.cls-61,.cls-62,.cls-66,.cls-85,.cls-91{stroke:#c8c8c8;}.cls-53{stroke-width:0.26px;}.cls-54{fill:#a16c29;}.cls-55{fill:#f6ac3c;}.cls-56{stroke-width:0.23px;}.cls-57,.cls-66{fill:#efeeee;}.cls-57{opacity:0.4;}.cls-58{fill:gray;}.cls-59{fill:#fcc58a;}.cls-60{fill:#e34445;}.cls-61{stroke-width:2.02px;}.cls-62,.cls-67,.cls-85{fill:#e2e2e2;}.cls-62,.cls-66{stroke-width:0.98px;}.cls-63{stroke-width:0.59px;}.cls-64{fill:#4d4e4e;}.cls-65{fill:#d12027;stroke:#ab3124;stroke-width:1.17px;}.cls-68,.cls-70{fill:#2d358b;}.cls-69{opacity:0.25;}.cls-70{stroke:#2d358b;stroke-width:2.05px;}.cls-71{fill:#2b2b6b;}.cls-72{clip-path:url(#clip-path-2);}.cls-73{fill:#fde885;}.cls-74{fill:#eacf60;}.cls-75{opacity:0.87;mix-blend-mode:overlay;}.cls-76{fill:#ab3124;}.cls-77{opacity:0.79;}.cls-78{fill:#d28131;}.cls-79{clip-path:url(#clip-path-3);}.cls-80{stroke:#676767;stroke-width:0.91px;}.cls-81,.cls-82,.cls-83{stroke:gray;}.cls-81{stroke-width:1.52px;}.cls-82{stroke-width:1.21px;}.cls-83{stroke-width:1.69px;}.cls-84{fill:#f8f2dc;}.cls-86{fill:#9d7149;}.cls-88{fill:#402312;}.cls-89{fill:#bf278b;}.cls-90{fill:#f28f20;stroke:#f28f20;stroke-width:0.61px;}.cls-92{fill:#242551;}.cls-93{fill:#7b3c7c;}.cls-94{fill:#9e549d;}.cls-95{clip-path:url(#clip-path-4);}.cls-96{fill:#c1976c;}.cls-97{fill:#ec2024;}.cls-98{fill:#3ab14a;}.cls-99{fill:#f7e91d;}</style><clipPath transform="translate(-10.72)" id="clip-path"><polygon data-cppathid="10000" points="266.07 59.09 257.28 27.25 332.1 8.16 346.32 30.94 266.07 59.09" class="cls-1"/></clipPath><linearGradient gradientUnits="userSpaceOnUse" gradientTransform="matrix(-1, 0.02, 0.02, 1, 549.39, 337.2)" y2="-23.7" x2="236.55" y1="15.59" x1="226.21" id="linear-gradient"><stop stop-color="#abbeba" offset="0"/><stop stop-color="#b8cac6" offset="0.04"/><stop stop-color="#c3d6d2" offset="0.11"/><stop stop-color="#cadcd8" offset="0.2"/><stop stop-color="#ccdeda" offset="0.46"/><stop stop-color="#c9dbd7" offset="0.66"/><stop stop-color="#bfd1cd" offset="0.83"/><stop stop-color="#aec1bd" offset="0.98"/><stop stop-color="#abbeba" offset="1"/></linearGradient><clipPath transform="translate(-10.72)" id="clip-path-2"><path data-cppathid="10001" d="M24.89,336.29c-.46,4.2,13.93,9.19,32.15,11.17s33.34.17,33.79-4-13.94-9.19-32.15-11.16S25.34,332.09,24.89,336.29Z" class="cls-1"/></clipPath><clipPath transform="translate(-10.72)" id="clip-path-3"><path data-cppathid="10002" d="M62.55,341.28c-4.14-2.94-11.37-1.21-16.38-1.21-5.85,0-11.36.33-16.72-1.68-5.71-2.14-11-4.32-16-8A32.65,32.65,0,0,1,.53,308.87c-1.39-9.52-.35-21.18,6.81-28.45,8.18-8.31,20.51-9.65,31.26-6,5.22,1.77,10.29,4.45,13.61,8.92a76.31,76.31,0,0,1,8.06,13.29,83.87,83.87,0,0,1,4,12.36c.85,3.08,2.19,6,2.67,9.18.64,4.35-.16,8.88-.9,13.14-.49,2.83-.51,5.79-1.85,8.24a10.28,10.28,0,0,0-1,1.74c-.25.23-.05-.08-.14-.19" class="cls-1"/></clipPath><clipPath transform="translate(-10.72)" id="clip-path-4"><polygon data-cppathid="10003" points="223.26 394.43 154.32 371.88 181 353.19 249.95 375.74 223.26 394.43" class="cls-1"/></clipPath></defs><g class="cls-2"><g data-name="Layer 2" id="Layer_2"><g id="team"><path data-cppathid="10004" transform="translate(-10.72)" d="M254,205.28c-1.14.38-16.84,13.14-16.06,17.32,1.14,6.09,27.71,37.7,27.33,40.75s12.55-8,6.08-12.18-18.44-29.54-24.53-30.68l19-17.33Z" class="cls-3"/><path data-cppathid="10005" transform="translate(-10.72)" d="M266.79,261.06s-11.42,4.95-9.9,9.13-2.65-8.37-5.7-8,1.52,12.56,3.81,12.56,15.21,1.52,19.78-5.71.38-14.07-1.53-16S266.79,261.06,266.79,261.06Z" class="cls-3"/><path data-cppathid="10006" transform="translate(-10.72)" d="M259.67,255.08l3,3.8s5.31,1.32,8.69-2.05c4.55-4.56,2.11-4.65,2.11-4.65l-3.62-3.86Z" class="cls-4"/><path data-cppathid="10007" transform="translate(-10.72)" d="M274.71,173.59c-8,2.11-38,39.29-39.3,48.59s17.32,33,23.24,35.06c0,0,7.4.76,11.72-2.15,0,0,3.91-5,2.64-9.25s-13.94-18.59-15.63-22.39c1.27-.85,2.11-1.27.84-3.38,5.07-6.76,25-26.12,24.74-35A12.43,12.43,0,0,0,274.71,173.59Z" class="cls-5"/><path data-cppathid="10008" transform="translate(-10.72)" d="M246.25,132.89c0,.07,0,.14,0,.21a3.08,3.08,0,0,0,2.74,2.5,3.84,3.84,0,0,0,.77.88c.37,1.39,1.45,2.12,3.85,2.14a2.13,2.13,0,0,0,.54.4l.57.32c.21.12,2.82.71,2.4,0-.06-.09-.13-.17-.19-.25.2,0,.4-.08.62-.14,1.43.41,2.81.45,3.12-.75a2.55,2.55,0,0,0,.05-1.18l.13-.33c1.46.12,4.24-.58,3.85-2.49,0,0,0,0,0,0l1-.23a.31.31,0,0,0,.15-.56,1.37,1.37,0,0,0-.18-.16c.18,0,.31-.12.32-.29a11.68,11.68,0,0,0-.2-3.44c1.59-1.22.36-3,2.2-4.71h.14a8.52,8.52,0,0,0,1.72,1c.31.17,3,.74,2.27-.2a8,8,0,0,0-.91-.93l.16-.17c.47-.52-.68-.91-1.45-1.1,0,0,0,0,0,0a7.19,7.19,0,0,0,.43-1.9c.29-.06.47-.22.2-.55l-.12-.13a4.47,4.47,0,0,1,.94-2.54c.63-.7-2.23-1.49-2.83-1.07-.39.26-1.48.65-2.44,1.13-2.26-.35-4,.64-3.06,2.72-.29,0-.65,0-.81.27-.77,1.38-1,3.54-1.34,5.21-.24,0-.38.14-.27.36l.12.21,0,.12a5.82,5.82,0,0,1-1,1.78,1.92,1.92,0,0,1-1.14-.41c-.27-.18-3.1-.93-2.67-.13,2.32,4.36-1.56,4.78-2.9,6.09a1.37,1.37,0,0,1-.21-.15l-.25-.31a2.51,2.51,0,0,0,1.19-4.15c.77-1.57-.21-2.75-1.78-3.56a4,4,0,0,0-2.21-1.66l.79,0c.19,0,.67-.12.53-.44a5.27,5.27,0,0,0-.3-.53c.52.15,1.8.46,1.88-.09.35-2.32,0-3.71-.81-4.45a1.79,1.79,0,0,0,.64-.06c.28,0,.55.07.86.09s1,0,.86-.44a8.17,8.17,0,0,0-.92-2,.21.21,0,0,0,.14-.34,7.21,7.21,0,0,0-1.62-2.32h0c.2.11,2.84.71,2.39,0a5.76,5.76,0,0,0-2.73-2.51,4.07,4.07,0,0,1-.47-1.78,11.81,11.81,0,0,0,5,0c.56-.09.73-.43.21-.78-.33-.23-.82-.55-1.41-.88.52-.28-1-1.1-1.59-1.23a15.32,15.32,0,0,0-1.8-.16c.25-.85.54-1.68.8-2.46a6.7,6.7,0,0,0,5-.9c.3-.18,0-.48-.29-.66.28,0,.47-.16.37-.41a8.32,8.32,0,0,0-1.6-2.25,10.6,10.6,0,0,0,1.14.29c.29.06,1.72.08,1.12-.57a11.78,11.78,0,0,0-1.1-1.06c.35,0,.56-.09.44-.33a30.33,30.33,0,0,0-1.9-2.52,6,6,0,0,0,2.6-1.88c.22-.26,0-.49-.25-.65a15.1,15.1,0,0,0-5.49-2.37,7.82,7.82,0,0,1-.14-2.13,5.85,5.85,0,0,0,1.72,1.58c.25.17,3.11.94,2.67.14a3.45,3.45,0,0,0-.25-.41,1.35,1.35,0,0,0,0-.52c.64.2,1.34.37,2.17.55.28,0,1.37.17,1.24-.4a6,6,0,0,0-1.43-2.79c.86.14,2.19-.21.82-.86a18.05,18.05,0,0,0-3.87-1.34,5.86,5.86,0,0,1,1.58-2.36l.22.16c.42.29,3.38.75,2.56,0-.07-.08-.14-.12-.21-.19l-1.28-2c.5.27,3.38.52,2.07-.38q-5.53-5.36-1.57-3.71c.31.26,3.09.85,2.67.14a3.51,3.51,0,0,1-.35-3.42,5,5,0,0,0,.37-1.11c.11-.61-1.46-1.2-2.39-1.14.4-.89,1.42-1.21,3.08-.94.26,0,1,0,.86-.44A3.51,3.51,0,0,1,262.5,66c.4.27,3.38.81,2.56,0-.13-.06-.21-.12-.32-.18h.11l-.67-.44a.94.94,0,0,1,.13-1.25c.36.1,2.1.35,1.53-.48q-1.47-3.6.37-.93c.51.61,3.46,1,2.77.14-2.19-2.6-3.64-3.43-7.05-3.09-.23,0-.64.1-.53.43,1.44,4.62.34.07-1.49,2.68,0,0,0,.11,0,.16a7.94,7.94,0,0,0,.59.88,2,2,0,0,0-1.2.39c-1.1.86,1,3.65-.53,3.92-.79.14-2,.2-2.49,1a3.34,3.34,0,0,0,1.21,4.76,1.38,1.38,0,0,0,0,.2c-1.68-.68-3.33-.9-3.21.86a5.82,5.82,0,0,0,1.06,3.19h0a.89.89,0,0,0-.88.28,1.62,1.62,0,0,0,.11,1.89c-1.31.55-1.56,2.41-.26,4.09l-1.88-.39c-.21,0-1.46-.15-1.23.4a15.56,15.56,0,0,0,.88,1.82c-1.68-.49-3,.52-2.71,4.31a2.3,2.3,0,0,0,0,.26,3,3,0,0,0-.41.08c-3,.91-.07,3.37,2.51,5.13a2.72,2.72,0,0,0,.13.49c-.26,0-.45.1-.45.28s0,.48,0,.72c-.73.23-1.26,1-1.38,2.67a5.22,5.22,0,0,0,.06,1.21,2.44,2.44,0,0,0-1.58,2.54,3.58,3.58,0,0,0,1.09,2.77c-.57.13-.94.38-.89.81a3.08,3.08,0,0,0,.18,4.13,1.78,1.78,0,0,0-.64,1.3l-1,0c-.26,0-.61.11-.53.44a8.37,8.37,0,0,0,.25.84c-.75.32-1.07.69-1.1,1.07h-.19c-.09,0-.56.07-.54.27a10.9,10.9,0,0,0,1.1,4.29c-2,1.55-2.9,3.79.26,4.49a14.55,14.55,0,0,0-1.87.4c-.33.1-.32.32-.15.56s.35.46.52.68c-.36.09-.73.2-1.15.32-.19.06-.33.18-.27.39s.22.56.33.84c-.28.1-.56.21-.84.34s-.34.16-.27.39A8.57,8.57,0,0,0,246.25,132.89Zm15.8-2.67a3.77,3.77,0,0,0,.89-.32,4.57,4.57,0,0,1,.13,1,10.11,10.11,0,0,0-1.18-.46C262,130.4,262,130.31,262.05,130.22Z" class="cls-6"/><path data-cppathid="10009" transform="translate(-10.72)" d="M269.12,40.36s-24.79,75.08-18.59,89.54,24.79-33.75,24.79-33.75S285,25.9,269.12,40.36Z" class="cls-7"/><path data-cppathid="10010" transform="translate(-10.72)" d="M312.06,159.75s18.36.46,24.33,15.61-.92,35.82,20.67,34.9c0,0-20.67,17-16.54,24.79,0,0-25.71-19.74-23.87-28.93s17.45-27.54-9.19-40.4S312.06,159.75,312.06,159.75Z" class="cls-8"/><path data-cppathid="10011" transform="translate(-10.72)" d="M262.29,271.69s-.34,5.33-.44,8c-2,52.08,12.48,108.31,12.48,108.31s-11.61,8-13.61,12,27.65-2,27.65-2-6-72.2-4-88.25,10,83.77,14,89.79,26.17,6,26.17,6-8.47-9.68-11.48-14.7-6.23-71.38-6.62-109.14c0-1,0-3,0-3Z" class="cls-9"/><polygon data-cppathid="10012" points="287.51 158.28 288.2 162.87 279.58 169.58 276.4 162.6 287.51 158.28" class="cls-10"/><path data-cppathid="10013" transform="translate(-10.72)" d="M301.46,282.2h0Z" class="cls-11"/><path data-cppathid="10014" transform="translate(-10.72)" d="M274.1,146.53s0-.09-1-2.38l-5.05-11.81s38.3,9.55,45.47-25.91c-13.77,0-26.42,2.41-52.37,6.63-.93.15,0,0-.14-.78-3-17-3.86-41.77,3-54.79C280.82,25.57,332.9-3,348,32.3s-1.68,58.79-13.44,80.63-34.1,50.26-44.24,51.52C281.38,165.57,274.1,146.53,274.1,146.53Z" class="cls-11"/><path data-cppathid="10015" transform="translate(-10.72)" d="M285,63.49c0,3.7-1.77,6.71-3.95,6.71s-3.95-3-3.95-6.71,1.77-6.71,3.95-6.71S285,59.78,285,63.49Z" class="cls-12"/><path data-cppathid="10016" transform="translate(-10.72)" d="M285.88,65.32a2,2,0,1,1-2-2A2,2,0,0,1,285.88,65.32Z" class="cls-13"/><path data-cppathid="10017" transform="translate(-10.72)" d="M298.56,65.57c-.47,4-2.74,6.91-5.06,6.63s-3.81-3.7-3.33-7.64,2.74-6.9,5.05-6.63S299,61.63,298.56,65.57Z" class="cls-14"/><path data-cppathid="10018" transform="translate(-10.72)" d="M299.26,66.36a2.58,2.58,0,0,1-2.87,2.24,2.56,2.56,0,1,1,2.87-2.24Z" class="cls-13"/><path data-cppathid="10019" transform="translate(-10.72)" d="M346.63,38.56s-9.25,19.58-10.08,27.93l-.84,8.35s5-3.34,7.52-4.17l2.51-.84s-1.67,15-2.51,18.38a6,6,0,0,0,1,5.34s11.15-20.12,11.15-36.82S346.63,38.56,346.63,38.56Z" class="cls-15"/><path data-cppathid="10020" transform="translate(-10.72)" d="M351.55,40.13c1.75-6.5-7.1-16.84-16-19.82-9.88-3.31-21.88-5-32.22-2.89A66.19,66.19,0,0,0,274.9,31c-3.44,2.81-6.77,6.46-10.15,9.15-5.06,4-5.14,3.12-11,2.22-.95-.15-2.26-1.46-3-2.12-.23-.27-.23-.27,0,0,7.4,14.47,40.53-4,51.64-2.73-4.31,3.11-6.81,6.46-10.56,10.24,9.41-.14,22.44,1.62,30.3-4,.22-.26.21-.28,0,0-1.53,3.82-4.85,6.54-7.53,9.6,5.79-.17,12.92-3.86,17.54-6.86-.26,4.2-3.63,7.14-4.61,10.83,4.43-.54,9.18-5.57,13-8.32,3.35-2.41,9.33-4.86,11-7.4" class="cls-15"/><path data-cppathid="10021" transform="translate(-10.72)" d="M304.53,25.24c20.38,3.28,38.86,19.33,40.74,41.39.93,10.92-1.67,22.88-4.56,32.74-3.19,10.87-6.37,22.18-10.56,32.18-2.13,5.12-11.91,28.3,2.76,24.55,10.3-2.63,12.53-19.32,14.34-26.93,2.62-11,9.81-14.59,14-24.71,4.34-10.52,4.13-24.93,5.82-36.34s.12-31.59-7.27-42.88c-5.65-8.64-11.47-21-20.35-24-10.17-3.39-20.61,1.06-32,2.18-8.54.85-29.4,10.35-36.34,16-5.79,4.7-14.91,15.52.55,11.45,9.21-2.43,24.37-8.66,33.61-4.91" class="cls-16"/><path data-cppathid="10022" transform="translate(-10.72)" d="M339.42,1.25S317.26,3.79,311.26,24" class="cls-17"/><path data-cppathid="10023" transform="translate(-10.72)" d="M364.13,34s-8.65-5.35-18.86,12.95" class="cls-17"/><path data-cppathid="10024" transform="translate(-10.72)" d="M292.18,8.52s-12.64,3.67-15.77,15.65" class="cls-17"/><path data-cppathid="10025" transform="translate(-10.72)" d="M351,72.7v0h0S351,72.72,351,72.7Z" class="cls-6"/><path data-cppathid="10026" transform="translate(-10.72)" d="M262.34,24.67l.23,0c2-2.12,4.18-2.17,5.73-1a5.25,5.25,0,0,1,4.22,1.1,2.86,2.86,0,0,1,.41.23l0,0c.28,0,.54,0,.79,0a2.54,2.54,0,0,1,2.65-.94,3.08,3.08,0,0,1,2.28-1.2c.68-.82,2-1.25,3.91-.92a2.44,2.44,0,0,1,2.37-.91,8.36,8.36,0,0,1,1.61.36c1.08-.65,2.83-.71,5.4.36l.25.12v0c0-.22.27-.29.55-.31a2.08,2.08,0,0,1,.63,0c.37.05.72.12,1.07.2a.69.69,0,0,1,.45-.22h.33l-.12-.23c-.2-.44.61-.49.82-.5a8.56,8.56,0,0,1,1,0,3.09,3.09,0,0,1,1.25.12,8.49,8.49,0,0,1,2.69.86c.14-.39,1.43-.22,1.59-.18a12.66,12.66,0,0,1,1.38.49c0-.33,0-.66,0-1s1-.32,1.18-.3c2.73.29,4.85,1.15,5.94,2.94l.28.09a8.08,8.08,0,0,1-.14-1.28c0-.8,2.25,0,2.51.22a11.24,11.24,0,0,1,1.45,1.65h.13a9.66,9.66,0,0,1,6.28,3c.42-.3,1.38-.05,2,.27v0c0-.42,1-.33,1.18-.3a9.92,9.92,0,0,1,4.82,1.85l.17.14a3.41,3.41,0,0,1,.91,1.32,4.82,4.82,0,0,1,2.32,1.89c2.75-.55,6.29,1.53,5.34,4.82A7.2,7.2,0,0,1,342.81,41c2.41,1.22,3.69,4.59,2.46,5.95,1.11.7,1.78,1.54,1.49,2.16a6.5,6.5,0,0,1,2.69,3,3.1,3.1,0,0,1,.38,1.51c1.77,1,2.87,2.46,1.74,4.19a5.46,5.46,0,0,1,1,.4c2.6,1.44-.52,5.21,1.16,7.64l.83.89c.22.23.11.49-.16.6l-1.07.58c1.24,2.78,1.17,4.85.62,7.89,0,.21-.36.3-.52.31a7.93,7.93,0,0,1-3.8-.46l-.07.09a3.21,3.21,0,0,1,.55,1.64,1.88,1.88,0,0,1,.2,1.33s0,0,0,.06a.24.24,0,0,1-.07.12l-.08.05,0,0,.19.21,1.38,1.37c.34.35.08.5-.33.55l.43,1.08c.26.69-1.32.47-1.56.39l-.08,0a1.5,1.5,0,0,1-.77.08,15,15,0,0,1-.49,1.91.47.47,0,0,1-.31.29,10.16,10.16,0,0,1,.3,1.72c.05.42-.45.51-1,.43l-.37.06a6.2,6.2,0,0,0,.67,1.7c.16.34-.32.4-.92.33l.92,1.85c.24.48-.64.4-1.47.19-.16.46-1.23.25-1.53.18.45.1.51.63.37,1.33.24.15.42.31.45.48s.05.23.07.34c.54.31.87.66.39.81.43.39.27.57-.1.63.13.61.26,1.23.37,1.85.08.47-.51.52-1.17.39a5.65,5.65,0,0,0,.44,1.07c.35.64-1.28.33-1.95.15a7.15,7.15,0,0,1,1.95,3.48c.17.85-1.5.33-2.3,0a9.86,9.86,0,0,1,1,2.22c.11.3-.28.42-.5.44a2.94,2.94,0,0,1-.78-.06c.82,1.29,1.47,2.57.95,2.25a.5.5,0,0,0,.08.12c.7,1-2,.37-2.38.08s-.47-.38-.69-.56c-.33.11-.31,1.45-.77,2.27a12.76,12.76,0,0,1,1.27,1.17c.31.34.05.5-.3.56l.5.67c1.24.93-1.64.61-2.19.25a6,6,0,0,1-.49-.36,6.89,6.89,0,0,0,.55,2.35,14.79,14.79,0,0,1,1,1.73c.22.48-.73.43-1.57.22,0,.16.08.32.12.51.09.37-.21.47-.63.44,0,.3,0,.66-.09,1.17a.24.24,0,0,1-.09.17,3.9,3.9,0,0,1,.55,2c0,.28-.53.29-.75.29a8.86,8.86,0,0,1,.49,1.66c0,.22-.06.3-.26.39l-.2.08a2.2,2.2,0,0,1-1.13,0c0,.45-.06.9-.06,1.44,0,.07-.05.11-.1.16l.82,1.64c.21.42-.45.41-1.16.27a9.43,9.43,0,0,1-.24,1.58c-.07.32-.52.39-1,.31a2,2,0,0,1-.42,0,.89.89,0,0,1-.32.28c.09.17.19.33.27.52s-.08.38-.41.4c.38.4.6.83.42,1.21-.49,1-.38,1-1.25,1.23a12.53,12.53,0,0,1,.51,1.51c.09.27-.09.39-.37.41.11.34.24.69.37,1.05.21.54-.74.46-1.53.26h-.18c0,.14-.05.28-.08.42,1.4,1.35,3.33,3.26,1.5,1.9,1.21.9-1.62.67-2.2.25l-.27-.2a4.79,4.79,0,0,1-.52,0c.28.66.45,1.1.33.94l0,.09c.12.21-.11.31-.45.34,0,.06,0,.12,0,.17a4.08,4.08,0,0,1,.86,1.66.25.25,0,0,1-.14.33l.06.16c.18.3.34.62.52,1s-.33.42-.51.44l-.12,0a2.92,2.92,0,0,1-1.06-.09.85.85,0,0,0,0,.16,12.66,12.66,0,0,1,.81,2.31c.07.11.06.19,0,.25-.09.28-.68.29-1.31.16a3.15,3.15,0,0,1-.58-.11c-.24-.1-.48-.17-.73-.25a2.48,2.48,0,0,1-.19.26,10.86,10.86,0,0,1,2.78,1.46c.15.1.5.45.21.63a2.73,2.73,0,0,1-2.7.36l.06.29c.15,0,.29.06.43.11.36.12.87.38.89.81a14.74,14.74,0,0,1,0,1.53,7.29,7.29,0,0,1,3.6,2.43,2.8,2.8,0,0,1,1.48.4c-.12-.3-.24-.61-.35-.92-.3-.84,2.43-.16,2.79.43.12.19.22.4.34.6a18,18,0,0,0,2.82-4.59c.32-.78,2.87-.07,2.81.76a11,11,0,0,1-2.27,6c-.15.22-.66.17-.95.13l-.07.05a1.71,1.71,0,0,1,.22.55c.07.56-.69.52-1.36.36.23.41-.48.46-1.21.34a7.69,7.69,0,0,1-4.75.75s0,.06,0,.08l-.6.75c-.69.86-2.14.32-2.63-.46-.07-.12-.15-.24-.23-.36a2.17,2.17,0,0,1-2.51-.11L325.89,155a.64.64,0,0,1,0-1.08,6.45,6.45,0,0,1-1.82-2.43c-.11-.22.1-.34.3-.39-.1-.2-.19-.41-.28-.62s.38-.43,1-.35c-.95-.86-1.62-1.82-.67-2.35l.4-.21a.32.32,0,0,1,0-.17,1.34,1.34,0,0,0,.07-.18h0c-.14-.55.19-.79.67-.85a1,1,0,0,1,.06-.18,5.21,5.21,0,0,0,0-2,.37.37,0,0,1,0-.18h0a14.17,14.17,0,0,1-.06-3.47,2,2,0,0,1,1.19-1.34,23.64,23.64,0,0,1-.42-4.37c-.06-.6.4-.86.93-.9a9.08,9.08,0,0,1,.54-3c.06-.22.34-.25.52-.28a3.06,3.06,0,0,1,1.13,0,14.86,14.86,0,0,1,.51-1.84,19.17,19.17,0,0,1,0-2.25.26.26,0,0,1,.07-.16c0-.66-.06-1.33-.07-2s2.43.15,2.69.43l.11.11a14.05,14.05,0,0,1-.76-2c-.13-.48.58-.49,1.31-.33A2.52,2.52,0,0,1,334,119a1.36,1.36,0,0,1,1-.19c.07-.14.12-.28.2-.43a1.55,1.55,0,0,0,0-.21,6.69,6.69,0,0,1-.82-3.91.3.3,0,0,1,.22-.25,10.62,10.62,0,0,1-.22-1.93c0-.2.18-.28.43-.3a18.07,18.07,0,0,1,.3-1.88c.09-.45.75-.4,1.41-.21,0-.38,0-.79,0-1.25,0-.29.33-.36.73-.31a1.48,1.48,0,0,1,0-.47c.08-.37.56-.39,1.08-.28-.15-1.74.35-2.84,1.18-3.27-.25-.84,0-1.83.54-3.37a2.55,2.55,0,0,1,.78-2.36,16.85,16.85,0,0,1-.68-2.13c-.09-.39.28-.47.73-.44a8.11,8.11,0,0,1,.72-3.35.69.69,0,0,1,.57-.35c0-.07,0-.13,0-.2a2.74,2.74,0,0,1,0-1.42.91.91,0,0,0,0-.17.33.33,0,0,1,.19-.37,12.29,12.29,0,0,1,.79-1.6,3.27,3.27,0,0,1-.13-1.72c0-.22,0-.45,0-.72s1-.27,1.18-.25a1.08,1.08,0,0,1,.19,0,11,11,0,0,1,.09-2,.33.33,0,0,1,.21-.26l-.33-.2c-.51-.31-.85-.85,0-1a2.23,2.23,0,0,1,.73,0A41.78,41.78,0,0,1,344.6,76a4.75,4.75,0,0,1-1.5-3.92c0-.64,1.3-.29,2,0a.49.49,0,0,1,.21-.16l.21-.09a1,1,0,0,1,.35-.07q-.12-.58-.27-1.2a2.22,2.22,0,0,1-.78-1.85l-.47-.3c-1.06-.66-.36-.91.47-.89-.46-1.69-.87-3-.92-3.09-.42-.52.29-.66.77-.66a.43.43,0,0,0,0-.07c-.18-.29-.09-.46.1-.56-2.47-1.26-2.49-1.83-2.39-4.88,0-.19.17-.28.39-.31a2.35,2.35,0,0,1-.47-1.83,5.71,5.71,0,0,1-2-3.31c-1.88-.38-3.6-1.24-4.13-2.6a5.19,5.19,0,0,1,0-3.76A5.53,5.53,0,0,1,335,44.36s0,0,0,0c-.34-.32-.68-.66-1-1a9.74,9.74,0,0,1-1.51-1.16,3.65,3.65,0,0,1-.59-.72.86.86,0,0,1-.28-.23l-.11-.18h0c-.21-.34-.4-.68-.59-1a2.8,2.8,0,0,1-2.37-.69,5.93,5.93,0,0,1-1.18-1.75,6.31,6.31,0,0,1-3.84-1.5,5.23,5.23,0,0,1-1.82-.65,6.75,6.75,0,0,1-4.32-2.61A6,6,0,0,1,316,31.58a5.62,5.62,0,0,1-1.41-1.28h-.18c-2.62,3-5.59.93-7.47-1.86l-.36-.28a5,5,0,0,1-.51-.53l-.11-.11h-.12l.06.1c.09.19-.11.37-.27.42-.4.14-.8.25-1.19.35,0,.28-.24.42-.51.44a18.77,18.77,0,0,1-4.87-.35,5.36,5.36,0,0,1-.83,1.05c-1.44,1.43-3.64.95-5.68-.23a6.78,6.78,0,0,1-1.72.26h-.29A19.11,19.11,0,0,1,288,29.4a6.89,6.89,0,0,1-3.94,1.4,1.25,1.25,0,0,1-.79.23c-.5,0-.94,0-1.36-.07-1.78,1.43-5.79,1.89-8.7.61a5.77,5.77,0,0,1-3.08.41h0c-.12,1-1.07,1.32-2.31,1.31-.82.93-2.38,1.23-4.82.26A3.13,3.13,0,0,1,260.93,30C259.82,27.72,259.56,24.37,262.34,24.67Z" class="cls-6"/><path data-cppathid="10027" transform="translate(-10.72)" d="M355,70.91h0S355,70.93,355,70.91Z" class="cls-6"/><path data-cppathid="10028" transform="translate(-10.72)" d="M266.3,22.89l.24,0c2-2.12,4.17-2.17,5.72-1a5.29,5.29,0,0,1,4.23,1.1,2.68,2.68,0,0,1,.4.23l.05,0c.27,0,.54,0,.79,0a2.55,2.55,0,0,1,2.64-.94,3.13,3.13,0,0,1,2.29-1.2c.68-.81,2-1.24,3.9-.92a2.45,2.45,0,0,1,2.38-.9,7.67,7.67,0,0,1,1.61.36c1.07-.65,2.82-.71,5.39.35l.25.12v0c0-.22.27-.3.56-.32a3.07,3.07,0,0,1,.63,0l1.06.2a.64.64,0,0,1,.45-.21h.33l-.12-.24c-.19-.44.62-.49.83-.49a8.56,8.56,0,0,1,1,0,3.12,3.12,0,0,1,1.25.11,8.84,8.84,0,0,1,2.69.86c.13-.38,1.43-.21,1.59-.17a12.79,12.79,0,0,1,1.38.48c0-.32,0-.65,0-1s1-.32,1.18-.29c2.74.28,4.85,1.15,5.94,2.93l.28.1a8.06,8.06,0,0,1-.13-1.29c0-.8,2.25,0,2.5.23A9.4,9.4,0,0,1,319,22.77h.14a9.65,9.65,0,0,1,6.27,2.95c.43-.29,1.38,0,2,.27v0c0-.42,1-.32,1.18-.29a9.88,9.88,0,0,1,4.81,1.85l.17.13a3.59,3.59,0,0,1,.92,1.33,4.85,4.85,0,0,1,2.32,1.88c2.74-.55,6.29,1.54,5.34,4.82a7.18,7.18,0,0,1,4.59,3.48c2.41,1.21,3.69,4.59,2.45,6,1.11.7,1.78,1.54,1.5,2.16a6.48,6.48,0,0,1,2.68,3,3,3,0,0,1,.39,1.51c1.77,1,2.87,2.46,1.73,4.19a4.09,4.09,0,0,1,1,.4c2.61,1.44-.52,5.2,1.16,7.63l.84.9a.35.35,0,0,1-.16.59l-1.07.59c1.24,2.77,1.17,4.84.61,7.89,0,.21-.36.29-.52.31a7.81,7.81,0,0,1-3.8-.47.24.24,0,0,1-.06.09,3.34,3.34,0,0,1,.55,1.65,1.93,1.93,0,0,1,.2,1.33l0,.06a.25.25,0,0,1-.08.12l-.08.05,0,0c.07.07.14.13.2.2l1.37,1.38c.35.34.09.49-.33.54.14.33.28.68.44,1.09.26.68-1.33.46-1.56.39l-.08,0a1.54,1.54,0,0,1-.78.09,13,13,0,0,1-.49,1.9.45.45,0,0,1-.31.3,9.25,9.25,0,0,1,.3,1.72c.05.42-.44.5-1,.42a1.68,1.68,0,0,1-.37.06,6.11,6.11,0,0,0,.68,1.7c.16.34-.33.41-.92.34l.92,1.84c.24.49-.65.41-1.47.2-.16.45-1.24.24-1.54.18.45.1.51.63.38,1.33.24.14.42.3.45.47s0,.24.07.35c.53.31.86.66.39.8.43.4.27.58-.11.63.13.62.26,1.23.37,1.86.08.46-.51.52-1.17.38a5.47,5.47,0,0,0,.45,1.07c.35.64-1.29.33-2,.16a7,7,0,0,1,2,3.48c.17.84-1.51.33-2.3,0a11,11,0,0,1,1,2.21c.1.31-.29.42-.51.44a2.48,2.48,0,0,1-.77,0c.82,1.28,1.47,2.56.94,2.25l.09.11c.7,1-2,.37-2.39.08l-.68-.55c-.33.1-.31,1.45-.77,2.26a12.75,12.75,0,0,1,1.26,1.18c.32.34,0,.49-.3.56l.51.66c1.23.93-1.65.62-2.2.25-.15-.09-.31-.22-.49-.35a6.68,6.68,0,0,0,.56,2.35,14,14,0,0,1,1,1.73c.22.47-.74.42-1.58.21,0,.17.08.32.13.51.08.38-.22.48-.64.45,0,.3,0,.66-.08,1.17a.3.3,0,0,1-.1.17,3.71,3.71,0,0,1,.55,2c0,.27-.53.29-.75.29a8.76,8.76,0,0,1,.49,1.65c0,.22-.06.31-.26.39l-.2.09a2.41,2.41,0,0,1-1.12,0c0,.44-.06.9-.07,1.43a.22.22,0,0,1-.1.17c.28.54.55,1.09.82,1.63s-.44.42-1.16.28a9.71,9.71,0,0,1-.23,1.58c-.07.32-.53.38-1.05.31l-.42-.06a1,1,0,0,1-.31.29,4.89,4.89,0,0,1,.26.51c.13.29-.08.39-.41.4.38.41.6.83.42,1.22-.48,1-.37,1-1.25,1.23a13.89,13.89,0,0,1,.52,1.51c.08.27-.1.38-.38.41.12.34.24.69.38,1.05.21.54-.74.45-1.54.25h-.18c0,.14,0,.27-.07.41,1.39,1.36,3.33,3.26,1.49,1.9,1.21.9-1.62.68-2.2.25l-.27-.2a2.33,2.33,0,0,1-.52,0c.28.67.46,1.1.33.94l.05.1c.11.21-.11.31-.45.33a1.09,1.09,0,0,0,0,.18,4.21,4.21,0,0,1,.85,1.65.27.27,0,0,1-.14.34c0,.05,0,.1.07.16.17.3.34.61.51,1s-.32.41-.5.44l-.13,0a3.44,3.44,0,0,1-1.06-.09v.16a11.63,11.63,0,0,1,.81,2.3c.08.11.07.2,0,.26-.1.27-.68.29-1.31.15a2.59,2.59,0,0,1-.58-.1c-.24-.1-.49-.18-.74-.26l-.18.27a10.94,10.94,0,0,1,2.77,1.45c.15.11.5.45.22.64a2.78,2.78,0,0,1-2.71.36c0,.1.05.19.07.29a3.89,3.89,0,0,1,.43.11c.36.12.87.38.89.81s.06,1,0,1.52a7.31,7.31,0,0,1,3.6,2.43,2.93,2.93,0,0,1,1.49.4c-.12-.3-.24-.61-.35-.92-.31-.84,2.42-.15,2.78.43.12.2.23.41.34.61a18.06,18.06,0,0,0,2.83-4.59c.32-.78,2.87-.08,2.81.75a10.91,10.91,0,0,1-2.28,6c-.14.23-.66.18-.95.14l-.07,0a1.63,1.63,0,0,1,.22.56c.08.56-.69.51-1.35.36.22.41-.48.45-1.22.34a7.79,7.79,0,0,1-4.74.75s0,0,0,.08l-.6.75c-.69.86-2.14.32-2.63-.46l-.23-.36a2.19,2.19,0,0,1-2.51-.12l-1.46-1.45a.64.64,0,0,1,0-1.08,6.59,6.59,0,0,1-1.82-2.44c-.1-.21.1-.33.3-.39-.1-.2-.19-.4-.28-.61s.39-.43,1-.36c-.94-.85-1.62-1.81-.67-2.34l.4-.21a.47.47,0,0,1,0-.17c0-.07.05-.12.07-.18h0c-.15-.54.19-.78.67-.84a1,1,0,0,1,.06-.18,5.06,5.06,0,0,0,0-2,.55.55,0,0,1,0-.18h0a13.6,13.6,0,0,1-.05-3.47,1.9,1.9,0,0,1,1.18-1.33,24.63,24.63,0,0,1-.42-4.37c-.06-.6.4-.86.94-.91a9.08,9.08,0,0,1,.54-3c.06-.21.33-.24.51-.28a2.91,2.91,0,0,1,1.14,0,13.63,13.63,0,0,1,.5-1.84,17.62,17.62,0,0,1,0-2.26.21.21,0,0,1,.07-.15c0-.66-.07-1.33-.07-2,0-.85,2.42.15,2.69.42l.1.11a15.13,15.13,0,0,1-.75-2c-.14-.48.58-.49,1.31-.34a2.52,2.52,0,0,1,.64-3.59,1.36,1.36,0,0,1,1-.18c.07-.14.11-.28.2-.43a1.43,1.43,0,0,1,0-.22,6.68,6.68,0,0,1-.82-3.91c0-.12.09-.2.22-.25a8.91,8.91,0,0,1-.22-1.92c0-.21.17-.29.43-.31a18,18,0,0,1,.29-1.88c.09-.44.76-.4,1.41-.21,0-.38,0-.78,0-1.24,0-.29.32-.36.73-.32a1.41,1.41,0,0,1,0-.46c.07-.37.55-.39,1.07-.29-.15-1.74.36-2.84,1.19-3.26-.26-.84,0-1.83.53-3.38a2.64,2.64,0,0,1,.52-2.07,3.84,3.84,0,0,1,.27-.29,13.42,13.42,0,0,1-.68-2.13c-.09-.38.27-.46.73-.43a8,8,0,0,1,.72-3.36.7.7,0,0,1,.56-.35,1.33,1.33,0,0,0,.05-.19,2.78,2.78,0,0,1,0-1.43c0-.06,0-.11,0-.17a.32.32,0,0,1,.19-.36,11.88,11.88,0,0,1,.8-1.6,3.1,3.1,0,0,1-.13-1.73c0-.22,0-.45,0-.71s1-.27,1.17-.26l.2,0a11.81,11.81,0,0,1,.08-2,.31.31,0,0,1,.22-.26l-.33-.2c-.51-.32-.85-.86,0-1a3,3,0,0,1,.73,0,41.53,41.53,0,0,1-.54-6.21,4.75,4.75,0,0,1-1.49-3.93c0-.64,1.29-.29,2,0a.66.66,0,0,1,.22-.16l.2-.09a1.45,1.45,0,0,1,.35-.07q-.12-.57-.27-1.2a2.23,2.23,0,0,1-.77-1.85l-.48-.29c-1.05-.67-.36-.91.47-.89-.46-1.7-.87-3-.91-3.1-.43-.51.28-.65.76-.66l0-.06c-.17-.3-.09-.46.11-.56-2.48-1.27-2.49-1.83-2.4-4.88,0-.19.17-.28.4-.32a2.29,2.29,0,0,1-.47-1.82,5.66,5.66,0,0,1-2-3.32c-1.89-.37-3.61-1.23-4.13-2.6a5.14,5.14,0,0,1,0-3.76A5.43,5.43,0,0,1,339,42.58s0,0,0,0c-.34-.33-.67-.67-1-1a9.6,9.6,0,0,1-1.51-1.16,3.71,3.71,0,0,1-.59-.72.85.85,0,0,1-.28-.22,1.62,1.62,0,0,1-.1-.18h0c-.21-.33-.41-.67-.6-1a2.85,2.85,0,0,1-2.37-.69,5.82,5.82,0,0,1-1.17-1.76,6.28,6.28,0,0,1-3.85-1.5,5.09,5.09,0,0,1-1.81-.64A6.81,6.81,0,0,1,321.33,31,6.24,6.24,0,0,1,320,29.8a6,6,0,0,1-1.41-1.29h-.06l-.12,0c-2.62,3-5.58.94-7.47-1.85l-.35-.29a4.34,4.34,0,0,1-.52-.53l-.1-.11h-.12a.54.54,0,0,1,.05.11c.1.19-.11.36-.26.42a11.27,11.27,0,0,1-1.19.34c0,.29-.24.43-.52.44a18.25,18.25,0,0,1-4.86-.34,5.81,5.81,0,0,1-.84,1c-1.44,1.44-3.64,1-5.67-.22a6.46,6.46,0,0,1-1.73.25l-.29,0a19.33,19.33,0,0,1-2.54-.17,7,7,0,0,1-3.94,1.4c-.16.19-.61.22-.79.22-.49,0-.93,0-1.35-.06-1.79,1.43-5.79,1.88-8.71.61a5.73,5.73,0,0,1-3.07.4h0c-.13,1-1.08,1.32-2.31,1.31-.82.92-2.39,1.22-4.83.25a3.12,3.12,0,0,1-2.08-3.54C263.78,25.93,263.53,22.58,266.3,22.89Z" class="cls-6"/><path data-cppathid="10029" transform="translate(-10.72)" d="M346.44,37.35s-.5,8.64-6.3,11.1S368.25,64,368.25,64l1.45-16Z" class="cls-18"/><g class="cls-2"><g class="cls-19"><path data-cppathid="10030" transform="translate(-10.72)" d="M319.31,15.71l-.91.24-.22.06-.22.06-.22.06-.22.06c-1.13.3-2.25.61-3.33.94s-2.12.68-3,1.06a13.17,13.17,0,0,0-2.41,1.25A4.07,4.07,0,0,0,307.33,21a2.45,2.45,0,0,0-.18.54,2.66,2.66,0,0,0,0,.57,2.94,2.94,0,0,0,.12.62,4.28,4.28,0,0,0,.26.66,11.38,11.38,0,0,0,3.72,4,26.17,26.17,0,0,0,5.93,3.09,28.43,28.43,0,0,0,6.42,1.63,12.48,12.48,0,0,0,5.23-.29A14.35,14.35,0,0,0,333,29.69a8.69,8.69,0,0,0,2.49-2.81,6.13,6.13,0,0,0,.75-3.19,6.94,6.94,0,0,0-1.05-3.28,9.17,9.17,0,0,0-2.71-2.81,13.25,13.25,0,0,0-3.83-1.8,16.61,16.61,0,0,0-4.51-.68,17.14,17.14,0,0,0-4.79.59" class="cls-20"/><path data-cppathid="10031" transform="translate(-10.72)" d="M282.23,25.69l-.28.08-.28.07-.27.08-.28.07L280,26.3a22.52,22.52,0,0,0-5.6,2.33,17.6,17.6,0,0,0-4.27,3.44,11.38,11.38,0,0,0-2.45,4.19,7.51,7.51,0,0,0-.07,4.45,7.83,7.83,0,0,0,2.43,3.7,11.07,11.07,0,0,0,4.35,2.22,17.59,17.59,0,0,0,5.68.53,24.5,24.5,0,0,0,6.39-1.26,14.68,14.68,0,0,0,5.22-3.35,23.66,23.66,0,0,0,4.23-5.38,18.67,18.67,0,0,0,2.28-5.88,8.81,8.81,0,0,0-.41-5.19,4.12,4.12,0,0,0-.35-.66,3.34,3.34,0,0,0-.44-.54,3.11,3.11,0,0,0-.52-.44,3.29,3.29,0,0,0-.61-.34,6.77,6.77,0,0,0-2.52-.48,18,18,0,0,0-3.23.25c-1.18.17-2.45.44-3.76.75s-2.7.68-4.09,1.05" class="cls-20"/><path data-cppathid="10032" transform="translate(-10.72)" d="M328.8,31.8a12.48,12.48,0,0,1-5.23.29,28.43,28.43,0,0,1-6.42-1.63,26.17,26.17,0,0,1-5.93-3.09,11.38,11.38,0,0,1-3.72-4,4.28,4.28,0,0,1-.26-.66,2.94,2.94,0,0,1-.12-.62,2.66,2.66,0,0,1,0-.57,2.45,2.45,0,0,1,.18-.54,4.07,4.07,0,0,1,1.41-1.51,13.17,13.17,0,0,1,2.41-1.25c.92-.38,2-.73,3-1.06s2.2-.64,3.33-.94l.22-.06.22-.06.22-.06.22-.06.91-.24a17.14,17.14,0,0,1,4.79-.59,16.61,16.61,0,0,1,4.51.68,13.25,13.25,0,0,1,3.83,1.8,9.17,9.17,0,0,1,2.71,2.81,6.94,6.94,0,0,1,1.05,3.28,6.13,6.13,0,0,1-.75,3.19A8.69,8.69,0,0,1,333,29.69a14.35,14.35,0,0,1-4.16,2.11M316.9,15.19c-1.62.43-3.22.87-4.69,1.36a20.54,20.54,0,0,0-3.89,1.69,5.36,5.36,0,0,0-2.27,2.29,3.62,3.62,0,0,0,.22,3.16,12.51,12.51,0,0,0,3.65,4.09A28.8,28.8,0,0,0,316,31.31a28,28,0,0,0,7,2,14.09,14.09,0,0,0,6.35-.38A15.35,15.35,0,0,0,334,30.6a9.35,9.35,0,0,0,2.69-3.17,7,7,0,0,0,.75-3.6,8.2,8.2,0,0,0-1.24-3.74,10.83,10.83,0,0,0-3-3.16,15,15,0,0,0-4.22-2,18.23,18.23,0,0,0-4.94-.8,18.52,18.52,0,0,0-5.25.61l-.46.12-.46.12-.46.12-.47.13" class="cls-21"/><path data-cppathid="10033" transform="translate(-10.72)" d="M286.43,45.9A24.5,24.5,0,0,1,280,47.16a17.59,17.59,0,0,1-5.68-.53A11.07,11.07,0,0,1,270,44.41a7.83,7.83,0,0,1-2.43-3.7,7.51,7.51,0,0,1,.07-4.45,11.38,11.38,0,0,1,2.45-4.19,17.6,17.6,0,0,1,4.27-3.44A22.52,22.52,0,0,1,280,26.3l1.15-.31.28-.07.27-.08.28-.07.28-.08c1.39-.37,2.76-.73,4.09-1.05s2.58-.58,3.76-.75a18,18,0,0,1,3.23-.25,6.77,6.77,0,0,1,2.52.48,3.29,3.29,0,0,1,.61.34,3.11,3.11,0,0,1,.52.44,3.34,3.34,0,0,1,.44.54,4.12,4.12,0,0,1,.35.66,8.81,8.81,0,0,1,.41,5.19,18.67,18.67,0,0,1-2.28,5.88,23.66,23.66,0,0,1-4.23,5.38,14.68,14.68,0,0,1-5.22,3.35m-4.58-21.41-.57.15-.58.16-.58.15-.59.16a24.53,24.53,0,0,0-6.12,2.54,19.22,19.22,0,0,0-4.68,3.82A12.87,12.87,0,0,0,266,36.15a8.83,8.83,0,0,0-.05,5,9.11,9.11,0,0,0,2.73,4.28,12.38,12.38,0,0,0,4.86,2.58,19.18,19.18,0,0,0,6.32.65,26.49,26.49,0,0,0,7-1.38,16.58,16.58,0,0,0,6.33-4.08,23.34,23.34,0,0,0,4.31-6.07,20.15,20.15,0,0,0,2-6.29,9.72,9.72,0,0,0-.53-5.15,5,5,0,0,0-2.51-2.6,8.85,8.85,0,0,0-3.92-.68,27.28,27.28,0,0,0-5,.64c-1.82.37-3.77.87-5.76,1.4" class="cls-21"/><path data-cppathid="10034" transform="translate(-10.72)" d="M303.92,32.51l-.6-.12.2,0,.09,0,.09,0,.11,0,.11,0m-17,14.81a26.49,26.49,0,0,1-7,1.38,19.18,19.18,0,0,1-6.32-.65,12.38,12.38,0,0,1-4.86-2.58A9.11,9.11,0,0,1,266,41.19a8.83,8.83,0,0,1,.05-5,12.87,12.87,0,0,1,2.69-4.68,19.22,19.22,0,0,1,4.68-3.82,24.53,24.53,0,0,1,6.12-2.54l.59-.16.58-.15.58-.16.57-.15c2-.53,3.94-1,5.76-1.4a27.28,27.28,0,0,1,5-.64,8.85,8.85,0,0,1,3.92.68,5,5,0,0,1,2.51,2.6,9.72,9.72,0,0,1,.53,5.15,20.15,20.15,0,0,1-2,6.29,23.34,23.34,0,0,1-4.31,6.07,16.58,16.58,0,0,1-6.33,4.08M329.44,33a14.09,14.09,0,0,1-6.35.38,28,28,0,0,1-7-2,28.8,28.8,0,0,1-6.12-3.53,12.51,12.51,0,0,1-3.65-4.09,3.62,3.62,0,0,1-.22-3.16,5.36,5.36,0,0,1,2.27-2.29,20.54,20.54,0,0,1,3.89-1.69c1.47-.49,3.07-.93,4.69-1.36l.47-.13.46-.12.46-.12.46-.12a18.52,18.52,0,0,1,5.25-.61,18.23,18.23,0,0,1,4.94.8,15,15,0,0,1,4.22,2,10.83,10.83,0,0,1,3,3.16,8.2,8.2,0,0,1,1.24,3.74,7,7,0,0,1-.75,3.6A9.35,9.35,0,0,1,334,30.6,15.35,15.35,0,0,1,329.44,33m-12.2-21-1.81.46c-.77.2-1.61.41-2.48.66s-1.79.51-2.69.83A27.14,27.14,0,0,0,307.58,15a16,16,0,0,0-2.41,1.36l-.05,0c-.53.25-1.08.49-1.64.72s-1.12.44-1.7.64-1.16.39-1.75.57-1.21.35-1.82.51l-.73.19-.75.17-.75.18-.75.16a18.75,18.75,0,0,0-3.62-.17,31.07,31.07,0,0,0-3.79.4c-1.27.2-2.54.46-3.75.74s-2.4.58-3.47.85l-2.26.58A28.57,28.57,0,0,0,270.81,25,23.3,23.3,0,0,0,265,29.8a16.67,16.67,0,0,0-3.4,6.07,12.1,12.1,0,0,0-.1,6.67A12.8,12.8,0,0,0,265,48.38,16,16,0,0,0,271.24,52a23.22,23.22,0,0,0,8.14,1,31.35,31.35,0,0,0,9-1.78,19.85,19.85,0,0,0,4.87-2.55,23.33,23.33,0,0,0,4-3.63,26,26,0,0,0,3-4.27,26.33,26.33,0,0,0,2.06-4.51,8.32,8.32,0,0,1,.53-1.62,5.16,5.16,0,0,1,.7-1.14,4,4,0,0,1,.84-.76,4.45,4.45,0,0,1,1-.44,6,6,0,0,1,1.13-.22c.4,0,.81,0,1.23,0l1.29,0c.44,0,.88,0,1.33,0a34.6,34.6,0,0,0,5.08,2.59A33.72,33.72,0,0,0,321,36.44a24.49,24.49,0,0,0,5.43.58,15.13,15.13,0,0,0,4.85-.79,17.88,17.88,0,0,0,5.68-3.14,11.41,11.41,0,0,0,3.19-4.2,9.39,9.39,0,0,0,.69-4.75,11.79,11.79,0,0,0-1.78-4.9,14.93,14.93,0,0,0-3.9-4.11,19.45,19.45,0,0,0-5.3-2.69,22.62,22.62,0,0,0-6.12-1.14,22.18,22.18,0,0,0-6.46.65" class="cls-22"/></g></g><path data-cppathid="10035" transform="translate(-10.72)" d="M305.63,192.8s2.75,23.89,1.83,29.86c0,0,3.68,3.21.46,10.1,0,0,10.1,34.43,3.22,45,0,0-47.3-2.3-52.35-5.51,0,0,1.84-34,4.13-40.41,0,0-2.29-6.89,2.3-11.48-.46-4.59,13.78-47.3,16.07-50.51s3.72-5.41,3.72-5.41a6,6,0,0,0,1.82,3.49,4.28,4.28,0,0,0,1.3.78c1.71.66,4.35.47,8.38-1.9C307,160.67,305.63,192.8,305.63,192.8Z" class="cls-23"/><path data-cppathid="10036" transform="translate(-10.72)" d="M322.62,202c1.24.41,18.3,14.29,17.45,18.83-1.24,6.61-30.11,41-29.7,44.27s-13.64-8.67-6.62-13.22,20.06-32.11,26.67-33.35L309.76,199.7Z" class="cls-3"/><path data-cppathid="10037" transform="translate(-10.72)" d="M308.72,262.62s12.4,5.37,10.75,9.92,2.89-9.1,6.2-8.68S324,277.5,321.54,277.5,305,279.15,300,271.3s-.42-15.3,1.65-17.36S308.72,262.62,308.72,262.62Z" class="cls-3"/><path data-cppathid="10038" transform="translate(-10.72)" d="M316.45,256.12l-3.21,4.13s-5.77,1.43-9.45-2.24c-4.94-4.95-2.29-5-2.29-5l3.93-4.19Z" class="cls-4"/><path data-cppathid="10039" transform="translate(-10.72)" d="M288.13,168.71s-20.15,48.44-16,104.91" class="cls-24"/><path data-cppathid="10040" transform="translate(-10.72)" d="M300.11,167.55c8.73,2.3,41.34,42.71,42.71,52.81S324,256.17,317.57,258.47c0,0-8.05.82-12.75-2.35,0,0-4.24-5.46-2.86-10.05s15.15-20.2,17-24.33c-1.37-.92-2.29-1.38-.91-3.68-5.51-7.35-27.14-28.37-26.89-38.06A13.53,13.53,0,0,1,300.11,167.55Z" class="cls-23"/><path data-cppathid="10041" transform="translate(-10.72)" d="M302.79,157.46c2.32-.54,13.24,6.89,6.67,7.83,1.23,2,1.45,3.45-.54,3.28,3.82,1.4,2.54,5.8-.41,7.6,1.11,2.84,0,7.05-3.35,6.18A3.51,3.51,0,0,1,304,189c.49,3.42-3.37,7.05-5.52,3.29,1.63,2.13.79,3.77-2.07,2.7.22-1.62-.53-3.26-1.46-4.93-2.43,1.88-3.74.26-3.25-2.73-.61-.36-2.53-1.47-3-1.68-1.44,2.8-5.86-1.57-4.16-2.94-2.46-.91.36-7.37,3.71-10.44,1.2-1.1,2.47-1.75,3.59-1.56-.06.13-.13-.18-.71-.56.14,0,1.84-.38,2.08-.51-.77-2.46.73-3.34,3.3-2.81.43.35-1.18-.61-1-.51a22.93,22.93,0,0,1,2.88-2.26c.41,0,.41,0,0,.08s-.65-.17-.66-.59c1.85-1.39,2.95-3.21,4.48-4.42" class="cls-25"/><path data-cppathid="10042" transform="translate(-10.72)" d="M282.2,162.79c.32.11-3.31-.81-4.88-.47a4,4,0,0,0,2.61,4.79c-2.2-2.44-5.52-1.33-6.5,1.72.67.42,1.23,1.29,2,1.7-1.89-.1-6.46.14-6.87,2.73s3.81,3.46,5.8,4.45c-5.63-2.78-4.95,5.93,1.62,5.93-.37-.44-.91-1.1-1.26-1.58a20.59,20.59,0,0,0,7.34.49,10.41,10.41,0,0,0-1.54-2.13c.27-.71,1-.33,1.12-1l-1-.3c2.62-.47,1.33-4.45-2.24-4.73,1.77,2.11,4.22.45,4.28-2.19a1.84,1.84,0,0,0-1.09-.09,6.49,6.49,0,0,0,3.86-4.84c-.93-.16-2.18-1-3.07-1.1,1.57-.38,1.48-1,2.64-1.77a4.18,4.18,0,0,0-2.26-1.65" class="cls-25"/><path data-cppathid="10043" transform="translate(-10.72)" d="M312.51,157.52s-20,27.34-32.29,16.2,1.54-8.07,1.54-8.07-9.19-10.16-3.22-8.64c0,0,16.07,14.19,29.38-5.06,0,0,4.14-1,.92,4.56C308.84,156.51,314.35,152.45,312.51,157.52Z" class="cls-8"/><path data-cppathid="10044" transform="translate(-10.72)" d="M311.66,199.93c3,4,8.21,5.16,11.53,2.62s3.55-7.82.51-11.81-8.21-5.16-11.53-2.63S308.62,195.94,311.66,199.93Z" class="cls-26"/><path data-cppathid="10045" transform="translate(-10.72)" d="M312.64,194.91c-1.22,0-2.78-1.51-.93-1.91a12.85,12.85,0,0,1,4.27-.08.57.57,0,0,1,0-.18c.73-1.68,1.51-3.08,3.45-3.35,1.29-.19,2.72,1.65.92,1.9a1.6,1.6,0,0,0-.31.1,4.13,4.13,0,0,1,2.45.77c.84.56.41,1.37-.41,1.55a11.3,11.3,0,0,0-2.13.57c.92.17,1.87.25,2.76.5,1.31.37,1.47,2-.12,1.86s-3.05-.17-4.57-.17a9.93,9.93,0,0,1-.42,3.18c-.25,1.21-2.92.53-2.66-.71.13-.59.31-1.18.41-1.77a9.34,9.34,0,0,0-1,.81c-.78.76-3.28,0-2.43-1.16a8.29,8.29,0,0,1,2.42-2A16,16,0,0,0,312.64,194.91Z" class="cls-27"/><path data-cppathid="10046" transform="translate(-10.72)" d="M239.2,336.7c.49,2.88,1.67,5.05,2.65,4.85s1.4-2.64.93-5.47-1.66-5-2.65-4.85S238.72,333.83,239.2,336.7Z" class="cls-28"/><path data-cppathid="10047" transform="translate(-10.72)" d="M242,340.86c.73-1.25.66-4.21-.14-6.66-.64-2-1.64-2.77-2.23-1.8-.47.78-.42,2.71.09,4.29.42,1.27,1,1.77,1.43,1.14a4.15,4.15,0,0,0-.06-2.74c-.26-.8-.67-1.14-.91-.74a2.59,2.59,0,0,0,0,1.76" class="cls-29"/><path data-cppathid="10048" transform="translate(-10.72)" d="M316.13,343.32c3.15-3.15,4.43-8.18,5.65-10.33.66-1.16,28.22-33.32,36.74-50.22,7.48-14.84,20.72,5.36-23.11,50.75a16.42,16.42,0,0,0-4.7,10.34c.29,2.18-5.22-.37-5.22-.37S310.78,348.67,316.13,343.32Z" class="cls-30"/><path data-cppathid="10049" transform="translate(-10.72)" d="M327.32,332.83s-6.27-2.35-10.75.78-8.3,1.82-10,2-1.44,7,8.86,4.82S326,344.8,326,344.8l-3.46,6s9.18-3.87,10.18-7.43S327.32,332.83,327.32,332.83Z" class="cls-30"/><path data-cppathid="10050" transform="translate(-10.72)" d="M270.71,457.39c.22,8.95,41.56,15.2,92.34,14s91.76-9.48,91.54-18.43S413,437.72,362.26,439,270.49,448.44,270.71,457.39Z" class="cls-31"/><path data-cppathid="10051" transform="translate(-10.72)" d="M370.5,290.89c5.33-13.76,4.73-41.38,4.73-41.38s-3.5-11.2-9-5c-2.74,3.09-9.21,28.78-14.16,39.84C360.36,285.91,368.27,290.7,370.5,290.89Z" class="cls-32"/><path data-cppathid="10052" transform="translate(-10.72)" d="M370.15,289.12s2.26,2.33,1,3a10.35,10.35,0,0,0-2.53,2.09l.56,2.64-2.26.54L362,293.13s-6.54-3.18-10.88-2.3-2.49-2.89-2.49-2.89,2-1.1,1.59-1.83-1.12-2.41-.21-3.05S360,281,370.15,289.12Z" class="cls-33"/><path data-cppathid="10053" transform="translate(-10.72)" d="M353.16,334.85s-.19,4.88-.22,7.33c-.7,47.62,13.79,98.65,13.79,98.65s-10.9,3.92-12.64,7.63,25.69,1.21,25.69,1.21-7.1-65.81-5.62-80.51,16.52,76.58,20.31,82,17.67,10.57,17.67,10.57-3-10.92-5.87-15.44S394.9,377.51,393.7,343c0-.94-.08-2.75-.08-2.75Z" class="cls-34"/><path data-cppathid="10054" transform="translate(-10.72)" d="M376.47,237.76s-20.74,44.84-23.2,94.39c-.15,3-.25,9.13-.25,9.13l40.1,3.31s-.09-2.48-.12-3.66c-.82-33.9-2.95-72.34-2.95-72.34s-3.72-40.23-7.34-38.31S376.47,237.76,376.47,237.76Z" class="cls-35"/><path data-cppathid="10055" transform="translate(-10.72)" d="M375,230.1l.34,14.24s-4.68-8.81-7.9,5.38c0-12.83,3.25-14.11,3.75-13.94S375,230.1,375,230.1Z" class="cls-36"/><polygon data-cppathid="10056" points="372.76 230.47 373.49 234.65 365.77 240.97 362.71 234.67 372.76 230.47" class="cls-37"/><path data-cppathid="10057" transform="translate(-10.72)" d="M442.25,136.11s4.49,12.34-14.94,6.9-11.8-14.44-12.39-15.26,23.2-6.23,23.82-6.46S442.25,136.11,442.25,136.11Z" class="cls-38"/><path data-cppathid="10058" transform="translate(-10.72)" d="M361.18,220.28l-4.73-10.59s19.75,3.75,22.25-11.75c0,0-28.32-.89-28.39-1.22-3.34-14.91-6.55-44.94-.31-57.54,14.64-29.52,61.57-56.76,76.16-24.87s-.23,53.74-10.49,73.95-30,46.65-39.26,48C368.25,237.51,361.18,220.28,361.18,220.28Z" class="cls-30"/><path data-cppathid="10059" transform="translate(-10.72)" d="M370.52,151.9c.08,3.38-1.47,6.16-3.46,6.21s-3.67-2.65-3.75-6,1.46-6.17,3.46-6.21S370.44,148.52,370.52,151.9Z" class="cls-12"/><path data-cppathid="10060" transform="translate(-10.72)" d="M365.88,153.81a1.81,1.81,0,1,1-1.85-1.76A1.81,1.81,0,0,1,365.88,153.81Z" class="cls-13"/><path data-cppathid="10061" transform="translate(-10.72)" d="M380.6,150.93c.06,2.79-1.21,5.08-2.85,5.12s-3-2.19-3.09-5,1.21-5.07,2.84-5.11S380.53,148.14,380.6,150.93Z" class="cls-12"/><path data-cppathid="10062" transform="translate(-10.72)" d="M377.41,153.53a1.8,1.8,0,1,1-1.85-1.76A1.8,1.8,0,0,1,377.41,153.53Z" class="cls-13"/><path data-cppathid="10063" transform="translate(-10.72)" d="M362.43,109.84c-1.95,2.36-1,6.38,2.49,8,3.44,2,10-.29,13.1-3.13,3.38,3.08,5.48,4.38,11,.83,2.07,4,6.53,4.92,10.34,3.24-.36,1.18.55,2.66,2,3.66,1.77,1.19,5.68.5,7.73.49-1.07,3,2.53,5.37,5.47,5.37-.8,1.51.24,4.18,2.33,5.06a5.7,5.7,0,0,0,3.27.08c1,1.59,2.79,2.25,5.43.72-2.27,5.75-3.19,13.25,4.33,12.58-1.94,3-1.56,15.78,2,17.65,3.13,1.73,3.74,0,4.33-1.64a5,5,0,0,0,2.55,1.47c3.5-.57,5.7-2.47,2.6-6.29,3.51,2.49,7.64-.41,8.86-3.55a7.56,7.56,0,0,0,3.8-1.52c1.59-1.23,3.49-3.31,3.1-5.54a2.93,2.93,0,0,0-.19-.57,5.06,5.06,0,0,0,.72-3.35,4.39,4.39,0,0,0-3.08-4,5.86,5.86,0,0,0,.38-1.09c.63-2.9-.45-6.17-2.7-7.08a12.79,12.79,0,0,0,1-7.59,7.19,7.19,0,0,0-3.95-4.39,8.28,8.28,0,0,0-3.17-9.53,7.19,7.19,0,0,0-4.12-1.15c-.06-2.41-3.53-3.87-7.49-4.11.63-1.65.49-3.1-1-3.65,0-.13,0-.25,0-.39a4.94,4.94,0,0,0-4.29-5,7.41,7.41,0,0,0-4.95-5.7c-4.21-1.11-8.61,1.94-8.51,4.74a5.05,5.05,0,0,0-2,1.91,4,4,0,0,0-1.22-.62c-.61-.46-1.29-1-2-1.43.9-4-7.17-6.61-11.22-4.59-1.87-3-7.24-4.82-8.68.4,2.31-10.94-26.78,2-25.54,9.09-3.4-1-8.12-.83-11.65,4.46C350.87,107.12,357.15,110.49,362.43,109.84Z" class="cls-39"/><path data-cppathid="10064" transform="translate(-10.72)" d="M395.42,167.74a3,3,0,0,0,1.76-.47c.31-.26.42-.51-.14-.51a3,3,0,0,0-1.76.47c-.3.26-.41.51.14.51Z" class="cls-40"/><path data-cppathid="10065" transform="translate(-10.72)" d="M396.84,178.15c1.39,0,1.93-1.75.24-1.75-1.4,0-1.93,1.75-.24,1.75Z" class="cls-40"/><path data-cppathid="10066" transform="translate(-10.72)" d="M385.25,175.57v-.48a.39.39,0,0,0-.06-.33.49.49,0,0,0-.23-.26,1,1,0,0,0-.38-.14,1.18,1.18,0,0,0-.46,0l-.34.06a1.93,1.93,0,0,0-.6.28l-.22.19a1,1,0,0,0-.22.45v.47a.47.47,0,0,0,.06.33.53.53,0,0,0,.23.26.93.93,0,0,0,.38.14,1.23,1.23,0,0,0,.47,0l.33-.06a1.65,1.65,0,0,0,.6-.28L385,176a.8.8,0,0,0,.22-.44Z" class="cls-40"/><g class="cls-2"><polygon data-cppathid="10067" points="316.29 358.02 324.64 358.96 318.94 359.94 310.5 358.97 316.29 358.02" class="cls-41"/><polygon data-cppathid="10068" points="324.64 358.96 322.36 432.98 316.86 435.24 318.94 359.94 324.64 358.96" class="cls-42"/><polygon data-cppathid="10069" points="318.94 359.94 316.86 435.24 308.8 433.37 310.5 358.97 318.94 359.94" class="cls-43"/></g><g class="cls-2"><polygon data-cppathid="10070" points="360.35 363 369.9 364.08 364.7 365.23 355.03 364.12 360.35 363" class="cls-41"/><polygon data-cppathid="10071" points="369.9 364.08 365.45 442.78 360.4 445.39 364.7 365.23 369.9 364.08" class="cls-44"/><polygon data-cppathid="10072" points="364.7 365.23 360.4 445.39 351.23 443.25 355.03 364.12 364.7 365.23" class="cls-43"/></g><g class="cls-2"><polygon data-cppathid="10073" points="246.93 369.45 256.06 370.79 247.46 372.28 238.27 370.88 246.93 369.45" class="cls-41"/><polygon data-cppathid="10074" points="256.06 370.79 256.76 460.01 248.63 463.36 247.46 372.28 256.06 370.79" class="cls-42"/><polygon data-cppathid="10075" points="247.46 372.28 248.63 463.36 239.88 460.66 238.27 370.88 247.46 372.28" class="cls-43"/></g><g class="cls-2"><polygon data-cppathid="10076" points="295.68 376.61 306.44 378.19 298.35 379.99 287.46 378.34 295.68 376.61" class="cls-41"/><polygon data-cppathid="10077" points="306.44 378.19 304.45 474.3 296.76 478.27 298.35 379.99 306.44 378.19" class="cls-44"/><polygon data-cppathid="10078" points="298.35 379.99 296.76 478.27 286.5 475.09 287.46 378.34 298.35 379.99" class="cls-43"/></g><g class="cls-2"><polygon data-cppathid="10079" points="311.21 332.38 386.98 343.8 298.97 378.41 210.98 358.53 311.21 332.38" class="cls-45"/><polygon data-cppathid="10080" points="386.98 343.8 386.35 353.81 298.8 391.87 298.97 378.41 386.98 343.8" class="cls-44"/><polygon data-cppathid="10081" points="298.97 378.41 298.8 391.87 211.43 370.28 210.98 358.53 298.97 378.41" class="cls-43"/></g><path data-cppathid="10082" transform="translate(-10.72)" d="M399.77,349.56S306,327.29,307.88,326.88s-68.07,13.56-68.07,13.56l88.95,27.08Z" class="cls-46"/><path data-cppathid="10083" transform="translate(-10.72)" d="M329.37,367.38q35.2-9.18,70.51-18c-.57-2.59-.86-3.88-1.43-6.47L327,356.38C327.92,360.77,328.41,363,329.37,367.38Z" class="cls-47"/><path data-cppathid="10084" transform="translate(-10.72)" d="M397.26,346.53c.46,2.09,1.58,3.12,2.62,2.87s1.64-1.66,1.19-3.7-1.56-3-2.62-2.77S396.8,344.44,397.26,346.53Z" class="cls-47"/><path data-cppathid="10085" transform="translate(-10.72)" d="M326.27,362.31c.66,3.06,2.05,5.33,3.1,5.07s1.36-2.92.7-5.93-2.05-5.28-3.11-5.07S325.6,359.25,326.27,362.31Z" class="cls-28"/><path data-cppathid="10086" transform="translate(-10.72)" d="M329.51,366.62c.71-1.38.49-4.56-.5-7.14-.8-2.07-1.92-2.89-2.5-1.82-.46.86-.31,2.93.33,4.6.52,1.34,1.23,1.85,1.59,1.15a4.35,4.35,0,0,0-.21-2.94c-.32-.84-.78-1.18-1-.73a2.78,2.78,0,0,0,.13,1.87" class="cls-29"/><path data-cppathid="10087" transform="translate(-10.72)" d="M241.85,341.55q33.14-6.87,66.33-13.4c-.41-2.43-.61-3.65-1-6.08l-67,9.16C240.81,335.36,241.16,337.42,241.85,341.55Z" class="cls-47"/><path data-cppathid="10088" transform="translate(-10.72)" d="M305.88,325.37c.32,2,1.32,3,2.3,2.78s1.6-1.47,1.28-3.38-1.31-2.84-2.3-2.7S305.54,323.4,305.88,325.37Z" class="cls-47"/><path data-cppathid="10089" transform="translate(-10.72)" d="M389.17,343.59h0Z" class="cls-30"/><path data-cppathid="10090" transform="translate(-10.72)" d="M363.74,342.69l-.31,6.82,8.06-1.79L375.18,334S367.06,337.4,363.74,342.69Z" class="cls-30"/><path data-cppathid="10091" transform="translate(-10.72)" d="M400.4,255.18s-8.95,4.6-7.09,12.6c.94,4,10.67,19.9,12.75,27.05-6.94,5.78-24,28.81-29.1,35-1.9,1.67-7.74,5.61-9.26,8.61-.59,1.15,1.56.74,1.13,1.58a95.54,95.54,0,0,0,2.25,10.47s4.78,9.84,14.44-2.45c1.37-1.93.54-7.2.27-11.66,2.24-4,34.87-29.67,33.79-42.32C419,287.13,400.4,255.18,400.4,255.18Z" class="cls-30"/><path data-cppathid="10092" transform="translate(-10.72)" d="M417.66,275.79c-6.4-13.3-27-31.73-27-31.73s-10.57-5.1-9.81,3.13c.39,4.12,14.72,26.39,19.41,37.56C407.1,279.79,416,277.29,417.66,275.79Z" class="cls-32"/><path data-cppathid="10093" transform="translate(-10.72)" d="M416.13,274.84s3.25-.06,2.85,1.33a10.47,10.47,0,0,0-.21,3.28l2.32,1.39-1.15,2-6.45.66s-6.78,2.6-9.11,6.37-3.81-.16-3.81-.16.58-2.23-.25-2.41-2.53-.83-2.37-1.93S403.3,276.7,416.13,274.84Z" class="cls-33"/><path data-cppathid="10094" transform="translate(-10.72)" d="M381.18,350.09c-.71,3.23-.14,6.1,1.28,6.42s3.15-2.05,3.86-5.28.15-6.1-1.27-6.41S381.9,346.86,381.18,350.09Z" class="cls-30"/><path data-cppathid="10095" transform="translate(-10.72)" d="M376.17,352.82c-.71,3.23-.14,6.1,1.28,6.41s3.15-2,3.87-5.27.14-6.1-1.28-6.41S376.89,349.59,376.17,352.82Z" class="cls-30"/><path data-cppathid="10096" transform="translate(-10.72)" d="M369.48,353.62c-.72,3.23.07,6.15,1.76,6.52s3.63-1.94,4.35-5.17-.08-6.15-1.76-6.52S370.19,350.39,369.48,353.62Z" class="cls-30"/><polygon data-cppathid="10097" points="302.26 333.19 259.88 342.95 288.01 350.7 325.88 339.58 302.26 333.19" class="cls-48"/><polygon data-cppathid="10098" points="328.97 340.83 349.06 346.19 340.81 348.73 330.35 345.85 311.3 352.16 302.11 349.14 328.97 340.83" class="cls-48"/><path data-cppathid="10099" transform="translate(-10.72)" d="M385.07,231.89s6.14,12.27,4.72,20.11c-1.48-4.8-8.69-14.39-16.34-7.11C381.62,235.54,385.07,231.89,385.07,231.89Z" class="cls-36"/><path data-cppathid="10100" transform="translate(-10.72)" d="M390,91.41c-5.69-1.72,7.52-14.9,11.13-6.54-3.12,2.56-5-3-.49-4.54,2.71-.92,7.65.91,8,3.77,4-2.76,9.31,4.16,4,4.61-5-9.65,19.75-3.1,9.65,1.44,5.88-8,18,5.6,7.3,7.39.64-6.84,13.54.25,9.83,7.7,2.29-.17,6.8,2,7.32,4.52.71,3.38-3.74,4.91-4.23,1.43,4.37,0,.74,4.94-1.58,5.76-4.09,1.44-10.4-1.14-11.46-5.39-3.46,6.63-18.39,6.53-18.2-2.58-5.52,3.88-17.34,3.2-15.91-5.92.72,4-8.17,3-9.88-.29-1.22-2.39.76-11.17,3.68-7.55-2.12,1.25-4.85-.26-3.7-2.76.92-2,4.95-1.68,6.14-1.93" class="cls-39"/><path data-cppathid="10101" transform="translate(-10.72)" d="M372.83,100c-2.52,4.28-10.31,1-11.87-2.23-2.31-4.81,4.36-10.62,8.94-7-4.72-1.31,5.06-6.53,6.37-2.09-8.5.48,9.93-13.83,9.9-3.86-.15,0-1.11.27-1.26.33-2.55-4,3.53-6.46,7.14-4.83,1,.43,5.76,5.25,6.07,6.26,2.21,7-11.22,15.28-15.54,7.17,3.4,3.54-3.89,6.76-7.19,4.79-1.65,1.68-4.87,4.26-6.51,1.58-.32,0,.16.41.59.34" class="cls-39"/><path data-cppathid="10102" transform="translate(-10.72)" d="M316.78,354.64l.34,0h0Z" class="cls-30"/><path data-cppathid="10103" transform="translate(-10.72)" d="M167.31,184.42s-6.89-10.22-10.62-3.36-3.34,45-6.25,50.06a141.31,141.31,0,0,1-20.36,27.51,9,9,0,0,0-3.88,3.12c-.36.56-.72,1.1-1.06,1.6a.71.71,0,0,1-.12.1l0,0c-2.11,3.16-3.61,5.16-3.61,5.16s-13.41,4.87-8.22,6.22a11.63,11.63,0,0,0,8.6-.76s-6.44,9.68-4.83,12.26,6.31-6,6.31-6-2.34,8.41-2,9.75,4.57-7.25,4.57-7.25.88,7.66,2.31,7.53,2.61-15.28,5-19.59c.47-.86,1.87-2.69,3.71-5.15a13.7,13.7,0,0,0,1.6-2.68c6.33-5.75,15-14,20.1-20.46C167.41,231.26,167.31,184.42,167.31,184.42Z" class="cls-30"/><path data-cppathid="10104" transform="translate(-10.72)" d="M162.46,176.42c4.16,2.57,5.68,6,6.14,11.34s-3.13,41.38-4.26,46.3S139.23,269.7,137,271.11c-9.68,3.7-15.86-6.18-15.86-6.18s23.3-31.37,27.85-34.56c1.55-2.78,2.19-45.19,5.94-50.19S162.46,176.42,162.46,176.42Z" class="cls-49"/><path data-cppathid="10105" transform="translate(-10.72)" d="M261.15,409.08c-.18,7.46-40.58,12.54-90.23,11.34s-89.75-8.23-89.56-15.7,40.57-12.53,90.22-11.33S261.33,401.62,261.15,409.08Z" class="cls-31"/><path data-cppathid="10106" transform="translate(-10.72)" d="M145.91,273.3s-.47,5.29-.63,8c-3.27,51.67,9.79,107.87,9.79,107.87s-11.72,7.67-13.81,11.6,27.51-1.3,27.51-1.3-4.24-71.87-1.86-87.75,7.93,83.43,11.76,89.5,25.85,6.56,25.85,6.56-8.18-9.81-11.05-14.86-4.47-71-4-108.56c0-1,.06-3,.06-3Z" class="cls-50"/><path data-cppathid="10107" transform="translate(-10.72)" d="M173.36,168.34s-22.72,48.32-28.09,102c-.33,3.28-.76,9.91-.76,9.91L188.8,286s0-2.69.06-4c.89-36.85.58-78.72.58-78.72s-2-43.89-6.1-42S173.36,168.34,173.36,168.34Z" class="cls-51"/><polygon data-cppathid="10108" points="173.62 161.53 174.19 166.11 165.47 172.57 162.48 165.56 173.62 161.53" class="cls-37"/><polygon data-cppathid="10109" points="161.01 183.08 159.13 205.18 152.95 219.93 149.68 209.52 159.15 182.26 161.01 183.08" class="cls-52"/><path data-cppathid="10110" transform="translate(-10.72)" d="M164.32,214.53s-13.69,94.12-11.64,103.75c0,0-17-3.6-17.91-4.54s16-106.39,24.07-118C161.78,206.71,164.32,214.53,164.32,214.53Z" class="cls-49"/><path data-cppathid="10111" transform="translate(-10.72)" d="M163.86,214.52s-14,68.1-8,105.21c0,0,32.07,4,53.46-3,0,0-16.34-59.95-16.63-76.38s-6.48-71.91-8.7-64.55C181,185.61,163.86,214.52,163.86,214.52Z" class="cls-49"/><path data-cppathid="10112" transform="translate(-10.72)" d="M175.17,166s-16.11,27.08-11.37,49c0,0-7.21-15.56-2.79-27.15,0,0-2.62-2-4.95-1.24s14.81-23.72,18-23.51S175.17,166,175.17,166Z" class="cls-53"/><path data-cppathid="10113" transform="translate(-10.72)" d="M177.54,172.84l-5.73,10.33s-1.17.13-1.61-.55-.5-.44-.5-.44.82-10.69,2.68-11.49C172.38,170.69,174.77,173,177.54,172.84Z" class="cls-52"/><path data-cppathid="10114" transform="translate(-10.72)" d="M160.66,149.28s0-.09-.92-2.38L155,135s18.7,7.9,22.95-6.85c-9.5-2-27.79-4.71-27.86-5.07-2.84-16.37-4.75-49.15,2.7-62.51,17.45-31.29,69.86-58.41,84-23S233.74,96,221.53,117.37s-35.08,49.09-45.18,50.11C167.42,168.37,160.66,149.28,160.66,149.28Z" class="cls-30"/><path data-cppathid="10115" transform="translate(-10.72)" d="M171.12,65.19c-.09,3.69-1.92,6.63-4.08,6.57s-3.85-3.07-3.76-6.76,1.92-6.62,4.08-6.56S171.21,61.51,171.12,65.19Z" class="cls-12"/><path data-cppathid="10116" transform="translate(-10.72)" d="M171.48,66.17a2,2,0,1,1-1.92-2A2,2,0,0,1,171.48,66.17Z" class="cls-13"/><path data-cppathid="10117" transform="translate(-10.72)" d="M186.9,69.47c-.57,3.9-2.89,6.79-5.19,6.46s-3.69-3.76-3.13-7.67,2.9-6.79,5.18-6.46S187.46,65.57,186.9,69.47Z" class="cls-14"/><path data-cppathid="10118" transform="translate(-10.72)" d="M186.61,70.59a2.55,2.55,0,1,1-2.16-2.89A2.54,2.54,0,0,1,186.61,70.59Z" class="cls-13"/><path data-cppathid="10119" transform="translate(-10.72)" d="M239.74,42S230.59,60.18,229.62,68l-1,7.85s4.8-3,7.17-3.76l2.38-.73s-1.91,14.11-2.78,17.24a5.67,5.67,0,0,0,.79,5s11-18.68,11.33-34.41S239.74,42,239.74,42Z" class="cls-54"/><path data-cppathid="10120" transform="translate(-10.72)" d="M193.11,182.43s-11.29-6.4-11.58,1.82,18,44,17.61,50.08a148.9,148.9,0,0,1-6.27,35.46,9.4,9.4,0,0,0-2.19,4.76c-.08.7-.16,1.37-.24,2l-.07.16,0,0c-.51,4-1,6.55-1,6.55s-10.34,10.88-4.81,9.72a12.2,12.2,0,0,0,7.74-4.76s-1.52,12.14,1.2,13.82,3.11-8.65,3.11-8.65,1.74,9,2.67,10.13.9-9,.9-9,4.43,6.8,5.71,6-4.7-15.61-4.5-20.78c0-1,.49-3.41,1.06-6.59a13.21,13.21,0,0,0,.25-3.27c3.27-8.39,7.55-20.17,9.34-28.71C215.18,226.5,193.11,182.43,193.11,182.43Z" class="cls-30"/><path data-cppathid="10121" transform="translate(-10.72)" d="M182.36,218.83c0,.19-.25.31-.51.28h0c-.26,0-.45-.2-.43-.39l.82-7.05c0-.19.25-.31.51-.28h0c.26,0,.46.2.43.38Z" class="cls-55"/><polygon data-cppathid="10122" points="174.99 216.87 159.52 215.13 158.01 221.03 174.37 223.7 174.99 216.87" class="cls-53"/><path data-cppathid="10123" transform="translate(-10.72)" d="M180,232.06a1.1,1.1,0,0,1-1.3.81h0a1.09,1.09,0,0,1-1.07-1.09l2.35-20.14a1.1,1.1,0,0,1,1.3-.81h0a1.1,1.1,0,0,1,1.08,1.09Z" class="cls-56"/><path data-cppathid="10124" transform="translate(-10.72)" d="M181.91,216.69a3.33,3.33,0,0,1-2.69-.32l-.09.47a3.42,3.42,0,0,0,2.77.36Z" class="cls-55"/><path data-cppathid="10125" transform="translate(-10.72)" d="M184.78,177.17c5.13.47,8.15,2.94,11.11,7.8s16.47,40.44,17.71,45.61-6.91,45.35-8.34,47.71c-7.38,8-17.83,1.61-17.83,1.61s7.22-40.47,10-45.61c.17-3.34-19.14-43.59-18-50.06S184.78,177.17,184.78,177.17Z" class="cls-49"/><path data-cppathid="10126" transform="translate(-10.72)" d="M187,162.15l2.32,31.2-8.87-.9L163.85,215S182.54,178.12,187,162.15Z" class="cls-53"/><path data-cppathid="10127" transform="translate(-10.72)" d="M204.75,72.39c-2.6,8.54-7.76,13.29-15.35,14.13h0a27.89,27.89,0,0,1-8.54-.5c-4.68-.93-6.44-4.57-8.41-9.61-1.39-3.54-3-7.54-7.16-7.54a4.5,4.5,0,0,0-.63,0c-2.8.31-5.26,2.61-7.87,5-2.14,2-4.8,4.49-6.69,4.69a2,2,0,0,1-1.76-.7c-1-3.59,3-18.89,7.92-21.3a11.86,11.86,0,0,1,3.88-.94c14-1.54,43.84,6.56,46.37,7.78C206.51,63.46,204.85,72.08,204.75,72.39Z" class="cls-57"/><path data-cppathid="10128" transform="translate(-10.72)" d="M145.79,80c7,7.1,14.61-7.86,19.5-7.86s3.54,14.82,14.93,17.1c22.94,4.57,27.16-14.68,27.8-16.38s29.07,12.76,29.07,12.76-2,8.28,0,8.88,7.95-13,5.83-14.92S208,60.6,208,60.6c-2.89-1.59-42.4-12.14-53.18-6.9C147.63,57.22,143.12,77.28,145.79,80Zm10.47-23.34a11.86,11.86,0,0,1,3.88-.94c14-1.54,43.84,6.56,46.37,7.78,0,0-1.66,8.62-1.76,8.93-2.6,8.54-7.76,13.29-15.35,14.13h0a27.89,27.89,0,0,1-8.54-.5c-4.68-.93-6.44-4.57-8.41-9.61-1.39-3.54-3-7.54-7.16-7.54a4.5,4.5,0,0,0-.63,0c-2.8.31-5.26,2.61-7.87,5-2.14,2-4.8,4.49-6.69,4.69a2,2,0,0,1-1.76-.7C147.36,74.33,151.3,59,156.26,56.62Z" class="cls-58"/><path data-cppathid="10129" transform="translate(-10.72)" d="M174.94,448.34c.18,7.57-35.12,14.55-78.85,15.61s-79.33-4.2-79.51-11.77,35.12-14.55,78.85-15.61S174.75,440.78,174.94,448.34Z" class="cls-31"/><path data-cppathid="10130" transform="translate(-10.72)" d="M40.39,257.28s17.13-67.39,53.82-66.09S143.14,230.06,137,265c-1.63,9.36-3.13,23.22-4.45,38.51-3.61,41.88-18.36,41.73-18.36,41.73L54,342.89l3.76-40L56.3,292.25s-3.67-15.54-4.9-18.13,6.41,4.16,17.55,3.32c4.26-.33,20.09-7.05,14.75-10.25,0,0-9.06-.85-15.17-.85C53.85,266.34,40.39,257.28,40.39,257.28Z" class="cls-30"/><path data-cppathid="10131" transform="translate(-10.72)" d="M51.41,298.58c-2.43.35-4.25,1.64-4,2.9s2.32,2,4.76,1.62,4.25-1.65,4-2.89S53.85,298.23,51.41,298.58Z" class="cls-59"/><path data-cppathid="10132" transform="translate(-10.72)" d="M50.54,303s-4.09,4.9-8.11,2.06,6.64-3.87,6.64-3.87Z" class="cls-59"/><path data-cppathid="10133" transform="translate(-10.72)" d="M51.86,314.83c-1-1.47-2.5-2.19-3.31-1.59s-.64,2.25.38,3.72,2.5,2.18,3.31,1.59S52.88,316.3,51.86,314.83Z" class="cls-59"/><path data-cppathid="10134" transform="translate(-10.72)" d="M54.82,313.6c-.9-1.3-2.21-1.93-2.93-1.4s-.56,2,.34,3.29,2.21,1.92,2.92,1.41S55.72,314.9,54.82,313.6Z" class="cls-59"/><path data-cppathid="10135" transform="translate(-10.72)" d="M47.83,315.29c-.87-1-2.14-1.29-2.85-.59a2.4,2.4,0,0,0,.28,3.12c.87,1,2.14,1.3,2.85.59S48.69,316.31,47.83,315.29Z" class="cls-59"/><path data-cppathid="10136" transform="translate(-10.72)" d="M39.07,304s-.43-8.16-6.14-11.64-6.11-8.39-7.1-10.22-8.58,1.84-1,12.28.26,14,.26,14l-5.11,4.09s5.49,3.38,10,2.75,10.57,10.31,16.21,13.08,22-9,22-9.67-13-4.24-13-4.24Z" class="cls-30"/><path data-cppathid="10137" transform="translate(-10.72)" d="M40.44,302.65S36.16,316.16,31.89,317c6.84,7.69,14.53,15.73,14.53,15.73l8-11.8-2.91-10.6Z" class="cls-60"/><path data-cppathid="10138" transform="translate(-10.72)" d="M133,348.28l.35.12c-.08.15.21.27.34.12a7.67,7.67,0,0,1,4.26,3.05,13,13,0,0,1,1.25,4.22c.48,2.6.48,6,3.89,7.76,2.24,1.15,6.49,2.75,9.21,1.42,1.62-.79.09-4-1.38-3.17-.36.19,0,.57.34.6a.74.74,0,0,0,.21.16l.16.18a1.82,1.82,0,0,1,.39,1.05c-.11.81-1.34,1-2.28.9a14.55,14.55,0,0,1-4.49-1.07c-3.44-1.38-4.24-3.6-4.6-6.16-.29-2-.5-4.26-1.64-6.09a8.24,8.24,0,0,0-3.8-3.09c4.9.06,10.71,1.2,14.73-.93,2.16-1.15,2.84-3.18,1.33-4.79-1.69-1.79-4.95-2.47-7.94-1.89a17.46,17.46,0,0,0-6.55,2.68,10.28,10.28,0,0,0-2.45,2.2,5.33,5.33,0,0,0-.63,2c-.14,0-.29,0-.43,0C132.8,347.62,132.47,348.11,133,348.28Zm1.19-.73a4.68,4.68,0,0,1,.6-1.41,9.62,9.62,0,0,1,2.22-2.07,16.56,16.56,0,0,1,6.2-2.68c2.68-.51,5.94-.16,7.3,1.67,1.24,1.67.13,3.46-2.38,4.19C143.78,348.54,138.82,347.42,134.2,347.55Z" class="cls-61"/><path data-cppathid="10139" transform="translate(-10.72)" d="M90.78,142.17a17.27,17.27,0,1,0,18.36-16.11A17.27,17.27,0,0,0,90.78,142.17Z" class="cls-62"/><path data-cppathid="10140" transform="translate(-10.72)" d="M136.74,157.57c-3.44,7.64,2.63,17.82,13.57,22.75s22.59,2.72,26-4.93-2.63-17.83-13.57-22.75S140.18,149.92,136.74,157.57Z" class="cls-62"/><path data-cppathid="10141" transform="translate(-10.72)" d="M78.08,221.12c0,3,1.37,5.52,3.06,5.52s3.06-2.47,3.06-5.52-1.38-5.5-3.06-5.5S78.08,218.08,78.08,221.12Z" class="cls-63"/><path data-cppathid="10142" transform="translate(-10.72)" d="M65.12,218.61c0,2.51,1.13,4.53,2.52,4.53s2.52-2,2.52-4.53-1.13-4.53-2.52-4.53S65.12,216.11,65.12,218.61Z" class="cls-63"/><path data-cppathid="10143" transform="translate(-10.72)" d="M79,197.25s-6.11,1.94-10.39,1.94H64.29s19.57-11.66,27.52-11.66a75.22,75.22,0,0,1,11.62.65s26.3-24,36.08,15.55-.61,62.19,4.9,62.19S154.8,262,154.8,262s-5.5,16.86-14.07,16.86S112,257.5,112,230.93V204.37l-4.28,9.72S83.25,212.8,80.8,205,79,197.25,79,197.25Z" class="cls-63"/><path data-cppathid="10144" transform="translate(-10.72)" d="M82.05,218.54a1.53,1.53,0,1,0,1.53-1.63A1.57,1.57,0,0,0,82.05,218.54Z" class="cls-13"/><path data-cppathid="10145" transform="translate(-10.72)" d="M67.87,216.76a1.54,1.54,0,1,0,1.44-1.71A1.57,1.57,0,0,0,67.87,216.76Z" class="cls-13"/><path data-cppathid="10146" transform="translate(-10.72)" d="M45.32,352S49.69,378.68,70,381.5c13.23,1.83,39.11.32,42.67,4.57,5,5.94,22.44-24.58,22.44-24.58s-67.46-29.84-83.88-18.22" class="cls-64"/><path data-cppathid="10147" transform="translate(-10.72)" d="M56.46,373.69l4.43,69.75s-8.26,2.42-11.68,8.06c12.82,3.08,30.26-4.35,30.26-4.35s3.6-64.73,5.2-72.14S56.46,373.69,56.46,373.69Z" class="cls-64"/><path data-cppathid="10148" transform="translate(-10.72)" d="M91.5,371.67l2.86,76.11c-5.91,3.65-8,3.82-11,11.17,19,5.13,31.88-7.7,31.88-7.7s4-74.34,5-76.53-27.13-4.05-27.13-4.05" class="cls-64"/><path data-cppathid="10149" transform="translate(-10.72)" d="M135.93,290.11C55.84,305.74,56.52,289,56.52,289S42.29,340.8,45,352.77c17.1-2.39,91,10.6,91,10.6S137.41,302,135.93,290.11Z" class="cls-65"/><path data-cppathid="10150" transform="translate(-10.72)" d="M164.12,162.68s-19.35,72.17-19.35,72.85-13.54-51.64-67.69-43.44c0,0,30.15-45.91,32.24-56.17S171.06,144.9,164.12,162.68Z" class="cls-66"/><path data-cppathid="10151" transform="translate(-10.72)" d="M158.22,154s-15.9,43.61-16.93,48.48c0,0-2.56-3.08-4.1-3.34s17.18-46.42,17.18-46.42Z" class="cls-67"/><path data-cppathid="10152" transform="translate(-10.72)" d="M137.44,148.57l-13.59,40.79a51.45,51.45,0,0,0-5.65-3.08c-1-.26,14.37-35.14,15.65-41S137.44,148.57,137.44,148.57Z" class="cls-67"/><path data-cppathid="10153" transform="translate(-10.72)" d="M118.46,145.24l-15.65,36.68a57.14,57.14,0,0,0-7.18-.26s18.73-31.81,19.5-38.22S118.46,145.24,118.46,145.24Z" class="cls-67"/><path data-cppathid="10154" transform="translate(-10.72)" d="M103.29,121.84a18.85,18.85,0,0,1,6.34,1.72,19.48,19.48,0,0,1,14.78-4.65,21.58,21.58,0,0,1,16.09,9.51,21.87,21.87,0,0,1,11.35-1.95c11.3,1,20.25,9.92,20.73,20.27.14,0,.29,0,.44,0,10.83,1,19.32,9.89,19,19.92s-9.44,17.38-20.28,16.41c-9.68-.87-17.47-8.09-18.76-16.77a24,24,0,0,1-2.53-.08A23.3,23.3,0,0,1,132,154.38a20.38,20.38,0,0,1-9,1.17,21.73,21.73,0,0,1-11-4.13,17.25,17.25,0,0,1-10,2.05c-9.43-.84-16.82-8.61-16.5-17.35S93.86,121,103.29,121.84Z" class="cls-66"/><path data-cppathid="10155" transform="translate(-10.72)" d="M138.64,288.55a15.55,15.55,0,0,0,.34,2.73c.35,1.71-36.78-5.46-38.3,35.23-1.37,36.59,32.83,19.15,37.28,20.18l-.35,3.07-20.17,7.53.34,56.09s-54.73,6.84-74.22-7.87c-3.42-10.94-1.37-57.12-1.37-57.12s10.26-59.5,11.29-60.53,3.76-.34,3.76-.34-3.76,12.65-3.76,14.7,33.86,7.53,40.35,6.85C93.83,309.07,106.49,285.12,138.64,288.55Z" class="cls-66"/><path data-cppathid="10156" transform="translate(-10.72)" d="M24.47,336.54c.5-.63.77-1,17.54.83,19,2.07,48.08,5.82,48.37,5.86l1.22.15-.35,1.19c-.09.34-10.08,33.15-37.17,30.21-11.39-1.23-25.78-8.49-29.61-36.09-.07-.49-.14-1-.17-1.09l-.19-.59Z" class="cls-68"/><path data-cppathid="10157" transform="translate(-10.72)" d="M87.31,353.73c-5.88,2.58-18.64,2.85-31.11,1.5s-24.9-4.36-30.09-8.14a74.51,74.51,0,0,1-1.64-8.4c0-.12,0-.24,0-.34l66.51,7.2A58.64,58.64,0,0,1,87.31,353.73Z" class="cls-69"/><path data-cppathid="10158" transform="translate(-10.72)" d="M24.41,340.6c-.45,4.2,13.94,9.2,32.15,11.17s33.35.17,33.81-4c.17-1.56.4-3.77.4-3.77l-65.95-7.15Z" class="cls-70"/><path data-cppathid="10159" transform="translate(-10.72)" d="M24.89,336.29c-.46,4.2,13.93,9.19,32.15,11.17s33.34.17,33.79-4-13.94-9.19-32.15-11.16S25.34,332.09,24.89,336.29Z" class="cls-71"/><g class="cls-72"><path data-cppathid="10160" transform="translate(-10.72)" d="M27.66,339.43c5.65-2,12.07-.72,17.82.24,9.13,1.52,18.15,4,27.45,4.05,4.45,0,8.76-1.27,13.19-1.49,2.54-.13,4.7.44,5.29,3.14,0,.06,0,.08,0,.13l.79-.43c.83-.45,1.57.8.74,1.26a71.46,71.46,0,0,1-35.45,9.1,148.29,148.29,0,0,1-21.38-1.13c-4.25-.6-14.28-1.83-14.76-7.67C21,342.82,24.5,340.54,27.66,339.43Z" class="cls-73"/><path data-cppathid="10161" transform="translate(-10.72)" d="M27.78,337.37c.35,0,1.17.71,1.54.64,5.27,2.77,10.74,2.13,16.6,1.75,5.1-.33,28.68-3.68,38.52,2.14a5.48,5.48,0,0,0,1.89.48l2.6.65a.37.37,0,0,1-.2.72l-2.87-.59c-1.65,2.9-5.07,3.26-8.19,3.43-5.74.32-11.61-.5-17.33-1-5.5-.5-11-1.05-16.45-1.9a47.48,47.48,0,0,1-7.63-1.78c-1.38-.45-3.68-1.1-4.64-2.34-1.34-.3-2.7-.49-4-.92A.64.64,0,0,1,27.78,337.37Z" class="cls-73"/><path data-cppathid="10162" transform="translate(-10.72)" d="M68.83,348.78c-5.26-.26-3.85-.39-17.06-3.08-3.52-.72-6.86-2.19-10.39-2.82A30.34,30.34,0,0,1,35.22,341c-1.36-.58-3.43-.57-2.56-2.57.33-.29-3.82-.92-4.37-1-3.43-.68-6.43-.69-6.21,3.79s4.85,8.38,8.49,10.4c10.19,5.65,23.33,4.12,34.55,4.64,2.28.12,7.85.35,8.56-2.8S71.33,348.9,68.83,348.78Z" class="cls-74"/></g><path data-cppathid="10163" transform="translate(-10.72)" d="M71.13,349.33a131.51,131.51,0,0,1-14.21-.81,110.68,110.68,0,0,1-23.31-4.8c-6.78-2.36-10.08-4.89-9.79-7.54.56-5.22,14.71-5.79,20.76-5.79a131.55,131.55,0,0,1,14.22.81A110.27,110.27,0,0,1,82.11,336c6.78,2.35,10.07,4.89,9.79,7.54-.57,5.22-14.71,5.78-20.77,5.78ZM44.58,332.54c-13.27,0-18.47,2.37-18.63,3.86-.09.86,1.57,2.94,8.36,5.3a108.43,108.43,0,0,0,22.84,4.69,130,130,0,0,0,14,.8c13.27,0,18.48-2.37,18.64-3.87.09-.85-1.57-2.93-8.36-5.29a108.38,108.38,0,0,0-22.84-4.7,129.92,129.92,0,0,0-14-.79Z" class="cls-68"/><path data-cppathid="10164" transform="translate(-10.72)" d="M56.45,348.05c16.92,1.84,34.36.71,35-5l-.29-1.61-.64-.13-.77,1.82c-.3,2.72-12.37,6.17-32.13,3.94-13.52-1.53-3.91.79-1.15.95Z" class="cls-75"/><path data-cppathid="10165" transform="translate(-10.72)" d="M74.85,377a21.67,21.67,0,0,1-4.27-5.3c-1.54-2.91,9.06-9.23,9.06-4.1S74.85,377,74.85,377Z" class="cls-76"/><path data-cppathid="10166" transform="translate(-10.72)" d="M115.21,308.72c-.92,2.89-8.89,28.22-9.23,34.37s-22.57,12.32-32.32,19.67c0,0-8.55-3.93-12.14-2.74s-3.94-1.53-6-1.53-4.1,5,1.71,6a18.09,18.09,0,0,1-9.92,3.08c-6.16.17-2.9,3.59-.68,3.77,0,0-1,2.38,3.42,2.73a8.49,8.49,0,0,0,6.84,1s11.46,1,17.61-1.38c3-1.18,41.56-7.86,44.29-13.16S132,321,130.43,315.22,118.29,299.15,115.21,308.72Z" class="cls-30"/><path data-cppathid="10167" transform="translate(-10.72)" d="M121.54,302.22S133,305,131.29,316.59s-8.55,44.29-11.8,46.86-45.32,13.68-45.32,13.68,6-12-1-16.25c7.86-6,26.67-14.36,29.07-15.73S109.91,298.64,121.54,302.22Z" class="cls-60"/><path data-cppathid="10168" transform="translate(-10.72)" d="M83.19,344.8c.59-.08,3.33-.51,3.1-1.4a.6.6,0,0,1,0-.23.2.2,0,0,1,.07-.35,1.61,1.61,0,0,1,1.76.7,1.12,1.12,0,0,1-.53,1.46c-1.18.85-3,.68-4.39.85C82.53,345.92,82.54,344.89,83.19,344.8Z" class="cls-77"/><path data-cppathid="10169" transform="translate(-10.72)" d="M35.92,319c-1.89-4.13-6-40-18.27-41.19s-4.65,13.1-4.14,13.78,16.38,26.9,16.55,27.93C33.17,321.71,35.92,319,35.92,319Z" class="cls-78"/><path data-cppathid="10170" transform="translate(-10.72)" d="M26.11,296.84c.87,2.44-1.87,4.12-1.28,4,2.57-.64,5.91,1.39,1.61,5.12,7.24-.5,1.16,4.69,1.16,4.69s-5.31,1.39-6.1,1.72c-2.21.94-4.72-2.72-3.27-3.76,0,0-2.61-2.36-1.39-5.13,0,0-2-1.12-1.21-4.1C16.1,297.55,25.37,294.73,26.11,296.84Z" class="cls-30"/><path data-cppathid="10171" transform="translate(-10.72)" d="M35.72,319.16,35,315.44s-4.95-1.24-6.37,2.12l2.48,3.36S34.84,322.52,35.72,319.16Z" class="cls-58"/><g class="cls-79"><path data-cppathid="10172" transform="translate(-10.72)" d="M33.91,318.78a17.62,17.62,0,0,0,4.06,6c2,2.08,4.46,4.85,5.19,7.95.86,3.7-2.49,6.13-5.44,4.52-3.46-1.88-2.89-7.2-3.26-10.81s-.33-5.19-2-8.29" class="cls-80"/><path data-cppathid="10173" transform="translate(-10.72)" d="M33.41,318.47c2.55,2.76,4.21,5.11,7.51,7,3,1.68,6.65,4,8.37,7.15,2,3.76-1.29,7.34-5.25,6.43-4.66-1.07-5.43-7-6.85-10.78s-3-7.57-5.88-10.44" class="cls-81"/><path data-cppathid="10174" transform="translate(-10.72)" d="M31.37,318.31c.22,3.75.76,6.57-.19,10.24-.87,3.31-1.75,7.56-.67,11,1.28,4.08,6.17,4.16,8.27.68,2.47-4.08-1.25-8.75-3-12.41s-3.36-7.42-3.43-11.48" class="cls-82"/><path data-cppathid="10175" transform="translate(-10.72)" d="M33.36,317.33c2,3.66,3.2,6.63,6.27,9.51,2.77,2.6,6.13,6.07,7.15,9.93,1.21,4.6-3.33,7.58-7.37,5.55-4.74-2.37-4-9-4.55-13.45s-1.24-9-3.6-12.82" class="cls-83"/></g><path data-cppathid="10176" transform="translate(-10.72)" d="M37.27,339.52l0-.06c.29-.59,1.08-.26,1.23.23a1.63,1.63,0,0,1,.23.11v0a.68.68,0,0,1,.67-.87,1.9,1.9,0,0,1,.25,0h.09a1.85,1.85,0,0,1,0-.23.7.7,0,0,1,.77-.56,1.41,1.41,0,0,1,.77.24.59.59,0,0,1,.63-.27l.34.06a.71.71,0,0,1,.31.16,1.09,1.09,0,0,1,0-.17,1.16,1.16,0,0,1,2-.47.52.52,0,0,1,.22-.07,1.43,1.43,0,0,1,1.28.45c.49-1,2.17-1,2.43.09h.08l.06-.07a.65.65,0,0,1,.15-.86A1.36,1.36,0,0,1,50,337a2.59,2.59,0,0,1,.11-.37,1.36,1.36,0,0,1,1.86-.54,1.83,1.83,0,0,1,1,.39,1.2,1.2,0,0,1,.44-.2,1.17,1.17,0,0,1,.3-.05,2.77,2.77,0,0,1,2.88.45,3.15,3.15,0,0,1,.42-.09l0,0v0h0s0-.05,0-.07l.11.07a1.9,1.9,0,0,1,.9-.31,1.25,1.25,0,0,1,.82.21,3.73,3.73,0,0,1,.46-.09,1.58,1.58,0,0,1,1.63,1.06,1.47,1.47,0,0,1,1.39,1.06.9.9,0,0,1,0,.16c1.35-.21,3.14.61,3.1,1.92-.06,1.78-2,2.17-3.24,1.47a1.26,1.26,0,0,1-.31.38,2,2,0,0,1-2.77-.31,2.6,2.6,0,0,1-2.62.38.48.48,0,0,1-.3-.29,1.92,1.92,0,0,1-2.36,0c-.14,0-.27-.06-.41-.09a4.07,4.07,0,0,1-1.81-.2h0a4.18,4.18,0,0,1-1.67.08,6.58,6.58,0,0,1-2.5.14,3.53,3.53,0,0,1-.86.37,3.07,3.07,0,0,1-1.88-.2,6.24,6.24,0,0,1-1.84,0,1.9,1.9,0,0,1-1.14-.66,3.84,3.84,0,0,1-1.85-.06,1.24,1.24,0,0,1-1.51-.05l-.11-.06a.72.72,0,0,1-1.06-.27l0-.14a.59.59,0,0,1-.22-.33,2.14,2.14,0,0,1-.08-.44A.67.67,0,0,1,37.27,339.52Z" class="cls-84"/><path data-cppathid="10177" transform="translate(-10.72)" d="M191.82,308s-.49-9.14-6.87-13-6.84-9.39-7.94-11.44-9.61,2.06-1.18,13.75.29,15.66.29,15.66l-5.72,4.58s6.14,3.77,11.16,3.07,11.82,11.54,18.13,14.64,24.68-10,24.61-10.82-14.55-4.74-14.55-4.74Z" class="cls-30"/><path data-cppathid="10178" transform="translate(-10.72)" d="M193.35,306.45s-4.79,15.12-9.57,16.08c7.65,8.61,16.26,17.61,16.26,17.61l9-13.21-3.26-11.86Z" class="cls-85"/><path data-cppathid="10179" transform="translate(-10.72)" d="M165.36,294.55c10.24,15.3,26.93,36.52,28.31,35.6s-11.83-24.48-22-39.79c-7.79-11.7-13.11-16.23-13.11-16.23l-3.14,2.1S157.54,282.88,165.36,294.55Z" class="cls-86"/><path data-cppathid="10180" transform="translate(-10.72)" d="M158.36,282.84a11.86,11.86,0,0,0,2.79-1.38,12.4,12.4,0,0,0,2.35-2,49.87,49.87,0,0,0-5-5.28l-3.14,2.1A48.67,48.67,0,0,0,158.36,282.84Z" class="cls-87"/><path data-cppathid="10181" transform="translate(-10.72)" d="M157.55,276.06c3.27-2.18,2.21-5.79-1.06-8.38-3-2.38-8.13-3.74-8.39-5.75C146,265.6,151.27,280.26,157.55,276.06Z" class="cls-88"/><path data-cppathid="10182" transform="translate(-10.72)" d="M156.28,267.53c-3-2.29-7.93-3.64-8.18-5.6-1,1.76-.3,6,1.38,9.56.47-.63.89-1.33,1.79-1.28a4.36,4.36,0,0,0,2.24,0A7.06,7.06,0,0,0,156.28,267.53Z" class="cls-89"/><path data-cppathid="10183" transform="translate(-10.72)" d="M177.32,300c1,2.73-2.1,4.61-1.43,4.45,2.87-.72,6.6,1.55,1.79,5.73,8.11-.57,1.3,5.25,1.3,5.25s-5.94,1.54-6.82,1.92c-2.48,1-5.29-3.05-3.66-4.21,0,0-2.93-2.65-1.56-5.74,0,0-2.24-1.26-1.36-4.59C166.11,300.75,176.49,297.6,177.32,300Z" class="cls-30"/><path data-cppathid="10184" transform="translate(-10.72)" d="M231.65,208.69s3.88,8.77-7.82,12c0,0,2.51,10.11-10.17,9.82,0,0,.17,11.3-10.86,8.45,0,0-4,10.57-16.25,2.65,0,0-11.58.27-16-8.09,0,0-13.24-6-16.11,1,0,0,1.61-13.47,5-15.47,0,0,9.82,8,11.62,12,0,0,14-3.78,16.56,6.33,0,0,8-6.17,13.08-1.87,0,0,2.45-10.33,10.31-8.05,0,0-.17-9.95,7.41-9.86,0,0-2.92-9.29,3.13-12.35C221.57,205.3,235.68,199.86,231.65,208.69Z" class="cls-90"/><path data-cppathid="10185" transform="translate(-10.72)" d="M354.57,468.18c.2,8.09-43.26,15.7-97.07,17S159.91,481,159.71,472.9s43.27-15.7,97.08-17S354.38,460.09,354.57,468.18Z" class="cls-31"/><path data-cppathid="10186" transform="translate(-10.72)" d="M189,411.58s22-8.45,38.18-8.44-6.46-54.46-6.46-54.46L199.3,348Z" class="cls-91"/><path data-cppathid="10187" transform="translate(-10.72)" d="M191.07,248.3s17.63-77.14,59.42-76.68,56.75,42.88,50.75,82.86c-1.6,10.69-2.92,26.51-4,43.94-3,47.75-19.75,48-19.75,48l-68.56-1.06,3.18-45.64-2-12s-7.19-26.15-8.65-29.06,7.09,6.74,22.71,4.32c8.41-1.31,11.5-12.75,11.5-12.75s-7,.12-13,.49A124.4,124.4,0,0,1,191.07,248.3Z" class="cls-30"/><path data-cppathid="10188" transform="translate(-10.72)" d="M239.62,212.28c.09,3.47,1.72,6.23,3.64,6.19s3.41-2.89,3.33-6.36-1.72-6.23-3.64-6.18S239.54,208.82,239.62,212.28Z" class="cls-63"/><path data-cppathid="10189" transform="translate(-10.72)" d="M224.81,209.78c.07,2.86,1.41,5.13,3,5.09s2.81-2.37,2.74-5.23-1.41-5.12-3-5.08S224.74,206.93,224.81,209.78Z" class="cls-63"/><path data-cppathid="10190" transform="translate(-10.72)" d="M244.08,209.23a1.74,1.74,0,1,0,3.48-.09,1.74,1.74,0,1,0-3.48.09Z" class="cls-13"/><path data-cppathid="10191" transform="translate(-10.72)" d="M227.89,207.59a1.74,1.74,0,1,0,1.59-2A1.79,1.79,0,0,0,227.89,207.59Z" class="cls-13"/><path data-cppathid="10192" transform="translate(-10.72)" d="M198,357.78s5.69,30.24,28.88,32.89c15.1,1.73,44.51-.71,48.68,4,5.85,6.62,24.86-28.6,24.86-28.6S222.87,334,204.51,347.7" class="cls-92"/><path data-cppathid="10193" transform="translate(-10.72)" d="M211.31,382.16l7,79.24s-9.33,3-13.07,9.5c14.68,3.15,34.31-5.79,34.31-5.79s2.32-73.75,3.93-82.24S211.31,382.16,211.31,382.16Z" class="cls-92"/><path data-cppathid="10194" transform="translate(-10.72)" d="M251.12,378.89l5.36,86.53c-6.63,4.31-9,4.56-12.26,13,21.74,5.32,36.06-9.64,36.06-9.64s2.48-84.7,3.63-87.22-31-3.86-31-3.86" class="cls-92"/><path data-cppathid="10195" transform="translate(-10.72)" d="M299.43,284.86c-90.7,20-90.39.91-90.39.91s-14.77,59.35-11.32,72.89c19.39-3.19,103.81,9.56,103.81,9.56S301.44,298.33,299.43,284.86Z" class="cls-93"/><path data-cppathid="10196" transform="translate(-10.72)" d="M243.74,178.61s12.49,30,50.72,50.06c0,0-7.27,6.25,1.9,14.22,0,0-6.61,8.05,5,13.24,0,0-5,10.13,6.18,12.29,0,0,.12,6.78,14.61,4.9,0,0,10.34,5.22,17.94-.43,0,0,14.55.25,14.12,7.85,0,0,4.33-12.85,2.08-16.13,0,0-12.3,3-15.64,5.84,0,0-11.06-9.45-17.67-1.39,0,0-5.63-4.52-12.09-2.84,2.57-12,2.53-10.33-5.85-11.7,0,0,4.43-8.91-2.47-12.08,0,0,6.65-7.14,2.49-12.5,7.66-2.59,7.8-13.61-1.06-30.94-13.65-26.68-38.17-29.73-42.17-28.72s-28.59-17.82-45.92,20.54C225.26,195.15,243.74,178.61,243.74,178.61Z" class="cls-90"/><path data-cppathid="10197" transform="translate(-10.72)" d="M284.15,161.21c-5.59-2.87-14.06-12.43-36.92-12.74-8.67-.11-20.45,1.37-27.58,6.77-7.76,5.87-10.74,18.11-1.54,24.16,17.16,11.28,41.16-.24,59.6,9.61,9.81,5.24,13.82,16.33,25.45,17.49,9.91,1,18.75-7.67,20-18,1.9-15.44-25.57-28-39-27.3" class="cls-63"/><polygon data-cppathid="10198" points="282.89 152.8 277.42 147.29 273.58 160.44 282.89 152.8" class="cls-63"/><path data-cppathid="10199" transform="translate(-10.72)" d="M300.63,266.81c3.3,1.55.16,6.72-.17,9.49s4.13,7,2.61,9.84-53.81,16.74-78.83,13-18.47-11-18.13-13-3.73-7-2.19-9.05,9.59,4.22,19.1,4.29C261,281.62,296.63,264.93,300.63,266.81Z" class="cls-94"/><path data-cppathid="10200" transform="translate(-10.72)" d="M243,289.57s-13.84,82.26-11.14,128.1c0,0,68.87,4.46,86-12.87,0,0-14.76-53.76-14.26-66s-.49-52.62-.49-52.62Z" class="cls-85"/><polygon data-cppathid="10201" points="294.41 273.03 298.8 290.73 241.41 307.16 232.28 289.57 294.41 273.03" class="cls-85"/><path data-cppathid="10202" transform="translate(-10.72)" d="M213.64,289.1s-15,98.9-11.55,127.71l-16.69-2.76s12.74-111.13,17.31-118.75S213.64,289.1,213.64,289.1Z" class="cls-85"/><polygon data-cppathid="10203" points="205.36 289.04 196.25 305.09 183.33 294.71 191.37 283.44 205.36 289.04" class="cls-85"/><path data-cppathid="10204" transform="translate(-10.72)" d="M232.32,385.36a24.8,24.8,0,0,1-5-5.91c-1.84-3.27,10.05-10.76,10.19-4.92S232.32,385.36,232.32,385.36Z" class="cls-93"/><path data-cppathid="10205" transform="translate(-10.72)" d="M276.37,306.61c-1,3.31-9.34,32.36-9.56,39.36s-25.35,14.64-36.24,23.28c0,0-9.83-4.24-13.89-2.78s-4.52-1.64-6.85-1.59-4.54,5.76,2.11,6.77a20.6,20.6,0,0,1-11.2,3.77c-7,.37-3.21,4.17-.68,4.3,0,0-1.1,2.75,4,3,0,0,3.76,2.44,7.81,1,0,0,13.07.85,20-2,3.43-1.44,47.06-10.1,50-16.21s13.9-45.31,12-51.88S279.61,295.63,276.37,306.61Z" class="cls-30"/><path data-cppathid="10206" transform="translate(-10.72)" d="M284.7,299s13.43,2.82,11.76,16.22-8.73,51.12-12.44,54.15-52.42,17-52.42,17,6.64-13.9-1.65-18.61c9-7.1,30.68-17.26,33.43-18.9S271.05,295.21,284.7,299Z" class="cls-85"/><path data-cppathid="10207" transform="translate(-10.72)" d="M206.16,371.65c-1.42-.94-.71-2.36,1.58-3.17s5.3-.71,6.72.24.71,2.36-1.59,3.18-5.29.7-6.71-.25m35.29-4.72c-2.37-1.58-7.17-2.31-11.74-.89-5,1.55-10.57,1.81-12.53.51-1.12-.74-1.05-2,1-3.82a1,1,0,0,0,.42-.85c0-.21,0-1.64,0-1.64A62.36,62.36,0,0,0,199,363.06c-9.18,3.1-30.6,9.32-34.64,16.64-.56,1-.09,2.07.08,3.14.25,1.5,1.28,3,3.31,4.55.2.16.41.3.62.44,14.55,9.68,58.45-4.05,73.39-16.59a2.64,2.64,0,0,0,1.19-2.32c-.1-.74,0-.57-.1-1.71" class="cls-86"/><g class="cls-2"><g class="cls-95"><path data-cppathid="10208" transform="translate(-10.72)" d="M233.9,383.07a2.38,2.38,0,0,1-.6.3c-.91.35-2,.64-3.06.93a6.19,6.19,0,0,1-3.06.21c-2.52-.65-1.44-2.4-.65-3.29,0,0,0-.07.08-.11l.07-.05a4.52,4.52,0,0,1,4.86-.36c1.59.7,3.48,1.59,2.36,2.37M211,383c-.41-.42-.59-.81-.14-1.13a1.57,1.57,0,0,1,.43-.21.18.18,0,0,1,.07-.05,2.48,2.48,0,0,1,2.13-.36,6.58,6.58,0,0,1,2.48,1.42c1.2.83,3.55.51,4.68,1.3.79.55,1.22,1.22.49,1.73a1.85,1.85,0,0,1-.29.17,10.65,10.65,0,0,1-4.4.64,9,9,0,0,1-2-.35c-1.09-.27-2.2-.34-3.35-.52-1.4-.22-2.31-.83-2.32-1.46a.73.73,0,0,1,.38-.59A4.39,4.39,0,0,1,211,383m6.93-11c-.05,0,0-.07.08-.15l.26-.15c.7-.36,3-1.48,4.08-.57a2.5,2.5,0,0,0,2.48.95,2.33,2.33,0,0,1,2.47,1.27c.16,0,.24.09.21.17l-.14.21-.13.1a2.27,2.27,0,0,1-.68.32.84.84,0,0,1-.41.54,5.36,5.36,0,0,1-4.18.53c-.83-.3-1.08-1.6-2.25-1.34a4.64,4.64,0,0,1-2.66,0c-1-.33-.4-1,.32-1.48l.55-.36M204,382.61a2.51,2.51,0,0,1-.49.27,8.23,8.23,0,0,1-5-.16c-1.47-.44-2.6-.13-3.94-.16a5.43,5.43,0,0,1-2.32-.71c-1.77-.9-2.74-2.24-1.68-3a4.7,4.7,0,0,1,2.57-.54h0l0,0a4.68,4.68,0,0,1,3.57-.35c2,.63.79,2.31,3.47,2.29,1.15,0,2.92-.06,3.68.61s.8,1.29.11,1.77m-16.64-4.38h0a2.42,2.42,0,0,1-1.39.3,2.69,2.69,0,0,1-1.46-.47,1.84,1.84,0,0,0-.34,0c-.34.06-.75,0-.85-.2a.51.51,0,0,1,.11-.75,2.3,2.3,0,0,1,1.21-.25,5,5,0,0,1,.79.09,1.28,1.28,0,0,1,.34,0c1.28.15,2.39.71,1.62,1.26m25.72-8.31a2.88,2.88,0,0,1-1.94.53A2.94,2.94,0,0,1,210,370c-1.63-.84-3.11-.16-4.72.07s-3.45-.32-4-1.08.73-1.24-1.13-2a2.21,2.21,0,0,1-1.43-1.18c-.13-.29,0-.55.31-.76a7.69,7.69,0,0,1,3.32-.81.87.87,0,0,1,.66.18c3.93-1.62,6.18.9,9.86,1.83,2,.5,1.82,1.64,1.36,2.4a4.15,4.15,0,0,1-1.14,1.25m-19.82,3.63c-1.36,1-4.29,1.16-6.61.44s-3.15-2.14-1.82-3.13l.06,0c1.36-1,4.3-1.16,6.6-.44s3.17,2.14,1.83,3.13l-.06,0m-20.9-14.33c-2.38,1.67-2.23,4.18,2.13,5.74,4.74,1.71,7.13,4.16,5.18,5.52-1.08.76-3.52,1.18-7.66.95a4.32,4.32,0,0,0-2.68.51c-1.91,1.34.41,4.94,9.82,8,12.17,4,42,15.22,57.58,5a4,4,0,0,0,.34-.23c14.6-10.22-27.15-25.11-56.64-27.18-3.54-.25-6.42.51-8.07,1.66" class="cls-96"/><path data-cppathid="10209" transform="translate(-10.72)" d="M199.05,365.07c-.31.21-.44.47-.31.76a2.21,2.21,0,0,0,1.43,1.18c1.86.77.6,1.27,1.13,2s2.31,1.33,4,1.08,3.09-.91,4.72-.07a2.94,2.94,0,0,0,1.17.42,2.88,2.88,0,0,0,1.94-.53,4.15,4.15,0,0,0,1.14-1.25c.46-.76.63-1.9-1.36-2.4-3.68-.93-5.93-3.45-9.86-1.83a.87.87,0,0,0-.66-.18,7.69,7.69,0,0,0-3.32.81" class="cls-89"/><path data-cppathid="10210" transform="translate(-10.72)" d="M190.57,378.88c-1.06.73-.09,2.07,1.68,3a5.43,5.43,0,0,0,2.32.71c1.34,0,2.47-.28,3.94.16a8.23,8.23,0,0,0,5,.16,2.51,2.51,0,0,0,.49-.27c.69-.48.65-1.1-.11-1.77s-2.53-.61-3.68-.61c-2.68,0-1.44-1.66-3.47-2.29a4.68,4.68,0,0,0-3.57.35l0,0h0a4.7,4.7,0,0,0-2.57.54" class="cls-97"/><path data-cppathid="10211" transform="translate(-10.72)" d="M183.43,377.13a.51.51,0,0,0-.11.75c.1.17.51.26.85.2a1.84,1.84,0,0,1,.34,0,2.69,2.69,0,0,0,1.46.47,2.42,2.42,0,0,0,1.39-.3h0c.77-.55-.34-1.11-1.62-1.26a1.28,1.28,0,0,0-.34,0,5,5,0,0,0-.79-.09,2.3,2.3,0,0,0-1.21.25" class="cls-97"/><path data-cppathid="10212" transform="translate(-10.72)" d="M210.83,381.83c-.45.32-.27.71.14,1.13a4.39,4.39,0,0,0-1.88.59.73.73,0,0,0-.38.59c0,.63.92,1.24,2.32,1.46,1.15.18,2.26.25,3.35.52a9,9,0,0,0,2,.35,10.65,10.65,0,0,0,4.4-.64,1.85,1.85,0,0,0,.29-.17c.73-.51.3-1.18-.49-1.73-1.13-.79-3.48-.47-4.68-1.3a6.58,6.58,0,0,0-2.48-1.42,2.48,2.48,0,0,0-2.13.36.18.18,0,0,0-.07.05,1.57,1.57,0,0,0-.43.21" class="cls-98"/><path data-cppathid="10213" transform="translate(-10.72)" d="M226.68,381.06l-.07.05c-.05,0-.08.08-.08.11-.79.89-1.87,2.64.65,3.29a6.19,6.19,0,0,0,3.06-.21c1-.29,2.15-.58,3.06-.93a2.38,2.38,0,0,0,.6-.3c1.12-.78-.77-1.67-2.36-2.37a4.52,4.52,0,0,0-4.86.36" class="cls-99"/><path data-cppathid="10214" transform="translate(-10.72)" d="M218,371.79c-.12.08-.13.13-.08.15l-.55.36c-.72.5-1.34,1.15-.32,1.48a4.64,4.64,0,0,0,2.66,0c1.17-.26,1.42,1,2.25,1.34a5.36,5.36,0,0,0,4.18-.53.84.84,0,0,0,.41-.54,2.27,2.27,0,0,0,.68-.32l.13-.1.14-.21c0-.08,0-.15-.21-.17A2.33,2.33,0,0,0,224.8,372a2.5,2.5,0,0,1-2.48-.95c-1.06-.91-3.38.21-4.08.57l-.26.15" class="cls-68"/></g></g><path data-cppathid="10215" transform="translate(-10.72)" d="M211.77,367.45c-.91-1.31-2.88-8.69-5.37-7.59s-4.24,8.86-.49,10.7,6.35-1.64,6.35-1.64Z" class="cls-30"/><path data-cppathid="10216" transform="translate(-10.72)" d="M235.57,340.69c.09.51.83.84,1.3.83,2.86,0,5.3-.86,7-3.28a3.37,3.37,0,0,0,.27-2.79c-.64-1.43,3.34-2.56,4.24-3s5.62-2.4,5-4.25c-.54-1.65-2.26-2.27-3.91-2.67,1.49-2,3.22-3.37,2.71-6.07a2.42,2.42,0,0,0-1-1.24c-1.64-.95-2.17-2.32-3.11-3.8-2.09-3.28-4.75-3.43-8-1.74-.57-.51-1.9-.64-2.05.07-1.14,5.16-1.07,10.36-1.86,15.54C235.55,332.53,234.77,336.42,235.57,340.69Z" class="cls-89"/><path data-cppathid="10217" transform="translate(-10.72)" d="M290.19,383.36c2.82,5.57,12.09.23,13.6,7,1.55,7,5.25,4.12,10.67,4.3.55,0,1.42-.16,1.27-.9-2.34-12.45-8.15-24-9.37-36.65a.67.67,0,0,0-.17-.38c.37-.76-1.09-1.54-1.86-1-3,2-5.81,2.92-7.19,6.45s2.84,5.79-.83,9.37C293.43,374.35,287.75,378.53,290.19,383.36Z" class="cls-89"/><path data-cppathid="10218" transform="translate(-10.72)" d="M278.54,391.14c.42,2.21,3.61,2.94,5.31,1.74a7.75,7.75,0,0,0,3.07-4.95c.17-2.62-3.18-2.47-4.88-1.88C280,386.64,278.12,388.87,278.54,391.14Z" class="cls-89"/><path data-cppathid="10219" transform="translate(-10.72)" d="M264.75,346c2.09.42,6.17,2,7-1.15s-.72-5.84,1.35-8.6a13,13,0,0,0,1.83-3.27c1.7-4.47,4.09-13.49-3.35-13.17-.57-.48-1.82-.59-2.05.12-2.66,8.17-3.9,16.7-5.72,25.07C263.66,345.49,264.32,345.88,264.75,346Z" class="cls-89"/><path data-cppathid="10220" transform="translate(-10.72)" d="M199.74,336.2c.36,0,.85-.37.75-.8a7.5,7.5,0,0,1,0-2.95,2.34,2.34,0,0,0,2.07-.85,5.09,5.09,0,0,0,.26-3.54,12.25,12.25,0,0,0,1.53-2.32c1.08-2.24.64-4.41-.2-6.65-.22-1.77-1.22-3.37-3.6-4.65a1.09,1.09,0,0,0-1.49.29c-.57,0-1.06.2-1,.78.41,2.23-1,9.61-1.79,15.56C195.85,334.16,197.15,336.44,199.74,336.2Zm.64-17.21a16.42,16.42,0,0,1-.21,2.78l-.15-.06c0-.52.1-1,.15-1.52S200.32,319.39,200.38,319Z" class="cls-89"/><path data-cppathid="10221" transform="translate(-10.72)" d="M216.89,157.3a17.64,17.64,0,0,1,2.55-2.33c7.37-5.6,18.9-6.68,25.12-6.83.92,0,1.81,0,2.68,0a64.47,64.47,0,0,1,16.89,2.31l-.38.38c.69-.16,2.28.44,1.92.9-1.34,1.7-2.54,3.2-4.58,4-3.2,1.29-6-1.3-9.53.55-.85.45-1.66.88-2.47,1.25-.08.11-.17.23-.25.36-2.08.91-4.26,2.05-6.42,2a17.85,17.85,0,0,1-2.73-.23c0,.21-.29.34-.87.24-3.47-.58-7.37-2.33-10.87-1.42a43.47,43.47,0,0,1-5.41,1.18c-1.41.18-5.25.12-4-2a6,6,0,0,1-.46-.4Z" class="cls-89"/><path data-cppathid="10222" transform="translate(-10.72)" d="M227.48,162.7c.43.07,1.13.56,1,1.09-.07.21-.16.42-.24.62.16.23.31.47.49.7a.68.68,0,0,1-.28,1.14c-1.38.45-2.56,1.63-3.85,2.32s-3.26,1.17-4.05-.39C218.66,164.51,224.8,162.24,227.48,162.7Z" class="cls-89"/></g></g></g></svg>