<?xml version="1.0" encoding="UTF-8"?>
<svg xmlns="http://www.w3.org/2000/svg" onmouseup="{ if(window.parent.document.onmouseup) window.parent.document.onmouseup(arguments[0]);}" viewBox="0 0 438.07 340.16" xmlns:xlink="http://www.w3.org/1999/xlink"><defs><style>.cls-1{fill:none;}.cls-2{isolation:isolate;}.cls-3{opacity:0.7;mix-blend-mode:lighten;}.cls-4{fill:url(#New_Gradient_Swatch_1);}.cls-5{fill:#929497;}.cls-21,.cls-6{fill:#fff;}.cls-7{fill:url(#New_Gradient_Swatch_2);}.cls-8{fill:url(#radial-gradient);}.cls-12,.cls-13,.cls-20,.cls-9{mix-blend-mode:screen;}.cls-9{fill:url(#radial-gradient-2);}.cls-10{fill:#6c5635;}.cls-11{fill:url(#Steel_Cylinder);}.cls-12{fill:url(#linear-gradient);}.cls-14{fill:url(#linear-gradient-2);}.cls-15{fill:url(#linear-gradient-3);}.cls-16{fill:url(#linear-gradient-4);}.cls-17{clip-path:url(#clip-path);}.cls-18{fill:#fff100;}.cls-19{fill:#603813;}.cls-20{fill:url(#radial-gradient-3);}.cls-21{mix-blend-mode:color-dodge;}</style><linearGradient gradientUnits="userSpaceOnUse" gradientTransform="translate(5631.54 -2394.61) rotate(180)" y2="-2419.87" x2="5515.61" y1="-2569.95" x1="5515.61" id="New_Gradient_Swatch_1"><stop stop-color="#fff" offset="0"/><stop stop-color="#f7f7f7" offset="0.02"/><stop stop-color="#bebebe" offset="0.13"/><stop stop-color="#8b8b8b" offset="0.25"/><stop stop-color="#606060" offset="0.37"/><stop stop-color="#3d3d3d" offset="0.49"/><stop stop-color="#222" offset="0.62"/><stop stop-color="#0f0f0f" offset="0.74"/><stop stop-color="#040404" offset="0.87"/><stop offset="1"/></linearGradient><linearGradient gradientUnits="userSpaceOnUse" y2="113.17" x2="207.88" y1="113.17" x1="26.48" id="New_Gradient_Swatch_2"><stop stop-color="#929497" offset="0"/><stop stop-color="#dbdcdd" offset="0.5"/><stop stop-color="#c5c7c8" offset="0.56"/><stop stop-color="#afb0b3" offset="0.65"/><stop stop-color="#9fa0a3" offset="0.75"/><stop stop-color="#95979a" offset="0.86"/><stop stop-color="#929497" offset="1"/></linearGradient><radialGradient gradientUnits="userSpaceOnUse" r="83.4" cy="112.22" cx="116.24" id="radial-gradient"><stop stop-color="#fff" offset="0"/><stop stop-color="#fcfcfd" offset="0.33"/><stop stop-color="#f4f4f4" offset="0.54"/><stop stop-color="#e5e6e7" offset="0.72"/><stop stop-color="#d0d2d3" offset="0.88"/><stop stop-color="#bbbdbf" offset="1"/></radialGradient><radialGradient gradientUnits="userSpaceOnUse" gradientTransform="translate(6045.79 -2485.08) rotate(180)" r="76.23" cy="-2584.62" cx="5930.45" id="radial-gradient-2"><stop stop-color="#fff" offset="0"/><stop stop-color="#e9e9e9" offset="0.07"/><stop stop-color="#878787" offset="0.42"/><stop stop-color="#3e3e3e" offset="0.7"/><stop stop-color="#111" offset="0.9"/><stop offset="1"/></radialGradient><linearGradient gradientUnits="userSpaceOnUse" y2="242.6" x2="269.31" y1="269.85" x1="242.06" id="Steel_Cylinder"><stop stop-color="#fff" offset="0"/><stop stop-color="#0b0b0b" offset="0.17"/><stop stop-color="#7f7f7f" offset="0.26"/><stop stop-color="#8e8e8e" offset="0.4"/><stop stop-color="#636363" offset="0.54"/><stop stop-color="#5f5f5f" offset="0.63"/><stop stop-color="#eaeaea" offset="0.72"/><stop stop-color="#fff" offset="0.79"/><stop offset="1"/></linearGradient><linearGradient gradientUnits="userSpaceOnUse" gradientTransform="matrix(-1.25, -1.09, 0.28, -0.32, 7121.73, 1568.11)" y2="-8173.61" x2="3699.18" y1="-8173.61" x1="3604.15" id="linear-gradient"><stop stop-color="#fff" offset="0"/><stop stop-color="#f6f6f6" offset="0.06"/><stop stop-color="#dfdfdf" offset="0.16"/><stop stop-color="#b8b8b8" offset="0.29"/><stop stop-color="#828282" offset="0.44"/><stop stop-color="#3f3f3f" offset="0.6"/><stop offset="0.74"/></linearGradient><linearGradient gradientUnits="userSpaceOnUse" gradientTransform="translate(-154.78 -11.81)" y2="255.96" x2="381.3" y1="208.89" x1="381.3" id="linear-gradient-2"><stop stop-color="#fff" offset="0"/><stop stop-color="#fafafa" offset="0.11"/><stop stop-color="#ececec" offset="0.23"/><stop stop-color="#d5d5d5" offset="0.36"/><stop stop-color="#b5b5b5" offset="0.5"/><stop stop-color="#8b8b8b" offset="0.64"/><stop stop-color="#585858" offset="0.79"/><stop stop-color="#1d1d1d" offset="0.93"/><stop offset="1"/></linearGradient><linearGradient gradientUnits="userSpaceOnUse" y2="196.08" x2="208.27" y1="196.08" x1="186.16" id="linear-gradient-3"><stop stop-color="#808184" offset="0"/><stop stop-color="#8a8b8d" offset="0.09"/><stop stop-color="#a4a5a7" offset="0.23"/><stop stop-color="#cecfd0" offset="0.41"/><stop stop-color="#dbdcdd" offset="0.47"/><stop stop-color="#626366" offset="1"/></linearGradient><linearGradient gradientUnits="userSpaceOnUse" gradientTransform="translate(1808.89 1821.08) rotate(-45)" y2="-2288.7" x2="20.16" y1="-2288.7" x1="-1.31" id="linear-gradient-4"><stop stop-color="#dddfe0" offset="0"/><stop stop-color="#fff" offset="0.5"/><stop stop-color="#f2f2f3" offset="0.63"/><stop stop-color="#d0d2d3" offset="0.87"/><stop stop-color="#bbbdbf" offset="1"/></linearGradient><clipPath transform="translate(115.52 15.29)" id="clip-path"><path data-cppathid="10000" d="M198,112.71A83.4,83.4,0,1,1,114.63,29.3,83.4,83.4,0,0,1,198,112.71Z" class="cls-1" id="SVGID"/></clipPath><radialGradient gradientUnits="userSpaceOnUse" gradientTransform="translate(6171.58 -2508.37) rotate(180)" r="75.48" cy="-2626.07" cx="6056.94" id="radial-gradient-3"><stop stop-color="#fff" offset="0"/><stop stop-color="#fbfbfb" offset="0.11"/><stop stop-color="#ededed" offset="0.24"/><stop stop-color="#d8d8d8" offset="0.37"/><stop stop-color="#b9b9b9" offset="0.5"/><stop stop-color="#929292" offset="0.64"/><stop stop-color="#616161" offset="0.77"/><stop stop-color="#292929" offset="0.91"/><stop offset="1"/></radialGradient></defs><g class="cls-2"><g data-name="Layer 2" id="Layer_2"><g id="backlog"><g data-name="2023 jp" id="_2023_jp"><g data-name="initial Product Backlog" id="initial_Product_Backlog"><g data-name="magnifying glass" id="magnifying_glass"><g class="cls-3"><path data-cppathid="10001" transform="translate(115.52 15.29)" d="M115.94,28.52c41.25,0,74.82,32,75.72,71.77,0-.54.05-1.09.05-1.63,0-40.52-34-73.4-75.77-73.4S40.16,58.14,40.16,98.66c0,.54,0,1.09,0,1.63C41.1,60.51,74.65,28.52,115.94,28.52Z" class="cls-4"/></g><path data-cppathid="10002" transform="translate(115.52 15.29)" d="M0,114.9A114.91,114.91,0,1,0,114.92,0,115,115,0,0,0,0,114.9Z" class="cls-5"/><path data-cppathid="10003" transform="translate(115.52 15.29)" d="M10.08,112.23A106.16,106.16,0,1,0,116.23,6.07,106.28,106.28,0,0,0,10.08,112.23Z" class="cls-6"/><path data-cppathid="10004" transform="translate(115.52 15.29)" d="M26.48,113.16a90.7,90.7,0,1,0,90.7-90.71A90.81,90.81,0,0,0,26.48,113.16Z" class="cls-7"/><path data-cppathid="10005" transform="translate(115.52 15.29)" d="M26.48,113.16a90.7,90.7,0,1,0,90.7-90.71A90.81,90.81,0,0,0,26.48,113.16Z" class="cls-7"/><path data-cppathid="10006" transform="translate(115.52 15.29)" d="M199.64,112.23a83.4,83.4,0,1,1-83.41-83.42A83.39,83.39,0,0,1,199.64,112.23Z" class="cls-8"/><path data-cppathid="10007" transform="translate(115.52 15.29)" d="M41.54,130.58a75.49,75.49,0,0,0,147.58,0c-19.06,12.7-47.47-11.91-76.18-11.91S60.64,143.28,41.54,130.58Z" class="cls-9"/><path data-cppathid="10008" transform="translate(115.52 15.29)" d="M214.28,187.57a13.74,13.74,0,0,0-9.8,4.08h0l-11.6,11.57a13.89,13.89,0,0,0,0,19.63l94.4,98a13.87,13.87,0,0,0,19.63,0l11.59-11.59a13.91,13.91,0,0,0,0-19.64l-94.39-97.92A13.81,13.81,0,0,0,214.28,187.57Z" class="cls-10"/><path data-cppathid="10009" transform="translate(115.52 15.29)" d="M315.64,292.46a9.87,9.87,0,0,1,0,13.89L304,317.93a9.84,9.84,0,0,1-13.9,0L195.75,220a9.84,9.84,0,0,1,0-13.9l11.6-11.58a9.8,9.8,0,0,1,13.88,0Z" class="cls-11"/><path data-cppathid="10010" transform="translate(115.52 15.29)" d="M306.4,310.78c2.12,1.42,0-2.74-1.2-4.12s-99.76-104-99.76-104l.81,1.6S304.33,309.38,306.4,310.78Z" class="cls-12"/><g class="cls-13"><path data-cppathid="10011" transform="translate(115.52 15.29)" d="M256.39,236.59l-37.22-37.22a7.8,7.8,0,0,0-11,0l-9.21,9.21a7.83,7.83,0,0,0,0,11l24.52,24.51H224A71.34,71.34,0,0,0,256.39,236.59Z" class="cls-14"/></g><path data-cppathid="10012" transform="translate(115.52 15.29)" d="M188.07,196a6.5,6.5,0,0,0,9.2,9.18l9.09-9.1a6.51,6.51,0,0,0-9.2-9.2Z" class="cls-15"/><path data-cppathid="10013" transform="translate(115.52 15.29)" d="M204.81,188.49a4.32,4.32,0,0,1,0,6.07l-9.11,9.1a4.28,4.28,0,0,1-6.08,0h0a4.27,4.27,0,0,1,0-6.06l9.11-9.11a4.32,4.32,0,0,1,6.08,0Z" class="cls-16"/><g class="cls-17"><rect data-cppathid="10014" rx="13.4" height="101.26" width="404.14" y="75.15" class="cls-18"/><path data-cppathid="10015" transform="translate(115.52 15.29)" d="M-68.83-15.29h6.63a18.25,18.25,0,0,1,5.16.6A6.09,6.09,0,0,1-53.71-12a8.7,8.7,0,0,1,1.36,4.93,8.94,8.94,0,0,1-1.1,4.55A6.46,6.46,0,0,1-56.4.19,14.59,14.59,0,0,1-62.1,1h-2.3V11.49h-4.43Zm4.43,3.43v9.34h2.2c2,0,3.32-.36,4.07-1.1A4.82,4.82,0,0,0-57-7.19a5.41,5.41,0,0,0-.75-3,3.13,3.13,0,0,0-1.63-1.41,10.68,10.68,0,0,0-2.82-.27Z" class="cls-6"/><path data-cppathid="10016" transform="translate(115.52 15.29)" d="M-49.13-8.32h3.59v4.43q1.65-4.84,5-4.85a5.35,5.35,0,0,1,.74.06v4.26a7.31,7.31,0,0,0-.82-.06q-4.4,0-4.39,5.89V11.49h-4.08Z" class="cls-6"/><path data-cppathid="10017" transform="translate(115.52 15.29)" d="M-23,1.39Q-23,12-30.81,12a6.89,6.89,0,0,1-5.68-2.56q-2.07-2.56-2.07-7.84,0-10.36,7.85-10.37A7,7,0,0,1-25-6.26Q-23-3.74-23,1.39Zm-4.36.2q0-4.17-.93-5.73A2.83,2.83,0,0,0-30.76-5.7q-3.45,0-3.45,7.29A14.09,14.09,0,0,0-33.4,7.1a2.71,2.71,0,0,0,2.64,1.78,2.72,2.72,0,0,0,2.63-1.81A14.09,14.09,0,0,0-27.32,1.59Z" class="cls-6"/><path data-cppathid="10018" transform="translate(115.52 15.29)" d="M-8.8-15.29h4.08V11.49H-8.49v-3a5,5,0,0,1-4.9,3.35,5.47,5.47,0,0,1-5-2.8,14.3,14.3,0,0,1-1.67-7.36c0-3.26.62-5.79,1.85-7.61a5.67,5.67,0,0,1,4.91-2.73A4.62,4.62,0,0,1-8.8-6Zm0,15.12c0-2-.38-3.46-1.15-4.28a3.3,3.3,0,0,0-2.38-1.23c-2.26,0-3.4,2.33-3.4,7q0,7.44,3.44,7.44A3.18,3.18,0,0,0-9.88,7.51Q-8.8,6.28-8.8,3.22Z" class="cls-6"/><path data-cppathid="10019" transform="translate(115.52 15.29)" d="M-.07-8.32H4V4.27a9.54,9.54,0,0,0,.43,3.52,1.9,1.9,0,0,0,1.91.89A2.58,2.58,0,0,0,8.91,7.1c.49-1.06.73-3,.73-5.89V-8.32h4.08V11.49H10v-3a5.27,5.27,0,0,1-5,3.47A5.17,5.17,0,0,1,2,11.24,4.13,4.13,0,0,1,.42,9.12,15.89,15.89,0,0,1-.07,4.35Z" class="cls-6"/><path data-cppathid="10020" transform="translate(115.52 15.29)" d="M32.3-1.65l-3.94.43a7.25,7.25,0,0,0-1-3.46,2.41,2.41,0,0,0-2-.88,2.76,2.76,0,0,0-2.65,1.68A14.66,14.66,0,0,0,21.88,2q0,6.6,3.48,6.6c1.77,0,2.77-1.44,3-4.3l3.94.35Q31.49,12,25.06,12a6.29,6.29,0,0,1-5.64-2.75,13.57,13.57,0,0,1-1.83-7.59q0-5.1,2-7.77a6.73,6.73,0,0,1,5.77-2.66Q31.43-8.79,32.3-1.65Z" class="cls-6"/><path data-cppathid="10021" transform="translate(115.52 15.29)" d="M35.71-13.48l3.69-.36v5.52h3.79V-5H39.4V3.71a24.26,24.26,0,0,0,.12,3.06A1.9,1.9,0,0,0,40.23,8a3.11,3.11,0,0,0,2,.48,11.7,11.7,0,0,0,1.65-.14v3.28a15.06,15.06,0,0,1-3.07.35,5.9,5.9,0,0,1-3.51-.89,4,4,0,0,1-1.55-2.42A24.13,24.13,0,0,1,35.38,4V-5H32.81V-8.32H35.5Z" class="cls-6"/><path data-cppathid="10022" transform="translate(115.52 15.29)" d="M53.59-15.29h8.1a17,17,0,0,1,4.65.49A5,5,0,0,1,69-12.61a7.46,7.46,0,0,1,1.09,4.13,5.63,5.63,0,0,1-4,5.86Q71-1.1,71,4.11a7.65,7.65,0,0,1-1.9,5.17q-1.89,2.21-7.24,2.21H53.59ZM57.92-4.18h2.81c2,0,3.27-.37,3.9-1.09a4.16,4.16,0,0,0,.94-2.82A3.5,3.5,0,0,0,64.49-11a5.26,5.26,0,0,0-3.33-.88H57.92Zm0,12.12h3.57q4.91,0,4.91-4.34a4.81,4.81,0,0,0-1-3c-.7-.89-2.11-1.33-4.24-1.33h-3.2Z" class="cls-6"/><path data-cppathid="10023" transform="translate(115.52 15.29)" d="M79-2.71,75.07-3.2a5.88,5.88,0,0,1,2.44-4.12,8.37,8.37,0,0,1,5-1.47,7.55,7.55,0,0,1,4.26,1.06,4.55,4.55,0,0,1,2,2.55,18,18,0,0,1,.41,4.45V6a26.28,26.28,0,0,0,.36,5.47H85.7a15.67,15.67,0,0,1-.25-3.3Q83.59,12,79.88,12a5.37,5.37,0,0,1-4-1.54,5.72,5.72,0,0,1-1.52-4.19,6.37,6.37,0,0,1,2.22-5.12c1.49-1.25,4-1.88,7.71-1.88.18,0,.47,0,.86,0v-.81a6.44,6.44,0,0,0-.63-3.19,2.43,2.43,0,0,0-2.28-1.08Q79.54-5.81,79-2.71Zm6.12,4.55c-.52-.05-.92-.08-1.19-.08q-5.32,0-5.32,4.18c0,2,.88,3,2.64,3A3.32,3.32,0,0,0,84,7.33,7.79,7.79,0,0,0,85.13,2.8Z" class="cls-6"/><path data-cppathid="10024" transform="translate(115.52 15.29)" d="M107.53-1.65l-3.94.43a7.13,7.13,0,0,0-1-3.46,2.41,2.41,0,0,0-2-.88,2.76,2.76,0,0,0-2.65,1.68Q97.12-2.2,97.12,2c0,4.4,1.15,6.6,3.47,6.6,1.78,0,2.78-1.44,3-4.3l3.94.35Q106.74,12,100.3,12a6.29,6.29,0,0,1-5.64-2.75,13.48,13.48,0,0,1-1.84-7.59q0-5.1,2-7.77a6.74,6.74,0,0,1,5.77-2.66Q106.68-8.79,107.53-1.65Z" class="cls-6"/><path data-cppathid="10025" transform="translate(115.52 15.29)" d="M110.58-15.29h4.08V.54l6.39-8.86h4L120-1.5l5.69,13h-4.41l-4-9.93-2.63,3.63v6.3h-4.08Z" class="cls-6"/><path data-cppathid="10026" transform="translate(115.52 15.29)" d="M127.7-15.29h4.08V11.49H127.7Z" class="cls-6"/><path data-cppathid="10027" transform="translate(115.52 15.29)" d="M151.21,1.39q0,10.59-7.85,10.59a6.89,6.89,0,0,1-5.68-2.56q-2.07-2.56-2.07-7.84,0-10.36,7.85-10.37a7,7,0,0,1,5.66,2.53Q151.2-3.74,151.21,1.39Zm-4.36.2q0-4.17-.93-5.73a2.83,2.83,0,0,0-2.51-1.56Q140-5.7,140,1.59a14.09,14.09,0,0,0,.81,5.51,2.83,2.83,0,0,0,5.27,0A14.09,14.09,0,0,0,146.85,1.59Z" class="cls-6"/><path data-cppathid="10028" transform="translate(115.52 15.29)" d="M170.47-11.48v3a4.71,4.71,0,0,0-.94-.12c-1.21,0-1.92.73-2.14,2.18a6.7,6.7,0,0,1,1.49,4.26A6.13,6.13,0,0,1,167,2.37a6.84,6.84,0,0,1-5,1.84,10,10,0,0,1-2.52-.35c-1,.38-1.49.95-1.49,1.73a1.24,1.24,0,0,0,.8,1.29,19.87,19.87,0,0,0,4.21.47,24.18,24.18,0,0,1,4.43.55,4.16,4.16,0,0,1,2.38,1.6,5.16,5.16,0,0,1,.9,3.17,5.16,5.16,0,0,1-2.34,4.58,11.93,11.93,0,0,1-6.65,1.56c-2.77,0-4.8-.46-6.07-1.37a4.2,4.2,0,0,1-1.91-3.61A3.76,3.76,0,0,1,156.62,10a3.62,3.62,0,0,1-2.16-3.24c0-1.72,1-3,2.92-4a5.68,5.68,0,0,1-2.55-5.08A6.09,6.09,0,0,1,156.78-7a7,7,0,0,1,5-1.79,8.32,8.32,0,0,1,3.75.86,4.83,4.83,0,0,1,1.18-2.86,3.65,3.65,0,0,1,2.54-.79A8.62,8.62,0,0,1,170.47-11.48ZM159.15,10.67a2.69,2.69,0,0,0-1.71,2.53,2.27,2.27,0,0,0,1.1,2.08,7.46,7.46,0,0,0,3.65.66q4.71,0,4.71-2.72a1.94,1.94,0,0,0-.89-1.84,9,9,0,0,0-3.52-.58C161,10.75,159.9,10.71,159.15,10.67Zm5.51-12.89q0-3.88-2.68-3.89-2.92,0-2.93,3.93t2.83,3.8Q164.65,1.62,164.66-2.22Z" class="cls-6"/><path data-cppathid="10029" transform="translate(115.52 15.29)" d="M180.51-15.29H185V11.49h-4.44Z" class="cls-6"/><path data-cppathid="10030" transform="translate(115.52 15.29)" d="M190.66-13.48l3.69-.36v5.52h3.78V-5h-3.78V3.71a25,25,0,0,0,.11,3.06A1.94,1.94,0,0,0,195.17,8a3.13,3.13,0,0,0,2,.48,11.7,11.7,0,0,0,1.65-.14v3.28a15,15,0,0,1-3.06.35,5.9,5.9,0,0,1-3.51-.89,3.94,3.94,0,0,1-1.55-2.42A23.19,23.19,0,0,1,190.32,4V-5h-2.57V-8.32h2.69Z" class="cls-6"/><path data-cppathid="10031" transform="translate(115.52 15.29)" d="M215.47,2.19h-11.2q0,4,1.09,5.35a3.37,3.37,0,0,0,2.73,1.34c1.82,0,3-1.23,3.46-3.69l3.75.49Q213.83,12,208,12a7.09,7.09,0,0,1-5.73-2.57c-1.42-1.71-2.14-4.22-2.14-7.53s.72-6,2.16-7.89A6.91,6.91,0,0,1,208-8.79a6.57,6.57,0,0,1,4.26,1.39,7.41,7.41,0,0,1,2.43,3.66A21.72,21.72,0,0,1,215.47,2.19ZM211.29-.58c0-3.49-1.13-5.23-3.41-5.23q-3.19,0-3.51,5.23Z" class="cls-6"/><path data-cppathid="10032" transform="translate(115.52 15.29)" d="M218.87-8.32h3.76v3a5,5,0,0,1,4.88-3.49A4.18,4.18,0,0,1,232-5.11a5,5,0,0,1,5-3.68,5.46,5.46,0,0,1,3,.78,4.1,4.1,0,0,1,1.67,2.08A16.42,16.42,0,0,1,242.21-1V11.49h-4.08V-.7a10,10,0,0,0-.48-3.8,1.93,1.93,0,0,0-1.94-1q-3.11,0-3.11,5.39v11.6h-4.08v-12a15.87,15.87,0,0,0-.21-3.32,2.17,2.17,0,0,0-.76-1.19,2.28,2.28,0,0,0-1.44-.43,2.59,2.59,0,0,0-2.44,1.28A9.11,9.11,0,0,0,223,0v11.5h-4.08Z" class="cls-6"/><path data-cppathid="10033" transform="translate(115.52 15.29)" d="M54.87,126.67c0,.82-.47,1.24-1.35,1.24l-2.42,0a1.13,1.13,0,0,1-1.28-1.36l1.12-24.36a1.61,1.61,0,0,1,.24-.8,1,1,0,0,1-.2-.67c0-.8.43-1.2,1.31-1.2H66.52l-1.31-4a1.88,1.88,0,0,1-.08-.52c0-.61.36-1,1.07-1l2.23-.32a.62.62,0,0,0,.18,0l.14,0a1.2,1.2,0,0,1,1.23,1l1.59,5h11c.87,0,1.31.4,1.31,1.2s-.44,1.19-1.31,1.19H72.32l3.42,10.61,3.62-5.8a1.4,1.4,0,0,1,1.19-.76,2.45,2.45,0,0,1,.52.08l1.71.52c.61.21.91.54.91,1a1.59,1.59,0,0,1-.24.72l-6,9.58,2,6.16,2.26-.6a2.6,2.6,0,0,1,.44-.08,1.35,1.35,0,0,1,1.23.84,1.43,1.43,0,0,1,.2.63c0,.54-.32.88-.95,1l-5.85,1.51a.59.59,0,0,1-.23,0h-.2a1.19,1.19,0,0,1-1.19-1l-1-3.22L72,126.63a1.37,1.37,0,0,1-1.19.76,2.37,2.37,0,0,1-.51-.08l-1.71-.52c-.61-.21-.92-.54-.92-1a1.45,1.45,0,0,1,.24-.72l4.53-7.23-5.13-16H56a2.87,2.87,0,0,1,0,.44l-.32,6.83h9.62c.9,0,1.31.45,1.23,1.36l-1.23,15.58c-.08.76-.44,1.15-1.08,1.15a2.38,2.38,0,0,1-.43-.08L57.5,125.6c-.67-.16-1-.48-1-.95a.61.61,0,0,1,.06-.28,1.51,1.51,0,0,0,.1-.28l0-.12a1.35,1.35,0,0,1,1.23-.84,1,1,0,0,1,.24,0l.24,0,2,.48,1-12.16H55.55ZM81,96.22a1.22,1.22,0,0,1,.67,1,1.2,1.2,0,0,1-.47.87l-.4.32a1.38,1.38,0,0,1-1.79.2l-4.85-2.66a1.19,1.19,0,0,1-.67-1,1.1,1.1,0,0,1,.47-.87l.4-.32a1.61,1.61,0,0,1,1-.44,1.49,1.49,0,0,1,.76.24Z" class="cls-19"/><path data-cppathid="10034" transform="translate(115.52 15.29)" d="M92.79,125.16a1.18,1.18,0,0,1-1.43,1.19l-1.27-.07a1.13,1.13,0,0,1-1.19-1.4l.52-6a1.18,1.18,0,0,1,1.43-1.19l1.27.08a1.12,1.12,0,0,1,1.19,1.39Zm6.92,1.71a1.16,1.16,0,0,1-1.31,1.31H95.93a1.16,1.16,0,0,1-1.31-1.31V115.42l-4.37.36c-.79.06-1.19-.2-1.19-.75a1.37,1.37,0,0,1,.28-.8L93,108.55l-.08-.12L89.57,104a1.61,1.61,0,0,1-.35-.92,1.35,1.35,0,0,1,.35-.91l6.36-8.35a1.4,1.4,0,0,1,1.12-.64,2,2,0,0,1,.63.12l1.51.52c.56.19.84.5.84,1a1.42,1.42,0,0,1-.32.8L94,103.06l1.35,1.79,1.43-2.23a1.44,1.44,0,0,1,1.23-.71,2.45,2.45,0,0,1,.52.08l1.71.51c.61.22.91.54.91,1a1.07,1.07,0,0,1-.08.36,2.4,2.4,0,0,1-.2.39L95.26,113l4.85-.4-.68-2.74a2.15,2.15,0,0,1,0-.4,1.06,1.06,0,0,1,1.08-1.15l1.15-.16a1.19,1.19,0,0,1,1.51,1l1.47,6.08a1.54,1.54,0,0,1,0,.4,1.06,1.06,0,0,1-1.07,1.16l-1.16.15a1.19,1.19,0,0,1-1.51-1l-.24-1h-.12l-.91.08a1.32,1.32,0,0,1,.08.47Zm5.64-2.62a1.14,1.14,0,0,1-1.23,1.39l-1.27.08a1.16,1.16,0,0,1-1.39-1.19l-.52-5a1.44,1.44,0,0,1,.28-1,1.26,1.26,0,0,1,1-.41l1.28-.08a1.16,1.16,0,0,1,1.39,1.19Zm11.13-19.12v.12h5.77c.87,0,1.31.4,1.31,1.19s-.44,1.19-1.31,1.19h-16.5c-.87,0-1.31-.39-1.31-1.19s.44-1.19,1.31-1.19h5.65v-1.67h-3.78c-.87,0-1.31-.4-1.31-1.19s.44-1.2,1.31-1.2h3.78V98.85h-4.77c-.88,0-1.32-.4-1.32-1.19s.44-1.2,1.32-1.2h4.77V95.19a1.16,1.16,0,0,1,1.31-1.31h2.46a1.16,1.16,0,0,1,1.31,1.31v1.27h4.81q1.32,0,1.32,1.2c0,.79-.44,1.19-1.32,1.19h-4.81v2.34h3.86c.87,0,1.31.4,1.31,1.2s-.44,1.19-1.31,1.19h-3.86Zm-10.61,4.77a1.16,1.16,0,0,1,1.31-1.31h2.47a1.39,1.39,0,0,1,.79.2h10.93a1.16,1.16,0,0,1,1.32,1.31v12.32a1.16,1.16,0,0,1-1.32,1.31h-2.46a1.44,1.44,0,0,1-.8-.2h-7.67a1.39,1.39,0,0,1-.79.2h-2.47a1.16,1.16,0,0,1-1.31-1.31Zm2.55,18.24a1.58,1.58,0,0,1-.72.16,1.42,1.42,0,0,1-1.07-.51l-.2-.2a1.24,1.24,0,0,1-.44-.84c0-.4.27-.71.8-1l3.45-1.55a1.55,1.55,0,0,1,.72-.16,1.41,1.41,0,0,1,1.07.52l.2.19a1.28,1.28,0,0,1,.44.84c0,.4-.27.71-.8,1Zm9.18-17H111v1.63h6.64ZM111,117.05h6.64v-1.86H111Zm0,4.1h6.64v-1.71H111ZM122.21,126c.53.24.79.55.79,1a1.38,1.38,0,0,1-.35.8l-.28.27a1.57,1.57,0,0,1-1.12.56,1.44,1.44,0,0,1-.67-.16l-4-1.75c-.53-.24-.79-.55-.79-.95a1.21,1.21,0,0,1,.36-.8l.27-.27a1.65,1.65,0,0,1,1.12-.56,1.41,1.41,0,0,1,.67.16Z" class="cls-19"/></g><path data-cppathid="10035" transform="translate(115.52 15.29)" d="M40.87,133.64a75.47,75.47,0,0,0,147.55,0c-19.06,12.71-45.08,26.59-73.8,26.59S59.91,146.34,40.87,133.64Z" class="cls-20"/><path data-cppathid="10036" transform="translate(115.52 15.29)" d="M118.37,41.4c26.68,0,51.86,14.5,67,36.54-13.34-24.89-38.35-41.7-67-41.7S64.67,53.06,51.32,78C66.46,55.92,91.68,41.4,118.37,41.4Z" class="cls-21"/><path data-cppathid="10037" transform="translate(115.52 15.29)" d="M115.08,186.41c-26.65,0-51.85-14.5-67-36.57,13.33,24.92,38.32,41.72,67,41.72s53.74-16.82,67.05-41.76C167,171.89,141.78,186.41,115.08,186.41Z" class="cls-21"/></g></g></g></g></g></g></svg>