<?xml version="1.0" encoding="UTF-8"?>
<svg xmlns="http://www.w3.org/2000/svg" onmouseup="{ if(window.parent.document.onmouseup) window.parent.document.onmouseup(arguments[0]);}" viewBox="0 0 345.37 314.67" xmlns:xlink="http://www.w3.org/1999/xlink"><defs><style>.cls-1,.cls-29,.cls-31,.cls-34,.cls-36{fill:none;}.cls-2{isolation:isolate;}.cls-3{fill:#e43c3c;}.cls-4{opacity:0.7;mix-blend-mode:lighten;}.cls-5{fill:url(#New_Gradient_Swatch_1);}.cls-6{fill:#929497;}.cls-21,.cls-7{fill:#fff;}.cls-8{fill:url(#New_Gradient_Swatch_2);}.cls-9{fill:url(#radial-gradient);}.cls-10,.cls-13,.cls-14,.cls-20{mix-blend-mode:screen;}.cls-10{fill:url(#radial-gradient-2);}.cls-11{fill:#6c5635;}.cls-12{fill:url(#Steel_Cylinder);}.cls-13{fill:url(#linear-gradient);}.cls-15{fill:url(#linear-gradient-2);}.cls-16{fill:url(#linear-gradient-3);}.cls-17{fill:url(#linear-gradient-4);}.cls-18{clip-path:url(#clip-path);}.cls-19{fill:#50a1d3;}.cls-20{fill:url(#radial-gradient-3);}.cls-21{mix-blend-mode:color-dodge;}.cls-22{fill:#d7d7d7;}.cls-23{fill:#253d54;}.cls-24{fill:#80583a;}.cls-25{fill:#ffc488;}.cls-26{fill:#ae2525;}.cls-27,.cls-29,.cls-31,.cls-34,.cls-36{stroke:#000;}.cls-27{stroke-width:0.6px;}.cls-28{fill:#f37a7a;}.cls-29{stroke-width:1.06px;}.cls-30{fill:#686868;}.cls-31{stroke-width:0.3px;}.cls-32{fill:#929292;}.cls-33{fill:#b0b0b0;}.cls-34{stroke-width:0.89px;}.cls-35{fill:#c5c5c5;}.cls-36{stroke-width:0.67px;}</style><linearGradient gradientUnits="userSpaceOnUse" gradientTransform="translate(277.04 238.91) rotate(180)" y2="223.3" x2="205.42" y1="130.58" x1="205.42" id="New_Gradient_Swatch_1"><stop stop-color="#fff" offset="0"/><stop stop-color="#f7f7f7" offset="0.02"/><stop stop-color="#bebebe" offset="0.13"/><stop stop-color="#8b8b8b" offset="0.25"/><stop stop-color="#606060" offset="0.37"/><stop stop-color="#3d3d3d" offset="0.49"/><stop stop-color="#222" offset="0.62"/><stop stop-color="#0f0f0f" offset="0.74"/><stop stop-color="#040404" offset="0.87"/><stop offset="1"/></linearGradient><linearGradient gradientUnits="userSpaceOnUse" y2="69.92" x2="128.43" y1="69.92" x1="16.36" id="New_Gradient_Swatch_2"><stop stop-color="#929497" offset="0"/><stop stop-color="#dbdcdd" offset="0.5"/><stop stop-color="#c5c7c8" offset="0.56"/><stop stop-color="#afb0b3" offset="0.65"/><stop stop-color="#9fa0a3" offset="0.75"/><stop stop-color="#95979a" offset="0.86"/><stop stop-color="#929497" offset="1"/></linearGradient><radialGradient gradientUnits="userSpaceOnUse" r="51.53" cy="69.33" cx="71.81" id="radial-gradient"><stop stop-color="#fff" offset="0"/><stop stop-color="#fcfcfd" offset="0.33"/><stop stop-color="#f4f4f4" offset="0.54"/><stop stop-color="#e5e6e7" offset="0.72"/><stop stop-color="#d0d2d3" offset="0.88"/><stop stop-color="#bbbdbf" offset="1"/></radialGradient><radialGradient gradientUnits="userSpaceOnUse" gradientTransform="translate(531.29 48.43) rotate(180)" r="47.1" cy="-13.06" cx="460.04" id="radial-gradient-2"><stop stop-color="#fff" offset="0"/><stop stop-color="#e9e9e9" offset="0.07"/><stop stop-color="#878787" offset="0.42"/><stop stop-color="#3e3e3e" offset="0.7"/><stop stop-color="#111" offset="0.9"/><stop offset="1"/></radialGradient><linearGradient gradientUnits="userSpaceOnUse" y2="149.88" x2="166.38" y1="166.71" x1="149.55" id="Steel_Cylinder"><stop stop-color="#fff" offset="0"/><stop stop-color="#0b0b0b" offset="0.17"/><stop stop-color="#7f7f7f" offset="0.26"/><stop stop-color="#8e8e8e" offset="0.4"/><stop stop-color="#636363" offset="0.54"/><stop stop-color="#5f5f5f" offset="0.63"/><stop stop-color="#eaeaea" offset="0.72"/><stop stop-color="#fff" offset="0.79"/><stop offset="1"/></linearGradient><linearGradient gradientUnits="userSpaceOnUse" gradientTransform="matrix(-1.25, -1.09, 0.28, -0.32, 558.58, 251.86)" y2="-447.24" x2="250.46" y1="-447.24" x1="191.75" id="linear-gradient"><stop stop-color="#fff" offset="0"/><stop stop-color="#f6f6f6" offset="0.06"/><stop stop-color="#dfdfdf" offset="0.16"/><stop stop-color="#b8b8b8" offset="0.29"/><stop stop-color="#828282" offset="0.44"/><stop stop-color="#3f3f3f" offset="0.6"/><stop offset="0.74"/></linearGradient><linearGradient gradientUnits="userSpaceOnUse" gradientTransform="translate(-154.78 -11.81)" y2="162.65" x2="294.72" y1="133.57" x1="294.72" id="linear-gradient-2"><stop stop-color="#fff" offset="0"/><stop stop-color="#fafafa" offset="0.11"/><stop stop-color="#ececec" offset="0.23"/><stop stop-color="#d5d5d5" offset="0.36"/><stop stop-color="#b5b5b5" offset="0.5"/><stop stop-color="#8b8b8b" offset="0.64"/><stop stop-color="#585858" offset="0.79"/><stop stop-color="#1d1d1d" offset="0.93"/><stop offset="1"/></linearGradient><linearGradient gradientUnits="userSpaceOnUse" y2="121.14" x2="128.67" y1="121.14" x1="115.01" id="linear-gradient-3"><stop stop-color="#808184" offset="0"/><stop stop-color="#8a8b8d" offset="0.09"/><stop stop-color="#a4a5a7" offset="0.23"/><stop stop-color="#cecfd0" offset="0.41"/><stop stop-color="#dbdcdd" offset="0.47"/><stop stop-color="#626366" offset="1"/></linearGradient><linearGradient gradientUnits="userSpaceOnUse" gradientTransform="translate(105.56 242.46) rotate(-45)" y2="-74.28" x2="103.93" y1="-74.28" x1="90.67" id="linear-gradient-4"><stop stop-color="#dddfe0" offset="0"/><stop stop-color="#fff" offset="0.5"/><stop stop-color="#f2f2f3" offset="0.63"/><stop stop-color="#d0d2d3" offset="0.87"/><stop stop-color="#bbbdbf" offset="1"/></linearGradient><clipPath transform="translate(71.37 32.76)" id="clip-path"><path data-cppathid="10000" d="M122.35,69.63A51.53,51.53,0,1,1,70.82,18.1,51.53,51.53,0,0,1,122.35,69.63Z" class="cls-1"/></clipPath><radialGradient gradientUnits="userSpaceOnUse" gradientTransform="translate(657.09 25.14) rotate(180)" r="46.63" cy="-47.57" cx="586.26" id="radial-gradient-3"><stop stop-color="#fff" offset="0"/><stop stop-color="#fbfbfb" offset="0.11"/><stop stop-color="#ededed" offset="0.24"/><stop stop-color="#d8d8d8" offset="0.37"/><stop stop-color="#b9b9b9" offset="0.5"/><stop stop-color="#929292" offset="0.64"/><stop stop-color="#616161" offset="0.77"/><stop stop-color="#292929" offset="0.91"/><stop offset="1"/></radialGradient></defs><g class="cls-2"><g data-name="Layer 2" id="Layer_2"><g data-name="Backlog Refinement" id="Backlog_Refinement"><path data-cppathid="10001" transform="translate(71.37 32.76)" d="M189.47,185.36l1.56,1.2c13,10,23.34,2.17,20.59-1.35-1-1.22-6.08-5.81-12.62-11.34C195.64,175,190.72,179.49,189.47,185.36Z" class="cls-3"/><g class="cls-4"><path data-cppathid="10002" transform="translate(71.37 32.76)" d="M71.63,17.62c25.48,0,46.22,19.76,46.78,44.34,0-.34,0-.67,0-1,0-25-21-45.34-46.81-45.34S24.81,35.92,24.81,61c0,.34,0,.67,0,1C25.39,37.38,46.12,17.62,71.63,17.62Z" class="cls-5"/></g><path data-cppathid="10003" transform="translate(71.37 32.76)" d="M0,71A71,71,0,1,0,71,0,71.06,71.06,0,0,0,0,71Z" class="cls-6"/><path data-cppathid="10004" transform="translate(71.37 32.76)" d="M6.23,69.33A65.58,65.58,0,1,0,71.81,3.75,65.65,65.65,0,0,0,6.23,69.33Z" class="cls-7"/><path data-cppathid="10005" transform="translate(71.37 32.76)" d="M16.36,69.91a56,56,0,1,0,56-56A56.1,56.1,0,0,0,16.36,69.91Z" class="cls-8"/><path data-cppathid="10006" transform="translate(71.37 32.76)" d="M16.36,69.91a56,56,0,1,0,56-56A56.1,56.1,0,0,0,16.36,69.91Z" class="cls-8"/><path data-cppathid="10007" transform="translate(71.37 32.76)" d="M123.34,69.33A51.53,51.53,0,1,1,71.81,17.8,51.53,51.53,0,0,1,123.34,69.33Z" class="cls-9"/><path data-cppathid="10008" transform="translate(71.37 32.76)" d="M25.66,80.67a46.64,46.64,0,0,0,91.18,0c-11.77,7.85-29.33-7.35-47.07-7.35S37.47,88.52,25.66,80.67Z" class="cls-10"/><path data-cppathid="10009" transform="translate(71.37 32.76)" d="M132.38,115.88a8.45,8.45,0,0,0-6,2.52h0l-7.17,7.15a8.57,8.57,0,0,0,0,12.12l58.32,60.52a8.56,8.56,0,0,0,12.13,0l7.16-7.16a8.58,8.58,0,0,0,0-12.13l-58.32-60.5A8.48,8.48,0,0,0,132.38,115.88Z" class="cls-11"/><path data-cppathid="10010" transform="translate(71.37 32.76)" d="M195,180.68a6.08,6.08,0,0,1,0,8.58l-7.17,7.16a6.07,6.07,0,0,1-8.58,0l-58.31-60.51a6.08,6.08,0,0,1,0-8.59l7.16-7.15a6,6,0,0,1,8.57,0Z" class="cls-12"/><path data-cppathid="10011" transform="translate(71.37 32.76)" d="M189.29,192c1.31.87,0-1.69-.74-2.54s-61.63-64.29-61.63-64.29l.5,1S188,191.14,189.29,192Z" class="cls-13"/><g class="cls-14"><path data-cppathid="10012" transform="translate(71.37 32.76)" d="M158.4,146.16l-23-23a4.8,4.8,0,0,0-6.81,0l-5.7,5.69a4.86,4.86,0,0,0,0,6.83L138,150.83h.31A44,44,0,0,0,158.4,146.16Z" class="cls-15"/></g><path data-cppathid="10013" transform="translate(71.37 32.76)" d="M116.19,121.11a4,4,0,0,0,5.68,5.68l5.62-5.63a4,4,0,1,0-5.68-5.68Z" class="cls-16"/><path data-cppathid="10014" transform="translate(71.37 32.76)" d="M126.53,116.45a2.66,2.66,0,0,1,0,3.75l-5.63,5.62a2.63,2.63,0,0,1-3.75,0h0a2.63,2.63,0,0,1,0-3.74l5.62-5.63a2.67,2.67,0,0,1,3.76,0Z" class="cls-17"/><g class="cls-18"><rect data-cppathid="10015" rx="8.28" height="62.56" width="249.68" class="cls-19"/><rect data-cppathid="10016" rx="8.28" height="62.56" width="249.68" y="69.74" class="cls-19"/><path data-cppathid="10017" transform="translate(71.37 32.76)" d="M-42.52-9.44h4.09a11.63,11.63,0,0,1,3.19.36,3.82,3.82,0,0,1,2.06,1.64,5.4,5.4,0,0,1,.84,3.05A5.54,5.54,0,0,1-33-1.58,4,4,0,0,1-34.85.12a8.88,8.88,0,0,1-3.52.52h-1.41V7.1h-2.74Zm2.74,2.12v5.77h1.35a3.62,3.62,0,0,0,2.52-.68,3,3,0,0,0,.7-2.21,3.34,3.34,0,0,0-.47-1.85,1.9,1.9,0,0,0-1-.87,6.7,6.7,0,0,0-1.74-.16Z" class="cls-7"/><path data-cppathid="10018" transform="translate(71.37 32.76)" d="M-30.35-5.14h2.21V-2.4c.68-2,1.71-3,3.07-3a4.53,4.53,0,0,1,.46,0v2.63c-.21,0-.38,0-.51,0-1.81,0-2.71,1.22-2.71,3.64V7.1h-2.52Z" class="cls-7"/><path data-cppathid="10019" transform="translate(71.37 32.76)" d="M-14.19.86q0,6.54-4.84,6.54a4.27,4.27,0,0,1-3.51-1.58A7.57,7.57,0,0,1-23.82,1c0-4.28,1.61-6.41,4.85-6.41a4.29,4.29,0,0,1,3.49,1.56A7.32,7.32,0,0,1-14.19.86ZM-16.88,1a7.66,7.66,0,0,0-.57-3.54,1.74,1.74,0,0,0-1.55-1q-2.13,0-2.13,4.5a8.83,8.83,0,0,0,.49,3.41A1.7,1.7,0,0,0-19,5.49a1.69,1.69,0,0,0,1.62-1.12A8.63,8.63,0,0,0-16.88,1Z" class="cls-7"/><path data-cppathid="10020" transform="translate(71.37 32.76)" d="M-5.44-9.44h2.53V7.1H-5.24V5.24a3.08,3.08,0,0,1-3,2.08,3.37,3.37,0,0,1-3.1-1.74A8.77,8.77,0,0,1-12.4,1a8.31,8.31,0,0,1,1.14-4.7,3.49,3.49,0,0,1,3-1.69A2.84,2.84,0,0,1-5.44-3.72Zm0,9.34a3.82,3.82,0,0,0-.71-2.65,2,2,0,0,0-1.47-.76C-9-3.51-9.71-2.07-9.71.8c0,3.07.7,4.6,2.12,4.6A2,2,0,0,0-6.1,4.64,4.09,4.09,0,0,0-5.44,2Z" class="cls-7"/><path data-cppathid="10021" transform="translate(71.37 32.76)" d="M0-5.14H2.48V2.64a5.68,5.68,0,0,0,.27,2.17c.17.37.57.56,1.18.56a1.6,1.6,0,0,0,1.58-1A9.83,9.83,0,0,0,6,.75V-5.14H8.48V7.1H6.15V5.26A3.24,3.24,0,0,1,3,7.4a3.14,3.14,0,0,1-1.78-.46,2.5,2.5,0,0,1-1-1.31A9.86,9.86,0,0,1,0,2.69Z" class="cls-7"/><path data-cppathid="10022" transform="translate(71.37 32.76)" d="M20-1l-2.43.27a4.45,4.45,0,0,0-.62-2.14,1.5,1.5,0,0,0-1.24-.54A1.69,1.69,0,0,0,14-2.4a9.11,9.11,0,0,0-.51,3.65q0,4.06,2.14,4.07c1.1,0,1.72-.89,1.86-2.66L20,2.88c-.33,3-1.82,4.52-4.47,4.52A3.88,3.88,0,0,1,12,5.71,8.38,8.38,0,0,1,10.86,1a7.89,7.89,0,0,1,1.23-4.79,4.15,4.15,0,0,1,3.56-1.65C18.16-5.43,19.6-4,20-1Z" class="cls-7"/><path data-cppathid="10023" transform="translate(71.37 32.76)" d="M22.06-8.33l2.28-.22v3.41h2.34v2H24.34v5.4a17.78,17.78,0,0,0,.07,1.9,1.21,1.21,0,0,0,.44.76,1.92,1.92,0,0,0,1.21.29,6.5,6.5,0,0,0,1-.08v2a8.79,8.79,0,0,1-1.89.22A3.62,3.62,0,0,1,23,6.85a2.47,2.47,0,0,1-1-1.5,15.42,15.42,0,0,1-.2-2.88V-3.11H20.27v-2h1.66Z" class="cls-7"/><path data-cppathid="10024" transform="translate(71.37 32.76)" d="M33.1-9.44h5a10.39,10.39,0,0,1,2.87.3,3,3,0,0,1,1.66,1.35,4.54,4.54,0,0,1,.68,2.55,3.48,3.48,0,0,1-2.46,3.62,4,4,0,0,1,3,4.16,4.77,4.77,0,0,1-1.17,3.2c-.78.9-2.27,1.36-4.48,1.36H33.1Zm2.68,6.86h1.74a3.18,3.18,0,0,0,2.41-.68A2.56,2.56,0,0,0,40.51-5a2.14,2.14,0,0,0-.67-1.78,3.23,3.23,0,0,0-2.06-.54h-2Zm0,7.49H38c2,0,3-.9,3-2.68A2.94,2.94,0,0,0,40.38.36a3.22,3.22,0,0,0-2.62-.82h-2Z" class="cls-7"/><path data-cppathid="10025" transform="translate(71.37 32.76)" d="M48.81-1.68,46.38-2a3.63,3.63,0,0,1,1.5-2.54A5.18,5.18,0,0,1,51-5.43a4.66,4.66,0,0,1,2.63.66A2.8,2.8,0,0,1,54.86-3.2a11,11,0,0,1,.25,2.75V3.72a17,17,0,0,0,.22,3.38H53a9.29,9.29,0,0,1-.16-2A3.68,3.68,0,0,1,49.35,7.4a3.33,3.33,0,0,1-2.48-1,3.51,3.51,0,0,1-.94-2.59A4,4,0,0,1,47.3.7c.92-.78,2.5-1.16,4.76-1.16h.53v-.5a4,4,0,0,0-.39-2,1.49,1.49,0,0,0-1.41-.67C49.69-3.59,49-2.95,48.81-1.68Zm3.78,2.82a5.88,5.88,0,0,0-.73,0c-2.19,0-3.29.86-3.29,2.58,0,1.25.54,1.88,1.63,1.88a2.05,2.05,0,0,0,1.68-1,4.85,4.85,0,0,0,.71-2.8Z" class="cls-7"/><path data-cppathid="10026" transform="translate(71.37 32.76)" d="M66.44-1,64-.75a4.45,4.45,0,0,0-.62-2.14,1.49,1.49,0,0,0-1.23-.54,1.7,1.7,0,0,0-1.64,1A9.11,9.11,0,0,0,60,1.25c0,2.71.71,4.07,2.15,4.07,1.09,0,1.71-.89,1.85-2.66l2.44.22C66.1,5.9,64.61,7.4,62,7.4a3.89,3.89,0,0,1-3.48-1.69A8.38,8.38,0,0,1,57.35,1a7.89,7.89,0,0,1,1.22-4.79,4.16,4.16,0,0,1,3.56-1.65C64.65-5.43,66.08-4,66.44-1Z" class="cls-7"/><path data-cppathid="10027" transform="translate(71.37 32.76)" d="M68.31-9.44h2.52V.33l4-5.47h2.49L74.12-.93l3.51,8H74.91L72.46,1,70.83,3.21V7.1H68.31Z" class="cls-7"/><path data-cppathid="10028" transform="translate(71.37 32.76)" d="M78.89-9.44h2.52V7.1H78.89Z" class="cls-7"/><path data-cppathid="10029" transform="translate(71.37 32.76)" d="M93.41.86q0,6.54-4.84,6.54a4.27,4.27,0,0,1-3.51-1.58A7.57,7.57,0,0,1,83.78,1c0-4.28,1.62-6.41,4.85-6.41a4.29,4.29,0,0,1,3.49,1.56A7.32,7.32,0,0,1,93.41.86ZM90.72,1a7.66,7.66,0,0,0-.57-3.54,1.74,1.74,0,0,0-1.55-1q-2.13,0-2.13,4.5A8.61,8.61,0,0,0,87,4.39a1.74,1.74,0,0,0,3.25,0A8.63,8.63,0,0,0,90.72,1Z" class="cls-7"/><path data-cppathid="10030" transform="translate(71.37 32.76)" d="M105.32-7.09v1.85a2.9,2.9,0,0,0-.59-.07c-.74,0-1.18.45-1.32,1.34a4.12,4.12,0,0,1,.92,2.63,3.77,3.77,0,0,1-1.15,2.8,4.2,4.2,0,0,1-3.1,1.14,5.79,5.79,0,0,1-1.55-.22c-.62.24-.92.59-.92,1.07a.76.76,0,0,0,.49.8,12.24,12.24,0,0,0,2.6.29,15.34,15.34,0,0,1,2.74.34,2.59,2.59,0,0,1,1.47,1,3.21,3.21,0,0,1,.55,2A3.2,3.2,0,0,1,104,10.66a7.39,7.39,0,0,1-4.11,1,6.58,6.58,0,0,1-3.75-.84A2.62,2.62,0,0,1,95,8.54a2.31,2.31,0,0,1,1.78-2.36,2.23,2.23,0,0,1-1.33-2,2.68,2.68,0,0,1,1.8-2.46,3.51,3.51,0,0,1-1.57-3.14,3.76,3.76,0,0,1,1.2-2.9A4.37,4.37,0,0,1,100-5.43a5.09,5.09,0,0,1,2.31.53A3,3,0,0,1,103-6.66a2.26,2.26,0,0,1,1.57-.49A5.86,5.86,0,0,1,105.32-7.09Zm-7,13.68a1.67,1.67,0,0,0-1,1.56A1.39,1.39,0,0,0,98,9.44a4.6,4.6,0,0,0,2.25.41q2.91,0,2.91-1.68A1.19,1.19,0,0,0,102.56,7a5.65,5.65,0,0,0-2.18-.36Zm3.41-8c0-1.6-.55-2.4-1.66-2.4S98.26-3,98.26-1.35,98.84,1,100,1,101.73.21,101.73-1.37Z" class="cls-7"/><path data-cppathid="10031" transform="translate(71.37 32.76)" d="M111.52-9.44h2.74V7.1h-2.74Z" class="cls-7"/><path data-cppathid="10032" transform="translate(71.37 32.76)" d="M117.79-8.33l2.28-.22v3.41h2.33v2h-2.33v5.4a15.37,15.37,0,0,0,.07,1.9,1.2,1.2,0,0,0,.43.76,2,2,0,0,0,1.22.29,6.5,6.5,0,0,0,1-.08v2a8.81,8.81,0,0,1-1.9.22,3.64,3.64,0,0,1-2.17-.55,2.41,2.41,0,0,1-.95-1.5,14.43,14.43,0,0,1-.21-2.88V-3.11H116v-2h1.66Z" class="cls-7"/><path data-cppathid="10033" transform="translate(71.37 32.76)" d="M133.12,1.35H126.2a5.6,5.6,0,0,0,.67,3.31,2.1,2.1,0,0,0,1.69.83c1.12,0,1.84-.76,2.13-2.28l2.32.3c-.61,2.6-2.12,3.89-4.53,3.89a4.36,4.36,0,0,1-3.54-1.59,7.1,7.1,0,0,1-1.32-4.65A7.79,7.79,0,0,1,125-3.71a4.27,4.27,0,0,1,3.56-1.72,4,4,0,0,1,2.63.86,4.61,4.61,0,0,1,1.51,2.26A13.58,13.58,0,0,1,133.12,1.35Zm-2.58-1.7c0-2.16-.71-3.24-2.11-3.24s-2,1.08-2.17,3.24Z" class="cls-7"/><path data-cppathid="10034" transform="translate(71.37 32.76)" d="M135.22-5.14h2.32v1.86a3.11,3.11,0,0,1,3-2.15,2.57,2.57,0,0,1,2.79,2.28,3.13,3.13,0,0,1,3.1-2.28,3.34,3.34,0,0,1,1.86.48,2.53,2.53,0,0,1,1,1.29,10.41,10.41,0,0,1,.29,3V7.1h-2.52V-.43a6.14,6.14,0,0,0-.3-2.35,1.2,1.2,0,0,0-1.2-.62q-1.92,0-1.92,3.33V7.1h-2.52V-.35a9.59,9.59,0,0,0-.13-2,1.31,1.31,0,0,0-.47-.73,1.41,1.41,0,0,0-.89-.27,1.57,1.57,0,0,0-1.5.8A5.5,5.5,0,0,0,137.74,0V7.1h-2.52Z" class="cls-7"/><path data-cppathid="10035" transform="translate(71.37 32.76)" d="M-67.86,61.78h15.79l.15-.07L-50.23,63a.54.54,0,0,1-.3.22c-2,9.34-6.33,14.2-13.92,17.08a10.85,10.85,0,0,0-1.12-1.46c7.22-2.66,11.39-7.28,13-15.35h-15.3Zm18.92-4.44a2.72,2.72,0,0,1,2.71,2.73,2.71,2.71,0,0,1-2.71,2.7,2.71,2.71,0,0,1-2.73-2.7A2.72,2.72,0,0,1-48.94,57.34ZM-47,60.07a1.89,1.89,0,0,0-1.89-1.91,1.91,1.91,0,0,0-1.91,1.91A1.93,1.93,0,0,0-48.94,62,1.91,1.91,0,0,0-47,60.07Z" class="cls-7"/><path data-cppathid="10036" transform="translate(71.37 32.76)" d="M-25.68,62.18V78.56h-1.79V77H-41.15v1.61h-1.74V62.18Zm-1.79,13.16V63.84H-41.15v11.5Z" class="cls-7"/><path data-cppathid="10037" transform="translate(71.37 32.76)" d="M-3.09,63.1c0,.15-.15.19-.3.27A32.78,32.78,0,0,1-7,71.56c1.07.62,2.38,1.39,3.3,2l-1,1.61A38.18,38.18,0,0,0-8,73.08a22.62,22.62,0,0,1-8.92,7.44,5.07,5.07,0,0,0-1.34-1.31,22.33,22.33,0,0,0,8.72-7,42.57,42.57,0,0,0-5.56-2.6l1-1.37a48.39,48.39,0,0,1,5.64,2.53,25.6,25.6,0,0,0,3-6.58h-8.19a25.82,25.82,0,0,1-5.59,6.78,13.57,13.57,0,0,0-1.39-1.12,25.06,25.06,0,0,0,7.57-11.07l2.31.67a.6.6,0,0,1-.69.32A27.2,27.2,0,0,1-12.8,62.5h8l.23-.07Zm-2.29-4.94a18.56,18.56,0,0,1,3.31,3.47l-1,.77a19.84,19.84,0,0,0-3.25-3.47Zm3.18-.92a20.17,20.17,0,0,1,3.38,3.42l-1,.75A18.09,18.09,0,0,0-3.07,58Z" class="cls-7"/><path data-cppathid="10038" transform="translate(71.37 32.76)" d="M20.56,63.49a1.55,1.55,0,0,1-.37.35c-2.6,8-6.68,13.21-13.53,16.68A6.63,6.63,0,0,0,5.4,79.16,23.32,23.32,0,0,0,18,64.46H9.12a25.17,25.17,0,0,1-5.56,6.13,10.1,10.1,0,0,0-1.42-1.14,25.16,25.16,0,0,0,7.92-10.77l2.36.67c-.1.25-.4.32-.72.32-.5,1.09-1,2.14-1.59,3.13h8.74l.3-.15Z" class="cls-7"/><path data-cppathid="10039" transform="translate(71.37 32.76)" d="M38.26,72a89.47,89.47,0,0,0-8.71-4V80.35H27.69V58.78l2.5.15c0,.27-.22.44-.64.52V66.7l.37-.53a88.22,88.22,0,0,1,9.34,4.15Z" class="cls-7"/><path data-cppathid="10040" transform="translate(71.37 32.76)" d="M51.27,62.65a.66.66,0,0,1-.65.37c-1,6-3,12.24-6,15.92A7.55,7.55,0,0,0,43,78c2.78-3.37,5-9.68,5.76-15.91ZM63.75,78.79a83.08,83.08,0,0,0-6.6-16L58.76,62a79.45,79.45,0,0,1,6.81,16Zm-3.6-20a17.21,17.21,0,0,1,3,3.67l-.94.7a20.16,20.16,0,0,0-3-3.68Zm3.28-1.29a20.12,20.12,0,0,1,3.05,3.64l-1,.72a20.27,20.27,0,0,0-3-3.64Z" class="cls-7"/><path data-cppathid="10041" transform="translate(71.37 32.76)" d="M71.12,65.43A26.63,26.63,0,0,1,73,70.77l-1.39.37a27.72,27.72,0,0,0-1.82-5.29ZM86,65.6c0,.23-.3.28-.53.25C83.49,73.1,79.84,77.54,73.83,80a6.32,6.32,0,0,0-1-1.14C78.8,76.5,82.2,72.43,84,65Zm-8.79-1.36a33.77,33.77,0,0,1,1.16,5.63l-1.46.28a29.68,29.68,0,0,0-1.17-5.59Z" class="cls-7"/><path data-cppathid="10042" transform="translate(71.37 32.76)" d="M107.44,63.49a1.55,1.55,0,0,1-.37.35c-2.61,8-6.68,13.21-13.53,16.68a6.42,6.42,0,0,0-1.27-1.36,23.3,23.3,0,0,0,12.59-14.7H96a25.17,25.17,0,0,1-5.56,6.13A10.1,10.1,0,0,0,89,69.45a25.16,25.16,0,0,0,7.92-10.77l2.36.67c-.1.25-.4.32-.72.32-.5,1.09-1,2.14-1.59,3.13h8.74l.3-.15Z" class="cls-7"/><path data-cppathid="10043" transform="translate(71.37 32.76)" d="M129.71,62.18V78.56h-1.79V77H114.24v1.61H112.5V62.18Zm-1.79,13.16V63.84H114.24v11.5Z" class="cls-7"/><path data-cppathid="10044" transform="translate(71.37 32.76)" d="M152.25,63.72a1.34,1.34,0,0,1-.38.37c-2.63,8.22-6.7,13.18-13.43,16.61a6.13,6.13,0,0,0-1.26-1.37,23,23,0,0,0,12.48-14.62H140.9a24.94,24.94,0,0,1-5.49,6.06A7.64,7.64,0,0,0,134,69.65a24.6,24.6,0,0,0,7.87-10.87l2.34.64c-.08.25-.38.35-.7.32a34,34,0,0,1-1.64,3.31h8.64l.3-.15ZM149.17,58a18.33,18.33,0,0,1,3.25,3.52l-.92.8a17.43,17.43,0,0,0-3.2-3.53Zm3.6-.72A17.76,17.76,0,0,1,156,60.81l-.92.77a17.16,17.16,0,0,0-3.2-3.5Z" class="cls-7"/><path data-cppathid="10045" transform="translate(71.37 32.76)" d="M178,61a.63.63,0,0,1-.32.22,21.3,21.3,0,0,1-5.88,7.94,10.56,10.56,0,0,0-1.52-1A15,15,0,0,0,175.23,62H157.46V60.34h18.72l.27-.12Zm-9.68,4.51c0,.2-.25.38-.57.43-.72,5.85-2.73,11.44-7.85,14.4a12,12,0,0,0-1.46-1.15c5.06-2.78,6.88-8,7.47-14Z" class="cls-7"/></g><path data-cppathid="10046" transform="translate(71.37 32.76)" d="M25.25,82.56a46.62,46.62,0,0,0,91.15,0C104.63,90.42,88.55,99,70.81,99S37,90.41,25.25,82.56Z" class="cls-20"/><path data-cppathid="10047" transform="translate(71.37 32.76)" d="M73.13,25.57c16.48,0,32,9,41.41,22.58C106.3,32.78,90.85,22.39,73.13,22.39S40,32.78,31.7,48.18C41.06,34.55,56.64,25.57,73.13,25.57Z" class="cls-21"/><path data-cppathid="10048" transform="translate(71.37 32.76)" d="M71.09,115.16c-16.46,0-32-9-41.39-22.59,8.23,15.4,23.67,25.77,41.39,25.77S104.3,108,112.52,92.55C103.17,106.19,87.59,115.16,71.09,115.16Z" class="cls-21"/><path data-cppathid="10049" transform="translate(71.37 32.76)" d="M271.29,275.06c0,3.78-20.41,6.85-45.58,6.85s-45.59-3.07-45.59-6.85,20.41-6.85,45.59-6.85S271.29,271.27,271.29,275.06Z" class="cls-22"/><path data-cppathid="10050" transform="translate(71.37 32.76)" d="M245.9,228.64s-4.3,39.92-2.43,42.45,3.84,7.18,2.9,9.29-15.93-5.63-18.51-7.75-3.59-29.35-3.59-31.89-8-.63-8-.63S215,270.52,214.77,272s-14.05,4.44-17.33,3.8,2.11-6.12,2.11-6.12S196,225.26,197,222.94s48.23-1.06,48.23-1.06Z" class="cls-23"/><path data-cppathid="10051" transform="translate(71.37 32.76)" d="M215.6,149.87c.68-2.84-2-8.05-5.56-9.29-4.11-1.44-6.32-.79-8.19,2.77-1.75,3.33-2.77,5-7.13,5.54-3.64.43-6.74-6.21-2.76-8,1.43-.64,4.86,1.13,4.47,3-.25,1.23-2.86,1.63-3.41.5,1,.5,1.16,2.55,3.86.84,1.64-1,.65-3.48-.19-4.73-4-5.85-10.12.21-8.73,6,1.85,7.78,10.27,10.52,16,10.91S214.91,152.71,215.6,149.87Z" class="cls-24"/><path data-cppathid="10052" transform="translate(71.37 32.76)" d="M198,160.42s7.13-35.26,27.28-34.54S252.08,147.5,248.72,167a189.69,189.69,0,0,0-2.29,19.56c-.63,9.54-1.79,16.1-1.79,16.1l-44-8.36,2.54-5.75.43-4.65s-2.92-16.93-3.59-18.37c-.34-.72,25.52,2.11,25.52,2.11Z" class="cls-25"/><path data-cppathid="10053" transform="translate(71.37 32.76)" d="M247.31,184.44c-40.59,6.6-44.94-3.55-44.94-3.55l-1.74,8.76s-1.3,9.84-7,33.5c14.19,6.22,55.41,3,55.41,3S247.56,188.19,247.31,184.44Z" class="cls-26"/><path data-cppathid="10054" transform="translate(71.37 32.76)" d="M214.4,149.81c0,1.69.8,3.06,1.8,3.06s1.8-1.37,1.8-3.06-.81-3.06-1.8-3.06S214.4,148.12,214.4,149.81Z" class="cls-27"/><path data-cppathid="10055" transform="translate(71.37 32.76)" d="M209.35,149.45c0,1.39.66,2.52,1.48,2.52s1.49-1.13,1.49-2.52-.67-2.52-1.49-2.52S209.35,148.06,209.35,149.45Z" class="cls-27"/><path data-cppathid="10056" transform="translate(71.37 32.76)" d="M215.63,147.91a.9.9,0,0,0,.89.9.91.91,0,1,0-.89-.9Z" class="cls-7"/><path data-cppathid="10057" transform="translate(71.37 32.76)" d="M210.24,147.91a.9.9,0,1,0,.9-.91A.9.9,0,0,0,210.24,147.91Z" class="cls-7"/><path data-cppathid="10058" transform="translate(71.37 32.76)" d="M223.72,129s18.3,25,26.17,29.46c4.13-13.73-2.46-29.67-20.16-33.16-9.43-1.85-12.22-2.57-19.29,5.28C204.84,136.76,223.72,129,223.72,129Z" class="cls-24"/><path data-cppathid="10059" transform="translate(71.37 32.76)" d="M250.51,156.76s13-19.15-5.77-32.67c-17.26-12.42-30.24.77-30.56,3.17C214.18,127.26,247.31,124.87,250.51,156.76Z" class="cls-3"/><path data-cppathid="10060" transform="translate(71.37 32.76)" d="M235.11,132.08S222.18,115,213.7,114.59s-14,2.31-14.6,4.84,14.17,7.83,14.17,7.83S226.22,126.9,235.11,132.08Z" class="cls-28"/><path data-cppathid="10061" transform="translate(71.37 32.76)" d="M249.16,158.7c1.41-2.5,6.76-4.09,10.08-2.23,3.83,2.16,4.95,4.31,3.87,8.24-1,3.66-1.41,5.63,1.29,9.34,2.26,3.1,8.85.84,7.25-3.45-.57-1.55-4.15-2.94-5.13-1.34-.64,1.05.92,3.34,2.06,3-1.06-.46-2.52.89-3.26-2.38-.46-2,1.86-2.93,3.28-3.16,6.67-1.05,6.93,7.92,2.08,10.93-6.48,4-14.19-.54-18.44-4.65S247.75,161.21,249.16,158.7Z" class="cls-24"/><path data-cppathid="10062" transform="translate(71.37 32.76)" d="M246.43,184.71s-26,.49-42.07,18.23a153.41,153.41,0,0,1-1.65-21" class="cls-29"/><polygon data-cppathid="10063" points="277.72 241.77 273.33 243.91 272.14 241.43 274.78 238.59 277.72 241.77" class="cls-30"/><polyline data-cppathid="10064" points="269.52 247.4 272.38 245.84 273.29 246.54" class="cls-31"/><path data-cppathid="10065" transform="translate(71.37 32.76)" d="M202.24,203s.16-1.53,2.27-1.51c1.93.48,3.7,3.47,2.77,6.19-1.05,3.07-4.15,1.34-4.15,1.34l-.95,4.82-.11.05-1-.84Z" class="cls-32"/><path data-cppathid="10066" transform="translate(71.37 32.76)" d="M199.21,203.81s3-2.58,5-2.33l.28.05c-2.11,0-2.27,1.51-2.27,1.51L201,213.09l1,.84-2.95,1.46-1.23-.84Z" class="cls-33"/><line data-cppathid="10067" y2="240.26" x2="272.49" y1="241.34" x1="270.43" class="cls-34"/><polygon data-cppathid="10068" points="272.38 245.84 273.44 246.69 270.49 248.15 269.25 247.31 272.38 245.84" class="cls-35"/><line data-cppathid="10069" y2="246.67" x2="272.3" y1="247.49" x1="270.38" class="cls-36"/><path data-cppathid="10070" transform="translate(71.37 32.76)" d="M215.63,190.86s-29.94-12.39-33.87-15.7-2.87-6.67-6.95-6.63,1.55,2.29,0,3.33-5-.34-5.65-.84-2.84-1-2.67,0,3,3.17,3,3.17-5.19-1-4.76-.17a18.19,18.19,0,0,0,3.14,2.89s-3.55,1-2.38,1.72a12.24,12.24,0,0,0,3.67,1.07s8.17.87,10.41,2.59C192.15,192,205.06,196.15,212,199.2s1.3.1,1.3.1,7.29-3.1,5.89-4.94A21.7,21.7,0,0,0,215.63,190.86Z" class="cls-25"/><path data-cppathid="10071" transform="translate(71.37 32.76)" d="M208.41,200.19l1.88.59c15.66,4.9,22.67-5.95,18.89-8.32-1.31-.82-7.71-3.37-15.75-6.33C210.66,188.35,207.58,194.24,208.41,200.19Z" class="cls-3"/></g></g></g></svg>