<?xml version="1.0" encoding="UTF-8"?>
<svg xmlns="http://www.w3.org/2000/svg" onmouseup="{ if(window.parent.document.onmouseup) window.parent.document.onmouseup(arguments[0]);}" viewBox="0 0 423.75 421.11" data-name="Backlog Refinement" id="Backlog_Refinement" xmlns:xlink="http://www.w3.org/1999/xlink"><defs><style>.cls-1{fill:#606060;}.cls-2{stroke:#545454;stroke-linecap:round;stroke-linejoin:round;stroke-width:3px;fill:url(#linear-gradient);}.cls-3{fill:#231f20;}.cls-4{fill:#fff;}.cls-5,.cls-6,.cls-7{fill:#50a1d3;}.cls-6{opacity:0.68;}.cls-7{opacity:0.32;}</style><linearGradient gradientUnits="userSpaceOnUse" y2="74.65" x2="80.75" y1="407.69" x1="80.75" id="linear-gradient"><stop stop-color="#5ed000" offset="0"/><stop stop-color="#ff0f00" offset="1"/></linearGradient></defs><g data-name="jp copy" id="jp_copy"><path data-cppathid="10000" transform="translate(-1471.01 -928.33)" d="M1473.09,951.52a7.64,7.64,0,0,0-2.08-2q2.19-2.73,3.17-4.16a22.63,22.63,0,0,0,2.52-4.59,50.48,50.48,0,0,0,2.3-7.22l3,1a57.23,57.23,0,0,1-3.94,10.06A32.21,32.21,0,0,1,1473.09,951.52Zm12.47-17.29,2.29-1.31a86.75,86.75,0,0,1,4.93,8.31,35.84,35.84,0,0,1,2,4.27l1.31,3.94-2.85,1.2q-.87-3.39-1.64-5.47a32.11,32.11,0,0,0-2-3.94c-.21-.43-.76-1.43-1.64-3S1486.29,935.33,1485.56,934.23Zm8.53.55-1.31,1.31-3.07-3,1.32-1.31a13.59,13.59,0,0,1,1.58,1.31A12.28,12.28,0,0,1,1494.09,934.78Zm-1.86-3.94,1.31-1.42a29.74,29.74,0,0,1,3.06,2.74l-1.31,1.42A29.74,29.74,0,0,0,1492.23,930.84Z" class="cls-1"/><path data-cppathid="10001" transform="translate(-1471.01 -928.33)" d="M1498.57,938.83l2.08-1.1c.37.73.78,1.52,1.26,2.36s1,1.76,1.48,2.78l-2.19,1.1A36.8,36.8,0,0,0,1498.57,938.83Zm4,15.64a6.29,6.29,0,0,0-1.31-2.19,24.13,24.13,0,0,0,6.12-2.84,14.27,14.27,0,0,0,3.83-4.16,36.25,36.25,0,0,0,3.06-8.31l2.52.87a50,50,0,0,1-3.06,7.88,16.76,16.76,0,0,1-3.72,4.59A20.58,20.58,0,0,1,1502.62,954.47Zm1.53-17.28,2.19-1q1.53,3.28,2.3,5.25l-2.08,1A45.61,45.61,0,0,0,1504.15,937.19Z" class="cls-1"/><path data-cppathid="10002" transform="translate(-1471.01 -928.33)" d="M1531.28,930.62l-1.86,3.5h8.2l.44-.21,1.75,1.86q-2.52,5.79-3.17,6.89a18.13,18.13,0,0,1-3.07,4,20.3,20.3,0,0,1-4.59,3.61,36.17,36.17,0,0,1-6.56,2.74,7.37,7.37,0,0,0-1.64-2.52,39.32,39.32,0,0,0,5.79-2.08,15.21,15.21,0,0,0,4.27-3,21.05,21.05,0,0,0,3.17-3.94,44.36,44.36,0,0,0,2.3-5.14h-8.1a33.12,33.12,0,0,1-3.17,4.27,25.43,25.43,0,0,1-3.72,3.61c-.36-.44-.62-.73-.76-.88a5.76,5.76,0,0,0-1.31-1,23.74,23.74,0,0,0,3-2.63c.58-.65,1.38-1.64,2.4-2.95a32.59,32.59,0,0,0,2.19-3.83,24.72,24.72,0,0,0,1.53-3.5Z" class="cls-1"/><path data-cppathid="10003" transform="translate(-1471.01 -928.33)" d="M1543.42,951.41V932.48H1562v18.71h-3v-1.75h-12.69v2Zm15.64-4.49V935h-12.69v11.92Z" class="cls-1"/><path data-cppathid="10004" transform="translate(-1471.01 -928.33)" d="M1575.9,934.34h8.1l.43-.11,1.75,1.64a43,43,0,0,1-3.28,7.22,21.92,21.92,0,0,1-3.39,4.38,25.13,25.13,0,0,1-4.7,3.39,22.73,22.73,0,0,1-6,2.51,9.75,9.75,0,0,1-.44-1.09l-1.2-1.42a31.63,31.63,0,0,0,5.69-2,15.21,15.21,0,0,0,4.26-2.95,19.42,19.42,0,0,0,3.29-3.83c.8-1.6,1.6-3.43,2.4-5.47h-8.09a36.59,36.59,0,0,1-6.78,8,2.92,2.92,0,0,0-1-1,13.07,13.07,0,0,0-1.42-.87,28.5,28.5,0,0,0,5.14-5.15,44.39,44.39,0,0,0,4-7.65l2.84,1.09a2.36,2.36,0,0,1-.22.39,5.31,5.31,0,0,0-.32.6c-.15.29-.3.6-.44.93S1576.19,933.76,1575.9,934.34Zm7.77-2.18,1.31-1.32c1.53,1.32,2.55,2.23,3.06,2.74l-1.31,1.31Q1586,934.13,1583.67,932.16Zm7-1.1-1.53,1.42c-1.61-1.6-2.59-2.55-3-2.84l1.21-1.31C1589.06,929.64,1590.16,930.55,1590.67,931.06Z" class="cls-1"/><path data-cppathid="10005" transform="translate(-1471.01 -928.33)" d="M1593.29,944.84V931.06h3v13.78Zm3.61,8.86a11.43,11.43,0,0,0-1.42-2.62,23.24,23.24,0,0,0,4.48-1.53,7,7,0,0,0,2.63-2,6.34,6.34,0,0,0,1.64-2.63,28.56,28.56,0,0,0,.55-6.12v-9h2.84v9.73q0,5.91-2.08,9T1596.9,953.7Z" class="cls-1"/><path data-cppathid="10006" transform="translate(-1471.01 -928.33)" d="M1611.67,932.16h18.15l.33-.11,1.86,1.64q-1.86,4.92-2.62,6.78a23.67,23.67,0,0,1-3.07,4.7,25.15,25.15,0,0,1-4.59,4.16,30,30,0,0,1-7.33,3.5,7.62,7.62,0,0,0-.44-1.42,8.07,8.07,0,0,0-.76-1.32,24.75,24.75,0,0,0,5.9-2.51,21.06,21.06,0,0,0,5.58-4.71,29.65,29.65,0,0,0,3.94-8.09h-16.95Z" class="cls-1"/><path data-cppathid="10007" transform="translate(-1471.01 -928.33)" d="M1634.64,938.61v-2.3h15.86l1.53,1.86-3.83,3.61c-.73.66-1.82,1.53-3.28,2.63l-.77-1a22,22,0,0,1-.76,5,10,10,0,0,1-2.19,3.17,12.89,12.89,0,0,1-4.49,2.52,4.58,4.58,0,0,0-.27-.66,4.06,4.06,0,0,1-.27-.65,9.85,9.85,0,0,1-.88-1,11.54,11.54,0,0,0,3.5-1.42,5.18,5.18,0,0,0,2.41-3.5,11.27,11.27,0,0,0,.33-2.95v-2.74h2.62v1.1q.33-.33,4-3.72Z" class="cls-1"/><path data-cppathid="10008" transform="translate(-1471.01 -928.33)" d="M1670.84,935.77l-2.3,2.07v15.53h-3V940.14a42.06,42.06,0,0,1-5.14,3.5q-3.29,1.86-5,2.63a9.28,9.28,0,0,0-1.42-2.63,40.63,40.63,0,0,0,6.89-3.61,39.5,39.5,0,0,0,5.9-4.48,52.6,52.6,0,0,0,5.8-6.13l2.41,2.08Z" class="cls-1"/><path data-cppathid="10009" transform="translate(-1471.01 -928.33)" d="M1697.75,935.44a5.19,5.19,0,0,0,.87,1.09,4.73,4.73,0,0,0,1.2,1,59.4,59.4,0,0,1-5.57,6.12,50.32,50.32,0,0,1-6.24,4.81,77,77,0,0,1-8.53,4.49l-1.53-3.07a32.63,32.63,0,0,0,5.47-2.18,49.21,49.21,0,0,0,5.36-3.17,42.31,42.31,0,0,0,4.59-3.94A42.79,42.79,0,0,0,1697.75,935.44Zm-11.38.11-2,2.29c-1.6-1.45-2.7-2.4-3.28-2.84a5.46,5.46,0,0,0-.77-.6c-.36-.26-.76-.53-1.2-.82s-.8-.55-1.09-.77l1.75-2.19a22,22,0,0,1,2.13,1.32c.62.43,1,.73,1.26.87A41.45,41.45,0,0,1,1686.37,935.55Z" class="cls-1"/><path data-cppathid="10010" transform="translate(-1471.01 -928.33)" d="M1716.56,940a69.85,69.85,0,0,1,5.9,4.38l-2.18,2.4c-.22-.22-1.21-1.13-3-2.73l-2.07-1.64a31.67,31.67,0,0,1-3.29,4.15,17.93,17.93,0,0,1-3.28,3q-1,.76-5,3.17a12.86,12.86,0,0,0-1.86-2.41,30,30,0,0,0,4.49-2.4,21.73,21.73,0,0,0,3.5-2.85,23.83,23.83,0,0,0,3.17-4.15,52.19,52.19,0,0,0-6.78-3.18l1.31-2.29,6.78,3.17a37.53,37.53,0,0,0,1.53-3.5c.59-1.53,1.13-3.17,1.64-4.92l3,1A78.6,78.6,0,0,1,1716.56,940Z" class="cls-1"/><path data-cppathid="10011" transform="translate(-1471.01 -928.33)" d="M1745,935.44a5.19,5.19,0,0,0,.87,1.09,4.73,4.73,0,0,0,1.2,1,59.4,59.4,0,0,1-5.57,6.12,50.32,50.32,0,0,1-6.24,4.81,77,77,0,0,1-8.53,4.49l-1.53-3.07a32.63,32.63,0,0,0,5.47-2.18,49.21,49.21,0,0,0,5.36-3.17,42.31,42.31,0,0,0,4.59-3.94A42.79,42.79,0,0,0,1745,935.44Zm-11.38.11-2,2.29c-1.6-1.45-2.7-2.4-3.28-2.84a5.46,5.46,0,0,0-.77-.6c-.36-.26-.76-.53-1.2-.82s-.8-.55-1.09-.77l1.75-2.19a22,22,0,0,1,2.13,1.32c.62.43,1,.73,1.26.87A41.45,41.45,0,0,1,1733.62,935.55Z" class="cls-1"/><path data-cppathid="10012" transform="translate(-1471.01 -928.33)" d="M1750.25,953.59V929.31h3.06v7.77q4.92,1.75,6.34,2.4,1.2.56,5.58,2.85l-1.64,2.73q-2.52-1.63-5.25-3.06a41.1,41.1,0,0,0-5-2v13.56Z" class="cls-1"/><g data-name="priority arrows" id="priority_arrows"><polygon data-cppathid="10013" points="122.75 117.17 142.27 117.17 80.75 74.65 19.23 117.17 38.75 117.17 38.75 365.17 19.23 365.17 80.75 407.69 142.27 365.17 122.75 365.17 122.75 117.17" class="cls-2"/><path data-cppathid="10014" transform="translate(-1471.01 -928.33)" d="M1519.76,1036.37a20.5,20.5,0,0,1-1.89,2.88,10.76,10.76,0,0,0-.6-1.17,24.51,24.51,0,0,0,4-8.12l1.42.45c-.06.13-.18.2-.42.2a34,34,0,0,1-1.38,3.56l.41.13c0,.13-.12.2-.34.23v12.07h-1.17Zm12.15,5.38.85.44a.49.49,0,0,1-.2.16,8.06,8.06,0,0,1-3,2.32,23.44,23.44,0,0,0,5,1,4.27,4.27,0,0,0-.69,1,20.85,20.85,0,0,1-5.67-1.4,25.26,25.26,0,0,1-5.78,1.35,5.24,5.24,0,0,0-.61-.92,27.67,27.67,0,0,0,5.15-1,8.62,8.62,0,0,1-2.06-1.55,16.27,16.27,0,0,1-2.25,1.12,3,3,0,0,0-.72-.75,12.81,12.81,0,0,0,4.42-2.58c-.54-.13-.71-.43-.71-1.08v-1.19l1.35.09c0,.11-.1.2-.34.22v.88c0,.32.11.4.76.4h2.32c.45,0,.54-.09.61-.85a3.7,3.7,0,0,0,.85.29c-.09,1-.4,1.31-1.3,1.31h-2a.56.56,0,0,1-.3.11c-.24.23-.51.49-.8.72h4.85Zm-7.85-9.11h3.19a9.27,9.27,0,0,0,.27-1h-4.83v-1h11.49v1h-5.42c-.09.28-.21.64-.34,1h4.21v4.61h1.75v2.45h-1.12v-1.62h-4.91a7.43,7.43,0,0,1,1.29,1l-.73.56a8.22,8.22,0,0,0-1.93-1.44l.18-.13h-3.85v1.62h-1.08v-2.45h1.83Zm1.35,6.49a7.12,7.12,0,0,1-2,2.07l-.77-.65a5.74,5.74,0,0,0,1.95-1.87Zm6.09-4.92v-.83h-6.32v.83Zm0,1.53v-.85h-6.32v.85Zm-6.32,1.51h6.32v-.84h-6.32Zm.68,5.37a8,8,0,0,0,2.43,1.55,8.43,8.43,0,0,0,2.56-1.55Zm7.3-1.39a11,11,0,0,0-2.13-2.16l.81-.47a10.6,10.6,0,0,1,2.16,2.11Z" class="cls-3"/><path data-cppathid="10015" transform="translate(-1471.01 -928.33)" d="M1542.49,1039.34c0,.13-.14.22-.37.24-.47,3.17-1.35,5.67-5.57,7a3.78,3.78,0,0,0-.74-1c3.93-1.11,4.79-3.34,5.1-6.39Zm4.51,5.15c0,.54.12.63.84.63h2.45c.7,0,.83-.38.9-2.79a3.08,3.08,0,0,0,1.12.5c-.15,2.76-.49,3.44-1.91,3.44h-2.68c-1.55,0-2-.37-2-1.8V1039H1536v-1.19h7.38v-3.82h-3.9a14,14,0,0,1-1.64,2.85,7.61,7.61,0,0,0-1-.58,15.94,15.94,0,0,0,2.65-5.91l1.53.36c0,.13-.16.18-.4.18a18.65,18.65,0,0,1-.63,1.93h3.44v-2.92l1.59.09c0,.15-.13.24-.36.26v2.57h6.1v1.17h-6.1v3.82h7.4V1039h-5Z" class="cls-3"/><path data-cppathid="10016" transform="translate(-1471.01 -928.33)" d="M1555.63,1037.76c0,3.35-.14,6.28-1.38,8.77a5.17,5.17,0,0,0-.83-.72c1.06-2.31,1.19-5,1.19-8v-7.26l1.37.09c0,.11-.11.2-.35.24Zm1.46,6.19V1031.8l1.24.09c0,.11-.09.18-.3.21V1044Zm2.5-13.5,1.37.09c0,.11-.1.2-.34.23V1046h-1Zm5.66,13.79a.61.61,0,0,1-.34.13,12,12,0,0,1-3.37,2.23,4.55,4.55,0,0,0-.78-.81,11,11,0,0,0,3.34-2.18Zm-3-10.55h2.61c.14-.58.31-1.28.41-1.87h-3.78v-1.08h8.92v1.08h-3.91c-.13.54-.33,1.24-.52,1.87h3.81v9.47h-7.54Zm6.37,2.84v-1.89h-5.25v1.89Zm0,2.81v-1.89h-5.25v1.89Zm0,2.87v-1.93h-5.25v1.93Zm1.1,4.42a19.63,19.63,0,0,0-3-2.37l.9-.61a19.2,19.2,0,0,1,3.06,2.3Z" class="cls-3"/><path data-cppathid="10017" transform="translate(-1471.01 -928.33)" d="M1574.1,1036.21a21.27,21.27,0,0,1-2.2,3,8.09,8.09,0,0,0-.63-1.14,24.07,24.07,0,0,0,4.51-8.1l1.44.49a.4.4,0,0,1-.42.16,32.39,32.39,0,0,1-1.65,3.72l.48.13c0,.11-.12.2-.36.22v11.93h-1.17Zm2.29,8.34h12.08v1.17h-12.08Zm.45-11.06h4.84v-3.6l1.57.09c0,.14-.11.22-.36.25v3.26H1588v1.17h-11.16Zm2.5,2.4a44.75,44.75,0,0,1,1.53,7.41l-1.2.26a46.34,46.34,0,0,0-1.43-7.48Zm7.56.3c0,.13-.19.22-.41.22a60.82,60.82,0,0,1-2,7.25s-1-.32-1-.34a53.87,53.87,0,0,0,1.92-7.54Z" class="cls-3"/><path data-cppathid="10018" transform="translate(-1471.01 -928.33)" d="M1553.55,1048.62H1561v1.08h-15.91v-1.08h7.25v-1.78l1.59.1c0,.13-.11.22-.36.26Zm6.68,7.09v6.36c0,.7-.16,1.08-.72,1.28a12.28,12.28,0,0,1-3.12.19,4.74,4.74,0,0,0-.39-1.15c.73,0,1.4,0,1.89,0,1,0,1.13,0,1.13-.38v-5.28h-11.9v6.81h-1.19v-7.87Zm-12.08-4.93h9.79v3.73h-9.79Zm8.57,2.81v-1.89h-7.4v1.89Zm-.2,8.26h-5.87v1h-1.1V1058h7Zm-1.1-2.91h-4.77v2h4.77Z" class="cls-3"/><path data-cppathid="10019" transform="translate(-1471.01 -928.33)" d="M1518.76,1035.37a20.5,20.5,0,0,1-1.89,2.88,10.76,10.76,0,0,0-.6-1.17,24.51,24.51,0,0,0,4-8.12l1.42.45c-.06.13-.18.2-.42.2a34,34,0,0,1-1.38,3.56l.41.13c0,.13-.12.2-.34.23v12.07h-1.17Zm12.15,5.38.85.44a.49.49,0,0,1-.2.16,8.06,8.06,0,0,1-3,2.32,23.44,23.44,0,0,0,5,1,4.27,4.27,0,0,0-.69,1,20.85,20.85,0,0,1-5.67-1.4,25.26,25.26,0,0,1-5.78,1.35,5.24,5.24,0,0,0-.61-.92,27.67,27.67,0,0,0,5.15-1,8.62,8.62,0,0,1-2.06-1.55,16.27,16.27,0,0,1-2.25,1.12,3,3,0,0,0-.72-.75,12.81,12.81,0,0,0,4.42-2.58c-.54-.13-.71-.43-.71-1.08v-1.19l1.35.09c0,.11-.1.2-.34.22v.88c0,.32.11.4.76.4h2.32c.45,0,.54-.09.61-.85a3.7,3.7,0,0,0,.85.29c-.09,1-.4,1.31-1.3,1.31h-2a.56.56,0,0,1-.3.11c-.24.23-.51.49-.8.72h4.85Zm-7.85-9.11h3.19a9.27,9.27,0,0,0,.27-1h-4.83v-1h11.49v1h-5.42c-.09.28-.21.64-.34,1h4.21v4.61h1.75v2.45h-1.12v-1.62h-4.91a7.43,7.43,0,0,1,1.29,1l-.73.56a8.22,8.22,0,0,0-1.93-1.44l.18-.13h-3.85v1.62h-1.08v-2.45h1.83Zm1.35,6.49a7.12,7.12,0,0,1-2,2.07l-.77-.65a5.74,5.74,0,0,0,1.95-1.87Zm6.09-4.92v-.83h-6.32v.83Zm0,1.53v-.85h-6.32v.85Zm-6.32,1.51h6.32v-.84h-6.32Zm.68,5.37a8,8,0,0,0,2.43,1.55,8.43,8.43,0,0,0,2.56-1.55Zm7.3-1.39a11,11,0,0,0-2.13-2.16l.81-.47a10.6,10.6,0,0,1,2.16,2.11Z" class="cls-4"/><path data-cppathid="10020" transform="translate(-1471.01 -928.33)" d="M1541.49,1038.34c0,.13-.14.22-.37.24-.47,3.17-1.35,5.67-5.57,7a3.78,3.78,0,0,0-.74-1c3.93-1.11,4.79-3.34,5.1-6.39Zm4.51,5.15c0,.54.12.63.84.63h2.45c.7,0,.83-.38.9-2.79a3.08,3.08,0,0,0,1.12.5c-.15,2.76-.49,3.44-1.91,3.44h-2.68c-1.55,0-2-.37-2-1.8V1038H1535v-1.19h7.38v-3.82h-3.9a14,14,0,0,1-1.64,2.85,7.61,7.61,0,0,0-1-.58,15.94,15.94,0,0,0,2.65-5.91l1.53.36c0,.13-.16.18-.4.18a18.65,18.65,0,0,1-.63,1.93h3.44v-2.92l1.59.09c0,.15-.13.24-.36.26v2.57h6.1v1.17h-6.1v3.82h7.4V1038h-5Z" class="cls-4"/><path data-cppathid="10021" transform="translate(-1471.01 -928.33)" d="M1554.63,1036.76c0,3.35-.14,6.28-1.38,8.77a5.17,5.17,0,0,0-.83-.72c1.06-2.31,1.19-5,1.19-8v-7.26l1.37.09c0,.11-.11.2-.35.24Zm1.46,6.19V1030.8l1.24.09c0,.11-.09.18-.3.21V1043Zm2.5-13.5,1.37.09c0,.11-.1.2-.34.23V1045h-1Zm5.66,13.79a.61.61,0,0,1-.34.13,12,12,0,0,1-3.37,2.23,4.55,4.55,0,0,0-.78-.81,11,11,0,0,0,3.34-2.18Zm-3-10.55h2.61c.14-.58.31-1.28.41-1.87h-3.78v-1.08h8.92v1.08h-3.91c-.13.54-.33,1.24-.52,1.87h3.81v9.47h-7.54Zm6.37,2.84v-1.89h-5.25v1.89Zm0,2.81v-1.89h-5.25v1.89Zm0,2.87v-1.93h-5.25v1.93Zm1.1,4.42a19.63,19.63,0,0,0-3-2.37l.9-.61a19.2,19.2,0,0,1,3.06,2.3Z" class="cls-4"/><path data-cppathid="10022" transform="translate(-1471.01 -928.33)" d="M1573.1,1035.21a21.27,21.27,0,0,1-2.2,3,8.09,8.09,0,0,0-.63-1.14,24.07,24.07,0,0,0,4.51-8.1l1.44.49a.4.4,0,0,1-.42.16,32.39,32.39,0,0,1-1.65,3.72l.48.13c0,.11-.12.2-.36.22v11.93h-1.17Zm2.29,8.34h12.08v1.17h-12.08Zm.45-11.06h4.84v-3.6l1.57.09c0,.14-.11.22-.36.25v3.26H1587v1.17h-11.16Zm2.5,2.4a44.75,44.75,0,0,1,1.53,7.41l-1.2.26a46.34,46.34,0,0,0-1.43-7.48Zm7.56.3c0,.13-.19.22-.41.22a60.82,60.82,0,0,1-2,7.25s-1-.32-1-.34a53.87,53.87,0,0,0,1.92-7.54Z" class="cls-4"/><path data-cppathid="10023" transform="translate(-1471.01 -928.33)" d="M1552.55,1047.62H1560v1.08h-15.91v-1.08h7.25v-1.78l1.59.1c0,.13-.11.22-.36.26Zm6.68,7.09v6.36c0,.7-.16,1.08-.72,1.28a12.28,12.28,0,0,1-3.12.19,4.74,4.74,0,0,0-.39-1.15c.73,0,1.4,0,1.89,0,1,0,1.13,0,1.13-.38v-5.28h-11.9v6.81h-1.19v-7.87Zm-12.08-4.93h9.79v3.73h-9.79Zm8.57,2.81v-1.89h-7.4v1.89Zm-.2,8.26h-5.87v1h-1.1V1057h7Zm-1.1-2.91h-4.77v2h4.77Z" class="cls-4"/><path data-cppathid="10024" transform="translate(-1471.01 -928.33)" d="M1518.53,1275.74a20.5,20.5,0,0,1-1.89,2.88,9.16,9.16,0,0,0-.59-1.17,24.61,24.61,0,0,0,4-8.12l1.42.45c0,.13-.18.2-.41.2a37.48,37.48,0,0,1-1.39,3.56l.42.13c0,.12-.13.2-.35.23V1286h-1.17Zm12.16,5.38.84.43a.58.58,0,0,1-.19.17,8.12,8.12,0,0,1-3,2.32,23.08,23.08,0,0,0,5,1,4.28,4.28,0,0,0-.68,1,20.92,20.92,0,0,1-5.68-1.4,25.26,25.26,0,0,1-5.78,1.35,4.32,4.32,0,0,0-.61-.92,27.67,27.67,0,0,0,5.15-1,8.56,8.56,0,0,1-2-1.55,16.85,16.85,0,0,1-2.25,1.12,3.47,3.47,0,0,0-.72-.76,12.69,12.69,0,0,0,4.41-2.57c-.54-.13-.7-.43-.7-1.08V1278l1.35.09c0,.11-.11.2-.34.22v.88c0,.32.1.39.75.39h2.32c.45,0,.54-.09.62-.84a4.59,4.59,0,0,0,.84.29c-.09,1-.39,1.31-1.29,1.31h-2a.75.75,0,0,1-.31.11c-.23.23-.5.48-.79.72h4.84Zm-7.85-9.11H1526a8.85,8.85,0,0,0,.27-1h-4.82v-1H1533v1h-5.42c-.09.29-.22.65-.35,1h4.22v4.61h1.74v2.45H1532v-1.62h-4.92a7.09,7.09,0,0,1,1.3,1l-.74.56a7.76,7.76,0,0,0-1.93-1.44l.18-.13h-3.85v1.62H1521v-2.45h1.84Zm1.35,6.48a7,7,0,0,1-2,2.07l-.78-.64a5.59,5.59,0,0,0,1.95-1.88Zm6.08-4.91v-.83H1524v.83Zm0,1.53v-.85H1524v.85Zm-6.32,1.51h6.32v-.84H1524Zm.69,5.37a7.87,7.87,0,0,0,2.43,1.55,8.78,8.78,0,0,0,2.55-1.55Zm7.29-1.39a10.77,10.77,0,0,0-2.13-2.16l.81-.47a10.67,10.67,0,0,1,2.17,2.11Z" class="cls-3"/><path data-cppathid="10025" transform="translate(-1471.01 -928.33)" d="M1541.27,1278.71c0,.13-.15.22-.38.23-.47,3.17-1.35,5.68-5.56,7a4.07,4.07,0,0,0-.74-1c3.92-1.11,4.79-3.35,5.09-6.39Zm4.5,5.15c0,.54.13.63.85.63h2.44c.71,0,.83-.38.91-2.79a3.4,3.4,0,0,0,1.11.5c-.14,2.76-.48,3.44-1.91,3.44h-2.68c-1.55,0-1.94-.38-1.94-1.8v-5.53h-9.75v-1.18h7.39v-3.82h-3.91a13.64,13.64,0,0,1-1.64,2.84,7,7,0,0,0-1-.57,15.92,15.92,0,0,0,2.64-5.91l1.53.36c0,.13-.16.18-.39.18a19.47,19.47,0,0,1-.63,1.93h3.44v-2.92l1.58.09c0,.15-.12.23-.36.25v2.58h6.11v1.17h-6.11v3.82h7.4v1.18h-5Z" class="cls-3"/><path data-cppathid="10026" transform="translate(-1471.01 -928.33)" d="M1554.41,1277.13c0,3.34-.15,6.28-1.39,8.76a6.4,6.4,0,0,0-.83-.72c1.06-2.3,1.19-5,1.19-8v-7.26l1.37.09c0,.11-.11.2-.34.23Zm1.46,6.19v-12.15l1.24.09c0,.1-.09.18-.31.21v11.85Zm2.5-13.5,1.37.09c0,.1-.11.19-.35.23v15.18h-1Zm5.65,13.79a.52.52,0,0,1-.34.12,11.5,11.5,0,0,1-3.37,2.24,4.86,4.86,0,0,0-.77-.81,11.31,11.31,0,0,0,3.33-2.18Zm-3-10.55h2.61c.15-.58.31-1.28.42-1.88h-3.78v-1.08h8.91v1.08h-3.91c-.12.54-.32,1.25-.52,1.88h3.82v9.47H1561Zm6.38,2.84V1274h-5.26v1.89Zm0,2.81v-1.89h-5.26v1.89Zm0,2.86v-1.92h-5.26v1.92Zm1.1,4.43a20.39,20.39,0,0,0-3-2.38l.9-.61a18.35,18.35,0,0,1,3.06,2.31Z" class="cls-3"/><path data-cppathid="10027" transform="translate(-1471.01 -928.33)" d="M1572.88,1275.58a21.36,21.36,0,0,1-2.2,3,9.92,9.92,0,0,0-.63-1.13,23.88,23.88,0,0,0,4.5-8.1l1.44.48c-.07.13-.2.18-.41.17a32.46,32.46,0,0,1-1.66,3.72l.49.13c0,.11-.13.2-.36.21V1286h-1.17Zm2.28,8.33h12.08v1.17h-12.08Zm.45-11.05h4.85v-3.6l1.56.09c0,.14-.11.21-.36.25v3.26h5.12V1274h-11.17Zm2.5,2.39a45,45,0,0,1,1.54,7.42l-1.21.25a47.23,47.23,0,0,0-1.42-7.47Zm7.57.31c0,.13-.2.22-.42.22a61.89,61.89,0,0,1-2,7.25s-1-.32-1-.34a55.42,55.42,0,0,0,1.93-7.55Z" class="cls-3"/><path data-cppathid="10028" transform="translate(-1471.01 -928.33)" d="M1545.68,1292.63a20.93,20.93,0,0,1-2.06,2.95,9.75,9.75,0,0,0-.63-1.13,24.48,24.48,0,0,0,4.29-8.12l1.42.47c0,.12-.18.2-.39.18a33.69,33.69,0,0,1-1.52,3.56l.42.13c0,.11-.13.2-.36.23V1303h-1.17Zm14.47,1.14h-4.21c.56,4,1.71,7.23,2.92,7.25.41,0,.59-.75.66-2.54a3.09,3.09,0,0,0,1,.63c-.22,2.42-.65,3.12-1.75,3.12-2,0-3.39-3.73-4-8.46h-4.21v5l4.47-.8,0,1c-2.29.49-4.65,1-6.19,1.28a.3.3,0,0,1-.24.25l-.52-1.37,1.24-.19v-10.72l.7.24a47.89,47.89,0,0,0,8.27-1.59l1,1a.27.27,0,0,1-.19.06.5.5,0,0,1-.17,0c-.83.25-1.91.49-3.08.72a.42.42,0,0,1-.32.14,36.08,36.08,0,0,0,.23,3.93h4.34Zm-11.52,8.67v-1.09h7.87v1.09Zm1.89-9.79h4.09c-.15-1.23-.22-2.52-.25-3.8-1.26.2-2.6.38-3.84.52Z" class="cls-3"/><path data-cppathid="10029" transform="translate(-1471.01 -928.33)" d="M1517.53,1274.74a20.5,20.5,0,0,1-1.89,2.88,9.16,9.16,0,0,0-.59-1.17,24.61,24.61,0,0,0,4-8.12l1.42.45c0,.13-.18.2-.41.2a37.48,37.48,0,0,1-1.39,3.56l.42.13c0,.12-.13.2-.35.23V1285h-1.17Zm12.16,5.38.84.43a.58.58,0,0,1-.19.17,8.12,8.12,0,0,1-3,2.32,23.08,23.08,0,0,0,5,1,4.28,4.28,0,0,0-.68,1,20.92,20.92,0,0,1-5.68-1.4,25.26,25.26,0,0,1-5.78,1.35,4.32,4.32,0,0,0-.61-.92,27.67,27.67,0,0,0,5.15-1,8.56,8.56,0,0,1-2-1.55,16.85,16.85,0,0,1-2.25,1.12,3.47,3.47,0,0,0-.72-.76,12.69,12.69,0,0,0,4.41-2.57c-.54-.13-.7-.43-.7-1.08V1277l1.35.09c0,.11-.11.2-.34.22v.88c0,.32.1.39.75.39h2.32c.45,0,.54-.09.62-.84a4.59,4.59,0,0,0,.84.29c-.09,1-.39,1.31-1.29,1.31h-2a.75.75,0,0,1-.31.11c-.23.23-.5.48-.79.72h4.84Zm-7.85-9.11H1525a8.85,8.85,0,0,0,.27-1h-4.82v-1H1532v1h-5.42c-.09.29-.22.65-.35,1h4.22v4.61h1.74v2.45H1531v-1.62h-4.92a7.09,7.09,0,0,1,1.3,1l-.74.56a7.76,7.76,0,0,0-1.93-1.44l.18-.13h-3.85v1.62H1520v-2.45h1.84Zm1.35,6.48a7,7,0,0,1-2,2.07l-.78-.64a5.59,5.59,0,0,0,1.95-1.88Zm6.08-4.91v-.83H1523v.83Zm0,1.53v-.85H1523v.85Zm-6.32,1.51h6.32v-.84H1523Zm.69,5.37a7.87,7.87,0,0,0,2.43,1.55,8.78,8.78,0,0,0,2.55-1.55Zm7.29-1.39a10.77,10.77,0,0,0-2.13-2.16l.81-.47a10.67,10.67,0,0,1,2.17,2.11Z" class="cls-4"/><path data-cppathid="10030" transform="translate(-1471.01 -928.33)" d="M1540.27,1277.71c0,.13-.15.22-.38.23-.47,3.17-1.35,5.68-5.56,7a4.07,4.07,0,0,0-.74-1c3.92-1.11,4.79-3.35,5.09-6.39Zm4.5,5.15c0,.54.13.63.85.63h2.44c.71,0,.83-.38.91-2.79a3.4,3.4,0,0,0,1.11.5c-.14,2.76-.48,3.44-1.91,3.44h-2.68c-1.55,0-1.94-.38-1.94-1.8v-5.53h-9.75v-1.18h7.39v-3.82h-3.91a13.64,13.64,0,0,1-1.64,2.84,7,7,0,0,0-1-.57,15.92,15.92,0,0,0,2.64-5.91l1.53.36c0,.13-.16.18-.39.18a19.47,19.47,0,0,1-.63,1.93h3.44v-2.92l1.58.09c0,.15-.12.23-.36.25v2.58h6.11v1.17h-6.11v3.82h7.4v1.18h-5Z" class="cls-4"/><path data-cppathid="10031" transform="translate(-1471.01 -928.33)" d="M1553.41,1276.13c0,3.34-.15,6.28-1.39,8.76a6.4,6.4,0,0,0-.83-.72c1.06-2.3,1.19-5,1.19-8v-7.26l1.37.09c0,.11-.11.2-.34.23Zm1.46,6.19v-12.15l1.24.09c0,.1-.09.18-.31.21v11.85Zm2.5-13.5,1.37.09c0,.1-.11.19-.35.23v15.18h-1Zm5.65,13.79a.52.52,0,0,1-.34.12,11.5,11.5,0,0,1-3.37,2.24,4.86,4.86,0,0,0-.77-.81,11.31,11.31,0,0,0,3.33-2.18Zm-3-10.55h2.61c.15-.58.31-1.28.42-1.88h-3.78v-1.08h8.91v1.08h-3.91c-.12.54-.32,1.25-.52,1.88h3.82v9.47H1560Zm6.38,2.84V1273h-5.26v1.89Zm0,2.81v-1.89h-5.26v1.89Zm0,2.86v-1.92h-5.26v1.92Zm1.1,4.43a20.39,20.39,0,0,0-3-2.38l.9-.61a18.35,18.35,0,0,1,3.06,2.31Z" class="cls-4"/><path data-cppathid="10032" transform="translate(-1471.01 -928.33)" d="M1571.88,1274.58a21.36,21.36,0,0,1-2.2,3,9.92,9.92,0,0,0-.63-1.13,23.88,23.88,0,0,0,4.5-8.1l1.44.48c-.07.13-.2.18-.41.17a32.46,32.46,0,0,1-1.66,3.72l.49.13c0,.11-.13.2-.36.21V1285h-1.17Zm2.28,8.33h12.08v1.17h-12.08Zm.45-11.05h4.85v-3.6l1.56.09c0,.14-.11.21-.36.25v3.26h5.12V1273h-11.17Zm2.5,2.39a45,45,0,0,1,1.54,7.42l-1.21.25a47.23,47.23,0,0,0-1.42-7.47Zm7.57.31c0,.13-.2.22-.42.22a61.89,61.89,0,0,1-2,7.25s-1-.32-1-.34a55.42,55.42,0,0,0,1.93-7.55Z" class="cls-4"/><path data-cppathid="10033" transform="translate(-1471.01 -928.33)" d="M1544.68,1291.63a20.93,20.93,0,0,1-2.06,2.95,9.75,9.75,0,0,0-.63-1.13,24.48,24.48,0,0,0,4.29-8.12l1.42.47c0,.12-.18.2-.39.18a33.69,33.69,0,0,1-1.52,3.56l.42.13c0,.11-.13.2-.36.23V1302h-1.17Zm14.47,1.14h-4.21c.56,4,1.71,7.23,2.92,7.25.41,0,.59-.75.66-2.54a3.09,3.09,0,0,0,1,.63c-.22,2.42-.65,3.12-1.75,3.12-2,0-3.39-3.73-4-8.46h-4.21v5l4.47-.8,0,1c-2.29.49-4.65,1-6.19,1.28a.3.3,0,0,1-.24.25l-.52-1.37,1.24-.19v-10.72l.7.24a47.89,47.89,0,0,0,8.27-1.59l1,1a.27.27,0,0,1-.19.06.5.5,0,0,1-.17,0c-.83.25-1.91.49-3.08.72a.42.42,0,0,1-.32.14,36.08,36.08,0,0,0,.23,3.93h4.34Zm-11.52,8.67v-1.09h7.87v1.09Zm1.89-9.79h4.09c-.15-1.23-.22-2.52-.25-3.8-1.26.2-2.6.38-3.84.52Z" class="cls-4"/></g><g id="PBIs"><rect data-cppathid="10034" rx="5.67" height="42.85" width="171" y="123.09" x="252.75" class="cls-5"/><rect data-cppathid="10035" rx="5.67" height="42.85" width="171" y="75.32" x="252.75" class="cls-5"/><rect data-cppathid="10036" rx="5.67" height="42.85" width="171" y="170.85" x="252.75" class="cls-5"/><rect data-cppathid="10037" rx="5.67" height="42.85" width="171" y="218.62" x="252.75" class="cls-5"/><rect data-cppathid="10038" rx="5.67" height="42.85" width="171" y="266.39" x="252.75" class="cls-5"/><rect data-cppathid="10039" rx="4.75" height="35.89" width="143.25" y="317.15" x="265.02" class="cls-6"/><rect data-cppathid="10040" rx="3.89" height="29.43" width="117.46" y="361.92" x="277.34" class="cls-7"/><path data-cppathid="10041" transform="translate(-1471.01 -928.33)" d="M1733.93,1014.8h7.62l.08,0,.81.62a.27.27,0,0,1-.14.11c-1,4.51-3.06,6.86-6.73,8.25a4.74,4.74,0,0,0-.54-.71,9,9,0,0,0,6.28-7.41h-7.38Zm9.14-2.15a1.32,1.32,0,1,1-1.32,1.32A1.31,1.31,0,0,1,1743.07,1012.65Zm.91,1.32a.92.92,0,0,0-.91-.92.93.93,0,1,0,.91.92Z" class="cls-4"/><path data-cppathid="10042" transform="translate(-1471.01 -928.33)" d="M1754.31,1015v7.92h-.86v-.76h-6.61v.78H1746V1015Zm-.86,6.36v-5.55h-6.61v5.55Z" class="cls-4"/><path data-cppathid="10043" transform="translate(-1471.01 -928.33)" d="M1765.23,1015.44c0,.07-.07.09-.14.13a16.21,16.21,0,0,1-1.74,4c.51.3,1.15.67,1.59,1l-.5.78a15.7,15.7,0,0,0-1.6-1,11,11,0,0,1-4.3,3.6,2.33,2.33,0,0,0-.65-.64,10.75,10.75,0,0,0,4.21-3.39,18.55,18.55,0,0,0-2.69-1.26l.47-.66a22.17,22.17,0,0,1,2.72,1.22A12.36,12.36,0,0,0,1764,1016h-4a12.77,12.77,0,0,1-2.7,3.28,5.38,5.38,0,0,0-.68-.54,12.15,12.15,0,0,0,3.66-5.35l1.12.32a.31.31,0,0,1-.34.16,13.09,13.09,0,0,1-.61,1.33h3.89l.1,0Zm-1.1-2.39a8.94,8.94,0,0,1,1.59,1.68l-.45.37a9.9,9.9,0,0,0-1.58-1.68Zm1.53-.44a9.39,9.39,0,0,1,1.63,1.65l-.46.36a9.08,9.08,0,0,0-1.59-1.64Z" class="cls-4"/><path data-cppathid="10044" transform="translate(-1471.01 -928.33)" d="M1776.67,1015.63a1,1,0,0,1-.18.17c-1.26,3.88-3.23,6.38-6.54,8.06a2.88,2.88,0,0,0-.61-.66,11.32,11.32,0,0,0,6.08-7.1h-4.28a12.33,12.33,0,0,1-2.69,3,4.29,4.29,0,0,0-.68-.55,12.17,12.17,0,0,0,3.82-5.21l1.14.33c0,.12-.19.15-.35.15-.24.53-.49,1-.76,1.51h4.22l.14-.07Z" class="cls-4"/><path data-cppathid="10045" transform="translate(-1471.01 -928.33)" d="M1785.22,1019.73a41.29,41.29,0,0,0-4.21-2v6h-.9v-10.42l1.22.07c0,.13-.11.22-.32.25v3.51l.18-.26a41.26,41.26,0,0,1,4.51,2Z" class="cls-4"/><path data-cppathid="10046" transform="translate(-1471.01 -928.33)" d="M1791.51,1015.22c0,.1-.13.17-.31.18a18,18,0,0,1-2.88,7.69,3.61,3.61,0,0,0-.8-.43,16.38,16.38,0,0,0,2.78-7.69Zm6,7.8a41.37,41.37,0,0,0-3.19-7.73l.78-.37a39,39,0,0,1,3.28,7.75Zm-1.74-9.65a8.72,8.72,0,0,1,1.46,1.78l-.46.33a9.6,9.6,0,0,0-1.46-1.77Zm1.58-.62a9.88,9.88,0,0,1,1.48,1.76l-.47.35a9.35,9.35,0,0,0-1.47-1.76Z" class="cls-4"/><path data-cppathid="10047" transform="translate(-1471.01 -928.33)" d="M1801.11,1016.56a13,13,0,0,1,.9,2.58l-.67.18a13.28,13.28,0,0,0-.87-2.55Zm7.16.09c0,.11-.14.13-.25.12-.93,3.5-2.7,5.65-5.6,6.82a2.93,2.93,0,0,0-.47-.55c2.87-1.13,4.51-3.09,5.39-6.67ZM1804,1016a16,16,0,0,1,.56,2.72l-.71.13a14.77,14.77,0,0,0-.56-2.7Z" class="cls-4"/><path data-cppathid="10048" transform="translate(-1471.01 -928.33)" d="M1818.67,1015.63a1,1,0,0,1-.18.17c-1.26,3.88-3.23,6.38-6.54,8.06a2.88,2.88,0,0,0-.61-.66,11.32,11.32,0,0,0,6.08-7.1h-4.28a12.33,12.33,0,0,1-2.69,3,4.29,4.29,0,0,0-.68-.55,12.17,12.17,0,0,0,3.82-5.21l1.14.33c0,.12-.19.15-.35.15a16.37,16.37,0,0,1-.76,1.51h4.22l.14-.07Z" class="cls-4"/><path data-cppathid="10049" transform="translate(-1471.01 -928.33)" d="M1829.43,1015v7.92h-.86v-.76H1822v.78h-.84V1015Zm-.86,6.36v-5.55H1822v5.55Z" class="cls-4"/><path data-cppathid="10050" transform="translate(-1471.01 -928.33)" d="M1840.33,1015.74a.77.77,0,0,1-.18.18c-1.27,4-3.24,6.37-6.49,8a2.86,2.86,0,0,0-.61-.66,11.11,11.11,0,0,0,6-7.06h-4.23a12.19,12.19,0,0,1-2.65,2.92,4.89,4.89,0,0,0-.68-.54,12,12,0,0,0,3.81-5.25l1.12.31c0,.12-.18.17-.33.16-.24.54-.52,1.11-.79,1.59h4.17l.14-.07Zm-1.49-2.76a9.18,9.18,0,0,1,1.57,1.7l-.44.38a8.84,8.84,0,0,0-1.55-1.7Zm1.74-.35a9.18,9.18,0,0,1,1.57,1.7l-.44.38a8.78,8.78,0,0,0-1.55-1.7Z" class="cls-4"/><path data-cppathid="10051" transform="translate(-1471.01 -928.33)" d="M1852.78,1014.44a.25.25,0,0,1-.15.11,10.28,10.28,0,0,1-2.85,3.84,4.65,4.65,0,0,0-.73-.49,7.27,7.27,0,0,0,2.39-3h-8.59v-.81h9l.14-.06Zm-4.67,2.18c0,.1-.12.18-.28.21-.35,2.83-1.32,5.53-3.79,6.95a6,6,0,0,0-.71-.55c2.45-1.34,3.32-3.85,3.61-6.74Z" class="cls-4"/><path data-cppathid="10052" transform="translate(-1471.01 -928.33)" d="M1862.54,1014.12a.27.27,0,0,1-.23.09h-.12a28.81,28.81,0,0,1-3.42,2.87,2.93,2.93,0,0,1,.29.13.33.33,0,0,1-.27.16v6.44h-.87v-6.17a35.33,35.33,0,0,1-4.57,2.68,4.09,4.09,0,0,0-.5-.66,30.51,30.51,0,0,0,8.79-6.2Z" class="cls-4"/><path data-cppathid="10053" transform="translate(-1471.01 -928.33)" d="M1873.55,1018.06h-4l.2.06c0,.08-.1.14-.24.15a6.51,6.51,0,0,1-3.7,5.48,6.33,6.33,0,0,0-.65-.6,5.72,5.72,0,0,0,3.47-5.09h-4.67v-.8h9.64Zm-1.18-3.38H1865v-.8h7.37Z" class="cls-4"/><path data-cppathid="10054" transform="translate(-1471.01 -928.33)" d="M1884.2,1023.48c-.18-.4-.4-.84-.64-1.27-2.49.27-6.59.52-8.43.61a.33.33,0,0,1-.23.24l-.32-1.07,1.26,0c.79-2.31,1.93-5.89,2.59-8.29l1.16.31c0,.11-.16.17-.34.17-.66,2.21-1.7,5.42-2.52,7.77,2-.08,4.83-.29,6.41-.43a20.83,20.83,0,0,0-2.13-2.93l.72-.4a23.39,23.39,0,0,1,3.31,5Z" class="cls-4"/><path data-cppathid="10055" transform="translate(-1471.01 -928.33)" d="M1800.65,1030.06a7.61,7.61,0,0,0,0,11v.06h-.72a7.94,7.94,0,0,1,0-11.16h.72Z" class="cls-4"/><path data-cppathid="10056" transform="translate(-1471.01 -928.33)" d="M1801.86,1031.12a11.18,11.18,0,0,1,2.07-.18c3,0,3.19,1.89,3.19,2.61,0,2.15-1.71,2.92-3.33,2.92a3.9,3.9,0,0,1-.94-.09v3.76h-1Zm1,4.44a3.82,3.82,0,0,0,1,.09c1.44,0,2.32-.72,2.32-2s-.94-1.88-2.18-1.88a5.16,5.16,0,0,0-1.1.1Z" class="cls-4"/><path data-cppathid="10057" transform="translate(-1471.01 -928.33)" d="M1812.21,1035.24a2.35,2.35,0,0,1,1.89,2.31,2.42,2.42,0,0,1-.74,1.8,4.15,4.15,0,0,1-3,.86,14.74,14.74,0,0,1-1.69-.1v-9a9.73,9.73,0,0,1,2-.19,3.54,3.54,0,0,1,2.41.67,2,2,0,0,1,.68,1.58,2.19,2.19,0,0,1-1.55,2Zm-1.45-.33c1.21,0,2-.7,2-1.63v0c0-1.07-.79-1.54-2-1.54a4.31,4.31,0,0,0-1,.08v3.11Zm-1.07,4.45a5.13,5.13,0,0,0,1,.06c1.26,0,2.38-.49,2.38-1.87s-1.18-1.87-2.4-1.87h-1Z" class="cls-4"/><path data-cppathid="10058" transform="translate(-1471.01 -928.33)" d="M1815.66,1031h1v9.14h-1Z" class="cls-4"/><path data-cppathid="10059" transform="translate(-1471.01 -928.33)" d="M1817.87,1041.1a7.61,7.61,0,0,0,0-11V1030h.72a7.94,7.94,0,0,1,0,11.16h-.72Z" class="cls-4"/><rect data-cppathid="10060" rx="2.77" height="20.96" width="83.64" y="400.15" x="293.06" class="cls-7"/><path data-cppathid="10061" transform="translate(-1471.01 -928.33)" d="M1732.32,1060H1740l.07,0,.82.63a.35.35,0,0,1-.15.11c-1,4.51-3.06,6.86-6.73,8.25a4.74,4.74,0,0,0-.54-.71,9.07,9.07,0,0,0,6.29-7.41h-7.39Zm9.14-2.15a1.32,1.32,0,1,1-1.32,1.32A1.32,1.32,0,0,1,1741.46,1057.85Zm.91,1.32a.92.92,0,1,0-1.83,0,.92.92,0,1,0,1.83,0Z" class="cls-4"/><path data-cppathid="10062" transform="translate(-1471.01 -928.33)" d="M1752.7,1060.19v7.92h-.86v-.76h-6.61v.78h-.84v-7.94Zm-.86,6.36V1061h-6.61v5.55Z" class="cls-4"/><path data-cppathid="10063" transform="translate(-1471.01 -928.33)" d="M1763.62,1060.64c0,.07-.07.09-.14.13a15.84,15.84,0,0,1-1.74,4c.52.3,1.15.67,1.6,1l-.51.78a16.71,16.71,0,0,0-1.59-1,11.11,11.11,0,0,1-4.31,3.6,2.33,2.33,0,0,0-.65-.64,10.75,10.75,0,0,0,4.21-3.39,18.45,18.45,0,0,0-2.68-1.26l.46-.66a22.28,22.28,0,0,1,2.73,1.22,12.88,12.88,0,0,0,1.44-3.18h-4a12.77,12.77,0,0,1-2.7,3.28,5.26,5.26,0,0,0-.67-.54,12.15,12.15,0,0,0,3.66-5.35l1.11.32a.3.3,0,0,1-.33.16,13.21,13.21,0,0,1-.62,1.33h3.89l.11,0Zm-1.1-2.39a9.34,9.34,0,0,1,1.6,1.68l-.46.37a9.83,9.83,0,0,0-1.57-1.68Zm1.53-.44a9.46,9.46,0,0,1,1.64,1.65l-.47.36a9.37,9.37,0,0,0-1.58-1.64Z" class="cls-4"/><path data-cppathid="10064" transform="translate(-1471.01 -928.33)" d="M1775.06,1060.83a1,1,0,0,1-.18.17c-1.26,3.88-3.23,6.38-6.54,8.06a2.88,2.88,0,0,0-.61-.66,11.29,11.29,0,0,0,6.08-7.1h-4.28a12.13,12.13,0,0,1-2.69,3,3.88,3.88,0,0,0-.68-.55,12.27,12.27,0,0,0,3.83-5.21l1.14.33c-.05.12-.2.15-.35.15a16.42,16.42,0,0,1-.77,1.51h4.22l.15-.07Z" class="cls-4"/><path data-cppathid="10065" transform="translate(-1471.01 -928.33)" d="M1783.62,1064.93a43.38,43.38,0,0,0-4.21-2v6h-.9v-10.42l1.21.07c0,.13-.11.22-.31.25v3.51l.18-.26a43,43,0,0,1,4.51,2Z" class="cls-4"/><path data-cppathid="10066" transform="translate(-1471.01 -928.33)" d="M1789.91,1060.42c0,.1-.13.17-.32.18a18,18,0,0,1-2.87,7.69,3.3,3.3,0,0,0-.81-.43c1.35-1.63,2.4-4.68,2.79-7.69Zm6,7.8a40.7,40.7,0,0,0-3.19-7.73l.78-.37a39,39,0,0,1,3.29,7.75Zm-1.74-9.65a8.72,8.72,0,0,1,1.46,1.78l-.45.33a10.1,10.1,0,0,0-1.46-1.77Zm1.58-.62a9.88,9.88,0,0,1,1.48,1.76l-.47.35a9.29,9.29,0,0,0-1.46-1.76Z" class="cls-4"/><path data-cppathid="10067" transform="translate(-1471.01 -928.33)" d="M1799.51,1061.76a13.71,13.71,0,0,1,.9,2.58l-.67.18a14.08,14.08,0,0,0-.88-2.55Zm7.16.09c0,.11-.15.13-.25.12-.94,3.5-2.7,5.65-5.61,6.82a3.27,3.27,0,0,0-.46-.55c2.86-1.13,4.51-3.09,5.38-6.67Zm-4.25-.66a17.14,17.14,0,0,1,.57,2.72l-.71.13a14,14,0,0,0-.57-2.7Z" class="cls-4"/><path data-cppathid="10068" transform="translate(-1471.01 -928.33)" d="M1817.06,1060.83a1,1,0,0,1-.18.17c-1.26,3.88-3.23,6.38-6.54,8.06a2.88,2.88,0,0,0-.61-.66,11.26,11.26,0,0,0,6.08-7.1h-4.28a12.13,12.13,0,0,1-2.69,3,3.88,3.88,0,0,0-.68-.55,12.27,12.27,0,0,0,3.83-5.21l1.14.33c-.05.12-.2.15-.35.15a16.42,16.42,0,0,1-.77,1.51h4.22l.15-.07Z" class="cls-4"/><path data-cppathid="10069" transform="translate(-1471.01 -928.33)" d="M1827.82,1060.19v7.92H1827v-.76h-6.61v.78h-.84v-7.94Zm-.86,6.36V1061h-6.61v5.55Z" class="cls-4"/><path data-cppathid="10070" transform="translate(-1471.01 -928.33)" d="M1838.72,1060.94a.77.77,0,0,1-.18.18c-1.27,4-3.24,6.36-6.49,8a2.86,2.86,0,0,0-.61-.66,11.11,11.11,0,0,0,6-7.06h-4.23a12,12,0,0,1-2.65,2.92,4.64,4.64,0,0,0-.67-.54,12,12,0,0,0,3.8-5.25l1.13.31c0,.12-.18.17-.34.16a16.81,16.81,0,0,1-.79,1.59h4.17l.15-.07Zm-1.49-2.76a8.54,8.54,0,0,1,1.57,1.7l-.44.38a8.84,8.84,0,0,0-1.55-1.7Zm1.74-.35a8.54,8.54,0,0,1,1.57,1.7l-.44.38a8.47,8.47,0,0,0-1.55-1.7Z" class="cls-4"/><path data-cppathid="10071" transform="translate(-1471.01 -928.33)" d="M1851.18,1059.64a.31.31,0,0,1-.16.11,10.37,10.37,0,0,1-2.84,3.84,5.17,5.17,0,0,0-.73-.49,7.24,7.24,0,0,0,2.38-3h-8.58v-.81h9l.13-.06Zm-4.68,2.18c0,.1-.12.18-.28.21-.34,2.83-1.32,5.53-3.79,7a6.82,6.82,0,0,0-.7-.55c2.44-1.34,3.32-3.85,3.61-6.74Z" class="cls-4"/><path data-cppathid="10072" transform="translate(-1471.01 -928.33)" d="M1860.93,1059.32a.27.27,0,0,1-.23.09h-.12a28.69,28.69,0,0,1-3.41,2.87c.09,0,.23.11.28.13a.32.32,0,0,1-.26.16V1069h-.88v-6.17a34.66,34.66,0,0,1-4.57,2.68,3.58,3.58,0,0,0-.5-.66,30.7,30.7,0,0,0,8.79-6.2Z" class="cls-4"/><path data-cppathid="10073" transform="translate(-1471.01 -928.33)" d="M1872,1063.26h-4.06l.21.06a.27.27,0,0,1-.24.15,6.52,6.52,0,0,1-3.71,5.48,4.76,4.76,0,0,0-.65-.6,5.7,5.7,0,0,0,3.47-5.09h-4.67v-.8H1872Zm-1.19-3.38h-7.36v-.8h7.36Z" class="cls-4"/><path data-cppathid="10074" transform="translate(-1471.01 -928.33)" d="M1882.59,1068.68c-.18-.4-.39-.84-.63-1.27-2.5.27-6.6.52-8.44.61a.32.32,0,0,1-.22.24l-.33-1.07,1.26,0c.79-2.31,1.93-5.89,2.59-8.29l1.17.31a.35.35,0,0,1-.35.17c-.66,2.21-1.69,5.42-2.52,7.77,2-.08,4.83-.29,6.42-.43a21.7,21.7,0,0,0-2.14-2.93l.72-.41a23.7,23.7,0,0,1,3.31,5Z" class="cls-4"/><path data-cppathid="10075" transform="translate(-1471.01 -928.33)" d="M1799.05,1075.26a7.59,7.59,0,0,0,0,11v.06h-.72a7.94,7.94,0,0,1,0-11.16h.72Z" class="cls-4"/><path data-cppathid="10076" transform="translate(-1471.01 -928.33)" d="M1800.25,1076.32a11.3,11.3,0,0,1,2.08-.18c3,0,3.19,1.89,3.19,2.61,0,2.15-1.72,2.92-3.34,2.92a3.81,3.81,0,0,1-.93-.09v3.76h-1Zm1,4.43a3.28,3.28,0,0,0,1,.1c1.44,0,2.31-.72,2.31-2s-.93-1.88-2.18-1.88a5.05,5.05,0,0,0-1.09.1Z" class="cls-4"/><path data-cppathid="10077" transform="translate(-1471.01 -928.33)" d="M1810.61,1080.44a2.35,2.35,0,0,1,1.88,2.31,2.38,2.38,0,0,1-.73,1.79,4.13,4.13,0,0,1-3,.87,14.9,14.9,0,0,1-1.69-.1v-9a9.88,9.88,0,0,1,2-.19,3.52,3.52,0,0,1,2.41.67,2,2,0,0,1,.68,1.58,2.19,2.19,0,0,1-1.54,2Zm-1.45-.33c1.21,0,2-.7,2-1.63v0c0-1.08-.8-1.54-2-1.54a4.25,4.25,0,0,0-1,.08v3.11Zm-1.07,4.45a6,6,0,0,0,1,.06c1.26,0,2.39-.5,2.39-1.87s-1.19-1.88-2.4-1.88h-1Z" class="cls-4"/><path data-cppathid="10078" transform="translate(-1471.01 -928.33)" d="M1814.05,1076.2h1v9.14h-1Z" class="cls-4"/><path data-cppathid="10079" transform="translate(-1471.01 -928.33)" d="M1816.26,1086.3a7.59,7.59,0,0,0,0-11v-.06h.72a7.94,7.94,0,0,1,0,11.16h-.72Z" class="cls-4"/><path data-cppathid="10080" transform="translate(-1471.01 -928.33)" d="M1733.93,1109.86h7.62l.08,0,.81.62a.23.23,0,0,1-.14.11c-1,4.51-3.06,6.86-6.73,8.25a5.31,5.31,0,0,0-.54-.71,9,9,0,0,0,6.28-7.41h-7.38Zm9.14-2.14a1.31,1.31,0,1,1-1.32,1.32A1.3,1.3,0,0,1,1743.07,1107.72Zm.91,1.32a.92.92,0,0,0-.91-.93.93.93,0,1,0,.91.93Z" class="cls-4"/><path data-cppathid="10081" transform="translate(-1471.01 -928.33)" d="M1754.31,1110.06V1118h-.86v-.75h-6.61v.78H1746v-7.94Zm-.86,6.35v-5.55h-6.61v5.55Z" class="cls-4"/><path data-cppathid="10082" transform="translate(-1471.01 -928.33)" d="M1765.23,1110.5c0,.07-.07.1-.14.13a16.21,16.21,0,0,1-1.74,4c.51.3,1.15.67,1.59,1l-.5.78a17.62,17.62,0,0,0-1.6-1,10.92,10.92,0,0,1-4.3,3.6,2.48,2.48,0,0,0-.65-.64,10.75,10.75,0,0,0,4.21-3.39,19.67,19.67,0,0,0-2.69-1.26l.47-.66a22.17,22.17,0,0,1,2.72,1.22A12.3,12.3,0,0,0,1764,1111h-4a12.71,12.71,0,0,1-2.7,3.27,6.46,6.46,0,0,0-.68-.54,12.15,12.15,0,0,0,3.66-5.35l1.12.32c0,.14-.19.17-.34.16a13.09,13.09,0,0,1-.61,1.33h3.89l.1,0Zm-1.1-2.39a9.59,9.59,0,0,1,1.59,1.68l-.45.37a9.9,9.9,0,0,0-1.58-1.68Zm1.53-.44a9.39,9.39,0,0,1,1.63,1.65l-.46.36a9.08,9.08,0,0,0-1.59-1.64Z" class="cls-4"/><path data-cppathid="10083" transform="translate(-1471.01 -928.33)" d="M1776.67,1110.69a1,1,0,0,1-.18.17c-1.26,3.89-3.23,6.38-6.54,8.06a2.88,2.88,0,0,0-.61-.66,11.27,11.27,0,0,0,6.08-7.1h-4.28a12.33,12.33,0,0,1-2.69,3,4.92,4.92,0,0,0-.68-.55,12.11,12.11,0,0,0,3.82-5.21l1.14.33c0,.12-.19.15-.35.15-.24.53-.49,1-.76,1.52h4.22l.14-.08Z" class="cls-4"/><path data-cppathid="10084" transform="translate(-1471.01 -928.33)" d="M1785.22,1114.79a41.29,41.29,0,0,0-4.21-2v6h-.9v-10.42l1.22.07c0,.14-.11.22-.32.26v3.5l.18-.25a39.41,39.41,0,0,1,4.51,2Z" class="cls-4"/><path data-cppathid="10085" transform="translate(-1471.01 -928.33)" d="M1791.51,1110.28c0,.1-.13.17-.31.18-.48,2.88-1.47,5.92-2.88,7.69a3.61,3.61,0,0,0-.8-.43,16.38,16.38,0,0,0,2.78-7.69Zm6,7.8a41,41,0,0,0-3.19-7.72l.78-.38a39,39,0,0,1,3.28,7.75Zm-1.74-9.64a8.42,8.42,0,0,1,1.46,1.77l-.46.34a9.34,9.34,0,0,0-1.46-1.78Zm1.58-.63a10.3,10.3,0,0,1,1.48,1.77l-.47.34a9.68,9.68,0,0,0-1.47-1.76Z" class="cls-4"/><path data-cppathid="10086" transform="translate(-1471.01 -928.33)" d="M1801.11,1111.63a12.61,12.61,0,0,1,.9,2.58l-.67.18a13.13,13.13,0,0,0-.87-2.56Zm7.16.08c0,.11-.14.13-.25.12-.93,3.5-2.7,5.65-5.6,6.82a3.28,3.28,0,0,0-.47-.55c2.87-1.12,4.51-3.09,5.39-6.66Zm-4.24-.66a16.25,16.25,0,0,1,.56,2.72l-.71.14a14.43,14.43,0,0,0-.56-2.7Z" class="cls-4"/><path data-cppathid="10087" transform="translate(-1471.01 -928.33)" d="M1818.67,1110.69a1,1,0,0,1-.18.17c-1.26,3.89-3.23,6.38-6.54,8.06a2.88,2.88,0,0,0-.61-.66,11.27,11.27,0,0,0,6.08-7.1h-4.28a12.33,12.33,0,0,1-2.69,3,4.92,4.92,0,0,0-.68-.55,12.11,12.11,0,0,0,3.82-5.21l1.14.33c0,.12-.19.15-.35.15a16.57,16.57,0,0,1-.76,1.52h4.22l.14-.08Z" class="cls-4"/><path data-cppathid="10088" transform="translate(-1471.01 -928.33)" d="M1829.43,1110.06V1118h-.86v-.75H1822v.78h-.84v-7.94Zm-.86,6.35v-5.55H1822v5.55Z" class="cls-4"/><path data-cppathid="10089" transform="translate(-1471.01 -928.33)" d="M1840.33,1110.8a.77.77,0,0,1-.18.18c-1.27,4-3.24,6.37-6.49,8a2.86,2.86,0,0,0-.61-.66,11.11,11.11,0,0,0,6-7.06h-4.23a12.23,12.23,0,0,1-2.65,2.93,3.76,3.76,0,0,0-.68-.54,12,12,0,0,0,3.81-5.26l1.12.31c0,.12-.18.17-.33.16-.24.54-.52,1.12-.79,1.6h4.17l.14-.08Zm-1.49-2.76a9.51,9.51,0,0,1,1.57,1.7l-.44.39a8.89,8.89,0,0,0-1.55-1.71Zm1.74-.35a8.92,8.92,0,0,1,1.57,1.71l-.44.37a8.45,8.45,0,0,0-1.55-1.69Z" class="cls-4"/><path data-cppathid="10090" transform="translate(-1471.01 -928.33)" d="M1852.78,1109.5a.25.25,0,0,1-.15.11,10.2,10.2,0,0,1-2.85,3.84,4.65,4.65,0,0,0-.73-.49,7.27,7.27,0,0,0,2.39-3h-8.59v-.81h9l.14-.06Zm-4.67,2.19a.31.31,0,0,1-.28.2c-.35,2.83-1.32,5.53-3.79,7a6.06,6.06,0,0,0-.71-.56c2.45-1.34,3.32-3.84,3.61-6.74Z" class="cls-4"/><path data-cppathid="10091" transform="translate(-1471.01 -928.33)" d="M1862.54,1109.18a.28.28,0,0,1-.23.1.27.27,0,0,1-.12,0,28.81,28.81,0,0,1-3.42,2.87l.29.13a.3.3,0,0,1-.27.16v6.44h-.87v-6.17a34.22,34.22,0,0,1-4.57,2.68,5.21,5.21,0,0,0-.5-.66,30.51,30.51,0,0,0,8.79-6.2Z" class="cls-4"/><path data-cppathid="10092" transform="translate(-1471.01 -928.33)" d="M1873.55,1113.13h-4l.2.06c0,.07-.1.13-.24.14a6.51,6.51,0,0,1-3.7,5.48,7.69,7.69,0,0,0-.65-.6,5.72,5.72,0,0,0,3.47-5.08h-4.67v-.81h9.64Zm-1.18-3.39H1865v-.8h7.37Z" class="cls-4"/><path data-cppathid="10093" transform="translate(-1471.01 -928.33)" d="M1884.2,1118.55c-.18-.41-.4-.84-.64-1.27-2.49.26-6.59.51-8.43.61a.35.35,0,0,1-.23.24l-.32-1.08,1.26,0c.79-2.3,1.93-5.89,2.59-8.29l1.16.31c0,.11-.16.17-.34.17-.66,2.21-1.7,5.42-2.52,7.77,2-.08,4.83-.28,6.41-.43a20.15,20.15,0,0,0-2.13-2.92l.72-.41a23.91,23.91,0,0,1,3.31,5Z" class="cls-4"/><path data-cppathid="10094" transform="translate(-1471.01 -928.33)" d="M1800.65,1125.12a7.61,7.61,0,0,0,0,11v.06h-.72a7.94,7.94,0,0,1,0-11.16h.72Z" class="cls-4"/><path data-cppathid="10095" transform="translate(-1471.01 -928.33)" d="M1801.86,1126.18a11.18,11.18,0,0,1,2.07-.18c3,0,3.19,1.89,3.19,2.61,0,2.15-1.71,2.92-3.33,2.92a3.92,3.92,0,0,1-.94-.08v3.75h-1Zm1,4.44a3.82,3.82,0,0,0,1,.09c1.44,0,2.32-.72,2.32-2s-.94-1.89-2.18-1.89a5.16,5.16,0,0,0-1.1.1Z" class="cls-4"/><path data-cppathid="10096" transform="translate(-1471.01 -928.33)" d="M1812.21,1130.31a2.33,2.33,0,0,1,1.89,2.3,2.42,2.42,0,0,1-.74,1.8,4.11,4.11,0,0,1-3,.86,14.74,14.74,0,0,1-1.69-.1v-9a9.73,9.73,0,0,1,2-.19,3.59,3.59,0,0,1,2.41.67,2,2,0,0,1,.68,1.58,2.19,2.19,0,0,1-1.55,2Zm-1.45-.34c1.21,0,2-.7,2-1.63h0c0-1.08-.79-1.55-2-1.55a5,5,0,0,0-1,.08V1130Zm-1.07,4.45a5.13,5.13,0,0,0,1,.06c1.26,0,2.38-.49,2.38-1.87s-1.18-1.87-2.4-1.87h-1Z" class="cls-4"/><path data-cppathid="10097" transform="translate(-1471.01 -928.33)" d="M1815.66,1126.06h1v9.14h-1Z" class="cls-4"/><path data-cppathid="10098" transform="translate(-1471.01 -928.33)" d="M1817.87,1136.16a7.61,7.61,0,0,0,0-11v-.06h.72a7.94,7.94,0,0,1,0,11.16h-.72Z" class="cls-4"/><path data-cppathid="10099" transform="translate(-1471.01 -928.33)" d="M1734.6,1155.42h7.63l.07,0,.82.62a.35.35,0,0,1-.15.11c-1,4.51-3.06,6.86-6.73,8.25a4.74,4.74,0,0,0-.54-.71,9.07,9.07,0,0,0,6.29-7.41h-7.39Zm9.14-2.14a1.31,1.31,0,1,1-1.32,1.32A1.31,1.31,0,0,1,1743.74,1153.28Zm.91,1.32a.92.92,0,1,0-1.83,0,.93.93,0,0,0,.92.92A.92.92,0,0,0,1744.65,1154.6Z" class="cls-4"/><path data-cppathid="10100" transform="translate(-1471.01 -928.33)" d="M1755,1155.62v7.91h-.86v-.75h-6.61v.77h-.84v-7.93Zm-.86,6.35v-5.55h-6.61V1162Z" class="cls-4"/><path data-cppathid="10101" transform="translate(-1471.01 -928.33)" d="M1765.9,1156.06c0,.07-.07.09-.14.13a15.84,15.84,0,0,1-1.74,4c.52.3,1.15.67,1.6,1l-.51.78a18.92,18.92,0,0,0-1.59-1,11,11,0,0,1-4.31,3.6,2.48,2.48,0,0,0-.65-.64,10.75,10.75,0,0,0,4.21-3.39,19.56,19.56,0,0,0-2.68-1.26l.47-.66a22.86,22.86,0,0,1,2.72,1.22,12.55,12.55,0,0,0,1.44-3.18h-4a12.77,12.77,0,0,1-2.7,3.28,6.31,6.31,0,0,0-.67-.54,12.15,12.15,0,0,0,3.66-5.35l1.11.32c-.05.14-.19.17-.33.16a13.21,13.21,0,0,1-.62,1.33h3.89l.11,0Zm-1.1-2.39a9.66,9.66,0,0,1,1.6,1.68l-.46.37a9.83,9.83,0,0,0-1.57-1.68Zm1.54-.44a9.75,9.75,0,0,1,1.63,1.65l-.47.36a9,9,0,0,0-1.58-1.64Z" class="cls-4"/><path data-cppathid="10102" transform="translate(-1471.01 -928.33)" d="M1777.34,1156.25a1,1,0,0,1-.18.17c-1.26,3.88-3.23,6.38-6.54,8.06a2.88,2.88,0,0,0-.61-.66,11.27,11.27,0,0,0,6.08-7.1h-4.28a12.13,12.13,0,0,1-2.69,3,4.39,4.39,0,0,0-.68-.55,12.21,12.21,0,0,0,3.83-5.21l1.14.33c-.05.12-.2.15-.35.15a15.24,15.24,0,0,1-.77,1.51h4.22l.15-.07Z" class="cls-4"/><path data-cppathid="10103" transform="translate(-1471.01 -928.33)" d="M1785.9,1160.35a43.38,43.38,0,0,0-4.21-1.95v6h-.9V1154l1.21.07c0,.14-.11.22-.31.26v3.5l.18-.25a41,41,0,0,1,4.51,2Z" class="cls-4"/><path data-cppathid="10104" transform="translate(-1471.01 -928.33)" d="M1792.19,1155.84a.31.31,0,0,1-.31.18,18.13,18.13,0,0,1-2.88,7.69,3.68,3.68,0,0,0-.81-.43c1.35-1.63,2.4-4.68,2.79-7.69Zm6,7.8a40.06,40.06,0,0,0-3.19-7.73l.78-.37a39,39,0,0,1,3.29,7.75Zm-1.74-9.64a8.42,8.42,0,0,1,1.46,1.77l-.45.34a10.16,10.16,0,0,0-1.46-1.78Zm1.58-.63a10.3,10.3,0,0,1,1.48,1.77l-.47.34a9.61,9.61,0,0,0-1.46-1.76Z" class="cls-4"/><path data-cppathid="10105" transform="translate(-1471.01 -928.33)" d="M1801.79,1157.19a13.38,13.38,0,0,1,.9,2.57l-.67.18a14.08,14.08,0,0,0-.88-2.55Zm7.16.08c0,.11-.15.13-.25.12-.94,3.5-2.7,5.65-5.6,6.82a3.93,3.93,0,0,0-.47-.55c2.86-1.12,4.51-3.09,5.38-6.67Zm-4.25-.66a17.37,17.37,0,0,1,.57,2.72l-.71.13a13.78,13.78,0,0,0-.57-2.69Z" class="cls-4"/><path data-cppathid="10106" transform="translate(-1471.01 -928.33)" d="M1819.34,1156.25a1,1,0,0,1-.18.17c-1.26,3.88-3.22,6.38-6.54,8.06a2.88,2.88,0,0,0-.61-.66,11.24,11.24,0,0,0,6.08-7.1h-4.28a12.29,12.29,0,0,1-2.68,3,5,5,0,0,0-.69-.55,12.21,12.21,0,0,0,3.83-5.21l1.14.33c-.05.12-.19.15-.35.15a15.24,15.24,0,0,1-.77,1.51h4.22l.15-.07Z" class="cls-4"/><path data-cppathid="10107" transform="translate(-1471.01 -928.33)" d="M1830.11,1155.62v7.91h-.87v-.75h-6.61v.77h-.84v-7.93Zm-.87,6.35v-5.55h-6.61V1162Z" class="cls-4"/><path data-cppathid="10108" transform="translate(-1471.01 -928.33)" d="M1841,1156.36a.77.77,0,0,1-.18.18c-1.27,4-3.24,6.37-6.49,8a2.86,2.86,0,0,0-.61-.66,11.11,11.11,0,0,0,6-7.06h-4.23a12,12,0,0,1-2.65,2.92,4.77,4.77,0,0,0-.67-.54,11.92,11.92,0,0,0,3.8-5.25l1.13.31c0,.12-.18.17-.34.16-.24.54-.51,1.11-.79,1.6h4.17l.15-.08Zm-1.49-2.76a8.82,8.82,0,0,1,1.57,1.7l-.44.39a8.89,8.89,0,0,0-1.55-1.71Zm1.74-.35a8.32,8.32,0,0,1,1.57,1.71l-.44.37a8.17,8.17,0,0,0-1.55-1.69Z" class="cls-4"/><path data-cppathid="10109" transform="translate(-1471.01 -928.33)" d="M1853.46,1155.06a.31.31,0,0,1-.16.11,10.29,10.29,0,0,1-2.84,3.84,5.17,5.17,0,0,0-.73-.49,7.24,7.24,0,0,0,2.38-3h-8.58v-.81h9l.13-.06Zm-4.68,2.19c0,.09-.12.18-.28.2-.34,2.83-1.32,5.53-3.79,7a5.92,5.92,0,0,0-.7-.56c2.44-1.34,3.32-3.85,3.61-6.74Z" class="cls-4"/><path data-cppathid="10110" transform="translate(-1471.01 -928.33)" d="M1863.21,1154.74a.28.28,0,0,1-.23.1.3.3,0,0,1-.12,0,28.69,28.69,0,0,1-3.41,2.87l.28.13a.3.3,0,0,1-.26.16v6.44h-.88v-6.17a34.66,34.66,0,0,1-4.57,2.68,4.41,4.41,0,0,0-.5-.66,30.51,30.51,0,0,0,8.79-6.2Z" class="cls-4"/><path data-cppathid="10111" transform="translate(-1471.01 -928.33)" d="M1874.23,1158.69h-4.06l.21.06a.27.27,0,0,1-.24.14,6.52,6.52,0,0,1-3.71,5.48,5.49,5.49,0,0,0-.65-.6,5.68,5.68,0,0,0,3.47-5.08h-4.66v-.81h9.64Zm-1.19-3.39h-7.36v-.8H1873Z" class="cls-4"/><path data-cppathid="10112" transform="translate(-1471.01 -928.33)" d="M1884.87,1164.11c-.18-.41-.39-.84-.63-1.28-2.5.27-6.6.52-8.43.62a.35.35,0,0,1-.23.24l-.33-1.08,1.26,0c.79-2.3,1.93-5.89,2.59-8.29l1.17.31a.35.35,0,0,1-.35.17c-.66,2.21-1.69,5.42-2.52,7.77,2-.08,4.83-.28,6.42-.43a21.7,21.7,0,0,0-2.14-2.93l.72-.4a23.65,23.65,0,0,1,3.31,5Z" class="cls-4"/><path data-cppathid="10113" transform="translate(-1471.01 -928.33)" d="M1801.33,1170.68a7.59,7.59,0,0,0,0,11v.06h-.72a7.94,7.94,0,0,1,0-11.16h.72Z" class="cls-4"/><path data-cppathid="10114" transform="translate(-1471.01 -928.33)" d="M1802.53,1171.74a11.3,11.3,0,0,1,2.08-.18c3,0,3.19,1.89,3.19,2.61,0,2.15-1.72,2.92-3.34,2.92a3.42,3.42,0,0,1-.93-.09v3.76h-1Zm1,4.44a3.77,3.77,0,0,0,1,.09c1.44,0,2.31-.72,2.31-2s-.93-1.89-2.18-1.89a5.05,5.05,0,0,0-1.09.1Z" class="cls-4"/><path data-cppathid="10115" transform="translate(-1471.01 -928.33)" d="M1812.89,1175.87a2.33,2.33,0,0,1,1.88,2.3,2.42,2.42,0,0,1-.73,1.8,4.13,4.13,0,0,1-3,.86,15.07,15.07,0,0,1-1.69-.1v-9a9.88,9.88,0,0,1,2-.19,3.58,3.58,0,0,1,2.41.67,2,2,0,0,1,.69,1.58,2.2,2.2,0,0,1-1.55,2Zm-1.45-.34c1.21,0,2-.7,2-1.63h0c0-1.08-.79-1.55-2-1.55a4.25,4.25,0,0,0-1,.08v3.11Zm-1.07,4.45a5,5,0,0,0,1,.06c1.26,0,2.39-.49,2.39-1.87s-1.19-1.87-2.4-1.87h-1Z" class="cls-4"/><path data-cppathid="10116" transform="translate(-1471.01 -928.33)" d="M1816.33,1171.62h1v9.14h-1Z" class="cls-4"/><path data-cppathid="10117" transform="translate(-1471.01 -928.33)" d="M1818.54,1181.72a7.59,7.59,0,0,0,0-11v-.06h.72a7.94,7.94,0,0,1,0,11.16h-.72Z" class="cls-4"/><path data-cppathid="10118" transform="translate(-1471.01 -928.33)" d="M1735.4,1202.5H1743l.08,0,.81.63a.27.27,0,0,1-.14.11c-1,4.51-3.06,6.86-6.73,8.25a4.74,4.74,0,0,0-.54-.71,9,9,0,0,0,6.28-7.41h-7.38Zm9.14-2.15a1.32,1.32,0,1,1-1.32,1.32A1.31,1.31,0,0,1,1744.54,1200.35Zm.91,1.32a.92.92,0,0,0-.91-.92.93.93,0,1,0,.91.92Z" class="cls-4"/><path data-cppathid="10119" transform="translate(-1471.01 -928.33)" d="M1755.78,1202.69v7.92h-.86v-.76h-6.61v.78h-.84v-7.94Zm-.86,6.36v-5.55h-6.61v5.55Z" class="cls-4"/><path data-cppathid="10120" transform="translate(-1471.01 -928.33)" d="M1766.7,1203.14c0,.07-.07.09-.14.13a16.21,16.21,0,0,1-1.74,4c.51.3,1.15.67,1.59,1l-.5.78a15.7,15.7,0,0,0-1.6-1,11,11,0,0,1-4.3,3.6,2.33,2.33,0,0,0-.65-.64,10.84,10.84,0,0,0,4.21-3.39,18.55,18.55,0,0,0-2.69-1.26l.47-.66a22.17,22.17,0,0,1,2.72,1.22,12.18,12.18,0,0,0,1.44-3.18h-4a12.77,12.77,0,0,1-2.7,3.28,6.07,6.07,0,0,0-.67-.54,12.21,12.21,0,0,0,3.65-5.35l1.12.32a.31.31,0,0,1-.34.16,13.09,13.09,0,0,1-.61,1.33h3.89l.1,0Zm-1.1-2.39a8.94,8.94,0,0,1,1.59,1.68l-.45.37a9.9,9.9,0,0,0-1.58-1.68Zm1.53-.44a9.39,9.39,0,0,1,1.63,1.65l-.46.36a9.08,9.08,0,0,0-1.59-1.64Z" class="cls-4"/><path data-cppathid="10121" transform="translate(-1471.01 -928.33)" d="M1778.14,1203.33a1,1,0,0,1-.18.17c-1.26,3.88-3.23,6.38-6.54,8.06a2.88,2.88,0,0,0-.61-.66,11.32,11.32,0,0,0,6.08-7.1h-4.28a12.52,12.52,0,0,1-2.69,3,4.29,4.29,0,0,0-.68-.55,12.17,12.17,0,0,0,3.82-5.21l1.14.33c0,.12-.19.15-.35.15-.24.53-.49,1-.76,1.51h4.22l.14-.07Z" class="cls-4"/><path data-cppathid="10122" transform="translate(-1471.01 -928.33)" d="M1786.69,1207.43a41.29,41.29,0,0,0-4.21-2v6h-.9v-10.42l1.22.07c0,.13-.11.22-.32.25v3.5l.18-.25a41.26,41.26,0,0,1,4.51,2Z" class="cls-4"/><path data-cppathid="10123" transform="translate(-1471.01 -928.33)" d="M1793,1202.92c0,.1-.13.17-.31.18a18,18,0,0,1-2.88,7.69,3.24,3.24,0,0,0-.8-.43,16.38,16.38,0,0,0,2.78-7.69Zm6,7.8a41.37,41.37,0,0,0-3.19-7.73l.78-.37a39,39,0,0,1,3.28,7.75Zm-1.74-9.65a8.72,8.72,0,0,1,1.46,1.78l-.46.33a9.28,9.28,0,0,0-1.46-1.77Zm1.58-.62a9.88,9.88,0,0,1,1.48,1.76l-.47.35a9.35,9.35,0,0,0-1.47-1.76Z" class="cls-4"/><path data-cppathid="10124" transform="translate(-1471.01 -928.33)" d="M1802.58,1204.26a13,13,0,0,1,.9,2.58l-.67.18a13.28,13.28,0,0,0-.87-2.55Zm7.16.09c0,.11-.14.13-.25.12-.93,3.5-2.7,5.65-5.6,6.82a2.93,2.93,0,0,0-.47-.55c2.87-1.13,4.51-3.09,5.39-6.67Zm-4.24-.66a16,16,0,0,1,.56,2.72l-.7.13a15.72,15.72,0,0,0-.57-2.7Z" class="cls-4"/><path data-cppathid="10125" transform="translate(-1471.01 -928.33)" d="M1820.14,1203.33a1,1,0,0,1-.18.17c-1.26,3.88-3.23,6.38-6.54,8.06a2.88,2.88,0,0,0-.61-.66,11.32,11.32,0,0,0,6.08-7.1h-4.28a12.52,12.52,0,0,1-2.69,3,4.29,4.29,0,0,0-.68-.55,12.17,12.17,0,0,0,3.82-5.21l1.14.33c0,.12-.19.15-.34.15-.24.53-.5,1-.77,1.51h4.22l.14-.07Z" class="cls-4"/><path data-cppathid="10126" transform="translate(-1471.01 -928.33)" d="M1830.9,1202.69v7.92H1830v-.76h-6.61v.78h-.84v-7.94Zm-.86,6.36v-5.55h-6.61v5.55Z" class="cls-4"/><path data-cppathid="10127" transform="translate(-1471.01 -928.33)" d="M1841.8,1203.44a.77.77,0,0,1-.18.18c-1.27,4-3.24,6.36-6.49,8a2.86,2.86,0,0,0-.61-.66,11.11,11.11,0,0,0,6-7.06h-4.23a12.19,12.19,0,0,1-2.65,2.92,4.25,4.25,0,0,0-.68-.54,12,12,0,0,0,3.81-5.25l1.12.31c0,.12-.18.17-.33.16-.24.54-.52,1.11-.79,1.59H1841l.14-.07Zm-1.49-2.76a9.18,9.18,0,0,1,1.57,1.7l-.44.38a8.55,8.55,0,0,0-1.55-1.7Zm1.74-.35a8.88,8.88,0,0,1,1.57,1.7l-.44.38a8.78,8.78,0,0,0-1.55-1.7Z" class="cls-4"/><path data-cppathid="10128" transform="translate(-1471.01 -928.33)" d="M1854.25,1202.14s-.09.08-.15.11a10.28,10.28,0,0,1-2.85,3.84,4.7,4.7,0,0,0-.73-.5,7.18,7.18,0,0,0,2.39-3h-8.59v-.82h9l.14,0Zm-4.67,2.18c0,.1-.12.18-.28.21-.35,2.83-1.32,5.53-3.79,7a6,6,0,0,0-.71-.55c2.45-1.34,3.32-3.85,3.61-6.74Z" class="cls-4"/><path data-cppathid="10129" transform="translate(-1471.01 -928.33)" d="M1864,1201.82a.27.27,0,0,1-.23.09h-.12a28.81,28.81,0,0,1-3.42,2.87,1.63,1.63,0,0,1,.29.13.32.32,0,0,1-.26.16v6.44h-.88v-6.17a35.33,35.33,0,0,1-4.57,2.68,4.09,4.09,0,0,0-.5-.66,30.7,30.7,0,0,0,8.79-6.2Z" class="cls-4"/><path data-cppathid="10130" transform="translate(-1471.01 -928.33)" d="M1875,1205.76h-4l.2.06a.25.25,0,0,1-.24.15,6.51,6.51,0,0,1-3.7,5.48,6.33,6.33,0,0,0-.65-.6,5.72,5.72,0,0,0,3.47-5.09h-4.67v-.8H1875Zm-1.18-3.38h-7.37v-.8h7.37Z" class="cls-4"/><path data-cppathid="10131" transform="translate(-1471.01 -928.33)" d="M1885.67,1211.18c-.18-.4-.4-.84-.64-1.27-2.49.27-6.59.52-8.43.61a.33.33,0,0,1-.23.24l-.32-1.08,1.26,0c.79-2.31,1.93-5.89,2.59-8.29l1.16.31c0,.11-.16.17-.34.17-.66,2.21-1.7,5.42-2.52,7.77,2-.08,4.83-.29,6.41-.43a20.83,20.83,0,0,0-2.13-2.93l.72-.41a23.7,23.7,0,0,1,3.31,5Z" class="cls-4"/><path data-cppathid="10132" transform="translate(-1471.01 -928.33)" d="M1802.12,1217.76a7.61,7.61,0,0,0,0,11v.06h-.72a7.94,7.94,0,0,1,0-11.16h.72Z" class="cls-4"/><path data-cppathid="10133" transform="translate(-1471.01 -928.33)" d="M1803.33,1218.82a11.18,11.18,0,0,1,2.07-.18c3,0,3.19,1.89,3.19,2.61,0,2.15-1.71,2.92-3.33,2.92a3.9,3.9,0,0,1-.94-.09v3.76h-1Zm1,4.43a3.37,3.37,0,0,0,1,.1c1.44,0,2.32-.72,2.32-2s-.94-1.88-2.18-1.88a5.16,5.16,0,0,0-1.1.1Z" class="cls-4"/><path data-cppathid="10134" transform="translate(-1471.01 -928.33)" d="M1813.68,1222.94a2.35,2.35,0,0,1,1.89,2.31,2.38,2.38,0,0,1-.74,1.79,4.11,4.11,0,0,1-3,.87,14.9,14.9,0,0,1-1.69-.1v-9a9.73,9.73,0,0,1,2-.19,3.54,3.54,0,0,1,2.41.67,2,2,0,0,1,.68,1.58,2.19,2.19,0,0,1-1.55,2Zm-1.45-.33c1.21,0,2-.7,2-1.63v0c0-1.08-.79-1.54-2-1.54a4.31,4.31,0,0,0-1,.08v3.11Zm-1.07,4.45a6.12,6.12,0,0,0,1,.06c1.26,0,2.38-.5,2.38-1.87s-1.18-1.88-2.4-1.88h-1Z" class="cls-4"/><path data-cppathid="10135" transform="translate(-1471.01 -928.33)" d="M1817.13,1218.7h1v9.14h-1Z" class="cls-4"/><path data-cppathid="10136" transform="translate(-1471.01 -928.33)" d="M1819.34,1228.8a7.61,7.61,0,0,0,0-11v-.06h.72a7.94,7.94,0,0,1,0,11.16h-.72Z" class="cls-4"/><path data-cppathid="10137" transform="translate(-1471.01 -928.33)" d="M1747.16,1253.68h6.35l.06,0,.68.52a.23.23,0,0,1-.12.09c-.81,3.76-2.55,5.72-5.6,6.87a6.14,6.14,0,0,0-.45-.59,7.55,7.55,0,0,0,5.23-6.17h-6.15Zm7.61-1.79a1.1,1.1,0,1,1-1.1,1.1A1.09,1.09,0,0,1,1754.77,1251.89Zm.76,1.1a.76.76,0,0,0-.76-.77.77.77,0,1,0,.76.77Z" class="cls-4"/><path data-cppathid="10138" transform="translate(-1471.01 -928.33)" d="M1764.14,1253.84v6.6h-.72v-.63h-5.5v.65h-.7v-6.62Zm-.72,5.3v-4.63h-5.5v4.63Z" class="cls-4"/><path data-cppathid="10139" transform="translate(-1471.01 -928.33)" d="M1773.24,1254.21c0,.06-.06.08-.12.11a13.2,13.2,0,0,1-1.45,3.3c.43.25,1,.56,1.33.82l-.42.65a14.48,14.48,0,0,0-1.33-.86,9,9,0,0,1-3.58,3,2.23,2.23,0,0,0-.54-.52,9,9,0,0,0,3.5-2.83,17.15,17.15,0,0,0-2.23-1l.38-.55a19.43,19.43,0,0,1,2.27,1,10.41,10.41,0,0,0,1.2-2.65H1769a10.47,10.47,0,0,1-2.24,2.73,5.24,5.24,0,0,0-.56-.45,10,10,0,0,0,3-4.46l.93.27a.25.25,0,0,1-.28.13,11,11,0,0,1-.51,1.11h3.24l.09,0Zm-.92-2a7.58,7.58,0,0,1,1.33,1.4l-.38.31a8.14,8.14,0,0,0-1.31-1.4Zm1.28-.37a8,8,0,0,1,1.36,1.38l-.39.3a7.39,7.39,0,0,0-1.32-1.37Z" class="cls-4"/><path data-cppathid="10140" transform="translate(-1471.01 -928.33)" d="M1782.77,1254.37a.67.67,0,0,1-.15.14,10.46,10.46,0,0,1-5.44,6.71,2.87,2.87,0,0,0-.51-.55,9.37,9.37,0,0,0,5.06-5.91h-3.56a10.25,10.25,0,0,1-2.24,2.47,3.94,3.94,0,0,0-.57-.46,10.16,10.16,0,0,0,3.19-4.34l.94.27c0,.1-.16.13-.29.13a10.63,10.63,0,0,1-.64,1.26h3.52l.12-.06Z" class="cls-4"/><path data-cppathid="10141" transform="translate(-1471.01 -928.33)" d="M1789.9,1257.79a37.08,37.08,0,0,0-3.5-1.63v5h-.75v-8.69l1,.06c0,.11-.09.18-.25.21v2.92l.15-.21a35.48,35.48,0,0,1,3.75,1.67Z" class="cls-4"/><path data-cppathid="10142" transform="translate(-1471.01 -928.33)" d="M1795.15,1254a.28.28,0,0,1-.26.15,15,15,0,0,1-2.4,6.4,3.54,3.54,0,0,0-.67-.35,13.66,13.66,0,0,0,2.32-6.41Zm5,6.5a33.81,33.81,0,0,0-2.66-6.44l.65-.31a32.18,32.18,0,0,1,2.74,6.46Zm-1.45-8a7.15,7.15,0,0,1,1.22,1.48l-.38.28a8.07,8.07,0,0,0-1.22-1.48Zm1.32-.52a8.2,8.2,0,0,1,1.23,1.47l-.39.29a8,8,0,0,0-1.22-1.47Z" class="cls-4"/><path data-cppathid="10143" transform="translate(-1471.01 -928.33)" d="M1803.15,1255.15a10.82,10.82,0,0,1,.75,2.15l-.56.15a11.22,11.22,0,0,0-.73-2.13Zm6,.07c0,.09-.12.11-.21.1-.78,2.92-2.25,4.71-4.66,5.68a3.18,3.18,0,0,0-.39-.46c2.38-.93,3.75-2.57,4.48-5.55Zm-3.54-.55a13.69,13.69,0,0,1,.47,2.27l-.59.11a11.3,11.3,0,0,0-.47-2.25Z" class="cls-4"/><path data-cppathid="10144" transform="translate(-1471.01 -928.33)" d="M1817.77,1254.37a.67.67,0,0,1-.15.14,10.46,10.46,0,0,1-5.44,6.71,2.87,2.87,0,0,0-.51-.55,9.37,9.37,0,0,0,5.06-5.91h-3.56a10.25,10.25,0,0,1-2.24,2.47,3.94,3.94,0,0,0-.57-.46,10.16,10.16,0,0,0,3.19-4.34l.94.27c0,.1-.16.13-.29.13a10.63,10.63,0,0,1-.64,1.26h3.52l.12-.06Z" class="cls-4"/><path data-cppathid="10145" transform="translate(-1471.01 -928.33)" d="M1826.74,1253.84v6.6H1826v-.63h-5.5v.65h-.7v-6.62Zm-.72,5.3v-4.63h-5.5v4.63Z" class="cls-4"/><path data-cppathid="10146" transform="translate(-1471.01 -928.33)" d="M1835.82,1254.46a.54.54,0,0,1-.15.15,10.28,10.28,0,0,1-5.4,6.68,2.33,2.33,0,0,0-.51-.54,9.22,9.22,0,0,0,5-5.89h-3.52a10,10,0,0,1-2.21,2.44,3.24,3.24,0,0,0-.56-.45,10,10,0,0,0,3.17-4.38l.94.26a.26.26,0,0,1-.28.13c-.2.45-.43.93-.66,1.33h3.47l.12-.06Zm-1.24-2.3a7.51,7.51,0,0,1,1.31,1.42l-.37.32a7.18,7.18,0,0,0-1.29-1.42Zm1.45-.29a7.22,7.22,0,0,1,1.31,1.42l-.37.31a7.08,7.08,0,0,0-1.29-1.41Z" class="cls-4"/><path data-cppathid="10147" transform="translate(-1471.01 -928.33)" d="M1846.2,1253.38a.25.25,0,0,1-.13.09,8.57,8.57,0,0,1-2.37,3.2,4.33,4.33,0,0,0-.61-.41,6,6,0,0,0,2-2.48h-7.15v-.68h7.53l.11,0Zm-3.89,1.82a.27.27,0,0,1-.24.17c-.28,2.36-1.09,4.61-3.15,5.79a4.8,4.8,0,0,0-.59-.45c2-1.12,2.77-3.21,3-5.62Z" class="cls-4"/><path data-cppathid="10148" transform="translate(-1471.01 -928.33)" d="M1854.33,1253.11a.23.23,0,0,1-.19.08h-.1a24.2,24.2,0,0,1-2.84,2.39l.24.11a.26.26,0,0,1-.22.13v5.36h-.73V1256a28.79,28.79,0,0,1-3.81,2.23,3.64,3.64,0,0,0-.42-.55,25.19,25.19,0,0,0,7.32-5.17Z" class="cls-4"/><path data-cppathid="10149" transform="translate(-1471.01 -928.33)" d="M1863.51,1256.4h-3.38l.17,0a.21.21,0,0,1-.19.12,5.44,5.44,0,0,1-3.09,4.56,6.77,6.77,0,0,0-.54-.5,4.7,4.7,0,0,0,2.88-4.23h-3.88v-.67h8Zm-1-2.82h-6.13v-.67h6.13Z" class="cls-4"/><path data-cppathid="10150" transform="translate(-1471.01 -928.33)" d="M1872.38,1260.91c-.15-.33-.33-.69-.53-1.05-2.08.22-5.49.43-7,.51a.31.31,0,0,1-.19.2l-.27-.9,1.05,0c.66-1.92,1.61-4.91,2.16-6.91l1,.26a.29.29,0,0,1-.29.14c-.55,1.84-1.41,4.52-2.1,6.48,1.66-.07,4-.24,5.34-.36a18,18,0,0,0-1.77-2.44l.59-.34a19.86,19.86,0,0,1,2.76,4.14Z" class="cls-4"/><path data-cppathid="10151" transform="translate(-1471.01 -928.33)" d="M1802.76,1265.23a6.32,6.32,0,0,0,0,9.19v0h-.6a6.6,6.6,0,0,1,0-9.29h.6Z" class="cls-4"/><path data-cppathid="10152" transform="translate(-1471.01 -928.33)" d="M1803.77,1266.11a9.65,9.65,0,0,1,1.73-.15c2.46,0,2.66,1.58,2.66,2.18,0,1.79-1.43,2.43-2.78,2.43a3.14,3.14,0,0,1-.78-.07v3.12h-.83Zm.83,3.7a3,3,0,0,0,.8.08c1.2,0,1.93-.6,1.93-1.69s-.78-1.57-1.82-1.57a4.41,4.41,0,0,0-.91.08Z" class="cls-4"/><path data-cppathid="10153" transform="translate(-1471.01 -928.33)" d="M1812.4,1269.55a2,2,0,0,1,1.57,1.92,2,2,0,0,1-.61,1.5,3.49,3.49,0,0,1-2.48.72c-.63,0-1.1-.06-1.41-.08v-7.49a8.26,8.26,0,0,1,1.64-.16,3,3,0,0,1,2,.56,1.67,1.67,0,0,1,.57,1.32,1.82,1.82,0,0,1-1.29,1.68Zm-1.21-.28c1,0,1.66-.58,1.66-1.36h0c0-.9-.66-1.29-1.7-1.29a3.58,3.58,0,0,0-.85.07v2.59Zm-.89,3.71a4.33,4.33,0,0,0,.81,0c1.05,0,2-.41,2-1.56s-1-1.56-2-1.56h-.8Z" class="cls-4"/><path data-cppathid="10154" transform="translate(-1471.01 -928.33)" d="M1815.27,1266h.83v7.61h-.83Z" class="cls-4"/><path data-cppathid="10155" transform="translate(-1471.01 -928.33)" d="M1817.11,1274.42a6.32,6.32,0,0,0,0-9.19v0h.6a6.6,6.6,0,0,1,0,9.29h-.6Z" class="cls-4"/><path data-cppathid="10156" transform="translate(-1471.01 -928.33)" d="M1758.51,1295.46h5.08l.05,0,.55.41a.2.2,0,0,1-.1.08c-.65,3-2,4.57-4.48,5.5a2.84,2.84,0,0,0-.37-.47,6.06,6.06,0,0,0,4.19-5h-4.92Zm6.09-1.43a.88.88,0,1,1-.88.88A.87.87,0,0,1,1764.6,1294Zm.61.88a.61.61,0,0,0-.61-.62.62.62,0,1,0,.61.62Z" class="cls-4"/><path data-cppathid="10157" transform="translate(-1471.01 -928.33)" d="M1772.1,1295.59v5.28h-.58v-.51h-4.4v.52h-.56v-5.29Zm-.58,4.24v-3.7h-4.4v3.7Z" class="cls-4"/><path data-cppathid="10158" transform="translate(-1471.01 -928.33)" d="M1779.38,1295.89s-.05.06-.1.08a10.56,10.56,0,0,1-1.16,2.64c.35.2.77.45,1.07.66l-.34.52a11.36,11.36,0,0,0-1.06-.69,7.33,7.33,0,0,1-2.87,2.4,1.47,1.47,0,0,0-.44-.42,7.23,7.23,0,0,0,2.81-2.27,13.68,13.68,0,0,0-1.79-.84l.31-.44a16,16,0,0,1,1.82.82,8.84,8.84,0,0,0,1-2.12H1776a8.42,8.42,0,0,1-1.8,2.18c-.1-.09-.32-.27-.45-.36a8.12,8.12,0,0,0,2.44-3.56l.74.21c0,.09-.13.11-.22.11a8.67,8.67,0,0,1-.41.88h2.59l.07,0Zm-.74-1.6a6.22,6.22,0,0,1,1.07,1.12l-.31.25a6.08,6.08,0,0,0-1.05-1.12Zm1-.29a6.57,6.57,0,0,1,1.08,1.1l-.31.24a5.67,5.67,0,0,0-1-1.09Z" class="cls-4"/><path data-cppathid="10159" transform="translate(-1471.01 -928.33)" d="M1787,1296l-.12.12a8.38,8.38,0,0,1-4.36,5.37,1.82,1.82,0,0,0-.4-.44,7.54,7.54,0,0,0,4.05-4.73h-2.85a8.17,8.17,0,0,1-1.8,2,3.56,3.56,0,0,0-.45-.37,8.06,8.06,0,0,0,2.55-3.47l.76.22c0,.08-.13.1-.23.1-.16.35-.33.69-.51,1h2.81l.1,0Z" class="cls-4"/><path data-cppathid="10160" transform="translate(-1471.01 -928.33)" d="M1792.71,1298.75a28.61,28.61,0,0,0-2.81-1.3v4h-.6v-6.94l.81,0c0,.09-.07.15-.21.17v2.34l.12-.17a27.39,27.39,0,0,1,3,1.33Z" class="cls-4"/><path data-cppathid="10161" transform="translate(-1471.01 -928.33)" d="M1796.9,1295.74q0,.1-.21.12a12.06,12.06,0,0,1-1.92,5.13,2.1,2.1,0,0,0-.53-.29,10.93,10.93,0,0,0,1.85-5.13Zm4,5.2a26.29,26.29,0,0,0-2.13-5.15l.52-.25a26,26,0,0,1,2.2,5.17Zm-1.16-6.43a5.85,5.85,0,0,1,1,1.18l-.31.23a6.74,6.74,0,0,0-1-1.19Zm1.06-.42a6.52,6.52,0,0,1,1,1.18l-.31.23a6,6,0,0,0-1-1.17Z" class="cls-4"/><path data-cppathid="10162" transform="translate(-1471.01 -928.33)" d="M1803.3,1296.64a8.6,8.6,0,0,1,.6,1.72l-.45.12a8.64,8.64,0,0,0-.58-1.71Zm4.77,0c0,.08-.09.09-.16.08a6.14,6.14,0,0,1-3.74,4.55,2,2,0,0,0-.31-.36,5.68,5.68,0,0,0,3.59-4.45Zm-2.83-.44a11.36,11.36,0,0,1,.38,1.82l-.47.09a9.5,9.5,0,0,0-.38-1.8Z" class="cls-4"/><path data-cppathid="10163" transform="translate(-1471.01 -928.33)" d="M1815,1296l-.12.12a8.38,8.38,0,0,1-4.36,5.37,1.82,1.82,0,0,0-.4-.44,7.54,7.54,0,0,0,4.05-4.73h-2.85a8.33,8.33,0,0,1-1.79,2,4.63,4.63,0,0,0-.46-.37,8.06,8.06,0,0,0,2.55-3.47l.76.22c0,.08-.13.1-.23.1-.16.35-.33.69-.51,1h2.81l.1,0Z" class="cls-4"/><path data-cppathid="10164" transform="translate(-1471.01 -928.33)" d="M1822.18,1295.59v5.28h-.58v-.51h-4.4v.52h-.56v-5.29Zm-.58,4.24v-3.7h-4.4v3.7Z" class="cls-4"/><path data-cppathid="10165" transform="translate(-1471.01 -928.33)" d="M1829.44,1296.09a.68.68,0,0,1-.12.12,8.25,8.25,0,0,1-4.32,5.34,2,2,0,0,0-.41-.43,7.4,7.4,0,0,0,4-4.71h-2.82a8.14,8.14,0,0,1-1.77,1.95,2.09,2.09,0,0,0-.45-.36,8,8,0,0,0,2.54-3.5l.75.2c0,.08-.12.11-.22.11-.16.36-.35.74-.53,1.06h2.78l.1,0Zm-1-1.84a5.8,5.8,0,0,1,1,1.13l-.3.26a5.81,5.81,0,0,0-1-1.14Zm1.16-.24a5.84,5.84,0,0,1,1.05,1.14l-.3.25a5.7,5.7,0,0,0-1-1.13Z" class="cls-4"/><path data-cppathid="10166" transform="translate(-1471.01 -928.33)" d="M1837.75,1295.22a.21.21,0,0,1-.11.07,6.77,6.77,0,0,1-1.89,2.56,4.13,4.13,0,0,0-.49-.32,4.89,4.89,0,0,0,1.59-2h-5.72V1295h6l.09,0Zm-3.12,1.46a.19.19,0,0,1-.19.13c-.23,1.89-.88,3.69-2.52,4.64a4,4,0,0,0-.48-.37c1.64-.89,2.22-2.56,2.41-4.49Z" class="cls-4"/><path data-cppathid="10167" transform="translate(-1471.01 -928.33)" d="M1844.25,1295a.18.18,0,0,1-.15.06H1844a18.88,18.88,0,0,1-2.28,1.91l.19.09a.18.18,0,0,1-.17.1v4.3h-.59v-4.11a22.77,22.77,0,0,1-3,1.78,2.87,2.87,0,0,0-.34-.44,20.31,20.31,0,0,0,5.86-4.13Z" class="cls-4"/><path data-cppathid="10168" transform="translate(-1471.01 -928.33)" d="M1851.59,1297.64h-2.7l.14,0a.21.21,0,0,1-.16.09,4.36,4.36,0,0,1-2.47,3.66,3.44,3.44,0,0,0-.44-.4,3.78,3.78,0,0,0,2.31-3.39h-3.1v-.54h6.42Zm-.79-2.26h-4.91v-.53h4.91Z" class="cls-4"/><path data-cppathid="10169" transform="translate(-1471.01 -928.33)" d="M1858.69,1301.25c-.12-.27-.26-.56-.42-.85-1.67.18-4.4.35-5.62.41a.22.22,0,0,1-.16.16l-.21-.72.84,0c.53-1.54,1.28-3.93,1.72-5.53l.78.21c0,.07-.11.11-.23.11-.44,1.48-1.13,3.62-1.68,5.19,1.33-.06,3.22-.2,4.28-.29a13.65,13.65,0,0,0-1.43-2l.48-.27a15.51,15.51,0,0,1,2.21,3.31Z" class="cls-4"/><path data-cppathid="10170" transform="translate(-1471.01 -928.33)" d="M1803,1305.3a5.08,5.08,0,0,0,0,7.36v0h-.48a5.31,5.31,0,0,1,0-7.44h.48Z" class="cls-4"/><path data-cppathid="10171" transform="translate(-1471.01 -928.33)" d="M1803.8,1306a7.12,7.12,0,0,1,1.38-.12c2,0,2.13,1.26,2.13,1.74,0,1.43-1.15,1.94-2.23,1.94a3,3,0,0,1-.62,0v2.5h-.66Zm.66,3a2.36,2.36,0,0,0,.64.07c1,0,1.54-.48,1.54-1.35s-.62-1.26-1.45-1.26a3,3,0,0,0-.73.07Z" class="cls-4"/><path data-cppathid="10172" transform="translate(-1471.01 -928.33)" d="M1810.7,1308.76a1.55,1.55,0,0,1,1.25,1.53,1.59,1.59,0,0,1-.48,1.2,2.77,2.77,0,0,1-2,.58,9,9,0,0,1-1.12-.07v-6a6.73,6.73,0,0,1,1.31-.12,2.35,2.35,0,0,1,1.6.44,1.34,1.34,0,0,1,.46,1.06,1.45,1.45,0,0,1-1,1.34Zm-1-.23c.81,0,1.33-.46,1.33-1.08h0c0-.72-.53-1-1.36-1a3.12,3.12,0,0,0-.68,0v2.07Zm-.71,3a3.65,3.65,0,0,0,.65,0c.84,0,1.59-.33,1.59-1.25s-.79-1.25-1.6-1.25H1809Z" class="cls-4"/><path data-cppathid="10173" transform="translate(-1471.01 -928.33)" d="M1813,1305.93h.66V1312H1813Z" class="cls-4"/><path data-cppathid="10174" transform="translate(-1471.01 -928.33)" d="M1814.47,1312.66a5.08,5.08,0,0,0,0-7.36v0h.48a5.29,5.29,0,0,1,0,7.44h-.48Z" class="cls-4"/><g id="trouble"><path data-cppathid="10175" transform="translate(-1471.01 -928.33)" d="M1769.07,1331.71h3.81l0,0,.4.31a.09.09,0,0,1-.07.06,5,5,0,0,1-3.36,4.12c-.07-.1-.19-.26-.27-.35a4.55,4.55,0,0,0,3.14-3.71h-3.69Zm4.57-1.07a.66.66,0,1,1-.66.66A.66.66,0,0,1,1773.64,1330.64Zm.45.66a.45.45,0,0,0-.45-.46.46.46,0,0,0-.47.46.47.47,0,0,0,.47.46A.46.46,0,0,0,1774.09,1331.3Z" class="cls-4"/><path data-cppathid="10176" transform="translate(-1471.01 -928.33)" d="M1779.26,1331.81v4h-.43v-.38h-3.31v.39h-.42v-4Zm-.43,3.18v-2.78h-3.31V1335Z" class="cls-4"/><path data-cppathid="10177" transform="translate(-1471.01 -928.33)" d="M1784.72,1332s0,0-.07.07a8.22,8.22,0,0,1-.87,2c.25.15.57.34.79.5l-.25.39a6.9,6.9,0,0,0-.8-.52,5.5,5.5,0,0,1-2.15,1.8,1.22,1.22,0,0,0-.32-.32,5.33,5.33,0,0,0,2.1-1.7,11.55,11.55,0,0,0-1.34-.63l.23-.33a12.51,12.51,0,0,1,1.36.62,6.17,6.17,0,0,0,.72-1.59h-2a6.52,6.52,0,0,1-1.35,1.63l-.34-.27a6.09,6.09,0,0,0,1.83-2.67l.56.16a.15.15,0,0,1-.17.08,6.68,6.68,0,0,1-.31.67h2l0,0Zm-.55-1.19a4.44,4.44,0,0,1,.79.84l-.22.18a5.16,5.16,0,0,0-.79-.84Zm.76-.23a4.93,4.93,0,0,1,.82.83l-.23.18a4.75,4.75,0,0,0-.8-.82Z" class="cls-4"/><path data-cppathid="10178" transform="translate(-1471.01 -928.33)" d="M1790.44,1332.12a.38.38,0,0,1-.09.09,6.32,6.32,0,0,1-3.27,4,1.58,1.58,0,0,0-.31-.33,5.64,5.64,0,0,0,3-3.55h-2.14a6.25,6.25,0,0,1-1.34,1.48,3.39,3.39,0,0,0-.34-.28,6.12,6.12,0,0,0,1.91-2.6l.57.16a.19.19,0,0,1-.18.08,7.69,7.69,0,0,1-.38.76H1790l.07,0Z" class="cls-4"/><path data-cppathid="10179" transform="translate(-1471.01 -928.33)" d="M1794.71,1334.18a22.29,22.29,0,0,0-2.1-1v3h-.45V1331l.61,0c0,.07-.06.11-.16.13v1.75l.09-.13a21,21,0,0,1,2.25,1Z" class="cls-4"/><path data-cppathid="10180" transform="translate(-1471.01 -928.33)" d="M1797.86,1331.92s-.07.08-.16.09a9,9,0,0,1-1.44,3.85,1.41,1.41,0,0,0-.4-.22,8.21,8.21,0,0,0,1.39-3.85Zm3,3.9a20.68,20.68,0,0,0-1.6-3.86l.39-.19a19.11,19.11,0,0,1,1.64,3.88ZM1800,1331a4.26,4.26,0,0,1,.73.89l-.23.16a4.68,4.68,0,0,0-.73-.88Zm.79-.31a4.94,4.94,0,0,1,.74.88l-.24.17a5,5,0,0,0-.73-.88Z" class="cls-4"/><path data-cppathid="10181" transform="translate(-1471.01 -928.33)" d="M1802.66,1332.59a6.41,6.41,0,0,1,.45,1.29l-.34.09a6.35,6.35,0,0,0-.43-1.27Zm3.58,0c0,.06-.07.07-.13.07a4.58,4.58,0,0,1-2.8,3.41,1.42,1.42,0,0,0-.23-.28,4.23,4.23,0,0,0,2.69-3.33Zm-2.12-.33a8.77,8.77,0,0,1,.28,1.37l-.35.06a7.12,7.12,0,0,0-.29-1.35Z" class="cls-4"/><path data-cppathid="10182" transform="translate(-1471.01 -928.33)" d="M1811.44,1332.12a.38.38,0,0,1-.09.09,6.32,6.32,0,0,1-3.27,4,1.58,1.58,0,0,0-.31-.33,5.64,5.64,0,0,0,3-3.55h-2.14a6.25,6.25,0,0,1-1.34,1.48,3.39,3.39,0,0,0-.34-.28,6.12,6.12,0,0,0,1.91-2.6l.57.16a.19.19,0,0,1-.18.08,7.69,7.69,0,0,1-.38.76H1811l.07,0Z" class="cls-4"/><path data-cppathid="10183" transform="translate(-1471.01 -928.33)" d="M1816.82,1331.81v4h-.43v-.38h-3.31v.39h-.42v-4Zm-.43,3.18v-2.78h-3.31V1335Z" class="cls-4"/><path data-cppathid="10184" transform="translate(-1471.01 -928.33)" d="M1822.27,1332.18l-.09.09a6.22,6.22,0,0,1-3.25,4,1.58,1.58,0,0,0-.31-.33,5.54,5.54,0,0,0,3-3.53h-2.12a5.87,5.87,0,0,1-1.32,1.46,1.92,1.92,0,0,0-.34-.27,5.89,5.89,0,0,0,1.9-2.62l.57.15a.15.15,0,0,1-.17.08,8.52,8.52,0,0,1-.4.8h2.09l.07,0Zm-.75-1.38a4.81,4.81,0,0,1,.79.85l-.23.19a4.39,4.39,0,0,0-.77-.85Zm.87-.17a4.2,4.2,0,0,1,.79.85l-.23.18a4.31,4.31,0,0,0-.77-.84Z" class="cls-4"/><path data-cppathid="10185" transform="translate(-1471.01 -928.33)" d="M1828.49,1331.53s0,0-.08.06a5.09,5.09,0,0,1-1.42,1.91l-.36-.24a3.6,3.6,0,0,0,1.19-1.49h-4.29v-.41h4.52l.06,0Zm-2.34,1.09c0,.05-.06.09-.13.1a4.36,4.36,0,0,1-1.9,3.48,2.48,2.48,0,0,0-.35-.27,3.94,3.94,0,0,0,1.8-3.37Z" class="cls-4"/><path data-cppathid="10186" transform="translate(-1471.01 -928.33)" d="M1833.37,1331.37a.13.13,0,0,1-.11.05h-.06a14.38,14.38,0,0,1-1.71,1.43l.14.07s-.06.07-.13.08v3.22h-.44v-3.08a16.72,16.72,0,0,1-2.28,1.33,3.59,3.59,0,0,0-.25-.33,14.94,14.94,0,0,0,4.39-3.1Z" class="cls-4"/><path data-cppathid="10187" transform="translate(-1471.01 -928.33)" d="M1838.88,1333.34h-2l.1,0s0,.07-.12.07a3.22,3.22,0,0,1-1.85,2.74c-.07-.07-.22-.22-.32-.3a2.84,2.84,0,0,0,1.73-2.54h-2.33v-.4h4.82Zm-.59-1.69h-3.69v-.4h3.69Z" class="cls-4"/><path data-cppathid="10188" transform="translate(-1471.01 -928.33)" d="M1844.2,1336.05c-.09-.2-.2-.42-.32-.63-1.24.13-3.29.25-4.21.3a.16.16,0,0,1-.12.12l-.16-.54.63,0c.4-1.15,1-3,1.3-4.14l.58.15a.17.17,0,0,1-.17.09c-.33,1.1-.85,2.71-1.26,3.88,1,0,2.41-.14,3.2-.21a9.9,9.9,0,0,0-1.06-1.47l.36-.2a11.72,11.72,0,0,1,1.65,2.48Z" class="cls-4"/><path data-cppathid="10189" transform="translate(-1471.01 -928.33)" d="M1802.43,1339.84a3.8,3.8,0,0,0,0,5.52v0h-.36a4,4,0,0,1,0-5.58h.36Z" class="cls-4"/><path data-cppathid="10190" transform="translate(-1471.01 -928.33)" d="M1803,1340.37a5.65,5.65,0,0,1,1-.09c1.47,0,1.59,1,1.59,1.31,0,1.07-.85,1.45-1.66,1.45a1.72,1.72,0,0,1-.47,0v1.88h-.5Zm.5,2.22a2.14,2.14,0,0,0,.48.05c.72,0,1.16-.36,1.16-1s-.47-.94-1.1-.94a2.89,2.89,0,0,0-.54,0Z" class="cls-4"/><path data-cppathid="10191" transform="translate(-1471.01 -928.33)" d="M1808.21,1342.43a1.17,1.17,0,0,1,.94,1.15,1.19,1.19,0,0,1-.37.9,2,2,0,0,1-1.48.43c-.38,0-.66,0-.85,0v-4.49a4.51,4.51,0,0,1,1-.1,1.76,1.76,0,0,1,1.2.34,1,1,0,0,1,.34.79,1.07,1.07,0,0,1-.77,1Zm-.73-.17c.61,0,1-.34,1-.81h0c0-.54-.4-.77-1-.77a2.4,2.4,0,0,0-.51,0v1.55Zm-.53,2.23a3,3,0,0,0,.49,0c.62,0,1.19-.25,1.19-.94s-.6-.93-1.2-.93H1807Z" class="cls-4"/><path data-cppathid="10192" transform="translate(-1471.01 -928.33)" d="M1809.93,1340.31h.5v4.57h-.5Z" class="cls-4"/><path data-cppathid="10193" transform="translate(-1471.01 -928.33)" d="M1811,1345.36a3.82,3.82,0,0,0,0-5.52v0h.36a4,4,0,0,1,0,5.58H1811Z" class="cls-4"/></g></g></g></svg>