<?xml version="1.0" encoding="UTF-8"?>
<svg xmlns="http://www.w3.org/2000/svg" onmouseup="{ if(window.parent.document.onmouseup) window.parent.document.onmouseup(arguments[0]);}" viewBox="0 0 469.24 434.6" xmlns:xlink="http://www.w3.org/1999/xlink"><defs><style>.cls-1{fill:none;}.cls-2{isolation:isolate;}.cls-3{font-size:28px;fill:#606060;font-family:Osaka;}.cls-4{stroke:#545454;stroke-linecap:round;stroke-linejoin:round;stroke-width:3px;fill:url(#linear-gradient);}.cls-5,.cls-6{font-size:18px;}.cls-5{fill:#231f20;}.cls-10,.cls-24,.cls-34,.cls-41,.cls-5,.cls-6,.cls-66{font-family:KozGoPr6N-Regular-83pv-RKSJ-H, Kozuka Gothic Pr6N;}.cls-10,.cls-24,.cls-34,.cls-41,.cls-50,.cls-6,.cls-62,.cls-66,.cls-76{fill:#fff;}.cls-7,.cls-8,.cls-9{fill:#50a1d3;}.cls-8{opacity:0.68;}.cls-9{opacity:0.32;}.cls-10{font-size:12px;}.cls-11{letter-spacing:-0.02em;}.cls-12{letter-spacing:-0.07em;}.cls-13{letter-spacing:-0.22em;}.cls-14{letter-spacing:-0.05em;}.cls-15{letter-spacing:-0.16em;}.cls-16{letter-spacing:-0.1em;}.cls-17{letter-spacing:-0.09em;}.cls-18{letter-spacing:-0.04em;}.cls-19{letter-spacing:-0.15em;}.cls-20{letter-spacing:-0.1em;}.cls-21{letter-spacing:-0.08em;}.cls-22{letter-spacing:-0.02em;}.cls-23{letter-spacing:-0.48em;}.cls-24{font-size:10px;}.cls-25{letter-spacing:-0.07em;}.cls-26{letter-spacing:-0.22em;}.cls-27{letter-spacing:-0.05em;}.cls-28{letter-spacing:-0.16em;}.cls-29{letter-spacing:-0.1em;}.cls-30{letter-spacing:-0.09em;}.cls-31{letter-spacing:-0.04em;}.cls-32{letter-spacing:-0.15em;}.cls-33{letter-spacing:-0.08em;}.cls-34{font-size:8px;}.cls-35{letter-spacing:-0.07em;}.cls-36{letter-spacing:-0.05em;}.cls-37{letter-spacing:-0.1em;}.cls-38{letter-spacing:-0.09em;}.cls-39{letter-spacing:-0.04em;}.cls-40{letter-spacing:-0.08em;}.cls-41{font-size:6px;}.cls-42{letter-spacing:-0.22em;}.cls-43{letter-spacing:-0.05em;}.cls-44{letter-spacing:-0.16em;}.cls-45{letter-spacing:-0.15em;}.cls-46{letter-spacing:-0.08em;}.cls-47{opacity:0.7;mix-blend-mode:lighten;}.cls-48{fill:url(#New_Gradient_Swatch_1);}.cls-49{fill:#929497;}.cls-51{fill:url(#New_Gradient_Swatch_2);}.cls-52{fill:url(#radial-gradient);}.cls-53,.cls-56,.cls-57,.cls-75{mix-blend-mode:screen;}.cls-53{fill:url(#radial-gradient-2);}.cls-54{fill:#6c5635;}.cls-55{fill:url(#Steel_Cylinder);}.cls-56{fill:url(#linear-gradient-2);}.cls-58{fill:url(#linear-gradient-3);}.cls-59{fill:url(#linear-gradient-4);}.cls-60{fill:url(#linear-gradient-5);}.cls-61{clip-path:url(#clip-path);}.cls-62,.cls-66{font-size:24.82px;}.cls-62{font-family:FranklinGothic-MediumCond, Franklin Gothic Medium Cond;font-weight:500;}.cls-63{letter-spacing:0.02em;}.cls-64{letter-spacing:0.01em;}.cls-65{letter-spacing:0em;}.cls-66{letter-spacing:-0.02em;}.cls-67{letter-spacing:-0.07em;}.cls-68{letter-spacing:-0.22em;}.cls-69{letter-spacing:-0.07em;}.cls-70{letter-spacing:-0.05em;}.cls-71{letter-spacing:-0.16em;}.cls-72{letter-spacing:-0.1em;}.cls-73{letter-spacing:-0.09em;}.cls-74{letter-spacing:-0.04em;}.cls-75{fill:url(#radial-gradient-3);}.cls-76{mix-blend-mode:color-dodge;}</style><linearGradient gradientUnits="userSpaceOnUse" y2="75.85" x2="81.52" y1="408.89" x1="81.52" id="linear-gradient"><stop stop-color="#5ed000" offset="0"/><stop stop-color="#ff0f00" offset="1"/></linearGradient><linearGradient gradientUnits="userSpaceOnUse" gradientTransform="translate(3757.46 2235.71) rotate(180)" y2="1221.71" x2="1945.63" y1="1128.98" x1="1945.63" id="New_Gradient_Swatch_1"><stop stop-color="#fff" offset="0"/><stop stop-color="#f7f7f7" offset="0.02"/><stop stop-color="#bebebe" offset="0.13"/><stop stop-color="#8b8b8b" offset="0.25"/><stop stop-color="#606060" offset="0.37"/><stop stop-color="#3d3d3d" offset="0.49"/><stop stop-color="#222" offset="0.62"/><stop stop-color="#0f0f0f" offset="0.74"/><stop stop-color="#040404" offset="0.87"/><stop offset="1"/></linearGradient><linearGradient gradientUnits="userSpaceOnUse" y2="1068.32" x2="1868.64" y1="1068.32" x1="1756.57" id="New_Gradient_Swatch_2"><stop stop-color="#929497" offset="0"/><stop stop-color="#dbdcdd" offset="0.5"/><stop stop-color="#c5c7c8" offset="0.56"/><stop stop-color="#afb0b3" offset="0.65"/><stop stop-color="#9fa0a3" offset="0.75"/><stop stop-color="#95979a" offset="0.86"/><stop stop-color="#929497" offset="1"/></linearGradient><radialGradient gradientUnits="userSpaceOnUse" r="51.53" cy="1067.73" cx="1812.02" id="radial-gradient"><stop stop-color="#fff" offset="0"/><stop stop-color="#fcfcfd" offset="0.33"/><stop stop-color="#f4f4f4" offset="0.54"/><stop stop-color="#e5e6e7" offset="0.72"/><stop stop-color="#d0d2d3" offset="0.88"/><stop stop-color="#bbbdbf" offset="1"/></radialGradient><radialGradient gradientUnits="userSpaceOnUse" gradientTransform="translate(4011.71 2045.24) rotate(180)" r="47.1" cy="985.34" cx="2200.25" id="radial-gradient-2"><stop stop-color="#fff" offset="0"/><stop stop-color="#e9e9e9" offset="0.07"/><stop stop-color="#878787" offset="0.42"/><stop stop-color="#3e3e3e" offset="0.7"/><stop stop-color="#111" offset="0.9"/><stop offset="1"/></radialGradient><linearGradient gradientUnits="userSpaceOnUse" y2="1148.28" x2="1906.59" y1="1165.12" x1="1889.76" id="Steel_Cylinder"><stop stop-color="#fff" offset="0"/><stop stop-color="#0b0b0b" offset="0.17"/><stop stop-color="#7f7f7f" offset="0.26"/><stop stop-color="#8e8e8e" offset="0.4"/><stop stop-color="#636363" offset="0.54"/><stop stop-color="#5f5f5f" offset="0.63"/><stop stop-color="#eaeaea" offset="0.72"/><stop stop-color="#fff" offset="0.79"/><stop offset="1"/></linearGradient><linearGradient gradientUnits="userSpaceOnUse" gradientTransform="matrix(-1.25, -1.09, 0.28, -0.32, 4194.74, 3463.57)" y2="551.17" x2="1990.67" y1="551.17" x1="1931.96" id="linear-gradient-2"><stop stop-color="#fff" offset="0"/><stop stop-color="#f6f6f6" offset="0.06"/><stop stop-color="#dfdfdf" offset="0.16"/><stop stop-color="#b8b8b8" offset="0.29"/><stop stop-color="#828282" offset="0.44"/><stop stop-color="#3f3f3f" offset="0.6"/><stop offset="0.74"/></linearGradient><linearGradient gradientUnits="userSpaceOnUse" gradientTransform="translate(-154.78 -11.81)" y2="1161.05" x2="2034.93" y1="1131.97" x1="2034.93" id="linear-gradient-3"><stop stop-color="#fff" offset="0"/><stop stop-color="#fafafa" offset="0.11"/><stop stop-color="#ececec" offset="0.23"/><stop stop-color="#d5d5d5" offset="0.36"/><stop stop-color="#b5b5b5" offset="0.5"/><stop stop-color="#8b8b8b" offset="0.64"/><stop stop-color="#585858" offset="0.79"/><stop stop-color="#1d1d1d" offset="0.93"/><stop offset="1"/></linearGradient><linearGradient gradientUnits="userSpaceOnUse" y2="1119.54" x2="1868.88" y1="1119.54" x1="1855.22" id="linear-gradient-4"><stop stop-color="#808184" offset="0"/><stop stop-color="#8a8b8d" offset="0.09"/><stop stop-color="#a4a5a7" offset="0.23"/><stop stop-color="#cecfd0" offset="0.41"/><stop stop-color="#dbdcdd" offset="0.47"/><stop stop-color="#626366" offset="1"/></linearGradient><linearGradient gradientUnits="userSpaceOnUse" gradientTransform="translate(-90.7 1765.4) rotate(-45)" y2="924.12" x2="1844.14" y1="924.12" x1="1830.88" id="linear-gradient-5"><stop stop-color="#dddfe0" offset="0"/><stop stop-color="#fff" offset="0.5"/><stop stop-color="#f2f2f3" offset="0.63"/><stop stop-color="#d0d2d3" offset="0.87"/><stop stop-color="#bbbdbf" offset="1"/></linearGradient><clipPath transform="translate(-1470.25 -927.12)" id="clip-path"><path data-cppathid="10000" d="M1862.56,1068A51.53,51.53,0,1,1,1811,1016.5,51.53,51.53,0,0,1,1862.56,1068Z" class="cls-1"/></clipPath><radialGradient gradientUnits="userSpaceOnUse" gradientTransform="translate(4137.51 2021.95) rotate(180)" r="46.63" cy="950.83" cx="2326.47" id="radial-gradient-3"><stop stop-color="#fff" offset="0"/><stop stop-color="#fbfbfb" offset="0.11"/><stop stop-color="#ededed" offset="0.24"/><stop stop-color="#d8d8d8" offset="0.37"/><stop stop-color="#b9b9b9" offset="0.5"/><stop stop-color="#929292" offset="0.64"/><stop stop-color="#616161" offset="0.77"/><stop stop-color="#292929" offset="0.91"/><stop offset="1"/></radialGradient></defs><g class="cls-2"><g data-name="Backlog Refinement" id="Backlog_Refinement"><g data-name="jp copy" id="jp_copy"><text data-cppathid="10001" transform="translate(0 24.06)" class="cls-3">バックログリファインメント</text><g data-name="priority arrows" id="priority_arrows"><polygon data-cppathid="10002" points="123.52 118.37 143.04 118.37 81.52 75.85 20 118.37 39.52 118.37 39.52 366.37 20 366.37 81.52 408.89 143.04 366.37 123.52 366.37 123.52 118.37" class="cls-4"/><text data-cppathid="10003" transform="translate(46.78 117.92)" class="cls-5">優先順位<tspan data-cppathid="10004" y="17" x="27">高</tspan></text><text data-cppathid="10005" transform="translate(45.78 116.92)" class="cls-6">優先順位<tspan data-cppathid="10006" y="17" x="27">高</tspan></text><text data-cppathid="10007" transform="translate(45.55 357.29)" class="cls-5">優先順位<tspan data-cppathid="10008" y="17" x="27">低</tspan></text><text data-cppathid="10009" transform="translate(44.55 356.29)" class="cls-6">優先順位<tspan data-cppathid="10010" y="17" x="27">低</tspan></text></g><g id="PBIs"><rect data-cppathid="10011" rx="5.67" height="42.85" width="171" y="124.29" x="253.52" class="cls-7"/><rect data-cppathid="10012" rx="5.67" height="42.85" width="171" y="76.52" x="253.52" class="cls-7"/><rect data-cppathid="10013" rx="5.67" height="42.85" width="171" y="172.06" x="253.52" class="cls-7"/><rect data-cppathid="10014" rx="5.67" height="42.85" width="171" y="219.82" x="253.52" class="cls-7"/><rect data-cppathid="10015" rx="5.67" height="42.85" width="171" y="267.59" x="253.52" class="cls-7"/><rect data-cppathid="10016" rx="4.75" height="35.89" width="143.25" y="318.36" x="265.79" class="cls-8"/><rect data-cppathid="10017" rx="3.89" height="29.43" width="117.46" y="363.12" x="278.11" class="cls-9"/><text data-cppathid="10018" transform="translate(262.16 96.01)" class="cls-10"><tspan data-cppathid="10019" class="cls-11">プ<tspan data-cppathid="10020" y="0" x="11.76" class="cls-12">ロダ</tspan><tspan data-cppathid="10021" y="0" x="34.08" class="cls-13">ク</tspan><tspan data-cppathid="10022" y="0" x="43.44" class="cls-12">ト</tspan><tspan data-cppathid="10023" y="0" x="54.6" class="cls-14">バ</tspan><tspan data-cppathid="10024" y="0" x="66" class="cls-15">ッ</tspan><tspan data-cppathid="10025" y="0" x="76.08" class="cls-16">ク</tspan><tspan data-cppathid="10026" y="0" x="86.88" class="cls-17">ロ</tspan><tspan data-cppathid="10027" y="0" x="97.8" class="cls-18">グ</tspan><tspan data-cppathid="10028" y="0" x="109.32" class="cls-19">ア</tspan><tspan data-cppathid="10029" y="0" x="119.52" class="cls-20">イ</tspan><tspan data-cppathid="10030" y="0" x="130.32" class="cls-21">テ</tspan><tspan data-cppathid="10031" y="0" x="141.36" class="cls-22">ム</tspan></tspan><tspan data-cppathid="10032" y="17" x="56.68" class="cls-11">（</tspan><tspan data-cppathid="10033" y="17" x="68.44">PB</tspan><tspan data-cppathid="10034" y="17" x="82.24" class="cls-11">I</tspan><tspan data-cppathid="10035" y="17" x="85.04" class="cls-23">）</tspan></text><rect data-cppathid="10036" rx="2.77" height="20.96" width="83.64" y="401.35" x="293.83" class="cls-9"/><text data-cppathid="10037" transform="translate(260.55 141.21)" class="cls-10"><tspan data-cppathid="10038" class="cls-11">プ<tspan data-cppathid="10039" y="0" x="11.76" class="cls-12">ロダ</tspan><tspan data-cppathid="10040" y="0" x="34.08" class="cls-13">ク</tspan><tspan data-cppathid="10041" y="0" x="43.44" class="cls-12">ト</tspan><tspan data-cppathid="10042" y="0" x="54.6" class="cls-14">バ</tspan><tspan data-cppathid="10043" y="0" x="66" class="cls-15">ッ</tspan><tspan data-cppathid="10044" y="0" x="76.08" class="cls-16">ク</tspan><tspan data-cppathid="10045" y="0" x="86.88" class="cls-17">ロ</tspan><tspan data-cppathid="10046" y="0" x="97.8" class="cls-18">グ</tspan><tspan data-cppathid="10047" y="0" x="109.32" class="cls-19">ア</tspan><tspan data-cppathid="10048" y="0" x="119.52" class="cls-20">イ</tspan><tspan data-cppathid="10049" y="0" x="130.32" class="cls-21">テ</tspan><tspan data-cppathid="10050" y="0" x="141.36" class="cls-22">ム</tspan></tspan><tspan data-cppathid="10051" y="17" x="56.68" class="cls-11">（</tspan><tspan data-cppathid="10052" y="17" x="68.44">PB</tspan><tspan data-cppathid="10053" y="17" x="82.24" class="cls-11">I</tspan><tspan data-cppathid="10054" y="17" x="85.04" class="cls-23">）</tspan></text><text data-cppathid="10055" transform="translate(262.16 191.07)" class="cls-10"><tspan data-cppathid="10056" class="cls-11">プ<tspan data-cppathid="10057" y="0" x="11.76" class="cls-12">ロダ</tspan><tspan data-cppathid="10058" y="0" x="34.08" class="cls-13">ク</tspan><tspan data-cppathid="10059" y="0" x="43.44" class="cls-12">ト</tspan><tspan data-cppathid="10060" y="0" x="54.6" class="cls-14">バ</tspan><tspan data-cppathid="10061" y="0" x="66" class="cls-15">ッ</tspan><tspan data-cppathid="10062" y="0" x="76.08" class="cls-16">ク</tspan><tspan data-cppathid="10063" y="0" x="86.88" class="cls-17">ロ</tspan><tspan data-cppathid="10064" y="0" x="97.8" class="cls-18">グ</tspan><tspan data-cppathid="10065" y="0" x="109.32" class="cls-19">ア</tspan><tspan data-cppathid="10066" y="0" x="119.52" class="cls-20">イ</tspan><tspan data-cppathid="10067" y="0" x="130.32" class="cls-21">テ</tspan><tspan data-cppathid="10068" y="0" x="141.36" class="cls-22">ム</tspan></tspan><tspan data-cppathid="10069" y="17" x="56.68" class="cls-11">（</tspan><tspan data-cppathid="10070" y="17" x="68.44">PB</tspan><tspan data-cppathid="10071" y="17" x="82.24" class="cls-11">I</tspan><tspan data-cppathid="10072" y="17" x="85.04" class="cls-23">）</tspan></text><text data-cppathid="10073" transform="translate(262.83 236.63)" class="cls-10"><tspan data-cppathid="10074" class="cls-11">プ<tspan data-cppathid="10075" y="0" x="11.76" class="cls-12">ロダ</tspan><tspan data-cppathid="10076" y="0" x="34.08" class="cls-13">ク</tspan><tspan data-cppathid="10077" y="0" x="43.44" class="cls-12">ト</tspan><tspan data-cppathid="10078" y="0" x="54.6" class="cls-14">バ</tspan><tspan data-cppathid="10079" y="0" x="66" class="cls-15">ッ</tspan><tspan data-cppathid="10080" y="0" x="76.08" class="cls-16">ク</tspan><tspan data-cppathid="10081" y="0" x="86.88" class="cls-17">ロ</tspan><tspan data-cppathid="10082" y="0" x="97.8" class="cls-18">グ</tspan><tspan data-cppathid="10083" y="0" x="109.32" class="cls-19">ア</tspan><tspan data-cppathid="10084" y="0" x="119.52" class="cls-20">イ</tspan><tspan data-cppathid="10085" y="0" x="130.32" class="cls-21">テ</tspan><tspan data-cppathid="10086" y="0" x="141.36" class="cls-22">ム</tspan></tspan><tspan data-cppathid="10087" y="17" x="56.68" class="cls-11">（</tspan><tspan data-cppathid="10088" y="17" x="68.44">PB</tspan><tspan data-cppathid="10089" y="17" x="82.24" class="cls-11">I</tspan><tspan data-cppathid="10090" y="17" x="85.04" class="cls-23">）</tspan></text><text data-cppathid="10091" transform="translate(263.63 283.71)" class="cls-10"><tspan data-cppathid="10092" class="cls-11">プ<tspan data-cppathid="10093" y="0" x="11.76" class="cls-12">ロダ</tspan><tspan data-cppathid="10094" y="0" x="34.08" class="cls-13">ク</tspan><tspan data-cppathid="10095" y="0" x="43.44" class="cls-12">ト</tspan><tspan data-cppathid="10096" y="0" x="54.6" class="cls-14">バ</tspan><tspan data-cppathid="10097" y="0" x="66" class="cls-15">ッ</tspan><tspan data-cppathid="10098" y="0" x="76.08" class="cls-16">ク</tspan><tspan data-cppathid="10099" y="0" x="86.88" class="cls-17">ロ</tspan><tspan data-cppathid="10100" y="0" x="97.8" class="cls-18">グ</tspan><tspan data-cppathid="10101" y="0" x="109.32" class="cls-19">ア</tspan><tspan data-cppathid="10102" y="0" x="119.52" class="cls-20">イ</tspan><tspan data-cppathid="10103" y="0" x="130.32" class="cls-21">テ</tspan><tspan data-cppathid="10104" y="0" x="141.36" class="cls-22">ム</tspan></tspan><tspan data-cppathid="10105" y="17" x="56.68" class="cls-11">（</tspan><tspan data-cppathid="10106" y="17" x="68.44">PB</tspan><tspan data-cppathid="10107" y="17" x="82.24" class="cls-11">I</tspan><tspan data-cppathid="10108" y="17" x="85.04" class="cls-23">）</tspan></text><text data-cppathid="10109" transform="translate(275.64 333.5)" class="cls-24"><tspan data-cppathid="10110" class="cls-11">プ<tspan data-cppathid="10111" y="0" x="9.8" class="cls-25">ロダ</tspan><tspan data-cppathid="10112" y="0" x="28.4" class="cls-26">ク</tspan><tspan data-cppathid="10113" y="0" x="36.2" class="cls-25">ト</tspan><tspan data-cppathid="10114" y="0" x="45.5" class="cls-27">バ</tspan><tspan data-cppathid="10115" y="0" x="55" class="cls-28">ッ</tspan><tspan data-cppathid="10116" y="0" x="63.4" class="cls-29">ク</tspan><tspan data-cppathid="10117" y="0" x="72.4" class="cls-30">ロ</tspan><tspan data-cppathid="10118" y="0" x="81.5" class="cls-31">グ</tspan><tspan data-cppathid="10119" y="0" x="91.1" class="cls-32">ア</tspan><tspan data-cppathid="10120" y="0" x="99.6" class="cls-29">イ</tspan><tspan data-cppathid="10121" y="0" x="108.6" class="cls-33">テ</tspan><tspan data-cppathid="10122" y="0" x="117.8">ム</tspan></tspan><tspan data-cppathid="10123" y="13" x="47.23" class="cls-11">（</tspan><tspan data-cppathid="10124" y="13" x="57.03">PB</tspan><tspan data-cppathid="10125" y="13" x="68.53" class="cls-11">I</tspan><tspan data-cppathid="10126" y="13" x="70.87" class="cls-23">）</tspan></text><text data-cppathid="10127" transform="translate(287.25 373.89)" class="cls-34"><tspan data-cppathid="10128" class="cls-11">プ<tspan data-cppathid="10129" y="0" x="7.84" class="cls-35">ロダ</tspan><tspan data-cppathid="10130" y="0" x="22.72" class="cls-13">ク</tspan><tspan data-cppathid="10131" y="0" x="28.96" class="cls-35">ト</tspan><tspan data-cppathid="10132" y="0" x="36.4" class="cls-36">バ</tspan><tspan data-cppathid="10133" y="0" x="44" class="cls-15">ッ</tspan><tspan data-cppathid="10134" y="0" x="50.72" class="cls-37">ク</tspan><tspan data-cppathid="10135" y="0" x="57.92" class="cls-38">ロ</tspan><tspan data-cppathid="10136" y="0" x="65.2" class="cls-39">グ</tspan><tspan data-cppathid="10137" y="0" x="72.88" class="cls-32">ア</tspan><tspan data-cppathid="10138" y="0" x="79.68" class="cls-29">イ</tspan><tspan data-cppathid="10139" y="0" x="86.88" class="cls-40">テ</tspan><tspan data-cppathid="10140" y="0" x="94.24">ム</tspan></tspan><tspan data-cppathid="10141" y="11" x="37.78" class="cls-11">（</tspan><tspan data-cppathid="10142" y="11" x="45.62">PB</tspan><tspan data-cppathid="10143" y="11" x="54.82" class="cls-11">I</tspan><tspan data-cppathid="10144" y="11" x="56.7" class="cls-23">）</tspan></text><text data-cppathid="10145" transform="translate(298.06 408.75)" class="cls-41" id="trouble"><tspan data-cppathid="10146" class="cls-11">プ<tspan data-cppathid="10147" y="0" x="5.88" class="cls-12">ロダ</tspan><tspan data-cppathid="10148" y="0" x="17.04" class="cls-42">ク</tspan><tspan data-cppathid="10149" y="0" x="21.72" class="cls-12">ト</tspan><tspan data-cppathid="10150" y="0" x="27.3" class="cls-43">バ</tspan><tspan data-cppathid="10151" y="0" x="33" class="cls-44">ッ</tspan><tspan data-cppathid="10152" y="0" x="38.04" class="cls-29">ク</tspan><tspan data-cppathid="10153" y="0" x="43.44" class="cls-17">ロ</tspan><tspan data-cppathid="10154" y="0" x="48.9" class="cls-31">グ</tspan><tspan data-cppathid="10155" y="0" x="54.66" class="cls-45">ア</tspan><tspan data-cppathid="10156" y="0" x="59.76" class="cls-29">イ</tspan><tspan data-cppathid="10157" y="0" x="65.16" class="cls-46">テ</tspan><tspan data-cppathid="10158" y="0" x="70.68">ム</tspan></tspan><tspan data-cppathid="10159" y="9" x="28.34" class="cls-11">（</tspan><tspan data-cppathid="10160" y="9" x="34.22">PB</tspan><tspan data-cppathid="10161" y="9" x="41.12" class="cls-11">I</tspan><tspan data-cppathid="10162" y="9" x="42.52" class="cls-23">）</tspan></text></g></g><g data-name="magnifying glass" id="magnifying_glass"><g class="cls-47"><path data-cppathid="10163" transform="translate(-1470.25 -927.12)" d="M1811.84,1016c25.48,0,46.22,19.77,46.78,44.34,0-.33,0-.67,0-1,0-25-21-45.34-46.81-45.34s-46.82,20.31-46.82,45.34c0,.34,0,.68,0,1C1765.6,1035.79,1786.33,1016,1811.84,1016Z" class="cls-48"/></g><path data-cppathid="10164" transform="translate(-1470.25 -927.12)" d="M1740.21,1069.39a71,71,0,1,0,71-71A71.06,71.06,0,0,0,1740.21,1069.39Z" class="cls-49"/><path data-cppathid="10165" transform="translate(-1470.25 -927.12)" d="M1746.44,1067.74a65.58,65.58,0,1,0,65.58-65.59A65.66,65.66,0,0,0,1746.44,1067.74Z" class="cls-50"/><path data-cppathid="10166" transform="translate(-1470.25 -927.12)" d="M1756.57,1068.31a56,56,0,1,0,56-56A56.11,56.11,0,0,0,1756.57,1068.31Z" class="cls-51"/><path data-cppathid="10167" transform="translate(-1470.25 -927.12)" d="M1756.57,1068.31a56,56,0,1,0,56-56A56.11,56.11,0,0,0,1756.57,1068.31Z" class="cls-51"/><path data-cppathid="10168" transform="translate(-1470.25 -927.12)" d="M1863.55,1067.74A51.53,51.53,0,1,1,1812,1016.2,51.53,51.53,0,0,1,1863.55,1067.74Z" class="cls-52"/><path data-cppathid="10169" transform="translate(-1470.25 -927.12)" d="M1765.87,1079.07a46.64,46.64,0,0,0,91.18,0c-11.77,7.85-29.33-7.35-47.07-7.35S1777.68,1086.92,1765.87,1079.07Z" class="cls-53"/><path data-cppathid="10170" transform="translate(-1470.25 -927.12)" d="M1872.59,1114.29a8.49,8.49,0,0,0-6,2.51h0l-7.17,7.15a8.58,8.58,0,0,0,0,12.13l58.32,60.52a8.58,8.58,0,0,0,12.13,0l7.16-7.16a8.59,8.59,0,0,0,0-12.14l-58.32-60.5A8.52,8.52,0,0,0,1872.59,1114.29Z" class="cls-54"/><path data-cppathid="10171" transform="translate(-1470.25 -927.12)" d="M1935.21,1179.08a6.1,6.1,0,0,1,0,8.59l-7.17,7.15a6.07,6.07,0,0,1-8.58,0l-58.31-60.5a6.09,6.09,0,0,1,0-8.6l7.16-7.15a6.05,6.05,0,0,1,8.57,0Z" class="cls-55"/><path data-cppathid="10172" transform="translate(-1470.25 -927.12)" d="M1929.5,1190.4c1.31.88,0-1.69-.74-2.54s-61.63-64.29-61.63-64.29l.5,1S1928.23,1189.54,1929.5,1190.4Z" class="cls-56"/><g class="cls-57"><path data-cppathid="10173" transform="translate(-1470.25 -927.12)" d="M1898.61,1144.57l-23-23a4.8,4.8,0,0,0-6.81,0l-5.7,5.68a4.86,4.86,0,0,0,0,6.83l15.15,15.14h.31A44,44,0,0,0,1898.61,1144.57Z" class="cls-58"/></g><path data-cppathid="10174" transform="translate(-1470.25 -927.12)" d="M1856.4,1119.51a4,4,0,0,0,5.68,5.68l5.62-5.62a4,4,0,1,0-5.68-5.69Z" class="cls-59"/><path data-cppathid="10175" transform="translate(-1470.25 -927.12)" d="M1866.74,1114.85a2.66,2.66,0,0,1,0,3.75l-5.63,5.62a2.63,2.63,0,0,1-3.75,0h0a2.63,2.63,0,0,1,0-3.74l5.62-5.63a2.67,2.67,0,0,1,3.76,0Z" class="cls-60"/><g class="cls-61"><rect data-cppathid="10176" rx="8.28" height="62.56" width="249.68" y="38.52" x="198.6" class="cls-7"/><rect data-cppathid="10177" rx="8.28" height="62.56" width="249.68" y="108.26" x="198.6" class="cls-7"/><text data-cppathid="10178" transform="translate(225.85 78.38)" class="cls-62">P<tspan data-cppathid="10179" y="0" x="12.27" class="cls-63">r</tspan><tspan data-cppathid="10180" y="0" x="19.4">oduct Ba</tspan><tspan data-cppathid="10181" y="0" x="100.57" class="cls-64">c</tspan><tspan data-cppathid="10182" y="0" x="110.93">klog I</tspan><tspan data-cppathid="10183" y="0" x="159.96" class="cls-65">t</tspan><tspan data-cppathid="10184" y="0" x="166.84">em</tspan></text><text data-cppathid="10185" transform="translate(198.96 150.31)" class="cls-66">プ<tspan data-cppathid="10186" y="0" x="24.32" class="cls-67">ロダ</tspan><tspan data-cppathid="10187" y="0" x="70.5" class="cls-68">ク</tspan><tspan data-cppathid="10188" y="0" x="89.86" class="cls-69">ト</tspan><tspan data-cppathid="10189" y="0" x="112.94" class="cls-70">バ</tspan><tspan data-cppathid="10190" y="0" x="136.52" class="cls-71">ッ</tspan><tspan data-cppathid="10191" y="0" x="157.37" class="cls-72">ク</tspan><tspan data-cppathid="10192" y="0" x="179.71" class="cls-73">ロ</tspan><tspan data-cppathid="10193" y="0" x="202.3" class="cls-74">グア</tspan></text></g><path data-cppathid="10194" transform="translate(-1470.25 -927.12)" d="M1765.46,1081a46.62,46.62,0,0,0,91.15,0c-11.77,7.85-27.85,16.42-45.59,16.42S1777.22,1088.81,1765.46,1081Z" class="cls-75"/><path data-cppathid="10195" transform="translate(-1470.25 -927.12)" d="M1813.34,1024c16.48,0,32,9,41.41,22.57-8.24-15.37-23.69-25.76-41.41-25.76s-33.17,10.39-41.43,25.8C1781.27,1033,1796.85,1024,1813.34,1024Z" class="cls-76"/><path data-cppathid="10196" transform="translate(-1470.25 -927.12)" d="M1811.3,1113.57c-16.46,0-32-9-41.39-22.59,8.23,15.39,23.67,25.77,41.39,25.77s33.21-10.4,41.43-25.8C1843.38,1104.59,1827.8,1113.57,1811.3,1113.57Z" class="cls-76"/></g></g></g></svg>